<svg xmlns="http://www.w3.org/2000/svg" xmlns:xlink="http://www.w3.org/1999/xlink" width="302.25" height="230.25"><defs><path id="d" d="M8.063-4.094q-.001 1.112-.5 2.032A3.6 3.6 0 0 1 6.266-.657Q5.704-.31 5-.156 4.312 0 3.188 0h-2.08v-8.219h2.047q1.219 0 1.922.188.716.175 1.203.469.844.533 1.313 1.406.468.86.468 2.062M6.92-4.109q-.002-.968-.344-1.625a2.4 2.4 0 0 0-1-1.047 3.4 3.4 0 0 0-1.031-.39 7 7 0 0 0-1.313-.11h-1.03v6.344h1.03q.779 0 1.375-.11a3.1 3.1 0 0 0 1.079-.437q.622-.387.921-1.032.312-.638.313-1.593m0 0"/><path id="e" d="M6.36-7.25H2.202v2.328H5.78v.969H2.203V0H1.11v-8.219h5.25Zm0 0"/><path id="f" d="M6.984-7.25H4.031V0H2.938v-7.25H0v-.969h6.984Zm0 0"/><path id="g" d="M8.438 0H7.344v-7.078L5.062-2.266h-.656L2.125-7.078V0H1.109v-8.219h1.485L4.797-3.64l2.125-4.578h1.516Zm0 0"/><path id="h" d="M7.594 0H6.437l-.812-2.297H2.063L1.25 0H.14l3-8.219h1.47ZM5.28-3.234 3.844-7.266 2.39-3.234Zm0 0"/><path id="i" d="M7.469-.594q-.317.128-.563.25a5 5 0 0 1-.64.235 6 6 0 0 1-.735.187q-.391.077-.86.078a5.1 5.1 0 0 1-1.64-.25A3.5 3.5 0 0 1 1.766-.89Q1.23-1.405.938-2.219.64-3.027.64-4.094q0-1.015.28-1.812.295-.809.829-1.36a3.6 3.6 0 0 1 1.266-.812q.749-.282 1.656-.281.67.002 1.328.156.656.158 1.469.562v1.297H7.39a5.3 5.3 0 0 0-1.36-.828 3.9 3.9 0 0 0-1.422-.266q-.626.002-1.14.204a2.45 2.45 0 0 0-.89.625q-.376.422-.595 1.062-.203.627-.203 1.453 0 .862.235 1.485c.156.418.351.757.593 1.015q.389.41.907.61a3.2 3.2 0 0 0 1.093.187c.532 0 1.024-.086 1.485-.265a4.2 4.2 0 0 0 1.297-.813h.078Zm0 0"/><path id="j" d="M6.531 0H1.11v-8.219h5.422v.969H2.203v2.266h4.328v.968H2.203v3.047h4.328Zm0 0"/><path id="k" d="M5.734-3.953q.263.235.438.594.17.361.172.922-.002.561-.203 1.03-.204.47-.578.829c-.274.25-.594.437-.97.562A3.9 3.9 0 0 1 3.36.172Q2.67.17 2 0A6 6 0 0 1 .922-.344V-1.5H1q.48.316 1.11.516a4 4 0 0 0 1.234.203 2.7 2.7 0 0 0 .734-.11 1.8 1.8 0 0 0 .64-.343c.165-.164.29-.344.376-.532q.124-.292.125-.75 0-.435-.14-.718a1.2 1.2 0 0 0-.391-.47 1.6 1.6 0 0 0-.61-.233A4.5 4.5 0 0 0 3.328-4h-.5v-.922h.39q.827.001 1.329-.344.516-.34.516-1.015a.97.97 0 0 0-.141-.532 1.1 1.1 0 0 0-.344-.359 1.8 1.8 0 0 0-.516-.203 3 3 0 0 0-.609-.062q-.532 0-1.125.187a4.7 4.7 0 0 0-1.11.531h-.062v-1.14c.258-.133.61-.254 1.047-.36a5 5 0 0 1 1.281-.172q.592.001 1.047.125.47.111.844.344c.258.18.457.39.594.64q.201.377.203.876-.002.69-.484 1.203a2.2 2.2 0 0 1-1.141.64v.079q.264.033.61.172c.226.093.421.214.577.359m0 0"/><path id="l" d="M7.969-.61c-.45.212-.938.391-1.469.548a6 6 0 0 1-1.547.218Q3.997.155 3.187-.109a3.6 3.6 0 0 1-1.359-.797 3.5 3.5 0 0 1-.89-1.328Q.64-3.044.64-4.11q0-1.968 1.14-3.11 1.156-1.139 3.172-1.14c.469 0 .945.058 1.438.172a7.2 7.2 0 0 1 1.578.562v1.297h-.094a43 43 0 0 0-.5-.344 5 5 0 0 0-.64-.36 5 5 0 0 0-.876-.28 4.5 4.5 0 0 0-1.093-.125q-1.378 0-2.188.89c-.531.594-.797 1.399-.797 2.406q-.002 1.594.828 2.485.845.877 2.297.875.529.001 1.063-.11.528-.106.922-.265v-2.016H4.688v-.953h3.28Zm0 0"/><path id="m" d="M7.39 0H6.032L2.125-7.344V0H1.109v-8.219h1.688L6.359-1.5v-6.719h1.032Zm0 0"/><path id="n" d="M6.188-2.969H1.64c0 .375.054.703.172.985q.17.422.468.687.295.268.688.406.387.127.875.125.621.001 1.265-.25c.426-.164.727-.328.907-.484h.062v1.125A9 9 0 0 1 5 0q-.549.14-1.156.14-1.535.002-2.39-.827-.861-.825-.86-2.36 0-1.512.812-2.39.828-.891 2.188-.891 1.247.001 1.922.734c.445.48.672 1.168.672 2.063Zm-1-.797q-.018-.808-.422-1.265-.41-.452-1.235-.453-.83.001-1.328.5-.504.486-.562 1.218Zm0 0"/><path id="o" d="M4.234-.062a5 5 0 0 1-.64.125q-.345.06-.625.062c-.625 0-1.106-.164-1.438-.5q-.485-.516-.484-1.64v-3.282H.344v-.86h.703v-1.78h1.031v1.78h2.156v.86H2.078v2.813q-.001.485.016.765c.02.18.078.344.172.5a.8.8 0 0 0 .328.328q.216.111.656.11.246.001.516-.078.279-.078.406-.125h.062Zm0 0"/><path id="p" d="M7.406 0H6.313v-4.016h-4.11V0H1.11v-8.219h1.094v3.235h4.11V-8.22h1.093Zm0 0"/><path id="q" d="M-6.828-6v3.922h2.187v-3.375h.907v3.375H0v1.031h-7.75V-6Zm0 0"/><path id="r" d="M-4.75-4.61v.063a4 4 0 0 0-.062.422q-.031.204-.032.484c0 .305.07.594.203.875q.206.425.516.813H0v.984h-5.812v-.984h.859q-.469-.575-.656-1.016a2.3 2.3 0 0 1-.203-.922q.002-.247.015-.359l.047-.36Zm0 0"/><path id="s" d="M-2.797-5.844v4.297q.534.001.938-.156.393-.171.64-.453.252-.264.375-.64c.086-.25.125-.524.125-.829q0-.592-.234-1.187-.235-.61-.469-.86v-.062h1.063q.22.502.359 1.015.14.518.14 1.094c0 .96-.257 1.715-.78 2.266-.532.543-1.274.812-2.235.812q-1.418.002-2.25-.781-.843-.78-.844-2.063 0-1.168.688-1.812.69-.64 1.953-.64Zm-.75.953q-.78.002-1.203.391-.422.375-.422 1.172 0 .783.469 1.25c.469.467.7.492 1.156.531Zm0 0"/><path id="t" d="M2.14-5.687v.968H-.655q.391.457.578.907c.121.304.187.624.187.968q0 1.05-.796 1.672-.797.61-2.204.61c-.5 0-.937-.07-1.312-.22a2.9 2.9 0 0 1-.969-.577 2.3 2.3 0 0 1-.594-.797 2.5 2.5 0 0 1-.203-.985c0-.312.04-.586.11-.828.062-.25.164-.5.297-.75l-.25-.062v-.907Zm-3.624.968h-3.282a3.3 3.3 0 0 0-.25.735q-.077.314-.078.672c0 .562.196.996.578 1.296q.581.439 1.579.438c.68 0 1.203-.117 1.578-.36q.549-.357.547-1.124 0-.423-.188-.844a3.6 3.6 0 0 0-.484-.813m0 0"/><path id="u" d="M0-5.797v.984h-.64q.393.486.593.954.201.455.203 1 .002.907-.547 1.422-.561.515-1.656.515h-3.765v-.984H-2.5q.44.002.75-.032.313-.046.547-.187a.85.85 0 0 0 .328-.36q.11-.233.11-.656c0-.25-.067-.523-.204-.828q-.2-.45-.5-.844h-4.343v-.984Zm0 0"/><path id="v" d="M0-5.844v.985h-3.312q-.388 0-.735.046-.357.048-.562.172a.8.8 0 0 0-.328.375 1.7 1.7 0 0 0-.11.641q.002.41.203.844.207.44.5.828H0v.984h-5.812v-.984h.64q-.374-.45-.578-.938a2.5 2.5 0 0 1-.219-1.015q0-.936.563-1.438.563-.499 1.64-.5Zm0 0"/><path id="w" d="M-.36-5.281q.236.504.36.937.124.44.125.938-.001.628-.172 1.156a2.4 2.4 0 0 1-.562.906q-.374.376-.953.594c-.383.137-.829.203-1.329.203q-1.435.002-2.25-.781-.81-.796-.812-2.078 0-.498.14-.985.143-.48.344-.89h1.094v.062a3.7 3.7 0 0 0-.531.922 2.6 2.6 0 0 0-.188.938q0 .832.563 1.312.55.486 1.64.485 1.049 0 1.61-.47c.375-.32.562-.765.562-1.327 0-.196-.023-.399-.078-.61A2.6 2.6 0 0 0-1-4.53a4 4 0 0 0-.234-.39 7 7 0 0 0-.203-.298v-.062Zm0 0"/><path id="x" d="M-5.812-6 2.14-2.61v1.047L-.281-2.64-5.812-.312v-1.079L-1.5-3.17l-4.312-1.813Zm0 0"/><path id="y" d="M2.14-4.094v1.203A8.2 8.2 0 0 1-.155-1.453q-1.248.516-2.813.516-1.574 0-2.828-.516a8.2 8.2 0 0 1-2.297-1.438v-1.203h.047q.376.44.875.828.502.375 1.156.704.644.315 1.422.515a6.8 6.8 0 0 0 1.625.188q.877 0 1.625-.188.738-.2 1.407-.515a6.2 6.2 0 0 0 1.156-.72q.513-.402.875-.812Zm0 0"/><path id="z" d="M-6.828-6.578v2.766H0v1.03h-6.828V0h-.922v-6.578Zm0 0"/><path id="A" d="M0-6.984v1.03h-3.797v3.876H0v1.031h-7.75v-1.031h3.047v-3.875H-7.75v-1.031Zm0 0"/><path id="B" d="M0-5.187v4.703h-.719L-5-3.875v3.313h-.812V-5.11h.703l4.28 3.422v-3.5Zm0 0"/><path id="C" d="M-2.969-3.906q1.564 0 2.813.515A8 8 0 0 1 2.14-1.969v1.203h-.047a7 7 0 0 0-.875-.812 6 6 0 0 0-1.156-.703 7.2 7.2 0 0 0-1.407-.516 6.7 6.7 0 0 0-1.625-.187q-.856 0-1.625.187-.778.188-1.422.516-.654.33-1.156.719a6 6 0 0 0-.875.796h-.047v-1.203A8 8 0 0 1-5.797-3.39q1.253-.515 2.828-.515m0 0"/><path id="D" d="M2.328-5.078q.936-1.22 2.36-1.219c.851 0 1.55.29 2.093.86.551.562.828 1.289.828 2.171q0 1.536-.921 2.532-.91.984-2.329.984-1.628.002-2.546-1.297-.908-1.31-.907-3.64 0-2.546 1.047-3.954 1.06-1.42 2.969-1.421.874 0 2.187.374v1.141c-.93-.351-1.683-.531-2.265-.531q-2.518.002-2.516 4m3.969 2.11q-.001-1.107-.5-1.75-.502-.64-1.39-.641-.832 0-1.423.562a1.75 1.75 0 0 0-.593 1.344q0 1.219.562 1.969t1.5.75c.563 0 1.008-.203 1.344-.61.332-.406.5-.945.5-1.625m0 0"/><path id="E" d="M1.656.047v-1.172q.966.391 1.844.39.966 0 1.516-.562.562-.575.562-1.578-.001-2.203-3.031-2.203-.362 0-.735.047v-4.781h4.97v1.14H2.968v2.578q1.888.001 2.937.875 1.062.878 1.063 2.407 0 1.44-.969 2.25Q5.045.25 3.328.25 2.592.248 1.656.047m0 0"/><path id="F" d="M5.11 0v-2.781H.702v-.985L5.11-9.812h1.235v5.968h1.312v1.063H6.344V0ZM1.968-3.844h3.234v-4.36Zm0 0"/><path id="G" d="M1.375-.078v-1.219q1.406.563 2.219.563.937.002 1.515-.547.593-.544.594-1.422 0-2.063-2.906-2.063H2.28v-.89h.469q2.72 0 2.719-1.922c0-1-.602-1.5-1.797-1.5q-.984 0-2.156.547v-1.14a7 7 0 0 1 2.25-.392c2.007 0 3.015.762 3.015 2.282q0 1.735-2.047 2.468c1.57.368 2.36 1.231 2.36 2.594 0 .93-.309 1.656-.922 2.188q-.908.783-2.5.781-.908 0-2.297-.328m0 0"/><path id="H" d="M1.125 0v-1.14q.576-1.342 2.313-2.907l.75-.672Q5.624-6.03 5.625-7.312q-.001-.828-.5-1.297-.487-.47-1.344-.47-1.018 0-2.406.798v-1.156q1.294-.624 2.594-.626 1.37 0 2.203.75.843.739.844 1.97 0 .877-.422 1.562-.425.69-1.563 1.656l-.515.438Q2.95-2.359 2.703-1.142H6.97V0Zm0 0"/><path id="I" d="M2.047 0v-.984H4V-8.72l-1.953.485v-1l3.266-.828v9.078H7.28V0Zm0 0"/><path id="J" d="M4.25.25q-1.517 0-2.453-1.422Q.859-2.608.859-4.906q0-2.327.938-3.735c.633-.945 1.469-1.421 2.5-1.421q1.547.002 2.484 1.421.951 1.407.953 3.704-.002 2.362-.953 3.78Q5.844.25 4.25.25m.016-.984c1.382 0 2.078-1.407 2.078-4.22q-.001-4.124-2.047-4.124-2.049 0-2.047 4.172 0 4.172 2.016 4.172m0 0"/><path id="K" d="M7.297-8.187H2.5V0H1.25v-9.281h6.047Zm0 0"/><path id="L" d="M8.406-9.234 5.172-4.672 8.39 0H6.953L4.406-3.797 1.781 0H.421l3.267-4.61L.5-9.233h1.438l2.515 3.75 2.578-3.75Zm0 0"/><path id="M" d="M8.734 0H7.125L3.438-4.14l-.922.984V0H1.28v-9.297h1.235v4.844L7.03-9.297h1.5l-4.156 4.36Zm0 0"/><path id="N" d="M7.156 0H1.25v-9.281H2.5v8.187h4.656Zm0 0"/><path id="O" d="M12.125-9.344 9.703 0H8.297L6.328-7.766 4.422 0H3.047L.578-9.344h1.266l1.969 7.766L5.75-9.344H7L8.953-1.5l1.953-7.844Zm0 0"/><path id="P" d="M8.344-9.312 5.14-4.703 8.344 0H6.906L4.375-3.828 1.781 0H.421l3.25-4.656L.5-9.312h1.422l2.516 3.78 2.546-3.78Zm0 0"/><path id="Q" d="M7.328-4.656q0 2.5-.797 3.672Q5.746.187 4.094.188 2.405.188 1.625-1 .858-2.186.859-4.64c0-1.657.258-2.88.782-3.673Q2.436-9.497 4.094-9.5q1.686 0 2.453 1.203.78 1.206.781 3.64M5.672-1.828q.215-.497.297-1.188.077-.686.078-1.64 0-.952-.078-1.657-.082-.701-.297-1.187-.223-.482-.61-.719-.376-.248-.968-.25-.598.002-.985.25-.375.236-.609.735-.205.455-.281 1.203c-.055.5-.078 1.047-.078 1.64q0 .971.062 1.625.06.657.297 1.172.201.504.578.75.388.251 1.016.25.591 0 .984-.234.388-.246.594-.75m0 0"/><path id="R" d="M7.203-2.984q0 .656-.234 1.265-.235.597-.657 1a3 3 0 0 1-1.062.672 4.2 4.2 0 0 1-1.437.235c-.5 0-.985-.055-1.454-.157a5.3 5.3 0 0 1-1.187-.39v-1.328h.078q.515.328 1.188.562.685.234 1.359.234c.289 0 .57-.039.844-.125q.42-.122.75-.437.264-.281.406-.656.14-.374.14-.875c0-.32-.058-.594-.171-.813a1.35 1.35 0 0 0-.453-.547 1.9 1.9 0 0 0-.782-.328A5.3 5.3 0 0 0 3.5-4.766q-.563.001-1.062.079-.502.064-.876.14v-4.828h5.579v1.11H2.766v2.484q.264-.013.547-.032c.187-.007.347-.015.484-.015q.75.001 1.312.125c.383.086.735.234 1.047.453q.497.362.766.906.28.55.281 1.36m0 0"/><path id="S" d="M6.797 0H1.75v-.953h1.938v-6.281H1.75v-.86q.388 0 .844-.062.451-.075.687-.203.28-.155.438-.391.169-.246.203-.656h.969v8.453h1.906Zm0 0"/><path id="T" d="M7.313-4.687q-.001 2.52-.782 3.703Q5.746.187 4.094.188 2.405.188 1.625-1 .858-2.2.859-4.672c0-1.664.258-2.894.782-3.687q.779-1.202 2.453-1.203 1.67 0 2.437 1.218.781 1.208.782 3.656m-1.641 2.86a4.5 4.5 0 0 0 .297-1.203q.077-.685.078-1.656 0-.952-.078-1.657-.08-.716-.313-1.203-.22-.482-.593-.719c-.25-.164-.575-.25-.97-.25-.398 0-.726.086-.984.25q-.375.236-.609.735-.221.468-.297 1.218c-.055.493-.078 1.04-.078 1.641q0 .984.063 1.64c.05.438.156.837.312 1.188q.201.486.578.75.388.251 1.016.25.575 0 .968-.234.387-.246.61-.75m0 0"/><path id="U" d="M12-9.328 9.594 0H8.219L6.266-7.734 4.375 0h-1.36L.579-9.328h1.25l1.953 7.75 1.906-7.75h1.25L8.876-1.5l1.922-7.828Zm0 0"/><path id="V" d="M6.547 0H5.375v-.75q-.158.112-.422.313a3 3 0 0 1-.5.296 3.6 3.6 0 0 1-1.562.329q-.938 0-1.594-.625Q.64-1.06.64-2.032q0-.795.344-1.28.341-.5.97-.782c.413-.187.921-.312 1.515-.375.594-.07 1.226-.125 1.906-.156v-.172q0-.403-.14-.672a1 1 0 0 0-.391-.406 1.6 1.6 0 0 0-.61-.203 5 5 0 0 0-.718-.047q-.457.001-1.032.125a10 10 0 0 0-1.156.344h-.062v-1.188q.339-.093.984-.203a6.7 6.7 0 0 1 1.266-.125q.731.001 1.28.125.546.13.938.422a1.8 1.8 0 0 1 .594.75q.218.457.219 1.125ZM5.375-1.719v-1.953a92 92 0 0 0-1.266.094q-.72.064-1.14.187a1.8 1.8 0 0 0-.813.454q-.313.3-.312.828c0 .398.117.699.36.906.25.2.616.297 1.108.297a2.6 2.6 0 0 0 1.11-.235q.515-.248.953-.578m0 0"/><path id="W" d="M7.14-7 4.345 0H3.172L.375-7h1.266l2.156 5.578L5.922-7Zm0 0"/><path id="X" d="M6.953-3.375h-5.11q0 .645.188 1.125a2.1 2.1 0 0 0 1.297 1.234q.45.158.985.157.7 0 1.421-.282.716-.292 1.016-.562h.063v1.281Q6.23-.17 5.609 0a5.3 5.3 0 0 1-1.28.156q-1.737 0-2.704-.937-.97-.938-.969-2.672-.002-1.716.922-2.719.937-1.015 2.453-1.016 1.407.001 2.157.829c.507.554.765 1.336.765 2.343Zm-1.14-.906q-.001-.92-.454-1.422-.454-.516-1.39-.516-.937 0-1.5.563-.55.55-.625 1.375Zm0 0"/><path id="Y" d="M8.531-9.328 5.171 0h-1.64L.156-9.328h1.328l2.891 8.203 2.906-8.203Zm0 0"/><path id="Z" d="M6.281-.437A8 8 0 0 1 5.156 0Q4.64.154 4.063.156 3.294.155 2.672-.062a2.6 2.6 0 0 1-1.063-.672q-.457-.45-.703-1.141-.251-.684-.25-1.61-.002-1.715.922-2.687.938-.984 2.484-.984.593 0 1.157.172.575.159 1.062.406v1.312H6.22a4.3 4.3 0 0 0-1.11-.64A2.9 2.9 0 0 0 4-6.141c-.656 0-1.18.227-1.562.672q-.58.674-.579 1.985 0 1.266.563 1.953c.375.449.898.672 1.578.672q.356 0 .719-.094.373-.094.672-.25.246-.124.468-.266c.157-.101.274-.191.36-.265h.062Zm0 0"/><path id="aa" d="M4.75-.062q-.33.093-.719.14-.393.062-.687.063-1.064 0-1.625-.578-.549-.576-.547-1.844V-6H.39v-1h.78v-2h1.173v2H4.75v1H2.344v3.188q0 .55.015.859.03.315.188.578a.8.8 0 0 0 .36.375q.246.11.734.11.293.002.593-.079a4 4 0 0 0 .454-.156h.062Zm0 0"/><path id="ab" d="M7.063-3.5q-.001 1.72-.875 2.703-.863.985-2.329.985-1.47 0-2.343-.985Q.655-1.779.656-3.5q-.001-1.701.86-2.687.873-.999 2.343-1 1.466.001 2.329 1 .874.986.875 2.687m-1.204 0c0-.906-.18-1.578-.53-2.016q-.533-.656-1.47-.656-.955 0-1.484.656-.516.657-.516 2.016-.001 1.314.532 2 .529.673 1.468.672.937 0 1.47-.672c.35-.445.53-1.113.53-2m0 0"/><path id="ac" d="M5.484-5.719h-.062a4 4 0 0 0-.516-.078 5 5 0 0 0-.578-.031c-.367 0-.715.086-1.047.25a4.8 4.8 0 0 0-.969.61V0H1.157v-7h1.157v1.031q.701-.562 1.234-.797A2.6 2.6 0 0 1 4.625-7c.207 0 .352.008.438.016q.14.015.421.062Zm0 0"/><path id="ad" d="M8.656-4.406c0 .804-.18 1.531-.531 2.187a3.9 3.9 0 0 1-1.39 1.516q-.61.375-1.36.547C4.883-.051 4.235 0 3.422 0H1.188v-8.812H3.39q1.294 0 2.062.187a4.5 4.5 0 0 1 1.297.516 3.95 3.95 0 0 1 1.39 1.5q.516.925.516 2.203m-1.234-.016q0-1.031-.36-1.734a2.67 2.67 0 0 0-1.078-1.125 3.8 3.8 0 0 0-1.125-.407 6.8 6.8 0 0 0-1.39-.125h-1.11V-1h1.11q.842.001 1.469-.125a3.3 3.3 0 0 0 1.171-.469c.438-.281.766-.648.985-1.11q.328-.685.328-1.718m0 0"/><path id="ae" d="M7.781-7.797q.53.581.813 1.438c.195.574.297 1.226.297 1.953 0 .73-.102 1.383-.297 1.953q-.298.862-.813 1.437-.549.597-1.297.907c-.5.195-1.07.297-1.703.297a4.4 4.4 0 0 1-1.687-.313 3.5 3.5 0 0 1-1.297-.89 4.2 4.2 0 0 1-.828-1.438Q.688-3.31.688-4.406q0-1.079.28-1.922a4 4 0 0 1 .829-1.469 3.3 3.3 0 0 1 1.297-.89A4.5 4.5 0 0 1 4.78-9q.951 0 1.703.313.763.315 1.297.89m-.11 3.39q0-1.715-.78-2.64-.769-.937-2.094-.937-1.361 0-2.125.937-.767.925-.766 2.64c0 1.157.258 2.044.782 2.657q.779.924 2.109.922c.875 0 1.57-.305 2.094-.922q.78-.92.78-2.656m0 0"/><path id="af" d="M7.61-2.516c0 .344-.087.684-.25 1.016a2.5 2.5 0 0 1-.657.86q-.487.376-1.125.593-.626.201-1.516.203-.955 0-1.718-.172a9 9 0 0 1-1.547-.53v-1.47h.078q.667.564 1.547.86.89.298 1.656.297c.727 0 1.297-.133 1.703-.407q.61-.405.61-1.078c0-.394-.102-.687-.297-.875q-.282-.28-.875-.422a8 8 0 0 0-.969-.203q-.517-.075-1.094-.187c-.781-.164-1.367-.446-1.75-.844Q.844-5.482.844-6.453q0-1.108.937-1.813.938-.703 2.39-.703.92.001 1.704.172.779.175 1.375.438v1.39h-.078q-.503-.435-1.328-.718a5.2 5.2 0 0 0-1.688-.282c-.625 0-1.133.133-1.515.39q-.563.395-.563 1.016 0 .55.281.86.281.315 1 .484.375.081 1.079.203.701.112 1.187.235c.656.18 1.148.445 1.484.797.332.343.5.836.5 1.468m0 0"/><clipPath id="a"><path d="M38 191h200v.996H38Zm0 0"/></clipPath><clipPath id="b"><path d="M243 191h52v.996h-52Zm0 0"/></clipPath><clipPath id="c"><path d="M246 213h56.25v17H246Zm0 0"/></clipPath><clipPath id="ag"><path d="M159 6h6.602v5H159Zm0 0"/></clipPath></defs><path fill="#FFF" fill-rule="evenodd" d="M34.2 196.035h261.327V18.98H34.2Zm0 0"/><path fill="#FFF" fill-rule="evenodd" d="M39.027 191.973h197.7V21.359h-197.7Zm205.344 0h49.426V21.359H244.37Zm0 0"/><g clip-path="url(#a)"><path fill="none" stroke="#2A3F5F" stroke-width="1.094" d="M39.027 191.973h197.7Zm0 0"/></g><g clip-path="url(#b)"><path fill="none" stroke="#2A3F5F" stroke-width="1.094" d="M244.371 191.973h49.426Zm0 0"/></g><path fill="none" stroke="#D3D3D3" stroke-width=".547" d="M83.086 21.36v170.613M98.66 21.36v170.613M145.395 21.36v170.613M183.559 21.36v170.613M214.707 21.36v170.613m-175.68-24.426h197.7m-197.7-24.426h197.7m-197.7-24.43h197.7m-197.7-24.425h197.7M39.027 69.84h197.7m-197.7-24.426h197.7"/><path fill="none" stroke="red" stroke-miterlimit="2" stroke-width="1.094" d="m39.027 191.973 12.332-14.817.45-.465 6.168-5.832.449-.363 4.383-3.219.441-.277 5.305-2.777.422-.188 5.3-1.7.446-.105 5.273-.785.45-.035 2.652-.086"/><path fill="none" stroke="red" stroke-miterlimit="2" stroke-width="1.094" d="m39.027 191.973 12.332-14.817.45-.465 6.168-5.832.449-.363 4.383-3.219.441-.277 5.305-2.777.422-.188 5.3-1.7.446-.105 5.273-.785.45-.035 2.652-.086m-44.071 30.649 8.817-25.809.449-1.152 3.965-9.676.422-.988 4.406-8.875.445-.786 3.965-6.074.445-.566 3.52-3.746.441-.367 3.075-1.883.449-.168 2.648-.418.446.035 2.203.656.422.223 2.648 1.941.45.39 3.515 2.614.449.149.89.125m-44.07-32.888 8.375-.487.442-.047 20.27-1.953.44-.012 14.544.012"/><path fill="none" stroke="red" stroke-miterlimit="2" stroke-width="1.094" d="m39.027 104.71 8.375-.487.442-.047 20.27-1.953.44-.012 14.544.012m-44.071 2.487.891-.288.422-.363 1.34-1.891.445-.887 2.176-6.039.449-1.469 3.543-13.441.422-1.766 4.855-17.84.442-1.343 2.629-6.63.445-.843 2.203-2.969.445-.336 1.313-.5.45.012 1.312.551.441.363 1.762 2.25.449.762 2.203 4.898.45 1.184 3.066 9.605.449 1.512 6.164 19.73.45 1.028 2.202 3.871.45.504 1.312.96.441.138.45.043m0 65.808 15.566-.05m-15.566.05 1.386-.414.16-.094 1.555-1.433.153-.188 2.34-3.445.152-.262 8.582-13.836.16.09 1.078.633m-15.566-4.777 4.515.41.16.031 4.356 1.191.152.055 5.305 2.035.129-.203.95-1.152m-15.567-37.742 4.199-.391.156-.031 4.516-1.192.16-.054 6.535-2.578"/><path fill="none" stroke="red" stroke-miterlimit="2" stroke-width="1.094" d="m83.098 102.223 1.707-.422.156-.082 1.707-1.328.156-.164 1.867-2.442.153-.246 1.574-1.941.133.007 8.113.403m-15.566-.492 7.007-.137.16-.293 3.255-7.297.156-.39 4.668-12.672.32-.875m0 87.421 4.195-.937.477-.149 10.289-3.472.473-.05 1.863.273.469.488 12.601 14.191.473.563 10.289 12.68.477.59 5.117 6.523"/><path fill="none" stroke="red" stroke-miterlimit="2" stroke-width="1.094" d="m98.664 142.375 5.145 3.5.468.355 5.594 4.758.469.434 5.62 5.25.47.055 2.785.78.472.208 3.282 2.066.472.38 3.258 3.16.469.519 4.2 5.316.476.649 5.613 8.582.473.765 7.457 12.82"/><path fill="none" stroke="red" stroke-miterlimit="2" stroke-width="1.094" d="m98.664 139.965 3.754-3.746.441-.371 3.282-2.008.476-.203 3.254-.809.469-.027 2.808.3.477.133 2.805 1.278.449.297 2.808 2.273.473.461 3.281 3.91.473.649 4.672 7.765.445.89 4.668 10.009.477 1.101 5.617 14.32.477 1.274 5.117 14.512M98.664 97.977l4.195-1.532.477.063 9.344 1.789.468.113 11.688 3.227.469.133 9.343 2.07.473.07 7.48.738.45.016 2.336.047"/><path fill="none" stroke="red" stroke-miterlimit="2" stroke-width="1.094" d="m98.664 96.008 4.195.062.477-.218 7.95-4.239.476-.273 6.062-3.309.473-.191 3.258-.906.468-.047 2.813.27.469.14 2.332 1.133.476.312 2.813 2.438.441.488 4.227 5.043.445.59 4.672 5.238.476.395 2.333 1.41.472.16 1.395.207"/><path fill="none" stroke="red" stroke-miterlimit="2" stroke-width="1.094" d="m98.664 73.852 6.531-16.942.477-1.031 3.281-6.3.469-.75 2.34-3.118.441-.492 2.344-1.746.469-.196 1.863-.297.469.063 1.867.77.472.328 1.868 1.87.468.602 2.336 3.844.477.934 2.8 6.636.477 1.274 3.73 11.511.47 1.567 7.48 24.348.477 1.183 1.863 3.934.469.746 1.39 1.578.473.3.922.243m0 87.262 12.593-19.067.395-.508 4.57-5.539.395-.41 3.805-3.664.394-.316 3.805-2.664.394-.22 3.41-1.554.395-.129 3.805-.93.39-.054 3.813-.27"/><path fill="none" stroke="red" stroke-miterlimit="2" stroke-width="1.094" d="m145.387 191.973 12.593-19.067.395-.508 4.57-5.539.395-.41 3.805-3.664.394-.316 3.805-2.664.394-.22 3.41-1.554.395-.129 3.805-.93.39-.054 3.813-.27m-38.164 35.325 12.988-34.16.371-.895 6.484-13.844.395-.719 4.957-8.16.367-.53 4.2-4.872.394-.352 3.043-2.218.394-.207 2.68-.98.367-.075 1.524-.133m-38.164-20.118 2.304-.378.371-.133 2.676-1.43.395-.269 4.566-3.937.395-.36 5.719-4.992.37-.281 4.2-2.45.394-.164 3.805-1.171.367-.075 5.36-.53.39-.013 6.852-.043"/><path fill="none" stroke="red" stroke-miterlimit="2" stroke-width="1.094" d="m145.387 104.71 2.304-.378.371-.133 2.676-1.43.395-.269 4.566-3.937.395-.36 5.719-4.992.37-.281 4.2-2.45.394-.164 3.805-1.171.367-.075 5.36-.53.39-.013 6.852-.043"/><path fill="none" stroke="red" stroke-miterlimit="2" stroke-width="1.094" d="m145.387 104.71 1.152-.323.395-.246 1.523-1.653.367-.574 1.914-3.707.395-.89 3.41-9.672.394-1.204 10.293-32.468.395-1.016 4.563-10.598.394-.738 3.047-5.101.394-.54 2.676-3.148.367-.367 3.047-2.149.395-.175 2.277-.618.395-.03.37-.009m0 127.164 5.934.407.313.03 6.848.634.316-.004 3.73-.453.313-.078 3.125-1.223.285-.164 3.438-2.348.32-.262 3.726-3.605.313-.332 2.496-2.367"/><path fill="none" stroke="red" stroke-miterlimit="2" stroke-width="1.094" d="m183.55 156.648 3.122-.386.316-.082 3.727-1.442.316-.152 6.531-3.598.317-.168 5.305-2.402.312-.11 4.676-1.081.316-.043 5.586-.301h.633m-31.157-22.055 4.669.453.316.063 4.36 1.289.312.12 4.356 2.188.316.192 4.07 2.98.29.266 4.382 4.305.29.343 7.796 8.778M183.55 88.484l3.438.368.313.066 4.36 1.45.316.128 13.382 5.688.317.082 5.613 1.05.293.028 3.125.148"/><path fill="none" stroke="red" stroke-miterlimit="2" stroke-width="1.094" d="m183.55 88.484 4.356.364.313.05 4.36 1.122.316.113 5.93 2.484.312.149 8.715 3.664.32.09 4.672.89.312.02 1.551.062M183.55 29.484l1.864.328.313.122 2.18 1.336.312.261 2.496 2.692.316.41 3.121 4.879.317.562 3.73 7.48.309.673 9.031 18.707.313.504 2.812 3.675.316.305 2.176 1.473.317.105 1.234.203m0 73.684 4.406 3.648.211.184 11.235 8.8.238.118 3.066 1.281.239.059 2.628.351"/><path fill="none" stroke="red" stroke-miterlimit="2" stroke-width="1.094" d="m214.707 146.883 1.758-.946.234.032 3.07.926.239.097 3.52 2.16.206.168 3.102 2.887.207.242 3.309 3.871.207.27 4.203 4.129.207.117 1.761.488m-22.023-15.519 1.758-.27.234-.164 4.832-3.215.235-.125 3.73-1.918.234-.093 3.965-1.426.207-.063 5.723-.906.234-.012.871-.015m-22.023-40.106 6.402 1.75.207.067 8.586 2.23.239.035 5.484.63.234.007.871.012m-22.023-4.731 7.715-1.39.207-.028 7.273-.386.239.382 2.414 3.575.21.257 2.204 1.848.234.117 1.527.356M214.707 73.2l1.758.433.234.11 2.207 1.831.207.25 2.86 4.2.242.39 7.926 15.18.21-.004 6.38-.074"/><path fill="green" d="m38.602 191.527 1.027-1.277.851.688-1.027 1.277Zm2.058-2.554.594-.739.43-.539.855.68-.434.547-.593.738Zm2.059-2.555 1.031-1.277.848.687-1.032 1.277Zm2.062-2.55 1.032-1.278.847.687-1.031 1.278Zm2.063-2.555.582-.72.457-.53.031-.032.809.735-.024.027-.406-.367.414.355-.45.52-.413-.356.426.344-.579.715Zm2.172-2.497 1.101-1.214.809.734-1.102 1.215Zm2.199-2.433 1.101-1.215.813.734-1.102 1.215Zm2.234-2.438.184-.187 1.047-.942.73.813-1.031.93-.367-.407.39.387-.175.176Zm2.446-2.226 1.218-1.102.735.813-1.22 1.101Zm2.437-2.2 1.219-1.097.73.812-1.215 1.098Zm2.578-2.136 1.356-.926.617.902-1.356.926Zm2.707-1.856 1.352-.925.617.902-1.352.926Zm2.867-1.742 1.477-.715.477.989-1.481.71Zm2.954-1.426 1.48-.71.473.984-1.477.71Zm3.128-1.234 1.575-.457.304 1.05-1.578.454Zm3.149-.914.637-.184.496-.097.558-.067.13 1.086-.54.067-.066-.543.105.535-.45.086-.105-.535.153.527-.613.176Zm3.32-.54 1.63-.19.128 1.085-1.629.192Zm3.32-.335.735-.008.015 1.094-.738.008Zm0 0"/><path fill="green" d="m38.602 191.527 1.027-1.277.851.688-1.027 1.277Zm2.058-2.554.594-.739.43-.539.855.68-.434.547-.593.738Zm2.059-2.555 1.031-1.277.848.687-1.032 1.277Zm2.062-2.55 1.032-1.278.847.687-1.031 1.278Zm2.063-2.555.582-.72.457-.53.031-.032.809.735-.024.027-.406-.367.414.355-.45.52-.413-.356.426.344-.579.715Zm2.172-2.497 1.101-1.214.809.734-1.102 1.215Zm2.199-2.433 1.101-1.215.813.734-1.102 1.215Zm2.234-2.438.184-.187 1.047-.942.73.813-1.031.93-.367-.407.39.387-.175.176Zm2.446-2.226 1.218-1.102.735.813-1.22 1.101Zm2.437-2.2 1.219-1.097.73.812-1.215 1.098Zm2.578-2.136 1.356-.926.617.902-1.356.926Zm2.707-1.856 1.352-.925.617.902-1.352.926Zm2.867-1.742 1.477-.715.477.989-1.481.71Zm2.954-1.426 1.48-.71.473.984-1.477.71Zm3.128-1.234 1.575-.457.304 1.05-1.578.454Zm3.149-.914.637-.184.496-.097.558-.067.13 1.086-.54.067-.066-.543.105.535-.45.086-.105-.535.153.527-.613.176Zm3.32-.54 1.63-.19.128 1.085-1.629.192Zm3.32-.335.735-.008.015 1.094-.738.008Zm0 0"/><path fill="green" d="m38.516 191.676.582-1.531 1.023.386-.582 1.535Zm1.168-3.067.582-1.53 1.023.386-.586 1.535Zm1.164-3.066.586-1.531 1.02.386-.583 1.536Zm1.168-3.066.582-1.532 1.023.387-.582 1.535Zm1.168-3.067.582-1.531 1.023.387-.586 1.535Zm1.168-3.066.582-1.531 1.023.386-.586 1.535Zm1.164-3.067.058-.148.426-1.102.137-.304.996.449-.13.293-.5-.227.513.2-.422 1.078-.055.152Zm1.293-3.05.671-1.497 1 .45-.671 1.496Zm1.347-2.993.672-1.496.996.45-.672 1.496Zm1.344-2.992.672-1.496.996.45-.672 1.495Zm1.344-2.992.672-1.496.996.45-.672 1.495Zm1.355-3.012.438-.875.343-.601.95.539-.332.59-.477-.27.488.246-.433.86Zm1.59-2.902.809-1.43.949.543-.809 1.426Zm1.617-2.856.809-1.425.95.539-.81 1.426Zm1.617-2.855.809-1.426.95.54-.81 1.425Zm1.75-2.852.985-1.312.87.656-.98 1.313Zm1.965-2.625.985-1.312.875.656-.985 1.313Zm2.035-2.632.09-.098 1.149-1.059.738.809-1.129 1.035-.371-.402.41.363-.07.078Zm2.446-2.266 1.21-1.11.739.805-1.207 1.114Zm2.742-2.02 1.457-.746.5.973-1.461.746Zm3.18-1.324 1.625-.195.132 1.086-1.628.195Zm3.437-.078 1.594.379-.25 1.063-1.598-.38Zm3.207.84 1.563.496-.328 1.043-1.563-.496Zm3.13.992 1.456.461-.164.52.055-.543.11.011-.11 1.086-.164-.015-1.512-.48Zm-41.911-35.055 1.637-.07.047 1.094-1.637.066Zm3.277-.14 1.637-.07.047 1.093-1.637.07Zm3.278-.14 1.636-.067.047 1.09-1.637.07Zm3.257-.157 1.637-.121.082 1.09-1.637.12Zm3.274-.242 1.633-.121.082 1.09-1.637.12Zm3.27-.242 1.636-.121.082 1.09-1.637.12Zm3.273-.243 1.633-.125.082 1.094-1.637.121Zm3.27-.246 1.636-.12.078 1.09-1.633.124Zm3.269-.242 1.637-.121.082 1.09-1.637.125Zm3.273-.242 1.637-.121.078 1.09-1.633.12Zm3.27-.242 1.644-.121.02-.004.027 1.094h-.004l-.015-.543.043.543-1.633.12Zm3.312-.145 1.641-.02.012 1.094-1.64.016Zm3.282-.035 1.636-.016.012 1.094-1.64.016Zm3.277-.031 1.508-.016.008 1.094-1.504.016Zm0 0"/><path fill="green" d="m39.004 102.605 1.637-.07.047 1.094-1.637.066Zm3.277-.14 1.637-.07.047 1.093-1.637.07Zm3.278-.14 1.636-.067.047 1.09-1.637.07Zm3.257-.157 1.637-.121.082 1.09-1.637.12Zm3.274-.242 1.633-.121.082 1.09-1.637.12Zm3.27-.242 1.636-.121.082 1.09-1.637.12Zm3.273-.243 1.633-.125.082 1.094-1.637.121Zm3.27-.246 1.636-.12.078 1.09-1.633.124Zm3.269-.242 1.637-.121.082 1.09-1.637.125Zm3.273-.242 1.637-.121.078 1.09-1.633.12Zm3.27-.242 1.644-.121.02-.004.027 1.094h-.004l-.015-.543.043.543-1.633.12Zm3.312-.145 1.641-.02.012 1.094-1.64.016Zm3.282-.035 1.636-.016.012 1.094-1.64.016Zm3.277-.031 1.508-.016.008 1.094-1.504.016Zm0 0"/><path fill="green" d="m38.836 102.637 1.312-.485.192.512-.352-.418.184-.156.703.84-.258.215-1.402.52Zm2.246-1.727.941-1.34.895.625-.941 1.344Zm1.613-2.7.625-1.519 1.012.418-.625 1.516Zm1.25-3.034.621-1.52 1.012.418-.625 1.516Zm1.18-3.035.004-.008.512.183-.52-.164.492-1.554 1.043.328-.496 1.566-.008.02Zm.98-3.11.493-1.562 1.043.328-.493 1.566Zm.989-3.129.492-1.562 1.043.328-.492 1.566Zm.984-3.129.496-1.562 1.043.328-.496 1.566Zm.988-3.128.493-1.563 1.043.328-.493 1.567Zm.993-3.13.343-1.058.184-.516 1.027.371-.18.508-.515-.187.52.168-.34 1.05Zm1.082-3.117.558-1.543 1.028.372-.555 1.543Zm1.113-3.085.559-1.543 1.027.37-.555 1.544Zm1.113-3.086.555-1.543 1.031.37-.558 1.544Zm1.153-3.118.316-.707.445-.797.953.532-.433.777-.477-.266.5.223-.308.688Zm1.558-2.937.8-1.434.954.535-.797 1.43Zm1.692-2.902.25-.32.972-.9.742.805-.941.868-.367-.403.43.336-.223.285Zm2.796-2.352 1.621-.254.168 1.082-1.62.25Zm3.457.457.903.531.5.492.066.086-.875.657-.043-.055.438-.328-.383.39-.422-.418.383-.386-.278.468-.843-.496Zm2.45 2.422.984 1.312-.875.657-.984-1.313Zm1.882 2.805.727 1.468-.98.485-.727-1.47Zm1.454 2.937.726 1.473-.98.484-.727-1.473Zm1.464 2.973.41.976-.503.211.496-.226.242.527-.992.457-.246-.535-.414-.984Zm1.332 2.976.688 1.492-.992.457-.688-1.488Zm1.375 2.98.688 1.493-.992.457-.688-1.492Zm1.375 2.981.688 1.489-.992.457-.688-1.489Zm1.375 2.977.688 1.492-.992.457-.688-1.488Zm1.375 2.98.184.403-.496.23.465-.297.445.707-.46.293.421-.344.23.278-.847.691-.25-.305-.484-.761-.2-.438Zm1.829 2.54.933 1.148-.422.347.344-.425.125.097-.687.852-.168-.137-.973-1.187Zm2.3 1.859.641.285-.227.5.04-.547.449.031-.078 1.09-.547-.039-.723-.324Zm.848 72.523 1.637-.05.035 1.093-1.64.05Zm3.277-.101 1.641-.051.031 1.094-1.636.05Zm3.278-.098 1.64-.05.035 1.093-1.64.05Zm3.281-.102 1.637-.05.035 1.093-1.64.051Zm3.277-.101.274-.008.015.547-.054-.543.152-.016 1.195-.144.13 1.086-1.208.144-.176.02-.293.008Zm0 0"/><path fill="green" d="m82.965 159.344 1.59-.403.265 1.063-1.59.402Zm2.726-1.23.801-.618.336.434-.39-.387.16-.16.386.387-.425-.344.257-.317.848.688-.273.34-.204.203-.828.637Zm2.157-2.278 1.03-1.277.852.691-1.03 1.273Zm2.023-2.55.973-1.321.879.648-.97 1.32Zm1.942-2.641.972-1.325.88.649-.97 1.32Zm1.94-2.645.974-1.324.878.648-.968 1.32Zm1.942-2.648.973-1.32.879.648-.969 1.32Zm1.942-2.645.687-.934.563.25-.45 1-.156-.07.223-.5.441.324-.425.578Zm-14.497-4.555 1.637.13-.09 1.09-1.632-.13Zm3.27.262 1.637.129-.09 1.09-1.633-.13Zm3.32.473 1.598.37-.246 1.067-1.598-.37Zm3.262.77.09.03 1.445.567-.398 1.02-1.43-.563-.09-.031Zm3.063 1.198 1.527.598-.398 1.016-1.528-.598Zm-12.977-40.613 1.64-.058.036 1.093-1.637.059Zm3.277-.117 1.641-.059.04 1.094-1.641.059Zm3.278-.117 1.64-.059.04 1.094-1.641.059Zm3.281-.117 1.637-.055.039 1.09-1.637.058Zm3.262-.157 1.636-.097.067 1.09-1.637.101Zm0 0"/><path fill="green" d="m82.984 100.254 1.606-.34.226 1.07-1.605.34Zm2.856-.992 1.312-.875.301.457-.363-.41.047-.043.73.812-.078.07-1.34.899Zm2.36-2.04L89.292 96l.816.727-1.093 1.222Zm1.987-2.488.883-1.382.922.59-.883 1.382Zm1.766-2.765.633-.996.46.297-.472-.274.176-.308.129-.157.836.703-.098.118L93.2 91l.477.27-.16.28-.641 1.009Zm1.98-2.692.344-.41.516.16 1.238.434-.363 1.031-1.227-.43.18-.515-.16.52-.16-.047.164-.524.418.352-.11.132Zm3.645.73 1.266.442-.364 1.035-1.265-.445Zm0 0"/><path fill="green" d="m83.14 87.074 1.633.13-.082 1.089-1.636-.129Zm3.27.258 1.637.125-.086 1.094-1.637-.13Zm3.32.457 1.598.36-.238 1.066-1.598-.36Zm3.2.715.402.09.172.047-.145.527.094-.54.785.138-.093.539-.477-.262.133-.242.96.523-.323.586-1.2-.207-.183-.05.144-.528-.117.531-.39-.086Zm1.597-1.152.735-1.47.976.49-.734 1.468Zm1.47-2.938.73-1.465.98.489-.734 1.468Zm1.464-2.934.71-1.421.981.488-.71 1.426Zm1.121 77.188 1.625-.238.156 1.082-1.62.238Zm3.246-.477 1.621-.238.16 1.082-1.62.238Zm3.246-.48 1.621-.238.16 1.082-1.62.242Zm3.246-.477 1.621-.238.16 1.082-1.624.238Zm3.246-.476.18-.024.54.043 1.089.243-.234 1.066-1.055-.23.117-.536-.047.547-.441-.039.047-.547.078.543-.117.016Zm3.41.613.66.145.544.199.468.242-.5.973-.437-.227.25-.484-.188.511-.476-.175.187-.512-.117.535-.625-.14Zm3.13 1.336 1.382.711.117.074-.593.922-.094-.062.297-.461-.25.488-1.36-.7Zm2.816 1.934.586.578.465.55.097.118-.843.699-.09-.11-.45-.53.418-.352-.382.386-.57-.558Zm2.191 2.515 1.043 1.266-.844.695-1.042-1.265Zm2.086 2.531 1.04 1.266-.84.695-1.047-1.265Zm2.082 2.532 1.043 1.265-.844.696-1.043-1.266Zm2.086 2.531 1.043 1.27-.844.695-1.043-1.266Zm2.086 2.535.336.406.48.594.223.285-.86.676-.214-.273-.473-.586-.336-.407Zm2.055 2.574 1.012 1.293-.86.676-1.015-1.293Zm2.023 2.582 1.016 1.29-.86.675-1.015-1.289Zm2.028 2.579 1.011 1.292-.86.676-1.01-1.293Zm2.027 2.582 1.012 1.289-.86.675-1.011-1.289Zm2.027 2.578 1.012 1.293-.86.675-1.015-1.293Zm2.024 2.582 1.015 1.289-.863.676-1.012-1.29Zm2.027 2.578.152.191-.863.676-.148-.191Zm0 0"/><path fill="green" d="m98.938 142.05 1.417.829-.55.945-1.418-.828Zm2.835 1.653 1.415.828-.551.946-1.418-.829Zm2.868 1.73 1.3.997-.668.87-1.3-1Zm2.601 1.997 1.301 1-.668.867-1.3-1Zm2.625 2.03.371.333.844.797-.754.793-.836-.79.38-.398-.364.41-.367-.328Zm2.403 2.263 1.19 1.129-.753.793-1.191-1.13Zm2.378 2.257 1.192 1.13-.754.792-1.191-1.129Zm2.364 2.293 1.164 1.157-.774.777-1.164-1.156Zm2.324 2.317 1.164 1.156-.77.774-1.164-1.157Zm2.324 2.312.278.274-.383.39.34-.43.488.387.488.465-.754.793-.469-.449.375-.394-.34.425-.492-.39-.3-.297Zm2.403 2.215 1.187 1.13-.754.792-1.187-1.129Zm2.378 2.262.645.613.492.524.059.07-.836.703-.051-.059.418-.351-.398.375-.47-.504.4-.375-.38.398-.632-.601Zm2.25 2.46 1.059 1.255-.836.707-1.059-1.254Zm2.118 2.509 1.054 1.254-.836.707-1.054-1.254Zm2.117 2.53.293.376.695.96-.887.641-.687-.949.441-.32-.43.336-.285-.367Zm1.949 2.665.96 1.332-.886.64-.96-1.331Zm1.918 2.66.96 1.332-.886.64-.957-1.331Zm1.922 2.66.11.149.472.687.355.54-.91.6-.347-.519-.47-.683.45-.309-.441.32-.106-.144Zm1.844 2.742.906 1.368-.91.601-.907-1.367Zm1.812 2.735.906 1.367-.91.602-.906-1.368Zm1.816 2.734.907 1.367-.914.602-.907-1.367Zm0 0"/><path fill="green" d="m98.293 141.879 1.21-1.106.74.805-1.212 1.11Zm2.422-2.215 1.207-1.11.738.81-1.21 1.105Zm2.7-2.062 1.452-.762.512.965-1.453.765Zm3.019-1.489.05-.015 1.649-.282.18 1.079-1.602.273-.094-.54.172.52-.012.004Zm3.406-.511h.07l1.64.265-.171 1.078-1.598-.257.09-.54.008.547h-.027Zm3.398.605.117.04 1.43.698-.476.985-1.399-.684.242-.492-.172.52-.082-.028Zm3.078 1.5.442.285.902.758-.7.84-.882-.738.352-.418-.297.457-.414-.27Zm2.606 2.094 1.137.953.144.148-.777.766-.125-.129.386-.383-.347.418-1.121-.933Zm2.398 2.355 1.063 1.254-.836.707-1.059-1.254Zm2.121 2.504.426.5.5.664.121.196-.925.582-.11-.18.461-.29-.434.329-.476-.629.437-.328-.418.355-.414-.492Zm1.918 2.75.871 1.39-.925.583-.871-1.39Zm1.743 2.781.87 1.391-.925.582-.871-1.39Zm1.742 2.782.66 1.058.203.367-.953.532-.2-.356.477-.265-.46.289-.657-1.043Zm1.629 2.902.734 1.469-.98.488-.73-1.465Zm1.464 2.938.735 1.468-.98.489-.731-1.47Zm1.465 2.937.735 1.465-.98.488-.731-1.465Zm1.461 2.953.285.613.383.903-1.004.43-.382-.895.503-.215-.496.23-.28-.605Zm1.313 3.027.644 1.508-1.004.43-.644-1.508Zm1.289 3.016.644 1.508-1.007.43-.641-1.508Zm1.289 3.016.644 1.511-1.007.43-.645-1.512Zm1.289 3.02.254.59.379.933-1.012.414-.375-.918-.254-.59Zm1.234 3.058.598 1.527-1.02.399-.597-1.532Zm1.192 3.055.597 1.527-1.02.398-.593-1.527Zm1.195 3.058.594 1.527-1.016.399-.597-1.531Zm1.191 3.055.598 1.527-1.02.399-.597-1.528ZM98.586 99.59l1.625-.223.152 1.082-1.625.227Zm3.25-.45 1.625-.222.148 1.082-1.62.227Zm3.25-.449.035-.004.074.543-.132-.53.472-.122.137.531-.184-.515 1.051-.371.367 1.03-1.078.38-.527.137-.067.007Zm3-1.015 1.547-.543.363 1.031-1.547.547Zm3.05-1.16 1.071-.414.672.261-.2.508.18-.516.184.067-.36 1.031-.19-.066-.49-.192.2-.507.2.507-.872.34Zm3.458.445 1.547.543-.36 1.031-1.55-.539Zm3.097 1.082 1.547.543-.36 1.031-1.55-.539Zm3.094 1.086.95.328-.18.516.144-.528.473.133-.149.527.122-.535.144.035-.242 1.067-.156-.035-.5-.14-.965-.337Zm3.106.844 1.597.367-.246 1.066-1.597-.367Zm3.195.734 1.598.367-.243 1.067-1.597-.368Zm3.152.672 1.625.2-.133 1.085-1.625-.2Zm3.254.398 1.63.2-.134 1.085-1.629-.199Zm3.258.399 1.242.152-.062.543.039-.543.383.027-.079 1.09-.398-.027-1.258-.156Zm3.223.238 1.636.059-.039 1.09-1.636-.055Zm3.277.113 1.637.059-.04 1.094-1.636-.059Zm0 0"/><path fill="green" d="m98.867 90.46 1.52.614-.41 1.016-1.52-.617Zm3.04 1.231 1.523.618-.41 1.011-1.524-.613Zm3.042 1.23 1.52.618-.41 1.016-1.52-.618Zm3.04 1.235 1.519.614-.41 1.015-1.52-.617Zm3.042 1.23 1.38.56-.208.507-.258-.48.133-.075.52.965-.36.192-1.62-.657Zm2.504-.257 1.45-.762.507.969-1.449.762Zm2.903-1.524 1.453-.761.507.969-1.453.761Zm2.906-1.527 1.453-.762.508.97-1.453.76Zm3.191-1.289 1.625-.2.137 1.083-1.629.203Zm3.442-.11 1.593.387-.257 1.063-1.594-.387Zm3.265 1.051 1.395.868-.582.93-1.39-.872Zm2.785 1.739.13.078.507.394.7.625-.727.817-.688-.613.363-.407-.335.434-.47-.367.337-.434-.29.465-.105-.066Zm2.563 2.187 1.222 1.094-.726.816-1.227-1.09Zm2.445 2.184 1.227 1.094-.727.812-1.226-1.09Zm2.473 2.062 1.336.95-.633.89-1.34-.949Zm2.62 1.825.25.128-.245.489.164-.524 1.297.414-.332 1.043-1.336-.425-.29-.149Zm2.907.863.371.015-.043 1.09-.367-.011Zm0 0"/><path fill="green" d="m98.176 80.055.754-1.461.968.504-.75 1.457Zm1.504-2.918.754-1.457.968.5-.75 1.457Zm1.504-2.914.754-1.461.968.504-.75 1.457Zm1.504-2.918.753-1.457.97.5-.75 1.457Zm1.503-2.914.75-1.461.973.504-.75 1.457Zm1.532-2.95.437-.718.48-.68.895.629-.472.668-.446-.317.465.29-.43.699Zm1.867-2.738.945-1.34.895.63-.95 1.343Zm1.89-2.68.43-.613.52-.574.183-.164.723.82-.16.14-.36-.41.407.368-.477.527-.406-.363.445.316-.41.582Zm2.368-2.433 1.234-1.082.719.82-1.23 1.082Zm2.855-1.922 1.606-.578.062-.008.117 1.086-.058-.543.187.516-1.543.554Zm3.426-.484.777.097.551.219.422.25-.563.941-.382-.23.28-.469-.202.508-.442-.176.2-.508-.07.543-.712-.09Zm3.156 1.41.145.086.511.449.637.719-.82.726-.613-.695.41-.363-.364.414-.449-.395.363-.41-.28.469-.102-.063Zm2.38 2.48.687.774.378.57-.914.605-.355-.539.453-.304-.406.363-.66-.742Zm1.905 2.793.817 1.422-.95.543-.816-1.422Zm1.63 2.848.452.785.336.691-.98.48-.328-.671.488-.242-.477.273-.437-.773Zm1.464 3 .649 1.508-1.004.433-.649-1.508Zm1.297 3.015.644 1.508-1.003.434-.649-1.512Zm1.293 3.012.18.414.421 1.149-1.027.375-.418-1.133.516-.188-.504.215-.172-.398Zm1.2 3.074.605 1.524-1.016.402-.606-1.523Zm1.21 3.047.606 1.528-1.016.402-.606-1.523Zm1.211 3.051.605 1.523-1.015.407-.606-1.528Zm1.21 3.05.606 1.524-1.015.403-.606-1.524Zm1.212 3.048.605 1.523-1.015.406-.606-1.527Zm1.21 3.05.606 1.524-1.015.402-.606-1.523Zm1.212 3.047.605 1.528-1.015.402-.606-1.523Zm1.226 2.985.25.484-.484.254.441-.324.645.883-.883.644-.672-.918-.27-.52Zm1.82 2.62.727.993-.441.324.351-.418.317.266-.707.832-.364-.305-.765-1.047Zm2.286 1.84.12.06-.233.491.05-.543.45.043-.106 1.09-.547-.054-.207-.098Zm-.113 89.001.949-1.34.894.633-.949 1.34Zm1.898-2.676.41-.578.445.316-.453-.304.38-.567.163-.223.88.649-.157.21-.441-.323.457.304-.375.563-.415.586Zm1.918-2.676.973-1.32.882.652-.976 1.317Zm1.95-2.64.972-1.317.879.649-.973 1.32Zm1.948-2.637.973-1.32.879.648-.973 1.32Zm1.95-2.64.972-1.321.88.652-.974 1.317Zm1.949-2.641.972-1.317.88.649-.973 1.32Zm1.988-2.653.188-.219.91-1.02.816.731-.898 1-.184.22Zm2.191-2.457 1.094-1.222.817.73-1.094 1.219Zm2.192-2.445.39-.434.41-.402.395-.363.738.808-.386.356-.371-.403.382.391-.394.383-.383-.39.41.362-.379.422Zm2.406-2.305 1.211-1.105.738.804-1.21 1.11Zm2.422-2.215.188-.168.394-.34.79-.527.608.906-.761.512-.305-.453.356.418-.368.312-.355-.417.367.402-.176.164Zm2.73-1.953 1.36-.914.613.906-1.363.918Zm2.723-1.832.145-.097.441-.227.992-.414.422 1.008-.969.406-.21-.504.25.488-.395.2-.25-.485.305.453-.121.082Zm3.09-1.375 1.352-.566.226-.067.309 1.051-.2.059-.152-.528.211.504-1.324.555Zm3.234-.969 1.614-.308.203 1.078-1.61.305Zm3.325-.507.68-.024.038 1.094-.683.023Zm0 0"/><path fill="green" d="m144.938 191.555.949-1.34.894.633-.949 1.34Zm1.898-2.676.41-.578.445.316-.453-.304.38-.567.163-.223.88.649-.157.21-.441-.323.457.304-.375.563-.415.586Zm1.918-2.676.973-1.32.882.652-.976 1.317Zm1.95-2.64.972-1.317.879.649-.973 1.32Zm1.948-2.637.973-1.32.879.648-.973 1.32Zm1.95-2.64.972-1.321.88.652-.974 1.317Zm1.949-2.641.972-1.317.88.649-.973 1.32Zm1.988-2.653.188-.219.91-1.02.816.731-.898 1-.184.22Zm2.191-2.457 1.094-1.222.817.73-1.094 1.219Zm2.192-2.445.39-.434.41-.402.395-.363.738.808-.386.356-.371-.403.382.391-.394.383-.383-.39.41.362-.379.422Zm2.406-2.305 1.211-1.105.738.804-1.21 1.11Zm2.422-2.215.188-.168.394-.34.79-.527.608.906-.761.512-.305-.453.356.418-.368.312-.355-.417.367.402-.176.164Zm2.73-1.953 1.36-.914.613.906-1.363.918Zm2.723-1.832.145-.097.441-.227.992-.414.422 1.008-.969.406-.21-.504.25.488-.395.2-.25-.485.305.453-.121.082Zm3.09-1.375 1.352-.566.226-.067.309 1.051-.2.059-.152-.528.211.504-1.324.555Zm3.234-.969 1.614-.308.203 1.078-1.61.305Zm3.325-.507.68-.024.038 1.094-.683.023Zm0 0"/><path fill="green" d="m144.875 191.668.605-1.523 1.016.402-.601 1.527Zm1.215-3.047.601-1.527 1.02.406-.606 1.523Zm1.207-3.05.605-1.524 1.02.402-.61 1.524Zm1.219-3.055.195-.477.426-1.039 1.011.414-.425 1.04-.196.476Zm1.246-3.036.62-1.515 1.013.414-.625 1.516Zm1.242-3.035.621-1.52 1.012.419-.621 1.515Zm1.246-3.035.621-1.52 1.012.415-.621 1.52Zm1.242-3.035.625-1.52 1.012.415-.625 1.52Zm1.25-3.04.067-.151.636-1.356.989.465-.633 1.344-.492-.23.504.21-.06.14Zm1.399-2.991.699-1.489.988.465-.695 1.489Zm1.394-2.973.695-1.484.993.465-.7 1.484Zm1.395-2.969.695-1.484.992.465-.699 1.484Zm1.394-2.968.696-1.489.988.465-.696 1.485Zm1.395-2.973.695-1.484.988.464-.695 1.485Zm1.5-2.961.804-1.426.954.535-.805 1.43Zm1.613-2.855.805-1.43.953.535-.805 1.43Zm1.61-2.86.234-.41.406-.64.262-.38.898.622-.254.37-.449-.308.461.293-.395.617-.46-.293.476.27-.226.398Zm1.831-2.777.934-1.352.898.621-.93 1.352Zm1.864-2.703.77-1.114.206-.257.848.695-.195.238-.422-.347.449.312-.758 1.094Zm2.093-2.614 1.106-1.21.809.738-1.11 1.21Zm2.215-2.421.32-.352.434-.383.567-.406.64.887-.543.394-.32-.445.36.41-.395.348-.36-.414.403.37-.301.329Zm2.653-2.102 1.203-.871.21-.106.5.973-.175.09-.25-.488.32.445-1.172.844Zm3.004-1.598 1.41-.511.222-.043.207 1.07-.175.035-.106-.535.188.512-1.371.5Zm3.32-.726.082-.004.094 1.09-.082.004Zm-38.113-26.234 1.625-.227.152 1.082-1.625.226Zm3.074-.512 1.496-.676.45.996-1.493.676Zm2.988-1.356.3-.133.224.496-.286-.464.368-.227.773-.45.55.946-.753.438-.395.242-.332.148Zm2.793-1.605 1.418-.825.55.946-1.417.824ZM157 97.484l1.414-.828.555.946-1.418.828Zm2.832-1.652 1.418-.828.55.945-1.417.828Zm2.832-1.656.441-.254.45-.16.808-.176.23 1.07-.773.164-.117-.535.188.516-.368.133-.183-.516.273.473-.394.23Zm3.305-.93 1.488-.316.184-.016.097 1.09-.152.012-.047-.543.113.535-1.457.308Zm3.379-.305 1.636.055-.035 1.094-1.64-.059Zm3.328.121.265.036 1.356.152-.121 1.086-1.38-.152-.26-.036Zm3.25.368 1.629.18-.121 1.085-1.63-.18Zm3.262.36 1.628.179-.12 1.09-1.63-.18Zm3.257.358 1.164.13-.117 1.09-1.168-.13Zm0 0"/><path fill="green" d="m145.309 102.61 1.625-.227.152 1.082-1.625.226Zm3.074-.512 1.496-.676.45.996-1.493.676Zm2.988-1.356.3-.133.224.496-.286-.464.368-.227.773-.45.55.946-.753.438-.395.242-.332.148Zm2.793-1.605 1.418-.825.55.946-1.417.824ZM157 97.484l1.414-.828.555.946-1.418.828Zm2.832-1.652 1.418-.828.55.945-1.417.828Zm2.832-1.656.441-.254.45-.16.808-.176.23 1.07-.773.164-.117-.535.188.516-.368.133-.183-.516.273.473-.394.23Zm3.305-.93 1.488-.316.184-.016.097 1.09-.152.012-.047-.543.113.535-1.457.308Zm3.379-.305 1.636.055-.035 1.094-1.64-.059Zm3.328.121.265.036 1.356.152-.121 1.086-1.38-.152-.26-.036Zm3.25.368 1.629.18-.121 1.085-1.63-.18Zm3.262.36 1.628.179-.12 1.09-1.63-.18Zm3.257.358 1.164.13-.117 1.09-1.168-.13Zm0 0"/><path fill="green" d="m145.238 102.625 1.547-.43.149.528-.301-.453.027-.024.602.914-.102.07-1.629.45Zm2.582-1.39.625-.598.38.398-.423-.347.391-.481.426.348-.473-.282.078-.128.942.558-.098.164-.441.54-.657.62Zm1.844-2.5.836-1.41.941.558-.84 1.41Zm1.676-2.82.086-.145.469.277-.493-.23.364-.782.496.23-.5-.214.238-.559 1.004.43-.242.566-.383.817-.098.168Zm1.308-2.93.649-1.508 1.004.433-.649 1.504Zm1.293-3.016.649-1.508 1.004.434-.649 1.507Zm1.278-3.016.633-1.512 1.007.418-.629 1.516Zm1.261-3.027.63-1.516 1.011.422-.633 1.512Zm1.258-3.031.633-1.512 1.012.418-.633 1.515ZM159 77.867l.633-1.515 1.008.421-.63 1.512Zm1.262-3.031.629-1.516 1.011.422-.632 1.516Zm1.258-3.027.632-1.516 1.008.422-.629 1.512Zm1.261-3.032.63-1.511 1.01.418-.632 1.515Zm1.262-3.027.629-1.516 1.008.418-.63 1.516Zm1.316-3.055.18-.34.64-1.109.95.55-.637 1.099-.472-.278.484.254-.176.332Zm1.645-2.867.82-1.422.946.551-.82 1.418Zm1.644-2.84.32-.554.419-.594.218-.278.856.68-.211.266-.426-.34.446.312-.391.563-.45-.313.473.274-.308.531Zm1.98-2.71 1.02-1.282.856.68-1.02 1.285Zm2.11-2.583.153-.152 1.125-.953.707.836-1.106.937-.355-.418.39.383-.132.137Zm2.528-2.168.714-.605.454-.29.27-.132.483.984-.246.118-.242-.489.297.461-.394.25-.293-.46.351.417-.687.582Zm2.91-1.75 1.36-.668.194-.062.336 1.043-.156.05-.172-.523.242.492-1.32.653Zm3.242-1.05 1.617-.274.18 1.078-1.617.274Zm2.122 110.183 1.64-.039.023 1.094-1.64.039Zm3.276-.074 1.641-.04.027 1.095-1.64.039Zm3.282-.078 1.64-.035.024 1.093-1.64.036Zm3.28-.074 1.638-.04.027 1.094-1.64.04Zm3.278-.079.582-.011.016.547-.098-.54.313-.054.094.539-.141-.527.715-.192.285 1.055-.738.2-.38.065-.624.012Zm3.067-.664 1.586-.421.28 1.058-1.585.422Zm2.953-1.066 1.453-.762.508.969-1.45.762Zm2.906-1.523.785-.415.254.485-.312-.45.289-.202.312.449-.336-.43.313-.246.675.86-.324.257-.332.23-.816.43Zm2.594-1.825 1.289-1.011.676.859-1.29 1.012Zm2.578-2.027.488-.383.34.43-.36-.418.321-.27.457-.39.71.832-.452.387-.328.28-.5.391Zm2.5-2.094 1.101-.937.708.836-1.102.933Zm0 0"/><path fill="green" d="m183.477 156.918 1.625-.223.148 1.082-1.625.223Zm3.25-.445.187-.028.074.543-.144-.527.308-.086.149.523-.203-.503 1.043-.426.41 1.015-1.07.434-.38.105-.226.032Zm2.933-1.121 1.164-.473.207.508-.246-.489.317-.16.015-.008.508.97-.367.183-1.188.484Zm2.914-1.38 1.457-.757.504.972-1.457.754Zm2.91-1.511 1.457-.758.504.973-1.457.754Zm2.91-1.516 1.458-.754.503.97-1.457.757Zm2.915-1.511 1.453-.754.504.968-1.453.758Zm2.91-1.512.613-.317.371-.132.664-.164.262 1.062-.637.156-.133-.53.18.515-.309.11-.183-.517.254.489-.578.297Zm3.242-1.004 1.594-.395.261 1.063-1.593.394Zm3.242-.785.223-.031 1.453-.098.07 1.094-1.433.093-.036-.543.075.54-.2.027Zm3.313-.238.656-.047.074 1.093-.656.043Zm0 0"/><path fill="green" d="m183.594 128.84 1.636.125-.085 1.09-1.637-.125Zm3.27.254 1.636.125-.086 1.09-1.637-.125Zm3.323.504 1.59.398-.265 1.063-1.59-.399Zm3.18.797.63.16.355.125.648.285-.437 1-.63-.278.22-.5-.18.516-.313-.11.18-.515-.133.531-.605-.152Zm3.137 1.226 1.5.66-.438 1.004-1.504-.66Zm3.031 1.461 1.371.898-.597.915-1.371-.899Zm2.746 1.797 1.371.898-.597.914-1.375-.898Zm2.7 1.976 1.238 1.075-.715.828-1.238-1.078Zm2.476 2.153 1.238 1.078-.715.824-1.238-1.078Zm2.465 2.191 1.2 1.117-.743.801-1.203-1.117Zm2.402 2.235 1.203 1.117-.746.8-1.203-1.117Zm2.403 2.234.355.328-.746.8-.352-.327Zm-31.122-51.391 1.633.168-.11 1.086-1.632-.164Zm3.266.332 1.43.149.246.047-.207 1.074-.223-.043.102-.535-.055.543-1.406-.145Zm3.29.524 1.605.332-.22 1.07-1.605-.332Zm3.214.664 1.605.328-.218 1.07-1.61-.328Zm3.21.66 1.606.328-.218 1.074-1.606-.332Zm3.216.66 1.312.27-.11.535v-.547h.298v1.094h-.356l-1.367-.281Zm3.062.063 1.625-.203.137 1.085-1.629.204Zm3.078-.602 1.536-.574.382 1.023-1.539.575Zm3.012-1.133.23-.117 1.34-.516.395 1.02-1.316.508-.196-.512.246.488-.203.106Zm3.102-1.222 1.53-.59.395 1.02-1.53.59Zm0 0"/><path fill="green" d="m183.523 94.277 1.637-.086.059 1.094-1.64.082Zm3.274-.172 1.64-.085.055 1.093-1.637.086Zm3.277-.168 1.246-.066.028.547-.047-.547.32-.027.094-.004.05 1.094-.081.004-.024-.547.047.546-.32.028-1.254.062Zm3.278-.175 1.636-.082.055 1.093-1.637.079Zm3.277-.16 1.637-.082.054 1.093-1.64.078Zm3.277-.16 1.637-.079.055 1.09-1.641.082Zm3.309-.126 1.64.02-.011 1.094-1.64-.02Zm3.277.036 1.64.02-.01 1.093-1.642-.02Zm3.281.039 1.641.015-.012 1.094-1.64-.016Zm3.282.035 1.64.02-.011 1.093-1.641-.02ZM183.64 46.434l1.618.265-.176 1.078-1.621-.265Zm3.344.773 1.453.766-.511.965-1.45-.762Zm2.922 1.738 1.227 1.09-.727.817-1.226-1.09Zm2.489 2.215.312.332.75.988-.871.66-.734-.964.437-.328-.402.37-.293-.312Zm2.054 2.625.992 1.309-.87.66-.993-1.305Zm1.985 2.613.98 1.293.04.063-.934.57-.024-.043.465-.285-.434.332-.964-1.266Zm1.863 2.77.836 1.41-.942.559-.832-1.41Zm1.672 2.824.836 1.41-.942.559-.836-1.414Zm1.672 2.82.836 1.415-.942.554-.836-1.41Zm1.672 2.825.34.578.32.562-.477.266.465-.285.176.285-.93.574-.184-.293-.308-.554-.344-.575Zm1.687 2.8.863 1.395-.93.578-.863-1.394Zm1.727 2.79.863 1.394-.93.578-.863-1.394Zm1.726 2.793.863 1.394-.93.574-.863-1.394Zm1.727 2.789.32.52-.465.284.426-.34.316.403-.425.34.382-.391.371.367-.77.778-.394-.391-.355-.45-.34-.546Zm2.09 2.34.96.953-.386.39.293-.465.242.157-.582.921-.293-.183-1.004-.996Zm2.535 1.453.058.015-.308 1.051-.059-.02Zm.039 63.758 1.191.308.324.215.188.14-.652.88-.18-.133.328-.438-.309.453-.23-.16.305-.453-.137.527-1.102-.281Zm3.02 1.644 1.316.976-.653.88-1.316-.981Zm2.628 1.957 1.32.98-.656.875-1.312-.976Zm2.633 1.957 1.316.98-.652.88-1.316-.981Zm2.633 1.96 1.316.977-.652.88-1.317-.981Zm2.633 1.958 1.316.98-.652.875-1.317-.976Zm2.566 1.883.086.043-.242.488.195-.508 1.438.559-.395 1.02-1.46-.571-.11-.055Zm3.008 1.176.336.132-.2.508.133-.531.215.059-.137.527.067-.543 1.05.125-.124 1.086-1.09-.13-.281-.07-.368-.144Zm0 0"/><path fill="green" d="m214.906 145.887 1.528.593-.395 1.02-1.527-.594Zm3.067 1.015 1.57.465-.309 1.047-1.574-.46Zm3.136 1.278 1.422.816-.547.95-1.422-.817Zm2.836 1.828 1.239 1.082-.72.824-1.237-1.082Zm2.473 2.16 1.234 1.078-.718.824-1.235-1.078Zm2.473 2.156.27.238.237.211.727.63-.719.827-.73-.636-.235-.207-.27-.239Zm2.472 2.156 1.235 1.075-.715.828-1.238-1.078Zm2.504 1.833 1.485.703-.465.988-1.485-.7Zm2.88 1.015.034.004-.101 1.086-.035-.004Zm0 0"/><path fill="green" d="m214.43 145.926 1.414-.836.554.941-1.414.836Zm2.828-1.668 1.414-.832.555.941-1.415.832Zm2.824-1.664 1.422-.84.023-.012.493.977-.008.004-.246-.489.277.47-1.406.831Zm3.031-1.469 1.54-.566.378 1.027-1.539.566Zm3.078-1.137 1.536-.566.378 1.023-1.535.57Zm3.22-.957 1.609-.312.207 1.074-1.61.312Zm3.218-.625.059-.011.273-.028 1.379-.078.062 1.09-1.367.082-.035-.547.05.543-.234.023-.05-.542.105.535-.031.007Zm3.348-.215.722-.043.063 1.094-.723.043Zm-21.055-44.703 1.512.633-.422 1.008-1.516-.633Zm3.023 1.266 1.512.633-.422 1.011-1.512-.636Zm3.028 1.27 1.511.632-.422 1.008-1.515-.633Zm3.023 1.265 1.516.633-.426 1.008-1.512-.633Zm3.027 1.266.68.285-.215.504.18-.516.207.07-.176.516.106-.535.672.133-.211 1.074-.707-.14-.262-.09-.695-.29Zm3.063.77 1.61.316-.212 1.074-1.609-.317Zm3.219.628.898.18-.101.535.039-.547.214.02-.042.543.023-.547.508.023-.047 1.094-.516-.024-.254-.02-.933-.183Zm3.18.277.269.012-.047 1.094-.27-.012Zm0 0"/><path fill="green" d="m214.492 93.488 1.508-.644.434 1.004-1.512.644Zm3.016-1.293 1.508-.644.43 1.008-1.508.644Zm3.015-1.289 1.508-.644.43 1.004-1.508.644Zm3.016-1.293.82-.351.465.613-.433.332.41-.363.55.62-.82.727-.562-.636-.223-.29.438-.331.214.504-.43.183Zm2.902 2.078 1.086 1.23-.816.724-1.09-1.227Zm2.176 2.457 1.086 1.227-.816.727-1.09-1.227Zm2.176 2.454 1.09 1.23-.82.723-1.086-1.227Zm2.164 2.199 1.422.82-.547.945-1.422-.82Zm2.785 1.254 1.086.195-.195 1.074-1.082-.191Zm0 0"/><path fill="green" d="m214.8 82.602 1.618.277-.184 1.078-1.617-.277Zm3.282 1.007 1.414.832-.555.942-1.414-.828Zm2.766 1.954 1.187 1.136-.754.79-1.187-1.134Zm2.351 2.312 1.153 1.164-.778.77-1.152-1.164Zm2.04 1.168 1.577-.438.293 1.055-1.582.438Zm3.16-.875 1.16-.32.246-.063.265-.027.125 1.086-.23.027-.063-.547.125.535-.207.047-.125-.531.145.527-1.149.32Zm3.3-.602 1.63-.191.124 1.086-1.629.191Zm3.258-.379.863-.101.239-.008.59-.004.011 1.094-.57.004-.215.008-.016-.547.067.543-.844.097Zm0 0"/><path fill="#00F" d="m38.645 191.637 3.52-3.438.76.781-3.515 3.442Zm7.085-6.867 3.692-3.258.723.82-3.692 3.258Zm7.38-6.512 1.421-1.254.465-.367 2.031-1.442.633.89-2.02 1.435-.316-.446.34.43-.445.348-.336-.43.36.41-1.411 1.246Zm7.93-5.914.597-.426.476-.29 3.235-1.776.527.957-3.223 1.773-.265-.48.285.468-.45.274-.28-.469.316.445-.586.414Zm8.858-4.535 3.313-1.262.488-.145.942-.183.21 1.074-.917.18-.102-.54.152.524-.441.133-.156-.524.195.512-3.297 1.254Zm9.625-2.532.434-.043 3.117-.14.047 1.09-3.098.144-.027-.547.055.543-.422.043Zm0 0"/><path fill="#00F" d="m38.645 191.637 3.52-3.438.76.781-3.515 3.442Zm7.085-6.867 3.692-3.258.723.82-3.692 3.258Zm7.38-6.512 1.421-1.254.465-.367 2.031-1.442.633.89-2.02 1.435-.316-.446.34.43-.445.348-.336-.43.36.41-1.411 1.246Zm7.93-5.914.597-.426.476-.29 3.235-1.776.527.957-3.223 1.773-.265-.48.285.468-.45.274-.28-.469.316.445-.586.414Zm8.858-4.535 3.313-1.262.488-.145.942-.183.21 1.074-.917.18-.102-.54.152.524-.441.133-.156-.524.195.512-3.297 1.254Zm9.625-2.532.434-.043 3.117-.14.047 1.09-3.098.144-.027-.547.055.543-.422.043Zm0 0"/><path fill="#00F" d="m38.54 191.785 2.198-4.402.977.488-2.2 4.402Zm4.398-8.805 2.195-4.402.98.488-2.199 4.403Zm4.636-8.714 2.446-4.27.949.547-2.45 4.266Zm5.184-8.41 2.804-4.047.899.625-2.805 4.043Zm5.918-7.934 2.87-3.203.481-.457.035-.028.688.852-.016.012-.347-.422.379.394-.45.426-.375-.394.407.363-2.856 3.187Zm7.27-6.793.132-.086 3.586-1.766.527-.168.446-.066.16 1.082-.402.059-.079-.54.164.52-.449.14-.164-.519.242.492-3.515 1.735-.242-.492.3.457-.105.066Zm9.73-2.18 1.375.227.449.129-.148.523.12-.531 3.044.683-.243 1.067-3.058-.688-.434-.125.149-.527-.086.543-1.348-.223Zm-36.668-30.422 4.918-.168.039 1.094-4.918.168Zm9.836-.336 1.605-.054.02.543-.032-.543.446-.028 2.847-.21.083 1.09-2.864.21-.453.028-1.617.054Zm9.797-.656 4.906-.363.082 1.09-4.91.363Zm9.812-.73 4.906-.364.082 1.094-4.906.363Zm9.813-.727 4.793-.355.078 1.093-4.79.356Zm0 0"/><path fill="#00F" d="m39.008 118.527 4.918-.168.039 1.094-4.918.168Zm9.836-.336 1.605-.054.02.543-.032-.543.446-.028 2.847-.21.083 1.09-2.864.21-.453.028-1.617.054Zm9.797-.656 4.906-.363.082 1.09-4.91.363Zm9.812-.73 4.906-.364.082 1.094-4.906.363Zm9.813-.727 4.793-.355.078 1.093-4.79.356Zm0 0"/><path fill="#00F" d="m38.902 118.543 1.313-.305.125.532-.254-.485.445-.234.254.484-.363-.41 1.754-1.566.367.406-.418-.356.45-.53.417.355-.46-.297.011-.016.914.594-.027.047-.496.586-1.832 1.64-.57.297-1.38.324Zm6.254-6.55.008-.016.477.27-.489-.243 2.16-4.399.981.48-2.168 4.415-.016.031Zm4.324-8.805.5-1.016.454-.91 1.37-2.446.954.536-1.363 2.43-.477-.266.488.246-.445.89-.5 1.016Zm4.727-8.665.211-.375.477-.683 2.527-2.813.812.73-2.504 2.79-.406-.367.45.312-.446.637-.445-.313.476.266-.195.352Zm8.145-5.492.132.004.543.176 1.88 1.043.484.418 1.265 1.367-.8.742-1.247-1.344.403-.37-.356.413-.422-.359.356-.418-.266.48-1.781-.992.266-.476-.168.52-.422-.137.168-.52-.02.547-.05-.004Zm7.27 7.04 1.605 2.5.43.777-.477.265.465-.289.578.934-.93.574-.586-.941-.426-.774.477-.265-.461.296-1.598-2.488Zm5.19 8.367 2.594 4.183-.93.574-2.59-4.18Zm5.75 7.695.247.219-.364.406.274-.473.445.258-.27.473.168-.52 1.754.57-.168.52.036-.547.445.027-.067 1.09-.515-.027-1.875-.61-.547-.312-.29-.258Zm2.559 52.961 4.918.23-.05 1.094-4.919-.234Zm9.813.426 4.918.042-.008 1.094-4.922-.043Zm0 0"/><path fill="#00F" d="m82.98 165.105 2.176-.476.117.535-.207-.508.157-.062.21.504-.292-.465 2.132-1.344.582.926-2.171 1.37-.246.102-2.223.485Zm7.72-5.18.57-.558.382.387-.402-.367.164-.184 2.754-2.762.773.774-2.742 2.75-.386-.387.406.367-.172.188-.578.574Zm7.726-6.152.449.188-.426 1.012-.449-.192Zm-15.286-3.285 4.907.375-.086 1.09-4.906-.375Zm9.794 1.395.398.09.172.047-.145.527.125-.531 4.067.937-.125.535-.387-.386.133-.133.773.773-.347.348-4.371-1.012-.172-.047.144-.527-.117.535-.383-.086Zm-9.794-36.16 4.907.382-.086 1.09-4.906-.379Zm9.778 1.523 1.523.363.184.051 3.047 1.024-.348 1.039-3.035-1.02.176-.52-.149.528-.156-.043.145-.527-.125.53-1.516-.362Zm0 0"/><path fill="#00F" d="m83 115.73 2.176-.398.097.54-.195-.513.16-.058.196.508-.278-.473 2.2-1.273.546.949-2.234 1.293-.246.093-2.227.41Zm9.383-2.293 4.906.372-.082 1.09-4.906-.372Zm-9.305-.371 4.918-.18.04 1.094-4.919.18Zm8.113-2.972.68-.778.41.36-.43-.34.16-.2.43.337-.453-.309 2.04-3.004.906.613-2.051 3.024-.18.226-.687.79Zm5.547-8.02 1.461-2.336.926.578-1.46 2.34Zm1.848 63.5 4.867-.699.156 1.082-4.87.7Zm9.773-1.289 1.965-.2.555.024 2.504.47-.2 1.073-2.468-.46.101-.54-.027.547-.473-.02.024-.546.055.543-1.922.195Zm9.672 2.254.063.031.515.325 3.446 2.656-.668.867-3.426-2.64.336-.434-.293.465-.469-.297.29-.461-.243.488-.035-.02Zm7.664 6.402 3.278 3.145.28.293-.792.754-.274-.285.399-.375-.383.394-3.262-3.137Zm7.102 6.813 3.574 3.383-.754.793-3.57-3.383Zm7.144 6.766 1.145 1.082-.375.398.355-.418.473.406 2.066 1.782-.714.828-2.059-1.778-.488-.414-1.153-1.094Zm0 0"/><path fill="#00F" d="m98.906 153.977 4.403 2.203-.489.976-4.402-2.199Zm8.696 4.714 4.125 2.688-.598.914-4.125-2.684Zm8.105 5.657 3.875 3.027-.672.863-3.879-3.031Zm7.648 6.242 3.645 3.308-.734.813-3.645-3.309Zm7.29 6.617 3.644 3.309-.734.808-3.645-3.308Zm7.226 6.707 3.52 3.441-.766.782-3.516-3.442Zm7.035 6.883.86.84-.762.785-.86-.844Zm0 0"/><path fill="#00F" d="m98.32 151.848 3.828-3.09.688.851-3.832 3.09Zm8.348-5.461.281-.09 2.856-.543.55-.027 1.391.148-.117 1.09-1.348-.149.059-.543.027.547-.472.024-.024-.547.102.539-2.782.527-.101-.535.168.52-.25.082Zm9.89.976.57.242.524.317 3.051 2.305-.66.87-3.023-2.285.328-.437-.278.469-.468-.278.277-.472-.215.504-.535-.23Zm7.587 6.516 2.054 2.3.496.637.614.922-.914.606-.602-.906.457-.301-.434.332-.468-.606.433-.336-.41.364-2.043-2.286Zm5.886 7.96 2.274 3.427.43.714-.938.563-.422-.703.469-.285-.457.304-2.27-3.414Zm5.086 8.47 2.367 4.316-.957.523-2.37-4.312Zm4.613 8.722 2.137 4.434-.984.476-2.137-4.433Zm4.274 8.871 1.875 3.891-.988.473-1.871-3.891ZM98.816 119.07l4.723 1.383-.309 1.05-4.722-1.386Zm9.43 2.114 1.207.062-.031.547-.055-.543.45-.047.054.547-.113-.535 3.191-.684.227 1.07-3.223.688-.52.05-1.246-.066Zm9.113-2.551 1.188-.528.223.5-.247-.488.485-.246 2.965-.933.297.039-.137 1.082-.18-.024.07-.539.165.52-2.81.886-.163-.52.246.485-.457.23-1.2.536Zm9.79-1.215 4.902.434-.098 1.09-4.902-.434Zm9.8.867.555.047-.047.547.027-.547.47.023-.024.543.011-.543 3.891.09-.023 1.094-3.903-.094-.484-.02-.567-.05Zm0 0"/><path fill="#00F" d="m98.73 113.918 4.883.613-.136 1.082-4.883-.61Zm9.766 1.227 2.86.359.476.058 1.543.192-.133 1.086-1.55-.192-.473-.058-2.86-.36Zm9.766 1.207 3.36.41-.067.543-.211-.504.496-.211 1.012-.3.312 1.046-.984.297-.157-.528.211.504-.601.254-3.504-.43Zm9.508-1.141 2.707-.04.543.063 1.753.418-.253 1.067-1.723-.414.129-.532-.063.543-.476-.054.062-.543.008.547-2.668.039Zm9.785 1.664 4.754 1.273-.282 1.055-4.754-1.273Zm0 0"/><path fill="#00F" d="m98.207 99.723 2.742-4.086.906.61-2.738 4.085Zm5.48-8.172 1.543-2.301.497-.625.984-1.055.8.746-.972 1.04-.398-.376.43.344-.473.59-.426-.34.453.305-1.527 2.277Zm6.583-7.559 2.628-1.672.563-.23 1.352-.309.242 1.067-1.309.297-.121-.532.21.504-.476.195-.207-.503.293.46-2.586 1.645Zm9.687-1.46 1.918 1.206.527.442 1.426 1.558-.805.739-1.402-1.532.402-.37-.351.417-.469-.39.352-.422-.293.465-1.887-1.188Zm6.91 7.179 2.192 3.441.414.778-.961.515-.41-.757.484-.258-.465.293-2.176-3.426Zm4.836 8.621 2.227 4.39-.977.493-2.223-4.39Zm4.484 8.742 2.344 4.328-.96.524-2.344-4.328Zm4.942 8.336 1.883 2.156-.41.36.335-.43.45.348-.336.433.207-.507 1.379.558-.41 1.016-1.454-.59-.55-.43-1.914-2.191Zm3.891 76.211 3.664-3.285.73.816-3.664 3.286Zm7.34-6.562 3.69-3.254.723.82-3.687 3.254Zm7.382-6.508 3.688-3.258.722.82-3.687 3.258Zm7.547-6.36 3.34-2.62.426-.286.207-.12.55.944-.195.114-.273-.473.3.457-.39.262-.305-.457.336.433-3.32 2.606Zm8.223-5.504.937-.542.422-.2 3.352-1.011.316 1.046-3.312 1-.16-.523.23.5-.367.168-.23-.496.277.473-.915.53Zm0 0"/><path fill="#00F" d="m145.02 191.621 3.664-3.285.73.816-3.664 3.286Zm7.34-6.562 3.69-3.254.723.82-3.687 3.254Zm7.382-6.508 3.688-3.258.722.82-3.687 3.258Zm7.547-6.36 3.34-2.62.426-.286.207-.12.55.944-.195.114-.273-.473.3.457-.39.262-.305-.457.336.433-3.32 2.606Zm8.223-5.504.937-.542.422-.2 3.352-1.011.316 1.046-3.312 1-.16-.523.23.5-.367.168-.23-.496.277.473-.915.53Zm0 0"/><path fill="#00F" d="m144.89 191.793 2.118-4.441.988.472-2.117 4.442Zm4.239-8.883 2.117-4.441.984.469-2.117 4.44Zm4.246-8.898.316-.614 1.97-3.75.968.508-1.969 3.742-.312.614Zm4.574-8.719 1.465-2.797.379-.707.523-.851.93.57-.516.84-.464-.286.484.258-.367.684-1.469 2.797Zm4.942-8.55 2.578-4.192.93.57-2.575 4.195Zm5.336-8.34 3.078-3.84.851.683-3.078 3.84Zm6.562-7.419 1.18-1.054.441-.309 2.54-1.441.538.953-2.52 1.426-.269-.473.313.45-.395.273-.308-.45.363.407-1.152 1.03Zm-29.453-22.453 4.594-.422.047.543-.106-.535.305-.058.207 1.074-.328.062-4.621.426Zm9.7-1.308 4.85-.832.184 1.078-4.847.832Zm9.874-1.172 2.715.308.41.086 1.785.508-.297 1.055-1.77-.508.15-.523-.11.535-.367-.078.113-.536-.062.543-2.692-.304Zm9.64 2.265 4.731 1.344-.297 1.05-4.734-1.343Zm0 0"/><path fill="#00F" d="m145.336 118.531 4.594-.422.047.543-.106-.535.305-.058.207 1.074-.328.062-4.621.426Zm9.7-1.308 4.85-.832.184 1.078-4.847.832Zm9.874-1.172 2.715.308.41.086 1.785.508-.297 1.055-1.77-.508.15-.523-.11.535-.367-.078.113-.536-.062.543-2.692-.304Zm9.64 2.265 4.731 1.344-.297 1.05-4.734-1.343Zm0 0"/><path fill="#00F" d="m145.246 118.547 1.914-.504.137.527-.266-.476.395-.219.265.477-.367-.403 1.844-1.676.734.809-1.89 1.719-.508.281-1.98.523Zm6.754-6.125.203-.3.453.308-.476-.27.367-.644.476.27-.484-.255 1.777-3.379.97.512-1.782 3.383-.383.676-.219.316Zm4.582-8.621 2.191-4.41.98.488-2.19 4.406Zm4.383-8.817 2.191-4.406.977.488-2.192 4.407Zm4.734-8.671 1.75-2.876.41-.574.567-.718.86.675-.56.711-.43-.34.446.32-.394.548-.446-.32.47.284-1.74 2.86Zm5.914-8.028 2.817-2.582.414-.324.605-.344.54.953-.571.325-.27-.477.336.434-.367.28-.336-.429.371.402-2.8 2.57Zm8.399-5.379 1.922-.484.445-.047 1.144-.055.055 1.094-1.133.055-.027-.547.055.543-.395.039-.055-.543.137.527-1.883.477Zm3.528 91.547 4.92-.105.02 1.093-4.917.106Zm9.839-.207 4.809-.101.011.546-.086-.539.11-.015.172 1.078-.149.023-4.844.102Zm9.55-1.246.094-.027.16.523-.226-.5 4.395-1.988.453.996-4.426 2.004-.125.039Zm8.645-4.398 2.856-1.688.554.945-2.855 1.688Zm0 0"/><path fill="#00F" d="m183.496 164.453 4.36-.43.05.543-.101-.535.312-.062.102.539-.153-.528.215-.062.309 1.05-.242.071-.36.07-4.383.434Zm9.508-1.922.684-.199.152.523-.188-.511.317-.117 3.676-1.25.351 1.035-3.668 1.246-.176-.52.188.516-.328.121-.7.207Zm9.3-3.136 4.66-1.583.352 1.04-4.66 1.578Zm9.63-2.317 1.808-.219.32-.015.641-.004.012 1.094-.637.004-.004-.547.02.547-.29.011-.019-.547.067.543-1.786.22Zm-28.329-20.043 3.774.375.379.07.82.274-.344 1.039-.789-.262.172-.52-.101.54-.317-.063.102-.535-.055.543-3.75-.371Zm9.684 2.434 4.246 2.363.082.05-.594.919-.07-.043.3-.457-.269.476-4.226-2.355Zm8.313 5.36 1.601 1.19.324.262 1.961 1.606-.691.843-1.957-1.597-.317-.258.344-.426-.328.442-1.59-1.188Zm7.695 6.171 3.812 3.117-.695.844-3.809-3.113Zm-25.75-30.777 4.922-.028.008 1.094-4.922.027Zm9.844-.059 4.918-.027.007 1.093-4.921.032Zm9.57-.988 1.309-.36.144.528-.195-.512.316-.121.195.512-.238-.493 2.899-1.41.476.985-2.918 1.422-.363.136-1.336.367Zm8.914-3.93 1.43-.621.398-.086.953-.09.106 1.09-.926.09-.05-.547.112.535-.312.067-.113-.536.218.5-1.379.602Zm0 0"/><path fill="#00F" d="m183.504 120.227 4.355-.383.047.543-.094-.54.313-.054.094.539-.13-.531.224-.055.261 1.063-.242.058-.352.063-4.382.386Zm9.59-1.653.3-.074.13.531-.157-.523.324-.098 4.149-1.097.277 1.058-4.137 1.098-.14-.531.152.527-.328.094-.312.078Zm9.5-2.52 2.965-.784.363-.063 1.562-.156.114 1.086-1.547.156-.059-.543.094.54-.316.054-.094-.54.14.532-2.941.777Zm9.789-1.503.738-.074.344-.004 1.234-.024.02 1.094-1.235.02-.32.007-.008-.547.055.543-.719.075Zm-28.75-42.227 2.847.434.391.125 1.617.777-.476.985-1.578-.758.238-.496-.16.523-.317-.098.16-.523-.082.543-2.804-.43Zm8.945 4.254 1.317 1.11.347.347 1.801 2.153-.84.703-1.781-2.133.418-.352-.387.387-.316-.316.386-.387-.351.418-1.297-1.09Zm6.567 7.492 2.78 4.059-.902.621-2.78-4.059Zm5.574 8.153.164.27-.469.284.441-.324 2.72 3.715-.884.644-2.734-3.73-.176-.293Zm5.761 7.914.313.425-.441.325.402-.371.312.34-.402.37.34-.425 2.492 2-.34.426.223-.497.316.141-.222.496.113-.531.379.078-.223 1.07-.437-.09-.438-.195-2.578-2.074-.36-.39-.331-.45Zm4.458 56.753 4.46 2.079-.46.988-4.461-2.074Zm8.925 4.153 4.461 2.074-.46.992-4.462-2.074Zm8.969 3.527 2.887.496-.094.54.027-.547.235.011.855.024-.027 1.09-.88-.02-.269-.012-2.921-.507Zm0 0"/><path fill="#00F" d="m214.52 156.871 3.25-1.18.402.094 1.355.516-.39 1.023-1.32-.504.195-.511-.13.53-.206-.046.129-.531.183.511-3.093 1.125Zm9.546 1.55 3.926 2.509.223.144-.598.914-.215-.136-3.925-2.508Zm8.29 5.31.492.316-.293.46.25-.487.21.109-.25.488.165-.523 3.093.969-.164.519.059-.543.21.024-.054.542.028-.546.636.03-.054 1.095-.653-.032-.281-.03-3.191-.997-.278-.145-.515-.332Zm0 0"/><path fill="#00F" d="m214.684 155.367 3.304-.14.024.546-.242-.492.238-.113 1.312-.496.387 1.023-1.293.485-.191-.512.242.492-.317.156-3.418.145Zm9.242-2.426 2.734-1.027.254-.074 1.797-.344.207 1.074-1.773.34-.102-.539.152.527-.21.059-.15-.523.192.511-2.714 1.02Zm9.703-2.296 3.074-.157.055 1.09-3.074.156Zm-18.883-36.195 4.91.343-.078 1.094-4.906-.348Zm9.816.687 4.91.343-.077 1.09-4.907-.343Zm9.793.55 2.383.036-.015 1.093-2.383-.035Zm0 0"/><path fill="#00F" d="m214.676 114.45 4.914-.282.062 1.094-4.914.281Zm9.828-.56 4.91-.28.063 1.09-4.91.28Zm9.703 1.333.352.175-.246.489.148-.528.234.067-.144.527.078-.543 2.18.32-.157 1.082-2.218-.324-.317-.09-.398-.199Zm-19.417-12.137 2.444.367.317.086 2.054 1.012-.484.98-2.008-.988.242-.488-.148.523-.234-.062.144-.528-.078.54-2.41-.36Zm8.91 4.363 1.48 1.188.246.203 2.07 1.765-.71.832-2.063-1.757-.227-.192-1.48-1.187Zm7.34 5.742 4.92-.109.024 1.094-4.918.11Zm0 0"/><path fill="orange" d="m38.605 191.746 3.52-4.238.46-.528 1.38-1.484.8.746-1.374 1.477-.399-.371.41.359-.449.516-.41-.36.418.348-3.516 4.234Zm10.942-12.258 4.52-4.867.44-.441.75-.653.716.828-.735.637-.355-.414.387.387-.422.422-.387-.387.398.371-4.511 4.863Zm12.008-11.312 4.949-3.352.45-.281 1.605-.758.468.988-1.578.747-.234-.493.289.465-.418.258-.285-.469.304.453-4.937 3.348Zm14.718-7.367 1.852-.496.492-.086 4.438-.356.086 1.09-4.41.355-.047-.546.093.542-.441.075-.094-.54.14.528-1.823.492Zm0 0"/><path fill="orange" d="m38.605 191.746 3.52-4.238.46-.528 1.38-1.484.8.746-1.374 1.477-.399-.371.41.359-.449.516-.41-.36.418.348-3.516 4.234Zm10.942-12.258 4.52-4.867.44-.441.75-.653.716.828-.735.637-.355-.414.387.387-.422.422-.387-.387.398.371-4.511 4.863Zm12.008-11.312 4.949-3.352.45-.281 1.605-.758.468.988-1.578.747-.234-.493.289.465-.418.258-.285-.469.304.453-4.937 3.348Zm14.718-7.367 1.852-.496.492-.086 4.438-.356.086 1.09-4.41.355-.047-.546.093.542-.441.075-.094-.54.14.528-1.823.492Zm0 0"/><path fill="orange" d="m38.52 191.895 3-7.633 1.02.402-3.005 7.633Zm6.066-15.266 3.312-7.504 1 .445-3.312 7.5Zm6.625-15.004.102-.23.457-.93 3.203-6.168.972.504-3.203 6.164-.484-.254.488.242-.445.914-.492-.242.5.219-.098.222Zm8.027-14.39 2.258-3.438.473-.606 2.289-2.523.808.734-2.273 2.512-.406-.367.43.34-.45.566-.426-.34.457.301-2.246 3.422Zm12.246-10.739.54-.113.562.008 2.727.644.488.203 3.754 1.645-.442 1.004-3.73-1.637-.45-.187.212-.504-.13.53-2.624-.624.129-.531-.008.546-.442-.003.004-.547.114.535-.477.101Zm-32.496-35.055 6.614-.48.039.543-.078-.54.44-.066.083.543-.117-.535 1.093-.242.235 1.066-1.113.247-.48.074-6.638.48Zm16.032-2.605 7.894-2.23.297 1.05-7.89 2.235Zm15.785-4.465 3.351-.945.485-.09 4.289-.473.12 1.086-4.269.473-.058-.543.097.535-.441.082-.102-.539.149.527-3.324.942Zm0 0"/><path fill="orange" d="m38.988 101.441 6.614-.48.039.543-.078-.54.44-.066.083.543-.117-.535 1.093-.242.235 1.066-1.113.247-.48.074-6.638.48Zm16.032-2.605 7.894-2.23.297 1.05-7.89 2.235Zm15.785-4.465 3.351-.945.485-.09 4.289-.473.12 1.086-4.269.473-.058-.543.097.535-.441.082-.102-.539.149.527-3.324.942Zm0 0"/><path fill="orange" d="m38.855 101.469 1.313-.434.172.52-.328-.438.449-.336.324.442-.426-.34 1.754-2.219.43.344-.473-.281.45-.754.472.277-.5-.227 1.074-2.324.993.461-1.086 2.348-.48.808-1.821 2.301-.578.43-1.395.457Zm7.704-13.344 2.726-7.734 1.031.363-2.726 7.734Zm5.656-15.418 2.168-5.426.46-.945.735-1.195.934.574-.723 1.172-.465-.285.492.238-.445.902-.488-.238.508.2-2.16 5.405Zm9.351-13.34.832-.125.59.113 1.91.98.5.43 2.25 2.618.477.68.164.289-.945.543-.153-.262.473-.274-.45.313-.448-.64.449-.313-.414.355-2.203-2.562.414-.36-.356.418-.422-.363.356-.414-.246.484-1.785-.91.25-.488-.106.535-.418-.078.102-.54.082.544-.739.11Zm10.75 12.137 3.98 7.172-.952.531-3.985-7.172Zm8.797 13.191 1.711.582-.176.516.036-.543.445.027-.067 1.09-.519-.031-1.781-.606Zm2.024 75.176 5.613.406.172.024 2.414.355-.16 1.082-2.41-.355-.153-.02.078-.543-.039.547-5.593-.406Zm0 0"/><path fill="orange" d="M82.977 159.883 85 159.43l.121.53-.23-.495.152-.07.23.496-.304-.453 2.18-1.477.304.453-.355-.414.16-.137.355.414-.398-.37 2.12-2.282.802.746-2.145 2.3-.203.18-2.246 1.516-.246.117-2.078.465Zm11.609-10.512 3.656-4.434.844.696-3.656 4.433Zm-11.43-9.058 5.63.59.198.046 2.336.656-.293 1.051-2.332-.652.149-.524-.133.528-.152-.035.132-.532-.058.543-5.594-.586Zm.004-47.747 4.711.543.207.051 3.184 1.078-.352 1.035-3.16-1.07.176-.52-.133.532-.152-.04.132-.527-.062.543-4.676-.535Zm15.473 5.5.316.196-.574.93-.316-.196Zm0 0"/><path fill="orange" d="m83.023 92.57 2.942-.394.074.543-.129-.535.16-.036.125.532-.207-.508 3.282-1.348.207.504-.258-.48.152-.082.258.48-.305-.453 1.121-.754.61.91-1.14.766-.204.11-3.344 1.374-.226.059-2.97.394Zm15.055-5.23.719.183-.27 1.059-.718-.18Zm-14.945-2.063 6.543.41.172.016 1.492.18-.13 1.086-1.476-.176-.16-.016.055-.547-.031.547-6.535-.41Zm14.91-1.39.25-.227.742.805-.25.226Zm.57 77.855 3.754-.344.051.543-.137-.527.442-.117.136.531-.183-.516 3.738-1.34.371 1.032-3.762 1.348-.511.128-3.801.352Zm15.793-3.953.739-.023.671.359 4.977 5.156-.785.758-4.914-5.09.39-.383-.257.485-.47-.254.259-.48.015.546-.59.02Zm11.973 11.535 5.367 6.2-.824.714-5.371-6.199Zm10.738 12.395 5.371 6.199-.824.719-5.371-6.2Zm0 0"/><path fill="orange" d="m98.957 144.824 5.629 3.617.504.36.734.62-.703.837-.723-.606.356-.418-.317.446-.476-.34.316-.445-.297.46-5.613-3.609Zm13.137 9.89 1.422 1.204.484.45-.375.402.324-.442 2.336 1.723-.324.441.14-.527.516.137 2.145.988-.457.996-2.102-.973.227-.496-.14.528-.571-.153-2.442-1.8-.5-.465.375-.403-.355.418-1.41-1.191Zm13.156 9.653 2.793 2.977.492.566 2.113 2.684-.859.676-2.105-2.672.43-.34-.415.36-.472-.548.41-.36-.399.376-2.785-2.969Zm10.434 12.738 4.73 6.7-.89.629-4.735-6.7Zm9.37 13.485.79 1.207-.918.598-.79-1.204Zm0 0"/><path fill="orange" d="m98.29 144.668 4.222-3.973.531-.382 1.656-.907.524.961-1.625.887-.262-.48.32.44-.472.349-.325-.446.375.399-4.199 3.949Zm14.628-6.414.379.07.555.207 2.875 1.563.5.37 2.695 2.43-.73.813-2.676-2.41.363-.406-.324.437-.45-.336.325-.437-.262.48-2.805-1.527.262-.477-.187.512-.477-.176.191-.512-.101.536-.336-.063Zm12.273 11.062.098.141 4.215 6.844.023.043-.949.539-.023-.035.476-.27-.465.285-4.199-6.82.465-.285-.445.316-.086-.125Zm8.137 14.32 1.34 2.59.473.985 1.746 3.844-.996.453-1.743-3.84.5-.227-.492.239-.472-.973.492-.238-.485.25-1.332-2.582Zm6.945 14.891.497 1.098.445 1.09 2.254 5.383-1.008.422-2.258-5.391-.441-1.082.508-.207-.5.226-.493-1.09ZM98.934 98.25l6.53 3.715-.269.476.2-.511.476.187-.2.508.122-.531.172.039-.242 1.066-.211-.05-.551-.215-6.57-3.73Zm14.468 3.035.88-.48.265.48-.32-.441.468-.34.32.441-.355-.414 5.035-4.297.711.832-5.054 4.313-.516.371-.91.496Zm14.414-3.148 2.344.828-.183.515.16-.523.468.145-.156.523.121-.535 5.09 1.187-.25 1.067-5.101-1.192-.5-.152-2.356-.836Zm15.875 3.222.825.07-.051.548.008-.547.468.004.45.007-.012 1.09-.45-.004-.492-.004-.84-.074Zm0 0"/><path fill="orange" d="m98.832 87.531 7.8 2.531-.339 1.043-7.8-2.53Zm15.48 5.492 6.524 2.559-.2.508-.35-.418.487-.41.508-.344.614.902-.48.328-.31-.449.352.418-.719.602-6.824-2.676Zm14.82-.796.97.125.562.187 2.883 1.52.488.351 2.387 1.934-.688.847-2.375-1.921.34-.426-.32.441-.441-.32.32-.442-.254.485-2.809-1.48.254-.481-.176.516-.468-.157.172-.52-.067.544-.918-.118Zm13.856 8.718.266.11-.203.504.097-.536 2.336.426-.199 1.074-2.387-.433-.316-.13Zm0 0"/><path fill="orange" d="m98.285 83.664 5.918-5.676.758.79-5.922 5.675Zm11.836-11.355 3.629-3.48.516-.36 2.414-1.223.492.977-2.379 1.207-.246-.489.308.45-.449.308-.308-.445.375.394-3.594 3.45Zm14.719-3.555 1.324 1.148.52.582 3.257 4.817-.906.61-3.238-4.782.453-.309-.41.364-.469-.532.41-.363-.36.414-1.296-1.125Zm8.805 13.945.55 1.121.477 1.032 2.558 5.226-.984.48-2.566-5.246-.473-1.027.492-.23-.488.242-.547-1.117Zm7.18 14.696.355.585-.47.282.419-.352 2.34 2.754-.418.356.32-.442.473.344-.324.441.175-.52 1.864.626-.348 1.035-1.945-.649-.59-.433-2.41-2.84-.375-.621Zm4.113 94.382 3.445-4.851.398-.528.977-1.277.87.66-.976 1.281-.394.52-.434-.332.446.316-3.442 4.844Zm9.796-13.18.149-.19.402-.489 4.899-5.504.816.73-4.89 5.497-.41-.364.421.352-.394.469-.418-.352.433.332-.14.184Zm11.184-12.124 4.32-3.75.407-.301 1.777-1.067.562.938-1.754 1.055-.28-.47.327.438-.367.274-.328-.442.36.415-4.305 3.738Zm14.14-8.48.372-.071 3.07-.285.102 1.086-3.043.285-.051-.543.101.535-.343.066Zm0 0"/><path fill="orange" d="m144.938 191.777 3.445-4.851.398-.528.977-1.277.87.66-.976 1.281-.394.52-.434-.332.446.316-3.442 4.844Zm9.796-13.18.149-.19.402-.489 4.899-5.504.816.73-4.89 5.497-.41-.364.421.352-.394.469-.418-.352.433.332-.14.184Zm11.184-12.124 4.32-3.75.407-.301 1.777-1.067.562.938-1.754 1.055-.28-.47.327.438-.367.274-.328-.442.36.415-4.305 3.738Zm14.14-8.48.372-.071 3.07-.285.102 1.086-3.043.285-.051-.543.101.535-.343.066Zm0 0"/><path fill="orange" d="m144.883 191.879 3.23-7.54 1.004.43-3.23 7.54Zm6.515-15.066 3.38-7.473.995.45-3.378 7.476Zm6.762-14.946.094-.203.394-.809 3.165-6.355.976.488-3.156 6.348-.395.8-.492-.238.5.227-.09.191Zm7.485-14.652 3.32-5.778.406-.62.496-.692.887.637-.484.68-.446-.317.457.297-.394.601-.457-.296.472.27-3.308 5.76Zm9.308-13.61 1.746-1.785.446-.351 2.71-1.73.473-.204 1.649-.426.277 1.059-1.61.418-.136-.531.215.504-.395.168-.215-.5.293.46-2.652 1.688-.293-.46.34.429-.395.312-.34-.43.391.383-1.723 1.762Zm-29.648-32.16 2.68-.394.077.543-.16-.524.395-.12.16.523-.23-.496 3.441-1.59.227.496-.278-.473.375-.222.778-.415.515.965-.765.407-.258-.485.281.473-.39.23-3.5 1.621-.47.145-2.718.398Zm14.812-6.562.426-.125 3.129-.45.476.008 3.118.52.46.133.786.347-.438 1-.758-.332.223-.5-.152.524-.395-.113.153-.528-.09.543-3.047-.512.09-.539-.008.547-.39-.004.003-.547.078.543-3.043.438-.078-.543.153.523-.391.118Zm15.867 3.84 3.227 1.511-.23.496.171-.52.364.118-.168.52.101-.535 3.438.648-.102.539.031-.547.395.024-.031.543.007-.543.36.003-.016 1.094-.37-.008-.442-.023-3.508-.664-.434-.14-3.254-1.524Zm0 0"/><path fill="orange" d="m145.305 101.445 2.68-.394.077.543-.16-.524.395-.12.16.523-.23-.496 3.441-1.59.227.496-.278-.473.375-.222.778-.415.515.965-.765.407-.258-.485.281.473-.39.23-3.5 1.621-.47.145-2.718.398Zm14.812-6.562.426-.125 3.129-.45.476.008 3.118.52.46.133.786.347-.438 1-.758-.332.223-.5-.152.524-.395-.113.153-.528-.09.543-3.047-.512.09-.539-.008.547-.39-.004.003-.547.078.543-3.043.438-.078-.543.153.523-.391.118Zm15.867 3.84 3.227 1.511-.23.496.171-.52.364.118-.168.52.101-.535 3.438.648-.102.539.031-.547.395.024-.031.543.007-.543.36.003-.016 1.094-.37-.008-.442-.023-3.508-.664-.434-.14-3.254-1.524Zm0 0"/><path fill="orange" d="m145.258 101.453 1.547-.363.129.531-.266-.48.367-.204.262.481-.356-.414 1.918-1.652.36.414-.422-.348.367-.445.418.351-.45-.312 1.75-2.543.9.62-1.762 2.563-.41.496-1.997 1.72-.48.269-1.621.383Zm9.492-12.133.86-1.656.484.25-.492-.23.37-.793 2.571-4.848.965.516-2.563 4.832-.484-.258.496.234-.371.79-.863 1.667Zm7.637-14.523.086-.164.418-.63 3.07-4.179.426-.472 1.18-1.106.75.797-1.165 1.09-.375-.399.407.364-.395.437-.406-.363.441.324-3.047 4.145-.437-.325.457.301-.395.598-.457-.305.485.258-.078.144ZM174.68 63.84l2.668-.7.414-.07 5.113-.36.078 1.09-5.09.36-.035-.547.086.54-.363.062-.09-.54.14.528-2.644.695Zm8.914 93.797 6.261.492.31.047-.08.539.04-.543 1.64.117-.081 1.09-1.66-.121-.31-.047.083-.54-.043.544-6.246-.492Zm16.183.695 1.758-.324.102.539-.164-.524.308-.097.168.523-.23-.5 4.047-1.863.226.496-.277-.469.308-.187.282.472-.32-.445 1.03-.738.637.887-1.047.753-.355.211-4.105 1.891-.375.121-1.793.332Zm13.73-8.078.86-.688.684.852-.86.691Zm0 0"/><path fill="orange" d="m183.496 157.637 3.75-.375.055.547-.11-.536.317-.066.11.535-.165-.52 3.918-1.238.328 1.04-3.941 1.25-.375.074-3.778.375Zm15.516-4.532 7.64-2.972.399 1.02-7.645 2.972Zm-15.407-24.222 4.098.414.344.07 3.664 1.176-.336 1.043-3.633-1.168.164-.52-.11.536-.288-.063.11-.535-.055.543-4.067-.406Zm15.391 5.734 3.902 2.938.332.285 2.153 2-.746.8-2.145-1.992.375-.402-.355.414-.313-.265.356-.415-.328.438-3.887-2.926Zm12.387 10.797 3.691 3.336-.73.813-3.696-3.336Zm-27.797-44.434 5.941.391.325.031-.055.547.023-.547 1.942.086-.051 1.09-1.957-.086-.328-.031.058-.547-.039.547-5.93-.387Zm16.047-.062 3.336-1.434.215.5-.27-.476.313-.176.27.477-.31-.45 3.473-2.386.617.902-3.492 2.398-.36.204-3.359 1.445Zm13.058-9.383.094-.086.34-.32 1.266-.899.632.895-1.234.875-.316-.45.375.4-.325.308-.093.086Zm0 0"/><path fill="orange" d="m183.48 100.984 3.438-.46.07.542-.136-.527.308-.082.14.527-.202-.507 3.73-1.489.203.508-.238-.488.316-.156.239.492-.278-.469.035-.023.555.945-.055.031-.355.172-3.777 1.508-.375.097-3.473.465Zm14.696-6.293.054-.035.329-.195 6.257-3.297.356-.14.394-.13.34 1.04-.379.12-.168-.519.203.508-.308.125-.207-.508.254.485-6.219 3.277-.258-.484.285.468-.324.196-.055.03Zm15.46-5.609.72-.082.343-.008.02 1.094-.317.008-.011-.547.062.543-.691.078Zm0 0"/><path fill="orange" d="m183.617 62.695 3.153.387.386.094 3.477 1.402.36.192.605.406-.614.906-.578-.39.309-.454-.258.485-.309-.164.254-.485-.207.508-3.41-1.379.203-.508-.129.532-.312-.075.125-.535-.067.543-3.12-.379Zm14.375 7.723 3.403 3.348.335.363 1.93 2.273-.832.711-1.926-2.27.418-.35-.402.366-.316-.343.402-.371-.387.39-3.39-3.336Zm10.977 12.238.57.676.297.371-.43.34.403-.367 4.648 5.043-.805.742-4.664-5.063-.3-.382.425-.336-.414.351-.566-.668Zm5.851 66.801 1.856.395.32.207 5.098 3.414-.61.91-5.086-3.406-.234-.153.3-.46-.112.538-1.758-.375Zm14.168 8.25 3.133 1.41-.223.5.172-.52.215.075-.176.516.098-.536 3.965.711-.098.535.028-.546.234.011-.027.547.007-.547.278.004-.016 1.094-.285-.004-.281-.012-4.035-.726-.278-.09-3.16-1.426Zm0 0"/><path fill="orange" d="m214.945 148.664 2.203 1.055-.238.492.113-.535.243.05 3.164 1.087.257.128 1.774 1.043-.559.942-1.754-1.035.278-.47-.242.49-.207-.106.242-.489-.176.52-3.102-1.063.176-.52-.11.54-.273-.059-2.261-1.086Zm14.414 7.8 3.946 2.638-.305.457.234-.496.207.097-.23.496.125-.531 3.101.75-.128.531.015-.547h.035l-.027 1.094-.094-.004-3.21-.773-.298-.14-3.976-2.661Zm0 0"/><path fill="orange" d="m214.434 148.684 7.09-4.121.55.945-7.09 4.12Zm14.75-7.258.804-.285.258-.063 4.668-.707.266-.012 1.53-.05.036 1.093-1.516.051-.234.008-.027-.547.082.543-4.617.7-.082-.54.125.531-.207.047-.13-.53.184.515-.777.277Zm-14.438-51.293 5.73.394.254.028 2.22.316-.153 1.082-2.211-.312.074-.543-.062.543-.235-.028.063-.543-.035.547-5.72-.394Zm16.32 1.894 3.559.504-.074.543.012-.547.214.004 1.961.031-.015 1.094-1.977-.031-.242-.008-3.59-.508Zm0 0"/><path fill="orange" d="m214.824 89.004 8.016 1.742-.235 1.07-8.011-1.742Zm16.063 2.93 5.691.632-.062.543v-.546h.214v1.093h-.242l-5.722-.636Zm0 0"/><path fill="orange" d="m214.594 89.004 8.02-1.719.23 1.07-8.02 1.72Zm16.129-3.371 5.972-.356.067 1.09-5.973.36Zm0 0"/><path fill="none" stroke="#000" stroke-width=".547" d="M38.48 192.246h198.793M38.48 21.086h198.793m-198.519.274v170.613M237 21.359v170.614"/><path fill="none" stroke="#444" stroke-width=".547" d="M39.027 192.52v2.734m44.059-2.734v2.734m15.574-2.734v2.734m46.735-2.734v2.734m38.164-2.734v2.734m31.148-2.734v2.734m22.035-2.734v2.734M38.48 191.973h-2.734m2.734-24.426h-2.734m2.734-24.426h-2.734m2.734-24.43h-2.734m2.734-24.425h-2.734M38.48 69.84h-2.734m2.734-24.426h-2.734"/><path fill="none" stroke="#D3D3D3" stroke-width=".547" d="M262.059 21.36v170.613M279.75 21.36v170.613m-35.379-24.426h49.426m-49.426-24.426h49.426m-49.426-24.43h49.426m-49.426-24.425h49.426M244.371 69.84h49.426m-49.426-24.426h49.426"/><path fill="none" stroke="red" stroke-miterlimit="2" stroke-width="1.094" d="m244.371 208.176.406-29.168.086-.965 1.332-8.75.23-.977 1.22-2.918.582-.968 1.996-1.946 3.48-.972 2.188-.969.242-.973 1.047-.976 8.394-.973-10.68-.973-1.957-.968-1.425-1.946-.614-.972.09-.973-.43-.969-.535-.972.106-.977.457-.973-1.164-.968-3.453-2.918-.61-.973.778-1.941.89-.977 1.637-1.937.441-.977 1.258-1.945 1.543-.973 6.723-.969-5.86-.972-3.363-.973-1.027-.977-4.008-5.828v-.972l.324-19.446 1.512-.972 1.883-.97 5.75-.972.777-.972 1.809-.977.406-.973 2.371-.968.317-.973 1.683-.973-3.707-.972-1.164-.97-2.121-2.92-.305-.974.121-.964-7.39-.977-1.844-.973.027-.972 1.352-28.192.082-.972.851-5.832.47-.977.663-.973-.457-.972-.535-1.942.371-.972-.828-1.95-.676-.964-1.14-7.786-.098-.964-.504-7.782V13.738"/><path fill="green" d="m243.824 206.328.024-1.64 1.093.015-.023 1.64Zm.043-3.281.024-1.64 1.093.015-.023 1.64Zm.043-3.281.024-1.641 1.093.016-.02 1.64Zm.047-3.282.023-1.64 1.09.015-.02 1.641Zm.043-3.28.023-1.642 1.094.016-.023 1.64Zm.047-3.282.02-1.64 1.093.015-.023 1.64Zm.043-3.277.02-1.641 1.093.012-.02 1.64Zm.043-3.282.023-1.64 1.094.011-.023 1.641Zm.058-3.316.051-.672.149-.992 1.082.156-.145.977-.543-.082.547.043-.05.652Zm.438-3.29.238-1.62 1.082.16-.238 1.621Zm.48-3.245.239-1.621 1.082.16-.239 1.62Zm.48-3.246.071-.485.235-.93.12-.296 1.012.41-.105.265-.508-.207.531.133-.218.867-.532-.136.543.082-.066.457Zm1.044-3.235.613-1.52 1.016.41-.617 1.524Zm1.344-3.078.293-.484.914-.832.734.808-.856.778-.367-.407.47.286-.255.414Zm2.418-2.418.87-.793.618-.242.402 1.016-.523.207-.203-.508.37.406-.796.723Zm3.011-1.64.176-.067 1.45-.414.3 1.05-1.426.407-.148-.527.203.511-.152.06Zm3.203-.934 1.575-.453.3 1.05-1.578.454Zm3.243-.906 1.628-.188.125 1.086-1.628.188Zm3.257-.38 1.63-.187.124 1.086-1.629.188Zm3.258-.378.848-.098.062.543-.05.543-.782-.07.098-1.09.785.074.016 1.086-.852.098Zm-1.555.77-1.632-.149.097-1.09 1.633.149Zm-3.265-.301-1.637-.149.102-1.09 1.633.149Zm-3.27-.297-.535-.051-1.156-.316.289-1.055 1.113.305-.144.527.047-.547.488.047Zm-3.273-.805-.563-.152-1.02-.715.626-.895.941.657-.312.449.144-.528.473.13Zm-2.93-1.805-.262-.183-.761-1.004-.137-.367 1.024-.38.109.294-.516.187.438-.332.66.871-.434.328.313-.445.195.133Zm-1.726-3.097-.368-.996.489-.942.969.508-.375.723-.489-.25.516-.192.281.774Zm-.805-2.805-.133-.648.54-.11-.45.317-.562-.801.89-.633.633.898.152.758Zm-1.55-2.383-.677-.554.344-.422-.32.441-.621-.453.644-.883.633.461.688.563Zm-2.411-2.465-.105-.23.691-1.723 1.016.406-.606 1.504-.508-.203.496-.23.008.02Zm2.133-3.14.332-.188 1.101-.61.532.958-1.102.61-.332.183Zm2.867-1.594 1.434-.797.53.957-1.433.797Zm2.867-1.594.93-.515.742-.137.2 1.074-.653.121-.102-.535.266.477-.852.472Zm3.285-.953 1.614-.3.199 1.077-1.613.297Zm1.625.527-1.629-.207.137-1.085 1.63.21Zm-3.254-.414-1.628-.207.136-1.086 1.63.207Zm-3.34-.539-1.55-.535.355-1.035 1.551.535Zm-3.015-1.699-1.09-1.226.813-.727 1.093 1.223Zm-2.148-2.543-.094-.129-.602-.87.45-.313-.34.43-.344-.274.68-.856.406.32.644.934-.453.309.442-.324.09.125Zm-2.211-2.265-.567-.555v-1.309h1.094v1.078h-.547l.383-.39.402.394Zm-.567-3.504v-1.641l1.098.004-.004 1.637Zm.004-3.282v-1.636h1.094v1.64Zm0-3.28v-1.641h1.094v1.64Zm0-3.282v-1.64l1.094.003v1.64Zm.004-3.277v-1.641h1.094v1.64Zm0-3.282v-1.64h1.094v1.64Zm.004-3.285v-1.637h1.094l-.004 1.641Zm0-3.277v-.715l1.547-.617.406 1.015-1.203.48-.203-.51h.547v.347Zm3.086-1.934 1.535-.578.383 1.023-1.535.579Zm3.305-.805 1.632-.128.09 1.09-1.637.128Zm3.27-.261 1.632-.133.09 1.09-1.637.133Zm3.269-.266 1.632-.129.09 1.09-1.636.133Zm3.18-.308 1.593-.38.25 1.067-1.594.375Zm3.19-.754.067-.016.129.531-.488-.25.578-1.133.883-.093.117 1.086-.59.062-.059-.543.489.25-.559 1.094-.316.074Zm2.798-1.141 1.632-.176.118 1.086-1.63.18Zm3.261-.355 1.63-.18.12 1.09-1.632.175Zm1.72.746-1.634-.145.098-1.09 1.633.149Zm-3.27-.293-1.633-.145.097-1.09 1.633.149Zm-3.266-.29-1.633-.148.098-1.09 1.633.149Zm-3.313-.41-1.605-.328.219-1.07 1.605.328Zm-3.214-.656-.118-.023-.039-1.063 1.457-.414.301 1.055-1.46.414-.15-.527.11-.536.117.024Zm2.882-1.945.082-.024 1.653-.144.094 1.09-1.602.14-.047-.546.149.527-.032.008Zm3.368-.309 1.632-.14.094 1.09-1.633.14Zm3.265-.285 1.637-.14.094 1.09-1.633.14Zm3.27-.281.234-.024.05.547-.296.457-1.18-.757.59-.922 1.18.761-.246 1.004-.239.02Zm-2.54.113-1.636-.101.07-1.094 1.637.105Zm-3.273-.207-1.637-.101.07-1.09 1.638.101Zm-3.273-.203-1.637-.105.07-1.09 1.637.101Zm-3.274-.207-1.636-.102.07-1.093 1.637.105Zm-3.3-.246-1.63-.195.13-1.086 1.628.191Zm-3.258-.39-1.63-.2.134-1.086 1.629.2Zm-3.32-.407-1.594-.387.257-1.062 1.594.387Zm-3.188-.777-.59-.145-.715-1.226.047-.438 1.086.121-.027.258-.543-.059.472-.277.508.867-.472.278.132-.532.364.09Zm-.879-3.688.598-.746.425.34-.546-.004.007-.684 1.09.012-.008.871-.714.895Zm.516-2.75.011-.285.086-1.363 1.09.066-.086 1.36-.547-.036.547.02-.008.281Zm.199-3.289.101-1.637 1.09.07-.101 1.637Zm.207-3.273.101-1.637 1.09.066-.101 1.637Zm.203-3.274.102-1.64 1.093.07-.105 1.637Zm.203-3.277.106-1.637 1.09.07-.102 1.637Zm.207-3.274.024-.402.086-.887.062-.39 1.078.168-.058.375-.54-.086.543.05-.082.864-.542-.05.546.034-.023.395Zm.422-3.3.254-1.621 1.078.168-.25 1.62Zm.508-3.243.133-.878.246-.793 1.047.32-.235.758-.523-.16.543.082-.133.84Zm1.187-3.222.286-.528 1.14-.69.567.933-1.012.617-.285-.469.48.266-.219.394Zm2.977-1.957.969-.414.215.504-.153.523-.562-.164.308-1.05.563.163.058 1.028-.972.414Zm-1.102-.016-.906-.265-.719-.508.633-.895.64.457-.316.446.157-.524.82.238Zm-2.96-1.722-.606-.426-.402-1.04-.047-.14 1.043-.336.039.129-.52.164.508-.195.34.87-.512.196.317-.445.468.332Zm-1.56-3.168-.5-1.563 1.04-.332.504 1.563Zm-.882-3.239-.266-1.617 1.082-.18.266 1.621Zm-.531-3.238-.102-.629v-1.09h1.094v1.043h-.547l.54-.086.097.586Zm-.102-3.36v-1.64h1.094v1.64Zm0-3.28v-1.641h1.094v1.64Zm0-3.282v-1.64h1.094v1.64Zm0 0"/><path fill="#00F" d="m243.824 203.906.09-4.918 1.094.02-.09 4.922Zm.184-9.84.09-4.921 1.093.02-.09 4.92Zm.32-9.918.867-4.843 1.078.191-.87 4.844Zm2.41-9.605.278-.785.336-.785 1.984-2.75.887.64-1.95 2.703-.441-.32.504.215-.309.71-.5-.214.512.18-.27.773Zm6.825-7.195.554-.32 2.68-.747 1.71-.199.126 1.086-1.668.195-.063-.543.149.528-2.57.714-.149-.527.273.473-.496.289Zm9.832-1.832 4.89-.567.125 1.086-4.887.567Zm1.753-.434-4.902-.406.094-1.094 4.902.41Zm-9.875-1.664-1.89-1.227-.344-.875.512-.199-.38.39-.89-.859-.043-.933.547-.028-.324.442-.274-.203.649-.88.484.356.043.977-.547.027.383-.394.817.793.324.824-.512.2.3-.462 1.743 1.133Zm-6.824-6.422-3.195-1.824.004-.953 1.082-.606.535.953-1.082.606-.27-.477.274-.472 3.195 1.824Zm1.91-5.875.774-.465.281.469-.516-.187.364-.981 2.968-.781.141.527-.18.52-.445-.157.356-1.035.445.156-.035 1.043-2.7.711-.136-.527.512.191-.329.891-.937.563Zm.473-4.187-.375-.454.422-.347-.29.465-2.382-1.485-.574-.836-.375-.707.965-.511.359.68-.48.257.449-.312.492.718-.45.309.286-.465 2.363 1.469.434.52Zm-5.789-7.743L243.824 137v-2.695h1.094v2.554h-.547l.477-.265L246 138.66Zm-1.219-9.808v-4.922h1.094v4.922Zm2.848-8.192 4.914-.304.066 1.093-4.91.301Zm9.766-.652 3.984-.625.082.54-.543-.071.133-.996.398-.211.508.965-.148.078-.254-.48.543.07-.149 1.12-4.383.688Zm9.023-2.316 4.91-.356.078 1.094-4.91.352Zm9.848-.57 4.914-.16.039 1.093-4.918.16Zm9.832-.321 4.918-.16.035 1.094-4.918.16Zm7.703.094-4.914-.219.05-1.094 4.915.223Zm-9.828-.442-4.918-.218.05-1.09 4.914.219Zm-9.832-.437-4.914-.223.046-1.09 4.914.22Zm-9.832-.442-2.22-.097-2.706-.215.086-1.094 2.699.215-.047.547.027-.547 2.211.098Zm-9.832-.703-1.422-.113-3.489-.336.106-1.09 3.469.336 1.421.114Zm-9.418-2.437.644-4.88 1.086.142-.644 4.878Zm1.289-9.758.648-4.883 1.082.145-.644 4.879Zm1.293-9.758.312-2.383.313-.789.671-1.445.497.234-.54-.082.036-.242 1.082.156-.047.325-.703 1.5-.496-.23.511.198-.28.711-.509-.199.543.07-.308 2.317Zm1.226-9.754.371-.62.469.28-.543.051-.066-.71.543-.051-.414.355-1.887-2.219-.274-.715 1.024-.386.238.629-.512.191.414-.355 1.942 2.277.097 1.058-.46.774Zm-3.277-8.36-.809-2.593v-2.37h1.094v2.288h-.547l.524-.164.78 2.516Zm-.809-9.886v-4.207h1.094v4.207Zm0 0"/><path fill="orange" d="m243.824 205.313.137-8.2 1.094.016-.137 8.203Zm.274-16.403.136-8.222.004-.028 1.086.113v.004l-.543-.058.547.011-.137 8.2Zm1.511-16.37.399-2.263.25-.863 1.957-4.059.445-.609.883.649-.418.566-.441-.324.492.238-1.914 3.973-.492-.239.527.153-.23.793-.524-.153.535.094-.39 2.23Zm10.735-11.24.773-.16.113.536-.234-.496 1.68-.793.234.496-.37-.406 1.007-.915 4.492-.605.149 1.082-4.325.586-.074-.543.367.406-.941.852-1.809.855-.84.176Zm2.656-2.16-.977-.105-3.316-.836-2.816-2.543-.25-.5.976-.488.203.406-.488.246.367-.406 2.64 2.383-.366.406.132-.531 3.149.793-.133.531.059-.543.933.098Zm-11.875-10.19-.652-.345-.72-.933-.472-1.008.215-1.113 1.55-1.758 1.313-.836.293.465-.394-.379.902-.95.79.759-.95.996-1.3.828-.294-.461.41.36-1.402 1.585-.406-.36.535.102-.152.793-.54-.101.497-.235.37.793-.491.235.433-.336.606.797-.434.332.254-.485.547.285Zm9.316-10.723.438-.102.121.531-.129.531-3.312-.796.129-.532-.102.536-4.227-.813-.218-.144.605-.91.125.081-.3.457.105-.539 4.129.797 3.324.801-.004 1.066-.437.102Zm-11.851-7.723-.766-1.215v-7.078h1.094v6.922h-.547l.461-.293.684 1.082Zm-.766-16.496v-8.203h1.094v8.203Zm6.36-12.008 4.82-.398.043.543-.543.027-.04-.824.063-1.047 1.164-.996.563-.274.476.985-.496.242-.242-.492.36.418-.938.796-.355-.418.546.036-.05.789-.543-.035.543-.028.066 1.32-5.348.446Zm14.199-4.754 4.308-.402.051.543-.047.547-3.855-.356.098-1.09 3.855.356.004 1.09-4.313.402Zm-1.008-1.621 2.914-.371.07.543-.191.512-2.11-.793.192-.512-.117.531-2.938-.648.239-1.07 2.972.66 2.145.808-.121 1.055-2.918.37Zm-10.363-2.719-.805-.648.344-.426-.297.457-2.457-1.586.297-.457-.223.496-1.758-.793.227-.496-.137.527-2.246-.585.277-1.06 2.29.599 1.831.832 2.516 1.62.828.669Zm-6.895-10.324.086-1.898.074-.82.797-5.477 1.082.156-.793 5.46-.543-.077.543.05-.07.794-.543-.051.547.023-.086 1.887Zm4.707-15.527.856-.336.199.511-.477-.273.461-.8.473.273-.524-.149.223-.793.528.149-.118.535-3.785-.813-1.347-.843.289-.465-.196.511-.25-.093.39-1.024.302.114 1.312.824-.289.46.113-.534 4.262.918-.402 1.418-.59 1.023-1.035.406Zm-7-9.88v-8.202h1.094v8.203Zm0 0"/><path fill="none" stroke="#000" stroke-width=".547" d="M243.824 192.246h50.52m-50.52-171.16h50.52m-50.246.274v170.613M294.07 21.359v170.614"/><path fill="none" stroke="#444" stroke-width=".547" d="M244.371 192.52v2.734m17.688-2.734v2.734m17.691-2.734v2.734m-35.926-3.281h-2.734m2.734-24.426h-2.734m2.734-24.426h-2.734m2.734-24.43h-2.734m2.734-24.425h-2.734m2.734-24.426h-2.734m2.734-24.426h-2.734"/><path fill="none" stroke="#000" stroke-width=".547" d="M145.395 191.973V21.359m38.16 170.614V21.359m31.152 170.614V21.359M83.086 191.973V21.359m15.578 170.614V21.359"/><path fill="#FFF" fill-rule="evenodd" d="M26.672 16.2h274.094V.163H26.672ZM0 159.383h15.71V63.328H0Zm26.672 55.637h24.71V198h-24.71Zm45.164 0h19.637v-16.04H71.836Zm21.274-2.622h12.273v-14.234H93.109Zm39.437 2.622h24.707V198h-24.707Zm43.199-.329h16.2v-17.02h-16.2Zm28.801-2.293H225v-15.214h-20.453Zm22.582.821h14.234v-16.035H227.13Zm0 0"/><path fill="#FFF" fill-rule="evenodd" d="M239.563 210.438h11.457v-13.094h-11.458Zm18.164 3.762h8.507v-17.18h-8.507Zm14.402.327h23.07v-17.183h-23.07ZM95.234 229.582h91.801v-14.398h-91.8Zm0 0"/><g clip-path="url(#c)"><path fill="#FFF" fill-rule="evenodd" d="M246.926 229.09h55.308v-15.22h-55.308Zm0 0"/></g><use xlink:href="#d" x="56.021" y="13.043"/><use xlink:href="#e" x="64.745" y="13.043"/><use xlink:href="#f" x="71.25" y="13.043"/><use xlink:href="#g" x="110.079" y="13.043"/><use xlink:href="#h" x="119.62" y="13.043"/><use xlink:href="#i" x="127.359" y="13.043"/><use xlink:href="#j" x="135.264" y="13.043"/><use xlink:href="#g" x="174.275" y="13.043"/><use xlink:href="#k" x="183.818" y="13.043"/><use xlink:href="#l" x="191.015" y="13.043"/><use xlink:href="#m" x="199.795" y="13.043"/><use xlink:href="#n" x="208.265" y="13.043"/><use xlink:href="#o" x="215.01" y="13.043"/><use xlink:href="#i" x="251.321" y="13.043"/><use xlink:href="#p" x="259.226" y="13.043"/><use xlink:href="#l" x="267.735" y="13.043"/><use xlink:href="#m" x="276.514" y="13.043"/><use xlink:href="#n" x="284.985" y="13.043"/><use xlink:href="#o" x="291.73" y="13.043"/><path fill="none" stroke="red" stroke-width="3.535" d="M31.254 8.637h21.23"/><path fill="green" d="M85.313 6.867h3.535v3.535h-3.535m7.074-3.535h3.539v3.535h-3.54m7.079-3.535h3.539v3.535h-3.54"/><path fill="#00F" d="M149.508 6.867h10.613v3.535h-10.613"/><path fill="orange" d="M226.555 6.867h17.687v3.535h-17.687"/><use xlink:href="#q" x="10.651" y="154.157"/><use xlink:href="#r" x="10.651" y="148.014"/><use xlink:href="#s" x="10.651" y="143.453"/><use xlink:href="#t" x="10.651" y="137.086"/><use xlink:href="#u" x="10.651" y="130.426"/><use xlink:href="#s" x="10.651" y="123.662"/><use xlink:href="#v" x="10.651" y="117.295"/><use xlink:href="#w" x="10.651" y="110.532"/><use xlink:href="#x" x="10.651" y="104.964"/><use xlink:href="#y" x="10.651" y="94.881"/><use xlink:href="#z" x="10.651" y="90.027"/><use xlink:href="#A" x="10.651" y="83.441"/><use xlink:href="#B" x="10.651" y="75.409"/><use xlink:href="#C" x="10.651" y="69.793"/><use xlink:href="#D" x="22.075" y="48.75"/><use xlink:href="#E" x="22.075" y="73.462"/><use xlink:href="#F" x="22.075" y="98.331"/><use xlink:href="#G" x="22.075" y="123.043"/><use xlink:href="#H" x="22.075" y="147.755"/><use xlink:href="#I" x="22.404" y="172.467"/><use xlink:href="#J" x="22.075" y="197.336"/><use xlink:href="#K" x="35.865" y="209.875"/><use xlink:href="#L" x="78.876" y="209.897"/><use xlink:href="#M" x="94.662" y="209.952"/><use xlink:href="#K" x="141.737" y="209.871"/><use xlink:href="#N" x="179.965" y="209.544"/><use xlink:href="#O" x="208.101" y="209.148"/><use xlink:href="#P" x="230.75" y="209.095"/><use xlink:href="#Q" x="240.643" y="209.261"/><use xlink:href="#R" x="257.798" y="209.005"/><use xlink:href="#S" x="272.264" y="209.332"/><use xlink:href="#T" x="280.435" y="209.332"/><use xlink:href="#U" x="99.343" y="226.877"/><use xlink:href="#V" x="111.919" y="226.877"/><use xlink:href="#W" x="119.557" y="226.877"/><use xlink:href="#X" x="127.084" y="226.877"/><use xlink:href="#Y" x="139.132" y="226.877"/><use xlink:href="#X" x="147.826" y="226.877"/><use xlink:href="#Z" x="155.402" y="226.877"/><use xlink:href="#aa" x="162.026" y="226.877"/><use xlink:href="#ab" x="167.039" y="226.877"/><use xlink:href="#ac" x="174.757" y="226.877"/><use xlink:href="#ad" x="255.87" y="226.54"/><use xlink:href="#ae" x="265.236" y="226.54"/><use xlink:href="#af" x="274.803" y="226.54"/><path fill="#FFF" fill-rule="evenodd" d="M155.617 16.035h9.985V0h-9.985Zm0 0"/><g clip-path="url(#ag)"><path fill="#00F" d="M159.598 6.707h10.597v3.531h-10.597"/></g></svg>