<svg xmlns="http://www.w3.org/2000/svg" width="100%" height="100%" viewBox="0 0 190 154" fill-rule="evenodd" stroke-linejoin="round" stroke-miterlimit="10" xmlns:v="https://vecta.io/nano"><style><![CDATA[.B{fill-rule:nonzero}.C{fill:none}.D{stroke:#000}.E{stroke-width:.39}.F{stroke-dasharray:0.76,0.45}.G{stroke-dasharray:1.51,0.6}]]></style><path d="M31.907 3.501h155.206v137.048H31.907z" fill="#fefefe"/><g class="B"><path d="M56.628 147.038h-.012v-.331l-.003-.167v-.334l-.003-.164v-.167l-.003-.167v-.167l-.003-.331-.005-.334-.003-.331-.006-.334-.006-.331-.009-.498-.012-.498-.011-.334-.003-.167-.018-.498-.006-.167-.014-.331-.006-.167-.009-.167-.017-.331-.018-.334-.021-.331-.011-.167-.024-.331-.011-.167-.03-.334-.014-.164-.03-.334-.017-.167-.018-.164-.017-.167-.041-.334-.021-.165-.02-.167-.047-.334-.027-.164-.023-.167-.026-.167-.03-.167-.029-.164-.059-.334-.032-.167-.035-.164-.032-.167-.035-.167-.039-.167-.038-.164-.041-.167-.038-.167-.044-.164-.088-.334-.046-.167-.05-.164-.047-.167-.106-.334-.055-.164-.056-.167-.117-.334-.065-.164-.061-.167-.135-.334-.07-.164-.147-.334-.079-.167-.079-.164-.079-.167-.17-.334-.091-.164-.091-.167-.093-.167-.097-.167-.1-.164-.205-.334-.108-.167-.108-.164-.229-.334-.117-.167-.123-.164-.123-.167-.126-.167-.129-.167-.132-.164-.132-.167-.137-.167-.138-.164-.141-.167-.143-.167-.147-.167-.146-.164-.15-.167-.304-.334-.156-.164-.474-.501-.161-.164-.323-.334-.164-.167-.164-.164-.161-.167-.164-.167-.331-.331-.492-.501-.164-.164-.484-.501-.161-.164-.474-.501-.156-.164-.457-.501-.149-.165-.44-.5-.14-.165-.144-.167-.14-.167-.138-.164-.138-.167-.269-.334-.132-.164-.132-.167-.258-.334-.126-.164-.252-.334-.123-.167-.123-.164-.123-.167-.24-.334-.12-.164-.12-.167-.235-.334-.117-.164-.114-.167-.117-.167-.112-.167-.114-.164-.114-.167-.223-.334-.111-.164-.112-.167-.216-.334-.109-.164-.211-.334-.102-.167-.103-.164-.299-.501-.093-.164-.188-.334-.088-.167-.088-.164-.17-.334-.079-.167-.079-.164-.146-.334-.071-.164-.064-.167-.123-.334-.056-.164-.055-.167-.05-.167-.047-.167-.044-.164-.076-.334-.032-.167-.03-.164-.026-.167-.041-.334-.015-.164-.011-.167-.009-.167-.006-.167v-.164l.003-.167.006-.167.008-.167.012-.164.035-.334.024-.167.026-.164.029-.167.033-.167.035-.167.041-.164.041-.167.047-.167.05-.167.049-.164.056-.167.059-.167.064-.167.065-.165.067-.167.07-.166.076-.167.077-.165.164-.334.088-.164.087-.167.094-.167.097-.167.097-.164.099-.167.211-.334.108-.164.115-.167.111-.167.117-.167.117-.164.123-.167.121-.167.126-.167.126-.164.386-.501.135-.164.132-.167.135-.167.134-.164.135-.167.138-.167.135-.167.137-.167.138-.164.138-.167.134-.167.138-.167.135-.164.404-.501.132-.164.132-.167.129-.167.129-.164.252-.334.123-.167.12-.164.12-.167.117-.167.229-.334.111-.164.108-.167.106-.167.105-.164.2-.334.096-.167.094-.164.094-.167.176-.334.084-.164.082-.167.159-.334.076-.164.073-.167.141-.334.067-.164.068-.167.064-.167.061-.167.062-.164.117-.334.059-.164.058-.167.056-.167.053-.167.055-.167.053-.164.056-.167.105-.334.053-.164.158-.501.053-.164.053-.167.055-.167.053-.165.111-.333.059-.167.056-.165.117-.334.061-.167.059-.164.123-.334.065-.167.064-.164.064-.167.068-.167.064-.167.068-.164.067-.167.07-.167.068-.167.07-.164.141-.334.073-.164.141-.334.146-.334.07-.164.147-.334.07-.167.073-.164.144-.334.07-.167.071-.164.14-.334.07-.164.068-.167.07-.167.068-.167.067-.164.064-.167.068-.167.129-.334.061-.164.065-.167.061-.167.062-.164.175-.501.059-.164.059-.167.111-.334.053-.164.055-.167.106-.334.05-.164.052-.167.05-.167.097-.334.05-.164.044-.167.047-.164.046-.167.132-.501.044-.164.044-.167.082-.334.041-.164.038-.167.041-.167.038-.167.038-.164.077-.334.035-.167.038-.164.07-.334.032-.167.036-.164.032-.167.035-.167.032-.164.032-.167.03-.167.032-.167.029-.164.032-.167.088-.501.027-.165.029-.167.026-.167.027-.164.079-.501.026-.164.047-.334.026-.164.044-.334.047-.334.021-.164.061-.501.021-.164.02-.167.035-.334.018-.164.035-.334.018-.164.014-.167.018-.167.029-.334.015-.164.029-.334.012-.167.015-.164.023-.334.012-.164.035-.501.02-.331.012-.167.009-.167.009-.164.011-.167.018-.334.012-.164.017-.334.018-.331.035-.668.009-.164.017-.334.009-.164.027-.501.008-.164.012-.167.018-.334.008-.164.018-.334.009-.164.012-.167.026-.501.009-.164.011-.167.009-.167.009-.164.012-.167.017-.334.012-.164.035-.668.012-.164.026-.501.009-.164.018-.334.008-.165.027-.501.009-.164.026-.501.006-.164.017-.334.006-.167.009-.164.006-.167.017-.334.006-.164.009-.167.006-.167.009-.164.006-.167.008-.167.006-.167.009-.164.012-.334.009-.167.005-.167.009-.164.012-.334.009-.167.006-.164.005-.167.009-.167.006-.164.006-.167.015-.334.005-.167.009-.164.012-.334.006-.164.009-.167.011-.334.006-.164.015-.334.006-.167.006-.164.011-.334.006-.164.012-.334.009-.167.005-.167.006-.164.018-.501.003-.164.017-.501.006-.164.012-.334.006-.164.003-.167.017-.501.003-.164.012-.334.003-.164.012-.334.003-.167.005-.164.009-.334.006-.334.006-.164.003-.167.006-.167.003-.164.008-.501.003-.164.009-.501.003-.165v-.167l.006-.498.003-.167v-.334l.003-.164v-1.497l-.003-.167v-.164l-.003-.501-.003-.167v-.164l-.003-.167v-.167l-.006-.665-.011-.996v-.167l-.003-.167v-.164l-.003-.334v-.167l-.003-.164v-2.162l.003-.167.003-.498.003-.331v-.167l.005-.501.003-.164.003-.334.003-.164.003-.334.003-.167.003-.331.003-.167.003-.498.003-.334.003-.167v-.164l.006-.665v-.167l.002-.167v-.164l.003-.665v-2.995l-.003-.167v-1.327l.003-.167v-1.33l.006-1.163v-.999l.003-.167v-1.163l-.003-.829-.003-.167v-.167l-.003-.334v-.164l-.003-.167v-.167l-.002-.164-.003-.334v-.167l-.003-.164-.003-.334-.003-.167-.003-.164v-.167l-.003-.167-.003-.164-.003-.334-.006-.334-.003-.164v-.167l-.006-.334-.002-.498-.006-.334v-.164l-.003-.498-.003-.334-.003-.832v-.997l.123 141.806z" fill="#0000fe"/><path d="M56.64 153.706h-.012l.035-147.583.003.401v4.023l-.003.803v.404l-.003 2.01v2.815l.003.803v.805l.003.402v.401l.009 1.207.003.402.009 1.207.002.401.006.401.003.405.021 1.608.011.803.006.404.018 1.204.05 2.816.006.404.005.401.009.402.006.401.009.404.02 1.204.006.405.044 2.411.009.404.006.402.009.401.026 1.608.006.402.006.404.017 1.204.015 1.207.006.401.014 1.609.003.404.006.803.024 3.217.006.805.005.402.003.401.006.404.006.402.009.805.009.402.014.803.006.404.026 1.204.012.404.009.402.023.802.024.806.029.806.044 1.204.018.401.014.404.018.402.02.401.018.404.041.803.023.402.024.404.023.401.053.803.029.404.03.402.064.802.038.405.035.401.038.401.041.405.088.802.047.402.05.401.05.404.053.402.055.401.056.404.184 1.205.068.404.067.401.141.803.076.404.152.803.079.401.082.405.17.802.088.405.088.401.182.803.094.404.29 1.204.099.404.103.402.099.401.106.402.102.404.106.401.108.402.106.401.108.404.109.402.111.401.111.404.334 1.204.114.405.232.802.114.402.117.404.12.401.118.402.12.401.123.405.12.401.126.401.126.405.258.802.132.402.134.401.135.404.281.803.144.404.146.402.15.401.155.401.155.405.158.401.329.803.167.404.345.803.179.401.179.405.181.401.185.401.187.405.188.401.381.803.193.404.58 1.204.194.404.571 1.204.184.405.185.401.179.402.176.401.172.404.167.402.162.401.158.404.149.402.141.401.135.401.128.405.118.401.111.401.1.402.093.404.079.401.074.402.061.401.05.404.038.402.029.401.015.402.003.404-.006.401-.02.402-.033.404-.047.401-.058.402-.07.401-.082.404-.097.402-.111.401-.124.401-.134.405-.15.401-.161.401-.173.402-.187.404-.199.401-.214.402-.223.401-.234.404-.249.402-.255.401-.27.404-.275.402-.287.401-.293.402-.302.404-.311.401-.313.402-.319.401-.326.404-.325.402-.662.802-.328.405-.331.401-.656.803-.323.404-.319.401-.313.402-.308.404-.302.401-.293.402-.287.401-.278.404-.27.402-.26.401-.252.402-.241.404-.234.401-.22.402-.211.401-.202.404-.193.402-.182.401-.17.404-.164.402-.152.401-.144.401-.134.405-.123.401-.118.401-.111.402-.1.404-.096.401-.088.402-.079.401-.074.405-.07.401-.064.401-.056.402-.053.404-.049.401-.044.402-.041.401-.036.404-.035.402-.029.401-.026.404-.047.803-.021.401-.017.405-.018.401-.012.401-.014.402-.012.404-.026 1.204-.006.405-.009.401-.006.401-.003.402-.006.404-.006.803-.002.404-.006.803v.401z" fill="#acd8e6"/><path d="M109.093 141.633h-.05l-.015-.346-.006-.117-.005-.114-.012-.232-.029-.463-.009-.114-.018-.231-.012-.115-.008-.117-.027-.231-.023-.229-.029-.231-.018-.117-.035-.229-.018-.117-.02-.114-.021-.118-.02-.114-.024-.114-.023-.117-.024-.115-.026-.117-.026-.114-.03-.114-.029-.117-.032-.115-.029-.117-.036-.114-.035-.117-.038-.115-.035-.114-.041-.117-.041-.114-.041-.117-.044-.115-.047-.114-.047-.117-.049-.114-.05-.118-.053-.114-.056-.114-.055-.117-.059-.115-.061-.117-.062-.114-.064-.114-.068-.117-.067-.115-.071-.117-.07-.114-.076-.114-.076-.118-.079-.114-.079-.117-.085-.114-.085-.117-.176-.229-.094-.117-.094-.114-.096-.118-.199-.228-.103-.117-.106-.115-.108-.117-.108-.114-.115-.114-.114-.117-.114-.115-.12-.117-.12-.114-.123-.114-.126-.118-.129-.114-.129-.117-.132-.114-.135-.115-.137-.117-.138-.114-.138-.117-.287-.229-.146-.117-.147-.114-.149-.117-.153-.115-.152-.117-.155-.114-.158-.114-.159-.118-.158-.114-.164-.117-.161-.114-.164-.114-.167-.118-.167-.114-.167-.117-.34-.229-.173-.117-.173-.114-.173-.117-.172-.115-.179-.114-.176-.117-.176-.114-.178-.117-.179-.115-.179-.117-.178-.114-.182-.114-.179-.118-.181-.114-.182-.117-.182-.114-.178-.115-.182-.117-.182-.114-.181-.117-.364-.229-.181-.117-.179-.114-.182-.117-.357-.229-.179-.117-.179-.114-.175-.117-.176-.115-.179-.114-.173-.117-.172-.114-.173-.118-.173-.114-.17-.114-.17-.117-.167-.115-.167-.117-.164-.114-.164-.117-.322-.229-.159-.117-.155-.114-.155-.117-.305-.229-.149-.117-.147-.114-.143-.117-.144-.115-.14-.114-.138-.117-.135-.114-.132-.118-.132-.114-.129-.114-.125-.117-.124-.115-.12-.117-.117-.114-.117-.117-.111-.114-.109-.115-.108-.117-.103-.114-.102-.117-.1-.115-.094-.114-.093-.117-.091-.114-.085-.118-.085-.114-.082-.114-.076-.117-.076-.114-.074-.118-.07-.114-.067-.114-.065-.117-.061-.115-.056-.117-.056-.114-.052-.114-.053-.118-.047-.114-.044-.117-.082-.228-.035-.118-.035-.114-.033-.117-.029-.114-.026-.118-.027-.114-.023-.114-.018-.117-.017-.115-.018-.117-.023-.228-.012-.117-.006-.115-.006-.117-.003-.114v-.346l.006-.117.006-.114.009-.115.009-.117.011-.114.012-.117.015-.114.017-.115.018-.117.02-.114.021-.117.02-.115.027-.117.053-.228.029-.117.032-.115.032-.117.033-.114.038-.114.035-.118.038-.114.041-.117.041-.114.044-.115.047-.117.047-.114.049-.117.05-.114.053-.115.053-.117.055-.114.059-.117.059-.115.061-.114.062-.117.064-.114.067-.118.068-.114.07-.117.07-.114.074-.114.076-.118.076-.114.079-.117.082-.114.079-.115.085-.117.088-.114.085-.117.182-.229.091-.117.093-.114.097-.117.097-.115.099-.114.1-.117.102-.114.103-.118.105-.114.103-.114.108-.117.109-.115.108-.117.109-.114.111-.117.111-.114.114-.115.229-.231.114-.117.114-.115.118-.114.117-.117.234-.231.235-.229.117-.117.117-.114.12-.118.234-.228.235-.232.231-.231.117-.114.115-.117.117-.115.114-.117.112-.114.114-.114.111-.118.111-.114.112-.117.111-.114.108-.115.112-.117.105-.114.109-.117.105-.114.106-.118.105-.114.208-.231.103-.115.099-.117.103-.114.099-.114.1-.117.097-.115.099-.117.097-.114.097-.117.096-.115.094-.114.097-.117.094-.114.187-.232.094-.114.094-.117.093-.114.091-.118.188-.228.09-.117.091-.115.094-.117.091-.114.366-.463.091-.114.094-.114.09-.118.094-.114.091-.117.091-.114.094-.115.093-.117.279-.346.09-.117.188-.228.094-.117.093-.115.094-.117.091-.114.187-.232.094-.114.279-.346.093-.117.185-.231.182-.229.09-.117.182-.231.088-.115.179-.231.087-.114.088-.117.17-.229.088-.117.082-.114.085-.118.082-.114.079-.114.082-.117.079-.115.08-.117.076-.114.076-.117.146-.229.074-.117.07-.114.07-.117.071-.115.067-.114.064-.117.068-.114.061-.117.123-.229.059-.117.059-.114.055-.118.056-.114.056-.117.049-.114.053-.115.05-.117.047-.114.05-.117.087-.229.044-.117.041-.114.041-.117.077-.229.035-.117.035-.114.035-.118.065-.228.029-.117.029-.114.029-.118.053-.228.026-.117.024-.115.02-.117.024-.114.02-.114.018-.118.02-.114.018-.117.018-.114.014-.117.03-.229.014-.117.012-.114.023-.232.009-.114.009-.117.009-.115.009-.117.005-.114.009-.114.009-.232.006-.117.003-.114.009-.232.002-.114.003-.117.003-.229.003-.348v-1.037l.003-.349v-.228l.003-.232.003-.117.006-.229.006-.117.003-.114.006-.117.005-.114.006-.118.009-.114.006-.114.009-.117.009-.115.011-.117.024-.228.011-.117.015-.115.015-.117.014-.114.018-.114.017-.118.018-.114.018-.117.041-.229.023-.117.024-.114.023-.117.023-.114.053-.232.027-.114.026-.117.058-.229.03-.117.032-.114.062-.232.032-.117.067-.228.035-.118.033-.114.035-.117.07-.229.035-.117.106-.346.035-.117.108-.345.07-.229.033-.117.07-.229.032-.117.035-.117.065-.229.032-.117.032-.114.03-.114.032-.117.058-.232.027-.114.029-.117.053-.229.026-.117.024-.114.026-.117.047-.229.02-.117.041-.232.041-.228.015-.117.021-.115.017-.117.029-.228.015-.117.015-.115.014-.117.012-.114.012-.117.023-.229.012-.117.018-.229.008-.117.009-.114.009-.117.006-.114.009-.118.011-.228.012-.232.006-.117.003-.114.006-.117.006-.229.005-.117.006-.228.003-.118.006-.231.003-.114.003-.118.003-.228.003-.117.003-.114v-.118l.003-.114.008-.577.003-.114.003-.232v-.117l.003-.228.003-.118.003-.231v-.114l.003-.115v-.117l.003-.231.003-.115.003-.231v-.114l.003-.117v-.115l.003-.231.003-.114.002-.232v-.117l.003-.229.003-.117v-.114l.003-.117.003-.229v-.117l.003-.114v-.117l.006-.346v-.114l.009-.577.006-.463.003-.115.002-.117v-.114l.003-.117.003-.114.006-.346.003-.117.003-.115.006-.231v-.114l.003-.118.006-.228.003-.117.003-.114.003-.118.008-.228.003-.117.009-.346.003-.117.009-.229.003-.117.003-.114.005-.117.006-.229.003-.117.003-.114.006-.118.003-.114.003-.117.003-.114.006-.115.003-.117.005-.228.003-.117.003-.115.003-.117.003-.114.003-.117.006-.229.009-.346.006-.234.003-.114v-.114l.005-.118.006-.345.003-.115.006-.345.003-.117.006-.346.003-.117.006-.346.005-.229.003-.231.003-.117.003-.114.003-.118.006-.228v-.117l.012-.346v-.117l.003-.114.006-.115v-.117l.005-.114.003-.114.003-.118.003-.114.003-.117.003-.114.003-.118.006-.228.006-.117v-.114l.006-.115.003-.117.002-.114.006-.232.003-.117.009-.346.003-.114.003-.117.003-.228.003-.118.003-.114v-.117l.003-.114.003-.118v-.114l.002-.114.003-.463.003-.577v-.809l-.003-.345v-.115l-.003-.231v-.346l-.002-.117v-.346l-.003-.114-.003-.694v-.809l.003-.46.003-.348v-.115l.002-.114v-.117l.003-.232.006-.228v-.117l.003-.115.003-.117.006-.228.003-.117.009-.346.003-.117.005-.229.003-.117.003-.114.009-.346.006-.117.009-.346.003-.114.003-.117.003-.115.005-.114.006-.234.006-.229.003-.117.006-.228.006-.235v-.114l.006-.114v-.118l.003-.114.008-.346v-.114l.003-.117.006-.346.003-.231v-.114l.003-.118.003-.345v-.115l.003-.231.003-.349v-.345l.003-.346v-.691l.003-.232v-.346l.003-.577v-.348l.003-.346v-.231l.002-.115v-.117l.003-.228v-.118l.003-.46.003-.117.003-.114v-.231l.003-.115v-.117l.003-.114v-.117l.003-.229.003-.117v-.114l.003-.118v-.228l.003-.117v-.114l.003-.118v-.114l.003-.231.003-.115.002-.345.003-.118.006-.691v-.117l.003-.346v-.114l.003-.117v-.232l.003-.345v-.115l.003-.231h.009v115.336z" fill="#fea500"/><path d="M109.104 148.523h-.011l.038-143.979.003.173v.173l.003.17.003.345v.17l.003.516.003.343v.172l.002.17v.173l.003.689v1.547l-.003.169V9.7l-.002.17v.173l-.003.516-.003.342v.173l-.003.343-.003.173v.343l-.003.172v.17l-.003.173-.006 1.031-.003.17v.516l-.003.173v1.204l.003.686.003.515.006.516.003.173v.17l.006.345.003.17.003.173v.173l.005.343.006.173.003.169.003.173.003.17.003.173.009.343.003.173.006.173.003.169.005.173.003.173.006.17.003.173.009.343.003.173.006.169.006.173.002.173.003.17.006.173.003.173.006.17.006.345.006.17.006.346.003.17.002.173.003.17.006.345.003.17.006.346.003.17.003.346v.17l.003.172v.343l.003.173v.859l-.003.858-.003.516-.003.342v.173l-.003.173v.173l-.003.17-.003.515-.012 1.032-.002.342v.173l-.006.516-.003.343-.003.173v.169l-.003.173v.173l-.003.17v.173l-.003.516-.006.515v.343l-.003.173v.17l-.003.345v.343l-.003.343v.173l-.003 1.204-.002 1.028-.003.516v.173l-.003.858v.173l-.003 1.031-.006 1.201v.516l-.003.173v.516l-.003.169-.003.516v.173l-.003.516v.172l-.003.17-.003.346v.17l-.003.173v.17l-.003.173-.002.342-.006.516v.173l-.006.343v.172l-.003.173-.003.17v.173l-.003.17-.003.173v.173l-.003.17-.006.345-.003.343-.003.173v.17l-.002.173-.003.17v.172l-.006.343v.173l-.003.343-.003.173v.173l-.003.169v.173l-.003.173v.17l-.003.173v1.717l.003.173v.172l.006.513.003.173v.173l.006.343.003.172.005.17.006.346.006.17.009.346.003.17.006.173.006.169.011.346.006.17.006.173.009.173.006.17.008.173.006.172.006.17.018.346.009.17.005.173.018.343.006.172.009.17.017.346.006.17.018.346.006.17.008.172.006.173.009.17.006.173.006.17.008.173.012.346.012.342.003.17.012.346.002.17.003.173.006.173.003.169.003.173.003.17.006.346v.173l.003.17.003.173.003.17.003.515.003.346.002.17.003.173v.172l.003.17.003.173.006.343.003.173.006.17.006.345.006.173.006.17.005.173.006.17.006.173.009.173.006.17.017.345.012.17.009.173.012.173.011.17.024.346.014.17.015.172.012.17.017.173.015.173.018.17.014.173.018.173.017.17.021.172.017.173.018.17.02.173.042.343.02.173.018.17.023.172.041.346.021.17.02.173.021.17.041.346.02.169.021.173.017.173.021.17.038.343.017.173.021.173.017.172.018.17.015.173.017.17.015.173.017.173.015.17.029.345.015.17.012.173.014.173.012.17.012.173.012.17.011.173.024.342.023.346.009.17.012.173.008.173.012.17.009.172.012.173.011.17.009.173.012.17.009.173.023.346.021.342.011.17.024.346.014.17.012.173.015.173.012.17.029.345.015.17.014.173.018.173.014.17.018.173.018.17.017.172.021.173.017.17.041.346.021.17.023.173.021.172.023.17.024.173.049.343.027.173.026.17.026.173.03.173.029.169.059.346.029.17.064.346.03.17.035.173.032.172.032.17.071.346.032.17.038.173.035.17.035.173.038.172.035.17.036.173.038.173.038.17.038.173.038.17.035.173.038.172.041.173.038.17.038.173.041.17.041.173.039.173.041.17.041.172.043.173.042.17.046.173.044.173.044.17.047.173.05.173.047.169.053.173.052.17.053.173.056.173.058.17.059.173.061.173.062.17.135.345.07.17.073.173.076.173.077.17.082.173.082.17.175.345.094.17.094.173.1.173.099.17.211.345.111.17.229.346.117.17.12.173.126.173.126.17.129.173.129.169.27.346.137.17.281.346.144.17.293.345.146.17.15.173.152.173.15.17.155.173.152.17.311.345.155.17.155.173.159.173.158.17.155.173.158.173.158.17.159.172.316.343.158.173.158.17.475.519.158.169.156.173.158.17.158.173.155.173.158.17.311.346.155.169.311.346.155.17.155.173.153.173.152.17.152.173.153.17.152.172.149.173.153.17.146.173.15.173.146.17.293.345.144.17.287.346.14.17.141.173.138.17.137.173.135.172.135.17.135.173.129.173.132.17.128.173.126.173.126.17.126.173.123.172.121.17.24.346.117.17.117.173.114.17.115.173.111.172.111.17.112.173.108.173.108.17.109.173.105.173.103.17.205.345.1.17.099.173.097.17.094.173.096.173.091.17.176.345.085.17.082.173.079.173.076.17.073.173.068.173.064.169.062.173.055.17.053.173.047.173.038.17.038.173.029.173.024.169.017.173.012.173.003.17-.003.173-.012.173-.017.17-.024.173-.035.172-.041.17-.05.173-.058.17-.067.173-.074.173-.085.17-.091.173-.099.172-.111.17-.118.173-.129.173-.134.17-.144.173-.155.173-.161.17-.17.172-.179.17-.184.173-.197.173-.202.17-.208.173-.217.173-.225.17-.232.172-.24.173-.243.17-.252.173-.258.173-.267.17-.266.173-.276.173-.278.17-.284.172-.29.17-.293.173-.296.173-.299.17-.302.173-.304.173-.308.17-.621.345-.313.17-.311.173-.313.173-.314.17-.31.173-.314.17-.31.172-.308.173-.308.17-.304.173-.302.173-.299.17-.296.173-.293.173-.287.169-.284.173-.278.173-.276.17-.269.173-.267.173-.258.17-.252.173-.249.169-.24.173-.234.173-.229.17-.225.173-.217.173-.208.17-.205.173-.197.172-.19.17-.185.173-.178.173-.17.17-.164.173-.161.17-.15.173-.146.172-.141.17-.135.173-.129.173-.123.17-.117.173-.111.173-.109.17-.099.172-.097.173-.094.17-.088.173-.082.173-.079.17-.073.173-.073.17-.068.172-.064.173-.059.17-.058.173-.053.173-.05.17-.093.346-.041.17-.041.172-.039.173-.035.17-.035.173-.032.17-.029.173-.027.173-.029.17-.047.345-.02.17-.041.346-.018.17-.015.173-.017.172-.015.17-.026.343-.024.346-.011.17-.021.346-.029.685-.009.173-.006.173-.006.17-.009.345-.008.343-.006.17-.009.516-.006.345-.003.17-.003.346-.006.686-.003.172z" fill="#fed9b9"/><path d="M161.558 145.91h-.036l-.008-.278-.006-.278-.012-.279-.003-.14-.012-.279-.005-.137-.009-.141-.006-.138-.015-.278-.02-.278-.009-.138-.009-.141-.012-.137-.011-.141-.015-.138-.012-.14-.014-.138-.03-.278-.017-.141-.018-.138-.017-.14-.021-.138-.017-.141-.024-.137-.023-.141-.024-.138-.023-.14-.026-.138-.03-.141-.029-.137-.029-.141-.033-.138-.032-.14-.035-.138-.035-.141-.038-.137-.041-.138-.041-.141-.041-.137-.044-.141-.047-.138-.05-.14-.05-.138-.052-.141-.053-.137-.056-.141-.058-.138-.062-.14-.061-.138-.065-.141-.067-.137-.068-.141-.073-.138-.073-.14-.076-.138-.079-.14-.08-.138-.082-.141-.085-.137-.087-.141-.091-.138-.094-.14-.094-.138-.099-.138-.1-.14-.103-.138-.105-.141-.108-.137-.109-.141-.111-.138-.117-.14-.117-.138-.118-.141-.123-.137-.126-.141-.126-.138-.129-.14-.131-.138-.135-.141-.135-.137-.138-.141-.143-.138-.141-.14-.146-.138-.147-.141-.149-.137-.15-.141-.152-.138-.155-.14-.317-.276-.161-.14-.161-.138-.164-.141-.164-.137-.167-.141-.17-.138-.167-.14-.173-.138-.173-.141-.172-.137-.176-.141-.176-.138-.176-.14-.179-.138-.178-.141-.182-.137-.179-.141-.181-.138-.366-.278-.182-.141-.369-.278-.185-.138-.926-.694-.184-.14-.369-.279-.554-.416-.369-.278-.363-.278-.182-.141-.182-.138-.181-.14-.358-.279-.178-.137-.179-.141-.176-.138-.176-.14-.173-.138-.172-.141-.173-.137-.173-.141-.34-.275-.167-.141-.167-.138-.164-.14-.164-.138-.161-.141-.161-.137-.162-.141-.155-.138-.155-.14-.155-.138-.153-.141-.149-.137-.15-.141-.146-.138-.144-.14-.143-.138-.138-.141-.138-.137-.134-.141-.132-.138-.129-.14-.126-.138-.123-.141-.12-.137-.117-.138-.115-.141-.111-.137-.105-.141-.103-.138-.1-.14-.093-.138-.091-.141-.088-.137-.082-.141-.079-.138-.073-.14-.071-.138-.061-.14-.062-.138-.052-.141-.05-.138-.047-.14-.038-.138-.035-.14-.03-.138-.023-.141-.018-.137-.014-.141-.009-.138-.003-.14.003-.138.009-.138.011-.14.018-.138.023-.141.03-.137.032-.141.038-.138.044-.14.047-.138.053-.141.055-.137.059-.141.067-.138.068-.14.073-.138.076-.141.079-.137.082-.141.088-.138.091-.14.091-.138.096-.141.097-.137.1-.141.102-.138.106-.14.105-.138.108-.138.109-.14.111-.138.114-.141.112-.137.117-.141.114-.138.117-.14.118-.138.117-.141.12-.137.117-.141.358-.416.12-.141.24-.278.117-.138.12-.14.358-.416.12-.141.12-.138.117-.137.117-.141.12-.14.235-.276.117-.14.231-.279.118-.137.117-.141.228-.278.117-.138.115-.141.114-.137.114-.141.226-.278.114-.138.114-.141.112-.137.114-.141.334-.416.111-.141.223-.275.108-.141.112-.137.111-.141.108-.141.22-.275.108-.141.109-.137.214-.279.108-.14.106-.138.108-.141.105-.137.106-.141.211-.278.105-.138.208-.278.103-.141.105-.138.103-.14.102-.138.1-.141.103-.137.099-.138.1-.141.099-.137.2-.281.193-.276.097-.14.096-.138.094-.141.097-.138.093-.14.091-.138.094-.14.091-.138.091-.141.091-.137.087-.141.088-.138.085-.14.088-.138.085-.141.085-.137.082-.141.082-.138.082-.14.079-.138.082-.138.076-.14.08-.138.152-.281.073-.138.076-.138.074-.14.073-.138.07-.141.07-.137.071-.141.07-.138.067-.14.068-.138.07-.141.065-.137.067-.141.129-.278.064-.138.065-.141.064-.137.062-.141.064-.138.062-.14.061-.138.062-.141.123-.275.061-.141.062-.137.12-.279.059-.14.058-.138.12-.278.056-.141.059-.138.058-.14.059-.138.058-.14.115-.279.055-.138.115-.278.055-.14.112-.276.052-.14.056-.141.053-.138.055-.137.053-.141.103-.278.052-.138.05-.141.053-.137.05-.141.047-.138.096-.278.05-.141.044-.137.047-.141.047-.138.088-.278.044-.141.085-.278.041-.138.041-.14.076-.276.076-.281.038-.138.035-.14.035-.138.033-.138.035-.14.032-.138.032-.141.029-.137.033-.141.058-.278.03-.138.026-.141.053-.278.026-.138.023-.14.024-.138.023-.141.024-.137.023-.141.021-.138.02-.14.041-.276.021-.14.038-.279.017-.14.038-.276.018-.14.018-.138.032-.278.017-.141.018-.137.015-.141.017-.138.05-.419.015-.137.032-.279.018-.14.017-.138.015-.141.017-.137.018-.141.017-.138.015-.137.018-.141.02-.138.035-.281.036-.275.02-.141.018-.138.038-.278.02-.141.038-.278.021-.138.041-.278.02-.141.021-.137.02-.141.021-.138.023-.14.041-.279.021-.137.02-.141.021-.138.023-.14.018-.138.023-.141.021-.137.061-.416.021-.141.041-.278.02-.138.021-.141.02-.137.018-.141.02-.138.039-.278.017-.14.038-.279.018-.137.053-.419.017-.138.015-.141.017-.137.015-.141.032-.278.018-.138.014-.141.015-.137.012-.138.029-.281.012-.138.014-.138.015-.14.012-.138.012-.141.011-.137.024-.279.011-.14.012-.138.012-.141.012-.137.008-.141.021-.275.009-.141.011-.141.009-.137.009-.141.018-.275.008-.141.027-.416.008-.141.015-.278.006-.141.015-.275.008-.141.021-.416.006-.14.006-.138.008-.141.006-.137.006-.141.006-.138.006-.14.006-.138.011-.278.003-.141.012-.275.006-.141.015-.416.005-.14.003-.138.006-.141.006-.137.009-.279.003-.14.014-.416.006-.141.003-.138.003-.14.006-.138.006-.278.006-.141.009-.278.005-.276.003-.14.006-.138.003-.141.006-.278.003-.138.009-.278.003-.141.003-.137.003-.141v-.138l.002-.14.003-.138.003-.141.003-.137.006-.419.003-.138.003-.141.003-.278v-.138l.003-.14v-.138l.003-.141v-.278l.003-.138v-.278l.003-.278v-.138l.003-.697v-.138l.002-.697.003-.278v-.416l.003-.141v-.138l.003-.416v-.14l.003-.141v-.138l.006-.416.003-.278.006-.278v-.141l.006-.278.003-.138.003-.141.002-.137.003-.141.003-.138.003-.14.003-.138.003-.141.006-.275.003-.141.006-.14.003-.138.003-.141.005-.275.003-.141.006-.14.006-.276.006-.14.003-.138.003-.141.003-.137.003-.141.006-.138.003-.14.002-.138.009-.278.003-.141.009-.416.003-.14.006-.276.003-.14.006-.279.002-.14.006-.416.003-.138.003-.278.006-.419.003-.279v-.137l.003-.141v-.694l-.003-.557-.009-.835-.003-.138-.003-.14-.003-.279-.003-.137-.002-.141-.003-.138-.003-.14-.003-.138-.009-.278-.003-.141-.006-.278-.006-.138-.003-.141-.008-.278-.003-.138-.009-.278-.003-.14-.012-.417-.003-.14-.006-.138-.003-.138-.002-.14-.003-.138-.003-.14-.003-.138-.003-.141-.003-.137-.003-.141-.003-.138-.003-.14v-.138l-.006-.557-.003-.14v-.695l.003-.278v-.278l.006-.416.003-.141.003-.278.003-.138.003-.141.003-.137.003-.141.003-.138.003-.14.002-.138.003-.141.009-.278.003-.138.003-.14.006-.276.006-.281.003-.138.003-.14.006-.276.002-.14.006-.279.003-.137v-.141l.003-.138.003-.14v-.141l.006-.275.003-.557.003-.14v-1.251l-.003-.695v-.278l-.003-.278v-.141l-.006-.416v-.419l-.006-.557v-.137l-.003-.141v-.278l-.003-.832v-.279l-.003-.14v-.835l.003-.138v-.419l.003-.835v-.138l.003-.278v-.278l.003-.141v-.416l.003-.137v-.141l.003-.278v-.279l.003-.278v-.416l.003-.141.003-.694v-.278l.003-.835v-.141l.003-.557v-.137l.003-.695.003-.419v-.416l.002-.14v-.279l.003-.137.003-.416.003-.419.003-.279v-.137l.003-.281v-.138l.003-.138.003-.278.003-.141.003-.416.003-.14.003-.416.003-.141.003-.416.002-.141.003-.275v-.141l.003-.137v-.141l.003-.141.003-.416.003-.137v-.279l.003-.278v-.141l.003-.278v-.138l.003-.14v-.279l.003-.416h.009V145.91z" fill="green"/><path d="M161.604 153.973h-.046l.026-147.349-.006 1.705v.568l-.003.572-.003 1.136-.003.569v.568l-.003.569v.571l-.003 1.137v.568l-.002.568V18l-.003.571v3.413l.003.569v2.844l.005 1.706v.571l.003 1.137.003.568v.568l.003.572.012 2.273.006.568.003.572.003.568.005.568.003.569.006.568.003.571.006.569.009 1.136.012 1.137.003.571.011 1.137.003.569.006.568.003.571.006.569.006 1.136.006.569.002.571.006 1.137.003 1.136.006 1.708v.569l.003.568v.571l.006 1.705v.572l.015 2.842.005.571.003.568.018 1.705.006.572.006.568.026 1.705.012.568.011.572.012.568.029 1.137.018.568.018.571.041 1.137.052 1.137.03.571.029.568.07 1.137.038.569.041.568.041.571.044.569.047.568.1 1.137.053.571.105 1.137.056.568.058.568.056.569.059.571.055.568.176 1.705.059.572.234 2.273.061.571.059.569.062.568.064.569.064.571.068.568.07.569.076.568.079.568.082.572.088.568.097.568.1.569.111.568.117.568.126.572.135.568.146.568.156.569.167.568.178.571.188.569.199.568.214.568.223.569.234.568.246.571.258.569.269.568.282.569.29.568.301.571.311.569.319.568.331.568.337.569.349.571.357.568.367.569.372.568.381.568.389.572.399.568.404.568.41.569.416.568.422.571.855 1.137.431.568.434.569.427.568.428.571.416.569.41.568.399.568.381.569.36.571.34.569.313.568.282.568.249.569.213.571.17.568.129.569.079.568.03.568-.018.572-.073.568-.126.568-.179.569-.234.568-.287.568-.337.572-.387.568-.434.568-.477.569-.519.568-.553.571-.586.569-.613.568-.635.568-.651.569-.665.571-2.012 1.705-.663.569-.653.571-.636.568-.618.569-.595.568-.571.568-.545.569-.515.571-.487.568-.454.569-.425.568-.392.568-.361.572-.334.568-.301.568-.273.569-.246.568-.222.571-.197.569-.176.568-.152.568-.135.569-.117.571-.102.568-.091.569-.073.568-.065.569-.056.571-.046.568-.039.569-.032.568-.026.568-.024.569-.017.571-.015.568-.012.569z" fill="#8fed8f"/></g><g stroke-width=".48"><path d="M44.309 11.725l-3.422 3.419-3.422-3.419 3.422-3.422 3.422 3.422z" fill="#0000fe" stroke="#0000fe"/><path d="M44.309 21.316l-3.422 3.422-3.422-3.422 3.422-3.419 3.422 3.419z" fill="#acd8e6" stroke="#acd8e6"/><path d="M52.702 11.725l-3.419 3.419-3.422-3.419 3.422-3.422 3.419 3.422z" fill="#fea500" stroke="#fea500"/><path d="M52.702 21.316l-3.419 3.422-3.422-3.422 3.422-3.419 3.419 3.419z" fill="#fed9b9" stroke="#fed9b9"/><path d="M61.099 11.725l-3.422 3.419-3.422-3.419 3.422-3.422 3.422 3.422z" fill="green" stroke="green"/><path d="M61.099 21.316l-3.422 3.422-3.422-3.422 3.422-3.419 3.422 3.419z" fill="#8fed8f" stroke="#8fed8f"/></g><path d="M56.628 140.549v1.69" class="C D E"/><path d="M38.08 144.234h1.421l1.802 4.799 1.807-4.799h1.424v7.055h-.929v-6.193l-1.819 4.837h-.958l-1.819-4.837v6.193h-.929v-7.055zm11.329 3.252c.454.097.815.299 1.067.61s.386.697.386 1.142c0 .695-.243 1.237-.717 1.615-.484.377-1.161.562-2.042.562a4.89 4.89 0 0 1-.917-.088c-.311-.05-.639-.135-.97-.252v-.92c.263.156.554.273.87.349.31.079.642.117.987.117.601 0 1.055-.117 1.365-.349s.475-.58.475-1.034c0-.407-.143-.735-.436-.969s-.695-.358-1.219-.358h-.821v-.782h.862c.463 0 .82-.088 1.072-.281.252-.185.378-.454.378-.812s-.135-.639-.387-.835c-.26-.193-.63-.29-1.104-.29a4.36 4.36 0 0 0-.841.088 8.87 8.87 0 0 0-.987.261v-.85a8.64 8.64 0 0 1 1.016-.222c.308-.05.61-.08.9-.08.715 0 1.286.164 1.714.496s.638.773.638 1.333a1.5 1.5 0 0 1-.34.987c-.222.272-.542.466-.949.562zm7.984 2.795v-1.895h-1.559v-.785h2.508v3.029a3.78 3.78 0 0 1-1.219.592c-.445.126-.92.193-1.424.193-1.101 0-1.974-.319-2.593-.958s-.928-1.538-.928-2.689c0-1.143.31-2.042.928-2.69.619-.639 1.492-.97 2.593-.97.454 0 .891.059 1.307.176s.803.281 1.151.492v1.017a4.25 4.25 0 0 0-1.131-.668c-.398-.155-.814-.231-1.248-.231-.873 0-1.52.24-1.945.723-.437.487-.65 1.201-.65 2.151 0 .958.213 1.672.65 2.156.425.483 1.072.715 1.945.715.328 0 .627-.027.9-.085a2.39 2.39 0 0 0 .715-.273zm2.689-6.047h1.289l3.123 5.904v-5.904h.929v7.055h-1.286l-3.126-5.903v5.903h-.929v-7.055zm11.728 4.19v.425h-3.997c.039.6.214 1.066.542 1.374.32.31.765.465 1.345.465a3.97 3.97 0 0 0 .97-.117c.308-.076.627-.202.937-.375v.821c-.31.134-.629.243-.958.301a6 6 0 0 1-.996.097c-.852 0-1.52-.243-2.012-.727s-.736-1.151-.736-1.992c0-.861.232-1.55.698-2.062.462-.501 1.101-.765 1.895-.765.715 0 1.277.235 1.693.689.408.463.619 1.084.619 1.866zm-.871-.252c-.008-.472-.143-.85-.395-1.14a1.36 1.36 0 0 0-1.037-.428c-.484 0-.87.147-1.16.417s-.466.659-.504 1.151h3.096zm3.156-3.677v1.5h1.79v.677h-1.79v2.874c0 .436.058.718.173.832.117.126.357.185.726.185h.891v.726h-.891c-.677 0-1.142-.126-1.394-.378s-.378-.706-.378-1.365v-2.874h-.639v-.677h.639v-1.5h.873z" class="B"/><path d="M109.093 140.549v1.69" class="C D E"/><path d="M96.059 144.776v1.008c-.329-.29-.668-.513-1.038-.668a3.06 3.06 0 0 0-1.151-.222c-.811 0-1.43.252-1.857.744s-.639 1.201-.639 2.13.214 1.643.639 2.135 1.046.736 1.857.736c.407 0 .785-.068 1.151-.223.37-.144.709-.366 1.038-.665v.996a3.68 3.68 0 0 1-1.064.501c-.369.108-.765.167-1.181.167-1.066 0-1.907-.319-2.525-.97s-.92-1.538-.92-2.677.299-2.025.92-2.681c.618-.648 1.459-.979 2.525-.979.425 0 .821.059 1.19.164a4.17 4.17 0 0 1 1.055.504zm1.47-.542h.958v2.895h3.463v-2.895h.958v7.055h-.958v-3.357h-3.463v3.357h-.958v-7.055zm12.085 6.047v-1.895h-1.558v-.785h2.507v3.029c-.369.272-.773.466-1.218.592a5.21 5.21 0 0 1-1.424.193c-1.102 0-1.975-.319-2.593-.958s-.929-1.538-.929-2.689c0-1.143.311-2.042.929-2.69.618-.639 1.491-.97 2.593-.97.454 0 .891.059 1.307.176a4.54 4.54 0 0 1 1.151.492v1.017c-.358-.29-.735-.513-1.131-.668a3.41 3.41 0 0 0-1.251-.231c-.87 0-1.518.24-1.942.723-.437.487-.651 1.201-.651 2.151 0 .958.214 1.672.651 2.156.424.483 1.072.715 1.942.715.331 0 .63-.027.902-.085a2.38 2.38 0 0 0 .715-.273zm2.69-6.047h1.286l3.126 5.904v-5.904h.929v7.055h-1.287l-3.126-5.903v5.903h-.928v-7.055zm11.727 4.19v.425h-3.996c.041.6.214 1.066.542 1.374.319.31.765.465 1.345.465a3.95 3.95 0 0 0 .97-.117 3.83 3.83 0 0 0 .937-.375v.821a4.33 4.33 0 0 1-.958.301 6 6 0 0 1-.996.097c-.853 0-1.521-.243-2.013-.727s-.735-1.151-.735-1.992c0-.861.231-1.55.694-2.062.466-.501 1.105-.765 1.899-.765.715 0 1.277.235 1.693.689.407.463.618 1.084.618 1.866zm-.87-.252c-.009-.472-.146-.85-.395-1.14-.264-.281-.613-.428-1.037-.428-.484 0-.871.147-1.161.417s-.465.659-.504 1.151h3.097zm3.155-3.677v1.5h1.79v.677h-1.79v2.874c0 .436.056.718.173.832.117.126.358.185.727.185h.89v.726h-.89c-.677 0-1.143-.126-1.395-.378s-.375-.706-.375-1.365v-2.874h-.641v-.677h.641v-1.5h.87z" class="B"/><path d="M161.558 140.549v1.69" class="C D E"/><path d="M148.676 144.234h1.424l1.798 4.799 1.808-4.799h1.424v7.055h-.929v-6.193l-1.819 4.837h-.958l-1.82-4.837v6.193h-.928v-7.055zm10.711.941l-1.295 3.51h2.593l-1.298-3.51zm-.542-.941h1.084l2.689 7.055h-.996l-.639-1.81h-3.184l-.639 1.81h-1.005l2.69-7.055zm9.917.542v1.008c-.328-.29-.668-.513-1.034-.668a3.09 3.09 0 0 0-1.152-.222c-.814 0-1.432.252-1.86.744s-.639 1.201-.639 2.13.214 1.643.639 2.135 1.046.736 1.86.736c.404 0 .782-.068 1.152-.223.366-.144.706-.366 1.034-.665v.996a3.68 3.68 0 0 1-1.064.501 4.19 4.19 0 0 1-1.18.167c-1.067 0-1.908-.319-2.526-.97s-.92-1.538-.92-2.677.299-2.025.92-2.681c.618-.648 1.459-.979 2.526-.979.424 0 .82.059 1.189.164.366.118.727.282 1.055.504zm1.47-.542h4.462v.803h-3.504v2.092h3.358v.803h-3.358v2.554h3.589v.803h-4.547v-7.055z" class="B"/><path d="M31.907 140.549h-1.693" class="C D E"/><path d="M16.213 137.801c-.492 0-.861.24-1.11.726s-.37 1.207-.37 2.177.118 1.693.37 2.177.618.723 1.11.723.861-.24 1.113-.723c.243-.484.369-1.21.369-2.177s-.126-1.693-.369-2.177c-.252-.486-.618-.726-1.113-.726zm0-.756c.785 0 1.386.319 1.81.94.416.627.63 1.538.63 2.719 0 1.19-.214 2.098-.63 2.719-.424.618-1.025.929-1.819.929s-1.392-.311-1.81-.929-.619-1.529-.619-2.719c0-1.181.203-2.092.619-2.719.418-.621 1.025-.94 1.819-.94z" class="B"/><path d="M20.326 143.024h.996v1.201h-.996z"/><path d="M25.444 137.801c-.492 0-.861.24-1.113.726s-.366 1.207-.366 2.177.117 1.693.366 2.177.621.723 1.113.723.862-.24 1.114-.723c.243-.484.369-1.21.369-2.177s-.126-1.693-.369-2.177c-.252-.486-.619-.726-1.114-.726zm0-.756c.785 0 1.386.319 1.811.94.416.627.627 1.538.627 2.719 0 1.19-.211 2.098-.627 2.719-.425.618-1.026.929-1.819.929s-1.395-.311-1.811-.929-.618-1.529-.618-2.719c0-1.181.202-2.092.618-2.719.416-.621 1.025-.94 1.819-.94z" class="B"/><path d="M31.907 113.139h-1.693" class="C D E"/><path d="M16.213 110.391c-.492 0-.861.243-1.11.726s-.37 1.21-.37 2.177.118 1.693.37 2.177.618.726 1.11.726.861-.243 1.113-.726c.243-.484.369-1.21.369-2.177s-.126-1.693-.369-2.177c-.252-.483-.618-.726-1.113-.726zm0-.753c.785 0 1.386.319 1.81.937.416.63.63 1.538.63 2.719 0 1.189-.214 2.101-.63 2.719-.424.618-1.025.928-1.819.928s-1.392-.31-1.81-.928-.619-1.53-.619-2.719c0-1.181.203-2.089.619-2.719.418-.618 1.025-.937 1.819-.937z" class="B"/><path d="M20.326 115.614h.996v1.201h-.996z"/><path d="M24.226 116.013h3.328v.802h-4.48v-.802l1.48-1.509 1.18-1.219c.311-.34.525-.63.639-.873.117-.231.185-.472.185-.706a1.17 1.17 0 0 0-.396-.908c-.264-.232-.6-.358-1.025-.358-.302 0-.621.059-.949.156-.332.105-.689.26-1.064.471v-.966a7.7 7.7 0 0 1 1.072-.349c.328-.076.639-.114.92-.114.727 0 1.307.181 1.74.55s.66.85.66 1.462c0 .29-.059.569-.164.821-.106.26-.302.571-.592.92-.076.096-.328.357-.753.794l-1.781 1.828z" class="B"/><path d="M31.907 85.729h-1.693" class="C D E"/><path d="M16.213 82.98c-.492 0-.861.244-1.11.727s-.37 1.21-.37 2.177.118 1.693.37 2.177.618.726 1.11.726.861-.243 1.113-.726c.243-.484.369-1.21.369-2.177s-.126-1.694-.369-2.177c-.252-.483-.618-.727-1.113-.727zm0-.752c.785 0 1.386.319 1.81.937.416.63.63 1.538.63 2.719 0 1.189-.214 2.1-.63 2.719-.424.621-1.025.928-1.819.928s-1.392-.307-1.81-.928-.619-1.53-.619-2.719c0-1.181.203-2.089.619-2.719.418-.618 1.025-.937 1.819-.937z" class="B"/><path d="M20.326 88.207h.996v1.198h-.996z"/><path d="M26.024 83.186l-2.408 3.761h2.408v-3.761zm-.249-.832h1.199v4.593h1.005v.794h-1.005v1.664h-.95v-1.664h-3.181v-.917l2.932-4.47z" class="B"/><path d="M31.907 58.318h-1.693" class="C D E"/><path d="M16.213 55.573c-.492 0-.861.24-1.11.724s-.37 1.21-.37 2.18.118 1.69.37 2.173.618.727 1.11.727.861-.24 1.113-.727c.243-.483.369-1.207.369-2.173s-.126-1.694-.369-2.18c-.252-.484-.618-.724-1.113-.724zm0-.756c.785 0 1.386.32 1.81.941.416.627.63 1.538.63 2.719 0 1.189-.214 2.097-.63 2.718-.424.618-1.025.929-1.819.929s-1.392-.311-1.81-.929-.619-1.529-.619-2.718c0-1.181.203-2.092.619-2.719.418-.621 1.025-.941 1.819-.941z" class="B"/><path d="M20.326 60.797h.996v1.201h-.996z"/><path d="M25.562 58.087c-.425 0-.765.155-1.017.445s-.378.697-.378 1.201c0 .513.126.917.378 1.21s.592.434 1.017.434.764-.144 1.016-.434.375-.697.375-1.21c0-.504-.123-.911-.375-1.201s-.592-.445-1.016-.445zm1.895-2.988v.87a3.69 3.69 0 0 0-.727-.261c-.249-.059-.492-.088-.723-.088-.639 0-1.122.214-1.453.639s-.522 1.075-.56 1.928a1.86 1.86 0 0 1 .697-.63c.279-.147.589-.223.929-.223.706 0 1.266.223 1.673.647s.618 1.017.618 1.752c0 .724-.223 1.307-.647 1.741s-.996.65-1.702.65c-.815 0-1.442-.311-1.87-.929s-.647-1.529-.647-2.718c0-1.114.261-2.004.794-2.664.521-.656 1.239-.996 2.127-.996.234 0 .474.03.726.068a5.5 5.5 0 0 1 .765.214z" class="B"/><path d="M31.907 30.911h-1.693" class="C D E"/><path d="M16.213 28.163c-.492 0-.861.243-1.11.727s-.37 1.21-.37 2.176.118 1.694.37 2.177.618.727 1.11.727.861-.243 1.113-.727c.243-.483.369-1.21.369-2.177s-.126-1.693-.369-2.176c-.252-.484-.618-.727-1.113-.727zm0-.753c.785 0 1.386.317 1.81.938.416.63.63 1.538.63 2.718 0 1.19-.214 2.101-.63 2.719-.424.618-1.025.929-1.819.929s-1.392-.311-1.81-.929-.619-1.529-.619-2.719c0-1.18.203-2.088.619-2.718.418-.621 1.025-.938 1.819-.938z" class="B"/><path d="M20.326 33.387h.996v1.201h-.996z"/><path d="M25.444 31.239c-.454 0-.811.126-1.072.369s-.39.569-.39.996.129.765.39 1.005.618.361 1.072.361c.446 0 .803-.117 1.067-.369.26-.241.395-.572.395-.997s-.135-.755-.386-.996c-.261-.243-.622-.369-1.076-.369zm-.958-.407c-.404-.097-.726-.29-.958-.568s-.337-.621-.337-1.026c0-.562.194-1.008.598-1.336.398-.328.949-.492 1.655-.492.698 0 1.248.164 1.656.492.395.328.6.774.6 1.336 0 .405-.117.744-.348 1.026s-.542.471-.95.568c.454.108.815.319 1.076.63.251.31.386.697.386 1.142 0 .686-.214 1.21-.63 1.568-.424.366-1.025.542-1.798.542s-1.374-.176-1.79-.542c-.417-.358-.619-.882-.619-1.568 0-.445.126-.832.387-1.142.249-.311.609-.522 1.072-.63zm-.348-1.509c0 .369.108.659.34.862s.55.301.966.301c.408 0 .727-.096.958-.301s.349-.493.349-.862-.114-.647-.349-.849-.55-.311-.958-.311c-.416 0-.735.106-.966.311s-.34.483-.34.849z" class="B"/><path d="M31.907 3.501h-1.693" class="C D E"/><path d="M14.338 6.375h1.556V.996l-1.694.34V.463l1.685-.337h.958v6.249h1.558v.803h-4.063v-.803z" class="B"/><path d="M20.326 5.979h.996v1.198h-.996z"/><path d="M25.444.753c-.492 0-.861.243-1.113.726s-.366 1.21-.366 2.177.117 1.694.366 2.177.621.727 1.113.727.862-.244 1.114-.727c.243-.483.369-1.21.369-2.177s-.126-1.693-.369-2.177c-.252-.483-.619-.726-1.114-.726zm0-.753a2.07 2.07 0 0 1 1.811.937c.416.63.627 1.539.627 2.719 0 1.19-.211 2.101-.627 2.719-.425.618-1.026.929-1.819.929s-1.395-.311-1.811-.929-.618-1.529-.618-2.719c0-1.18.202-2.089.618-2.719C24.041.319 24.65 0 25.444 0zM1.925 126.223v-1.421l4.799-1.799-4.799-1.811v-1.421h7.054v.929H2.786l4.84 1.817v.958l-4.84 1.819h6.193v.929H1.925zm0-8.347v-.958h6.252v-3.434h.802v4.392H1.925z" class="B"/><path d="M1.925 111.527H8.98v.958H1.925z"/><path d="M2.71 108.674h2.651v-1.198c0-.446-.108-.786-.34-1.026s-.559-.369-.987-.369-.744.126-.975.369-.349.58-.349 1.026v1.198zm-.785.958v-2.156c0-.786.184-1.383.542-1.79s.882-.61 1.567-.61c.697 0 1.231.202 1.579.61.358.407.531 1.004.531 1.79v1.198h2.835v.958H1.925zm-.299-11.549h.727v.829c0 .311.067.533.193.651.123.125.346.181.677.181h.463v-1.43h.679v1.43h4.614v.873H4.365v.832h-.679v-.832h-.367c-.58 0-1.016-.135-1.286-.407s-.407-.706-.407-1.307v-.82zm2.669-2.777a1.29 1.29 0 0 0 .554 1.101c.366.27.861.407 1.488.407.639 0 1.134-.126 1.5-.398s.542-.639.542-1.11c0-.466-.173-.832-.542-1.105s-.861-.407-1.5-.407c-.618 0-1.122.138-1.488.407s-.554.639-.554 1.105zm-.735 0c0-.756.252-1.348.735-1.782.495-.424 1.172-.647 2.042-.647s1.55.223 2.033.647c.492.434.735 1.026.735 1.782 0 .764-.243 1.362-.735 1.79-.483.425-1.163.635-2.033.635s-1.547-.21-2.042-.635c-.483-.428-.735-1.026-.735-1.79zm.94-6.938a1.15 1.15 0 0 0-.126.32c-.02.117-.038.243-.038.377 0 .493.164.871.483 1.131.32.273.774.399 1.374.399h2.786v.87H3.686v-.87h.823c-.32-.176-.563-.416-.715-.706s-.234-.648-.234-1.076c0-.055.011-.125.011-.202l.038-.243H4.5zm-.609-4.722h.811a3.46 3.46 0 0 0-.299.747c-.067.249-.108.492-.108.744 0 .559.184 1.005.542 1.315s.861.463 1.5.463c.647 0 1.151-.152 1.512-.463s.53-.756.53-1.315a2.78 2.78 0 0 0-.097-.744c-.067-.252-.173-.496-.31-.747h.805c.115.251.202.503.249.755a4.44 4.44 0 0 1 .079.832c0 .794-.243 1.433-.744 1.896-.495.475-1.172.706-2.024.706-.861 0-1.538-.231-2.03-.706s-.747-1.122-.747-1.954a3.45 3.45 0 0 1 .087-.782 4.1 4.1 0 0 1 .244-.747zm2.223-6.036h.428v3.996c.598-.038 1.063-.213 1.374-.542.308-.319.463-.764.463-1.344a3.94 3.94 0 0 0-.117-.967c-.076-.311-.202-.63-.375-.938h.82a4.12 4.12 0 0 1 .302.956c.058.331.096.667.096.999 0 .849-.243 1.517-.726 2.012s-1.151.736-1.992.736c-.862 0-1.55-.235-2.063-.698-.504-.466-.764-1.104-.764-1.895 0-.718.234-1.278.688-1.694.463-.407 1.084-.621 1.866-.621zm-.252.87c-.471.012-.849.147-1.139.399a1.35 1.35 0 0 0-.428 1.034c0 .483.146.873.416 1.163s.659.463 1.151.501V78.48zm.252-9.896h.428v3.996c.598-.038 1.063-.214 1.374-.542.308-.319.463-.765.463-1.345 0-.331-.038-.659-.117-.969s-.202-.627-.375-.938h.82c.138.311.243.63.302.958a5.79 5.79 0 0 1 .096.996c0 .853-.243 1.521-.726 2.013s-1.151.735-1.992.735c-.862 0-1.55-.231-2.063-.697-.504-.463-.764-1.102-.764-1.895 0-.715.234-1.278.688-1.694.463-.407 1.084-.618 1.866-.618zm-.252.87c-.471.009-.849.147-1.139.396-.282.26-.428.609-.428 1.037 0 .483.146.87.416 1.16s.659.466 1.151.504v-3.097zM4.5 64.093c-.059.096-.097.202-.126.319-.02.114-.038.24-.038.375 0 .495.164.873.483 1.134.32.269.774.395 1.374.395h2.786v.873H3.686v-.873h.823c-.32-.172-.563-.416-.715-.706s-.234-.647-.234-1.072c0-.059.011-.126.011-.205l.038-.24H4.5zm0-3.979c-.059.097-.097.202-.126.32-.02.117-.038.24-.038.378 0 .492.164.87.483 1.13.32.27.774.396 1.374.396h2.786v.873H3.686v-.873h.823c-.32-.173-.563-.416-.715-.706s-.234-.648-.234-1.072c0-.059.011-.126.011-.206l.038-.24H4.5zm-.205-2.962a1.3 1.3 0 0 0 .554 1.105c.366.269.861.404 1.488.404.639 0 1.134-.126 1.5-.395s.542-.639.542-1.114c0-.465-.173-.832-.542-1.104s-.861-.404-1.5-.404c-.618 0-1.122.134-1.488.404s-.554.639-.554 1.104zm-.735 0c0-.756.252-1.344.735-1.781.495-.425 1.172-.647 2.042-.647s1.55.222 2.033.647c.492.437.735 1.025.735 1.781 0 .765-.243 1.366-.735 1.79-.483.425-1.163.639-2.033.639s-1.547-.214-2.042-.639c-.483-.424-.735-1.025-.735-1.79zm.94-6.934c-.059.096-.097.202-.126.319-.02.114-.038.24-.038.378 0 .492.164.87.483 1.131.32.269.774.395 1.374.395h2.786v.873H3.686v-.873h.823c-.32-.172-.563-.416-.715-.706s-.234-.647-.234-1.072c0-.059.011-.126.011-.205l.038-.24H4.5zm-2.865-6.076c.735.424 1.45.735 2.159.937a7.35 7.35 0 0 0 2.147.311c.736 0 1.451-.097 2.157-.311.717-.202 1.423-.513 2.15-.937v.753c-.747.474-1.462.832-2.18 1.066a6.8 6.8 0 0 1-2.127.346c-.697 0-1.403-.115-2.121-.346a9.24 9.24 0 0 1-2.185-1.066v-.753zm4.479-6.214h.428v3.996c.598-.038 1.063-.214 1.374-.542.308-.319.463-.765.463-1.345 0-.328-.038-.656-.117-.967a3.74 3.74 0 0 0-.375-.937h.82a4.11 4.11 0 0 1 .302.955c.058.331.096.668.096.999 0 .85-.243 1.517-.726 2.013s-1.151.735-1.992.735c-.862 0-1.55-.234-2.063-.697-.504-.466-.764-1.105-.764-1.899 0-.715.234-1.274.688-1.69.463-.407 1.084-.621 1.866-.621zm-.252.87c-.471.012-.849.146-1.139.398-.282.261-.428.61-.428 1.034 0 .484.146.871.416 1.161s.659.465 1.151.504v-3.097zm3.117-4.152l-7.054 2.69v-.996l5.941-2.236-5.941-2.235v-.996l7.054 2.689v1.084zm-7.054-6.31v-.803l7.945 2.458v.803l-7.945-2.458zm-.627-4.825c-.194 0-.369.076-.504.214s-.214.307-.214.501c0 .202.067.378.202.512a.7.7 0 0 0 .516.205c.202 0 .375-.067.51-.205s.205-.31.205-.512a.68.68 0 0 0-.205-.501c-.135-.138-.308-.214-.51-.214zm1.564.715l3.516 1.289v-2.576l-3.516 1.287zm-.483.717c-.123.194-.278.337-.463.434-.176.097-.387.146-.618.146-.361 0-.668-.126-.92-.377a1.24 1.24 0 0 1-.378-.92c0-.349.126-.657.378-.909a1.26 1.26 0 0 1 .92-.386c.22 0 .425.058.606.155a1.2 1.2 0 0 1 .475.425l6.6-2.517v.996l-1.81.639v3.184l1.81.639v1.005l-6.6-2.514zm-.744-4.801v-.753c.744-.466 1.47-.824 2.185-1.055s1.424-.357 2.121-.357c.706 0 1.413.126 2.127.357s1.433.589 2.18 1.055v.753a10.15 10.15 0 0 0-2.15-.938 7.79 7.79 0 0 0-2.157-.31c-.726 0-1.441.108-2.147.31a10.58 10.58 0 0 0-2.159.938z" class="B"/><g class="C"><g stroke="#3f3f3f" stroke-width=".6"><path d="M40.872 113.997h15.756" class="F"/><path d="M39.422 105.583h17.206" class="G"/><path d="M46.45 95.256h10.178m0 22.412h13.954" class="F"/><path d="M56.628 108.882h14.197" class="G"/><path d="M56.628 96.876h9.012m23.695 23.221h19.758" class="F"/><path d="M88.854 112.89h20.239" class="G"/><path d="M96.284 104.139h12.809m0 19.213h20.379" class="F"/><path d="M109.093 116.977h19.465" class="G"/><path d="M109.093 108.483h13.034m20.306 13.099h19.125" class="F"/><path d="M141.653 114.917h19.905" class="G"/><path d="M149.821 104.859h11.737m0 20.728h17.546" class="F"/><path d="M161.558 119.76h18.061" class="G"/><path d="M161.558 109.767h11.437" class="F"/></g><g stroke-linecap="square" stroke-linejoin="miter" class="D E"><path d="M31.907 140.549V3.501m155.206 137.048V3.501M31.907 140.549h155.206"/><path d="M31.907 3.501h155.206"/></g></g><path d="M67.02 7.412h1.42l1.802 4.799 1.808-4.799h1.424v7.052h-.929V8.273l-1.819 4.837h-.958l-1.82-4.837v6.191h-.928V7.412zm8.349 0h.958v6.249h3.437v.803h-4.395V7.412z" class="B"/><path d="M80.76 7.412h.958v7.052h-.958z"/><path d="M84.571 8.194v2.652h1.199c.445 0 .785-.106 1.028-.337s.366-.563.366-.988-.126-.747-.366-.978-.583-.349-1.028-.349h-1.199zm-.958-.782h2.157c.785 0 1.385.185 1.793.542s.609.879.609 1.567c0 .698-.205 1.228-.609 1.577-.408.357-1.008.533-1.793.533h-1.199v2.833h-.958V7.412zm11.555-.302v.727h-.835c-.308 0-.53.067-.647.193-.126.126-.182.349-.182.677v.466h1.43v.677h-1.43v4.614h-.873V9.85h-.832v-.677h.832v-.369c0-.58.135-1.014.407-1.286s.706-.408 1.307-.408h.823zm2.774 2.672c-.463 0-.832.185-1.101.551s-.407.861-.407 1.491c0 .639.126 1.131.398 1.5s.639.542 1.11.542c.466 0 .832-.176 1.105-.542s.407-.861.407-1.5c0-.621-.135-1.122-.407-1.491s-.639-.551-1.105-.551zm0-.735c.756 0 1.348.252 1.782.735.424.492.647 1.169.647 2.042s-.223 1.547-.647 2.03c-.434.496-1.026.736-1.782.736-.764 0-1.362-.24-1.79-.736-.424-.483-.635-1.16-.635-2.03s.211-1.55.635-2.042c.428-.483 1.026-.735 1.79-.735zm6.941.937c-.097-.058-.205-.096-.32-.126-.117-.017-.243-.038-.377-.038-.496 0-.871.164-1.134.484-.27.319-.396.773-.396 1.374v2.786h-.87V9.173h.87v.823c.173-.319.416-.562.706-.718s.648-.231 1.075-.231l.203.009.243.041v.887zm4.509-.609v.814c-.252-.137-.493-.234-.745-.301s-.495-.106-.747-.106c-.559 0-1.004.185-1.315.542s-.463.862-.463 1.5c0 .648.152 1.152.463 1.509s.756.533 1.315.533a2.85 2.85 0 0 0 .747-.096c.252-.071.493-.176.745-.311v.803a3.37 3.37 0 0 1-.753.252c-.264.047-.542.076-.835.076-.791 0-1.433-.24-1.896-.744-.474-.492-.706-1.172-.706-2.022 0-.861.232-1.538.706-2.033s1.122-.744 1.954-.744c.273 0 .534.029.785.088s.501.135.745.24zm6.038 2.227v.424h-3.996c.038.601.213 1.067.542 1.374.319.311.764.466 1.344.466.328 0 .659-.041.967-.117a3.71 3.71 0 0 0 .941-.378v.823c-.311.135-.63.241-.958.299a5.74 5.74 0 0 1-.999.097c-.85 0-1.518-.24-2.013-.724s-.736-1.151-.736-1.995c0-.861.235-1.547.698-2.059.466-.504 1.104-.765 1.898-.765.715 0 1.278.231 1.694.685.404.466.618 1.084.618 1.87zm-.87-.252c-.012-.475-.147-.853-.399-1.143-.261-.281-.609-.425-1.034-.425-.483 0-.87.144-1.16.416s-.466.656-.504 1.152h3.097zm5.408-3.938h1.424l1.798 4.799 1.808-4.799h1.424v7.052h-.929V8.273l-1.819 4.837h-.958l-1.82-4.837v6.191h-.928V7.412zm10.711.938l-1.295 3.512h2.593l-1.298-3.512zm-.542-.938h1.084l2.689 7.052h-.996l-.639-1.808h-3.184l-.636 1.808h-1.008l2.69-7.052zm4.799 0h4.461v.803h-3.503v2.089h3.36v.802h-3.36v2.555h3.591v.803h-4.549V7.412zm9.454 1.916v.82c-.252-.114-.501-.21-.765-.278-.27-.058-.542-.097-.82-.097-.437 0-.765.068-.979.203s-.319.328-.319.588a.55.55 0 0 0 .231.475c.156.117.466.232.929.328l.302.071c.618.134 1.054.328 1.315.559.252.243.387.58.387 1.008 0 .492-.193.879-.58 1.16-.387.29-.929.425-1.606.425-.29 0-.583-.029-.89-.076s-.63-.126-.967-.243v-.9c.319.176.636.302.946.378a3.39 3.39 0 0 0 .929.126c.407 0 .726-.067.949-.202a.68.68 0 0 0 .328-.601c0-.234-.085-.416-.24-.542s-.504-.252-1.046-.369l-.299-.067c-.542-.115-.94-.29-1.172-.522-.243-.234-.357-.551-.357-.967 0-.495.173-.881.521-1.151s.853-.407 1.509-.407c.32 0 .621.029.911.079a4.37 4.37 0 0 1 .783.202z" class="B"/><path d="M66.981 16.705h.87v7.354h-.87z"/><path d="M69.671 18.765h.87v5.294h-.87v-5.294zm0-2.06h.87v1.102h-.87v-1.102zm7.093 4.16v3.194h-.873v-3.164c0-.504-.106-.871-.299-1.123s-.484-.377-.87-.377c-.475 0-.844.155-1.114.454s-.407.706-.407 1.218v2.992h-.87v-5.294h.87v.823c.205-.308.445-.551.736-.706.281-.155.609-.243.978-.243.601 0 1.064.196 1.374.571s.475.929.475 1.655zm6.26.328v.425h-3.999c.041.601.214 1.067.545 1.374.317.311.762.466 1.345.466.328 0 .656-.038.967-.114a3.64 3.64 0 0 0 .937-.381v.823a4.09 4.09 0 0 1-.958.302c-.328.058-.665.097-.996.097-.852 0-1.517-.244-2.012-.727s-.736-1.151-.736-1.992c0-.862.232-1.55.697-2.06.463-.504 1.102-.767 1.896-.767.715 0 1.277.231 1.693.688.408.466.621 1.084.621 1.866zm-.873-.252c-.008-.471-.143-.849-.395-1.139-.261-.281-.61-.425-1.034-.425-.487 0-.873.144-1.163.416s-.463.656-.504 1.148h3.096zm4.705.457c-.709 0-1.192.085-1.461.241-.273.164-.408.436-.408.823 0 .308.097.559.299.735.205.185.484.273.832.273.486 0 .873-.167 1.163-.516.29-.337.434-.791.434-1.362v-.194h-.859zm1.732-.36v3.021h-.873v-.803a1.86 1.86 0 0 1-.744.706c-.29.143-.657.223-1.084.223-.542 0-.976-.147-1.295-.446s-.475-.706-.475-1.218c0-.592.194-1.038.598-1.345.398-.302.99-.454 1.781-.454h1.219v-.088c0-.399-.135-.706-.396-.929-.26-.214-.63-.328-1.104-.328-.308 0-.598.038-.888.114a3.98 3.98 0 0 0-.823.32v-.803c.31-.117.618-.214.92-.273s.589-.096.879-.096c.764 0 1.336.205 1.714.6s.571.996.571 1.799zm4.857-1.459c-.096-.058-.205-.097-.319-.126a2.22 2.22 0 0 0-.378-.038c-.492 0-.87.164-1.134.483-.269.32-.395.774-.395 1.374v2.787h-.87v-5.294h.87v.823c.176-.319.416-.563.706-.718s.647-.231 1.075-.231c.056 0 .126.011.202.011l.243.038v.891zm7.799-.609v.811a3.48 3.48 0 0 0-.747-.299 2.85 2.85 0 0 0-.744-.105c-.56 0-1.005.182-1.316.539s-.465.861-.465 1.5c0 .65.155 1.151.466 1.509s.755.533 1.315.533c.252 0 .492-.029.744-.097a3.43 3.43 0 0 0 .747-.31v.805c-.252.115-.504.203-.756.249a4.43 4.43 0 0 1-.832.08c-.794 0-1.432-.244-1.895-.745-.475-.495-.706-1.171-.706-2.024 0-.861.231-1.538.706-2.03s1.122-.747 1.954-.747a3.42 3.42 0 0 1 .782.088 4.02 4.02 0 0 1 .747.243zm3.56.407a1.29 1.29 0 0 0-1.102.551c-.272.366-.407.861-.407 1.488 0 .639.126 1.134.395 1.5s.639.542 1.114.542c.466 0 .832-.173 1.104-.542s.404-.861.404-1.5c.001-.618-.134-1.122-.404-1.488a1.3 1.3 0 0 0-1.104-.551zm0-.738c.756 0 1.344.252 1.781.738.425.492.647 1.169.647 2.039s-.222 1.547-.647 2.033c-.437.492-1.025.736-1.781.736-.765 0-1.363-.244-1.79-.736-.425-.486-.639-1.163-.639-2.033s.214-1.547.639-2.039c.427-.486 1.025-.738 1.79-.738zm6.937.94c-.096-.058-.202-.097-.319-.126-.114-.02-.24-.038-.378-.038-.492 0-.87.164-1.131.483-.269.32-.395.774-.395 1.374v2.787h-.873v-5.294h.873v.823c.172-.319.416-.563.706-.718s.647-.231 1.072-.231c.058 0 .126.011.202.011l.243.038v.891zm3.812 0c-.097-.058-.202-.097-.32-.126a2.22 2.22 0 0 0-.378-.038c-.492 0-.87.164-1.13.483-.273.32-.399.774-.399 1.374v2.787h-.87v-5.294h.87v.823c.176-.319.416-.563.706-.718s.651-.231 1.075-.231c.059 0 .126.011.203.011l.243.038v.891zm5.226 1.614v.425h-3.996c.038.601.211 1.067.542 1.374.32.311.765.466 1.345.466.328 0 .656-.038.967-.114a3.83 3.83 0 0 0 .94-.381v.823c-.31.138-.63.243-.961.302s-.665.097-.996.097c-.849 0-1.517-.244-2.013-.727s-.735-1.151-.735-1.992c0-.862.234-1.55.697-2.06.466-.504 1.105-.767 1.896-.767.718 0 1.277.231 1.696.688.404.466.618 1.084.618 1.866zm-.87-.252c-.012-.471-.146-.849-.398-1.139-.261-.281-.61-.425-1.034-.425-.484 0-.871.144-1.161.416s-.465.656-.503 1.148h3.096zm6.106-1.971v.811a3.48 3.48 0 0 0-.747-.299 2.84 2.84 0 0 0-.745-.105c-.559 0-1.007.182-1.315.539s-.466.861-.466 1.5c0 .65.155 1.151.466 1.509s.756.533 1.315.533c.252 0 .496-.029.745-.097s.495-.173.747-.31v.805c-.252.115-.504.203-.756.249a4.44 4.44 0 0 1-.832.08c-.794 0-1.433-.244-1.896-.745-.474-.495-.706-1.171-.706-2.024 0-.861.232-1.538.706-2.03s1.122-.747 1.954-.747c.27 0 .534.029.783.088a4.2 4.2 0 0 1 .747.243zm2.37-1.705v1.5h1.79v.679h-1.79v2.871c0 .437.058.718.173.832.117.126.36.185.726.185h.891v.727h-.891c-.677 0-1.142-.126-1.391-.378-.255-.252-.378-.706-.378-1.366v-2.871h-.642v-.679h.642v-1.5h.87zm7.459 3.928v.425h-3.996c.041.601.214 1.067.542 1.374.319.311.764.466 1.344.466.331 0 .66-.038.97-.114s.627-.205.938-.381v.823c-.311.138-.63.243-.958.302s-.668.097-.996.097c-.853 0-1.521-.244-2.013-.727s-.736-1.151-.736-1.992c0-.862.232-1.55.698-2.06.463-.504 1.101-.767 1.895-.767.715 0 1.278.231 1.694.688.407.466.618 1.084.618 1.866zm-.87-.252c-.009-.471-.147-.849-.396-1.139-.261-.281-.612-.425-1.037-.425-.483 0-.87.144-1.16.416s-.466.656-.504 1.148h3.097zm5.777-1.371v-2.865h.87v7.354h-.87v-.794c-.185.319-.416.55-.697.697s-.61.223-.996.223a1.92 1.92 0 0 1-1.568-.756c-.407-.504-.6-1.181-.6-2.013s.193-1.5.6-2.01a1.93 1.93 0 0 1 1.568-.767c.386 0 .714.079.996.231s.512.39.697.7zm-2.962 1.846c0 .639.126 1.143.387 1.509a1.25 1.25 0 0 0 1.084.545 1.27 1.27 0 0 0 1.093-.545c.26-.366.398-.87.398-1.509s-.138-1.131-.398-1.5a1.28 1.28 0 0 0-1.093-.551 1.26 1.26 0 0 0-1.084.551c-.261.369-.387.861-.387 1.5zm8.739-4.412h1.421l1.799 4.799 1.811-4.799h1.423v7.055h-.931v-6.194l-1.817 4.837h-.958l-1.819-4.837v6.194h-.929v-7.055zm10.711.94l-1.298 3.51h2.593l-1.295-3.51zm-.542-.94h1.084l2.69 7.055h-.996l-.639-1.811h-3.185l-.638 1.811h-1.005l2.689-7.055zm4.799 0h4.459v.803h-3.501v2.091h3.358v.803h-3.358v2.555h3.589v.803h-4.547v-7.055zm9.454 1.916v.823c-.252-.117-.504-.214-.764-.281-.27-.056-.542-.097-.824-.097-.436 0-.764.068-.975.205a.65.65 0 0 0-.32.589.56.56 0 0 0 .232.475c.155.114.463.231.929.328l.298.067c.621.135 1.055.328 1.316.563.255.24.389.58.389 1.005 0 .492-.193.882-.583 1.163-.386.29-.928.425-1.605.425-.29 0-.58-.03-.891-.08a5.67 5.67 0 0 1-.966-.24v-.902c.319.176.638.302.949.381a3.47 3.47 0 0 0 .928.126c.408 0 .727-.071.947-.205a.68.68 0 0 0 .331-.601.67.67 0 0 0-.243-.542c-.156-.126-.504-.252-1.046-.366l-.299-.068c-.542-.117-.938-.29-1.172-.524-.24-.231-.357-.551-.357-.967 0-.492.175-.879.524-1.151s.85-.407 1.509-.407a5.3 5.3 0 0 1 .908.079 4.46 4.46 0 0 1 .785.202z" class="B"/><g stroke-width=".48" class="D"><path d="M100.447 58.866l17.895 12.305" stroke-linecap="round" class="C"/><path d="M116.247 67.383l2.095 3.788-4.286-.601 2.191-3.187z" fill="#1f77b4" class="B"/></g><path d="M83.769 37.263h.87v7.351h-.87z"/><path d="M86.458 39.322h.873v5.291h-.873v-5.291zm0-2.059h.873v1.101h-.873v-1.101zm7.093 4.16v3.19h-.87v-3.161c0-.504-.106-.873-.299-1.122s-.484-.378-.873-.378c-.472 0-.841.155-1.113.454s-.405.706-.405 1.219v2.988h-.87v-5.291h.87v.824a2.04 2.04 0 0 1 .736-.707 2 2 0 0 1 .975-.243c.601 0 1.067.194 1.374.572s.475.928.475 1.655zm6.261.328v.425h-3.997c.039.6.214 1.066.542 1.374.32.31.765.466 1.345.466.331 0 .659-.038.967-.118s.63-.202.94-.377v.823c-.31.135-.63.243-.958.299a5.79 5.79 0 0 1-.996.096c-.852 0-1.52-.24-2.012-.723s-.739-1.152-.739-1.995c0-.859.235-1.547.7-2.06.463-.504 1.102-.765 1.896-.765.715 0 1.277.232 1.693.689.408.463.619 1.084.619 1.866zm-.871-.252c-.008-.475-.146-.853-.395-1.143-.264-.278-.612-.424-1.037-.424-.484 0-.87.146-1.16.416s-.466.659-.504 1.151h3.096zm4.703.454c-.707 0-1.19.088-1.462.243-.27.164-.405.437-.405.824 0 .307.097.559.299.735.202.182.484.269.832.269.484 0 .87-.164 1.163-.512.29-.337.434-.794.434-1.366v-.193h-.861zm1.731-.357v3.017h-.87v-.8c-.202.329-.454.56-.744.704s-.659.222-1.084.222c-.542 0-.979-.143-1.298-.442s-.475-.709-.475-1.219c0-.592.197-1.037.601-1.348.395-.298.987-.454 1.781-.454h1.219v-.085c0-.398-.135-.709-.396-.931-.26-.211-.63-.328-1.104-.328a3.35 3.35 0 0 0-.891.117 3.95 3.95 0 0 0-.82.319v-.803c.308-.117.618-.213.917-.272a4.56 4.56 0 0 1 .882-.097c.764 0 1.336.205 1.711.601s.571.996.571 1.799zm4.857-1.459c-.096-.059-.202-.097-.319-.126a2.05 2.05 0 0 0-.375-.041c-.495 0-.873.167-1.134.483-.269.319-.395.776-.395 1.374v2.786h-.87v-5.291h.87v.824c.173-.32.416-.563.706-.718s.647-.232 1.072-.232c.059 0 .126.012.205.012l.24.038v.891zm7.799-.613v.815c-.252-.135-.492-.232-.744-.299s-.492-.108-.744-.108c-.563 0-1.008.184-1.315.542s-.466.861-.466 1.5c0 .647.155 1.151.466 1.508s.752.534 1.315.534c.252 0 .492-.03.744-.097s.492-.176.744-.311v.803a3.32 3.32 0 0 1-.753.252c-.26.047-.542.076-.832.076-.794 0-1.432-.24-1.898-.744-.472-.492-.706-1.169-.706-2.021 0-.862.234-1.538.706-2.031s1.122-.747 1.957-.747a3.48 3.48 0 0 1 .782.088 4.3 4.3 0 0 1 .744.24zm3.563.408c-.466 0-.832.184-1.105.55s-.407.862-.407 1.492c0 .638.126 1.13.398 1.5s.639.542 1.114.542c.463 0 .832-.176 1.101-.542s.408-.862.408-1.5c0-.619-.135-1.122-.408-1.492a1.29 1.29 0 0 0-1.101-.55zm0-.736c.753 0 1.344.252 1.778.736.428.495.65 1.172.65 2.042s-.222 1.547-.65 2.033c-.434.492-1.025.732-1.778.732-.765 0-1.365-.24-1.79-.732-.428-.486-.639-1.163-.639-2.033s.211-1.547.639-2.042c.425-.484 1.025-.736 1.79-.736zm6.937.941c-.096-.059-.205-.097-.319-.126-.117-.021-.243-.041-.378-.041-.492 0-.87.167-1.131.483-.272.319-.398.776-.398 1.374v2.786h-.87v-5.291h.87v.824c.175-.32.416-.563.706-.718s.65-.232 1.075-.232c.059 0 .126.012.202.012l.243.038v.891zm3.812 0c-.1-.059-.205-.097-.322-.126a2.07 2.07 0 0 0-.375-.041c-.496 0-.874.167-1.134.483-.27.319-.396.776-.396 1.374v2.786h-.87v-5.291h.87v.824c.173-.32.416-.563.706-.718s.648-.232 1.073-.232c.058 0 .126.012.205.012l.243.038v.891zm5.226 1.614v.425h-3.996c.038.6.211 1.066.539 1.374.32.31.765.466 1.345.466.331 0 .659-.038.97-.118a3.76 3.76 0 0 0 .937-.377v.823c-.31.135-.63.243-.958.299a5.79 5.79 0 0 1-.996.096c-.852 0-1.52-.24-2.013-.723s-.735-1.152-.735-1.995c0-.859.232-1.547.697-2.06.463-.504 1.102-.765 1.896-.765.718 0 1.277.232 1.693.689.407.463.621 1.084.621 1.866zm-.873-.252c-.008-.475-.143-.853-.395-1.143-.261-.278-.61-.424-1.037-.424-.484 0-.87.146-1.16.416s-.463.659-.504 1.151h3.096zm6.106-1.975v.815c-.252-.135-.492-.232-.744-.299s-.493-.108-.747-.108c-.56 0-1.005.184-1.316.542s-.463.861-.463 1.5c0 .647.156 1.151.463 1.508s.756.534 1.316.534a2.85 2.85 0 0 0 .747-.097c.252-.067.492-.176.744-.311v.803a3.32 3.32 0 0 1-.753.252c-.261.047-.542.076-.832.076-.794 0-1.433-.24-1.899-.744-.471-.492-.706-1.169-.706-2.021 0-.862.235-1.538.706-2.031s1.122-.747 1.954-.747c.273 0 .534.03.786.088a4.3 4.3 0 0 1 .744.24zm2.37-1.702v1.5h1.79v.677h-1.79v2.874c0 .437.058.715.176.832.114.126.357.185.726.185h.888v.723h-.888c-.679 0-1.142-.123-1.394-.375s-.378-.706-.378-1.365v-2.874h-.639v-.677h.639v-1.5h.87zm2.932 1.5h.874v5.291h-.874v-5.291zm0-2.059h.874v1.101h-.874v-1.101zm4.744 2.669c-.466 0-.832.184-1.105.55s-.407.862-.407 1.492c0 .638.126 1.13.398 1.5s.639.542 1.114.542c.463 0 .829-.176 1.101-.542s.407-.862.407-1.5c0-.619-.134-1.122-.407-1.492a1.3 1.3 0 0 0-1.101-.55zm0-.736c.753 0 1.344.252 1.778.736.428.495.65 1.172.65 2.042s-.222 1.547-.65 2.033c-.434.492-1.025.732-1.778.732-.765 0-1.366-.24-1.79-.732-.428-.486-.639-1.163-.639-2.033s.211-1.547.639-2.042c.424-.484 1.025-.736 1.79-.736zm8.27 2.227v3.19h-.87v-3.161c0-.504-.105-.873-.299-1.122s-.483-.378-.87-.378c-.475 0-.844.155-1.113.454s-.407.706-.407 1.219v2.988h-.871v-5.291h.871v.824c.205-.311.445-.551.735-.707.281-.155.609-.243.978-.243.598 0 1.064.194 1.374.572s.472.928.472 1.655zm-77.853 7.494h.873l1.084 4.131 1.081-4.131h1.028l1.084 4.131 1.081-4.131h.873l-1.386 5.291h-1.025l-1.14-4.333-1.142 4.333H84.65l-1.385-5.291zm8.42 0h.87v5.291h-.87v-5.291zm0-2.063h.87v1.105h-.87v-1.105zm3.55.563v1.5h1.79v.677h-1.79v2.874c0 .433.059.715.176.832.114.126.358.181.724.181h.89v.727h-.89c-.677 0-1.143-.126-1.395-.378s-.375-.706-.375-1.362v-2.874h-.638v-.677h.638v-1.5h.87zm7.336 3.598v3.193h-.873v-3.164c0-.504-.105-.87-.299-1.122s-.483-.378-.87-.378c-.474 0-.843.155-1.113.457s-.407.706-.407 1.219v2.988h-.87v-7.354h.87v2.883c.202-.307.445-.55.735-.706.281-.152.61-.24.979-.24.597 0 1.063.193 1.374.571s.474.929.474 1.653zm5.098 2.39h1.559v-5.379l-1.694.337v-.87l1.682-.337h.958v6.249h1.558v.803h-4.063v-.803z" class="B"/><path d="M116.61 46.854h.87v7.354h-.87z"/><path d="M121.708 51.548c-.706 0-1.189.088-1.459.24-.272.167-.407.437-.407.823 0 .311.096.563.299.736.205.184.486.272.835.272.483 0 .87-.164 1.16-.513.29-.339.433-.794.433-1.365v-.193h-.861zm1.734-.358v3.018h-.873v-.803c-.202.328-.454.563-.744.706s-.656.223-1.084.223c-.542 0-.978-.144-1.295-.445s-.474-.706-.474-1.219c0-.592.193-1.034.6-1.345.396-.302.985-.454 1.779-.454h1.218v-.088c0-.395-.134-.706-.395-.929-.261-.213-.63-.328-1.102-.328-.31 0-.6.038-.893.115a3.95 3.95 0 0 0-.821.319v-.803c.308-.114.619-.211.92-.269a4.53 4.53 0 0 1 .879-.097c.765 0 1.336.202 1.714.601s.571.996.571 1.798zm5.593.378c0-.641-.138-1.133-.398-1.5a1.27 1.27 0 0 0-1.084-.553c-.463 0-.821.184-1.084.553-.27.367-.396.859-.396 1.5s.126 1.14.396 1.509a1.25 1.25 0 0 0 1.084.542c.457 0 .814-.176 1.084-.542.26-.369.398-.873.398-1.509zm-2.962-1.848c.173-.311.407-.542.686-.698s.621-.231 1.008-.231a1.93 1.93 0 0 1 1.567.765c.395.512.601 1.177.601 2.012 0 .829-.206 1.509-.601 2.01-.407.504-.929.756-1.567.756a2.16 2.16 0 0 1-1.008-.223c-.279-.143-.513-.378-.686-.697v.794h-.87v-7.354h.87v2.866zm9.829 1.626v.425h-3.993c.038.6.211 1.063.542 1.374.317.31.762.462 1.345.462.328 0 .656-.038.967-.114a3.87 3.87 0 0 0 .937-.378v.823c-.307.135-.627.241-.958.299s-.668.097-.996.097c-.852 0-1.517-.24-2.013-.727s-.735-1.151-.735-1.992c0-.861.231-1.547.697-2.059.466-.504 1.102-.765 1.896-.765.718 0 1.277.231 1.693.686.407.465.618 1.084.618 1.869zm-.87-.252c-.009-.475-.143-.853-.395-1.143-.261-.281-.61-.425-1.034-.425-.487 0-.874.144-1.164.416s-.462.657-.503 1.152h3.096z" class="B"/><path d="M137.326 46.854h.87v7.354h-.87z"/></svg>