<svg xmlns="http://www.w3.org/2000/svg" xml:space="preserve" style="fill-rule:evenodd;clip-rule:evenodd;stroke-linejoin:round;stroke-miterlimit:10" viewBox="0 0 291 262"><path d="M99.56 261.853h-.003l-.004-2.477-.006-1.982-.009-1.982-.009-1.487-.002-.495-.004-.496-.009-1.486-.009-1.982-.002-.496-.001-.991v-.495l.002-1.487.001-.495.007-1.487.024-3.964.003-.495.003-.496.002-.495.001-.496.003-.495.004-1.487.001-.495.001-.496.002-.991v-.495l.001-.496v-1.982l.001-.495v-7.929l-.001-.495v-1.487l-.004-2.973-.005-1.486-.004-.991-.006-.991-.008-.991-.009-.991-.005-.496-.006-.495-.013-.991-.015-.991-.019-.991-.009-.496-.009-.495-.011-.496-.033-1.486-.025-.991-.038-1.487-.013-.495-.013-.496-.026-.991-.012-.495-.036-1.487-.012-.495-.021-.991-.009-.496-.009-.495-.025-1.487-.007-.495-.007-.496-.008-.495-.007-.496-.014-.991-.008-.495-.009-.496-.009-.495-.011-.496-.011-.496-.013-.495-.014-.495-.015-.496-.018-.495-.021-.496-.022-.496-.026-.495-.028-.495-.03-.496-.034-.495-.038-.496-.041-.496-.044-.495-.048-.495-.053-.496-.056-.495-.06-.496-.064-.496-.068-.495-.072-.495-.075-.496-.079-.495-.083-.496-.086-.496-.088-.495-.093-.495-.094-.496-.097-.496-.1-.495-.102-.496-.105-.495-.107-.495-.11-.496-.114-.496-.116-.495-.121-.496-.126-.495-.132-.495-.137-.496-.145-.496-.152-.495-.16-.496-.171-.495-.181-.495-.193-.496-.204-.496-.216-.495-.229-.496-.243-.495-.256-.495-.269-.496-.283-.496-.296-.495-.309-.496-.323-.495-.334-.495-.346-.496-.357-.496-.368-.495-.377-.496-.387-.495-.395-.495-.402-.496-.409-.496-.414-.495-.418-.496-.422-.495-.424-.496-.424-.495-.423-.496-.421-.495-.418-.496-.413-.495-.405-.496-.397-.495-.386-.496-.374-.495-.361-.496-.345-.495-.327-.495-.31-.496-.29-.496-.269-.496-.247-.495-.223-.495-.2-.496-.177-.495-.151-.496-.126-.496-.101-.495-.076-.495-.051-.496-.026-.495-.003-.496.022-.496.046-.495.067-.495.09-.496.111-.495.132-.496.15-.496.169-.495.185-.495.201-.496.216-.495.228-.496.24-.496.251-.495.258-.495.265-.496.27-.495.275-.496.276-.496.276-.495.277-.495.275-.496.271-.495.268-.496.264-.496.259-.495.253-.495.249-.496.245-.496.239-.495.236-.496.234-.495.23-.495.459-.992.231-.495.232-.496.234-.495.238-.495.241-.496.245-.496.249-.495.254-.496.257-.495.261-.495.264-.496.266-.496.269-.495.538-.991.269-.495.268-.496.265-.496.264-.495.259-.496.257-.495.252-.495.247-.496.243-.496.237-.495.232-.496.227-.495.221-.495.214-.496.21-.496.203-.495.196-.496.19-.495.184-.495.177-.496.169-.496.163-.496.156-.495.149-.495.141-.496.134-.495.128-.496.12-.496.113-.495.108-.495.099-.496.094-.495.088-.496.082-.496.076-.495.07-.495.067-.496.06-.495.057-.496.052-.496.049-.495.044-.495.041-.496.038-.495.034-.496.032-.496.029-.495.026-.495.025-.496.022-.495.02-.496.019-.496.016-.495.015-.495.014-.496.013-.495.024-.992.011-.495.021-.991.009-.495.032-1.487.01-.495.023-.992.012-.495.024-.991.012-.495.012-.496.013-.496.012-.495.012-.496.011-.495.012-.495.011-.496.011-.496.01-.495.009-.496.009-.495.009-.495.009-.496.007-.496.007-.495.012-.991.004-.495.005-.496.004-.496.002-.495.003-.496.002-.495.001-.495v-.496l.001-.496-.001-.991-.002-.495-.003-.991-.002-.496-.002-.495-.002-.496-.002-.495-.002-.496-.003-.495-.001-.496-.001-.496-.001-.495v-.991h.113v.496l-.002.99-.003.992-.001.495-.007 1.487-.002.495-.002.496-.002.496-.001.495-.001.495-.002.496v.991l.001.496.003.99.002.496.003.495.004.496.005.496.005.495.005.495.007.496.007.495.007.496.008.496.009.495.009.495.009.496.011.495.01.496.012.496.011.495.024.991.012.495.024.992.013.495.024.991.011.495.022.992.012.495.021.991.009.496.011.495.021.991.01.495.012.496.012.496.013.495.014.496.015.495.017.495.019.496.019.496.023.495.024.496.027.495.028.495.032.496.035.496.037.495.042.496.044.495.048.495.052.496.057.496.061.495.065.496.072.495.075.495.083.496.087.496.095.495.099.496.107.495.114.495.12.496.127.496.134.495.141.496.15.495.155.495.163.496.17.496.177.496.183.495.19.495.197.496.202.495.21.496.215.496.221.495.227.495.231.496.238.495.242.496.248.496.252.495.256.495.26.496.263.495.266.496.267.496.27.495.538.991.269.495.266.496.264.496.261.495.257.495.253.496.25.495.244.496.242.496.237.495.234.495.232.496.23.495.231.496.229.496.231.495.233.495.236.496.24.495.244.496.249.496.254.495.259.495.263.496.268.496.272.495.274.496.276.495.277.495.277.496.274.496.27.495.265.496.259.495.25.495.24.496.228.496.216.495.201.496.186.495.168.495.15.496.132.496.111.495.09.496.068.495.045.495.022.496-.002.496-.026.495-.051.496-.077.495-.1.495-.127.496-.151.496-.176.495-.2.496-.224.495-.247.495-.269.496-.29.496-.31.496-.327.495-.345.495-.36.496-.375.495-.386.496-.397.495-.405.496-.412.495-.418.496-.421.495-.424.496-.424.495-.424.496-.421.495-.419.496-.414.495-.408.496-.402.496-.396.495-.386.495-.378.496-.367.495-.357.496-.347.496-.334.495-.322.495-.309.496-.296.495-.284.496-.269.496-.256.495-.242.495-.23.496-.216.495-.204.496-.192.496-.181.495-.171.495-.161.496-.152.495-.145.496-.138.496-.131.495-.125.495-.122.496-.117.495-.113.496-.11.496-.107.495-.105.495-.102.496-.099.495-.097.496-.095.496-.092.495-.089.495-.086.496-.082.496-.08.495-.075.496-.072.495-.068.495-.064.496-.06.496-.057.495-.051.496-.048.495-.045.495-.041.496-.037.496-.034.495-.032.496-.027.495-.025.495-.023.496-.02.496-.018.495-.016.496-.015.495-.012.495-.012.496-.009.496-.01.495-.017.991-.007.496-.007.495-.007.496-.007.495-.023 1.487-.008.495-.018.991-.019.991-.034 1.487-.012.495-.013.496-.012.495-.013.496-.013.495-.064 2.478-.036 1.486-.011.496-.021.991-.02.991-.009.495-.016.991-.007.496-.007.495-.012.991-.011.991-.004.496-.004.495-.003.496-.004.495-.009 1.982-.001.496-.001.495-.002.496-.002 1.486v1.487l-.001.495v2.478l-.001.495v3.965l.001.495v2.478l.001.495v1.487l.003 1.982.002.495v.496l.002.495.002.496.002.495.006 1.487.003.495.003.496.009 1.486.003.496.003.495.003.496.006.991.002.495.005 1.487v1.486l-.001.991-.003.991-.005.991-.024 3.964-.002.496-.003.495-.005.991-.001.496-.002.495-.003.991-.002.991-.001.496-.001.495v.496z" style="fill:#00f;fill-rule:nonzero"/><path d="M175.419 195.048h-.97l-.111-1.982-.135-1.982-.165-1.981-.199-1.983-.239-1.981-.287-1.981-.34-1.983-.402-1.981-.469-1.983-.542-1.981-.62-1.982-.701-1.982-.785-1.982-.865-1.982-.942-1.981-1.01-1.982-1.067-1.982-1.109-1.982-1.134-1.982-1.134-1.982-1.11-1.981-1.062-1.983-.984-1.981-.88-1.982-.752-1.982-.598-1.982-.428-1.982-.241-1.981-.048-1.982.15-1.982.342-1.982.526-1.982.694-1.982.843-1.981.965-1.983 1.062-1.981 1.129-1.982 1.17-1.982 1.182-1.981 1.169-1.983 1.135-1.981 1.079-1.982 1.011-1.982.93-1.982.844-1.981.754-1.983.663-1.981.576-1.983.493-1.981.418-1.982.347-1.982.287-1.981.234-1.983.187-1.981.15-1.982.118-1.982.092-1.982.07-1.982.055-1.982.041-1.981.032-1.982.023-1.982.018-1.981.013-1.983.01-1.981.008-1.983.006-1.981.004-1.982.004-1.982.002-1.982.003-1.982.001-1.982.003-7.927v-1.982l.001-1.981V28.573l.001-1.981v-9.91 27.746l.002 5.946.002 1.981.003 3.964.003 1.982.003 1.982.004 1.982.006 1.981.008 1.983.01 1.981.013 1.983.018 1.981.023 1.982.032 1.982.041 1.981.055 1.982.071 1.982.092 1.982.118 1.982.149 1.982.188 1.981.233 1.983.287 1.981.348 1.982.417 1.982.493 1.981.576 1.983.664 1.981.754 1.983.844 1.981.929 1.982 1.011 1.982 1.081 1.982 1.133 1.981 1.169 1.983 1.182 1.981 1.17 1.982 1.13 1.982 1.062 1.981.965 1.983.842 1.981.694 1.982.526 1.982.343 1.982.149 1.982-.047 1.982-.242 1.981-.428 1.982-.598 1.982-.751 1.982-.88 1.982-.985 1.981-1.061 1.983-1.111 1.981-1.134 1.982-1.133 1.982-1.11 1.982-1.067 1.982-1.01 1.982-.942 1.981-.865 1.982-.784 1.982-.702 1.982-.62 1.982-.542 1.981-.469 1.983-.401 1.981-.341 1.983-.286 1.981-.24 1.981-.199 1.983-.164 1.981-.136 1.982z" style="fill:orange;fill-rule:nonzero"/><path d="M250.43 213.967h-.24l-.014-1.884-.016-1.883-.017-1.884-.02-1.884-.022-1.884-.026-1.884-.03-1.884-.036-1.883-.045-1.884-.057-1.884-.069-1.884-.087-1.884-.109-1.883-.136-1.884-.167-1.884-.206-1.884-.249-1.884-.301-1.884-.359-1.884-.424-1.884-.493-1.883-.571-1.884-.649-1.884-.73-1.883-.811-1.884-.889-1.884-.961-1.884-1.022-1.884-1.073-1.883-1.105-1.884-1.12-1.884-1.111-1.884-1.081-1.884-1.024-1.884-.942-1.884-.835-1.884-.707-1.883-.559-1.884-.394-1.884-.219-1.884-.037-1.883.143-1.884.323-1.884.49-1.884.645-1.883.779-1.884.895-1.884.984-1.884 1.053-1.884 1.094-1.884 1.114-1.884 1.11-1.884 1.087-1.883 1.047-1.884.993-1.884.928-1.884.854-1.883.777-1.884.698-1.884.617-1.884.54-1.883.467-1.884.399-1.884.337-1.884.281-1.884.233-1.884.19-1.884.155-1.884.123-1.884.099-1.883.078-1.884.063-1.884.049-1.884.038-1.883.031-1.884.025-1.884.019-1.884.017-1.883.013-1.884.01-1.884.009-1.884.007-1.884.006-1.884.005-1.884.004-1.884.004-1.883.004-3.768.002-1.884.001-1.883.002-3.768v-3.767h.002v1.883l.002 5.652.003 3.767.005 3.768.003 1.883.009 3.768.006 1.884.007 1.884.009 1.884.011 1.884.012 1.884.016 1.883.02 1.884.025 1.884.03 1.884.039 1.883.05 1.884.061 1.884.079 1.884.099 1.883.124 1.884.154 1.884.19 1.884.232 1.884.282 1.884.337 1.884.399 1.884.467 1.884.54 1.883.618 1.884.696 1.884.777 1.884.856 1.883.927 1.884.993 1.884 1.047 1.884 1.088 1.883 1.11 1.884 1.113 1.884 1.095 1.884 1.052 1.884.985 1.884.894 1.884.78 1.884.644 1.883.49 1.884.322 1.884.145 1.884-.038 1.883-.219 1.884-.394 1.884-.559 1.884-.706 1.883-.837 1.884-.942 1.884-1.023 1.884-1.08 1.884-1.112 1.884-1.119 1.884-1.106 1.884-1.073 1.883-1.022 1.884-.961 1.884-.888 1.884-.812 1.884-.73 1.883-.649 1.884-.57 1.884-.494 1.883-.423 1.884-.36 1.884-.3 1.884-.25 1.884-.206 1.884-.167 1.884-.136 1.884-.108 1.883-.087 1.884-.071 1.884-.055 1.884-.045 1.884-.037 1.883-.031 1.884-.025 1.884-.022 1.884-.02 1.884-.017 1.884-.016 1.883z" style="fill:green;fill-rule:nonzero"/><path d="M99.558 226.587v2.187" style="fill:none;fill-rule:nonzero;stroke:#000;stroke-width:.5px"/><path d="M75.598 231.351h1.837l2.325 6.2 2.338-6.2h1.837v9.112h-1.2v-8l-2.35 6.25h-1.238l-2.349-6.25v8h-1.2zm14.637 4.2c.588.125 1.051.387 1.375.787s.5.9.5 1.475c0 .9-.312 1.6-.925 2.088-.625.487-1.5.725-2.637.725-.388 0-.787-.038-1.188-.113a7 7 0 0 1-1.25-.325v-1.187q.507.3 1.125.45.6.15 1.276.15 1.16 0 1.762-.45c.4-.3.612-.75.612-1.338 0-.525-.188-.95-.563-1.25s-.899-.462-1.575-.462h-1.061v-1.013h1.112c.6 0 1.062-.112 1.387-.362q.488-.357.488-1.05c0-.463-.175-.825-.5-1.075q-.507-.375-1.426-.375-.505 0-1.087.112-.58.113-1.275.338v-1.1c.463-.125.9-.225 1.312-.288.401-.062.788-.1 1.163-.1q1.389 0 2.212.638.826.638.826 1.725c0 .5-.151.925-.438 1.275s-.699.6-1.225.725m10.313 3.612v-2.45h-2.013v-1.012h3.238v3.912c-.475.35-1 .6-1.575.763a6.8 6.8 0 0 1-1.838.25c-1.425 0-2.55-.413-3.35-1.238-.799-.825-1.2-1.987-1.2-3.475 0-1.475.401-2.637 1.2-3.475.8-.825 1.925-1.25 3.35-1.25q.88 0 1.688.225c.538.15 1.037.363 1.487.638v1.312a5.5 5.5 0 0 0-1.463-.862q-.768-.3-1.612-.3-1.687 0-2.513.937c-.562.625-.837 1.55-.837 2.775 0 1.238.275 2.163.837 2.788.551.625 1.388.925 2.513.925q.638 0 1.162-.113a3 3 0 0 0 .926-.35m3.475-7.812h1.662l4.038 7.625v-7.625h1.2v9.112h-1.663l-4.037-7.625v7.625h-1.2zm15.15 5.412v.55h-5.162c.049.775.274 1.375.699 1.775.413.4.988.6 1.738.6a4.9 4.9 0 0 0 2.462-.637v1.062a5.5 5.5 0 0 1-1.237.388 7.5 7.5 0 0 1-1.288.125c-1.099 0-1.962-.313-2.599-.938s-.951-1.487-.951-2.575q0-1.668.9-2.662c.6-.65 1.425-.988 2.45-.988.925 0 1.651.3 2.187.888.525.6.801 1.4.801 2.412m-1.125-.325c-.013-.612-.188-1.1-.512-1.475-.338-.362-.788-.55-1.339-.55-.624 0-1.125.188-1.5.538s-.599.85-.649 1.487zm4.074-4.75v1.938h2.313v.875h-2.313v3.712c0 .563.075.925.226 1.075.149.163.462.238.937.238h1.15v.937h-1.15q-1.312 0-1.8-.487-.488-.488-.488-1.763v-3.712h-.824v-.875h.824v-1.938z" style="fill-rule:nonzero"/><path d="M174.935 226.587v2.187" style="fill:none;fill-rule:nonzero;stroke:#000;stroke-width:.5px"/><path d="M158.096 232.051v1.3a4.9 4.9 0 0 0-1.337-.863 4 4 0 0 0-1.487-.287c-1.05 0-1.851.325-2.4.962-.551.638-.825 1.55-.825 2.75s.274 2.125.825 2.763c.549.637 1.35.95 2.4.95.525 0 1.012-.088 1.487-.288.475-.187.913-.475 1.337-.862v1.287c-.437.3-.9.513-1.375.65a5.5 5.5 0 0 1-1.524.213c-1.376 0-2.463-.413-3.263-1.25-.8-.838-1.188-1.988-1.188-3.463 0-1.462.388-2.612 1.188-3.462.8-.838 1.887-1.263 3.263-1.263.55 0 1.062.075 1.537.213.475.15.938.362 1.362.65m1.901-.7h1.237v3.737h4.475v-3.737h1.237v9.112h-1.237v-4.337h-4.475v4.337h-1.237zm15.612 7.812v-2.45h-2.013v-1.012h3.238v3.912c-.475.35-1 .6-1.575.763a6.8 6.8 0 0 1-1.837.25c-1.425 0-2.55-.413-3.351-1.238-.8-.825-1.2-1.987-1.2-3.475 0-1.475.4-2.637 1.2-3.475.801-.825 1.926-1.25 3.351-1.25a6.3 6.3 0 0 1 1.687.225c.537.15 1.037.363 1.487.638v1.312a5.5 5.5 0 0 0-1.462-.862q-.768-.3-1.613-.3-1.687 0-2.512.937c-.563.625-.838 1.55-.838 2.775 0 1.238.275 2.163.838 2.788.55.625 1.387.925 2.512.925q.638 0 1.163-.113c.35-.075.65-.187.925-.35m3.475-7.812h1.662l4.038 7.625v-7.625h1.2v9.112h-1.663l-4.037-7.625v7.625h-1.2zm15.15 5.412v.55h-5.163c.051.775.275 1.375.701 1.775.412.4.987.6 1.737.6.425 0 .85-.05 1.25-.15s.812-.262 1.213-.487v1.062a5.5 5.5 0 0 1-1.238.388 7.5 7.5 0 0 1-1.288.125c-1.1 0-1.962-.313-2.6-.938-.637-.625-.949-1.487-.949-2.575q0-1.668.9-2.662c.6-.65 1.425-.988 2.449-.988.926 0 1.65.3 2.188.888.525.6.8 1.4.8 2.412m-1.125-.325c-.012-.612-.187-1.1-.513-1.475-.337-.362-.787-.55-1.337-.55-.625 0-1.125.188-1.5.538s-.6.85-.65 1.487zm4.075-4.75v1.938h2.312v.875h-2.312v3.712c0 .563.075.925.225 1.075.15.163.463.238.938.238h1.149v.937h-1.149q-1.314 0-1.8-.487-.488-.488-.488-1.763v-3.712h-.825v-.875h.825v-1.938z" style="fill-rule:nonzero"/><path d="M250.31 226.587v2.187" style="fill:none;fill-rule:nonzero;stroke:#000;stroke-width:.5px"/><path d="M233.669 231.351h1.838l2.325 6.2 2.337-6.2h1.837v9.112h-1.2v-8l-2.349 6.25h-1.238l-2.35-6.25v8h-1.2zm13.838 1.212-1.676 4.538h3.351zm-.701-1.212h1.401l3.474 9.112h-1.287l-.825-2.337h-4.113l-.825 2.337h-1.299zm12.81.7v1.3a4.9 4.9 0 0 0-1.337-.863 4 4 0 0 0-1.487-.287c-1.05 0-1.851.325-2.4.962-.551.638-.825 1.55-.825 2.75s.274 2.125.825 2.763c.549.637 1.35.95 2.4.95.525 0 1.012-.088 1.487-.288.475-.187.913-.475 1.337-.862v1.287c-.437.3-.9.513-1.374.65a5.5 5.5 0 0 1-1.525.213c-1.376 0-2.463-.413-3.263-1.25-.8-.838-1.188-1.988-1.188-3.463 0-1.462.388-2.612 1.188-3.462.8-.838 1.887-1.263 3.263-1.263.55 0 1.062.075 1.537.213.475.15.938.362 1.362.65m1.901-.7h5.762v1.037h-4.525v2.7h4.338v1.038h-4.338v3.3h4.637v1.037h-5.874z" style="fill-rule:nonzero"/><path d="M46.795 226.587h-2.187" style="fill:none;fill-rule:nonzero;stroke:#000;stroke-width:.5px"/><path d="M18.573 223.037c-.638 0-1.113.313-1.438.938s-.475 1.562-.475 2.812.15 2.188.475 2.813.8.937 1.438.937 1.112-.312 1.437-.937c.313-.625.475-1.563.475-2.813s-.162-2.187-.475-2.812c-.325-.625-.8-.938-1.437-.938m0-.975c1.012 0 1.787.413 2.337 1.213.538.812.813 1.987.813 3.512 0 1.538-.275 2.713-.813 3.513-.55.8-1.325 1.2-2.35 1.2s-1.8-.4-2.337-1.2-.8-1.975-.8-3.513c0-1.525.262-2.7.8-3.512.537-.8 1.325-1.213 2.35-1.213" style="fill-rule:nonzero"/><path d="M23.885 229.787h1.288v1.55h-1.288z"/><path d="M30.498 223.037c-.638 0-1.113.313-1.438.938s-.475 1.562-.475 2.812.15 2.188.475 2.813.8.937 1.438.937 1.112-.312 1.437-.937c.313-.625.475-1.563.475-2.813s-.162-2.187-.475-2.812c-.325-.625-.8-.938-1.437-.938m0-.975c1.012 0 1.787.413 2.337 1.213.538.812.813 1.987.813 3.512 0 1.538-.275 2.713-.813 3.513-.55.8-1.325 1.2-2.35 1.2s-1.8-.4-2.338-1.2c-.537-.8-.799-1.975-.799-3.513 0-1.525.262-2.7.799-3.512.538-.8 1.326-1.213 2.351-1.213m7.95.975c-.638 0-1.113.313-1.438.938s-.475 1.562-.475 2.812.15 2.188.475 2.813.8.937 1.438.937 1.112-.312 1.437-.937c.313-.625.475-1.563.475-2.813s-.162-2.187-.475-2.812c-.325-.625-.8-.938-1.437-.938m0-.975c1.012 0 1.787.413 2.337 1.213.538.812.813 1.987.813 3.512 0 1.538-.275 2.713-.813 3.513-.55.8-1.325 1.2-2.35 1.2s-1.8-.4-2.337-1.2-.8-1.975-.8-3.513c0-1.525.262-2.7.8-3.512.537-.8 1.325-1.213 2.35-1.213" style="fill-rule:nonzero"/><path d="M46.795 198.829h-2.187" style="fill:none;fill-rule:nonzero;stroke:#000;stroke-width:.5px"/><path d="M18.573 195.28c-.638 0-1.113.312-1.438.937s-.475 1.563-.475 2.813.15 2.187.475 2.812.8.938 1.438.938 1.112-.313 1.437-.938c.313-.625.475-1.562.475-2.812s-.162-2.188-.475-2.813c-.325-.625-.8-.937-1.437-.937m0-.975c1.012 0 1.787.412 2.337 1.212.538.813.813 1.988.813 3.513 0 1.537-.275 2.712-.813 3.512-.55.8-1.325 1.2-2.35 1.2s-1.8-.4-2.337-1.2-.8-1.975-.8-3.512c0-1.525.262-2.7.8-3.513.537-.8 1.325-1.212 2.35-1.212" style="fill-rule:nonzero"/><path d="M23.885 202.03h1.288v1.55h-1.288z"/><path d="M28.923 202.542h4.3v1.038h-5.788v-1.038q.694-.713 1.913-1.95c.8-.812 1.312-1.337 1.525-1.575q.6-.656.825-1.125c.15-.3.237-.612.237-.912 0-.475-.175-.875-.512-1.175-.338-.3-.775-.463-1.325-.463-.388 0-.8.075-1.225.2a7.5 7.5 0 0 0-1.375.613v-1.25q.75-.3 1.387-.45c.425-.1.825-.15 1.188-.15q1.406 0 2.25.712c.562.475.849 1.1.849 1.888 0 .375-.074.737-.212 1.062-.137.338-.388.738-.763 1.188-.099.125-.424.462-.974 1.025s-1.313 1.35-2.3 2.362m6.9-8.075h4.837v1.038h-3.712v2.237c.175-.062.362-.112.537-.137s.363-.05.538-.05c1.012 0 1.812.287 2.412.837.6.563.9 1.313.9 2.263 0 .987-.312 1.75-.925 2.287-.612.538-1.475.8-2.575.8-.388 0-.775-.037-1.175-.087-.4-.063-.8-.15-1.225-.288v-1.237c.362.2.737.35 1.138.45.387.1.8.137 1.237.137.7 0 1.263-.175 1.675-.55.4-.375.613-.875.613-1.512 0-.625-.213-1.125-.613-1.5-.412-.375-.975-.563-1.675-.563-.325 0-.663.038-.987.113a5.5 5.5 0 0 0-1 .337z" style="fill-rule:nonzero"/><path d="M46.795 171.071h-2.187" style="fill:none;fill-rule:nonzero;stroke:#000;stroke-width:.5px"/><path d="M18.573 167.522c-.638 0-1.113.312-1.438.938s-.475 1.562-.475 2.812.15 2.187.475 2.812.8.938 1.438.938 1.112-.313 1.437-.938c.313-.625.475-1.562.475-2.812s-.162-2.188-.475-2.812c-.325-.626-.8-.938-1.437-.938m0-.975c1.012 0 1.787.413 2.337 1.212.538.813.813 1.988.813 3.513 0 1.537-.275 2.712-.813 3.512-.55.8-1.325 1.2-2.35 1.2s-1.8-.4-2.337-1.2-.8-1.975-.8-3.512c0-1.525.262-2.7.8-3.513.537-.799 1.325-1.212 2.35-1.212" style="fill-rule:nonzero"/><path d="M23.885 174.272h1.288v1.55h-1.288z"/><path d="M27.873 166.709h4.837v1.038h-3.712v2.237c.175-.062.362-.112.537-.137s.363-.05.538-.05c1.012 0 1.812.287 2.412.838.6.562.9 1.312.9 2.262 0 .988-.312 1.75-.925 2.287-.612.538-1.475.8-2.575.8a10 10 0 0 1-1.175-.087c-.4-.063-.8-.15-1.225-.288v-1.237c.363.2.738.35 1.138.45.387.1.799.137 1.237.137.7 0 1.263-.175 1.675-.55.4-.375.613-.875.613-1.512 0-.625-.213-1.125-.613-1.5-.412-.375-.975-.563-1.675-.563-.325 0-.663.038-.987.113a5.5 5.5 0 0 0-1 .337zm10.575.813c-.638 0-1.113.312-1.438.938s-.475 1.562-.475 2.812.15 2.187.475 2.812.8.938 1.438.938 1.112-.313 1.437-.938c.313-.625.475-1.562.475-2.812s-.162-2.188-.475-2.812c-.325-.626-.8-.938-1.437-.938m0-.975c1.012 0 1.787.413 2.337 1.212.538.813.813 1.988.813 3.513 0 1.537-.275 2.712-.813 3.512-.55.8-1.325 1.2-2.35 1.2s-1.8-.4-2.337-1.2-.8-1.975-.8-3.512c0-1.525.262-2.7.8-3.513.537-.799 1.325-1.212 2.35-1.212" style="fill-rule:nonzero"/><path d="M46.795 143.313h-2.187" style="fill:none;fill-rule:nonzero;stroke:#000;stroke-width:.5px"/><path d="M18.573 139.764c-.638 0-1.113.313-1.438.937s-.475 1.563-.475 2.813.15 2.188.475 2.812c.325.625.8.938 1.438.938s1.112-.313 1.437-.938c.313-.624.475-1.562.475-2.812s-.162-2.188-.475-2.813c-.325-.624-.8-.937-1.437-.937m0-.975c1.012 0 1.787.412 2.337 1.213.538.812.813 1.987.813 3.512 0 1.537-.275 2.713-.813 3.512-.55.8-1.325 1.2-2.35 1.2s-1.8-.4-2.337-1.2-.8-1.975-.8-3.512c0-1.525.262-2.7.8-3.512.537-.801 1.325-1.213 2.35-1.213" style="fill-rule:nonzero"/><path d="M23.885 146.514h1.288v1.55h-1.288z"/><path d="M27.547 138.952h5.863v.525l-3.312 8.587H28.81l3.113-8.075h-4.376zm8.276 0h4.837v1.037h-3.712v2.237c.175-.062.362-.112.537-.137s.363-.05.538-.05c1.012 0 1.812.288 2.412.838.6.562.9 1.312.9 2.262 0 .987-.312 1.75-.925 2.288-.612.537-1.475.799-2.575.799-.388 0-.775-.037-1.175-.087-.4-.063-.8-.15-1.225-.288v-1.237c.362.2.737.35 1.138.45.387.1.8.138 1.237.138.7 0 1.263-.176 1.675-.551.4-.375.613-.874.613-1.512 0-.625-.213-1.125-.613-1.5-.412-.375-.975-.562-1.675-.562a4.4 4.4 0 0 0-.987.112 5.5 5.5 0 0 0-1 .338z" style="fill-rule:nonzero"/><path d="M46.795 115.555h-2.187" style="fill:none;fill-rule:nonzero;stroke:#000;stroke-width:.5px"/><path d="M16.147 119.269h2.013v-6.951l-2.187.438v-1.125l2.175-.438h1.237v8.076h2.012v1.037h-5.25z" style="fill-rule:nonzero"/><path d="M23.885 118.756h1.288v1.55h-1.288z"/><path d="M30.498 112.007c-.638-.001-1.113.311-1.438.937-.325.625-.475 1.562-.475 2.813 0 1.249.15 2.186.475 2.812s.8.938 1.438.938c.637-.001 1.112-.313 1.437-.938.313-.626.475-1.563.475-2.813s-.162-2.187-.475-2.812c-.325-.626-.8-.938-1.437-.938Zm0-.974c1.012 0 1.787.412 2.337 1.212.538.812.813 1.987.813 3.513 0 1.537-.275 2.711-.813 3.512-.55.8-1.325 1.2-2.35 1.2s-1.8-.4-2.338-1.2c-.537-.801-.799-1.975-.799-3.513 0-1.525.262-2.7.799-3.513.538-.799 1.326-1.211 2.351-1.211m7.95.974c-.638-.001-1.113.311-1.438.937-.325.625-.475 1.562-.475 2.813 0 1.249.15 2.186.475 2.812s.8.938 1.438.938c.637-.001 1.112-.313 1.437-.938.313-.626.475-1.563.475-2.813s-.162-2.187-.475-2.812c-.325-.626-.8-.938-1.437-.938Zm0-.974c1.012 0 1.787.412 2.337 1.212.538.812.813 1.987.813 3.513 0 1.537-.275 2.711-.813 3.512-.55.8-1.325 1.2-2.35 1.2s-1.8-.4-2.337-1.2c-.538-.801-.8-1.975-.8-3.513 0-1.525.262-2.7.8-3.513.537-.799 1.325-1.211 2.35-1.211" style="fill-rule:nonzero"/><path d="M46.795 87.798h-2.187" style="fill:none;fill-rule:nonzero;stroke:#000;stroke-width:.5px"/><path d="M16.147 91.511h2.013v-6.95l-2.187.437v-1.125l2.175-.437h1.237v8.075h2.012v1.037h-5.25z" style="fill-rule:nonzero"/><path d="M23.885 90.998h1.288v1.55h-1.288z"/><path d="M28.923 91.511h4.3v1.037h-5.788v-1.037q.694-.712 1.913-1.95c.8-.813 1.312-1.338 1.525-1.575q.6-.657.825-1.125c.15-.3.237-.613.237-.912 0-.475-.175-.876-.512-1.176-.338-.3-.775-.462-1.325-.462-.388 0-.8.075-1.225.2a7.5 7.5 0 0 0-1.375.612v-1.25a10 10 0 0 1 1.387-.45 5.3 5.3 0 0 1 1.188-.15q1.406 0 2.25.713c.562.475.849 1.1.849 1.888 0 .375-.074.737-.212 1.062-.137.338-.388.738-.763 1.188-.099.125-.424.462-.974 1.025s-1.313 1.35-2.3 2.362m6.9-8.075h4.837v1.037h-3.712v2.238c.175-.063.362-.112.537-.138.175-.025.363-.049.538-.049 1.012 0 1.812.287 2.412.837.6.562.9 1.312.9 2.262 0 .988-.312 1.75-.925 2.288-.612.538-1.475.8-2.575.8-.388 0-.775-.037-1.175-.088-.4-.062-.8-.15-1.225-.287v-1.237c.362.199.737.349 1.138.45.387.099.8.137 1.237.137.7 0 1.263-.175 1.675-.55.4-.375.613-.875.613-1.513 0-.624-.213-1.125-.613-1.5-.412-.375-.975-.562-1.675-.562a4.4 4.4 0 0 0-.987.112 5.5 5.5 0 0 0-1 .338z" style="fill-rule:nonzero"/><path d="M46.795 60.04h-2.187" style="fill:none;fill-rule:nonzero;stroke:#000;stroke-width:.5px"/><path d="M16.147 63.753h2.013v-6.95l-2.187.438v-1.125l2.175-.438h1.237v8.075h2.012v1.037h-5.25z" style="fill-rule:nonzero"/><path d="M23.885 63.24h1.288v1.55h-1.288z"/><path d="M27.873 55.678h4.837v1.038h-3.712v2.237c.175-.062.362-.112.537-.137s.363-.05.538-.05c1.012 0 1.812.287 2.412.837.6.563.9 1.313.9 2.263 0 .987-.312 1.75-.925 2.287-.612.538-1.475.8-2.575.8a10 10 0 0 1-1.175-.087c-.4-.063-.8-.15-1.225-.288v-1.237c.363.2.738.35 1.138.45.387.1.799.137 1.237.137.7 0 1.263-.175 1.675-.55.4-.375.613-.875.613-1.512 0-.625-.213-1.125-.613-1.5-.412-.375-.975-.563-1.675-.563a4.5 4.5 0 0 0-.987.112 5.6 5.6 0 0 0-1 .338zm10.575.813c-.638 0-1.113.312-1.438.937s-.475 1.563-.475 2.813.15 2.187.475 2.812.8.938 1.438.938 1.112-.313 1.437-.938c.313-.625.475-1.562.475-2.812s-.162-2.188-.475-2.813c-.325-.625-.8-.937-1.437-.937m0-.975c1.012 0 1.787.412 2.337 1.212.538.813.813 1.988.813 3.513 0 1.537-.275 2.712-.813 3.512-.55.8-1.325 1.2-2.35 1.2s-1.8-.4-2.337-1.2-.8-1.975-.8-3.512c0-1.525.262-2.7.8-3.513.537-.8 1.325-1.212 2.35-1.212" style="fill-rule:nonzero"/><path d="M46.795 32.282h-2.187" style="fill:none;fill-rule:nonzero;stroke:#000;stroke-width:.5px"/><path d="M16.147 35.996h2.013v-6.951l-2.187.437v-1.125l2.175-.437h1.237v8.076h2.012v1.037h-5.25z" style="fill-rule:nonzero"/><path d="M23.885 35.483h1.288v1.55h-1.288z"/><path d="M27.547 27.92h5.863v.525l-3.312 8.588H28.81l3.113-8.075h-4.376zm8.276 0h4.837v1.038h-3.712v2.238c.175-.064.362-.113.537-.139.175-.024.363-.049.538-.049 1.012 0 1.812.287 2.412.837.6.562.9 1.312.9 2.263 0 .988-.312 1.75-.925 2.287-.612.538-1.475.801-2.575.801a10 10 0 0 1-1.175-.088c-.4-.063-.8-.15-1.225-.287v-1.238c.362.199.737.349 1.138.45.387.1.8.137 1.237.137.7 0 1.263-.174 1.675-.549.4-.375.613-.876.613-1.513 0-.625-.213-1.125-.613-1.5-.412-.375-.975-.563-1.675-.563-.325 0-.663.038-.987.113a5.5 5.5 0 0 0-1 .337z" style="fill-rule:nonzero"/><path d="M46.795 4.524h-2.187" style="fill:none;fill-rule:nonzero;stroke:#000;stroke-width:.5px"/><path d="M16.998 8.237h4.3v1.038H15.51V8.237q.694-.712 1.912-1.95a65 65 0 0 0 1.526-1.575q.6-.655.825-1.125c.15-.3.237-.612.237-.912 0-.475-.175-.875-.512-1.175-.338-.3-.775-.463-1.326-.463-.387 0-.799.075-1.224.201a7.5 7.5 0 0 0-1.375.612V.6q.749-.3 1.387-.45c.425-.1.825-.15 1.188-.15q1.406 0 2.25.713c.562.474.85 1.1.85 1.887 0 .375-.076.738-.213 1.062-.137.338-.388.738-.763 1.188-.099.125-.424.462-.975 1.025-.549.562-1.312 1.35-2.299 2.362" style="fill-rule:nonzero"/><path d="M23.885 7.725h1.288v1.55h-1.288z"/><path d="M30.498.975c-.638 0-1.113.313-1.438.937s-.475 1.563-.475 2.813.15 2.188.475 2.812c.325.625.8.938 1.438.938s1.112-.313 1.437-.938c.313-.624.475-1.562.475-2.812s-.162-2.188-.475-2.813c-.325-.624-.8-.937-1.437-.937m0-.975c1.012 0 1.787.412 2.337 1.213.538.812.813 1.987.813 3.512 0 1.537-.275 2.713-.813 3.512-.55.8-1.325 1.2-2.35 1.2s-1.8-.4-2.338-1.2c-.537-.799-.799-1.975-.799-3.512 0-1.525.262-2.7.799-3.512C28.685.412 29.473 0 30.498 0m7.95.975c-.638 0-1.113.313-1.438.937s-.475 1.563-.475 2.813.15 2.188.475 2.812c.325.625.8.938 1.438.938s1.112-.313 1.437-.938c.313-.624.475-1.562.475-2.812s-.162-2.188-.475-2.813c-.325-.624-.8-.937-1.437-.937m0-.975c1.012 0 1.787.412 2.337 1.213.538.812.813 1.987.813 3.512 0 1.537-.275 2.713-.813 3.512-.55.8-1.325 1.2-2.35 1.2s-1.8-.4-2.337-1.2-.8-1.975-.8-3.512c0-1.525.262-2.7.8-3.512C36.635.412 37.423 0 38.448 0M2.863 157.205h1.062c-.15.325-.275.65-.362.988a5 5 0 0 0-.125 1.062c0 .562.087.988.262 1.263a.85.85 0 0 0 .762.412.72.72 0 0 0 .613-.3c.15-.2.3-.6.425-1.2l.087-.387c.175-.801.426-1.363.726-1.701.312-.324.75-.499 1.3-.499q.955 0 1.5.75c.375.499.549 1.2.549 2.074 0 .375-.037.75-.099 1.151-.063.4-.163.812-.313 1.249H8.088a5.2 5.2 0 0 0 .487-1.224c.113-.4.163-.801.163-1.2 0-.525-.088-.938-.263-1.225a.88.88 0 0 0-.775-.425c-.3 0-.537.112-.7.312s-.325.65-.475 1.35l-.087.387c-.151.701-.375 1.213-.676 1.513-.299.313-.712.463-1.249.463-.638 0-1.138-.225-1.488-.675q-.525-.675-.525-1.95c0-.413.037-.8.1-1.175q.094-.544.263-1.013m.587-4.8q0 .9.713 1.425c.475.35 1.112.525 1.925.525.825 0 1.462-.163 1.937-.512.475-.35.7-.825.7-1.438 0-.6-.225-1.075-.7-1.425s-1.112-.525-1.937-.525c-.8 0-1.45.175-1.925.525q-.713.525-.713 1.425m-.95 0c0-.975.325-1.738.95-2.3.637-.55 1.513-.837 2.638-.837s2 .287 2.625.837c.637.562.949 1.325.949 2.3 0 .988-.312 1.763-.949 2.312q-.937.826-2.625.825c-1.125 0-2.001-.274-2.638-.825-.625-.549-.95-1.324-.95-2.312M0 143.943h.938l-.001 1.075c0 .399.088.687.25.838.163.161.451.237.875.237h.601v-1.85h.875v1.85H9.5v1.125H3.538v1.075h-.875v-1.075h-.475c-.75 0-1.313-.175-1.663-.525Q0 146.169 0 145.005zm.725-1.835h1.938v-2.313h.875v2.313H7.25c.563 0 .925-.075 1.075-.225.163-.15.238-.463.238-.938v-1.15H9.5v1.15q0 1.312-.487 1.8-.488.488-1.763.488H3.538v.825h-.875v-.825H.725zM5.8 132.47h.55v5.162c.775-.05 1.375-.275 1.775-.699.4-.413.6-.988.6-1.738a4.9 4.9 0 0 0-.637-2.462H9.15c.175.399.313.812.388 1.237s.124.863.124 1.288c0 1.099-.312 1.962-.937 2.599s-1.487.951-2.575.951q-1.668 0-2.662-.9c-.65-.6-.988-1.425-.988-2.451 0-.924.3-1.649.888-2.187.6-.525 1.399-.8 2.412-.8m-.325 1.125c-.612.012-1.1.188-1.475.513-.363.337-.55.787-.55 1.337 0 .625.187 1.125.538 1.5.349.375.849.6 1.487.65zm-.1-8.65H9.5v1.125H5.413c-.651 0-1.125.138-1.451.387q-.487.377-.487 1.125c0 .613.2 1.088.588 1.438q.58.525 1.575.525H9.5v1.125H2.663v-1.125h1.062c-.4-.262-.712-.575-.913-.95a2.6 2.6 0 0 1-.312-1.262c0-.776.25-1.376.738-1.776.487-.399 1.2-.612 2.137-.612m-2.712-2.237v-1.126l6.837.001v1.124zM0 122.707v-1.124l1.425-.001v1.126zm5.375-9.162H9.5v1.125H5.413c-.651 0-1.125.138-1.451.388q-.487.374-.487 1.124c0 .613.2 1.088.588 1.438q.58.525 1.575.525H9.5v1.125H2.663v-1.125h1.062c-.4-.262-.712-.575-.913-.95a2.6 2.6 0 0 1-.312-1.262c0-.775.25-1.375.738-1.776.487-.399 1.2-.612 2.137-.612M6 106.807c-.8 0-1.438.176-1.888.501-.45.337-.674.812-.674 1.412s.224 1.075.674 1.413c.45.337 1.088.499 1.888.499.813 0 1.438-.162 1.888-.499.45-.338.675-.813.675-1.413s-.225-1.075-.675-1.412c-.45-.325-1.075-.501-1.888-.501m2.65-1.125c1.15 0 2.013.263 2.588.776.562.525.85 1.312.85 2.374 0 .401-.038.763-.088 1.113-.062.35-.15.7-.275 1.025h-1.088c.176-.325.3-.65.388-.975s.137-.65.137-.987c0-.725-.199-1.275-.574-1.65-.388-.363-.963-.551-1.738-.551H8.3q.6.357.9.9c.2.363.3.788.3 1.288 0 .85-.313 1.525-.95 2.038s-1.487.762-2.55.762c-1.05 0-1.9-.25-2.537-.762-.638-.513-.963-1.188-.963-2.038 0-.5.1-.925.3-1.288q.3-.543.9-.9H2.663v-1.125zm-5.787-10.65h1.062c-.15.326-.275.651-.362.988-.075.35-.125.7-.125 1.063 0 .562.087.987.262 1.262a.85.85 0 0 0 .762.413.72.72 0 0 0 .613-.3c.15-.201.3-.6.425-1.2l.087-.388c.175-.8.426-1.362.726-1.7.312-.325.75-.5 1.3-.5q.955 0 1.5.75c.375.5.549 1.2.549 2.076 0 .375-.037.75-.099 1.149-.063.4-.163.813-.313 1.25H8.088a5.2 5.2 0 0 0 .487-1.225c.113-.4.163-.799.163-1.2 0-.525-.088-.938-.263-1.225a.88.88 0 0 0-.775-.425c-.3 0-.537.113-.7.313s-.325.65-.475 1.35l-.087.388c-.151.699-.375 1.211-.676 1.511-.299.313-.712.463-1.249.463-.638 0-1.138-.225-1.488-.675q-.525-.675-.525-1.95c0-.412.037-.8.1-1.175q.094-.543.263-1.013m.062-7.074h1.05c-.175.325-.3.637-.388.962a3.7 3.7 0 0 0-.137.963c0 .724.238 1.3.7 1.699.463.401 1.113.601 1.938.601q1.256 0 1.95-.601c.462-.399.687-.975.687-1.699 0-.325-.037-.638-.125-.963a4.5 4.5 0 0 0-.4-.962h1.038c.15.325.262.65.325.975.062.337.099.7.099 1.075 0 1.025-.312 1.85-.962 2.45-.637.612-1.513.912-2.612.912-1.113 0-1.988-.3-2.625-.912-.638-.613-.963-1.45-.963-2.525q0-.525.113-1.013c.075-.325.175-.65.312-.962m3.138-5.063c0 .913.112 1.538.312 1.888.212.349.563.525 1.063.525.399 0 .724-.125.949-.388.238-.262.351-.625.351-1.075 0-.625-.213-1.124-.663-1.499q-.656-.564-1.762-.563h-.25zM5.6 80.658h3.9v1.125H8.463c.424.262.724.587.912.962.187.375.287.85.287 1.4 0 .7-.187 1.263-.574 1.675-.388.413-.913.613-1.575.613-.763 0-1.338-.251-1.738-.776-.388-.512-.587-1.275-.587-2.3v-1.574h-.113c-.513 0-.912.175-1.2.512-.275.338-.425.812-.425 1.425 0 .4.05.775.15 1.15s.238.725.412 1.063H2.975c-.15-.4-.275-.801-.35-1.188a6 6 0 0 1-.125-1.137c0-.988.262-1.725.775-2.213.513-.487 1.287-.737 2.325-.737" style="fill-rule:nonzero"/><path d="M0 77.22h9.5v1.125H0z"/><path d="M5.8 69.02h.55v5.162c.775-.049 1.375-.274 1.775-.699.4-.413.6-.988.6-1.738a4.9 4.9 0 0 0-.637-2.462H9.15c.175.399.313.812.388 1.237a7.5 7.5 0 0 1 .124 1.288c0 1.099-.312 1.962-.937 2.599s-1.487.951-2.575.951q-1.668 0-2.662-.9c-.65-.6-.988-1.425-.988-2.451 0-.924.3-1.65.888-2.186.6-.525 1.399-.801 2.412-.801m-.325 1.125c-.612.013-1.1.188-1.475.513-.363.337-.55.787-.55 1.338 0 .624.187 1.125.538 1.5.349.375.849.6 1.487.649z" style="fill-rule:nonzero"/><clipPath id="a"><path d="M46.795 4.524h241.203v222.062H46.795z" clip-rule="nonzero"/></clipPath><g clip-path="url(#a)"><path d="M46.795 115.555h241.203" style="fill:none;fill-rule:nonzero;stroke:#000;stroke-width:.62px;stroke-dasharray:2.31,1"/></g><path d="M46.795 226.587V4.524m241.203 222.063V4.524M46.795 226.587h241.203M46.795 4.524h241.203" style="fill:none;fill-rule:nonzero;stroke:#000;stroke-width:.5px;stroke-linecap:square;stroke-linejoin:miter"/><path d="M59.87 208.846v1.062a6 6 0 0 0-.988-.362 5 5 0 0 0-1.062-.125c-.563 0-.987.087-1.263.262a.85.85 0 0 0-.412.763c0 .262.1.462.3.612s.6.3 1.2.425l.388.088c.8.175 1.362.425 1.699.725.326.312.501.75.501 1.3q0 .956-.75 1.5c-.501.375-1.201.55-2.076.55-.374 0-.749-.038-1.15-.1a7.4 7.4 0 0 1-1.25-.313v-1.162c.413.225.826.387 1.226.487.399.113.8.163 1.2.163.525 0 .937-.088 1.224-.263a.87.87 0 0 0 .426-.775c0-.3-.113-.537-.313-.7s-.65-.325-1.35-.475l-.387-.087c-.7-.15-1.213-.375-1.513-.675-.312-.3-.463-.713-.463-1.25 0-.638.225-1.138.676-1.488q.675-.525 1.949-.525c.413 0 .801.038 1.176.1q.543.094 1.012.263m4.8.587q-.9 0-1.425.713c-.35.475-.525 1.112-.525 1.925 0 .825.162 1.462.513 1.937.35.475.824.7 1.437.7.6 0 1.075-.225 1.425-.7s.525-1.112.525-1.937c0-.8-.175-1.45-.525-1.925q-.525-.713-1.425-.713m0-.95c.975 0 1.738.325 2.3.95.55.638.837 1.513.837 2.638s-.287 2-.837 2.625c-.562.637-1.325.95-2.3.95-.988 0-1.762-.313-2.313-.95q-.825-.938-.825-2.625c0-1.125.275-2 .825-2.638.551-.625 1.325-.95 2.313-.95m8.462-2.5v.938h-1.074c-.4 0-.688.087-.838.25-.163.162-.237.45-.237.875v.6h1.85v.875h-1.85v5.962h-1.126v-5.962h-1.075v-.875h1.075v-.475c0-.75.176-1.313.525-1.663q.525-.525 1.688-.525zm1.836.725v1.938h2.312v.875h-2.312v3.712c0 .563.075.925.225 1.075.15.163.462.238.937.238h1.15v.937h-1.15q-1.312 0-1.8-.487-.487-.488-.487-1.763v-3.712h-.825v-.875h.825v-1.938zm9.637 5.075v.55h-5.162c.049.775.274 1.375.7 1.775.412.4.987.6 1.737.6.425 0 .85-.05 1.25-.15s.813-.262 1.213-.487v1.062c-.4.175-.813.313-1.238.388a7.5 7.5 0 0 1-1.288.125c-1.099 0-1.962-.313-2.599-.938s-.95-1.487-.95-2.575q0-1.668.9-2.662c.6-.65 1.425-.988 2.45-.988.925 0 1.65.3 2.187.888.525.6.8 1.4.8 2.412m-1.125-.325c-.013-.612-.187-1.1-.512-1.475-.338-.362-.787-.55-1.338-.55-.625 0-1.125.188-1.5.538s-.6.85-.65 1.487zm8.65-.1v4.125h-1.125v-4.087c0-.65-.137-1.125-.387-1.45q-.376-.488-1.125-.488c-.613 0-1.088.2-1.438.588q-.525.58-.525 1.575v3.862h-1.125v-6.837h1.125v1.062c.263-.4.575-.712.95-.912.363-.2.788-.313 1.263-.313.774 0 1.374.25 1.775.738.4.487.612 1.2.612 2.137m2.238-2.712h1.125v6.837h-1.125zm0-2.663h1.125v1.425h-1.125zm9.162 5.375v4.125h-1.125v-4.087c0-.65-.137-1.125-.387-1.45q-.377-.488-1.125-.488c-.613 0-1.088.2-1.438.588q-.525.58-.525 1.575v3.862h-1.125v-6.837h1.125v1.062c.263-.4.575-.712.95-.912.363-.2.788-.313 1.263-.313.774 0 1.374.25 1.775.738.4.487.612 1.2.612 2.137m6.738.625c0-.8-.176-1.437-.5-1.887-.338-.45-.813-.675-1.413-.675s-1.075.225-1.413.675c-.337.45-.499 1.087-.499 1.887 0 .813.162 1.438.499 1.888.338.45.813.675 1.413.675s1.075-.225 1.413-.675c.324-.45.5-1.075.5-1.888m1.125 2.65c0 1.15-.263 2.013-.776 2.588-.525.562-1.312.85-2.374.85-.401 0-.763-.038-1.113-.088-.35-.062-.7-.15-1.025-.275v-1.087c.325.175.65.3.975.387s.65.138.987.138c.726 0 1.275-.2 1.65-.575.363-.388.551-.963.551-1.738v-.55q-.357.6-.9.9c-.363.2-.788.3-1.288.3-.85 0-1.525-.312-2.038-.95s-.762-1.487-.762-2.55c0-1.05.25-1.9.762-2.537.513-.638 1.188-.963 2.038-.963.5 0 .925.1 1.288.3q.543.3.9.9v-1.037h1.125zm8.987-8.637c-.55.95-.95 1.875-1.213 2.787a9.6 9.6 0 0 0-.399 2.775c0 .95.125 1.875.399 2.788.263.925.663 1.837 1.213 2.775h-.975c-.613-.963-1.075-1.888-1.375-2.813a8.9 8.9 0 0 1-.45-2.75q0-1.35.45-2.737c.3-.925.75-1.863 1.375-2.825zm5.638-.013v.938h-1.076c-.399 0-.687.087-.837.25-.162.162-.237.45-.237.875v.6h1.85v.875h-1.85v5.962h-1.125v-5.962h-1.075v-.875h1.075v-.475c0-.75.174-1.313.525-1.663q.525-.525 1.687-.525zm3.587 3.45q-.9 0-1.425.713c-.35.475-.525 1.112-.525 1.925 0 .825.163 1.462.512 1.937.351.475.825.7 1.438.7.6 0 1.075-.225 1.425-.7s.525-1.112.525-1.937c0-.8-.174-1.45-.525-1.925q-.525-.713-1.425-.713m0-.95c.975 0 1.738.325 2.3.95.55.638.837 1.513.837 2.638s-.287 2-.837 2.625c-.562.637-1.325.95-2.3.95-.988 0-1.762-.313-2.312-.95q-.826-.938-.825-2.625c0-1.125.274-2 .825-2.638.55-.625 1.324-.95 2.312-.95m8.963 1.213a1.5 1.5 0 0 0-.413-.163 3 3 0 0 0-.487-.05c-.638 0-1.125.213-1.463.625-.35.413-.512 1-.512 1.775v3.6h-1.125v-6.837h1.125v1.062c.225-.412.537-.725.912-.925q.563-.3 1.387-.3c.075 0 .163.013.263.013.088.012.187.025.313.05zm5.827-.788v1.05a4.4 4.4 0 0 0-.963-.387 3.6 3.6 0 0 0-.963-.138c-.725 0-1.299.238-1.7.7-.4.463-.6 1.113-.6 1.938q0 1.255.6 1.95c.401.462.975.687 1.7.687.325 0 .638-.037.963-.125.325-.087.637-.225.963-.4v1.038c-.326.15-.651.262-.975.325-.338.062-.701.1-1.076.1-1.025 0-1.85-.313-2.449-.963-.613-.637-.913-1.512-.913-2.612 0-1.113.3-1.988.913-2.625.612-.638 1.449-.963 2.524-.963q.525 0 1.013.113c.325.075.65.175.963.312m7.8 2.875v.55h-5.163c.05.775.275 1.375.7 1.775.413.4.987.6 1.737.6.425 0 .851-.05 1.25-.15.4-.1.813-.262 1.213-.487v1.062a5.5 5.5 0 0 1-1.237.388 7.5 7.5 0 0 1-1.288.125c-1.1 0-1.963-.313-2.6-.938-.638-.625-.95-1.487-.95-2.575q0-1.668.9-2.662c.6-.65 1.425-.988 2.45-.988.925 0 1.65.3 2.187.888.525.6.801 1.4.801 2.412m-1.125-.325c-.013-.612-.188-1.1-.513-1.475-.338-.362-.788-.55-1.338-.55-.624 0-1.125.188-1.5.538s-.6.85-.65 1.487zm6.825 1.325v-4.137h1.125v4.1c0 .65.124 1.125.375 1.45.249.325.624.487 1.137.487.6 0 1.087-.187 1.437-.575s.525-.912.525-1.587v-3.875h1.125v6.837h-1.125v-1.05c-.275.425-.6.725-.95.925a2.66 2.66 0 0 1-1.249.288c-.788 0-1.388-.238-1.789-.725-.412-.475-.612-1.188-.612-2.138Zm13.725-1.425v4.125h-1.125v-4.087c0-.65-.138-1.125-.388-1.45q-.375-.488-1.125-.488c-.613 0-1.088.2-1.438.588q-.524.58-.524 1.575v3.862h-1.126v-6.837h1.126v1.062c.262-.4.574-.712.949-.912.362-.2.788-.313 1.263-.313.775 0 1.375.25 1.775.738.399.487.612 1.2.612 2.137Zm6.737-1.675v-3.7h1.125v9.5h-1.125v-1.025q-.357.62-.9.9c-.362.188-.788.288-1.288.288q-1.238 0-2.024-.975c-.526-.65-.776-1.525-.776-2.6s.25-1.938.776-2.6c.524-.65 1.199-.988 2.024-.988.5 0 .926.1 1.288.3q.543.3.9.9m-3.825 2.388c0 .825.162 1.475.5 1.95s.8.7 1.4.7 1.062-.225 1.413-.7c.337-.475.512-1.125.512-1.95s-.175-1.463-.512-1.938c-.351-.475-.813-.712-1.413-.712s-1.063.237-1.4.712c-.338.475-.5 1.113-.5 1.938m13.112-.288v.55h-5.162c.05.775.275 1.375.7 1.775.412.4.987.6 1.737.6.426 0 .851-.05 1.251-.15s.812-.262 1.212-.487v1.062a5.5 5.5 0 0 1-1.237.388 7.5 7.5 0 0 1-1.288.125c-1.1 0-1.963-.313-2.6-.938-.638-.625-.95-1.487-.95-2.575q0-1.668.9-2.662c.6-.65 1.425-.988 2.45-.988.925 0 1.65.3 2.188.888.525.6.799 1.4.799 2.412m-1.124-.325c-.013-.612-.188-1.1-.513-1.475-.338-.362-.788-.55-1.337-.55-.626 0-1.125.188-1.5.538s-.6.85-.651 1.487zm6.925-1.762a1.5 1.5 0 0 0-.413-.163 3 3 0 0 0-.487-.05c-.638 0-1.125.213-1.463.625-.35.413-.513 1-.513 1.775v3.6h-1.125v-6.837h1.125v1.062c.225-.412.538-.725.913-.925q.563-.3 1.387-.3c.075 0 .163.013.263.013.088.012.187.025.313.05zm2.262 4.762v3.613h-1.125v-9.425h1.125v1.037c.225-.4.525-.7.888-.9.362-.2.799-.3 1.299-.3.825 0 1.5.338 2.025.988.513.662.775 1.525.775 2.6s-.262 1.95-.775 2.6q-.787.975-2.025.975c-.5 0-.937-.1-1.299-.288-.363-.187-.663-.487-.888-.9m3.825-2.387c0-.825-.175-1.463-.513-1.938-.35-.475-.812-.712-1.4-.712-.6 0-1.062.237-1.399.712-.351.475-.513 1.113-.513 1.938s.162 1.475.513 1.95c.337.475.799.7 1.399.7.588 0 1.05-.225 1.4-.7.338-.475.513-1.125.513-1.95m6.987-2.375a1.5 1.5 0 0 0-.412-.163 3 3 0 0 0-.488-.05c-.637 0-1.125.213-1.462.625-.35.413-.512 1-.512 1.775v3.6h-1.125v-6.837h1.125v1.062c.225-.412.537-.725.912-.925q.562-.3 1.387-.3c.075 0 .163.013.263.013.087.012.187.025.312.05zm6.752 2.087v.55h-5.163c.051.775.276 1.375.7 1.775.413.4.988.6 1.738.6a4.9 4.9 0 0 0 2.462-.637v1.062a5.5 5.5 0 0 1-1.237.388 7.5 7.5 0 0 1-1.287.125c-1.101 0-1.963-.313-2.601-.938s-.95-1.487-.95-2.575q0-1.668.9-2.662c.6-.65 1.425-.988 2.45-.988.925 0 1.65.3 2.188.888.525.6.8 1.4.8 2.412m-1.125-.325c-.012-.612-.188-1.1-.513-1.475-.337-.362-.787-.55-1.337-.55-.625 0-1.125.188-1.5.538s-.6.85-.65 1.487zm7.462-1.775v-3.7h1.125v9.5h-1.125v-1.025q-.356.62-.9.9c-.362.188-.787.288-1.287.288q-1.238 0-2.025-.975c-.525-.65-.775-1.525-.775-2.6s.25-1.938.775-2.6c.525-.65 1.2-.988 2.025-.988.5 0 .925.1 1.287.3q.544.3.9.9m-3.825 2.388c0 .825.163 1.475.5 1.95.338.475.801.7 1.401.7s1.062-.225 1.412-.7c.337-.475.512-1.125.512-1.95s-.175-1.463-.512-1.938c-.35-.475-.812-.712-1.412-.712s-1.063.237-1.401.712c-.337.475-.5 1.113-.5 1.938m7.263-3.425h1.125v6.837h-1.125zm0-2.663h1.125v1.425h-1.125zm8.4 2.925v1.05a4.4 4.4 0 0 0-.963-.387 3.6 3.6 0 0 0-.962-.138c-.725 0-1.3.238-1.7.7-.4.463-.6 1.113-.6 1.938q0 1.255.6 1.95c.4.462.975.687 1.7.687.325 0 .637-.037.962-.125.326-.087.638-.225.963-.4v1.038a4.3 4.3 0 0 1-.975.325c-.337.062-.7.1-1.075.1-1.025 0-1.85-.313-2.45-.963-.613-.637-.913-1.512-.913-2.612 0-1.113.3-1.988.913-2.625.612-.638 1.45-.963 2.525-.963q.525 0 1.012.113c.326.075.65.175.963.312m3.062-2.2v1.938h2.313v.875h-2.313v3.712c0 .563.075.925.225 1.075.15.163.463.238.938.238h1.15v.937h-1.15q-1.312 0-1.8-.487-.488-.488-.488-1.763v-3.712h-.825v-.875h.825v-1.938zm3.788 1.938h1.125v6.837h-1.125zm0-2.663h1.125v1.425h-1.125zm6.125 3.45q-.9 0-1.425.713c-.35.475-.525 1.112-.525 1.925 0 .825.162 1.462.513 1.937.35.475.824.7 1.437.7.6 0 1.075-.225 1.425-.7s.525-1.112.525-1.937c0-.8-.175-1.45-.525-1.925q-.525-.713-1.425-.713m0-.95c.975 0 1.737.325 2.3.95.55.638.837 1.513.837 2.638s-.287 2-.837 2.625c-.563.637-1.325.95-2.3.95-.988 0-1.762-.313-2.313-.95q-.825-.938-.825-2.625c0-1.125.275-2 .825-2.638.551-.625 1.325-.95 2.313-.95m10.688 2.875v4.125h-1.125v-4.087c0-.65-.138-1.125-.388-1.45q-.375-.488-1.125-.488c-.613 0-1.088.2-1.438.588q-.524.58-.525 1.575v3.862h-1.125v-6.837h1.125v1.062c.263-.4.575-.712.95-.912.363-.2.788-.313 1.263-.313.775 0 1.375.25 1.775.738.4.487.613 1.2.613 2.137m2.062-5.362h.975c.6.962 1.062 1.9 1.362 2.825s.463 1.837.463 2.737c0 .913-.163 1.825-.463 2.75s-.762 1.85-1.362 2.813h-.975c.537-.938.938-1.85 1.212-2.775.263-.913.401-1.838.401-2.788 0-.937-.138-1.862-.401-2.775a13.7 13.7 0 0 0-1.212-2.787M59.87 20.093v1.062a6 6 0 0 0-.988-.362 5 5 0 0 0-1.062-.125c-.563 0-.987.088-1.263.262a.85.85 0 0 0-.412.763c0 .262.1.462.3.612s.6.3 1.2.425l.388.088c.8.175 1.362.425 1.699.724.326.313.501.75.501 1.301q0 .956-.75 1.5c-.501.375-1.201.55-2.076.55-.374 0-.749-.038-1.15-.1a7.4 7.4 0 0 1-1.25-.313v-1.162c.413.225.826.387 1.226.487.399.113.8.163 1.2.163.525 0 .937-.088 1.224-.263a.87.87 0 0 0 .426-.775c0-.3-.113-.537-.313-.7s-.65-.324-1.35-.474l-.387-.088c-.7-.15-1.213-.375-1.513-.675-.312-.3-.463-.713-.463-1.25 0-.638.225-1.138.676-1.488q.675-.525 1.949-.525c.413 0 .801.038 1.176.1q.543.094 1.012.262Zm3.263-2.138v1.938h2.312v.875h-2.312v3.712c0 .562.075.926.225 1.076.15.162.462.236.937.236h1.15v.938h-1.15q-1.312 0-1.8-.487-.487-.488-.487-1.763v-3.712h-.825v-.875h.825v-1.938zm3.787 1.938h1.125v6.837H66.92zm0-2.663h1.125v1.426H66.92zm6.938 0v.938h-1.075c-.401 0-.688.087-.838.25-.163.163-.237.45-.237.875v.6h1.85v.875h-1.85v5.962h-1.125v-5.962h-1.075v-.875h1.075v-.476c0-.75.174-1.312.525-1.661q.525-.526 1.687-.526zm4.399 0v.938h-1.075c-.399 0-.687.087-.837.25-.162.163-.237.45-.237.875v.6h1.849v.875h-1.849v5.962h-1.125v-5.962h-1.076v-.875h1.076v-.476c0-.75.174-1.312.525-1.661q.525-.526 1.687-.526zm6.788 5.8v.55h-5.163c.051.775.276 1.375.701 1.775.412.4.987.6 1.737.6.425 0 .85-.05 1.25-.15s.812-.262 1.213-.487v1.063a5.5 5.5 0 0 1-1.238.387 7.6 7.6 0 0 1-1.287.125c-1.101 0-1.963-.313-2.601-.938s-.95-1.487-.95-2.574q0-1.67.901-2.663c.599-.65 1.425-.988 2.449-.988.926 0 1.65.3 2.188.887.525.6.8 1.401.8 2.413m-1.125-.325c-.012-.612-.188-1.1-.513-1.475-.337-.362-.787-.549-1.337-.549-.625 0-1.125.187-1.5.536-.375.351-.6.851-.65 1.488zm8.65-.1v4.125h-1.125v-4.088c0-.649-.138-1.125-.388-1.449q-.373-.488-1.125-.488c-.612 0-1.087.201-1.437.587q-.525.582-.525 1.576v3.862h-1.125v-6.837h1.125v1.062c.263-.4.575-.712.95-.912.362-.2.787-.313 1.262-.313.776 0 1.376.25 1.775.738.401.487.613 1.199.613 2.137m2.237-2.712h1.125v6.837h-1.125zm0-2.663h1.125v1.426h-1.125zm9.163 5.375v4.125h-1.125v-4.088c0-.649-.137-1.125-.388-1.449q-.373-.488-1.125-.488c-.612 0-1.087.201-1.437.587q-.525.582-.525 1.576v3.862h-1.125v-6.837h1.125v1.062c.262-.4.575-.712.95-.912.362-.2.787-.313 1.262-.313.776 0 1.376.25 1.775.738.4.487.613 1.199.613 2.137m6.737.626c0-.801-.174-1.438-.5-1.888-.337-.45-.812-.675-1.412-.675s-1.075.225-1.412.675c-.338.45-.501 1.087-.501 1.888 0 .812.163 1.436.501 1.887.337.45.812.674 1.412.674s1.075-.224 1.412-.674c.326-.451.5-1.075.5-1.887m1.125 2.649c0 1.15-.262 2.012-.774 2.588-.525.562-1.313.85-2.376.85-.399 0-.762-.038-1.112-.087-.35-.064-.7-.151-1.025-.276v-1.087c.325.174.65.3.975.388.325.087.65.137.988.137.724 0 1.275-.2 1.65-.575.362-.388.549-.963.549-1.738v-.55q-.356.6-.9.9c-.362.2-.787.3-1.287.3-.85 0-1.525-.312-2.037-.949-.513-.638-.763-1.489-.763-2.55 0-1.051.25-1.901.763-2.538.512-.638 1.187-.963 2.037-.963.5 0 .925.1 1.287.3q.544.302.9.9v-1.037h1.125zm8.988-8.637c-.55.95-.95 1.875-1.212 2.787a9.5 9.5 0 0 0-.401 2.775c0 .951.125 1.875.401 2.788.262.925.662 1.838 1.212 2.775h-.975c-.612-.963-1.075-1.888-1.375-2.812a8.9 8.9 0 0 1-.45-2.751q0-1.35.45-2.737c.3-.925.75-1.862 1.375-2.825zm5.637-.013v.938h-1.074c-.401 0-.688.087-.838.25-.163.163-.238.45-.238.875v.6h1.85v.875h-1.85v5.962h-1.125v-5.962h-1.075v-.875h1.075v-.476c0-.75.176-1.312.525-1.661q.525-.526 1.688-.526zm3.588 3.451q-.9-.001-1.425.712c-.35.475-.525 1.112-.525 1.925 0 .825.162 1.462.513 1.938.349.474.825.699 1.437.699.6 0 1.075-.225 1.425-.699.35-.476.525-1.113.525-1.938 0-.8-.175-1.45-.525-1.925q-.525-.713-1.425-.712m0-.951c.975 0 1.737.325 2.3.951.55.637.838 1.512.838 2.637s-.288 2-.838 2.625c-.563.637-1.325.95-2.3.95-.987 0-1.762-.313-2.313-.95q-.824-.937-.825-2.625c0-1.125.276-2 .825-2.637.551-.626 1.326-.951 2.313-.951m8.962 1.213a1.5 1.5 0 0 0-.412-.163c-.15-.024-.312-.05-.487-.05-.638 0-1.126.213-1.463.626-.35.412-.513.999-.513 1.774v3.6h-1.125v-6.837h1.125v1.062c.225-.413.538-.724.913-.925q.562-.3 1.388-.3c.075 0 .162.013.262.013.087.012.188.025.312.049zm5.827-.787v1.05a4.4 4.4 0 0 0-.962-.388 3.6 3.6 0 0 0-.962-.137c-.726 0-1.301.236-1.701.699s-.6 1.113-.6 1.938q0 1.256.6 1.95c.4.462.975.687 1.701.687.324 0 .637-.037.962-.125.324-.087.637-.225.962-.4v1.038c-.325.15-.649.262-.975.325-.338.062-.7.1-1.075.1-1.025 0-1.85-.313-2.45-.962-.612-.638-.912-1.513-.912-2.613 0-1.113.3-1.988.912-2.625.613-.638 1.451-.963 2.525-.963q.525 0 1.013.113c.324.075.65.175.962.313m7.8 2.874v.55h-5.162c.05.775.275 1.375.699 1.775.413.4.988.6 1.738.6a5.2 5.2 0 0 0 1.251-.15c.399-.1.812-.262 1.212-.487v1.063a5.5 5.5 0 0 1-1.238.387 7.6 7.6 0 0 1-1.287.125c-1.1 0-1.963-.313-2.6-.938-.638-.625-.951-1.487-.951-2.574q0-1.67.9-2.663c.6-.65 1.425-.988 2.451-.988.924 0 1.65.3 2.187.887.526.6.8 1.401.8 2.413m-1.125-.325c-.012-.612-.188-1.1-.512-1.475-.338-.362-.788-.549-1.338-.549-.625 0-1.125.187-1.5.536-.375.351-.6.851-.65 1.488zm9.588-2.024q-.9-.001-1.425.712c-.35.475-.525 1.112-.525 1.925 0 .825.162 1.462.512 1.938.351.474.825.699 1.438.699.6 0 1.075-.225 1.425-.699.35-.476.525-1.113.525-1.938 0-.8-.175-1.45-.525-1.925q-.525-.713-1.425-.712m0-.951c.975 0 1.737.325 2.3.951.55.637.837 1.512.837 2.637s-.287 2-.837 2.625c-.563.637-1.325.95-2.3.95-.988 0-1.762-.313-2.313-.95q-.825-.937-.825-2.625c0-1.125.275-2 .825-2.637.55-.626 1.325-.951 2.313-.951m4.2.163h1.187l2.138 5.738 2.137-5.738h1.187l-2.562 6.837h-1.525zm14.05 3.137v.55h-5.162c.049.775.274 1.375.699 1.775.413.4.988.6 1.738.6.424 0 .85-.05 1.25-.15s.813-.262 1.212-.487v1.063a5.5 5.5 0 0 1-1.237.387 7.6 7.6 0 0 1-1.288.125c-1.1 0-1.962-.313-2.6-.938-.637-.625-.95-1.487-.95-2.574q0-1.67.9-2.663c.6-.65 1.425-.988 2.451-.988.924 0 1.649.3 2.186.887.525.6.801 1.401.801 2.413m-1.125-.325c-.013-.612-.188-1.1-.513-1.475-.337-.362-.787-.549-1.337-.549-.625 0-1.125.187-1.5.536-.375.351-.601.851-.65 1.488zm6.925-1.762a1.5 1.5 0 0 0-.413-.163c-.15-.024-.312-.05-.487-.05-.638 0-1.125.213-1.463.626-.349.412-.512.999-.512 1.774v3.6h-1.125v-6.837h1.125v1.062c.225-.413.538-.724.913-.925q.562-.3 1.387-.3c.075 0 .162.013.262.013.087.012.188.025.313.049zm2.262 4.763v3.612h-1.125v-9.425h1.125v1.037c.225-.399.525-.699.887-.9.364-.2.801-.3 1.301-.3.825 0 1.5.338 2.025.988.512.662.775 1.525.775 2.6s-.263 1.949-.775 2.6q-.787.975-2.025.975c-.5 0-.937-.1-1.3-.287-.363-.188-.663-.488-.888-.901Zm3.825-2.387c0-.825-.174-1.463-.512-1.938-.35-.474-.813-.712-1.4-.712-.6 0-1.063.238-1.4.712-.35.475-.513 1.113-.513 1.938 0 .824.163 1.475.513 1.949.337.476.8.701 1.4.701.587 0 1.05-.225 1.4-.701.338-.474.512-1.125.512-1.949m6.988-2.376a1.5 1.5 0 0 0-.412-.163 3 3 0 0 0-.488-.05c-.637 0-1.125.213-1.462.626-.351.412-.514.999-.514 1.774v3.6h-1.125v-6.837h1.125v1.062c.225-.413.538-.724.913-.925q.563-.3 1.388-.3c.075 0 .162.013.262.013.088.012.188.025.313.049zm6.751 2.087v.55h-5.163c.051.775.276 1.375.701 1.775.412.4.987.6 1.737.6.425 0 .85-.05 1.25-.15s.813-.262 1.213-.487v1.063a5.5 5.5 0 0 1-1.238.387 7.6 7.6 0 0 1-1.287.125c-1.1 0-1.963-.313-2.6-.938-.638-.625-.95-1.487-.95-2.574q0-1.67.9-2.663c.6-.65 1.425-.988 2.449-.988.926 0 1.651.3 2.188.887.525.6.8 1.401.8 2.413m-1.125-.325c-.012-.612-.187-1.1-.512-1.475-.338-.362-.788-.549-1.338-.549-.625 0-1.125.187-1.5.536-.375.351-.6.851-.65 1.488zm7.463-1.775v-3.699h1.125v9.499h-1.125v-1.024q-.357.618-.9.9c-.363.187-.788.287-1.288.287q-1.238 0-2.025-.975c-.525-.651-.774-1.525-.774-2.6s.249-1.938.774-2.6c.525-.65 1.2-.988 2.025-.988.5 0 .925.1 1.288.3q.543.302.9.9m-3.825 2.388c0 .824.162 1.475.499 1.949.338.476.801.701 1.401.701s1.063-.225 1.412-.701c.338-.474.513-1.125.513-1.949s-.175-1.463-.513-1.938c-.35-.474-.812-.712-1.412-.712s-1.063.238-1.401.712c-.337.475-.499 1.113-.499 1.938m7.262-3.425h1.125v6.837h-1.125zm0-2.663h1.125v1.426h-1.125zm8.4 2.926v1.05a4.4 4.4 0 0 0-.962-.388 3.6 3.6 0 0 0-.963-.137c-.725 0-1.3.236-1.7.699s-.6 1.113-.6 1.938q0 1.256.6 1.95c.4.462.975.687 1.7.687.325 0 .637-.037.963-.125.325-.087.638-.225.962-.4v1.038c-.324.15-.65.262-.975.325-.337.062-.7.1-1.075.1-1.025 0-1.85-.313-2.45-.962-.613-.638-.913-1.513-.913-2.613 0-1.113.3-1.988.913-2.625.613-.638 1.45-.963 2.525-.963a4.5 4.5 0 0 1 1.013.113c.325.075.649.175.962.313m3.062-2.201v1.938h2.313v.875h-2.313v3.712c0 .562.076.926.225 1.076.15.162.463.236.938.236h1.15v.938h-1.15q-1.312 0-1.8-.487-.488-.488-.488-1.763v-3.712h-.824v-.875h.825v-1.938zm3.788 1.938h1.125v6.837h-1.125zm0-2.663h1.125v1.426h-1.125zm6.125 3.451q-.9-.001-1.425.712c-.35.475-.525 1.112-.525 1.925 0 .825.163 1.462.512 1.938.351.474.826.699 1.438.699.6 0 1.075-.225 1.425-.699.35-.476.525-1.113.525-1.938 0-.8-.175-1.45-.525-1.925q-.525-.713-1.425-.712m0-.951c.975 0 1.738.325 2.3.951.55.637.838 1.512.838 2.637s-.288 2-.838 2.625c-.562.637-1.325.95-2.3.95-.987 0-1.762-.313-2.312-.95q-.825-.937-.825-2.625c0-1.125.275-2 .825-2.637.55-.626 1.325-.951 2.312-.951m10.688 2.875v4.125h-1.125v-4.088c0-.649-.138-1.125-.388-1.449q-.375-.488-1.125-.488c-.612 0-1.088.201-1.437.587q-.525.582-.525 1.576v3.862h-1.125v-6.837h1.125v1.062c.262-.4.575-.712.95-.912.362-.2.787-.313 1.262-.313.775 0 1.375.25 1.775.738.4.487.613 1.199.613 2.137m2.062-5.362h.975c.6.962 1.063 1.9 1.363 2.825s.462 1.837.462 2.737c0 .913-.162 1.825-.462 2.751-.3.924-.763 1.849-1.363 2.812h-.975c.538-.937.938-1.85 1.213-2.775.262-.913.4-1.837.4-2.788 0-.937-.138-1.862-.4-2.775a13.7 13.7 0 0 0-1.213-2.787" style="fill-rule:nonzero"/><path d="M55.358 84.236h5.862v.525l-3.313 8.588H56.62l3.112-8.075h-4.374z" style="fill:#00f;fill-rule:nonzero"/><path d="M63.62 91.799h1.288v1.55H63.62z" style="fill:#00f"/><path d="M70.232 85.049c-.637 0-1.112.312-1.437.938-.325.624-.475 1.562-.475 2.812s.15 2.187.475 2.813c.325.624.8.937 1.437.937.638 0 1.113-.313 1.438-.937.313-.626.475-1.563.475-2.813s-.162-2.188-.475-2.812c-.325-.626-.8-.938-1.438-.938m0-.975c1.013 0 1.788.413 2.338 1.212.538.813.812 1.988.812 3.513 0 1.538-.274 2.712-.812 3.512-.55.801-1.325 1.2-2.35 1.2s-1.8-.399-2.338-1.2c-.537-.8-.8-1.974-.8-3.512 0-1.525.263-2.7.8-3.513.538-.799 1.326-1.212 2.35-1.212m13.063 5.262c-.35 0-.638.15-.838.45s-.299.725-.299 1.263c0 .525.1.95.299 1.25.2.3.488.45.838.45q.525 0 .825-.45c.2-.3.3-.725.3-1.25s-.1-.95-.3-1.25-.475-.463-.825-.463m0-.775c.637 0 1.15.226 1.525.675s.575 1.063.575 1.813c0 .762-.2 1.362-.575 1.8-.375.45-.888.662-1.525.662-.65 0-1.175-.212-1.55-.662q-.563-.657-.563-1.8c0-.762.188-1.363.563-1.813s.9-.675 1.55-.675m-6.3-3.712c-.35 0-.625.163-.825.463q-.3.45-.3 1.237c0 .55.1.962.3 1.263q.3.45.825.449c.35 0 .637-.149.838-.45.2-.3.3-.712.3-1.262 0-.525-.113-.937-.313-1.237s-.475-.463-.825-.463m5.512-.775h.975l-5.7 9.437h-.975zm-5.512 0q.956 0 1.537.675c.375.45.576 1.05.576 1.8 0 .775-.201 1.375-.576 1.825s-.887.662-1.537.662-1.163-.212-1.537-.662c-.375-.45-.563-1.05-.563-1.825q0-1.125.563-1.8.561-.675 1.537-.675m-21.287 97.913v-1.125q.45.225.937.337.468.113.938.113c.799 0 1.425-.263 1.85-.813s.674-1.375.749-2.5c-.25.35-.55.625-.899.812a2.6 2.6 0 0 1-1.201.275q-1.387 0-2.175-.825c-.525-.549-.787-1.299-.787-2.262q0-1.388.825-2.25c.55-.563 1.288-.85 2.212-.85 1.05 0 1.863.412 2.413 1.213.55.812.838 1.987.838 3.512 0 1.45-.351 2.587-1.026 3.437-.687.851-1.599 1.275-2.75 1.275-.312 0-.625-.037-.937-.087a5 5 0 0 1-.987-.262m2.449-3.863q.826 0 1.313-.562c.325-.375.487-.9.487-1.563 0-.65-.162-1.175-.487-1.55s-.762-.575-1.313-.575c-.549 0-.987.2-1.312.575s-.488.9-.488 1.55c0 .663.163 1.188.488 1.563q.488.562 1.312.562m9.201-.862c.587.124 1.049.387 1.374.787s.501.9.501 1.475c0 .9-.313 1.6-.925 2.088-.626.487-1.5.724-2.638.724-.388 0-.788-.037-1.187-.112a7 7 0 0 1-1.25-.325v-1.187q.506.298 1.125.45.599.15 1.274.15 1.163 0 1.763-.45c.4-.3.613-.75.613-1.338 0-.525-.188-.95-.563-1.25s-.9-.463-1.575-.463h-1.063v-1.012h1.113c.6 0 1.063-.113 1.387-.362q.488-.357.488-1.05c0-.463-.175-.825-.5-1.076q-.506-.375-1.425-.375-.506 0-1.087.113-.582.112-1.275.337v-1.099c.462-.126.9-.225 1.312-.288a7.5 7.5 0 0 1 1.163-.1q1.387 0 2.212.637.825.638.825 1.726c0 .5-.15.924-.438 1.274-.287.351-.7.601-1.224.726" style="fill:#00f;fill-rule:nonzero"/><path d="M71.57 180.624h1.288v1.55H71.57z" style="fill:#00f"/><path d="M78.182 173.874c-.637 0-1.112.313-1.437.938-.325.624-.475 1.562-.475 2.812s.15 2.188.475 2.813c.325.624.8.937 1.437.937.638 0 1.113-.313 1.438-.938.313-.624.475-1.562.475-2.812s-.162-2.188-.475-2.813c-.325-.624-.8-.937-1.438-.937m0-.975c1.013 0 1.788.412 2.338 1.213.538.812.812 1.987.812 3.512 0 1.537-.274 2.713-.812 3.512-.55.8-1.325 1.2-2.35 1.2s-1.8-.399-2.338-1.2c-.537-.799-.799-1.975-.799-3.512 0-1.525.262-2.7.799-3.512.538-.8 1.326-1.213 2.35-1.213m13.063 5.263a.96.96 0 0 0-.837.45c-.2.3-.301.724-.301 1.262 0 .525.101.95.301 1.25s.487.45.837.45q.525 0 .825-.45c.2-.3.3-.725.3-1.25s-.1-.95-.3-1.25-.475-.462-.825-.462m0-.776c.637 0 1.15.225 1.525.675s.575 1.063.575 1.813c0 .763-.2 1.363-.575 1.8-.375.45-.888.662-1.525.662-.65 0-1.175-.212-1.55-.662q-.563-.655-.563-1.8c0-.763.188-1.363.563-1.813s.9-.675 1.55-.675m-6.3-3.712c-.35 0-.625.162-.825.463q-.3.449-.3 1.237c0 .55.1.962.3 1.262q.3.45.825.45c.35 0 .637-.15.838-.45s.3-.712.3-1.262c0-.525-.113-.938-.313-1.237s-.475-.463-.825-.463m5.512-.775h.975l-5.7 9.437h-.975zm-5.512 0q.956 0 1.537.675c.375.45.576 1.05.576 1.8 0 .775-.201 1.375-.576 1.825s-.887.663-1.537.663-1.163-.213-1.538-.663-.562-1.05-.562-1.825q0-1.125.562-1.8t1.538-.675" style="fill:#00f;fill-rule:nonzero"/><path d="m131.258 92.312 2.013-.001v-6.95l-2.188.438v-1.125l2.175-.438h1.238v8.076h2.012v1.037h-5.25z" style="fill:orange;fill-rule:nonzero"/><path d="M138.996 91.799h1.288v1.55h-1.288z" style="fill:orange"/><path d="M143.008 93.161v-1.125q.45.225.938.338.47.112.937.112c.801 0 1.425-.262 1.851-.812.424-.55.675-1.375.75-2.5-.251.35-.551.625-.9.813a2.6 2.6 0 0 1-1.2.275q-1.388 0-2.175-.825c-.525-.551-.788-1.301-.788-2.263q0-1.388.825-2.25c.55-.562 1.287-.85 2.213-.85 1.05 0 1.862.413 2.413 1.212.549.813.836 1.988.836 3.513 0 1.45-.35 2.588-1.025 3.438-.687.849-1.6 1.274-2.749 1.274a6 6 0 0 1-.938-.087 5 5 0 0 1-.988-.263m2.451-3.862q.824 0 1.312-.563c.325-.375.488-.9.488-1.562 0-.65-.163-1.175-.488-1.55s-.763-.575-1.312-.575c-.55 0-.988.2-1.313.575s-.487.9-.487 1.55c0 .662.162 1.187.487 1.562q.488.563 1.313.563m13.212.037a.96.96 0 0 0-.837.45c-.201.3-.3.725-.3 1.263 0 .525.099.95.3 1.25s.487.45.837.45q.525 0 .826-.45c.199-.3.299-.725.299-1.25s-.1-.95-.299-1.25c-.201-.3-.476-.463-.826-.463m0-.775c.637 0 1.15.226 1.525.675s.575 1.063.575 1.813c0 .762-.2 1.362-.575 1.8-.375.45-.888.662-1.525.662-.65 0-1.175-.212-1.55-.662q-.562-.657-.562-1.8c0-.762.187-1.363.562-1.813s.9-.675 1.55-.675m-6.299-3.712c-.351 0-.626.163-.826.463q-.3.45-.299 1.237c0 .55.099.962.299 1.263q.3.45.826.449a.96.96 0 0 0 .836-.45c.201-.3.3-.712.3-1.262 0-.525-.112-.937-.312-1.237s-.475-.463-.824-.463m5.511-.775h.975l-5.7 9.437h-.975zm-5.511 0q.955 0 1.536.675c.376.45.576 1.05.576 1.8 0 .775-.2 1.375-.576 1.825s-.887.662-1.536.662c-.651 0-1.164-.212-1.538-.662s-.563-1.05-.563-1.825q0-1.125.563-1.8.561-.675 1.538-.675m-21.289 97.913v-1.125q.45.225.938.337.47.113.937.113c.801 0 1.425-.263 1.851-.813.424-.55.675-1.375.75-2.5-.251.35-.551.625-.9.812a2.6 2.6 0 0 1-1.2.275q-1.387 0-2.175-.825c-.525-.549-.788-1.299-.788-2.262q0-1.388.825-2.25c.55-.563 1.287-.85 2.213-.85 1.05 0 1.862.412 2.412 1.213.55.812.837 1.987.837 3.512 0 1.45-.35 2.587-1.025 3.437-.687.851-1.6 1.275-2.749 1.275a6 6 0 0 1-.938-.087 5 5 0 0 1-.988-.262m2.451-3.863q.824 0 1.312-.562c.325-.375.488-.9.488-1.563 0-.65-.163-1.175-.488-1.55s-.763-.575-1.312-.575c-.551 0-.988.2-1.313.575s-.487.9-.487 1.55c0 .663.162 1.188.487 1.563q.487.562 1.313.562m8.1-.275c-.588 0-1.05.163-1.388.475-.337.313-.5.738-.5 1.287 0 .55.163.988.5 1.3.338.313.8.463 1.388.463.574 0 1.037-.15 1.374-.475.338-.313.513-.738.513-1.288 0-.549-.175-.974-.5-1.287-.337-.312-.8-.475-1.387-.475m-1.238-.525c-.525-.125-.937-.375-1.237-.737-.3-.363-.438-.8-.438-1.325 0-.726.25-1.3.775-1.726q.768-.637 2.138-.637 1.35 0 2.137.637c.512.426.775 1 .775 1.726 0 .524-.15.962-.45 1.325-.3.362-.7.612-1.225.737.587.137 1.05.412 1.388.812.324.401.499.9.499 1.475 0 .888-.274 1.563-.812 2.026-.55.474-1.325.699-2.325.699s-1.775-.225-2.312-.7c-.538-.462-.801-1.137-.801-2.025 0-.575.163-1.074.501-1.475.324-.4.787-.675 1.387-.812m-.45-1.95c0 .475.137.85.437 1.112s.713.388 1.251.388c.525 0 .937-.125 1.237-.388.3-.262.45-.637.45-1.112s-.15-.838-.45-1.1-.712-.4-1.237-.4c-.538 0-.951.137-1.251.4-.3.262-.437.625-.437 1.1" style="fill:orange;fill-rule:nonzero"/><path d="M146.946 180.624h1.288v1.55h-1.288z" style="fill:orange"/><path d="M151.133 181.136h2.013v-6.949l-2.188.437v-1.125l2.175-.437h1.238v8.074h2.012v1.038h-5.25zm15.489-2.974a.96.96 0 0 0-.838.45c-.201.3-.3.724-.3 1.262 0 .525.099.95.3 1.25.199.3.487.45.838.45a.94.94 0 0 0 .824-.45c.2-.3.3-.725.3-1.25s-.1-.95-.3-1.25-.475-.462-.825-.462Zm0-.776c.637 0 1.15.225 1.525.675s.575 1.063.575 1.813c0 .763-.2 1.363-.575 1.8-.375.45-.888.662-1.525.662-.65 0-1.175-.212-1.55-.662q-.562-.655-.562-1.8c0-.763.187-1.363.562-1.813s.9-.675 1.55-.675m-6.3-3.712c-.35 0-.625.162-.825.463q-.3.449-.3 1.237c0 .55.1.962.3 1.262q.3.45.825.45a.96.96 0 0 0 .837-.45c.201-.3.3-.712.3-1.262 0-.525-.112-.938-.312-1.237s-.475-.463-.825-.463m5.512-.775h.975l-5.7 9.437h-.975zm-5.512 0q.956 0 1.537.675c.375.45.575 1.05.575 1.8 0 .775-.2 1.375-.575 1.825s-.887.663-1.537.663-1.163-.213-1.538-.663c-.374-.45-.562-1.05-.562-1.825q0-1.125.562-1.8t1.538-.675" style="fill:orange;fill-rule:nonzero"/><path d="M210.16 88.436c.587.125 1.05.388 1.375.788s.5.9.5 1.475c0 .9-.313 1.6-.926 2.087-.624.488-1.5.725-2.637.725-.388 0-.787-.037-1.188-.112a7 7 0 0 1-1.249-.325v-1.188q.505.3 1.125.45.6.15 1.275.15 1.161 0 1.762-.45c.4-.3.612-.75.612-1.337 0-.525-.187-.95-.562-1.25s-.9-.462-1.575-.462h-1.062v-1.013h1.112c.6 0 1.063-.112 1.388-.363q.487-.356.487-1.05c0-.462-.175-.825-.499-1.074q-.507-.375-1.426-.375-.506 0-1.088.112-.58.113-1.275.338v-1.101c.463-.124.9-.225 1.313-.287.4-.062.787-.1 1.162-.1q1.388 0 2.213.638.825.636.825 1.725c0 .499-.15.925-.438 1.275-.287.349-.699.6-1.224.724" style="fill:green;fill-rule:nonzero"/><path d="M214.372 91.799h1.288v1.55h-1.288z" style="fill:green"/><path d="M218.36 84.236h4.837v1.038h-3.712v2.237c.174-.062.363-.112.537-.137a4 4 0 0 1 .537-.05c1.013 0 1.813.287 2.413.838.6.562.9 1.312.9 2.262 0 .987-.313 1.75-.925 2.287-.613.538-1.475.8-2.575.8a10 10 0 0 1-1.175-.087c-.4-.062-.8-.15-1.225-.288v-1.237c.363.2.738.35 1.138.45.387.1.8.137 1.237.137.7 0 1.262-.175 1.675-.55.4-.375.612-.875.612-1.512 0-.625-.212-1.125-.612-1.5-.413-.375-.975-.563-1.675-.563-.325 0-.662.038-.988.113a5.5 5.5 0 0 0-.999.337zm15.687 5.1c-.35 0-.637.15-.838.45s-.299.725-.299 1.263c0 .525.099.95.299 1.25.201.3.488.45.838.45q.525 0 .825-.45c.2-.3.3-.725.3-1.25s-.1-.95-.3-1.25-.475-.463-.825-.463m0-.775c.638 0 1.15.226 1.525.675s.575 1.063.575 1.813c0 .762-.2 1.362-.575 1.8-.375.45-.887.662-1.525.662-.65 0-1.175-.212-1.55-.662q-.562-.657-.562-1.8c0-.762.187-1.363.562-1.813s.9-.675 1.55-.675m-6.3-3.712c-.35 0-.625.163-.825.463q-.3.45-.3 1.237c0 .55.1.962.3 1.263q.3.45.825.449c.35 0 .638-.149.837-.45.201-.3.3-.712.3-1.262 0-.525-.112-.937-.312-1.237s-.475-.463-.825-.463m5.513-.775h.975l-5.7 9.437h-.975zm-5.513 0q.957 0 1.538.675c.375.45.574 1.05.574 1.8 0 .775-.199 1.375-.574 1.825s-.888.662-1.538.662-1.162-.212-1.537-.662-.563-1.05-.563-1.825q0-1.125.563-1.8t1.537-.675m-21.288 97.913v-1.125q.45.225.938.337.47.113.937.113c.8 0 1.425-.263 1.851-.813s.675-1.375.75-2.5c-.25.35-.55.625-.9.812a2.6 2.6 0 0 1-1.201.275q-1.386 0-2.174-.825c-.526-.549-.788-1.299-.788-2.262q0-1.388.825-2.25c.55-.563 1.288-.85 2.213-.85 1.05 0 1.862.412 2.412 1.213.55.812.837 1.987.837 3.512 0 1.45-.349 2.587-1.024 3.437-.688.851-1.601 1.275-2.751 1.275a6 6 0 0 1-.937-.087 5 5 0 0 1-.988-.262m2.451-3.863q.824 0 1.312-.562c.326-.375.488-.9.488-1.563 0-.65-.162-1.175-.488-1.55s-.763-.575-1.312-.575c-.55 0-.987.2-1.313.575s-.487.9-.487 1.55c0 .663.162 1.188.487 1.563q.489.562 1.313.562m8.25-1c-.55 0-.988.2-1.313.575s-.487.9-.487 1.55c0 .662.162 1.188.487 1.563q.488.562 1.313.562.824 0 1.312-.563c.325-.375.487-.9.487-1.562 0-.65-.162-1.175-.487-1.55s-.763-.575-1.312-.575m2.45-3.863v1.125a4.7 4.7 0 0 0-.938-.337 4.2 4.2 0 0 0-.937-.113q-1.238 0-1.875.825c-.425.551-.675 1.388-.726 2.488.238-.35.538-.625.901-.812a2.6 2.6 0 0 1 1.2-.288c.912 0 1.637.288 2.162.838.525.549.8 1.312.8 2.262 0 .938-.287 1.688-.838 2.25-.549.563-1.287.837-2.199.837-1.05 0-1.863-.399-2.413-1.2-.563-.799-.837-1.974-.837-3.512 0-1.438.337-2.587 1.024-3.437.675-.851 1.601-1.288 2.751-1.288.3 0 .612.038.937.088.313.062.637.15.988.274" style="fill:green;fill-rule:nonzero"/><path d="M222.322 180.624h1.288v1.55h-1.288z" style="fill:green"/><path d="M226.348 173.126h4.838v1.038h-3.713v2.237c.175-.062.363-.112.538-.137a4 4 0 0 1 .537-.05c1.013 0 1.813.287 2.413.838.6.562.9 1.312.9 2.262 0 .987-.313 1.75-.925 2.287-.613.538-1.475.8-2.575.8a10 10 0 0 1-1.175-.087c-.4-.063-.8-.15-1.225-.288v-1.237c.363.2.738.35 1.137.45.388.1.801.137 1.238.137.7 0 1.262-.175 1.675-.55.4-.375.612-.875.612-1.512 0-.625-.212-1.125-.612-1.5-.413-.375-.975-.563-1.675-.563-.325 0-.662.038-.988.113a5.6 5.6 0 0 0-1 .337zm15.688 5.1c-.35 0-.637.15-.838.45s-.3.725-.3 1.263c0 .525.1.95.3 1.25.201.3.488.45.838.45q.525 0 .825-.45c.2-.3.3-.725.3-1.25s-.1-.95-.3-1.25-.475-.463-.825-.463m0-.775c.638 0 1.15.225 1.525.675s.575 1.063.575 1.813c0 .762-.2 1.362-.575 1.8-.375.45-.887.662-1.525.662-.65 0-1.175-.212-1.55-.662q-.563-.657-.563-1.8c0-.763.188-1.363.563-1.813s.9-.675 1.55-.675m-6.3-3.712c-.35 0-.625.163-.825.463q-.3.45-.3 1.237c0 .55.1.962.3 1.262q.3.45.825.45a.96.96 0 0 0 .837-.45c.2-.3.3-.712.3-1.262 0-.525-.112-.937-.312-1.237s-.475-.463-.825-.463m5.513-.775h.975l-5.7 9.437h-.975zm-5.513 0q.957 0 1.538.675c.375.45.574 1.05.574 1.8 0 .775-.199 1.375-.574 1.825s-.888.662-1.538.662-1.162-.212-1.537-.662-.563-1.05-.563-1.825q0-1.125.563-1.8t1.537-.675" style="fill:green;fill-rule:nonzero"/></svg>