<svg xmlns="http://www.w3.org/2000/svg" xmlns:xlink="http://www.w3.org/1999/xlink" width="100%" height="100%" viewBox="0 0 4916 2784" fill-rule="evenodd" xmlns:v="https://vecta.io/nano"><style><![CDATA[.B{fill:none}.C{fill-rule:nonzero}.D{fill:#53585f}.E{stroke:#53585f}.F{stroke-width:10}.G{stroke-dasharray:10,10}.H{font-weight:700}.I{font-family:CourierNewPS-BoldMT, Courier New, monospace}.J{stroke:#000}.K{stroke:#231f20}.L{stroke-width:8.5}.M{stroke-miterlimit:2}.N{fill:#00882b}.O{font-size:73.356px}.P{fill:#c3971a}.Q{fill:#c82506}.R{fill:#773f9b}.S{fill:#ff2f92}.T{stroke-width:7.85}.U{stroke-dasharray:7.85,7.85}.V{fill:#dcdee0}.W{fill:#0365c0}.X{stroke-width:10.48}.Y{stroke-width:1.56}.Z{font-size:109.127px}.a{font-family:Helvetica-Bold, Helvetica}.b{stroke-width:5.26}.c{font-size:22.563px}.d{stroke-width:1.29}.e{stroke-dasharray:10.48,10.48}.f{font-family:LucidaGrande-Bold, Lucida Grande, sans-serif}]]></style><path d="M2457.18 1953.84l-.163-155.767 170.869-.179.163 155.767-170.869.179z" class="E V Y"/><path d="M2539.39 1797.91l2.734-85.394" class="B F J"/><path d="M2549.44 1713.98l-6.888-14.955-7.831 14.483 14.719.472z" class="C K L M"/><path d="M2508.48 1682.37c14.024 18.517 40.465 22.149 59.011 8.105s22.216-40.481 8.192-58.999-40.465-22.149-59.011-8.105-22.216 40.481-8.192 58.999z" class="W"/><path d="M2543.09 1980.77v284.571" class="B E F G"/><path d="M2550.45 1981.99l-7.363-14.727-7.364 14.727h14.727z" class="C D"/><path d="M2516.25 2340.37c24.751 12.212 54.774 2.002 67.004-22.785s2.065-54.825-22.686-67.037-54.774-2.002-67.003 22.785-2.065 54.825 22.685 67.037z" class="P"/><path d="M2543.02 2416.39l-1.153-49.768" class="B F J"/><path d="M2549.26 2367.68l-7.704-14.553-7.02 14.894 14.724-.341z" class="C K L M"/><g class="E F"><path d="M2486.81 2515.17l.984-99.47 109.114 1.08-.984 99.47-109.114-1.08z" class="D"/><path d="M2564.32,2533.89l79.584,167.864" class="B G"/></g><path d="M2571.5 2531.84l-12.963-10.153-.345 16.462 13.308-6.309z" class="C D"/><path d="M2510.97,2533.13l-69.426,163.78" class="B E F G"/><path d="M2517.28 2537.14l-1.032-16.433-12.528 10.685 13.56 5.748z" class="C D"/><path d="M2537.05,2533.19l3.508,180.213" class="B E F G"/><path d="M2544.44 2534.27l-7.649-14.581-7.075 14.867 14.724-.286z" class="C D"/><clipPath id="A"><path d="M2581.72 2671.46l14.931 96.999-96.789 14.897-14.93-96.998 96.788-14.898z"/></clipPath><g clip-path="url(#A)" class="N"><path d="M2572.42 2750.66c12.816-17.429 9.049-42.001-8.407-54.836s-42.033-9.106-54.849 8.324-9.049 42.002 8.407 54.837 42.033 9.105 54.849-8.325z"/></g><clipPath id="B"><path d="M2689.54 2663.64l14.93 96.998-96.79 14.897-14.929-96.998 96.789-14.897z"/></clipPath><g clip-path="url(#B)" class="Q"><path d="M2680.24 2742.84c12.816-17.43 9.049-42.002-8.407-54.837s-42.033-9.105-54.849 8.324-9.05 42.002 8.406 54.837 42.033 9.106 54.85-8.324z"/></g><clipPath id="C"><path d="M2480.73 2657.69l14.929 96.998-96.789 14.898-14.929-96.998 96.789-14.898z"/></clipPath><g clip-path="url(#C)" class="W"><path d="M2471.43 2736.89c12.816-17.43 9.049-42.002-8.407-54.837s-42.032-9.104-54.849 8.325-9.049 42.002 8.407 54.837 42.033 9.105 54.849-8.325z"/></g><text x="2514.43" y="1691.67" class="H I Z">D</text><g class="E"><path d="M369.164 2003.31l-.163-155.767 170.869-.179.163 155.768-170.869.178z" class="V Y"/><path d="M493.328,2021.17l118.397,238.492" class="B F G"/></g><path d="M500.47 2019l-13.145-9.917-.047 16.466L500.47 2019z" class="C D"/><path d="M419.21,2021.19l-121.337,239.019" class="B E F G"/><path d="M425.22 2025.61l.101-16.465-13.232 9.799 13.131 6.666z" class="C D"/><path d="M451.377 1847.38l2.733-85.393" class="B F J"/><path d="M461.431 1763.45l-6.889-14.955-7.831 14.483 14.72.472z" class="C K L M"/><clipPath id="D"><path d="M400.262 1628.69l-16.547 118.634 118.368 16.51 16.546-118.635-118.367-16.509z"/></clipPath><g clip-path="url(#D)" class="Q"><path d="M411.248 1726.5c16.662 22.002 48.079 26.316 70.114 9.629s26.396-48.098 9.734-70.1-48.08-26.316-70.114-9.629-26.397 48.098-9.734 70.1z"/></g><clipPath id="E"><path d="M229.837 2222l-16.546 118.634 118.367 16.509 16.547-118.634L229.837 2222z"/></clipPath><g clip-path="url(#E)" class="P"><path d="M240.824 2319.8c16.662 22.002 48.079 26.317 70.113 9.63s26.396-48.097 9.734-70.099-48.079-26.317-70.113-9.63-26.396 48.097-9.734 70.099z"/></g><path d="M661.103 2402.88l-16.745-46.776" class="B F J"/><path d="M651.705 2354.78l-11.897-11.384-1.97 16.348 13.867-4.964z" class="C K L M"/><g class="E F"><path d="M638.997 2514.41l-30.415-94.711 103.893-33.364 30.415 94.711-103.893 33.364z" class="D"/><path d="M672.585,2531.55l24.162,195.648" class="B G"/></g><path d="M680.043 2531.86l-9.113-13.714-5.503 15.519 14.616-1.805z" class="C D"/><path d="M625.617,2538.39l-31.947,194.529" class="B E F G"/><path d="M632.685 2540.79l-4.88-15.726-9.653 13.339 14.533 2.387z" class="C D"/><path d="M732.207,2510.42l84.74,177.992" class="B E F G"/><path d="M726.086 2514.7l.318-16.462 12.979 10.132-13.297 6.33z" class="C D"/><path d="M775.494,2490.96l131.46,146.902" class="B E F G"/><path d="M770.825 2496.78l-4.334-15.885 15.309 6.064-10.975 9.821z" class="C D"/><clipPath id="F"><path d="M619.546 2679.31l40.213 89.523-89.33 40.126-40.213-89.523 89.33-40.126z"/></clipPath><g clip-path="url(#F)" class="P"><path d="M631.665 2758.14c7.714-20.212-2.458-42.894-22.701-50.619s-42.94 2.413-50.653 22.626 2.458 42.895 22.701 50.62 42.94-2.414 50.653-22.627z"/></g><clipPath id="G"><path d="M729.301 2660.34l40.213 89.523-89.329 40.127-40.214-89.523 89.33-40.127z"/></clipPath><g clip-path="url(#G)" class="Q"><path d="M741.421 2739.16c7.713-20.213-2.459-42.895-22.702-50.62s-42.94 2.413-50.653 22.626 2.458 42.894 22.701 50.62 42.94-2.414 50.654-22.626z"/></g><clipPath id="H"><path d="M843.274 2627.12l40.213 89.523-89.33 40.126-40.213-89.523 89.33-40.126z"/></clipPath><g clip-path="url(#H)" class="R"><path d="M855.393 2705.94c7.713-20.213-2.459-42.895-22.702-50.62s-42.94 2.414-50.653 22.627 2.458 42.894 22.701 50.619 42.94-2.413 50.654-22.626z"/></g><clipPath id="I"><path d="M865.902 2598.77l14.183 97.11 96.901-14.152-14.184-97.11-96.9 14.152z"/></clipPath><g clip-path="url(#I)" class="S"><path d="M898.03 2671.76c17.366 12.903 41.956 9.259 54.878-8.132s9.315-41.987-8.05-54.89-41.956-9.259-54.878 8.132-9.315 41.987 8.05 54.89z"/></g><path d="M235.002 2402.6l15.384-47.345" class="B F J"/><path d="M257.01 2358.7l-2.452-16.282-11.555 11.73 14.007 4.552z" class="C K L M"/><g class="E F"><path d="M149.266 2477.2l33.851-93.538 102.606 37.133-33.851 93.538-102.606-37.133z" class="D"/><path d="M216.209,2520.52l19.539,184.743" class="B G"/></g><path d="M223.661 2520.96l-8.872-13.871-5.774 15.42 14.646-1.549z" class="C D"/><path d="M166.123 2502.15L46.402 2633.72" class="B E F G"/><path d="M170.744 2508.01l4.465-15.848-15.357 5.936 10.892 9.912z" class="C D"/><path d="M190.714,2510.84l-56.337,171.217" class="B E F G"/><path d="M197.325 2514.3l-2.391-16.291-11.598 11.688 13.989 4.603z" class="C D"/><clipPath id="J"><path d="M187.098 2656.09l-18.016 96.472-96.264-17.977 18.016-96.473 96.264 17.978z"/></clipPath><g clip-path="url(#J)" class="N"><path d="M152.106 2727.75c17.862-12.206 22.441-36.639 10.217-54.529s-36.65-22.504-54.513-10.298-22.441 36.638-10.217 54.528 36.65 22.504 54.513 10.299z"/></g><clipPath id="K"><path d="M291.432 2684.4l-18.016 96.472-96.265-17.977 18.016-96.473 96.265 17.978z"/></clipPath><g clip-path="url(#K)" class="Q"><path d="M256.44 2756.06c17.862-12.206 22.441-36.639 10.217-54.529s-36.65-22.504-54.513-10.298-22.441 36.639-10.218 54.528 36.651 22.504 54.514 10.299z"/></g><clipPath id="L"><path d="M96.355 2609.68l-18.017 96.473-96.264-17.978 18.017-96.472 96.264 17.977z"/></clipPath><g clip-path="url(#L)" class="W"><path d="M61.362 2681.34c17.863-12.205 22.441-36.639 10.217-54.528s-36.65-22.504-54.512-10.299-22.441 36.639-10.217 54.528 36.65 22.505 54.512 10.299z"/></g><clipPath id="M"><use xlink:href="#u"/></clipPath><g clip-path="url(#M)" class="N"><path d="M579.912 2321.31c16.662 22.002 48.079 26.317 70.113 9.63s26.397-48.098 9.734-70.099-48.078-26.317-70.113-9.63-26.396 48.097-9.734 70.099z"/></g><text x="418.402" y="1728.58" class="H I Z">B</text><path d="M3208.3 1983.27l-.163-155.767 170.87-.179.163 155.767-170.87.179z" class="E V Y"/><path d="M3290.52 1827.35l2.733-85.394" class="B F J"/><path d="M3300.57 1743.41l-6.888-14.955-7.831 14.484 14.719.471z" class="C K L M"/><clipPath id="N"><use xlink:href="#u" x="2671.745" y="-614.85"/></clipPath><g clip-path="url(#N)" class="R"><path d="M3251.66 1706.46c16.663 22.002 48.08 26.317 70.114 9.63s26.396-48.098 9.734-70.1-48.08-26.316-70.114-9.629-26.396 48.097-9.734 70.099z"/></g><path d="M3268.31,2009.77l-118.397,238.491" class="B E F G"/><path d="M3274.36 2014.14l-.047-16.465-13.144 9.917 13.191 6.548z" class="C D"/><path d="M3342.43,2009.78l121.337,239.02" class="B E F G"/><path d="M3349.55 2007.54l-13.233-9.798.1 16.465 13.133-6.667z" class="C D"/><path d="M3100.53 2391.48l16.746-46.775" class="B F J"/><path d="M3109.93 2343.38l11.897-11.384 1.969 16.347-13.866-4.963z" class="C K L M"/><g class="E F"><path d="M3018.75 2469.64l30.415-94.711 103.894 33.363-30.415 94.712-103.894-33.364z" class="D"/><path d="M3089.05,2520.15l-24.162,195.648" class="B G"/></g><path d="M3081.59 2520.46l9.113-13.714 5.504 15.519-14.617-1.805z" class="C D"/><path d="M3136.02,2526.99l31.948,194.528" class="B E F G"/><path d="M3128.95 2529.39l4.88-15.726 9.652 13.34-14.532 2.386z" class="C D"/><path d="M3029.43,2499.02l-84.74,177.992" class="B E F G"/><path d="M3035.55 2503.3l-.318-16.462-12.979 10.131 13.297 6.331z" class="C D"/><path d="M2986.14,2479.55l-131.46,146.902" class="B E F G"/><path d="M2990.81 2485.38l4.333-15.885-15.307 6.064 10.974 9.821z" class="C D"/><clipPath id="O"><path d="M3142.09 2667.91l-40.213 89.523 89.33 40.127 40.213-89.523-89.33-40.127z"/></clipPath><g clip-path="url(#O)" class="P"><path d="M3129.97 2746.73c7.713 20.213 30.41 30.351 50.653 22.626s30.416-30.407 22.702-50.62-30.411-30.351-50.654-22.626-30.415 30.407-22.701 50.62z"/></g><clipPath id="P"><path d="M3032.34 2648.94l-40.214 89.523 89.331 40.126 40.213-89.523-89.33-40.126z"/></clipPath><g clip-path="url(#P)" class="Q"><use xlink:href="#v"/></g><clipPath id="Q"><path d="M2918.36 2615.72l-40.215 89.523 89.331 40.127 40.214-89.523-89.33-40.127z"/></clipPath><g clip-path="url(#Q)" class="R"><path d="M2906.24 2694.54c7.714 20.213 30.411 30.351 50.654 22.626s30.415-30.407 22.701-50.62-30.411-30.351-50.653-22.626-30.415 30.407-22.702 50.62z"/></g><clipPath id="R"><path d="M2895.74 2587.37l-14.184 97.11-96.901-14.152 14.183-97.111 96.902 14.153z"/></clipPath><g clip-path="url(#R)" class="S"><path d="M2863.61 2660.36c17.366-12.904 20.973-37.499 8.051-54.89s-37.513-21.035-54.878-8.132-20.973 37.498-8.051 54.89 37.512 21.035 54.878 8.132z"/></g><clipPath id="S"><path d="M3192.71 2212.1l16.547 118.635-118.368 16.509-16.546-118.635 118.367-16.509z"/></clipPath><g clip-path="url(#S)" class="N"><path d="M3181.72 2309.91c16.662-22.001 12.3-53.412-9.734-70.099s-53.452-12.373-70.114 9.629-12.301 53.412 9.734 70.099 53.451 12.373 70.114-9.629z"/></g><clipPath id="T"><path d="M3444.37 2215.35l-37.502 113.761 113.504 37.418 37.503-113.761-113.505-37.418z"/></clipPath><g clip-path="url(#T)" class="S"><path d="M3437.68 2313.54c12.458 24.628 42.596 34.493 67.26 22.017s34.575-42.599 22.117-67.227-42.596-34.493-67.26-22.017-34.575 42.6-22.117 67.227z"/></g><g class="F"><path d="M3535.34 2530.12l-46.363-93.508 102.574-50.858 46.363 93.507-102.574 50.859z" class="D E"/><path d="M3542.08 2410.23l-25.001-46.497" class="B J"/></g><path d="M3524.15 2361.33l-13.459-9.484.489 16.458 12.97-6.974z" class="C K L M"/><path d="M3582.85,2523.92l25.948,195.419" class="B E F G"/><path d="M3575.71 2526.11l5.361-15.569 9.238 13.63-14.599 1.939z" class="C D"/><path d="M3625.05,2504.78l128.857,149.19" class="B E F G"/><path d="M3620.28 2510.52l-4.054-15.959 15.199 6.332-11.145 9.627z" class="C D"/><clipPath id="U"><path d="M3651.72 2656.82l15.694 96.877-96.669 15.66-15.694-96.877 96.669-15.66z"/></clipPath><g clip-path="url(#U)" class="N"><path d="M3643.05 2736.09c12.678-17.531 8.718-42.072-8.839-54.769s-42.103-8.774-54.782 8.756-8.718 42.072 8.839 54.769 42.103 8.774 54.782-8.756z"/></g><clipPath id="V"><path d="M3797.86 2597.99l15.693 96.877-96.668 15.66-15.694-96.878 96.669-15.659z"/></clipPath><g clip-path="url(#V)" class="R"><path d="M3789.18 2677.27c12.679-17.53 8.718-42.071-8.838-54.769s-42.103-8.773-54.782 8.757-8.718 42.071 8.839 54.769 42.103 8.773 54.781-8.757z"/></g><path d="M4326.84 1994.67l-.162-155.767 170.869-.179.163 155.767-170.87.179z" class="E V Y"/><path d="M4409.05 1838.75l2.733-85.393" class="B F J"/><path d="M4419.1 1754.82l-6.889-14.955-7.831 14.484 14.72.471z" class="C K L M"/><clipPath id="W"><path d="M4357.93 1620.06l-16.547 118.635 118.368 16.509 16.546-118.635-118.367-16.509z"/></clipPath><g clip-path="url(#W)" class="S"><path d="M4368.92 1717.86c16.662 22.002 48.079 26.317 70.114 9.629s26.396-48.097 9.733-70.099-48.079-26.317-70.114-9.629-26.396 48.097-9.733 70.099z"/></g><path d="M4386.84,2021.17l-118.397,238.492" class="B E F G"/><path d="M4392.89 2025.55l-.047-16.465-13.145 9.917 13.192 6.548z" class="C D"/><path d="M4460.96,2021.19l121.337,239.019" class="B E F G"/><path d="M4468.08 2018.95l-13.233-9.799.101 16.465 13.132-6.666z" class="C D"/><path d="M4219.07 2402.88l16.745-46.776" class="B F J"/><path d="M4228.46 2354.78l11.896-11.384 1.969 16.348-13.865-4.964z" class="C K L M"/><g class="E F"><path d="M4137.28 2481.05l30.415-94.71 103.894 33.365-30.416 94.71-103.893-33.365z" class="D"/><path d="M4207.58,2531.55l-24.162,195.648" class="B G"/></g><path d="M4200.12 2531.86l9.114-13.714 5.503 15.519-14.617-1.805z" class="C D"/><path d="M4254.55,2538.39l31.947,194.529" class="B E F G"/><path d="M4247.48 2540.79l4.88-15.726 9.653 13.339-14.533 2.387z" class="C D"/><path d="M4147.96,2510.42l-84.739,177.992" class="B E F G"/><path d="M4154.08 2514.7l-.318-16.462-12.979 10.132 13.297 6.33z" class="C D"/><path d="M4104.67,2490.96l-131.46,146.902" class="B E F G"/><path d="M4109.34 2496.78l4.334-15.885-15.309 6.064 10.975 9.821z" class="C D"/><clipPath id="X"><path d="M4260.62 2679.31l-40.213 89.523 89.33 40.126 40.213-89.523-89.33-40.126z"/></clipPath><g clip-path="url(#X)" class="P"><path d="M4248.5 2758.14c7.713 20.213 30.41 30.351 50.653 22.626s30.415-30.407 22.701-50.62-30.41-30.351-50.653-22.625-30.415 30.407-22.701 50.619z"/></g><clipPath id="Y"><path d="M4150.87 2660.34l-40.213 89.523 89.33 40.127 40.213-89.523-89.33-40.127z"/></clipPath><g clip-path="url(#Y)" class="Q"><path d="M4138.75 2739.16c7.714 20.213 30.411 30.352 50.654 22.627s30.415-30.407 22.701-50.62-30.41-30.351-50.653-22.626-30.415 30.407-22.702 50.619z"/></g><clipPath id="Z"><path d="M4036.89 2627.12l-40.213 89.523 89.33 40.126 40.213-89.523-89.33-40.126z"/></clipPath><g clip-path="url(#Z)" class="R"><path d="M4024.78 2705.94c7.713 20.213 30.41 30.351 50.653 22.626s30.416-30.407 22.702-50.62-30.411-30.351-50.654-22.626-30.415 30.408-22.701 50.62z"/></g><clipPath id="a"><path d="M4014.27 2598.77l-14.183 97.11-96.901-14.152 14.183-97.11 96.901 14.152z"/></clipPath><g clip-path="url(#a)" class="S"><path d="M3982.14 2671.76c17.365-12.903 20.973-37.498 8.05-54.89s-37.512-21.035-54.878-8.132-20.972 37.498-8.05 54.89 37.512 21.035 54.878 8.132z"/></g><clipPath id="b"><path d="M4311.24 2223.5l16.547 118.635-118.368 16.509-16.546-118.634 118.367-16.51z"/></clipPath><g clip-path="url(#b)" class="N"><path d="M4300.26 2321.31c16.662-22.002 12.301-53.412-9.734-70.099s-53.451-12.373-70.113 9.629-12.301 53.412 9.733 70.099 53.452 12.373 70.114-9.629z"/></g><clipPath id="c"><path d="M4562.9 2226.75l-37.502 113.761 113.505 37.418 37.502-113.761-113.505-37.418z"/></clipPath><g clip-path="url(#c)" class="R"><path d="M4556.21 2324.95c12.458 24.627 42.596 34.493 67.26 22.017s34.575-42.6 22.117-67.227-42.595-34.493-67.26-22.017-34.574 42.599-22.117 67.227z"/></g><g class="F"><path d="M4653.88 2541.52l-46.363-93.507 102.574-50.859 46.363 93.508-102.574 50.858z" class="D E"/><path d="M4660.61 2421.63l-25.001-46.497" class="B J"/></g><path d="M4642.68 2372.73l-13.459-9.484.489 16.458 12.97-6.974z" class="C K L M"/><path d="M4701.38,2535.33l25.948,195.419" class="B E F G"/><path d="M4694.24 2537.51l5.362-15.568 9.238 13.63-14.6 1.938z" class="C D"/><path d="M4743.58,2516.18l128.857,149.19" class="B E F G"/><path d="M4738.81 2521.93l-4.054-15.959 15.199 6.333-11.145 9.626z" class="C D"/><clipPath id="d"><path d="M4770.26 2668.22l15.693 96.877-96.669 15.66-15.693-96.877 96.669-15.66z"/></clipPath><g clip-path="url(#d)" class="N"><path d="M4761.58 2747.49c12.679-17.53 8.718-42.071-8.838-54.768s-42.104-8.774-54.782 8.756-8.718 42.072 8.838 54.769 42.104 8.774 54.782-8.757z"/></g><clipPath id="e"><path d="M4916.39 2609.39l15.694 96.877-96.668 15.66-15.695-96.877 96.669-15.66z"/></clipPath><g clip-path="url(#e)" class="S"><path d="M4907.71 2688.67c12.678-17.53 8.718-42.071-8.838-54.768s-42.104-8.774-54.782 8.757-8.718 42.071 8.838 54.768 42.103 8.774 54.782-8.757z"/></g><path d="M1588.53 1960.47l-.163-155.767 170.869-.178.163 155.767-170.869.178z" class="E V Y"/><path d="M1670.74 1804.54l2.733-85.393" class="B F J"/><path d="M1680.8 1720.61l-6.889-14.955-7.832 14.484 14.721.471z" class="C K L M"/><clipPath id="f"><path d="M1619.63 1585.85l-16.547 118.634 118.368 16.51 16.546-118.635-118.367-16.509z"/></clipPath><g clip-path="url(#f)" class="N"><path d="M1630.61 1683.66c16.662 22.002 48.079 26.317 70.113 9.63s26.397-48.098 9.734-70.099-48.079-26.317-70.113-9.63-26.396 48.097-9.734 70.099z"/></g><path d="M1606.53,1989.07l-180.504,264.372" class="B E F G"/><path d="M1611.91 1994.24l2.223-16.315-14.385 8.011 12.162 8.304z" class="C D"/><path d="M1656.26,1990.18l-52.903,286.433" class="B E F G"/><path d="M1663.28 1992.73l-4.566-15.82-9.916 13.145 14.482 2.675z" class="C D"/><path d="M1758.42,1989.07l180.504,264.372" class="B E F G"/><path d="M1753.03 1994.24l-2.223-16.315 14.385 8.011-12.162 8.304z" class="C D"/><path d="M1708.68,1990.18l52.903,286.433" class="B E F G"/><path d="M1701.66 1992.73l4.567-15.82 9.916 13.145-14.483 2.675z" class="C D"/><clipPath id="g"><path d="M1373.92 2193.03l-16.547 118.634 118.368 16.509 16.546-118.634-118.367-16.509z"/></clipPath><g clip-path="url(#g)" class="P"><path d="M1384.9 2290.84c16.663 22.001 48.08 26.316 70.114 9.629s26.396-48.098 9.734-70.1-48.079-26.316-70.114-9.629-26.396 48.098-9.734 70.1z"/></g><clipPath id="h"><use xlink:href="#u" x="985.205" y="-2.21"/></clipPath><g clip-path="url(#h)" class="Q"><path d="M1565.11 2319.1c16.663 22.001 48.079 26.316 70.114 9.629s26.396-48.098 9.734-70.099-48.079-26.317-70.114-9.63-26.396 48.098-9.734 70.1z"/></g><clipPath id="i"><path d="M1716.68 2222.39l-16.547 118.635 118.368 16.509 16.547-118.634-118.368-16.51z"/></clipPath><g clip-path="url(#i)" class="R"><path d="M1727.67 2320.2c16.663 22.002 48.079 26.317 70.114 9.63s26.396-48.097 9.734-70.099-48.079-26.317-70.114-9.63-26.396 48.097-9.734 70.099z"/></g><path d="M1346.98 2363.06l23.792-43.728" class="B F J"/><path d="M1376.65 2323.93l.57-16.456-13.506 9.418 12.936 7.038z" class="C K L M"/><g class="E F"><path d="M1249.04 2420.71l50.402-85.76 94.075 55.289-50.403 85.76-94.074-55.289z" class="D"/><path d="M1306.92,2475.55l-14.612,185.198" class="B G"/></g><path d="M1314.16 2477.35l-6.182-15.261-8.499 14.102 14.681 1.159z" class="C D"/><path d="M1261.04,2448.32l-141.785,107.43" class="B E F G"/><path d="M1264.51 2454.93l7.292-14.763-16.185 3.025 8.893 11.738z" class="C D"/><path d="M1283.62,2461.36l-86.73,158.01" class="B E F G"/><path d="M1289.49 2465.98l.632-16.453-13.541 9.367 12.909 7.086z" class="C D"/><clipPath id="j"><path d="M1253.48 2603.5l-35.372 91.544-91.347-35.297 35.372-91.543 91.347 35.296z"/></clipPath><g clip-path="url(#j)" class="N"><path d="M1205.96 2667.55c19.796-8.729 28.769-31.911 20.027-51.736s-31.911-28.834-51.706-20.104-28.77 31.911-20.027 51.736 31.911 28.833 51.706 20.104z"/></g><clipPath id="k"><path d="M1350.87 2650.43l-35.373 91.544-91.347-35.297 35.373-91.543 91.347 35.296z"/></clipPath><g clip-path="url(#k)" class="Q"><path d="M1303.35 2714.48c19.796-8.729 28.77-31.911 20.027-51.736s-31.911-28.833-51.706-20.104-28.769 31.911-20.027 51.736 31.911 28.833 51.706 20.104z"/></g><clipPath id="l"><path d="M1172.77 2541.26l-35.372 91.544-91.348-35.297 35.373-91.544 91.347 35.297z"/></clipPath><g clip-path="url(#l)" class="W"><path d="M1125.25 2605.3c19.796-8.729 28.769-31.911 20.027-51.736s-31.911-28.833-51.707-20.103-28.768 31.911-20.026 51.736 31.911 28.832 51.706 20.103z"/></g><g class="F"><path d="M1510.06 2495.75l21.652-102.1 112 23.752-21.652 102.1-112-23.752z" class="D E"/><path d="M1589.72 2405.9l9.239-51.977" class="B J"/></g><path d="M1606 2356.42l-4.671-15.789-9.828 13.212 14.499 2.577z" class="C K L M"/><path d="M1551.16,2520.36l-100.891,169.361" class="B E F G"/><path d="M1544.21 2517.65l13.863-8.884-1.212 16.421-12.651-7.537z" class="C D"/><path d="M1596.13,2531.53l8.499,196.951" class="B E F G"/><path d="M1588.83 2533.08l6.722-15.031 7.992 14.396-14.714.635z" class="C D"/><clipPath id="m"><path d="M1522.73 2667.32l-47.795 85.715-85.53-47.693 47.796-85.715 85.529 47.693z"/></clipPath><g clip-path="url(#m)" class="P"><path d="M1466.74 2724.11c20.819-5.883 32.938-27.587 27.047-48.438s-27.578-33.002-48.397-27.119-32.939 27.587-27.047 48.437 27.577 33.003 48.397 27.12z"/></g><clipPath id="n"><path d="M1673.83 2711.85l-47.796 85.715-85.531-47.693 47.797-85.715 85.53 47.693z"/></clipPath><g clip-path="url(#n)" class="N"><path d="M1617.84 2768.64c20.82-5.882 32.94-27.586 27.048-48.437s-27.577-33.002-48.397-27.119-32.939 27.586-27.048 48.437 27.578 33.002 48.397 27.119z"/></g><g class="F"><path d="M1765.21 2529.09l-22.558-101.904 111.784-24.745 22.558 101.904-111.784 24.745z" class="D E"/><path d="M1800.54 2414.32l-13.107-51.139" class="B J"/></g><path d="M1794.87 2362.54l-10.79-12.438-3.476 16.094 14.266-3.656z" class="C K L M"/><path d="M1812.82,2534.48l-21.726,195.933" class="B E F G"/><path d="M1805.36 2534.88l8.943-13.826 5.695 15.449-14.638-1.623z" class="C D"/><path d="M1858.38,2526.03l89.272,175.762" class="B E F G"/><path d="M1852.37 2530.45l-.104-16.466 13.234 9.796-13.13 6.67z" class="C D"/><clipPath id="o"><path d="M2003.75 2658l-8.022 97.811-97.602-8.006 8.024-97.811 97.6 8.006z"/></clipPath><g clip-path="url(#o)" class="S"><path d="M1976.3 2732.87c16.516-13.974 18.563-38.748 4.568-55.289s-38.765-18.624-55.281-4.65-18.564 38.748-4.569 55.288 38.766 18.625 55.282 4.651z"/></g><clipPath id="p"><path d="M1885.76 2190.01l-16.546 118.634 118.367 16.51 16.547-118.635-118.368-16.509z"/></clipPath><g clip-path="url(#p)" class="S"><path d="M1896.75 2287.82c16.662 22.002 48.079 26.317 70.113 9.63s26.396-48.097 9.734-70.099-48.079-26.317-70.113-9.63-26.396 48.098-9.734 70.099z"/></g><g class="F"><path d="M2031.58 2483.43l-62.344-83.705 91.822-68.387 62.343 83.705-91.821 68.387z" class="D E"/><path d="M2016.76 2364.27l-32.916-41.275" class="B J"/></g><path d="M1990.37 2319.37l-14.939-6.923 3.425 16.105 11.514-9.182z" class="C K L M"/><path d="M2077.21,2468.84l60.488,187.625" class="B E F G"/><path d="M2070.58 2472.26l2.489-16.276 11.528 11.758-14.017 4.518z" class="C D"/><path d="M2115.3,2442.45l153.467,123.732" class="B E F G"/><path d="M2111.64 2448.96l-6.844-14.977 16.087 3.511-9.243 11.466z" class="C D"/><clipPath id="q"><path d="M2168.74 2587.27l32.771 92.507-92.308 32.701-32.771-92.508 92.308-32.7z"/></clipPath><g clip-path="url(#q)" class="N"><path d="M2174.39 2666.82c9.338-19.515 1.051-42.952-18.494-52.304s-42.994-1.1-52.332 18.415-1.051 42.953 18.494 52.305 42.994 1.1 52.332-18.416z"/></g><clipPath id="r"><path d="M2301.99 2503.25l32.771 92.507-92.307 32.701-32.771-92.507 92.307-32.701z"/></clipPath><g clip-path="url(#r)" class="R"><path d="M2307.64 2582.8c9.337-19.515 1.051-42.952-18.494-52.304s-42.994-1.1-52.332 18.415-1.051 42.953 18.494 52.305 42.994 1.1 52.332-18.416z"/></g><clipPath id="s"><path d="M1843.26 2683.99l-8.023 97.812-97.601-8.006 8.022-97.812 97.602 8.006z"/></clipPath><g clip-path="url(#s)" class="N"><path d="M1815.8 2758.86c16.517-13.974 18.564-38.748 4.569-55.289s-38.766-18.625-55.282-4.651-18.563 38.748-4.569 55.289 38.766 18.625 55.282 4.651z"/></g><g class="B b"><path d="M1084.73 1059.32l328.829-207.823m-374.482 199.089l319.376-484.583m-708.586-44.597l715.413 58.245m-182.636-364.856l153.221 365.092" class="E"/><path d="M623.623 225.523l.575 169.005" class="J"/></g><path d="M608.468 391.96l15.829 31.385 15.61-31.492-31.439.107z" class="C"/><g transform="matrix(4.45877 0 0 4.45877 621.261 1266.61)" class="H a c"><text x="0" y="0">I</text><text x="6.269" y="0">n</text><text x="20.728" y="0">put Graph</text></g><text x="384.659" y="202.13" font-size="100.601" class="H a">Target Node</text><path d="M1161.59 207.501L641.025 510.113" class="B E b"/><path d="M1211.36 142.536c-25.334-25.401-66.56-25.428-92.002-.053s-25.531 66.6-.192 92.007c25.335 25.401 66.561 25.428 92.003.053s25.53-66.601.191-92.007" class="Q"/><path d="M639.34 549.778L451.577 964.777" class="B E b"/><path d="M532.968 889.442c-25.34-25.406-66.565-25.428-92.007-.058s-25.531 66.601-.192 92.007 66.561 25.428 92.007.058 25.526-66.601.192-92.007" class="W"/><path d="M1081.17 1019.18c-25.335-25.406-66.565-25.429-92.007-.054s-25.526 66.601-.192 92.002c25.34 25.406 66.565 25.433 92.007.058s25.527-66.6.192-92.006" class="R"/><path d="M1366.13,609.008l95.761,199.605" class="B E b"/><path d="M1503.45 773.697c-25.339-25.406-66.565-25.428-92.007-.054s-25.53 66.601-.191 92.003 66.56 25.432 92.006.058 25.527-66.601.192-92.007" class="S"/><path d="M1388.92 526.628c-25.334-25.406-66.565-25.433-92.006-.058s-25.527 66.6-.192 92.006 66.565 25.429 92.007.058 25.526-66.6.191-92.006" class="N"/><path d="M678.771 464.541c-25.335-25.406-66.56-25.433-92.006-.058s-25.527 66.6-.192 92.006c16.486 16.528 39.698 22.313 60.912 17.349 11.391-2.665 22.206-8.43 31.094-17.295 25.442-25.375 25.527-66.601.192-92.002M1905.61 687.724c-25.335-25.406-66.56-25.433-92.007-.058-25.441 25.375-25.526 66.601-.191 92.007 16.486 16.527 39.698 22.312 60.912 17.348 11.391-2.665 22.206-8.43 31.094-17.295 25.442-25.375 25.527-66.6.192-92.002" class="P"/><path d="M4062.94 1149.79l-47.316-9.716" class="B J X"/><path d="M4025.82 1116.49l-54.334 14.518 44.213 34.756 10.121-49.274z" class="C"/><g class="E"><path d="M4187.81 1259.4l-142.939-34.31 37.636-156.797 142.939 34.31-37.636 156.797z" class="D d"/><path d="M4243.85,1194.55l306.785,73.762" class="B T U"/></g><path d="M4252.45 1175.6l-44.517 10.313 34.961 29.423 9.556-39.736z" class="C D"/><path d="M4617.82 1221.06c-25.339-25.406-66.565-25.428-92.007-.053-25.446 25.37-25.53 66.6-.196 92.002s66.565 25.432 92.007.058 25.531-66.601.196-92.007" class="P"/><g class="E"><path d="M4201.19 287.157l-141.308 40.522-44.445-155.005 141.303-40.521 44.45 155.004z" class="D d"/><path d="M4221.66 177.543l353.348-136.617" class="B T U"/></g><path d="M4217.96 157.068l-30.753 33.798 45.489 4.325-14.736-38.123z" class="C D"/><path d="M4038.54,253.239l-45.97,14.844" class="B J X"/><path d="M3989.83 242.538l-40.142 39.389 55.596 8.481-15.454-47.87z" class="C"/><path d="M4231.76,238.824l374.403,34.623" class="B E T U"/><path d="M4237.56 218.836l-42.581 16.586 38.818 24.113 3.763-40.699z" class="C D"/><path d="M4622.81 19.07c-25.334-25.406-66.56-25.429-92.006-.054s-25.527 66.601-.192 92.002c25.339 25.406 66.565 25.433 92.007.058s25.531-66.6.191-92.006" class="P"/><path d="M4625.93 226.157c-25.335-25.406-66.561-25.433-92.003-.058s-25.53 66.601-.191 92.007 66.56 25.428 92.002.053 25.531-66.6.192-92.002" class="N"/><path d="M4020.26 725.713l-48.306-.09" class="B J X"/><path d="M3977.24 700.48l-50.353 25.059 50.26 25.245.093-50.304z" class="C"/><g class="E"><path d="M4020.23 640.269h146.997V801.52H4020.23z" class="D d"/><path d="M4202.64,801.137l267.544,203.177" class="B T U"/></g><path d="M4218.13 787.239l-44.904-8.44 20.189 40.989 24.715-32.549z" class="C D"/><path d="M4218.68,758.614l318.111,101.544" class="B E T U"/><path d="M4228.64 740.342l-45.145 7.04 32.718 31.894 12.427-38.934z" class="C D"/><path d="M4208.62 665.118l281.063-184.022" class="B E T U"/><path d="M4200.71 645.869l-23.003 39.483 45.39-5.288-22.387-34.195z" class="C D"/><path d="M4219.17 710.08l326.894-80.53" class="B E T U"/><path d="M4218.1 689.302l-34.796 29.615 44.574 10.068-9.778-39.683z" class="C D"/><path d="M4518.42 956.659c-24.434-26.271-65.637-27.734-91.948-3.264s-27.836 65.669-3.402 91.94 65.633 27.738 91.948 3.268 27.836-65.669 3.402-91.944" class="S"/><path d="M4597.67 590.679c-24.434-26.276-65.633-27.738-91.944-3.264s-27.84 65.669-3.406 91.94 65.637 27.738 91.948 3.264 27.837-65.669 3.402-91.94" class="Q"/><path d="M4582.37 799.006c-24.434-26.271-65.633-27.734-91.949-3.264s-27.836 65.669-3.402 91.94 65.633 27.738 91.949 3.268 27.836-65.669 3.402-91.944" class="R"/><path d="M4559.94 429.218c-24.434-26.271-65.633-27.738-91.944-3.264s-27.84 65.669-3.406 91.94 65.633 27.738 91.948 3.268 27.836-65.668 3.402-91.944" class="P"/><path d="M2177.71 733.701h-172.587" stroke-width="16.26" class="B J"/><path d="M2008.89 711.142l-45.1 22.559 45.1 22.55v-45.109z" class="C"/><g class="E"><path d="M2195.37 609.287h836.556v234.511H2195.37z" stroke-width=".91" class="V"/><path d="M3127.81,730.474l660.183,1.066" class="B X e"/></g><path d="M3133.09 705.336l-50.339 25.067 50.259 25.232.08-50.299z" class="C D"/><path d="M3132.41,811.281l717.335,280.764" class="B E X e"/><path d="M3146.45 789.772l-56.011 5.087 37.677 41.752 18.334-46.839z" class="C D"/><path d="M3131.52 633.496l708.595-319.706" class="B E X e"/><path d="M3125.95 608.416l-35.51 43.611 56.199 2.238-20.689-45.849z" class="C D"/><path d="M3940.28 1068.04c-25.339-25.406-66.565-25.428-92.007-.053s-25.526 66.6-.191 92.002 66.565 25.433 92.006.058 25.527-66.601.192-92.007" class="W"/><path d="M3926.85 247.202c-25.339-25.406-66.565-25.432-92.007-.058s-25.526 66.601-.192 92.007c25.34 25.402 66.565 25.428 92.007.053s25.526-66.6.192-92.002" class="Q"/><path d="M3895.9 684.571c-25.334-25.406-66.564-25.428-92.006-.057s-25.527 66.6-.192 92.006 66.565 25.428 92.007.054 25.526-66.596.191-92.003" class="N"/><text x="1145.1" y="202.132" class="H I O">B</text><text x="463.933" y="951.419" class="H I O">D</text><text x="1014.1" y="1082.41" class="H I O">E</text><text x="1435.62" y="841.082" class="H I O">F</text><text x="1318.01" y="589.875" class="H I O">C</text><text x="610.644" y="532.237" class="H I O">A</text><text x="1832.49" y="760.696" font-size="90" class="H I">A</text><text x="4551.59" y="1280.99" class="H I O">A</text><text x="4556.83" y="75.84" font-size="73.361" class="H I">A</text><text x="4551.6" y="285.472" font-size="73.361" class="H I">C</text><text x="4446.3" y="1020.51" transform="matrix(.999391 .0349 -.034899 .999391 38.3239 -154.552)" class="H I O">F</text><text x="4530.21" y="649.802" transform="matrix(.999391 .0349 -.034899 .999391 25.4374 -157.706)" class="H I O">B</text><text x="4513.51" y="861.157" transform="matrix(.999391 .0349 -.034899 .999391 32.8034 -156.994)" class="H I O">E</text><text x="4489.88" y="484.197" transform="matrix(.999391 .0349 -.034899 .999391 19.6334 -156.399)" class="H I O">A</text><text x="3875.67" y="1134.27" class="H I O">D</text><text x="3859.95" y="306.392" class="H I O">B</text><text x="3823.27" y="746.53" class="H I O">C</text><g transform="matrix(4.20591 0 0 4.45877 2315.56 712.363)" class="f"><text x="7.132" font-weight="600" font-size="20.185" fill="#231f20" y="0">Aggregation</text><text x="15.312" y="20.185" font-weight="600" font-size="20.185" fill="#231f20">for Node A</text></g><text x="1844.47" y="1485.01" font-size="100.603" class="H a">Other Node Aggregations</text><path d="M776.863 1535.69h3360.43v4.419H776.863z"/><text x="1637.93" y="1685.74" class="H I Z">C</text><text x="3268.14" y="1723.99" class="H I Z">E</text><text x="4375.71" y="1720.53" class="H I Z">F</text><defs ><path id="u" d="M568.925 2223.5l-16.547 118.635 118.368 16.509 16.546-118.634-118.367-16.51z"/><path id="v" d="M3020.22 2727.76c7.714 20.213 30.411 30.352 50.654 22.627s30.415-30.407 22.701-50.62-30.41-30.351-50.653-22.626-30.415 30.407-22.702 50.619z"/></defs></svg>