<svg xmlns="http://www.w3.org/2000/svg" xml:space="preserve" style="fill-rule:evenodd;clip-rule:evenodd;stroke-linecap:square;stroke-linejoin:round;stroke-miterlimit:10" viewBox="0 0 101 75"><path d="M18.236 3.015h79.221v57.633H18.236z" style="fill:#fff;fill-rule:nonzero"/><path d="m21.836 4.858.291 2.892.577 7.136 1.157 6.922.58 1.706.578 1.318.866 1.073.29.111.581.586.286.551.29-.692.291.853.577.542 1.737 1.283.867.393.578-.026.289.255.29-1.551.288-23.332.29 12.387.289 8.698.291 1.266.867 1.275.287.111 1.737 1.18.287.077.29.184.291-.052.289.237.868.141.577.459.29-.161.29.197.287.081.29.208.29-.008.29.295.287-.152.29.296.29-.477.291-.182.577.767.29.109.287.217.289-.191.291.276.577.073.29-.035.29.126.29.287.287.044.29-.094 1.157.27.29-.206.288.279.289.147.29.034.288-.085.579.331.291-.135.287.15.29-.07.29.076.29-.076.287.184 1.448.152.289-.011.287.146.581-.067 1.157.322.287-.078.58.043.867.146.578.009 1.157.071.289.217.291-.168.29.215.287-.092.29.1.29-.073.287.15.87.046.287.088.29-.096.29.076.287.164.58-.203.29.083.288-.018.579.238.291-.053.577.096.578-.015.289-.075.58.17.287.108.29-.094 1.158.152.577-.12.29.158.29-.067 1.444.07.29-.023.29.135.29-.193.578.263.289-.085 2.602-.03.29.197.29.038.29-.22.287.15 1.448.143.286-.09 1.448.07.29-.026.29.067.287-5.352.29-.824.58-.82.577-.167.291-.343.286.164.29-.223.867-.12.291-.022.29-.297.29.123.867-.167.287.12.29-.275 1.157.067.581-.176.287.098.289-.15.578-.059.87.035.867-.105.29.102.287-.138.867.009.291.045.289-.068.287.047.291-.129.29.097.289-.036.288.115.87-.17" style="fill:none;fill-rule:nonzero;stroke:#d62728;stroke-width:.75px"/><path d="M21.836 60.648V3.015" style="fill:none;fill-rule:nonzero;stroke:#b0b0b0;stroke-width:.38px;stroke-linecap:butt;stroke-dasharray:.38,.62"/><path d="M21.836 60.648v-2.625m0-55.007v2.625" style="fill:none;fill-rule:nonzero;stroke:#000;stroke-width:.6px;stroke-linecap:butt"/><path d="M21.834 63.631q-.285 0-.43.282-.146.28-.144.843 0 .563.144.844t.43.281.431-.281q.142-.281.143-.844-.002-.562-.143-.843-.146-.282-.431-.282m0-.292a.8.8 0 0 1 .7.362c.161.247.247.598.247 1.055 0 .463-.086.815-.247 1.055-.164.24-.395.36-.703.36q-.461 0-.703-.36-.24-.361-.24-1.055 0-.685.24-1.055.244-.361.706-.363" style="fill-rule:nonzero"/><path d="M36.297 60.648V3.015" style="fill:none;fill-rule:nonzero;stroke:#b0b0b0;stroke-width:.38px;stroke-linecap:butt;stroke-dasharray:.38,.62"/><path d="M36.297 60.648v-2.625m0-55.007v2.625" style="fill:none;fill-rule:nonzero;stroke:#000;stroke-width:.6px;stroke-linecap:butt"/><path d="M34.313 63.388h1.453v.311h-1.117v.67q.08-.024.162-.041c.052-.005.111-.015.164-.015q.452.001.724.253.268.25.27.676-.001.448-.279.689-.277.24-.774.24-.172-.002-.351-.026a2.5 2.5 0 0 1-.366-.088v-.369q.16.087.339.135.175.042.372.04c.208 0 .378-.052.501-.166a.6.6 0 0 0 .185-.455.58.58 0 0 0-.185-.448q-.186-.17-.501-.17-.15 0-.296.036a1.5 1.5 0 0 0-.301.099zm3.173.243q-.285 0-.431.282-.146.28-.144.843 0 .563.144.844.145.281.431.281t.43-.281q.142-.281.144-.844-.002-.562-.143-.843-.146-.282-.431-.282m0-.292a.8.8 0 0 1 .7.362c.161.247.246.598.246 1.055 0 .463-.085.815-.246 1.055a.8.8 0 0 1-.703.36q-.462 0-.704-.36-.24-.361-.24-1.055 0-.685.24-1.055a.8.8 0 0 1 .707-.363" style="fill-rule:nonzero"/><path d="M50.761 60.648V3.015" style="fill:none;fill-rule:nonzero;stroke:#b0b0b0;stroke-width:.38px;stroke-linecap:butt;stroke-dasharray:.38,.62"/><path d="M50.761 60.648v-2.625m0-55.007v2.625" style="fill:none;fill-rule:nonzero;stroke:#000;stroke-width:.6px;stroke-linecap:butt"/><path d="M47.64 65.811h.604v-2.086l-.657.131v-.336l.652-.132h.37v2.422h.604v.311h-1.574zm3.112-2.18q-.285 0-.431.282-.145.28-.144.843 0 .563.144.844.145.281.431.281.285 0 .43-.281.143-.281.144-.844-.002-.562-.143-.843-.146-.282-.431-.282m0-.292a.8.8 0 0 1 .7.362c.161.247.246.598.246 1.055 0 .463-.085.815-.246 1.055a.8.8 0 0 1-.703.36q-.461 0-.704-.36-.24-.361-.24-1.055 0-.685.24-1.055a.8.8 0 0 1 .707-.363m2.385.293q-.285 0-.431.282-.146.28-.144.843 0 .563.144.844.145.281.431.281.285 0 .43-.281.142-.281.144-.844-.002-.562-.143-.843-.146-.282-.431-.282m0-.292a.8.8 0 0 1 .7.362c.161.247.246.598.246 1.055 0 .463-.085.815-.246 1.055a.8.8 0 0 1-.703.36q-.462 0-.704-.36-.24-.361-.24-1.055 0-.685.24-1.055a.8.8 0 0 1 .707-.363" style="fill-rule:nonzero"/><path d="M65.222 60.648V3.015" style="fill:none;fill-rule:nonzero;stroke:#b0b0b0;stroke-width:.38px;stroke-linecap:butt;stroke-dasharray:.38,.62"/><path d="M65.222 60.648v-2.625m0-55.007v2.625" style="fill:none;fill-rule:nonzero;stroke:#000;stroke-width:.6px;stroke-linecap:butt"/><path d="M62.102 65.811h.603v-2.086l-.657.131v-.336l.653-.132h.37v2.422h.603v.311h-1.573zm2.324-2.423h1.453v.311h-1.117v.67q.08-.024.161-.041c.053-.005.112-.015.164-.015q.453.001.724.253.269.25.27.676 0 .448-.279.689-.278.24-.773.24-.173-.002-.352-.026a3 3 0 0 1-.366-.088v-.369q.16.087.34.135.175.042.372.04c.208 0 .378-.052.501-.166a.6.6 0 0 0 .184-.455.58.58 0 0 0-.184-.448c-.123-.114-.293-.17-.501-.17q-.15 0-.296.036a1.5 1.5 0 0 0-.302.099zm3.172.243q-.285 0-.43.282-.145.28-.144.843 0 .563.144.844t.43.281.431-.281q.143-.281.143-.844-.001-.562-.142-.843-.147-.282-.432-.282m0-.292a.8.8 0 0 1 .7.362c.161.247.247.598.247 1.055 0 .463-.086.815-.247 1.055q-.243.36-.703.36-.461 0-.703-.36-.24-.361-.24-1.055 0-.685.24-1.055.243-.361.706-.363" style="fill-rule:nonzero"/><path d="M79.683 60.648V3.015" style="fill:none;fill-rule:nonzero;stroke:#b0b0b0;stroke-width:.38px;stroke-linecap:butt;stroke-dasharray:.38,.62"/><path d="M79.683 60.648v-2.625m0-55.007v2.625" style="fill:none;fill-rule:nonzero;stroke:#000;stroke-width:.6px;stroke-linecap:butt"/><path d="M76.817 65.811h1.29v.31H76.37v-.31l.574-.586q.362-.366.458-.472.181-.196.248-.336a.6.6 0 0 0 .07-.276.46.46 0 0 0-.152-.351.57.57 0 0 0-.398-.141c-.118 0-.24.023-.367.061q-.215.072-.412.185v-.375q.222-.091.415-.135.19-.047.358-.047.42.002.673.214.255.215.255.565a.8.8 0 0 1-.064.32q-.086.197-.228.357-.044.055-.293.307l-.689.71m2.857-2.18q-.285 0-.431.282-.145.28-.144.843 0 .563.144.844.145.281.431.281.285 0 .43-.281.142-.281.144-.844-.002-.562-.143-.843-.146-.282-.431-.282m0-.292a.8.8 0 0 1 .7.362c.161.247.246.598.246 1.055 0 .463-.085.815-.246 1.055a.8.8 0 0 1-.703.36q-.462 0-.704-.36-.24-.361-.24-1.055 0-.685.24-1.055a.8.8 0 0 1 .707-.363m2.385.293q-.285 0-.431.282-.145.28-.144.843 0 .563.144.844.145.281.431.281.285 0 .43-.281.142-.281.144-.844-.002-.562-.143-.843-.146-.282-.431-.282m0-.292a.8.8 0 0 1 .7.362c.161.247.246.598.246 1.055 0 .463-.085.815-.246 1.055a.8.8 0 0 1-.703.36q-.462 0-.704-.36-.24-.361-.24-1.055 0-.685.24-1.055a.8.8 0 0 1 .707-.363" style="fill-rule:nonzero"/><path d="M94.144 60.648V3.015" style="fill:none;fill-rule:nonzero;stroke:#b0b0b0;stroke-width:.38px;stroke-linecap:butt;stroke-dasharray:.38,.62"/><path d="M94.144 60.648v-2.625m0-55.007v2.625" style="fill:none;fill-rule:nonzero;stroke:#000;stroke-width:.6px;stroke-linecap:butt"/><path d="M91.279 65.811h1.29v.31h-1.738v-.31l.575-.586c.24-.244.395-.401.457-.472q.182-.196.248-.336a.65.65 0 0 0 .071-.276.46.46 0 0 0-.152-.351.58.58 0 0 0-.399-.141c-.117 0-.24.023-.366.061q-.216.072-.413.185v-.375q.223-.091.416-.135.189-.047.357-.047c.282 0 .504.074.674.214q.255.215.255.565a.8.8 0 0 1-.065.32q-.085.197-.228.357-.044.055-.293.307l-.688.71m2.069-2.423h1.453v.311h-1.117v.67q.08-.024.161-.041c.053-.005.112-.015.164-.015q.453.001.724.253.268.25.27.676 0 .448-.279.689-.278.24-.773.24-.173-.002-.352-.026a3 3 0 0 1-.366-.088v-.369q.16.087.34.135.175.042.372.04c.208 0 .378-.052.501-.166a.6.6 0 0 0 .184-.455.58.58 0 0 0-.184-.448c-.123-.114-.293-.17-.501-.17q-.15 0-.296.036a1.5 1.5 0 0 0-.302.099zm3.172.243q-.285 0-.43.282-.146.28-.144.843 0 .563.144.844t.43.281.431-.281q.143-.281.143-.844-.001-.562-.142-.843-.147-.282-.432-.282m0-.292a.8.8 0 0 1 .7.362c.161.247.247.598.247 1.055 0 .463-.086.815-.247 1.055q-.243.36-.703.36-.461 0-.703-.36-.24-.361-.24-1.055 0-.685.24-1.055.243-.361.706-.363m-45.123 6.709h2.074v.375h-1.628v.973h1.561v.372h-1.561v1.189h1.666v.372h-2.112zm3.216 2.912v1.301h-.405v-3.392h.405v.372a.83.83 0 0 1 .32-.322.94.94 0 0 1 .469-.108q.442.002.729.354.277.359.278.937-.001.582-.278.935a.9.9 0 0 1-.729.352 1 1 0 0 1-.469-.105.8.8 0 0 1-.32-.325m1.377-.858c0-.299-.061-.528-.184-.698a.6.6 0 0 0-.504-.257.58.58 0 0 0-.504.258c-.126.169-.185.397-.185.697 0 .296.059.53.185.7.12.173.287.252.504.252.2.008.39-.087.504-.252q.184-.256.184-.7m2.043-.948a.6.6 0 0 0-.513.255q-.19.255-.19.693c0 .297.059.525.185.698a.61.61 0 0 0 .518.252.6.6 0 0 0 .513-.252c.126-.173.19-.401.19-.698 0-.289-.064-.524-.19-.693a.6.6 0 0 0-.513-.255m0-.343c.352 0 .627.117.829.343.197.228.302.541.302.948 0 .405-.105.718-.302.944-.202.232-.477.343-.829.343-.354 0-.636-.111-.832-.343q-.298-.338-.298-.944c0-.407.1-.72.299-.948.196-.226.477-.343.832-.343m3.574.152v.378a2 2 0 0 0-.349-.141 1.5 1.5 0 0 0-.346-.046c-.261 0-.468.084-.612.252q-.216.246-.217.697 0 .451.217.7c.143.167.351.249.612.249.117 0 .229-.015.345-.047q.184-.05.35-.144v.375a1.6 1.6 0 0 1-.353.117 2.3 2.3 0 0 1-.386.036c-.369 0-.667-.111-.881-.345q-.333-.35-.332-.942-.001-.602.332-.945.329-.346.907-.346.189-.002.364.04.177.038.349.112m2.747.882v1.485h-.405v-1.47q-.002-.352-.14-.522-.132-.176-.404-.176-.328 0-.516.211-.19.207-.19.566v1.391h-.405v-3.419h.405v1.339a.95.95 0 0 1 .343-.328.94.94 0 0 1 .453-.111c.279 0 .495.09.639.263q.218.265.22.771" style="fill-rule:nonzero"/><path d="M18.236 60.648h79.221" style="fill:none;fill-rule:nonzero;stroke:#b0b0b0;stroke-width:.38px;stroke-linecap:butt;stroke-dasharray:.38,.62"/><path d="M18.236 60.648h2.625m76.596 0h-2.625" style="fill:none;fill-rule:nonzero;stroke:#000;stroke-width:.6px;stroke-linecap:butt"/><path d="M14.414 59.582q-.285 0-.431.281-.145.282-.144.844 0 .562.144.844.145.28.431.281.285 0 .43-.281.143-.282.143-.844-.001-.562-.142-.844-.146-.28-.431-.281m0-.292a.8.8 0 0 1 .699.362c.162.247.247.598.247 1.055 0 .463-.085.815-.247 1.055q-.243.36-.702.36-.461 0-.704-.36-.24-.361-.24-1.055 0-.686.24-1.055.243-.361.707-.363" style="fill-rule:nonzero"/><path d="M18.236 51.016h79.221" style="fill:none;fill-rule:nonzero;stroke:#b0b0b0;stroke-width:.38px;stroke-linecap:butt;stroke-dasharray:.38,.62"/><path d="M18.236 51.016h2.625m76.596 0h-2.625" style="fill:none;fill-rule:nonzero;stroke:#000;stroke-width:.6px;stroke-linecap:butt"/><path d="M11.55 52.127h1.29v.311h-1.738v-.311l.575-.586q.362-.365.457-.472.181-.197.249-.336a.6.6 0 0 0 .07-.276.46.46 0 0 0-.152-.351.58.58 0 0 0-.398-.141c-.118 0-.24.023-.367.061q-.216.072-.413.185v-.375q.223-.092.416-.135.19-.047.358-.047.42.002.673.214.255.215.255.566a.8.8 0 0 1-.064.319q-.086.197-.228.357-.043.055-.294.308l-.688.709m2.857-2.179q-.285 0-.431.281-.145.281-.144.844 0 .563.144.843.145.282.431.282.285 0 .43-.282.143-.28.143-.843-.001-.563-.142-.844-.146-.282-.431-.281m0-.293a.8.8 0 0 1 .699.362c.162.247.247.598.247 1.056 0 .462-.085.814-.247 1.054q-.243.36-.702.36-.461 0-.704-.36-.24-.36-.24-1.054 0-.686.24-1.056.243-.361.707-.363" style="fill-rule:nonzero"/><path d="M18.236 41.38h79.221" style="fill:none;fill-rule:nonzero;stroke:#b0b0b0;stroke-width:.38px;stroke-linecap:butt;stroke-dasharray:.38,.62"/><path d="M18.236 41.38h2.625m76.596 0h-2.625" style="fill:none;fill-rule:nonzero;stroke:#000;stroke-width:.6px;stroke-linecap:butt"/><path d="m12.248 40.393-.933 1.458h.933zm-.096-.323h.462v1.781h.39v.308h-.39v.645h-.366v-.645h-1.233v-.357zm2.256.244q-.285 0-.431.281-.145.282-.144.844 0 .562.144.844.145.28.431.281.285 0 .43-.281.143-.282.143-.844-.001-.562-.142-.844-.146-.28-.431-.281m0-.293a.8.8 0 0 1 .699.363c.162.246.247.597.247 1.055 0 .463-.085.814-.247 1.054q-.243.36-.702.36-.461 0-.704-.36-.24-.36-.24-1.054 0-.686.24-1.055.243-.362.707-.363" style="fill-rule:nonzero"/><path d="M18.236 31.747h79.221" style="fill:none;fill-rule:nonzero;stroke:#b0b0b0;stroke-width:.38px;stroke-linecap:butt;stroke-dasharray:.38,.62"/><path d="M18.236 31.747h2.625m76.596 0h-2.625" style="fill:none;fill-rule:nonzero;stroke:#000;stroke-width:.6px;stroke-linecap:butt"/><path d="M12.066 31.654a.49.49 0 0 0-.392.173c-.097.112-.146.27-.146.463q0 .301.146.469a.49.49 0 0 0 .392.17.49.49 0 0 0 .396-.17c.097-.111.146-.27.146-.469 0-.193-.049-.351-.146-.462a.5.5 0 0 0-.396-.173m.735-1.159v.339a1.3 1.3 0 0 0-.562-.138q-.369.001-.562.249c-.126.165-.203.417-.218.747a.76.76 0 0 1 .27-.246.8.8 0 0 1 .36-.084q.414 0 .651.252.236.248.237.676-.002.422-.249.677-.248.25-.662.252-.471 0-.723-.36-.25-.362-.249-1.056c0-.431.099-.776.308-1.031a1 1 0 0 1 .822-.387c.091 0 .185.012.282.026q.139.03.296.083m1.606.184q-.285 0-.431.282-.145.28-.144.843 0 .563.144.844.145.281.431.281.285 0 .43-.281.143-.281.143-.844-.001-.562-.142-.843-.146-.282-.431-.282m0-.292a.8.8 0 0 1 .699.362q.245.37.247 1.055c0 .463-.085.815-.247 1.055q-.243.36-.702.36-.461 0-.704-.36-.24-.361-.24-1.055 0-.685.24-1.055.243-.361.707-.363" style="fill-rule:nonzero"/><path d="M18.236 22.111h79.221" style="fill:none;fill-rule:nonzero;stroke:#b0b0b0;stroke-width:.38px;stroke-linecap:butt;stroke-dasharray:.38,.62"/><path d="M18.236 22.111h2.625m76.596 0h-2.625" style="fill:none;fill-rule:nonzero;stroke:#000;stroke-width:.6px;stroke-linecap:butt"/><path d="M12.023 22.237a.6.6 0 0 0-.417.143c-.102.094-.15.22-.15.388q-.002.246.15.39a.6.6 0 0 0 .417.137c.172 0 .31-.044.412-.144.104-.1.159-.24.153-.383a.5.5 0 0 0-.15-.387.58.58 0 0 0-.415-.144m-.372-.158a.64.64 0 0 1-.369-.22.6.6 0 0 1-.132-.399c0-.216.072-.39.231-.515q.232-.193.642-.193.405 0 .641.193a.64.64 0 0 1 .232.515.6.6 0 0 1-.135.399.64.64 0 0 1-.366.22.76.76 0 0 1 .416.246.7.7 0 0 1 .149.443c0 .263-.082.468-.243.606-.165.144-.399.21-.697.21-.302 0-.534-.067-.695-.21q-.24-.209-.24-.607 0-.261.15-.443a.75.75 0 0 1 .416-.245m-.135-.583c0 .141.041.255.132.334q.133.114.375.114a.56.56 0 0 0 .372-.114.44.44 0 0 0 .135-.334.42.42 0 0 0-.135-.331.54.54 0 0 0-.372-.12q-.242 0-.375.12c-.091.079-.132.187-.132.331m2.892-.451q-.285 0-.431.281-.145.282-.144.844 0 .562.144.844.145.28.431.281.285 0 .43-.281.143-.282.143-.844-.001-.562-.142-.844-.146-.28-.431-.281m0-.293a.8.8 0 0 1 .699.363c.162.246.247.597.247 1.055 0 .463-.085.814-.247 1.054q-.243.36-.702.36-.461 0-.704-.36-.24-.36-.24-1.054 0-.686.24-1.055.243-.361.707-.363" style="fill-rule:nonzero"/><path d="M18.236 12.478h79.221" style="fill:none;fill-rule:nonzero;stroke:#b0b0b0;stroke-width:.38px;stroke-linecap:butt;stroke-dasharray:.38,.62"/><path d="M18.236 12.478h2.625m76.596 0h-2.625" style="fill:none;fill-rule:nonzero;stroke:#000;stroke-width:.6px;stroke-linecap:butt"/><path d="M8.905 13.591h.604v-2.086l-.657.131v-.337l.652-.132h.37v2.423h.604v.311H8.904zm3.112-2.18q-.285 0-.431.281t-.144.844q0 .562.144.844.145.28.431.281.285 0 .43-.281.143-.282.143-.844-.001-.562-.142-.844-.147-.28-.431-.281m0-.292a.8.8 0 0 1 .699.362q.245.37.247 1.055c0 .463-.085.815-.247 1.055q-.243.36-.702.36-.462 0-.704-.36-.24-.361-.24-1.055 0-.686.24-1.055.243-.362.707-.363m2.385.293q-.285 0-.43.281t-.144.844.144.844q.144.28.43.281.286 0 .431-.281.143-.282.143-.844-.001-.562-.142-.844-.147-.28-.432-.281m0-.292q.457.001.7.362c.161.247.247.598.247 1.055 0 .463-.086.815-.247 1.055q-.243.36-.703.36-.461 0-.703-.36-.24-.361-.24-1.055 0-.686.24-1.055.243-.362.706-.363M.893 53.14v-1.884h.375v1.438h.967v-1.297h.371v1.297h1.568v.446zm1.104-3.523q0 .325.255.513.256.19.694.19c.296 0 .525-.059.698-.185a.61.61 0 0 0 .252-.517.6.6 0 0 0-.252-.514c-.173-.125-.402-.19-.698-.19-.289 0-.524.065-.694.19a.6.6 0 0 0-.255.513m-.342 0c0-.352.117-.627.342-.829.228-.196.542-.302.949-.302.405 0 .718.105.944.302.231.203.342.477.342.829 0 .355-.111.636-.342.832q-.338.299-.944.299c-.407 0-.72-.1-.949-.299-.225-.196-.342-.477-.342-.832m.436-3.225a.5.5 0 0 0-.058.146 1 1 0 0 0-.018.176q.002.346.225.528c.147.126.357.184.639.184h1.295v.405H1.713v-.405h.381a.8.8 0 0 1-.331-.328 1.03 1.03 0 0 1-.108-.501l.003-.093c.005-.033.008-.068.02-.112zm-.284-2.199h.378a1.7 1.7 0 0 0-.141.349 1.5 1.5 0 0 0-.047.345c0 .261.085.469.252.613q.247.216.698.217.45-.001.7-.218c.167-.142.249-.351.249-.612a1.5 1.5 0 0 0-.191-.694h.375q.081.177.117.352.033.184.035.387c0 .369-.111.667-.345.881q-.348.333-.941.331-.603.002-.946-.331-.345-.329-.345-.908-.002-.188.04-.363.04-.18.112-.349m1.034-2.805h.199v1.857c.278-.017.495-.099.639-.251.143-.15.217-.355.217-.624a1.77 1.77 0 0 0-.232-.888h.384c.061.143.111.292.141.445.026.152.043.311.043.463q.001.592-.337.937-.339.343-.928.343-.598 0-.958-.325-.353-.327-.354-.882.002-.499.318-.788c.218-.187.504-.287.868-.287m-.118.404a.8.8 0 0 0-.53.185.63.63 0 0 0-.196.48.77.77 0 0 0 .193.542q.19.203.533.235zm-1.83-2.517v-.659l2.232-.838-2.232-.841v-.662h3.281v.431h-2.88l2.25.847v.445l-2.25.847h2.88v.43zm.436-4.978 1.635.603v-1.207zm-.436.252v-.504l3.281-1.251v.462l-.841.297v1.482l.841.296v.469zm0-2.235v-2.073h.375v1.628h.972v-1.562h.372v1.562h1.19v-1.667h.372v2.112zm-.138-4.218v-.932h.313v.527h3.381v-.527h.314v.932zm1.43-3.71a1.1 1.1 0 0 1-.401-.36.93.93 0 0 1-.129-.499q0-.38.269-.588c.178-.141.436-.214.765-.214h1.485v.407h-1.47q-.353.001-.528.126-.168.127-.17.381 0 .317.211.501.207.18.566.179h1.391v.405h-1.47c-.235 0-.411.046-.528.125q-.168.131-.17.39 0 .309.211.495.207.179.566.178h1.391v.405H1.713v-.405h.381a.9.9 0 0 1-.331-.333.9.9 0 0 1-.108-.458c0-.181.043-.328.135-.454a.83.83 0 0 1 .395-.281m.656-4.57h.199v1.857c.278-.018.495-.099.639-.252.143-.15.217-.354.217-.624a1.8 1.8 0 0 0-.232-.888h.384c.061.144.111.293.141.446.026.152.043.31.043.463q.001.59-.337.937-.339.343-.928.343-.598 0-.958-.326-.353-.326-.354-.881.002-.5.318-.788c.218-.188.504-.287.868-.287m-.118.404a.8.8 0 0 0-.53.184.64.64 0 0 0-.196.48c0 .226.068.408.193.543q.19.203.533.234zm1.451-1.931L.893 19.54v-.463l2.763-1.04-2.763-1.04v-.463l3.281 1.251zM.893 15.355v-.375l3.694 1.145v.372zm-.294-2.247a.32.32 0 0 0-.231.1.32.32 0 0 0-.099.234l-.001.011c0 .176.145.32.321.32h.022a.324.324 0 0 0 .323-.322v-.008a.333.333 0 0 0-.334-.335m.73.334 1.635.598v-1.199zm-.225.332a.59.59 0 0 1-.504.272.6.6 0 0 1-.601-.603.597.597 0 0 1 .6-.604c.202 0 .392.102.504.269l3.07-1.169v.463l-.841.296v1.483l.841.295v.469zm-.35-3.24h4.008v.932h-.314v-.527h-3.38v.527H.755z" style="fill-rule:nonzero"/><path d="m21.836 4.858.291 2.892.577 7.136 1.157 6.922.58 1.706.578 1.318.866 1.073.29.111.581.586.286.551.29-.692.291.853.577.542 1.737 1.283.867.393.578-.026.289.255.29-1.551.288-23.332.29 12.387.289 8.698.291 1.266.867 1.275.287.111 1.737 1.18.287.077.29.184.291-.052.289.237.868.141.577.459.29-.161.29.197.287.081.29.208.29-.008.29.295.287-.152.29.296.29-.477.291-.182.577.767.29.109.287.217.289-.191.291.276.577.073.29-.035.29.126.29.287.287.044.29-.094 1.157.27.29-.206.288.279.289.147.29.034.288-.085.579.331.291-.135.287.15.29-.07.29.076.29-.076.287.184 1.448.152.289-.011.287.146.581-.067 1.157.322.287-.078.58.043.867.146.578.009 1.157.071.289.217.291-.168.29.215.287-.092.29.1.29-.073.287.15.87.046.287.088.29-.096.29.076.287.164.58-.203.29.083.288-.018.579.238.291-.053.577.096.578-.015.289-.075.58.17.287.108.29-.094 1.158.152.577-.12.29.158.29-.067 1.444.07.29-.023.29.135.29-.193.578.263.289-.085 2.602-.03.29.197.29.038.29-.22.287.15 1.448.143.286-.09 1.448.07.29-.026.578.082" style="fill:none;fill-rule:nonzero;stroke:#1f77b4;stroke-width:.75px"/><path d="m21.836 5.614.867 10.638.581 4.66.289 1.583.288 2.074.29.964.29 1.585.29-1.014.287 1.884.29.682.29.223.287.583.29.187.29-.38.291.978.286.636.29.384.291.131 1.157 1.058.287.144.29-.132.29 1.063.577.317.29-.114.29-.006.287.207.291.428.289-.114.29.064.288.22.29.08.289.231.291-4.503.287 3.791.58.844.577.369.29-.006.577.228.867.003.581.507.289-.009.287.083.291-1.415.29.837.289.551.288.296.29-.334.29.311.287.184.29-.624.29-.024.29.566.287.187.29-.093.29.278 1.158-.111.287.243.289-.094.291.258 1.157-.103.577.252.29-.225.29.173.578-.135.579.393.288-.422.289.395.29-.208 1.158.293.287-.19.58.307.29-6.811.287 5.965.29.442.29-.146.287-1.811.29 1.315.291.464.577.465.58.165.289.207.578-.035.29-.079.287.132.29-.088.58.202.287-.064 3.472.319.29-.021.287.068.29-.044.29.088.29-.1.287.132.58-.117.578.141.289-.086.868.1.289.12.578-.117.29.202.578-.176 1.156.044.29-.015.578.135.58-.075.577.046.58-.052.577.123.58.017.287-.073 1.737.044.291-.1.577.161.867-.029.29-.074.577.057.87.114.867-.103.578.064.289.027.287-.09.87.142 1.445-.099" style="fill:none;fill-rule:nonzero;stroke:#ff7f0e;stroke-width:.75px"/><path d="m21.836 7.45.291 6.624.289 3.498.287 2.388.291 3.091.867 5.241.29 1.401.29.741.29-1.535.287 1.678.29-.652.29 1.59.578.976.289.468.291-.14.286.683.29 2.047.291.109.29.316.286-.439.291.07.29-.578.287-.952.29 2.095.29.182.29.319.287-.178.58.568.287-.129.87.51.288-.434.87.73.287-.179.289.023.291.534.287.026.29-.635.29.272.29-4.729.287 4.96.29-.05.867.543.291.225.577.234.29-.518.29.829.289.272.288.112.29-.407.29.032.287.284.29.085.29-.074.867.36 1.157.083.291.049.287-.114.87.273.577-.225.29.178.29-.03.287.2.29-.167 1.447.068.288.175.289-.111.578.07.87.118.287-.027.58.202.577-.123.29.079 1.158.035.867.071.29.123.289-.114.288.008.29.097.29-.07 1.734.205.29.07.288-.31.289.067.29.176.291-.059.287.12.289-.082.291.018.29-.126.287.219.29.003.29-.105.287.082.29-.056.29.076.867-.003.868.083.289-.045.29-.143.288.228.29.103.289.012.291-.185.287.132 1.157-.059.29.141 2.892.173.29-.185.29.111.287-.032.29.071.577-.062.29.068.29-.03.29.097.288-.052.289.058.868-.109.58.126.29-.052.287.067.29-.041.287.088.29-.088.87.076.287-.064.29.09.868-.064 1.157.053.289.073.868-.079.578-.011" style="fill:none;fill-rule:nonzero;stroke:#2ca02c;stroke-width:.75px"/><path d="M18.236 60.648V3.015m79.221 57.633V3.015M18.236 60.648h79.221M18.236 3.016h79.221" style="fill:none;fill-rule:nonzero;stroke:#000;stroke-width:.6px;stroke-linejoin:miter"/></svg>