<svg xmlns="http://www.w3.org/2000/svg" xmlns:xlink="http://www.w3.org/1999/xlink" width="100.4" height="116.455"><style>.B{fill:#fddd04}.C{fill:#241d10}.D{fill:#231f20}.F{fill:#ef2e31}</style><defs><clipPath id="A"><path d="M0 0h100.398v116.453H0zm0 0"/></clipPath><path id="B" d="M41.91 46.938a.837.837 0 0 0-.836.836.84.84 0 0 0 .836.844.84.84 0 0 0 .84-.844.84.84 0 0 0-.84-.836m0 1.941c-.605 0-1.102-.496-1.102-1.105s.496-1.098 1.102-1.098 1.105.492 1.105 1.098-.496 1.105-1.105 1.105"/></defs><g fill="none" stroke-width=".241" style="stroke-miterlimit:10"><path stroke="#FDDD04" d="M95.758 63.598c-.215 5.246-.98 10.008-2.293 14.176-1.27 4.039-3.082 7.637-5.395 10.688-4.309 5.695-9.543 8.539-13.008 10.422-.301.164-2.355 1.211-12.238 6.137V63.598h32.934m-58.184 0v41.418l-12.238-6.133C21.871 97 16.641 94.156 12.332 88.461c-2.312-3.051-4.129-6.648-5.395-10.687-1.312-4.168-2.082-8.93-2.293-14.176h32.93"/><path stroke="#1D1717" d="M62.824 4.578H95.82v33.77H62.824zm-58.242 0h32.992v33.77H4.582zm0 0"/></g><g class="C" clip-path="url(#A)"><path d="m50.199 116.453-.996-.531-26.055-13.016C15.637 98.824 0 90.324 0 60.555V0h100.398v60.555c0 29.77-15.633 38.27-23.148 42.352-1.383.754-24.711 12.348-26.051 13.016l-1 .531"/></g><path fill="#FFF" d="M60.414 40.758V2.168h-20.43v38.59H2.168v19.797l.008.633h37.809v47.723l10.211 5.082c.008 0 4.77-2.367 10.219-5.078V61.188h37.809l.008-.633V40.758z"/><path d="M2.168 2.168h37.816v38.59H2.168zm58.246 0H98.23v38.59H60.414zm-20.43 59.02H2.176C2.391 88.852 16.578 96.863 24.184 101c.773.418 8.852 4.449 15.801 7.91zm20.429 0v47.727L76.215 101c7.609-4.137 21.797-12.148 22.008-39.812z" class="F"/><path d="m73.402 51.273.781-.93-.984-1.172-.988 1.172.781.93c.012.469.039 4.559-2.371 6.023 0 0 .805.152 1.883-.055a12 12 0 0 0 .695 2.285c.504-1.219.691-2.285.691-2.285 1.082.207 1.887.055 1.887.055-2.414-1.465-2.387-5.555-2.375-6.023m6.161-6.953.781-.926-.988-1.172-.988 1.172.785.926c.012.469.039 4.563-2.371 6.023 0 0 .801.156 1.883-.051a12 12 0 0 0 .691 2.281c.508-1.219.695-2.281.695-2.281 1.078.207 1.883.051 1.883.051-2.414-1.461-2.383-5.555-2.371-6.023m6.156 6.953.781-.93-.984-1.172-.988 1.172.781.93c.012.469.043 4.559-2.371 6.023 0 0 .805.152 1.883-.055a12 12 0 0 0 .695 2.285c.504-1.219.691-2.285.691-2.285 1.082.207 1.887.055 1.887.055-2.414-1.465-2.387-5.555-2.375-6.023m6.16-6.953.781-.926-.988-1.172-.984 1.172.781.926c.012.469.039 4.563-2.375 6.023 0 0 .809.156 1.883-.051a12 12 0 0 0 .695 2.281c.508-1.219.695-2.281.695-2.281 1.078.207 1.883.051 1.883.051-2.41-1.461-2.383-5.555-2.371-6.023m-24.633 0 .781-.926-.988-1.172-.988 1.172.785.926c.008.469.039 4.563-2.375 6.023 0 0 .805.156 1.883-.051a12 12 0 0 0 .695 2.281c.508-1.219.695-2.281.695-2.281 1.078.207 1.883.051 1.883.051-2.414-1.461-2.383-5.555-2.371-6.023M15.09 51.273l.781-.93-.984-1.172-.988 1.172.781.93c.012.469.039 4.559-2.371 6.023 0 0 .805.152 1.883-.055a12 12 0 0 0 .695 2.285c.504-1.219.691-2.285.691-2.285 1.078.207 1.887.055 1.887.055-2.414-1.465-2.387-5.555-2.375-6.023m6.16-6.953.781-.926-.988-1.172-.984 1.172.781.926c.012.469.039 4.563-2.375 6.023 0 0 .805.156 1.887-.051a12 12 0 0 0 .691 2.281c.508-1.219.695-2.281.695-2.281 1.078.207 1.883.051 1.883.051-2.414-1.461-2.383-5.555-2.371-6.023m6.156 6.953.781-.93-.984-1.172-.988 1.172.781.93c.012.469.039 4.559-2.371 6.023 0 0 .805.152 1.883-.055a12 12 0 0 0 .695 2.285c.504-1.219.691-2.285.691-2.285 1.078.207 1.887.055 1.887.055-2.418-1.465-2.383-5.555-2.375-6.023m6.16-6.953.781-.926-.988-1.172-.984 1.172.781.926c.008.469.039 4.563-2.375 6.023 0 0 .805.156 1.883-.051 0 0 .191 1.063.695 2.281.508-1.219.695-2.281.695-2.281 1.078.207 1.883.051 1.883.051-2.414-1.461-2.383-5.555-2.371-6.023m-24.636 0 .785-.926-.988-1.172-.988 1.172.781.926c.012.469.043 4.563-2.371 6.023 0 0 .805.156 1.883-.051a12 12 0 0 0 .695 2.281c.508-1.219.691-2.281.691-2.281 1.082.207 1.887.051 1.887.051-2.414-1.461-2.383-5.555-2.375-6.023m41.523 22.625.781-.926-.988-1.172-.984 1.172.781.926c.012.469.043 4.559-2.371 6.023 0 0 .805.156 1.883-.055 0 0 .188 1.066.691 2.285.508-1.219.695-2.285.695-2.285 1.082.211 1.887.055 1.887.055-2.418-1.465-2.387-5.555-2.375-6.023m0 20.91.781-.93-.988-1.168-.984 1.168.781.93c.012.469.043 4.563-2.371 6.023 0 0 .805.156 1.883-.055 0 0 .188 1.066.691 2.285.508-1.219.695-2.285.695-2.285 1.082.211 1.887.055 1.887.055-2.418-1.461-2.387-5.555-2.375-6.023m5.711-10.453.781-.93-.988-1.172-.984 1.172.781.93c.012.465.039 4.559-2.371 6.023 0 0 .801.152 1.883-.055 0 0 .188 1.066.691 2.285.508-1.219.695-2.285.695-2.285 1.078.207 1.883.055 1.883.055-2.414-1.465-2.383-5.559-2.371-6.023m-11.484 0 .781-.93-.988-1.172-.984 1.172.781.93c.012.465.039 4.559-2.371 6.023 0 0 .805.152 1.883-.055 0 0 .188 1.066.691 2.285.508-1.219.695-2.285.695-2.285 1.078.207 1.883.055 1.883.055-2.41-1.465-2.383-5.559-2.371-6.023m11.484 20.907.781-.926-.988-1.172-.984 1.172.781.926c.012.469.039 4.563-2.371 6.023 0 0 .801.156 1.883-.051a12 12 0 0 0 .691 2.281c.508-1.215.695-2.281.695-2.281 1.078.207 1.883.051 1.883.051-2.414-1.461-2.383-5.555-2.371-6.023m-11.484 0 .781-.926-.988-1.172-.984 1.172.781.926c.012.469.039 4.563-2.371 6.023 0 0 .805.156 1.883-.051a12 12 0 0 0 .691 2.281c.508-1.215.695-2.281.695-2.281 1.078.207 1.883.051 1.883.051-2.41-1.461-2.383-5.555-2.371-6.023m5.773-78.981.781-.93-.988-1.172-.984 1.172.781.93c.012.465.043 4.559-2.371 6.02 0 0 .805.156 1.883-.051a12 12 0 0 0 .691 2.281c.508-1.215.695-2.281.695-2.281 1.082.207 1.887.051 1.887.051-2.418-1.461-2.387-5.555-2.375-6.02m5.711-10.457.781-.93-.988-1.172-.984 1.172.781.93c.012.469.039 4.559-2.371 6.023 0 0 .801.156 1.883-.055 0 0 .188 1.066.691 2.285.508-1.219.695-2.285.695-2.285 1.078.211 1.883.055 1.883.055-2.414-1.465-2.383-5.555-2.371-6.023m-11.484 0 .781-.93-.988-1.172-.984 1.172.781.93c.012.469.039 4.559-2.371 6.023 0 0 .805.156 1.883-.055 0 0 .188 1.066.691 2.285.508-1.219.695-2.285.695-2.285 1.078.211 1.883.055 1.883.055-2.41-1.465-2.383-5.555-2.371-6.023m11.484 20.91.781-.93-.988-1.168-.984 1.168.781.93c.012.469.039 4.559-2.371 6.023 0 0 .801.152 1.883-.055 0 0 .188 1.066.691 2.285.508-1.219.695-2.285.695-2.285 1.078.207 1.883.055 1.883.055-2.414-1.465-2.383-5.555-2.371-6.023m-11.484 0 .781-.93-.988-1.168-.984 1.168.781.93c.012.469.039 4.559-2.371 6.023 0 0 .805.152 1.883-.055 0 0 .188 1.066.691 2.285.508-1.219.695-2.285.695-2.285 1.078.207 1.883.055 1.883.055-2.41-1.465-2.383-5.555-2.371-6.023m-12.86-8.558.125.48.258 1.027c.402 1.832.746 2.309 1.633 2.309.508 0 .93-.281 1.059-.707l.195-.641a.3.3 0 0 1 .305-.234c.348 0 .512.359.523 1.164q.01.346.23 1.57c.082.48.125.949.125 1.398a2.26 2.26 0 0 1-.191 1.004c.109.629.195 1.477.195 1.965 0 .793-.152 1.527-.387 1.914a4 4 0 0 1 .16 1.207 6 6 0 0 1-.098 1.07l-.172 1.105a1.4 1.4 0 0 0 .074.43c.063.188.098.313.098.387 0 .09-.043.16-.098.16l-.641-.258-.703-.383c-.227-.125-.387-.25-.738-.574-.621.559-.809.641-2.434 1.09q-.494.13-.707.289c-.203.145-.352.219-.426.219-.277 0-.41-.441-.41-1.355 0-.68.07-1.312.195-1.785-.48-.184-.887-.289-1.145-.289a7 7 0 0 0-.492.063l-.117.012c-.094 0-.172-.141-.172-.309 0-.125.086-.434.195-.695l.32-.766c.113-.281.379-.602.77-.93.316-.27.605-.437.832-.484l1.156-.223c.684-.133 1.094-.496 1.094-.973 0-.461-.312-.773-1-1.016l-1.379-.48c-.355-.121-.773-.328-1.25-.605-.766-.453-.895-.516-1.074-.516-.277 0-.434.207-.434.57 0 .57.367.969.898.969a.9.9 0 0 0 .32-.062c.156-.062.27-.098.332-.098.145 0 .223.082.223.242l-.008.141-.066.547c-.055.465-.355 1.027-1.023 1.922l-.289.387c-.262 1.031-.902 1.973-1.73 2.531l-.352.254a5 5 0 0 0-.258.449c-.066.125-.281.379-.641.77a6 6 0 0 1-.801.738c-.359.27-.574.469-.641.578l-.32.547a.3.3 0 0 1-.258.156c-.285 0-.547-.293-.707-.797-.117-.375-.223-.484-.461-.484-.125 0-.316.031-.562.098l-.449.063h-1.156c-.574 0-1.387.148-1.762.324a.9.9 0 0 1-.328.098c-.082 0-.129-.039-.215-.195a.45.45 0 0 1-.07-.258c0-.586.418-1.687.965-2.566.352-.551.461-.68.867-1.023-.133-.543-.477-.965-.895-1.09l-.547-.16c-.078-.023-.129-.086-.129-.156 0-.164.258-.395.738-.645.625-.332 1.254-.516 1.762-.516.531 0 1.047.211 1.637.676.867.68 1.102.805 1.527.805.684 0 1.336-.629 1.336-1.285 0-.441-.234-.91-.848-1.699-.891-1.156-1.16-1.758-1.16-2.605 0-.527.164-1.199.359-1.5l.32-.477a.6.6 0 0 0 .109-.309c0-.215-.246-.371-.582-.371-.504 0-1.477.363-2.25.836-.383.238-.648.512-.648.684a.3.3 0 0 0 .133.25l.355.223c.043.027.07.078.07.133 0 .047-.055.148-.133.25l-.645.836a11 11 0 0 1-1.344 1.41q-.257.221-.32.32-.007.006-.254.48c-.23.43-.836 1.047-1.414 1.441-.234.164-.387.281-.449.355-.047.051-.133.203-.254.445a8 8 0 0 1-.418.672c-.312.465-.574.797-.77.996l-.898.898c-.277.273-.52.813-.898 1.984-.223.711-.43 1.125-.547 1.125-.055 0-.145-.07-.254-.195-.633-.723-1.18-1.156-1.469-1.156-.066 0-.184.059-.355.164a2.5 2.5 0 0 1-.867.32l-1.184.223c-.898.172-1.25.363-1.766.965-.121.141-.223.223-.277.223-.098 0-.172-.16-.172-.375l.035-.297.16-.863c.172-.926.383-1.617.641-2.086l.543-.996a1.1 1.1 0 0 0 .16-.52c0-.738-.762-1.414-1.695-1.5-.238-.02-.328-.074-.328-.207 0-.164.262-.484.617-.754.641-.484 1.48-.832 2.016-.832.324 0 .828.137 1.441.383l.707.289a1.9 1.9 0 0 0 .715.164c.746 0 1.469-.68 2.359-2.211.402-.695.578-1.195.578-1.648 0-.809-.383-1.301-1.016-1.301-.48 0-1.008.227-1.387.605-.324.324-.492.664-.492.992l.012.355.004.078c0 .301-.102.469-.281.469-.301 0-.742-.434-2-1.957-.937-1.137-1.145-1.621-1.184-2.758-1.09-1.387-1.359-1.973-1.359-2.961l.047-.66c-.754-.906-.965-1.398-.965-2.23 0-.301.047-.48.227-.844-.383-.562-.508-.812-.609-1.25l-.16-.676a3.5 3.5 0 0 0-.516-1.187c-.289-.414-.32-.469-.32-.609 0-.371.258-.52 1.383-.797a5 5 0 0 1-.066-.715c0-.184.02-.363.098-.762l.223-1.187q.136-.718.137-1.027c0-.219-.035-.379-.234-1.023-.113-.363-.207-.613-.285-.734-.109-.164-.195-.367-.195-.441 0-.109.078-.176.219-.176.32 0 1.156.508 2.023 1.227 1.84 1.52 2.219 2.129 2.469 3.973l.098.645c.883.648 1.348 1.43 1.348 2.27 0 .664-.242 1.434-.645 2.055l-.641.996a1.95 1.95 0 0 0-.289 1.059c0 .602.176 1.156.609 1.918.492.863.91 1.219 1.43 1.219.844 0 1.586-1.469 1.586-3.141v-.227l-.008-.574c0-.328.02-.652.07-1.055l.094-.934.035-.77.012-.504c0-.18-.098-.363-.336-.617l-.699-.77c-1.023-1.109-1.582-2.156-1.582-2.937 0-.973.699-1.707 1.637-1.707.188 0 .355.031.68.125v-.219c0-1.41.289-2.457.676-2.457l.156.051.578.512.703.449.195.191c0-.398.02-.441.418-.898a8 8 0 0 0 .445-.609l.32-.48.16-.289c.086-.164.172-.238.266-.238s.164.117.281.465c.074.219.125.277.676.77.188.172.32.313.379.418q.082.131.258.637l.098.258a2 2 0 0 1 .641-.578l.48-.285c.18-.109.305-.168.355-.168.043 0 .102.078.16.195.051.117.137.273.254.48.34.598.457.883.457 1.164l-.012.313v.387c1.055.332 1.449.875 1.449 2.008 0 .813-.43 1.75-1.254 2.734-.551.656-.613.785-.613 1.242 0 2.371 1.652 3.746 4.555 3.789l2.148.031a10.4 10.4 0 0 1 3.492.578c1.527.496 1.969.609 2.41.609a.74.74 0 0 0 .414-.129c.117-.082.191-.191.191-.285 0-.449-.789-.809-3.367-1.543-5.285-1.496-7.531-3.625-7.531-7.125 0-2.707 2.25-4.801 5.16-4.801.938 0 2.379.246 3.203.547l1.313.48a2 2 0 0 0 .691.137c.449 0 .676-.371.691-1.129.008-.402.102-.543.363-.543.371 0 .941.461 1.461 1.184.527.734.867 1.559.867 2.105 0 .73-.34 1.238-1.121 1.68-.723 1.094-1.605 1.602-2.793 1.602-.93 0-2.242-.523-4.418-1.762-.762-.43-1.148-.574-1.547-.574-.566 0-.937.324-.937.828 0 .465.359.762 1.297 1.09 1.387.484 1.727.676 2.277 1.254 1.633.281 2.344.563 3.363 1.344 2.813.891 4.559 2.809 4.559 5.008 0 2.141-1.449 3.68-3.461 3.68-.477 0-.773-.035-1.512-.195" class="C"/><g class="B"><path d="M34.992 35.262c-.09-.387-.121-.586-.121-.773l.023-.254.098-.512.031-.414c0-.445-.074-.762-.223-.961l-.387-.516a2.4 2.4 0 0 1-.32-.609.9.9 0 0 1-.066-.27c0-.148.09-.238.234-.238.086 0 .121.016.41.188a.65.65 0 0 0 .313.109c.191 0 .297-.309.297-.852 0-.621-.059-.965-.191-1.117l-.484-.543-.414-.355c-.102-.086-.172-.195-.172-.277 0-.137.105-.234.262-.234.145 0 .453.07.711.16l.145.031c.133 0 .184-.074.184-.266l-.008-.117-.098-.676-.191-.703c-.062-.23-.098-.266-.242-.266l-.078.012-.801.156-.129.016c-1.051 0-2.16-.887-2.5-2l-.641-2.082c-.199-.645-.676-1.254-1.539-1.961-.258-.211-.484-.332-.641-.348l-.578-.066c-.105-.012-.172-.07-.172-.16 0-.129.121-.191.398-.191l1.055.094c.387.039.969.188 1.73.449.961.332 1.605.473 2.152.473 1.602 0 2.563-.867 2.563-2.316 0-.992-.52-2.113-1.312-2.836-.453-.402-.902-.707-1.059-.707a.167.167 0 0 0-.164.172l.035.406v.039c0 .16-.094.285-.219.285-.164 0-.344-.211-.551-.641-.609-1.262-1.57-2.012-2.566-2.012-.168 0-.285.07-.285.168 0 .066.051.227.156.465l.258.578q.1.228.102.293c0 .035-.059.07-.133.07-.148 0-.383-.129-.547-.301l-.477-.512-.418-.645c-.336-.512-.602-.742-1.316-1.117l-.77-.418c-.145-.086-.281-.129-.398-.129s-.168.055-.168.164a.7.7 0 0 0 .121.352c.238.363.328.547.328.641 0 .102-.074.191-.164.191-.246 0-.766-.508-1.223-1.187-.379-.562-.578-1.191-.578-1.801 0-1.375 1.004-2.402 2.367-2.402.703 0 1.59.297 2.41.805l1.504.93c.523.324 1.293.578 1.754.578.203 0 .625-.074.938-.16a1.6 1.6 0 0 0 .387-.16c.09-.055.152-.125.152-.18 0-.066-.035-.121-.09-.141l-.191-.062-.703-.133c-.184-.031-.477-.141-.863-.32l-1.605-.801c-.527-.344-.883-.547-1.059-.605-.258-.09-.422-.207-.422-.305s.051-.145.145-.145.211.047.34.125c.473.297.887.449 1.188.449l1.379.48c.684.242 1.68.449 2.133.449.578 0 1.051-.473 1.051-1.059 0-.379-.223-.941-.555-1.406-.074-.105-.152-.164-.219-.164-.129 0-.199.094-.199.258l.031.258.051.383c0 .414-.281.742-.637.742-.129 0-.301-.035-.504-.102l-2.082-.672c-1.746-.562-2.555-.738-3.43-.738-2.492.004-4.391 1.715-4.391 3.965 0 2.551 1.789 4.195 6.219 5.715 4.355 1.496 4.969 1.859 4.969 2.98 0 .645-.656 1.219-1.383 1.219a4.4 4.4 0 0 1-.77-.062l-2.176-.512c-1.316-.316-2.512-.453-3.988-.453-3.148 0-4.891.551-6.398 2.023-.375.367-.504.422-.937.422l-.215-.008-.449-.031h-.059c-.375 0-.652.172-.902.578l-.547.863a.46.46 0 0 1-.363.191c-.289 0-.461-.215-.789-.992a2.7 2.7 0 0 0-.672-.965l-.641-.574c-.105-.094-.164-.18-.164-.246s.047-.172.129-.297c.309-.449.414-.648.449-.836.086-.426.098-.449.273-.449.199 0 .258.199.273.934.004.211.09.504.258.863l.352.77c.043.098.16.16.289.16.332 0 .75-.777.863-1.602.094-.691.168-.902.309-.902.059 0 .109.023.141.066s.133.238.289.578c.082.176.227.344.418.48q.277.204.383.227l.039.004c.262 0 .348-.172.41-.777l.031-.316-.062-.453-.047-.309c0-.207.074-.332.191-.332.07 0 .156.047.238.129l.32.324c.215.211.43.316.633.316.27 0 .434-.105.434-.281 0-.156-.062-.309-.297-.742l-.223-.418c-.258-.48-.465-.672-.703-.672l-.324.031-.383.16a1 1 0 0 1-.25.074c-.062 0-.102-.055-.102-.129 0-.285.184-.738.543-1.305.254-.406.43-1.273.512-2.52.109-1.672.332-2.758.566-2.758.16 0 .219.137.219.492l-.016.441-.012.305c0 .301.066.543.145.543.273 0 .602-.41.859-1.07q.164-.422.164-.656l-.035-.148-.641-1.187-.641-.191c-.117-.035-.199-.09-.223-.145v-.781l-.066-.387-.129-.32-.156-.352c-.703.379-1.039.629-1.285.961s-.395.461-.52.461c-.082 0-.152-.078-.152-.168q0-.116.094-.52l.023-.18c0-.687-.422-1.367-1.109-1.805l-.191.254-.227.32-.387.449q-.183.218-.32.641a1.3 1.3 0 0 0-.066.367l.004.051.004.117c0 .266-.031.336-.148.336l-.082-.035-.223-.32-.352-.387-.547-.352-.285-.223-.129.285q-.154.335-.16.516l-.035.512-.031.543.004.094c0 .281-.066.391-.238.391-.059 0-.219-.07-.375-.164a.94.94 0 0 0-.465-.129c-.496 0-.816.344-.816.883 0 .645.188 1.258.516 1.684l.414.547c.113.145.324.27.336.188l.082-.672-.098-.543-.02-.246c0-.207.07-.332.191-.332.18 0 .289.199.406.738l.254 1.188.258 1.504c.066.406.199.836.383 1.281q.382.909.547 1.121c.355.457.395.52.395.621 0 .078-.066.152-.141.152a.7.7 0 0 1-.285-.098 1.3 1.3 0 0 0-.387-.129l-.25-.035c-.516 0-.621.441-.621 2.578 0 1.309.277 3.078.617 3.93l.672 1.703a2.2 2.2 0 0 1 .16.793c0 2.34-3.102 6.008-6.508 7.699-1.266.625-1.672 1.23-1.762 2.625l-.031.418c.516-.27.727-.355 1.09-.449.953-.246 1.141-.367 1.281-.832l.129-.418c.047-.156.129-.215.863-.609.254-.133.43-.277.516-.414.16-.27.297-.414.379-.414s.125.035.125.102l-.027.117-.316.914-.039.227c0 .676.371 1.23 1.063 1.582.117-.738.191-.992.418-1.344l.578-.898c.211-.332.301-.738.301-1.371a6 6 0 0 0-.078-1l-.02-.254c0-.164.082-.258.223-.258.113 0 .203.039.215.094l.129.609c.023.133.156.227.309.227.309 0 .711-.402 1.133-1.121a1.7 1.7 0 0 0 .238-.848l-.047-.437-.098-.477-.008-.094c0-.211.117-.359.285-.359.074 0 .133.027.141.063l.191.742c.066.246.238.418.414.418.219 0 .586-.371.805-.805a2.9 2.9 0 0 0 .289-1.309c0-.687.07-.883.32-.883.082 0 .145.031.16.078l.129.418c.047.152.141.254.227.254.133 0 .492-.391.734-.801a.6.6 0 0 0 .098-.297c0-.141-.09-.277-.289-.441-.336-.277-.355-.32-.355-.738 0-.402.066-.613.355-1.121a16 16 0 0 0 .414-.77c.406-.793.551-.996.699-.996.121 0 .234.133.234.281a.6.6 0 0 1-.066.266q-.129.271-.129.383c0 .125.105.23.238.23.145 0 .34-.07.563-.195.086-.051.387-.164.895-.352l1.063-.383c.172-.066.391-.098.641-.098a2.5 2.5 0 0 1 .574.063c.379.086.625.133.742.133.289 0 .543-.25.543-.535 0-.215-.219-.633-.516-.973q-.164-.194-.164-.293l.039-.129c.043-.078.105-.129.172-.129.215 0 .719.543 1.176 1.254 2.758 4.344 3.746 5.398 5.605 5.961 1.887.574 2.379 1.016 2.379 2.133 0 .613-.312 1.328-1 2.289-1.395 1.953-1.73 2.742-1.73 4.027v.238a7 7 0 0 0 .352-.16c.262-.133.438-.211.512-.227l.801-.16c.242-.047.457-.355.457-.652l-.004-.082-.098-.707-.008-.094a.94.94 0 0 1 .297-.676.3.3 0 0 1 .164-.07c.09 0 .199.086.254.199l.512 1.09c.211.445.453.656 1.121.961M9.148 12.023c-.23 0-.352.203-.375.645l-.062.605-.082.777c0 .457.137.797.324.797.203 0 .523-.391.684-.836.098-.273.145-.508.145-.75 0-.211-.051-.469-.145-.727-.117-.324-.293-.512-.488-.512M6.496 7.344l.449.449c.734.73 1.094 1.945 1.094 3.672 0 .379-.02.633-.102 1.648l-.062 1.32c0 3.977 1.293 6.98 3 6.98.539 0 .891-.258 1.395-1.023.082-.125.207-.234.289-.234.102 0 .152.086.156.266l.066.707.063.605.063.676.098.609.008.078q-.001.264-.23.305l-.578.098c-.285.043-.59.164-.898.352-.48.289-.773.516-.832.641l-.352.738c-.051.098-.125.16-.199.16-.187 0-.484-.324-.828-.898-.293-.488-.469-.887-.469-1.047 0-.102.078-.141.281-.141h.063l.414.031.254-.031.289-.031a.224.224 0 0 0 .195-.223.2.2 0 0 0-.129-.191l-1.441-.613c-.445-.184-.832-.559-1.09-1.055-.398-.758-.582-1.211-.582-1.441 0-.195.102-.328.262-.328a.54.54 0 0 1 .223.07c.145.07.332.129.406.129.125 0 .238-.094.238-.199 0-.09-.117-.242-.258-.348-1.207-.875-1.895-1.879-1.895-2.742q-.002-.361.184-.359l.234.027.414.063h.02c.156 0 .277-.102.277-.25 0-.086-.105-.207-.266-.293l-.512-.289a1.4 1.4 0 0 1-.445-.449 24 24 0 0 1-.543-1.027l-.449-.863-.293-.543a3 3 0 0 0-.191-.258c.418-.203.645-.262.996-.262.438 0 .715.285 1.027 1.063.191.488.406.82.527.82.059 0 .082-.109.082-.375a3.5 3.5 0 0 0-.133-.957 2.3 2.3 0 0 1-.098-.707l-.062-.449-.383-.191c-.086-.039-.184-.156-.289-.32-.18-.281-.254-.516-.254-.73 0-.137.031-.355.094-.582.324-1.223.422-1.699.422-2.094l-.008-.277.289.316m3.847 23.106c-.449-.062-.656-.113-.93-.223l-.609-.254c-.516-.223-.902-.324-1.227-.324-.484 0-.879.164-1.336.547l.289.223.641.449.609.48a.86.86 0 0 0 .527.195c.629 0 1.172-.297 2.035-1.094m12.341 5.837c.176-.398.258-.508.645-.836.895-.77 1.309-1.34 1.309-1.793v-.707c0-.41.07-.547.285-.547.098 0 .172.039.199.098l.156.383c.039.09.145.148.273.148.121 0 .305-.145.469-.371l.32-.449c.16-.223.23-.414.23-.625a1.1 1.1 0 0 0-.07-.367l-.227-.512a1.5 1.5 0 0 1-.133-.504c0-.207.105-.332.289-.332.094 0 .18.035.227.102l.258.316c.055.07.148.113.242.113.121 0 .254-.113.336-.273l.254-.512c.066-.129.102-.23.102-.285 0-.102-.105-.203-.293-.293l-.414-.191c-.551-.254-.969-1.137-.969-2.055a.9.9 0 0 1 .07-.348l.223-.547a1.3 1.3 0 0 0 .098-.512c0-.332-.109-.668-.32-.996l-.418-.672c-.191-.508-.289-.648-.445-.648l-.16.039-.227.129-.355.191-.414.516-.449.223c-.27.133-.52.707-.52 1.176 0 .836.094 1.063 1.191 2.961.426.73.652 1.363.652 1.832 0 1.313-1.176 2.246-3.535 2.813l-1.473.352c-1.086.262-1.727 1.008-1.957 2.277.449-.23.625-.266 1.418-.266l.473.008h.074c.43 0 .488-.027.758-.418.316-.441.629-.707 1.059-.891l.512-.227.418-.227.129-.031c.113 0 .176.047.176.129 0 .125-.117.336-.305.543-.367.41-.512.758-.512 1.242 0 .309.074.488.352.844m-4.04-4.969c.367.23.746.563.965.863.305.418.348.453.652.453q.194 0 .465-.07l.289-.062c.527-.102.707-.18.707-.309 0-.078-.059-.176-.16-.266l-.352-.32-.352-.324c-.227-.207-.676-.359-1.059-.359s-.609.078-1.156.395"/><path d="m29.031 33.051.191-.035.289-.031.289.031.141.012c.711 0 1.395-.605 1.395-1.238 0-.223-.199-.344-.562-.344-.867 0-1.406.496-1.742 1.605"/></g><path d="M17.078 10.906c.031.293.188.539.344.539.137 0 .293-.352.625-.918.453-.77.887-1.52.887-1.926 0-.137-.066-.242-.16-.242l-.031.012-.352.32c-.258.23-.457.34-1.094.574-.359.137-.492.285-.492.547l.047.258.16.449zm-1.957-1.672.543.293c.148.078.23.184.23.309l-.039.199c-.078.273-.016.57-.02.684-.027.574-.465.566-.637.566-.109 0-.051-.062-.305-.352l-.703-.801c-.219-.246-.406-.809-.484-1.441l-.004-.082c0-.176.059-.242.195-.242.086 0 .246.074.355.164l.867.703m1.248 3.368-.172.004-.371-.035a17 17 0 0 1-.383-.227.9.9 0 0 0-.461-.129c-.289 0-.477.16-.477.402 0 .266.129.703.422 1.426l.418 1.023c.367.906.723 1.285 1.191 1.285.422 0 .48-.414.762-1.121.641-1.609.996-1.848.996-2.418 0-.391-.086-.496-.437-.496l-.301-.07-.512.324-.676.031" class="C"/><path d="M16.34 13.5h-.418a.19.19 0 0 0-.16.094l-.062.16.156.77.129.672c.07.371.207.516.484.516.313 0 .508-.215.543-.609l.063-.707.063-.73a.27.27 0 0 0-.094-.195.25.25 0 0 0-.16-.07l-.031.004-.512.098" class="B"/><path d="m91.625 21.223.129.48.258 1.027c.402 1.832.742 2.309 1.633 2.309.508 0 .93-.281 1.059-.707l.191-.641c.047-.148.156-.23.305-.23.352 0 .535.383.563 1.16q.014.445.191 1.57a9.5 9.5 0 0 1 .129 1.48c0 .328-.039.52-.191.922l.063.387c.105.629.133.879.133 1.176 0 1.375-.066 1.781-.391 2.316.133.523.168.773.168 1.148 0 .242-.031.586-.102 1.129l-.129.961.031.574q.129.323.129.387c0 .09-.059.16-.129.16l-.641-.258-.703-.383c-.23-.125-.391-.25-.738-.574-.617.547-.707.598-1.445.797-1.059.297-1.453.43-1.664.582-.207.145-.359.219-.445.219-.246 0-.422-.48-.422-1.187 0-1.023.063-1.555.227-1.953-.625-.211-.941-.289-1.168-.289-.086 0-.137.008-.469.063l-.145.016c-.09 0-.145-.113-.145-.305 0-.312.223-.941.516-1.469.402-.719 1.063-1.312 1.57-1.414l1.156-.223c.684-.133 1.09-.496 1.09-.973 0-.461-.301-.766-.996-1.016l-1.348-.48a7 7 0 0 1-1.281-.605l-.703-.422a.8.8 0 0 0-.352-.094c-.285 0-.457.207-.457.551 0 .539.422.988.93.988a.9.9 0 0 0 .324-.062c.148-.062.246-.098.297-.098.145 0 .25.141.25.344 0 .57-.355 1.555-.738 2.027l-.383.48-.289.387c-.109.824-.918 2.008-1.73 2.531a2.4 2.4 0 0 0-.355.254c-.027.031-.109.184-.254.449-.066.125-.281.379-.645.77q-.404.44-.797.738c-.359.27-.574.469-.641.578l-.324.547c-.066.109-.145.164-.25.164-.285 0-.551-.301-.711-.805-.117-.375-.219-.484-.465-.484q-.188-.001-.559.098l-.449.063h-1.125c-.605 0-1.414.145-1.793.324a.9.9 0 0 1-.332.098c-.164 0-.25-.164-.25-.488 0-1.016.785-2.559 1.801-3.555-.152-.59-.461-.984-.867-1.09l-.574-.16a.17.17 0 0 1-.098-.152c0-.203.227-.406.738-.648.91-.43 1.176-.516 1.684-.516.582 0 1.074.199 1.68.676.867.676 1.109.805 1.527.805.684 0 1.34-.625 1.34-1.285 0-.441-.246-.934-.848-1.699-.852-1.09-1.156-1.801-1.156-2.727 0-.617.125-.957.676-1.855.086-.145.137-.262.137-.344 0-.176-.293-.336-.617-.336-.34 0-.77.125-1.344.391-.965.441-1.539.855-1.539 1.105 0 .102.059.199.16.273l.32.223c.039.027.066.078.066.133s-.059.168-.133.25l-.641.836c-.449.594-.875 1.043-1.344 1.41-.172.133-.277.238-.324.32l-.254.48c-.215.402-.848 1.063-1.379 1.441a3.6 3.6 0 0 0-.449.355c-.066.07-.16.223-.289.445-.328.59-.844 1.313-1.184 1.668l-.863.898c-.25.254-.598.996-.934 1.984-.262.777-.43 1.125-.551 1.125-.051 0-.141-.07-.25-.195-.621-.711-1.18-1.156-1.453-1.156-.07 0-.195.059-.375.164a2.6 2.6 0 0 1-.863.32l-1.152.223c-.965.188-1.352.395-1.797.965-.109.141-.203.223-.254.223-.113 0-.199-.168-.199-.391l.035-.281a60 60 0 0 0 .164-.863c.164-.914.398-1.668.641-2.086l.578-.996c.102-.18.16-.359.16-.516 0-.738-.691-1.34-1.734-1.504q-.318-.047-.32-.23c0-.148.25-.43.645-.73.68-.512 1.426-.832 1.957-.832.355 0 .836.125 1.469.383l.707.289a1.9 1.9 0 0 0 .715.164c.746 0 1.469-.68 2.359-2.211.406-.699.578-1.195.578-1.652 0-.809-.375-1.297-1.008-1.297-.496 0-.973.207-1.363.605-.348.352-.531.707-.531 1.023l.016.324.016.172c0 .258-.09.375-.281.375-.242 0-.523-.234-1.078-.902l-.898-1.055c-.973-1.141-1.176-1.598-1.215-2.758-1.09-1.387-1.359-2.156-1.359-2.961l.043-.66c-.781-.937-.93-1.297-.93-2.219 0-.414.023-.523.191-.855-.383-.562-.504-.812-.605-1.25l-.16-.676a3.5 3.5 0 0 0-.516-1.187c-.289-.41-.32-.473-.32-.594 0-.336.32-.551 1.121-.75l.258-.062-.066-.715c0-.184.023-.363.098-.762l.223-1.187c.09-.461.133-.816.133-1.051 0-.273-.043-.496-.195-1q-.149-.487-.32-.734c-.125-.18-.191-.328-.191-.422 0-.113.109-.195.254-.195.078 0 .215.039.32.102a12.6 12.6 0 0 1 3.109 2.469c.727.805.957 1.477 1.125 3.273.984.727 1.348 1.391 1.348 2.43 0 .617-.203 1.215-.645 1.895l-.641.996a2.13 2.13 0 0 0-.289 1.082c0 .578.176 1.125.609 1.895.48.848.91 1.219 1.418 1.219.84 0 1.602-1.453 1.602-3.051l-.008-.316v-.863l.098-.766.063-.934.066-.77.023-.43c0-.316-.066-.406-1.051-1.461-1.09-1.164-1.602-2.148-1.602-3.062 0-.859.742-1.582 1.629-1.582.188 0 .352.031.68.125V6.93l.031-.676.191-.832c.152-.664.227-.785.453-.785l.156.051.578.512.703.449.195.191c.043-.402.078-.48.414-.898l.449-.609.32-.48.191-.289c.129-.191.188-.242.266-.242.09 0 .148.113.25.469a.9.9 0 0 0 .285.414l.418.355c.34.285.563.707.707 1.313.25-.316.375-.43.641-.578l.512-.285c.188-.109.305-.164.34-.164s.09.078.141.191a3.3 3.3 0 0 0 .258.48c.414.668.449.762.449 1.211v.652c1.039.285 1.441.844 1.441 1.996 0 .863-.391 1.75-1.219 2.746-.547.656-.641.863-.641 1.359 0 2.258 1.703 3.629 4.582 3.672l2.117.031c1.383.023 2.223.164 3.492.578 1.484.484 1.969.609 2.418.609.328 0 .598-.184.598-.398 0-.465-.777-.824-3.367-1.559-5.277-1.488-7.531-3.625-7.531-7.125 0-2.707 2.258-4.801 5.184-4.801.922 0 2.359.246 3.18.547l1.313.48a2 2 0 0 0 .691.137c.453 0 .625-.285.691-1.129.027-.379.148-.543.391-.543.336 0 .992.527 1.465 1.184.488.68.836 1.57.836 2.152 0 .68-.355 1.199-1.125 1.633-.715 1.094-1.602 1.602-2.793 1.602-.91 0-2.461-.617-4.414-1.762-.77-.449-1.109-.574-1.535-.574-.578 0-.949.32-.949.828 0 .465.344.754 1.297 1.09 1.516.543 1.84.719 2.273 1.254 1.637.281 2.344.563 3.367 1.344 2.926.938 4.555 2.746 4.555 5.055 0 2.109-1.43 3.629-3.414 3.629-.527 0-.805-.031-1.559-.191" class="C"/><g class="B"><path d="M94.801 35.262c-.078-.293-.102-.434-.102-.59l.035-.437c.082-.598.105-.887.105-1.246 0-.234-.07-.426-.234-.641l-.383-.516c-.254-.336-.352-.586-.352-.875 0-.184.043-.246.172-.246l.148.031.285.16a.7.7 0 0 0 .32.109q.29 0 .289-.902c0-.832-.156-1.23-.637-1.609L94 28.145a.35.35 0 0 1-.133-.262c0-.152.094-.254.238-.254a1.7 1.7 0 0 1 .371.066l.355.098.137.031c.109 0 .156-.086.156-.27l-.004-.113-.098-.676c-.102-.699-.215-.965-.422-.965l-.059.008-.832.156-.141.016c-1 0-2.184-.949-2.488-2l-.609-2.082c-.18-.625-.727-1.312-1.539-1.961-.266-.207-.5-.328-.672-.348l-.578-.066c-.105-.012-.176-.074-.176-.156 0-.133.113-.195.348-.195.813 0 1.684.164 2.844.543 1.051.348 1.625.473 2.141.473 1.605 0 2.57-.836 2.57-2.223 0-.695-.254-1.57-.609-2.125-.312-.48-.84-.977-1.512-1.41a.5.5 0 0 0-.25-.102c-.09 0-.164.07-.164.164l.031.414.004.039c0 .156-.09.285-.203.285-.18 0-.363-.207-.566-.641-.594-1.25-1.543-2.008-2.523-2.008-.215 0-.336.074-.336.207 0 .098.059.246.164.422a3.3 3.3 0 0 1 .289.578c.051.125.078.219.078.273s-.051.09-.148.09c-.141 0-.379-.129-.539-.301l-.48-.512-.414-.645c-.324-.492-.68-.805-1.281-1.117l-.805-.418a.9.9 0 0 0-.41-.129q-.147-.001-.148.145c-.001.146.047.23.145.371.168.25.297.52.297.637 0 .109-.07.195-.164.195-.223 0-.625-.406-1.191-1.187-.406-.559-.613-1.172-.613-1.801 0-1.348 1.039-2.402 2.379-2.402.688 0 1.551.289 2.398.805l1.539.93c.551.332 1.293.578 1.762.578.254 0 .328-.016.902-.16a1.7 1.7 0 0 0 .414-.16.23.23 0 0 0 .117-.191c0-.125-.078-.18-.281-.191-.711-.055-2.191-.637-3.168-1.254l-1.059-.605c-.266-.094-.441-.23-.441-.344 0-.047.055-.074.141-.074l.188.031 1.395.512 1.344.48c.66.234 1.688.449 2.156.449a.98.98 0 0 0 1.027-1.027 2 2 0 0 0-.203-.895c-.191-.383-.449-.707-.555-.707-.125 0-.191.129-.191.344l.012.172.039.41c0 .434-.238.715-.605.715a1.8 1.8 0 0 1-.523-.102l-2.082-.672c-1.809-.586-2.516-.738-3.406-.738-2.516 0-4.418 1.699-4.418 3.965 0 2.555 1.754 4.156 6.254 5.715 4.363 1.512 4.934 1.859 4.934 3.008 0 .664-.621 1.191-1.395 1.191-.285 0-.539-.023-.75-.062l-2.184-.512c-1.336-.324-2.469-.453-3.984-.453-3.176 0-4.707.484-6.367 2.023-.383.355-.539.422-.965.422l-.219-.008-.504-.031c-.387 0-.676.184-.906.578l-.516.863c-.07.121-.207.191-.367.191-.332 0-.508-.219-.82-.992-.16-.41-.383-.738-.637-.965l-.676-.574c-.102-.09-.16-.172-.16-.234s.059-.172.16-.309.199-.281.289-.449c.098-.18.152-.312.16-.387l.031-.289c.027-.094.117-.16.23-.16.211 0 .25.145.254.934 0 .199.086.496.254.863l.352.77c.051.098.16.16.293.16.332 0 .75-.777.863-1.602.09-.684.164-.902.305-.902.133 0 .191.082.465.645.086.172.215.336.383.48.156.133.293.211.383.227h.039c.262 0 .352-.164.414-.773l.031-.316-.066-.453-.043-.309c0-.207.07-.332.191-.332.066 0 .156.047.238.129l.32.324c.211.215.43.32.645.32.277 0 .445-.121.445-.316 0-.16-.035-.238-.32-.711l-.223-.418c-.285-.539-.418-.672-.672-.672l-.324.031-.418.16a1 1 0 0 1-.254.074c-.055 0-.098-.059-.098-.129 0-.289.191-.746.547-1.305.219-.348.402-1.211.543-2.52l.164-1.504c.094-.926.195-1.254.383-1.254.066 0 .121.027.129.066l.094.484v.383c0 .469.051.848.109.848.137 0 .336-.16.531-.434a2.2 2.2 0 0 0 .32-.637q.159-.522.16-.844c0-.738-.312-1.059-1.312-1.34q-.155-.042-.191-.098l-.035-.289v-.539l-.066-.387-.121-.32-.164-.352-.254.156c-.656.41-.816.535-1.031.805-.289.367-.391.461-.512.461-.09 0-.156-.062-.156-.141l.125-.547.012-.094c0-.703-.395-1.383-1.102-1.891l-.223.254-.227.32-.383.449a1.5 1.5 0 0 0-.355.953l.008.211c0 .254-.039.34-.16.34l-.07-.027-.254-.32-.32-.387-.578-.352-.289-.223c-.309.672-.32.742-.32 1.605v.266c0 .293-.094.465-.25.465-.074 0-.211-.055-.391-.16a1 1 0 0 0-.477-.129c-.465 0-.809.395-.809.938 0 .586.129.988.516 1.629.25.418.582.754.738.754.016 0 .059-.297.098-.691l-.098-.543-.023-.246c0-.207.074-.332.195-.332.18 0 .289.199.402.738l.258 1.188.258 1.504c.066.406.199.836.383 1.281.254.605.438.98.543 1.121.359.457.398.52.398.621 0 .078-.066.152-.141.152q-.1-.002-.289-.098a1.2 1.2 0 0 0-.383-.129l-.234-.035c-.531 0-.641.426-.641 2.555 0 1.328.277 3.098.617 3.953l.672 1.703a2.1 2.1 0 0 1 .164.797c0 2.344-3.168 6.086-6.508 7.695-1.297.621-1.684 1.273-1.793 3.043.555-.266.777-.352 1.121-.449.945-.262 1.148-.398 1.281-.832l.125-.418c.059-.18.18-.266.836-.609.246-.129.426-.27.516-.414.164-.277.293-.414.379-.414s.141.063.141.168l-.008.051-.355.914-.039.227c0 .672.375 1.23 1.066 1.582.047-.168.074-.297.094-.383.113-.488.227-.812.32-.961l.613-.898c.219-.324.258-.535.258-1.363l-.035-1.008-.02-.258c0-.168.078-.258.223-.258.113 0 .207.043.215.098l.094.609c.023.133.156.227.313.227.313 0 .707-.395 1.133-1.121.16-.285.227-.504.227-.766a7.5 7.5 0 0 0-.102-.996l-.012-.191c0-.156.094-.258.242-.258.082 0 .145.023.156.059l.223.742c.078.246.246.418.422.418.492 0 1-1.008 1.055-2.086.031-.676.113-.91.32-.91.082 0 .145.027.16.078l.125.418c.047.152.141.254.23.254.082 0 .246-.145.445-.383a3 3 0 0 0 .289-.418.7.7 0 0 0 .094-.34c0-.16-.031-.203-.285-.398-.234-.176-.355-.402-.355-.672 0-.465.199-.965.77-1.957.523-.898.594-1.004.723-1.004.117 0 .211.121.211.273a.7.7 0 0 1-.066.281q-.131.282-.133.383c0 .125.113.23.254.23.156 0 .355-.07.582-.195.141-.074.43-.195.867-.352l1.09-.383c.199-.066.43-.102.66-.102a2.5 2.5 0 0 1 .559.066c.363.086.613.133.738.133a.507.507 0 0 0 .516-.508c0-.129-.086-.371-.199-.555a6 6 0 0 0-.285-.445c-.145-.148-.199-.23-.199-.289l.035-.133c.043-.078.109-.129.184-.129.25 0 .746.52 1.195 1.254 2.512 4.105 3.73 5.402 5.578 5.961 1.926.586 2.379.992 2.379 2.141 0 .605-.324 1.344-1 2.281-1.281 1.777-1.734 2.82-1.734 4.004l.004.262a7 7 0 0 0 .352-.16q.393-.201.516-.227l.797-.16c.25-.051.453-.348.453-.672l-.004-.062-.062-.707-.008-.109c0-.398.195-.727.434-.727.09 0 .191.082.246.195l.516 1.09c.207.445.453.656 1.121.961M68.516 13.273l-.031.516-.008.313c0 .52.078.746.277.746.211 0 .543-.398.695-.836a3.3 3.3 0 0 0 .16-.867c0-.156-.039-.297-.16-.609-.148-.352-.293-.512-.473-.512-.273 0-.402.352-.461 1.25m-2.21-5.93.449.449c.656.656 1.105 1.992 1.105 3.281l-.016.531-.094 1.508-.035 1.262c0 4.188 1.219 7.043 3.012 7.043.449 0 1-.414 1.379-1.027.086-.133.191-.234.258-.234.102 0 .152.086.16.266l.066.707.063.605.094.676.098.629c0 .32-.062.355-.832.461-.289.035-.594.156-.898.352-.496.32-.785.539-.832.641l-.355.738c-.043.098-.125.16-.203.16-.187 0-.437-.285-.789-.898-.328-.566-.473-.891-.473-1.043 0-.102.082-.145.277-.145h.066l.387.031.285-.031.258-.031a.24.24 0 0 0 .191-.234.2.2 0 0 0-.129-.18l-1.441-.613c-.344-.145-.715-.516-1.055-1.055-.371-.59-.586-1.105-.586-1.395 0-.23.098-.375.25-.375.063 0 .145.02.238.07.16.078.305.129.375.129a.3.3 0 0 0 .172-.062c.059-.051.094-.105.094-.156 0-.09-.094-.211-.254-.328-1.199-.852-1.926-1.883-1.926-2.734 0-.25.055-.363.18-.363l.238.023a3 3 0 0 0 .449.063c.176 0 .293-.098.293-.246 0-.09-.117-.211-.293-.297-.801-.398-.996-.629-1.508-1.766-.391-.871-.594-1.234-.93-1.664.418-.203.645-.262.996-.262.438 0 .715.285 1.023 1.063.195.488.406.82.531.82.059 0 .082-.105.082-.371a3.7 3.7 0 0 0-.133-.961c-.078-.293-.113-.531-.094-.707l-.066-.449-.352-.191c-.328-.176-.547-.602-.547-1.051a2.6 2.6 0 0 1 .063-.582l.195-.738c.141-.52.227-1.063.227-1.355v-.277l.285.316m3.849 23.106c-.676-.113-.781-.145-1.539-.477-.523-.234-.863-.328-1.203-.328-.508 0-.898.16-1.363.551l.289.223.641.449.613.48a.86.86 0 0 0 .539.195c.629 0 1.156-.289 2.023-1.094m12.34 5.837a1.87 1.87 0 0 1 .641-.836c.898-.77 1.313-1.34 1.313-1.793v-.707c0-.41.07-.547.281-.547.098 0 .176.039.199.098l.164.383c.035.09.141.145.27.145.227 0 .391-.164.785-.816.168-.273.234-.453.234-.633a1 1 0 0 0-.074-.359c-.023-.062-.098-.23-.223-.512a1.5 1.5 0 0 1-.133-.504c0-.207.105-.332.285-.332.098 0 .184.035.234.102l.254.316c.059.07.07.113.168.113.117 0 .328-.113.41-.273l.254-.512c.066-.129.102-.23.102-.293 0-.105-.105-.215-.262-.285l-.449-.191c-.523-.227-.961-1.129-.961-1.988q.002-.148.098-.414l.191-.547q.099-.271.098-.531c0-.316-.098-.621-.32-.977l-.387-.672c-.184-.477-.297-.633-.453-.633-.113 0-.223.039-.41.152l-.32.191-.449.516-.453.223c-.266.137-.523.715-.523 1.199 0 .691.152 1.066 1.199 2.938.441.789.652 1.375.652 1.824 0 1.305-1.332 2.379-3.504 2.82-2.598.535-3.164.961-3.461 2.629.449-.23.625-.266 1.418-.266l.473.008h.074c.426 0 .484-.027.758-.418.313-.441.625-.707 1.059-.891l.512-.227.418-.227.129-.031c.113 0 .176.047.176.133 0 .109-.105.293-.305.539-.312.379-.492.766-.492 1.059a1.54 1.54 0 0 0 .332 1.027m-4.041-4.969c.371.23.742.563.961.863.305.418.348.453.656.453a2 2 0 0 0 .465-.07l.289-.062c.547-.102.711-.18.711-.328 0-.086-.051-.176-.133-.246l-.387-.32-.352-.324c-.219-.195-.664-.355-1.012-.355-.395 0-.723.105-1.199.391"/><path d="m88.836 33.051.191-.035.324-.031.254.031.176.012c.324 0 .492-.035.625-.141q.297-.22.613-.734a.8.8 0 0 0 .125-.363c0-.219-.199-.344-.547-.344-.883 0-1.422.492-1.762 1.605"/></g><path d="M76.883 10.906c.035.297.191.539.348.539.137 0 .348-.457.684-1.02.453-.773.828-1.418.828-1.828 0-.133-.07-.238-.16-.238l-.035.008-.352.324c-.203.188-.648.43-1.055.578s-.531.27-.531.543l.047.258.266.555zm-2.821-2.375c-.109-.09-.273-.164-.355-.164-.137 0-.195.07-.195.234l.008.09a3.6 3.6 0 0 0 .125.543c.16.512.348.816.422.898l.484.809c.223.258.563.402.695.445h.023c.086 0 .156-.055.168-.129l.098-.645.16-.578.02-.133a.42.42 0 0 0-.242-.375l-.547-.293zm2.112 4.072-.168.004-.375-.035a10 10 0 0 1-.387-.227.9.9 0 0 0-.449-.129c-.293 0-.473.184-.473.492 0 .242.145.707.41 1.336l.418 1.023c.352.898.719 1.285 1.199 1.285q.62 0 1.012-1.023l.352-1.445c.172-.449.594-.637.594-.949 0-.371-.41-.723-.762-.723l-.184.035-.48.324z" class="C"/><path d="M76.145 13.5h-.383c-.059 0-.117.035-.16.094a.6.6 0 0 0-.098.16l.16.77.129.672c.07.371.133.516.41.516.313 0 .582-.215.613-.609l.066-.707.063-.73a.27.27 0 0 0-.094-.195.25.25 0 0 0-.164-.07l-.031.004-.512.098" class="B"/><path d="M32.43 81.734c.277.707.371 1.055.414 1.512l.063 1.344c.055 1.348.5 2.016 1.348 2.016.309 0 .563-.078.707-.223l.352-.352.141-.039c.223 0 .348.145.348.414l-.039.523c-.027.234.016.73.129 1.473.066.434.094.867.094 1.293 0 .684-.047.945-.289 1.563.223.629.355 1.34.355 1.934 0 .699-.117 1.168-.387 1.559.129.551.16.773.16 1.09s-.043.723-.129 1.219c-.113.668-.156 1.184-.129 1.535l.004.082q.002.303-.184.301c-.186-.002-.27-.094-.395-.254-.195-.25-.324-.34-.473-.34-.219 0-.289.117-.617 1.078-.102.297-.363.699-.77 1.188-.32.379-.52.695-.578.93l-.191.672a.25.25 0 0 1-.195.16h-.039c-.527 0-1.133-1.129-1.754-3.266-.172-.609-.398-.875-.723-.875a.64.64 0 0 0-.559.359l-.191.449c-.035.074-.102.129-.172.129-.254 0-.645-.469-.887-1.059-.199-.492-.312-1.023-.312-1.477 0-1.004.738-1.754 2.973-3.012.973-.547 1.348-1.242 1.348-2.5 0-.992-.297-1.562-1.152-2.211-.68-.512-1.07-.707-1.43-.707-.305 0-.543.203-.543.457 0 .301.176.484.594.629.492.18.707.352.707.574 0 .203-.211.641-.547 1.16-.363.555-.52.715-1.027 1.059-.152.883-.566 1.445-1.539 2.082a3.4 3.4 0 0 1-.641 1.188l-.672.867c-.211.266-.445.754-.48.992-.07.488-.117.578-.305.578-.254 0-.777-.453-1.301-1.121-.309-.402-.383-.586-.414-1.062-.336.266-.441.301-1.09.383-.391.059-.684.129-.867.23-.492.258-.652.328-.742.328-.133 0-.176-.07-.187-.297l-.031-.707c0-.969.383-2.098.961-2.852-.559-.488-1.121-.785-1.57-.836-.187-.02-.238-.043-.238-.113 0-.117.125-.367.301-.59.242-.305.434-.516.578-.641.457-.391 1.242-.676 1.859-.676.418 0 1.031.156 1.828.453.285.105.543.156.762.156.355 0 .555-.227.555-.629 0-.582-.285-1.496-.934-2.961-.437-.992-.633-1.656-.633-2.113 0-1.113.523-2.266 1.18-2.594-.312-.156-.449-.195-.715-.195-.32 0-.574.082-.984.32-.477.277-.742.523-.742.684 0 .063.102.164.262.281.25.172.289.238.289.473 0 .789-.652 1.848-1.57 2.539-.203 1.121-.719 1.801-1.734 2.273-.129.613-.215.789-.703 1.477-.836 1.176-1.031 1.547-1.184 2.211-.082.344-.16.488-.266.488-.137 0-.418-.215-.73-.551l-.512-.613c-.137-.211-.207-.418-.352-1.023-.234.066-.297.078-.461.078l-.469-.016-.32-.008c-.703 0-1.445.16-1.828.391q-.212.129-.277.129c-.207 0-.375-.434-.375-.969 0-1.156.32-2.117 1.07-3.164a5 5 0 0 1-.609-.574 1 1 0 0 0-.258-.227l-.355-.19c-.121-.066-.195-.148-.195-.211 0-.168.469-.617 1.027-.977.617-.398 1.105-.578 1.551-.578.527 0 .809.137 1.461.707.457.398.766.578.988.578.152 0 .324-.109.453-.293a.8.8 0 0 0 .168-.477c0-.613-.734-1.645-1.543-2.18-.605-.398-1.266-.609-1.91-.609-.895 0-1.66.441-2 1.152l-.355.738c-.082.172-.184.262-.305.262-.203 0-.312-.094-1.039-.934l-.832-.965c-.258-.293-.43-.578-.516-.828-.074-.238-.129-.383-.16-.418-.027-.043-.137-.129-.316-.258-.645-.457-1.113-1.359-1.383-2.66l-.094-.414c-.785-.965-1.254-2.156-1.254-3.187 0-.141.008-.199.07-.437-.461-.461-.512-.57-.867-1.797-.258-.871-.418-1.242-.738-1.664q-.129-.172-.129-.25c0-.172.27-.316.738-.391.438-.074.465-.074.645-.074l.637.043-.04-.878c0-.516.039-.852.168-1.461q.096-.462.098-.672a7 7 0 0 0-.066-.551l-.094-.477a.9.9 0 0 1-.07-.273c0-.105.07-.16.191-.16.094 0 .223.047.422.141q.84.415 1.379.836c1.102.867 1.973 2.195 1.973 3.023l-.016.25-.066.469c0 .141.078.324.223.52l.355.484c.313.426.516.922.516 1.254 0 .301-.062.434-.578 1.18-.391.563-.551.977-.551 1.434 0 .578.23 1.309.645 2.031.375.664.813 1.027 1.23 1.027.715 0 1.027-.633 1.141-2.344l.258-2.434.031-.441c0-.199-.062-.316-.32-.621l-.965-1.121c-.914-1.07-1.191-1.621-1.191-2.391 0-.879.578-1.488 1.418-1.488l.387.035-.004-.25q.001-.31.16-.871c.203-.691.457-1.219.59-1.219q.066-.002.309.16c.051.031.246.109.578.223.18.066.309.129.641.32.152-.551.27-.805.512-1.121.414-.535.887-.961 1.051-.961.102 0 .285.137.52.383l.609.645c.102.102.223.313.355.605l.125.289.387-.223.512-.289.609-.289c.164-.105.281-.164.328-.164.109 0 .168.191.41 1.254.164.727.184.879.223 1.41 1.023.145 1.508.73 1.508 1.832 0 1.031-.508 2.059-1.602 3.23-.301.32-.371.473-.371.773 0 2.832.984 3.727 4.539 4.102 2.18.227 2.824.367 5.445 1.156 1.379.41 2.172.582 2.68.582.605 0 .945-.223.945-.609 0-.598-.43-.781-2.984-1.324-5.937-1.25-8.27-3.277-8.27-7.195 0-2.793 2.09-4.887 4.879-4.887 1.227 0 2.324.375 4.066 1.375 1.609.938 1.945 1.094 2.313 1.094.434 0 .602-.273.602-.969 0-.449.137-.668.418-.668.254 0 .645.266.992.672.531.633.738.953.738 1.82 0 1.16-.617 1.918-1.824 2.254a8 8 0 0 0-.289.32c-.66.742-1.242.992-2.289.992-.914 0-2.059-.371-2.844-.93l-1.539-1.09c-.66-.469-1.148-.672-1.613-.672-.656 0-1.047.395-1.047 1.051 0 .645.426 1.168 1.125 1.383l1.441.453c.512.16.754.258 1.379.574.355-.051.52-.066.719-.066.895 0 1.863.238 2.711.672.266.141.461.227.574.262l.805.223c1.82.512 3.305 2.547 3.305 4.535 0 2.266-1.473 3.672-3.848 3.672l-.738-.035" class="C"/><g class="B"><path d="m31.883 100.777.191-.387.449-.484c.379-.402.582-.98.582-1.656 0-.328-.055-.684-.164-1.035-.082-.254-.133-.473-.133-.566 0-.203.152-.395.305-.395.066 0 .152.059.242.164l.48.543c.301.336.398.398.77.48l.035-.449.031-.527c0-.766-.281-1.625-.707-2.164-.254-.324-.371-.527-.371-.641s.086-.227.176-.227c.031 0 .078.023.133.066.309.23.465.324.551.324.156 0 .297-.387.297-.809 0-.609-.258-1.309-.656-1.793l-.383-.48a.3.3 0 0 1-.066-.184c0-.137.113-.234.277-.234.121 0 .195.031.398.16.094.063.18.098.246.098.25 0 .34-.352.34-1.305l-.012-.395-.031-.578c-.039-.676-.098-.797-.383-.797h-.258c-1.562 0-2.293-.992-2.695-3.656-.289-1.93-1.008-3.297-1.891-3.594-.527-.172-.715-.289-.715-.43 0-.086.145-.176.305-.176.113 0 .387.07.605.16 1.277.516 2.355.77 3.293.77 1.535 0 2.746-1.129 2.746-2.562 0-1.094-.52-2.211-1.457-3.109-.254-.25-.531-.414-.801-.48l-.062-.008-.16.055.063.465.129.32.035.137c0 .066-.066.121-.152.121a.3.3 0 0 1-.238-.129l-.574-.867c-.457-.684-1.461-1.254-2.203-1.254-.262 0-.43.117-.43.301 0 .094.09.258.195.375.164.188.293.41.293.512l-.035.129c-.035.074-.082.125-.129.129l-.031.004c-.156 0-.23-.07-.93-.867-.57-.652-1.738-1.289-2.363-1.289a.33.33 0 0 0-.234.102c-.039.043-.066.09-.066.125 0 .098.086.227.227.355.199.184.355.398.355.492 0 .063-.082.121-.18.121-.18 0-.594-.266-1.359-.867-1.199-.941-1.73-1.828-1.73-2.855 0-1.238.883-2.211 2.016-2.211.668 0 1.547.32 2.148.77l1.574 1.184a4.13 4.13 0 0 0 2.52.836c.199 0 .391-.043.555-.129.141-.07.227-.152.227-.215 0-.039-.121-.094-.289-.137-.566-.137-1.023-.332-1.348-.578l-1.602-1.215-1.25-.867c-.848-.445-1.012-.547-1.012-.645 0-.051.082-.094.184-.094a.7.7 0 0 1 .281.066l.836.352c.266.113.715.383 1.344.801 1.715 1.148 2.59 1.516 3.598 1.516.957 0 1.664-.68 1.664-1.605 0-.18-.047-.383-.133-.551l-.16-.32c-.059-.113-.16-.199-.191-.16l-.098.129-.094.672q-.008.042-.098.227a.9.9 0 0 1-.223.32c-.176.168-.32.227-.59.227-.496 0-1.051-.266-2.551-1.223-1.52-.965-2.891-1.473-3.977-1.473a4.16 4.16 0 0 0-4.168 4.16c0 3.207 1.961 4.66 8.109 6 2.34.508 3.367 1.195 3.367 2.234 0 .949-.766 1.547-1.988 1.547q-.551 0-.863-.062c-.312-.062-1.309-.344-3.305-.902a16.7 16.7 0 0 0-4.277-.594c-2.414 0-4.039.715-5.145 2.266-.129.184-.254.289-.34.289-.066 0-.16-.043-.27-.129l-.449-.355c-.316-.246-.816-.437-1.148-.437-.242 0-.473.098-.68.281-.156.145-.277.223-.324.223-.18 0-.512-.402-.762-.93-.359-.75-.547-1.496-.547-2.18 0-.32.102-.543.242-.543.109 0 .195.082.238.254l.258.93c.145.52.434.93.652.93.102 0 .273-.141.469-.383a1.6 1.6 0 0 0 .258-.453c.199-.586.25-.672.406-.672.188 0 .285.117.41.703a2 2 0 0 0 .211.551c.129.242.258.438.383.574a.47.47 0 0 0 .332.164c.281 0 .539-.469.539-.988l-.004-.137-.039-.594c0-.23.035-.301.164-.301.074 0 .133.039.223.156a1.7 1.7 0 0 0 .547.449c.195.105.352.16.457.16.094 0 .203-.059.313-.16.086-.082.133-.172.133-.25 0-.098-.113-.242-.453-.582-.184-.184-.402-.625-.645-1.281-.086-.25-.207-.422-.301-.422-.023 0-.098.023-.211.066l-.414.16-.289.129-.109.023c-.137 0-.246-.098-.246-.223s.293-.469.645-.762a1.16 1.16 0 0 0 .414-.863c.023-.539.121-.965.227-.965l.098-1.121a11 11 0 0 1 .48-2.207c.039-.121.09-.199.129-.199.086 0 .168.242.168.508l-.012.168-.016.324c0 .406.063.617.191.617.137 0 .297-.203.438-.559l.285-.734c.086-.219.129-.422.129-.598 0-.625-.371-1.078-.891-1.078l-.23.039a1.3 1.3 0 0 1-.227.066c-.172 0-.312-.187-.312-.402l.023-.465-.027-.641-.129-.672-.035-.32-.289.156-.352.289-.512.418-.418.352a.37.37 0 0 1-.238.098c-.242 0-.273-.066-.273-.562v-.125c0-.406-.176-.723-.832-1.492-.039-.043-.09-.105-.164-.191l-.125.227-.352.574-.355.898-.066.574c-.016.164-.078.293-.141.293s-.18-.082-.305-.227c-.488-.562-.645-.664-1.379-.93l-.062.223q-.175.569-.191.676l-.035.609v.254l.004.203c0 .18-.066.281-.176.281l-.02-.004q-.017-.007-.191-.16c-.074-.066-.211-.098-.387-.098-.598 0-.98.324-.98.836 0 .383.133.668.723 1.57.266.398.566.711.688.711.078 0 .145-.211.145-.457l-.059-.383a1.6 1.6 0 0 1-.094-.492c0-.176.051-.277.152-.277.289 0 .586.832.711 1.988l.125 1.188c.047.422.176.852.387 1.281.293.598.578 1.004.832 1.184.309.215.496.43.496.547 0 .102-.082.191-.168.191q-.017-.002-.648-.227l-.27-.039c-.641 0-.855.367-.855 1.469 0 1.336.898 3.254 1.895 4.055l1.473 1.188c.75.598 1.316 1.594 1.316 2.309 0 .938-1.027 1.855-2.789 2.496l-1.059.383c-.82.301-1.148.832-1.473 2.371.418-.129.602-.16.883-.16l.145.004.477.008c.43 0 .738-.258.738-.617v-.289c0-.086.121-.207.289-.289l.449-.227.355-.285a.28.28 0 0 1 .176-.074c.098 0 .176.094.176.199a.8.8 0 0 1-.066.289c-.109.285-.168.672-.168 1.102 0 .785.125 1.207.52 1.785q.057-.32.098-.418c.066-.16.25-.453.547-.863.48-.68.84-1.508.84-1.953l-.012-.133-.094-.738a.48.48 0 0 1 .16-.352.36.36 0 0 1 .219-.094c.137 0 .223.082.328.32.078.176.168.285.227.285.113 0 .336-.293.477-.641q.159-.382.16-.676c0-.117-.031-.258-.094-.414s-.105-.285-.105-.363.027-.121.137-.211a.27.27 0 0 1 .16-.066c.063 0 .129.027.191.066l.289.191a.5.5 0 0 0 .254.098c.133 0 .313-.145.453-.355.277-.426.453-.777.453-.91 0-.086-.055-.148-.23-.273-.641-.449-1.059-1.133-1.059-1.715a1.3 1.3 0 0 1 .098-.465l.316-.863.258-.676.094-.035c.109 0 .176.09.176.246q.001.157-.074.367c-.078.211-.137.465-.137.609 0 .23.117.352.336.352q.241-.001.535-.125c.973-.422 1.738-.648 2.199-.648.438 0 .711.098 1.168.422.121.082.223.129.297.129.055 0 .125-.051.184-.129a.3.3 0 0 0 .066-.16c0-.117-.07-.266-.195-.418-.164-.203-.227-.328-.227-.453 0-.102.066-.164.172-.164.504 0 1.293 1.59 2.043 4.113.594 1.988.758 2.191 2.66 3.27 1.609.906 2.219 1.809 2.219 3.273 0 1.438-.398 3.281-1.227 5.699-.262.766-.375 1.281-.375 1.707 0 .34.063.668.313 1.531.117.41.191.66.223.734a4 4 0 0 0 .258.484m-7.443-4.49c.191-.445.254-.551.609-1.094.52-.781.707-1.195.707-1.566v-.516c0-.48.086-.703.277-.703a.2.2 0 0 1 .172.098l.16.254a.26.26 0 0 0 .223.129c.098 0 .27-.125.363-.266.23-.352.375-.801.375-1.145l-.035-.355-.031-.359c0-.195.078-.277.266-.277.125 0 .176.047.281.289.07.152.164.254.242.254.09 0 .191-.07.27-.191l.258-.387.191-.289.047-.152c0-.09-.066-.172-.238-.297-.598-.426-.855-1.086-.898-2.273q-.05-1.354-.16-1.766-.023-.09-.578-1.375a10 10 0 0 1-.387-1.152c-.074-.297-.164-.387-.398-.387-.871 0-1.527.742-1.527 1.727 0 .578.238 1.488.68 2.602.617 1.555.781 2.109.781 2.66 0 1.176-.473 1.691-2.098 2.273-1.836.66-2.695 1.605-3.012 3.301l.32-.129.449-.16.512-.125c.441-.109.793-.359.867-.609l.129-.449a.32.32 0 0 1 .191-.223l.578-.258.063.129-.125.418c-.047.137-.066.387-.066.746 0 .703.137 1.113.543 1.625M7.234 66.641q.065.268.066.359 0 .154-.129.828l-.059.648c0 .574.102 1.184.281 1.691.164.461.207.605.207.73l-.012.133c-.031.133-.078.23-.125.23-.062 0-.18-.07-.328-.199-.367-.32-.766-.484-1.184-.484-.133 0-.32.023-.547.066l.164.352.477 1.191.676 1.023.703.48a.8.8 0 0 1 .191.191c.066.09.098.164.098.211 0 .059-.055.105-.125.109l-.645.031c-.098.004-.176.066-.176.137 0 .109.094.434.273.953l.32.93.547.512.574.418c.172.125.273.262.273.363 0 .09-.055.18-.113.184l-.32.031c-.105.008-.164.102-.164.258 0 .238.227.672.645 1.246.496.676.844.898 1.41.898h.484c.227 0 .367.113.367.297 0 .148-.098.238-.309.281-.441.094-.578.184-.578.387 0 .082.059.207.164.352l.258.352c.211.293.453.488.609.488.086 0 .285-.09.465-.297.289-.328.617-.598 1.039-.703 1.113-.281 1.348-.398 1.348-.656 0-.09-.043-.219-.129-.367-.355-.637-.48-1.047-.48-1.57 0-.398-.105-.68-.25-.68-.059 0-.16.102-.262.262-.266.402-.715.676-1.121.676-1.109 0-2.449-1.738-3.109-4.043a6.3 6.3 0 0 1-.238-1.727c0-.605.082-1.281.238-1.961l.352-1.57.039-.434c0-.793-.73-1.816-1.867-2.609m2.311 4.455c-.234.449-.453 1.453-.453 2.09 0 .375.121.668.281.668.051 0 .117-.059.172-.16l.352-.641.23-.395c.129-.187.223-.375.223-.473 0-.383-.352-.852-.805-1.09m3.527 14.458.156.16.258.254c.625.648.719.711 1.02.711.281 0 .863-.156 1.191-.324.141-.07.223-.156.223-.219 0-.043-.113-.176-.316-.355l-.352-.324c-.27-.238-.664-.465-.855-.465-.367 0-.742.164-1.324.563"/><path d="M20.504 91.352c.344.145.465.203.645.32l.508.32c.098.043.273.063.508.063a1.1 1.1 0 0 0 .391-.062l.676-.254.641-.227c.172-.062.289-.16.289-.246 0-.047-.145-.117-.355-.172a4 4 0 0 1-.48-.156c-.789-.32-.902-.363-1.184-.363a2.16 2.16 0 0 0-1.637.777m8.107 6.445c.215-.516.363-.605 1.09-.645.824-.047 1.605-1.52 1.605-2.516 0-.102-.031-.184-.074-.184s-.117.039-.219.105l-.477.285-.934.418c-.617.273-1.164 1.105-1.164 1.758 0 .219.043.402.172.777"/></g><path d="m14.77 69.941.316.449c.07.102.625.5.695.5.094 0 .148-.07.203-.277l.129-.48.035-.535c0-.422-.187-.582-1.062-.809-.215-.059-.305-.051-.445-.164-.137-.105-.309-.195-.387-.195-.07 0-.129.039-.129.09l.035.141.16.48.449.801m3.43-.004-.422.742-.16.176-.031.004c-.168 0-.34-.391-.352-.793l-.062-.637c.051-.266.207-.383.605-.449.328-.059.547-.121.645-.191l.512-.355.055-.008c.086 0 .148.059.148.156l-.012.043-.223.547-.703.766m-.836 2.182.512-.254a.55.55 0 0 1 .242-.07c.25 0 .438.184.438.52 0 .367-.285.859-.68 1.566-.422.766-.742 1.285-1.07 1.285-.461 0-1.113-.734-1.75-1.957a2.1 2.1 0 0 1-.242-.895c0-.402.176-.617.516-.617.141 0 .27.035.367.102l.289.191c.254.168.539.258.816.258a1.24 1.24 0 0 0 .563-.129" class="C"/><path d="m16.629 72.891-.355-.062-.055-.004q-.305-.001-.305.344c0 .324.254.922.582 1.391a.32.32 0 0 0 .246.137c.207 0 .355-.395.461-1.035l.094-.48.012-.094c0-.195-.062-.266-.223-.266l-.074.008" class="B"/><path d="M88.195 81.254c.559.742 1.344 1.223 1.988 1.223.199 0 .543-.051.863-.133q.263-.063.426-.062c.156 0 .223.059.223.203 0 .109-.078.383-.164.602a2.7 2.7 0 0 0-.191.574l-.129.672-.32.578-.449.414-.129.133v.43c0 .785-.23 1.227-.867 1.652a3 3 0 0 0-.223.16l-.066.258-.316 1.117c-.082.172-.289.473-.609.898-.391.508-.641.922-.801 1.316-.133.32-.234.414-.445.414-.316 0-.625-.398-.68-.863q-.106.146-.16.191l-.383.258-.613.414-.508.383-.355.355q-.094.096-.184.098c-.16 0-.328-.277-.488-.805l-.32-1.055a3.6 3.6 0 0 1-.129-1.035c0-.531.035-.719.227-1.145-.645.066-.824.105-1.156.227a1 1 0 0 1-.277.063c-.109 0-.172-.074-.172-.199a2 2 0 0 1 .129-.477l.418-1.086c.324-.848 1.367-1.617 2.195-1.617q.294.001.816.172c.211.07.375.102.484.102.375 0 .668-.273.668-.609 0-.172-.109-.355-.254-.418q-.084-.04-1.152-.355c-.539-.16-.809-.359-1.414-1.059-.437-.508-.609-.652-.77-.652-.125 0-.187.082-.187.227l.027.426.012.199c0 .887-.266 1.738-.906 2.91l-.898 1.633c-.426.777-.609 1.367-.609 1.957 0 .645.277 1.215.641 1.316l.48.125q.095.029.16.098c.063.066.098.133.098.184 0 .07-.059.18-.16.297-.059.063-.25.313-.578.738-.555.719-.898.98-1.57 1.184-.387.941-1.02 1.488-2.148 1.859l-.125.223c-.383.676-1.23 1.285-1.773 1.285h-.121c-.07.586-.488 1.195-1.121 1.637l-.734.543a1.2 1.2 0 0 0-.16.289c-.145.316-.277.449-.457.449-.344 0-.625-.32-.824-.93l-.289.191-.613.414c-.145.07-.52.18-1.121.32-.785.188-1.465.52-1.633.805l-.289.477-.133.059c-.156 0-.336-.223-.414-.504-.176-.668-.289-1.355-.289-1.801 0-1.141.379-1.879 1.543-3.039l-.004-.277c0-1.77 1.352-2.969 3.336-2.969l.32.008 1.09.066.102.004c.59 0 1.133-.227 1.727-.711.781-.641 1.008-1.035 1.008-1.754 0-.227-.062-.488-.305-1.289a5.2 5.2 0 0 1-.238-1.508c0-1.324.973-2.969 2.293-3.879.34-.238.59-.547.59-.727 0-.074-.039-.133-.09-.133-.082 0-.23.086-.406.25q-.235.21-.77.484l-.512.254-.578.227c-.176.066-.266.164-.266.285 0 .07.027.172.074.289a.8.8 0 0 1 .063.234c0 .074-.055.203-.16.375l-.449.738c-.437.723-.754 1.031-1.316 1.281-.359 1.055-.875 1.59-1.629 1.699-.605 1.219-1.141 1.645-2.215 1.762-.148.469-.406.859-.961 1.477-.227.246-.367.422-.414.512-.25.449-.273.48-.391.48-.145 0-.48-.223-.734-.48a2 2 0 0 1-.285-.387l-.293-.512c-.09-.164-.187-.238-.309-.238l-.203.012-.703.098c-.445.059-1.074.426-1.285.738l-.383.578c-.043.059-.098.094-.152.094-.289 0-.465-.633-.465-1.68 0-.922.141-1.531.457-1.973l.898-1.25c.125-.176.191-.348.191-.488s-.055-.289-.16-.41c-.191-.227-.371-.363-.512-.387L64 86.961c-.121-.02-.172-.047-.172-.098 0-.059.035-.137.105-.223.219-.277.492-.52.801-.707.793-.484 1.316-.676 1.852-.676.543 0 1.133.195 1.676.551l.93.605c.129.09.285.133.445.133.43 0 .754-.254 1.059-.836.293-.559.422-1.008.422-1.484 0-1.207-.859-2.074-2.055-2.074-.555 0-1.125.219-1.668.641q-.248.196-.32.355l-.254.578c-.062.137-.156.223-.23.223-.164 0-.523-.465-.828-1.059a7 7 0 0 1-.449-1.156c-.191-.625-.273-1.098-.273-1.598l.047-.867a3.23 3.23 0 0 1-.578-1.984c0-.293.043-.52.227-1.125-.27-.445-.352-.781-.352-1.43l.031-.402.094-.445.066-.383c-.309-.402-.398-.676-.707-2.082-.168-.797-.277-1.145-.41-1.348-.066-.09-.102-.16-.102-.191 0-.187.449-.359.961-.359l.449.035c-.113-.297-.133-.41-.133-.645 0-.395.078-.836.23-1.277.168-.488.203-.625.203-.785 0-.379-.059-.766-.141-.977l-.254-.641a.9.9 0 0 1-.082-.332c0-.062.043-.086.16-.086.629 0 1.828.68 2.773 1.57.938.887 1.242 1.602 1.242 2.922l-.055.699c.871.766 1.254 1.398 1.254 2.086 0 .5-.164.836-.648 1.309-.863.859-1.059 1.309-1.059 2.418 0 1.699.508 2.621 1.449 2.621.824 0 1.461-.898 1.566-2.211l.094-1.223a14 14 0 0 1 .16-1.152c.055-.289.102-.672.102-.836 0-.434-.285-.977-1.125-1.953-.898-1.055-1.203-1.621-1.203-2.441 0-.988.68-1.707 1.605-1.707.23 0 .348.035.621.176.016-.559.039-.66.355-1.445.25-.617.516-1.055.641-1.055.043 0 .109.047.191.129q.206.206.418.348l.32.227q.106.089.289.289c.199-.715.402-1.055.992-1.633.449-.441.617-.578.703-.578.07 0 .148.059.227.16l.387.512.543.609c.207.23.285.434.387.992l.316-.191.512-.289q.146-.077.391-.258c.086-.062.156-.098.199-.098.055 0 .113.094.152.23l.188.734.422.836c.121.246.16.441.16.824v.199l.215-.008c.629 0 1.176.75 1.176 1.609 0 1.141-.91 2.617-2.098 3.398-.109.387-.133.543-.133.852 0 2.551.668 3.086 4.586 3.668q1.472.221 2.629.543l2.535.836c.863.289 1.445.418 1.898.418.477 0 .738-.137.738-.391 0-.437-.641-.828-2.605-1.598l-2.789-1.09c-2.836-1.109-4.176-2.84-4.176-5.387 0-2.965 2.227-5.191 5.199-5.191 1.121 0 2.211.23 3.785.805l2.348.766c.391 0 .605-.266.664-.832.051-.48.18-.676.445-.676.395 0 .82.367 1.125.965.266.52.418 1.129.418 1.664 0 1.059-.559 1.75-1.57 1.957-.68.887-1.535 1.328-2.582 1.328-1.277 0-1.91-.254-4.086-1.617-.781-.488-1.113-.605-1.687-.605-.762 0-1.328.473-1.328 1.113 0 .59.477.973 1.539 1.258.637.164.73.215 1.059.543.258-.062.375-.078.535-.078 1.039 0 2.324.559 3.41 1.488 1.973.609 3.73 2.742 3.73 4.531 0 1.977-1.711 3.746-3.629 3.746-.516 0-1.547-.164-2.477-.395" class="C"/><g class="B"><path d="m87.043 90.133.125-.352.133-.453c.023-.078.145-.262.352-.539.324-.43.488-.965.488-1.594 0-.199-.047-.383-.168-.621a.8.8 0 0 1-.098-.297q0-.066.066-.148c.066-.082.086-.09.129-.098l.02-.004c.082 0 .223.098.332.227.133.164.254.258.324.258.145 0 .297-.242.379-.609l.066-.32c0-.156-.129-.559-.289-.898a.8.8 0 0 1-.094-.324c0-.113.078-.207.18-.207.094 0 .242.102.426.273.086.086.176.129.242.129.199 0 .344-.203.496-.703l.129-.504c0-.094-.039-.148-.113-.148l-.113.012-.379.039c-.586 0-1.41-.402-1.801-.871l-.898-1.09-.797-1.059-.738-.48c-.121-.082-.195-.176-.195-.262 0-.121.121-.203.309-.203.168 0 .691.188 1.648.594.926.391 2.379.707 3.25.707 1.531 0 2.793-1.238 2.793-2.742 0-.824-.367-1.582-1.266-2.645-.172-.199-.461-.395-.594-.395-.105 0-.176.078-.176.191 0 .086.031.211.098.359a.8.8 0 0 1 .059.293c0 .148-.051.234-.152.234-.199 0-.41-.332-.582-.91-.211-.715-.629-1.141-1.605-1.633-.371-.191-.855-.363-1.012-.363-.062 0-.105.059-.105.141 0 .121.043.254.125.383.141.215.23.422.258.609l.004.031c0 .125-.066.191-.18.191-.207 0-.254-.051-.723-.77-.238-.367-.883-.855-1.441-1.09a1.7 1.7 0 0 0-.547-.129h-.016c-.117 0-.207.055-.207.125 0 .023.051.129.145.293l.047.18c0 .102-.066.176-.152.176-.191 0-.785-.488-1.258-1.027-.508-.59-.832-1.332-.832-1.918 0-1.227 1.168-2.316 2.48-2.316.332 0 .609.059.82.164l1.121.574 1.316.871c.758.492 1.793.867 2.418.867.234 0 .41-.035 1.012-.199.313-.086.508-.211.508-.324l-.012-.027-.113-.066-.703-.059c-.395-.039-1.281-.441-1.988-.902l-1.473-.961-1.316-.547c-.098-.039-.164-.102-.164-.168s.07-.121.152-.121l.363.066 1.219.355c.309.086.797.313 1.473.672 1.34.711 2.211 1.023 2.848 1.023.742 0 1.289-.508 1.289-1.199 0-.23-.055-.609-.129-.914a1.3 1.3 0 0 0-.191-.418c-.059-.082-.117-.125-.16-.125-.09 0-.145.094-.145.258l.016.223.012.184c0 .594-.23.801-.883.801-.531 0-1.246-.215-2.879-.859-1.527-.602-2.48-.832-3.43-.832-2.414 0-4.527 1.969-4.527 4.215 0 1.938 1.285 3.422 3.918 4.504l2.723 1.121c2.254.926 3.082 1.59 3.082 2.465 0 .73-.68 1.203-1.738 1.203-.457 0-1.027-.129-2.078-.465-2.551-.812-4.207-1.148-5.668-1.148-2.379 0-4.07.652-5.422 2.078-.18.191-.285.246-.441.246-.109 0-.219-.043-.457-.18-.242-.145-.512-.23-.703-.23-.234 0-.602.199-.77.422l-.32.418c-.094.121-.199.195-.285.195-.23 0-.645-.398-.902-.871a3 3 0 0 1-.32-.832 5 5 0 0 1-.066-.879l.035-.598.094-.637.098-.547c.023-.078.086-.125.156-.125.164 0 .238.148.238.5l-.008.203-.008.145c0 .91.363 1.746.758 1.746.313 0 .59-.559.82-1.668.047-.223.133-.352.242-.352.129 0 .207.164.301.641a2.9 2.9 0 0 0 .48 1.027c.125.16.258.258.367.258.262 0 .43-.395.563-1.316.051-.359.156-.582.281-.582.055 0 .102.027.137.07.023.023.098.145.227.352a.86.86 0 0 0 .348.32c.16.082.289.129.375.129a.45.45 0 0 0 .297-.129c.145-.129.227-.227.227-.262 0-.047-.066-.148-.191-.285-.211-.223-.375-.527-.578-1.059l-.285-.734c-.051-.117-.105-.195-.164-.223l-.102-.027-.187.027-.672.188-.207.035c-.094 0-.152-.062-.152-.152s.117-.242.266-.359c.809-.645 1.293-1.727 1.473-3.301.109-.957.234-1.32.641-1.895.086-.117.16-.191.199-.191.125 0 .195.098.195.285 0 .121-.035.277-.105.453a1.1 1.1 0 0 0-.07.391l.004.121.066.195.352-.133.383-.445c.23-.266.422-.867.422-1.312 0-.309-.074-.523-.258-.738-.203-.242-.344-.336-.488-.336l-.219.016-.227.016q-.31.001-.309-.191l.055-.242.035-.352-.191-.801-.16-.387-.098-.32-.227.16-.48.285a1.7 1.7 0 0 0-.387.355c-.453.551-.484.578-.664.578-.117 0-.184-.043-.184-.121l.016-.137q.099-.44.098-.664c0-.559-.406-1.402-.898-1.867-.668.641-1.027 1.344-1.027 2.02v.387c0 .145-.047.223-.145.223h-.012c-.078-.012-.16-.074-.227-.16l-.383-.512q-.04-.06-.516-.418l-.254-.223-.129.254c-.316.637-.43 1.016-.449 1.539-.016.426-.051.551-.152.551a.45.45 0 0 1-.199-.07c-.488-.273-.531-.293-.742-.293-.578 0-.973.414-.973 1.02 0 .238.137.598.398 1.066.293.523.738 1.004.93 1.004.055 0 .066-.039.066-.199l-.004-.066-.027-.543-.066-.418-.004-.055c0-.125.047-.18.145-.18q.434 0 .758 2.543c.188 1.488.598 2.516 1.25 3.109.164.152.262.273.262.348 0 .051-.059.102-.129.102-.094 0-.242-.059-.422-.16a.7.7 0 0 0-.348-.105c-.32 0-.68.375-.742.777l-.289 1.824-.223 2.566c-.043.488.023 1.137.191 1.922.148.691.223 1.203.223 1.52 0 1.922-1.195 3.441-3.172 4.027l-2.051.605c-1.281.379-1.91 1.223-2.086 2.789.332-.262.43-.301.934-.383l.605-.094c.258-.043.441-.102.547-.164q.082-.052.352-.352l.547-.609c.203-.23.391-.363.504-.363.074 0 .137.086.137.188 0 .117-.078.305-.227.527a1.53 1.53 0 0 0-.234.828c0 .406.109.668.523 1.258l.129-.387q.083-.155.48-.672c.445-.574.762-1.176.77-1.445.008-.496.051-.656.176-.656.109 0 .129.023.176.305q.02.106.098.195c.074.082.148.129.195.129.039 0 .129-.047.254-.129.223-.148.395-.301.512-.449q.198-.248.32-.578c.105-.281.164-.484.164-.605l-.004-.414c0-.109.043-.199.105-.199.074 0 .238.168.344.355.07.125.113.16.207.16h.016a.48.48 0 0 0 .289-.129c.391-.383.645-.852.645-1.203l-.035-.59-.125-.484-.008-.043c0-.098.074-.184.156-.184.145 0 .305.207.523.676.102.223.195.324.289.324.156 0 .273-.113.574-.551l.289-.414a.56.56 0 0 0 .098-.324.6.6 0 0 0-.098-.316l-.258-.383c-.043-.066-.062-.18-.062-.324 0-.434.156-.926.48-1.504l.418-.801c.051-.133.105-.195.176-.195.055 0 .109.078.109.16l-.031.355v.512c.043.117.121.164.277.164.098 0 .211-.027.332-.066l.801-.289c.191-.07.438-.191.738-.355 1.258-.695 1.645-.84 2.262-.84.371 0 .844.145 1.52.457a.9.9 0 0 0 .332.098c.094 0 .195-.059.281-.16a.4.4 0 0 0 .094-.246.8.8 0 0 0-.129-.395c-.102-.18-.195-.402-.195-.48 0-.086.055-.141.148-.141.07 0 .18.078.238.172l.738 1.277c.598 1.063 1.375 1.805 2.051 1.957l1.41.324c.438.098.547.266.547.809 0 .996-.473 1.871-1.281 2.395l-1.156.738c-.418.266-.77 1.004-.77 1.617 0 .395.098 1.094.223 1.648l.227-.223.547-.32.48-.48.254-.707.258-.641c.125-.309.27-.512.371-.512.113 0 .176.172.176.488l-.004.09-.004.117c0 .461.063.664.422 1.355m-18.988 9.141c0-1.527.555-2.191 2.762-3.312 4.355-2.207 6.703-4.234 6.703-5.773 0-.309-.102-.766-.387-1.727-.176-.59-.277-1.086-.277-1.391 0-.711.582-1.785 1.336-2.453l.605-.543c.336-.301.582-.734.582-1.012l-.004-.145-.008-.191c0-.316.121-.437.457-.449l.285-.031.25-.066a.33.33 0 0 1 .266.16l.16.258.223.254c.074.082.148.133.207.133.039 0 .125-.035.242-.098a.8.8 0 0 1 .391-.121q.251-.002.25.277c0 .645-.414 1.574-1.152 2.566-1.23 1.664-1.633 2.563-1.633 3.629 0 .836.238 1.566.703 2.172.082.113.129.195.129.238 0 .086-.078.23-.223.402l-.195.258c-.254.371-.426.516-.594.516-.125 0-.246-.105-.301-.262l-.129-.348c-.039-.102-.109-.164-.18-.164-.027 0-.082.051-.141.133a.56.56 0 0 0-.129.352v.543c0 .215-.078.441-.227.641a2.7 2.7 0 0 1-.445.48c-.121.105-.211.16-.254.16-.094 0-.184-.102-.23-.254l-.191-.645c-.027-.094-.094-.156-.16-.156-.105 0-.199.18-.227.449-.066.727-.191 1.168-.383 1.344l-.449.414c-.145.141-.312.234-.406.234s-.172-.039-.203-.105l-.223-.48a.16.16 0 0 0-.145-.098c-.129 0-.223.254-.273.738-.113 1.152-.355 1.672-.992 2.117-.5.355-.605.469-.801.898-.281-.414-.387-.762-.387-1.281 0-.266.043-.457.133-.609.133-.238.207-.422.207-.531 0-.078-.051-.141-.117-.141-.027 0-.086.043-.156.125a2 2 0 0 1-.418.324c-.574.332-.664.449-.801 1.09-.187.859-.598 1.262-1.473 1.438-1.086.223-1.152.25-1.539.613l-.039-.57m-2.078-33.054v.32l.004.477a2 2 0 0 1-.066.52c-.105.445-.129.598-.129.723 0 .613.086.918.445 1.551.203.348.332.77.332 1.074 0 .129-.051.207-.141.207-.055 0-.113-.031-.156-.094l-.254-.355c-.207-.281-.398-.355-.922-.355l-.555.035c.223.547.293.758.383 1.121.262 1.047.297 1.125.867 1.637s.625.582.625.77c0 .145-.098.258-.219.258l-.215-.035-.125-.012c-.176 0-.336.32-.336.68 0 .203.082.527.207.809.078.188.156.316.223.387l.32.316a.47.47 0 0 1 .129.328c0 .156-.09.289-.195.289-.062 0-.16-.039-.285-.105a.5.5 0 0 0-.227-.062c-.145 0-.211.086-.211.262l.051.477.195.832q.064.284.352.613c.164.184.328.313.48.383l.641.289c.063.043.094.141.094.254 0 .121-.094.227-.211.227q-.054 0-.332-.066l-.324-.031c-.328 0-.348.02-.348.27a2 2 0 0 0 .063.5l.129.512c.137.543.313.836.504.836.043 0 .125-.047.234-.129.461-.355 1.395-.676 1.977-.676.602 0 1.289.074 1.547.16a1.2 1.2 0 0 0 .309.078c.078 0 .105-.078.109-.363l.066-.578.129-.992.094-.738v-.418l-.258.227c-.547.512-.891.672-1.453.672-1.473 0-2.32-1.656-2.32-4.547 0-1.195.176-2.879.504-4.812.07-.406.102-.691.102-.891 0-1.055-.668-2.082-1.832-2.828m2.179 7.172.289-.285.285-.258c.242-.211.434-.656.434-.984 0-.152-.031-.293-.109-.457-.113-.242-.328-.457-.457-.457-.109 0-.207.266-.25.68l-.062.48-.094.48-.035.48v.32m-2.821 13.111c.328.121.398.176.734.578.445.516.691.641 1.281.641a1.7 1.7 0 0 0 .453-.062l.414-.129.32-.098c.156-.043.258-.113.258-.164 0-.066-.254-.281-.641-.539a6 6 0 0 0-.77-.449c-.277-.137-.504-.199-.734-.199-.449 0-.887.137-1.316.422m4.329 9.022c0-1.035 1.016-1.887 2.258-1.887.617 0 .98.125.98.336 0 .164-.273.387-.867.703q-.087.038-.93.512l-1.41.703z"/><path d="M82.715 87.762c.457-.094.609-.211.832-.223l.578.031c.07-.023.203-.113.383-.258l.449-.32c.641-.437.676-.465.676-.605 0-.176-.258-.262-.801-.262-1.008 0-1.625.473-2.117 1.637"/></g><path d="m73.035 68.242.449.289a4.6 4.6 0 0 0 .641.352c.496.203.676.277.676.469a1.2 1.2 0 0 1-.066.363 2.2 2.2 0 0 0-.094.449c-.047.438-.312.547-.484.547-.215 0-.441-.336-.801-.961a8 8 0 0 1-.512-1.281l-.02-.125c0-.078.051-.125.141-.125m4.398 1.14-.738.742c-.262.348-.262.648-.32.707a.44.44 0 0 1-.223.094l-.051.004a.33.33 0 0 1-.336-.324l-.031-.543-.031-.547v-.031c0-.211.113-.32.281-.355l.684-.191.699-.352c.207-.102.27-.129.305-.129.082 0 .152.086.152.188a.6.6 0 0 1-.07.199l-.32.539m-3.239 2.183.48.355a.86.86 0 0 0 .43.105c.195 0 .484-.074.758-.203l.418-.191a.6.6 0 0 1 .246-.066c.258 0 .461.27.461.609 0 .473-.344.961-.836 1.664l-.352.742c-.281.398-.465.543-.695.543-.379 0-.566-.215-1.133-1.348-.414-.809-.578-1.305-.578-1.699 0-.34.176-.574.43-.574.105 0 .23-.027.371.063" class="C"/><path d="m74.543 73.309.031.609c.016.277.246.551.469.551.293 0 .504-.449.621-1.125l.07-.445c0-.238-.078-.301-.379-.301l-.172.004h-.223l-.145-.004c-.199 0-.277.156-.277.563" class="B"/><path d="M38.453 58.797h3.133v6.434h3.688v-6.367h9.309v6.367h3.684v-6.367h3.137V42.25h-3.586l-.133-.195c-.426-.641-1.012-.973-1.73-.973-.707 0-1.305.414-1.691 1.168h-2.59c-.25-.676-.977-1.168-1.73-1.168a1.93 1.93 0 0 0-1.824 1.168h-2.78c-.461-.828-.973-1.164-1.777-1.164s-1.332.355-1.715 1.164h-3.395z" class="C"/><path d="M39.793 43.613h20.383v13.969H39.793zm0 0" class="F"/><path d="M41.91 46.809a.97.97 0 0 0-.969.965c0 .535.434.973.969.973s.973-.437.973-.973a.97.97 0 0 0-.973-.965" class="B"/><use xlink:href="#B" class="D"/><path d="M57.91 46.809a.97.97 0 0 0-.969.965c0 .535.438.973.969.973a.973.973 0 0 0 .973-.973.97.97 0 0 0-.973-.965" class="B"/><use xlink:href="#B" x="16" class="D"/><path d="M41.91 54.402a.97.97 0 0 0-.969.973c0 .535.449.965 1.004.965.516 0 .938-.43.938-.965a.97.97 0 0 0-.973-.973" class="B"/><path d="M41.91 54.535a.84.84 0 0 0-.836.84c0 .461.391.836.871.836.445 0 .805-.375.805-.836a.84.84 0 0 0-.84-.84m.035 1.938c-.625 0-1.137-.492-1.137-1.098s.496-1.102 1.102-1.102 1.105.492 1.105 1.102-.48 1.098-1.07 1.098" class="D"/><path d="M57.91 54.402a.97.97 0 0 0-.969.973.97.97 0 0 0 .969.965c.539 0 .973-.43.973-.965a.97.97 0 0 0-.973-.973" class="B"/><path d="M57.91 54.535a.84.84 0 0 0-.836.84c0 .461.375.836.836.836a.84.84 0 0 0 .84-.836.84.84 0 0 0-.84-.84m0 1.938c-.605 0-1.102-.492-1.102-1.098s.496-1.102 1.102-1.102 1.105.492 1.105 1.102-.496 1.098-1.105 1.098" class="D"/><path d="M44.949 51.461c1.316 1.645 2.973 2.457 5.023 2.457 1.895 0 3.203-.68 4.738-2.457-1.531-1.57-2.957-2.23-4.832-2.23-1.973 0-3.75.805-4.93 2.23" class="B"/><path d="M45.918 51.461c1.355-1.051 2.5-1.488 3.914-1.488 1.426 0 2.488.418 3.879 1.52-1.211 1.199-2.273 1.652-3.902 1.652-1.449 0-2.77-.574-3.891-1.684" class="C"/><path d="M47.57 51.141c.809.504 1.453.707 2.207.707.887 0 1.633-.223 2.352-.707-.758-.363-1.547-.555-2.316-.555-.809 0-1.566.188-2.242.555" class="B"/><path d="M39.508 44.328h20.953v.711H39.508zm0 0" class="C"/><path d="M39.551 44.996h20.863v-.625H39.551zm20.953.086H39.465v-.797h21.039z" class="D"/><path d="M42.719 43.414v2c0 .48.375.844.863.844.566 0 .887-.305.887-.844v-1.969c0-.762-.312-1.23-.812-1.23a1.1 1.1 0 0 0-.387.098 1.2 1.2 0 0 0-.227.129.8.8 0 0 0-.191.262c-.086.172-.133.297-.133.355m6.304 2.004v.352c0 .477.375.844.859.844.566 0 .887-.305.887-.844v-1.969c0-.754-.312-1.234-.805-1.234-.574 0-.941.469-.941 1.203m6.11-.001v2c0 .48.371.844.859.844.566 0 .887-.305.887-.844v-1.969c0-.762-.312-1.23-.809-1.23a1.1 1.1 0 0 0-.391.098 1 1 0 0 0-.223.129.7.7 0 0 0-.195.262c-.086.172-.129.297-.129.355M42.266 60.316h1.906v2.453h-1.906zm0 3.008h1.906v.777h-1.906zm12.996-3.008h1.906v2.453h-1.906zm0 3.008h1.906v.777h-1.906zm0 0" class="B"/></svg>