<svg xmlns="http://www.w3.org/2000/svg" xmlns:xlink="http://www.w3.org/1999/xlink" width="321.12" height="313.92"><defs><path id="a" d="M.25 0q.03-.716.281-1.25.265-.53 1.016-.953l.75-.438q.48-.279.687-.5a.98.98 0 0 0 .329-.734c0-.32-.102-.578-.297-.766-.188-.187-.446-.28-.766-.28q-.719 0-1 .546-.143.281-.156.797H.39Q.389-4.293.656-4.75q.451-.811 1.594-.812.95 0 1.39.515c.29.344.438.727.438 1.14q0 .674-.469 1.141-.268.284-.968.672l-.532.297a3.5 3.5 0 0 0-.593.39q-.392.347-.485.75h3.016V0Zm0 0"/><path id="b" d="M.766-3.922v-.531q.749-.075 1.047-.25.294-.169.437-.813h.547V0h-.735v-3.922Zm0 0"/><path id="c" d="M1.047-1.344q.03.58.453.797a.9.9 0 0 0 .484.125q.481.002.829-.406.357-.421.515-1.703c-.156.25-.351.43-.578.531q-.347.14-.734.14c-.532 0-.953-.163-1.266-.5Q.282-2.855.281-3.64c0-.508.149-.954.453-1.329q.47-.576 1.36-.578 1.216.002 1.672 1.094.264.597.265 1.5 0 1.019-.312 1.797C3.383-.281 2.813.156 2 .156c-.543 0-.953-.144-1.234-.422a1.5 1.5 0 0 1-.422-1.078Zm1.062-1.125q.405.002.75-.265c.227-.188.344-.508.344-.97q0-.607-.312-.905-.3-.295-.782-.297a1.05 1.05 0 0 0-.812.343q-.298.331-.297.907c0 .367.086.656.266.875q.263.314.843.312m0 0"/><path id="d" d="M.5-5.687h.672v3.312l1.781-1.766h.89L2.25-2.594 3.938 0h-.891L1.75-2.094l-.578.531V0H.5Zm0 0"/><path id="e" d="M2.14-5.547q1.079 0 1.563.89.359.693.36 1.876 0 1.142-.329 1.875Q3.248.158 2.141.156C1.473.156.977-.133.656-.719.383-1.195.25-1.844.25-2.656q0-.935.234-1.625.468-1.266 1.657-1.266m0 5.063q.528 0 .844-.47.33-.482.329-1.796 0-.937-.235-1.547-.222-.61-.89-.61c-.407 0-.711.196-.907.579q-.28.58-.281 1.703 0 .844.188 1.36c.187.523.503.78.953.78m0 0"/><path id="ar" d="M4.14-5.453v.61q-.268.268-.718.906c-.293.43-.547.89-.766 1.39q-.345.72-.515 1.313Q2.03-.843 1.844 0h-.766q.265-1.575 1.156-3.156A9.6 9.6 0 0 1 3.36-4.75H.297v-.703Zm0 0"/><path id="as" d="M.672-.844h.812V0H.672Zm0 0"/><path id="at" d="M2.781-.656q.388.001.64-.078.454-.155.735-.578.235-.34.328-.891.062-.311.063-.594 0-1.06-.422-1.64c-.281-.383-.73-.579-1.344-.579H1.406v4.36ZM.641-5.687h2.297q1.168 0 1.812.843.576.75.578 1.922 0 .91-.328 1.625Q4.39.002 2.938 0H.64Zm0 0"/><path id="au" d="M.672-5.687h3.953v.703H1.453v1.718h2.781v.688h-2.78V0H.671Zm0 0"/><path id="av" d="M.672-5.687h2.562q.75.002 1.22.437.468.423.468 1.203 0 .657-.422 1.156-.41.486-1.266.485h-1.78V0H.671Zm3.469 1.64q0-.623-.47-.86-.252-.107-.687-.109h-1.53v1.97h1.53q.514.002.829-.22.328-.232.328-.78m0 0"/><path id="aw" d="M4.734-5.687V-5H2.828v5h-.781v-5H.125v-.687Zm0 0"/><path id="f" d="m1.063-6.203 1.171 5.047 1.407-5.047h.906l1.406 5.047 1.172-5.047h.906L6.406 0h-.875L4.094-5.14 2.656 0h-.875L.156-6.203Zm0 0"/><path id="g" d="M2.984-3.578q.53 0 .829-.14.468-.235.468-.844-.001-.609-.5-.813-.282-.124-.828-.125h-1.5v1.922Zm.282 2.86q.78.001 1.109-.454.201-.28.203-.672 0-.669-.61-.922-.315-.14-.843-.14H1.453V-.72ZM.64-6.204h2.656q1.09 0 1.547.656.28.375.281.89-.002.58-.344.954a1.45 1.45 0 0 1-.5.36c.32.124.563.265.719.421.281.274.422.64.422 1.11 0 .406-.125.773-.375 1.093C4.672-.239 4.07 0 3.25 0H.64Zm0 0"/><path id="h" d="M.64-6.203h1.204l1.781 5.25 1.766-5.25h1.187V0h-.797v-4.281c.008-.29.016-.61.016-.953L4.03 0h-.828l-1.78-5.234v.89c.008.313.016.543.016.688V0H.64Zm0 0"/><path id="i" d="M3.031-.719q.435 0 .703-.094c.332-.101.602-.312.813-.624.156-.25.27-.57.344-.97q.077-.34.078-.64 0-1.155-.469-1.781-.456-.64-1.469-.64H1.547v4.75ZM.703-6.203h2.5c.852 0 1.516.305 1.985.906.414.555.625 1.258.625 2.11q-.002.984-.36 1.78Q4.798 0 3.203 0h-2.5Zm0 0"/><path id="j" d="M1.14-1.203q0 .328.235.516c.164.125.36.187.578.187.258 0 .516-.055.766-.172q.64-.312.64-1.015v-.61A1.2 1.2 0 0 1 3-2.14a6 6 0 0 1-.437.079l-.454.046q-.409.065-.625.188c-.23.125-.343.336-.343.625m1.844-1.531c.164-.02.282-.094.344-.22a.8.8 0 0 0 .047-.296q0-.387-.281-.562-.268-.171-.781-.172-.598 0-.844.312c-.094.125-.157.305-.188.531H.578c.008-.55.188-.937.531-1.156a2.26 2.26 0 0 1 1.22-.328c.53 0 .96.102 1.296.297q.499.314.5.953V-.78q0 .128.047.203.046.063.203.062h.11c.038-.007.085-.02.14-.03v.562q-.188.06-.281.062a2 2 0 0 1-.25.016q-.393 0-.563-.281a1.1 1.1 0 0 1-.14-.407q-.223.298-.657.532a2.2 2.2 0 0 1-.968.218c-.418 0-.762-.129-1.032-.375a1.3 1.3 0 0 1-.39-.968q0-.623.39-.97.387-.34 1.032-.437Zm-.64-1.891"/><path id="k" d="M.703-5.781h.781v1.265h.72v.625h-.72v2.938q-.001.236.157.312.074.047.297.047h.265V0q-.14.03-.281.047a1.5 1.5 0 0 1-.297.031Q1.091.08.891-.187q-.188-.28-.188-.72V-3.89h-.61v-.625h.61Zm0 0"/><path id="l" d="M1.016-1.422q.03.394.187.594.282.362.984.36c.282 0 .524-.055.735-.173a.62.62 0 0 0 .328-.578.48.48 0 0 0-.25-.437c-.117-.063-.336-.133-.656-.219l-.594-.156q-.58-.14-.86-.313-.485-.31-.484-.86-.002-.638.453-1.03c.313-.27.727-.407 1.25-.407q1.013 0 1.47.61.28.377.28.812h-.718a.87.87 0 0 0-.188-.469q-.251-.294-.906-.296-.422 0-.656.172a.49.49 0 0 0-.22.421q0 .3.298.47.17.11.5.187l.5.125q.81.203 1.094.39.452.284.453.906 0 .612-.47 1.047-.454.437-1.39.438C1.476.172 1 .02.72-.281Q.309-.75.28-1.421Zm1.109-3.203"/><path id="m" d="M2.438-4.625q.48 0 .937.234.451.222.688.579.216.345.296.796.078.316.079 1H1.124q.012.69.313 1.11.31.408.953.406.591 0 .937-.39c.133-.157.235-.333.297-.532h.734a1.4 1.4 0 0 1-.187.563 2.5 2.5 0 0 1-.375.5q-.344.326-.86.453-.27.06-.609.062A1.93 1.93 0 0 1 .89-.454C.492-.858.297-1.43.297-2.171c0-.726.195-1.316.594-1.765q.591-.687 1.547-.688m1.218 2q-.047-.481-.219-.781-.314-.546-1.046-.547-.517 0-.875.375-.364.377-.375.953Zm-1.297-2"/><path id="n" d="M.266 0Q.31-.78.594-1.36c.187-.382.55-.734 1.094-1.046l.812-.469q.543-.311.766-.547.341-.34.343-.797 0-.528-.328-.828-.313-.311-.828-.312-.784.002-1.094.578-.159.327-.171.89H.422q.011-.793.281-1.296.497-.875 1.75-.875 1.031 0 1.516.562.482.564.484 1.25 0 .719-.516 1.234-.3.3-1.062.735l-.578.312a4.3 4.3 0 0 0-.64.438c-.282.242-.462.511-.532.812h3.297V0Zm0 0"/><path id="o" d="M2.344-6.047q1.172 0 1.687.969.406.75.407 2.047-.002 1.237-.36 2.047Q3.547.174 2.328.172q-1.08 0-1.61-.953Q.265-1.56.267-2.906.264-3.921.53-4.672q.5-1.373 1.813-1.375M2.328-.53q.592 0 .938-.516.358-.528.359-1.953-.001-1.031-.266-1.687-.253-.67-.968-.672-.675 0-.985.64-.313.627-.312 1.844-.001.938.203 1.484.293.861 1.031.86m0 0"/><path id="p" d="M.547-6.203h.719v3.61l1.953-1.923h.969L2.452-2.828 4.281 0h-.968L1.906-2.281l-.64.578V0h-.72Zm0 0"/><path id="r" d="M.5-6.219h.734v2.25a1.7 1.7 0 0 1 .594-.5q.34-.17.75-.172.844.002 1.36.594.528.58.53 1.703 0 1.067-.515 1.781-.517.704-1.437.704c-.344 0-.633-.086-.86-.25q-.22-.14-.453-.47V0H.5ZM2.469-.53q.622.001.922-.485.311-.482.312-1.296 0-.705-.312-1.172-.3-.47-.891-.47c-.355 0-.664.134-.922.392q-.392.375-.39 1.25c0 .43.054.773.171 1.03q.295.75 1.11.75m0 0"/><path id="t" d="M2.344-.484c.508 0 .86-.188 1.047-.563q.28-.576.28-1.281-.002-.64-.202-1.031-.33-.623-1.11-.625c-.468 0-.808.18-1.015.53q-.315.533-.313 1.282-.002.721.313 1.203.31.486 1 .485m.031-4.172q.872.001 1.469.593.61.58.61 1.704-.002 1.096-.532 1.812-.534.72-1.64.719-.94.001-1.485-.625Q.248-1.091.25-2.156.249-3.294.828-3.97q.575-.686 1.547-.687m-.016.031"/><path id="u" d="M.75-5.203c.008-.313.063-.54.156-.688.176-.257.52-.39 1.031-.39h.141c.05 0 .11.008.172.015v.688q-.112-.014-.172-.016h-.094q-.345 0-.421.188-.064.175-.063.906h.75v.61H1.5V0H.75v-3.89H.125v-.61H.75Zm0 0"/><path id="v" d="M.734-6.203h4.297v.766H1.578v1.875h3.047v.75H1.578V0H.734Zm0 0"/><path id="w" d="M.734-6.203h2.797q.825 0 1.328.469.499.468.5 1.312 0 .72-.453 1.266-.439.532-1.375.531H1.578V0H.734Zm3.782 1.781q-.001-.669-.5-.922c-.188-.082-.446-.125-.766-.125H1.578v2.14H3.25q.562 0 .906-.233.36-.25.36-.86m0 0"/><path id="x" d="M5.172-6.203v.75H3.078V0h-.844v-5.453H.141v-.75Zm0 0"/><path id="z" d="M1.031-2.203q-.002.72.313 1.219.31.485.984.484c.352 0 .645-.148.875-.453q.342-.451.344-1.297 0-.855-.36-1.266-.344-.42-.859-.421-.581.002-.937.437c-.243.293-.36.727-.36 1.297m1.157-2.39q.514 0 .859.218.2.128.469.438V-6.22h.718V0h-.671v-.625a1.65 1.65 0 0 1-.641.594 1.8 1.8 0 0 1-.828.187Q1.344.157.78-.469.232-1.107.234-2.172c0-.656.164-1.223.5-1.703q.516-.717 1.454-.719m0 0"/><path id="A" d="M.563-4.5h.765V0H.562Zm0-1.703h.765v.86H.562Zm0 0"/><path id="B" d="M.578-6.203h.766V0H.578Zm0 0"/><path id="C" d="M2.297-4.656q.764 0 1.234.375c.32.25.52.68.594 1.281h-.75a1.27 1.27 0 0 0-.312-.687q-.238-.282-.766-.282-.72 0-1.031.703-.204.471-.203 1.141 0 .673.28 1.14.281.47.907.47.47 0 .75-.282.282-.292.375-.797h.75q-.142.891-.64 1.313c-.337.273-.766.406-1.297.406-.594 0-1.07-.21-1.422-.64C.422-.954.25-1.493.25-2.142Q.249-3.327.828-3.984a1.86 1.86 0 0 1 1.469-.672m-.11.031"/><path id="D" d="M.578-4.516h.719v.782q.093-.235.437-.563a1.1 1.1 0 0 1 .797-.328c.008 0 .031.008.063.016q.058.002.187.015v.797q-.081-.014-.14-.015h-.11q-.58 0-.89.374-.298.364-.297.844V0H.578Zm0 0"/><path id="E" d="M2.469-.516q.528.001.875-.437.359-.45.36-1.328a2.6 2.6 0 0 0-.157-.938q-.3-.75-1.078-.75-.796 0-1.078.797-.158.421-.157 1.078-.001.515.157.89c.187.462.547.688 1.078.688M.5-4.5h.734v.61c.157-.208.32-.368.5-.485a1.66 1.66 0 0 1 .907-.25q.762.002 1.297.594.528.58.53 1.672Q4.467-.871 3.704-.25q-.485.406-1.14.406c-.344 0-.633-.082-.86-.234A1.9 1.9 0 0 1 1.25-.5v2.297H.5Zm0 0"/><path id="O" d="M1.313-5.312h-.75v-.891h.75ZM-.157 1.14q.5-.018.61-.094c.07-.043.11-.195.11-.453V-4.5h.75V.672c0 .332-.055.578-.157.734-.18.282-.515.422-1.015.422-.032 0-.07-.008-.11-.016q-.058-.002-.187-.015Zm0 0"/><path id="P" d="M.828-4.281v-.578q.825-.078 1.14-.266.329-.188.485-.89h.61V0H2.25v-4.281Zm0 0"/><path id="ac" d="M.672-6.203h.86v2.562H4.75v-2.562h.844V0H4.75v-2.906H1.531V0h-.86Zm0 0"/><path id="ad" d="M2.156-4.594q.528.002.922.25.217.157.438.438v-.563h.703v4.11q-.002.857-.25 1.343-.469.922-1.781.922-.738 0-1.235-.328Q.45 1.25.391.562h.78a.82.82 0 0 0 .22.47c.164.163.437.25.812.25q.872 0 1.14-.61.154-.373.141-1.297-.22.345-.546.516-.317.17-.844.172-.736 0-1.297-.516Q.248-.981.25-2.187.248-3.325.797-3.953q.562-.64 1.36-.64m1.36 2.313c0-.563-.118-.973-.344-1.235a1.1 1.1 0 0 0-.875-.406q-.815 0-1.11.75-.157.392-.156 1.047-.002.768.313 1.172.31.391.843.39c.54 0 .922-.242 1.141-.734q.188-.422.188-.984M2.234-4.625"/><path id="ae" d="M.563-6.219h.75v2.313q.28-.341.484-.485.373-.234.922-.234.983 0 1.328.688.187.375.187 1.03V0h-.78v-2.844q-.002-.499-.126-.734-.204-.375-.765-.375-.488 0-.876.328c-.25.219-.375.633-.375 1.234V0h-.75Zm0 0"/><path id="af" d="M.36-2.797h2.124v.781H.36Zm0 0"/><path id="ag" d="M1.313-4.516v3q-.001.345.109.563.2.408.766.406.778 0 1.078-.703c.101-.258.156-.61.156-1.047v-2.219h.75V0h-.719l.016-.672q-.141.269-.375.438c-.281.238-.633.359-1.047.359-.649 0-1.086-.21-1.313-.64Q.547-.874.547-1.454v-3.063Zm1.046-.109"/><path id="ah" d="M.563-4.516h.75v.641q.262-.327.484-.484.374-.265.86-.266c.35 0 .64.09.859.266q.187.158.343.453.247-.357.594-.531.342-.188.766-.188.903 0 1.234.656.188.362.188.953V0h-.797v-3.14q0-.452-.235-.61a.85.85 0 0 0-.53-.172c-.306 0-.563.102-.782.297q-.315.298-.313 1V0h-.78v-2.953c0-.3-.04-.524-.11-.672q-.174-.311-.64-.312-.441.002-.798.343-.344.33-.343 1.203V0h-.75Zm0 0"/><path id="aj" d="M3.547-3.36q.575 0 .922-.234.341-.233.343-.86 0-.656-.468-.89a1.65 1.65 0 0 0-.688-.125H1.594v2.11ZM.766-6.202h2.859q.715 0 1.172.219.874.392.875 1.453 0 .563-.234.922-.236.346-.641.562c.238.094.422.227.547.39q.186.236.203.782l.031.828q.014.362.063.531.076.3.265.375V0H4.875a.7.7 0 0 1-.078-.203 6 6 0 0 1-.031-.5l-.047-1.031c-.024-.407-.172-.676-.453-.813-.157-.07-.407-.11-.75-.11H1.594V0H.766Zm0 0"/><path id="ak" d="M.563-4.516h.718v.641q.31-.403.672-.578.357-.17.797-.172c.645 0 1.078.227 1.297.672q.187.377.187 1.047V0H3.47v-2.844q-.001-.42-.125-.672-.206-.42-.735-.421-.269.002-.437.062c-.211.063-.39.184-.547.36a1.25 1.25 0 0 0-.25.468q-.063.235-.062.688V0h-.75Zm1.78-.109"/><path id="al" d="M3.375-4.516h.844L3.5-2.53q-.408 1.159-.687 1.89c-.438 1.153-.75 1.86-.938 2.11-.18.258-.484.39-.922.39q-.156-.002-.25-.015L.5 1.797v-.703q.2.06.281.078c.063.008.114.016.156.016q.218-.001.313-.079a.8.8 0 0 0 .172-.171q.012-.035.14-.344.14-.316.204-.469L.094-4.515h.86l1.201 3.67Zm-1.219-.109"/><path id="am" d="M.656-6.203H1.5v5.469h3.14V0H.657Zm0 0"/><path id="an" d="M.75-5.203c.008-.313.063-.54.156-.688.176-.257.52-.39 1.031-.39h.141c.05 0 .11.008.172.015v.688q-.112-.014-.172-.016h-.094q-.345 0-.421.188-.064.175-.063.906h.75v.61H1.5V0H.75v-3.89H.125v-.61H.75Zm2.234-.14v-.86h.766v.86Zm0 .843h.766V0h-.766Zm0 0"/><path id="ap" d="M2.25.172c-.719 0-1.242-.195-1.562-.594Q.202-1.014.203-1.859H1q.045.596.219.859.293.47 1.062.469.607.002.969-.313c.238-.219.36-.492.36-.828 0-.414-.133-.707-.391-.875-.25-.164-.602-.25-1.047-.25h-.156q-.081.002-.157.016v-.672c.07 0 .133.008.188.015h.187c.282 0 .508-.046.688-.14.32-.156.484-.438.484-.844q0-.451-.328-.687a1.16 1.16 0 0 0-.734-.25q-.767.001-1.047.5-.176.28-.188.797H.36c0-.446.086-.829.266-1.141q.47-.844 1.64-.844.92.001 1.422.406.516.41.516 1.188c0 .375-.105.68-.312.906a1.15 1.15 0 0 1-.47.344q.468.127.735.5.282.375.282.922c0 .574-.196 1.043-.579 1.406-.375.367-.914.547-1.609.547m0 0"/><path id="aq" d="M1.14-1.453q.047.626.485.86.233.126.531.124c.364 0 .672-.148.922-.453q.388-.45.547-1.844A1.4 1.4 0 0 1 3-2.187q-.375.157-.797.156-.877.002-1.39-.547c-.336-.363-.5-.832-.5-1.406q-.002-.81.5-1.438.499-.623 1.484-.625c.875 0 1.476.399 1.812 1.188q.282.656.282 1.64 0 1.114-.328 1.969Q3.5.174 2.188.172c-.594 0-1.047-.16-1.36-.469C.523-.609.375-.992.375-1.453Zm1.157-1.25q.452 0 .828-.297.375-.293.375-1.031c0-.446-.117-.782-.344-1q-.328-.328-.844-.328-.561 0-.89.375-.328.377-.328 1 0 .597.281.937.294.345.922.344m0 0"/><path id="ax" d="M2.531-6.062c.676 0 1.145.18 1.406.53q.406.517.407 1.079h-.75c-.055-.238-.125-.426-.219-.563-.187-.257-.465-.39-.828-.39-.43 0-.766.199-1.016.593q-.375.598-.422 1.688.264-.389.657-.578.356-.17.812-.172c.508 0 .953.164 1.328.484q.563.487.563 1.454-.001.83-.547 1.468-.533.626-1.516.625c-.562 0-1.054-.21-1.469-.64Q.329-1.122.329-2.656c0-.75.086-1.383.266-1.906.351-1 1-1.5 1.937-1.5M2.47-.516c.406 0 .707-.132.906-.406a1.58 1.58 0 0 0 .297-.953q-.001-.467-.266-.875c-.18-.281-.5-.422-.969-.422q-.5 0-.874.328c-.243.211-.36.531-.36.969q0 .58.328.969.34.39.938.39m0 0"/><path id="G" d="m.89-5.172.97 4.203 1.17-4.203h.766L4.953-.969l.984-4.203h.766L5.343 0H4.61L3.422-4.281 2.219 0h-.735L.125-5.172Zm0 0"/><path id="H" d="M.484-3.766h.594v.657q.077-.2.36-.47a.98.98 0 0 1 .671-.265h.063c.031 0 .078.008.14.016v.656h-.109a.4.4 0 0 0-.094-.015q-.486 0-.75.312a1.1 1.1 0 0 0-.25.703V0H.484Zm0 0"/><path id="I" d="M2.031-3.844q.406 0 .781.188c.25.125.442.289.579.484q.186.281.25.656.046.268.046.829H.938q.013.58.266.921.247.345.781.344c.332 0 .598-.101.797-.312q.17-.201.235-.453h.625a1.4 1.4 0 0 1-.172.468 1.7 1.7 0 0 1-.297.422 1.5 1.5 0 0 1-.719.375Q2.22.14 1.938.141 1.233.14.734-.375C.41-.719.25-1.195.25-1.812q-.001-.904.484-1.47.5-.561 1.297-.562m1.016 1.656a1.8 1.8 0 0 0-.188-.656Q2.608-3.295 2-3.297a.97.97 0 0 0-.734.313q-.3.315-.313.797ZM1.969-3.859"/><path id="J" d="M.469-3.766h.594v.532q.263-.329.562-.47.31-.14.672-.14.796.001 1.078.547.154.314.156.875V0h-.64v-2.375q0-.34-.094-.562-.174-.342-.625-.344c-.149 0-.266.015-.36.047a1 1 0 0 0-.468.312.94.94 0 0 0-.203.39 2.5 2.5 0 0 0-.047.563V0H.469Zm1.484-.093"/><path id="K" d="M.844-1.187c.02.218.07.382.156.484q.232.313.828.312.356.002.625-.156a.51.51 0 0 0 .266-.469.41.41 0 0 0-.219-.375q-.142-.077-.547-.171l-.5-.125Q.967-1.812.75-1.953q-.408-.263-.406-.719 0-.528.375-.86c.258-.218.61-.327 1.047-.327q.843.001 1.218.5.235.314.235.672h-.61a.85.85 0 0 0-.14-.391q-.223-.248-.766-.25-.361 0-.547.14a.44.44 0 0 0-.172.36q0 .251.235.39.14.096.422.157l.422.11c.445.105.75.21.906.312q.375.251.375.765c0 .336-.133.625-.39.875q-.377.36-1.157.36C1.234.14.832.01.594-.234a1.43 1.43 0 0 1-.36-.953ZM1.78-3.86"/><path id="L" d="M.469-3.766h.625v.532c.144-.188.281-.32.406-.407.207-.132.441-.203.703-.203q.452 0 .735.219.152.128.28.375.203-.312.485-.453.294-.14.64-.14.765 0 1.048.546.14.3.14.797V0h-.656v-2.61c0-.257-.062-.437-.187-.53a.74.74 0 0 0-.454-.141.97.97 0 0 0-.656.25c-.18.168-.265.449-.265.844V0h-.641v-2.453q0-.386-.094-.563-.143-.264-.531-.265A.93.93 0 0 0 1.39-3q-.298.283-.297 1v2H.469Zm0 0"/><path id="M" d="M.422-5.187h.61v1.875q.2-.265.484-.407.294-.14.64-.14c.469 0 .848.164 1.14.484q.437.485.438 1.422-.002.892-.437 1.484c-.293.399-.695.594-1.203.594-.281 0-.524-.074-.719-.219A1.7 1.7 0 0 1 1-.484V0H.422Zm1.64 4.75c.344 0 .598-.133.766-.407q.248-.405.25-1.078-.002-.592-.25-.984-.252-.389-.75-.39-.439 0-.765.327Q.998-2.653 1-1.922q-.001.532.125.86.246.625.938.625m0 0"/><path id="N" d="M.484-5.172h.625V0H.484Zm0 0"/><path id="Q" d="M4.86-1.5c.507 0 .921-.055 1.234-.172.601-.207.906-.601.906-1.187a.9.9 0 0 0-.437-.797q-.457-.28-1.422-.485l-1.094-.25q-1.612-.357-2.234-.796Q.765-5.903.766-7.422.764-8.81 1.78-9.734q1.013-.922 2.969-.922c1.094 0 2.023.293 2.797.875q1.156.862 1.203 2.515H6.672c-.031-.625-.305-1.066-.813-1.328-.336-.176-.75-.265-1.25-.265q-.844.002-1.343.343-.502.33-.5.938c0 .367.164.64.5.828q.311.188 1.343.422l1.782.437q1.171.282 1.78.75.922.74.923 2.11Q9.092-1.61 8-.671 6.92.265 4.938.265 2.922.268 1.75-.656.592-1.576.594-3.203h2.062c.07.48.203.836.39 1.062.352.43.958.641 1.813.641m0 0"/><path id="R" d="M7.563-4.906H5.515q-.064-.435-.297-.782-.33-.452-1.047-.453c-.68 0-1.137.336-1.375 1q-.204.533-.203 1.422-.001.845.203 1.344.34.97 1.344.969.701 0 1-.375.293-.389.359-1h2.047a3.4 3.4 0 0 1-.672 1.734C6.25-.172 5.32.266 4.094.266q-1.862 0-2.735-1.094Q.5-1.92.5-3.672q-.001-1.982.953-3.078.967-1.092 2.672-1.094 1.435 0 2.344.657c.613.43.976 1.187 1.093 2.28m0 0"/><path id="S" d="M4.781-5.812c-.804 0-1.343.261-1.625.78q-.22.456-.219 1.376V0H.908v-7.656h1.921v1.328c.3-.508.567-.86.797-1.047q.561-.468 1.469-.469.059.002.093.016h.172v2.047c-.125-.008-.242-.016-.343-.016-.094-.008-.172-.016-.235-.016m0 0"/><path id="T" d="M7.484-2.25q-.081.689-.703 1.39C6.125-.116 5.207.25 4.031.25q-1.469 0-2.593-.937Q.325-1.624.327-3.75q-.001-1.98 1-3.047Q2.34-7.858 3.952-7.859q.95 0 1.719.359.762.363 1.266 1.125.452.688.593 1.578.075.533.063 1.516h-5.25c.031.773.273 1.312.734 1.625q.405.28.985.281.621.001 1.015-.344.2-.186.375-.531ZM5.516-4.594q-.066-.795-.5-1.203-.424-.422-1.063-.422c-.46 0-.82.149-1.078.438-.25.293-.414.687-.484 1.187Zm0 0"/><path id="U" d="M4.547-6.172c-.688 0-1.156.29-1.406.86q-.204.457-.203 1.171V0H.952v-7.64h1.922v1.109q.388-.592.734-.844c.414-.312.938-.469 1.563-.469q1.185.002 1.937.625c.508.418.766 1.106.766 2.063V0H5.828v-4.656q0-.61-.172-.938-.281-.576-1.11-.578m0 0"/><path id="V" d="M3-7.656V0H.969v-7.656Zm0-2.766v1.844H.969v-1.844Zm0 0"/><path id="W" d="M3.094 1.344q.327.264 1.094.265c.718 0 1.203-.242 1.453-.718q.234-.471.234-1.563v-.484q-.282.487-.625.734c-.398.305-.914.453-1.547.453Q2.234.031 1.343-1 .468-2.031.47-3.812q0-1.7.844-2.86c.57-.781 1.375-1.172 2.406-1.172q.575.001 1.015.172c.477.211.868.578 1.172 1.11v-1.094H7.86v7.265q-.001 1.484-.5 2.235Q6.5 3.14 4.063 3.14c-.981 0-1.778-.196-2.391-.578Q.746 1.982.64.843h2.187q.076.341.266.5M2.766-2.61c.27.648.754.968 1.453.968q.701.001 1.187-.53c.32-.352.485-.915.485-1.688q0-1.093-.47-1.657c-.304-.382-.71-.578-1.218-.578-.71 0-1.195.336-1.453 1q-.22.517-.219 1.297 0 .659.235 1.188m0 0"/><path id="Y" d="M3.078 0H1.063v-10.36h3.14l1.89 8.141 1.876-8.14h3.11V0H9.061v-7.844c.008-.363.016-.644.016-.843L7.11 0H5.016L3.063-8.687v.843c.007.356.015.637.015.844Zm0 0"/><path id="Z" d="M7.328-6.687q.968 1.22.969 2.875 0 1.688-.969 2.89Q6.355.267 4.375.266q-1.97 0-2.937-1.188-.972-1.201-.97-2.89-.002-1.655.97-2.875.968-1.22 2.937-1.22 1.98 0 2.953 1.22m-2.953.468q-.88.002-1.36.625-.468.627-.468 1.782 0 1.16.469 1.78.48.627 1.359.626.874.001 1.344-.625.468-.621.468-1.781 0-1.155-.468-1.782-.47-.623-1.344-.625m0 0"/><path id="aa" d="M7.906-10.344V0H5.953v-1.062q-.422.689-.969 1-.55.294-1.359.296-1.346 0-2.266-1.078C.742-1.57.438-2.5.438-3.625q-.001-1.968.906-3.094.903-1.125 2.422-1.125.685.001 1.218.313.545.299.891.843v-3.656ZM2.516-3.78q0 1.065.422 1.687c.269.43.687.64 1.25.64q.856.002 1.296-.624.453-.64.454-1.64c0-.938-.243-1.61-.72-2.016a1.57 1.57 0 0 0-1.015-.36c-.586 0-1.012.227-1.281.672-.274.438-.406.984-.406 1.64m0 0"/><clipPath id="q"><path d="M224 242h72v70.363h-72Zm0 0"/></clipPath><clipPath id="ab"><path d="M192 205h129v46H192Zm0 0"/></clipPath><clipPath id="ai"><path d="M192 154h129v57H192Zm0 0"/></clipPath><clipPath id="ao"><path d="M197 126h124v36H197Zm0 0"/></clipPath></defs><path fill="none" stroke="#000" stroke-miterlimit="10" stroke-width=".72" d="M44.262 91.766h7.414q7.2 0 12.18-.121l4.972-.125"/><path stroke="#000" stroke-miterlimit="10" stroke-width=".72" d="m72.605 91.426-4.972 2.644 1.195-2.55-1.316-2.489Zm0 0"/><path fill="#FFF" d="M47.504 86.367h17.992v10.797H47.504Zm0 0"/><path fill="none" stroke="#E6E6E6" stroke-width=".72" d="M47.863 86.727h17.274v10.078H47.863Zm0 0"/><use xlink:href="#a" x="47.918" y="94.285"/><use xlink:href="#b" x="52.321" y="94.285"/><use xlink:href="#c" x="56.724" y="94.285"/><use xlink:href="#d" x="61.128" y="94.285"/><path fill="none" stroke="#300" stroke-miterlimit="10" stroke-width=".72" d="M80.25 84.57V26.988q-.002-7.195 7.2-7.195h165.534q7.2-.002 7.2 5.27v5.257"/><path fill="#300" stroke="#300" stroke-miterlimit="10" stroke-width=".72" d="m260.184 34.102-2.52-5.04 2.52 1.258 2.52-1.257Zm0 0"/><path fill="#0D0" d="M86.727 91.047q0 .675-.13 1.332-.133.66-.39 1.285a6.7 6.7 0 0 1-.633 1.18 6.8 6.8 0 0 1-1.886 1.886q-.558.375-1.18.633-.622.257-1.285.39a6.9 6.9 0 0 1-3.95-.39 6.7 6.7 0 0 1-2.219-1.484 6.8 6.8 0 0 1-1.87-3.5 7 7 0 0 1-.133-1.332q.002-.675.133-1.336a7 7 0 0 1 1.02-2.465 7 7 0 0 1 1.886-1.887q.563-.37 1.183-.629a6.7 6.7 0 0 1 1.282-.39 7 7 0 0 1 1.336-.133 6.9 6.9 0 0 1 2.617.523q.622.259 1.18.63.56.376 1.039.85a6.9 6.9 0 0 1 1.871 3.5q.129.663.129 1.337m0 0"/><path fill="none" stroke="#FFF" stroke-miterlimit="10" stroke-width=".273" d="M79.89 86.945v8.203m-4.1-4.101h8.202"/><path fill="none" stroke="#000" stroke-miterlimit="10" stroke-width=".72" d="M48.379 162.516H73.05q7.2 0 7.199-7.2v-52.488"/><path stroke="#000" stroke-miterlimit="10" stroke-width=".72" d="m80.25 99.05 2.52 5.036-2.52-1.258-2.52 1.258Zm0 0"/><path fill="#FFF" d="M68.375 146.105h17.992v10.797H68.375Zm0 0"/><path fill="none" stroke="#E6E6E6" stroke-width=".72" d="M68.734 146.465h17.274v10.078H68.734Zm0 0"/><use xlink:href="#b" x="68.791" y="154.022"/><use xlink:href="#e" x="73.194" y="154.022"/><use xlink:href="#e" x="77.597" y="154.022"/><use xlink:href="#d" x="82" y="154.022"/><path fill="#BAC8D3" stroke="#23445D" stroke-miterlimit="10" stroke-width=".72" d="M1.078 71.41c0-2.668 9.668-4.836 21.594-4.836 5.73 0 11.219.512 15.266 1.418 4.05.906 6.324 2.137 6.324 3.418v40.711c0 2.668-9.664 4.836-21.59 4.836s-21.594-2.168-21.594-4.836Zm0 0"/><path fill="none" stroke="#23445D" stroke-miterlimit="10" stroke-width=".72" d="M44.262 71.41c0 2.672-9.664 4.84-21.59 4.84S1.078 74.082 1.078 71.41"/><use xlink:href="#f" x="11.752" y="88.527"/><use xlink:href="#g" x="19.904" y="88.527"/><use xlink:href="#h" x="25.664" y="88.527"/><use xlink:href="#i" x="7.422" y="98.603"/><use xlink:href="#j" x="13.659" y="98.603"/><use xlink:href="#k" x="18.463" y="98.603"/><use xlink:href="#j" x="20.862" y="98.603"/><use xlink:href="#l" x="25.666" y="98.603"/><use xlink:href="#m" x="29.984" y="98.603"/><use xlink:href="#k" x="34.787" y="98.603"/><use xlink:href="#n" x="12.944" y="109.399"/><use xlink:href="#n" x="17.747" y="109.399"/><use xlink:href="#o" x="22.551" y="109.399"/><use xlink:href="#p" x="27.354" y="109.399"/><path fill="none" stroke="#000" stroke-miterlimit="10" stroke-width=".72" d="M260.184 240.39v7.196q0 7.2 0 0v-4.855 4.949"/><path stroke="#000" stroke-miterlimit="10" stroke-width=".72" d="m260.184 251.461-2.52-5.04 2.52 1.259 2.52-1.258Zm0 0"/><path fill="#BAC8D3" d="M234.992 257.102c0-2.668 11.278-4.836 25.192-4.836 6.68 0 13.082.511 17.812 1.418 4.723.906 7.379 2.136 7.379 3.418v49.343c0 1.282-2.656 2.512-7.379 3.422-4.73.906-11.133 1.418-17.812 1.418s-13.086-.512-17.813-1.418c-4.723-.91-7.379-2.14-7.379-3.422Zm0 0"/><g clip-path="url(#q)"><path fill="none" stroke="#23445D" stroke-miterlimit="10" stroke-width=".72" d="M234.992 257.102c0-2.668 11.278-4.836 25.192-4.836 6.68 0 13.082.511 17.812 1.418 4.723.906 7.38 2.136 7.38 3.418v49.343c0 1.282-2.657 2.512-7.38 3.422-4.73.906-11.133 1.418-17.812 1.418s-13.086-.512-17.813-1.418c-4.723-.91-7.379-2.14-7.379-3.422Zm0 0"/></g><path fill="none" stroke="#23445D" stroke-miterlimit="10" stroke-width=".72" d="M285.375 257.102c0 1.289-2.656 2.511-7.379 3.425-4.73.907-11.133 1.41-17.812 1.41s-13.086-.503-17.813-1.41c-4.723-.914-7.379-2.136-7.379-3.425"/><use xlink:href="#i" x="236.533" y="273.498"/><use xlink:href="#j" x="242.77" y="273.498"/><use xlink:href="#k" x="247.573" y="273.498"/><use xlink:href="#j" x="249.973" y="273.498"/><use xlink:href="#r" x="254.776" y="273.498"/><use xlink:href="#j" x="259.58" y="273.498"/><use xlink:href="#l" x="264.383" y="273.498"/><use xlink:href="#m" x="268.701" y="273.498"/><use xlink:href="#s" x="273.505" y="273.498"/><use xlink:href="#t" x="275.904" y="273.498"/><use xlink:href="#u" x="280.708" y="273.498"/><use xlink:href="#i" x="248.543" y="283.574"/><use xlink:href="#v" x="254.781" y="283.574"/><use xlink:href="#w" x="260.056" y="283.574"/><use xlink:href="#x" x="265.817" y="283.574"/><use xlink:href="#y" x="241.582" y="294.37"/><use xlink:href="#z" x="243.982" y="294.37"/><use xlink:href="#A" x="248.785" y="294.37"/><use xlink:href="#m" x="250.704" y="294.37"/><use xlink:href="#B" x="255.507" y="294.37"/><use xlink:href="#m" x="257.426" y="294.37"/><use xlink:href="#C" x="262.229" y="294.37"/><use xlink:href="#k" x="266.548" y="294.37"/><use xlink:href="#D" x="268.947" y="294.37"/><use xlink:href="#A" x="271.824" y="294.37"/><use xlink:href="#C" x="273.742" y="294.37"/><use xlink:href="#E" x="240.615" y="304.446"/><use xlink:href="#D" x="245.418" y="304.446"/><use xlink:href="#t" x="248.294" y="304.446"/><use xlink:href="#E" x="253.098" y="304.446"/><use xlink:href="#m" x="257.901" y="304.446"/><use xlink:href="#D" x="262.705" y="304.446"/><use xlink:href="#k" x="265.581" y="304.446"/><use xlink:href="#A" x="267.98" y="304.446"/><use xlink:href="#m" x="269.899" y="304.446"/><use xlink:href="#l" x="274.702" y="304.446"/><path fill="#DAE8FC" stroke="#6C8EBF" stroke-miterlimit="10" stroke-width=".72" d="m120.555 221.348 46.78 14.394v25.188l-46.78 14.394Zm0 0"/><path fill="#DAE8FC" stroke="#6C8EBF" stroke-miterlimit="10" stroke-width=".72" d="m117.676 224.227 46.781 14.394v25.188l-46.781 14.394Zm0 0"/><path fill="#DAE8FC" stroke="#6C8EBF" stroke-miterlimit="10" stroke-width=".72" d="m114.797 227.105 46.781 14.395v25.188l-46.781 14.394Zm0 0"/><path fill="#DAE8FC" stroke="#6C8EBF" stroke-miterlimit="10" stroke-width=".72" d="m111.918 229.984 46.781 14.395v25.187l-46.781 14.395Zm0 0"/><path fill="#DAE8FC" stroke="#6C8EBF" stroke-miterlimit="10" stroke-width=".72" d="m109.039 232.863 46.781 14.395v25.187l-46.78 14.395Zm0 0"/><path stroke="#000" stroke-opacity=".128" stroke-width=".12" d="M118.918 258.574q-.796 0-1.348-.531c-.367-.355-.55-.805-.558-1.355q.001-.897.476-1.512.352-.457.88-.754a2.9 2.9 0 0 1 1.163-.348 6 6 0 0 1 .426-.008h.39q.153.05.153.204 0 .264-.418.265h-.297q-1.235 0-1.613 1.102l-.04.12h1.805q.134.093.133.196.001.183-.203.274h-1.855v.02q-.103.307-.102.757-.001.675.324.926c.22.172.461.257.727.265q.275-.001.539-.101.265-.101.43-.215.159-.11.172-.11.07-.002.113.102.04.102.039.192-.001.03-.008.042a1 1 0 0 1-.207.141q-.17.104-.488.215-.317.112-.633.113Zm0 0"/><path stroke="#000" stroke-opacity=".09" stroke-width=".12" d="M121.477 258.426q0-.633.406-1.125a1.28 1.28 0 0 1 1.031-.496q.632-.001 1.188.437.273.229.535.563l.101.136.051-.07q.75-1.065 1.68-1.066.62.001 1.015.488c.266.328.399.71.403 1.156q.001.62-.395 1.117a1.3 1.3 0 0 1-1.054.504c-.415 0-.805-.144-1.176-.441a3.4 3.4 0 0 1-.532-.563l-.101-.136-.05.074q-.75 1.066-1.68 1.066-.623-.001-1.016-.488a1.8 1.8 0 0 1-.406-1.156Zm6.144 0q0-.491-.273-.895a.88.88 0 0 0-.778-.402 1.24 1.24 0 0 0-.57.137q-.129.066-.246.136a1 1 0 0 0-.211.172q-.093.105-.18.18a.7.7 0 0 0-.144.183q-.059.1-.106.157a.5.5 0 0 0-.082.125l-.035.054.223.29q.223.286.347.433t.301.316q.181.176.363.239t.368.074a.91.91 0 0 0 .734-.355q.288-.352.29-.844Zm-5.879.023q0 .499.281.899.283.405.782.406c.566 0 1.09-.387 1.562-1.156l-.222-.286q-.44-.573-.657-.75-.351-.311-.726-.312-.45-.001-.73.355a1.36 1.36 0 0 0-.29.844Zm0 0"/><use xlink:href="#F" x="128.641" y="258.383"/><use xlink:href="#G" x="130.64" y="258.383"/><use xlink:href="#H" x="137.307" y="258.383"/><use xlink:href="#I" x="139.704" y="258.383"/><use xlink:href="#J" x="143.706" y="258.383"/><use xlink:href="#I" x="116.461" y="267.74"/><use xlink:href="#J" x="120.464" y="267.74"/><use xlink:href="#K" x="124.467" y="267.74"/><use xlink:href="#I" x="128.066" y="267.74"/><use xlink:href="#L" x="132.069" y="267.74"/><use xlink:href="#M" x="138.064" y="267.74"/><use xlink:href="#N" x="142.067" y="267.74"/><use xlink:href="#I" x="143.666" y="267.74"/><path fill="#E1D5E7" stroke="#9673A6" stroke-miterlimit="10" stroke-width=".72" d="m120.555 155.852 46.78 14.394v25.192l-46.78 14.394Zm0 0"/><path fill="#E1D5E7" stroke="#9673A6" stroke-miterlimit="10" stroke-width=".72" d="m117.676 158.73 46.781 14.395v25.191l-46.781 14.395Zm0 0"/><path fill="#E1D5E7" stroke="#9673A6" stroke-miterlimit="10" stroke-width=".72" d="m114.797 161.61 46.781 14.394v25.191l-46.781 14.395Zm0 0"/><path fill="#E1D5E7" stroke="#9673A6" stroke-miterlimit="10" stroke-width=".72" d="m111.918 164.488 46.781 14.395v25.191l-46.781 14.395Zm0 0"/><path fill="#E1D5E7" stroke="#9673A6" stroke-miterlimit="10" stroke-width=".72" d="m109.039 167.367 46.781 14.395v25.191l-46.781 14.395Zm0 0"/><path stroke="#000" stroke-opacity=".128" stroke-width=".12" d="M120.355 193.086c-.53 0-.98-.18-1.351-.531q-.552-.534-.559-1.36 0-.896.48-1.511.347-.46.876-.754c.355-.2.742-.313 1.164-.348q.02-.012.43-.012h.386q.158.051.156.207 0 .265-.421.266h-.293q-1.238 0-1.614 1.102l-.043.12h1.809q.134.093.133.196c0 .121-.07.215-.203.273h-1.86v.024a2.3 2.3 0 0 0-.101.754q.002.673.324.93.327.252.727.265.274 0 .542-.102.263-.104.426-.214.164-.113.176-.114.072.001.11.102.041.103.042.195 0 .031-.011.04a.8.8 0 0 1-.203.144c-.118.066-.278.14-.489.215q-.316.112-.633.113Zm0 0"/><path stroke="#000" stroke-opacity=".09" stroke-width=".12" d="M123.21 190.281q.404-.585 1.106-.586.345 0 .692.188.346.188.562.664.27.599.27 1.648-.001 1.12-.313 1.711c-.093.2-.226.364-.394.48a1.4 1.4 0 0 1-.442.227q-.19.04-.367.051-.188-.001-.375-.043a1.3 1.3 0 0 1-.441-.234 1.3 1.3 0 0 1-.399-.48q-.31-.593-.308-1.712 0-1.259.41-1.914Zm1.626-.086a.67.67 0 0 0-.512-.23.68.68 0 0 0-.52.23.94.94 0 0 0-.238.52q-.058.33-.058 1.387 0 1.135.058 1.5c.036.242.125.43.258.57q.203.216.5.215.289.001.489-.215.21-.218.261-.606.047-.392.059-1.464 0-1.05-.059-1.38a1 1 0 0 0-.238-.527Zm0 0"/><use xlink:href="#F" x="126.83" y="192.888"/><use xlink:href="#G" x="128.83" y="192.888"/><use xlink:href="#H" x="135.496" y="192.888"/><use xlink:href="#I" x="137.893" y="192.888"/><use xlink:href="#J" x="141.896" y="192.888"/><use xlink:href="#I" x="116.461" y="202.244"/><use xlink:href="#J" x="120.464" y="202.244"/><use xlink:href="#K" x="124.467" y="202.244"/><use xlink:href="#I" x="128.066" y="202.244"/><use xlink:href="#L" x="132.069" y="202.244"/><use xlink:href="#M" x="138.064" y="202.244"/><use xlink:href="#N" x="142.067" y="202.244"/><use xlink:href="#I" x="143.666" y="202.244"/><path fill="none" stroke="#300" stroke-miterlimit="10" stroke-width=".72" d="M47.863 178.133h23.75q7.196-.001 7.196 7.2v67.292q.002 7.197 7.199 7.203l18.445.016"/><path fill="#300" stroke="#300" stroke-miterlimit="10" stroke-width=".72" d="m108.234 259.852-5.039 2.511 1.258-2.52-1.25-2.519Zm0 0"/><path fill="#BAC8D3" stroke="#23445D" stroke-miterlimit="10" stroke-width=".72" d="M4.68 147.703c0-2.672 9.664-4.836 21.59-4.836 5.73 0 11.222.512 15.265 1.418 4.05.906 6.328 2.137 6.328 3.418v40.707c0 2.672-9.668 4.836-21.593 4.836s-21.59-2.164-21.59-4.836Zm0 0"/><path fill="none" stroke="#23445D" stroke-miterlimit="10" stroke-width=".72" d="M47.863 147.703c0 2.672-9.668 4.836-21.593 4.836s-21.59-2.164-21.59-4.836"/><use xlink:href="#h" x="8.389" y="164.818"/><use xlink:href="#j" x="15.584" y="164.818"/><use xlink:href="#k" x="20.387" y="164.818"/><use xlink:href="#m" x="22.787" y="164.818"/><use xlink:href="#D" x="27.59" y="164.818"/><use xlink:href="#A" x="30.466" y="164.818"/><use xlink:href="#j" x="32.385" y="164.818"/><use xlink:href="#B" x="37.188" y="164.818"/><use xlink:href="#l" x="39.107" y="164.818"/><use xlink:href="#w" x="12.46" y="174.895"/><use xlink:href="#D" x="18.221" y="174.895"/><use xlink:href="#t" x="21.097" y="174.895"/><use xlink:href="#O" x="25.9" y="174.895"/><use xlink:href="#m" x="27.819" y="174.895"/><use xlink:href="#C" x="32.623" y="174.895"/><use xlink:href="#k" x="36.941" y="174.895"/><use xlink:href="#P" x="16.543" y="185.691"/><use xlink:href="#n" x="21.346" y="185.691"/><use xlink:href="#o" x="26.149" y="185.691"/><use xlink:href="#p" x="30.953" y="185.691"/><use xlink:href="#Q" x="119.655" y="13.675"/><use xlink:href="#R" x="129.256" y="13.675"/><use xlink:href="#S" x="137.262" y="13.675"/><use xlink:href="#T" x="142.864" y="13.675"/><use xlink:href="#T" x="150.869" y="13.675"/><use xlink:href="#U" x="158.875" y="13.675"/><use xlink:href="#V" x="167.668" y="13.675"/><use xlink:href="#U" x="171.667" y="13.675"/><use xlink:href="#W" x="180.46" y="13.675"/><use xlink:href="#X" x="189.253" y="13.675"/><use xlink:href="#Y" x="193.252" y="13.675"/><use xlink:href="#Z" x="205.243" y="13.675"/><use xlink:href="#aa" x="214.036" y="13.675"/><use xlink:href="#T" x="222.828" y="13.675"/><path fill="#FFE6CC" d="m317.762 215.2-14.395 25.19H217l-14.395-25.19Zm0 0"/><g clip-path="url(#ab)"><path fill="none" stroke="#D79B00" stroke-miterlimit="10" stroke-width=".72" d="m317.762 215.2-14.395 25.19H217l-14.395-25.19Zm0 0"/></g><use xlink:href="#ac" x="210.69" y="225.276"/><use xlink:href="#A" x="216.927" y="225.276"/><use xlink:href="#ad" x="218.846" y="225.276"/><use xlink:href="#ae" x="223.649" y="225.276"/><use xlink:href="#af" x="228.453" y="225.276"/><use xlink:href="#k" x="231.329" y="225.276"/><use xlink:href="#ae" x="233.728" y="225.276"/><use xlink:href="#D" x="238.532" y="225.276"/><use xlink:href="#t" x="241.408" y="225.276"/><use xlink:href="#ag" x="246.211" y="225.276"/><use xlink:href="#ad" x="251.015" y="225.276"/><use xlink:href="#ae" x="255.818" y="225.276"/><use xlink:href="#E" x="260.621" y="225.276"/><use xlink:href="#ag" x="265.425" y="225.276"/><use xlink:href="#k" x="270.228" y="225.276"/><use xlink:href="#s" x="272.628" y="225.276"/><use xlink:href="#i" x="275.027" y="225.276"/><use xlink:href="#v" x="281.264" y="225.276"/><use xlink:href="#w" x="286.54" y="225.276"/><use xlink:href="#x" x="292.301" y="225.276"/><use xlink:href="#s" x="297.425" y="225.276"/><use xlink:href="#j" x="299.824" y="225.276"/><use xlink:href="#l" x="304.627" y="225.276"/><use xlink:href="#D" x="227.66" y="236.072"/><use xlink:href="#m" x="230.536" y="236.072"/><use xlink:href="#l" x="235.339" y="236.072"/><use xlink:href="#t" x="239.658" y="236.072"/><use xlink:href="#ag" x="244.461" y="236.072"/><use xlink:href="#D" x="249.264" y="236.072"/><use xlink:href="#C" x="252.141" y="236.072"/><use xlink:href="#m" x="256.459" y="236.072"/><use xlink:href="#l" x="261.262" y="236.072"/><use xlink:href="#s" x="265.581" y="236.072"/><use xlink:href="#E" x="267.98" y="236.072"/><use xlink:href="#m" x="272.784" y="236.072"/><use xlink:href="#D" x="277.587" y="236.072"/><use xlink:href="#ah" x="280.463" y="236.072"/><use xlink:href="#A" x="287.658" y="236.072"/><use xlink:href="#k" x="289.576" y="236.072"/><path fill="#FFE6CC" d="m317.762 164.457-14.395 35.988H217l-14.395-35.988Zm0 0"/><g clip-path="url(#ai)"><path fill="none" stroke="#D79B00" stroke-miterlimit="10" stroke-width=".72" d="m317.762 164.457-14.395 35.988H217l-14.395-35.988Zm0 0"/></g><use xlink:href="#aj" x="217.572" y="174.895"/><use xlink:href="#j" x="223.81" y="174.895"/><use xlink:href="#ak" x="228.613" y="174.895"/><use xlink:href="#p" x="233.416" y="174.895"/><use xlink:href="#s" x="237.735" y="174.895"/><use xlink:href="#r" x="240.134" y="174.895"/><use xlink:href="#al" x="244.938" y="174.895"/><use xlink:href="#s" x="249.256" y="174.895"/><use xlink:href="#h" x="251.656" y="174.895"/><use xlink:href="#am" x="258.85" y="174.895"/><use xlink:href="#af" x="263.653" y="174.895"/><use xlink:href="#E" x="266.53" y="174.895"/><use xlink:href="#D" x="271.333" y="174.895"/><use xlink:href="#m" x="274.209" y="174.895"/><use xlink:href="#z" x="279.012" y="174.895"/><use xlink:href="#A" x="283.816" y="174.895"/><use xlink:href="#C" x="285.735" y="174.895"/><use xlink:href="#k" x="290.053" y="174.895"/><use xlink:href="#m" x="292.453" y="174.895"/><use xlink:href="#z" x="297.256" y="174.895"/><use xlink:href="#an" x="233.418" y="184.971"/><use xlink:href="#ad" x="237.736" y="184.971"/><use xlink:href="#ag" x="242.539" y="184.971"/><use xlink:href="#D" x="247.343" y="184.971"/><use xlink:href="#m" x="250.219" y="184.971"/><use xlink:href="#s" x="255.022" y="184.971"/><use xlink:href="#t" x="257.422" y="184.971"/><use xlink:href="#u" x="262.225" y="184.971"/><use xlink:href="#s" x="264.625" y="184.971"/><use xlink:href="#ah" x="267.024" y="184.971"/><use xlink:href="#m" x="274.219" y="184.971"/><use xlink:href="#D" x="279.022" y="184.971"/><use xlink:href="#A" x="281.898" y="184.971"/><use xlink:href="#k" x="283.817" y="184.971"/><path stroke="#000" stroke-opacity=".128" stroke-width=".12" d="M225.59 189.191q-.017-.007-.05-.03a.1.1 0 0 1-.04-.04q-.01-.019-.062-.02a.3.3 0 0 1-.114-.03.26.26 0 0 0-.16-.012.6.6 0 0 1-.246-.008 1.2 1.2 0 0 0-.36-.012h-.273v-.469h.121q.247.031 1.684.032 1.44-.001 1.687-.032h.121v.47h-.273q-.44 0-.656.019a1 1 0 0 0-.254.043.4.4 0 0 0-.113.09v.91l.144.02q1.02.123 1.734.663.715.544.715 1.27 0 .414-.234.765-.234.344-.602.59-.369.245-.785.38a6 6 0 0 1-.828.202l-.144.024v.906q.063.064.101.082.041.023.266.05c.152.024.37.028.656.024h.273v.469h-.12q-.247-.03-1.688-.031-1.437 0-1.684.03h-.12v-.468h.62c.098 0 .18-.004.258-.012q.112-.01.16-.011a.25.25 0 0 0 .114-.028c.042-.023.062-.03.062-.03q-.001-.002.04-.032a.2.2 0 0 0 .05-.043v-.906h-.02a1 1 0 0 0-.215-.032 4.4 4.4 0 0 1-1.316-.43 6 6 0 0 1-.246-.152 3 3 0 0 1-.336-.289 1.7 1.7 0 0 1-.348-.468 1.14 1.14 0 0 1-.132-.59q.001-.739.734-1.278a3.4 3.4 0 0 1 1.695-.644q.153-.022.164-.031h.02Zm-1.45 2.864q-.001 1.377 1.4 1.57h.05v-3.137h-.027q-.083.001-.278.043a2 2 0 0 0-.52.223 1.07 1.07 0 0 0-.46.473q-.165.346-.164.828Zm2.505 1.57q.733-.112 1.062-.488.323-.38.324-1.082c0-.29-.039-.532-.12-.739a1.03 1.03 0 0 0-.329-.457 1.7 1.7 0 0 0-.375-.226 1.6 1.6 0 0 0-.371-.102q-.192-.03-.191-.043h-.051v3.137Zm0 0"/><path stroke="#000" stroke-opacity=".09" stroke-width=".12" d="M231.07 192.586a.5.5 0 0 0-.078-.063.3.3 0 0 0-.117-.023l-.312-.023h-.239v-.332h.766q.62 0 .703.007c.05.004.094.024.121.051q.007.007.758 2l.754 1.98.75-1.98q.75-1.993.765-2c.016-.027.051-.047.11-.05.054-.005.293-.008.707-.008h.765v.332h-.238a5 5 0 0 0-.37.023.2.2 0 0 0-.13.086v4.05c.031.052.07.079.125.09q.076.013.375.02h.238v.332h-.082c-.097-.015-.437-.02-1.007-.02q-.95-.001-1.012.02h-.082v-.332h.238q.306-.007.371-.02a.3.3 0 0 0 .137-.09v-3.984l-.008-.136c-1.121 2.972-1.691 4.48-1.71 4.511-.02.032-.067.043-.145.043s-.125-.011-.145-.043c-.004-.007-.289-.754-.851-2.23l-.84-2.227v.133q-.007.13-.008.453v1.352l.008 1.949q.08.262.613.29h.125v.331h-.066q-.106-.021-.829-.02-.737-.001-.847.02h-.059v-.332h.125c.153-.008.278-.035.375-.07a.5.5 0 0 0 .172-.094q.029-.038.074-.125Zm0 0"/><path stroke="#000" stroke-opacity=".128" stroke-width=".12" d="M240.66 192q-.001-.13.145-.203h6.508q.152.084.152.203c0 .078-.047.14-.145.195l-3.246.012h-3.25q-.165-.051-.164-.207Zm0 1.984q0-.153.164-.207h6.496q.146.103.145.207c0 .086-.05.157-.152.203h-6.508c-.098-.046-.145-.117-.145-.203Zm12.531 1.676c-.53 0-.98-.18-1.347-.531q-.55-.534-.563-1.36 0-.902.48-1.511a2.8 2.8 0 0 1 .88-.758 2.9 2.9 0 0 1 1.164-.348q.02-.007.43-.007h.386q.157.051.156.203 0 .264-.422.265h-.292q-1.237-.001-1.618 1.106l-.039.12h1.809c.086.063.133.126.133.196q0 .18-.207.274h-1.856v.02q-.105.307-.105.757 0 .673.328.93.328.252.726.265.276-.001.54-.101c.18-.07.32-.14.43-.215q.163-.112.175-.113.07.001.11.101.041.104.042.195 0 .032-.011.04a.8.8 0 0 1-.204.144q-.175.1-.492.215-.316.112-.633.113Zm0 0"/><path stroke="#000" stroke-opacity=".09" stroke-width=".12" d="M255.555 194.031q.38-.03.59-.406.211-.375.23-.879v-.11h.29v1.329h.976v.332h-.977v1.043c.008.601.008.941.008 1.015q-.001.12.05.23.102.284.356.286.316 0 .39-.516.006-.057.005-.332v-.253h.289v.34q-.001.555-.301.847a.7.7 0 0 1-.508.195 1 1 0 0 1-.426-.09.63.63 0 0 1-.273-.222 1 1 0 0 1-.137-.254.7.7 0 0 1-.05-.23 31 31 0 0 1-.008-1.067v-.992h-.57v-.266Zm2.816 1.5q0-.685.469-1.183a1.52 1.52 0 0 1 1.133-.504q.65 0 1.12.492.468.488.477 1.191 0 .684-.465 1.153a1.52 1.52 0 0 1-1.132.472 1.5 1.5 0 0 1-1.149-.484 1.66 1.66 0 0 1-.453-1.137Zm1.602 1.332q.88 0 .882-1.18v-.41a5 5 0 0 0-.007-.273 1.5 1.5 0 0 0-.051-.277.8.8 0 0 0-.117-.258.8.8 0 0 0-.223-.203 1.1 1.1 0 0 0-.355-.145 1 1 0 0 0-.114-.008c-.144 0-.281.032-.414.086-.207.11-.34.254-.402.442q-.094.282-.094.664v.144q.001.697.137.977.229.44.758.441Zm2-2.832q.384-.03.593-.406c.141-.25.215-.543.23-.879v-.11h.29v1.329h.976v.332h-.976v1.043l.008 1.015q-.001.12.05.23.1.284.352.286.322 0 .39-.516a5 5 0 0 0 .009-.332v-.253h.289v.34q0 .555-.305.847a.68.68 0 0 1-.504.195 1 1 0 0 1-.426-.09.63.63 0 0 1-.273-.222 1.3 1.3 0 0 1-.14-.254 1 1 0 0 1-.052-.23c-.004-.032-.004-.391-.004-1.067v-.992h-.57v-.266Zm3.605.844h-.16a.36.36 0 0 1-.266-.105.38.38 0 0 1-.109-.286q0-.252.246-.445c.164-.133.453-.195.875-.195.352 0 .633.078.852.23q.321.229.433.551.036.099.035.223-.002.124.008.828v.508q0 .346.035.476t.153.13q.106-.001.144-.114a1.5 1.5 0 0 0 .035-.383v-.262h.29v.282a2 2 0 0 1-.024.34.6.6 0 0 1-.25.34.75.75 0 0 1-.398.128.43.43 0 0 1-.34-.129.66.66 0 0 1-.172-.304v-.028l-.016.02a.2.2 0 0 1-.035.047c-.016.011-.035.035-.059.062-.023.031-.054.055-.085.082a1 1 0 0 0-.11.086.5.5 0 0 1-.129.078q-.073.03-.16.059c-.058.02-.121.031-.187.043a1.42 1.42 0 0 1-1.004-.203.71.71 0 0 1-.348-.63.9.9 0 0 1 .05-.288q.054-.135.196-.293c.098-.11.211-.196.348-.27.133-.07.324-.14.562-.203q.363-.094.797-.105h.098v-.16q.002-.248-.043-.36-.16-.516-.7-.516-.128.001-.245.008a.6.6 0 0 0-.18.031.2.2 0 0 0-.059.02q.16.112.16.316 0 .18-.117.286Zm-.082 1.438a.55.55 0 0 0 .176.398.6.6 0 0 0 .426.18.77.77 0 0 0 .484-.164.8.8 0 0 0 .281-.434q.013-.053.02-.477.001-.42-.004-.421-.06 0-.152.007a2 2 0 0 0-.325.067 2.3 2.3 0 0 0-.422.144.9.9 0 0 0-.332.266.75.75 0 0 0-.152.434Zm3.008.433h.098c.191 0 .3-.035.34-.101v-.461q0-.14.007-.313a6 6 0 0 0 0-.36 7 7 0 0 1 0-.398 7 7 0 0 0 0-.41v-1.539c0-.125 0-.23-.008-.316a.5.5 0 0 1 0-.125c-.011-.09-.046-.153-.101-.18q-.077-.041-.324-.066h-.13v-.164q0-.166.016-.168l.07-.004q.072-.011.212-.016c.09-.004.18-.012.265-.016q.123-.005.27-.015a2 2 0 0 0 .215-.02q.07-.014.078-.008h.023v2.274q.001 2.292.008 2.305a.16.16 0 0 0 .086.082q.151.018.355.02h.114v.331h-.059l-.164-.008q-.168-.006-.355-.007-.187.001-.274-.004a1.6 1.6 0 0 0-.273 0l-.364.011-.164.008h-.058v-.332Zm0 0"/><path stroke="#000" stroke-opacity=".128" stroke-width=".12" d="M273.785 192.992q0-.244.176-.43a.58.58 0 0 1 .437-.183q.248 0 .43.164.183.164.195.437 0 .258-.175.442a.58.58 0 0 1-.438.183.6.6 0 0 1-.441-.171.66.66 0 0 1-.184-.442Zm9.34.379q-.204.001-.203-.133 0-.041.05-.246a1.7 1.7 0 0 0 .051-.355c0-.211-.074-.344-.214-.39-.145-.048-.473-.071-.993-.071h-.53c-.009.011-.126.484-.356 1.41-.235.926-.348 1.402-.348 1.43q-.002.04.113.039c.075 0 .344.007.817.023q.96 0 1.265-.023.306-.017.614-.133c.332-.11.609-.297.828-.57q.327-.41.722-1.34.105-.224.133-.242a.5.5 0 0 1 .156-.024c.133 0 .204.047.204.133q-1.072 2.595-1.125 2.648-.03.019-2.922.02h-1.93q-1.043-.002-1.043-.113c0-.012.012-.063.031-.141q.042-.165.082-.188a1 1 0 0 1 .235-.027c.183 0 .39-.012.613-.031.098-.02.16-.063.195-.125q.018-.048.727-2.867.703-2.823.715-2.864-.001-.07-.043-.07-.082-.032-.54-.05h-.32q-.058-.065-.058-.083.001-.018.02-.172.042-.175.1-.214h5.661q.07.04.07.109 0 .054-.132 1.144c-.086.73-.137 1.106-.141 1.125-.016.047-.082.07-.207.07h-.121a.15.15 0 0 1-.07-.132l.027-.234q.033-.245.031-.532 0-.306-.07-.511a.8.8 0 0 0-.196-.317.8.8 0 0 0-.355-.164 5 5 0 0 0-.48-.07 9 9 0 0 0-.653-.02h-.48c-.602.008-.918.016-.953.032q-.042.018-.059.09-.012.033-.316 1.257-.31 1.228-.317 1.246.235.012.488.012h.266q.673.001.93-.156.257-.152.46-.824a1 1 0 0 1 .06-.188.5.5 0 0 1 .175-.027h.082q.029.001.05.008l.02.011q.001-.001.02.04c.016.027.023.042.031.042l-.336 1.348q-.338 1.36-.367 1.379-.03.03-.164.031Zm0 0"/><path stroke="#000" stroke-opacity=".09" stroke-width=".12" d="M288.352 194.125a1 1 0 0 1 .722-.316q.216-.002.309.136a.5.5 0 0 1 .094.274c0 .066-.02.129-.063.18a.24.24 0 0 1-.195.081q-.24-.001-.27-.218-.012-.1.024-.153-.002-.006.007-.02v-.007a.74.74 0 0 0-.382.16q-.06.036-.059.047 0 .011.027.04a.4.4 0 0 1 .067.085q.035.06.078.129c.031.05.05.113.066.187q.023.117.028.239 0 .448-.352.758a1.3 1.3 0 0 1-.875.32q-.363-.002-.715-.203a.5.5 0 0 0-.078.273q0 .252.188.375a.2.2 0 0 0 .12.043l.52.016c.407.004.664.02.782.043q.439.066.69.297a.96.96 0 0 1 .282.707c0 .324-.187.57-.562.746q-.434.222-1.024.222-.602 0-1.035-.222-.562-.253-.562-.723 0-.263.152-.434a.86.86 0 0 1 .305-.238l.078-.043a.77.77 0 0 1-.262-.61c0-.222.07-.429.211-.612q-.316-.317-.316-.715c0-.301.117-.559.359-.766s.531-.312.875-.316q.368 0 .684.187Zm-.22.477a.47.47 0 0 0-.187-.317.63.63 0 0 0-.375-.125q-.208 0-.36.117a.5.5 0 0 0-.187.325 2 2 0 0 0-.023.367q0 .322.05.469a.48.48 0 0 0 .216.253.6.6 0 0 0 .312.075c.106 0 .2-.02.274-.051a.37.37 0 0 0 .168-.133q.046-.075.078-.144a.4.4 0 0 0 .035-.106q.023-.118.023-.363t-.023-.367Zm.755 3.02a.44.44 0 0 0-.102-.298.6.6 0 0 0-.297-.168 2 2 0 0 0-.355-.062 4 4 0 0 0-.39-.016h-.192q-.486.001-.578.043a.5.5 0 0 0-.227.203.64.64 0 0 0-.086.29q.001.069.043.163.047.095.152.22a.8.8 0 0 0 .348.202q.24.078.578.086.497.001.801-.203.305-.201.305-.46Zm1.687-2.747h-.156a.37.37 0 0 1-.27-.105.4.4 0 0 1-.109-.286q0-.252.246-.445c.164-.133.457-.195.875-.195q.529.001.852.23.328.229.433.551.036.099.035.223l.008.828v.508q0 .346.035.476.042.13.153.13.11-.001.144-.114a1.5 1.5 0 0 0 .035-.383v-.262h.29v.282a3 3 0 0 1-.02.34.6.6 0 0 1-.254.34.75.75 0 0 1-.398.128.43.43 0 0 1-.336-.129.7.7 0 0 1-.176-.304v-.028l-.012.02-.039.047c-.012.011-.031.035-.058.062a.4.4 0 0 1-.086.082c-.032.024-.07.05-.106.086a.5.5 0 0 1-.133.078q-.072.03-.156.059c-.059.02-.121.031-.187.043q-.104.012-.227.02-.433 0-.777-.223a.7.7 0 0 1-.348-.63q0-.15.05-.288a.9.9 0 0 1 .196-.293c.094-.11.211-.196.344-.27q.204-.107.566-.203.359-.094.793-.105h.102v-.16q-.001-.248-.043-.36-.159-.516-.703-.516-.13.001-.242.008a.7.7 0 0 0-.184.031q-.066.019-.055.02.158.112.156.316-.001.18-.113.286Zm-.078 1.438a.56.56 0 0 0 .172.398.6.6 0 0 0 .426.18.77.77 0 0 0 .484-.164.8.8 0 0 0 .281-.434q.018-.053.024-.477-.001-.42-.008-.421-.06 0-.152.007a2 2 0 0 0-.325.067q-.23.058-.418.144a.9.9 0 0 0-.332.266.7.7 0 0 0-.152.434Zm2.961 1.835h.102q.28-.001.34-.101v-.415q-.002-.128.007-.28a4 4 0 0 0 0-.317 3 3 0 0 1 0-.355 6 6 0 0 0 0-.367v-1.372q-.001-.175-.008-.28-.01-.112 0-.118-.024-.136-.101-.18a1 1 0 0 0-.324-.066h-.133v-.164c0-.113.008-.168.015-.168l.075-.008.207-.012c.093-.004.18-.011.27-.015q.12-.005.265-.016.146-.007.215-.02.075-.015.082-.007h.02v.187l.007.188.059-.051a1.63 1.63 0 0 1 .996-.316q.585-.001.996.46.41.463.418 1.165 0 .726-.469 1.183c-.312.305-.664.453-1.058.453q-.493 0-.868-.316l-.058-.05v1.019q0 .192.015.238.014.042.078.078.154.023.352.023h.117v.332h-.058l-.172-.007a10 10 0 0 0-.364-.008q-.191.002-.273-.008-.744 0-.809.023h-.058v-.332Zm2.8-2.644a1.7 1.7 0 0 0-.245-.93q-.242-.398-.614-.398-.51 0-.886.469v1.726q.286.521.808.52.368 0 .649-.391.282-.387.289-.996Zm0 0"/><path fill="none" stroke="#000" stroke-miterlimit="10" stroke-width=".72" d="M260.184 200.445v10.168"/><path stroke="#000" stroke-miterlimit="10" stroke-width=".72" d="m260.184 214.395-2.52-5.04 2.52 1.258 2.52-1.257Zm0 0"/><path fill="none" stroke="#300" stroke-miterlimit="10" stroke-width=".72" d="M260.184 124.152v6.481-.363 2.253"/><path fill="#300" stroke="#300" stroke-miterlimit="10" stroke-width=".72" d="m260.184 136.3-2.52-5.034 2.52 1.257 2.52-1.257Zm0 0"/><path fill="#D5E8D4" stroke="#82B366" stroke-miterlimit="10" stroke-width=".72" d="M220.598 96.805h79.172l7.195 13.675-7.195 13.672h-79.172l-7.2-13.672Zm0 0"/><path stroke="#000" stroke-opacity=".128" stroke-width=".12" d="M228.164 105.527c-.137 0-.203-.047-.203-.132q0-.042.05-.247a1.4 1.4 0 0 0 .052-.359q.001-.316-.215-.387-.213-.07-.989-.07h-.53c-.009.012-.126.484-.36 1.41q-.346 1.39-.348 1.43c0 .023.04.039.113.039q.113.001.817.02.96-.001 1.265-.02a2.3 2.3 0 0 0 .614-.133q.503-.165.828-.57.328-.41.726-1.34.1-.222.133-.246a.6.6 0 0 1 .153-.02c.136 0 .203.047.203.133q-1.073 2.596-1.121 2.645-.035.021-2.922.02h-1.93q-1.043 0-1.043-.11.001-.023.031-.145c.028-.11.055-.168.082-.183a1 1 0 0 1 .235-.032c.183 0 .386-.007.613-.03q.142-.03.195-.122.019-.053.723-2.871.703-2.82.715-2.855.001-.076-.04-.075-.08-.029-.542-.05h-.317q-.06-.06-.062-.082 0-.019.023-.172c.028-.118.059-.188.102-.215h5.656q.07.038.07.113c0 .031-.043.414-.132 1.14a48 48 0 0 1-.141 1.126c-.016.047-.082.07-.207.07h-.121a.15.15 0 0 1-.07-.133l.03-.234q.029-.245.028-.531a1.6 1.6 0 0 0-.07-.508.8.8 0 0 0-.192-.32.75.75 0 0 0-.359-.16 4 4 0 0 0-.48-.075 9 9 0 0 0-.653-.02h-.48q-.897.01-.95.032-.04.018-.062.094-.012.03-.316 1.253a55 55 0 0 1-.317 1.247q.234.01.492.011h.266q.675-.001.926-.156.257-.152.46-.824.041-.166.063-.184.019-.024.172-.031h.082c.02 0 .04.004.05.008.017.008.02.011.02.011l.024.04q.019.042.031.043l-.34 1.347c-.222.906-.347 1.363-.367 1.38q-.03.03-.164.03Zm0 0"/><path stroke="#000" stroke-opacity=".09" stroke-width=".12" d="M231.309 108.902h.101q.281-.001.34-.101v-.774q.001-.173.008-.359a7 7 0 0 0 0-.398 7 7 0 0 1 0-.41v-1.107q-.001-.245-.008-.433a4 4 0 0 1 0-.316.5.5 0 0 0 0-.125c-.016-.09-.047-.152-.102-.18q-.076-.041-.324-.066h-.129v-.164q-.001-.17.016-.168l.07-.008q.07-.006.211-.012l.266-.015q.124-.005.265-.016a2 2 0 0 0 .22-.02q.07-.015.077-.007h.024v2.359q.432-.54 1.039-.539c.59 0 .918.27.972.816q.01.05.008 1v.621q-.001.276.016.329.013.046.078.07.152.023.356.023h.113v.332h-.055l-.176-.007q-.165-.01-.36-.008a4 4 0 0 1-.272-.008q-.745 0-.81.023h-.058v-.332h.114q.44 0 .441-.117c.004-.008.008-.344.008-.996a31 31 0 0 0-.016-1.031.56.56 0 0 0-.144-.305.43.43 0 0 0-.172-.121.5.5 0 0 0-.188-.016.78.78 0 0 0-.57.246.9.9 0 0 0-.246.395 2.7 2.7 0 0 0-.059.602v.894q.001.218.008.29.006.069.024.093c.007.016.03.027.062.043q.152.023.356.023h.113v.332h-.055l-.168-.007c-.113-.008-.238-.008-.367-.008a4 4 0 0 1-.273-.008q-.745 0-.81.023h-.058v-.332Zm6.484-.089q-.404.492-.918.492h-.05q-.901 0-1.04-.715a37 37 0 0 1-.012-.988q-.009-.787-.007-.883a.24.24 0 0 0-.043-.149q-.077-.117-.434-.117h-.082v-.164q.002-.169.016-.168l.078-.008.21-.015.274-.012.27-.016a2 2 0 0 0 .215-.02c.046-.01.078-.015.085-.007h.024v1.305q.007 1.328.02 1.422.023.11.101.175.147.101.434.102a.9.9 0 0 0 .34-.067.53.53 0 0 0 .23-.167q.081-.101.144-.231a1 1 0 0 0 .086-.215c.016-.058.024-.117.032-.176v-.12q-.001-.117.004-.29a3 3 0 0 0 0-.34v-.484q0-.328-.07-.41-.073-.082-.36-.094h-.133v-.332a53 53 0 0 0 1.121-.078h.05v1.285c0 .863 0 1.305.009 1.32.011.098.047.16.097.188q.082.041.329.066h.128v.332a54 54 0 0 0-1.097.079h-.051Zm1.551.089h.101q.282-.001.34-.101v-.465q.001-.136.008-.309a6 6 0 0 0 0-.359 7 7 0 0 1 0-.398q.006-.212 0-.41v-1.54a7 7 0 0 0-.008-.316.5.5 0 0 1 0-.125q-.021-.136-.101-.18-.077-.041-.325-.066h-.129v-.164q-.001-.17.016-.168l.07-.008q.071-.006.211-.012l.266-.015q.124-.005.266-.016.144-.007.218-.02.072-.015.078-.007h.024v2.273q-.002 2.289.008 2.305c.015.039.047.062.086.078q.151.023.351.023h.117v.332h-.058l-.164-.007c-.114-.008-.23-.008-.356-.008q-.187-.001-.273-.008a3 3 0 0 0-.274 0 10 10 0 0 0-.363.016l-.164.007h-.059v-.332Zm2.008 0h.101q.281-.001.34-.101v-.465q.001-.136.008-.309a6 6 0 0 0 0-.359 7 7 0 0 1 0-.398q.006-.212 0-.41v-1.54a7 7 0 0 0-.008-.316.5.5 0 0 1 0-.125c-.016-.09-.047-.152-.102-.18a1 1 0 0 0-.324-.066h-.129v-.164q0-.17.012-.168l.074-.008.207-.012.27-.015q.121-.005.265-.016a2 2 0 0 0 .22-.02q.07-.015.077-.007h.02v2.273q.001 2.289.008 2.305c.02.039.05.062.086.078q.154.024.355.023h.117v.332h-.058l-.168-.007q-.165-.01-.352-.008c-.125 0-.219-.004-.273-.008a3 3 0 0 0-.278 0 10 10 0 0 0-.36.016l-.167.007h-.055v-.332Zm6.222-3.242v-.289q.001-.175.008-.238 0-.327-.07-.406-.074-.076-.371-.094h-.13v-.164q0-.17.016-.168l.07-.008c.051-.004.118-.008.212-.012l.265-.015q.123-.005.27-.016a2 2 0 0 0 .215-.02q.07-.015.078-.007h.023v2.195q.001 2.209.008 2.23c.016.098.047.16.102.188q.076.041.324.066h.129v.332a71 71 0 0 0-1.118.079h-.05v-.399l-.059.05q-.422.348-.937.349-.557-.001-1.004-.442-.45-.44-.45-1.191 0-.72.458-1.176a1.46 1.46 0 0 1 1.058-.461q.544 0 .953.352Zm-.02 1.102q-.325-.452-.816-.453a.88.88 0 0 0-.629.261.9.9 0 0 0-.246.461q-.046.258-.058.68c0 .27.02.488.05.656a.85.85 0 0 0 .254.442.73.73 0 0 0 .563.238q.515-.001.883-.559Zm1.817-1.926c0-.133.047-.242.133-.316a.45.45 0 0 1 .316-.118q.165.016.29.125c.081.07.12.176.12.309q0 .218-.12.324a.44.44 0 0 1-.305.11.43.43 0 0 1-.301-.11q-.122-.106-.133-.324Zm1.285 4.398q-.105-.023-.75-.023h-.265a4 4 0 0 0-.364.016l-.156.007h-.058v-.332h.117q.2 0 .351-.023.065-.03.078-.078.017-.053.016-.305v-1.379q.001-.376-.016-.476a.16.16 0 0 0-.097-.137q-.105-.051-.34-.05h-.082v-.165c0-.113.008-.168.015-.168l.075-.008.199-.015.262-.012.257-.016q.141-.006.211-.02.072-.017.079-.007h.023v2.742q.033.072.086.086.05.016.254.031h.164v.332Zm2.356-2.281a.7.7 0 0 0-.196-.5q-.192-.21-.562-.21-.26 0-.45.093a.43.43 0 0 0-.214.379.4.4 0 0 0 0 .094q.007.053.113.171a.7.7 0 0 0 .313.18q.129.037.316.067.186.029.32.062a1.6 1.6 0 0 1 .47.238 1 1 0 0 1 .23.297c.074.14.117.29.12.45q0 .445-.273.734-.276.292-.886.297h-.06q-.374 0-.694-.258l-.055.047-.066.066-.086.078-.079.075h-.09c-.011 0-.035-.016-.062-.043v-.989q0-.153.012-.183.017-.03.074-.036h.066q.083.001.114.032c.02.015.031.047.035.086.008.039.023.101.05.195.032.09.075.191.137.3a.81.81 0 0 0 .704.372c.464 0 .699-.192.699-.567a.47.47 0 0 0-.13-.34q-.145-.17-.6-.257-.452-.087-.598-.168a1 1 0 0 1-.41-.332.73.73 0 0 1-.153-.446q0-.281.121-.476a.8.8 0 0 1 .313-.29c.125-.062.242-.105.36-.128a1.7 1.7 0 0 1 .315-.04h.083c.19 0 .359.04.503.11l.11.059.062-.05q.075-.068.16-.122h.086q.022-.002.067.043v.953l-.043.043h-.203q-.042-.046-.043-.086Zm.91-.766q.383-.03.59-.406.211-.375.23-.879v-.109h.29v1.328h.976v.332h-.977v1.04q.01.9.008 1.019c0 .074.02.152.05.23q.102.282.356.281.316 0 .39-.511.006-.059.005-.332v-.254h.289v.34q-.001.556-.3.843a.7.7 0 0 1-.509.196 1 1 0 0 1-.425-.086.7.7 0 0 1-.274-.223 1.2 1.2 0 0 1-.137-.254 1 1 0 0 1-.05-.23q-.007-.051-.008-1.07v-.989h-.57v-.266Zm0 0"/><path stroke="#000" stroke-opacity=".128" stroke-width=".12" d="M266.973 107.813v.082q0 .08-.063.144a.3.3 0 0 1-.101.07q-.069 0-1.575-.703l-2.96-1.398-1.47-.707a.18.18 0 0 1-.07-.153q0-.11.082-.164 5.85-2.796 5.993-2.797.03 0 .09.063.062.06.074.152a.14.14 0 0 1-.075.141c-.003.008-.925.445-2.753 1.32l-2.72 1.285 2.72 1.286c1.828.87 2.75 1.312 2.753 1.32a.17.17 0 0 1 .075.14Zm4.675-6.086q.57-.828 1.559-.829.493.001.98.266.493.269.797.941c.254.567.38 1.34.38 2.329 0 1.054-.145 1.863-.438 2.418a1.75 1.75 0 0 1-.563.687q-.356.252-.625.316-.262.06-.52.07a2.2 2.2 0 0 1-.53-.062q-.264-.06-.622-.324a1.9 1.9 0 0 1-.562-.687c-.293-.555-.438-1.364-.438-2.418q-.002-1.776.582-2.707Zm2.297-.122a.96.96 0 0 0-.726-.328.97.97 0 0 0-.735.328c-.171.176-.28.422-.336.735-.054.312-.082.969-.082 1.96q0 1.614.082 2.126.081.511.368.804a.93.93 0 0 0 .703.31.92.92 0 0 0 .695-.31c.195-.203.32-.488.367-.855q.07-.551.082-2.074 0-1.482-.082-1.95-.082-.469-.336-.746Zm2.621 5.485a.6.6 0 0 1 .176-.43.57.57 0 0 1 .438-.183q.246 0 .43.164a.6.6 0 0 1 .195.437.6.6 0 0 1-.176.438.56.56 0 0 1-.438.183.58.58 0 0 1-.437-.172.63.63 0 0 1-.188-.437Zm4.219-5.29-.133.052q-.14.047-.406.101c-.18.031-.375.059-.594.07h-.195v-.468h.195q.482-.024.887-.153.41-.135.574-.246c.11-.074.203-.152.285-.226q.02-.031.122-.032c.062 0 .12.024.175.063v3.055l.008 3.062q.074.07.125.094.048.017.242.039.199.019.637.02h.266v.468h-.114c-.144-.02-.683-.027-1.625-.027q-1.388 0-1.601.027h-.125v-.469h.656c.11 0 .191-.003.254-.007a1 1 0 0 0 .164-.032.3.3 0 0 1 .082-.02.3.3 0 0 0 .059-.054c.035-.031.054-.047.062-.039Zm3.219 3.677q-.001-.561.203-1.024.203-.459.512-.746a2.1 2.1 0 0 1 .66-.426q.358-.145.676-.156.542 0 .93.184.387.186.59.511.205.33.288.653c.055.218.082.46.09.726q0 .07-.07.145h-2.88v.152q0 1.513 1.02 1.836.205.064.45.063.428 0 .734-.329.174-.171.277-.425l.102-.246q.03-.031.164-.032h.031q.172 0 .172.102.002.04-.031.133a1.8 1.8 0 0 1-.64.89q-.451.324-1.012.325a2.1 2.1 0 0 1-1.614-.704 2.37 2.37 0 0 1-.652-1.632Zm3.113-.582q-.111-1.308-.972-1.391h-.02q-.083 0-.164.012a.9.9 0 0 0-.254.082.8.8 0 0 0-.297.21q-.123.147-.234.422a2.8 2.8 0 0 0-.164.672v.07h2.105Zm2.297-3.524-.039-.043q-.033-.03-.031-.031l-.043-.027c-.028-.024-.043-.028-.051-.024q-.012.011-.07-.02c-.043-.019-.078-.023-.114-.007q-.052.017-.132-.012a.4.4 0 0 0-.196-.012h-.293v-.468h.09q.188.03 1.266.03 1.236 0 1.453-.03h.11v.468h-.216c-.414.024-.62.078-.62.176q-.001.018.917 2.531.92 2.513.93 2.512l.879-2.367q.867-2.349.867-2.442c0-.128-.07-.23-.215-.296a1.2 1.2 0 0 0-.468-.114h-.051v-.468h.09q.157.03 1.175.03.93 0 .993-.03h.058v.468h-.07q-.766 0-.98.418-.001.012-1.145 3.117-1.142 3.103-1.164 3.114-.052.081-.192.082h-.156q-.143 0-.191-.082-.024-.02-1.196-3.239-1.195-3.204-1.195-3.234Zm0 0"/><use xlink:href="#j" x="232.226" y="118.036"/><use xlink:href="#ak" x="237.029" y="118.036"/><use xlink:href="#z" x="241.832" y="118.036"/><use xlink:href="#s" x="246.636" y="118.036"/><path stroke="#000" stroke-opacity=".128" stroke-width=".12" d="M254.059 116.328q-.205-.002-.204-.133 0-.041.051-.246.052-.204.051-.355c0-.211-.07-.344-.215-.39q-.214-.072-.992-.071h-.527q-.013.02-.36 1.41-.346 1.389-.347 1.43.001.04.113.039.113.001.816.02.96.001 1.266-.02a2.2 2.2 0 0 0 .613-.133q.5-.165.828-.57c.22-.274.457-.72.723-1.34q.104-.224.133-.242a.5.5 0 0 1 .156-.024c.133 0 .203.047.203.133q-1.072 2.596-1.125 2.644-.03.024-2.918.024h-1.93q-1.042-.002-1.042-.113 0-.023.03-.145c.028-.11.055-.168.083-.183a1 1 0 0 1 .234-.032q.275 0 .613-.027.142-.034.192-.125.024-.05.726-2.867l.715-2.86q0-.074-.043-.074c-.05-.02-.234-.035-.539-.05h-.316q-.064-.06-.063-.083.001-.018.02-.172.04-.174.105-.214h5.657c.046.027.07.062.07.113 0 .031-.043.414-.133 1.14a62 62 0 0 1-.14 1.126q-.022.07-.208.07h-.12a.15.15 0 0 1-.071-.133l.027-.234c.024-.164.032-.34.032-.532a1.6 1.6 0 0 0-.07-.507.74.74 0 0 0-.196-.317.7.7 0 0 0-.355-.164 4 4 0 0 0-.48-.074 9 9 0 0 0-.653-.02h-.48q-.903.013-.95.032c-.027.015-.05.043-.062.093q-.012.03-.317 1.254a48 48 0 0 1-.316 1.246q.235.012.488.012h.266q.675.002.93-.156.256-.152.46-.824.04-.165.063-.184c.011-.016.07-.023.172-.031h.082q.032.001.05.008l.02.011.02.04q.024.041.03.042l-.335 1.348c-.223.906-.348 1.363-.367 1.379q-.03.03-.164.031Zm0 0"/><path stroke="#000" stroke-opacity=".09" stroke-width=".12" d="M259.285 117.082c.211-.21.45-.32.719-.32q.217 0 .312.14.094.134.094.274a.3.3 0 0 1-.066.18q-.063.08-.196.078-.235.001-.265-.215c-.008-.067-.004-.117.023-.153q-.001-.006.004-.02v-.007a.76.76 0 0 0-.383.156q-.053.04-.054.051t.027.04c.02.015.04.046.066.085l.079.129q.041.071.066.187.02.117.027.239.001.446-.355.758a1.3 1.3 0 0 1-.871.316q-.363 0-.715-.2a.5.5 0 0 0-.082.274.42.42 0 0 0 .191.375.23.23 0 0 0 .121.043q.058-.001.52.016.607.007.781.043.44.063.692.297a.96.96 0 0 1 .28.707q0 .482-.562.742-.433.222-1.023.223-.602 0-1.035-.223-.563-.253-.563-.723 0-.258.153-.433a1 1 0 0 1 .304-.239l.078-.043q-.262-.223-.261-.605 0-.34.21-.613-.315-.317-.316-.715c0-.305.117-.559.36-.766.242-.207.53-.312.875-.316q.365 0 .683.187Zm-.219.477a.5.5 0 0 0-.187-.32.65.65 0 0 0-.375-.122.56.56 0 0 0-.36.117.5.5 0 0 0-.19.325q-.02.122-.02.367-.001.316.05.469a.46.46 0 0 0 .215.253q.124.07.313.07a.7.7 0 0 0 .273-.05.34.34 0 0 0 .168-.129c.031-.05.059-.102.078-.144a.4.4 0 0 0 .035-.11q.024-.112.024-.36 0-.244-.024-.366Zm.75 3.015a.4.4 0 0 0-.101-.293.57.57 0 0 0-.293-.168 2.4 2.4 0 0 0-.356-.066 5 5 0 0 0-.39-.012h-.196q-.48-.002-.574.043a.48.48 0 0 0-.226.203.64.64 0 0 0-.086.29q0 .069.043.163a1 1 0 0 0 .152.215c.07.082.188.153.348.203q.236.081.578.086.498 0 .8-.199c.2-.137.301-.289.301-.465Zm1.692-2.742h-.16a.35.35 0 0 1-.266-.11.37.37 0 0 1-.11-.28q0-.253.247-.446c.164-.133.453-.195.875-.195q.522-.002.851.23.323.23.434.547.035.105.035.227c0 .082 0 .355.008.828v.508c0 .23.012.386.035.476q.035.13.152.13.105 0 .145-.118a1.4 1.4 0 0 0 .035-.383v-.258h.29v.282a2 2 0 0 1-.024.34.6.6 0 0 1-.25.34.75.75 0 0 1-.399.128.43.43 0 0 1-.34-.129.7.7 0 0 1-.171-.304v-.028l-.016.02c-.008.015-.024.027-.035.043q-.024.021-.059.066a.6.6 0 0 1-.086.078q-.051.038-.11.086a.5.5 0 0 1-.128.082q-.074.031-.16.055-.088.03-.188.047a1.42 1.42 0 0 1-1.004-.203.71.71 0 0 1-.347-.63c0-.1.02-.199.05-.288a1 1 0 0 1 .196-.297q.147-.16.347-.266.206-.11.563-.203.364-.093.793-.11h.101v-.156c0-.164-.011-.285-.042-.363q-.16-.511-.7-.512-.129.001-.246.008a1 1 0 0 0-.18.028.3.3 0 0 0-.058.023q.159.106.16.316 0 .181-.117.282Zm-.082 1.438q0 .222.176.394a.6.6 0 0 0 .425.184.75.75 0 0 0 .485-.168.83.83 0 0 0 .281-.434q.013-.048.02-.476.001-.418-.004-.418-.06 0-.153.007a2 2 0 0 0-.324.067 2 2 0 0 0-.422.144.9.9 0 0 0-.332.266.75.75 0 0 0-.152.434Zm2.961 1.832h.101q.282.002.34-.102v-.411q.001-.128.008-.28a4 4 0 0 0 0-.317 5 5 0 0 1 0-.355 6 6 0 0 0 0-.367v-1.372q-.001-.175-.008-.28a.5.5 0 0 1 0-.118q-.022-.136-.101-.18-.077-.043-.325-.066h-.129v-.164q0-.169.012-.168l.074-.008.207-.012q.141-.01.27-.015l.266-.016q.144-.007.218-.02.072-.015.078-.007h.024v.187l.004.188.058-.051a1.63 1.63 0 0 1 .996-.316q.586-.001.997.46c.277.31.414.696.421 1.165q.001.726-.472 1.183-.468.452-1.059.453-.492 0-.867-.316l-.059-.05v1.015q-.001.198.016.238.013.047.078.082.152.019.356.02h.113v.332h-.055l-.176-.008q-.164-.005-.359-.004-.199-.001-.273-.008-.744.001-.809.02h-.059v-.332Zm2.8-2.641q-.001-.534-.242-.934-.246-.393-.617-.394-.511 0-.887.469v1.726q.288.518.809.52.367-.002.648-.391.286-.393.29-.996Zm0 0"/><path stroke="#000" stroke-opacity=".128" stroke-width=".12" d="M272.348 113.191q0-.08.043-.132c.027-.032.054-.055.082-.059l.027-.012q.075 0 1.574.703 1.5.708 2.973 1.399l1.46.707q.072.053.071.152c0 .067-.023.121-.07.153-.016.015-1.008.488-2.985 1.421l-2.941 1.387h-.059c-.125-.012-.183-.082-.183-.203v-.031q-.012-.07.152-.164.195-.101 1.531-.735c.532-.25.973-.46 1.329-.62l2.53-1.208-2.53-1.203q-2.942-1.389-2.985-1.441a.3.3 0 0 1-.02-.114Zm10.906-.664q.57-.825 1.562-.824.488-.001.98.262.487.269.798.941c.25.567.375 1.34.375 2.328q0 1.584-.438 2.422a1.76 1.76 0 0 1-.562.684q-.358.252-.621.316c-.18.04-.352.063-.524.07q-.262.001-.531-.062-.264-.06-.621-.324a1.9 1.9 0 0 1-.563-.684q-.438-.838-.437-2.422c0-1.183.191-2.086.582-2.707Zm2.297-.12a.96.96 0 0 0-.727-.329.97.97 0 0 0-.734.328q-.253.265-.336.735-.082.47-.082 1.96 0 1.614.082 2.126.082.51.367.804a.92.92 0 0 0 .703.309.9.9 0 0 0 .696-.309q.298-.305.367-.855.07-.551.082-2.074 0-1.482-.082-1.95c-.055-.312-.164-.562-.336-.746Zm0 0"/><path fill="none" stroke="#300" stroke-miterlimit="10" stroke-width=".72" d="M260.184 151.504v6.476-.359 2.254"/><path fill="#300" stroke="#300" stroke-miterlimit="10" stroke-width=".72" d="m260.184 163.652-2.52-5.039 2.52 1.262 2.52-1.262Zm0 0"/><path fill="#FFE6CC" d="m312.363 137.11-14.394 14.394h-75.57l-14.395-14.395Zm0 0"/><g clip-path="url(#ao)"><path fill="none" stroke="#D79B00" stroke-miterlimit="10" stroke-width=".72" d="m312.363 137.11-14.394 14.394h-75.57l-14.395-14.395Zm0 0"/></g><use xlink:href="#w" x="228.874" y="146.825"/><use xlink:href="#D" x="234.635" y="146.825"/><use xlink:href="#m" x="237.511" y="146.825"/><use xlink:href="#z" x="242.315" y="146.825"/><use xlink:href="#A" x="247.118" y="146.825"/><use xlink:href="#C" x="249.037" y="146.825"/><use xlink:href="#k" x="253.355" y="146.825"/><use xlink:href="#s" x="255.755" y="146.825"/><path stroke="#000" stroke-opacity=".128" stroke-width=".12" d="M260.707 147.137c-.531 0-.98-.18-1.348-.532-.37-.355-.554-.808-.562-1.359q0-.901.48-1.512a2.8 2.8 0 0 1 .88-.757 2.9 2.9 0 0 1 1.163-.348q.02-.007.43-.008h.387c.101.031.152.102.152.203q0 .265-.418.266h-.297q-1.237 0-1.613 1.101l-.043.125h1.809c.09.063.132.125.132.196q.001.18-.203.273h-1.86v.02a2.5 2.5 0 0 0-.1.757q0 .673.327.93.323.253.723.266.278 0 .543-.102.264-.104.43-.215c.11-.074.164-.113.172-.113q.072 0 .113.102c.027.07.039.132.039.195q.002.031-.008.04a1 1 0 0 1-.207.144q-.17.101-.488.214t-.633.114Zm0 0"/><path stroke="#000" stroke-opacity=".09" stroke-width=".12" d="M263.566 144.328q.404-.581 1.106-.582.345 0 .691.188.345.188.563.664c.18.398.27.949.27 1.644q-.001 1.12-.313 1.715-.142.301-.395.484a1.5 1.5 0 0 1-.441.223c-.125.027-.25.047-.371.05q-.187 0-.375-.042a1.3 1.3 0 0 1-.438-.23 1.3 1.3 0 0 1-.398-.485q-.312-.594-.313-1.715 0-1.253.414-1.914Zm1.625-.086a.697.697 0 0 0-1.035 0 1 1 0 0 0-.238.52c-.04.222-.055.683-.055 1.386q-.002 1.142.055 1.504c.039.243.125.43.262.57q.2.219.496.22.293-.001.492-.22.21-.217.262-.605.045-.392.058-1.469 0-1.044-.058-1.378a1.03 1.03 0 0 0-.239-.528Zm0 0"/><path stroke="#000" stroke-opacity=".128" stroke-width=".12" d="M269.836 144.602v-.133q0-.135.144-.203h3.055v-1.536l.008-1.53q.103-.132.195-.134.134 0 .203.153v3.047h3.047q.153.08.153.203 0 .122-.153.203h-3.047v3.047q-.08.14-.183.14h-.04q-.123 0-.183-.14v-3.047h-3.055q-.145-.07-.144-.203Zm11.964 2.535c-.53 0-.98-.18-1.347-.532q-.551-.532-.562-1.359 0-.901.48-1.512a2.8 2.8 0 0 1 .879-.757 2.9 2.9 0 0 1 1.164-.348q.018-.007.43-.008h.386c.102.031.153.102.153.203q.002.265-.418.266h-.297q-1.235 0-1.613 1.101l-.04.125h1.81c.085.063.132.125.132.196q0 .18-.207.273h-1.86v.02a2.5 2.5 0 0 0-.1.757q0 .673.327.93c.219.168.457.258.723.266q.28 0 .543-.102.264-.104.43-.215.164-.112.171-.113c.051 0 .086.035.114.102.027.07.043.132.043.195q0 .031-.012.04a1 1 0 0 1-.203.144q-.176.101-.492.214-.317.113-.633.114Zm0 0"/><path stroke="#000" stroke-opacity=".09" stroke-width=".12" d="M284.363 146.988q.001-.637.407-1.129.405-.488 1.03-.496c.427 0 .821.145 1.192.442q.276.223.535.562l.102.137.05-.07q.751-1.071 1.684-1.07.619 0 1.016.491.4.489.406 1.153 0 .622-.398 1.12a1.3 1.3 0 0 1-1.055.505q-.62 0-1.176-.438a3.4 3.4 0 0 1-.535-.566l-.101-.137-.051.074q-.751 1.067-1.684 1.067-.622.002-1.015-.488a1.8 1.8 0 0 1-.407-1.157Zm6.153 0q.001-.491-.274-.894a.89.89 0 0 0-.781-.407c-.098 0-.2.012-.293.036a1.4 1.4 0 0 0-.277.101q-.13.066-.243.137a1 1 0 0 0-.21.176q-.096.098-.18.18a.7.7 0 0 0-.145.18q-.057.099-.11.16a.5.5 0 0 0-.077.12l-.04.059.227.289q.222.287.344.434.123.146.305.316.18.174.363.238.178.066.367.074a.9.9 0 0 0 .735-.355q.29-.352.289-.844Zm-5.883.02c0 .332.094.637.281.906q.28.404.777.402c.57 0 1.09-.386 1.57-1.156l-.226-.289q-.44-.569-.656-.75c-.234-.207-.48-.309-.73-.309a.9.9 0 0 0-.731.352 1.35 1.35 0 0 0-.285.844Zm0 0"/><path fill="none" stroke="#300" stroke-miterlimit="10" stroke-width=".72" d="M260.184 60.098v32.12"/><path fill="#300" stroke="#300" stroke-miterlimit="10" stroke-width=".72" d="m260.184 95.996-2.52-5.035 2.52 1.258 2.52-1.258Zm0 0"/><path fill="#F5F5F5" stroke="#666" stroke-miterlimit="10" stroke-width=".72" d="m224.195 60.098 14.395-25.192h57.578l-14.395 25.192Zm0 0"/><use xlink:href="#ap" x="250.455" y="45.343"/><use xlink:href="#P" x="255.258" y="45.343"/><use xlink:href="#aq" x="260.062" y="45.343"/><use xlink:href="#p" x="264.865" y="45.343"/><use xlink:href="#l" x="240.862" y="56.139"/><use xlink:href="#k" x="245.181" y="56.139"/><use xlink:href="#D" x="247.58" y="56.139"/><use xlink:href="#ag" x="250.456" y="56.139"/><use xlink:href="#C" x="255.26" y="56.139"/><use xlink:href="#k" x="259.578" y="56.139"/><use xlink:href="#ag" x="261.978" y="56.139"/><use xlink:href="#D" x="266.781" y="56.139"/><use xlink:href="#m" x="269.657" y="56.139"/><use xlink:href="#l" x="274.461" y="56.139"/><path fill="none" stroke="#300" stroke-miterlimit="10" stroke-width=".72" d="M167.336 248.309h13.676c4.797 0 7.199-2.403 7.199-7.2v-89.605c0-4.797 2.398-7.2 7.195-7.2h15.207"/><path fill="#300" stroke="#300" stroke-miterlimit="10" stroke-width=".72" d="m214.395 144.305-5.04 2.52 1.258-2.52-1.257-2.52Zm0 0"/><path fill="none" stroke="#300" stroke-miterlimit="10" stroke-width=".72" d="M47.863 178.133h23.75q7.196 0 7.196 7.16v3.578q.002 3.585 7.199 3.586l18.496.008"/><path fill="#300" stroke="#300" stroke-miterlimit="10" stroke-width=".72" d="m108.285 192.465-5.039 2.516 1.258-2.516-1.258-2.52Zm0 0"/><path fill="#FFF" d="M51.82 167.7h22.313v20.87H51.82Zm0 0"/><path fill="none" stroke="#E6E6E6" stroke-width=".72" d="M52.18 168.059h21.593v20.152H52.18Zm0 0"/><use xlink:href="#ar" x="55.498" y="175.614"/><use xlink:href="#as" x="59.901" y="175.614"/><use xlink:href="#a" x="62.101" y="175.614"/><use xlink:href="#d" x="66.504" y="175.614"/><use xlink:href="#at" x="52.642" y="185.691"/><use xlink:href="#au" x="58.359" y="185.691"/><use xlink:href="#av" x="63.195" y="185.691"/><use xlink:href="#aw" x="68.476" y="185.691"/><path fill="none" stroke="#300" stroke-miterlimit="10" stroke-width=".72" d="M167.336 182.813h13.676q7.197 0 7.199-7.2v-24.11q0-7.196 7.195-7.198h15.207"/><path fill="#300" stroke="#300" stroke-miterlimit="10" stroke-width=".72" d="m214.395 144.305-5.04 2.52 1.258-2.52-1.257-2.52Zm0 0"/><use xlink:href="#n" x="250.579" y="259.823"/><use xlink:href="#ax" x="255.382" y="259.823"/><use xlink:href="#aq" x="260.186" y="259.823"/><use xlink:href="#P" x="264.989" y="259.823"/></svg>