<svg xmlns="http://www.w3.org/2000/svg" xmlns:xlink="http://www.w3.org/1999/xlink" width="470.88" height="241.92"><defs><path id="a" d="m.36-1.625.765-.11q.122.645.438.938.309.281.765.281.528 0 .89-.375c.25-.25.376-.554.376-.921q-.002-.516-.344-.844-.33-.342-.86-.344-.221 0-.53.078l.077-.672q.077.017.125.016.481.001.876-.25c.257-.164.39-.426.39-.781a.9.9 0 0 0-.281-.688q-.283-.28-.735-.281-.44 0-.734.281-.3.283-.375.828l-.766-.125q.14-.764.626-1.187.497-.422 1.234-.422.498 0 .922.219.434.22.656.593.234.375.234.797c0 .274-.074.516-.218.735a1.47 1.47 0 0 1-.641.515q.545.128.844.531.311.393.312.985-.001.814-.593 1.375c-.399.375-.891.562-1.485.562Q1.514.11.968-.375.437-.856.36-1.625m0 0"/><path id="c" d="M.64 0v-6.172h1.235l1.453 4.375c.133.406.235.711.297.906q.106-.327.328-.984l1.485-4.297H6.53V0h-.78v-5.172L3.953 0H3.22L1.422-5.25V0Zm0 0"/><path id="d" d="m3.625-1.437.781.093q-.173.69-.686 1.064-.504.375-1.266.375C1.797.094 1.273-.102.891-.5Q.31-1.108.313-2.203c0-.75.19-1.332.578-1.75q.59-.623 1.515-.625.89 0 1.453.61c.383.406.579.98.579 1.718v.203H1.094q.047.737.422 1.14.375.392.937.391.422.002.703-.218.294-.218.469-.703M1.141-2.673h2.5q-.047-.562-.282-.844-.377-.435-.953-.437-.516 0-.875.36-.361.346-.39.921m0 0"/><path id="e" d="m.266-1.328.75-.125c.039.305.156.539.343.703.196.156.47.234.813.234q.528.002.781-.218.248-.219.25-.5 0-.247-.219-.407-.159-.092-.78-.25c-.556-.144-.938-.265-1.157-.359a1.14 1.14 0 0 1-.5-.422 1.2 1.2 0 0 1-.156-.61q0-.293.14-.546a1.3 1.3 0 0 1 .375-.438q.17-.124.469-.218.31-.094.656-.094c.352 0 .66.055.922.156q.406.159.594.422c.125.168.21.398.265.688l-.75.093a.78.78 0 0 0-.296-.531q-.237-.201-.672-.203-.516 0-.75.172c-.149.117-.219.25-.219.406q0 .158.094.266a.63.63 0 0 0 .281.203q.122.047.672.187c.539.149.914.266 1.125.36q.327.14.5.406.187.253.187.64c0 .25-.078.493-.234.72a1.47 1.47 0 0 1-.64.515 2.4 2.4 0 0 1-.938.172c-.574 0-1.016-.117-1.328-.36Q.388-.624.266-1.328m0 0"/><path id="f" d="M3.484-.547a2.7 2.7 0 0 1-.812.5c-.262.09-.54.14-.828.14-.492 0-.871-.116-1.14-.359a1.17 1.17 0 0 1-.391-.906 1.22 1.22 0 0 1 .531-1.031 2 2 0 0 1 .547-.266 13 13 0 0 1 .687-.11q.903-.106 1.344-.265v-.187q-.002-.469-.203-.656-.3-.265-.875-.266-.534 0-.781.187c-.168.125-.293.352-.375.672l-.75-.11q.105-.468.328-.75.233-.293.672-.452.434-.171 1.015-.172.574 0 .938.14.357.143.515.344.17.205.25.516.031.188.032.687v1.016q0 1.064.046 1.344c.032.187.098.367.204.531H3.64a1.4 1.4 0 0 1-.157-.547M3.422-2.25q-.41.175-1.235.297c-.312.043-.539.094-.671.156a.64.64 0 0 0-.297.25.66.66 0 0 0-.094.344c0 .21.07.383.219.516q.233.187.672.187.434 0 .78-.187.341-.187.5-.516.125-.263.126-.766Zm0 0"/><path id="g" d="m.422.375.75.11q.046.34.25.5c.187.132.441.203.766.203q.528-.001.812-.22a.97.97 0 0 0 .39-.577c.04-.157.063-.477.063-.97Q2.95.002 2.22 0 1.28 0 .78-.656c-.336-.446-.5-.985-.5-1.61 0-.425.07-.816.219-1.171q.233-.546.672-.844.45-.295 1.047-.297.78.001 1.297.64v-.53h.703V-.61Q4.219.434 4 .875q-.205.436-.672.688c-.305.164-.68.25-1.125.25Q1.39 1.81.891 1.453.405 1.09.42.375m.64-2.687q0 .877.344 1.28c.227.274.52.407.875.407q.529.002.875-.406.36-.405.36-1.266 0-.81-.375-1.234-.362-.422-.875-.422-.503 0-.86.422-.344.41-.343 1.219m0 0"/><path id="h" d="M.672 0v-6.172H3c.406 0 .719.024.938.063q.45.064.75.28.311.224.5.61.187.377.187.828-.001.798-.5 1.344c-.336.356-.937.531-1.812.531H1.484V0Zm.812-3.234h1.594q.797 0 1.125-.297.328-.295.328-.828-.002-.387-.203-.657a.9.9 0 0 0-.5-.375q-.204-.06-.765-.062H1.484Zm0 0"/><path id="i" d="M.578-5.297v-.875h.75v.875ZM.578 0v-4.469h.75V0Zm0 0"/><path id="j" d="M.563 0v-4.469h.687v.625q.497-.733 1.422-.734c.27 0 .515.055.734.156q.34.141.516.375.17.234.234.563.047.205.047.734V0h-.766v-2.719q0-.466-.093-.687a.7.7 0 0 0-.313-.375.95.95 0 0 0-.515-.14q-.487 0-.844.312-.344.315-.344 1.172V0Zm0 0"/><path id="k" d="M.625 0v-6.172h.828v5.438h3.031V0Zm0 0"/><path id="l" d="m.531 1.719-.078-.703c.164.039.313.062.438.062a.7.7 0 0 0 .39-.094.7.7 0 0 0 .25-.218q.077-.129.235-.578l.078-.172L.14-4.47h.812l.938 2.594q.17.486.328 1.031.122-.528.297-1.015l.968-2.61h.75L2.531.078q-.27.733-.422 1.016-.205.373-.468.547a1.1 1.1 0 0 1-.625.172 1.5 1.5 0 0 1-.485-.094m0 0"/><path id="m" d="M.563 0v-4.469h.687v.672q.246-.468.469-.625a.9.9 0 0 1 .5-.156c.25 0 .504.086.765.25l-.25.703a1.1 1.1 0 0 0-.562-.172.73.73 0 0 0-.453.156.96.96 0 0 0-.282.422 2.8 2.8 0 0 0-.125.875V0Zm0 0"/><path id="n" d="M1.75 0 .11-6.172h.828l.937 4.047q.153.645.266 1.266.234-.998.28-1.141l1.173-4.172h.984l.89 3.125c.22.774.38 1.5.485 2.188.07-.395.172-.844.297-1.344l.969-3.969h.828L6.344 0h-.782L4.267-4.703a17 17 0 0 1-.203-.719c-.063.281-.122.524-.172.719L2.578 0Zm0 0"/><path id="o" d="M.563 0v-6.172h.765v2.219a1.69 1.69 0 0 1 1.344-.625q.48.002.844.203.374.189.53.547.172.344.173 1V0h-.766v-2.828q-.002-.575-.25-.828-.253-.265-.687-.266-.347.001-.641.172a.96.96 0 0 0-.422.484c-.086.2-.125.47-.125.813V0Zm0 0"/><path id="p" d="m2.219-.672.11.656q-.318.078-.563.079-.422-.001-.657-.125a.8.8 0 0 1-.312-.344Q.703-.623.703-1.312v-2.579H.156v-.578h.547v-1.11l.766-.452v1.562h.75v.578h-.75v2.625q-.002.33.031.422.044.083.125.14a.6.6 0 0 0 .266.048q.123.001.328-.016m0 0"/><path id="q" d="M3.469 0v-.562q-.423.656-1.25.656-.534 0-.985-.281a1.9 1.9 0 0 1-.703-.829 3 3 0 0 1-.234-1.218c0-.446.07-.852.219-1.22q.215-.545.672-.827.449-.295 1-.297.403 0 .718.172c.207.117.38.265.516.453v-2.219h.75V0Zm-2.39-2.234c0 .574.116 1.007.359 1.297q.356.42.859.421c.32 0 .598-.132.828-.406q.359-.405.36-1.25-.002-.92-.36-1.344-.346-.435-.875-.437-.504 0-.844.422-.327.408-.328 1.297m0 0"/><path id="r" d="M-.016 0 2.36-6.172h.875L5.766 0h-.938L4.11-1.875H1.531L.86 0Zm1.782-2.531h2.093L3.22-4.25a15 15 0 0 1-.438-1.281q-.129.596-.328 1.187Zm0 0"/><path id="s" d="M.281-2.234q0-1.247.703-1.844.563-.499 1.407-.5.92 0 1.5.61.592.61.593 1.671-.001.86-.265 1.36a1.95 1.95 0 0 1-.766.765q-.487.265-1.062.266Q1.435.095.859-.5.281-1.109.281-2.234m.782 0q0 .861.375 1.297.374.42.953.421.562 0 .937-.421.375-.437.375-1.329c0-.55-.133-.968-.39-1.25q-.377-.435-.922-.437-.58.002-.953.437-.375.424-.375 1.282m0 0"/><path id="t" d="M.547 0v-6.172h.766V0Zm0 0"/><path id="P" d="M2.781 0v-1.484H.11v-.688l2.813-4h.625v4h.828v.688h-.828V0Zm0-2.172v-2.781L.86-2.172Zm0 0"/><path id="Q" d="m.36-1.625.796-.062c.063.386.196.68.407.875q.325.297.78.296c.364 0 .673-.132.923-.406.25-.281.375-.648.375-1.11q0-.639-.36-1.015-.362-.375-.953-.375-.362.001-.656.172-.3.158-.469.422L.5-2.922l.594-3.172h3.062v.735H1.703L1.36-3.703q.563-.388 1.172-.39.809 0 1.36.562.562.563.562 1.437-.002.844-.484 1.453-.596.75-1.625.75-.848 0-1.376-.468Q.435-.84.359-1.625m0 0"/><path id="S" d="M4.344-.734V0H.266a1.3 1.3 0 0 1 .078-.531q.153-.404.5-.813c.226-.27.562-.582 1-.937q.997-.827 1.344-1.313c.238-.32.359-.625.359-.906q0-.45-.328-.766-.315-.311-.828-.312-.55 0-.875.328-.329.329-.328.922l-.782-.078Q.483-5.278 1-5.734q.527-.47 1.406-.47.891.002 1.406.5.516.487.516 1.22c0 .25-.055.496-.156.734q-.142.345-.5.75-.346.393-1.156 1.078-.691.582-.891.781-.188.207-.312.407Zm0 0"/><path id="T" d="M.36-3.047c0-.726.07-1.312.218-1.75q.233-.668.672-1.031.45-.375 1.125-.375.499.002.875.203.375.204.61.578c.163.25.296.559.39.922q.14.533.14 1.453 0 1.096-.234 1.766-.22.656-.672 1.031-.44.362-1.109.36-.89 0-1.406-.642-.61-.781-.61-2.516m.78 0q0 1.517.344 2.031c.239.336.536.5.891.5.344 0 .633-.164.875-.5q.359-.515.36-2.03-.002-1.513-.36-2.017-.364-.515-.89-.515-.517 0-.829.453-.39.564-.39 2.078m0 0"/><path id="Z" d="M3.219 0h-.766v-4.828q-.269.269-.719.531a4.7 4.7 0 0 1-.796.375v-.734a4.4 4.4 0 0 0 1.109-.719c.32-.281.547-.555.672-.828h.5Zm0 0"/><path id="aa" d="m4.297-4.656-.766.047q-.093-.435-.281-.641a1 1 0 0 0-.75-.328q-.376.002-.64.203-.364.269-.563.766-.206.502-.219 1.422.28-.405.672-.61A1.8 1.8 0 0 1 2.578-4q.75 0 1.281.563c.364.367.547.843.547 1.437 0 .387-.086.746-.25 1.078q-.253.503-.687.766a1.9 1.9 0 0 1-1 .265Q1.513.112.922-.578C.523-1.047.328-1.816.328-2.891q0-1.78.656-2.593c.383-.477.907-.72 1.563-.72.476 0 .875.141 1.187.423q.469.41.563 1.125M1.203-2q-.001.393.156.75.17.361.47.547c.194.125.405.187.624.187q.482 0 .828-.39c.227-.258.344-.61.344-1.047q-.002-.638-.344-1a1.12 1.12 0 0 0-.86-.375q-.516 0-.874.375-.344.362-.344.953m0 0"/><path id="ab" d="M1.531-3.344q-.485-.169-.718-.484a1.35 1.35 0 0 1-.22-.781q-.001-.668.485-1.125.481-.47 1.297-.47c.531 0 .96.157 1.297.47.332.312.5.695.5 1.14q0 .438-.234.766-.222.315-.688.484.576.188.875.594c.195.273.297.602.297.984q0 .798-.563 1.344-.564.533-1.468.531Q1.466.112.906-.437a1.8 1.8 0 0 1-.562-1.344c0-.407.097-.742.297-1.016q.31-.405.89-.547m-.156-1.281q0 .438.281.719c.188.18.43.265.735.265q.435.002.718-.265a.93.93 0 0 0 .282-.688.92.92 0 0 0-.297-.687.96.96 0 0 0-.719-.297q-.423 0-.719.281a.92.92 0 0 0-.281.672m-.25 2.844q-.001.328.156.64.154.3.453.47.31.156.657.155.545.001.89-.343a1.2 1.2 0 0 0 .36-.891 1.24 1.24 0 0 0-.36-.906q-.361-.36-.922-.36a1.2 1.2 0 0 0-.89.36q-.344.346-.344.875m0 0"/><path id="u" d="M.61 0v-6.172h1.859l1.125 4.203 1.11-4.203h1.874V0H5.422v-4.86L4.188 0H2.984L1.766-4.86V0Zm0 0"/><path id="v" d="m3.203-1.422 1.188.203q-.236.645-.735.985-.486.328-1.219.328c-.773 0-1.343-.25-1.718-.75Q.28-1.266.28-2.203q0-1.107.578-1.735.576-.639 1.47-.64.996.002 1.577.672.576.657.547 2.015H1.484c.008.344.102.618.282.813q.279.299.687.297a.7.7 0 0 0 .469-.156q.188-.155.281-.485m.078-1.203q-.018-.514-.265-.781a.83.83 0 0 0-.625-.266.85.85 0 0 0-.641.281q-.251.284-.25.766Zm0 0"/><path id="w" d="m.203-1.281 1.188-.172q.074.344.297.531.234.174.656.172.466.002.687-.172a.39.39 0 0 0 .078-.547c-.062-.05-.195-.101-.39-.156Q1.278-1.936.89-2.187a1.17 1.17 0 0 1-.532-1.016q-.002-.575.454-.969.467-.405 1.437-.406.92 0 1.36.312.45.301.624.875l-1.125.204a.68.68 0 0 0-.265-.391q-.204-.14-.578-.14c-.313 0-.54.042-.672.124a.28.28 0 0 0-.125.235q-.001.141.11.218.17.129 1.109.344c.632.137 1.078.309 1.328.516q.358.316.359.89 0 .612-.516 1.047-.503.439-1.515.438c-.606 0-1.09-.117-1.453-.36A1.67 1.67 0 0 1 .203-1.28m0 0"/><path id="x" d="M1.5-3.11.422-3.296q.187-.654.625-.969.45-.311 1.312-.312.797 0 1.188.187c.258.125.441.29.547.485.101.187.156.543.156 1.062l-.016 1.375c0 .399.016.688.047.875q.06.283.219.594H3.328a7 7 0 0 0-.11-.344l-.046-.14q-.3.297-.64.437c-.231.09-.477.14-.735.14q-.69 0-1.094-.374a1.24 1.24 0 0 1-.39-.938c0-.25.054-.472.171-.672q.188-.293.516-.453.328-.17.938-.281.826-.154 1.156-.297v-.11q-.001-.341-.172-.484c-.117-.101-.328-.156-.64-.156-.212 0-.376.043-.5.125q-.177.127-.282.438m1.594.97q-.236.064-.735.171-.487.11-.64.203-.235.176-.235.422 0 .251.188.438a.66.66 0 0 0 .469.172q.326 0 .625-.203a.94.94 0 0 0 .28-.391q.048-.155.048-.578Zm0 0"/><path id="y" d="m.516.297 1.343.156q.028.234.157.328.169.124.53.125.47 0 .704-.14a.6.6 0 0 0 .234-.297q.047-.142.047-.547v-.64Q2.998 0 2.187 0C1.595 0 1.118-.254.767-.766.492-1.16.359-1.66.359-2.266Q.358-3.389.891-3.984a1.76 1.76 0 0 1 1.343-.594q.826.001 1.375.734v-.625h1.11v4.016q0 .78-.14 1.172c-.087.258-.204.46-.36.61a1.6 1.6 0 0 1-.625.359q-.392.124-1 .125c-.762 0-1.305-.133-1.625-.391A1.23 1.23 0 0 1 .5.438.6.6 0 0 1 .516.297m1.047-2.625q0 .705.28 1.047.28.327.673.328.435.001.734-.344c.195-.226.297-.562.297-1q0-.703-.281-1.031a.9.9 0 0 0-.72-.344.88.88 0 0 0-.702.344c-.188.219-.282.555-.282 1m0 0"/><path id="A" d="M.625 0v-6.172h2q1.138 0 1.484.094.528.14.891.61.359.455.36 1.187-.001.58-.22.968a1.9 1.9 0 0 1-.515.61q-.314.222-.64.281-.456.094-1.297.094h-.813V0Zm1.25-5.125v1.75h.688q.732 0 .984-.094a.9.9 0 0 0 .39-.312.8.8 0 0 0 .141-.469.82.82 0 0 0-.203-.562.96.96 0 0 0-.5-.282 9 9 0 0 0-.906-.031Zm0 0"/><path id="B" d="M.625-5.078v-1.094h1.172v1.094ZM.625 0v-4.469h1.172V0Zm0 0"/><path id="C" d="M4.688 0H3.5v-2.281q0-.716-.078-.938a.57.57 0 0 0-.235-.328.7.7 0 0 0-.421-.125q-.3.001-.547.172a.88.88 0 0 0-.344.453c-.055.18-.078.516-.078 1.016V0H.609v-4.469h1.094v.657q.593-.764 1.485-.766.386 0 .703.14c.218.094.382.215.5.36.113.148.191.312.234.5q.062.28.063.797Zm0 0"/><path id="D" d="M.656 0v-6.125h1.25v5.078H5V0Zm0 0"/><path id="E" d="M1.75 0H.563v-4.469h1.109v.625c.187-.289.351-.484.5-.578a.93.93 0 0 1 .515-.156q.406 0 .782.234l-.375 1.032c-.2-.133-.383-.204-.547-.204a.64.64 0 0 0-.422.141q-.175.142-.281.5-.094.363-.094 1.5Zm0 0"/><path id="F" d="M.063-4.469h1.25L2.39-1.297l1.047-3.172h1.218L3.078-.172 2.797.61a3.3 3.3 0 0 1-.297.594 1.2 1.2 0 0 1-.328.344 1.5 1.5 0 0 1-.453.187c-.18.051-.375.079-.594.079-.23 0-.453-.024-.672-.063L.343.813q.28.06.5.062c.282 0 .485-.086.61-.25q.2-.234.313-.61Zm0 0"/><path id="G" d="M1.453 0 .031-4.469h1.157l.843 2.922.766-2.922h1.14l.75 2.922.844-2.922h1.172L5.266 0H4.125l-.766-2.875L2.61 0Zm0 0"/><path id="H" d="M2.672-4.469v.938h-.813v1.797q-.001.562.016.656a.3.3 0 0 0 .11.14.35.35 0 0 0 .202.063q.17.001.485-.125l.094.922a2.4 2.4 0 0 1-.938.172A1.7 1.7 0 0 1 1.25 0a.84.84 0 0 1-.375-.281A1.2 1.2 0 0 1 .719-.75q-.047-.2-.047-.828v-1.953H.125v-.938h.547v-.89l1.187-.688v1.578Zm0 0"/><path id="I" d="M1.797-6.172v2.266c.383-.446.844-.672 1.375-.672.27 0 .515.055.734.156q.328.158.485.39c.113.157.191.337.234.532q.062.282.063.875V0H3.5v-2.36q-.002-.702-.062-.89a.57.57 0 0 0-.235-.297.74.74 0 0 0-.437-.125.96.96 0 0 0-.532.156.82.82 0 0 0-.328.422q-.11.284-.11.86V0H.61v-6.172Zm0 0"/><path id="J" d="M.625 0v-6.172H3.25q.997.001 1.438.172.45.159.718.594.282.423.282.968 0 .69-.422 1.141-.41.456-1.22.578.404.234.673.516c.176.187.41.523.703 1L6.188 0h-1.5l-.891-1.344c-.324-.476-.547-.781-.672-.906a.9.9 0 0 0-.375-.25q-.19-.077-.625-.078h-.25V0Zm1.25-3.562h.922q.902.002 1.125-.079a.7.7 0 0 0 .344-.25.84.84 0 0 0 .125-.468.72.72 0 0 0-.172-.5.7.7 0 0 0-.453-.25 17 17 0 0 0-.922-.016h-.969Zm0 0"/><path id="K" d="M.625-6.172h1.234v3.344q0 .797.047 1.031.077.375.375.61.312.234.828.234c.352 0 .618-.07.797-.219a.8.8 0 0 0 .328-.531c.04-.219.063-.57.063-1.063v-3.406h1.25v3.234c0 .75-.04 1.278-.11 1.579a1.7 1.7 0 0 1-.375.78q-.268.316-.718.5c-.305.122-.7.188-1.188.188Q2.264.107 1.812-.094a1.85 1.85 0 0 1-.718-.531 1.8 1.8 0 0 1-.36-.687q-.11-.53-.109-1.563Zm0 0"/><path id="L" d="m4.516-3.156-1.157.219q-.064-.357-.28-.532a.8.8 0 0 0-.532-.172q-.456.001-.719.313-.251.3-.25 1.015c0 .532.086.907.266 1.126q.263.327.718.328a.82.82 0 0 0 .547-.188c.145-.133.25-.36.313-.672l1.156.203q-.188.799-.703 1.204Q3.372.095 2.5.094q-.971 0-1.562-.61-.58-.622-.579-1.718 0-1.109.579-1.72c.394-.413.925-.624 1.593-.624q.81 0 1.297.36.48.346.688 1.062m0 0"/><path id="M" d="M1.844 0 .047-4.469H1.28l.844 2.282.25.765c.063-.195.102-.328.125-.39q.06-.187.125-.375l.844-2.282h1.219L2.922 0Zm0 0"/><path id="N" d="M.344-2.297q0-.59.281-1.14.294-.564.828-.844a2.44 2.44 0 0 1 1.203-.297c.664 0 1.219.226 1.656.672.438.437.657.992.657 1.656q0 1.02-.657 1.688c-.437.437-.992.656-1.656.656q-.61-.001-1.172-.266a1.95 1.95 0 0 1-.859-.812Q.345-1.53.344-2.297m1.219.063c0 .437.101.777.312 1.015q.312.362.781.36.45.001.766-.36.328-.357.328-1.031 0-.655-.328-1a.99.99 0 0 0-.766-.36 1 1 0 0 0-.781.36q-.313.346-.312 1.016m0 0"/><path id="O" d="M.625 0v-6.172h1.172V0Zm0 0"/><path id="U" d="M.625 0v-6.172h4.578v1.047H1.875v1.36h3.094v1.046H1.875v1.672h3.453V0Zm0 0"/><path id="V" d="M.531-4.469h1.094v.61c.383-.477.848-.72 1.39-.72.282 0 .524.063.735.188q.328.175.531.532c.196-.239.407-.414.625-.532a1.5 1.5 0 0 1 .735-.187q.499.002.828.203.34.206.515.594.124.282.125.922V0H5.922v-2.562q-.001-.656-.125-.86-.16-.248-.5-.25a.8.8 0 0 0-.469.156.85.85 0 0 0-.312.454q-.094.282-.094.921V0H3.234v-2.453q-.002-.657-.062-.844a.53.53 0 0 0-.203-.281.6.6 0 0 0-.36-.094c-.18 0-.34.055-.484.156a.76.76 0 0 0-.312.422q-.094.282-.094.922V0H.53Zm0 0"/><path id="W" d="M.563 0v-6.172H1.75v2.219q.546-.623 1.297-.625.81.002 1.344.594.546.596.547 1.703-.001 1.143-.547 1.765-.55.61-1.328.61a1.72 1.72 0 0 1-1.391-.75V0ZM1.75-2.328c0 .46.07.797.219 1.015q.294.486.812.485.387 0 .656-.328.282-.341.282-1.063 0-.763-.281-1.11a.86.86 0 0 0-.704-.343.88.88 0 0 0-.703.344c-.187.219-.281.555-.281 1m0 0"/><path id="X" d="M4.719 0H3.625v-.656a1.86 1.86 0 0 1-.656.562 1.7 1.7 0 0 1-.75.188q-.768 0-1.313-.61Q.357-1.137.36-2.25.358-3.387.891-3.984q.528-.593 1.343-.594.748.001 1.297.625v-2.219H4.72ZM1.562-2.328q0 .703.204 1.031.28.47.797.469.405.001.687-.344c.195-.238.297-.586.297-1.047q0-.763-.281-1.11a.9.9 0 0 0-.72-.343.88.88 0 0 0-.702.344c-.188.219-.282.555-.282 1m0 0"/><path id="Y" d="M.594-5.078v-1.094H1.78v1.094Zm1.187.61v4.327q-.001.856-.125 1.204a.95.95 0 0 1-.422.546c-.21.133-.48.204-.812.204Q.247 1.812.047 1.78a6 6 0 0 1-.438-.093L-.187.672q.08.013.156.031c.05.008.097.016.14.016A.5.5 0 0 0 .391.64.37.37 0 0 0 .547.453Q.594.342.594-.203V-4.47Zm0 0"/><path id="R" d="M7.094-4q.608.676 1.047 1.016.45.346.843.5v.218a5 5 0 0 0-.89.563q-.423.329-1 .984h-.36q.436-.92.907-1.406H.359v-.469h7.282q-.345-.435-.485-.64A8 8 0 0 1 6.75-4Zm0 0"/><path id="ac" d="M.672-6.687H3.14q.842 0 1.28.125.578.175 1 .625c.282.292.493.652.641 1.078.145.43.22.953.22 1.578 0 .554-.071 1.027-.204 1.422q-.25.737-.719 1.187-.344.344-.953.531Q3.968 0 3.22 0H.672Zm1.36 1.125v4.437h1q.56 0 .812-.062a1.2 1.2 0 0 0 .547-.282q.217-.2.359-.64.14-.45.14-1.235 0-.764-.14-1.187a1.47 1.47 0 0 0-.39-.64 1.3 1.3 0 0 0-.626-.329q-.281-.061-1.109-.062Zm0 0"/><path id="ad" d="m3.469-1.547 1.281.219q-.253.703-.781 1.078-.533.362-1.328.36Q1.374.111.78-.72.296-1.373.297-2.39q-.001-1.2.625-1.875a2.1 2.1 0 0 1 1.594-.687q1.077.002 1.703.719.62.704.61 2.187h-3.22q.013.563.313.89a.95.95 0 0 0 .734.313q.311.001.516-.156.201-.17.297-.547m.078-1.297q-.017-.545-.297-.828a.86.86 0 0 0-.656-.297.89.89 0 0 0-.688.297q-.282.315-.265.828Zm0 0"/><path id="ae" d="M.219-1.375 1.5-1.578q.093.377.344.578.246.188.703.188.48 0 .75-.188a.42.42 0 0 0 .156-.344.32.32 0 0 0-.094-.234c-.062-.063-.203-.117-.421-.172Q1.39-2.092.968-2.375.39-2.764.392-3.469c0-.414.164-.765.5-1.047q.498-.435 1.547-.437.998 0 1.468.328c.32.21.547.527.672.953l-1.203.219a.72.72 0 0 0-.297-.422q-.221-.155-.625-.156-.503 0-.719.14a.3.3 0 0 0-.14.266c0 .086.039.156.125.219q.169.141 1.187.375c.688.148 1.164.336 1.438.562q.406.345.406.953 0 .675-.562 1.157-.562.468-1.641.468Q1.544.11.969-.28a1.82 1.82 0 0 1-.75-1.094m0 0"/><path id="af" d="m4.89-3.406-1.265.219q-.063-.375-.297-.563a.83.83 0 0 0-.578-.203.97.97 0 0 0-.766.344c-.187.218-.28.586-.28 1.093q0 .878.28 1.235.293.344.797.343a.87.87 0 0 0 .594-.203c.156-.132.266-.375.328-.718l1.25.218q-.187.862-.75 1.313-.55.438-1.484.437Q1.653.11 1.016-.562.39-1.232.39-2.423q-.001-1.201.625-1.86.64-.67 1.718-.671c.594 0 1.063.133 1.407.39q.527.376.75 1.157m0 0"/><path id="ag" d="M1.89 0H.61v-4.844h1.203v.688c.195-.32.375-.535.53-.64a1.05 1.05 0 0 1 .563-.157q.434 0 .844.234l-.39 1.125q-.329-.218-.61-.219a.7.7 0 0 0-.453.157c-.125.094-.227.273-.297.531q-.11.394-.11 1.625Zm0 0"/><path id="ah" d="M.672-5.5v-1.187h1.281V-5.5Zm0 5.5v-4.844h1.281V0Zm0 0"/><path id="ai" d="M.64-4.844h1.188v.703q.233-.356.625-.578.405-.234.89-.234.843.002 1.423.672.592.656.593 1.828c0 .812-.199 1.445-.593 1.89-.399.45-.875.672-1.438.672a1.7 1.7 0 0 1-.734-.156Q2.278-.2 1.922-.594v2.438H.64ZM1.907-2.5q-.002.815.313 1.203.328.391.797.39c.3 0 .55-.116.75-.359.195-.238.297-.629.297-1.171Q4.061-3.2 3.75-3.563q-.315-.374-.75-.374-.486 0-.797.359-.299.363-.297 1.078m0 0"/><path id="aj" d="M2.89-4.844v1.016h-.874v1.953q0 .598.015.703.031.096.125.156a.37.37 0 0 0 .219.063q.17.001.516-.125l.109 1a2.7 2.7 0 0 1-1.016.187A1.7 1.7 0 0 1 1.36 0a.9.9 0 0 1-.406-.312 1.3 1.3 0 0 1-.187-.5C.742-.957.734-1.254.734-1.703v-2.125H.141v-1.016h.593v-.968l1.282-.75v1.718Zm0 0"/><path id="ak" d="M.375-2.484Q.373-3.122.688-3.72c.207-.406.503-.71.89-.922a2.7 2.7 0 0 1 1.297-.312q1.092.002 1.797.719c.469.468.703 1.07.703 1.797Q5.373-1.341 4.656-.61q-.702.72-1.781.719-.656-.002-1.266-.296a2.1 2.1 0 0 1-.921-.891Q.373-1.653.375-2.484m1.313.062q-.001.721.343 1.11.34.375.844.375.498 0 .844-.375c.226-.258.344-.633.344-1.125 0-.47-.118-.829-.344-1.079a1.1 1.1 0 0 0-.844-.39c-.336 0-.617.133-.844.39-.23.25-.344.618-.344 1.094m0 0"/><path id="am" d="M.688 0v-6.687H2L4.75-2.22v-4.469H6V0H4.64L1.954-4.36V0Zm0 0"/><path id="an" d="M1.578 0 .047-4.844H1.28l.907 3.172.843-3.172h1.235l.812 3.172L6-4.844h1.266L5.703 0H4.47l-.83-3.11L2.813 0Zm0 0"/><path id="ao" d="M.625 0v-6.687h1.281v3.546l1.5-1.703h1.578L3.328-3.078 5.11 0H3.72L2.5-2.172l-.594.625V0Zm0 0"/><path id="ap" d="M.688 0v-6.687H3.53q1.06 0 1.547.187.5.174.781.64.295.457.297 1.048 0 .75-.453 1.25-.44.486-1.312.609.435.252.718.562.281.316.766 1.079L6.703 0H5.078L4.11-1.453c-.343-.52-.586-.848-.718-.984a1.1 1.1 0 0 0-.407-.282q-.203-.076-.671-.078H2.03V0ZM2.03-3.86h1c.645 0 1.047-.023 1.203-.078a.86.86 0 0 0 .391-.28.87.87 0 0 0 .14-.516.75.75 0 0 0-.187-.532.75.75 0 0 0-.5-.265q-.175-.031-.984-.032H2.03Zm0 0"/><path id="aq" d="M5.11 0H3.921v-.719q-.3.424-.703.625a1.85 1.85 0 0 1-.813.203Q1.576.11.984-.562C.586-1.008.391-1.632.391-2.437Q.39-3.667.969-4.313q.574-.639 1.453-.64.809.002 1.406.672v-2.407H5.11ZM1.686-2.531c0 .523.07.898.22 1.125.206.336.5.5.874.5q.435 0 .75-.375.312-.375.313-1.125-.001-.826-.313-1.188a.93.93 0 0 0-.765-.375.98.98 0 0 0-.766.36q-.313.363-.312 1.078m0 0"/><path id="ar" d="M3.86 0v-.719q-.27.375-.704.61a1.96 1.96 0 0 1-.906.218q-.487-.002-.875-.203a1.25 1.25 0 0 1-.562-.61Q.638-1.089.64-1.78v-3.063h1.28v2.219q0 1.032.063 1.266A.74.74 0 0 0 2.25-1q.187.14.484.14a.94.94 0 0 0 .579-.187.93.93 0 0 0 .359-.453q.094-.265.094-1.297v-2.047h1.28V0Zm0 0"/><path id="as" d="M1.625-3.36.469-3.577q.186-.704.672-1.031c.32-.227.797-.344 1.422-.344.57 0 1 .07 1.28.203.282.137.477.309.595.516q.17.315.171 1.14l-.015 1.5q0 .644.062.953.06.3.219.641H3.609a6 6 0 0 1-.125-.375L3.438-.53a2.04 2.04 0 0 1-1.5.64c-.493 0-.883-.132-1.172-.406Q.327-.702.328-1.328q0-.404.188-.719a1.3 1.3 0 0 1 .562-.5q.358-.168 1.016-.297.903-.171 1.25-.312v-.14q0-.359-.188-.517c-.117-.101-.344-.156-.687-.156q-.344 0-.531.14-.189.13-.313.47m1.719 1.032q-.253.081-.781.203-.534.112-.704.219a.53.53 0 0 0-.25.453q0 .27.204.469a.72.72 0 0 0 .515.187c.227 0 .445-.07.656-.219a.9.9 0 0 0 .313-.437q.047-.155.047-.625Zm0 0"/><path id="at" d="M.672 0v-6.687h1.281V0Zm0 0"/><path id="au" d="M.406-3.297Q.404-4.326.72-5.016q.216-.513.61-.921.405-.406.874-.594.622-.265 1.438-.266 1.481.001 2.359.922.89.907.89 2.547 0 1.611-.89 2.531-.879.908-2.344.906c-.992 0-1.781-.3-2.375-.906-.586-.601-.875-1.437-.875-2.5m1.39-.047q0 1.126.517 1.719.527.58 1.343.578.812.001 1.328-.578.516-.574.516-1.734 0-1.155-.516-1.72-.503-.561-1.328-.562c-.562 0-1.015.196-1.36.579q-.501.563-.5 1.718m0 0"/></defs><path fill="#FFE6CC" stroke="#D79B00" stroke-miterlimit="10" stroke-width=".719" d="M359.543 103.863h-16.539l-5.035 5.035v9.348h16.539l5.035-5.035Zm0 0"/><path fill-opacity=".051" d="M359.543 103.863h-16.54l-5.034 5.035h16.539Zm0 0"/><path fill-opacity=".102" d="m359.543 103.863-5.035 5.035v9.348l5.035-5.035Zm0 0"/><path fill="none" stroke="#D79B00" stroke-miterlimit="10" stroke-width=".719" d="M354.508 118.246v-9.348l5.035-5.035m-5.035 5.035h-16.54"/><path fill="#F8CECC" stroke="#B85450" stroke-miterlimit="10" stroke-width=".719" d="M359.543 125.437h-16.539l-5.035 5.032v9.351h16.539l5.035-5.035Zm0 0"/><path fill-opacity=".051" d="M359.543 125.438h-16.54l-5.034 5.03h16.539Zm0 0"/><path fill-opacity=".102" d="m359.543 125.438-5.035 5.03v9.352l5.035-5.035Zm0 0"/><path fill="none" stroke="#B85450" stroke-miterlimit="10" stroke-width=".719" d="M354.508 139.82v-9.351l5.035-5.032m-5.035 5.032h-16.54"/><path fill="#DAE8FC" stroke="#6C8EBF" stroke-miterlimit="10" stroke-width=".719" d="M359.543 147.008h-16.539l-5.035 5.035v9.348h16.539l5.035-5.032Zm0 0"/><path fill-opacity=".051" d="M359.543 147.008h-16.54l-5.034 5.035h16.539Zm0 0"/><path fill-opacity=".102" d="m359.543 147.008-5.035 5.035v9.348l5.035-5.032Zm0 0"/><path fill="none" stroke="#6C8EBF" stroke-miterlimit="10" stroke-width=".719" d="M354.508 161.39v-9.347l5.035-5.035m-5.035 5.035h-16.54"/><path fill="none" stroke="#000" stroke-miterlimit="10" stroke-width=".719" d="m112.715 203.14 23.91-15.101m-37.73 15.101 45.87-151.87M86.648 203.14l-12.582-15.1"/><use xlink:href="#a" x="74.178" y="211.41"/><use xlink:href="#b" x="78.977" y="211.41"/><use xlink:href="#c" x="81.374" y="211.41"/><use xlink:href="#d" x="88.562" y="211.41"/><use xlink:href="#e" x="93.361" y="211.41"/><use xlink:href="#e" x="97.676" y="211.41"/><use xlink:href="#f" x="101.99" y="211.41"/><use xlink:href="#g" x="106.789" y="211.41"/><use xlink:href="#d" x="111.588" y="211.41"/><use xlink:href="#h" x="65.785" y="222.197"/><use xlink:href="#f" x="71.54" y="222.197"/><use xlink:href="#e" x="76.339" y="222.197"/><use xlink:href="#e" x="80.654" y="222.197"/><use xlink:href="#i" x="84.968" y="222.197"/><use xlink:href="#j" x="86.885" y="222.197"/><use xlink:href="#g" x="91.685" y="222.197"/><use xlink:href="#b" x="96.484" y="222.197"/><use xlink:href="#k" x="98.881" y="222.197"/><use xlink:href="#f" x="103.68" y="222.197"/><use xlink:href="#l" x="108.479" y="222.197"/><use xlink:href="#d" x="112.794" y="222.197"/><use xlink:href="#m" x="117.593" y="222.197"/><use xlink:href="#e" x="120.466" y="222.197"/><use xlink:href="#n" x="151.918" y="213.568"/><use xlink:href="#d" x="159.906" y="213.568"/><use xlink:href="#i" x="164.705" y="213.568"/><use xlink:href="#g" x="166.623" y="213.568"/><use xlink:href="#o" x="171.422" y="213.568"/><use xlink:href="#p" x="176.221" y="213.568"/><use xlink:href="#d" x="178.618" y="213.568"/><use xlink:href="#q" x="183.417" y="213.568"/><use xlink:href="#b" x="188.209" y="213.568"/><use xlink:href="#r" x="153.03" y="223.635"/><use xlink:href="#p" x="158.785" y="223.635"/><use xlink:href="#p" x="161.182" y="223.635"/><use xlink:href="#d" x="163.58" y="223.635"/><use xlink:href="#j" x="168.379" y="223.635"/><use xlink:href="#p" x="173.178" y="223.635"/><use xlink:href="#i" x="175.575" y="223.635"/><use xlink:href="#s" x="177.492" y="223.635"/><use xlink:href="#j" x="182.291" y="223.635"/><use xlink:href="#h" x="155.67" y="234.421"/><use xlink:href="#s" x="161.425" y="234.421"/><use xlink:href="#s" x="166.225" y="234.421"/><use xlink:href="#t" x="171.024" y="234.421"/><use xlink:href="#i" x="172.941" y="234.421"/><use xlink:href="#j" x="174.858" y="234.421"/><use xlink:href="#g" x="179.657" y="234.421"/><use xlink:href="#u" x="368.89" y="112.896"/><use xlink:href="#v" x="376.078" y="112.896"/><use xlink:href="#w" x="380.877" y="112.896"/><use xlink:href="#w" x="385.676" y="112.896"/><use xlink:href="#x" x="390.475" y="112.896"/><use xlink:href="#y" x="395.274" y="112.896"/><use xlink:href="#v" x="400.545" y="112.896"/><use xlink:href="#z" x="405.344" y="112.896"/><use xlink:href="#A" x="407.741" y="112.896"/><use xlink:href="#x" x="413.497" y="112.896"/><use xlink:href="#w" x="418.296" y="112.896"/><use xlink:href="#w" x="423.095" y="112.896"/><use xlink:href="#B" x="427.894" y="112.896"/><use xlink:href="#C" x="430.291" y="112.896"/><use xlink:href="#y" x="435.562" y="112.896"/><use xlink:href="#D" x="368.89" y="129.435"/><use xlink:href="#B" x="374.161" y="129.435"/><use xlink:href="#C" x="376.558" y="129.435"/><use xlink:href="#v" x="381.829" y="129.435"/><use xlink:href="#x" x="386.628" y="129.435"/><use xlink:href="#E" x="391.427" y="129.435"/><use xlink:href="#z" x="394.785" y="129.435"/><use xlink:href="#D" x="397.183" y="129.435"/><use xlink:href="#x" x="402.453" y="129.435"/><use xlink:href="#F" x="407.252" y="129.435"/><use xlink:href="#v" x="412.052" y="129.435"/><use xlink:href="#E" x="416.851" y="129.435"/><use xlink:href="#w" x="420.209" y="129.435"/><use xlink:href="#z" x="425.008" y="129.435"/><use xlink:href="#G" x="427.405" y="129.435"/><use xlink:href="#B" x="434.117" y="129.435"/><use xlink:href="#H" x="436.514" y="129.435"/><use xlink:href="#I" x="439.388" y="129.435"/><use xlink:href="#J" x="368.89" y="140.221"/><use xlink:href="#v" x="375.121" y="140.221"/><use xlink:href="#D" x="379.92" y="140.221"/><use xlink:href="#K" x="385.191" y="140.221"/><use xlink:href="#z" x="391.423" y="140.221"/><use xlink:href="#x" x="393.82" y="140.221"/><use xlink:href="#L" x="398.619" y="140.221"/><use xlink:href="#H" x="403.418" y="140.221"/><use xlink:href="#B" x="406.292" y="140.221"/><use xlink:href="#M" x="408.689" y="140.221"/><use xlink:href="#x" x="413.488" y="140.221"/><use xlink:href="#H" x="418.287" y="140.221"/><use xlink:href="#B" x="421.161" y="140.221"/><use xlink:href="#N" x="423.558" y="140.221"/><use xlink:href="#C" x="428.829" y="140.221"/><use xlink:href="#A" x="368.89" y="156.76"/><use xlink:href="#N" x="374.645" y="156.76"/><use xlink:href="#N" x="379.916" y="156.76"/><use xlink:href="#O" x="385.187" y="156.76"/><use xlink:href="#B" x="387.584" y="156.76"/><use xlink:href="#C" x="389.982" y="156.76"/><use xlink:href="#y" x="395.253" y="156.76"/><use xlink:href="#c" x="207.084" y="218.601"/><use xlink:href="#d" x="214.272" y="218.601"/><use xlink:href="#f" x="219.072" y="218.601"/><use xlink:href="#j" x="223.871" y="218.601"/><use xlink:href="#h" x="203.489" y="229.388"/><use xlink:href="#s" x="209.245" y="229.388"/><use xlink:href="#s" x="214.044" y="229.388"/><use xlink:href="#t" x="218.843" y="229.388"/><use xlink:href="#i" x="220.76" y="229.388"/><use xlink:href="#j" x="222.677" y="229.388"/><use xlink:href="#g" x="227.476" y="229.388"/><path fill="#F8CECC" stroke="#B85450" stroke-miterlimit="10" stroke-width=".719" d="M72.629 108.941H58.246l-14.383 14.383v64.715h14.383L72.63 173.66Zm0 0"/><path fill-opacity=".051" d="M72.629 108.941H58.246l-14.383 14.383h14.383Zm0 0"/><path fill-opacity=".102" d="m72.629 108.941-14.383 14.383v64.715L72.63 173.66Zm0 0"/><path fill="none" stroke="#B85450" stroke-miterlimit="10" stroke-width=".719" d="M58.246 188.039v-64.715l14.383-14.383m-14.383 14.383H43.863"/><path fill="#F8CECC" stroke="#B85450" stroke-miterlimit="10" stroke-width=".719" d="M72.629 51.414H58.246L43.863 65.797v50.336h14.383L72.63 101.75Zm0 0"/><path fill-opacity=".051" d="M72.629 51.414H58.246L43.863 65.797h14.383Zm0 0"/><path fill-opacity=".102" d="M72.629 51.414 58.246 65.797v50.336L72.63 101.75Zm0 0"/><path fill="none" stroke="#B85450" stroke-miterlimit="10" stroke-width=".719" d="M58.246 116.133V65.797L72.63 51.414M58.246 65.797H43.863"/><use xlink:href="#P" x="8.135" y="156.041"/><use xlink:href="#P" x="12.934" y="156.041"/><use xlink:href="#Q" x="17.733" y="156.041"/><use xlink:href="#R" x="22.528" y="156.041"/><use xlink:href="#a" x="31.876" y="156.041"/><use xlink:href="#S" x="36.675" y="156.041"/><use xlink:href="#S" x="7.416" y="94.919"/><use xlink:href="#T" x="12.215" y="94.919"/><use xlink:href="#T" x="17.014" y="94.919"/><use xlink:href="#R" x="21.808" y="94.919"/><use xlink:href="#a" x="31.157" y="94.919"/><use xlink:href="#S" x="35.956" y="94.919"/><path fill="none" stroke="#000" stroke-miterlimit="10" stroke-width=".719" d="m43.246 44.223 7.809 14.382"/><use xlink:href="#U" x="13.899" y="30.921"/><use xlink:href="#V" x="19.654" y="30.921"/><use xlink:href="#W" x="27.327" y="30.921"/><use xlink:href="#v" x="32.597" y="30.921"/><use xlink:href="#X" x="37.397" y="30.921"/><use xlink:href="#X" x="42.667" y="30.921"/><use xlink:href="#B" x="47.938" y="30.921"/><use xlink:href="#C" x="50.336" y="30.921"/><use xlink:href="#y" x="55.607" y="30.921"/><use xlink:href="#A" x="16.292" y="41.707"/><use xlink:href="#E" x="22.047" y="41.707"/><use xlink:href="#N" x="25.405" y="41.707"/><use xlink:href="#Y" x="30.676" y="41.707"/><use xlink:href="#v" x="33.074" y="41.707"/><use xlink:href="#L" x="37.873" y="41.707"/><use xlink:href="#H" x="42.672" y="41.707"/><use xlink:href="#B" x="45.545" y="41.707"/><use xlink:href="#N" x="47.943" y="41.707"/><use xlink:href="#C" x="53.214" y="41.707"/><use xlink:href="#z" x="58.482" y="41.707"/><path fill="#FFE6CC" stroke="#D79B00" stroke-miterlimit="10" stroke-width=".719" d="M124.402 44.223h-7.191L66.875 94.559v93.48h7.191l50.336-50.336Zm0 0"/><path fill-opacity=".051" d="M124.402 44.223h-7.191L66.875 94.559h7.191Zm0 0"/><path fill-opacity=".102" d="M124.402 44.223 74.066 94.559v93.48l50.336-50.336Zm0 0"/><path fill="none" stroke="#D79B00" stroke-miterlimit="10" stroke-width=".719" d="M74.066 188.039v-93.48l50.336-50.336M74.066 94.559h-7.191"/><path fill="#DAE8FC" stroke="#6C8EBF" stroke-miterlimit="10" stroke-width=".719" d="M120.805 76.043h-7.188l-28.765 28.762v67.414h7.191l28.762-28.762Zm0 0"/><path fill-opacity=".051" d="M120.805 76.043h-7.188l-28.765 28.762h7.191Zm0 0"/><path fill-opacity=".102" d="m120.805 76.043-28.762 28.762v67.414l28.762-28.762Zm0 0"/><path fill="none" stroke="#6C8EBF" stroke-miterlimit="10" stroke-width=".719" d="M92.043 172.219v-67.414l28.762-28.762m-28.762 28.762h-7.191"/><path fill="#FFE6CC" stroke="#D79B00" stroke-miterlimit="10" stroke-width=".719" d="M158.918 44.223h-7.191L101.39 94.559v93.48h7.191l50.336-50.336Zm0 0"/><path fill-opacity=".051" d="M158.918 44.223h-7.191L101.39 94.559h7.191Zm0 0"/><path fill-opacity=".102" d="m158.918 44.223-50.336 50.336v93.48l50.336-50.336Zm0 0"/><path fill="none" stroke="#D79B00" stroke-miterlimit="10" stroke-width=".719" d="M108.582 188.039v-93.48l50.336-50.336m-50.336 50.336h-7.191"/><path fill="#DAE8FC" stroke="#6C8EBF" stroke-miterlimit="10" stroke-width=".719" d="M156.762 76.043h-7.192l-28.765 28.762v67.414h7.191l28.766-28.762Zm0 0"/><path fill-opacity=".051" d="M156.762 76.043h-7.192l-28.765 28.762h7.191Zm0 0"/><path fill-opacity=".102" d="m156.762 76.043-28.766 28.762v67.414l28.766-28.762Zm0 0"/><path fill="none" stroke="#6C8EBF" stroke-miterlimit="10" stroke-width=".719" d="M127.996 172.219v-67.414l28.766-28.762m-28.766 28.762h-7.191"/><path fill="#FFE6CC" stroke="#D79B00" stroke-miterlimit="10" stroke-width=".719" d="M194.152 44.223h-7.187l-50.336 50.336v93.48h7.187l50.336-50.336Zm0 0"/><path fill-opacity=".051" d="M194.152 44.223h-7.187l-50.336 50.336h7.187Zm0 0"/><path fill-opacity=".102" d="m194.152 44.223-50.336 50.336v93.48l50.336-50.336Zm0 0"/><path fill="none" stroke="#D79B00" stroke-miterlimit="10" stroke-width=".719" d="M143.816 188.039v-93.48l50.336-50.336m-50.336 50.336h-7.187"/><path fill="#DAE8FC" stroke="#6C8EBF" stroke-miterlimit="10" stroke-width=".719" d="M192.246 76.043h-7.191l-28.762 28.762v67.414h7.191l28.762-28.762Zm0 0"/><path fill-opacity=".051" d="M192.246 76.043h-7.191l-28.762 28.762h7.191Zm0 0"/><path fill-opacity=".102" d="m192.246 76.043-28.762 28.762v67.414l28.762-28.762Zm0 0"/><path fill="none" stroke="#6C8EBF" stroke-miterlimit="10" stroke-width=".719" d="M163.484 172.219v-67.414l28.762-28.762m-28.762 28.762h-7.191"/><path fill="#DAE8FC" stroke="#6C8EBF" stroke-miterlimit="10" stroke-width=".719" d="M211.41 86.828h-7.191l-28.762 28.766v43.144h7.191l28.762-28.765Zm0 0"/><path fill-opacity=".051" d="M211.41 86.828h-7.191l-28.762 28.766h7.191Zm0 0"/><path fill-opacity=".102" d="m211.41 86.828-28.762 28.766v43.144l28.762-28.765Zm0 0"/><path fill="none" stroke="#6C8EBF" stroke-miterlimit="10" stroke-width=".719" d="M182.648 158.738v-43.144l28.762-28.766m-28.762 28.766h-7.19"/><path fill="none" stroke="#000" stroke-miterlimit="10" stroke-width=".719" d="m188.039 153.559 15.582 56.773"/><use xlink:href="#Q" x="194.86" y="166.827"/><use xlink:href="#Z" x="199.659" y="166.827"/><use xlink:href="#S" x="204.458" y="166.827"/><use xlink:href="#R" x="209.253" y="166.827"/><use xlink:href="#S" x="218.601" y="166.827"/><use xlink:href="#Q" x="223.4" y="166.827"/><use xlink:href="#aa" x="228.199" y="166.827"/><path fill="#F8CECC" stroke="#B85450" stroke-miterlimit="10" stroke-width=".719" d="M234.422 87.434h-14.383l-14.379 14.382v52.809h14.38l14.382-14.383Zm0 0"/><path fill-opacity=".051" d="M234.422 87.434h-14.383l-14.379 14.382h14.38Zm0 0"/><path fill-opacity=".102" d="m234.422 87.434-14.383 14.382v52.809l14.383-14.383Zm0 0"/><path fill="none" stroke="#B85450" stroke-miterlimit="10" stroke-width=".719" d="M220.04 154.625v-52.809l14.382-14.382m-14.383 14.382H205.66"/><path fill="#F8CECC" stroke="#B85450" stroke-miterlimit="10" stroke-width=".719" d="M261.746 94.625h-14.379l-14.383 14.379v38.652h14.383l14.38-14.383Zm0 0"/><path fill-opacity=".051" d="M261.746 94.625h-14.379l-14.383 14.379h14.383Zm0 0"/><path fill-opacity=".102" d="m261.746 94.625-14.379 14.379v38.652l14.38-14.383Zm0 0"/><path fill="none" stroke="#B85450" stroke-miterlimit="10" stroke-width=".719" d="M247.367 147.656v-38.652l14.38-14.379m-14.38 14.379h-14.383"/><path fill="#F8CECC" stroke="#B85450" stroke-miterlimit="10" stroke-width=".719" d="M286.914 101.816h-14.379l-14.383 14.38v24.269h14.383l14.38-14.38Zm0 0"/><path fill-opacity=".051" d="M286.914 101.816h-14.379l-14.383 14.38h14.383Zm0 0"/><path fill-opacity=".102" d="m286.914 101.816-14.379 14.38v24.269l14.38-14.38Zm0 0"/><path fill="none" stroke="#B85450" stroke-miterlimit="10" stroke-width=".719" d="M272.535 140.465v-24.27l14.38-14.379m-14.38 14.38h-14.383"/><use xlink:href="#S" x="235.848" y="87.009"/><use xlink:href="#Q" x="240.647" y="87.009"/><use xlink:href="#aa" x="245.446" y="87.009"/><use xlink:href="#R" x="250.241" y="87.009"/><use xlink:href="#Z" x="259.589" y="87.009"/><use xlink:href="#S" x="264.388" y="87.009"/><use xlink:href="#ab" x="269.187" y="87.009"/><use xlink:href="#Z" x="247.353" y="154.603"/><use xlink:href="#S" x="252.152" y="154.603"/><use xlink:href="#ab" x="256.951" y="154.603"/><use xlink:href="#R" x="261.746" y="154.603"/><use xlink:href="#S" x="271.094" y="154.603"/><use xlink:href="#Q" x="275.893" y="154.603"/><use xlink:href="#aa" x="280.692" y="154.603"/><path fill="#F8CECC" stroke="#B85450" stroke-miterlimit="10" stroke-width=".719" d="M313.524 95.07H299.14l-14.383 14.383v38.203h14.383l14.383-14.383Zm0 0"/><path fill-opacity=".051" d="M313.523 95.07h-14.382l-14.383 14.383h14.383Zm0 0"/><path fill-opacity=".102" d="m313.523 95.07-14.382 14.383v38.203l14.382-14.383Zm0 0"/><path fill="none" stroke="#B85450" stroke-miterlimit="10" stroke-width=".719" d="M299.14 147.656v-38.203l14.384-14.383m-14.383 14.383h-14.383"/><use xlink:href="#S" x="290.262" y="87.009"/><use xlink:href="#Q" x="295.061" y="87.009"/><use xlink:href="#aa" x="299.86" y="87.009"/><use xlink:href="#R" x="304.655" y="87.009"/><use xlink:href="#S" x="314.003" y="87.009"/><path fill="none" stroke="#000" stroke-miterlimit="10" stroke-width=".719" d="m158.2 203.14 3.218-31.206"/><use xlink:href="#ac" x="99.256" y="11.505"/><use xlink:href="#ad" x="106.007" y="11.505"/><use xlink:href="#ae" x="111.206" y="11.505"/><use xlink:href="#af" x="116.405" y="11.505"/><use xlink:href="#ag" x="121.604" y="11.505"/><use xlink:href="#ah" x="125.241" y="11.505"/><use xlink:href="#ai" x="127.839" y="11.505"/><use xlink:href="#aj" x="133.549" y="11.505"/><use xlink:href="#ak" x="136.662" y="11.505"/><use xlink:href="#ag" x="142.372" y="11.505"/><use xlink:href="#al" x="146.01" y="11.505"/><use xlink:href="#am" x="148.607" y="11.505"/><use xlink:href="#ad" x="155.358" y="11.505"/><use xlink:href="#aj" x="160.557" y="11.505"/><use xlink:href="#an" x="163.67" y="11.505"/><use xlink:href="#ak" x="170.941" y="11.505"/><use xlink:href="#ag" x="176.651" y="11.505"/><use xlink:href="#ao" x="180.289" y="11.505"/><use xlink:href="#ap" x="210.579" y="47.459"/><use xlink:href="#ad" x="217.33" y="47.459"/><use xlink:href="#ae" x="222.529" y="47.459"/><use xlink:href="#ah" x="227.728" y="47.459"/><use xlink:href="#aq" x="230.325" y="47.459"/><use xlink:href="#ar" x="236.035" y="47.459"/><use xlink:href="#as" x="241.746" y="47.459"/><use xlink:href="#at" x="246.945" y="47.459"/><use xlink:href="#al" x="249.542" y="47.459"/><use xlink:href="#au" x="252.139" y="47.459"/><use xlink:href="#ar" x="259.41" y="47.459"/><use xlink:href="#aj" x="265.12" y="47.459"/><use xlink:href="#ai" x="268.233" y="47.459"/><use xlink:href="#ar" x="273.943" y="47.459"/><use xlink:href="#aj" x="279.654" y="47.459"/><use xlink:href="#al" x="282.767" y="47.459"/><use xlink:href="#am" x="285.364" y="47.459"/><use xlink:href="#ad" x="292.115" y="47.459"/><use xlink:href="#aj" x="297.314" y="47.459"/><use xlink:href="#an" x="300.427" y="47.459"/><use xlink:href="#ak" x="307.698" y="47.459"/><use xlink:href="#ag" x="313.408" y="47.459"/><use xlink:href="#ao" x="317.046" y="47.459"/><path fill="none" stroke="#000" stroke-miterlimit="10" stroke-width=".719" d="m153.602 203.14-28.512-30.92m21.12 39.909-57.765-39.91M72.988 22.652a3.6 3.6 0 0 1 3.594-3.597h64.719a3.594 3.594 0 0 0 3.593-3.594 3.6 3.6 0 0 0 3.598 3.594h64.715a3.6 3.6 0 0 1 3.598 3.597m0 35.887a3.563 3.563 0 0 1 3.558-3.566h43.11a3.56 3.56 0 0 0 3.566-3.559 3.554 3.554 0 0 0 3.559 3.559h43.101c.95 0 1.856.382 2.524 1.05a3.54 3.54 0 0 1 1.043 2.516"/></svg>