<svg xmlns="http://www.w3.org/2000/svg" xmlns:xlink="http://www.w3.org/1999/xlink" width="285.12" height="165.12"><defs><path id="d" d="M4.766 0H1.219v-.672h1.36v-4.375h-1.36v-.61q.28 0 .593-.046a1.8 1.8 0 0 0 .485-.125.8.8 0 0 0 .312-.281.85.85 0 0 0 .141-.453h.672v5.89h1.344Zm0 0"/><path id="e" d="M5.125-3.281q-.001 1.769-.547 2.594C4.211-.133 3.641.14 2.86.14Q1.687.142 1.141-.687.608-1.531.609-3.266q-.002-1.746.547-2.578.545-.827 1.703-.828 1.186 0 1.72.844c.362.562.546 1.414.546 2.547m-1.156 2c.101-.239.172-.516.203-.828q.06-.48.062-1.172a10 10 0 0 0-.062-1.14 2.7 2.7 0 0 0-.203-.845 1.2 1.2 0 0 0-.422-.515c-.18-.114-.406-.172-.688-.172a1.3 1.3 0 0 0-.687.172q-.27.176-.422.515a3 3 0 0 0-.203.86 13 13 0 0 0-.047 1.14q0 .69.047 1.157.046.455.203.812.14.344.406.531c.176.118.41.172.703.172.282 0 .508-.054.688-.172q.28-.17.422-.515m0 0"/><path id="f" d="M5.266 0H4.172L2.203-2.156l-.531.515V0H.844v-6.844h.828v4.39l2.39-2.452H5.11L2.83-2.641Zm0 0"/><path id="g" d="M6.703 0h-.86v-5.64L4.017-1.798H3.5L1.688-5.64V0H.875v-6.547h1.188l1.75 3.64L5.5-6.546h1.203Zm0 0"/><path id="h" d="M5.14 0H.704v-.922c.313-.258.617-.52.922-.781q.467-.404.875-.797c.563-.54.945-.973 1.156-1.297q.312-.48.313-1.031-.002-.516-.344-.797c-.219-.195-.531-.297-.937-.297q-.392 0-.86.14a3.3 3.3 0 0 0-.906.438H.875v-.922a4.3 4.3 0 0 1 .828-.28q.514-.142 1.016-.141.998 0 1.562.5.576.486.578 1.312 0 .375-.093.703-.095.316-.282.61-.174.269-.406.53-.22.27-.547.579a27 27 0 0 1-.984.906c-.336.281-.64.547-.922.797h3.516Zm0 0"/><path id="i" d="M5.281-1.844h-.968V0h-.844v-1.844H.344v-1.015L3.5-6.547h.813v4h.968ZM3.47-2.547V-5.5L.938-2.547Zm0 0"/><path id="j" d="M5.234-2.125q0 1.002-.656 1.64-.657.627-1.61.626-.485 0-.89-.141a1.9 1.9 0 0 1-.687-.453 2.4 2.4 0 0 1-.578-.969Q.608-2.03.609-2.875q-.002-.873.172-1.547c.125-.445.328-.844.61-1.187q.375-.499.984-.782.622-.28 1.438-.28.246 0 .421.03.186.02.36.079v.843h-.047a1 1 0 0 0-.36-.125 2.3 2.3 0 0 0-.515-.062q-.937.001-1.5.593-.563.58-.656 1.594.356-.234.718-.344.359-.107.829-.109.419 0 .734.078.328.063.656.297c.258.18.453.406.578.688q.201.41.203.984m-.89.031q-.001-.404-.125-.672a1.34 1.34 0 0 0-.39-.468 1.05 1.05 0 0 0-.454-.172 3 3 0 0 0-.516-.047q-.375 0-.703.094-.316.08-.656.265c0 .063-.008.125-.016.188v.219q0 .704.141 1.109.154.392.406.625.201.188.438.281c.156.063.32.094.5.094q.638 0 1-.39.375-.388.375-1.126m0 0"/><path id="k" d="M2.156 0H1.11v-1.25h1.047Zm0 0"/><path id="l" d="M6.297 0h-1.14L2.968-2.61H1.75V0H.875v-6.547h1.844q.591 0 .984.078.387.082.703.282.358.222.563.562.201.345.203.86c0 .468-.121.867-.36 1.187a2.3 2.3 0 0 1-.984.719ZM4.266-4.703c0-.188-.04-.352-.11-.5a.8.8 0 0 0-.328-.36 1.05 1.05 0 0 0-.453-.187 3.4 3.4 0 0 0-.61-.047H1.75v2.469h.875q.421 0 .719-.063.31-.075.531-.28.188-.189.281-.423c.07-.156.11-.36.11-.61m0 0"/><path id="m" d="M4.922-2.375h-3.61q-.001.457.125.797.142.329.375.547c.157.148.336.258.547.328q.312.094.688.094.497 0 1-.188.514-.2.734-.406h.047v.906q-.423.175-.86.297c-.292.07-.593.11-.905.11q-1.22 0-1.907-.657Q.468-1.202.47-2.422q0-1.201.656-1.906.657-.717 1.734-.719.984.002 1.516.578.546.58.547 1.657ZM4.125-3q-.017-.655-.344-1-.313-.359-.969-.36c-.449 0-.804.133-1.062.391A1.5 1.5 0 0 0 1.313-3Zm0 0"/><path id="n" d="M4.625 0h-.812v-.516q-.111.064-.297.204-.187.126-.375.218a2.6 2.6 0 0 1-.47.157Q2.404.14 2.048.14q-.673 0-1.14-.438Q.45-.747.452-1.422q0-.562.235-.906.247-.341.687-.547.45-.186 1.078-.25.62-.077 1.36-.125v-.125a.86.86 0 0 0-.11-.453.7.7 0 0 0-.281-.297A1.1 1.1 0 0 0 3-4.265a3.3 3.3 0 0 0-1.25.063 6 6 0 0 0-.812.233H.89v-.828a6 6 0 0 1 .703-.156q.45-.077.89-.078a3.8 3.8 0 0 1 .907.093c.257.055.484.149.672.282q.281.203.421.531.141.316.141.797Zm-.812-1.203v-1.375l-.907.078q-.503.033-.797.125a1.23 1.23 0 0 0-.578.313c-.148.136-.218.328-.218.578q-.001.422.25.64.247.204.78.203.434.001.798-.156.355-.17.672-.406m0 0"/><path id="o" d="M1.64 0H.829v-6.844h.813Zm0 0"/><path id="q" d="M5.156-4.562q-.002.438-.156.812a1.8 1.8 0 0 1-.422.64 2.15 2.15 0 0 1-.797.5c-.304.118-.687.172-1.156.172H1.75V0H.875v-6.547h1.781c.395 0 .727.04 1 .11.27.062.508.164.719.296q.374.251.578.625.201.377.203.954m-.906.015q-.001-.327-.125-.578a.93.93 0 0 0-.344-.422 2 2 0 0 0-.484-.187 3.3 3.3 0 0 0-.688-.063H1.75v2.61h.734q.53 0 .86-.094.327-.093.531-.297.2-.201.281-.438.094-.233.094-.53m0 0"/><path id="r" d="M3.875-4.016h-.047a7 7 0 0 0-.36-.046 2.5 2.5 0 0 0-.405-.032 1.7 1.7 0 0 0-.735.172 3.6 3.6 0 0 0-.687.438V0H.813v-4.906h.828v.718c.32-.257.609-.44.859-.546q.388-.171.781-.172c.133 0 .235.008.297.015.07 0 .172.012.297.032Zm0 0"/><path id="s" d="M7.969 0h-.813v-2.797q0-.31-.031-.61A1.4 1.4 0 0 0 7-3.874a.6.6 0 0 0-.297-.281c-.125-.07-.305-.11-.531-.11q-.364 0-.703.188-.346.175-.688.437.014.094.016.235.014.127.016.265V0h-.829v-2.797q0-.328-.03-.61a1.4 1.4 0 0 0-.126-.468.6.6 0 0 0-.281-.281c-.125-.07-.309-.11-.547-.11q-.346.001-.687.172a6 6 0 0 0-.672.422V0H.813v-4.906h.828v.547c.257-.22.515-.383.765-.5q.388-.188.828-.188.498 0 .844.219.357.204.516.578.513-.421.922-.61.404-.186.89-.187.797.001 1.172.5.388.486.39 1.36Zm0 0"/><path id="t" d="M1.703-5.734H.766v-.86h.937ZM1.641 0H.828v-4.906h.813Zm0 0"/><path id="u" d="M3.36-.047a4 4 0 0 1-.516.094q-.269.047-.485.047-.752.002-1.14-.406Q.828-.718.829-1.61v-2.61H.265v-.687h.562v-1.407h.828v1.407H3.36v.687H1.656v2.235q-.001.391.016.609.012.22.125.406a.62.62 0 0 0 .266.266c.113.055.285.078.515.078q.2 0 .422-.062.218-.059.313-.094h.046Zm0 0"/><path id="v" d="M5.063-4.906 3.077 0h-.844L.266-4.906h.906L2.688-1l1.5-3.906Zm0 0"/><path id="w" d="M5.063-4.906 2.188 1.813h-.876L2.22-.235.266-4.906h.906l1.5 3.64 1.515-3.64Zm0 0"/><path id="x" d="M3.188 0H.608v-.672h.844v-5.203H.61v-.672h2.579v.672h-.86v5.203h.86Zm0 0"/><path id="y" d="M4.797-.562Q4.795.685 4.219 1.266q-.562.592-1.735.593-.39-.002-.765-.062a4.6 4.6 0 0 1-.735-.156V.797h.047q.2.093.64.203c.29.07.583.11.876.11q.421 0 .703-.094a.95.95 0 0 0 .438-.282Q3.84.56 3.906.313q.062-.234.063-.532v-.453q-.377.3-.719.453-.344.14-.86.14Q1.5-.076.985-.702.47-1.341.47-2.5c0-.426.054-.79.172-1.094.125-.3.289-.566.5-.797a1.9 1.9 0 0 1 .687-.484q.404-.17.813-.172.435 0 .718.094.282.082.61.25l.047-.203h.78Zm-.828-.782V-4.03a3.6 3.6 0 0 0-.61-.203 3 3 0 0 0-.562-.063q-.691 0-1.078.453-.391.456-.39 1.328 0 .831.28 1.25.295.423.97.422.355.002.718-.125.374-.141.672-.375m0 0"/><path id="z" d="M4.922 0h-.828v-2.797a4 4 0 0 0-.047-.64 1.05 1.05 0 0 0-.14-.454.7.7 0 0 0-.313-.28 1.3 1.3 0 0 0-.547-.095q-.328.001-.703.172a4.7 4.7 0 0 0-.703.422V0H.813v-4.906h.828v.547a3 3 0 0 1 .797-.5q.42-.188.843-.188.797.002 1.219.484.422.471.422 1.375Zm0 0"/><path id="A" d="M5.906-6.734h-3.86v2.156H5.36v.906H2.047V0H1.03v-7.64h4.875Zm0 0"/><path id="B" d="M4.516-4.672h-.047a2.6 2.6 0 0 0-.422-.078 8 8 0 0 0-.469-.016q-.456.002-.875.204-.41.188-.797.5V0H.953v-5.734h.953v.859q.575-.468 1.016-.656.434-.201.89-.203.264.002.376.015.106.018.328.047Zm0 0"/><path id="C" d="M5.75-2.766H1.516q-.001.535.156.922.171.394.453.64.263.253.625.376c.25.086.52.125.813.125q.574 0 1.171-.235.592-.234.844-.468h.047v1.062q-.485.204-1 .344c-.336.094-.687.14-1.062.14Q2.14.143 1.342-.624q-.795-.78-.796-2.203-.001-1.405.766-2.234.761-.828 2.015-.829 1.154 0 1.781.688.64.675.641 1.922ZM4.797-3.5q0-.761-.375-1.172c-.25-.281-.633-.422-1.14-.422-.524 0-.938.157-1.25.469q-.457.457-.516 1.125Zm0 0"/><path id="D" d="M5.594 2.11h-.969V-.64q-.44.375-.89.562a2.4 2.4 0 0 1-.938.187c-.688 0-1.235-.257-1.64-.78q-.61-.797-.61-2.173c0-.488.07-.922.219-1.297.144-.382.332-.703.562-.953q.34-.374.797-.578.452-.218.969-.219a3.14 3.14 0 0 1 1.531.407l.063-.25h.906Zm-.969-3.563v-3.25a3.7 3.7 0 0 0-.703-.234 3 3 0 0 0-.672-.079q-.832 0-1.266.563-.438.564-.437 1.562-.001 1.002.344 1.547Q2.249-.81 3-.812q.422.002.844-.172.42-.188.781-.47m0 0"/><path id="E" d="M5.703 0h-.969v-.64q-.486.393-.937.593a2.4 2.4 0 0 1-.985.203Q1.905.158 1.407-.39c-.336-.363-.5-.906-.5-1.625v-3.718h.969v3.265q-.002.44.031.75.047.316.188.532a.76.76 0 0 0 .344.328q.233.093.656.093.357 0 .797-.187.45-.2.843-.5v-4.281h.97Zm0 0"/><path id="F" d="M5.734 0h-.968v-3.266q0-.387-.047-.734a1.3 1.3 0 0 0-.157-.547.72.72 0 0 0-.375-.312 1.55 1.55 0 0 0-.625-.11q-.393.002-.828.203a4.7 4.7 0 0 0-.828.485V0H.953v-5.734h.953v.64q.452-.374.938-.578.48-.218.984-.219.937 0 1.422.563.482.564.484 1.61Zm0 0"/><path id="G" d="M5.188-.36a6 6 0 0 1-.922.36 3.7 3.7 0 0 1-2.062-.047 2.25 2.25 0 0 1-.876-.562 2.5 2.5 0 0 1-.594-.922Q.531-2.107.531-2.86q-.001-1.407.766-2.203.78-.797 2.047-.797.499 0 .969.14.466.14.875.328v1.079h-.063a3.8 3.8 0 0 0-.906-.532 2.4 2.4 0 0 0-.907-.187q-.832 0-1.312.562-.469.55-.469 1.61 0 1.047.469 1.609.469.549 1.313.547.28.001.578-.078.311-.075.547-.203.216-.106.406-.22.187-.123.281-.218h.063Zm0 0"/><path id="H" d="M5.906-5.734 2.563 2.109H1.53L2.594-.28.313-5.734h1.046l1.766 4.25 1.766-4.25Zm0 0"/><path id="J" d="M4.016 2.11H2.844A8.2 8.2 0 0 1 1.422-.157c-.336-.82-.5-1.75-.5-2.781 0-1.02.164-1.942.5-2.766a8.5 8.5 0 0 1 1.422-2.281h1.172v.062a6.5 6.5 0 0 0-.797.86q-.376.485-.703 1.14-.301.628-.5 1.39a6.6 6.6 0 0 0-.188 1.595q0 .877.188 1.609.186.736.5 1.39.31.622.703 1.126.405.513.797.875Zm0 0"/><path id="K" d="M6.86 0H5.843v-3.734H2.047V0H1.03v-7.64h1.016v3h3.797v-3h1.015Zm0 0"/><path id="L" d="M5.094 0H.484v-.719l3.329-4.203H.547v-.812h4.469v.687L1.656-.812h3.438Zm0 0"/><path id="M" d="M3.844-2.937c0 1.03-.172 1.96-.516 2.78A8 8 0 0 1 1.922 2.11H.75v-.046a6.3 6.3 0 0 0 .797-.876A7 7 0 0 0 2.25.063c.207-.438.375-.899.5-1.391a6.5 6.5 0 0 0 .188-1.61q0-.843-.188-1.593a6.8 6.8 0 0 0-1.203-2.532q-.375-.482-.797-.859v-.062h1.172q.902 1.05 1.406 2.28.516 1.238.516 2.766m0 0"/><path id="N" d="M-3.812-7.469q1.048.002 1.89.453.844.456 1.313 1.204.328.515.468 1.171Q0-3.996 0-2.953v1.922h-7.64v-1.906q0-1.11.171-1.766.157-.668.438-1.125.487-.78 1.297-1.203.814-.437 1.922-.438m-.016 1.063q-.891 0-1.5.312a2.4 2.4 0 0 0-.984.922 3.3 3.3 0 0 0-.344.969c-.07.336-.11.734-.11 1.203v.953h5.891V-3q.001-.732-.11-1.266a3.1 3.1 0 0 0-.39-1.015 2.35 2.35 0 0 0-.969-.844q-.592-.28-1.484-.281m0 0"/><path id="O" d="M-6.687-1.984v1.093h-1v-1.093ZM0-1.922v.969h-5.734v-.969Zm0 0"/><path id="P" d="M-2.766-5.75v4.234q.535.001.922-.156.394-.171.64-.453.253-.263.376-.625c.086-.25.125-.52.125-.812q0-.575-.235-1.172-.234-.592-.468-.844v-.047h1.062q.204.485.344 1 .14.502.14 1.063.002 1.422-.765 2.218-.78.798-2.203.797c-.938 0-1.68-.254-2.234-.765q-.828-.762-.829-2.016 0-1.154.688-1.781.675-.64 1.922-.641Zm-.734.953q-.761 0-1.172.375c-.281.25-.422.633-.422 1.14 0 .524.157.938.469 1.25q.457.457 1.125.516Zm0 0"/><path id="Q" d="M0-1.922v.969h-7.984v-.969Zm0 0"/><path id="R" d="M-.36-5.187q.236.487.36.921.124.44.125.922c0 .406-.059.79-.172 1.14a2.25 2.25 0 0 1-.562.876 2.5 2.5 0 0 1-.922.594q-.576.204-1.328.203-1.407.001-2.203-.766-.797-.78-.797-2.047 0-.499.14-.969.14-.466.328-.875h1.079v.063a3.8 3.8 0 0 0-.532.906 2.4 2.4 0 0 0-.187.907q0 .832.562 1.312.55.47 1.61.469 1.047 0 1.609-.469.549-.468.547-1.312.001-.281-.078-.579a2.3 2.3 0 0 0-.203-.546 6 6 0 0 0-.22-.407 2 2 0 0 0-.218-.281v-.062Zm0 0"/><path id="S" d="M-.047-3.922c.043.18.078.375.11.594q.046.316.046.562 0 .892-.468 1.344c-.313.305-.817.453-1.516.453h-3.047v.657h-.812V-.97h-1.641v-.968h1.64v-1.985h.813v1.985h2.61q.455.001.718-.016a1 1 0 0 0 .469-.14.64.64 0 0 0 .297-.313q.094-.2.094-.61 0-.233-.063-.484a4 4 0 0 0-.125-.375v-.047Zm0 0"/><path id="T" d="M-4.672-4.516v.047q-.06.224-.078.422a8 8 0 0 0-.016.469q.002.456.204.875.188.41.5.797H0v.953h-5.734v-.953h.859q-.468-.575-.656-1.016a2.1 2.1 0 0 1-.203-.89q.002-.264.015-.376.018-.106.047-.328Zm0 0"/><path id="V" d="M-.547-6.922q.113.282.219.516.111.22.234.593.094.315.157.688.077.363.078.797a4.8 4.8 0 0 1-.235 1.516q-.232.674-.734 1.171c-.32.336-.734.594-1.235.782-.5.18-1.082.265-1.75.265q-.935.002-1.671-.265-.75-.263-1.266-.766a3.06 3.06 0 0 1-.75-1.172 4.2 4.2 0 0 1-.266-1.531c0-.414.055-.828.157-1.234q.14-.61.515-1.36h1.203v.078c-.351.418-.609.836-.765 1.25a3.6 3.6 0 0 0-.25 1.328q0 .58.187 1.047c.125.305.32.578.578.828q.393.346.985.547.58.204 1.343.203c.543 0 1.008-.07 1.391-.218q.58-.217.938-.563.375-.358.562-.844.188-.481.188-1.015.001-.732-.25-1.375a3.7 3.7 0 0 0-.766-1.188v-.078Zm0 0"/><path id="W" d="M-2.86-5.828q1.395.002 2.204.719.813.72.812 1.922 0 1.22-.812 1.937-.81.703-2.203.703-1.405 0-2.22-.703c-.538-.477-.812-1.125-.812-1.937 0-.801.274-1.442.813-1.922.543-.477 1.281-.72 2.219-.72m0 1q-1.106.002-1.656.437-.545.423-.546 1.204 0 .785.546 1.218.55.439 1.657.438 1.077 0 1.64-.438.549-.433.547-1.218.002-.763-.547-1.204-.563-.435-1.64-.437m0 0"/><path id="X" d="M0-5.734v.968h-3.266q-.387 0-.734.047-.341.034-.547.157a.72.72 0 0 0-.312.375 1.55 1.55 0 0 0-.11.625q.002.393.203.828c.125.28.29.558.485.828H0v.953h-5.734v-.953h.64q-.374-.452-.578-.938a2.4 2.4 0 0 1-.219-.984q0-.937.563-1.422.564-.482 1.61-.484Zm0 0"/><path id="Y" d="M-1.656-5.047q.798 0 1.297.656c.336.43.5 1.016.5 1.766 0 .43-.055.82-.157 1.172q-.151.533-.328.89h-1.078v-.046c.23-.313.414-.649.547-1.016a3.1 3.1 0 0 0 .203-1.078q.001-.638-.203-1a.72.72 0 0 0-.656-.36q-.328.002-.516.204-.168.188-.297.75a7 7 0 0 0-.094.53q-.058.33-.14.61-.201.751-.578 1.063-.389.314-.953.312-.357 0-.672-.14a1.6 1.6 0 0 1-.563-.438 2.3 2.3 0 0 1-.375-.734q-.14-.45-.14-1 .001-.516.125-1.031.128-.529.297-.876h1.03v.047q-.263.377-.452.907a3 3 0 0 0-.188 1.03q.002.534.203.892.206.361.594.359c.242 0 .418-.07.531-.219.125-.144.227-.375.297-.687q.066-.282.125-.61c.043-.219.078-.398.11-.547q.156-.668.53-1.03c.25-.25.587-.376 1-.376m0 0"/><path id="Z" d="M0-5.406v.968h-.61c.063.086.15.2.25.344q.159.224.235.422c.086.156.148.344.203.563q.077.315.078.718c0 .524-.164.965-.5 1.329q-.515.531-1.312.53-.655 0-1.063-.28a1.8 1.8 0 0 1-.625-.797q-.233-.529-.312-1.25a19 19 0 0 1-.125-1.578h-.156q-.328 0-.532.125A.9.9 0 0 0-4.812-4a1.4 1.4 0 0 0-.157.5 3.6 3.6 0 0 0-.047.594c0 .261.04.547.11.86q.093.455.281.952v.047h-.984a8 8 0 0 1-.157-.812 6 6 0 0 1-.093-1.047q0-.608.093-1.047.096-.452.344-.781c.156-.22.36-.383.61-.5q.376-.171.921-.172Zm-1.406.968H-3q.02.439.078 1.047.047.598.14.938.13.409.376.672.25.251.672.25.504 0 .75-.297c.168-.195.25-.5.25-.906q0-.5-.203-.922a4.6 4.6 0 0 0-.47-.781m0 0"/><path id="aa" d="M-.328-5.156q.253.55.36 1.078.107.533.109 1.11 0 .408-.094.827-.076.423-.281.782a1.6 1.6 0 0 1-.532.578q-.327.22-.796.219a1.36 1.36 0 0 1-.86-.282q-.374-.294-.578-.922h-.031a1.44 1.44 0 0 1-.453.75q-.342.282-.813.282-.467 0-.766-.235a1.9 1.9 0 0 1-.468-.593 2.8 2.8 0 0 1-.25-.735 4.6 4.6 0 0 1-.078-.828q0-.498.078-.922.082-.42.234-.875h1.063v.063q-.265.345-.407.843a3.4 3.4 0 0 0-.156 1q.001.237.031.438.035.205.141.422a.9.9 0 0 0 .25.312.64.64 0 0 0 .39.125q.317 0 .485-.14a.86.86 0 0 0 .25-.391 1.7 1.7 0 0 0 .094-.5v-1.109h.844v.812q0 .315.03.578.018.252.11.469a.67.67 0 0 0 .281.328c.125.086.29.125.485.125.18 0 .336-.039.468-.125a1 1 0 0 0 .297-.344 1.6 1.6 0 0 0 .141-.453 3 3 0 0 0 .047-.547c0-.343-.055-.71-.172-1.109q-.187-.607-.516-.969v-.062Zm0 0"/><path id="ae" d="M0-5.86v4.829h-7.64v-1.016h6.734v-3.812Zm0 0"/><path id="af" d="M2.11-4.016v1.172A8.2 8.2 0 0 1-.157-1.422c-.82.336-1.75.5-2.781.5-1.02 0-1.942-.164-2.766-.5a8.5 8.5 0 0 1-2.281-1.422v-1.172h.062c.25.282.54.547.86.797q.485.376 1.14.703.628.301 1.39.5.75.188 1.595.188.877 0 1.609-.188.736-.186 1.39-.5.622-.31 1.126-.703a7.5 7.5 0 0 0 .875-.797Zm0 0"/><path id="ag" d="M-2.828-5.844c.93 0 1.656.242 2.187.719q.798.704.797 1.922 0 1.237-.765 1.953-.779.703-2.125.703c-.477 0-.883-.07-1.22-.219a2.6 2.6 0 0 1-.843-.546 2.6 2.6 0 0 1-.578-.813 3.8 3.8 0 0 1-.297-.937q-.327.39-.672.859a57 57 0 0 0-.718.984h-.922v-4.156h.812V-2.5h.063q.234-.342.64-.906.392-.576.813-1.063.704-.763 1.343-1.062c.43-.207.922-.313 1.485-.313m0 1q-.685 0-1.266.282a2.86 2.86 0 0 0-1.031.843q.034.345.156.719a2.3 2.3 0 0 0 .407.703q.251.329.703.547.439.22 1.093.219 1.033 0 1.563-.438.532-.436.531-1.234 0-.797-.531-1.219-.546-.422-1.625-.422m0 0"/><path id="ah" d="M-2.937-3.844c1.03 0 1.96.172 2.78.516A8 8 0 0 1 2.11-1.922V-.75h-.046a6.3 6.3 0 0 0-.876-.797A7 7 0 0 0 .063-2.25a7.6 7.6 0 0 0-1.391-.5 6.5 6.5 0 0 0-1.61-.187q-.843 0-1.593.187a6.8 6.8 0 0 0-2.532 1.203q-.482.375-.859.797h-.062v-1.172q1.05-.902 2.28-1.406 1.238-.516 2.766-.516m0 0"/><path id="ab" d="M-3.266-3.156v.031q-.044.157-.062.297a4 4 0 0 0-.016.328q0 .316.14.61.143.281.36.546H0v.688h-4v-.688h.594a2.7 2.7 0 0 1-.453-.703A1.5 1.5 0 0 1-4-2.672c0-.113.008-.195.016-.25q.002-.076.015-.234Zm0 0"/><path id="ac" d="M-1.937-4.016v2.954q.374 0 .656-.11.269-.106.437-.312.174-.187.266-.438c.055-.176.078-.363.078-.562q.001-.404-.156-.813-.17-.421-.328-.61v-.03h.734q.157.345.25.703.094.346.094.734 0 1.001-.531 1.563-.546.562-1.547.562-.985 0-1.547-.531-.576-.544-.578-1.422 0-.81.468-1.25.47-.437 1.344-.438Zm-.516.657q-.53.001-.813.265-.294.27-.296.797 0 .549.328.875c.21.211.468.328.78.36Zm0 0"/><path id="ad" d="M0-1.344v.672h-5.578v-.672Zm0 0"/><path id="ai" d="M7.266-2.516q0 .61-.235 1.079c-.148.312-.351.57-.61.765a2.9 2.9 0 0 1-1.03.516C5.023-.051 4.563 0 4 0H1.094v-8.172h2.422c.601 0 1.05.024 1.343.063q.45.065.86.265.435.235.64.61c.133.25.204.547.204.89 0 .387-.102.719-.297 1a1.9 1.9 0 0 1-.782.64v.048q.828.174 1.297.734c.32.367.485.836.485 1.406M5.438-6.203c0-.195-.04-.363-.11-.5a.76.76 0 0 0-.312-.328 1.6 1.6 0 0 0-.625-.172 7 7 0 0 0-.907-.047H2.188v2.36h1.406q.515 0 .812-.048a1.8 1.8 0 0 0 .563-.218q.247-.17.36-.422.107-.263.109-.625M6.14-2.47q-.002-.5-.157-.781c-.093-.195-.273-.363-.53-.5a1.7 1.7 0 0 0-.641-.172 8 8 0 0 0-.922-.047H2.188v3.047h1.437A7 7 0 0 0 4.797-1q.45-.076.75-.281a1.3 1.3 0 0 0 .437-.469q.155-.28.157-.719m0 0"/><path id="aj" d="M2.125-7.156H.969v-1.078h1.156ZM2.063 0H1.03v-6.14h1.032Zm0 0"/><path id="am" d="M7.078 0H.688v-1.016l5.015-6.203H.875v-.953h6.078v.969L1.891-.97h5.187Zm0 0"/><path id="an" d="M4.844-5.016h-.047a4 4 0 0 0-.453-.062 4 4 0 0 0-.516-.031 2.04 2.04 0 0 0-.922.218 4.5 4.5 0 0 0-.86.532V0h-1.03v-6.14h1.03v.906q.624-.481 1.095-.688.468-.218.953-.219c.176 0 .304.008.39.016q.124.016.36.063Zm0 0"/><path id="ao" d="M7.203-7.234q.497.548.766 1.343.264.8.265 1.797 0 1.018-.28 1.813-.27.797-.75 1.344A3.4 3.4 0 0 1 6-.11c-.46.183-.984.28-1.578.28a4.3 4.3 0 0 1-1.563-.28 3.4 3.4 0 0 1-1.203-.828q-.485-.547-.765-1.344C.71-2.812.625-3.414.625-4.094c0-.664.086-1.258.266-1.781q.264-.796.78-1.36.469-.545 1.188-.827.717-.282 1.563-.282c.594 0 1.117.102 1.578.297a3.4 3.4 0 0 1 1.203.813m-.11 3.14q-.001-1.593-.718-2.453c-.469-.57-1.117-.86-1.937-.86-.836 0-1.493.29-1.97.86q-.702.86-.702 2.453-.001 1.612.718 2.469.734.86 1.954.86 1.217 0 1.937-.86.717-.856.719-2.469m0 0"/><path id="al" d="M4.5 0H.625v-.797q.387-.357.797-.703.403-.341.766-.687.731-.715 1-1.126.28-.418.28-.921-.001-.436-.296-.688-.298-.248-.813-.25a2.6 2.6 0 0 0-.765.125q-.411.112-.797.375H.766v-.812q.262-.14.718-.25c.313-.07.61-.11.891-.11q.873 0 1.375.422.499.423.5 1.156 0 .329-.078.61a1.8 1.8 0 0 1-.25.531q-.143.235-.344.469a8 8 0 0 1-.5.515 16 16 0 0 1-.844.782q-.438.375-.812.703H4.5Zm0 0"/><path id="ap" d="M4.516-4.875 1.922 0h-.828l2.765-5.047H.594v-.672h3.922Zm0 0"/><clipPath id="a"><path d="M36 2h213.75v59H36Zm0 0"/></clipPath><clipPath id="b"><path d="M36 86h213.75v41H36Zm0 0"/></clipPath><clipPath id="c"><path d="M36 6h213.75v118H36Zm0 0"/></clipPath></defs><path fill="#FFF" d="M0 0h285v165H0Zm0 0"/><path fill="#FFF" d="M36 .75h213.75V129H36Zm0 0"/><path fill="none" stroke="#D3D3D3" stroke-width=".75" d="M65.879.75V129M108.629.75V129M151.379.75V129M194.129.75V129M236.879.75V129M36 92.797h213.75M36 61.934h213.75M36 31.078h213.75"/><path fill="none" stroke="#EBF0F8" stroke-width="1.5" d="M36 123.652h213.75"/><g clip-path="url(#a)"><path fill="none" stroke="#636EFA" stroke-miterlimit="2" stroke-width="1.5" d="m36 7.164 1.078.305 1.031 1.238 1.125.617 1.055 1.235 1.074.152 1.078.93 9.579 6.629 1.066.617 4.305 2.472 1.058.618 8.512 4.32 1.191.465 3.164 1.535 1.075.465 11.722 4.785 1.078.308 28.875 8.48 1.075.161 7.437 1.695 1.031.157 7.52 1.543 1.074.152 37.41 5.25 1.078.148 6.383.465 1.082.153 8.543.77h1.07l7.442.624h1.191l7.36.613h1.078l9.62.465 1.09.153 11.75.464 1.09.157 15 .457 1.02.16 5.34.148"/></g><g clip-path="url(#b)"><path fill="none" stroke="#00008B" stroke-miterlimit="2" stroke-width="1.5" d="m36 90.48 3.234 2.47 1.055.929 3.172 2.465 1.09.457 2.152 1.398 1.063.614 18.113 8.023 1.082.309 22.492 5.476 1.063.188 17.086 2.617 1.027.14 33.172 3.196 1.09.074 36.328 2.043 1.05.043 43.817 1.312 1.078.016 24.586.336"/></g><g clip-path="url(#c)"><path fill="#FF8C00" d="m36.574 6.68 1.172 1.398.227.668-1.418.488-.184-.539.707-.242-.574.48-1.078-1.288Zm2.13 4.195.112.336-.707.242.668-.34.86 1.692-1.336.68-.887-1.739-.129-.387Zm1.952 3.934.336.66.446 1.597-1.446.403-.426-1.528.723-.199-.668.34-.3-.594Zm1.383 4.425.047.172-.723.2.703-.254.704 1.953-1.41.508-.712-1.981-.054-.195Zm1.754 3.532.25.21 1.11 1.876-1.294.761-1.043-1.765.645-.38-.484.571-.153-.129Zm2.504 4.023 1.14 1.938-1.289.761-1.144-1.937Zm2.203 3.594.973.789.433 1.383-1.43.449-.367-1.168.715-.223-.472.582-.797-.644Zm2.082 4.32.04.121-.716.223.469-.586 1.066.855.59.489-.953 1.16-.578-.477-1.242-1-.106-.336Zm2.945 3.067.196.316-.637.398.61-.441 1.093 1.523-1.215.88-1.113-1.548-.211-.336Zm2.582 3.77.868 1.757-.676.332.57-.488.191.218-1.14.977-.25-.293-.91-1.844Zm2.414 3.53 1.465 1.707-1.14.977-1.461-1.711Zm2.93 3.414 1.461 1.711-1.137.977-1.465-1.711Zm2.926 3.418 1.465 1.711-1.14.977-1.466-1.711Zm2.926 3.418.226.262-.57.488.437-.61 1.254.9.348.378-1.102 1.02-.296-.324.55-.508-.437.61-1.266-.911-.281-.328Zm3.222 3.075 1.356 1.468.183.223-1.152.96-.172-.206.574-.48-.55.507-1.344-1.457Zm2.993 3.218 1.726 1.446-.965 1.148-1.722-1.445Zm3.449 2.89 1.726 1.446-.965 1.149-1.726-1.446Zm3.449 2.892 1.723 1.445-.961 1.148-1.727-1.445Zm3.45 2.89 1.722 1.445-.961 1.149-1.727-1.445Zm3.374 2.543.422.168 1.606 1.176-.891 1.21-1.524-1.12.446-.606-.274.7-.336-.133Zm3.84 2.676 1.813 1.332-.887 1.21-1.817-1.331Zm3.547 2.437.504.207 1.531 1.075-.86 1.226-1.464-1.023.43-.617-.286.695-.43-.18Zm3.879 2.57.976.684-.433.614.277-.696.984.387-.546 1.395-1.07-.418-1.048-.735Zm3.851 2.192.301.184-.39.64.277-.695 1.133.45.691.421-.781 1.281-.637-.39.39-.64-.277.698-1.132-.449-.352-.215Zm3.86 2.04.648.257 1.434.867-.778 1.285-1.382-.84.39-.64-.277.7-.594-.24Zm3.922 2.226 1.078.469 1 .496-.668 1.343-.98-.488.331-.672-.297.688-1.058-.457Zm4.093 1.96 2.016 1-.668 1.344-2.016-1Zm4.032 2 .328.16-.332.673.3-.688 1.079.473-.301.687.281-.695.656.266-.566 1.39-.66-.27-1.11-.484-.34-.168Zm4.093 1.72 2.086.843-.562 1.39-2.086-.843Zm4.172 1.69 2.086.845-.562 1.39-2.086-.844Zm4.172 1.688 2.086.844-.562 1.39-2.086-.843Zm4.172 1.692 2.086.844-.566 1.39-2.083-.844Zm4.168 1.687 2.086.844-.563 1.39-2.086-.843Zm4.144 1.617 2.141.704-.469 1.425-2.14-.703Zm4.278 1.407 2.137.703-.47 1.426-2.136-.704Zm4.273 1.406 2.137.703-.469 1.426-2.136-.703Zm4.274 1.406 2.113.695-.234.711.21-.718.028.007-.426 1.442-.035-.012-2.125-.699Zm4.261 1.29 2.18.562-.379 1.453-2.18-.567Zm4.356 1.128 2.176.567-.375 1.453-2.18-.567Zm4.355 1.133 2.176.566-.375 1.454-2.18-.567Zm4.356 1.133 2.176.566-.375 1.45-2.18-.563Zm4.355 1.133 2.176.566-.375 1.45-2.18-.567Zm4.356 1.132 1.633.422-.188.727.149-.735.55.114-.3 1.469-.57-.118-1.653-.43Zm4.347.977 2.207.445-.3 1.473-2.203-.45Zm4.41.894 2.208.446-.301 1.469-2.203-.446Zm4.41.895 2.208.445-.297 1.47-2.207-.446Zm4.41.895 1.161.234-.148.734.117-.742 1.023.168-.12.738.1-.742.036.004-.207 1.488-.043-.007-1.043-.168-1.172-.239Zm4.4.703 2.226.312-.207 1.485-2.227-.309Zm4.456.62 2.227.31-.207 1.484-2.227-.309Zm4.457.618 2.227.309-.207 1.488-2.227-.313Zm4.457.621 2.227.309-.203 1.484-2.23-.309Zm4.457.617 2.227.309-.203 1.484-2.23-.308Zm4.422.555.032.004 2.214.195-.132 1.492-2.207-.191-.032-.004Zm4.489.394 2.238.196-.129 1.496-2.242-.195Zm4.48.395 2.242.195-.133 1.496-2.238-.199Zm4.484.39 2.239.2-.13 1.492-2.241-.195Zm4.47.376 2.241.152-.097 1.496-2.246-.152Zm4.488.3 1.113.075-.102 1.496-1.113-.075Zm0 0"/></g><path fill="none" stroke="#000" stroke-width=".75" d="M35.25 129.375H250.5M35.25.375H250.5M35.625.75V129M250.125.75V129m0-128.25V129M35.625.75V129"/><path fill="none" stroke="#444" stroke-width=".75" d="M65.879 129.75v3.75m42.75-3.75v3.75m42.75-3.75v3.75m42.75-3.75v3.75m42.75-3.75v3.75"/><g fill="#2A3F5F"><use xlink:href="#d" x="57.297" y="144.3"/><use xlink:href="#e" x="63.019" y="144.3"/><use xlink:href="#e" x="68.741" y="144.3"/></g><g fill="#2A3F5F"><use xlink:href="#d" x="97.187" y="144.3"/><use xlink:href="#e" x="102.908" y="144.3"/><use xlink:href="#e" x="108.63" y="144.3"/><use xlink:href="#e" x="114.352" y="144.3"/></g><g fill="#2A3F5F"><use xlink:href="#d" x="142.995" y="144.3"/><use xlink:href="#e" x="148.717" y="144.3"/><use xlink:href="#f" x="154.439" y="144.3"/></g><g fill="#2A3F5F"><use xlink:href="#d" x="182.884" y="144.3"/><use xlink:href="#e" x="188.606" y="144.3"/><use xlink:href="#e" x="194.328" y="144.3"/><use xlink:href="#f" x="200.049" y="144.3"/></g><g fill="#2A3F5F"><use xlink:href="#d" x="230.227" y="144.3"/><use xlink:href="#g" x="235.948" y="144.3"/></g><path fill="none" stroke="#444" stroke-width=".75" d="M35.25 123.652H31.5m3.75-30.855H31.5m3.75-30.863H31.5m3.75-30.856H31.5"/><use xlink:href="#e" x="23.978" y="126.802" fill="#2A3F5F"/><g fill="#2A3F5F"><use xlink:href="#h" x="18.257" y="95.947"/><use xlink:href="#e" x="23.978" y="95.947"/></g><g fill="#2A3F5F"><use xlink:href="#i" x="18.257" y="65.085"/><use xlink:href="#e" x="23.978" y="65.085"/></g><g fill="#2A3F5F"><use xlink:href="#j" x="18.257" y="34.23"/><use xlink:href="#e" x="23.978" y="34.23"/></g><path fill="none" stroke="#FF8C00" stroke-width=".75" d="M250.5 129h3.75m-3.75-42.898h3.75M250.5 43.2h3.75"/><use xlink:href="#e" x="256.05" y="132.15" fill="#FF8C00"/><g fill="#FF8C00"><use xlink:href="#e" x="256.05" y="89.25"/><use xlink:href="#k" x="261.772" y="89.25"/><use xlink:href="#d" x="265.046" y="89.25"/></g><g fill="#FF8C00"><use xlink:href="#e" x="256.05" y="46.35"/><use xlink:href="#k" x="261.772" y="46.35"/><use xlink:href="#h" x="265.046" y="46.35"/></g><g fill="#2A3F5F"><use xlink:href="#l" x="144" y="15.135"/><use xlink:href="#m" x="150.258" y="15.135"/><use xlink:href="#n" x="155.619" y="15.135"/><use xlink:href="#o" x="161.024" y="15.135"/><use xlink:href="#p" x="163.494" y="15.135"/><use xlink:href="#q" x="166.658" y="15.135"/><use xlink:href="#m" x="172.085" y="15.135"/><use xlink:href="#r" x="177.447" y="15.135"/><use xlink:href="#s" x="181.288" y="15.135"/><use xlink:href="#t" x="190.041" y="15.135"/><use xlink:href="#u" x="192.511" y="15.135"/><use xlink:href="#u" x="196.058" y="15.135"/><use xlink:href="#t" x="199.604" y="15.135"/><use xlink:href="#v" x="202.074" y="15.135"/><use xlink:href="#t" x="207.4" y="15.135"/><use xlink:href="#u" x="209.87" y="15.135"/><use xlink:href="#w" x="213.416" y="15.135"/></g><path fill="none" stroke="#636EFA" stroke-width="1.5" d="M117.75 11.625h22.5"/><g fill="#2A3F5F"><use xlink:href="#x" x="144" y="29.385"/><use xlink:href="#s" x="147.788" y="29.385"/><use xlink:href="#n" x="156.542" y="29.385"/><use xlink:href="#y" x="161.947" y="29.385"/><use xlink:href="#t" x="167.555" y="29.385"/><use xlink:href="#z" x="170.024" y="29.385"/><use xlink:href="#n" x="175.72" y="29.385"/><use xlink:href="#r" x="181.125" y="29.385"/><use xlink:href="#w" x="184.966" y="29.385"/><use xlink:href="#p" x="190.292" y="29.385"/><use xlink:href="#q" x="193.456" y="29.385"/><use xlink:href="#m" x="198.883" y="29.385"/><use xlink:href="#r" x="204.245" y="29.385"/><use xlink:href="#s" x="208.085" y="29.385"/><use xlink:href="#t" x="216.839" y="29.385"/><use xlink:href="#u" x="219.309" y="29.385"/><use xlink:href="#u" x="222.855" y="29.385"/><use xlink:href="#t" x="226.402" y="29.385"/><use xlink:href="#v" x="228.872" y="29.385"/><use xlink:href="#t" x="234.198" y="29.385"/><use xlink:href="#u" x="236.667" y="29.385"/><use xlink:href="#w" x="240.214" y="29.385"/></g><path fill="none" stroke="#00008B" stroke-width="1.5" d="M117.75 25.875h22.5"/><g fill="#2A3F5F"><use xlink:href="#A" x="102.287" y="162.75"/><use xlink:href="#B" x="108.322" y="162.75"/><use xlink:href="#C" x="112.803" y="162.75"/><use xlink:href="#D" x="119.058" y="162.75"/><use xlink:href="#E" x="125.6" y="162.75"/><use xlink:href="#C" x="132.244" y="162.75"/><use xlink:href="#F" x="138.499" y="162.75"/><use xlink:href="#G" x="145.144" y="162.75"/><use xlink:href="#H" x="150.614" y="162.75"/><use xlink:href="#I" x="156.828" y="162.75"/><use xlink:href="#J" x="160.519" y="162.75"/><use xlink:href="#K" x="165.287" y="162.75"/><use xlink:href="#L" x="173.178" y="162.75"/><use xlink:href="#M" x="178.694" y="162.75"/></g><g fill="#2A3F5F"><use xlink:href="#N" x="10.5" y="123.948"/><use xlink:href="#O" x="10.5" y="115.858"/><use xlink:href="#P" x="10.5" y="112.977"/><use xlink:href="#Q" x="10.5" y="106.722"/><use xlink:href="#P" x="10.5" y="103.84"/><use xlink:href="#R" x="10.5" y="97.585"/><use xlink:href="#S" x="10.5" y="92.115"/><use xlink:href="#T" x="10.5" y="87.978"/><use xlink:href="#O" x="10.5" y="83.497"/><use xlink:href="#R" x="10.5" y="80.615"/><use xlink:href="#U" x="10.5" y="75.145"/><use xlink:href="#V" x="10.5" y="71.453"/><use xlink:href="#W" x="10.5" y="64.122"/><use xlink:href="#X" x="10.5" y="57.749"/><use xlink:href="#Y" x="10.5" y="51.105"/><use xlink:href="#S" x="10.5" y="45.634"/><use xlink:href="#Z" x="10.5" y="41.497"/><use xlink:href="#X" x="10.5" y="35.19"/><use xlink:href="#S" x="10.5" y="28.546"/><use xlink:href="#U" x="10.5" y="24.408"/><use xlink:href="#aa" x="10.5" y="20.717"/><use xlink:href="#U" x="10.5" y="15.334"/></g><use xlink:href="#ab" x="12.705" y="15.334" fill="#2A3F5F"/><g fill="#2A3F5F"><use xlink:href="#ac" x="12.705" y="12.197"/><use xlink:href="#ad" x="12.705" y="7.819"/></g><use xlink:href="#U" x="10.5" y="5.802" fill="#2A3F5F"/><g fill="#FF8C00"><use xlink:href="#N" x="282.75" y="121.051"/><use xlink:href="#O" x="282.75" y="112.961"/><use xlink:href="#P" x="282.75" y="110.079"/><use xlink:href="#Q" x="282.75" y="103.824"/><use xlink:href="#P" x="282.75" y="100.943"/><use xlink:href="#R" x="282.75" y="94.688"/><use xlink:href="#S" x="282.75" y="89.218"/><use xlink:href="#T" x="282.75" y="85.08"/><use xlink:href="#O" x="282.75" y="80.599"/><use xlink:href="#R" x="282.75" y="77.718"/><use xlink:href="#U" x="282.75" y="72.248"/><use xlink:href="#ae" x="282.75" y="68.556"/><use xlink:href="#W" x="282.75" y="62.711"/><use xlink:href="#Y" x="282.75" y="56.339"/><use xlink:href="#Y" x="282.75" y="50.868"/><use xlink:href="#U" x="282.75" y="45.398"/><use xlink:href="#S" x="282.75" y="41.706"/><use xlink:href="#Z" x="282.75" y="37.569"/><use xlink:href="#X" x="282.75" y="31.263"/><use xlink:href="#af" x="282.75" y="24.618"/><use xlink:href="#ag" x="282.75" y="19.85"/><use xlink:href="#ah" x="282.75" y="13.467"/></g><g fill="#2A3F5F"><use xlink:href="#ai" x="119.261" y="81.75"/><use xlink:href="#aj" x="126.973" y="81.75"/><use xlink:href="#ak" x="130.06" y="81.75"/></g><use xlink:href="#al" x="130.06" y="84.112" fill="#2A3F5F"/><use xlink:href="#ak" x="135.067" y="81.75" fill="#2A3F5F"/><g fill="#2A3F5F"><use xlink:href="#am" x="135.067" y="81.75"/><use xlink:href="#an" x="142.774" y="81.75"/><use xlink:href="#ak" x="147.575" y="81.75"/></g><use xlink:href="#al" x="147.575" y="84.112" fill="#2A3F5F"/><use xlink:href="#ak" x="152.581" y="81.75" fill="#2A3F5F"/><g fill="#2A3F5F"><use xlink:href="#ao" x="152.581" y="81.75"/><use xlink:href="#ak" x="161.436" y="81.75"/></g><use xlink:href="#ap" x="161.436" y="84.112" fill="#2A3F5F"/><use xlink:href="#ak" x="166.442" y="81.75" fill="#2A3F5F"/></svg>