<svg xmlns="http://www.w3.org/2000/svg" xmlns:xlink="http://www.w3.org/1999/xlink" width="285.12" height="165.12"><defs><path id="d" d="M11.14-.5Q9.53 2.312 7.89 3.11q-1.628.794-3.468-.266-1.875-1.08-1.969-2.89c-.062-1.22.438-2.743 1.5-4.579Q5.547-7.39 7.188-8.203q1.639-.826 3.484.234c1.238.719 1.89 1.696 1.953 2.922q.093 1.828-1.484 4.547M7.485 1.61c.375-.282.739-.665 1.094-1.141.352-.469.735-1.063 1.14-1.781q.622-1.06.985-1.891.356-.844.438-1.516.06-.684-.22-1.187c-.179-.344-.483-.645-.921-.907-.437-.25-.855-.367-1.25-.359q-.58.016-1.14.438-.535.376-1.11 1.156-.562.783-1.125 1.766-.627 1.095-.984 1.874A5 5 0 0 0 3.97-.453q-.097.685.17 1.219.262.528.953.922.654.386 1.25.375.59-.02 1.14-.454m0 0"/><path id="e" d="m3.438 1.984-1.672-.968L2.922-.97 4.594 0Zm0 0"/><path id="f" d="M9.906 1.86Q9.123 3.2 7.546 3.5q-1.563.293-3.14-.625Q2.718 1.905 2.22.453q-.488-1.452.297-2.828.497-.855 1.406-1.266.902-.42 2.062-.296l.032-.047c-.399-.614-.625-1.176-.688-1.688q-.093-.764.375-1.562.67-1.171 2.078-1.391c.946-.156 1.914.055 2.907.625q1.56.909 2.046 2.188.497 1.266-.171 2.421-.41.706-1.235 1.141c-.555.293-1.187.398-1.906.313l-.031.03q.749.987.906 1.907.153.904-.39 1.86m1.281-6.032q.423-.749.094-1.516-.314-.78-1.203-1.296-.879-.514-1.687-.407-.799.096-1.203.813a1.6 1.6 0 0 0-.235 1.031q.077.533.5 1.14.17.27.531.75.374.488.766.876.95-.046 1.5-.39a2.86 2.86 0 0 0 .938-1M8.392 1.156c.25-.43.351-.824.312-1.187q-.065-.562-.656-1.422c-.156-.219-.34-.445-.547-.688-.21-.25-.484-.57-.828-.968a3.04 3.04 0 0 0-1.547.343c-.48.25-.86.618-1.14 1.094q-.551.957-.25 1.938.293.997 1.296 1.578 1.014.576 1.922.39.92-.175 1.438-1.078m0 0"/><path id="g" d="m10.656 6.156-1.39-.797 5.172-8.953L8.03.828 7.203.344l.656-7.735-5.171 8.954L1.39.813l6-10.391L9.28-8.5l-.578 7.406 6.031-4.25 1.922 1.11Zm0 0"/><path id="h" d="M11.5-1.11c-.523.907-1.102 1.665-1.734 2.282q-.94.92-2.032 1.344-1.077.45-2.296.328-1.221-.127-2.5-.875a4.6 4.6 0 0 1-.672-.438 6 6 0 0 1-.5-.437l.78-1.328.079.03c.082.15.227.317.438.517q.325.31.78.578 1.53.89 2.938.468Q8.201.95 9.297-.609A6.3 6.3 0 0 1 7.734-.75q-.675-.17-1.343-.562a5.5 5.5 0 0 1-1.094-.782 3.6 3.6 0 0 1-.75-1.094 3.2 3.2 0 0 1-.313-1.624q.077-.843.594-1.75.919-1.595 2.547-1.97 1.623-.385 3.14.47.749.437 1.25 1.046c.344.399.583.844.72 1.344q.262.926.062 2.016-.205 1.094-1.047 2.547m-1.234-1.109q.622-1.089.78-1.875.172-.778-.015-1.375a2.4 2.4 0 0 0-.453-.843 2.7 2.7 0 0 0-.734-.61Q8.84-7.496 7.89-7.203c-.637.187-1.172.664-1.61 1.422-.25.437-.398.836-.437 1.187q-.05.533.218 1.094.188.41.516.703.342.282.813.547.527.315 1.172.484a5 5 0 0 0 1.312.172c.063-.093.117-.187.172-.281q.091-.14.219-.344m0 0"/><path id="i" d="m7.563 4.375-5.625-3.25.609-1.062 2.156 1.25 4.031-6.97-2.156-1.25.547-.937q.434.252.984.469.547.206.875.234.436.002.766-.156.343-.17.625-.61l1.078.626-5.406 9.36 2.125 1.233Zm0 0"/><path id="j" d="M8.156 4.719 1.125.656l.844-1.469q1.09-.186 2.187-.39 1.108-.217 2.11-.469c1.382-.351 2.39-.687 3.015-1a3.5 3.5 0 0 0 1.453-1.36q.469-.809.188-1.577c-.18-.52-.578-.961-1.203-1.328A6 6 0 0 0 8.203-7.5a6.8 6.8 0 0 0-1.844-.156l-.078-.047.844-1.453q.64.046 1.578.328.95.27 1.719.703 1.606.924 2.062 2.219c.313.867.211 1.742-.296 2.625q-.33.58-.782 1.015a4 4 0 0 1-1 .704 9 9 0 0 1-1.14.5q-.61.205-1.407.406-1.19.3-2.375.547-1.188.23-2.218.406L8.844 3.53Zm0 0"/><path id="k" d="M9.406-6c0 2.156-.34 3.742-1.015 4.75Q7.37.25 5.25.25c-1.437 0-2.492-.508-3.156-1.531Q1.11-2.81 1.109-5.984q-.001-3.2 1-4.72 1.014-1.53 3.141-1.53 2.156 0 3.156 1.547c.664 1.03 1 2.593 1 4.687M7.281-2.344a5.3 5.3 0 0 0 .375-1.531c.07-.594.11-1.3.11-2.125 0-.82-.04-1.531-.11-2.125q-.093-.904-.375-1.531-.282-.621-.781-.938-.487-.311-1.25-.312-.751 0-1.25.312-.502.316-.781.953-.283.597-.39 1.563a22 22 0 0 0-.095 2.094q0 1.254.094 2.109.095.845.375 1.5c.176.43.426.75.75.969q.5.327 1.297.328.762.002 1.266-.313.497-.31.765-.953m0 0"/><path id="l" d="M8.734 0h-6.5v-1.219h2.5v-8.047h-2.5v-1.093q.515.002 1.094-.079.576-.092.875-.25a1.5 1.5 0 0 0 .578-.515q.216-.312.25-.828h1.25V-1.22h2.453Zm0 0"/><path id="m" d="M9.422 0H1.297v-1.687q.843-.717 1.687-1.438.856-.732 1.594-1.453 1.546-1.499 2.11-2.375a3.45 3.45 0 0 0 .578-1.906q-.002-.937-.625-1.47c-.407-.35-.977-.53-1.703-.53q-.74.001-1.594.265a6.3 6.3 0 0 0-1.672.781h-.078V-11.5q.575-.281 1.531-.516a7.7 7.7 0 0 1 1.844-.234q1.84 0 2.89.89 1.046.892 1.047 2.422 0 .675-.172 1.266-.176.598-.515 1.125a7.6 7.6 0 0 1-.735.984 21 21 0 0 1-1.014 1.08 48 48 0 0 1-1.797 1.64c-.607.53-1.173 1.023-1.704 1.468h6.453Zm0 0"/><path id="n" d="M8.36-5.781q.387.346.64.875c.164.343.25.797.25 1.36a3.8 3.8 0 0 1-.297 1.5q-.299.69-.844 1.187a3.9 3.9 0 0 1-1.421.843A5.8 5.8 0 0 1 4.906.25 8.3 8.3 0 0 1 2.938.016Q1.965-.22 1.344-.5v-1.687h.125a6.3 6.3 0 0 0 1.61.75 5.8 5.8 0 0 0 1.78.296 3.6 3.6 0 0 0 1.079-.171q.574-.172.937-.5.373-.359.547-.782.187-.421.187-1.078-.001-.64-.218-1.062a1.6 1.6 0 0 0-.563-.672 2.3 2.3 0 0 0-.875-.344 6 6 0 0 0-1.11-.094H4.11v-1.328h.579q1.217 0 1.937-.516.733-.514.734-1.5 0-.433-.187-.75a1.5 1.5 0 0 0-.516-.546 2.5 2.5 0 0 0-.734-.282 4 4 0 0 0-.89-.093q-.769 0-1.641.28a7.3 7.3 0 0 0-1.625.767h-.079v-1.672q.575-.282 1.532-.516a7.4 7.4 0 0 1 1.844-.25q.89.001 1.546.172a3.9 3.9 0 0 1 1.22.515q.574.377.874.922c.195.368.297.793.297 1.282q0 1.001-.703 1.75-.704.75-1.672.937v.11q.387.063.89.28.5.207.844.5m0 0"/><path id="o" d="M3.969 0H2.03v-2.297h1.94Zm0 0"/><path id="p" d="M9.328-3.812c0 .562-.105 1.101-.312 1.609q-.317.767-.844 1.281a4.1 4.1 0 0 1-1.375.875C6.266.148 5.645.25 4.937.25c-.656 0-1.289-.07-1.89-.203a7.4 7.4 0 0 1-1.547-.5v-1.703h.125c.438.281.945.523 1.531.719q.89.297 1.75.296.575.001 1.11-.156a2.4 2.4 0 0 0 .953-.578q.356-.341.531-.828.188-.481.188-1.11-.001-.623-.22-1.046a1.64 1.64 0 0 0-.593-.688q-.408-.31-1.016-.437a6.7 6.7 0 0 0-1.343-.125q-.704.002-1.36.109c-.437.063-.82.125-1.14.188V-12h7.218v1.406H3.578v3.203q.34-.03.703-.046c.25-.008.461-.016.64-.016q.967 0 1.704.172a3.9 3.9 0 0 1 1.344.562 3.2 3.2 0 0 1 1 1.157q.358.704.36 1.75m0 0"/><clipPath id="a"><path d="M42.75.75h193.5V49H42.75Zm0 0"/></clipPath><clipPath id="b"><path d="M42.75.75h193.5V105H42.75Zm0 0"/></clipPath><clipPath id="c"><path d="M42.75 5h193.5v92H42.75Zm0 0"/></clipPath></defs><path fill="#FFF" d="M0 0h285v165H0Zm0 0"/><path fill="#FFF" d="M42.75.75h193.5V105H42.75Zm0 0"/><path fill="none" stroke="#D3D3D3" stroke-width=".75" d="M45.742.75V105M95.227.75V105M139.5.75V105M179.55.75V105M216.105.75V105M42.75 76.36h193.5M42.75 47.723h193.5M42.75 19.078h193.5"/><g clip-path="url(#a)"><path fill="none" stroke="#EF553B" stroke-miterlimit="2" stroke-width="4.5" d="M-3827.25-2084.25h299.45l524.163 1201.164 23.895 31.508 581.078 515.52 24.023 11.456 531.59 190.457 24.227 5.446 774.082 107.683 24.601 2.004 701.375 37.524 24.293.851 290.063 8.02 24.148.578 242.739 4.867 24.359.285 143.91 2.266"/></g><g clip-path="url(#b)"><path fill="none" stroke="#8B0000" stroke-miterlimit="2" stroke-width="4.5" d="M-3827.25-2084.25h536.488l238.195 765.84 24.391 48.683 532.656 753.239 23.766 20.047 507.984 322.203 24.36 9.734 604.125 156.375 24.562 3.727 677.575 65.011 23.136 1.145 484.336 19.644 24.54.688 265.116 6.25 26.872.457 239.894 3.89"/></g><g clip-path="url(#c)"><path fill="#FF8C00" d="M-3825 5.96v4.5h-4.5v-4.5Zm0 9v2.216h-2.25l.043-2.25 2.289.043-.09 4.5-4.492-.086V14.96Zm4.578.099 4.5.086-.086 4.5-4.5-.09Zm9 .171 4.5.086-.086 4.5-4.5-.086Zm9 .176 4.496.086-.086 4.5-4.5-.09Zm8.996.172 4.5.09-.086 4.496-4.5-.086Zm9 .176 4.5.086-.09 4.5-4.5-.086Zm8.996.172 4.5.09-.086 4.496-4.5-.086Zm9 .176 4.5.085-.09 4.5-4.496-.085Zm8.996.175 4.5.086-.086 4.5-4.5-.09Zm9 .172 4.5.086-.086 4.5-4.5-.086Zm9 .176 4.497.086-.086 4.5-4.5-.09Zm8.997.172 4.5.09-.086 4.496-4.5-.086Zm9 .176 4.5.086-.09 4.5-4.5-.086Zm8.996.172 4.5.09-.086 4.495-4.5-.085Zm9 .175 4.5.086-.09 4.5-4.496-.086Zm8.996.176 4.5.086-.086 4.5-4.5-.09Zm9 .172 4.5.086-.086 4.5-4.5-.086Zm9 .176 4.496.086-.086 4.5-4.5-.09Zm8.996.172 4.5.09-.086 4.496-4.5-.086Zm9 .175 4.496.086-.086 4.5-4.5-.086Zm8.996.172 4.5.09-.086 4.496-4.5-.086Zm9 .176 4.5.086-.09 4.5-4.496-.086Zm8.996.176 4.5.086-.086 4.5-4.5-.09Zm9 .172 4.5.086-.09 4.5-4.496-.086Zm9 .175 4.496.086-.086 4.5-4.5-.09Zm8.996.172 4.5.09-.086 4.496-4.5-.086Zm9 .176 4.5.086-.09 4.5-4.5-.086Zm8.996.172 4.5.09-.086 4.496-4.5-.086Zm9 .176 4.5.086-.09 4.5-4.496-.086Zm8.996.176 4.5.086-.086 4.5-4.5-.09Zm9 .171 4.5.086-.09 4.5-4.496-.086Zm9 .176 4.496.086-.086 4.5-4.5-.09Zm8.996.172 4.5.09-.086 4.496-4.5-.086Zm9 .176 4.5.086-.09 4.5-4.5-.086Zm8.996.172 4.5.09-.086 4.496-4.5-.086Zm9 .176 4.5.085-.09 4.5-4.495-.085Zm8.997.171 4.5.09-.086 4.5-4.5-.09Zm9 .176 4.5.086-.09 4.5-4.496-.086Zm9 .176 4.496.086-.086 4.5-4.5-.09Zm8.996.172 4.5.086-.086 4.5-4.5-.086Zm9 .176 4.496.086-.086 4.5-4.5-.086Zm8.996.172 4.5.09-.086 4.495-4.5-.085Zm9 .175 4.5.086-.09 4.5-4.5-.086Zm8.996.172 4.5.09-.086 4.5-4.5-.09Zm9 .176 4.5.086-.09 4.5-4.496-.086Zm9 .176 4.496.086-.086 4.5-4.5-.09Zm8.996.172 4.5.086-.086 4.5-4.5-.086Zm9 .175 4.496.086-.086 4.5-4.5-.086Zm8.996.172 4.5.09-.086 4.496-4.5-.086Zm9 .176 4.5.086-.09 4.5-4.5-.086Zm8.996.172 4.5.09-.086 4.5-4.5-.09Zm9 .176 4.5.086-.09 4.5-4.496-.086Zm8.996.175 4.5.086-.086 4.5-4.5-.09Zm9 .172 4.5.086-.086 4.5-4.5-.086Zm9 .176 4.496.086-.086 4.5-4.5-.086Zm8.996.172 4.5.09-.086 4.496-4.5-.086Zm9 .176 4.5.086-.09 4.5-4.5-.086Zm8.996.172 4.5.09-.086 4.5-4.5-.09Zm9 .175 4.5.086-.09 4.5-4.496-.086Zm8.996.176 4.5.086-.085 4.5-4.5-.09Zm9 .172 4.5.086-.09 4.5-4.495-.086Zm9 .176 4.497.086-.086 4.5-4.5-.086Zm8.997.172 4.5.09-.086 4.496-4.5-.086Zm9 .176 4.5.085-.09 4.5-4.5-.085Zm8.996.171 4.5.09-.086 4.5-4.5-.09Zm9 .176 4.5.086-.09 4.5-4.496-.086Zm8.996.176 4.5.086-.086 4.5-4.5-.09Zm9 .172 4.5.086-.09 4.5-4.496-.086Zm9 .176 4.496.086-.086 4.5-4.5-.086Zm8.996.172 4.5.09-.086 4.495-4.5-.085Zm9 .175 4.496.086-.086 4.5-4.5-.086Zm8.996.172 4.5.09-.086 4.5-4.5-.09Zm9 .176 4.5.086-.09 4.5-4.496-.086Zm8.996.176 4.5.086-.086 4.5-4.5-.09Zm9 .172 4.5.086-.09 4.5-4.496-.086Zm9 .175 4.496.086-.086 4.5-4.5-.086Zm8.996.172 4.5.09-.086 4.496-4.5-.086Zm9 .176 4.496.086-.086 4.5-4.5-.086Zm8.996.172 4.5.09-.086 4.5-4.5-.09Zm9 .176 4.5.086-.09 4.5-4.5-.086Zm8.996.175 4.5.086-.086 4.5-4.5-.09Zm9 .172 4.5.086-.09 4.5-4.496-.086Zm9 .176 4.496.086-.086 4.5-4.5-.086Zm8.996.172 4.5.09-.086 4.496-4.5-.086Zm9 .176 4.497.086-.086 4.5-4.5-.086Zm8.997.172 4.5.09-.086 4.5-4.5-.09Zm9 .175 4.5.086-.09 4.5-4.5-.086Zm8.996.176 4.5.086-.086 4.5-4.5-.09Zm9 .172 4.5.086-.09 4.5-4.496-.086Zm9 .176 4.496.086-.086 4.5-4.5-.086Zm8.996.172 4.5.09-.086 4.496-4.5-.086Zm9 .176 4.496.085-.086 4.5-4.5-.085Zm8.996.171 4.5.09-.086 4.5-4.5-.09Zm9 .176 4.5.086-.09 4.5-4.496-.086Zm8.996.176 4.5.086-.086 4.5-4.5-.09Zm9 .172 4.5.086-.09 4.5-4.496-.086Zm9 .176 4.496.086-.086 4.5-4.5-.086Zm8.996.172 4.5.09-.086 4.495-4.5-.085Zm9 .175 4.496.086-.086 4.5-4.5-.086Zm8.996.172 4.5.09-.086 4.5-4.5-.09Zm9 .176 4.5.086-.09 4.5-4.5-.086Zm8.996.176 4.5.086-.086 4.5-4.5-.09Zm9 .172 4.5.086-.09 4.5-4.496-.086Zm8.996.175 4.5.086-.086 4.5-4.5-.086Zm9 .172 4.5.09-.086 4.496-4.5-.086Zm9 .176 4.496.086-.086 4.5-4.5-.086Zm8.996.172 4.5.09-.086 4.5-4.5-.09Zm9 .176 4.5.086-.09 4.5-4.5-.086Zm8.996.175 4.5.086-.086 4.5-4.5-.09Zm9 .172 4.5.086-.09 4.5-4.495-.086Zm8.997.176 4.5.086-.086 4.5-4.5-.086Zm9 .172 4.5.09-.086 4.496-4.5-.086Zm9 .176 4.496.086-.086 4.5-4.5-.086Zm8.996.172 4.5.09-.086 4.5-4.5-.09Zm9 .175 4.5.086-.09 4.5-4.5-.086Zm8.996.176 4.5.086-.086 4.5-4.5-.09Zm9 .172 4.5.086-.09 4.5-4.496-.086Zm8.996.176 4.5.086-.086 4.5-4.5-.086Zm9 .172 4.5.09-.09 4.496-4.496-.086Zm9 .176 4.496.086-.086 4.5-4.5-.086Zm8.996.171 4.5.09-.086 4.5-4.5-.09Zm9 .176 4.5.086-.09 4.5-4.5-.086Zm8.996.176 4.5.086-.086 4.5-4.5-.09Zm9 .172 4.5.086-.09 4.5-4.496-.086Zm8.996.176 4.5.086-.086 4.5-4.5-.09Zm9 .172 4.5.09-.09 4.495-4.496-.085Zm9 .175 4.496.086-.086 4.5-4.5-.086Zm8.996.172 4.5.09-.086 4.496-4.5-.086Zm9 .176 4.5.086-.09 4.5-4.5-.086Zm8.996.176 4.5.086-.086 4.5-4.5-.09Zm9 .172 4.5.086-.09 4.5-4.496-.086Zm8.996.175 4.5.086-.086 4.5-4.5-.09Zm9 .172 4.5.09-.09 4.496-4.496-.086Zm9 .176 4.496.086-.085 4.5-4.5-.086Zm8.996.172 4.5.09-.085 4.496-4.5-.086Zm9 .176 4.497.086-.086 4.5-4.5-.086Zm8.997.175 4.5.086-.086 4.5-4.5-.09Zm9 .172 4.5.086-.09 4.5-4.496-.086Zm8.996.176 4.5.086-.086 4.5-4.5-.09Zm9 .172 4.5.09-.09 4.496-4.496-.086Zm9 .176 4.496.086-.086 4.5-4.5-.086Zm8.996.172 4.5.09-.086 4.496-4.5-.086Zm9 .175 4.496.086-.086 4.5-4.5-.086Zm8.996.176 4.5.086-.086 4.5-4.5-.09Zm9 .172 4.5.086-.09 4.5-4.496-.086Zm8.996.176 4.5.086-.086 4.5-4.5-.09Zm9 .172 4.5.09-.09 4.496-4.496-.086Zm9 .176 4.496.086-.086 4.5-4.5-.086Zm8.996.171 4.5.09-.086 4.496-4.5-.086Zm9 .176 4.496.086-.086 4.5-4.5-.086Zm8.996.176 4.5.086-.086 4.5-4.5-.09Zm9 .172 4.5.086-.09 4.5-4.5-.086Zm8.996.176 4.5.086-.086 4.5-4.5-.09Zm9 .172 4.5.09-.09 4.495-4.496-.085Zm8.996.175 4.5.086-.086 4.5-4.5-.086Zm9 .172 4.5.09-.086 4.496-4.5-.086Zm9 .176 4.496.086-.086 4.5-4.5-.086Zm8.996.176 4.5.086-.086 4.5-4.5-.09Zm9 .172 4.5.086-.09 4.5-4.5-.086Zm8.997.175 4.5.086-.086 4.5-4.5-.09Zm9 .172 4.5.09-.09 4.496-4.496-.086Zm8.996.176 4.5.086-.086 4.5-4.5-.086Zm9 .172 4.5.09-.09 4.496-4.496-.086Zm9 .176 4.496.086-.086 4.5-4.5-.086Zm8.996.175 4.5.086-.086 4.5-4.5-.09Zm9 .172 4.5.086-.09 4.5-4.5-.086Zm8.996.176 4.5.086-.086 4.5-4.5-.09Zm9 .172 4.5.09-.09 4.496-4.496-.086Zm8.996.176 4.5.086-.086 4.5-4.5-.086Zm9 .172 4.5.09-.09 4.496-4.496-.086Zm9 .175 4.496.086-.086 4.5-4.5-.086Zm8.996.176 4.5.086-.086 4.5-4.5-.09Zm9 .172 4.5.086-.09 4.5-4.5-.086Zm8.996.176 4.5.086-.086 4.5-4.5-.09Zm9 .172 4.5.09-.09 4.496-4.496-.086Zm9 .176 4.496.086-.086 4.5-4.5-.086Zm8.996.171 4.5.09-.086 4.496-4.5-.086Zm9 .176 4.496.086-.086 4.5-4.5-.086Zm8.996.176 4.5.086-.086 4.5-4.5-.09Zm9 .172 4.496.086-.086 4.5-4.5-.086Zm8.996.176 4.5.086-.086 4.5-4.5-.09Zm9 .172 4.5.09-.09 4.495-4.496-.085Zm8.996.175 4.5.086-.086 4.5-4.5-.086Zm9 .172 4.5.09-.09 4.496-4.495-.086Zm9 .176 4.497.086-.086 4.5-4.5-.086Zm8.997.176 4.5.086-.086 4.5-4.5-.09Zm9 .172 4.5.086-.09 4.5-4.5-.086Zm8.996.175 4.5.086-.086 4.5-4.5-.09Zm9 .172 4.5.09-.09 4.496-4.496-.086Zm8.996.176 4.5.086-.086 4.5-4.5-.086Zm9 .172 4.5.09-.09 4.496-4.496-.086Zm9 .176 4.496.086-.086 4.5-4.5-.086Zm8.996.175 4.5.086-.086 4.5-4.5-.09Zm9 .172 4.496.086-.086 4.5-4.5-.086Zm8.996.176 4.5.086-.086 4.5-4.5-.09Zm9 .172 4.5.09-.09 4.496-4.496-.086Zm8.996.176 4.5.086-.086 4.5-4.5-.086Zm9 .172 4.5.09-.09 4.496-4.496-.086Zm9 .175 4.496.086-.086 4.5-4.5-.086Zm8.996.176 4.5.086-.086 4.5-4.5-.09Zm9 .172 4.496.086-.086 4.5-4.5-.086Zm8.996.176 4.5.086-.086 4.5-4.5-.09Zm9 .172 4.5.09-.09 4.496-4.5-.086Zm8.996.176 4.5.086-.086 4.5-4.5-.086Zm9 .171 4.5.09-.09 4.496-4.496-.086Zm9 .176 4.496.086-.086 4.5-4.5-.086Zm8.996.176 4.5.086-.086 4.5-4.5-.09Zm9 .172 4.496.086-.085 4.5-4.5-.086Zm8.996.176 4.5.086-.085 4.5-4.5-.09Zm9 .172 4.5.09-.09 4.495-4.495-.085Zm8.997.175 4.5.086-.086 4.5-4.5-.086Zm9 .172 4.5.09-.09 4.496-4.496-.086Zm9 .176 4.496.086-.086 4.5-4.5-.086Zm8.996.176 4.5.086-.086 4.5-4.5-.09Zm9 .172 4.496.086-.086 4.5-4.5-.086Zm8.996.175 4.5.086-.086 4.5-4.5-.09Zm9 .172 4.5.086-.09 4.5-4.5-.086Zm8.996.176 4.5.086-.086 4.5-4.5-.086Zm9 .172 4.5.09-.09 4.496-4.496-.086Zm9 .176 4.496.086-.086 4.5-4.5-.086Zm8.996.172 4.5.09-.086 4.5-4.5-.09Zm9 .175 4.496.086-.086 4.5-4.5-.086Zm8.996.176 4.5.086-.086 4.5-4.5-.09Zm9 .172 4.5.086-.09 4.5-4.5-.086Zm8.996.176 4.5.086-.086 4.5-4.5-.086Zm9 .172 4.5.09-.09 4.496-4.496-.086Zm8.996.175 4.5.086-.086 4.5-4.5-.086Zm9 .172 4.5.09-.086 4.5-4.5-.09Zm9 .176 4.496.086-.086 4.5-4.5-.086Zm8.996.176 4.5.086-.086 4.5-4.5-.09Zm9 .172 4.5.086-.09 4.5-4.5-.086Zm8.996.176 4.5.086-.086 4.5-4.5-.086Zm9 .171 4.5.09-.09 4.496-4.496-.086Zm8.996.176 4.5.086-.085 4.5-4.5-.086Zm9 .172 4.5.09-.085 4.5-4.5-.09Zm9 .176 4.497.086-.086 4.5-4.5-.086Zm8.997.176 4.5.086-.086 4.5-4.5-.09Zm9 .172 4.496.085-.086 4.5-4.5-.085Zm8.996.175 4.5.086-.086 4.5-4.5-.086Zm9 .172 4.5.09-.09 4.496-4.496-.086Zm8.996.176 4.5.086-.086 4.5-4.5-.086Zm9 .172 4.5.09-.09 4.5-4.496-.09Zm9 .176 4.496.086-.086 4.5-4.5-.086Zm8.996.175 4.5.086-.086 4.5-4.5-.09Zm9 .172 4.496.086-.086 4.5-4.5-.086Zm8.996.176 4.5.086-.086 4.5-4.5-.086Zm9 .172 4.5.09-.09 4.496-4.496-.086Zm8.996.176 4.5.086-.086 4.5-4.5-.086Zm9 .172 4.5.09-.09 4.5-4.496-.09Zm9 .175 4.496.086-.086 4.5-4.5-.086Zm8.996.176 4.5.086-.086 4.5-4.5-.09Zm9 .172 4.5.086-.09 4.5-4.5-.086Zm8.996.176 4.5.086-.086 4.5-4.5-.086Zm9 .172 4.5.09-.09 4.496-4.496-.086Zm8.996.175 4.5.086-.086 4.5-4.5-.086Zm9 .172 4.5.09-.09 4.5-4.496-.09Zm9 .176 4.496.086-.085 4.5-4.5-.086Zm8.996.176 4.5.086-.085 4.5-4.5-.09Zm9 .172 4.5.086-.09 4.5-4.5-.086Zm8.997.176 4.5.086-.086 4.5-4.5-.086Zm9 .171 4.5.09-.09 4.496-4.496-.086Zm8.996.176 4.5.086-.086 4.5-4.5-.086Zm9 .172 4.5.09-.09 4.5-4.496-.09Zm9 .176 4.496.086-.086 4.5-4.5-.086Zm8.996.176 4.5.086-.086 4.5-4.5-.09Zm9 .172 4.496.085-.086 4.5-4.5-.085Zm8.996.175 4.5.086-.086 4.5-4.5-.086Zm9 .172 4.5.09-.09 4.496-4.496-.086Zm8.996.176 4.5.086-.086 4.5-4.5-.086Zm9 .172 4.5.09-.09 4.5-4.496-.09Zm9 .176 4.496.086-.086 4.5-4.5-.086Zm8.996.175 4.5.086-.086 4.5-4.5-.09Zm9 .172 4.496.086-.086 4.5-4.5-.086Zm8.996.176 4.5.086-.086 4.5-4.5-.086Zm9 .172 4.5.09-.09 4.496-4.496-.086Zm8.996.176 4.5.086-.086 4.5-4.5-.086Zm9 .172 4.5.09-.09 4.5-4.496-.09Zm8.996.175 4.5.086-.086 4.5-4.5-.086Zm9 .176 4.5.086-.086 4.5-4.5-.09Zm9 .172 4.496.086-.086 4.5-4.5-.086Zm8.996.176 4.5.086-.086 4.5-4.5-.086Zm9 .172 4.5.09-.09 4.496-4.5-.086Zm8.996.175 4.5.086-.085 4.5-4.5-.086Zm9 .172 4.5.09-.09 4.5-4.495-.09Zm8.997.176 4.5.086-.086 4.5-4.5-.086Zm9 .176 4.5.086-.086 4.5-4.5-.09Zm9 .172 4.496.086-.086 4.5-4.5-.086Zm8.996.176 4.5.085-.086 4.5-4.5-.085Zm9 .171 4.496.09-.086 4.496-4.5-.086Zm8.996.176 4.5.086-.086 4.5-4.5-.086Zm9 .172 4.5.09-.09 4.5-4.496-.09Zm8.996.176 4.5.086-.086 4.5-4.5-.086Zm9 .176 4.5.086-.086 4.5-4.5-.09Zm9 .172 4.496.085-.086 4.5-4.5-.085Zm8.996.175 4.5.086-.086 4.5-4.5-.086Zm9 .172 4.496.09-.086 4.496-4.5-.086Zm8.996.176 4.5.086-.086 4.5-4.5-.086Zm9 .172 4.5.09-.09 4.5-4.496-.09Zm8.996.176 4.5.086-.086 4.5-4.5-.086Zm9 .175 4.5.086-.09 4.5-4.496-.09Zm9 .172 4.496.086-.086 4.5-4.5-.086Zm8.996.176 4.5.086-.086 4.5-4.5-.086Zm9 .172 4.496.09-.086 4.496-4.5-.086Zm8.996.176 4.5.086-.086 4.5-4.5-.086Zm9 .172 4.5.09-.09 4.5-4.496-.09Zm8.996.175 4.5.086-.086 4.5-4.5-.086Zm9 .176 4.5.086-.09 4.5-4.496-.09Zm9 .172 4.496.086-.085 4.5-4.5-.086Zm8.996.176 4.5.086-.085 4.5-4.5-.09Zm9 .172 4.497.09-.086 4.496-4.5-.086Zm8.997.175 4.5.086-.086 4.5-4.5-.086Zm9 .172 4.5.09-.09 4.496-4.496-.086Zm8.996.176 4.5.086-.086 4.5-4.5-.086Zm9 .176 4.5.086-.09 4.5-4.496-.09Zm9 .172 4.496.086-.086 4.5-4.5-.086Zm8.996.176 4.5.085-.086 4.5-4.5-.09Zm9 .171 4.496.09-.086 4.496-4.5-.086Zm8.996.176 4.5.086-.086 4.5-4.5-.086Zm9 .172 4.5.09-.09 4.496-4.496-.086Zm8.996.176 4.5.086-.086 4.5-4.5-.086Zm9 .176 4.5.086-.09 4.5-4.496-.09Zm8.996.172 4.5.085-.086 4.5-4.5-.085Zm9 .175 4.5.086-.086 4.5-4.5-.09Zm9 .172 4.496.09-.086 4.496-4.5-.086Zm8.996.176 4.5.086-.086 4.5-4.5-.086Zm9 .172 4.5.09-.09 4.496-4.496-.086Zm8.996.176 4.5.086-.086 4.5-4.5-.086Zm9 .175 4.5.086-.09 4.5-4.496-.09Zm9 .172 4.496.086-.086 4.5-4.5-.086Zm8.996.176 4.5.086-.086 4.5-4.5-.09Zm9 .172 4.496.09-.086 4.496-4.5-.086Zm8.996.176 4.5.086-.086 4.5-4.5-.086Zm9 .172 4.5.09-.09 4.496-4.5-.086Zm8.997.175 4.5.086-.086 4.5-4.5-.086Zm9 .176 4.5.086-.09 4.5-4.496-.09Zm8.996.172 4.5.086-.086 4.5-4.5-.086Zm9 .176 4.5.086-.086 4.5-4.5-.09Zm9 .172 4.496.09-.086 4.496-4.5-.086Zm8.996.175 4.5.086-.086 4.5-4.5-.086Zm9 .172 4.5.09-.09 4.496-4.496-.086Zm8.996.176 4.5.086-.086 4.5-4.5-.086Zm9 .176 4.5.086-.09 4.5-4.496-.09Zm8.996.172 4.5.086-.086 4.5-4.5-.086Zm9 .176 4.5.085-.09 4.5-4.496-.09Zm9 .171 3.148.063 1.352.027-.09 4.5-1.348-.027-3.152-.063Zm8.996.18 4.5.09-.09 4.5-4.5-.09Zm9 .18 4.5.09-.09 4.5-4.5-.09Zm9 .18 2.023.039 2.47.043-.079 4.5-2.48-.043-2.028-.04Zm8.992.16 4.496.078-.078 4.5-4.496-.078Zm8.996.156 4.5.078-.078 4.5-4.5-.078Zm9 .156 4.5.078-.078 4.5-4.5-.078Zm9 .156 4.496.079-.078 4.5-4.496-.079Zm8.996.157 4.5.078-.078 4.5-4.5-.078Zm9 .156 4.5.078-.078 4.5-4.5-.078Zm9 .156 4.496.078-.078 4.5-4.496-.078Zm8.996.156 4.5.079-.078 4.5-4.5-.079Zm9 .157 4.5.078-.078 4.5-4.5-.078Zm8.997.156 4.5.078-.079 4.5-4.496-.078Zm9 .156 4.5.078-.079 4.5-4.5-.078Zm9 .156 4.5.079-.079 4.5-4.5-.079Zm8.996.157 4.5.078-.078 4.5-4.5-.078Zm9 .156 4.5.078-.078 4.5-4.5-.078Zm9 .156 4.5.078-.078 4.5-4.5-.078Zm8.996.156 4.5.079-.078 4.5-4.5-.079Zm9 .157 4.5.078-.078 4.5-4.5-.078Zm9 .156 4.5.078-.078 4.5-4.5-.078Zm8.996.156 4.5.078-.078 4.5-4.5-.078Zm9 .156 4.5.079-.078 4.5-4.5-.079Zm9 .157 4.496.078-.074 4.5-4.5-.078Zm8.996.156 4.5.078-.078 4.5-4.5-.078Zm9 .156 4.5.078-.078 4.5-4.5-.078Zm9 .156 4.496.079-.078 4.5-4.496-.079Zm8.996.157 4.5.078-.078 4.5-4.5-.078Zm9 .156 4.5.078-.078 4.5-4.5-.078Zm9 .156 4.496.078-.078 4.5-4.496-.078Zm8.996.156 4.5.079-.078 4.5-4.5-.079Zm9 .157 4.5.078-.078 4.5-4.5-.078Zm9 .156 4.496.078-.078 4.5-4.496-.078Zm8.996.156 4.5.078-.078 4.5-4.5-.078Zm9 .156 4.5.079-.078 4.5-4.5-.079Zm9 .157 4.496.078-.078 4.5-4.496-.078Zm8.996.156 4.5.078-.078 4.5-4.5-.078Zm9 .156 4.5.078-.078 4.5-4.5-.078Zm8.996.156 4.5.079-.078 4.5-4.5-.079Zm9 .157 4.5.078-.078 4.5-4.5-.078Zm9 .156 4.5.078-.078 4.5-4.5-.078Zm8.997.156 4.5.078-.079 4.5-4.5-.078Zm9 .156 4.5.079-.079 4.5-4.5-.079Zm9 .157 4.5.078-.079 4.5-4.5-.078Zm8.996.156 4.5.078-.079 4.5-4.5-.078Zm9 .156 4.5.078-.079 4.5-4.5-.078Zm9 .156 4.496.079-.078 4.5-4.497-.079Zm8.996.157 4.5.078-.078 4.5-4.5-.078Zm9 .156 4.5.078-.078 4.5-4.5-.078Zm9 .156 4.496.078-.078 4.5-4.496-.078Zm8.996.156 4.5.079-.078 4.5-4.5-.079Zm9 .157 4.5.078-.078 4.5-4.5-.078Zm9 .156 4.496.078-.078 4.5-4.496-.078Zm8.996.156 4.5.078-.078 4.5-4.5-.078Zm9 .156 4.5.079-.078 4.5-4.5-.079Zm9 .157 4.496.078-.078 4.5-4.496-.078Zm8.996.156 4.5.078-.078 4.5-4.5-.078Zm9 .156 4.5.078-.078 4.5-4.5-.078Zm8.996.156 4.5.079-.078 4.5-4.5-.079Zm9 .157 4.5.078-.078 4.5-4.5-.078Zm9 .156 4.5.078-.078 4.5-4.5-.078Zm8.996.156 4.5.078-.078 4.5-4.5-.078Zm9 .156 4.5.079-.078 4.5-4.5-.079Zm9 .157 4.5.078-.078 4.5-4.5-.078Zm8.996.156 4.5.078-.078 4.5-4.5-.078Zm9 .156 4.5.078-.078 4.5-4.5-.078Zm9 .156 4.5.079-.078 4.5-4.5-.079Zm8.996.157 4.5.078-.078 4.5-4.5-.078Zm9 .156 4.5.078-.078 4.5-4.5-.078Zm9 .156 4.5.078-.078 4.5-4.5-.078Zm8.996.156 4.5.079-.078 4.5-4.5-.079Zm9 .157 4.5.078-.078 4.5-4.5-.078Zm9 .156 4.497.078-.079 4.5-4.496-.078Zm8.997.156 4.5.078-.079 4.5-4.5-.078Zm9 .156 4.5.079-.079 4.5-4.5-.079Zm9 .157 4.496.078-.078 4.5-4.497-.078Zm8.996.156 4.5.078-.078 4.5-4.5-.078Zm9 .156 4.5.078-.078 4.5-4.5-.078Zm9 .156 4.496.079-.078 4.5-4.497-.079Zm8.996.157 4.5.078-.078 4.5-4.5-.078Zm9 .156.742.016 3.75.05-.066 4.5-3.762-.054-.742-.012Zm8.992.133 4.5.062-.066 4.5-4.5-.062Zm9 .129 4.5.062-.067 4.5-4.5-.062Zm8.988.12 4.5.048-.047 4.5-4.5-.047Zm9 .098 4.5.047-.047 4.5-4.5-.047Zm9 .098 4.5.047-.047 4.5-4.5-.047Zm9 .098 4.5.047-.05 4.5-4.497-.047Zm9 .097 4.5.047-.05 4.5-4.5-.047Zm9 .098 4.5.047-.05 4.5-4.5-.047Zm9 .098 4.5.047-.05 4.5-4.5-.047Zm8.996.097 4.5.047-.047 4.5-4.5-.047Zm9 .098 4.5.047-.047 4.5-4.5-.047Zm9 .098 4.5.046-.047 4.5-4.5-.046Zm9 .097 4.5.047-.047 4.5-4.5-.047Zm9 .098 4.5.047-.05 4.5-4.5-.047Zm9 .098 4.5.046-.05 4.5-4.5-.046Zm9 .097 4.5.047-.05 4.5-4.5-.047Zm9 .098 4.496.047-.047 4.5-4.5-.047Zm8.996.098 4.5.046-.047 4.5-4.5-.046Zm9 .097 4.5.047-.047 4.5-4.5-.047Zm9 .098 4.5.047-.047 4.5-4.5-.047Zm9 .098 4.5.046-.05 4.5-4.5-.046Zm9 .097 4.5.047-.05 4.5-4.5-.047Zm9 .098 4.5.047-.05 4.5-4.5-.047Zm9 .097 4.5.047-.05 4.5-4.5-.046Zm8.996.098 4.5.047-.046 4.5-4.5-.047Zm9 .098 4.5.05-.046 4.497-4.5-.047Zm9 .097 4.5.051-.046 4.496-4.5-.047Zm9 .098 4.5.05-.05 4.497-4.496-.047Zm9 .098 4.5.05-.05 4.497-4.5-.047Zm9 .097 4.5.051-.05 4.5-4.5-.05Zm9 .098 4.5.05-.05 4.5-4.5-.05Zm8.997.098 4.5.05-.047 4.5-4.5-.05Zm9 .097 4.5.051-.047 4.5-4.5-.05Zm9 .098 4.5.05-.047 4.5-4.5-.05Zm9 .098 4.5.05-.047 4.5-4.5-.05Zm9 .097 4.5.051-.051 4.5-4.5-.05Zm9 .098 4.5.05-.051 4.5-4.5-.05Zm9 .098 4.5.05-.051 4.5-4.5-.05Zm9 .097 4.496.051-.047 4.5-4.5-.05Zm8.996.098 4.5.05-.047 4.5-4.5-.05Zm9 .098 4.5.05-.047 4.5-4.5-.05Zm9 .097 4.5.051-.047 4.5-4.5-.05Zm9 .098 4.5.05-.051 4.5-4.5-.05Zm9 .098 4.5.05-.051 4.5-4.5-.05Zm9 .097 4.5.051-.051 4.5-4.5-.05Zm9 .098 4.5.05-.051 4.5-4.5-.05Zm8.996.098 4.5.05-.047 4.5-4.5-.05Zm9 .097 3.93.043-.051 4.5-3.926-.043Zm0 0"/></g><path fill="none" stroke="#000" stroke-width=".75" d="M42 105.375h195M42 .375h195M42.375.75V105M236.625.75V105m0-104.25V105M42.375.75V105"/><path fill="none" stroke="#444" stroke-width=".75" d="M45.742 105.75v3.75m49.485-3.75v3.75m44.273-3.75v3.75m40.05-3.75v3.75m36.555-3.75v3.75"/><g fill="#2A3F5F"><use xlink:href="#d" x="41.618" y="128.195"/><use xlink:href="#e" x="50.702" y="133.44"/><use xlink:href="#f" x="55.9" y="136.441"/><use xlink:href="#g" x="64.984" y="141.686"/></g><g fill="#2A3F5F"><use xlink:href="#d" x="91.103" y="128.195"/><use xlink:href="#e" x="100.187" y="133.44"/><use xlink:href="#h" x="105.385" y="136.441"/><use xlink:href="#g" x="114.469" y="141.686"/></g><g fill="#2A3F5F"><use xlink:href="#i" x="135.375" y="128.195"/><use xlink:href="#g" x="144.459" y="133.44"/></g><g fill="#2A3F5F"><use xlink:href="#i" x="175.425" y="128.195"/><use xlink:href="#e" x="184.509" y="133.44"/><use xlink:href="#i" x="189.707" y="136.441"/><use xlink:href="#g" x="198.792" y="141.686"/></g><g fill="#2A3F5F"><use xlink:href="#i" x="211.98" y="128.195"/><use xlink:href="#e" x="221.064" y="133.44"/><use xlink:href="#j" x="226.262" y="136.441"/><use xlink:href="#g" x="235.347" y="141.686"/></g><path fill="none" stroke="#444" stroke-width=".75" d="M42 105h-3.75M42 76.36h-3.75M42 47.723h-3.75M42 19.078h-3.75"/><use xlink:href="#k" x="24.46" y="110.775" fill="#2A3F5F"/><g fill="#2A3F5F"><use xlink:href="#l" x="13.971" y="82.132"/><use xlink:href="#k" x="24.46" y="82.132"/></g><g fill="#2A3F5F"><use xlink:href="#m" x="13.971" y="53.497"/><use xlink:href="#k" x="24.46" y="53.497"/></g><g fill="#2A3F5F"><use xlink:href="#n" x="13.971" y="24.855"/><use xlink:href="#k" x="24.46" y="24.855"/></g><path fill="none" stroke="#FF8C00" stroke-width=".75" d="M237 105h3.75M237 76.043h3.75M237 47.086h3.75M237 18.129h3.75"/><use xlink:href="#k" x="244.05" y="110.775" fill="#FF8C00"/><g fill="#FF8C00"><use xlink:href="#k" x="244.05" y="81.817"/><use xlink:href="#o" x="254.54" y="81.817"/><use xlink:href="#p" x="260.542" y="81.817"/></g><use xlink:href="#l" x="244.05" y="52.86" fill="#FF8C00"/><g fill="#FF8C00"><use xlink:href="#l" x="244.05" y="23.902"/><use xlink:href="#o" x="254.54" y="23.902"/><use xlink:href="#p" x="260.542" y="23.902"/></g></svg>