<svg xmlns="http://www.w3.org/2000/svg" xmlns:xlink="http://www.w3.org/1999/xlink" width="285.12" height="165.12"><defs><path id="d" d="M4.766 0H1.219v-.672h1.36v-4.375h-1.36v-.61q.28 0 .593-.046a1.8 1.8 0 0 0 .485-.125.8.8 0 0 0 .312-.281.85.85 0 0 0 .141-.453h.672v5.89h1.344Zm0 0"/><path id="e" d="M5.125-3.281q-.001 1.769-.547 2.594C4.211-.133 3.641.14 2.86.14Q1.687.142 1.141-.687.608-1.531.609-3.266q-.002-1.746.547-2.578.545-.827 1.703-.828 1.186 0 1.72.844c.362.562.546 1.414.546 2.547m-1.156 2c.101-.239.172-.516.203-.828q.06-.48.062-1.172a10 10 0 0 0-.062-1.14 2.7 2.7 0 0 0-.203-.845 1.2 1.2 0 0 0-.422-.515c-.18-.114-.406-.172-.688-.172a1.3 1.3 0 0 0-.687.172q-.27.176-.422.515a3 3 0 0 0-.203.86 13 13 0 0 0-.047 1.14q0 .69.047 1.157.046.455.203.812.14.344.406.531c.176.118.41.172.703.172.282 0 .508-.054.688-.172q.28-.17.422-.515m0 0"/><path id="f" d="M5.266 0H4.172L2.203-2.156l-.531.515V0H.844v-6.844h.828v4.39l2.39-2.452H5.11L2.83-2.641Zm0 0"/><path id="g" d="M6.703 0h-.86v-5.64L4.017-1.798H3.5L1.688-5.64V0H.875v-6.547h1.188l1.75 3.64L5.5-6.546h1.203Zm0 0"/><path id="h" d="M5.14 0H.704v-.922c.313-.258.617-.52.922-.781q.467-.404.875-.797c.563-.54.945-.973 1.156-1.297q.312-.48.313-1.031-.002-.516-.344-.797c-.219-.195-.531-.297-.937-.297q-.392 0-.86.14a3.3 3.3 0 0 0-.906.438H.875v-.922a4.3 4.3 0 0 1 .828-.28q.514-.142 1.016-.141.998 0 1.562.5.576.486.578 1.312 0 .375-.093.703-.095.316-.282.61-.174.269-.406.53-.22.27-.547.579a27 27 0 0 1-.984.906c-.336.281-.64.547-.922.797h3.516Zm0 0"/><path id="i" d="M4.563-3.156c.132.125.25.289.343.484q.14.283.14.735 0 .454-.171.828A2.06 2.06 0 0 1 3.641 0q-.44.14-.97.14-.55 0-1.077-.141a4.6 4.6 0 0 1-.86-.281v-.922h.063q.373.252.875.422.516.157.984.156c.188 0 .383-.031.594-.094q.311-.091.5-.265.201-.2.297-.422c.07-.157.11-.352.11-.594q-.001-.357-.126-.578a1 1 0 0 0-.297-.375 1.4 1.4 0 0 0-.484-.172 3 3 0 0 0-.61-.062h-.39v-.735h.297q.668.002 1.062-.265c.27-.188.407-.461.407-.829a.77.77 0 0 0-.11-.406.75.75 0 0 0-.265-.297 1.5 1.5 0 0 0-.407-.156 2.3 2.3 0 0 0-.484-.047c-.281 0-.578.055-.89.156q-.47.141-.891.422H.922v-.922a4.3 4.3 0 0 1 .828-.28q.528-.142 1.016-.141.48 0 .843.093.358.095.657.282.31.222.468.515.171.3.172.688c0 .367-.133.683-.39.953a1.64 1.64 0 0 1-.907.515v.063q.216.034.485.156.28.112.468.266m0 0"/><path id="j" d="M2.156 0H1.11v-1.25h1.047Zm0 0"/><path id="k" d="M5.078-2.078c0 .305-.058.594-.172.875a1.9 1.9 0 0 1-.453.703q-.315.315-.75.484a3.1 3.1 0 0 1-1.015.157Q2.154.14 1.656.016A4 4 0 0 1 .828-.25v-.922h.063c.238.156.515.29.828.39q.482.158.953.157c.207 0 .41-.023.61-.078.195-.063.366-.164.515-.313a1.1 1.1 0 0 0 .297-.453q.093-.264.093-.61a1.24 1.24 0 0 0-.125-.577.95.95 0 0 0-.312-.375 1.45 1.45 0 0 0-.547-.219 3.3 3.3 0 0 0-.734-.078q-.393.002-.75.062-.364.048-.61.094v-3.375h3.938v.766H1.953v1.75q.188-.014.375-.016.2-.014.36-.016.528 0 .921.094c.27.055.516.156.735.313q.358.236.547.625.187.377.187.953m0 0"/><path id="l" d="M6.297 0h-1.14L2.968-2.61H1.75V0H.875v-6.547h1.844q.591 0 .984.078.387.082.703.282.358.222.563.562.201.345.203.86c0 .468-.121.867-.36 1.187a2.3 2.3 0 0 1-.984.719ZM4.266-4.703c0-.188-.04-.352-.11-.5a.8.8 0 0 0-.328-.36 1.05 1.05 0 0 0-.453-.187 3.4 3.4 0 0 0-.61-.047H1.75v2.469h.875q.421 0 .719-.063.31-.075.531-.28.188-.189.281-.423c.07-.156.11-.36.11-.61m0 0"/><path id="m" d="M4.922-2.375h-3.61q-.001.457.125.797.142.329.375.547c.157.148.336.258.547.328q.312.094.688.094.497 0 1-.188.514-.2.734-.406h.047v.906q-.423.175-.86.297c-.292.07-.593.11-.905.11q-1.22 0-1.907-.657Q.468-1.202.47-2.422q0-1.201.656-1.906.657-.717 1.734-.719.984.002 1.516.578.546.58.547 1.657ZM4.125-3q-.017-.655-.344-1-.313-.359-.969-.36c-.449 0-.804.133-1.062.391A1.5 1.5 0 0 0 1.313-3Zm0 0"/><path id="n" d="M4.625 0h-.812v-.516q-.111.064-.297.204-.187.126-.375.218a2.6 2.6 0 0 1-.47.157Q2.404.14 2.048.14q-.673 0-1.14-.438Q.45-.747.452-1.422q0-.562.235-.906.247-.341.687-.547.45-.186 1.078-.25.62-.077 1.36-.125v-.125a.86.86 0 0 0-.11-.453.7.7 0 0 0-.281-.297A1.1 1.1 0 0 0 3-4.265a3.3 3.3 0 0 0-1.25.063 6 6 0 0 0-.812.233H.89v-.828a6 6 0 0 1 .703-.156q.45-.077.89-.078a3.8 3.8 0 0 1 .907.093c.257.055.484.149.672.282q.281.203.421.531.141.316.141.797Zm-.812-1.203v-1.375l-.907.078q-.503.033-.797.125a1.23 1.23 0 0 0-.578.313c-.148.136-.218.328-.218.578q-.001.422.25.64.247.204.78.203.434.001.798-.156.355-.17.672-.406m0 0"/><path id="o" d="M1.64 0H.829v-6.844h.813Zm0 0"/><path id="q" d="M5.156-4.562q-.002.438-.156.812a1.8 1.8 0 0 1-.422.64 2.15 2.15 0 0 1-.797.5c-.304.118-.687.172-1.156.172H1.75V0H.875v-6.547h1.781c.395 0 .727.04 1 .11.27.062.508.164.719.296q.374.251.578.625.201.377.203.954m-.906.015q-.001-.327-.125-.578a.93.93 0 0 0-.344-.422 2 2 0 0 0-.484-.187 3.3 3.3 0 0 0-.688-.063H1.75v2.61h.734q.53 0 .86-.094.327-.093.531-.297.2-.201.281-.438.094-.233.094-.53m0 0"/><path id="r" d="M3.875-4.016h-.047a7 7 0 0 0-.36-.046 2.5 2.5 0 0 0-.405-.032 1.7 1.7 0 0 0-.735.172 3.6 3.6 0 0 0-.687.438V0H.813v-4.906h.828v.718c.32-.257.609-.44.859-.546q.388-.171.781-.172c.133 0 .235.008.297.015.07 0 .172.012.297.032Zm0 0"/><path id="s" d="M7.969 0h-.813v-2.797q0-.31-.031-.61A1.4 1.4 0 0 0 7-3.874a.6.6 0 0 0-.297-.281c-.125-.07-.305-.11-.531-.11q-.364 0-.703.188-.346.175-.688.437.014.094.016.235.014.127.016.265V0h-.829v-2.797q0-.328-.03-.61a1.4 1.4 0 0 0-.126-.468.6.6 0 0 0-.281-.281c-.125-.07-.309-.11-.547-.11q-.346.001-.687.172a6 6 0 0 0-.672.422V0H.813v-4.906h.828v.547c.257-.22.515-.383.765-.5q.388-.188.828-.188.498 0 .844.219.357.204.516.578.513-.421.922-.61.404-.186.89-.187.797.001 1.172.5.388.486.39 1.36Zm0 0"/><path id="t" d="M1.703-5.734H.766v-.86h.937ZM1.641 0H.828v-4.906h.813Zm0 0"/><path id="u" d="M3.36-.047a4 4 0 0 1-.516.094q-.269.047-.485.047-.752.002-1.14-.406Q.828-.718.829-1.61v-2.61H.265v-.687h.562v-1.407h.828v1.407H3.36v.687H1.656v2.235q-.001.391.016.609.012.22.125.406a.62.62 0 0 0 .266.266c.113.055.285.078.515.078q.2 0 .422-.062.218-.059.313-.094h.046Zm0 0"/><path id="v" d="M5.063-4.906 3.077 0h-.844L.266-4.906h.906L2.688-1l1.5-3.906Zm0 0"/><path id="w" d="M5.063-4.906 2.188 1.813h-.876L2.22-.235.266-4.906h.906l1.5 3.64 1.515-3.64Zm0 0"/><path id="x" d="M3.188 0H.608v-.672h.844v-5.203H.61v-.672h2.579v.672h-.86v5.203h.86Zm0 0"/><path id="y" d="M4.797-.562Q4.795.685 4.219 1.266q-.562.592-1.735.593-.39-.002-.765-.062a4.6 4.6 0 0 1-.735-.156V.797h.047q.2.093.64.203c.29.07.583.11.876.11q.421 0 .703-.094a.95.95 0 0 0 .438-.282Q3.84.56 3.906.313q.062-.234.063-.532v-.453q-.377.3-.719.453-.344.14-.86.14Q1.5-.076.985-.702.47-1.341.47-2.5c0-.426.054-.79.172-1.094.125-.3.289-.566.5-.797a1.9 1.9 0 0 1 .687-.484q.404-.17.813-.172.435 0 .718.094.282.082.61.25l.047-.203h.78Zm-.828-.782V-4.03a3.6 3.6 0 0 0-.61-.203 3 3 0 0 0-.562-.063q-.691 0-1.078.453-.391.456-.39 1.328 0 .831.28 1.25.295.423.97.422.355.002.718-.125.374-.141.672-.375m0 0"/><path id="z" d="M4.922 0h-.828v-2.797a4 4 0 0 0-.047-.64 1.05 1.05 0 0 0-.14-.454.7.7 0 0 0-.313-.28 1.3 1.3 0 0 0-.547-.095q-.328.001-.703.172a4.7 4.7 0 0 0-.703.422V0H.813v-4.906h.828v.547a3 3 0 0 1 .797-.5q.42-.188.843-.188.797.002 1.219.484.422.471.422 1.375Zm0 0"/><path id="A" d="M5.906-6.734h-3.86v2.156H5.36v.906H2.047V0H1.03v-7.64h4.875Zm0 0"/><path id="B" d="M4.516-4.672h-.047a2.6 2.6 0 0 0-.422-.078 8 8 0 0 0-.469-.016q-.456.002-.875.204-.41.188-.797.5V0H.953v-5.734h.953v.859q.575-.468 1.016-.656.434-.201.89-.203.264.002.376.015.106.018.328.047Zm0 0"/><path id="C" d="M5.75-2.766H1.516q-.001.535.156.922.171.394.453.64.263.253.625.376c.25.086.52.125.813.125q.574 0 1.171-.235.592-.234.844-.468h.047v1.062q-.485.204-1 .344c-.336.094-.687.14-1.062.14Q2.14.143 1.342-.624q-.795-.78-.796-2.203-.001-1.405.766-2.234.761-.828 2.015-.829 1.154 0 1.781.688.64.675.641 1.922ZM4.797-3.5q0-.761-.375-1.172c-.25-.281-.633-.422-1.14-.422-.524 0-.938.157-1.25.469q-.457.457-.516 1.125Zm0 0"/><path id="D" d="M5.594 2.11h-.969V-.64q-.44.375-.89.562a2.4 2.4 0 0 1-.938.187c-.688 0-1.235-.257-1.64-.78q-.61-.797-.61-2.173c0-.488.07-.922.219-1.297.144-.382.332-.703.562-.953q.34-.374.797-.578.452-.218.969-.219a3.14 3.14 0 0 1 1.531.407l.063-.25h.906Zm-.969-3.563v-3.25a3.7 3.7 0 0 0-.703-.234 3 3 0 0 0-.672-.079q-.832 0-1.266.563-.438.564-.437 1.562-.001 1.002.344 1.547Q2.249-.81 3-.812q.422.002.844-.172.42-.188.781-.47m0 0"/><path id="E" d="M5.703 0h-.969v-.64q-.486.393-.937.593a2.4 2.4 0 0 1-.985.203Q1.905.158 1.407-.39c-.336-.363-.5-.906-.5-1.625v-3.718h.969v3.265q-.002.44.031.75.047.316.188.532a.76.76 0 0 0 .344.328q.233.093.656.093.357 0 .797-.187.45-.2.843-.5v-4.281h.97Zm0 0"/><path id="F" d="M5.734 0h-.968v-3.266q0-.387-.047-.734a1.3 1.3 0 0 0-.157-.547.72.72 0 0 0-.375-.312 1.55 1.55 0 0 0-.625-.11q-.393.002-.828.203a4.7 4.7 0 0 0-.828.485V0H.953v-5.734h.953v.64q.452-.374.938-.578.48-.218.984-.219.937 0 1.422.563.482.564.484 1.61Zm0 0"/><path id="G" d="M5.188-.36a6 6 0 0 1-.922.36 3.7 3.7 0 0 1-2.062-.047 2.25 2.25 0 0 1-.876-.562 2.5 2.5 0 0 1-.594-.922Q.531-2.107.531-2.86q-.001-1.407.766-2.203.78-.797 2.047-.797.499 0 .969.14.466.14.875.328v1.079h-.063a3.8 3.8 0 0 0-.906-.532 2.4 2.4 0 0 0-.907-.187q-.832 0-1.312.562-.469.55-.469 1.61 0 1.047.469 1.609.469.549 1.313.547.28.001.578-.078.311-.075.547-.203.216-.106.406-.22.187-.123.281-.218h.063Zm0 0"/><path id="H" d="M5.906-5.734 2.563 2.109H1.53L2.594-.28.313-5.734h1.046l1.766 4.25 1.766-4.25Zm0 0"/><path id="J" d="M4.016 2.11H2.844A8.2 8.2 0 0 1 1.422-.157c-.336-.82-.5-1.75-.5-2.781 0-1.02.164-1.942.5-2.766a8.5 8.5 0 0 1 1.422-2.281h1.172v.062a6.5 6.5 0 0 0-.797.86q-.376.485-.703 1.14-.301.628-.5 1.39a6.6 6.6 0 0 0-.188 1.595q0 .877.188 1.609.186.736.5 1.39.31.622.703 1.126.405.513.797.875Zm0 0"/><path id="K" d="M6.86 0H5.843v-3.734H2.047V0H1.03v-7.64h1.016v3h3.797v-3h1.015Zm0 0"/><path id="L" d="M5.094 0H.484v-.719l3.329-4.203H.547v-.812h4.469v.687L1.656-.812h3.438Zm0 0"/><path id="M" d="M3.844-2.937c0 1.03-.172 1.96-.516 2.78A8 8 0 0 1 1.922 2.11H.75v-.046a6.3 6.3 0 0 0 .797-.876A7 7 0 0 0 2.25.063c.207-.438.375-.899.5-1.391a6.5 6.5 0 0 0 .188-1.61q0-.843-.188-1.593a6.8 6.8 0 0 0-1.203-2.532q-.375-.482-.797-.859v-.062h1.172q.902 1.05 1.406 2.28.516 1.238.516 2.766m0 0"/><path id="N" d="M-3.812-7.469q1.048.002 1.89.453.844.456 1.313 1.204.328.515.468 1.171Q0-3.996 0-2.953v1.922h-7.64v-1.906q0-1.11.171-1.766.157-.668.438-1.125.487-.78 1.297-1.203.814-.437 1.922-.438m-.016 1.063q-.891 0-1.5.312a2.4 2.4 0 0 0-.984.922 3.3 3.3 0 0 0-.344.969c-.07.336-.11.734-.11 1.203v.953h5.891V-3q.001-.732-.11-1.266a3.1 3.1 0 0 0-.39-1.015 2.35 2.35 0 0 0-.969-.844q-.592-.28-1.484-.281m0 0"/><path id="O" d="M-6.687-1.984v1.093h-1v-1.093ZM0-1.922v.969h-5.734v-.969Zm0 0"/><path id="P" d="M-2.766-5.75v4.234q.535.001.922-.156.394-.171.64-.453.253-.263.376-.625c.086-.25.125-.52.125-.812q0-.575-.235-1.172-.234-.592-.468-.844v-.047h1.062q.204.485.344 1 .14.502.14 1.063.002 1.422-.765 2.218-.78.798-2.203.797c-.938 0-1.68-.254-2.234-.765q-.828-.762-.829-2.016 0-1.154.688-1.781.675-.64 1.922-.641Zm-.734.953q-.761 0-1.172.375c-.281.25-.422.633-.422 1.14 0 .524.157.938.469 1.25q.457.457 1.125.516Zm0 0"/><path id="Q" d="M0-1.922v.969h-7.984v-.969Zm0 0"/><path id="R" d="M-.36-5.187q.236.487.36.921.124.44.125.922c0 .406-.059.79-.172 1.14a2.25 2.25 0 0 1-.562.876 2.5 2.5 0 0 1-.922.594q-.576.204-1.328.203-1.407.001-2.203-.766-.797-.78-.797-2.047 0-.499.14-.969.14-.466.328-.875h1.079v.063a3.8 3.8 0 0 0-.532.906 2.4 2.4 0 0 0-.187.907q0 .832.562 1.312.55.47 1.61.469 1.047 0 1.609-.469.549-.468.547-1.312.001-.281-.078-.579a2.3 2.3 0 0 0-.203-.546 6 6 0 0 0-.22-.407 2 2 0 0 0-.218-.281v-.062Zm0 0"/><path id="S" d="M-.047-3.922c.043.18.078.375.11.594q.046.316.046.562 0 .892-.468 1.344c-.313.305-.817.453-1.516.453h-3.047v.657h-.812V-.97h-1.641v-.968h1.64v-1.985h.813v1.985h2.61q.455.001.718-.016a1 1 0 0 0 .469-.14.64.64 0 0 0 .297-.313q.094-.2.094-.61 0-.233-.063-.484a4 4 0 0 0-.125-.375v-.047Zm0 0"/><path id="T" d="M-4.672-4.516v.047q-.06.224-.078.422a8 8 0 0 0-.016.469q.002.456.204.875.188.41.5.797H0v.953h-5.734v-.953h.859q-.468-.575-.656-1.016a2.1 2.1 0 0 1-.203-.89q.002-.264.015-.376.018-.106.047-.328Zm0 0"/><path id="V" d="M-.547-6.922q.113.282.219.516.111.22.234.593.094.315.157.688.077.363.078.797a4.8 4.8 0 0 1-.235 1.516q-.232.674-.734 1.171c-.32.336-.734.594-1.235.782-.5.18-1.082.265-1.75.265q-.935.002-1.671-.265-.75-.263-1.266-.766a3.06 3.06 0 0 1-.75-1.172 4.2 4.2 0 0 1-.266-1.531c0-.414.055-.828.157-1.234q.14-.61.515-1.36h1.203v.078c-.351.418-.609.836-.765 1.25a3.6 3.6 0 0 0-.25 1.328q0 .58.187 1.047c.125.305.32.578.578.828q.393.346.985.547.58.204 1.343.203c.543 0 1.008-.07 1.391-.218q.58-.217.938-.563.375-.358.562-.844.188-.481.188-1.015.001-.732-.25-1.375a3.7 3.7 0 0 0-.766-1.188v-.078Zm0 0"/><path id="W" d="M-2.86-5.828q1.395.002 2.204.719.813.72.812 1.922 0 1.22-.812 1.937-.81.703-2.203.703-1.405 0-2.22-.703c-.538-.477-.812-1.125-.812-1.937 0-.801.274-1.442.813-1.922.543-.477 1.281-.72 2.219-.72m0 1q-1.106.002-1.656.437-.545.423-.546 1.204 0 .785.546 1.218.55.439 1.657.438 1.077 0 1.64-.438.549-.433.547-1.218.002-.763-.547-1.204-.563-.435-1.64-.437m0 0"/><path id="X" d="M0-5.734v.968h-3.266q-.387 0-.734.047-.341.034-.547.157a.72.72 0 0 0-.312.375 1.55 1.55 0 0 0-.11.625q.002.393.203.828c.125.28.29.558.485.828H0v.953h-5.734v-.953h.64q-.374-.452-.578-.938a2.4 2.4 0 0 1-.219-.984q0-.937.563-1.422.564-.482 1.61-.484Zm0 0"/><path id="Y" d="M-1.656-5.047q.798 0 1.297.656c.336.43.5 1.016.5 1.766 0 .43-.055.82-.157 1.172q-.151.533-.328.89h-1.078v-.046c.23-.313.414-.649.547-1.016a3.1 3.1 0 0 0 .203-1.078q.001-.638-.203-1a.72.72 0 0 0-.656-.36q-.328.002-.516.204-.168.188-.297.75a7 7 0 0 0-.094.53q-.058.33-.14.61-.201.751-.578 1.063-.389.314-.953.312-.357 0-.672-.14a1.6 1.6 0 0 1-.563-.438 2.3 2.3 0 0 1-.375-.734q-.14-.45-.14-1 .001-.516.125-1.031.128-.529.297-.876h1.03v.047q-.263.377-.452.907a3 3 0 0 0-.188 1.03q.002.534.203.892.206.361.594.359c.242 0 .418-.07.531-.219.125-.144.227-.375.297-.687q.066-.282.125-.61c.043-.219.078-.398.11-.547q.156-.668.53-1.03c.25-.25.587-.376 1-.376m0 0"/><path id="Z" d="M0-5.406v.968h-.61c.063.086.15.2.25.344q.159.224.235.422c.086.156.148.344.203.563q.077.315.078.718c0 .524-.164.965-.5 1.329q-.515.531-1.312.53-.655 0-1.063-.28a1.8 1.8 0 0 1-.625-.797q-.233-.529-.312-1.25a19 19 0 0 1-.125-1.578h-.156q-.328 0-.532.125A.9.9 0 0 0-4.812-4a1.4 1.4 0 0 0-.157.5 3.6 3.6 0 0 0-.047.594c0 .261.04.547.11.86q.093.455.281.952v.047h-.984a8 8 0 0 1-.157-.812 6 6 0 0 1-.093-1.047q0-.608.093-1.047.096-.452.344-.781c.156-.22.36-.383.61-.5q.376-.171.921-.172Zm-1.406.968H-3q.02.439.078 1.047.047.598.14.938.13.409.376.672.25.251.672.25.504 0 .75-.297c.168-.195.25-.5.25-.906q0-.5-.203-.922a4.6 4.6 0 0 0-.47-.781m0 0"/><path id="aa" d="M-.328-5.156q.253.55.36 1.078.107.533.109 1.11 0 .408-.094.827-.076.423-.281.782a1.6 1.6 0 0 1-.532.578q-.327.22-.796.219a1.36 1.36 0 0 1-.86-.282q-.374-.294-.578-.922h-.031a1.44 1.44 0 0 1-.453.75q-.342.282-.813.282-.467 0-.766-.235a1.9 1.9 0 0 1-.468-.593 2.8 2.8 0 0 1-.25-.735 4.6 4.6 0 0 1-.078-.828q0-.498.078-.922.082-.42.234-.875h1.063v.063q-.265.345-.407.843a3.4 3.4 0 0 0-.156 1q.001.237.031.438.035.205.141.422a.9.9 0 0 0 .25.312.64.64 0 0 0 .39.125q.317 0 .485-.14a.86.86 0 0 0 .25-.391 1.7 1.7 0 0 0 .094-.5v-1.109h.844v.812q0 .315.03.578.018.252.11.469a.67.67 0 0 0 .281.328c.125.086.29.125.485.125.18 0 .336-.039.468-.125a1 1 0 0 0 .297-.344 1.6 1.6 0 0 0 .141-.453 3 3 0 0 0 .047-.547c0-.343-.055-.71-.172-1.109q-.187-.607-.516-.969v-.062Zm0 0"/><path id="ae" d="M0-5.86v4.829h-7.64v-1.016h6.734v-3.812Zm0 0"/><path id="af" d="M2.11-4.016v1.172A8.2 8.2 0 0 1-.157-1.422c-.82.336-1.75.5-2.781.5-1.02 0-1.942-.164-2.766-.5a8.5 8.5 0 0 1-2.281-1.422v-1.172h.062c.25.282.54.547.86.797q.485.376 1.14.703.628.301 1.39.5.75.188 1.595.188.877 0 1.609-.188.736-.186 1.39-.5.622-.31 1.126-.703a7.5 7.5 0 0 0 .875-.797Zm0 0"/><path id="ag" d="M-2.828-5.844c.93 0 1.656.242 2.187.719q.798.704.797 1.922 0 1.237-.765 1.953-.779.703-2.125.703c-.477 0-.883-.07-1.22-.219a2.6 2.6 0 0 1-.843-.546 2.6 2.6 0 0 1-.578-.813 3.8 3.8 0 0 1-.297-.937q-.327.39-.672.859a57 57 0 0 0-.718.984h-.922v-4.156h.812V-2.5h.063q.234-.342.64-.906.392-.576.813-1.063.704-.763 1.343-1.062c.43-.207.922-.313 1.485-.313m0 1q-.685 0-1.266.282a2.86 2.86 0 0 0-1.031.843q.034.345.156.719a2.3 2.3 0 0 0 .407.703q.251.329.703.547.439.22 1.093.219 1.033 0 1.563-.438.532-.436.531-1.234 0-.797-.531-1.219-.546-.422-1.625-.422m0 0"/><path id="ah" d="M-2.937-3.844c1.03 0 1.96.172 2.78.516A8 8 0 0 1 2.11-1.922V-.75h-.046a6.3 6.3 0 0 0-.876-.797A7 7 0 0 0 .063-2.25a7.6 7.6 0 0 0-1.391-.5 6.5 6.5 0 0 0-1.61-.187q-.843 0-1.593.187a6.8 6.8 0 0 0-2.532 1.203q-.482.375-.859.797h-.062v-1.172q1.05-.902 2.28-1.406 1.238-.516 2.766-.516m0 0"/><path id="ab" d="M-3.266-3.156v.031q-.044.157-.062.297a4 4 0 0 0-.016.328q0 .316.14.61.143.281.36.546H0v.688h-4v-.688h.594a2.7 2.7 0 0 1-.453-.703A1.5 1.5 0 0 1-4-2.672c0-.113.008-.195.016-.25q.002-.076.015-.234Zm0 0"/><path id="ac" d="M-1.937-4.016v2.954q.374 0 .656-.11.269-.106.437-.312.174-.187.266-.438c.055-.176.078-.363.078-.562q.001-.404-.156-.813-.17-.421-.328-.61v-.03h.734q.157.345.25.703.094.346.094.734 0 1.001-.531 1.563-.546.562-1.547.562-.985 0-1.547-.531-.576-.544-.578-1.422 0-.81.468-1.25.47-.437 1.344-.438Zm-.516.657q-.53.001-.813.265-.294.27-.296.797 0 .549.328.875c.21.211.468.328.78.36Zm0 0"/><path id="ad" d="M0-1.344v.672h-5.578v-.672Zm0 0"/><path id="ai" d="M7.422-.594q-.317.128-.563.25a5 5 0 0 1-.625.235Q5.888 0 5.5.063 5.108.14 4.64.14a5.1 5.1 0 0 1-1.624-.25A3.3 3.3 0 0 1 1.75-.891a3.45 3.45 0 0 1-.828-1.312q-.298-.81-.297-1.875 0-1.014.281-1.813.295-.794.828-1.343A3.6 3.6 0 0 1 3-8.047a4.6 4.6 0 0 1 1.64-.281c.438 0 .876.055 1.313.156q.656.159 1.469.563v1.297h-.094q-.675-.575-1.344-.829a3.7 3.7 0 0 0-1.406-.265q-.627.002-1.125.203a2.45 2.45 0 0 0-.89.625c-.25.281-.45.633-.594 1.047q-.204.627-.203 1.453 0 .862.234 1.484.233.611.594 1 .389.41.906.61a3.1 3.1 0 0 0 1.078.187 4 4 0 0 0 1.469-.265 4.2 4.2 0 0 0 1.297-.813h.078Zm0 0"/><path id="aj" d="M5.406-1.766c0 .563-.234 1.024-.703 1.375q-.69.533-1.89.532c-.461 0-.883-.055-1.266-.157a4.3 4.3 0 0 1-.938-.359v-1.156h.047q.48.376 1.078.593c.407.149.79.22 1.157.22q.686.002 1.062-.22a.77.77 0 0 0 .39-.703c0-.238-.07-.421-.202-.546-.149-.126-.418-.227-.813-.313q-.222-.045-.578-.11-.346-.074-.64-.156c-.532-.144-.915-.351-1.141-.625Q.625-3.81.625-4.406q-.001-.389.156-.719c.102-.219.266-.414.485-.594q.311-.264.78-.406a3.4 3.4 0 0 1 1.063-.156q.547 0 1.11.14.562.127.937.313v1.11H5.11a3.6 3.6 0 0 0-.968-.485 3.3 3.3 0 0 0-1.11-.203q-.564.001-.953.218a.68.68 0 0 0-.39.641q0 .375.234.563.234.205.75.328.28.066.625.125.357.066.61.125.715.158 1.109.562c.257.274.39.633.39 1.078m0 0"/><path id="ak" d="M6.938-7.219H4.015V0H2.922v-7.219H0v-.953h6.938Zm0 0"/><path id="al" d="M5.781 0H4.75v-.656c-.086.062-.203.152-.36.265a2.2 2.2 0 0 1-.452.266c-.18.086-.383.148-.61.203Q3 .172 2.547.172 1.714.174 1.14-.375.578-.92.578-1.781q0-.703.297-1.125.293-.436.844-.688c.375-.156.82-.265 1.344-.328a22 22 0 0 1 1.687-.125v-.172a1.24 1.24 0 0 0-.125-.578.8.8 0 0 0-.344-.36 1.6 1.6 0 0 0-.531-.171 4 4 0 0 0-.64-.047c-.274 0-.575.04-.907.11q-.504.112-1.031.312h-.063V-6q.312-.093.875-.187a7 7 0 0 1 1.125-.094q.657.002 1.125.11.48.11.844.359.34.25.516.656.187.409.187 1ZM4.75-1.516v-1.703a68 68 0 0 0-1.11.094c-.43.031-.765.078-1.015.14q-.438.142-.719.407c-.18.18-.265.422-.265.734 0 .344.101.606.312.782.219.18.54.265.969.265a2.4 2.4 0 0 0 1-.203q.452-.217.828-.516m0 0"/><path id="am" d="M6.156-2.953H1.625q-.002.563.172.984.17.424.469.688.28.268.672.39.405.127.874.125.624.001 1.25-.25c.426-.164.735-.328.922-.484h.047v1.125Q5.515-.153 4.97 0q-.55.14-1.14.14-1.536.002-2.391-.827-.861-.827-.86-2.344 0-1.5.813-2.39.824-.892 2.172-.891 1.248.001 1.921.734.67.72.672 2.062ZM5.141-3.75Q5.14-4.56 4.734-5q-.41-.452-1.218-.453-.831.002-1.328.484-.487.486-.563 1.219Zm0 0"/><path id="an" d="M7.203-7.234q.497.548.766 1.343.264.8.265 1.797 0 1.018-.28 1.813-.27.797-.75 1.344A3.4 3.4 0 0 1 6-.11c-.46.183-.984.28-1.578.28a4.3 4.3 0 0 1-1.563-.28 3.4 3.4 0 0 1-1.203-.828q-.485-.547-.765-1.344C.71-2.812.625-3.414.625-4.094c0-.664.086-1.258.266-1.781q.264-.796.78-1.36.469-.545 1.188-.827.717-.282 1.563-.282c.594 0 1.117.102 1.578.297a3.4 3.4 0 0 1 1.203.813m-.11 3.14q-.001-1.593-.718-2.453c-.469-.57-1.117-.86-1.937-.86-.836 0-1.493.29-1.97.86q-.702.86-.702 2.453-.001 1.612.718 2.469.734.86 1.954.86 1.217 0 1.937-.86.717-.856.719-2.469m0 0"/><path id="ap" d="M4.578-1.86c0 .587-.195 1.063-.578 1.438q-.563.549-1.406.547A2.3 2.3 0 0 1 1.828 0a1.8 1.8 0 0 1-.61-.406 2.1 2.1 0 0 1-.515-.828C.586-1.586.531-2.016.531-2.516q0-.762.156-1.343a3 3 0 0 1 .532-1.047q.327-.437.86-.672.544-.248 1.25-.25c.155 0 .28.008.374.016q.153.015.313.062v.734h-.032a2 2 0 0 0-.328-.093 1.7 1.7 0 0 0-.437-.063q-.831 0-1.328.516-.487.515-.563 1.406a2.46 2.46 0 0 1 1.36-.406q.358 0 .64.078.28.066.578.265.327.236.5.594.171.345.172.86m-.781.032c0-.238-.04-.438-.11-.594a.94.94 0 0 0-.343-.406.9.9 0 0 0-.39-.156 2.3 2.3 0 0 0-1.062.031 2.6 2.6 0 0 0-.58.25q-.002.081-.015.156v.203c0 .406.039.73.125.969q.122.346.344.547.187.157.39.25c.133.055.285.078.453.078q.545.001.86-.344.328-.339.328-.984m0 0"/><clipPath id="a"><path d="M36 50h213.75v77H36Zm0 0"/></clipPath><clipPath id="b"><path d="M36 2h213.75v125H36Zm0 0"/></clipPath><clipPath id="c"><path d="M36 6h213.75v111H36Zm0 0"/></clipPath></defs><path fill="#FFF" d="M0 0h285v165H0Zm0 0"/><path fill="#FFF" d="M36 .75h213.75V129H36Zm0 0"/><path fill="none" stroke="#D3D3D3" stroke-width=".75" d="M65.879.75V129M108.629.75V129M151.379.75V129M194.129.75V129M236.879.75V129M36 93.238h213.75M36 63.758h213.75M36 34.281h213.75M36 4.809h213.75"/><path fill="none" stroke="#EBF0F8" stroke-width="1.5" d="M36 122.715h213.75"/><g clip-path="url(#a)"><path fill="none" stroke="#EF553B" stroke-miterlimit="2" stroke-width="1.5" d="m36 55.207 4.29 8.258 1.073 1.77 7.461 11.5 1.082 1.468 5.34 6.488 1.055 1.176 7.48 7.395 1.07 1.004 8.56 6.46 1.077.704 7.496 4.425 1.055.524 8.535 3.863 1.082.414 9.614 3.157 1.074.292 9.578 2.211 1.144.211 12.797 1.914 1.078.118 19.2 1.578 1.066.058 28.867 1.067 1.082.02 56.625.66h1.07l13.899.054"/></g><g clip-path="url(#b)"><path fill="none" stroke="#8B0000" stroke-miterlimit="2" stroke-width="1.5" d="m36 7.164 6.441 25.055 1.02 3.535 6.445 18.277 1.063 2.653 9.625 18.863 1.047 1.476 4.238 6.188 1.082 1.48 7.527 8.547 1.024.938 7.527 6.226 1.074.735 7.461 4.687 1.082.586 9.614 4.453 1.074.414 8.52 2.86 1.058.289 13.941 3.129 1.078.21 14.95 1.973 1.058.106 22.41 1.492 1.125.043 32.082.832 1.075.016 49.109.359"/></g><g clip-path="url(#c)"><path fill="#FF8C00" d="m36.422 6.543 1.863 1.258-.84 1.242-1.867-1.258Zm3.441 3.039 1.586 1.594-1.062 1.058-1.586-1.593Zm3.38 3.113.831 1.157-.613.437v-.75h.828v1.5h-1.21l-1.056-1.473Zm3.198 2.567 1.508 1.668-1.113 1.008-1.508-1.672Zm3.145 2.906 1.871 1.254-.836 1.246-1.871-1.254Zm3.676 2.941.425.567-.601.449v-.75h1.539v1.5h-1.914l-.652-.871Zm3.558 1.88.086.113-.605.449v-.75h1.316l1.035.695-.836 1.246-.843-.57.418-.621v.75h-1.465l-.313-.418Zm3.407 1.238h.593l1.754 1.18-.84 1.241-1.562-1.05.422-.621v.75h-.367Zm4.062 1.421h.797l1.223.848-.43.617.414-.625.367.239-.828 1.253-.371-.246-1.035-.718.426-.618v.75h-.563Zm4.473 1.696.797.59-.446.605v-.75h1.27l.351.215-.793 1.273-.168-.101.399-.637v.75h-1.309l-.996-.742Zm4.078 1.304 1 .7-.43.613v-.75h1.031v1.5h-1.265l-1.196-.832Zm4.07 1.34.094.063-.414.625v-.75h2.137v1.5h-2.364l-.281-.188Zm3.852.649h2.25v1.5h-2.25Zm4.722.758.121.078-.414.629v-.75h2.11v1.5h-2.332l-.309-.204Zm4.067-.043h1.195l1.246.84-.418.62v-.75h.008v1.5h-.234l-1.25-.84.418-.62v.75h-.965Zm4.281.71h2.227l.394.258-.824 1.254-.207-.136.414-.626v.75h-2.004Zm4.285.711h2.25v1.5h-2.25Zm4.285.715h2.22l.405.27-.836 1.246-.214-.145.414-.62v.75h-1.989Zm4.285.711h1.149l1.223.848-.43.617v-.75h.086v1.5h-.32l-1.22-.848.427-.617v.75h-.915Zm4.485 1.461.117.07-.387.645v-.75h1.188l1.148.773-.836 1.243-.957-.645.418-.621v.75h-1.168l-.293-.176Zm4.129 1.348.254.168-.414.625v-.75h1.246l.957.633-.824 1.25-.774-.508.414-.625v.75h-1.246l-.445-.297Zm3.594 1.469h.62l1.774.886-.672 1.34-1.613-.808.336-.668v.75h-.445Zm4.406 1.894.676.336 1.164.738.175.117-.832 1.25-.168-.113.418-.625-.402.633-1.125-.71.402-.634-.336.668-.644-.32Zm3.886 2.441 1.872 1.247-.832 1.25-1.872-1.25Zm3.743 2.497 1.875 1.25-.832 1.246-1.875-1.25Zm3.746 2.496 1.87 1.25-.831 1.246-1.871-1.246Zm3.742 2.5 1.871 1.246-.832 1.25-1.871-1.25Zm3.742 2.496 1.254.836.598.804-1.203.895-.52-.703.602-.446-.418.626-1.145-.766Zm3.32 3.011 1.81 1.336-.892 1.207-1.812-1.335Zm3.618 2.672 1.812 1.336-.894 1.207-1.809-1.336Zm3.617 2.72.21.167 1.56 1.219-.926 1.18-1.563-1.223-.21-.168Zm3.539 2.773 1.773 1.386-.925 1.184-1.774-1.39Zm3.543 2.777 1.676 1.312.097.075-.93 1.18-.093-.075-1.676-1.312Zm3.539 2.742 1.812 1.332-.89 1.211-1.813-1.336Zm3.621 2.668 1.813 1.336-.891 1.207-1.809-1.336Zm3.625 2.668 1.813 1.336-.891 1.207-1.813-1.336Zm3.621 2.668 1.813 1.336-.887 1.207-1.813-1.332Zm3.625 2.672 1.813 1.332-.891 1.207-1.812-1.332Zm3.625 2.668.328.242-.445.602.41-.625 1.082.71.45.286-.798 1.27-.476-.302-1.098-.722-.344-.254Zm3.73 2.414 1.903 1.2-.797 1.269-1.906-1.2Zm3.81 2.394 1.902 1.2-.797 1.27-1.907-1.2Zm3.808 2.399 1.902 1.2-.797 1.269-1.906-1.2Zm3.808 2.398 1.903 1.2-.797 1.27-1.906-1.2Zm3.809 2.395 1.64 1.035-.398.637.383-.645.266.156-.77 1.29-.27-.165-1.652-1.039Zm3.82 2.246 2 1.035-.691 1.332-1.996-1.035Zm3.996 2.07 2 1.035-.691 1.332-1.996-1.035Zm3.996 2.07 2 1.036-.69 1.332-1.997-1.035Zm3.997 2.067.75.387-.348.668.316-.68 1.07.492-.312.684.293-.692.211.09-.59 1.38-.219-.095-1.097-.507-.762-.395Zm4.05 1.828 2.07.883-.585 1.379-2.075-.88Zm4.141 1.762 2.07.883-.586 1.379-2.07-.883Zm4.14 1.762 1.184.503-.293.688.274-.695.898.351-.547 1.395-.91-.356-1.191-.508Zm4.157 1.585 2.125.743-.496 1.414-2.125-.742Zm4.25 1.485 2.12.742-.491 1.418-2.125-.746Zm4.242 1.476.203.07-.238.708.183-.727 1.973.508-.375 1.453-1.996-.516-.234-.078Zm4.3 1.118 2.18.562-.375 1.453-2.18-.562Zm4.356 1.12.075.02-.375 1.453-.07-.02Zm0 0"/></g><path fill="none" stroke="#000" stroke-width=".75" d="M35.25 129.375H250.5M35.25.375H250.5M35.625.75V129M250.125.75V129m0-128.25V129M35.625.75V129"/><path fill="none" stroke="#444" stroke-width=".75" d="M65.879 129.75v3.75m42.75-3.75v3.75m42.75-3.75v3.75m42.75-3.75v3.75m42.75-3.75v3.75"/><g fill="#2A3F5F"><use xlink:href="#d" x="57.297" y="144.3"/><use xlink:href="#e" x="63.019" y="144.3"/><use xlink:href="#e" x="68.741" y="144.3"/></g><g fill="#2A3F5F"><use xlink:href="#d" x="97.187" y="144.3"/><use xlink:href="#e" x="102.908" y="144.3"/><use xlink:href="#e" x="108.63" y="144.3"/><use xlink:href="#e" x="114.352" y="144.3"/></g><g fill="#2A3F5F"><use xlink:href="#d" x="142.995" y="144.3"/><use xlink:href="#e" x="148.717" y="144.3"/><use xlink:href="#f" x="154.439" y="144.3"/></g><g fill="#2A3F5F"><use xlink:href="#d" x="182.884" y="144.3"/><use xlink:href="#e" x="188.606" y="144.3"/><use xlink:href="#e" x="194.328" y="144.3"/><use xlink:href="#f" x="200.049" y="144.3"/></g><g fill="#2A3F5F"><use xlink:href="#d" x="230.227" y="144.3"/><use xlink:href="#g" x="235.948" y="144.3"/></g><path fill="none" stroke="#444" stroke-width=".75" d="M35.25 122.715H31.5m3.75-29.477H31.5m3.75-29.48H31.5m3.75-29.477H31.5m3.75-29.472H31.5"/><use xlink:href="#e" x="23.978" y="125.865" fill="#2A3F5F"/><g fill="#2A3F5F"><use xlink:href="#d" x="18.652" y="96.39"/><use xlink:href="#f" x="24.374" y="96.39"/></g><g fill="#2A3F5F"><use xlink:href="#h" x="18.652" y="66.907"/><use xlink:href="#f" x="24.374" y="66.907"/></g><g fill="#2A3F5F"><use xlink:href="#i" x="18.652" y="37.432"/><use xlink:href="#f" x="24.374" y="37.432"/></g><path fill="none" stroke="#FF8C00" stroke-width=".75" d="M250.5 129h3.75m-3.75-35.625h3.75M250.5 57.75h3.75m-3.75-35.625h3.75"/><use xlink:href="#e" x="256.05" y="132.15" fill="#FF8C00"/><g fill="#FF8C00"><use xlink:href="#e" x="256.05" y="96.525"/><use xlink:href="#j" x="261.772" y="96.525"/><use xlink:href="#k" x="265.046" y="96.525"/></g><use xlink:href="#d" x="256.05" y="60.9" fill="#FF8C00"/><g fill="#FF8C00"><use xlink:href="#d" x="256.05" y="25.275"/><use xlink:href="#j" x="261.772" y="25.275"/><use xlink:href="#k" x="265.046" y="25.275"/></g><g fill="#2A3F5F"><use xlink:href="#l" x="144" y="15.135"/><use xlink:href="#m" x="150.258" y="15.135"/><use xlink:href="#n" x="155.619" y="15.135"/><use xlink:href="#o" x="161.024" y="15.135"/><use xlink:href="#p" x="163.494" y="15.135"/><use xlink:href="#q" x="166.658" y="15.135"/><use xlink:href="#m" x="172.085" y="15.135"/><use xlink:href="#r" x="177.447" y="15.135"/><use xlink:href="#s" x="181.288" y="15.135"/><use xlink:href="#t" x="190.041" y="15.135"/><use xlink:href="#u" x="192.511" y="15.135"/><use xlink:href="#u" x="196.058" y="15.135"/><use xlink:href="#t" x="199.604" y="15.135"/><use xlink:href="#v" x="202.074" y="15.135"/><use xlink:href="#t" x="207.4" y="15.135"/><use xlink:href="#u" x="209.87" y="15.135"/><use xlink:href="#w" x="213.416" y="15.135"/></g><path fill="none" stroke="#EF553B" stroke-width="1.5" d="M117.75 11.625h22.5"/><g fill="#2A3F5F"><use xlink:href="#x" x="144" y="29.385"/><use xlink:href="#s" x="147.788" y="29.385"/><use xlink:href="#n" x="156.542" y="29.385"/><use xlink:href="#y" x="161.947" y="29.385"/><use xlink:href="#t" x="167.555" y="29.385"/><use xlink:href="#z" x="170.024" y="29.385"/><use xlink:href="#n" x="175.72" y="29.385"/><use xlink:href="#r" x="181.125" y="29.385"/><use xlink:href="#w" x="184.966" y="29.385"/><use xlink:href="#p" x="190.292" y="29.385"/><use xlink:href="#q" x="193.456" y="29.385"/><use xlink:href="#m" x="198.883" y="29.385"/><use xlink:href="#r" x="204.245" y="29.385"/><use xlink:href="#s" x="208.085" y="29.385"/><use xlink:href="#t" x="216.839" y="29.385"/><use xlink:href="#u" x="219.309" y="29.385"/><use xlink:href="#u" x="222.855" y="29.385"/><use xlink:href="#t" x="226.402" y="29.385"/><use xlink:href="#v" x="228.872" y="29.385"/><use xlink:href="#t" x="234.198" y="29.385"/><use xlink:href="#u" x="236.667" y="29.385"/><use xlink:href="#w" x="240.214" y="29.385"/></g><path fill="none" stroke="#8B0000" stroke-width="1.5" d="M117.75 25.875h22.5"/><g fill="#2A3F5F"><use xlink:href="#A" x="102.287" y="162.75"/><use xlink:href="#B" x="108.322" y="162.75"/><use xlink:href="#C" x="112.803" y="162.75"/><use xlink:href="#D" x="119.058" y="162.75"/><use xlink:href="#E" x="125.6" y="162.75"/><use xlink:href="#C" x="132.244" y="162.75"/><use xlink:href="#F" x="138.499" y="162.75"/><use xlink:href="#G" x="145.144" y="162.75"/><use xlink:href="#H" x="150.614" y="162.75"/><use xlink:href="#I" x="156.828" y="162.75"/><use xlink:href="#J" x="160.519" y="162.75"/><use xlink:href="#K" x="165.287" y="162.75"/><use xlink:href="#L" x="173.178" y="162.75"/><use xlink:href="#M" x="178.694" y="162.75"/></g><g fill="#2A3F5F"><use xlink:href="#N" x="10.5" y="123.948"/><use xlink:href="#O" x="10.5" y="115.858"/><use xlink:href="#P" x="10.5" y="112.977"/><use xlink:href="#Q" x="10.5" y="106.722"/><use xlink:href="#P" x="10.5" y="103.84"/><use xlink:href="#R" x="10.5" y="97.585"/><use xlink:href="#S" x="10.5" y="92.115"/><use xlink:href="#T" x="10.5" y="87.978"/><use xlink:href="#O" x="10.5" y="83.497"/><use xlink:href="#R" x="10.5" y="80.615"/><use xlink:href="#U" x="10.5" y="75.145"/><use xlink:href="#V" x="10.5" y="71.453"/><use xlink:href="#W" x="10.5" y="64.122"/><use xlink:href="#X" x="10.5" y="57.749"/><use xlink:href="#Y" x="10.5" y="51.105"/><use xlink:href="#S" x="10.5" y="45.634"/><use xlink:href="#Z" x="10.5" y="41.497"/><use xlink:href="#X" x="10.5" y="35.19"/><use xlink:href="#S" x="10.5" y="28.546"/><use xlink:href="#U" x="10.5" y="24.408"/><use xlink:href="#aa" x="10.5" y="20.717"/><use xlink:href="#U" x="10.5" y="15.334"/></g><use xlink:href="#ab" x="12.705" y="15.334" fill="#2A3F5F"/><g fill="#2A3F5F"><use xlink:href="#ac" x="12.705" y="12.197"/><use xlink:href="#ad" x="12.705" y="7.819"/></g><use xlink:href="#U" x="10.5" y="5.802" fill="#2A3F5F"/><g fill="#FF8C00"><use xlink:href="#N" x="282.75" y="121.051"/><use xlink:href="#O" x="282.75" y="112.961"/><use xlink:href="#P" x="282.75" y="110.079"/><use xlink:href="#Q" x="282.75" y="103.824"/><use xlink:href="#P" x="282.75" y="100.943"/><use xlink:href="#R" x="282.75" y="94.688"/><use xlink:href="#S" x="282.75" y="89.218"/><use xlink:href="#T" x="282.75" y="85.08"/><use xlink:href="#O" x="282.75" y="80.599"/><use xlink:href="#R" x="282.75" y="77.718"/><use xlink:href="#U" x="282.75" y="72.248"/><use xlink:href="#ae" x="282.75" y="68.556"/><use xlink:href="#W" x="282.75" y="62.711"/><use xlink:href="#Y" x="282.75" y="56.339"/><use xlink:href="#Y" x="282.75" y="50.868"/><use xlink:href="#U" x="282.75" y="45.398"/><use xlink:href="#S" x="282.75" y="41.706"/><use xlink:href="#Z" x="282.75" y="37.569"/><use xlink:href="#X" x="282.75" y="31.263"/><use xlink:href="#af" x="282.75" y="24.618"/><use xlink:href="#ag" x="282.75" y="19.85"/><use xlink:href="#ah" x="282.75" y="13.467"/></g><g fill="#2A3F5F"><use xlink:href="#ai" x="115.507" y="81.75"/><use xlink:href="#aj" x="123.362" y="81.75"/><use xlink:href="#ak" x="129.223" y="81.75"/><use xlink:href="#al" x="136.155" y="81.75"/><use xlink:href="#ak" x="142.912" y="81.75"/><use xlink:href="#am" x="149.844" y="81.75"/><use xlink:href="#an" x="156.546" y="81.75"/><use xlink:href="#ao" x="165.401" y="81.75"/></g><use xlink:href="#ap" x="165.401" y="84.112" fill="#2A3F5F"/><use xlink:href="#ao" x="170.407" y="81.75" fill="#2A3F5F"/></svg>