<svg xmlns="http://www.w3.org/2000/svg" xmlns:xlink="http://www.w3.org/1999/xlink" width="525.12" height="375.12"><defs><path id="b" d="M6.703 0h-.86v-5.64L4.017-1.798H3.5L1.688-5.64V0H.875v-6.547h1.188l1.75 3.64L5.5-6.546h1.203Zm0 0"/><path id="c" d="M6.031 0H5.11l-.64-1.828H1.64L1 0H.11L2.5-6.547h1.156ZM4.203-2.578 3.047-5.781l-1.14 3.203Zm0 0"/><path id="d" d="M5.938-.469q-.253.094-.454.188a4 4 0 0 1-.5.203 6 6 0 0 1-.578.14q-.316.062-.703.063Q3 .123 2.406-.078a2.6 2.6 0 0 1-1-.625 3 3 0 0 1-.672-1.063Q.5-2.403.5-3.266q0-.81.234-1.437a3.05 3.05 0 0 1 .657-1.078q.419-.434 1.015-.657a3.8 3.8 0 0 1 1.313-.218q.515.001 1.047.125.527.128 1.172.437v1.047h-.079q-.533-.451-1.062-.656a3 3 0 0 0-1.14-.219q-.504.001-.907.172a2 2 0 0 0-.703.484q-.3.329-.469.844a3.5 3.5 0 0 0-.172 1.156q0 .69.188 1.188.186.503.484.812.31.331.719.485.405.14.875.14a3.3 3.3 0 0 0 1.172-.203A3.4 3.4 0 0 0 5.875-1.5h.063Zm0 0"/><path id="e" d="M5.188 0H.875v-6.547h4.313v.781H1.75v1.782h3.438v.78H1.75V-.78h3.438Zm0 0"/><path id="f" d="M5.89 0h-.874v-3.203H1.75V0H.875v-6.547h.875v2.563h3.266v-2.563h.875Zm0 0"/><path id="g" d="M6.344-.484a9 9 0 0 1-1.188.437 4.7 4.7 0 0 1-2.625-.031 3 3 0 0 1-1.078-.64A2.75 2.75 0 0 1 .75-1.782Q.499-2.42.5-3.281q-.002-1.56.922-2.469.92-.905 2.516-.906.56 0 1.14.14.575.128 1.25.438v1.031H6.25c-.086-.062-.215-.148-.39-.266a7 7 0 0 0-.516-.296q-.3-.124-.688-.22a3.6 3.6 0 0 0-.875-.093q-1.095 0-1.734.703c-.43.469-.64 1.106-.64 1.907q-.001 1.281.671 1.984.668.703 1.813.703c.28 0 .562-.023.843-.078.282-.063.524-.133.735-.219v-1.61h-1.75v-.765h2.625Zm0 0"/><path id="h" d="M5.875 0H4.797l-3.11-5.86V0H.876v-6.547h1.36l2.828 5.344v-5.344h.812Zm0 0"/><path id="i" d="M4.922-2.375h-3.61q-.001.457.125.797.142.329.375.547c.157.148.336.258.547.328q.312.094.688.094.497 0 1-.188.514-.2.734-.406h.047v.906q-.423.175-.86.297c-.292.07-.593.11-.905.11q-1.22 0-1.907-.657Q.468-1.202.47-2.422q0-1.201.656-1.906.657-.717 1.734-.719.984.002 1.516.578.546.58.547 1.657ZM4.125-3q-.017-.655-.344-1-.313-.359-.969-.36c-.449 0-.804.133-1.062.391A1.5 1.5 0 0 0 1.313-3Zm0 0"/><path id="j" d="M3.36-.047a4 4 0 0 1-.516.094q-.269.047-.485.047-.752.002-1.14-.406Q.828-.718.829-1.61v-2.61H.265v-.687h.562v-1.407h.828v1.407H3.36v.687H1.656v2.235q-.001.391.016.609.012.22.125.406a.62.62 0 0 0 .266.266c.113.055.285.078.515.078q.2 0 .422-.062.218-.059.313-.094h.046Zm0 0"/><path id="k" d="M4.563-3.156c.132.125.25.289.343.484q.14.283.14.735 0 .454-.171.828A2.06 2.06 0 0 1 3.641 0q-.44.14-.97.14-.55 0-1.077-.141a4.6 4.6 0 0 1-.86-.281v-.922h.063q.373.252.875.422.516.157.984.156c.188 0 .383-.031.594-.094q.311-.091.5-.265.201-.2.297-.422c.07-.157.11-.352.11-.594q-.001-.357-.126-.578a1 1 0 0 0-.297-.375 1.4 1.4 0 0 0-.484-.172 3 3 0 0 0-.61-.062h-.39v-.735h.297q.668.002 1.062-.265c.27-.188.407-.461.407-.829a.77.77 0 0 0-.11-.406.75.75 0 0 0-.265-.297 1.5 1.5 0 0 0-.407-.156 2.3 2.3 0 0 0-.484-.047c-.281 0-.578.055-.89.156q-.47.141-.891.422H.922v-.922a4.3 4.3 0 0 1 .828-.28q.528-.142 1.016-.141.48 0 .843.093.358.095.657.282.31.222.468.515.171.3.172.688c0 .367-.133.683-.39.953a1.64 1.64 0 0 1-.907.515v.063q.216.034.485.156.28.112.468.266m0 0"/><path id="l" d="M5.016 0H.875v-6.547h.875V-.78h3.266Zm0 0"/><path id="m" d="M3.188 0H.608v-.672h.844v-5.203H.61v-.672h2.579v.672h-.86v5.203h.86Zm0 0"/><path id="n" d="M8.5-6.547 6.797 0h-.984L4.438-5.437 3.093 0H2.14L.406-6.547h.89l1.376 5.438 1.36-5.438h.874l1.375 5.5 1.36-5.5Zm0 0"/><path id="o" d="M3.875-4.016h-.047a7 7 0 0 0-.36-.046 2.5 2.5 0 0 0-.405-.032 1.7 1.7 0 0 0-.735.172 3.6 3.6 0 0 0-.687.438V0H.813v-4.906h.828v.718c.32-.257.609-.44.859-.546q.388-.171.781-.172c.133 0 .235.008.297.015.07 0 .172.012.297.032Zm0 0"/><path id="p" d="M4.922 0h-.828v-2.797a4 4 0 0 0-.047-.64 1.05 1.05 0 0 0-.14-.454.7.7 0 0 0-.313-.28 1.3 1.3 0 0 0-.547-.095q-.328.001-.703.172a4.7 4.7 0 0 0-.703.422V0H.813v-4.906h.828v.547a3 3 0 0 1 .797-.5q.42-.188.843-.188.797.002 1.219.484.422.471.422 1.375Zm0 0"/><path id="q" d="M3.453-6.031h-.047a2 2 0 0 0-.36-.078 2 2 0 0 0-.374-.047q-.534 0-.781.234-.235.234-.235.844v.172h1.485v.687H1.688V0H.859v-4.219H.297v-.687h.562v-.172q0-.872.438-1.328.434-.47 1.25-.469.279.001.5.031.217.018.406.047Zm0 0"/><path id="r" d="M5-2.453c0 .805-.21 1.437-.625 1.906q-.61.69-1.64.688-1.048.002-1.657-.688c-.406-.469-.61-1.101-.61-1.906q0-1.2.61-1.89.608-.704 1.656-.704 1.032 0 1.641.703c.414.461.625 1.09.625 1.89m-.86 0q0-.95-.374-1.406-.375-.47-1.032-.47-.672 0-1.046.47-.375.456-.375 1.406 0 .926.375 1.406.374.47 1.046.469.657 0 1.032-.469t.375-1.406m0 0"/><path id="s" d="M7.969 0h-.813v-2.797q0-.31-.031-.61A1.4 1.4 0 0 0 7-3.874a.6.6 0 0 0-.297-.281c-.125-.07-.305-.11-.531-.11q-.364 0-.703.188-.346.175-.688.437.014.094.016.235.014.127.016.265V0h-.829v-2.797q0-.328-.03-.61a1.4 1.4 0 0 0-.126-.468.6.6 0 0 0-.281-.281c-.125-.07-.309-.11-.547-.11q-.346.001-.687.172a6 6 0 0 0-.672.422V0H.813v-4.906h.828v.547c.257-.22.515-.383.765-.5q.388-.188.828-.188.498 0 .844.219.357.204.516.578.513-.421.922-.61.404-.186.89-.187.797.001 1.172.5.388.486.39 1.36Zm0 0"/><path id="t" d="M6.438-2.516H4.047v2.391h-.734v-2.39H.922v-.704h2.39v-2.39h.735v2.39h2.39Zm0 0"/><path id="u" d="M5.156-4.562q-.002.438-.156.812a1.8 1.8 0 0 1-.422.64 2.15 2.15 0 0 1-.797.5c-.304.118-.687.172-1.156.172H1.75V0H.875v-6.547h1.781c.395 0 .727.04 1 .11.27.062.508.164.719.296q.374.251.578.625.201.377.203.954m-.906.015q-.001-.327-.125-.578a.93.93 0 0 0-.344-.422 2 2 0 0 0-.484-.187 3.3 3.3 0 0 0-.688-.063H1.75v2.61h.734q.53 0 .86-.094.327-.093.531-.297.2-.201.281-.438.094-.233.094-.53m0 0"/><path id="v" d="M5.813-2.016A1.9 1.9 0 0 1 5.14-.53q-.377.282-.828.406-.441.127-1.11.125H.875v-6.547h1.938c.476 0 .835.024 1.078.063q.358.047.687.218c.238.125.41.29.516.485.101.199.156.433.156.703q0 .468-.234.797a1.7 1.7 0 0 1-.625.531v.031q.655.128 1.03.578.39.458.391 1.125m-1.47-2.953a.9.9 0 0 0-.077-.39.6.6 0 0 0-.25-.266 1.1 1.1 0 0 0-.5-.14 8 8 0 0 0-.735-.032H1.75v1.89h1.125q.406 0 .64-.046.248-.045.454-.172a.77.77 0 0 0 .281-.344q.094-.2.094-.5m.563 2.985c0-.258-.043-.47-.125-.625Q4.67-2.844 4.36-3a1.5 1.5 0 0 0-.515-.14 8 8 0 0 0-.735-.032H1.75V-.75h1.156q.56 0 .922-.047.375-.06.61-.219.247-.169.359-.39c.07-.145.11-.336.11-.578m0 0"/><path id="w" d="M5.75-5.797q.405.44.61 1.078.217.645.218 1.453 0 .798-.219 1.438-.222.645-.609 1.078a2.6 2.6 0 0 1-.953.672 3.4 3.4 0 0 1-1.25.219c-.461 0-.883-.082-1.266-.235a2.7 2.7 0 0 1-.953-.656 3 3 0 0 1-.61-1.062C.57-2.238.5-2.722.5-3.266q-.001-.793.203-1.437.216-.639.625-1.094.389-.422.953-.656a3.3 3.3 0 0 1 1.266-.234q.702 0 1.25.234a2.7 2.7 0 0 1 .953.656m-.078 2.531q-.002-1.277-.578-1.968-.562-.687-1.547-.688-1.003 0-1.578.688-.563.69-.563 1.968 0 1.283.578 1.97.591.689 1.563.687.966.002 1.547-.688.576-.685.578-1.969m0 0"/><path id="x" d="M5.64-1.875q0 .392-.187.766a1.6 1.6 0 0 1-.5.625q-.344.282-.812.453a3.7 3.7 0 0 1-1.125.156A6 6 0 0 1 1.734 0a6.3 6.3 0 0 1-1.14-.406V-1.5h.062c.32.281.703.496 1.14.64.438.15.845.22 1.22.22q.808 0 1.265-.297c.301-.196.453-.47.453-.813q-.001-.436-.218-.64-.222-.2-.641-.313a5 5 0 0 0-.734-.14A13 13 0 0 1 2.344-3q-.877-.186-1.297-.625-.422-.45-.422-1.172-.002-.81.688-1.328.7-.53 1.765-.531.703.001 1.266.125.574.129 1.031.328v1.031h-.062q-.375-.327-.985-.531a4 4 0 0 0-1.25-.203q-.703.002-1.125.297-.422.281-.422.734 0 .408.203.64.218.236.75.36.282.064.797.156.528.08.89.172c.477.125.845.32 1.095.578q.375.392.375 1.094m0 0"/><path id="y" d="M6.297 0h-1.14L2.968-2.61H1.75V0H.875v-6.547h1.844q.591 0 .984.078.387.082.703.282.358.222.563.562.201.345.203.86c0 .468-.121.867-.36 1.187a2.3 2.3 0 0 1-.984.719ZM4.266-4.703c0-.188-.04-.352-.11-.5a.8.8 0 0 0-.328-.36 1.05 1.05 0 0 0-.453-.187 3.4 3.4 0 0 0-.61-.047H1.75v2.469h.875q.421 0 .719-.063.31-.075.531-.28.188-.189.281-.423c.07-.156.11-.36.11-.61m0 0"/><path id="z" d="M6.031-6.547 3.656 0H2.5L.11-6.547h.937L3.094-.78l2.062-5.766Zm0 0"/><path id="A" d="M1.703-5.734H.766v-.86h.937ZM1.641 0H.828v-4.906h.813Zm0 0"/><path id="C" d="M5.063-5.766H1.75v1.844h2.844v.766H1.75V0H.875v-6.547h4.188Zm0 0"/><path id="D" d="M6.406-2.516H.97v-.703h5.437Zm0 0"/><path id="E" d="M5.125-3.281q-.001 1.769-.547 2.594C4.211-.133 3.641.14 2.86.14Q1.687.142 1.141-.687.608-1.531.609-3.266q-.002-1.746.547-2.578.545-.827 1.703-.828 1.186 0 1.72.844c.362.562.546 1.414.546 2.547m-1.156 2c.101-.239.172-.516.203-.828q.06-.48.062-1.172a10 10 0 0 0-.062-1.14 2.7 2.7 0 0 0-.203-.845 1.2 1.2 0 0 0-.422-.515c-.18-.114-.406-.172-.688-.172a1.3 1.3 0 0 0-.687.172q-.27.176-.422.515a3 3 0 0 0-.203.86 13 13 0 0 0-.047 1.14q0 .69.047 1.157.046.455.203.812.14.344.406.531c.176.118.41.172.703.172.282 0 .508-.054.688-.172q.28-.17.422-.515m0 0"/><path id="F" d="M2.156 0H1.11v-1.25h1.047Zm0 0"/><path id="G" d="M5.281-1.844h-.968V0h-.844v-1.844H.344v-1.015L3.5-6.547h.813v4h.968ZM3.47-2.547V-5.5L.938-2.547Zm0 0"/><path id="H" d="M5.14 0H.704v-.922c.313-.258.617-.52.922-.781q.467-.404.875-.797c.563-.54.945-.973 1.156-1.297q.312-.48.313-1.031-.002-.516-.344-.797c-.219-.195-.531-.297-.937-.297q-.392 0-.86.14a3.3 3.3 0 0 0-.906.438H.875v-.922a4.3 4.3 0 0 1 .828-.28q.514-.142 1.016-.141.998 0 1.562.5.576.486.578 1.312 0 .375-.093.703-.095.316-.282.61-.174.269-.406.53-.22.27-.547.579a27 27 0 0 1-.984.906c-.336.281-.64.547-.922.797h3.516Zm0 0"/><path id="I" d="M4.766 0H1.219v-.672h1.36v-4.375h-1.36v-.61q.28 0 .593-.046a1.8 1.8 0 0 0 .485-.125.8.8 0 0 0 .312-.281.85.85 0 0 0 .141-.453h.672v5.89h1.344Zm0 0"/><path id="ag" d="M5.234-2.125q0 1.002-.656 1.64-.657.627-1.61.626-.485 0-.89-.141a1.9 1.9 0 0 1-.687-.453 2.4 2.4 0 0 1-.578-.969Q.608-2.03.609-2.875q-.002-.873.172-1.547c.125-.445.328-.844.61-1.187q.375-.499.984-.782.622-.28 1.438-.28.246 0 .421.03.186.02.36.079v.843h-.047a1 1 0 0 0-.36-.125 2.3 2.3 0 0 0-.515-.062q-.937.001-1.5.593-.563.58-.656 1.594.356-.234.718-.344.359-.107.829-.109.419 0 .734.078.328.063.656.297c.258.18.453.406.578.688q.201.41.203.984m-.89.031q-.001-.404-.125-.672a1.34 1.34 0 0 0-.39-.468 1.05 1.05 0 0 0-.454-.172 3 3 0 0 0-.516-.047q-.375 0-.703.094-.316.08-.656.265c0 .063-.008.125-.016.188v.219q0 .704.141 1.109.154.392.406.625.201.188.438.281c.156.063.32.094.5.094q.638 0 1-.39.375-.388.375-1.126m0 0"/><path id="ah" d="M3.422-2.469H.672v-.797h2.75Zm0 0"/><path id="ai" d="M5.156-5.562 2.188 0H1.25l3.156-5.781H.672v-.766h4.484Zm0 0"/><path id="aj" d="M5.188-1.828c0 .574-.227 1.047-.672 1.422q-.659.562-1.657.562Q1.795.158 1.156-.39.53-.952.531-1.812q-.002-.529.313-.97.328-.449.906-.718v-.016q-.534-.28-.781-.609-.251-.34-.25-.844c0-.488.195-.894.594-1.218q.609-.5 1.546-.5.984 0 1.563.468.592.471.594 1.188c0 .304-.094.593-.282.875a1.93 1.93 0 0 1-.812.672v.03q.61.27.937.657.33.376.329.969M4.14-5.016a.91.91 0 0 0-.36-.75q-.361-.28-.922-.28-.563 0-.921.265a.85.85 0 0 0-.344.703.9.9 0 0 0 .172.562c.125.149.304.282.547.407q.152.08.453.203.31.128.609.203c.29-.188.488-.383.594-.594a1.5 1.5 0 0 0 .172-.719m.14 3.282q0-.406-.187-.641-.174-.247-.688-.5a5 5 0 0 0-.453-.172 41 41 0 0 1-.656-.25 1.8 1.8 0 0 0-.64.594 1.5 1.5 0 0 0-.235.828q-.002.598.406.984.404.392 1.047.391.64 0 1.016-.328c.257-.227.39-.531.39-.906m0 0"/><path id="ak" d="M5.125-3.672q-.002.86-.203 1.563a3.2 3.2 0 0 1-.578 1.187q-.409.502-1.016.781-.597.265-1.406.266Q1.698.124 1.5.094A2 2 0 0 1 1.14.03v-.843h.032c.094.042.21.085.36.125q.232.063.53.062.966.001 1.516-.578.546-.591.64-1.61a3.7 3.7 0 0 1-.765.344 2.7 2.7 0 0 1-.797.11q-.391.002-.719-.079a1.9 1.9 0 0 1-.656-.312 1.7 1.7 0 0 1-.593-.672 2.4 2.4 0 0 1-.188-1q0-.997.656-1.625.656-.623 1.61-.625c.312 0 .601.055.875.156q.405.141.703.422.374.377.578.953c.133.375.203.868.203 1.47m-.89-.187q0-.669-.141-1.078-.141-.422-.375-.657a1.4 1.4 0 0 0-.453-.265 1.4 1.4 0 0 0-.516-.094c-.418 0-.75.133-1 .39q-.361.394-.36 1.11 0 .423.11.687.124.268.406.454c.133.093.282.156.438.187a2.7 2.7 0 0 0 1.219-.047q.357-.091.656-.265.013-.095.015-.188zm0 0"/><path id="al" d="M5.078-2.078c0 .305-.058.594-.172.875a1.9 1.9 0 0 1-.453.703q-.315.315-.75.484a3.1 3.1 0 0 1-1.015.157Q2.154.14 1.656.016A4 4 0 0 1 .828-.25v-.922h.063c.238.156.515.29.828.39q.482.158.953.157c.207 0 .41-.023.61-.078.195-.063.366-.164.515-.313a1.1 1.1 0 0 0 .297-.453q.093-.264.093-.61a1.24 1.24 0 0 0-.125-.577.95.95 0 0 0-.312-.375 1.45 1.45 0 0 0-.547-.219 3.3 3.3 0 0 0-.734-.078q-.393.002-.75.062-.364.048-.61.094v-3.375h3.938v.766H1.953v1.75q.188-.014.375-.016.2-.014.36-.016.528 0 .921.094c.27.055.516.156.735.313q.358.236.547.625.187.377.187.953m0 0"/><path id="am" d="M6.719 1.61q-.269.058-.532.093-.251.03-.515.031-.767 0-1.234-.421-.456-.423-.5-1.204-.111.014-.204.016a2 2 0 0 1-.187.016c-.461 0-.883-.082-1.266-.235a2.7 2.7 0 0 1-.953-.656 3 3 0 0 1-.61-1.062Q.498-2.45.5-3.266q-.001-.793.203-1.437.216-.639.625-1.094.389-.422.953-.656a3.3 3.3 0 0 1 1.266-.234q.702 0 1.25.234a2.7 2.7 0 0 1 .953.656q.405.44.61 1.078.217.645.218 1.453-.002 1.206-.484 2.032-.486.814-1.313 1.14.012.497.235.766.216.28.797.281Q6 .951 6.234.891a2 2 0 0 0 .36-.094h.125ZM5.672-3.267q-.002-1.277-.578-1.968-.562-.687-1.547-.688-1.003 0-1.578.688-.563.69-.563 1.968 0 1.283.578 1.97.591.689 1.563.687.966.002 1.547-.688.576-.685.578-1.969m0 0"/><path id="J" d="M0-6.062v5.03h-7.64v-5.03h.906v4.015h2.093v-4.015h.907v4.015h2.828v-4.015Zm0 0"/><path id="K" d="M-4.672-4.516v.047q-.06.224-.078.422a8 8 0 0 0-.016.469q.002.456.204.875.188.41.5.797H0v.953h-5.734v-.953h.859q-.468-.575-.656-1.016a2.1 2.1 0 0 1-.203-.89q.002-.264.015-.376.018-.106.047-.328Zm0 0"/><path id="L" d="M-2.86-5.828q1.395.002 2.204.719.813.72.812 1.922 0 1.22-.812 1.937-.81.703-2.203.703-1.405 0-2.22-.703c-.538-.477-.812-1.125-.812-1.937 0-.801.274-1.442.813-1.922.543-.477 1.281-.72 2.219-.72m0 1q-1.106.002-1.656.437-.545.423-.546 1.204 0 .785.546 1.218.55.439 1.657.438 1.077 0 1.64-.438.549-.433.547-1.218.002-.763-.547-1.204-.563-.435-1.64-.437m0 0"/><path id="N" d="M-6.687-1.984v1.093h-1v-1.093ZM0-1.922v.969h-5.734v-.969Zm0 0"/><path id="O" d="M0-5.734v.968h-3.266q-.387 0-.734.047-.341.034-.547.157a.72.72 0 0 0-.312.375 1.55 1.55 0 0 0-.11.625q.002.393.203.828c.125.28.29.558.485.828H0v.953h-5.734v-.953h.64q-.374-.452-.578-.938a2.4 2.4 0 0 1-.219-.984q0-.937.563-1.422.564-.482 1.61-.484Zm0 0"/><path id="P" d="M0-4.016v.672h-2.281q-.282.001-.516.031c-.164.024-.289.063-.375.126a.52.52 0 0 0-.219.265 1 1 0 0 0-.078.438c0 .18.047.37.14.578q.129.298.345.562H0v.688h-5.578v-.688h2.016a2.6 2.6 0 0 1-.407-.64 1.8 1.8 0 0 1-.14-.703q.002-.639.39-.985c.262-.226.637-.344 1.125-.344Zm0 0"/><path id="Q" d="M0-3.984v.672h-.437c.18.23.312.449.406.656.09.21.14.437.14.687q0 .627-.375.985c-.257.23-.64.343-1.14.343H-4v-.671h2.281q.3.001.516-.016a.9.9 0 0 0 .375-.125.7.7 0 0 0 .234-.25q.064-.154.063-.453.001-.263-.125-.578a2.6 2.6 0 0 0-.36-.578H-4v-.672Zm0 0"/><path id="R" d="M0-1.344v.672h-5.578v-.672Zm0 0"/><path id="T" d="M0-3.906v.672h-.422q.251.28.39.609c.09.21.141.434.141.672q.002.72-.546 1.14C-.812-.53-1.32-.39-1.97-.39q-.514 0-.906-.14-.406-.14-.687-.39a1.7 1.7 0 0 1-.407-.563 1.7 1.7 0 0 1-.14-.688q.002-.311.062-.547.064-.246.203-.515h-1.734v-.672Zm-.984.672h-2.297q-.123.269-.172.484a2.3 2.3 0 0 0-.047.469q.001.563.406.89.394.315 1.11.313.719.001 1.093-.25c.243-.164.36-.426.36-.781q.001-.281-.125-.578a2.2 2.2 0 0 0-.328-.547m0 0"/><path id="U" d="M-4.672-1.39v.765h-.703v-.766ZM0-1.345v.672h-4v-.672Zm0 0"/><path id="V" d="M-1.156-3.531q.55 0 .906.453c.23.305.344.719.344 1.25q0 .438-.094.812a3.3 3.3 0 0 1-.234.625H-1v-.046q.251-.311.39-.704.141-.386.141-.75 0-.435-.14-.687a.5.5 0 0 0-.453-.266q-.248 0-.36.14-.124.144-.219.532a7 7 0 0 0-.062.375q-.047.224-.094.422c-.094.344-.226.594-.406.75q-.28.22-.672.219-.246 0-.469-.094a1.1 1.1 0 0 1-.39-.328 1.4 1.4 0 0 1-.266-.5 2.2 2.2 0 0 1-.11-.703q0-.357.094-.719.095-.375.22-.61h.718v.032a2.3 2.3 0 0 0-.313.625q-.14.377-.14.719 0 .375.14.64.141.251.422.25.252.001.375-.156.128-.154.203-.5.048-.17.094-.406.035-.233.063-.39.111-.469.375-.72.27-.264.703-.265m0 0"/><path id="W" d="M-.031-2.75c.031.137.054.277.078.422q.03.22.031.406 0 .61-.328.938c-.219.21-.57.312-1.062.312h-2.125v.453H-4v-.453h-1.156v-.687H-4V-2.75h.563v1.39h2.328a.7.7 0 0 0 .328-.109.44.44 0 0 0 .203-.218q.063-.141.062-.422 0-.153-.046-.328a2 2 0 0 0-.079-.266v-.047Zm0 0"/><path id="X" d="M1.688-3.219v.938a6.4 6.4 0 0 1-1.813 1.14q-.984.392-2.219.391c-.82 0-1.562-.129-2.218-.39a6.5 6.5 0 0 1-1.829-1.141v-.938h.047c.2.23.43.446.688.64q.393.3.922.563.502.253 1.109.407a5.7 5.7 0 0 0 1.281.14 5.4 5.4 0 0 0 1.281-.14 6.3 6.3 0 0 0 1.11-.407q.497-.246.906-.562.405-.312.703-.64Zm0 0"/><path id="Y" d="M-2.219-4.594v3.375c.281 0 .531-.039.75-.125q.317-.122.516-.343.189-.218.297-.516.094-.294.094-.64 0-.47-.188-.938-.187-.481-.375-.688V-4.5h.844q.175.393.281.797c.07.273.11.555.11.844q0 1.142-.61 1.78-.622.644-1.766.642-1.125 0-1.78-.61-.671-.608-.673-1.61c0-.624.184-1.1.547-1.437q.55-.499 1.547-.5Zm-.578.75q-.61.001-.937.313-.342.298-.344.906 0 .626.375 1 .362.361.906.406Zm0 0"/><path id="Z" d="M-6.11-5.64 0-3.423v1.094L-6.11-.11v-.875l5.376-1.907-5.375-1.921Zm0 0"/><path id="aa" d="M-6.39-3.531 1.25-.594v.719l-7.64-2.937Zm0 0"/><path id="ab" d="M0-4.328v.781h-.484q.064.095.187.266.128.174.203.344c.063.124.114.273.157.437q.06.253.062.594.002.628-.406 1.062-.403.423-1.047.422c-.344 0-.625-.07-.844-.219a1.57 1.57 0 0 1-.515-.64 3.8 3.8 0 0 1-.235-1q-.074-.593-.11-1.266h-.109a.9.9 0 0 0-.437.094.7.7 0 0 0-.281.25 1.2 1.2 0 0 0-.125.406q-.031.223-.032.469.001.313.079.687c.054.25.132.508.234.766v.047h-.781a14 14 0 0 1-.141-.656 5 5 0 0 1-.078-.844q0-.48.094-.844a1.8 1.8 0 0 1 .265-.625c.125-.164.293-.297.5-.39q.3-.141.735-.141Zm-1.125.781h-1.281q.016.347.062.828.047.47.125.75.096.33.297.547c.125.137.305.203.531.203q.41 0 .61-.234.187-.247.187-.734.001-.406-.156-.735a3 3 0 0 0-.375-.625m0 0"/><path id="ac" d="M-.047-3.14c.043.148.07.308.094.484q.047.253.047.453 0 .704-.375 1.062c-.258.243-.664.36-1.219.36h-2.437v.531h-.641v-.531h-1.328v-.766h1.328V-3.14h.64v1.594h2.094q.363.001.563-.016a.9.9 0 0 0 .375-.109.55.55 0 0 0 .25-.25c.043-.101.062-.266.062-.484q0-.187-.047-.39a3 3 0 0 0-.093-.298v-.047Zm0 0"/><path id="ad" d="M-2.297-4.672q1.125.002 1.781.578.643.58.641 1.547c0 .649-.21 1.164-.64 1.547q-.657.563-1.782.563-1.108 0-1.765-.563-.657-.574-.657-1.547 0-.966.657-1.547.657-.576 1.765-.578m0 .797q-.89 0-1.312.36-.437.346-.438.968c0 .418.149.742.438.969q.42.344 1.312.344.878 0 1.328-.344.439-.34.438-.969 0-.622-.438-.969-.45-.358-1.328-.359m0 0"/><path id="ae" d="M0-7.453v.781h-2.61q-.292.001-.562.031a1.1 1.1 0 0 0-.453.11.67.67 0 0 0-.266.265q-.093.175-.093.5 0 .33.172.657.159.328.406.64h.219q.126-.013.25-.015H0v.765h-2.61q-.309.001-.578.031-.262.017-.437.11a.64.64 0 0 0-.266.281q-.093.173-.093.5.001.315.156.64.159.317.406.626H0v.765h-4.578v-.765h.5a3.6 3.6 0 0 1-.469-.719 1.76 1.76 0 0 1-.172-.766q.002-.468.203-.796a1.26 1.26 0 0 1 .547-.485 4 4 0 0 1-.562-.844 1.9 1.9 0 0 1-.188-.828q0-.762.469-1.125.456-.359 1.281-.36Zm0 0"/><path id="af" d="M-2.344-3.078q1.236.001 2.219.406a6.8 6.8 0 0 1 1.813 1.125v.938h-.032a7 7 0 0 0-.703-.625 4.5 4.5 0 0 0-.906-.563 7 7 0 0 0-1.11-.406 5 5 0 0 0-1.28-.156 5.3 5.3 0 0 0-1.282.156 6 6 0 0 0-1.11.406c-.35.168-.66.356-.921.563a5.4 5.4 0 0 0-.688.625h-.047v-.938a7 7 0 0 1 1.829-1.125q.986-.405 2.218-.406m0 0"/><clipPath id="a"><path d="M46 1h479v346H46Zm0 0"/></clipPath></defs><path fill="#FFF" d="M0 0h525v375H0Zm0 0"/><path fill="#FFF" d="M47.25 2.25h477v343.5h-477Zm0 0"/><path fill="none" stroke="#D3D3D3" stroke-width=".75" d="M86.586 2.25v343.5m44.258-343.5v343.5m44.258-343.5v343.5M219.36 2.25v343.5m44.257-343.5v343.5m44.266-343.5v343.5M352.14 2.25v343.5m44.258-343.5v343.5m44.258-343.5v343.5m44.258-343.5v343.5M47.25 331.836h477m-477-36.238h477m-477-36.246h477m-477-36.242h477m-477-72.489h477m-477-36.238h477m-477-36.246h477m-477-36.242h477m-477-36.239h477"/><path fill="none" stroke="#EBF0F8" stroke-width="1.5" d="M47.25 186.863h477"/><path fill="#636EFA" fill-opacity=".502" stroke="#636EFA" stroke-width="1.5" d="M71.102 191.941h30.98m-30.98 23.286h30.98V177.62h-30.98Zm15.484 0v27.449m0-65.055v-17.937m-7.738 82.992h15.488m-15.488-82.992h15.488"/><path fill="#EF553B" fill-opacity=".502" stroke="#EF553B" stroke-width="1.5" d="M115.36 195.563h30.98m-30.98 25.011h30.98v-42.222h-30.98Zm15.484 0v27.18m0-69.402v-16.856m-7.739 86.258h15.489m-15.489-86.258h15.489"/><path fill="#00CC96" fill-opacity=".502" stroke="#00CC96" stroke-width="1.5" d="M159.613 198.105h30.985m-30.985 30.442h30.985v-48.75h-30.985Zm15.489 0v32.617m0-81.367V160.77m-7.739 100.394h15.489M167.363 160.77h15.489"/><path fill="#AB63FA" fill-opacity=".502" stroke="#AB63FA" stroke-width="1.5" d="M203.871 190.125h30.984m-30.984 32.078h30.984v-67.5h-30.984Zm15.488 0v39.684m0-107.184v-50.836m-7.738 158.02h15.488m-15.488-158.02h15.488"/><path fill="#FFA15A" fill-opacity=".502" stroke="#FFA15A" stroke-width="1.5" d="M248.129 201h30.984m-30.984 44.121h30.984V174.27H248.13Zm15.488 0v48.66m0-119.511v-31.258m-7.738 150.77h15.484m-15.484-150.77h15.484"/><path fill="#19D3F3" fill-opacity=".502" stroke="#19D3F3" stroke-width="1.5" d="M292.387 194.844h30.984m-30.984 39.043h30.984v-78.008h-30.984Zm15.496 0v46.484m0-124.492V92.273m-7.746 188.098h15.484M300.137 92.273h15.484"/><path fill="#FF6692" fill-opacity=".502" stroke="#FF6692" stroke-width="1.5" d="M336.645 206.438h30.984m-30.984 42.039h30.984v-79.278h-30.984Zm15.496 0v47.84m0-127.118v-51.922m-7.75 179.04h15.488m-15.488-179.04h15.488"/><path fill="#B6E880" fill-opacity=".502" stroke="#B6E880" stroke-width="1.5" d="M380.902 180.703h30.985M380.902 224.2h30.985v-98.402h-30.985Zm15.496 0v59.797m0-158.2V53.489m-7.75 230.508h15.489M388.648 53.488h15.489"/><path fill="#FF97FF" fill-opacity=".502" stroke="#FF97FF" stroke-width="1.5" d="M425.16 183.969h30.98m-30.98 33.703h30.98v-101.75h-30.98Zm15.496 0v36.969m0-138.72V19.427m-7.75 235.215h15.489M432.906 19.426h15.489"/><path fill="#FECB52" fill-opacity=".502" stroke="#FECB52" stroke-width="1.5" d="M469.418 200.273h30.98m-30.98 63.336h30.98V156.24h-30.98Zm15.496 0v64.965m0-172.336V106.77m-7.75 221.804h15.488M477.164 106.77h15.488"/><g clip-path="url(#a)"><path fill="none" stroke="#000" stroke-width=".75" d="M46.5 346.125H525M46.5 1.875H525"/></g><path fill="none" stroke="#000" stroke-width=".75" d="M46.875 2.25v343.5m477.75-343.5v343.5"/><path fill="none" stroke="#444" stroke-width=".75" d="M86.586 346.5v3.75m44.258-3.75v3.75m44.258-3.75v3.75m44.258-3.75v3.75m44.257-3.75v3.75m44.266-3.75v3.75m44.257-3.75v3.75m44.258-3.75v3.75m44.258-3.75v3.75m44.258-3.75v3.75"/><g fill="#2A3F5F"><use xlink:href="#b" x="73.731" y="361.05"/><use xlink:href="#c" x="81.316" y="361.05"/><use xlink:href="#d" x="87.469" y="361.05"/><use xlink:href="#e" x="93.753" y="361.05"/></g><g fill="#2A3F5F"><use xlink:href="#d" x="113.012" y="372.75"/><use xlink:href="#f" x="119.296" y="372.75"/><use xlink:href="#g" x="126.059" y="372.75"/><use xlink:href="#h" x="133.038" y="372.75"/><use xlink:href="#i" x="139.77" y="372.75"/><use xlink:href="#j" x="145.132" y="372.75"/></g><g fill="#2A3F5F"><use xlink:href="#b" x="157.14" y="361.05"/><use xlink:href="#k" x="164.725" y="361.05"/><use xlink:href="#g" x="170.446" y="361.05"/><use xlink:href="#h" x="177.425" y="361.05"/><use xlink:href="#i" x="184.157" y="361.05"/><use xlink:href="#j" x="189.519" y="361.05"/></g><g fill="#2A3F5F"><use xlink:href="#c" x="201.663" y="372.75"/><use xlink:href="#l" x="207.816" y="372.75"/><use xlink:href="#m" x="212.825" y="372.75"/><use xlink:href="#g" x="216.613" y="372.75"/><use xlink:href="#h" x="223.592" y="372.75"/><use xlink:href="#h" x="230.324" y="372.75"/></g><g fill="#2A3F5F"><use xlink:href="#n" x="236.508" y="361.05"/><use xlink:href="#o" x="245.407" y="361.05"/><use xlink:href="#i" x="249.247" y="361.05"/><use xlink:href="#p" x="254.609" y="361.05"/><use xlink:href="#q" x="260.304" y="361.05"/><use xlink:href="#r" x="263.468" y="361.05"/><use xlink:href="#o" x="268.93" y="361.05"/><use xlink:href="#s" x="272.771" y="361.05"/><use xlink:href="#i" x="281.525" y="361.05"/><use xlink:href="#o" x="286.887" y="361.05"/></g><g fill="#2A3F5F"><use xlink:href="#d" x="284.98" y="372.75"/><use xlink:href="#g" x="291.265" y="372.75"/><use xlink:href="#d" x="298.243" y="372.75"/><use xlink:href="#h" x="304.527" y="372.75"/><use xlink:href="#h" x="311.26" y="372.75"/><use xlink:href="#t" x="317.992" y="372.75"/><use xlink:href="#u" x="325.357" y="372.75"/></g><g fill="#2A3F5F"><use xlink:href="#v" x="334.858" y="361.05"/><use xlink:href="#w" x="341.028" y="361.05"/><use xlink:href="#n" x="348.112" y="361.05"/><use xlink:href="#x" x="357.011" y="361.05"/><use xlink:href="#y" x="363.164" y="361.05"/></g><g fill="#2A3F5F"><use xlink:href="#b" x="378.45" y="372.75"/><use xlink:href="#e" x="386.035" y="372.75"/><use xlink:href="#g" x="391.726" y="372.75"/><use xlink:href="#h" x="398.705" y="372.75"/><use xlink:href="#i" x="405.437" y="372.75"/><use xlink:href="#j" x="410.798" y="372.75"/></g><g fill="#2A3F5F"><use xlink:href="#d" x="424.149" y="361.05"/><use xlink:href="#g" x="430.433" y="361.05"/><use xlink:href="#d" x="437.412" y="361.05"/><use xlink:href="#h" x="443.696" y="361.05"/><use xlink:href="#h" x="450.428" y="361.05"/></g><g fill="#2A3F5F"><use xlink:href="#z" x="460.343" y="372.75"/><use xlink:href="#r" x="466.495" y="372.75"/><use xlink:href="#o" x="471.957" y="372.75"/><use xlink:href="#r" x="475.798" y="372.75"/><use xlink:href="#p" x="481.261" y="372.75"/><use xlink:href="#r" x="486.956" y="372.75"/><use xlink:href="#A" x="492.418" y="372.75"/><use xlink:href="#B" x="494.888" y="372.75"/><use xlink:href="#y" x="498.052" y="372.75"/><use xlink:href="#C" x="504.31" y="372.75"/></g><path fill="none" stroke="#444" stroke-width=".75" d="M46.5 331.836h-3.75m3.75-36.238h-3.75m3.75-36.246h-3.75m3.75-36.242h-3.75m3.75-36.247h-3.75m3.75-36.242h-3.75m3.75-36.238h-3.75m3.75-36.246h-3.75m3.75-36.242h-3.75M46.5 5.656h-3.75"/><g fill="#2A3F5F"><use xlink:href="#D" x="18.867" y="334.987"/><use xlink:href="#E" x="26.233" y="334.987"/><use xlink:href="#F" x="31.954" y="334.987"/><use xlink:href="#G" x="35.228" y="334.987"/></g><g fill="#2A3F5F"><use xlink:href="#D" x="18.867" y="298.747"/><use xlink:href="#E" x="26.233" y="298.747"/><use xlink:href="#F" x="31.954" y="298.747"/><use xlink:href="#k" x="35.228" y="298.747"/></g><g fill="#2A3F5F"><use xlink:href="#D" x="18.867" y="262.5"/><use xlink:href="#E" x="26.233" y="262.5"/><use xlink:href="#F" x="31.954" y="262.5"/><use xlink:href="#H" x="35.228" y="262.5"/></g><g fill="#2A3F5F"><use xlink:href="#D" x="18.867" y="226.26"/><use xlink:href="#E" x="26.233" y="226.26"/><use xlink:href="#F" x="31.954" y="226.26"/><use xlink:href="#I" x="35.228" y="226.26"/></g><use xlink:href="#E" x="35.228" y="190.012" fill="#2A3F5F"/><g fill="#2A3F5F"><use xlink:href="#E" x="26.233" y="153.772"/><use xlink:href="#F" x="31.954" y="153.772"/><use xlink:href="#I" x="35.228" y="153.772"/></g><g fill="#2A3F5F"><use xlink:href="#E" x="26.233" y="117.532"/><use xlink:href="#F" x="31.954" y="117.532"/><use xlink:href="#H" x="35.228" y="117.532"/></g><g fill="#2A3F5F"><use xlink:href="#E" x="26.233" y="81.285"/><use xlink:href="#F" x="31.954" y="81.285"/><use xlink:href="#k" x="35.228" y="81.285"/></g><g fill="#2A3F5F"><use xlink:href="#E" x="26.233" y="45.045"/><use xlink:href="#F" x="31.954" y="45.045"/><use xlink:href="#G" x="35.228" y="45.045"/></g><g fill="#2A3F5F"><use xlink:href="#J" x="10.5" y="237.375"/><use xlink:href="#K" x="10.5" y="230.735"/><use xlink:href="#K" x="10.5" y="226.254"/><use xlink:href="#L" x="10.5" y="221.773"/><use xlink:href="#K" x="10.5" y="215.401"/><use xlink:href="#M" x="10.5" y="210.92"/><use xlink:href="#N" x="10.5" y="207.228"/><use xlink:href="#O" x="10.5" y="204.347"/><use xlink:href="#M" x="10.5" y="197.702"/><use xlink:href="#J" x="10.5" y="194.011"/><use xlink:href="#M" x="10.5" y="187.372"/></g><use xlink:href="#P" x="12.705" y="187.372" fill="#2A3F5F"/><use xlink:href="#Q" x="12.705" y="182.72" fill="#2A3F5F"/><use xlink:href="#R" x="12.705" y="178.069" fill="#2A3F5F"/><use xlink:href="#R" x="12.705" y="176.052" fill="#2A3F5F"/><g fill="#2A3F5F"><use xlink:href="#S" x="12.705" y="174.035"/><use xlink:href="#T" x="12.705" y="171.451"/></g><use xlink:href="#U" x="12.705" y="166.872" fill="#2A3F5F"/><use xlink:href="#V" x="12.705" y="164.855" fill="#2A3F5F"/><use xlink:href="#W" x="12.705" y="161.026" fill="#2A3F5F"/><use xlink:href="#M" x="10.5" y="158.13" fill="#2A3F5F"/><use xlink:href="#M" x="10.5" y="158.13" fill="#2A3F5F"/><g fill="#2A3F5F"><use xlink:href="#X" x="10.5" y="154.438"/><use xlink:href="#Y" x="10.5" y="150.624"/><use xlink:href="#Z" x="10.5" y="145.62"/><use xlink:href="#aa" x="10.5" y="139.878"/><use xlink:href="#ab" x="10.5" y="136.063"/><use xlink:href="#ac" x="10.5" y="131.018"/></g><use xlink:href="#ad" x="10.5" y="127.708" fill="#2A3F5F"/><use xlink:href="#ae" x="10.5" y="122.61" fill="#2A3F5F"/><use xlink:href="#af" x="10.5" y="114.44" fill="#2A3F5F"/><g fill="#2A3F5F"><use xlink:href="#E" x="73.51" y="20.25"/><use xlink:href="#F" x="79.231" y="20.25"/><use xlink:href="#E" x="82.505" y="20.25"/><use xlink:href="#ag" x="88.227" y="20.25"/><use xlink:href="#H" x="93.948" y="20.25"/></g><g fill="#2A3F5F"><use xlink:href="#ah" x="71.255" y="189.75"/><use xlink:href="#E" x="75.342" y="189.75"/><use xlink:href="#F" x="81.064" y="189.75"/><use xlink:href="#E" x="84.338" y="189.75"/><use xlink:href="#I" x="90.059" y="189.75"/><use xlink:href="#G" x="95.781" y="189.75"/></g><g fill="#2A3F5F"><use xlink:href="#E" x="117.76" y="20.25"/><use xlink:href="#F" x="123.481" y="20.25"/><use xlink:href="#E" x="126.755" y="20.25"/><use xlink:href="#ai" x="132.477" y="20.25"/><use xlink:href="#ag" x="138.198" y="20.25"/></g><g fill="#2A3F5F"><use xlink:href="#ah" x="115.505" y="193.5"/><use xlink:href="#E" x="119.592" y="193.5"/><use xlink:href="#F" x="125.314" y="193.5"/><use xlink:href="#E" x="128.588" y="193.5"/><use xlink:href="#H" x="134.309" y="193.5"/><use xlink:href="#G" x="140.031" y="193.5"/></g><g fill="#2A3F5F"><use xlink:href="#E" x="162.01" y="20.25"/><use xlink:href="#F" x="167.731" y="20.25"/><use xlink:href="#E" x="171.005" y="20.25"/><use xlink:href="#aj" x="176.727" y="20.25"/><use xlink:href="#ai" x="182.448" y="20.25"/></g><g fill="#2A3F5F"><use xlink:href="#ah" x="159.755" y="196.5"/><use xlink:href="#E" x="163.842" y="196.5"/><use xlink:href="#F" x="169.564" y="196.5"/><use xlink:href="#E" x="172.838" y="196.5"/><use xlink:href="#k" x="178.559" y="196.5"/><use xlink:href="#I" x="184.281" y="196.5"/></g><g fill="#2A3F5F"><use xlink:href="#E" x="211.501" y="20.25"/><use xlink:href="#F" x="217.222" y="20.25"/><use xlink:href="#I" x="220.496" y="20.25"/></g><g fill="#2A3F5F"><use xlink:href="#ah" x="204.005" y="188.25"/><use xlink:href="#E" x="208.092" y="188.25"/><use xlink:href="#F" x="213.814" y="188.25"/><use xlink:href="#E" x="217.088" y="188.25"/><use xlink:href="#E" x="222.809" y="188.25"/><use xlink:href="#ak" x="228.531" y="188.25"/></g><g fill="#2A3F5F"><use xlink:href="#E" x="253.511" y="20.25"/><use xlink:href="#F" x="259.233" y="20.25"/><use xlink:href="#I" x="262.507" y="20.25"/><use xlink:href="#H" x="268.228" y="20.25"/></g><g fill="#2A3F5F"><use xlink:href="#ah" x="248.255" y="199.5"/><use xlink:href="#E" x="252.342" y="199.5"/><use xlink:href="#F" x="258.064" y="199.5"/><use xlink:href="#E" x="261.338" y="199.5"/><use xlink:href="#k" x="267.059" y="199.5"/><use xlink:href="#ak" x="272.781" y="199.5"/></g><g fill="#2A3F5F"><use xlink:href="#E" x="297.761" y="20.25"/><use xlink:href="#F" x="303.483" y="20.25"/><use xlink:href="#I" x="306.757" y="20.25"/><use xlink:href="#I" x="312.478" y="20.25"/></g><g fill="#2A3F5F"><use xlink:href="#ah" x="293.255" y="192.75"/><use xlink:href="#E" x="297.342" y="192.75"/><use xlink:href="#F" x="303.064" y="192.75"/><use xlink:href="#E" x="306.338" y="192.75"/><use xlink:href="#H" x="312.059" y="192.75"/><use xlink:href="#H" x="317.781" y="192.75"/></g><g fill="#2A3F5F"><use xlink:href="#E" x="342.011" y="20.25"/><use xlink:href="#F" x="347.733" y="20.25"/><use xlink:href="#I" x="351.007" y="20.25"/><use xlink:href="#k" x="356.728" y="20.25"/></g><g fill="#2A3F5F"><use xlink:href="#ah" x="337.505" y="204.75"/><use xlink:href="#E" x="341.592" y="204.75"/><use xlink:href="#F" x="347.314" y="204.75"/><use xlink:href="#E" x="350.588" y="204.75"/><use xlink:href="#al" x="356.309" y="204.75"/><use xlink:href="#G" x="362.031" y="204.75"/></g><g fill="#2A3F5F"><use xlink:href="#E" x="386.261" y="20.25"/><use xlink:href="#F" x="391.983" y="20.25"/><use xlink:href="#I" x="395.257" y="20.25"/><use xlink:href="#al" x="400.978" y="20.25"/></g><g fill="#2A3F5F"><use xlink:href="#E" x="383.26" y="178.5"/><use xlink:href="#F" x="388.981" y="178.5"/><use xlink:href="#E" x="392.255" y="178.5"/><use xlink:href="#I" x="397.977" y="178.5"/><use xlink:href="#ai" x="403.698" y="178.5"/></g><g fill="#2A3F5F"><use xlink:href="#E" x="430.511" y="20.25"/><use xlink:href="#F" x="436.233" y="20.25"/><use xlink:href="#I" x="439.507" y="20.25"/><use xlink:href="#ag" x="445.228" y="20.25"/></g><g fill="#2A3F5F"><use xlink:href="#E" x="427.51" y="182.25"/><use xlink:href="#F" x="433.231" y="182.25"/><use xlink:href="#E" x="436.505" y="182.25"/><use xlink:href="#E" x="442.227" y="182.25"/><use xlink:href="#aj" x="447.948" y="182.25"/></g><g fill="#2A3F5F"><use xlink:href="#E" x="474.761" y="20.25"/><use xlink:href="#F" x="480.483" y="20.25"/><use xlink:href="#I" x="483.757" y="20.25"/><use xlink:href="#ak" x="489.478" y="20.25"/></g><g fill="#2A3F5F"><use xlink:href="#ah" x="470.255" y="198.75"/><use xlink:href="#E" x="474.342" y="198.75"/><use xlink:href="#F" x="480.064" y="198.75"/><use xlink:href="#E" x="483.338" y="198.75"/><use xlink:href="#k" x="489.059" y="198.75"/><use xlink:href="#ai" x="494.781" y="198.75"/></g><g fill="#2A3F5F"><use xlink:href="#m" x="51.751" y="20.25"/><use xlink:href="#am" x="55.54" y="20.25"/><use xlink:href="#y" x="62.624" y="20.25"/></g></svg>