<svg xmlns="http://www.w3.org/2000/svg" xmlns:xlink="http://www.w3.org/1999/xlink" width="750" height="300"><defs><path id="k" d="M5.125-3.281q-.001 1.769-.547 2.594C4.211-.133 3.641.14 2.86.14Q1.687.142 1.141-.687.608-1.531.609-3.266q-.002-1.746.547-2.578.545-.827 1.703-.828 1.186 0 1.72.844c.362.562.546 1.414.546 2.547m-1.156 2c.101-.239.172-.516.203-.828q.06-.48.062-1.172a10 10 0 0 0-.062-1.14 2.7 2.7 0 0 0-.203-.845 1.2 1.2 0 0 0-.422-.515c-.18-.114-.406-.172-.688-.172a1.3 1.3 0 0 0-.687.172q-.27.176-.422.515a3 3 0 0 0-.203.86 13 13 0 0 0-.047 1.14q0 .69.047 1.157.046.455.203.812.14.344.406.531c.176.118.41.172.703.172.282 0 .508-.054.688-.172q.28-.17.422-.515m0 0"/><path id="l" d="M4.766 0H1.219v-.672h1.36v-4.375h-1.36v-.61q.28 0 .593-.046a1.8 1.8 0 0 0 .485-.125.8.8 0 0 0 .312-.281.85.85 0 0 0 .141-.453h.672v5.89h1.344Zm0 0"/><path id="m" d="M5.266 0H4.172L2.203-2.156l-.531.515V0H.844v-6.844h.828v4.39l2.39-2.452H5.11L2.83-2.641Zm0 0"/><path id="n" d="M5.14 0H.704v-.922c.313-.258.617-.52.922-.781q.467-.404.875-.797c.563-.54.945-.973 1.156-1.297q.312-.48.313-1.031-.002-.516-.344-.797c-.219-.195-.531-.297-.937-.297q-.392 0-.86.14a3.3 3.3 0 0 0-.906.438H.875v-.922a4.3 4.3 0 0 1 .828-.28q.514-.142 1.016-.141.998 0 1.562.5.576.486.578 1.312 0 .375-.093.703-.095.316-.282.61-.174.269-.406.53-.22.27-.547.579a27 27 0 0 1-.984.906c-.336.281-.64.547-.922.797h3.516Zm0 0"/><path id="o" d="M4.563-3.156c.132.125.25.289.343.484q.14.283.14.735 0 .454-.171.828A2.06 2.06 0 0 1 3.641 0q-.44.14-.97.14-.55 0-1.077-.141a4.6 4.6 0 0 1-.86-.281v-.922h.063q.373.252.875.422.516.157.984.156c.188 0 .383-.031.594-.094q.311-.091.5-.265.201-.2.297-.422c.07-.157.11-.352.11-.594q-.001-.357-.126-.578a1 1 0 0 0-.297-.375 1.4 1.4 0 0 0-.484-.172 3 3 0 0 0-.61-.062h-.39v-.735h.297q.668.002 1.062-.265c.27-.188.407-.461.407-.829a.77.77 0 0 0-.11-.406.75.75 0 0 0-.265-.297 1.5 1.5 0 0 0-.407-.156 2.3 2.3 0 0 0-.484-.047c-.281 0-.578.055-.89.156q-.47.141-.891.422H.922v-.922a4.3 4.3 0 0 1 .828-.28q.528-.142 1.016-.141.48 0 .843.093.358.095.657.282.31.222.468.515.171.3.172.688c0 .367-.133.683-.39.953a1.64 1.64 0 0 1-.907.515v.063q.216.034.485.156.28.112.468.266m0 0"/><path id="p" d="M5.281-1.844h-.968V0h-.844v-1.844H.344v-1.015L3.5-6.547h.813v4h.968ZM3.47-2.547V-5.5L.938-2.547Zm0 0"/><path id="q" d="M5.078-2.078c0 .305-.058.594-.172.875a1.9 1.9 0 0 1-.453.703q-.315.315-.75.484a3.1 3.1 0 0 1-1.015.157Q2.154.14 1.656.016A4 4 0 0 1 .828-.25v-.922h.063c.238.156.515.29.828.39q.482.158.953.157c.207 0 .41-.023.61-.078.195-.063.366-.164.515-.313a1.1 1.1 0 0 0 .297-.453q.093-.264.093-.61a1.24 1.24 0 0 0-.125-.577.95.95 0 0 0-.312-.375 1.45 1.45 0 0 0-.547-.219 3.3 3.3 0 0 0-.734-.078q-.393.002-.75.062-.364.048-.61.094v-3.375h3.938v.766H1.953v1.75q.188-.014.375-.016.2-.014.36-.016.528 0 .921.094c.27.055.516.156.735.313q.358.236.547.625.187.377.187.953m0 0"/><path id="r" d="M5.234-2.125q0 1.002-.656 1.64-.657.627-1.61.626-.485 0-.89-.141a1.9 1.9 0 0 1-.687-.453 2.4 2.4 0 0 1-.578-.969Q.608-2.03.609-2.875q-.002-.873.172-1.547c.125-.445.328-.844.61-1.187q.375-.499.984-.782.622-.28 1.438-.28.246 0 .421.03.186.02.36.079v.843h-.047a1 1 0 0 0-.36-.125 2.3 2.3 0 0 0-.515-.062q-.937.001-1.5.593-.563.58-.656 1.594.356-.234.718-.344.359-.107.829-.109.419 0 .734.078.328.063.656.297c.258.18.453.406.578.688q.201.41.203.984m-.89.031q-.001-.404-.125-.672a1.34 1.34 0 0 0-.39-.468 1.05 1.05 0 0 0-.454-.172 3 3 0 0 0-.516-.047q-.375 0-.703.094-.316.08-.656.265c0 .063-.008.125-.016.188v.219q0 .704.141 1.109.154.392.406.625.201.188.438.281c.156.063.32.094.5.094q.638 0 1-.39.375-.388.375-1.126m0 0"/><path id="s" d="M5.156-5.562 2.188 0H1.25l3.156-5.781H.672v-.766h4.484Zm0 0"/><path id="t" d="M5.188-1.828c0 .574-.227 1.047-.672 1.422q-.659.562-1.657.562Q1.795.158 1.156-.39.53-.952.531-1.812q-.002-.529.313-.97.328-.449.906-.718v-.016q-.534-.28-.781-.609-.251-.34-.25-.844c0-.488.195-.894.594-1.218q.609-.5 1.546-.5.984 0 1.563.468.592.471.594 1.188c0 .304-.094.593-.282.875a1.93 1.93 0 0 1-.812.672v.03q.61.27.937.657.33.376.329.969M4.14-5.016a.91.91 0 0 0-.36-.75q-.361-.28-.922-.28-.563 0-.921.265a.85.85 0 0 0-.344.703.9.9 0 0 0 .172.562c.125.149.304.282.547.407q.152.08.453.203.31.128.609.203c.29-.188.488-.383.594-.594a1.5 1.5 0 0 0 .172-.719m.14 3.282q0-.406-.187-.641-.174-.247-.688-.5a5 5 0 0 0-.453-.172 41 41 0 0 1-.656-.25 1.8 1.8 0 0 0-.64.594 1.5 1.5 0 0 0-.235.828q-.002.598.406.984.404.392 1.047.391.64 0 1.016-.328c.257-.227.39-.531.39-.906m0 0"/><path id="u" d="M5.125-3.672q-.002.86-.203 1.563a3.2 3.2 0 0 1-.578 1.187q-.409.502-1.016.781-.597.265-1.406.266Q1.698.124 1.5.094A2 2 0 0 1 1.14.03v-.843h.032c.094.042.21.085.36.125q.232.063.53.062.966.001 1.516-.578.546-.591.64-1.61a3.7 3.7 0 0 1-.765.344 2.7 2.7 0 0 1-.797.11q-.391.002-.719-.079a1.9 1.9 0 0 1-.656-.312 1.7 1.7 0 0 1-.593-.672 2.4 2.4 0 0 1-.188-1q0-.997.656-1.625.656-.623 1.61-.625c.312 0 .601.055.875.156q.405.141.703.422.374.377.578.953c.133.375.203.868.203 1.47m-.89-.187q0-.669-.141-1.078-.141-.422-.375-.657a1.4 1.4 0 0 0-.453-.265 1.4 1.4 0 0 0-.516-.094c-.418 0-.75.133-1 .39q-.361.394-.36 1.11 0 .423.11.687.124.268.406.454c.133.093.282.156.438.187a2.7 2.7 0 0 0 1.219-.047q.357-.091.656-.265.013-.095.015-.188zm0 0"/><path id="v" d="M2.156 0H1.11v-1.25h1.047Zm0 0"/><path id="w" d="M6.031-6.547 3.656 0H2.5L.11-6.547h.937L3.094-.78l2.062-5.766Zm0 0"/><path id="x" d="M5-2.453c0 .805-.21 1.437-.625 1.906q-.61.69-1.64.688-1.048.002-1.657-.688c-.406-.469-.61-1.101-.61-1.906q0-1.2.61-1.89.608-.704 1.656-.704 1.032 0 1.641.703c.414.461.625 1.09.625 1.89m-.86 0q0-.95-.374-1.406-.375-.47-1.032-.47-.672 0-1.046.47-.375.456-.375 1.406 0 .926.375 1.406.374.47 1.046.469.657 0 1.032-.469t.375-1.406m0 0"/><path id="y" d="M3.875-4.016h-.047a7 7 0 0 0-.36-.046 2.5 2.5 0 0 0-.405-.032 1.7 1.7 0 0 0-.735.172 3.6 3.6 0 0 0-.687.438V0H.813v-4.906h.828v.718c.32-.257.609-.44.859-.546q.388-.171.781-.172c.133 0 .235.008.297.015.07 0 .172.012.297.032Zm0 0"/><path id="z" d="M4.922 0h-.828v-2.797a4 4 0 0 0-.047-.64 1.05 1.05 0 0 0-.14-.454.7.7 0 0 0-.313-.28 1.3 1.3 0 0 0-.547-.095q-.328.001-.703.172a4.7 4.7 0 0 0-.703.422V0H.813v-4.906h.828v.547a3 3 0 0 1 .797-.5q.42-.188.843-.188.797.002 1.219.484.422.471.422 1.375Zm0 0"/><path id="A" d="M1.703-5.734H.766v-.86h.937ZM1.641 0H.828v-4.906h.813Zm0 0"/><path id="C" d="M6.297 0h-1.14L2.968-2.61H1.75V0H.875v-6.547h1.844q.591 0 .984.078.387.082.703.282.358.222.563.562.201.345.203.86c0 .468-.121.867-.36 1.187a2.3 2.3 0 0 1-.984.719ZM4.266-4.703c0-.188-.04-.352-.11-.5a.8.8 0 0 0-.328-.36 1.05 1.05 0 0 0-.453-.187 3.4 3.4 0 0 0-.61-.047H1.75v2.469h.875q.421 0 .719-.063.31-.075.531-.28.188-.189.281-.423c.07-.156.11-.36.11-.61m0 0"/><path id="D" d="M5.063-5.766H1.75v1.844h2.844v.766H1.75V0H.875v-6.547h4.188Zm0 0"/><path id="E" d="M5.938-.469q-.253.094-.454.188a4 4 0 0 1-.5.203 6 6 0 0 1-.578.14q-.316.062-.703.063Q3 .123 2.406-.078a2.6 2.6 0 0 1-1-.625 3 3 0 0 1-.672-1.063Q.5-2.403.5-3.266q0-.81.234-1.437a3.05 3.05 0 0 1 .657-1.078q.419-.434 1.015-.657a3.8 3.8 0 0 1 1.313-.218q.515.001 1.047.125.527.128 1.172.437v1.047h-.079q-.533-.451-1.062-.656a3 3 0 0 0-1.14-.219q-.504.001-.907.172a2 2 0 0 0-.703.484q-.3.329-.469.844a3.5 3.5 0 0 0-.172 1.156q0 .69.188 1.188.186.503.484.812.31.331.719.485.405.14.875.14a3.3 3.3 0 0 0 1.172-.203A3.4 3.4 0 0 0 5.875-1.5h.063Zm0 0"/><path id="F" d="M6.344-.484a9 9 0 0 1-1.188.437 4.7 4.7 0 0 1-2.625-.031 3 3 0 0 1-1.078-.64A2.75 2.75 0 0 1 .75-1.782Q.499-2.42.5-3.281q-.002-1.56.922-2.469.92-.905 2.516-.906.56 0 1.14.14.575.128 1.25.438v1.031H6.25c-.086-.062-.215-.148-.39-.266a7 7 0 0 0-.516-.296q-.3-.124-.688-.22a3.6 3.6 0 0 0-.875-.093q-1.095 0-1.734.703c-.43.469-.64 1.106-.64 1.907q-.001 1.281.671 1.984.668.703 1.813.703c.28 0 .562-.023.843-.078.282-.063.524-.133.735-.219v-1.61h-1.75v-.765h2.625Zm0 0"/><path id="G" d="M5.875 0H4.797l-3.11-5.86V0H.876v-6.547h1.36l2.828 5.344v-5.344h.812Zm0 0"/><path id="H" d="M6.703 0h-.86v-5.64L4.017-1.798H3.5L1.688-5.64V0H.875v-6.547h1.188l1.75 3.64L5.5-6.546h1.203Zm0 0"/><path id="I" d="M5.188 0H.875v-6.547h4.313v.781H1.75v1.782h3.438v.78H1.75V-.78h3.438Zm0 0"/><path id="J" d="M4.922-2.375h-3.61q-.001.457.125.797.142.329.375.547c.157.148.336.258.547.328q.312.094.688.094.497 0 1-.188.514-.2.734-.406h.047v.906q-.423.175-.86.297c-.292.07-.593.11-.905.11q-1.22 0-1.907-.657Q.468-1.202.47-2.422q0-1.201.656-1.906.657-.717 1.734-.719.984.002 1.516.578.546.58.547 1.657ZM4.125-3q-.017-.655-.344-1-.313-.359-.969-.36c-.449 0-.804.133-1.062.391A1.5 1.5 0 0 0 1.313-3Zm0 0"/><path id="K" d="M3.36-.047a4 4 0 0 1-.516.094q-.269.047-.485.047-.752.002-1.14-.406Q.828-.718.829-1.61v-2.61H.265v-.687h.562v-1.407h.828v1.407H3.36v.687H1.656v2.235q-.001.391.016.609.012.22.125.406a.62.62 0 0 0 .266.266c.113.055.285.078.515.078q.2 0 .422-.062.218-.059.313-.094h.046Zm0 0"/><path id="L" d="M5.813-2.016A1.9 1.9 0 0 1 5.14-.53q-.377.282-.828.406-.441.127-1.11.125H.875v-6.547h1.938c.476 0 .835.024 1.078.063q.358.047.687.218c.238.125.41.29.516.485.101.199.156.433.156.703q0 .468-.234.797a1.7 1.7 0 0 1-.625.531v.031q.655.128 1.03.578.39.458.391 1.125m-1.47-2.953a.9.9 0 0 0-.077-.39.6.6 0 0 0-.25-.266 1.1 1.1 0 0 0-.5-.14 8 8 0 0 0-.735-.032H1.75v1.89h1.125q.406 0 .64-.046.248-.045.454-.172a.77.77 0 0 0 .281-.344q.094-.2.094-.5m.563 2.985c0-.258-.043-.47-.125-.625Q4.67-2.844 4.36-3a1.5 1.5 0 0 0-.515-.14 8 8 0 0 0-.735-.032H1.75V-.75h1.156q.56 0 .922-.047.375-.06.61-.219.247-.169.359-.39c.07-.145.11-.336.11-.578m0 0"/><path id="M" d="M5.75-5.797q.405.44.61 1.078.217.645.218 1.453 0 .798-.219 1.438-.222.645-.609 1.078a2.6 2.6 0 0 1-.953.672 3.4 3.4 0 0 1-1.25.219c-.461 0-.883-.082-1.266-.235a2.7 2.7 0 0 1-.953-.656 3 3 0 0 1-.61-1.062C.57-2.238.5-2.722.5-3.266q-.001-.793.203-1.437.216-.639.625-1.094.389-.422.953-.656a3.3 3.3 0 0 1 1.266-.234q.702 0 1.25.234a2.7 2.7 0 0 1 .953.656m-.078 2.531q-.002-1.277-.578-1.968-.562-.687-1.547-.688-1.003 0-1.578.688-.563.69-.563 1.968 0 1.283.578 1.97.591.689 1.563.687.966.002 1.547-.688.576-.685.578-1.969m0 0"/><path id="N" d="M8.5-6.547 6.797 0h-.984L4.438-5.437 3.093 0H2.14L.406-6.547h.89l1.376 5.438 1.36-5.438h.874l1.375 5.5 1.36-5.5Zm0 0"/><path id="O" d="M5.64-1.875q0 .392-.187.766a1.6 1.6 0 0 1-.5.625q-.344.282-.812.453a3.7 3.7 0 0 1-1.125.156A6 6 0 0 1 1.734 0a6.3 6.3 0 0 1-1.14-.406V-1.5h.062c.32.281.703.496 1.14.64.438.15.845.22 1.22.22q.808 0 1.265-.297c.301-.196.453-.47.453-.813q-.001-.436-.218-.64-.222-.2-.641-.313a5 5 0 0 0-.734-.14A13 13 0 0 1 2.344-3q-.877-.186-1.297-.625-.422-.45-.422-1.172-.002-.81.688-1.328.7-.53 1.765-.531.703.001 1.266.125.574.129 1.031.328v1.031h-.062q-.375-.327-.985-.531a4 4 0 0 0-1.25-.203q-.703.002-1.125.297-.422.281-.422.734 0 .408.203.64.218.236.75.36.282.064.797.156.528.08.89.172c.477.125.845.32 1.095.578q.375.392.375 1.094m0 0"/><path id="P" d="M6.438-2.516H4.047v2.391h-.734v-2.39H.922v-.704h2.39v-2.39h.735v2.39h2.39Zm0 0"/><path id="Q" d="M5.156-4.562q-.002.438-.156.812a1.8 1.8 0 0 1-.422.64 2.15 2.15 0 0 1-.797.5c-.304.118-.687.172-1.156.172H1.75V0H.875v-6.547h1.781c.395 0 .727.04 1 .11.27.062.508.164.719.296q.374.251.578.625.201.377.203.954m-.906.015q-.001-.327-.125-.578a.93.93 0 0 0-.344-.422 2 2 0 0 0-.484-.187 3.3 3.3 0 0 0-.688-.063H1.75v2.61h.734q.53 0 .86-.094.327-.093.531-.297.2-.201.281-.438.094-.233.094-.53m0 0"/><path id="R" d="M3.453-6.031h-.047a2 2 0 0 0-.36-.078 2 2 0 0 0-.374-.047q-.534 0-.781.234-.235.234-.235.844v.172h1.485v.687H1.688V0H.859v-4.219H.297v-.687h.562v-.172q0-.872.438-1.328.434-.47 1.25-.469.279.001.5.031.217.018.406.047Zm0 0"/><path id="S" d="M7.969 0h-.813v-2.797q0-.31-.031-.61A1.4 1.4 0 0 0 7-3.874a.6.6 0 0 0-.297-.281c-.125-.07-.305-.11-.531-.11q-.364 0-.703.188-.346.175-.688.437.014.094.016.235.014.127.016.265V0h-.829v-2.797q0-.328-.03-.61a1.4 1.4 0 0 0-.126-.468.6.6 0 0 0-.281-.281c-.125-.07-.309-.11-.547-.11q-.346.001-.687.172a6 6 0 0 0-.672.422V0H.813v-4.906h.828v.547c.257-.22.515-.383.765-.5q.388-.188.828-.188.498 0 .844.219.357.204.516.578.513-.421.922-.61.404-.186.89-.187.797.001 1.172.5.388.486.39 1.36Zm0 0"/><path id="T" d="M6.031 0H5.11l-.64-1.828H1.64L1 0H.11L2.5-6.547h1.156ZM4.203-2.578 3.047-5.781l-1.14 3.203Zm0 0"/><path id="U" d="M5.016 0H.875v-6.547h.875V-.78h3.266Zm0 0"/><path id="V" d="M3.188 0H.608v-.672h.844v-5.203H.61v-.672h2.579v.672h-.86v5.203h.86Zm0 0"/><path id="W" d="M5.89 0h-.874v-3.203H1.75V0H.875v-6.547h.875v2.563h3.266v-2.563h.875Zm0 0"/><path id="X" d="M8.938 0H7.78v-7.516l-2.42 5.11h-.687L2.25-7.516V0H1.172v-8.719H2.75l2.328 4.844 2.25-4.844h1.61Zm0 0"/><path id="Y" d="M8.047 0H6.812l-.859-2.437H2.187L1.329 0H.156l3.172-8.719h1.547ZM5.609-3.422 4.08-7.719 2.53-3.422Zm0 0"/><path id="Z" d="M6.922 0h-5.75v-8.719h5.75v1.031H2.328v2.391h4.594v1.031H2.328v3.235h4.594Zm0 0"/><path id="aa" d="M6.469-6.734H3.75V0H2.734v-6.734H0v-.907h6.469Zm0 0"/><path id="ab" d="M5.75-2.766H1.516q-.001.535.156.922.171.394.453.64.263.253.625.376c.25.086.52.125.813.125q.574 0 1.171-.235.592-.234.844-.468h.047v1.062q-.485.204-1 .344c-.336.094-.687.14-1.062.14Q2.14.143 1.342-.624q-.795-.78-.796-2.203-.001-1.405.766-2.234.761-.828 2.015-.829 1.154 0 1.781.688.64.675.641 1.922ZM4.797-3.5q0-.761-.375-1.172c-.25-.281-.633-.422-1.14-.422-.524 0-.938.157-1.25.469q-.457.457-.516 1.125Zm0 0"/><path id="ac" d="M5.047-1.656q0 .798-.656 1.297c-.43.336-1.016.5-1.766.5-.43 0-.82-.055-1.172-.157a5.4 5.4 0 0 1-.89-.328v-1.078h.046c.313.23.649.414 1.016.547a3.1 3.1 0 0 0 1.078.203q.638.001 1-.203a.72.72 0 0 0 .36-.656q-.002-.328-.204-.516-.187-.168-.75-.297a7 7 0 0 0-.53-.094 6 6 0 0 1-.61-.14Q1.218-2.78.906-3.156.593-3.545.594-4.11q0-.357.14-.672.14-.31.438-.563.294-.234.734-.375.45-.14 1-.14.516.001 1.031.125.529.128.876.297v1.03h-.047a3.8 3.8 0 0 0-.907-.452 3 3 0 0 0-1.03-.188q-.534.002-.892.203c-.242.137-.359.336-.359.594 0 .242.07.418.219.531.144.125.375.227.687.297q.282.066.61.125c.219.043.398.078.547.11q.668.156 1.03.53c.25.25.376.587.376 1m0 0"/><path id="ad" d="M3.922-.047c-.18.043-.375.078-.594.11q-.316.046-.562.046-.892 0-1.344-.468C1.117-.672.969-1.176.969-1.875v-3.047H.313v-.812h.656v-1.641h.969v1.64h1.984v.813H1.937v2.61q-.001.455.016.718a1 1 0 0 0 .14.469.64.64 0 0 0 .313.297q.2.094.61.094.233 0 .484-.063.263-.077.375-.125h.047Zm0 0"/><path id="af" d="M4.516-4.672h-.047a2.6 2.6 0 0 0-.422-.078 8 8 0 0 0-.469-.016q-.456.002-.875.204-.41.188-.797.5V0H.953v-5.734h.953v.859q.575-.468 1.016-.656.434-.201.89-.203.264.002.376.015.106.018.328.047Zm0 0"/><path id="ag" d="M5.703 0h-.969v-.64q-.486.393-.937.593a2.4 2.4 0 0 1-.985.203Q1.905.158 1.407-.39c-.336-.363-.5-.906-.5-1.625v-3.718h.969v3.265q-.002.44.031.75.047.316.188.532a.76.76 0 0 0 .344.328q.233.093.656.093.357 0 .797-.187.45-.2.843-.5v-4.281h.97Zm0 0"/><path id="ah" d="M5.188-.36a6 6 0 0 1-.922.36 3.7 3.7 0 0 1-2.062-.047 2.25 2.25 0 0 1-.876-.562 2.5 2.5 0 0 1-.594-.922Q.531-2.107.531-2.86q-.001-1.407.766-2.203.78-.797 2.047-.797.499 0 .969.14.466.14.875.328v1.079h-.063a3.8 3.8 0 0 0-.906-.532 2.4 2.4 0 0 0-.907-.187q-.832 0-1.312.562-.469.55-.469 1.61 0 1.047.469 1.609.469.549 1.313.547.28.001.578-.078.311-.075.547-.203.216-.106.406-.22.187-.123.281-.218h.063Zm0 0"/><path id="ai" d="M5.406 0h-.968v-.61c-.086.063-.2.15-.344.25a2 2 0 0 1-.422.235 2.4 2.4 0 0 1-.563.203q-.315.077-.718.078c-.524 0-.965-.164-1.328-.5Q.53-.859.53-1.656q0-.655.282-1.063.281-.403.796-.625.529-.233 1.25-.312a19 19 0 0 1 1.579-.125v-.156q-.001-.328-.125-.532A.9.9 0 0 0 4-4.812a1.4 1.4 0 0 0-.5-.157 3.6 3.6 0 0 0-.594-.047c-.261 0-.547.04-.86.11a6 6 0 0 0-.952.281h-.047v-.984q.28-.075.812-.157a6 6 0 0 1 1.047-.093q.608 0 1.047.093.452.096.781.344c.22.156.383.36.5.61q.171.376.172.921Zm-.968-1.406V-3q-.439.02-1.047.078-.598.047-.938.14-.409.13-.672.376-.251.25-.25.672 0 .504.297.75c.195.168.5.25.906.25q.5 0 .922-.203a4.6 4.6 0 0 0 .781-.47m0 0"/><path id="aj" d="M5.734 0h-.968v-3.266q0-.387-.047-.734a1.3 1.3 0 0 0-.157-.547.72.72 0 0 0-.375-.312 1.55 1.55 0 0 0-.625-.11q-.393.002-.828.203a4.7 4.7 0 0 0-.828.485V0H.953v-5.734h.953v.64q.452-.374.938-.578.48-.218.984-.219.937 0 1.422.563.482.564.484 1.61Zm0 0"/><path id="ak" d="M6.14 0H4.876L2.578-2.5l-.625.594V0H.984v-7.984h.97v5.125l2.78-2.875h1.22L3.296-3.078Zm0 0"/><path id="al" d="M5.594 0h-.969v-.594a3.3 3.3 0 0 1-.86.563 2.6 2.6 0 0 1-.984.187c-.68 0-1.219-.258-1.625-.781q-.61-.795-.61-2.187 0-.734.204-1.297.216-.574.578-.985.34-.374.797-.578c.313-.144.633-.219.969-.219q.45 0 .797.094.358.096.734.297v-2.484h.969Zm-.969-1.406v-3.297a3.7 3.7 0 0 0-.703-.234Q3.622-5 3.266-5 2.45-5 2-4.437c-.305.375-.453.906-.453 1.593Q1.546-1.81 1.89-1.28q.357.515 1.125.515c.27 0 .547-.054.828-.171q.42-.188.781-.47m0 0"/><path id="am" d="M5.984-2.906q-.002.721-.203 1.297-.205.564-.547.953a2.4 2.4 0 0 1-.796.61 2.3 2.3 0 0 1-.954.202Q3 .155 2.625.031a4 4 0 0 1-.719-.297L1.844 0h-.89v-7.984h.952v2.859c.27-.219.555-.398.86-.547a2.4 2.4 0 0 1 1.03-.219q1.015.001 1.595.782.592.784.593 2.203M5-2.875q-.002-1.03-.344-1.562-.344-.53-1.093-.532-.424 0-.86.188a3.4 3.4 0 0 0-.797.468v3.282q.423.189.703.265.296.064.672.063.81 0 1.266-.531.452-.528.453-1.641m0 0"/><path id="an" d="M5.906-5.734 2.563 2.109H1.53L2.594-.28.313-5.734h1.046l1.766 4.25 1.766-4.25Zm0 0"/><path id="ao" d="M9.313 0h-.97v-3.266q0-.357-.03-.703a1.6 1.6 0 0 0-.141-.547.8.8 0 0 0-.344-.343c-.148-.07-.36-.11-.64-.11q-.41.002-.813.203a5.5 5.5 0 0 0-.797.516c.008.086.016.18.016.281q.013.157.015.297V0h-.968v-3.266q-.001-.374-.032-.718a1.6 1.6 0 0 0-.14-.547.72.72 0 0 0-.344-.328c-.148-.07-.355-.11-.625-.11a1.8 1.8 0 0 0-.797.203c-.262.125-.527.29-.797.485V0H.953v-5.734h.953v.64q.45-.374.907-.578.45-.218.953-.219.59.002 1 .25a1.6 1.6 0 0 1 .609.688q.575-.497 1.063-.719a2.5 2.5 0 0 1 1.03-.219c.626 0 1.087.196 1.391.579q.453.563.454 1.593Zm0 0"/><path id="ap" d="M5.828-2.86Q5.826-1.464 5.11-.655q-.72.813-1.921.812-1.221 0-1.938-.812-.703-.81-.703-2.203 0-1.405.703-2.22c.477-.538 1.125-.812 1.938-.812.8 0 1.44.274 1.921.813.477.543.72 1.281.72 2.219m-1 0q-.002-1.106-.437-1.656-.424-.545-1.203-.546-.786 0-1.22.546-.437.55-.437 1.657 0 1.077.438 1.64.433.549 1.219.547.762.002 1.203-.547.435-.563.437-1.64m0 0"/><path id="aq" d="M1.922 0H.953v-7.984h.969Zm0 0"/><path id="ar" d="M3.984-2.875H.781v-.922h3.203Zm0 0"/><path id="as" d="M5.984-2.937a3.9 3.9 0 0 1-.203 1.28 2.45 2.45 0 0 1-.562.97q-.329.393-.797.593a2.4 2.4 0 0 1-.969.203q-.438 0-.812-.093a3.2 3.2 0 0 1-.735-.297v2.39H.953v-7.843h.953v.609c.258-.219.547-.398.86-.547a2.5 2.5 0 0 1 1.03-.219q1.032.001 1.61.782.576.784.578 2.172M5-2.907q0-1.03-.36-1.546-.362-.516-1.093-.516a2 2 0 0 0-.828.188 3.7 3.7 0 0 0-.813.468v3.235q.423.189.703.266.296.063.672.062.81.002 1.266-.547.452-.543.453-1.61m0 0"/><path id="at" d="M1.984-6.687H.891v-1h1.093ZM1.922 0H.953v-5.734h.969Zm0 0"/><clipPath id="a"><path d="M39.75 22.5H441V249H39.75Zm0 0"/></clipPath><clipPath id="b"><path d="M39.75 234H485v23H39.75Zm0 0"/></clipPath><clipPath id="c"><path d="M39.75 200H541v43H39.75Zm0 0"/></clipPath><clipPath id="d"><path d="M39.75 151H437v84H39.75Zm0 0"/></clipPath><clipPath id="e"><path d="M39.75 165H603v64H39.75Zm0 0"/></clipPath><clipPath id="f"><path d="M39.75 139H541v113H39.75Zm0 0"/></clipPath><clipPath id="g"><path d="M39.75 81h709.5v181.5H39.75Zm0 0"/></clipPath><clipPath id="h"><path d="M39.75 129H394v85H39.75Zm0 0"/></clipPath><clipPath id="i"><path d="M39.75 161H437v83H39.75Zm0 0"/></clipPath><clipPath id="j"><path d="M39.75 71H603v169H39.75Zm0 0"/></clipPath></defs><path fill="#FFF" d="M-75-30h900v360H-75z"/><path fill="#FFF" d="M39.75 22.5h709.5v240H39.75Zm0 0"/><path fill="none" stroke="#D3D3D3" stroke-width=".75" d="M111.586 22.5v240m71.84-240v240m71.836-240v240m71.843-240v240m71.845-240v240m71.84-240v240m71.835-240v240m71.844-240v240m71.84-240v240M39.75 228.219h709.5m-709.5-34.293h709.5m-709.5-34.281h709.5m-709.5-34.29h709.5M39.75 91.074h709.5M39.75 56.781h709.5"/><g clip-path="url(#a)"><path fill="none" stroke="#636EFA" stroke-miterlimit="2" stroke-width="1.5" d="m39.75-1262.527.523 1429.238.063 8.926.75 31.125.164-1.399.887 7.758.289-2.258 1.59-9.683.535.105.586.031.664 1.446 2.527 6.347 1.059.18 2.52 3.426 1.5.71 8.085 5.845 2.68.894 6.387 3.14 3.796 1.344 14.43 3.825 6.043 1.164 43.383 4.722 12.133.72 46.11 2.792 19.308.863 73.386 2.547 30.72.782 116.796 2.378"/></g><g clip-path="url(#b)"><path fill="#EF553B" d="m40.5 251.523.008 2.25-1.5.008-.008-2.25Zm.02 4.5.003.922-1.5-.007.02-1.329 1.5.024-.02 1.328-.75-.012-.75.004-.003-.922Zm-1.442-2.66.035-2.25 1.5.02-.035 2.25Zm.067-4.5.035-2.25 1.5.024-.035 2.25Zm.07-4.5.035-2.25 1.5.024-.035 2.25Zm.07-4.5.035-2.25 1.5.024-.035 2.25Zm.067-4.5.015-.933 1.5-.028.07 1.317-1.5.078-.07-1.313.75-.043.75.012-.015.934Zm1.699 2.614.035.921.074 1.309-1.496.09-.078-1.34-.035-.922Zm-.817 3.03.106-1.01 1.484-.056.164.914-.738.133-.746-.074.031-.3 1.492.152-.03.3-1.485.059-.164-.918.738-.133.746.078-.105 1.012Zm1.621-2.855.329-.113.242.707-.29-.691.337-.14.293.69-.325-.675 1.157-.551.812.496-.394.64.082-.745.117.011-.16 1.492-.285-.03-.61-.372.39-.64.325.675-.805.383-.375.16-.355.121Zm4.887.493.375.425-.566.496v-.75l1.683-.007.004 1.5-2.023.007-.598-.68Zm3.809.261.086.008 2.164.238-.164 1.493-2.13-.235-.089-.008Zm4.488.492.137.012-.082.746-.028-.75 1.91-.066.239.004-.02 1.5-.222-.004.011-.75.028.75-1.946.07-.191-.023Zm4.426-.023 2.25.031-.02 1.5-2.25-.031Zm4.5.066 2.25.032-.024 1.5-2.25-.032Zm4.5.063 2.105.031-.011.75-.016-.75.14-.004.04 1.5-.16.004-2.122-.031Zm4.469-.027 1.414-.032.859.004-.008 1.5-.847-.004.003-.75.016.75-1.402.032Zm4.523-.012 2.25.012-.008 1.5-2.25-.012Zm4.5.027 2.25.016-.008 1.5-2.25-.016Zm4.5.028 2.25.015-.012 1.5-2.246-.015Zm4.512.066 2.25.055-.035 1.5-2.25-.055Zm4.5.11 2.25.058-.04 1.5-2.25-.059Zm4.5.12 2.25.063-.043 1.496-2.246-.059Zm4.5.121 2.246.063-.04 1.5-2.25-.062Zm4.496.122.293.007-.02.75.004-.75 1.957.008-.008 1.5-1.964-.008-.301-.007Zm4.484.027 2.25.012-.008 1.5-2.25-.012Zm4.504.02 2.25.027-.016 1.5-2.25-.028Zm4.5.05 2.25.024-.016 1.5-2.25-.024Zm4.5.047 2.25.024-.016 1.5-2.25-.024Zm4.5.05 2.25.024-.016 1.5-2.25-.023Zm4.5.048 2.25.023-.016 1.5-2.25-.023Zm4.5.05 2.25.024-.02 1.5-2.25-.023Zm4.5.047 2.25.024-.02 1.5-2.25-.024Zm4.496.047 2.25.028-.015 1.5-2.25-.028Zm4.5.051 2.25.024-.015 1.5-2.25-.024Zm4.5.047 2.25.027-.015 1.5-2.25-.027Zm4.5.05 2.25.024-.015 1.5-2.25-.023Zm4.5.048 2.25.023-.015 1.5-2.25-.023Zm4.5.05 2.25.024-.015 1.5-2.25-.024Zm4.5.047 2.25.024-.015 1.5-2.25-.024Zm4.5.051 2.25.024-.015 1.5-2.25-.024Zm4.5.047 2.25.023-.015 1.5-2.25-.023Zm4.5.05 2.25.024-.015 1.5-2.25-.027Zm4.5.048 2.25.023-.015 1.5-2.25-.023Zm4.5.046 2.25.028-.015 1.5-2.25-.028Zm4.5.051 2.25.024-.02 1.5-2.245-.024Zm4.5.047 2.25.027-.02 1.5-2.25-.027Zm4.5.05 2.25.024-.02 1.5-2.25-.023Zm4.496.048 2.25.023-.015 1.5-2.25-.023Zm4.5.05 2.25.024-.015 1.5-2.25-.023Zm4.5.047 2.25.024-.015 1.5-2.25-.024Zm4.5.051 2.25.024-.015 1.5-2.25-.024Zm4.5.047 2.25.024-.015 1.5-2.25-.024Zm4.5.047 2.25.027-.015 1.5-2.25-.027Zm4.5.05 2.25.024-.015 1.5-2.25-.023Zm4.5.048 2.25.027-.015 1.5-2.25-.027Zm4.5.05 2.25.024-.015 1.5-2.25-.024Zm4.5.047 2.25.028-.015 1.496-2.25-.024Zm4.5.051 2.25.024-.015 1.5-2.25-.024Zm4.5.047 2.25.023-.015 1.5-2.25-.023Zm4.5.05 2.25.024-.02 1.5-2.245-.023Zm4.5.048 2.25.023-.02 1.5-2.25-.023Zm4.5.05 2.25.024-.02 1.5-2.25-.024Zm4.496.047 2.25.024-.015 1.5-2.25-.024Zm4.5.047 2.25.027-.015 1.5-2.25-.027Zm4.5.05 2.25.024-.015 1.5-2.25-.023Zm4.5.048 2.25.027-.015 1.5-2.25-.027Zm4.5.05 2.25.024-.015 1.5-2.25-.023Zm4.5.047 2.25.024-.015 1.5-2.25-.024Zm4.5.051 2.25.024-.015 1.5-2.25-.024Zm4.5.047 2.25.024-.015 1.5-2.25-.024Zm4.5.05 2.25.024-.015 1.5-2.25-.023Zm4.5.048 2.25.023-.015 1.5-2.25-.023Zm4.5.047 2.25.027-.015 1.5-2.25-.027Zm4.5.05 2.25.024-.015 1.5-2.25-.024Zm4.5.047 2.25.028-.02 1.5-2.245-.028Zm4.5.051 2.25.024-.02 1.5-2.25-.024Zm4.5.047 2.247.027-.016 1.496-2.25-.023Zm4.497.05 2.25.024-.016 1.5-2.25-.023Zm4.5.048 2.25.023-.016 1.5-2.25-.023Zm4.5.05 2.25.024-.016 1.5-2.25-.024Zm4.5.047 2.25.024-.016 1.5-2.25-.024Zm4.5.051 2.25.023-.016 1.5-2.25-.023Zm4.5.047 2.25.023-.016 1.5-2.25-.023Zm4.5.047 2.25.027-.016 1.5-2.25-.027Zm4.5.05 2.25.024-.016 1.5-2.25-.023Zm4.5.047 2.25.028-.016 1.5-2.25-.028Zm4.5.051 2.25.024-.016 1.5-2.25-.024Zm4.5.047 2.25.024-.016 1.5-2.25-.024Zm4.5.05 2.25.024-.016 1.5-2.25-.023Zm4.5.048 2.25.023-.02 1.5-2.246-.023Zm4.5.05 2.25.024-.02 1.5-2.25-.023Zm4.5.047 2.246.024-.016 1.5-2.25-.024Zm4.496.051 2.25.024-.016 1.5-2.25-.028Zm4.5.047 2.25.024-.016 1.5-2.25-.024Zm4.5.047 2.25.027-.016 1.5-2.25-.027Zm4.5.05 2.25.024-.016 1.5-2.25-.023Zm4.5.048 2.25.027-.016 1.5-2.25-.027Zm4.5.05 2.25.024-.016 1.5-2.25-.024Zm4.5.047 2.25.024-.016 1.5-2.25-.024Zm4.5.051 2.25.023-.016 1.5-2.25-.023Zm4.5.047 2.25.023-.016 1.5-2.25-.023Zm4.5.05 2.25.024-.016 1.5-2.25-.023Zm4.5.048 2.25.023-.016 1.5-2.25-.023Zm4.5.046 2.25.028-.016 1.5-2.25-.028Zm4.5.051 2.25.024-.02 1.5-2.25-.024Zm4.5.047 2.25.027-.02 1.5-2.25-.027Zm4.5.05 2.246.024-.016 1.5-2.25-.023Zm0 0"/></g><g clip-path="url(#c)"><path fill="#00CC96" d="m39 242.266.066-6.75 1.5.015-.066 6.75Zm.133-13.5.066-6.75 1.5.015-.066 6.75Zm1.816-5.02.074 1.39.063 3.157-.75.016.746-.082.238 2.214-1.492.16-.242-2.246-.063-3.175.75-.016-.746.04-.074-1.38Zm-.18 11.285.145-.566.727.18-.75-.051.234-3.414.746.054-.746-.035.117-2.742 1.496.066-.117 2.75-.238 3.489-.156.633Zm.762-13.316.293-6.746 1.496.066-.289 6.742Zm.582-13.488.274-6.325.172-.578 1.437.422-.144.492-.72-.21.75.03-.269 6.235Zm4.047-7.739 1.09 2.707-.7.282.614-.438.867 1.211 1.094 2.207-1.344.668-1.066-2.156.672-.332-.614.437-.882-1.234-1.121-2.79Zm7.113 10.864 4.239 4.199-.528.531.36-.66.687.375-.718 1.32-.782-.426-4.312-4.277Zm10.77 7.425 3.46 1.66-.327.676.164-.73 2.844.625-.32 1.465-2.934-.645-3.535-1.7Zm12.723 3.79 6.566 1.57-.352 1.457-6.562-1.567Zm13.156 2.421 6.719.657-.149 1.492-6.719-.657Zm13.433 1.317 5.957.582.75.058-.117 1.493-.78-.06-5.954-.581Zm13.434 1.156 1.063.082 5.668.43-.114 1.496-5.668-.43-1.062-.082Zm13.461 1.023 6.73.508-.113 1.496-6.73-.508Zm13.453.903 6.684.37h.043l-.055 1.5-.07-.003-6.684-.367Zm13.473.62 6.746.255-.055 1.496-6.746-.25Zm13.492.505 6.746.25-.059 1.5-6.746-.25Zm13.488.504 6.746.25-.054 1.5-6.746-.254Zm13.485.484 6.746.168-.035 1.496-6.75-.164Zm13.496.332 4.64.113 2.106.051-.035 1.5-2.106-.05-4.644-.114Zm13.496.332 6.746.164-.035 1.5-6.75-.168Zm13.496.328 6.746.168-.035 1.5-6.75-.168Zm13.492.332 6.75.164-.035 1.5-6.75-.164Zm13.496.332 6.75.164-.035 1.5-6.75-.164Zm13.496.332 6.75.164-.039 1.5-6.746-.168Zm13.496.317 6.746.14-.03 1.5-6.747-.14Zm13.496.28 6.75.142-.03 1.5-6.75-.141Zm13.497.282.78.016 5.966.09-.024 1.5-5.972-.09-.782-.016Zm13.496.207 6.75.106-.024 1.496-6.75-.102Zm13.496.207 6.75.102-.024 1.5-6.746-.102Zm13.5.203 6.75.102-.024 1.5-6.75-.102Zm13.5.203 6.746.106-.02 1.5-6.75-.106Zm13.496.208 6.75.101-.024 1.5-6.75-.101Zm13.5.203 6.75.101-.024 1.5-6.75-.101Zm13.496.207 6.75.101-.024 1.5-6.746-.101Zm13.5.203 6.75.101-.024 1.5-6.75-.101Zm13.5.203 6.746.105-.02 1.5-6.75-.105Zm13.496.207 6.75.102-.023 1.5-6.75-.102Zm13.5.203 6.75.102-.023 1.5-6.75-.102Zm13.496.207 6.75.102-.023 1.5-6.746-.102Zm13.5.203 6.75.102-.023 1.5-6.75-.102Zm13.5.203 6.746.106-.02 1.5-6.75-.106Zm13.496.207 6.75.102-.023 1.5-6.75-.102Zm13.5.204 5.41.082-.023 1.5-5.41-.082Zm0 0"/></g><g clip-path="url(#d)"><path fill="#AB63FA" d="m40.5 224.258.156 7.437-.75.016-.75-.008.04-3.805 1.5.016-.04 3.805-1.5.008-.156-7.438Zm-1.184-7.61.051-5.082 1.5-.02.156 4.052.036 2.132-1.5.024-.036-2.125.75-.012-.746.031-.16-4.043.75-.03.75.007-.05 5.082Zm1.176 3.399.008-.18.402-11.062 1.496.054L42 219.918l-.008.184Zm.817-22.484.078-2.118.293-5.668.246-3.472 1.496.105-.246 3.445-.293 5.645-.074 2.117Zm1.41-22.481.086-1.227.468-5.5.586-4.507 1.489.195-.586 4.488-.746-.097.75.066-.465 5.465-.086 1.222Zm4.8-21.926 1.684-1.906 1.7.828-.329.676-.312-.684 1.558-.71 1.856.39 1.93 1.098 1.878 2.566-1.21.883-1.786-2.434.606-.441-.371.648-1.688-.957.371-.652-.152.734-1.5-.316.152-.734.313.683-1.657.754-1.503-.734.328-.672.562.496-1.304 1.476Zm17.215 10.785.008.012-.57.484.547-.511 3.008 3.242-.551.508.5-.559 5.086 4.54-.996 1.12-5.114-4.562-3.043-3.278-.02-.023Zm16.504 15.032 2.63 2.039-.462.593.422-.62 6.567 4.425-.84 1.246-6.586-4.445-2.653-2.055Zm18.684 12.265 2.055 1.125-.36.657.297-.688 8.188 3.508-.59 1.379-8.223-3.524-2.086-1.14Zm20.535 8.825 7.195 2.449-.242.707.192-.723 3.53.926-.378 1.45-3.559-.935-7.218-2.453Zm21.559 6.21 8.52 2.235-.192.726.152-.734 2.39.488-.3 1.469-2.41-.492-8.54-2.238Zm21.894 4.97.203.038-.148.735.133-.739 10.867 1.953-.266 1.477-10.875-1.953-.215-.043Zm22.14 3.75 10.512 1.53-.109.743.09-.743.621.07-.176 1.493-.633-.074-10.523-1.535Zm22.286 2.91 11.176 1.304-.176 1.492-11.172-1.308Zm22.348 2.613 6.847.8-.09.743.07-.746 4.34.394-.136 1.492-4.352-.394-6.851-.801Zm22.37 2.203 8.81.8-.067.747.05-.75 2.4.164-.102 1.496-2.41-.164-8.817-.797Zm22.415 1.722 11.226.762-.101 1.5-11.227-.766Zm22.449 1.528 11.227.761-.102 1.497-11.227-.762Zm22.437 1.515 11.235.59-.078 1.5-11.235-.59Zm22.47 1.184 11.234.59-.079 1.496-11.234-.59Zm22.468 1.059 11.238.464-.062 1.5-11.239-.464Zm22.48.93 11.239.464-.063 1.5-11.238-.465Zm22.48.929 11.24.465-.063 1.5-11.239-.465Zm22.481.93 3.961.164-.062 1.5-3.961-.164Zm0 0"/></g><g clip-path="url(#e)"><path fill="#FFA15A" d="m40.5 209.348.063 6.75-1.5.015-.063-6.75Zm.082 9 .02 2.25-1.5.015-.02-2.25Zm.043 4.5.055 6.074-.75.008-.75-.024.02-.672 1.5.043-.02.676-1.5-.016-.055-6.078Zm-1.36 3.136.067-2.25 1.5.047-.066 2.246Zm.133-4.496.125-4.386 1.5.003.059 2.364-1.5.039-.059-2.363.75-.02.75.023-.125 4.383Zm1.926.149.227 1.941-.742.086-.75-.031.011-.297 1.5.066-.011.297-1.496.055-.227-1.941Zm-1.152-.547.016-.332 1.464-.18.153.504-.72.215-.75-.047.165-2.773.172-3.11 1.496.082-.168 3.117-.168 2.774-1.465.168-.152-.5.719-.215.75.031-.016.332Zm.621-7.969.121-2.246 1.5.082-.125 2.246Zm.246-4.492.363-6.742 1.5.082-.367 6.742Zm.488-8.988.121-2.246 1.497.082-.122 2.246Zm.243-4.493.367-6.742 1.5.082-.367 6.742Zm.492-8.988.12-2.246 1.497.082-.121 2.246Zm.535-4.555.02-.097.734.133-.742-.106.953-6.582 1.484.215-.953 6.598-.02.113Zm1.289-8.878.312-2.176.043-.145 1.442.41-.028.094-.718-.203.742.11-.309 2.124Zm.969-4.485.039-.133.855-2.105 1.383-.848 2.52 1.153 1.07 1.265-1.145.969-.96-1.14.57-.481-.313.68-2-.915.313-.683.39.64-.832.512-.394-.64.695.28-.75 1.84-.695-.284.722.207-.027.093Zm7.383.926 1.507 1.559-.539.52.504-.56.059.055-1.004 1.117-.078-.07-1.528-1.578Zm3.199 3.074 5.062 4.465-.992 1.125-5.062-4.465Zm6.687 5.781 1.953 1.122-.75 1.3-1.949-1.12Zm3.895 2.293 4.73 2.875-.39.641.355-.66 1.07.57-.707 1.324-1.09-.582-4.75-2.886Zm7.75 4.485.738.394-.352.664.282-.699 1.308.531-.562 1.391-1.344-.543-.777-.414Zm4.062 1.73 6.262 2.524-.563 1.394-6.261-2.527Zm8.348 3.367 2.086.84-.563 1.39-2.086-.839Zm4.16 1.559 4.531 1.461 1.895.668-.5 1.414-1.887-.664.25-.707-.226.71-4.524-1.456Zm8.547 2.879 2.121.75-.5 1.414-2.121-.75Zm4.219 1.351 6.12 1.57-.187.727.121-.738.43.07-.246 1.48-.461-.077-6.148-1.578Zm8.703 1.997 2.219.37-.247 1.481-2.218-.37Zm4.437.738 6.66 1.11-.246 1.476-6.66-1.106Zm8.88 1.476 2.218.368-.242 1.48-2.223-.367Zm4.44.739 6.657 1.105-.246 1.48-6.656-1.105Zm8.872 1.472 2.222.348-.234 1.48-2.223-.347Zm4.445.696 6.668 1.047-.23 1.484-6.672-1.047Zm8.867 1.328 2.238.258-.171 1.488-2.235-.254Zm4.473.512 6.707.765-.172 1.492-6.707-.765Zm8.941 1.023 2.235.254-.168 1.492-2.239-.258Zm4.469.512 6.707.765-.168 1.493-6.707-.77Zm8.945 1.023.575.063-.086.746.058-.746 1.668.132-.12 1.497-1.68-.137-.587-.067Zm4.457.379 6.727.547-.121 1.496-6.727-.547Zm8.97.727 2.245.183-.12 1.496-2.247-.183Zm4.483.363 6.731.535-.117 1.492-6.73-.531Zm8.973.71 2.242.177-.117 1.496-2.242-.176Zm4.488.356 6.727.532-.117 1.496-6.73-.532Zm8.97.707 2.245.18-.12 1.496-2.243-.18Zm4.487.356 6.727.531-.117 1.496-6.727-.531Zm8.973.71 2.242.177-.117 1.496-2.246-.176Zm4.484.352.438.035 6.29.403-.099 1.496-6.308-.402-.438-.036Zm8.97.582 2.245.14-.093 1.497-2.246-.14Zm4.491.285 6.739.43-.098 1.496-6.734-.43Zm8.98.57 2.247.145-.094 1.496-2.246-.14Zm4.485.259 6.742.34-.078 1.5-6.738-.34Zm8.989.453 2.246.113-.075 1.5-2.246-.113Zm4.496.226 6.738.34-.074 1.5-6.742-.34Zm8.988.453 2.246.114-.074 1.496-2.25-.11Zm4.492.227 6.742.34-.074 1.496-6.742-.34Zm8.988.453 2.25.113-.078 1.496-2.246-.113Zm4.497.227 6.742.34-.078 1.496-6.743-.34Zm8.988.453 2.246.113-.074 1.496-2.246-.113Zm4.492.226 1.988.098 4.75.207-.062 1.496-4.766-.203-1.984-.102Zm8.988.399 2.246.097-.062 1.5-2.25-.097Zm4.496.195 6.743.29-.063 1.5-6.746-.29Zm8.989.387 2.25.097-.067 1.497-2.246-.094Zm4.496.191 6.746.293-.067 1.496-6.742-.289Zm8.992.39.527.02 1.715.059-.05 1.5-1.727-.059-.528-.023Zm4.492.153 6.746.227-.05 1.5-6.747-.227Zm8.992.301 2.25.078-.05 1.496-2.247-.074Zm4.5.152 6.746.227-.05 1.496-6.747-.223Zm8.996.301 2.246.074-.05 1.5-2.246-.074Zm4.496.149 6.747.226-.051 1.5-6.746-.226Zm8.997.3 2.246.078-.051 1.497-2.246-.075Zm4.496.153 6.746.226-.051 1.496-6.746-.222Zm8.996.3 2.246.075-.047 1.5-2.25-.075Zm4.496.149 6.746.226-.05 1.5-6.747-.226Zm8.996.3 2.246.079-.047 1.496-2.25-.074Zm4.496.153 6.746.227-.05 1.496-6.747-.223Zm8.996.3 1.863.063.383.012-.043 1.5-.39-.012-1.864-.062Zm4.492.137 6.75.192-.043 1.5-6.75-.191Zm8.996.254 2.25.063-.043 1.5-2.246-.063Zm4.5.125 6.747.192-.043 1.5-6.747-.192Zm8.997.254 2.25.067-.043 1.5-2.25-.067Zm4.5.13 6.746.19-.043 1.5-6.746-.19Zm8.996.253 2.246.063-.04 1.5-2.25-.063Zm4.496.125 5.773.164.973.024-.04 1.5-.976-.024-5.773-.164Zm8.996.246 2.246.055-.035 1.5-2.25-.059Zm4.496.11 6.75.168-.04 1.5-6.745-.168Zm9 .222 2.246.055-.035 1.5-2.25-.055Zm4.496.11 6.75.168-.04 1.5-6.745-.168Zm9 .222 2.246.055-.035 1.5-2.25-.055Zm4.496.114 6.75.164-.039 1.5-6.746-.164Zm8.996.222 2.25.055-.035 1.5-2.25-.059Zm4.5.11 6.75.168-.039 1.5-6.746-.168Zm8.996.222 2.25.055-.035 1.5-2.25-.055Zm4.5.11 6.75.168-.039 1.5-6.746-.168Zm8.996.222 2.25.055-.035 1.5-2.25-.055Zm4.5.114 6.75.164-.039 1.5-6.746-.164Zm8.996.222 2.25.055-.035 1.5-2.25-.059Zm4.5.11 6.747.168-.036 1.5-6.75-.168Zm8.997.222 2.25.055-.036 1.5-2.25-.055Zm4.5.11 6.746.168-.036 1.5-6.75-.168Zm8.996.222 2.25.055-.036 1.5-2.25-.055Zm4.5.114.914.02-.04 1.5-.913-.02Zm0 0"/></g><g clip-path="url(#f)"><path fill="#19D3F3" d="m40.5 241.418.016 10.086-1.5-.004.007-1.164 1.5.012-.007 1.164-.75-.008-.75.004-.016-10.09Zm-1.434 4.418.02-2.25 1.5.012-.02 2.25Zm.059-6.75.098-11.25 1.5.016-.098 11.246Zm.137-15.75.02-2.25 1.5.016-.02 2.25Zm1.562-6.727.2 5.703-.75.024-.747-.05.078-1.134.41-.476 1.317.437.3 4.27-1.495.11-.301-4.274.746-.051.566.492-.246.285-.566-.492.746.05-.059.884-1.496-.024-.203-5.699Zm-.258 5.758.067-2.25 1.5.047-.07 2.25Zm.235-6.754.449-11.238 1.5.059-.453 11.242Zm.629-15.734.093-2.25 1.497.059-.09 2.25Zm.273-6.746.45-11.242 1.5.062-.45 11.238Zm.633-15.738.09-2.247 1.496.059-.09 2.25Zm.27-6.743.199-4.949.468-5.531.137-.828 1.48.246-.132.8-.742-.124.75.066-.465 5.48-.75-.062.75.031-.196 4.93Zm1.546-15.75.371-2.218 1.48.25-.37 2.218Zm1.114-6.656.554-3.3.907-3.184 2.613-2.137 1.648 1.094-.414.625.309-.68.82.371-.621 1.367-.875-.398-1.234-.82.414-.625.476.578-2.004 1.636-.472-.582.718.207-.832 2.918-.722-.207.742.125-.547 3.258Zm10.261-4.473.11.114-.543.52.531-.532 1.484 1.473-1.058 1.066-1.492-1.484-.114-.121Zm4.774 4.747 1.75 1.742 2.699 3.312-.578.477.562-.492 3.016 3.449-1.129.988-3.023-3.46-2.688-3.298.582-.472-.527.53-1.723-1.71Zm10.41 11.878 1.48 1.696-1.132.984-1.477-1.691Zm4.379 4.93 4.015 3.07 4.61 4.243-1.016 1.101-4.586-4.215.508-.55-.453.593-3.992-3.05Zm12.25 9.77 1.86 1.242h.003l-.812 1.262-.024-.016-1.86-1.242Zm5.644 3.675 9.04 5.817-.407.629.36-.656.441.238-.719 1.32-.465-.254-9.058-5.832Zm13.387 8.18 1.977 1.074-.72 1.32-1.976-1.077Zm5.973 3.031 5.77 2.688-.317.68.258-.707 4.586 1.69-.516 1.407-4.617-1.699-5.797-2.695Zm14.52 5.907.804.297-.258.703.207-.723 1.34.383-.414 1.441-1.367-.387-.828-.308Zm6.417 1.894 10.82 3.086-.41 1.441-10.82-3.085Zm15.149 4.32 2.12.602-.206.723.156-.735.043.012-.313 1.465-.066-.016-2.148-.61Zm6.515 1.54 9.176 1.96-.156.735.12-.742 1.84.297-.238 1.48-1.859-.297-9.195-1.965Zm15.426 2.964 2.219.36-.238 1.48-2.22-.36Zm6.664 1.075 11.106 1.785-.239 1.48-11.105-1.785Zm15.547 2.5 2.223.359-.239 1.48-2.222-.359Zm6.652.968 11.168 1.36-.183 1.492-11.168-1.363Zm15.633 1.907.985.12-.09.743.066-.746 1.254.113-.137 1.496-1.265-.117-.993-.121Zm6.7.64 11.203 1.024-.137 1.492-11.203-1.024Zm15.683 1.43 2.238.207-.133 1.492-2.242-.203Zm6.723.613 11.203 1.024-.137 1.492-11.203-1.02Zm15.683 1.434 2.207.199h.02l-.106 1.496h-.05l-2.207-.203Zm6.715.515 11.223.79-.106 1.496-11.222-.79Zm15.711 1.102 2.246.16-.105 1.496-2.246-.16Zm6.734.473.383.027 10.836.605-.082 1.497-10.86-.606-.382-.027Zm15.715.882 2.246.125-.086 1.497-2.246-.125Zm6.739.375 11.23.625-.082 1.497-11.23-.625Zm15.726.875 2.246.125-.086 1.497-2.246-.125Zm6.738.375 11.235.625-.086 1.497-11.23-.625Zm15.727.875 2.246.125-.082 1.497-2.25-.125Zm6.73.348 11.239.469-.063 1.5-11.238-.469Zm15.735.656 2.25.094-.063 1.5-2.25-.094Zm6.746.282 11.238.464-.062 1.5-11.239-.468Zm15.73.644 2.246.074-.046 1.496-2.25-.074Zm6.746.219 11.243.371-.047 1.5-11.246-.371Zm15.743.52 2.246.074-.047 1.5-2.25-.075Zm6.746.222 11.242.371-.05 1.5-11.243-.37Zm15.742.52 2.246.074-.047 1.5-2.25-.074Zm6.746.222 11.242.371-.05 1.496-11.243-.367Zm15.738.52 2.25.074-.05 1.496-2.247-.074Zm6.746.219 11.246.37-.05 1.5-11.243-.37Zm15.743.52 1.23.042 1.016.023-.04 1.5-1.027-.027-1.226-.039Zm6.742.187 11.246.3-.04 1.5-11.245-.3Zm15.746.421 2.25.059-.04 1.5-2.25-.062Zm6.746.18 11.246.297-.039 1.5-11.246-.3Zm15.746.418 2.25.059-.043 1.5-2.246-.059Zm6.746.18 4.414.117-.039 1.5-4.414-.117Zm0 0"/></g><g clip-path="url(#g)"><path fill="none" stroke="#FF6692" stroke-miterlimit="2" stroke-width="1.5" d="m39.75 260.273.523-153.773.063-4.883.914-16.05.18 4.628.21.45.231-1.957 1.262.359.418-.871 1 5.836.586 1.75 3.191 11.968 1.059 3.278 2.52 5.851 1.5 3.207 1.687 3.832 1.89 2.762 4.508 7.711 2.68 4.086 10.183 11.73 4.266 3.66 4.785 3.614 5.38 3.285 12.831 6.848 7.621 3.187 18.172 6.098 10.8 2.957 25.755 5.187 15.3 2.672 36.497 5.399 21.68 2.566 51.706 4.899 30.72 2.382 73.269 4.582 43.527 2.168 103.809 4.352 61.687 2.168 147.09 3.988"/></g><g clip-path="url(#h)"><path fill="#B6E880" d="m39 144.555.004-2.25 1.5.004-.004 2.25Zm.012-4.5.004-2.25 1.5.004-.004 2.25Zm.008-4.5.003-.48h1.5l.004 1.769-1.5.004-.004-1.77.75-.004.75.004-.003.48Zm1.515 3.539.008 2.25-1.5.004-.008-2.25Zm.016 4.5.008 2.25-1.5.004-.008-2.25Zm.015 4.5.008 2.25-1.5.004-.008-2.25Zm.016 4.5.008 2.25-1.5.004-.008-2.25Zm.016 4.5.007 2.25-1.5.004-.007-2.25Zm.015 4.5.008 2.25-1.5.004-.008-2.25Zm.016 4.5.008 2.25-1.5.004-.008-2.25Zm-1.469 3.015.047-2.25 1.5.032-.05 2.25Zm.094-4.5.047-2.25 1.5.036-.047 2.246Zm.098-4.496.046-2.25 1.5.032-.046 2.25Zm.093-4.5.047-2.25 1.5.032-.047 2.25Zm1.586-2.925.02 2.25-1.5.015-.02-2.25Zm.04 4.5.015 1.582.016.656-1.5.039-.016-.684-.016-1.578Zm.093 4.488.059 2.246-1.496.043-.063-2.25Zm.121 4.496.063 2.25-1.5.039-.063-2.246Zm.121 4.5.063 2.25-1.5.039-.063-2.25Zm.121 4.496.063 2.25-1.5.039-.063-2.246Zm.121 4.5.036 1.293-.75.023-.75-.023.027-.953 1.5.043-.027.953h-1.5l-.036-1.297Zm-1.375-1.91.063-2.168.004-.086 1.496.05v.079l-.063 2.168Zm.141-4.504.078-2.246 1.496.05-.074 2.247Zm.188-4.508.113-2.246 1.5.078-.117 2.246Zm.23-4.492.113-2.25 1.496.078-.113 2.246Zm.227-4.496.117-2.246 1.496.078-.113 2.246Zm.23-4.492.098-1.914.031-.364 1.496.133-.031.352-.746-.067.746.035-.094 1.899Zm.328-4.516.063-.715.175-1.543 1.493.172-.176 1.535-.746-.086.75.067-.063.703Zm.496-4.492.254-2.235 1.488.168-.253 2.235Zm.508-4.473.254-2.234 1.492.172-.254 2.234Zm.508-4.469.156-1.367.473-1.015 1.36.632-.419.903-.683-.313.746.082-.14 1.246Zm1.652-4.414 1.024-2.004 1.336.68-1.024 2.004Zm3.504-3.218 1.176-.125 1.312.398-.437 1.434-1.168-.352.219-.719.082.746-1.028.11Zm4.64.925 2.153.653-.437 1.437-2.153-.652Zm4.16 1.336 2.235.274-.183 1.488-2.23-.27Zm4.466.543.09.012 2.191.61-.402 1.445-2.137-.594.2-.723-.09.742-.032-.003Zm4.457 1.27 2.152.656-.441 1.434-2.149-.657Zm4.3 1.312.47.14-.22.72.184-.727 1.707.426-.363 1.453-1.727-.43-.488-.148Zm4.372 1.121 2.14.692-.46 1.43-2.141-.696Zm4.28 1.383 2.142.696-.461 1.425-2.141-.691Zm4.282 1.387 2.14.691-.46 1.426-2.14-.691Zm4.285 1.383 2.141.691-.461 1.43-2.144-.695Zm4.282 1.383 2.14.695-.46 1.426-2.141-.692Zm4.28 1.386 2.141.692-.46 1.425-2.141-.69Zm4.282 1.383 1.492.48.668.247-.515 1.41-.657-.242.258-.703-.23.714-1.477-.48Zm4.274 1.504 2.109.773-.516 1.41-2.113-.777Zm4.222 1.55.63.231 1.483.567-.535 1.402-1.465-.562-.628-.231Zm4.215 1.602 2.102.805-.536 1.402-2.101-.804Zm4.203 1.61 2.102.804-.535 1.403-2.102-.805Zm4.203 1.61 2.102.804-.535 1.402-2.102-.805Zm4.203 1.608 2.102.805-.535 1.399-2.102-.805Zm4.204 1.61 2.101.805-.539 1.398-2.102-.805Zm4.203 1.605 2.101.805-.539 1.402-2.101-.804Zm4.199 1.61 2.101.804-.535 1.403-2.101-.805Zm4.203 1.61 2.102.804-.536 1.402-2.101-.805Zm4.203 1.608 2.102.805-.535 1.399-2.102-.801Zm4.203 1.61 2.102.804-.535 1.399-2.102-.805Zm4.203 1.61 2.102.804-.535 1.398-2.102-.804Zm4.203 1.605 2.102.804-.535 1.403-2.102-.805Zm4.204 1.609 2.101.805-.539 1.402-2.101-.805Zm4.203 1.61 2.101.804-.539 1.402-2.101-.804Zm4.199 1.609 2.102.804-.536 1.399-2.101-.8Zm4.203 1.61 2.102.804-.536 1.398-2.101-.804Zm4.188 1.566 2.132.718-.48 1.422-2.133-.719Zm4.265 1.437 2.13.719-.477 1.422-2.133-.72Zm4.262 1.438 2.133.718-.48 1.422-2.134-.719Zm4.266 1.437 2.128.719-.476 1.422-2.133-.72Zm4.238 1.395 2.164.613-.41 1.445-2.164-.613Zm4.328 1.23 2.164.613-.41 1.446-2.164-.618Zm4.328 1.23 2.164.614-.406 1.441-2.168-.613Zm4.332 1.227 2.164.617-.41 1.442-2.164-.614Zm4.328 1.23 1.309.372-.203.722.172-.73.867.207-.352 1.46-.879-.21-1.324-.379Zm4.332 1.098 2.188.528-.352 1.457-2.187-.524Zm4.375 1.055 2.188.527-.352 1.457-2.187-.527Zm4.375 1.055 2.188.523-.352 1.461-2.187-.527Zm4.375 1.05 2.188.528-.352 1.457-2.187-.524Zm4.375 1.055 1.13.274-.177.726.149-.734 1.066.215-.297 1.468-1.078-.215-1.144-.277Zm4.371.922 2.207.441-.293 1.473-2.207-.445Zm4.414.883 2.207.445-.296 1.469-2.207-.442Zm4.41.886 2.208.442-.293 1.473-2.207-.446Zm4.415.883 2.207.442-.297 1.472-2.203-.441Zm4.414.887 2.203.441-.293 1.47-2.207-.442Zm4.394.852 2.219.378-.254 1.477-2.219-.379Zm4.438.753 2.215.38-.25 1.476-2.22-.375Zm4.433.758 2.22.375-.25 1.48-2.22-.378Zm4.438.754 2.219.38-.254 1.476-2.22-.38Zm4.437.754 2.215.379-.25 1.48-2.219-.378Zm4.434.758 2.219.375-.25 1.48-2.22-.379Zm4.414.742 2.23.305-.203 1.488-2.23-.309Zm4.457.61 2.23.308-.203 1.484-2.23-.304Zm4.461.613 2.227.304-.204 1.485-2.226-.305Zm4.457.61 2.23.304-.203 1.488-2.23-.309Zm4.457.608 2.23.305-.203 1.488-2.23-.304Zm4.461.614 2.227.304-.204 1.485-2.226-.305Zm4.457.61 2.23.304-.203 1.488-2.23-.308Zm4.445.593 2.235.258-.172 1.488-2.235-.258Zm4.47.516 2.233.257-.171 1.489-2.235-.258Zm4.472.515 2.234.258-.172 1.488-2.234-.258Zm4.468.516 2.235.258-.172 1.488-2.234-.258Zm4.47.515 2.238.258-.172 1.492-2.239-.257Zm4.472.516 2.234.258-.172 1.492-2.234-.258Zm4.469.516 2.234.257-.172 1.493-2.234-.258Zm4.472.515 2.235.258-.172 1.492-2.235-.258Zm4.457.477 2.243.215-.145 1.496-2.238-.219Zm4.48.433 2.243.215-.145 1.492-2.242-.214Zm4.481.43 2.239.215-.145 1.492-2.238-.215Zm4.48.43 2.239.215-.145 1.492-2.238-.215Zm4.477.43 2.242.214-.144 1.496-2.238-.214Zm4.48.433 2.239.215-.14 1.492-2.243-.215Zm4.481.43 2.238.215-.144 1.492-2.238-.215Zm4.477.43 2.242.214-.145 1.496-2.238-.218Zm4.48.43.926.089-.144 1.492-.926-.086Zm0 0"/></g><g clip-path="url(#i)"><path fill="#FF97FF" d="m39 243.29.094-6.75 1.496.023-.09 6.746Zm.184-13.497.093-6.75 1.496.02-.09 6.75Zm1.777-6.945.062 1.52.059 1.062-.746.043.742-.086.078.644-.746.086-.75-.035.082-1.777 1.477-.149.316 1.235-.726.187.558-.5.125.14-.558.5-.746-.038.011-.254 1.496.074-.011.258-1.309.46-.25-.277-.36-1.418.727-.183.75.035-.082 1.777-1.496.051-.078-.668-.059-1.105-.066-1.52Zm-.414-4.164.133-2.633.21-3.938.012-.172 1.496.082-.007.168-.211 3.938-.137 2.633Zm.726-13.485.114-2.035.16-4.691 1.5.05-.164 4.723-.113 2.035Zm.622-13.496.503-6.734 1.497.113-.504 6.73Zm1.003-13.465.375-5.015.395-1.786 1.465.325-.383 1.73-.734-.16.75.055-.371 4.965Zm2.907-13.406.101-.176.645.383-.672-.336.934-1.883 1.523-.882 3.453 2.07-.773 1.289-3.07-1.844.382-.644.379.648-.945.55-.375-.648.672.332-.848 1.704-.113.195Zm11.258 3.7.519.687-.598.453.477-.582 2.184 1.785 2.003 2.531-1.175.934-1.953-2.469.59-.465-.477.578-2.192-1.789-.574-.757Zm9.18 9.71 1.472 1.52-.54.523.45-.601 3.383 2.504-.45.601.415-.625.355.234-.824 1.254-.375-.246-3.445-2.554-1.516-1.563Zm10.726 7.86 2.066 1.355 3.602 2.293-.805 1.266-3.621-2.305-2.066-1.356Zm11.523 6.878 5.961 3.168-.703 1.325-5.96-3.168Zm12.059 5.926 1.37.606-.304.687.235-.715 4.988 1.653-.473 1.425-5.02-1.664-1.402-.62Zm12.695 4.356 4.785 1.586-.234.71.18-.726 1.66.414-.364 1.453-1.687-.418-4.813-1.594Zm12.942 3.613 1.402.352-.18.726.16-.734 5.18 1.129-.32 1.464-5.192-1.128-1.414-.352Zm13.16 2.906 6.593 1.434-.316 1.465-6.598-1.434Zm13.172 2.75 6.664 1.07-.239 1.481-6.664-1.07Zm13.316 2.098 6.687.922-.203 1.488-6.687-.922Zm13.375 1.844 6.687.922-.207 1.488-6.687-.922Zm13.371 1.843 3.977.547-.106.746.074-.75 2.727.27-.145 1.492-2.742-.27-3.988-.546Zm13.39 1.47 6.72.655-.149 1.496-6.719-.66Zm13.426 1.241 6.73.516-.116 1.496-6.727-.52Zm13.461 1.036 6.73.519-.116 1.496-6.73-.52Zm13.461 1.039 6.727.515-.113 1.496-6.73-.515Zm13.457 1.035 2.075.16 4.648.277-.086 1.496-4.676-.277-2.074-.16Zm13.461.84 6.739.398-.09 1.496-6.739-.398Zm13.477.8 2.476.145 4.258.207-.074 1.5-4.273-.207-2.477-.149Zm13.476.68 6.743.328-.075 1.496-6.742-.324Zm13.485.656 6.742.325-.074 1.5-6.742-.329Zm13.484.653 6.742.328-.074 1.496-6.742-.324Zm13.48.656 6.743.324-.07 1.5-6.743-.328Zm13.485.652.285.016 6.453.242-.054 1.5-6.47-.246-.284-.012Zm13.484.512 6.746.254-.058 1.5-6.746-.254Zm13.489.508 6.746.258-.055 1.496-6.746-.254Zm13.488.504 6.746.226-.05 1.5-6.747-.226Zm13.492.453 6.746.226-.05 1.5-6.747-.226Zm13.492.453 6.746.226-.05 1.5-6.746-.226Zm13.493.453 1.628.055-.05 1.5-1.63-.055Zm0 0"/></g><g clip-path="url(#j)"><path fill="#FECB52" d="m39 239.691.102-11.246 1.5.012-.102 11.25Zm.2-22.496.1-11.25 1.5.012-.1 11.25Zm1.769-14.851.054 2.027-.75.02-.746-.043.059-1.102.75.043-.75-.023.156-5.7.016-2.398 1.5.008-.016 2.433-.156 5.707-.063 1.114-1.5-.02-.05-2.027Zm-1.14-18.426.003-.426.227-3.687.75.047-.75-.008.058-7.168 1.5.012-.058 7.187-.227 3.688-.75-.047.75.007-.004.403Zm.429-22.508.308-11.246 1.5.043-.308 11.246Zm.617-22.492.309-11.246 1.5.043-.309 11.246Zm.617-22.492.309-11.242 1.5.039-.309 11.246Zm.617-22.489.274-9.953.25-1.382 1.476.261-.238 1.328-.738-.132.75.023-.274 9.895Zm4.18-22.039.863.528.942 2.27.953 3.14-.719.215.61-.438 1.097 1.508 1.43 3.016-1.356.64-1.398-2.949.676-.32-.606.441-1.133-1.558-.98-3.227.719-.215-.696.285-.832-2.011.692-.285-.39.64-.653-.398Zm9.95 20.422 1.421 2.98-.676.325.594-.457 2.145 2.77 2.41 3.816-1.266.8-2.394-3.784.636-.399-.593.457-2.172-2.808-1.457-3.051Zm12.644 18.153 5.996 5.824-.524.539.434-.613 2.36 1.672-.868 1.226-2.406-1.707-6.035-5.863Zm17.445 13.93 8.938 6.331-.438.614.375-.649.258.145-.75 1.3-.285-.164-8.965-6.355Zm18.973 11.745 10.195 4.758-.637 1.36-10.191-4.758Zm20.695 8.446 1.637.511 9.129 2.72-.43 1.437-9.144-2.723-1.641-.516Zm21.547 6.445 3.016.899-.215.718.172-.73 7.886 1.863-.343 1.457-7.907-1.867-3.039-.902Zm21.824 5.121 11.043 2.153-.285 1.472-11.043-2.152Zm22.086 4.305 5.145 1-.145.738.121-.742 5.93.965-.238 1.48-5.942-.965-5.16-1.004Zm22.156 3.762 2.27.37-.117.739.097-.742 8.871 1.164-.195 1.488-8.883-1.168-2.28-.367Zm22.278 2.992 11.152 1.465-.195 1.488-11.153-1.465Zm22.308 2.926 3.696.488 7.46.87-.175 1.49-7.477-.876-3.699-.484Zm22.332 2.664 8.707 1.015 2.454.235-.141 1.492-2.488-.235-8.707-1.02Zm22.364 2.308 11.199 1.059-.14 1.496-11.204-1.063Zm22.398 2.121 11.2 1.059-.141 1.492-11.2-1.059Zm22.399 2.117 6.757.641 4.438.36-.121 1.496-4.457-.364-6.758-.636Zm22.41 1.907 11.214.906-.12 1.496-11.215-.906Zm22.425 1.812.672.055 10.543.726-.101 1.497-10.563-.727-.672-.055Zm22.438 1.555 11.223.77-.102 1.5-11.223-.774Zm22.45 1.543 11.222.773-.106 1.496-11.222-.773Zm22.444 1.547 11.223.77-.101 1.495-11.223-.77Zm22.446 1.543 3.308.226 7.914.473-.09 1.496-7.925-.473-3.309-.226Zm22.453 1.367 11.23.668-.09 1.5-11.23-.672Zm22.46 1.336 11.231.672-.09 1.496-11.23-.668Zm22.458 1.305 11.234.628-.086 1.5-11.23-.628Zm22.465 1.257 11.234.63-.086 1.495-11.23-.629Zm22.465 1.258 7.601.422-.086 1.5-7.597-.426Zm0 0"/></g><path fill="none" stroke="#000" stroke-width=".75" d="M39 262.875h711M39 22.125h711M39.375 22.5v240m710.25-240v240"/><path fill="none" stroke="#444" stroke-width=".75" d="M39.742 263.25V267m71.844-3.75V267m71.84-3.75V267m71.836-3.75V267m71.843-3.75V267m71.845-3.75V267m71.84-3.75V267m71.835-3.75V267m71.844-3.75V267m71.84-3.75V267"/><use xlink:href="#k" x="36.882" y="277.8" fill="#2A3F5F"/><g fill="#2A3F5F"><use xlink:href="#l" x="103.2" y="277.8"/><use xlink:href="#k" x="108.922" y="277.8"/><use xlink:href="#m" x="114.644" y="277.8"/></g><g fill="#2A3F5F"><use xlink:href="#n" x="175.043" y="277.8"/><use xlink:href="#k" x="180.764" y="277.8"/><use xlink:href="#m" x="186.486" y="277.8"/></g><g fill="#2A3F5F"><use xlink:href="#o" x="246.878" y="277.8"/><use xlink:href="#k" x="252.599" y="277.8"/><use xlink:href="#m" x="258.321" y="277.8"/></g><g fill="#2A3F5F"><use xlink:href="#p" x="318.72" y="277.8"/><use xlink:href="#k" x="324.442" y="277.8"/><use xlink:href="#m" x="330.164" y="277.8"/></g><g fill="#2A3F5F"><use xlink:href="#q" x="390.563" y="277.8"/><use xlink:href="#k" x="396.284" y="277.8"/><use xlink:href="#m" x="402.006" y="277.8"/></g><g fill="#2A3F5F"><use xlink:href="#r" x="462.405" y="277.8"/><use xlink:href="#k" x="468.127" y="277.8"/><use xlink:href="#m" x="473.849" y="277.8"/></g><g fill="#2A3F5F"><use xlink:href="#s" x="534.24" y="277.8"/><use xlink:href="#k" x="539.962" y="277.8"/><use xlink:href="#m" x="545.684" y="277.8"/></g><g fill="#2A3F5F"><use xlink:href="#t" x="606.083" y="277.8"/><use xlink:href="#k" x="611.804" y="277.8"/><use xlink:href="#m" x="617.526" y="277.8"/></g><g fill="#2A3F5F"><use xlink:href="#u" x="677.925" y="277.8"/><use xlink:href="#k" x="683.647" y="277.8"/><use xlink:href="#m" x="689.369" y="277.8"/></g><path fill="none" stroke="#444" stroke-width=".75" d="M39 262.5h-3.75M39 228.219h-3.75M39 193.926h-3.75M39 159.645h-3.75m3.75-34.29h-3.75M39 91.074h-3.75M39 56.781h-3.75M39 22.5h-3.75"/><use xlink:href="#k" x="27.728" y="265.65" fill="#2A3F5F"/><g fill="#2A3F5F"><use xlink:href="#k" x="18.733" y="231.367"/><use xlink:href="#v" x="24.454" y="231.367"/><use xlink:href="#l" x="27.728" y="231.367"/></g><g fill="#2A3F5F"><use xlink:href="#k" x="18.733" y="197.077"/><use xlink:href="#v" x="24.454" y="197.077"/><use xlink:href="#n" x="27.728" y="197.077"/></g><g fill="#2A3F5F"><use xlink:href="#k" x="18.733" y="162.795"/><use xlink:href="#v" x="24.454" y="162.795"/><use xlink:href="#o" x="27.728" y="162.795"/></g><g fill="#2A3F5F"><use xlink:href="#k" x="18.733" y="128.505"/><use xlink:href="#v" x="24.454" y="128.505"/><use xlink:href="#p" x="27.728" y="128.505"/></g><g fill="#2A3F5F"><use xlink:href="#k" x="18.733" y="94.222"/><use xlink:href="#v" x="24.454" y="94.222"/><use xlink:href="#q" x="27.728" y="94.222"/></g><g fill="#2A3F5F"><use xlink:href="#k" x="18.733" y="59.932"/><use xlink:href="#v" x="24.454" y="59.932"/><use xlink:href="#r" x="27.728" y="59.932"/></g><g fill="#2A3F5F"><use xlink:href="#k" x="18.733" y="25.65"/><use xlink:href="#v" x="24.454" y="25.65"/><use xlink:href="#s" x="27.728" y="25.65"/></g><g fill="#2A3F5F"><use xlink:href="#w" x="690.75" y="36.885"/><use xlink:href="#x" x="696.902" y="36.885"/><use xlink:href="#y" x="702.365" y="36.885"/><use xlink:href="#x" x="706.206" y="36.885"/><use xlink:href="#z" x="711.668" y="36.885"/><use xlink:href="#x" x="717.363" y="36.885"/><use xlink:href="#A" x="722.826" y="36.885"/><use xlink:href="#B" x="725.295" y="36.885"/><use xlink:href="#C" x="728.459" y="36.885"/><use xlink:href="#D" x="734.717" y="36.885"/></g><path fill="#FECB52" d="M664.5 32.625h11.25v1.5H664.5"/><g fill="#2A3F5F"><use xlink:href="#E" x="690.75" y="51.135"/><use xlink:href="#F" x="697.034" y="51.135"/><use xlink:href="#E" x="704.013" y="51.135"/><use xlink:href="#G" x="710.297" y="51.135"/><use xlink:href="#G" x="717.029" y="51.135"/></g><path fill="#FF97FF" d="M664.5 46.875h6.75v1.5h-6.75m13.5-1.5h6.75v1.5H678"/><g fill="#2A3F5F"><use xlink:href="#H" x="690.75" y="65.385"/><use xlink:href="#I" x="698.335" y="65.385"/><use xlink:href="#F" x="704.026" y="65.385"/><use xlink:href="#G" x="711.004" y="65.385"/><use xlink:href="#J" x="717.737" y="65.385"/><use xlink:href="#K" x="723.098" y="65.385"/></g><path fill="#B6E880" d="M664.5 61.125h2.25v1.5h-2.25m4.5-1.5h2.25v1.5H669m4.5-1.5h2.25v1.5h-2.25m4.5-1.5h2.25v1.5H678m4.5-1.5h2.25v1.5h-2.25"/><g fill="#2A3F5F"><use xlink:href="#L" x="690.75" y="79.635"/><use xlink:href="#M" x="696.92" y="79.635"/><use xlink:href="#N" x="704.004" y="79.635"/><use xlink:href="#O" x="712.903" y="79.635"/><use xlink:href="#C" x="719.055" y="79.635"/></g><path fill="none" stroke="#FF6692" stroke-width="1.5" d="M664.5 76.125H687"/><g fill="#2A3F5F"><use xlink:href="#E" x="690.75" y="93.885"/><use xlink:href="#F" x="697.034" y="93.885"/><use xlink:href="#E" x="704.013" y="93.885"/><use xlink:href="#G" x="710.297" y="93.885"/><use xlink:href="#G" x="717.029" y="93.885"/><use xlink:href="#P" x="723.762" y="93.885"/><use xlink:href="#Q" x="731.127" y="93.885"/></g><path fill="#19D3F3" d="M664.5 89.625h11.25v1.5H664.5m15.75-1.5h2.25v1.5h-2.25"/><g fill="#2A3F5F"><use xlink:href="#N" x="690.75" y="108.135"/><use xlink:href="#y" x="699.649" y="108.135"/><use xlink:href="#J" x="703.49" y="108.135"/><use xlink:href="#z" x="708.851" y="108.135"/><use xlink:href="#R" x="714.546" y="108.135"/><use xlink:href="#x" x="717.71" y="108.135"/><use xlink:href="#y" x="723.173" y="108.135"/><use xlink:href="#S" x="727.014" y="108.135"/><use xlink:href="#J" x="735.768" y="108.135"/><use xlink:href="#y" x="741.129" y="108.135"/></g><path fill="#FFA15A" d="M664.5 103.875h6.75v1.5h-6.75m9-1.5h2.25v1.5h-2.25m4.5-1.5h6.75v1.5H678"/><g fill="#2A3F5F"><use xlink:href="#T" x="690.75" y="122.385"/><use xlink:href="#U" x="696.902" y="122.385"/><use xlink:href="#V" x="701.912" y="122.385"/><use xlink:href="#F" x="705.7" y="122.385"/><use xlink:href="#G" x="712.679" y="122.385"/><use xlink:href="#G" x="719.411" y="122.385"/></g><path fill="#AB63FA" d="M664.5 118.125h11.25v1.5H664.5"/><g fill="#2A3F5F"><use xlink:href="#H" x="690.75" y="136.635"/><use xlink:href="#o" x="698.335" y="136.635"/><use xlink:href="#F" x="704.057" y="136.635"/><use xlink:href="#G" x="711.035" y="136.635"/><use xlink:href="#J" x="717.768" y="136.635"/><use xlink:href="#K" x="723.129" y="136.635"/></g><path fill="#00CC96" d="M664.5 132.375h6.75v1.5h-6.75m13.5-1.5h6.75v1.5H678"/><g fill="#2A3F5F"><use xlink:href="#E" x="690.75" y="150.885"/><use xlink:href="#W" x="697.034" y="150.885"/><use xlink:href="#F" x="703.797" y="150.885"/><use xlink:href="#G" x="710.776" y="150.885"/><use xlink:href="#J" x="717.508" y="150.885"/><use xlink:href="#K" x="722.87" y="150.885"/></g><path fill="#EF553B" d="M664.5 146.625h2.25v1.5h-2.25m4.5-1.5h2.25v1.5H669m4.5-1.5h2.25v1.5h-2.25m4.5-1.5h2.25v1.5H678m4.5-1.5h2.25v1.5h-2.25"/><g fill="#2A3F5F"><use xlink:href="#H" x="690.75" y="165.135"/><use xlink:href="#T" x="698.335" y="165.135"/><use xlink:href="#E" x="704.487" y="165.135"/><use xlink:href="#I" x="710.771" y="165.135"/></g><path fill="none" stroke="#636EFA" stroke-width="1.5" d="M664.5 161.625H687"/><g fill="#2A3F5F"><use xlink:href="#X" x="381.759" y="18"/><use xlink:href="#Y" x="391.872" y="18"/><use xlink:href="#Z" x="400.075" y="18"/></g><g fill="#2A3F5F"><use xlink:href="#aa" x="249.76" y="294.75"/><use xlink:href="#ab" x="256.23" y="294.75"/><use xlink:href="#ac" x="262.485" y="294.75"/><use xlink:href="#ad" x="267.955" y="294.75"/><use xlink:href="#ae" x="272.093" y="294.75"/><use xlink:href="#ac" x="275.784" y="294.75"/><use xlink:href="#ab" x="281.255" y="294.75"/><use xlink:href="#ad" x="287.51" y="294.75"/><use xlink:href="#ae" x="291.647" y="294.75"/><use xlink:href="#ac" x="295.338" y="294.75"/><use xlink:href="#ad" x="300.809" y="294.75"/><use xlink:href="#af" x="304.946" y="294.75"/><use xlink:href="#ag" x="309.427" y="294.75"/><use xlink:href="#ah" x="316.072" y="294.75"/><use xlink:href="#ad" x="321.542" y="294.75"/><use xlink:href="#ag" x="325.68" y="294.75"/><use xlink:href="#af" x="332.324" y="294.75"/><use xlink:href="#ab" x="336.805" y="294.75"/><use xlink:href="#ac" x="343.06" y="294.75"/><use xlink:href="#ae" x="348.531" y="294.75"/><use xlink:href="#af" x="352.222" y="294.75"/><use xlink:href="#ai" x="356.703" y="294.75"/><use xlink:href="#aj" x="363.009" y="294.75"/><use xlink:href="#ak" x="369.654" y="294.75"/><use xlink:href="#ab" x="375.868" y="294.75"/><use xlink:href="#al" x="382.122" y="294.75"/><use xlink:href="#ae" x="388.664" y="294.75"/><use xlink:href="#am" x="392.356" y="294.75"/><use xlink:href="#an" x="398.898" y="294.75"/><use xlink:href="#ae" x="405.112" y="294.75"/><use xlink:href="#ao" x="408.803" y="294.75"/><use xlink:href="#ap" x="419.016" y="294.75"/><use xlink:href="#al" x="425.389" y="294.75"/><use xlink:href="#ab" x="431.931" y="294.75"/><use xlink:href="#aq" x="438.186" y="294.75"/><use xlink:href="#ar" x="441.067" y="294.75"/><use xlink:href="#as" x="445.835" y="294.75"/><use xlink:href="#af" x="452.377" y="294.75"/><use xlink:href="#ab" x="456.858" y="294.75"/><use xlink:href="#al" x="463.113" y="294.75"/><use xlink:href="#at" x="469.655" y="294.75"/><use xlink:href="#ah" x="472.536" y="294.75"/><use xlink:href="#ad" x="478.007" y="294.75"/><use xlink:href="#ab" x="482.144" y="294.75"/><use xlink:href="#al" x="488.399" y="294.75"/><use xlink:href="#ae" x="494.941" y="294.75"/><use xlink:href="#ac" x="498.632" y="294.75"/><use xlink:href="#ad" x="504.103" y="294.75"/><use xlink:href="#ai" x="508.24" y="294.75"/><use xlink:href="#am" x="514.546" y="294.75"/><use xlink:href="#at" x="521.088" y="294.75"/><use xlink:href="#aq" x="523.97" y="294.75"/><use xlink:href="#at" x="526.851" y="294.75"/><use xlink:href="#ad" x="529.733" y="294.75"/><use xlink:href="#an" x="533.87" y="294.75"/></g></svg>