<svg xmlns="http://www.w3.org/2000/svg" xmlns:xlink="http://www.w3.org/1999/xlink" width="525.12" height="375.12"><defs><clipPath id="a"><path d="M41 328h484v2H41Zm0 0"/></clipPath><clipPath id="b"><path d="M41 307h484v1H41Zm0 0"/></clipPath><clipPath id="c"><path d="M41 278h484v2H41Zm0 0"/></clipPath><clipPath id="d"><path d="M41 256h484v2H41Zm0 0"/></clipPath><clipPath id="e"><path d="M41 235h484v2H41Zm0 0"/></clipPath><clipPath id="f"><path d="M41 206h484v2H41Zm0 0"/></clipPath><clipPath id="g"><path d="M41 184h484v2H41Zm0 0"/></clipPath><clipPath id="h"><path d="M41 163h484v2H41Zm0 0"/></clipPath><clipPath id="i"><path d="M41 134h484v2H41Zm0 0"/></clipPath><clipPath id="j"><path d="M41 112h484v2H41Zm0 0"/></clipPath><clipPath id="k"><path d="M41 91h484v2H41Zm0 0"/></clipPath><clipPath id="l"><path d="M41 62h484v2H41Zm0 0"/></clipPath><clipPath id="m"><path d="M41 41h484v1H41Zm0 0"/></clipPath><clipPath id="n"><path d="M82 307h2v38h-2Zm0 0"/></clipPath><clipPath id="o"><path d="M84 273h2v72h-2Zm0 0"/></clipPath><clipPath id="p"><path d="M85 222h2v123h-2Zm0 0"/></clipPath><clipPath id="q"><path d="M87 224h2v121h-2Zm0 0"/></clipPath><clipPath id="r"><path d="M88 200h3v145h-3Zm0 0"/></clipPath><clipPath id="s"><path d="M90 193h2v152h-2Zm0 0"/></clipPath><clipPath id="t"><path d="M92 204h2v141h-2Zm0 0"/></clipPath><clipPath id="u"><path d="M93 206h2v139h-2Zm0 0"/></clipPath><clipPath id="v"><path d="M95 216h2v129h-2Zm0 0"/></clipPath><clipPath id="w"><path d="M96 199h3v146h-3Zm0 0"/></clipPath><clipPath id="x"><path d="M98 197h2v148h-2Zm0 0"/></clipPath><clipPath id="y"><path d="M100 193h2v152h-2Zm0 0"/></clipPath><clipPath id="z"><path d="M101 198h3v147h-3Zm0 0"/></clipPath><clipPath id="A"><path d="M103 197h2v148h-2Zm0 0"/></clipPath><clipPath id="B"><path d="M104 187h3v158h-3Zm0 0"/></clipPath><clipPath id="C"><path d="M106 173h2v172h-2Zm0 0"/></clipPath><clipPath id="D"><path d="M108 175h2v170h-2Zm0 0"/></clipPath><clipPath id="E"><path d="M109 182h3v163h-3Zm0 0"/></clipPath><clipPath id="F"><path d="M111 185h2v160h-2Zm0 0"/></clipPath><clipPath id="G"><path d="M113 172h2v173h-2Zm0 0"/></clipPath><clipPath id="H"><path d="M114 170h2v175h-2Zm0 0"/></clipPath><clipPath id="I"><path d="M116 158h2v187h-2Zm0 0"/></clipPath><clipPath id="J"><path d="M117 158h3v187h-3Zm0 0"/></clipPath><clipPath id="K"><path d="M119 156h2v189h-2Zm0 0"/></clipPath><clipPath id="L"><path d="M121 155h2v190h-2Zm0 0"/></clipPath><clipPath id="M"><path d="M122 147h2v198h-2Zm0 0"/></clipPath><clipPath id="N"><path d="M124 139h2v206h-2Zm0 0"/></clipPath><clipPath id="O"><path d="M125 135h3v210h-3Zm0 0"/></clipPath><clipPath id="P"><path d="M127 138h2v207h-2Zm0 0"/></clipPath><clipPath id="Q"><path d="M129 137h2v208h-2Zm0 0"/></clipPath><clipPath id="R"><path d="M130 142h2v203h-2Zm0 0"/></clipPath><clipPath id="S"><path d="M132 140h2v205h-2Zm0 0"/></clipPath><clipPath id="T"><path d="M133 141h3v204h-3Zm0 0"/></clipPath><clipPath id="U"><path d="M135 136h2v209h-2Zm0 0"/></clipPath><clipPath id="V"><path d="M137 132h2v213h-2Zm0 0"/></clipPath><clipPath id="W"><path d="M138 133h3v212h-3Zm0 0"/></clipPath><clipPath id="X"><path d="M140 135h2v210h-2Zm0 0"/></clipPath><clipPath id="Y"><path d="M141 130h3v215h-3Zm0 0"/></clipPath><clipPath id="Z"><path d="M143 125h2v220h-2Zm0 0"/></clipPath><clipPath id="aa"><path d="M145 125h2v220h-2Zm0 0"/></clipPath><clipPath id="ab"><path d="M146 128h3v217h-3Zm0 0"/></clipPath><clipPath id="ac"><path d="M148 126h2v219h-2Zm0 0"/></clipPath><clipPath id="ad"><path d="M150 128h2v217h-2Zm0 0"/></clipPath><clipPath id="ae"><path d="M151 129h2v216h-2Zm0 0"/></clipPath><clipPath id="af"><path d="M153 126h2v219h-2Zm0 0"/></clipPath><clipPath id="ag"><path d="M154 124h3v221h-3Zm0 0"/></clipPath><clipPath id="ah"><path d="M156 123h2v222h-2Zm0 0"/></clipPath><clipPath id="ai"><path d="M158 123h2v222h-2Zm0 0"/></clipPath><clipPath id="aj"><path d="M159 124h2v221h-2Zm0 0"/></clipPath><clipPath id="ak"><path d="M161 126h2v219h-2Zm0 0"/></clipPath><clipPath id="al"><path d="M162 124h3v221h-3Zm0 0"/></clipPath><clipPath id="am"><path d="M164 125h2v220h-2Zm0 0"/></clipPath><clipPath id="an"><path d="M166 128h2v217h-2Zm0 0"/></clipPath><clipPath id="ao"><path d="M167 125h3v220h-3Zm0 0"/></clipPath><clipPath id="ap"><path d="M169 126h2v219h-2Zm0 0"/></clipPath><clipPath id="aq"><path d="M170 129h3v216h-3Zm0 0"/></clipPath><clipPath id="ar"><path d="M172 125h2v220h-2Zm0 0"/></clipPath><clipPath id="as"><path d="M174 124h2v221h-2Zm0 0"/></clipPath><clipPath id="at"><path d="M175 126h3v219h-3Zm0 0"/></clipPath><clipPath id="au"><path d="M177 125h2v220h-2Zm0 0"/></clipPath><clipPath id="av"><path d="M179 121h2v224h-2Zm0 0"/></clipPath><clipPath id="aw"><path d="M180 126h2v219h-2Zm0 0"/></clipPath><clipPath id="ax"><path d="M182 124h2v221h-2Zm0 0"/></clipPath><clipPath id="ay"><path d="M183 123h3v222h-3Zm0 0"/></clipPath><clipPath id="az"><path d="M185 124h2v221h-2Zm0 0"/></clipPath><clipPath id="aA"><path d="M187 119h2v226h-2Zm0 0"/></clipPath><clipPath id="aB"><path d="M188 124h2v221h-2Zm0 0"/></clipPath><clipPath id="aC"><path d="M190 129h2v216h-2Zm0 0"/></clipPath><clipPath id="aD"><path d="M191 129h3v216h-3Zm0 0"/></clipPath><clipPath id="aE"><path d="M193 126h2v219h-2Zm0 0"/></clipPath><clipPath id="aF"><path d="M195 124h2v221h-2Zm0 0"/></clipPath><clipPath id="aG"><path d="M196 125h3v220h-3Zm0 0"/></clipPath><clipPath id="aH"><path d="M198 128h2v217h-2Zm0 0"/></clipPath><clipPath id="aI"><path d="M199 126h3v219h-3Zm0 0"/></clipPath><clipPath id="aJ"><path d="M201 121h2v224h-2Zm0 0"/></clipPath><clipPath id="aK"><path d="M203 122h2v223h-2Zm0 0"/></clipPath><clipPath id="aL"><path d="M204 120h3v225h-3Zm0 0"/></clipPath><clipPath id="aM"><path d="M206 123h2v222h-2Zm0 0"/></clipPath><clipPath id="aN"><path d="M207 123h3v222h-3Zm0 0"/></clipPath><clipPath id="aO"><path d="M209 119h2v226h-2Zm0 0"/></clipPath><clipPath id="aP"><path d="M211 121h2v224h-2Zm0 0"/></clipPath><clipPath id="aQ"><path d="M212 115h3v230h-3Zm0 0"/></clipPath><clipPath id="aR"><path d="M214 113h2v232h-2Zm0 0"/></clipPath><clipPath id="aS"><path d="M216 115h2v230h-2Zm0 0"/></clipPath><clipPath id="aT"><path d="M217 115h2v230h-2Zm0 0"/></clipPath><clipPath id="aU"><path d="M219 111h2v234h-2Zm0 0"/></clipPath><clipPath id="aV"><path d="M220 112h3v233h-3Zm0 0"/></clipPath><clipPath id="aW"><path d="M222 110h2v235h-2Zm0 0"/></clipPath><clipPath id="aX"><path d="M224 106h2v239h-2Zm0 0"/></clipPath><clipPath id="aY"><path d="M225 107h2v238h-2Zm0 0"/></clipPath><clipPath id="aZ"><path d="M227 104h2v241h-2Zm0 0"/></clipPath><clipPath id="ba"><path d="M228 100h3v245h-3Zm0 0"/></clipPath><clipPath id="bb"><path d="M230 98h2v247h-2Zm0 0"/></clipPath><clipPath id="bc"><path d="M232 99h2v246h-2Zm0 0"/></clipPath><clipPath id="bd"><path d="M233 97h3v248h-3Zm0 0"/></clipPath><clipPath id="be"><path d="M235 92h2v253h-2Zm0 0"/></clipPath><clipPath id="bf"><path d="M236 91h3v254h-3Zm0 0"/></clipPath><clipPath id="bg"><path d="M238 90h2v255h-2Zm0 0"/></clipPath><clipPath id="bh"><path d="M240 85h2v260h-2Zm0 0"/></clipPath><clipPath id="bi"><path d="M241 80h3v265h-3Zm0 0"/></clipPath><clipPath id="bj"><path d="M243 75h2v270h-2Zm0 0"/></clipPath><clipPath id="bk"><path d="M245 75h2v270h-2Zm0 0"/></clipPath><clipPath id="bl"><path d="M246 71h2v274h-2Zm0 0"/></clipPath><clipPath id="bm"><path d="M248 66h2v279h-2Zm0 0"/></clipPath><clipPath id="bn"><path d="M249 65h3v280h-3Zm0 0"/></clipPath><clipPath id="bo"><path d="M251 61h2v284h-2Zm0 0"/></clipPath><clipPath id="bp"><path d="M253 60h2v285h-2Zm0 0"/></clipPath><clipPath id="bq"><path d="M254 56h2v289h-2Zm0 0"/></clipPath><clipPath id="br"><path d="M256 54h2v291h-2Zm0 0"/></clipPath><clipPath id="bs"><path d="M257 52h3v293h-3Zm0 0"/></clipPath><clipPath id="bt"><path d="M259 53h2v292h-2Zm0 0"/></clipPath><clipPath id="bu"><path d="M261 50h2v295h-2Zm0 0"/></clipPath><clipPath id="bv"><path d="M262 49h3v296h-3Zm0 0"/></clipPath><clipPath id="bw"><path d="M264 47h2v298h-2Zm0 0"/></clipPath><clipPath id="bx"><path d="M265 46h3v299h-3Zm0 0"/></clipPath><clipPath id="by"><path d="M267 46h2v299h-2Zm0 0"/></clipPath><clipPath id="bz"><path d="M269 45h2v300h-2Zm0 0"/></clipPath><clipPath id="bA"><path d="M270 47h3v298h-3Zm0 0"/></clipPath><clipPath id="bB"><path d="M272 48h2v297h-2Zm0 0"/></clipPath><clipPath id="bC"><path d="M273 52h3v293h-3Zm0 0"/></clipPath><clipPath id="bD"><path d="M275 52h2v293h-2Zm0 0"/></clipPath><clipPath id="bE"><path d="M277 55h2v290h-2Zm0 0"/></clipPath><clipPath id="bF"><path d="M278 57h3v288h-3Zm0 0"/></clipPath><clipPath id="bG"><path d="M280 59h2v286h-2Zm0 0"/></clipPath><clipPath id="bH"><path d="M282 63h2v282h-2Zm0 0"/></clipPath><clipPath id="bI"><path d="M283 64h2v281h-2Zm0 0"/></clipPath><clipPath id="bJ"><path d="M285 67h2v278h-2Zm0 0"/></clipPath><clipPath id="bK"><path d="M286 71h3v274h-3Zm0 0"/></clipPath><clipPath id="bL"><path d="M288 76h2v269h-2Zm0 0"/></clipPath><clipPath id="bM"><path d="M290 81h2v264h-2Zm0 0"/></clipPath><clipPath id="bN"><path d="M291 90h3v255h-3Zm0 0"/></clipPath><clipPath id="bO"><path d="M293 94h2v251h-2Zm0 0"/></clipPath><clipPath id="bP"><path d="M294 98h3v247h-3Zm0 0"/></clipPath><clipPath id="bQ"><path d="M296 105h2v240h-2Zm0 0"/></clipPath><clipPath id="bR"><path d="M298 112h2v233h-2Zm0 0"/></clipPath><clipPath id="bS"><path d="M299 118h3v227h-3Zm0 0"/></clipPath><clipPath id="bT"><path d="M301 125h2v220h-2Zm0 0"/></clipPath><clipPath id="bU"><path d="M302 136h3v209h-3Zm0 0"/></clipPath><clipPath id="bV"><path d="M304 138h2v207h-2Zm0 0"/></clipPath><clipPath id="bW"><path d="M306 146h2v199h-2Zm0 0"/></clipPath><clipPath id="bX"><path d="M307 149h3v196h-3Zm0 0"/></clipPath><clipPath id="bY"><path d="M309 154h2v191h-2Zm0 0"/></clipPath><clipPath id="bZ"><path d="M311 165h2v180h-2Zm0 0"/></clipPath><clipPath id="ca"><path d="M312 166h2v179h-2Zm0 0"/></clipPath><clipPath id="cb"><path d="M314 176h2v169h-2Zm0 0"/></clipPath><clipPath id="cc"><path d="M315 177h3v168h-3Zm0 0"/></clipPath><clipPath id="cd"><path d="M317 187h2v158h-2Zm0 0"/></clipPath><clipPath id="ce"><path d="M319 193h2v152h-2Zm0 0"/></clipPath><clipPath id="cf"><path d="M320 202h2v143h-2Zm0 0"/></clipPath><clipPath id="cg"><path d="M322 202h2v143h-2Zm0 0"/></clipPath><clipPath id="ch"><path d="M323 213h3v132h-3Zm0 0"/></clipPath><clipPath id="ci"><path d="M325 221h2v124h-2Zm0 0"/></clipPath><clipPath id="cj"><path d="M327 217h2v128h-2Zm0 0"/></clipPath><clipPath id="ck"><path d="M328 235h3v110h-3Zm0 0"/></clipPath><clipPath id="cl"><path d="M330 242h2v103h-2Zm0 0"/></clipPath><clipPath id="cm"><path d="M331 240h3v105h-3Zm0 0"/></clipPath><clipPath id="cn"><path d="M333 240h2v105h-2Zm0 0"/></clipPath><clipPath id="co"><path d="M335 254h2v91h-2Zm0 0"/></clipPath><clipPath id="cp"><path d="M336 257h3v88h-3Zm0 0"/></clipPath><clipPath id="cq"><path d="M338 254h2v91h-2Zm0 0"/></clipPath><clipPath id="cr"><path d="M340 257h2v88h-2Zm0 0"/></clipPath><clipPath id="cs"><path d="M341 273h2v72h-2Zm0 0"/></clipPath><clipPath id="ct"><path d="M343 278h2v67h-2Zm0 0"/></clipPath><clipPath id="cu"><path d="M344 294h3v51h-3Zm0 0"/></clipPath><clipPath id="cv"><path d="M346 307h2v38h-2Zm0 0"/></clipPath><clipPath id="cw"><path d="M348 294h2v51h-2Zm0 0"/></clipPath><clipPath id="cx"><path d="M349 307h2v38h-2Zm0 0"/></clipPath><clipPath id="cy"><path d="M351 294h2v51h-2Zm0 0"/></clipPath><clipPath id="cz"><path d="M352 329h3v16h-3Zm0 0"/></clipPath><clipPath id="cA"><path d="M356 329h2v16h-2Zm0 0"/></clipPath><clipPath id="cB"><path d="M357 329h3v16h-3Zm0 0"/></clipPath><clipPath id="cC"><path d="M359 307h2v38h-2Zm0 0"/></clipPath><clipPath id="cD"><path d="M360 307h3v38h-3Zm0 0"/></clipPath><clipPath id="cE"><path d="M362 329h2v16h-2Zm0 0"/></clipPath><clipPath id="cF"><path d="M364 329h2v16h-2Zm0 0"/></clipPath><clipPath id="cG"><path d="M365 307h3v38h-3Zm0 0"/></clipPath><clipPath id="cH"><path d="M368 329h3v16h-3Zm0 0"/></clipPath><clipPath id="cI"><path d="M370 294h2v51h-2Zm0 0"/></clipPath><clipPath id="cJ"><path d="M372 294h2v51h-2Zm0 0"/></clipPath><clipPath id="cK"><path d="M373 294h3v51h-3Zm0 0"/></clipPath><clipPath id="cL"><path d="M375 329h2v16h-2Zm0 0"/></clipPath><clipPath id="cM"><path d="M377 329h2v16h-2Zm0 0"/></clipPath><clipPath id="cN"><path d="M378 329h2v16h-2Zm0 0"/></clipPath><clipPath id="cO"><path d="M380 285h2v60h-2Zm0 0"/></clipPath><clipPath id="cP"><path d="M385 329h2v16h-2Zm0 0"/></clipPath><clipPath id="cQ"><path d="M388 329h2v16h-2Zm0 0"/></clipPath><clipPath id="cR"><path d="M391 329h2v16h-2Zm0 0"/></clipPath><clipPath id="cS"><path d="M393 329h2v16h-2Zm0 0"/></clipPath><clipPath id="cT"><path d="M455 329h3v16h-3Zm0 0"/></clipPath><clipPath id="cU"><path d="M462 329h2v16h-2Zm0 0"/></clipPath><clipPath id="cV"><path d="M484 329h3v16h-3Zm0 0"/></clipPath><clipPath id="cW"><path d="M491 329h2v16h-2Zm0 0"/></clipPath><path id="cX" d="M6.406-2.516H.97v-.703h5.437Zm0 0"/><path id="cY" d="M5.281-1.844h-.968V0h-.844v-1.844H.344v-1.015L3.5-6.547h.813v4h.968ZM3.47-2.547V-5.5L.938-2.547Zm0 0"/><path id="cZ" d="M5.14 0H.704v-.922c.313-.258.617-.52.922-.781q.467-.404.875-.797c.563-.54.945-.973 1.156-1.297q.312-.48.313-1.031-.002-.516-.344-.797c-.219-.195-.531-.297-.937-.297q-.392 0-.86.14a3.3 3.3 0 0 0-.906.438H.875v-.922a4.3 4.3 0 0 1 .828-.28q.514-.142 1.016-.141.998 0 1.562.5.576.486.578 1.312 0 .375-.093.703-.095.316-.282.61-.174.269-.406.53-.22.27-.547.579a27 27 0 0 1-.984.906c-.336.281-.64.547-.922.797h3.516Zm0 0"/><path id="da" d="M5.125-3.281q-.001 1.769-.547 2.594C4.211-.133 3.641.14 2.86.14Q1.687.142 1.141-.687.608-1.531.609-3.266q-.002-1.746.547-2.578.545-.827 1.703-.828 1.186 0 1.72.844c.362.562.546 1.414.546 2.547m-1.156 2c.101-.239.172-.516.203-.828q.06-.48.062-1.172a10 10 0 0 0-.062-1.14 2.7 2.7 0 0 0-.203-.845 1.2 1.2 0 0 0-.422-.515c-.18-.114-.406-.172-.688-.172a1.3 1.3 0 0 0-.687.172q-.27.176-.422.515a3 3 0 0 0-.203.86 13 13 0 0 0-.047 1.14q0 .69.047 1.157.046.455.203.812.14.344.406.531c.176.118.41.172.703.172.282 0 .508-.054.688-.172q.28-.17.422-.515m0 0"/><path id="db" d="M4.766 0H1.219v-.672h1.36v-4.375h-1.36v-.61q.28 0 .593-.046a1.8 1.8 0 0 0 .485-.125.8.8 0 0 0 .312-.281.85.85 0 0 0 .141-.453h.672v5.89h1.344Zm0 0"/><path id="de" d="M5.266 0H4.172L2.203-2.156l-.531.515V0H.844v-6.844h.828v4.39l2.39-2.452H5.11L2.83-2.641Zm0 0"/><path id="dc" d="M3.86 0H.53v-.687l.688-.594q.357-.295.656-.594.623-.607.86-.969a1.4 1.4 0 0 0 .234-.781q-.002-.388-.25-.594-.253-.217-.703-.218-.3.002-.657.109a2.3 2.3 0 0 0-.671.312H.656v-.687q.234-.107.625-.203c.258-.07.508-.11.75-.11q.75 0 1.172.375.437.364.438.985a1.8 1.8 0 0 1-.079.531q-.062.236-.203.453a3.5 3.5 0 0 1-.296.406c-.118.125-.258.274-.422.438q-.345.344-.72.672-.375.314-.702.593h2.64Zm0 0"/><path id="dd" d="M3.813-1.562q0 .345-.126.656-.127.314-.343.531a1.6 1.6 0 0 1-.563.36 2.2 2.2 0 0 1-.765.124q-.392 0-.766-.093a2.7 2.7 0 0 1-.64-.203v-.688h.046q.28.175.64.297.36.11.704.11.233 0 .453-.063a.87.87 0 0 0 .39-.235.8.8 0 0 0 .22-.328q.076-.2.078-.468a.9.9 0 0 0-.094-.422.6.6 0 0 0-.235-.282 1.1 1.1 0 0 0-.421-.171 2.3 2.3 0 0 0-.547-.063q-.282 0-.563.047a4 4 0 0 0-.453.078v-2.531h2.953v.578H1.47v1.297h.281q.153-.014.266-.016c.257 0 .488.024.687.063q.31.064.563.234c.164.125.297.29.39.484q.154.282.156.704m0 0"/><path id="df" d="M6.797 0H5.625v-.734a4.2 4.2 0 0 1-1.062.687 3.1 3.1 0 0 1-1.188.235q-1.236 0-1.969-.954C.914-1.398.672-2.286.672-3.422c0-.594.082-1.117.25-1.578a3.5 3.5 0 0 1 .687-1.172q.423-.482.985-.719c.375-.164.765-.25 1.172-.25.363 0 .687.04.968.11q.423.112.891.36v-3.016h1.172ZM5.625-1.719v-3.984A4 4 0 0 0 4.781-6a4 4 0 0 0-.828-.078q-.985 0-1.531.687-.549.69-.547 1.938 0 1.253.422 1.89.433.643 1.36.641c.331 0 .671-.07 1.015-.219q.515-.216.953-.578m0 0"/><path id="dg" d="M6.563 0H5.39v-.734a5 5 0 0 0-.422.297 3 3 0 0 1-.516.296 3.2 3.2 0 0 1-.672.235q-.375.094-.89.094-.938 0-1.594-.61Q.64-1.042.64-2.016q0-.794.344-1.28.341-.483.97-.767.639-.28 1.53-.375c.594-.07 1.227-.125 1.907-.156v-.187q0-.387-.141-.657a.97.97 0 0 0-.406-.406 1.7 1.7 0 0 0-.594-.187 4.3 4.3 0 0 0-.719-.063q-.468.001-1.031.125a9 9 0 0 0-1.172.36h-.062v-1.188Q1.605-6.89 2.25-7a7 7 0 0 1 1.281-.125q.732.001 1.281.125.545.127.938.406.388.3.594.75.217.457.218 1.125ZM5.39-1.719V-3.64a92 92 0 0 0-1.266.094q-.72.048-1.14.172a1.8 1.8 0 0 0-.813.453q-.315.3-.313.828-.002.598.36.906.356.299 1.094.297.621 0 1.124-.234.515-.247.954-.594m0 0"/><path id="dh" d="M4.766-.062q-.33.093-.72.14-.39.062-.702.063-1.064 0-1.625-.578-.549-.575-.547-1.829v-3.703H.39v-.984h.78v-2h1.173v2h2.422v.984H2.344v3.172q0 .55.015.86.03.298.188.562A.9.9 0 0 0 2.922-1q.232.11.734.11c.188 0 .383-.024.594-.079q.312-.094.453-.14h.063Zm0 0"/><path id="di" d="M6.125-2q0 .954-.797 1.563-.783.609-2.14.609-.785 0-1.422-.188A6 6 0 0 1 .688-.422v-1.312H.75c.363.28.77.507 1.219.672q.685.234 1.312.234.763 0 1.203-.235.437-.246.438-.796 0-.404-.234-.625-.237-.2-.907-.36c-.168-.031-.386-.07-.656-.125q-.394-.074-.734-.156-.91-.248-1.297-.719Q.719-4.31.719-5c0-.281.054-.547.172-.797a2 2 0 0 1 .547-.687q.34-.294.875-.47.545-.17 1.218-.171c.406 0 .82.055 1.25.156q.64.158 1.063.375v1.25H5.78a4.3 4.3 0 0 0-1.093-.547 3.6 3.6 0 0 0-1.25-.234c-.43 0-.793.086-1.094.25a.77.77 0 0 0-.438.719q-.002.439.266.656c.176.137.46.25.86.344q.309.08.718.156l.672.14q.81.19 1.25.641.452.457.453 1.219m0 0"/><path id="dj" d="M6.969-3.36H1.844q0 .645.187 1.126.2.47.547.78.31.3.75.454.45.14 1 .14.703 0 1.422-.28.715-.282 1.031-.563h.047v1.281Q6.247-.17 5.625 0q-.61.154-1.297.156-1.72 0-2.703-.937-.97-.936-.969-2.656-.002-1.7.922-2.704c.625-.664 1.445-1 2.469-1q1.406.001 2.156.829c.508.542.766 1.32.766 2.328Zm-1.14-.89q0-.919-.47-1.422-.455-.516-1.375-.516-.953 0-1.515.563-.55.55-.625 1.375Zm0 0"/><path id="dl" d="M6.297-.437A8 8 0 0 1 5.172 0a4 4 0 0 1-1.11.156q-.75-.001-1.39-.218a2.6 2.6 0 0 1-1.063-.672Q1.152-1.185.906-1.86q-.251-.685-.25-1.61 0-1.699.938-2.672.936-.967 2.468-.968.593 0 1.172.172.576.159 1.063.406v1.297h-.063a4.3 4.3 0 0 0-1.109-.641 3.1 3.1 0 0 0-1.11-.219c-.667 0-1.195.227-1.577.672q-.564.658-.563 1.953 0 1.268.563 1.938.56.673 1.578.672.356 0 .718-.094a2.6 2.6 0 0 0 .657-.25q.262-.124.484-.266c.145-.101.266-.187.36-.25h.062Zm0 0"/><path id="dm" d="M5.484-5.672h-.062a6 6 0 0 0-.5-.094 5 5 0 0 0-.578-.03q-.55.001-1.047.25a4.8 4.8 0 0 0-.969.609V0H1.156v-6.953h1.172v1.031q.685-.562 1.219-.797a2.7 2.7 0 0 1 1.094-.234c.195 0 .343.008.437.016q.14.015.406.062Zm0 0"/><path id="dn" d="M7.078-3.469Q7.077-1.78 6.203-.797q-.878.985-2.328.985-1.487 0-2.36-.985-.86-.984-.859-2.672-.001-1.701.86-2.687.872-.985 2.359-.985c.969 0 1.742.329 2.328.985q.874.986.875 2.687m-1.203 0c0-.906-.18-1.578-.531-2.015q-.533-.657-1.469-.657-.957 0-1.484.657-.516.656-.516 2.015 0 1.3.516 1.985.528.673 1.484.672.936 0 1.469-.672c.351-.446.531-1.11.531-1.985m0 0"/><path id="do" d="M7.266-3.562a4.7 4.7 0 0 1-.25 1.546 3.3 3.3 0 0 1-.672 1.188 3 3 0 0 1-.969.719A2.9 2.9 0 0 1 4.203.14q-.55 0-.983-.124a3.5 3.5 0 0 1-.89-.36v2.907H1.155v-9.516h1.172v.734q.468-.404 1.047-.656a2.9 2.9 0 0 1 1.234-.266q1.264.002 1.954.954.703.938.703 2.625m-1.203.03c0-.831-.149-1.456-.438-1.874-.281-.414-.719-.625-1.312-.625a2.6 2.6 0 0 0-1.016.218c-.336.149-.656.34-.969.579v3.937q.48.222.844.297c.238.055.508.078.812.078.657 0 1.164-.219 1.532-.656.363-.438.547-1.086.547-1.953m0 0"/><path id="dp" d="M9.906-6.953 8.094 0H7L5.219-5.36 3.437 0H2.36L.531-6.953H1.75l1.281 5.39 1.735-5.39h.968l1.782 5.39 1.203-5.39Zm0 0"/><path id="dq" d="M2.406-8.125H1.094v-1.203h1.312ZM2.328 0H1.172v-6.953h1.156Zm0 0"/><path id="dr" d="M6.969 0H5.797v-3.953c0-.32-.024-.625-.063-.906-.03-.282-.101-.5-.203-.657a.97.97 0 0 0-.453-.39q-.28-.124-.75-.125-.487 0-1.016.234-.514.235-.984.61V0H1.156v-9.687h1.172v3.5q.545-.452 1.125-.704a3.1 3.1 0 0 1 1.203-.25c.75 0 1.32.227 1.719.672q.593.676.594 1.953Zm0 0"/><path id="ds" d="M6.969 0H5.797v-3.953c0-.32-.024-.625-.063-.906-.03-.282-.101-.5-.203-.657a.97.97 0 0 0-.453-.39q-.28-.124-.75-.125-.487 0-1.016.234-.514.235-.984.61V0H1.156v-6.953h1.172v.766q.545-.452 1.125-.704a3.1 3.1 0 0 1 1.203-.25c.75 0 1.32.227 1.719.672q.593.676.594 1.953Zm0 0"/><path id="dt" d="M9.125-3.562h-3.39v3.39H4.702v-3.39h-3.39v-1h3.39v-3.391h1.031v3.39h3.391Zm0 0"/><path id="du" d="M5.36-9.687.89 1.89H-.187L4.267-9.687Zm0 0"/><path id="dv" d="M4.844-3.5H.954v-1.125h3.89Zm0 0"/><path id="dw" d="M7.203-2.937q0 .644-.234 1.234-.235.596-.657 1-.44.422-1.062.656a4.2 4.2 0 0 1-1.437.235c-.5 0-.985-.055-1.454-.157a5.8 5.8 0 0 1-1.187-.375v-1.312h.078q.515.313 1.188.547c.457.148.91.218 1.359.218.289 0 .57-.039.844-.125q.42-.123.75-.421a2 2 0 0 0 .406-.641q.14-.374.14-.875c0-.32-.058-.594-.171-.813a1.36 1.36 0 0 0-.453-.53 1.9 1.9 0 0 0-.782-.329A5.3 5.3 0 0 0 3.5-4.719q-.563.002-1.062.078-.502.082-.876.141v-4.766h5.579v1.079H2.766v2.468q.264-.013.547-.031c.187-.008.347-.016.484-.016q.75.001 1.312.125c.383.086.735.235 1.047.454q.497.345.766.89.28.534.281 1.36m0 0"/><path id="dx" d="M8.547-9.266 5.187 0H3.532L.156-9.266h1.328l2.907 8.157 2.906-8.157Zm0 0"/><path id="dy" d="M11.297 0h-1.172v-3.953q0-.45-.047-.86-.034-.42-.156-.671a.85.85 0 0 0-.422-.407q-.269-.14-.766-.14c-.324 0-.652.086-.984.25a5.6 5.6 0 0 0-.984.625c.007.093.02.203.03.328q.015.188.016.375V0h-1.17v-3.953q0-.468-.047-.875c-.024-.281-.078-.504-.172-.672a.9.9 0 0 0-.406-.39q-.269-.141-.766-.141-.487 0-.969.234-.485.235-.953.61V0H1.156v-6.953h1.172v.766q.545-.452 1.078-.704a2.8 2.8 0 0 1 1.172-.25c.469 0 .867.102 1.203.297q.499.3.735.828.715-.608 1.297-.859.574-.265 1.25-.266 1.136 0 1.687.688.546.69.547 1.937Zm0 0"/><path id="dz" d="M9.906-7.64 7.922 0h-1.14l-1.61-6.344L3.609 0H2.484L.47-7.64h1.047l1.609 6.359 1.578-6.36h1.031l1.594 6.422L8.922-7.64Zm0 0"/><path id="dA" d="M6.781-2.344q-.001.564-.218 1a1.9 1.9 0 0 1-.579.719 2.5 2.5 0 0 1-.937.484Q4.53 0 3.734 0H1.031v-7.64h2.25q.843.002 1.25.062.422.066.797.266.421.222.61.562.187.347.187.828 0 .55-.281.938a1.8 1.8 0 0 1-.735.593v.047q.78.16 1.22.688.451.516.452 1.312M5.078-5.78q0-.282-.094-.469a.8.8 0 0 0-.296-.312 1.5 1.5 0 0 0-.594-.172q-.328-.031-.844-.032H2.047v2.204h1.312q.47 0 .75-.047.281-.047.532-.203a.83.83 0 0 0 .328-.391c.07-.164.11-.36.11-.578m.656 3.468q0-.45-.14-.718-.142-.282-.5-.469a1.8 1.8 0 0 0-.61-.156 6 6 0 0 0-.843-.047H2.047V-.86H3.39q.656 0 1.078-.063.433-.076.703-.265.28-.2.422-.454.14-.262.14-.671m0 0"/><path id="dB" d="M7.828 0H6.812v-6.578L4.688-2.11h-.609l-2.11-4.47V0h-.937v-7.64h1.375l2.031 4.25 1.97-4.25h1.421Zm0 0"/><path id="dD" d="M5.703 0h-.969v-.64q-.486.393-.937.593a2.4 2.4 0 0 1-.985.203Q1.905.158 1.407-.39c-.336-.363-.5-.906-.5-1.625v-3.718h.969v3.265q-.002.44.031.75.047.316.188.532a.76.76 0 0 0 .344.328q.233.093.656.093.357 0 .797-.187.45-.2.843-.5v-4.281h.97Zm0 0"/><path id="dE" d="M5.734 0h-.968v-3.266q0-.387-.047-.734a1.3 1.3 0 0 0-.157-.547.72.72 0 0 0-.375-.312 1.55 1.55 0 0 0-.625-.11q-.393.002-.828.203a4.7 4.7 0 0 0-.828.485V0H.953v-5.734h.953v.64q.452-.374.938-.578.48-.218.984-.219.937 0 1.422.563.482.564.484 1.61Zm0 0"/><path id="dF" d="M5.188-.36a6 6 0 0 1-.922.36 3.7 3.7 0 0 1-2.062-.047 2.25 2.25 0 0 1-.876-.562 2.5 2.5 0 0 1-.594-.922Q.531-2.107.531-2.86q-.001-1.407.766-2.203.78-.797 2.047-.797.499 0 .969.14.466.14.875.328v1.079h-.063a3.8 3.8 0 0 0-.906-.532 2.4 2.4 0 0 0-.907-.187q-.832 0-1.312.562-.469.55-.469 1.61 0 1.047.469 1.609.469.549 1.313.547.28.001.578-.078.311-.075.547-.203.216-.106.406-.22.187-.123.281-.218h.063Zm0 0"/><path id="dG" d="M5.828-2.86Q5.826-1.464 5.11-.655q-.72.813-1.921.812-1.221 0-1.938-.812-.703-.81-.703-2.203 0-1.405.703-2.22c.477-.538 1.125-.812 1.938-.812.8 0 1.44.274 1.921.813.477.543.72 1.281.72 2.219m-1 0q-.002-1.106-.437-1.656-.424-.545-1.203-.546-.786 0-1.22.546-.437.55-.437 1.657 0 1.077.438 1.64.433.549 1.219.547.762.002 1.203-.547.435-.563.437-1.64m0 0"/><path id="dH" d="M4.516-4.672h-.047a2.6 2.6 0 0 0-.422-.078 8 8 0 0 0-.469-.016q-.456.002-.875.204-.41.188-.797.5V0H.953v-5.734h.953v.859q.575-.468 1.016-.656.434-.201.89-.203.264.002.376.015.106.018.328.047Zm0 0"/><path id="dI" d="M5.75-2.766H1.516q-.001.535.156.922.171.394.453.64.263.253.625.376c.25.086.52.125.813.125q.574 0 1.171-.235.592-.234.844-.468h.047v1.062q-.485.204-1 .344c-.336.094-.687.14-1.062.14Q2.14.143 1.342-.624q-.795-.78-.796-2.203-.001-1.405.766-2.234.761-.828 2.015-.829 1.154 0 1.781.688.64.675.641 1.922ZM4.797-3.5q0-.761-.375-1.172c-.25-.281-.633-.422-1.14-.422-.524 0-.938.157-1.25.469q-.457.457-.516 1.125Zm0 0"/><path id="dJ" d="M3.922-.047c-.18.043-.375.078-.594.11q-.316.046-.562.046-.892 0-1.344-.468C1.117-.672.969-1.176.969-1.875v-3.047H.313v-.812h.656v-1.641h.969v1.64h1.984v.813H1.937v2.61q-.001.455.016.718a1 1 0 0 0 .14.469.64.64 0 0 0 .313.297q.2.094.61.094.233 0 .484-.063.263-.077.375-.125h.047Zm0 0"/><path id="dK" d="M5.594 0h-.969v-.594a3.3 3.3 0 0 1-.86.563 2.6 2.6 0 0 1-.984.187c-.68 0-1.219-.258-1.625-.781q-.61-.795-.61-2.187 0-.734.204-1.297.216-.574.578-.985.34-.374.797-.578c.313-.144.633-.219.969-.219q.45 0 .797.094.358.096.734.297v-2.484h.969Zm-.969-1.406v-3.297a3.7 3.7 0 0 0-.703-.234Q3.622-5 3.266-5 2.45-5 2-4.437c-.305.375-.453.906-.453 1.593Q1.546-1.81 1.89-1.28q.357.515 1.125.515c.27 0 .547-.054.828-.171q.42-.188.781-.47m0 0"/><path id="dL" d="M4.031-7.047h-.047a6 6 0 0 0-.421-.094 2.5 2.5 0 0 0-.454-.046q-.626 0-.906.28c-.18.18-.265.509-.265.985v.188h1.734v.812H1.969V0H1v-4.922H.344v-.812H1v-.188c0-.676.164-1.195.5-1.562q.515-.546 1.469-.547a5 5 0 0 1 1.062.11Zm0 0"/><path id="dM" d="M9.313 0h-.97v-3.266q0-.357-.03-.703a1.6 1.6 0 0 0-.141-.547.8.8 0 0 0-.344-.343c-.148-.07-.36-.11-.64-.11q-.41.002-.813.203a5.5 5.5 0 0 0-.797.516c.008.086.016.18.016.281q.013.157.015.297V0h-.968v-3.266q-.001-.374-.032-.718a1.6 1.6 0 0 0-.14-.547.72.72 0 0 0-.344-.328c-.148-.07-.355-.11-.625-.11a1.8 1.8 0 0 0-.797.203c-.262.125-.527.29-.797.485V0H.953v-5.734h.953v.64q.45-.374.907-.578.45-.218.953-.219.59.002 1 .25a1.6 1.6 0 0 1 .609.688q.575-.497 1.063-.719a2.5 2.5 0 0 1 1.03-.219c.626 0 1.087.196 1.391.579q.453.563.454 1.593Zm0 0"/><path id="dN" d="M5.406 0h-.968v-.61c-.086.063-.2.15-.344.25a2 2 0 0 1-.422.235 2.4 2.4 0 0 1-.563.203q-.315.077-.718.078c-.524 0-.965-.164-1.328-.5Q.53-.859.53-1.656q0-.655.282-1.063.281-.403.796-.625.529-.233 1.25-.312a19 19 0 0 1 1.579-.125v-.156q-.001-.328-.125-.532A.9.9 0 0 0 4-4.812a1.4 1.4 0 0 0-.5-.157 3.6 3.6 0 0 0-.594-.047c-.261 0-.547.04-.86.11a6 6 0 0 0-.952.281h-.047v-.984q.28-.075.812-.157a6 6 0 0 1 1.047-.093q.608 0 1.047.093.452.096.781.344c.22.156.383.36.5.61q.171.376.172.921Zm-.968-1.406V-3q-.439.02-1.047.078-.598.047-.938.14-.409.13-.672.376-.251.25-.25.672 0 .504.297.75c.195.168.5.25.906.25q.5 0 .922-.203a4.6 4.6 0 0 0 .781-.47m0 0"/><path id="dO" d="M1.984-6.687H.891v-1h1.093ZM1.922 0H.953v-5.734h.969Zm0 0"/><path id="dP" d="M5.594-.656c0 .976-.227 1.691-.672 2.14q-.659.687-2.031.688A7 7 0 0 1 2 2.109a7 7 0 0 1-.844-.187V.938h.047q.234.091.75.218.516.14 1.031.14.48 0 .797-.124.328-.112.516-.313.169-.203.25-.484a2.4 2.4 0 0 0 .078-.625v-.531q-.44.345-.828.515c-.262.118-.602.172-1.016.172-.68 0-1.219-.242-1.625-.734q-.61-.733-.61-2.094 0-.732.204-1.265.216-.546.578-.922.328-.375.797-.578a2.5 2.5 0 0 1 .969-.204c.32 0 .594.04.812.11a3.6 3.6 0 0 1 .719.297l.063-.25h.906Zm-.969-.922v-3.125a3.2 3.2 0 0 0-.719-.234 3 3 0 0 0-.656-.079c-.523 0-.937.18-1.25.532-.305.355-.453.87-.453 1.547q0 .971.328 1.468c.227.324.61.485 1.14.485q.423.001.844-.157a2.6 2.6 0 0 0 .766-.437m0 0"/><path id="dQ" d="M5.906-5.734 2.563 2.109H1.53L2.594-.28.313-5.734h1.046l1.766 4.25 1.766-4.25Zm0 0"/><path id="dR" d="M4.016 2.11H2.844A8.2 8.2 0 0 1 1.422-.157c-.336-.82-.5-1.75-.5-2.781 0-1.02.164-1.942.5-2.766a8.5 8.5 0 0 1 1.422-2.281h1.172v.062a6.5 6.5 0 0 0-.797.86q-.376.485-.703 1.14-.301.628-.5 1.39a6.6 6.6 0 0 0-.188 1.595q0 .877.188 1.609.186.736.5 1.39.31.622.703 1.126.405.513.797.875Zm0 0"/><path id="dS" d="M7.047-7.64 4.266 0h-1.36L.141-7.64h1.078l2.39 6.718L6.016-7.64Zm0 0"/><path id="dT" d="M4.406-7.984.734 1.563h-.89L3.5-7.985Zm0 0"/><path id="dU" d="M3.844-2.937c0 1.03-.172 1.96-.516 2.78A8 8 0 0 1 1.922 2.11H.75v-.046a6.3 6.3 0 0 0 .797-.876A7 7 0 0 0 2.25.063c.207-.438.375-.899.5-1.391a6.5 6.5 0 0 0 .188-1.61q0-.843-.188-1.593a6.8 6.8 0 0 0-1.203-2.532q-.375-.482-.797-.859v-.062h1.172q.902 1.05 1.406 2.28.516 1.238.516 2.766m0 0"/><path id="dV" d="M0-6.844v1.25l-6.828 3.625H0v.938h-7.64v-1.563l6.234-3.312h-6.235v-.938Zm0 0"/><path id="dW" d="M0-5.703v.969h-.64q.393.486.593.937.201.44.203.985.002.908-.547 1.406c-.363.336-.906.5-1.625.5h-3.718v-.969h3.265q.44.002.75-.031.316-.047.532-.188a.76.76 0 0 0 .328-.344q.093-.233.093-.656 0-.357-.187-.797-.2-.45-.5-.843h-4.281v-.97Zm0 0"/><path id="dX" d="M0-9.312v.968h-3.266q-.357.001-.703.031-.34.035-.547.141a.8.8 0 0 0-.343.344c-.07.148-.11.36-.11.64q.002.41.203.813.206.393.516.797.13-.014.281-.016.157-.013.297-.015H0v.968h-3.266q-.374.001-.718.032-.341.035-.547.14a.72.72 0 0 0-.328.344c-.07.148-.11.355-.11.625q.002.392.203.797c.125.262.29.527.485.797H0v.953h-5.734v-.953h.64q-.374-.45-.578-.907a2.2 2.2 0 0 1-.219-.953q.002-.59.25-1a1.6 1.6 0 0 1 .688-.609q-.497-.575-.719-1.062A2.5 2.5 0 0 1-5.89-7.47c0-.625.196-1.086.579-1.39q.563-.452 1.593-.453Zm0 0"/><path id="dY" d="M-2.906-5.984q.721.002 1.297.203.564.205.953.547.41.362.61.797c.132.292.202.609.202.953Q.155-3 .031-2.625a4 4 0 0 1-.297.719L0-1.844v.89h-7.984v-.952h2.859a4.4 4.4 0 0 1-.547-.86 2.4 2.4 0 0 1-.219-1.03q.001-1.015.782-1.595.784-.592 2.203-.593m.031.984q-1.03.002-1.562.344-.53.344-.532 1.093 0 .424.188.86.175.422.468.797h3.282q.189-.423.265-.703a3.2 3.2 0 0 0 .063-.672q0-.81-.531-1.266-.528-.452-1.641-.453m0 0"/><path id="dZ" d="M-2.766-5.75v4.234q.535.001.922-.156.394-.171.64-.453.253-.263.376-.625c.086-.25.125-.52.125-.812q0-.575-.235-1.172-.234-.592-.468-.844v-.047h1.062q.204.485.344 1 .14.502.14 1.063.002 1.422-.765 2.218-.78.798-2.203.797c-.938 0-1.68-.254-2.234-.765q-.828-.762-.829-2.016 0-1.154.688-1.781.675-.64 1.922-.641Zm-.734.953q-.761 0-1.172.375c-.281.25-.422.633-.422 1.14 0 .524.157.938.469 1.25q.457.457 1.125.516Zm0 0"/><path id="ea" d="M-4.672-4.516v.047q-.06.224-.078.422a8 8 0 0 0-.016.469q.002.456.204.875.188.41.5.797H0v.953h-5.734v-.953h.859q-.468-.575-.656-1.016a2.1 2.1 0 0 1-.203-.89q.002-.264.015-.376.018-.106.047-.328Zm0 0"/><path id="ec" d="M-2.86-5.828q1.395.002 2.204.719.813.72.812 1.922 0 1.22-.812 1.937-.81.703-2.203.703-1.405 0-2.22-.703c-.538-.477-.812-1.125-.812-1.937 0-.801.274-1.442.813-1.922.543-.477 1.281-.72 2.219-.72m0 1q-1.106.002-1.656.437-.545.423-.546 1.204 0 .785.546 1.218.55.439 1.657.438 1.077 0 1.64-.438.549-.433.547-1.218.002-.763-.547-1.204-.563-.435-1.64-.437m0 0"/><path id="ed" d="M-7.047-4.031v.047a6 6 0 0 0-.094.422q-.046.252-.046.453 0 .626.28.906c.18.18.509.265.985.265h.188v-1.734h.812v1.703H0V-1h-4.922v.656h-.812V-1h-.188c-.676 0-1.195-.164-1.562-.5q-.546-.515-.547-1.469a5 5 0 0 1 .11-1.062Zm0 0"/><path id="ee" d="M-2.172-6.578q.44 0 .875.219.441.204.734.578.33.409.516.953.188.551.188 1.312c0 .555-.055 1.047-.157 1.485A8 8 0 0 1-.469-.687H-1.75v-.079c.324-.382.574-.828.75-1.328.18-.508.266-.984.266-1.422 0-.632-.118-1.125-.36-1.468q-.357-.53-.937-.532c-.344 0-.594.086-.75.25q-.247.252-.375.75c-.07.262-.13.543-.172.844q-.06.44-.172.938-.218 1.019-.734 1.515-.516.486-1.36.485-.951 0-1.562-.813-.61-.81-.61-2.047.002-.81.157-1.484c.093-.445.218-.844.375-1.188h1.187v.079q-.358.437-.594 1.14-.248.703-.25 1.453c0 .543.118.98.344 1.313q.33.485.86.484.486 0 .75-.234.27-.247.421-.875.066-.327.172-.922.096-.61.203-1.031.236-.857.688-1.282.456-.435 1.281-.437m0 0"/><path id="ef" d="M-.047-3.922c.043.18.078.375.11.594q.046.316.046.562 0 .892-.468 1.344c-.313.305-.817.453-1.516.453h-3.047v.657h-.812V-.97h-1.641v-.968h1.64v-1.985h.813v1.985h2.61q.455.001.718-.016a1 1 0 0 0 .469-.14.64.64 0 0 0 .297-.313q.094-.2.094-.61 0-.233-.063-.484a4 4 0 0 0-.125-.375v-.047Zm0 0"/><path id="eg" d="M-.36-5.187q.236.487.36.921.124.44.125.922c0 .406-.059.79-.172 1.14a2.25 2.25 0 0 1-.562.876 2.5 2.5 0 0 1-.922.594q-.576.204-1.328.203-1.407.001-2.203-.766-.797-.78-.797-2.047 0-.499.14-.969.14-.466.328-.875h1.079v.063a3.8 3.8 0 0 0-.532.906 2.4 2.4 0 0 0-.187.907q0 .832.562 1.312.55.47 1.61.469 1.047 0 1.609-.469.549-.468.547-1.312.001-.281-.078-.579a2.3 2.3 0 0 0-.203-.546 6 6 0 0 0-.22-.407 2 2 0 0 0-.218-.281v-.062Zm0 0"/><path id="eh" d="M-1.656-5.047q.798 0 1.297.656c.336.43.5 1.016.5 1.766 0 .43-.055.82-.157 1.172q-.151.533-.328.89h-1.078v-.046c.23-.313.414-.649.547-1.016a3.1 3.1 0 0 0 .203-1.078q.001-.638-.203-1a.72.72 0 0 0-.656-.36q-.328.002-.516.204-.168.188-.297.75a7 7 0 0 0-.094.53q-.058.33-.14.61-.201.751-.578 1.063-.389.314-.953.312-.357 0-.672-.14a1.6 1.6 0 0 1-.563-.438 2.3 2.3 0 0 1-.375-.734q-.14-.45-.14-1 .001-.516.125-1.031.128-.529.297-.876h1.03v.047q-.263.377-.452.907a3 3 0 0 0-.188 1.03q.002.534.203.892.206.361.594.359c.242 0 .418-.07.531-.219.125-.144.227-.375.297-.687q.066-.282.125-.61c.043-.219.078-.398.11-.547q.156-.668.53-1.03c.25-.25.587-.376 1-.376m0 0"/></defs><path fill="#FFF" d="M0 0h525v375H0Zm0 0"/><path fill="#FFF" d="M42 30h483v315H42Zm0 0"/><g clip-path="url(#a)"><path fill="none" stroke="#EBF0F8" stroke-width=".75" d="M42 329.25h483"/></g><g clip-path="url(#b)"><path fill="none" stroke="#EBF0F8" stroke-width=".75" d="M42 307.59h483"/></g><g clip-path="url(#c)"><path fill="none" stroke="#EBF0F8" stroke-width=".75" d="M42 278.953h483"/></g><g clip-path="url(#d)"><path fill="none" stroke="#EBF0F8" stroke-width=".75" d="M42 257.29h483"/></g><g clip-path="url(#e)"><path fill="none" stroke="#EBF0F8" stroke-width=".75" d="M42 235.629h483"/></g><g clip-path="url(#f)"><path fill="none" stroke="#EBF0F8" stroke-width=".75" d="M42 206.992h483"/></g><g clip-path="url(#g)"><path fill="none" stroke="#EBF0F8" stroke-width=".75" d="M42 185.332h483"/></g><g clip-path="url(#h)"><path fill="none" stroke="#EBF0F8" stroke-width=".75" d="M42 163.672h483"/></g><g clip-path="url(#i)"><path fill="none" stroke="#EBF0F8" stroke-width=".75" d="M42 135.031h483"/></g><g clip-path="url(#j)"><path fill="none" stroke="#EBF0F8" stroke-width=".75" d="M42 113.371h483"/></g><g clip-path="url(#k)"><path fill="none" stroke="#EBF0F8" stroke-width=".75" d="M42 91.71h483"/></g><g clip-path="url(#l)"><path fill="none" stroke="#EBF0F8" stroke-width=".75" d="M42 63.074h483"/></g><g clip-path="url(#m)"><path fill="none" stroke="#EBF0F8" stroke-width=".75" d="M42 41.414h483"/></g><g clip-path="url(#n)"><path fill="#636EFA" d="M82.41 307.59h1.29V3337.5h-1.29Zm0 0"/></g><g clip-path="url(#o)"><path fill="#636EFA" d="M84.023 273.254h1.29V3337.5h-1.29Zm0 0"/></g><g clip-path="url(#p)"><path fill="#636EFA" d="M85.629 222.96h1.289V3337.5h-1.29Zm0 0"/></g><g clip-path="url(#q)"><path fill="#636EFA" d="M87.238 224.016h1.293V3337.5h-1.293Zm0 0"/></g><g clip-path="url(#r)"><path fill="#636EFA" d="M88.852 200.273h1.289V3337.5h-1.29Zm0 0"/></g><g clip-path="url(#s)"><path fill="#636EFA" d="M90.457 193.5h1.29v3144h-1.29Zm0 0"/></g><g clip-path="url(#t)"><path fill="#636EFA" d="M92.07 204.016h1.29V3337.5h-1.29Zm0 0"/></g><g clip-path="url(#u)"><path fill="#636EFA" d="M93.684 206.379h1.289V3337.5h-1.29Zm0 0"/></g><g clip-path="url(#v)"><path fill="#636EFA" d="M95.29 216.406h1.288V3337.5H95.29Zm0 0"/></g><g clip-path="url(#w)"><path fill="#636EFA" d="M96.898 199.77h1.293V3337.5h-1.293Zm0 0"/></g><g clip-path="url(#x)"><path fill="#636EFA" d="M98.512 197.852H99.8V3337.5h-1.29Zm0 0"/></g><g clip-path="url(#y)"><path fill="#636EFA" d="M100.117 193.906h1.29V3337.5h-1.29Zm0 0"/></g><g clip-path="url(#z)"><path fill="#636EFA" d="M101.73 198.797h1.29V3337.5h-1.29Zm0 0"/></g><g clip-path="url(#A)"><path fill="#636EFA" d="M103.344 197.387h1.289V3337.5h-1.29Zm0 0"/></g><g clip-path="url(#B)"><path fill="#636EFA" d="M104.95 187.266h1.288V3337.5h-1.289Zm0 0"/></g><g clip-path="url(#C)"><path fill="#636EFA" d="M106.559 173.078h1.293V3337.5h-1.293Zm0 0"/></g><g clip-path="url(#D)"><path fill="#636EFA" d="M108.172 175.492h1.289V3337.5h-1.29Zm0 0"/></g><g clip-path="url(#E)"><path fill="#636EFA" d="M109.777 182.64h1.29V3337.5h-1.29Zm0 0"/></g><g clip-path="url(#F)"><path fill="#636EFA" d="M111.39 185.332h1.29V3337.5h-1.29Zm0 0"/></g><g clip-path="url(#G)"><path fill="#636EFA" d="M113.004 172.453h1.289V3337.5h-1.29Zm0 0"/></g><g clip-path="url(#H)"><path fill="#636EFA" d="M114.61 170.445h1.288V3337.5h-1.289Zm0 0"/></g><g clip-path="url(#I)"><path fill="#636EFA" d="M116.219 158.633h1.293V3337.5h-1.293Zm0 0"/></g><g clip-path="url(#J)"><path fill="#636EFA" d="M117.832 158.234h1.29V3337.5h-1.29Zm0 0"/></g><g clip-path="url(#K)"><path fill="#636EFA" d="M119.438 156.7h1.289v3180.8h-1.29Zm0 0"/></g><g clip-path="url(#L)"><path fill="#636EFA" d="M121.05 155.469h1.29V3337.5h-1.29Zm0 0"/></g><g clip-path="url(#M)"><path fill="#636EFA" d="M122.664 147.832h1.29V3337.5h-1.29Zm0 0"/></g><g clip-path="url(#N)"><path fill="#636EFA" d="M124.266 139.246h1.293V3337.5h-1.293Zm0 0"/></g><g clip-path="url(#O)"><path fill="#636EFA" d="M125.879 135.922h1.293V3337.5h-1.293Zm0 0"/></g><g clip-path="url(#P)"><path fill="#636EFA" d="M127.492 138.188h1.29V3337.5h-1.29Zm0 0"/></g><g clip-path="url(#Q)"><path fill="#636EFA" d="M129.098 137.773h1.289V3337.5h-1.29Zm0 0"/></g><g clip-path="url(#R)"><path fill="#636EFA" d="M130.71 142.559H132V3337.5h-1.29Zm0 0"/></g><g clip-path="url(#S)"><path fill="#636EFA" d="M132.324 140.04h1.29V3337.5h-1.29Zm0 0"/></g><g clip-path="url(#T)"><path fill="#636EFA" d="M133.926 141.156h1.293V3337.5h-1.293Zm0 0"/></g><g clip-path="url(#U)"><path fill="#636EFA" d="M135.54 136.508h1.288V3337.5h-1.289Zm0 0"/></g><g clip-path="url(#V)"><path fill="#636EFA" d="M137.152 132.512h1.29V3337.5h-1.29Zm0 0"/></g><g clip-path="url(#W)"><path fill="#636EFA" d="M138.758 133.328h1.289V3337.5h-1.29Zm0 0"/></g><g clip-path="url(#X)"><path fill="#636EFA" d="M140.371 135.922h1.29V3337.5h-1.29Zm0 0"/></g><g clip-path="url(#Y)"><path fill="#636EFA" d="M141.984 130.29h1.29V3337.5h-1.29Zm0 0"/></g><g clip-path="url(#Z)"><path fill="#636EFA" d="M143.586 125.566h1.293V3337.5h-1.293Zm0 0"/></g><g clip-path="url(#aa)"><path fill="#636EFA" d="M145.2 125.152h1.288V3337.5H145.2Zm0 0"/></g><g clip-path="url(#ab)"><path fill="#636EFA" d="M146.813 128.46h1.289V3337.5h-1.29Zm0 0"/></g><g clip-path="url(#ac)"><path fill="#636EFA" d="M148.418 126.309h1.289V3337.5h-1.289Zm0 0"/></g><g clip-path="url(#ad)"><path fill="#636EFA" d="M150.031 128.363h1.29V3337.5h-1.29Zm0 0"/></g><g clip-path="url(#ae)"><path fill="#636EFA" d="M151.64 129.129h1.294V3337.5h-1.293Zm0 0"/></g><g clip-path="url(#af)"><path fill="#636EFA" d="M153.246 126.645h1.293V3337.5h-1.293Zm0 0"/></g><g clip-path="url(#ag)"><path fill="#636EFA" d="M154.86 124.785h1.288V3337.5h-1.289Zm0 0"/></g><g clip-path="url(#ah)"><path fill="#636EFA" d="M156.473 123.766h1.289V3337.5h-1.29Zm0 0"/></g><g clip-path="url(#ai)"><path fill="#636EFA" d="M158.078 123.375h1.29V3337.5h-1.29Zm0 0"/></g><g clip-path="url(#aj)"><path fill="#636EFA" d="M159.691 124.922h1.29V3337.5h-1.29Zm0 0"/></g><g clip-path="url(#ak)"><path fill="#636EFA" d="M161.3 126.984h1.294V3337.5H161.3Zm0 0"/></g><g clip-path="url(#al)"><path fill="#636EFA" d="M162.906 124.469h1.293V3337.5h-1.293Zm0 0"/></g><g clip-path="url(#am)"><path fill="#636EFA" d="M164.52 125.887h1.289V3337.5h-1.29Zm0 0"/></g><g clip-path="url(#an)"><path fill="#636EFA" d="M166.133 128.715h1.289V3337.5h-1.29Zm0 0"/></g><g clip-path="url(#ao)"><path fill="#636EFA" d="M167.738 125.29h1.29V3337.5h-1.29Zm0 0"/></g><g clip-path="url(#ap)"><path fill="#636EFA" d="M169.352 126.45h1.289V3337.5h-1.29Zm0 0"/></g><g clip-path="url(#aq)"><path fill="#636EFA" d="M170.96 129.023h1.294V3337.5h-1.293Zm0 0"/></g><g clip-path="url(#ar)"><path fill="#636EFA" d="M172.566 125.29h1.293V3337.5h-1.293Zm0 0"/></g><g clip-path="url(#as)"><path fill="#636EFA" d="M174.18 124.117h1.289V3337.5h-1.29Zm0 0"/></g><g clip-path="url(#at)"><path fill="#636EFA" d="M175.793 126.734h1.289V3337.5h-1.289Zm0 0"/></g><g clip-path="url(#au)"><path fill="#636EFA" d="M177.398 125.332h1.29V3337.5h-1.29Zm0 0"/></g><g clip-path="url(#av)"><path fill="#636EFA" d="M179.012 121.95h1.289V3337.5h-1.29Zm0 0"/></g><g clip-path="url(#aw)"><path fill="#636EFA" d="M180.621 126.504h1.293V3337.5h-1.293Zm0 0"/></g><g clip-path="url(#ax)"><path fill="#636EFA" d="M182.227 124.516h1.289V3337.5h-1.29Zm0 0"/></g><g clip-path="url(#ay)"><path fill="#636EFA" d="M183.84 123.246h1.289V3337.5h-1.29Zm0 0"/></g><g clip-path="url(#az)"><path fill="#636EFA" d="M185.453 124.922h1.29V3337.5h-1.29Zm0 0"/></g><g clip-path="url(#aA)"><path fill="#636EFA" d="M187.059 119.953h1.289V3337.5h-1.29Zm0 0"/></g><g clip-path="url(#aB)"><path fill="#636EFA" d="M188.672 124.074h1.289V3337.5h-1.29Zm0 0"/></g><g clip-path="url(#aC)"><path fill="#636EFA" d="M190.281 129.441h1.293V3337.5h-1.293Zm0 0"/></g><g clip-path="url(#aD)"><path fill="#636EFA" d="M191.887 129.336h1.289V3337.5h-1.29Zm0 0"/></g><g clip-path="url(#aE)"><path fill="#636EFA" d="M193.5 126.832h1.29V3337.5h-1.29Zm0 0"/></g><g clip-path="url(#aF)"><path fill="#636EFA" d="M195.113 124.207h1.29V3337.5h-1.29Zm0 0"/></g><g clip-path="url(#aG)"><path fill="#636EFA" d="M196.719 125.61h1.289V3337.5h-1.29Zm0 0"/></g><g clip-path="url(#aH)"><path fill="#636EFA" d="M198.328 128.363h1.293V3337.5h-1.293Zm0 0"/></g><g clip-path="url(#aI)"><path fill="#636EFA" d="M199.941 126.984h1.293V3337.5h-1.293Zm0 0"/></g><g clip-path="url(#aJ)"><path fill="#636EFA" d="M201.547 121.176h1.289V3337.5h-1.29Zm0 0"/></g><g clip-path="url(#aK)"><path fill="#636EFA" d="M203.16 122.91h1.29V3337.5h-1.29Zm0 0"/></g><g clip-path="url(#aL)"><path fill="#636EFA" d="M204.773 120.04h1.29V3337.5h-1.29Zm0 0"/></g><g clip-path="url(#aM)"><path fill="#636EFA" d="M206.379 123.21h1.289V3337.5h-1.29Zm0 0"/></g><g clip-path="url(#aN)"><path fill="#636EFA" d="M207.988 123.637h1.293V3337.5h-1.293Zm0 0"/></g><g clip-path="url(#aO)"><path fill="#636EFA" d="M209.602 119.496h1.289V3337.5h-1.29Zm0 0"/></g><g clip-path="url(#aP)"><path fill="#636EFA" d="M211.207 121.336h1.29V3337.5h-1.29Zm0 0"/></g><g clip-path="url(#aQ)"><path fill="#636EFA" d="M212.82 115.574h1.29V3337.5h-1.29Zm0 0"/></g><g clip-path="url(#aR)"><path fill="#636EFA" d="M214.434 113.684h1.289V3337.5h-1.29Zm0 0"/></g><g clip-path="url(#aS)"><path fill="#636EFA" d="M216.04 115.605h1.288V3337.5h-1.289Zm0 0"/></g><g clip-path="url(#aT)"><path fill="#636EFA" d="M217.648 115.004h1.293V3337.5h-1.293Zm0 0"/></g><g clip-path="url(#aU)"><path fill="#636EFA" d="M219.262 111.203h1.289V3337.5h-1.29Zm0 0"/></g><g clip-path="url(#aV)"><path fill="#636EFA" d="M220.867 112.844h1.29V3337.5h-1.29Zm0 0"/></g><g clip-path="url(#aW)"><path fill="#636EFA" d="M222.48 110.2h1.29v3227.3h-1.29Zm0 0"/></g><g clip-path="url(#aX)"><path fill="#636EFA" d="M224.094 106.875h1.289V3337.5h-1.29Zm0 0"/></g><g clip-path="url(#aY)"><path fill="#636EFA" d="M225.7 107.031h1.288V3337.5H225.7Zm0 0"/></g><g clip-path="url(#aZ)"><path fill="#636EFA" d="M227.309 104.363h1.293V3337.5h-1.293Zm0 0"/></g><g clip-path="url(#ba)"><path fill="#636EFA" d="M228.922 100.29h1.289V3337.5h-1.29Zm0 0"/></g><g clip-path="url(#bb)"><path fill="#636EFA" d="M230.527 98.664h1.29V3337.5h-1.29Zm0 0"/></g><g clip-path="url(#bc)"><path fill="#636EFA" d="M232.14 99.594h1.29V3337.5h-1.29Zm0 0"/></g><g clip-path="url(#bd)"><path fill="#636EFA" d="M233.754 97.629h1.289V3337.5h-1.29Zm0 0"/></g><g clip-path="url(#be)"><path fill="#636EFA" d="M235.36 92.762h1.288V3337.5h-1.289Zm0 0"/></g><g clip-path="url(#bf)"><path fill="#636EFA" d="M236.969 91.836h1.293V3337.5h-1.293Zm0 0"/></g><g clip-path="url(#bg)"><path fill="#636EFA" d="M238.582 90.906h1.29V3337.5h-1.29Zm0 0"/></g><g clip-path="url(#bh)"><path fill="#636EFA" d="M240.188 85.305h1.289V3337.5h-1.29Zm0 0"/></g><g clip-path="url(#bi)"><path fill="#636EFA" d="M241.8 80.11h1.29V3337.5h-1.29Zm0 0"/></g><g clip-path="url(#bj)"><path fill="#636EFA" d="M243.414 75.406h1.29V3337.5h-1.29Zm0 0"/></g><g clip-path="url(#bk)"><path fill="#636EFA" d="M245.016 75.367h1.293V3337.5h-1.293Zm0 0"/></g><g clip-path="url(#bl)"><path fill="#636EFA" d="M246.629 71.316h1.293V3337.5h-1.293Zm0 0"/></g><g clip-path="url(#bm)"><path fill="#636EFA" d="M248.242 66.977h1.29V3337.5h-1.29Zm0 0"/></g><g clip-path="url(#bn)"><path fill="#636EFA" d="M249.848 65.504h1.289V3337.5h-1.29Zm0 0"/></g><g clip-path="url(#bo)"><path fill="#636EFA" d="M251.46 61.64h1.29V3337.5h-1.29Zm0 0"/></g><g clip-path="url(#bp)"><path fill="#636EFA" d="M253.074 60.422h1.29V3337.5h-1.29Zm0 0"/></g><g clip-path="url(#bq)"><path fill="#636EFA" d="M254.676 56.46h1.293V3337.5h-1.293Zm0 0"/></g><g clip-path="url(#br)"><path fill="#636EFA" d="M256.29 54.254h1.288V3337.5h-1.289Zm0 0"/></g><g clip-path="url(#bs)"><path fill="#636EFA" d="M257.902 52.777h1.29V3337.5h-1.29Zm0 0"/></g><g clip-path="url(#bt)"><path fill="#636EFA" d="M259.508 53.121h1.289V3337.5h-1.29Zm0 0"/></g><g clip-path="url(#bu)"><path fill="#636EFA" d="M261.121 50.477h1.29V3337.5h-1.29Zm0 0"/></g><g clip-path="url(#bv)"><path fill="#636EFA" d="M262.734 49.988h1.29V3337.5h-1.29Zm0 0"/></g><g clip-path="url(#bw)"><path fill="#636EFA" d="M264.336 47.656h1.293V3337.5h-1.293Zm0 0"/></g><g clip-path="url(#bx)"><path fill="#636EFA" d="M265.95 46.688h1.288V3337.5h-1.289Zm0 0"/></g><g clip-path="url(#by)"><path fill="#636EFA" d="M267.563 46.828h1.289V3337.5h-1.29Zm0 0"/></g><g clip-path="url(#bz)"><path fill="#636EFA" d="M269.168 45.75h1.289V3337.5h-1.289Zm0 0"/></g><g clip-path="url(#bA)"><path fill="#636EFA" d="M270.781 47.004h1.29V3337.5h-1.29Zm0 0"/></g><g clip-path="url(#bB)"><path fill="#636EFA" d="M272.39 48.39h1.294V3337.5h-1.293Zm0 0"/></g><g clip-path="url(#bC)"><path fill="#636EFA" d="M273.996 52.363h1.293V3337.5h-1.293Zm0 0"/></g><g clip-path="url(#bD)"><path fill="#636EFA" d="M275.61 52.508h1.288V3337.5h-1.289Zm0 0"/></g><g clip-path="url(#bE)"><path fill="#636EFA" d="M277.223 55.672h1.289V3337.5h-1.29Zm0 0"/></g><g clip-path="url(#bF)"><path fill="#636EFA" d="M278.828 57.871h1.29V3337.5h-1.29Zm0 0"/></g><g clip-path="url(#bG)"><path fill="#636EFA" d="M280.441 59.926h1.29V3337.5h-1.29Zm0 0"/></g><g clip-path="url(#bH)"><path fill="#636EFA" d="M282.05 63.238h1.294V3337.5h-1.293Zm0 0"/></g><g clip-path="url(#bI)"><path fill="#636EFA" d="M283.656 64.148h1.293V3337.5h-1.293Zm0 0"/></g><g clip-path="url(#bJ)"><path fill="#636EFA" d="M285.27 67.371h1.289V3337.5h-1.29Zm0 0"/></g><g clip-path="url(#bK)"><path fill="#636EFA" d="M286.883 71.29h1.289V3337.5h-1.29Zm0 0"/></g><g clip-path="url(#bL)"><path fill="#636EFA" d="M288.488 76.598h1.29V3337.5h-1.29Zm0 0"/></g><g clip-path="url(#bM)"><path fill="#636EFA" d="M290.102 81.887h1.289V3337.5h-1.29Zm0 0"/></g><g clip-path="url(#bN)"><path fill="#636EFA" d="M291.71 90.05h1.294V3337.5h-1.293Zm0 0"/></g><g clip-path="url(#bO)"><path fill="#636EFA" d="M293.316 94.418h1.293V3337.5h-1.293Zm0 0"/></g><g clip-path="url(#bP)"><path fill="#636EFA" d="M294.93 98.902h1.289V3337.5h-1.29Zm0 0"/></g><g clip-path="url(#bQ)"><path fill="#636EFA" d="M296.543 105.098h1.289V3337.5h-1.289Zm0 0"/></g><g clip-path="url(#bR)"><path fill="#636EFA" d="M298.148 112.656h1.29V3337.5h-1.29Zm0 0"/></g><g clip-path="url(#bS)"><path fill="#636EFA" d="M299.762 118.379h1.289V3337.5h-1.29Zm0 0"/></g><g clip-path="url(#bT)"><path fill="#636EFA" d="M301.371 125.934h1.293V3337.5h-1.293Zm0 0"/></g><g clip-path="url(#bU)"><path fill="#636EFA" d="M302.977 136.566h1.289V3337.5h-1.29Zm0 0"/></g><g clip-path="url(#bV)"><path fill="#636EFA" d="M304.59 138.465h1.289V3337.5h-1.29Zm0 0"/></g><g clip-path="url(#bW)"><path fill="#636EFA" d="M306.203 146.992h1.29V3337.5h-1.29Zm0 0"/></g><g clip-path="url(#bX)"><path fill="#636EFA" d="M307.809 149.969h1.289V3337.5h-1.29Zm0 0"/></g><g clip-path="url(#bY)"><path fill="#636EFA" d="M309.422 154.875h1.289V3337.5h-1.29Zm0 0"/></g><g clip-path="url(#bZ)"><path fill="#636EFA" d="M311.031 165.602h1.293V3337.5h-1.293Zm0 0"/></g><g clip-path="url(#ca)"><path fill="#636EFA" d="M312.637 166.965h1.289V3337.5h-1.29Zm0 0"/></g><g clip-path="url(#cb)"><path fill="#636EFA" d="M314.25 176.422h1.29V3337.5h-1.29Zm0 0"/></g><g clip-path="url(#cc)"><path fill="#636EFA" d="M315.863 177.863h1.29V3337.5h-1.29Zm0 0"/></g><g clip-path="url(#cd)"><path fill="#636EFA" d="M317.469 187.266h1.289V3337.5h-1.29Zm0 0"/></g><g clip-path="url(#ce)"><path fill="#636EFA" d="M319.078 193.906h1.293V3337.5h-1.293Zm0 0"/></g><g clip-path="url(#cf)"><path fill="#636EFA" d="M320.691 202.898h1.293V3337.5h-1.293Zm0 0"/></g><g clip-path="url(#cg)"><path fill="#636EFA" d="M322.297 202.898h1.289V3337.5h-1.29Zm0 0"/></g><g clip-path="url(#ch)"><path fill="#636EFA" d="M323.91 213.969h1.29V3337.5h-1.29Zm0 0"/></g><g clip-path="url(#ci)"><path fill="#636EFA" d="M325.523 221.934h1.29V3337.5h-1.29Zm0 0"/></g><g clip-path="url(#cj)"><path fill="#636EFA" d="M327.129 217.262h1.289V3337.5h-1.29Zm0 0"/></g><g clip-path="url(#ck)"><path fill="#636EFA" d="M328.738 235.629h1.293V3337.5h-1.293Zm0 0"/></g><g clip-path="url(#cl)"><path fill="#636EFA" d="M330.352 242.602h1.289V3337.5h-1.29Zm0 0"/></g><g clip-path="url(#cm)"><path fill="#636EFA" d="M331.957 240.703h1.29V3337.5h-1.29Zm0 0"/></g><g clip-path="url(#cn)"><path fill="#636EFA" d="M333.57 240.703h1.29V3337.5h-1.29Zm0 0"/></g><g clip-path="url(#co)"><path fill="#636EFA" d="M335.184 254.309h1.289V3337.5h-1.29Zm0 0"/></g><g clip-path="url(#cp)"><path fill="#636EFA" d="M336.79 257.29h1.288V3337.5h-1.289Zm0 0"/></g><g clip-path="url(#cq)"><path fill="#636EFA" d="M338.398 254.309h1.293V3337.5h-1.293Zm0 0"/></g><g clip-path="url(#cr)"><path fill="#636EFA" d="M340.012 257.29h1.289V3337.5h-1.29Zm0 0"/></g><g clip-path="url(#cs)"><path fill="#636EFA" d="M341.617 273.254h1.29V3337.5h-1.29Zm0 0"/></g><g clip-path="url(#ct)"><path fill="#636EFA" d="M343.23 278.953h1.29V3337.5h-1.29Zm0 0"/></g><g clip-path="url(#cu)"><path fill="#636EFA" d="M344.844 294.914h1.289V3337.5h-1.29Zm0 0"/></g><g clip-path="url(#cv)"><path fill="#636EFA" d="M346.45 307.59h1.288V3337.5h-1.289Zm0 0"/></g><g clip-path="url(#cw)"><path fill="#636EFA" d="M348.059 294.914h1.293V3337.5h-1.293Zm0 0"/></g><g clip-path="url(#cx)"><path fill="#636EFA" d="M349.672 307.59h1.289V3337.5h-1.29Zm0 0"/></g><g clip-path="url(#cy)"><path fill="#636EFA" d="M351.277 294.914h1.29V3337.5h-1.29Zm0 0"/></g><g clip-path="url(#cz)"><path fill="#636EFA" d="M352.89 329.25h1.29V3337.5h-1.29Zm0 0"/></g><g clip-path="url(#cA)"><path fill="#636EFA" d="M356.11 329.25h1.288V3337.5h-1.289Zm0 0"/></g><g clip-path="url(#cB)"><path fill="#636EFA" d="M357.719 329.25h1.293V3337.5h-1.293Zm0 0"/></g><g clip-path="url(#cC)"><path fill="#636EFA" d="M359.332 307.59h1.29V3337.5h-1.29Zm0 0"/></g><g clip-path="url(#cD)"><path fill="#636EFA" d="M360.938 307.59h1.289V3337.5h-1.29Zm0 0"/></g><g clip-path="url(#cE)"><path fill="#636EFA" d="M362.55 329.25h1.29V3337.5h-1.29Zm0 0"/></g><g clip-path="url(#cF)"><path fill="#636EFA" d="M364.164 329.25h1.29V3337.5h-1.29Zm0 0"/></g><g clip-path="url(#cG)"><path fill="#636EFA" d="M365.766 307.59h1.293V3337.5h-1.293Zm0 0"/></g><g clip-path="url(#cH)"><path fill="#636EFA" d="M368.992 329.25h1.29V3337.5h-1.29Zm0 0"/></g><g clip-path="url(#cI)"><path fill="#636EFA" d="M370.598 294.914h1.289V3337.5h-1.29Zm0 0"/></g><g clip-path="url(#cJ)"><path fill="#636EFA" d="M372.21 294.914h1.29V3337.5h-1.29Zm0 0"/></g><g clip-path="url(#cK)"><path fill="#636EFA" d="M373.824 294.914h1.29V3337.5h-1.29Zm0 0"/></g><g clip-path="url(#cL)"><path fill="#636EFA" d="M375.426 329.25h1.293V3337.5h-1.293Zm0 0"/></g><g clip-path="url(#cM)"><path fill="#636EFA" d="M377.04 329.25h1.288V3337.5h-1.289Zm0 0"/></g><g clip-path="url(#cN)"><path fill="#636EFA" d="M378.652 329.25h1.29V3337.5h-1.29Zm0 0"/></g><g clip-path="url(#cO)"><path fill="#636EFA" d="M380.258 285.922h1.289V3337.5h-1.29Zm0 0"/></g><g clip-path="url(#cP)"><path fill="#636EFA" d="M385.086 329.25h1.293V3337.5h-1.293Zm0 0"/></g><g clip-path="url(#cQ)"><path fill="#636EFA" d="M388.313 329.25h1.289V3337.5h-1.29Zm0 0"/></g><g clip-path="url(#cR)"><path fill="#636EFA" d="M391.531 329.25h1.29V3337.5h-1.29Zm0 0"/></g><g clip-path="url(#cS)"><path fill="#636EFA" d="M393.14 329.25h1.294V3337.5h-1.293Zm0 0"/></g><g clip-path="url(#cT)"><path fill="#636EFA" d="M455.934 329.25h1.289V3337.5h-1.29Zm0 0"/></g><g clip-path="url(#cU)"><path fill="#636EFA" d="M462.367 329.25h1.29V3337.5h-1.29Zm0 0"/></g><g clip-path="url(#cV)"><path fill="#636EFA" d="M484.914 329.25h1.29V3337.5h-1.29Zm0 0"/></g><g clip-path="url(#cW)"><path fill="#636EFA" d="M491.348 329.25h1.289V3337.5h-1.29Zm0 0"/></g><g fill="#2A3F5F"><use xlink:href="#cX" x="102.124" y="354.75"/><use xlink:href="#cY" x="109.489" y="354.75"/></g><g fill="#2A3F5F"><use xlink:href="#cX" x="189.942" y="354.75"/><use xlink:href="#cZ" x="197.307" y="354.75"/></g><use xlink:href="#da" x="281.442" y="354.75" fill="#2A3F5F"/><use xlink:href="#cZ" x="369.259" y="354.75" fill="#2A3F5F"/><use xlink:href="#cY" x="457.084" y="354.75" fill="#2A3F5F"/><use xlink:href="#db" x="35.528" y="332.4" fill="#2A3F5F"/><use xlink:href="#dc" x="36.959" y="309.952" fill="#2A3F5F"/><use xlink:href="#dd" x="36.959" y="281.317" fill="#2A3F5F"/><g fill="#2A3F5F"><use xlink:href="#db" x="29.807" y="260.437"/><use xlink:href="#da" x="35.528" y="260.437"/></g><use xlink:href="#dc" x="36.959" y="237.99" fill="#2A3F5F"/><use xlink:href="#dd" x="36.959" y="209.355" fill="#2A3F5F"/><g fill="#2A3F5F"><use xlink:href="#db" x="24.085" y="188.482"/><use xlink:href="#da" x="29.807" y="188.482"/><use xlink:href="#da" x="35.528" y="188.482"/></g><use xlink:href="#dc" x="36.959" y="166.035" fill="#2A3F5F"/><use xlink:href="#dd" x="36.959" y="137.392" fill="#2A3F5F"/><g fill="#2A3F5F"><use xlink:href="#db" x="18.363" y="116.52"/><use xlink:href="#da" x="24.085" y="116.52"/><use xlink:href="#da" x="29.807" y="116.52"/><use xlink:href="#da" x="35.528" y="116.52"/></g><use xlink:href="#dc" x="36.959" y="94.072" fill="#2A3F5F"/><use xlink:href="#dd" x="36.959" y="65.437" fill="#2A3F5F"/><g fill="#2A3F5F"><use xlink:href="#db" x="24.48" y="44.565"/><use xlink:href="#da" x="30.202" y="44.565"/><use xlink:href="#de" x="35.924" y="44.565"/></g><path fill="#2A3F5F" d="M503.102 345v-6.75h1.5V345m-1.5-13.5v-6.75h1.5v6.75m-1.5-13.5v-6.75h1.5V318m-1.5-13.5v-6.75h1.5v6.75m-1.5-13.5v-6.75h1.5V291m-1.5-13.5v-6.75h1.5v6.75m-1.5-13.5v-6.75h1.5V264m-1.5-13.5v-6.75h1.5v6.75m-1.5-13.5v-6.75h1.5V237m-1.5-13.5v-6.75h1.5v6.75m-1.5-13.5v-6.75h1.5V210m-1.5-13.5v-6.75h1.5v6.75m-1.5-13.5v-6.75h1.5V183m-1.5-13.5v-6.75h1.5v6.75m-1.5-13.5v-6.75h1.5V156m-1.5-13.5v-6.75h1.5v6.75m-1.5-13.5v-6.75h1.5V129m-1.5-13.5v-6.75h1.5v6.75m-1.5-13.5v-6.75h1.5V102m-1.5-13.5v-6.75h1.5v6.75m-1.5-13.5v-6.75h1.5V75m-1.5-13.5v-6.75h1.5v6.75m-1.5-13.5v-6.75h1.5V48m-1.5-13.5V30h1.5v4.5M64.012 345v-6.75h1.5V345m-1.5-13.5v-6.75h1.5v6.75m-1.5-13.5v-6.75h1.5V318m-1.5-13.5v-6.75h1.5v6.75m-1.5-13.5v-6.75h1.5V291m-1.5-13.5v-6.75h1.5v6.75m-1.5-13.5v-6.75h1.5V264m-1.5-13.5v-6.75h1.5v6.75m-1.5-13.5v-6.75h1.5V237m-1.5-13.5v-6.75h1.5v6.75m-1.5-13.5v-6.75h1.5V210m-1.5-13.5v-6.75h1.5v6.75m-1.5-13.5v-6.75h1.5V183m-1.5-13.5v-6.75h1.5v6.75m-1.5-13.5v-6.75h1.5V156m-1.5-13.5v-6.75h1.5v6.75m-1.5-13.5v-6.75h1.5V129m-1.5-13.5v-6.75h1.5v6.75m-1.5-13.5v-6.75h1.5V102m-1.5-13.5v-6.75h1.5v6.75m-1.5-13.5v-6.75h1.5V75m-1.5-13.5v-6.75h1.5v6.75m-1.5-13.5v-6.75h1.5V48m-1.5-13.5V30h1.5v4.5"/><g fill="#2A3F5F"><use xlink:href="#df" x="131.458" y="15"/><use xlink:href="#dg" x="139.401" y="15"/><use xlink:href="#dh" x="147.059" y="15"/><use xlink:href="#dg" x="152.083" y="15"/><use xlink:href="#di" x="159.74" y="15"/><use xlink:href="#dj" x="166.383" y="15"/><use xlink:href="#dh" x="173.978" y="15"/><use xlink:href="#dk" x="179.002" y="15"/><use xlink:href="#dl" x="183.485" y="15"/><use xlink:href="#dm" x="190.128" y="15"/><use xlink:href="#dn" x="195.569" y="15"/><use xlink:href="#do" x="203.307" y="15"/><use xlink:href="#do" x="211.251" y="15"/><use xlink:href="#dj" x="219.195" y="15"/><use xlink:href="#df" x="226.79" y="15"/><use xlink:href="#dk" x="234.734" y="15"/><use xlink:href="#dh" x="239.216" y="15"/><use xlink:href="#dn" x="244.24" y="15"/><use xlink:href="#dk" x="251.979" y="15"/><use xlink:href="#dp" x="256.461" y="15"/><use xlink:href="#dq" x="266.895" y="15"/><use xlink:href="#dh" x="270.394" y="15"/><use xlink:href="#dr" x="275.418" y="15"/><use xlink:href="#dq" x="283.486" y="15"/><use xlink:href="#ds" x="286.985" y="15"/><use xlink:href="#dk" x="295.054" y="15"/><use xlink:href="#dt" x="299.536" y="15"/><use xlink:href="#du" x="309.97" y="15"/><use xlink:href="#dv" x="315.76" y="15"/><use xlink:href="#dk" x="321.55" y="15"/><use xlink:href="#dw" x="326.032" y="15"/><use xlink:href="#dk" x="334.138" y="15"/><use xlink:href="#dj" x="338.62" y="15"/><use xlink:href="#dx" x="346.215" y="15"/><use xlink:href="#du" x="354.931" y="15"/><use xlink:href="#dg" x="360.721" y="15"/><use xlink:href="#dh" x="368.379" y="15"/><use xlink:href="#dn" x="373.403" y="15"/><use xlink:href="#dy" x="381.141" y="15"/></g><g fill="#2A3F5F"><use xlink:href="#dz" x="160.397" y="372.75"/><use xlink:href="#dA" x="170.779" y="372.75"/><use xlink:href="#dB" x="177.977" y="372.75"/><use xlink:href="#dC" x="186.826" y="372.75"/><use xlink:href="#dD" x="190.518" y="372.75"/><use xlink:href="#dE" x="197.162" y="372.75"/><use xlink:href="#dF" x="203.807" y="372.75"/><use xlink:href="#dG" x="209.277" y="372.75"/><use xlink:href="#dH" x="215.65" y="372.75"/><use xlink:href="#dH" x="220.131" y="372.75"/><use xlink:href="#dI" x="224.612" y="372.75"/><use xlink:href="#dF" x="230.867" y="372.75"/><use xlink:href="#dJ" x="236.337" y="372.75"/><use xlink:href="#dI" x="240.475" y="372.75"/><use xlink:href="#dK" x="246.729" y="372.75"/><use xlink:href="#dC" x="253.271" y="372.75"/><use xlink:href="#dL" x="256.963" y="372.75"/><use xlink:href="#dG" x="260.654" y="372.75"/><use xlink:href="#dH" x="267.027" y="372.75"/><use xlink:href="#dM" x="271.508" y="372.75"/><use xlink:href="#dN" x="281.721" y="372.75"/><use xlink:href="#dJ" x="288.027" y="372.75"/><use xlink:href="#dO" x="292.165" y="372.75"/><use xlink:href="#dG" x="295.046" y="372.75"/><use xlink:href="#dE" x="301.419" y="372.75"/><use xlink:href="#dC" x="308.063" y="372.75"/><use xlink:href="#dI" x="311.755" y="372.75"/><use xlink:href="#dE" x="318.01" y="372.75"/><use xlink:href="#dI" x="324.654" y="372.75"/><use xlink:href="#dH" x="330.909" y="372.75"/><use xlink:href="#dP" x="335.39" y="372.75"/><use xlink:href="#dQ" x="341.932" y="372.75"/><use xlink:href="#dC" x="348.146" y="372.75"/><use xlink:href="#dR" x="351.837" y="372.75"/><use xlink:href="#dI" x="356.605" y="372.75"/><use xlink:href="#dS" x="362.86" y="372.75"/><use xlink:href="#dT" x="370.038" y="372.75"/><use xlink:href="#dN" x="374.806" y="372.75"/><use xlink:href="#dJ" x="381.112" y="372.75"/><use xlink:href="#dG" x="385.249" y="372.75"/><use xlink:href="#dM" x="391.622" y="372.75"/><use xlink:href="#dU" x="401.835" y="372.75"/></g><g fill="#2A3F5F"><use xlink:href="#dV" x="10.5" y="244.668"/><use xlink:href="#dW" x="10.5" y="236.814"/><use xlink:href="#dX" x="10.5" y="230.169"/><use xlink:href="#dY" x="10.5" y="219.956"/><use xlink:href="#dZ" x="10.5" y="213.414"/><use xlink:href="#ea" x="10.5" y="207.159"/><use xlink:href="#eb" x="10.5" y="202.678"/><use xlink:href="#ec" x="10.5" y="198.987"/><use xlink:href="#ed" x="10.5" y="192.614"/><use xlink:href="#eb" x="10.5" y="188.923"/><use xlink:href="#ee" x="10.5" y="185.231"/><use xlink:href="#ef" x="10.5" y="178.054"/><use xlink:href="#ea" x="10.5" y="173.916"/><use xlink:href="#dW" x="10.5" y="169.435"/><use xlink:href="#eg" x="10.5" y="162.791"/><use xlink:href="#ef" x="10.5" y="157.32"/><use xlink:href="#dW" x="10.5" y="153.183"/><use xlink:href="#ea" x="10.5" y="146.538"/><use xlink:href="#dZ" x="10.5" y="142.057"/><use xlink:href="#eh" x="10.5" y="135.802"/></g></svg>