<svg xmlns="http://www.w3.org/2000/svg" xmlns:xlink="http://www.w3.org/1999/xlink" width="450" height="224.88"><defs><clipPath id="a"><path d="M0 0h450v224.879H0Zm0 0"/></clipPath><clipPath id="b"><path d="M36 188h3v1h-3Zm0 0"/></clipPath><clipPath id="c"><path d="M38 187h4v2h-4Zm0 0"/></clipPath><clipPath id="d"><path d="M41 188h4v1h-4Zm0 0"/></clipPath><clipPath id="e"><path d="M44 187h4v2h-4Zm0 0"/></clipPath><clipPath id="f"><path d="M46 187h4v2h-4Zm0 0"/></clipPath><clipPath id="g"><path d="M49 187h4v2h-4Zm0 0"/></clipPath><clipPath id="h"><path d="M52 187h4v2h-4Zm0 0"/></clipPath><clipPath id="i"><path d="M55 187h4v2h-4Zm0 0"/></clipPath><clipPath id="j"><path d="M57 187h4v2h-4Zm0 0"/></clipPath><clipPath id="k"><path d="M60 187h4v2h-4Zm0 0"/></clipPath><clipPath id="l"><path d="M63 187h4v2h-4Zm0 0"/></clipPath><clipPath id="m"><path d="M66 186h4v3h-4Zm0 0"/></clipPath><clipPath id="n"><path d="M68 187h4v2h-4Zm0 0"/></clipPath><clipPath id="o"><path d="M71 187h4v2h-4Zm0 0"/></clipPath><clipPath id="p"><path d="M74 186h4v3h-4Zm0 0"/></clipPath><clipPath id="q"><path d="M77 187h4v2h-4Zm0 0"/></clipPath><clipPath id="r"><path d="M79 186h5v3h-5Zm0 0"/></clipPath><clipPath id="s"><path d="M82 186h4v3h-4Zm0 0"/></clipPath><clipPath id="t"><path d="M85 186h4v3h-4Zm0 0"/></clipPath><clipPath id="u"><path d="M88 185h4v4h-4Zm0 0"/></clipPath><clipPath id="v"><path d="M90 185h5v4h-5Zm0 0"/></clipPath><clipPath id="w"><path d="M93 185h4v4h-4Zm0 0"/></clipPath><clipPath id="x"><path d="M96 184h4v5h-4Zm0 0"/></clipPath><clipPath id="y"><path d="M99 184h4v5h-4Zm0 0"/></clipPath><clipPath id="z"><path d="M101 183h5v6h-5Zm0 0"/></clipPath><clipPath id="A"><path d="M104 183h4v6h-4Zm0 0"/></clipPath><clipPath id="B"><path d="M107 183h4v6h-4Zm0 0"/></clipPath><clipPath id="C"><path d="M110 182h4v7h-4Zm0 0"/></clipPath><clipPath id="D"><path d="M112 182h5v7h-5Zm0 0"/></clipPath><clipPath id="E"><path d="M115 181h4v8h-4Zm0 0"/></clipPath><clipPath id="F"><path d="M118 180h4v9h-4Zm0 0"/></clipPath><clipPath id="G"><path d="M121 179h4v10h-4Zm0 0"/></clipPath><clipPath id="H"><path d="M123 178h5v11h-5Zm0 0"/></clipPath><clipPath id="I"><path d="M126 177h4v12h-4Zm0 0"/></clipPath><clipPath id="J"><path d="M129 177h4v12h-4Zm0 0"/></clipPath><clipPath id="K"><path d="M132 175h4v14h-4Zm0 0"/></clipPath><clipPath id="L"><path d="M134 173h5v16h-5Zm0 0"/></clipPath><clipPath id="M"><path d="M137 170h4v19h-4Zm0 0"/></clipPath><clipPath id="N"><path d="M140 169h4v20h-4Zm0 0"/></clipPath><clipPath id="O"><path d="M143 168h4v21h-4Zm0 0"/></clipPath><clipPath id="P"><path d="M146 166h4v23h-4Zm0 0"/></clipPath><clipPath id="Q"><path d="M148 162h4v27h-4Zm0 0"/></clipPath><clipPath id="R"><path d="M151 160h4v29h-4Zm0 0"/></clipPath><clipPath id="S"><path d="M154 155h4v34h-4Zm0 0"/></clipPath><clipPath id="T"><path d="M157 152h4v37h-4Zm0 0"/></clipPath><clipPath id="U"><path d="M159 150h4v39h-4Zm0 0"/></clipPath><clipPath id="V"><path d="M162 144h4v45h-4Zm0 0"/></clipPath><clipPath id="W"><path d="M165 138h4v51h-4Zm0 0"/></clipPath><clipPath id="X"><path d="M168 130h4v59h-4Zm0 0"/></clipPath><clipPath id="Y"><path d="M170 107h4v82h-4Zm0 0"/></clipPath><clipPath id="Z"><path d="M173 37h4v152h-4Zm0 0"/></clipPath><clipPath id="aa"><path d="M176 83h4v106h-4Zm0 0"/></clipPath><clipPath id="ab"><path d="M179 96h4v93h-4Zm0 0"/></clipPath><clipPath id="ac"><path d="M181 97h4v92h-4Zm0 0"/></clipPath><clipPath id="ad"><path d="M184 100h4v89h-4Zm0 0"/></clipPath><clipPath id="ae"><path d="M187 101h4v88h-4Zm0 0"/></clipPath><clipPath id="af"><path d="M190 102h4v87h-4Zm0 0"/></clipPath><clipPath id="ag"><path d="M192 103h4v86h-4Zm0 0"/></clipPath><clipPath id="ah"><path d="M195 105h4v84h-4Zm0 0"/></clipPath><clipPath id="ai"><path d="M198 107h4v82h-4Zm0 0"/></clipPath><clipPath id="aj"><path d="M201 110h4v79h-4Zm0 0"/></clipPath><clipPath id="ak"><path d="M203 111h4v78h-4Zm0 0"/></clipPath><clipPath id="al"><path d="M206 113h4v76h-4Zm0 0"/></clipPath><clipPath id="am"><path d="M209 115h4v74h-4Zm0 0"/></clipPath><clipPath id="an"><path d="M212 117h4v72h-4Zm0 0"/></clipPath><clipPath id="ao"><path d="M214 119h5v70h-5Zm0 0"/></clipPath><clipPath id="ap"><path d="M217 121h4v68h-4Zm0 0"/></clipPath><clipPath id="aq"><path d="M220 123h4v66h-4Zm0 0"/></clipPath><clipPath id="ar"><path d="M223 125h4v64h-4Zm0 0"/></clipPath><clipPath id="as"><path d="M225 127h5v62h-5Zm0 0"/></clipPath><clipPath id="at"><path d="M228 131h4v58h-4Zm0 0"/></clipPath><clipPath id="au"><path d="M231 131h4v58h-4Zm0 0"/></clipPath><clipPath id="av"><path d="M234 132h4v57h-4Zm0 0"/></clipPath><clipPath id="aw"><path d="M236 135h5v54h-5Zm0 0"/></clipPath><clipPath id="ax"><path d="M239 138h4v51h-4Zm0 0"/></clipPath><clipPath id="ay"><path d="M242 140h4v49h-4Zm0 0"/></clipPath><clipPath id="az"><path d="M245 140h4v49h-4Zm0 0"/></clipPath><clipPath id="aA"><path d="M247 144h5v45h-5Zm0 0"/></clipPath><clipPath id="aB"><path d="M250 144h4v45h-4Zm0 0"/></clipPath><clipPath id="aC"><path d="M253 144h4v45h-4Zm0 0"/></clipPath><clipPath id="aD"><path d="M256 148h4v41h-4Zm0 0"/></clipPath><clipPath id="aE"><path d="M258 148h5v41h-5Zm0 0"/></clipPath><clipPath id="aF"><path d="M261 149h4v40h-4Zm0 0"/></clipPath><clipPath id="aG"><path d="M264 151h4v38h-4Zm0 0"/></clipPath><clipPath id="aH"><path d="M267 150h4v39h-4Zm0 0"/></clipPath><clipPath id="aI"><path d="M269 152h5v37h-5Zm0 0"/></clipPath><clipPath id="aJ"><path d="M272 155h4v34h-4Zm0 0"/></clipPath><clipPath id="aK"><path d="M275 154h4v35h-4Zm0 0"/></clipPath><clipPath id="aL"><path d="M278 157h4v32h-4Zm0 0"/></clipPath><clipPath id="aM"><path d="M281 157h4v32h-4Zm0 0"/></clipPath><clipPath id="aN"><path d="M283 158h4v31h-4Zm0 0"/></clipPath><clipPath id="aO"><path d="M286 159h4v30h-4Zm0 0"/></clipPath><clipPath id="aP"><path d="M289 159h4v30h-4Zm0 0"/></clipPath><clipPath id="aQ"><path d="M292 162h4v27h-4Zm0 0"/></clipPath><clipPath id="aR"><path d="M294 162h4v27h-4Zm0 0"/></clipPath><clipPath id="aS"><path d="M297 164h4v25h-4Zm0 0"/></clipPath><clipPath id="aT"><path d="M300 165h4v24h-4Zm0 0"/></clipPath><clipPath id="aU"><path d="M303 164h4v25h-4Zm0 0"/></clipPath><clipPath id="aV"><path d="M305 164h4v25h-4Zm0 0"/></clipPath><clipPath id="aW"><path d="M308 166h4v23h-4Zm0 0"/></clipPath><clipPath id="aX"><path d="M311 167h4v22h-4Zm0 0"/></clipPath><clipPath id="aY"><path d="M314 167h4v22h-4Zm0 0"/></clipPath><clipPath id="aZ"><path d="M316 170h4v19h-4Zm0 0"/></clipPath><clipPath id="ba"><path d="M319 169h4v20h-4Zm0 0"/></clipPath><clipPath id="bb"><path d="M322 169h4v20h-4Zm0 0"/></clipPath><clipPath id="bc"><path d="M325 170h4v19h-4Zm0 0"/></clipPath><clipPath id="bd"><path d="M327 170h4v19h-4Zm0 0"/></clipPath><clipPath id="be"><path d="M330 172h4v17h-4Zm0 0"/></clipPath><clipPath id="bf"><path d="M333 172h4v17h-4Zm0 0"/></clipPath><clipPath id="bg"><path d="M336 171h4v18h-4Zm0 0"/></clipPath><clipPath id="bh"><path d="M338 173h4v16h-4Zm0 0"/></clipPath><clipPath id="bi"><path d="M341 172h4v17h-4Zm0 0"/></clipPath><clipPath id="bj"><path d="M344 174h4v15h-4Zm0 0"/></clipPath><clipPath id="bk"><path d="M347 173h4v16h-4Zm0 0"/></clipPath><clipPath id="bl"><path d="M349 174h5v15h-5Zm0 0"/></clipPath><clipPath id="bm"><path d="M352 175h4v14h-4Zm0 0"/></clipPath><clipPath id="bn"><path d="M355 176h4v13h-4Zm0 0"/></clipPath><clipPath id="bo"><path d="M358 176h4v13h-4Zm0 0"/></clipPath><clipPath id="bp"><path d="M360 177h5v12h-5Zm0 0"/></clipPath><clipPath id="bq"><path d="M363 176h4v13h-4Zm0 0"/></clipPath><clipPath id="br"><path d="M366 176h4v13h-4Zm0 0"/></clipPath><clipPath id="bs"><path d="M369 177h4v12h-4Zm0 0"/></clipPath><clipPath id="bt"><path d="M371 177h5v12h-5Zm0 0"/></clipPath><clipPath id="bu"><path d="M374 178h4v11h-4Zm0 0"/></clipPath><clipPath id="bv"><path d="M377 179h4v10h-4Zm0 0"/></clipPath><clipPath id="bw"><path d="M380 178h4v11h-4Zm0 0"/></clipPath><clipPath id="bx"><path d="M382 178h5v11h-5Zm0 0"/></clipPath><clipPath id="by"><path d="M385 180h4v9h-4Zm0 0"/></clipPath><clipPath id="bz"><path d="M388 179h4v10h-4Zm0 0"/></clipPath><clipPath id="bA"><path d="M391 180h4v9h-4Zm0 0"/></clipPath><clipPath id="bB"><path d="M393 180h5v9h-5Zm0 0"/></clipPath><clipPath id="bC"><path d="M396 180h4v9h-4Zm0 0"/></clipPath><clipPath id="bD"><path d="M399 180h4v9h-4Zm0 0"/></clipPath><clipPath id="bE"><path d="M402 180h4v9h-4Zm0 0"/></clipPath><clipPath id="bF"><path d="M404 180h5v9h-5Zm0 0"/></clipPath><clipPath id="bG"><path d="M407 181h4v8h-4Zm0 0"/></clipPath><clipPath id="bH"><path d="M410 181h4v8h-4Zm0 0"/></clipPath><clipPath id="bI"><path d="M413 182h4v7h-4Zm0 0"/></clipPath><clipPath id="bJ"><path d="M416 181h4v8h-4Zm0 0"/></clipPath><clipPath id="bK"><path d="M418 182h4v7h-4Zm0 0"/></clipPath><clipPath id="bL"><path d="M421 182h4v7h-4Zm0 0"/></clipPath><clipPath id="bM"><path d="M424 182h4v7h-4Zm0 0"/></clipPath><clipPath id="bN"><path d="M427 183h4v6h-4Zm0 0"/></clipPath><clipPath id="bO"><path d="M429 183h4v6h-4Zm0 0"/></clipPath><clipPath id="bP"><path d="M432 183h4v6h-4Zm0 0"/></clipPath><clipPath id="bQ"><path d="M435 183h4v6h-4Zm0 0"/></clipPath><clipPath id="bR"><path d="M438 183h4v6h-4Zm0 0"/></clipPath><clipPath id="bS"><path d="M440 183h4v6h-4Zm0 0"/></clipPath><clipPath id="bT"><path d="M443 183h4v6h-4Zm0 0"/></clipPath><clipPath id="bU"><path d="M446 184h3.25v5H446Zm0 0"/></clipPath><clipPath id="bV"><path d="M446 183h3.25v6H446Zm0 0"/></clipPath><clipPath id="cI"><path d="M121 214h243v10.879H121Zm0 0"/></clipPath><path id="bW" d="M6.406-2.516H.97v-.703h5.437Zm0 0"/><path id="bX" d="M5.125-3.281q-.001 1.769-.547 2.594C4.211-.133 3.641.14 2.86.14Q1.687.142 1.141-.687.608-1.531.609-3.266q-.002-1.746.547-2.578.545-.827 1.703-.828 1.186 0 1.72.844c.362.562.546 1.414.546 2.547m-1.156 2c.101-.239.172-.516.203-.828q.06-.48.062-1.172a10 10 0 0 0-.062-1.14 2.7 2.7 0 0 0-.203-.845 1.2 1.2 0 0 0-.422-.515c-.18-.114-.406-.172-.688-.172a1.3 1.3 0 0 0-.687.172q-.27.176-.422.515a3 3 0 0 0-.203.86 13 13 0 0 0-.047 1.14q0 .69.047 1.157.046.455.203.812.14.344.406.531c.176.118.41.172.703.172.282 0 .508-.054.688-.172q.28-.17.422-.515m0 0"/><path id="bY" d="M2.156 0H1.11v-1.25h1.047Zm0 0"/><path id="bZ" d="M5.14 0H.704v-.922c.313-.258.617-.52.922-.781q.467-.404.875-.797c.563-.54.945-.973 1.156-1.297q.312-.48.313-1.031-.002-.516-.344-.797c-.219-.195-.531-.297-.937-.297q-.392 0-.86.14a3.3 3.3 0 0 0-.906.438H.875v-.922a4.3 4.3 0 0 1 .828-.28q.514-.142 1.016-.141.998 0 1.562.5.576.486.578 1.312 0 .375-.093.703-.095.316-.282.61-.174.269-.406.53-.22.27-.547.579a27 27 0 0 1-.984.906c-.336.281-.64.547-.922.797h3.516Zm0 0"/><path id="ca" d="M4.766 0H1.219v-.672h1.36v-4.375h-1.36v-.61q.28 0 .593-.046a1.8 1.8 0 0 0 .485-.125.8.8 0 0 0 .312-.281.85.85 0 0 0 .141-.453h.672v5.89h1.344Zm0 0"/><path id="cb" d="M4.563-3.156c.132.125.25.289.343.484q.14.283.14.735 0 .454-.171.828A2.06 2.06 0 0 1 3.641 0q-.44.14-.97.14-.55 0-1.077-.141a4.6 4.6 0 0 1-.86-.281v-.922h.063q.373.252.875.422.516.157.984.156c.188 0 .383-.031.594-.094q.311-.091.5-.265.201-.2.297-.422c.07-.157.11-.352.11-.594q-.001-.357-.126-.578a1 1 0 0 0-.297-.375 1.4 1.4 0 0 0-.484-.172 3 3 0 0 0-.61-.062h-.39v-.735h.297q.668.002 1.062-.265c.27-.188.407-.461.407-.829a.77.77 0 0 0-.11-.406.75.75 0 0 0-.265-.297 1.5 1.5 0 0 0-.407-.156 2.3 2.3 0 0 0-.484-.047c-.281 0-.578.055-.89.156q-.47.141-.891.422H.922v-.922a4.3 4.3 0 0 1 .828-.28q.528-.142 1.016-.141.48 0 .843.093.358.095.657.282.31.222.468.515.171.3.172.688c0 .367-.133.683-.39.953a1.64 1.64 0 0 1-.907.515v.063q.216.034.485.156.28.112.468.266m0 0"/><path id="cc" d="M5.281-1.844h-.968V0h-.844v-1.844H.344v-1.015L3.5-6.547h.813v4h.968ZM3.47-2.547V-5.5L.938-2.547Zm0 0"/><path id="cd" d="M5.266 0H4.172L2.203-2.156l-.531.515V0H.844v-6.844h.828v4.39l2.39-2.452H5.11L2.83-2.641Zm0 0"/><path id="ce" d="M5.234-2.125q0 1.002-.656 1.64-.657.627-1.61.626-.485 0-.89-.141a1.9 1.9 0 0 1-.687-.453 2.4 2.4 0 0 1-.578-.969Q.608-2.03.609-2.875q-.002-.873.172-1.547c.125-.445.328-.844.61-1.187q.375-.499.984-.782.622-.28 1.438-.28.246 0 .421.03.186.02.36.079v.843h-.047a1 1 0 0 0-.36-.125 2.3 2.3 0 0 0-.515-.062q-.937.001-1.5.593-.563.58-.656 1.594.356-.234.718-.344.359-.107.829-.109.419 0 .734.078.328.063.656.297c.258.18.453.406.578.688q.201.41.203.984m-.89.031q-.001-.404-.125-.672a1.34 1.34 0 0 0-.39-.468 1.05 1.05 0 0 0-.454-.172 3 3 0 0 0-.516-.047q-.375 0-.703.094-.316.08-.656.265c0 .063-.008.125-.016.188v.219q0 .704.141 1.109.154.392.406.625.201.188.438.281c.156.063.32.094.5.094q.638 0 1-.39.375-.388.375-1.126m0 0"/><path id="cf" d="M5.188-1.828c0 .574-.227 1.047-.672 1.422q-.659.562-1.657.562Q1.795.158 1.156-.39.53-.952.531-1.812q-.002-.529.313-.97.328-.449.906-.718v-.016q-.534-.28-.781-.609-.251-.34-.25-.844c0-.488.195-.894.594-1.218q.609-.5 1.546-.5.984 0 1.563.468.592.471.594 1.188c0 .304-.094.593-.282.875a1.93 1.93 0 0 1-.812.672v.03q.61.27.937.657.33.376.329.969M4.14-5.016a.91.91 0 0 0-.36-.75q-.361-.28-.922-.28-.563 0-.921.265a.85.85 0 0 0-.344.703.9.9 0 0 0 .172.562c.125.149.304.282.547.407q.152.08.453.203.31.128.609.203c.29-.188.488-.383.594-.594a1.5 1.5 0 0 0 .172-.719m.14 3.282q0-.406-.187-.641-.174-.247-.688-.5a5 5 0 0 0-.453-.172 41 41 0 0 1-.656-.25 1.8 1.8 0 0 0-.64.594 1.5 1.5 0 0 0-.235.828q-.002.598.406.984.404.392 1.047.391.64 0 1.016-.328c.257-.227.39-.531.39-.906m0 0"/><path id="dD" d="M7.969 0h-.813v-2.797q0-.31-.031-.61A1.4 1.4 0 0 0 7-3.874a.6.6 0 0 0-.297-.281c-.125-.07-.305-.11-.531-.11q-.364 0-.703.188-.346.175-.688.437.014.094.016.235.014.127.016.265V0h-.829v-2.797q0-.328-.03-.61a1.4 1.4 0 0 0-.126-.468.6.6 0 0 0-.281-.281c-.125-.07-.309-.11-.547-.11q-.346.001-.687.172a6 6 0 0 0-.672.422V0H.813v-4.906h.828v.547c.257-.22.515-.383.765-.5q.388-.188.828-.188.498 0 .844.219.357.204.516.578.513-.421.922-.61.404-.186.89-.187.797.001 1.172.5.388.486.39 1.36Zm0 0"/><path id="dE" d="M4.922-2.375h-3.61q-.001.457.125.797.142.329.375.547c.157.148.336.258.547.328q.312.094.688.094.497 0 1-.188.514-.2.734-.406h.047v.906q-.423.175-.86.297c-.292.07-.593.11-.905.11q-1.22 0-1.907-.657Q.468-1.202.47-2.422q0-1.201.656-1.906.657-.717 1.734-.719.984.002 1.516.578.546.58.547 1.657ZM4.125-3q-.017-.655-.344-1-.313-.359-.969-.36c-.449 0-.804.133-1.062.391A1.5 1.5 0 0 0 1.313-3Zm0 0"/><path id="dF" d="M4.625 0h-.812v-.516q-.111.064-.297.204-.187.126-.375.218a2.6 2.6 0 0 1-.47.157Q2.404.14 2.048.14q-.673 0-1.14-.438Q.45-.747.452-1.422q0-.562.235-.906.247-.341.687-.547.45-.186 1.078-.25.62-.077 1.36-.125v-.125a.86.86 0 0 0-.11-.453.7.7 0 0 0-.281-.297A1.1 1.1 0 0 0 3-4.265a3.3 3.3 0 0 0-1.25.063 6 6 0 0 0-.812.233H.89v-.828a6 6 0 0 1 .703-.156q.45-.077.89-.078a3.8 3.8 0 0 1 .907.093c.257.055.484.149.672.282q.281.203.421.531.141.316.141.797Zm-.812-1.203v-1.375l-.907.078q-.503.033-.797.125a1.23 1.23 0 0 0-.578.313c-.148.136-.218.328-.218.578q-.001.422.25.64.247.204.78.203.434.001.798-.156.355-.17.672-.406m0 0"/><path id="dG" d="M4.922 0h-.828v-2.797a4 4 0 0 0-.047-.64 1.05 1.05 0 0 0-.14-.454.7.7 0 0 0-.313-.28 1.3 1.3 0 0 0-.547-.095q-.328.001-.703.172a4.7 4.7 0 0 0-.703.422V0H.813v-4.906h.828v.547a3 3 0 0 1 .797-.5q.42-.188.843-.188.797.002 1.219.484.422.471.422 1.375Zm0 0"/><path id="dI" d="M6.281-3.437H1.078v-.704h5.203Zm0 1.843H1.078v-.703h5.203Zm0 0"/><path id="dJ" d="M3.422-2.469H.672v-.797h2.75Zm0 0"/><path id="dK" d="M4.313-1.422q0 .675-.563 1.11-.55.438-1.5.437Q1.7.124 1.25 0a5 5 0 0 1-.766-.297v-.922h.047q.389.3.86.469.481.174.922.172.545.002.843-.172a.62.62 0 0 0 .313-.562.6.6 0 0 0-.156-.438q-.175-.154-.641-.25a6 6 0 0 0-.469-.094l-.515-.11q-.643-.169-.922-.5Q.498-3.043.5-3.53q-.001-.294.125-.563.121-.28.39-.484a1.9 1.9 0 0 1 .61-.328q.389-.124.86-.125.432.002.89.11.45.11.75.265v.875h-.047a2.9 2.9 0 0 0-.766-.39 2.8 2.8 0 0 0-.89-.157q-.457 0-.766.172a.56.56 0 0 0-.312.515q0 .315.187.454.187.156.61.25.217.064.5.124c.195.032.359.06.484.079q.575.141.89.453c.196.219.298.508.298.86m0 0"/><path id="dL" d="M3.36-.047a4 4 0 0 1-.516.094q-.269.047-.485.047-.752.002-1.14-.406Q.828-.718.829-1.61v-2.61H.265v-.687h.562v-1.407h.828v1.407H3.36v.687H1.656v2.235q-.001.391.016.609.012.22.125.406a.62.62 0 0 0 .266.266c.113.055.285.078.515.078q.2 0 .422-.062.218-.059.313-.094h.046Zm0 0"/><path id="dM" d="M4.797 0h-.828v-.516a3 3 0 0 1-.75.485q-.377.17-.828.172Q1.5.14.984-.531.47-1.216.47-2.421c0-.415.054-.786.172-1.11.125-.32.289-.598.5-.828a2 2 0 0 1 .687-.5q.406-.188.828-.188.388 0 .688.094c.195.055.406.133.625.234v-2.125h.828Zm-.828-1.203v-2.828a4 4 0 0 0-.594-.203 2.7 2.7 0 0 0-.578-.063q-.705.002-1.094.484-.375.486-.375 1.376 0 .877.297 1.328c.195.304.516.453.953.453q.357 0 .719-.156a3.3 3.3 0 0 0 .672-.391m0 0"/><path id="dN" d="M6.438-2.516H4.047v2.391h-.734v-2.39H.922v-.704h2.39v-2.39h.735v2.39h2.39Zm0 0"/><path id="cg" d="M6.844 0H.938v-1.219q.623-.528 1.234-1.062.622-.53 1.156-1.047 1.123-1.09 1.531-1.735.422-.639.422-1.39c0-.445-.152-.797-.453-1.047q-.439-.388-1.234-.39-.55 0-1.172.187a4.8 4.8 0 0 0-1.203.578h-.063v-1.234a6.3 6.3 0 0 1 1.11-.375 5.7 5.7 0 0 1 1.343-.172q1.342 0 2.11.656.763.644.765 1.75-.001.504-.125.938-.128.42-.375.796-.236.376-.546.735-.3.344-.735.765-.628.612-1.297 1.188-.675.58-1.25 1.078h4.688Zm0 0"/><path id="ch" d="M6.781-2.766q0 .61-.234 1.172a2.7 2.7 0 0 1-.594.922 3 3 0 0 1-1.016.64 3.8 3.8 0 0 1-1.343.22c-.48 0-.946-.055-1.39-.157a6 6 0 0 1-1.11-.36v-1.233h.078q.48.298 1.125.515c.437.149.86.219 1.265.219q.422.001.813-.11.388-.123.688-.421a1.5 1.5 0 0 0 .39-.594q.14-.359.14-.828-.002-.452-.155-.75a1.3 1.3 0 0 0-.438-.5 1.7 1.7 0 0 0-.734-.313 4.7 4.7 0 0 0-.985-.093c-.344 0-.68.027-1 .078a24 24 0 0 0-.812.125V-8.72h5.25v1.016h-4.11v2.328q.247-.03.5-.031.263-.014.47-.016.701.001 1.233.125.528.111.985.422.467.313.719.828.264.503.265 1.281m0 0"/><path id="ci" d="M6.875-7.422 2.922 0h-1.25l4.203-7.703H.906V-8.72h5.969Zm0 0"/><path id="cj" d="M8.188 0h-1.5L3.234-3.89l-.875.937V0H1.203v-8.719H2.36v4.547l4.235-4.547H8L4.11-4.625Zm0 0"/><path id="cl" d="M5.766-1.89q0 .908-.75 1.484Q4.277.156 3 .156c-.492 0-.937-.058-1.344-.172A6 6 0 0 1 .641-.39v-1.234h.062q.514.392 1.156.625.638.22 1.235.219.714 0 1.125-.235.422-.232.422-.734 0-.389-.235-.578-.223-.201-.843-.344-.237-.045-.626-.11-.376-.076-.687-.171-.86-.217-1.219-.656-.362-.45-.36-1.094-.001-.404.173-.766.17-.358.5-.64.325-.264.828-.422a3.6 3.6 0 0 1 1.14-.172q.592 0 1.188.14.608.143 1 .344v1.188h-.062a3.7 3.7 0 0 0-1.032-.516 3.4 3.4 0 0 0-1.172-.219q-.61 0-1.03.235c-.274.148-.407.37-.407.672q-.001.41.25.609.246.221.797.344l.687.14q.374.066.625.125c.508.118.907.32 1.188.61.281.281.422.664.422 1.14m0 0"/><path id="cm" d="M4.484-.062q-.313.093-.687.14a5 5 0 0 1-.64.047q-1.004 0-1.532-.531-.516-.546-.516-1.735v-3.484H.36v-.922h.75v-1.875h1.094v1.875h2.281v.922h-2.28v2.984c0 .344.003.618.015.813.02.187.078.367.172.531.093.156.21.274.359.344q.232.11.688.11.261.001.561-.08.293-.077.422-.125h.062Zm0 0"/><path id="cn" d="M5.172-5.344h-.063a3 3 0 0 0-.484-.078 4 4 0 0 0-.547-.031q-.504 0-.984.234-.471.222-.906.578V0h-1.11v-6.547h1.11v.969q.654-.528 1.156-.75a2.5 2.5 0 0 1 1.015-.219q.293.002.422.016.122.016.39.062Zm0 0"/><path id="co" d="M6.516 0h-1.11v-.734a4.8 4.8 0 0 1-1.062.687 2.75 2.75 0 0 1-1.125.235q-1.034 0-1.61-.625-.578-.64-.578-1.86v-4.25h1.11v3.734q0 .487.046.844.046.364.204.61a.96.96 0 0 0 .406.375q.247.11.734.109c.281 0 .586-.07.922-.219q.515-.216.953-.562v-4.89h1.11Zm0 0"/><path id="cp" d="M5.922-.406c-.367.18-.715.312-1.047.406Q4.39.14 3.828.14c-.469 0-.902-.07-1.297-.202a2.56 2.56 0 0 1-1.015-.625A2.74 2.74 0 0 1 .844-1.75Q.609-2.405.609-3.266q-.001-1.606.875-2.515.89-.921 2.344-.922.561 0 1.094.172.543.158 1 .375v1.234h-.063a4 4 0 0 0-1.03-.61A2.8 2.8 0 0 0 3.78-5.75q-.938.001-1.484.64-.532.627-.531 1.844 0 1.19.515 1.829.528.625 1.5.625.328.002.672-.079.356-.093.625-.234.248-.124.453-.266.217-.14.328-.234h.063Zm0 0"/><path id="cq" d="M6.563-3.156H1.734q0 .596.188 1.047.186.455.5.734.294.282.719.422.419.14.922.14c.445 0 .894-.085 1.343-.265q.687-.264.969-.516h.063v1.188C6.063-.25 5.68-.113 5.297 0a4.8 4.8 0 0 1-1.219.156c-1.086 0-1.933-.289-2.547-.875Q.624-1.607.625-3.234c0-1.07.29-1.922.875-2.547q.873-.951 2.297-.953 1.325 0 2.047.78.716.769.718 2.204ZM5.484-4q-.002-.874-.437-1.344-.423-.468-1.297-.468-.893 0-1.422.515A2.06 2.06 0 0 0 1.734-4Zm0 0"/><path id="cr" d="M9.313-6.547 7.609 0H6.594L4.906-5.047 3.234 0h-1L.5-6.547h1.156L2.86-1.484l1.625-5.063h.907l1.687 5.063 1.125-5.063Zm0 0"/><path id="cs" d="M2.266-7.64H1.03v-1.141h1.235ZM2.203 0h-1.11v-6.547h1.11Zm0 0"/><path id="ct" d="M6.563 0h-1.11v-3.734q-.002-.436-.062-.828-.048-.404-.188-.625a.82.82 0 0 0-.422-.36q-.27-.124-.703-.125-.456 0-.953.219a5 5 0 0 0-.937.562V0h-1.11v-9.125h1.11v3.313Q2.7-6.25 3.25-6.484a2.7 2.7 0 0 1 1.14-.25q1.046 0 1.61.64.563.644.563 1.844Zm0 0"/><path id="cu" d="M7.047-2.453H5.75V0H4.625v-2.453H.453v-1.344l4.219-4.922H5.75v5.328h1.297Zm-2.422-.938v-3.937L1.25-3.391Zm0 0"/><path id="cv" d="M6.078-4.203q.282.253.469.64.187.375.187.985-.001.597-.218 1.094a2.6 2.6 0 0 1-.61.859q-.438.41-1.047.61a4 4 0 0 1-1.296.203Q2.843.188 2.14 0A6.6 6.6 0 0 1 .984-.375v-1.219h.079q.498.33 1.171.547c.446.149.883.219 1.313.219q.356.001.765-.125c.282-.082.508-.203.688-.36a1.7 1.7 0 0 0 .39-.578q.141-.311.141-.78-.002-.468-.156-.767a1.2 1.2 0 0 0-.406-.5 1.7 1.7 0 0 0-.64-.234 4 4 0 0 0-.813-.078H3v-.969h.406q.89 0 1.422-.375.53-.374.531-1.093 0-.313-.14-.547a1.1 1.1 0 0 0-.375-.391 1.5 1.5 0 0 0-.547-.203 3 3 0 0 0-.64-.063q-.566.002-1.188.204a4.2 4.2 0 0 0-1.172.562h-.063v-1.234q.404-.2 1.094-.375a5.8 5.8 0 0 1 1.36-.172q.638.001 1.124.125.482.112.875.36.421.281.641.687.218.392.219.937 0 .72-.516 1.266a2.3 2.3 0 0 1-1.203.672v.093q.28.05.64.204.358.14.61.359m0 0"/><path id="cw" d="M6.172 0H5.078v-.703q-.159.11-.406.297a2 2 0 0 1-.469.265 3.3 3.3 0 0 1-.64.235 3.4 3.4 0 0 1-.844.094 2.12 2.12 0 0 1-1.5-.579q-.61-.59-.61-1.515-.002-.732.313-1.188c.219-.312.523-.554.922-.734q.59-.265 1.422-.36.841-.093 1.812-.14V-4.5q0-.375-.14-.61a.95.95 0 0 0-.375-.39A1.5 1.5 0 0 0 4-5.687a5 5 0 0 0-.687-.047 4.5 4.5 0 0 0-.97.125 7 7 0 0 0-1.093.328h-.062v-1.125a8 8 0 0 1 .937-.188 7 7 0 0 1 1.203-.11q.687.001 1.203.126.515.112.89.375.36.27.548.703.201.423.203 1.063ZM5.078-1.61v-1.827q-.503.034-1.187.093-.691.066-1.078.172-.488.13-.782.422-.28.283-.281.781 0 .563.328.844.342.282 1.047.281c.383 0 .738-.07 1.063-.219.32-.156.617-.335.89-.546m0 0"/><path id="cx" d="M6.844-3.328a4.4 4.4 0 0 1-.235 1.484A3.3 3.3 0 0 1 5.984-.75a2.8 2.8 0 0 1-.906.703c-.336.152-.7.235-1.094.235Q3.422.188 3 .047a3.8 3.8 0 0 1-.812-.36L2.109 0H1.08v-9.125h1.109v3.266q.468-.374.984-.625a2.7 2.7 0 0 1 1.172-.25q1.155 0 1.828.89c.445.594.672 1.434.672 2.516m-1.14.031c0-.781-.134-1.367-.391-1.765-.25-.407-.665-.61-1.235-.61q-.486.002-.984.203a4 4 0 0 0-.906.532v3.75q.468.222.796.296c.227.055.485.079.766.079q.92.001 1.438-.594.515-.609.515-1.89m0 0"/><path id="cy" d="M2.203 0h-1.11v-9.125h1.11Zm0 0"/><path id="cz" d="M8.594-3.36H5.39v3.204h-.97V-3.36H1.235v-.938h3.188v-3.187h.969v3.187h3.203Zm0 0"/><path id="cA" d="M6.36 0H1.624v-.89h1.828v-5.844H1.625v-.797q.375 0 .797-.063.42-.058.64-.187a1.2 1.2 0 0 0 .422-.36q.153-.234.172-.609h.922v7.86H6.36Zm0 0"/><path id="cB" d="M6.563 0h-1.11v-3.734q-.002-.436-.062-.828-.048-.404-.188-.625a.82.82 0 0 0-.422-.36q-.27-.124-.703-.125-.456 0-.953.219a5 5 0 0 0-.937.562V0h-1.11v-6.547h1.11v.734q.513-.435 1.062-.671a2.7 2.7 0 0 1 1.14-.25q1.046 0 1.61.64.563.644.563 1.844Zm0 0"/><path id="cC" d="M4.594 2.422H3.25a9.4 9.4 0 0 1-1.625-2.61q-.562-1.404-.562-3.171c0-1.164.187-2.22.562-3.157A9.4 9.4 0 0 1 3.25-9.125h1.344v.063a7.6 7.6 0 0 0-.922 1 7.3 7.3 0 0 0-.781 1.296 7.6 7.6 0 0 0-.578 1.594 7.2 7.2 0 0 0-.22 1.813q0 1.019.204 1.843.218.83.594 1.579.34.716.797 1.296.45.591.906 1Zm0 0"/><path id="cD" d="M8.39-4.578H1.438v-.938h6.954Zm0 2.453H1.438v-.937h6.954Zm0 0"/><path id="cE" d="M6.984-2.828q-.001 1.33-.875 2.172-.879.844-2.156.844Q3.31.186 2.781-.016a2.5 2.5 0 0 1-.922-.593c-.343-.32-.609-.75-.796-1.282C.883-2.43.797-3.078.797-3.828Q.796-5 1.047-5.891q.246-.89.797-1.593a3.54 3.54 0 0 1 1.328-1.032q.81-.375 1.906-.375.342.001.578.032.235.034.469.109v1.11h-.047a3.4 3.4 0 0 0-.5-.157 3 3 0 0 0-.672-.078q-1.265.001-2.015.781-.751.784-.875 2.125.499-.293.968-.453c.32-.101.692-.156 1.11-.156q.545.002.968.11.436.094.875.406.514.361.782.906.264.55.265 1.328m-1.187.047q-.001-.544-.172-.906a1.54 1.54 0 0 0-.531-.626 1.36 1.36 0 0 0-.594-.234 4 4 0 0 0-.687-.062q-.502.001-.922.125a4 4 0 0 0-.875.359q-.019.128-.032.25v.297q0 .924.188 1.469.201.533.531.843.263.252.578.375.312.111.688.11.842 0 1.328-.516c.332-.344.5-.836.5-1.484m0 0"/><path id="cF" d="M2.89 0H1.485v-1.672h1.407Zm0 0"/><path id="cG" d="M5.188-6.312q0 1.313-.563 1.953c-.367.43-.898.64-1.594.64-.71 0-1.246-.21-1.61-.64Q.874-4.997.876-6.297c0-.875.18-1.523.547-1.953q.561-.64 1.61-.64 1.058 0 1.609.656.546.644.547 1.922M9.234-8.72 4.656 0h-.968l4.578-8.719Zm2.813 6.297q0 1.313-.563 1.953c-.375.43-.906.64-1.593.64-.711 0-1.246-.21-1.61-.64q-.549-.654-.547-1.953-.002-1.312.547-1.937Q8.842-5 9.891-5q1.06.001 1.609.64.546.627.547 1.938M4.14-6.312q-.001-.998-.266-1.391-.269-.405-.844-.406-.596 0-.86.406-.25.393-.25 1.406 0 1.02.25 1.406.264.392.86.391.574 0 .844-.39c.176-.258.266-.735.266-1.423M11-2.422q-.001-.997-.266-1.39-.252-.406-.843-.407-.597.001-.86.407-.251.393-.25 1.39Q8.78-1.403 9.031-1q.263.391.86.39.591.002.843-.39Q11-1.404 11-2.422m0 0"/><path id="cH" d="M4.39-3.36c0 1.18-.195 2.235-.577 3.173a9.7 9.7 0 0 1-1.61 2.609H.86v-.063q.45-.409.907-1 .45-.58.797-1.296.373-.748.578-1.579.217-.825.218-1.843-.001-.95-.218-1.813a8 8 0 0 0-.578-1.594q-.364-.748-.797-1.296a7 7 0 0 0-.907-1v-.063h1.344a9.7 9.7 0 0 1 1.61 2.61c.382.937.578 1.992.578 3.156m0 0"/><path id="cJ" d="M9.906-7.64 7.922 0h-1.14l-1.61-6.344L3.609 0H2.484L.47-7.64h1.047l1.609 6.359 1.578-6.36h1.031l1.594 6.422L8.922-7.64Zm0 0"/><path id="cK" d="M6.781-2.344q-.001.564-.218 1a1.9 1.9 0 0 1-.579.719 2.5 2.5 0 0 1-.937.484Q4.53 0 3.734 0H1.031v-7.64h2.25q.843.002 1.25.062.422.066.797.266.421.222.61.562.187.347.187.828 0 .55-.281.938a1.8 1.8 0 0 1-.735.593v.047q.78.16 1.22.688.451.516.452 1.312M5.078-5.78q0-.282-.094-.469a.8.8 0 0 0-.296-.312 1.5 1.5 0 0 0-.594-.172q-.328-.031-.844-.032H2.047v2.204h1.312q.47 0 .75-.047.281-.047.532-.203a.83.83 0 0 0 .328-.391c.07-.164.11-.36.11-.578m.656 3.468q0-.45-.14-.718-.142-.282-.5-.469a1.8 1.8 0 0 0-.61-.156 6 6 0 0 0-.843-.047H2.047V-.86H3.39q.656 0 1.078-.063.433-.076.703-.265.28-.2.422-.454.14-.262.14-.671m0 0"/><path id="cL" d="M7.828 0H6.812v-6.578L4.688-2.11h-.609l-2.11-4.47V0h-.937v-7.64h1.375l2.031 4.25 1.97-4.25h1.421Zm0 0"/><path id="cN" d="M5.75-2.766H1.516q-.001.535.156.922.171.394.453.64.263.253.625.376c.25.086.52.125.813.125q.574 0 1.171-.235.592-.234.844-.468h.047v1.062q-.485.204-1 .344c-.336.094-.687.14-1.062.14Q2.14.143 1.342-.624q-.795-.78-.796-2.203-.001-1.405.766-2.234.761-.828 2.015-.829 1.154 0 1.781.688.64.675.641 1.922ZM4.797-3.5q0-.761-.375-1.172c-.25-.281-.633-.422-1.14-.422-.524 0-.938.157-1.25.469q-.457.457-.516 1.125Zm0 0"/><path id="cO" d="M5.734 0h-.968v-3.266q0-.387-.047-.734a1.3 1.3 0 0 0-.157-.547.72.72 0 0 0-.375-.312 1.55 1.55 0 0 0-.625-.11q-.393.002-.828.203a4.7 4.7 0 0 0-.828.485V0H.953v-5.734h.953v.64q.452-.374.938-.578.48-.218.984-.219.937 0 1.422.563.482.564.484 1.61Zm0 0"/><path id="cP" d="M4.516-4.672h-.047a2.6 2.6 0 0 0-.422-.078 8 8 0 0 0-.469-.016q-.456.002-.875.204-.41.188-.797.5V0H.953v-5.734h.953v.859q.575-.468 1.016-.656.434-.201.89-.203.264.002.376.015.106.018.328.047Zm0 0"/><path id="cQ" d="M5.594-.656c0 .976-.227 1.691-.672 2.14q-.659.687-2.031.688A7 7 0 0 1 2 2.109a7 7 0 0 1-.844-.187V.938h.047q.234.091.75.218.516.14 1.031.14.48 0 .797-.124.328-.112.516-.313.169-.203.25-.484a2.4 2.4 0 0 0 .078-.625v-.531q-.44.345-.828.515c-.262.118-.602.172-1.016.172-.68 0-1.219-.242-1.625-.734q-.61-.733-.61-2.094 0-.732.204-1.265.216-.546.578-.922.328-.375.797-.578a2.5 2.5 0 0 1 .969-.204c.32 0 .594.04.812.11a3.6 3.6 0 0 1 .719.297l.063-.25h.906Zm-.969-.922v-3.125a3.2 3.2 0 0 0-.719-.234 3 3 0 0 0-.656-.079c-.523 0-.937.18-1.25.532-.305.355-.453.87-.453 1.547q0 .971.328 1.468c.227.324.61.485 1.14.485q.423.001.844-.157a2.6 2.6 0 0 0 .766-.437m0 0"/><path id="cR" d="M5.906-5.734 2.563 2.109H1.53L2.594-.28.313-5.734h1.046l1.766 4.25 1.766-4.25Zm0 0"/><path id="cS" d="M5.406 0h-.968v-.61c-.086.063-.2.15-.344.25a2 2 0 0 1-.422.235 2.4 2.4 0 0 1-.563.203q-.315.077-.718.078c-.524 0-.965-.164-1.328-.5Q.53-.859.53-1.656q0-.655.282-1.063.281-.403.796-.625.529-.233 1.25-.312a19 19 0 0 1 1.579-.125v-.156q-.001-.328-.125-.532A.9.9 0 0 0 4-4.812a1.4 1.4 0 0 0-.5-.157 3.6 3.6 0 0 0-.594-.047c-.261 0-.547.04-.86.11a6 6 0 0 0-.952.281h-.047v-.984q.28-.075.812-.157a6 6 0 0 1 1.047-.093q.608 0 1.047.093.452.096.781.344c.22.156.383.36.5.61q.171.376.172.921Zm-.968-1.406V-3q-.439.02-1.047.078-.598.047-.938.14-.409.13-.672.376-.251.25-.25.672 0 .504.297.75c.195.168.5.25.906.25q.5 0 .922-.203a4.6 4.6 0 0 0 .781-.47m0 0"/><path id="cT" d="M5.984-2.906q-.002.721-.203 1.297-.205.564-.547.953a2.4 2.4 0 0 1-.796.61 2.3 2.3 0 0 1-.954.202Q3 .155 2.625.031a4 4 0 0 1-.719-.297L1.844 0h-.89v-7.984h.952v2.859c.27-.219.555-.398.86-.547a2.4 2.4 0 0 1 1.03-.219q1.015.001 1.595.782.592.784.593 2.203M5-2.875q-.002-1.03-.344-1.562-.344-.53-1.093-.532-.424 0-.86.188a3.4 3.4 0 0 0-.797.468v3.282q.423.189.703.265.296.064.672.063.81 0 1.266-.531.452-.528.453-1.641m0 0"/><path id="cU" d="M5.828-2.86Q5.826-1.464 5.11-.655q-.72.813-1.921.812-1.221 0-1.938-.812-.703-.81-.703-2.203 0-1.405.703-2.22c.477-.538 1.125-.812 1.938-.812.8 0 1.44.274 1.921.813.477.543.72 1.281.72 2.219m-1 0q-.002-1.106-.437-1.656-.424-.545-1.203-.546-.786 0-1.22.546-.437.55-.437 1.657 0 1.077.438 1.64.433.549 1.219.547.762.002 1.203-.547.435-.563.437-1.64m0 0"/><path id="cV" d="M5.906-5.734 3.578 0H2.61L.313-5.734h1.046l1.766 4.562 1.766-4.562Zm0 0"/><path id="cW" d="M6.016-5.328q-.001.518-.172.953a2.1 2.1 0 0 1-.5.734 2.44 2.44 0 0 1-.938.61q-.534.187-1.343.187H2.047V0H1.03v-7.64h2.063q.687 0 1.156.124c.32.075.61.196.86.36.288.199.515.445.671.734.157.281.235.649.235 1.094m-1.047.031q0-.406-.14-.687a1.2 1.2 0 0 0-.423-.485 1.8 1.8 0 0 0-.562-.218 3.5 3.5 0 0 0-.797-.079h-1v3.047h.844q.623.001 1-.11c.257-.07.468-.187.625-.343q.247-.246.343-.516c.07-.187.11-.39.11-.609m0 0"/><path id="cX" d="M5.188-.36a6 6 0 0 1-.922.36 3.7 3.7 0 0 1-2.062-.047 2.25 2.25 0 0 1-.876-.562 2.5 2.5 0 0 1-.594-.922Q.531-2.107.531-2.86q-.001-1.407.766-2.203.78-.797 2.047-.797.499 0 .969.14.466.14.875.328v1.079h-.063a3.8 3.8 0 0 0-.906-.532 2.4 2.4 0 0 0-.907-.187q-.832 0-1.312.562-.469.55-.469 1.61 0 1.047.469 1.609.469.549 1.313.547.28.001.578-.078.311-.075.547-.203.216-.106.406-.22.187-.123.281-.218h.063Zm0 0"/><path id="cY" d="M5.906 0H4.688L3.063-2.203 1.437 0H.313l2.234-2.86L.328-5.733h1.219l1.61 2.172L4.78-5.735h1.125l-2.25 2.828Zm0 0"/><path id="cZ" d="M5.734 0h-.968v-3.266q0-.387-.047-.734a1.3 1.3 0 0 0-.157-.547.72.72 0 0 0-.375-.312 1.55 1.55 0 0 0-.625-.11q-.393.002-.828.203a4.7 4.7 0 0 0-.828.485V0H.953v-7.984h.953v2.89q.452-.374.938-.578.48-.218.984-.219.937 0 1.422.563.482.564.484 1.61Zm0 0"/><path id="da" d="M5.703 0h-.969v-.64q-.486.393-.937.593a2.4 2.4 0 0 1-.985.203Q1.905.158 1.407-.39c-.336-.363-.5-.906-.5-1.625v-3.718h.969v3.265q-.002.44.031.75.047.316.188.532a.76.76 0 0 0 .344.328q.233.093.656.093.357 0 .797-.187.45-.2.843-.5v-4.281h.97Zm0 0"/><path id="db" d="M1.922 0H.953v-7.984h.969Zm0 0"/><path id="dc" d="M4.016 2.11H2.844A8.2 8.2 0 0 1 1.422-.157c-.336-.82-.5-1.75-.5-2.781 0-1.02.164-1.942.5-2.766a8.5 8.5 0 0 1 1.422-2.281h1.172v.062a6.5 6.5 0 0 0-.797.86q-.376.485-.703 1.14-.301.628-.5 1.39a6.6 6.6 0 0 0-.188 1.595q0 .877.188 1.609.186.736.5 1.39.31.622.703 1.126.405.513.797.875Zm0 0"/><path id="dd" d="M7.047-7.64 4.266 0h-1.36L.141-7.64h1.078l2.39 6.718L6.016-7.64Zm0 0"/><path id="de" d="M4.406-7.984.734 1.563h-.89L3.5-7.985Zm0 0"/><path id="df" d="M3.922-.047c-.18.043-.375.078-.594.11q-.316.046-.562.046-.892 0-1.344-.468C1.117-.672.969-1.176.969-1.875v-3.047H.313v-.812h.656v-1.641h.969v1.64h1.984v.813H1.937v2.61q-.001.455.016.718a1 1 0 0 0 .14.469.64.64 0 0 0 .313.297q.2.094.61.094.233 0 .484-.063.263-.077.375-.125h.047Zm0 0"/><path id="dg" d="M9.313 0h-.97v-3.266q0-.357-.03-.703a1.6 1.6 0 0 0-.141-.547.8.8 0 0 0-.344-.343c-.148-.07-.36-.11-.64-.11q-.41.002-.813.203a5.5 5.5 0 0 0-.797.516c.008.086.016.18.016.281q.013.157.015.297V0h-.968v-3.266q-.001-.374-.032-.718a1.6 1.6 0 0 0-.14-.547.72.72 0 0 0-.344-.328c-.148-.07-.355-.11-.625-.11a1.8 1.8 0 0 0-.797.203c-.262.125-.527.29-.797.485V0H.953v-5.734h.953v.64q.45-.374.907-.578.45-.218.953-.219.59.002 1 .25a1.6 1.6 0 0 1 .609.688q.575-.497 1.063-.719a2.5 2.5 0 0 1 1.03-.219c.626 0 1.087.196 1.391.579q.453.563.454 1.593Zm0 0"/><path id="dh" d="M3.844-2.937c0 1.03-.172 1.96-.516 2.78A8 8 0 0 1 1.922 2.11H.75v-.046a6.3 6.3 0 0 0 .797-.876A7 7 0 0 0 2.25.063c.207-.438.375-.899.5-1.391a6.5 6.5 0 0 0 .188-1.61q0-.843-.188-1.593a6.8 6.8 0 0 0-1.203-2.532q-.375-.482-.797-.859v-.062h1.172q.902 1.05 1.406 2.28.516 1.238.516 2.766m0 0"/><path id="di" d="M0-6.844v1.25l-6.828 3.625H0v.938h-7.64v-1.563l6.234-3.312h-6.235v-.938Zm0 0"/><path id="dj" d="M0-5.703v.969h-.64q.393.486.593.937.201.44.203.985.002.908-.547 1.406c-.363.336-.906.5-1.625.5h-3.718v-.969h3.265q.44.002.75-.031.316-.047.532-.188a.76.76 0 0 0 .328-.344q.093-.233.093-.656 0-.357-.187-.797-.2-.45-.5-.843h-4.281v-.97Zm0 0"/><path id="dk" d="M0-9.312v.968h-3.266q-.357.001-.703.031-.34.035-.547.141a.8.8 0 0 0-.343.344c-.07.148-.11.36-.11.64q.002.41.203.813.206.393.516.797.13-.014.281-.016.157-.013.297-.015H0v.968h-3.266q-.374.001-.718.032-.341.035-.547.14a.72.72 0 0 0-.328.344c-.07.148-.11.355-.11.625q.002.392.203.797c.125.262.29.527.485.797H0v.953h-5.734v-.953h.64q-.374-.45-.578-.907a2.2 2.2 0 0 1-.219-.953q.002-.59.25-1a1.6 1.6 0 0 1 .688-.609q-.497-.575-.719-1.062A2.5 2.5 0 0 1-5.89-7.47c0-.625.196-1.086.579-1.39q.563-.452 1.593-.453Zm0 0"/><path id="dl" d="M-2.906-5.984q.721.002 1.297.203.564.205.953.547.41.362.61.797c.132.292.202.609.202.953Q.155-3 .031-2.625a4 4 0 0 1-.297.719L0-1.844v.89h-7.984v-.952h2.859a4.4 4.4 0 0 1-.547-.86 2.4 2.4 0 0 1-.219-1.03q.001-1.015.782-1.595.784-.592 2.203-.593m.031.984q-1.03.002-1.562.344-.53.344-.532 1.093 0 .424.188.86.175.422.468.797h3.282q.189-.423.265-.703a3.2 3.2 0 0 0 .063-.672q0-.81-.531-1.266-.528-.452-1.641-.453m0 0"/><path id="dm" d="M-2.766-5.75v4.234q.535.001.922-.156.394-.171.64-.453.253-.263.376-.625c.086-.25.125-.52.125-.812q0-.575-.235-1.172-.234-.592-.468-.844v-.047h1.062q.204.485.344 1 .14.502.14 1.063.002 1.422-.765 2.218-.78.798-2.203.797c-.938 0-1.68-.254-2.234-.765q-.828-.762-.829-2.016 0-1.154.688-1.781.675-.64 1.922-.641Zm-.734.953q-.761 0-1.172.375c-.281.25-.422.633-.422 1.14 0 .524.157.938.469 1.25q.457.457 1.125.516Zm0 0"/><path id="dn" d="M-4.672-4.516v.047q-.06.224-.078.422a8 8 0 0 0-.016.469q.002.456.204.875.188.41.5.797H0v.953h-5.734v-.953h.859q-.468-.575-.656-1.016a2.1 2.1 0 0 1-.203-.89q.002-.264.015-.376.018-.106.047-.328Zm0 0"/><path id="dp" d="M-2.86-5.828q1.395.002 2.204.719.813.72.812 1.922 0 1.22-.812 1.937-.81.703-2.203.703-1.405 0-2.22-.703c-.538-.477-.812-1.125-.812-1.937 0-.801.274-1.442.813-1.922.543-.477 1.281-.72 2.219-.72m0 1q-1.106.002-1.656.437-.545.423-.546 1.204 0 .785.546 1.218.55.439 1.657.438 1.077 0 1.64-.438.549-.433.547-1.218.002-.763-.547-1.204-.563-.435-1.64-.437m0 0"/><path id="dq" d="M-7.047-4.031v.047a6 6 0 0 0-.094.422q-.046.252-.046.453 0 .626.28.906c.18.18.509.265.985.265h.188v-1.734h.812v1.703H0V-1h-4.922v.656h-.812V-1h-.188c-.676 0-1.195-.164-1.562-.5q-.546-.515-.547-1.469a5 5 0 0 1 .11-1.062Zm0 0"/><path id="dr" d="M-2.172-6.578q.44 0 .875.219.441.204.734.578.33.409.516.953.188.551.188 1.312c0 .555-.055 1.047-.157 1.485A8 8 0 0 1-.469-.687H-1.75v-.079c.324-.382.574-.828.75-1.328.18-.508.266-.984.266-1.422 0-.632-.118-1.125-.36-1.468q-.357-.53-.937-.532c-.344 0-.594.086-.75.25q-.247.252-.375.75c-.07.262-.13.543-.172.844q-.06.44-.172.938-.218 1.019-.734 1.515-.516.486-1.36.485-.951 0-1.562-.813-.61-.81-.61-2.047.002-.81.157-1.484c.093-.445.218-.844.375-1.188h1.187v.079q-.358.437-.594 1.14-.248.703-.25 1.453c0 .543.118.98.344 1.313q.33.485.86.484.486 0 .75-.234.27-.247.421-.875.066-.327.172-.922.096-.61.203-1.031.236-.857.688-1.282.456-.435 1.281-.437m0 0"/><path id="ds" d="M-.047-3.922c.043.18.078.375.11.594q.046.316.046.562 0 .892-.468 1.344c-.313.305-.817.453-1.516.453h-3.047v.657h-.812V-.97h-1.641v-.968h1.64v-1.985h.813v1.985h2.61q.455.001.718-.016a1 1 0 0 0 .469-.14.64.64 0 0 0 .297-.313q.094-.2.094-.61 0-.233-.063-.484a4 4 0 0 0-.125-.375v-.047Zm0 0"/><path id="dt" d="M-.36-5.187q.236.487.36.921.124.44.125.922c0 .406-.059.79-.172 1.14a2.25 2.25 0 0 1-.562.876 2.5 2.5 0 0 1-.922.594q-.576.204-1.328.203-1.407.001-2.203-.766-.797-.78-.797-2.047 0-.499.14-.969.14-.466.328-.875h1.079v.063a3.8 3.8 0 0 0-.532.906 2.4 2.4 0 0 0-.187.907q0 .832.562 1.312.55.47 1.61.469 1.047 0 1.609-.469.549-.468.547-1.312.001-.281-.078-.579a2.3 2.3 0 0 0-.203-.546 6 6 0 0 0-.22-.407 2 2 0 0 0-.218-.281v-.062Zm0 0"/><path id="du" d="M-1.656-5.047q.798 0 1.297.656c.336.43.5 1.016.5 1.766 0 .43-.055.82-.157 1.172q-.151.533-.328.89h-1.078v-.046c.23-.313.414-.649.547-1.016a3.1 3.1 0 0 0 .203-1.078q.001-.638-.203-1a.72.72 0 0 0-.656-.36q-.328.002-.516.204-.168.188-.297.75a7 7 0 0 0-.094.53q-.058.33-.14.61-.201.751-.578 1.063-.389.314-.953.312-.357 0-.672-.14a1.6 1.6 0 0 1-.563-.438 2.3 2.3 0 0 1-.375-.734q-.14-.45-.14-1 .001-.516.125-1.031.128-.529.297-.876h1.03v.047q-.263.377-.452.907a3 3 0 0 0-.188 1.03q.002.534.203.892.206.361.594.359c.242 0 .418-.07.531-.219.125-.144.227-.375.297-.687q.066-.282.125-.61c.043-.219.078-.398.11-.547q.156-.668.53-1.03c.25-.25.587-.376 1-.376m0 0"/><path id="dv" d="M6.484-2.125q0 1.019-.843 1.656c-.555.43-1.309.64-2.266.64a5.7 5.7 0 0 1-1.516-.187A8 8 0 0 1 .72-.437v-1.391h.078q.575.44 1.297.703c.476.168.937.25 1.375.25q.824.001 1.281-.25.47-.264.469-.844c0-.289-.086-.508-.25-.656Q4.716-2.843 4-3c-.18-.04-.406-.086-.687-.14q-.423-.078-.782-.172-.971-.264-1.375-.75-.39-.498-.39-1.235 0-.45.187-.844.188-.405.563-.734c.25-.195.562-.36.937-.484a4.1 4.1 0 0 1 1.281-.188q.656.001 1.329.172.668.157 1.125.39v1.329h-.063a4 4 0 0 0-1.156-.594c-.45-.164-.89-.25-1.328-.25q-.69.001-1.157.266c-.304.18-.453.437-.453.78 0 .306.094.532.281.688q.264.223.891.375c.227.055.485.106.766.157l.719.14q.857.205 1.328.672.468.502.468 1.297m0 0"/><path id="dw" d="M5.047-.062q-.362.093-.766.14a5 5 0 0 1-.734.063Q2.42.143 1.828-.453q-.58-.607-.578-1.953v-3.922H.406V-7.36h.844v-2.125h1.234v2.125h2.563v1.03H2.484v3.36q-.001.58.016.906.029.329.203.61a.86.86 0 0 0 .39.39c.165.086.427.125.782.125q.295 0 .625-.093.327-.094.484-.157h.063Zm0 0"/><path id="dx" d="M6.938 0H5.703v-.781l-.437.312a2.6 2.6 0 0 1-.547.313Q4.403 0 4 .094c-.262.07-.574.11-.937.11q-1.002 0-1.688-.657Q.687-1.11.688-2.141c0-.55.117-1 .359-1.343a2.3 2.3 0 0 1 1.016-.813q.687-.294 1.624-.406a30 30 0 0 1 2.016-.156v-.203c0-.282-.055-.508-.156-.688a1.05 1.05 0 0 0-.406-.437 1.7 1.7 0 0 0-.641-.204 5 5 0 0 0-.766-.062q-.485 0-1.093.14a9 9 0 0 0-1.235.36h-.062v-1.25a16 16 0 0 1 1.047-.219 7.6 7.6 0 0 1 1.343-.125q.78 0 1.36.14.576.129 1 .438.403.3.625.782.217.485.218 1.187ZM5.703-1.812V-3.86q-.564.034-1.328.093-.768.065-1.219.188-.531.156-.86.484-.327.314-.327.875 0 .627.375.953.387.315 1.172.313a2.74 2.74 0 0 0 1.187-.25 4.7 4.7 0 0 0 1-.61m0 0"/><path id="dy" d="M7.703-3.734q-.001.925-.266 1.656-.27.737-.703 1.234a3.2 3.2 0 0 1-1.03.797c-.376.164-.79.25-1.235.25A3.6 3.6 0 0 1 3.375.047a4.4 4.4 0 0 1-.922-.39L2.375 0H1.219v-10.25h1.234v3.656a5.4 5.4 0 0 1 1.11-.687 3.05 3.05 0 0 1 1.328-.282c.863 0 1.547.336 2.047 1 .507.668.765 1.61.765 2.829m-1.281.03c0-.874-.149-1.538-.438-2q-.439-.686-1.406-.687a2.8 2.8 0 0 0-1.094.235q-.55.235-1.03.61v4.218c.35.156.655.266.905.328q.389.094.86.094 1.03 0 1.61-.672.592-.684.593-2.125m0 0"/><path id="dz" d="M2.469 0H1.234v-10.25H2.47Zm0 0"/><path id="dA" d="M7.39-3.547H1.954q0 .674.203 1.188.199.503.563.812c.226.219.5.383.812.484.32.106.672.157 1.047.157q.75 0 1.5-.297.764-.311 1.094-.594h.062v1.344c-.418.18-.843.328-1.28.453q-.646.17-1.36.172-1.845 0-2.875-.984C1.039-1.477.703-2.423.703-3.641q0-1.793.985-2.859.983-1.061 2.593-1.062 1.483 0 2.297.875.812.862.813 2.468ZM6.173-4.5q-.002-.983-.484-1.516-.486-.528-1.47-.53-1 0-1.593.593-.596.58-.672 1.453Zm0 0"/><path id="dB" d="M7.328 0h-1.25v-.812a6.2 6.2 0 0 1-1.203.75 2.9 2.9 0 0 1-1.25.265Q2.452.203 1.813-.5c-.43-.477-.641-1.172-.641-2.078V-7.36h1.234v4.187q0 .564.047.969.059.391.235.672.17.297.453.437c.187.086.46.125.828.125.32 0 .672-.082 1.047-.25q.574-.264 1.062-.64v-5.5h1.25Zm0 0"/><path id="dC" d="M7.375 0H6.141v-4.187c0-.344-.024-.66-.063-.954q-.065-.45-.219-.703a.92.92 0 0 0-.468-.406q-.315-.14-.813-.14c-.336 0-.687.085-1.062.25a5.8 5.8 0 0 0-1.063.64V0H1.22v-7.36h1.234v.813a4.9 4.9 0 0 1 1.203-.75 3.3 3.3 0 0 1 1.281-.266c.79 0 1.395.243 1.813.72.414.48.625 1.167.625 2.062Zm0 0"/></defs><g clip-path="url(#a)"><path fill="#FFF" d="M-45-22.488h540v269.856H-45z"/></g><path fill="#FFF" d="M36 30h413.25v159H36Zm0 0"/><path fill="none" stroke="#D3D3D3" stroke-width=".75" d="M58.703 30v159m57.219-159v159M230.363 30v159m57.223-159v159m57.219-159v159m57.218-159v159M36 156.734h413.25M36 124.46h413.25M36 92.2h413.25M36 59.926h413.25"/><path fill="none" stroke="#EBF0F8" stroke-width="1.5" d="M173.145 30v159M36 189h413.25"/><path fill="#636EFA" d="M36 188.273h2.754V189H36Zm0 0"/><g clip-path="url(#b)"><path fill="none" stroke="#FFF" stroke-width=".375" d="M36 188.273h2.754V189H36Zm0 0"/></g><path fill="#636EFA" d="M38.754 188.113h2.758V189h-2.758Zm0 0"/><g clip-path="url(#c)"><path fill="none" stroke="#FFF" stroke-width=".375" d="M38.754 188.113h2.758V189h-2.758Zm0 0"/></g><path fill="#636EFA" d="M41.512 188.34h2.754v.66h-2.754Zm0 0"/><g clip-path="url(#d)"><path fill="none" stroke="#FFF" stroke-width=".375" d="M41.512 188.34h2.754v.66h-2.754Zm0 0"/></g><path fill="#636EFA" d="M44.266 188.078h2.75V189h-2.75Zm0 0"/><g clip-path="url(#e)"><path fill="none" stroke="#FFF" stroke-width=".375" d="M44.266 188.078h2.75V189h-2.75Zm0 0"/></g><path fill="#636EFA" d="M47.016 188.016h2.761V189h-2.761Zm0 0"/><g clip-path="url(#f)"><path fill="none" stroke="#FFF" stroke-width=".375" d="M47.016 188.016h2.761V189h-2.761Zm0 0"/></g><path fill="#636EFA" d="M49.777 188.145h2.754V189h-2.754Zm0 0"/><g clip-path="url(#g)"><path fill="none" stroke="#FFF" stroke-width=".375" d="M49.777 188.145h2.754V189h-2.754Zm0 0"/></g><path fill="#636EFA" d="M52.531 187.95h2.75V189h-2.75Zm0 0"/><g clip-path="url(#h)"><path fill="none" stroke="#FFF" stroke-width=".375" d="M52.531 187.95h2.75V189h-2.75Zm0 0"/></g><path fill="#636EFA" d="M55.281 187.906h2.762V189h-2.762Zm0 0"/><g clip-path="url(#i)"><path fill="none" stroke="#FFF" stroke-width=".375" d="M55.281 187.906h2.762V189h-2.762Zm0 0"/></g><path fill="#636EFA" d="M58.043 187.695h2.754V189h-2.754Zm0 0"/><g clip-path="url(#j)"><path fill="none" stroke="#FFF" stroke-width=".375" d="M58.043 187.695h2.754V189h-2.754Zm0 0"/></g><path fill="#636EFA" d="M60.797 187.809h2.75V189h-2.75Zm0 0"/><g clip-path="url(#k)"><path fill="none" stroke="#FFF" stroke-width=".375" d="M60.797 187.809h2.75V189h-2.75Zm0 0"/></g><path fill="#636EFA" d="M63.547 187.598h2.762V189h-2.762Zm0 0"/><g clip-path="url(#l)"><path fill="none" stroke="#FFF" stroke-width=".375" d="M63.547 187.598h2.762V189h-2.762Zm0 0"/></g><path fill="#636EFA" d="M66.309 186.996h2.75V189h-2.75Zm0 0"/><g clip-path="url(#m)"><path fill="none" stroke="#FFF" stroke-width=".375" d="M66.309 186.996h2.75V189h-2.75Zm0 0"/></g><path fill="#636EFA" d="M69.059 187.29h2.754V189h-2.754Zm0 0"/><g clip-path="url(#n)"><path fill="none" stroke="#FFF" stroke-width=".375" d="M69.059 187.29h2.754V189h-2.754Zm0 0"/></g><path fill="#636EFA" d="M71.813 187.29h2.761V189h-2.761Zm0 0"/><g clip-path="url(#o)"><path fill="none" stroke="#FFF" stroke-width=".375" d="M71.813 187.29h2.761V189h-2.761Zm0 0"/></g><path fill="#636EFA" d="M74.574 187.05h2.75V189h-2.75Zm0 0"/><g clip-path="url(#p)"><path fill="none" stroke="#FFF" stroke-width=".375" d="M74.574 187.05h2.75V189h-2.75Zm0 0"/></g><path fill="#636EFA" d="M77.324 187.371h2.754V189h-2.754Zm0 0"/><g clip-path="url(#q)"><path fill="none" stroke="#FFF" stroke-width=".375" d="M77.324 187.371h2.754V189h-2.754Zm0 0"/></g><path fill="#636EFA" d="M80.078 187.05h2.758V189h-2.758Zm0 0"/><g clip-path="url(#r)"><path fill="none" stroke="#FFF" stroke-width=".375" d="M80.078 187.05h2.758V189h-2.758Zm0 0"/></g><path fill="#636EFA" d="M82.836 186.691h2.754V189h-2.754Zm0 0"/><g clip-path="url(#s)"><path fill="none" stroke="#FFF" stroke-width=".375" d="M82.836 186.691h2.754V189h-2.754Zm0 0"/></g><path fill="#636EFA" d="M85.59 186.309h2.754V189H85.59Zm0 0"/><g clip-path="url(#t)"><path fill="none" stroke="#FFF" stroke-width=".375" d="M85.59 186.309h2.754V189H85.59Zm0 0"/></g><path fill="#636EFA" d="M88.344 186h2.758v3h-2.758Zm0 0"/><g clip-path="url(#u)"><path fill="none" stroke="#FFF" stroke-width=".375" d="M88.344 186h2.758v3h-2.758Zm0 0"/></g><path fill="#636EFA" d="M91.102 185.887h2.753V189h-2.753Zm0 0"/><g clip-path="url(#v)"><path fill="none" stroke="#FFF" stroke-width=".375" d="M91.102 185.887h2.753V189h-2.753Zm0 0"/></g><path fill="#636EFA" d="M93.855 185.527h2.754V189h-2.754Zm0 0"/><g clip-path="url(#w)"><path fill="none" stroke="#FFF" stroke-width=".375" d="M93.855 185.527h2.754V189h-2.754Zm0 0"/></g><path fill="#636EFA" d="M96.61 184.922h2.757V189H96.61Zm0 0"/><g clip-path="url(#x)"><path fill="none" stroke="#FFF" stroke-width=".375" d="M96.61 184.922h2.757V189H96.61Zm0 0"/></g><path fill="#636EFA" d="M99.367 184.559h2.754V189h-2.754Zm0 0"/><g clip-path="url(#y)"><path fill="none" stroke="#FFF" stroke-width=".375" d="M99.367 184.559h2.754V189h-2.754Zm0 0"/></g><path fill="#636EFA" d="M102.121 183.531h2.75V189h-2.75Zm0 0"/><g clip-path="url(#z)"><path fill="none" stroke="#FFF" stroke-width=".375" d="M102.121 183.531h2.75V189h-2.75Zm0 0"/></g><path fill="#636EFA" d="M104.871 183.195h2.762V189h-2.762Zm0 0"/><g clip-path="url(#A)"><path fill="none" stroke="#FFF" stroke-width=".375" d="M104.871 183.195h2.762V189h-2.762Zm0 0"/></g><path fill="#636EFA" d="M107.633 183.496h2.754V189h-2.754Zm0 0"/><g clip-path="url(#B)"><path fill="none" stroke="#FFF" stroke-width=".375" d="M107.633 183.496h2.754V189h-2.754Zm0 0"/></g><path fill="#636EFA" d="M110.387 182.79h2.75V189h-2.75Zm0 0"/><g clip-path="url(#C)"><path fill="none" stroke="#FFF" stroke-width=".375" d="M110.387 182.79h2.75V189h-2.75Zm0 0"/></g><path fill="#636EFA" d="M113.137 182.29h2.761V189h-2.761Zm0 0"/><g clip-path="url(#D)"><path fill="none" stroke="#FFF" stroke-width=".375" d="M113.137 182.29h2.761V189h-2.761Zm0 0"/></g><path fill="#636EFA" d="M115.898 181.559h2.75V189h-2.75Zm0 0"/><g clip-path="url(#E)"><path fill="none" stroke="#FFF" stroke-width=".375" d="M115.898 181.559h2.75V189h-2.75Zm0 0"/></g><path fill="#636EFA" d="M118.648 180.871h2.754V189h-2.754Zm0 0"/><g clip-path="url(#F)"><path fill="none" stroke="#FFF" stroke-width=".375" d="M118.648 180.871h2.754V189h-2.754Zm0 0"/></g><path fill="#636EFA" d="M121.402 180.172h2.762V189h-2.762Zm0 0"/><g clip-path="url(#G)"><path fill="none" stroke="#FFF" stroke-width=".375" d="M121.402 180.172h2.762V189h-2.762Zm0 0"/></g><path fill="#636EFA" d="M124.164 178.852h2.75V189h-2.75Zm0 0"/><g clip-path="url(#H)"><path fill="none" stroke="#FFF" stroke-width=".375" d="M124.164 178.852h2.75V189h-2.75Zm0 0"/></g><path fill="#636EFA" d="M126.914 178.11h2.754V189h-2.754Zm0 0"/><g clip-path="url(#I)"><path fill="none" stroke="#FFF" stroke-width=".375" d="M126.914 178.11h2.754V189h-2.754Zm0 0"/></g><path fill="#636EFA" d="M129.668 177.254h2.758V189h-2.758Zm0 0"/><g clip-path="url(#J)"><path fill="none" stroke="#FFF" stroke-width=".375" d="M129.668 177.254h2.758V189h-2.758Zm0 0"/></g><path fill="#636EFA" d="M132.426 175.629h2.754V189h-2.754Zm0 0"/><g clip-path="url(#K)"><path fill="none" stroke="#FFF" stroke-width=".375" d="M132.426 175.629h2.754V189h-2.754Zm0 0"/></g><path fill="#636EFA" d="M135.18 173.918h2.754V189h-2.754Zm0 0"/><g clip-path="url(#L)"><path fill="none" stroke="#FFF" stroke-width=".375" d="M135.18 173.918h2.754V189h-2.754Zm0 0"/></g><path fill="#636EFA" d="M137.934 170.879h2.757V189h-2.757Zm0 0"/><g clip-path="url(#M)"><path fill="none" stroke="#FFF" stroke-width=".375" d="M137.934 170.879h2.757V189h-2.757Zm0 0"/></g><path fill="#636EFA" d="M140.691 170.055h2.754V189h-2.754Zm0 0"/><g clip-path="url(#N)"><path fill="none" stroke="#FFF" stroke-width=".375" d="M140.691 170.055h2.754V189h-2.754Zm0 0"/></g><path fill="#636EFA" d="M143.445 168.344h2.754V189h-2.754Zm0 0"/><g clip-path="url(#O)"><path fill="none" stroke="#FFF" stroke-width=".375" d="M143.445 168.344h2.754V189h-2.754Zm0 0"/></g><path fill="#636EFA" d="M146.2 166.54h2.757V189h-2.758Zm0 0"/><g clip-path="url(#P)"><path fill="none" stroke="#FFF" stroke-width=".375" d="M146.2 166.54h2.757V189h-2.758Zm0 0"/></g><path fill="#636EFA" d="M148.957 162.96h2.754V189h-2.754Zm0 0"/><g clip-path="url(#Q)"><path fill="none" stroke="#FFF" stroke-width=".375" d="M148.957 162.96h2.754V189h-2.754Zm0 0"/></g><path fill="#636EFA" d="M151.71 160.898h2.75V189h-2.75Zm0 0"/><g clip-path="url(#R)"><path fill="none" stroke="#FFF" stroke-width=".375" d="M151.71 160.898h2.75V189h-2.75Zm0 0"/></g><path fill="#636EFA" d="M154.46 155.715h2.763V189h-2.762Zm0 0"/><g clip-path="url(#S)"><path fill="none" stroke="#FFF" stroke-width=".375" d="M154.46 155.715h2.763V189h-2.762Zm0 0"/></g><path fill="#636EFA" d="M157.223 152.379h2.754V189h-2.754Zm0 0"/><g clip-path="url(#T)"><path fill="none" stroke="#FFF" stroke-width=".375" d="M157.223 152.379h2.754V189h-2.754Zm0 0"/></g><path fill="#636EFA" d="M159.977 150.246h2.75V189h-2.75Zm0 0"/><g clip-path="url(#U)"><path fill="none" stroke="#FFF" stroke-width=".375" d="M159.977 150.246h2.75V189h-2.75Zm0 0"/></g><path fill="#636EFA" d="M162.727 144.984h2.761V189h-2.761Zm0 0"/><g clip-path="url(#V)"><path fill="none" stroke="#FFF" stroke-width=".375" d="M162.727 144.984h2.761V189h-2.761Zm0 0"/></g><path fill="#636EFA" d="M165.488 138.871h2.75V189h-2.75Zm0 0"/><g clip-path="url(#W)"><path fill="none" stroke="#FFF" stroke-width=".375" d="M165.488 138.871h2.75V189h-2.75Zm0 0"/></g><path fill="#636EFA" d="M168.238 130.363h2.754V189h-2.754Zm0 0"/><g clip-path="url(#X)"><path fill="none" stroke="#FFF" stroke-width=".375" d="M168.238 130.363h2.754V189h-2.754Zm0 0"/></g><path fill="#636EFA" d="M170.992 107.574h2.762V189h-2.762Zm0 0"/><g clip-path="url(#Y)"><path fill="none" stroke="#FFF" stroke-width=".375" d="M170.992 107.574h2.762V189h-2.762Zm0 0"/></g><path fill="#EF553B" d="M173.754 37.95h2.75V189h-2.75Zm0 0"/><g clip-path="url(#Z)"><path fill="none" stroke="#FFF" stroke-width=".375" d="M173.754 37.95h2.75V189h-2.75Zm0 0"/></g><path fill="#EF553B" d="M176.504 83.387h2.754V189h-2.754Zm0 0"/><g clip-path="url(#aa)"><path fill="none" stroke="#FFF" stroke-width=".375" d="M176.504 83.387h2.754V189h-2.754Zm0 0"/></g><path fill="#EF553B" d="M179.258 96.531h2.758V189h-2.758Zm0 0"/><g clip-path="url(#ab)"><path fill="none" stroke="#FFF" stroke-width=".375" d="M179.258 96.531h2.758V189h-2.758Zm0 0"/></g><path fill="#EF553B" d="M182.016 98.184h2.754V189h-2.754Zm0 0"/><g clip-path="url(#ac)"><path fill="none" stroke="#FFF" stroke-width=".375" d="M182.016 98.184h2.754V189h-2.754Zm0 0"/></g><path fill="#EF553B" d="M184.77 100.648h2.753V189h-2.753Zm0 0"/><g clip-path="url(#ad)"><path fill="none" stroke="#FFF" stroke-width=".375" d="M184.77 100.648h2.753V189h-2.753Zm0 0"/></g><path fill="#EF553B" d="M187.523 101.762h2.758V189h-2.758Zm0 0"/><g clip-path="url(#ae)"><path fill="none" stroke="#FFF" stroke-width=".375" d="M187.523 101.762h2.758V189h-2.758Zm0 0"/></g><path fill="#EF553B" d="M190.281 102.344h2.754V189h-2.754Zm0 0"/><g clip-path="url(#af)"><path fill="none" stroke="#FFF" stroke-width=".375" d="M190.281 102.344h2.754V189h-2.754Zm0 0"/></g><path fill="#EF553B" d="M193.035 103.621h2.754V189h-2.754Zm0 0"/><g clip-path="url(#ag)"><path fill="none" stroke="#FFF" stroke-width=".375" d="M193.035 103.621h2.754V189h-2.754Zm0 0"/></g><path fill="#EF553B" d="M195.79 106.004h2.757V189h-2.758Zm0 0"/><g clip-path="url(#ah)"><path fill="none" stroke="#FFF" stroke-width=".375" d="M195.79 106.004h2.757V189h-2.758Zm0 0"/></g><path fill="#EF553B" d="M198.547 108.008h2.754V189h-2.754Zm0 0"/><g clip-path="url(#ai)"><path fill="none" stroke="#FFF" stroke-width=".375" d="M198.547 108.008h2.754V189h-2.754Zm0 0"/></g><path fill="#EF553B" d="M201.3 110.91h2.75V189h-2.75Zm0 0"/><g clip-path="url(#aj)"><path fill="none" stroke="#FFF" stroke-width=".375" d="M201.3 110.91h2.75V189h-2.75Zm0 0"/></g><path fill="#EF553B" d="M204.05 111.441h2.762V189h-2.761Zm0 0"/><g clip-path="url(#ak)"><path fill="none" stroke="#FFF" stroke-width=".375" d="M204.05 111.441h2.763V189h-2.762Zm0 0"/></g><path fill="#EF553B" d="M206.813 113.266h2.753V189h-2.754Zm0 0"/><g clip-path="url(#al)"><path fill="none" stroke="#FFF" stroke-width=".375" d="M206.813 113.266h2.753V189h-2.753Zm0 0"/></g><path fill="#EF553B" d="M209.566 116.121h2.75V189h-2.75Zm0 0"/><g clip-path="url(#am)"><path fill="none" stroke="#FFF" stroke-width=".375" d="M209.566 116.121h2.75V189h-2.75Zm0 0"/></g><path fill="#EF553B" d="M212.316 117.719h2.762V189h-2.762Zm0 0"/><g clip-path="url(#an)"><path fill="none" stroke="#FFF" stroke-width=".375" d="M212.316 117.719h2.762V189h-2.762Zm0 0"/></g><path fill="#EF553B" d="M215.078 119.738h2.75V189h-2.75Zm0 0"/><g clip-path="url(#ao)"><path fill="none" stroke="#FFF" stroke-width=".375" d="M215.078 119.738h2.75V189h-2.75Zm0 0"/></g><path fill="#EF553B" d="M217.828 121.914h2.754V189h-2.754Zm0 0"/><g clip-path="url(#ap)"><path fill="none" stroke="#FFF" stroke-width=".375" d="M217.828 121.914h2.754V189h-2.754Zm0 0"/></g><path fill="#EF553B" d="M220.582 123.863h2.762V189h-2.762Zm0 0"/><g clip-path="url(#aq)"><path fill="none" stroke="#FFF" stroke-width=".375" d="M220.582 123.863h2.762V189h-2.762Zm0 0"/></g><path fill="#EF553B" d="M223.344 125.672h2.75V189h-2.75Zm0 0"/><g clip-path="url(#ar)"><path fill="none" stroke="#FFF" stroke-width=".375" d="M223.344 125.672h2.75V189h-2.75Zm0 0"/></g><path fill="#EF553B" d="M226.094 128.176h2.754V189h-2.754Zm0 0"/><g clip-path="url(#as)"><path fill="none" stroke="#FFF" stroke-width=".375" d="M226.094 128.176h2.754V189h-2.754Zm0 0"/></g><path fill="#EF553B" d="M228.848 132.059h2.761V189h-2.761Zm0 0"/><g clip-path="url(#at)"><path fill="none" stroke="#FFF" stroke-width=".375" d="M228.848 132.059h2.761V189h-2.761Zm0 0"/></g><path fill="#EF553B" d="M231.61 132.031h2.75V189h-2.75Zm0 0"/><g clip-path="url(#au)"><path fill="none" stroke="#FFF" stroke-width=".375" d="M231.61 132.031h2.75V189h-2.75Zm0 0"/></g><path fill="#EF553B" d="M234.36 132.422h2.753V189h-2.754Zm0 0"/><g clip-path="url(#av)"><path fill="none" stroke="#FFF" stroke-width=".375" d="M234.36 132.422h2.753V189h-2.754Zm0 0"/></g><path fill="#EF553B" d="M237.113 135.914h2.758V189h-2.758Zm0 0"/><g clip-path="url(#aw)"><path fill="none" stroke="#FFF" stroke-width=".375" d="M237.113 135.914h2.758V189h-2.758Zm0 0"/></g><path fill="#EF553B" d="M239.871 138.66h2.754V189h-2.754Zm0 0"/><g clip-path="url(#ax)"><path fill="none" stroke="#FFF" stroke-width=".375" d="M239.871 138.66h2.754V189h-2.754Zm0 0"/></g><path fill="#EF553B" d="M242.625 140.723h2.754V189h-2.754Zm0 0"/><g clip-path="url(#ay)"><path fill="none" stroke="#FFF" stroke-width=".375" d="M242.625 140.723h2.754V189h-2.754Zm0 0"/></g><path fill="#EF553B" d="M245.379 140.934h2.758V189h-2.758Zm0 0"/><g clip-path="url(#az)"><path fill="none" stroke="#FFF" stroke-width=".375" d="M245.379 140.934h2.758V189h-2.758Zm0 0"/></g><path fill="#EF553B" d="M248.137 144.21h2.754V189h-2.754Zm0 0"/><g clip-path="url(#aA)"><path fill="none" stroke="#FFF" stroke-width=".375" d="M248.137 144.21h2.754V189h-2.754Zm0 0"/></g><path fill="#EF553B" d="M250.89 144.871h2.75V189h-2.75Zm0 0"/><g clip-path="url(#aB)"><path fill="none" stroke="#FFF" stroke-width=".375" d="M250.89 144.871h2.75V189h-2.75Zm0 0"/></g><path fill="#EF553B" d="M253.64 144.563h2.762V189h-2.761Zm0 0"/><g clip-path="url(#aC)"><path fill="none" stroke="#FFF" stroke-width=".375" d="M253.64 144.563h2.762V189h-2.761Zm0 0"/></g><path fill="#EF553B" d="M256.402 148.762h2.754V189h-2.754Zm0 0"/><g clip-path="url(#aD)"><path fill="none" stroke="#FFF" stroke-width=".375" d="M256.402 148.762h2.754V189h-2.754Zm0 0"/></g><path fill="#EF553B" d="M259.156 148.762h2.75V189h-2.75Zm0 0"/><g clip-path="url(#aE)"><path fill="none" stroke="#FFF" stroke-width=".375" d="M259.156 148.762h2.75V189h-2.75Zm0 0"/></g><path fill="#EF553B" d="M261.906 149.715h2.762V189h-2.762Zm0 0"/><g clip-path="url(#aF)"><path fill="none" stroke="#FFF" stroke-width=".375" d="M261.906 149.715h2.762V189h-2.762Zm0 0"/></g><path fill="#EF553B" d="M264.668 152.102h2.754V189h-2.754Zm0 0"/><g clip-path="url(#aG)"><path fill="none" stroke="#FFF" stroke-width=".375" d="M264.668 152.102h2.754V189h-2.754Zm0 0"/></g><path fill="#EF553B" d="M267.422 150.809h2.75V189h-2.75Zm0 0"/><g clip-path="url(#aH)"><path fill="none" stroke="#FFF" stroke-width=".375" d="M267.422 150.809h2.75V189h-2.75Zm0 0"/></g><path fill="#EF553B" d="M270.172 152.39h2.762V189h-2.762Zm0 0"/><g clip-path="url(#aI)"><path fill="none" stroke="#FFF" stroke-width=".375" d="M270.172 152.39h2.762V189h-2.762Zm0 0"/></g><path fill="#EF553B" d="M272.934 155.2h2.75V189h-2.75Zm0 0"/><g clip-path="url(#aJ)"><path fill="none" stroke="#FFF" stroke-width=".375" d="M272.934 155.2h2.75V189h-2.75Zm0 0"/></g><path fill="#EF553B" d="M275.684 154.68h2.753V189h-2.753Zm0 0"/><g clip-path="url(#aK)"><path fill="none" stroke="#FFF" stroke-width=".375" d="M275.684 154.68h2.754V189h-2.754Zm0 0"/></g><path fill="#EF553B" d="M278.438 157.926h2.761V189h-2.762Zm0 0"/><g clip-path="url(#aL)"><path fill="none" stroke="#FFF" stroke-width=".375" d="M278.438 157.926h2.761V189h-2.761Zm0 0"/></g><path fill="#EF553B" d="M281.2 158.137h2.75V189h-2.75Zm0 0"/><g clip-path="url(#aM)"><path fill="none" stroke="#FFF" stroke-width=".375" d="M281.2 158.137h2.75V189h-2.75Zm0 0"/></g><path fill="#EF553B" d="M283.95 158.781h2.753V189h-2.754Zm0 0"/><g clip-path="url(#aN)"><path fill="none" stroke="#FFF" stroke-width=".375" d="M283.95 158.781h2.753V189h-2.754Zm0 0"/></g><path fill="#EF553B" d="M286.703 160.074h2.758V189h-2.758Zm0 0"/><g clip-path="url(#aO)"><path fill="none" stroke="#FFF" stroke-width=".375" d="M286.703 160.074h2.758V189h-2.758Zm0 0"/></g><path fill="#EF553B" d="M289.46 159.344h2.755V189h-2.754Zm0 0"/><g clip-path="url(#aP)"><path fill="none" stroke="#FFF" stroke-width=".375" d="M289.46 159.344h2.755V189h-2.754Zm0 0"/></g><path fill="#EF553B" d="M292.215 162.457h2.754V189h-2.754Zm0 0"/><g clip-path="url(#aQ)"><path fill="none" stroke="#FFF" stroke-width=".375" d="M292.215 162.457h2.754V189h-2.754Zm0 0"/></g><path fill="#EF553B" d="M294.969 162.219h2.758V189h-2.758Zm0 0"/><g clip-path="url(#aR)"><path fill="none" stroke="#FFF" stroke-width=".375" d="M294.969 162.219h2.758V189h-2.758Zm0 0"/></g><path fill="#EF553B" d="M297.727 164.203h2.753V189h-2.753Zm0 0"/><g clip-path="url(#aS)"><path fill="none" stroke="#FFF" stroke-width=".375" d="M297.727 164.203h2.753V189h-2.753Zm0 0"/></g><path fill="#EF553B" d="M300.48 165.316h2.754V189h-2.754Zm0 0"/><g clip-path="url(#aT)"><path fill="none" stroke="#FFF" stroke-width=".375" d="M300.48 165.316h2.754V189h-2.754Zm0 0"/></g><path fill="#EF553B" d="M303.234 164.281h2.758V189h-2.758Zm0 0"/><g clip-path="url(#aU)"><path fill="none" stroke="#FFF" stroke-width=".375" d="M303.234 164.281h2.758V189h-2.758Zm0 0"/></g><path fill="#EF553B" d="M305.992 164.91h2.754V189h-2.754Zm0 0"/><g clip-path="url(#aV)"><path fill="none" stroke="#FFF" stroke-width=".375" d="M305.992 164.91h2.754V189h-2.754Zm0 0"/></g><path fill="#EF553B" d="M308.746 166.621h2.75V189h-2.75Zm0 0"/><g clip-path="url(#aW)"><path fill="none" stroke="#FFF" stroke-width=".375" d="M308.746 166.621h2.75V189h-2.75Zm0 0"/></g><path fill="#EF553B" d="M311.496 167.332h2.762V189h-2.762Zm0 0"/><g clip-path="url(#aX)"><path fill="none" stroke="#FFF" stroke-width=".375" d="M311.496 167.332h2.762V189h-2.762Zm0 0"/></g><path fill="#EF553B" d="M314.258 167.625h2.754V189h-2.754Zm0 0"/><g clip-path="url(#aY)"><path fill="none" stroke="#FFF" stroke-width=".375" d="M314.258 167.625h2.754V189h-2.754Zm0 0"/></g><path fill="#EF553B" d="M317.012 170.625h2.75V189h-2.75Zm0 0"/><g clip-path="url(#aZ)"><path fill="none" stroke="#FFF" stroke-width=".375" d="M317.012 170.625h2.75V189h-2.75Zm0 0"/></g><path fill="#EF553B" d="M319.762 169.785h2.761V189h-2.761Zm0 0"/><g clip-path="url(#ba)"><path fill="none" stroke="#FFF" stroke-width=".375" d="M319.762 169.785h2.761V189h-2.761Zm0 0"/></g><path fill="#EF553B" d="M322.523 169.996h2.75V189h-2.75Zm0 0"/><g clip-path="url(#bb)"><path fill="none" stroke="#FFF" stroke-width=".375" d="M322.523 169.996h2.75V189h-2.75Zm0 0"/></g><path fill="#EF553B" d="M325.273 171.14h2.754V189h-2.754Zm0 0"/><g clip-path="url(#bc)"><path fill="none" stroke="#FFF" stroke-width=".375" d="M325.273 171.14h2.754V189h-2.754Zm0 0"/></g><path fill="#EF553B" d="M328.027 171.031h2.762V189h-2.762Zm0 0"/><g clip-path="url(#bd)"><path fill="none" stroke="#FFF" stroke-width=".375" d="M328.027 171.031h2.762V189h-2.762Zm0 0"/></g><path fill="#EF553B" d="M330.79 172.547h2.75V189h-2.75Zm0 0"/><g clip-path="url(#be)"><path fill="none" stroke="#FFF" stroke-width=".375" d="M330.79 172.547h2.75V189h-2.75Zm0 0"/></g><path fill="#EF553B" d="M333.54 172.621h2.753V189h-2.754Zm0 0"/><g clip-path="url(#bf)"><path fill="none" stroke="#FFF" stroke-width=".375" d="M333.54 172.621h2.753V189h-2.754Zm0 0"/></g><path fill="#EF553B" d="M336.293 172.012h2.758V189h-2.758Zm0 0"/><g clip-path="url(#bg)"><path fill="none" stroke="#FFF" stroke-width=".375" d="M336.293 172.012h2.758V189h-2.758Zm0 0"/></g><path fill="#EF553B" d="M339.05 173.527h2.755V189h-2.754Zm0 0"/><g clip-path="url(#bh)"><path fill="none" stroke="#FFF" stroke-width=".375" d="M339.05 173.527h2.755V189h-2.754Zm0 0"/></g><path fill="#EF553B" d="M341.805 172.883h2.754V189h-2.754Zm0 0"/><g clip-path="url(#bi)"><path fill="none" stroke="#FFF" stroke-width=".375" d="M341.805 172.883h2.754V189h-2.754Zm0 0"/></g><path fill="#EF553B" d="M344.559 174.594h2.757V189h-2.757Zm0 0"/><g clip-path="url(#bj)"><path fill="none" stroke="#FFF" stroke-width=".375" d="M344.559 174.594h2.757V189h-2.757Zm0 0"/></g><path fill="#EF553B" d="M347.316 173.707h2.754V189h-2.754Zm0 0"/><g clip-path="url(#bk)"><path fill="none" stroke="#FFF" stroke-width=".375" d="M347.316 173.707h2.754V189h-2.754Zm0 0"/></g><path fill="#EF553B" d="M350.07 174.96h2.754V189h-2.754Zm0 0"/><g clip-path="url(#bl)"><path fill="none" stroke="#FFF" stroke-width=".375" d="M350.07 174.96h2.754V189h-2.754Zm0 0"/></g><path fill="#EF553B" d="M352.824 175.477h2.758V189h-2.758Zm0 0"/><g clip-path="url(#bm)"><path fill="none" stroke="#FFF" stroke-width=".375" d="M352.824 175.477h2.758V189h-2.758Zm0 0"/></g><path fill="#EF553B" d="M355.582 176.387h2.754V189h-2.754Zm0 0"/><g clip-path="url(#bn)"><path fill="none" stroke="#FFF" stroke-width=".375" d="M355.582 176.387h2.754V189h-2.754Zm0 0"/></g><path fill="#EF553B" d="M358.336 176.484h2.75V189h-2.75Zm0 0"/><g clip-path="url(#bo)"><path fill="none" stroke="#FFF" stroke-width=".375" d="M358.336 176.484h2.75V189h-2.75Zm0 0"/></g><path fill="#EF553B" d="M361.086 177.66h2.762V189h-2.762Zm0 0"/><g clip-path="url(#bp)"><path fill="none" stroke="#FFF" stroke-width=".375" d="M361.086 177.66h2.762V189h-2.762Zm0 0"/></g><path fill="#EF553B" d="M363.848 177.074h2.754V189h-2.754Zm0 0"/><g clip-path="url(#bq)"><path fill="none" stroke="#FFF" stroke-width=".375" d="M363.848 177.074h2.754V189h-2.754Zm0 0"/></g><path fill="#EF553B" d="M366.602 176.672h2.75V189h-2.75Zm0 0"/><g clip-path="url(#br)"><path fill="none" stroke="#FFF" stroke-width=".375" d="M366.602 176.672h2.75V189h-2.75Zm0 0"/></g><path fill="#EF553B" d="M369.352 178.11h2.761V189h-2.761Zm0 0"/><g clip-path="url(#bs)"><path fill="none" stroke="#FFF" stroke-width=".375" d="M369.352 178.11h2.761V189h-2.761Zm0 0"/></g><path fill="#EF553B" d="M372.113 177.465h2.75V189h-2.75Zm0 0"/><g clip-path="url(#bt)"><path fill="none" stroke="#FFF" stroke-width=".375" d="M372.113 177.465h2.75V189h-2.75Zm0 0"/></g><path fill="#EF553B" d="M374.863 178.574h2.754V189h-2.754Zm0 0"/><g clip-path="url(#bu)"><path fill="none" stroke="#FFF" stroke-width=".375" d="M374.863 178.574h2.754V189h-2.754Zm0 0"/></g><path fill="#EF553B" d="M377.617 179.43h2.762V189h-2.762Zm0 0"/><g clip-path="url(#bv)"><path fill="none" stroke="#FFF" stroke-width=".375" d="M377.617 179.43h2.762V189h-2.762Zm0 0"/></g><path fill="#EF553B" d="M380.379 178.8h2.75V189h-2.75Zm0 0"/><g clip-path="url(#bw)"><path fill="none" stroke="#FFF" stroke-width=".375" d="M380.379 178.8h2.75V189h-2.75Zm0 0"/></g><path fill="#EF553B" d="M383.129 179.145h2.754V189h-2.754Zm0 0"/><g clip-path="url(#bx)"><path fill="none" stroke="#FFF" stroke-width=".375" d="M383.129 179.145h2.754V189h-2.754Zm0 0"/></g><path fill="#EF553B" d="M385.883 180.254h2.758V189h-2.758Zm0 0"/><g clip-path="url(#by)"><path fill="none" stroke="#FFF" stroke-width=".375" d="M385.883 180.254h2.758V189h-2.758Zm0 0"/></g><path fill="#EF553B" d="M388.64 179.234h2.755V189h-2.754Zm0 0"/><g clip-path="url(#bz)"><path fill="none" stroke="#FFF" stroke-width=".375" d="M388.64 179.234h2.755V189h-2.754Zm0 0"/></g><path fill="#EF553B" d="M391.395 180.27h2.753V189h-2.753Zm0 0"/><g clip-path="url(#bA)"><path fill="none" stroke="#FFF" stroke-width=".375" d="M391.395 180.27h2.753V189h-2.753Zm0 0"/></g><path fill="#EF553B" d="M394.148 180.531h2.758V189h-2.758Zm0 0"/><g clip-path="url(#bB)"><path fill="none" stroke="#FFF" stroke-width=".375" d="M394.148 180.531h2.758V189h-2.758Zm0 0"/></g><path fill="#EF553B" d="M396.906 180.914h2.754V189h-2.754Zm0 0"/><g clip-path="url(#bC)"><path fill="none" stroke="#FFF" stroke-width=".375" d="M396.906 180.914h2.754V189h-2.754Zm0 0"/></g><path fill="#EF553B" d="M399.66 181.027h2.754V189h-2.754Zm0 0"/><g clip-path="url(#bD)"><path fill="none" stroke="#FFF" stroke-width=".375" d="M399.66 181.027h2.754V189h-2.754Zm0 0"/></g><path fill="#EF553B" d="M402.414 181.14h2.758V189h-2.758Zm0 0"/><g clip-path="url(#bE)"><path fill="none" stroke="#FFF" stroke-width=".375" d="M402.414 181.14h2.758V189h-2.758Zm0 0"/></g><path fill="#EF553B" d="M405.172 181.094h2.754V189h-2.754Zm0 0"/><g clip-path="url(#bF)"><path fill="none" stroke="#FFF" stroke-width=".375" d="M405.172 181.094h2.754V189h-2.754Zm0 0"/></g><path fill="#EF553B" d="M407.926 181.191h2.75V189h-2.75Zm0 0"/><g clip-path="url(#bG)"><path fill="none" stroke="#FFF" stroke-width=".375" d="M407.926 181.191h2.75V189h-2.75Zm0 0"/></g><path fill="#EF553B" d="M410.676 181.688h2.762V189h-2.762Zm0 0"/><g clip-path="url(#bH)"><path fill="none" stroke="#FFF" stroke-width=".375" d="M410.676 181.688h2.762V189h-2.762Zm0 0"/></g><path fill="#EF553B" d="M413.438 182.754h2.753V189h-2.753Zm0 0"/><g clip-path="url(#bI)"><path fill="none" stroke="#FFF" stroke-width=".375" d="M413.438 182.754h2.753V189h-2.753Zm0 0"/></g><path fill="#EF553B" d="M416.191 181.965h2.75V189h-2.75Zm0 0"/><g clip-path="url(#bJ)"><path fill="none" stroke="#FFF" stroke-width=".375" d="M416.191 181.965h2.75V189h-2.75Zm0 0"/></g><path fill="#EF553B" d="M418.941 182.887h2.762V189h-2.762Zm0 0"/><g clip-path="url(#bK)"><path fill="none" stroke="#FFF" stroke-width=".375" d="M418.941 182.887h2.762V189h-2.762Zm0 0"/></g><path fill="#EF553B" d="M421.703 182.79h2.75V189h-2.75Zm0 0"/><g clip-path="url(#bL)"><path fill="none" stroke="#FFF" stroke-width=".375" d="M421.703 182.79h2.75V189h-2.75Zm0 0"/></g><path fill="#EF553B" d="M424.453 183.129h2.754V189h-2.754Zm0 0"/><g clip-path="url(#bM)"><path fill="none" stroke="#FFF" stroke-width=".375" d="M424.453 183.129h2.754V189h-2.754Zm0 0"/></g><path fill="#EF553B" d="M427.207 183.406h2.762V189h-2.762Zm0 0"/><g clip-path="url(#bN)"><path fill="none" stroke="#FFF" stroke-width=".375" d="M427.207 183.406h2.762V189h-2.762Zm0 0"/></g><path fill="#EF553B" d="M429.969 183.563h2.75V189h-2.75Zm0 0"/><g clip-path="url(#bO)"><path fill="none" stroke="#FFF" stroke-width=".375" d="M429.969 183.563h2.75V189h-2.75Zm0 0"/></g><path fill="#EF553B" d="M432.719 183.984h2.754V189h-2.754Zm0 0"/><g clip-path="url(#bP)"><path fill="none" stroke="#FFF" stroke-width=".375" d="M432.719 183.984h2.754V189h-2.754Zm0 0"/></g><path fill="#EF553B" d="M435.473 183.887h2.761V189h-2.761Zm0 0"/><g clip-path="url(#bQ)"><path fill="none" stroke="#FFF" stroke-width=".375" d="M435.473 183.887h2.761V189h-2.761Zm0 0"/></g><path fill="#EF553B" d="M438.234 183.563h2.75V189h-2.75Zm0 0"/><g clip-path="url(#bR)"><path fill="none" stroke="#FFF" stroke-width=".375" d="M438.234 183.563h2.75V189h-2.75Zm0 0"/></g><path fill="#EF553B" d="M440.984 184.094h2.754V189h-2.754Zm0 0"/><g clip-path="url(#bS)"><path fill="none" stroke="#FFF" stroke-width=".375" d="M440.984 184.094h2.754V189h-2.754Zm0 0"/></g><path fill="#EF553B" d="M443.738 183.887h2.758V189h-2.758Zm0 0"/><g clip-path="url(#bT)"><path fill="none" stroke="#FFF" stroke-width=".375" d="M443.738 183.887h2.758V189h-2.758Zm0 0"/></g><g clip-path="url(#bU)"><path fill="#EF553B" d="M446.496 184.012h2.754V189h-2.754Zm0 0"/></g><g clip-path="url(#bV)"><path fill="none" stroke="#FFF" stroke-width=".375" d="M446.496 184.012h2.754V189h-2.754Zm0 0"/></g><path fill="none" stroke="#000" stroke-width=".75" d="M35.25 189.375H450M35.25 29.625H450M35.625 30v159m414-159v159"/><path fill="none" stroke="#444" stroke-width=".75" d="M58.703 189.75v3.75m57.219-3.75v3.75m57.223-3.75v3.75m57.218-3.75v3.75m57.223-3.75v3.75m57.219-3.75v3.75m57.218-3.75v3.75"/><g fill="#2A3F5F"><use xlink:href="#bW" x="47.661" y="204.3"/><use xlink:href="#bX" x="55.026" y="204.3"/><use xlink:href="#bY" x="60.748" y="204.3"/><use xlink:href="#bZ" x="64.022" y="204.3"/></g><g fill="#2A3F5F"><use xlink:href="#bW" x="104.879" y="204.3"/><use xlink:href="#bX" x="112.244" y="204.3"/><use xlink:href="#bY" x="117.966" y="204.3"/><use xlink:href="#ca" x="121.24" y="204.3"/></g><use xlink:href="#bX" x="170.284" y="204.3" fill="#2A3F5F"/><g fill="#2A3F5F"><use xlink:href="#bX" x="223.004" y="204.3"/><use xlink:href="#bY" x="228.726" y="204.3"/><use xlink:href="#ca" x="231.999" y="204.3"/></g><g fill="#2A3F5F"><use xlink:href="#bX" x="280.229" y="204.3"/><use xlink:href="#bY" x="285.951" y="204.3"/><use xlink:href="#bZ" x="289.224" y="204.3"/></g><g fill="#2A3F5F"><use xlink:href="#bX" x="337.446" y="204.3"/><use xlink:href="#bY" x="343.168" y="204.3"/><use xlink:href="#cb" x="346.442" y="204.3"/></g><g fill="#2A3F5F"><use xlink:href="#bX" x="394.664" y="204.3"/><use xlink:href="#bY" x="400.386" y="204.3"/><use xlink:href="#cc" x="403.659" y="204.3"/></g><path fill="none" stroke="#444" stroke-width=".75" d="M35.25 189H31.5m3.75-32.266H31.5m3.75-32.274H31.5m3.75-32.26H31.5m3.75-32.274H31.5"/><use xlink:href="#bX" x="23.978" y="192.15" fill="#2A3F5F"/><g fill="#2A3F5F"><use xlink:href="#bZ" x="18.652" y="159.885"/><use xlink:href="#cd" x="24.374" y="159.885"/></g><g fill="#2A3F5F"><use xlink:href="#cc" x="18.652" y="127.612"/><use xlink:href="#cd" x="24.374" y="127.612"/></g><g fill="#2A3F5F"><use xlink:href="#ce" x="18.652" y="95.347"/><use xlink:href="#cd" x="24.374" y="95.347"/></g><g fill="#2A3F5F"><use xlink:href="#cf" x="18.652" y="63.075"/><use xlink:href="#cd" x="24.374" y="63.075"/></g><path fill="#2A3F5F" d="M240.121 189v-6.75h2.25V189m-2.25-13.5v-6.75h2.25v6.75m-2.25-13.5v-6.75h2.25V162m-2.25-13.5v-6.75h2.25v6.75m-2.25-13.5v-6.75h2.25V135m-2.25-13.5v-6.75h2.25v6.75m-2.25-13.5v-6.75h2.25V108m-2.25-13.5v-6.75h2.25v6.75m-2.25-13.5v-6.75h2.25V81m-2.25-13.5v-6.75h2.25v6.75m-2.25-13.5v-6.75h2.25V54m-2.25-13.5v-6.75h2.25v6.75M137.184 189v-6.75h1.5V189m-1.5-13.5v-6.75h1.5v6.75m-1.5-13.5v-6.75h1.5V162m-1.5-13.5v-6.75h1.5v6.75m-1.5-13.5v-6.75h1.5V135m-1.5-13.5v-6.75h1.5v6.75m-1.5-13.5v-6.75h1.5V108m-1.5-13.5v-6.75h1.5v6.75m-1.5-13.5v-6.75h1.5V81m-1.5-13.5v-6.75h1.5v6.75m-1.5-13.5v-6.75h1.5V54m-1.5-13.5v-6.75h1.5v6.75M343.809 189v-6.75h1.5V189m-1.5-13.5v-6.75h1.5v6.75m-1.5-13.5v-6.75h1.5V162m-1.5-13.5v-6.75h1.5v6.75m-1.5-13.5v-6.75h1.5V135m-1.5-13.5v-6.75h1.5v6.75m-1.5-13.5v-6.75h1.5V108m-1.5-13.5v-6.75h1.5v6.75m-1.5-13.5v-6.75h1.5V81m-1.5-13.5v-6.75h1.5v6.75m-1.5-13.5v-6.75h1.5V54m-1.5-13.5v-6.75h1.5v6.75"/><g fill="#2A3F5F"><use xlink:href="#cg" x="6.489" y="19.65"/><use xlink:href="#ch" x="14.118" y="19.65"/><use xlink:href="#ci" x="21.747" y="19.65"/><use xlink:href="#cj" x="29.376" y="19.65"/><use xlink:href="#ck" x="37.69" y="19.65"/><use xlink:href="#cl" x="41.909" y="19.65"/><use xlink:href="#cm" x="48.161" y="19.65"/><use xlink:href="#cn" x="52.89" y="19.65"/><use xlink:href="#co" x="58.011" y="19.65"/><use xlink:href="#cp" x="65.604" y="19.65"/><use xlink:href="#cm" x="71.856" y="19.65"/><use xlink:href="#co" x="76.585" y="19.65"/><use xlink:href="#cn" x="84.179" y="19.65"/><use xlink:href="#cq" x="89.3" y="19.65"/><use xlink:href="#cl" x="96.448" y="19.65"/><use xlink:href="#ck" x="102.7" y="19.65"/><use xlink:href="#cr" x="106.919" y="19.65"/><use xlink:href="#cs" x="116.739" y="19.65"/><use xlink:href="#cm" x="120.032" y="19.65"/><use xlink:href="#ct" x="124.761" y="19.65"/><use xlink:href="#ck" x="132.354" y="19.65"/><use xlink:href="#cu" x="136.573" y="19.65"/><use xlink:href="#cv" x="144.202" y="19.65"/><use xlink:href="#cj" x="151.831" y="19.65"/><use xlink:href="#ck" x="160.146" y="19.65"/><use xlink:href="#cl" x="164.364" y="19.65"/><use xlink:href="#cm" x="170.616" y="19.65"/><use xlink:href="#cw" x="175.345" y="19.65"/><use xlink:href="#cx" x="182.552" y="19.65"/><use xlink:href="#cy" x="190.028" y="19.65"/><use xlink:href="#cq" x="193.321" y="19.65"/><use xlink:href="#ck" x="200.47" y="19.65"/><use xlink:href="#cz" x="204.688" y="19.65"/><use xlink:href="#ck" x="214.509" y="19.65"/><use xlink:href="#cg" x="218.728" y="19.65"/><use xlink:href="#cA" x="226.356" y="19.65"/><use xlink:href="#cu" x="233.985" y="19.65"/><use xlink:href="#cj" x="241.614" y="19.65"/><use xlink:href="#ck" x="249.929" y="19.65"/><use xlink:href="#co" x="254.147" y="19.65"/><use xlink:href="#cB" x="261.741" y="19.65"/><use xlink:href="#cl" x="269.335" y="19.65"/><use xlink:href="#cm" x="275.587" y="19.65"/><use xlink:href="#cw" x="280.315" y="19.65"/><use xlink:href="#cx" x="287.522" y="19.65"/><use xlink:href="#cy" x="294.999" y="19.65"/><use xlink:href="#cq" x="298.292" y="19.65"/><use xlink:href="#ck" x="305.44" y="19.65"/><use xlink:href="#cC" x="309.659" y="19.65"/><use xlink:href="#cl" x="315.108" y="19.65"/><use xlink:href="#cm" x="321.36" y="19.65"/><use xlink:href="#cw" x="326.089" y="19.65"/><use xlink:href="#cx" x="333.296" y="19.65"/><use xlink:href="#cy" x="340.772" y="19.65"/><use xlink:href="#cq" x="344.065" y="19.65"/><use xlink:href="#ck" x="351.214" y="19.65"/><use xlink:href="#cn" x="355.433" y="19.65"/><use xlink:href="#cw" x="360.554" y="19.65"/><use xlink:href="#cm" x="367.761" y="19.65"/><use xlink:href="#cq" x="372.489" y="19.65"/><use xlink:href="#ck" x="379.638" y="19.65"/><use xlink:href="#cD" x="383.856" y="19.65"/><use xlink:href="#ck" x="393.677" y="19.65"/><use xlink:href="#cA" x="397.895" y="19.65"/><use xlink:href="#cE" x="405.524" y="19.65"/><use xlink:href="#cF" x="413.153" y="19.65"/><use xlink:href="#ci" x="417.519" y="19.65"/><use xlink:href="#cG" x="425.147" y="19.65"/><use xlink:href="#cH" x="438.062" y="19.65"/></g><g fill="#2A3F5F" clip-path="url(#cI)"><use xlink:href="#cJ" x="121.211" y="222.75"/><use xlink:href="#cK" x="131.593" y="222.75"/><use xlink:href="#cL" x="138.791" y="222.75"/><use xlink:href="#cM" x="147.64" y="222.75"/><use xlink:href="#cN" x="151.332" y="222.75"/><use xlink:href="#cO" x="157.587" y="222.75"/><use xlink:href="#cN" x="164.231" y="222.75"/><use xlink:href="#cP" x="170.486" y="222.75"/><use xlink:href="#cQ" x="174.967" y="222.75"/><use xlink:href="#cR" x="181.509" y="222.75"/><use xlink:href="#cM" x="187.723" y="222.75"/><use xlink:href="#cS" x="191.414" y="222.75"/><use xlink:href="#cT" x="197.721" y="222.75"/><use xlink:href="#cU" x="204.263" y="222.75"/><use xlink:href="#cV" x="210.635" y="222.75"/><use xlink:href="#cN" x="216.849" y="222.75"/><use xlink:href="#cM" x="223.104" y="222.75"/><use xlink:href="#cL" x="226.796" y="222.75"/><use xlink:href="#cW" x="235.645" y="222.75"/><use xlink:href="#cM" x="241.976" y="222.75"/><use xlink:href="#cX" x="245.668" y="222.75"/><use xlink:href="#cU" x="251.138" y="222.75"/><use xlink:href="#cO" x="257.511" y="222.75"/><use xlink:href="#cV" x="264.156" y="222.75"/><use xlink:href="#cN" x="270.369" y="222.75"/><use xlink:href="#cY" x="276.624" y="222.75"/><use xlink:href="#cM" x="282.838" y="222.75"/><use xlink:href="#cZ" x="286.53" y="222.75"/><use xlink:href="#da" x="293.174" y="222.75"/><use xlink:href="#db" x="299.819" y="222.75"/><use xlink:href="#db" x="302.7" y="222.75"/><use xlink:href="#cM" x="305.581" y="222.75"/><use xlink:href="#dc" x="309.273" y="222.75"/><use xlink:href="#cN" x="314.041" y="222.75"/><use xlink:href="#dd" x="320.296" y="222.75"/><use xlink:href="#de" x="327.473" y="222.75"/><use xlink:href="#cS" x="332.242" y="222.75"/><use xlink:href="#df" x="338.548" y="222.75"/><use xlink:href="#cU" x="342.685" y="222.75"/><use xlink:href="#dg" x="349.058" y="222.75"/><use xlink:href="#dh" x="359.271" y="222.75"/></g><g fill="#2A3F5F"><use xlink:href="#di" x="10.5" y="166.668"/><use xlink:href="#dj" x="10.5" y="158.814"/><use xlink:href="#dk" x="10.5" y="152.169"/><use xlink:href="#dl" x="10.5" y="141.956"/><use xlink:href="#dm" x="10.5" y="135.414"/><use xlink:href="#dn" x="10.5" y="129.159"/><use xlink:href="#do" x="10.5" y="124.678"/><use xlink:href="#dp" x="10.5" y="120.987"/><use xlink:href="#dq" x="10.5" y="114.614"/><use xlink:href="#do" x="10.5" y="110.923"/><use xlink:href="#dr" x="10.5" y="107.231"/><use xlink:href="#ds" x="10.5" y="100.054"/><use xlink:href="#dn" x="10.5" y="95.916"/><use xlink:href="#dj" x="10.5" y="91.435"/><use xlink:href="#dt" x="10.5" y="84.791"/><use xlink:href="#ds" x="10.5" y="79.32"/><use xlink:href="#dj" x="10.5" y="75.183"/><use xlink:href="#dn" x="10.5" y="68.538"/><use xlink:href="#dm" x="10.5" y="64.057"/><use xlink:href="#du" x="10.5" y="57.802"/></g><g fill="#636EFA"><use xlink:href="#dv" x="66.011" y="114.75"/><use xlink:href="#dw" x="73.044" y="114.75"/><use xlink:href="#dx" x="78.364" y="114.75"/><use xlink:href="#dy" x="86.472" y="114.75"/><use xlink:href="#dz" x="94.883" y="114.75"/><use xlink:href="#dA" x="98.588" y="114.75"/></g><g fill="#EF553B"><use xlink:href="#dB" x="255.011" y="114.75"/><use xlink:href="#dC" x="263.554" y="114.75"/><use xlink:href="#dv" x="272.097" y="114.75"/><use xlink:href="#dw" x="279.13" y="114.75"/><use xlink:href="#dx" x="284.45" y="114.75"/><use xlink:href="#dy" x="292.558" y="114.75"/><use xlink:href="#dz" x="300.969" y="114.75"/><use xlink:href="#dA" x="304.674" y="114.75"/></g><g fill="#2A3F5F"><use xlink:href="#dD" x="177.01" y="48"/><use xlink:href="#dE" x="185.763" y="48"/><use xlink:href="#dF" x="191.125" y="48"/><use xlink:href="#dG" x="196.53" y="48"/><use xlink:href="#dH" x="202.225" y="48"/><use xlink:href="#dI" x="205.389" y="48"/><use xlink:href="#dH" x="212.755" y="48"/><use xlink:href="#bX" x="215.919" y="48"/><use xlink:href="#bY" x="221.64" y="48"/><use xlink:href="#ca" x="224.914" y="48"/><use xlink:href="#bZ" x="230.636" y="48"/></g><g fill="#2A3F5F"><use xlink:href="#dD" x="45.005" y="48"/><use xlink:href="#dE" x="53.759" y="48"/><use xlink:href="#dF" x="59.12" y="48"/><use xlink:href="#dG" x="64.526" y="48"/><use xlink:href="#dH" x="70.221" y="48"/><use xlink:href="#dJ" x="73.385" y="48"/><use xlink:href="#dH" x="77.472" y="48"/><use xlink:href="#dK" x="80.636" y="48"/><use xlink:href="#dL" x="85.325" y="48"/><use xlink:href="#dM" x="88.871" y="48"/><use xlink:href="#dH" x="94.479" y="48"/><use xlink:href="#dI" x="97.643" y="48"/><use xlink:href="#dH" x="105.008" y="48"/><use xlink:href="#dJ" x="108.172" y="48"/><use xlink:href="#bX" x="112.259" y="48"/><use xlink:href="#bY" x="117.981" y="48"/><use xlink:href="#bX" x="121.255" y="48"/><use xlink:href="#ce" x="126.976" y="48"/></g><g fill="#2A3F5F"><use xlink:href="#dD" x="252.011" y="48"/><use xlink:href="#dE" x="260.765" y="48"/><use xlink:href="#dF" x="266.126" y="48"/><use xlink:href="#dG" x="271.531" y="48"/><use xlink:href="#dH" x="277.227" y="48"/><use xlink:href="#dN" x="280.391" y="48"/><use xlink:href="#dH" x="287.756" y="48"/><use xlink:href="#dK" x="290.92" y="48"/><use xlink:href="#dL" x="295.609" y="48"/><use xlink:href="#dM" x="299.156" y="48"/><use xlink:href="#dH" x="304.763" y="48"/><use xlink:href="#dI" x="307.927" y="48"/><use xlink:href="#dH" x="315.292" y="48"/><use xlink:href="#bX" x="318.456" y="48"/><use xlink:href="#bY" x="324.178" y="48"/><use xlink:href="#cb" x="327.452" y="48"/><use xlink:href="#bX" x="333.174" y="48"/></g></svg>