<svg xmlns="http://www.w3.org/2000/svg" xmlns:xlink="http://www.w3.org/1999/xlink" width="525.12" height="375.12"><defs><clipPath id="a"><path d="M48 317h4v22h-4Zm0 0"/></clipPath><clipPath id="b"><path d="M50 314h5v25h-5Zm0 0"/></clipPath><clipPath id="c"><path d="M54 317h4v22h-4Zm0 0"/></clipPath><clipPath id="d"><path d="M57 315h4v24h-4Zm0 0"/></clipPath><clipPath id="e"><path d="M60 312h5v27h-5Zm0 0"/></clipPath><clipPath id="f"><path d="M63 312h5v27h-5Zm0 0"/></clipPath><clipPath id="g"><path d="M66 313h5v26h-5Zm0 0"/></clipPath><clipPath id="h"><path d="M70 315h4v24h-4Zm0 0"/></clipPath><clipPath id="i"><path d="M73 318h4v21h-4Zm0 0"/></clipPath><clipPath id="j"><path d="M76 313h4v26h-4Zm0 0"/></clipPath><clipPath id="k"><path d="M79 309h5v30h-5Zm0 0"/></clipPath><clipPath id="l"><path d="M82 312h5v27h-5Zm0 0"/></clipPath><clipPath id="m"><path d="M85 314h5v25h-5Zm0 0"/></clipPath><clipPath id="n"><path d="M89 311h4v28h-4Zm0 0"/></clipPath><clipPath id="o"><path d="M92 312h4v27h-4Zm0 0"/></clipPath><clipPath id="p"><path d="M95 313h4v26h-4Zm0 0"/></clipPath><clipPath id="q"><path d="M98 313h5v26h-5Zm0 0"/></clipPath><clipPath id="r"><path d="M101 313h5v26h-5Zm0 0"/></clipPath><clipPath id="s"><path d="M104 313h5v26h-5Zm0 0"/></clipPath><clipPath id="t"><path d="M108 313h4v26h-4Zm0 0"/></clipPath><clipPath id="u"><path d="M111 315h4v24h-4Zm0 0"/></clipPath><clipPath id="v"><path d="M114 318h5v21h-5Zm0 0"/></clipPath><clipPath id="w"><path d="M117 313h5v26h-5Zm0 0"/></clipPath><clipPath id="x"><path d="M120 316h5v23h-5Zm0 0"/></clipPath><clipPath id="y"><path d="M124 313h4v26h-4Zm0 0"/></clipPath><clipPath id="z"><path d="M127 311h4v28h-4Zm0 0"/></clipPath><clipPath id="A"><path d="M130 311h4v28h-4Zm0 0"/></clipPath><clipPath id="B"><path d="M133 309h5v30h-5Zm0 0"/></clipPath><clipPath id="C"><path d="M136 314h5v25h-5Zm0 0"/></clipPath><clipPath id="D"><path d="M139 309h5v30h-5Zm0 0"/></clipPath><clipPath id="E"><path d="M143 312h4v27h-4Zm0 0"/></clipPath><clipPath id="F"><path d="M146 312h4v27h-4Zm0 0"/></clipPath><clipPath id="G"><path d="M149 311h4v28h-4Zm0 0"/></clipPath><clipPath id="H"><path d="M152 310h5v29h-5Zm0 0"/></clipPath><clipPath id="I"><path d="M155 306h5v33h-5Zm0 0"/></clipPath><clipPath id="J"><path d="M158 308h5v31h-5Zm0 0"/></clipPath><clipPath id="K"><path d="M162 306h4v33h-4Zm0 0"/></clipPath><clipPath id="L"><path d="M165 307h4v32h-4Zm0 0"/></clipPath><clipPath id="M"><path d="M168 307h5v32h-5Zm0 0"/></clipPath><clipPath id="N"><path d="M171 305h5v34h-5Zm0 0"/></clipPath><clipPath id="O"><path d="M174 304h5v35h-5Zm0 0"/></clipPath><clipPath id="P"><path d="M177 301h5v38h-5Zm0 0"/></clipPath><clipPath id="Q"><path d="M181 300h4v39h-4Zm0 0"/></clipPath><clipPath id="R"><path d="M184 301h4v38h-4Zm0 0"/></clipPath><clipPath id="S"><path d="M187 301h5v38h-5Zm0 0"/></clipPath><clipPath id="T"><path d="M190 298h5v41h-5Zm0 0"/></clipPath><clipPath id="U"><path d="M193 301h5v38h-5Zm0 0"/></clipPath><clipPath id="V"><path d="M197 295h4v44h-4Zm0 0"/></clipPath><clipPath id="W"><path d="M200 297h4v42h-4Zm0 0"/></clipPath><clipPath id="X"><path d="M203 292h4v47h-4Zm0 0"/></clipPath><clipPath id="Y"><path d="M206 297h5v42h-5Zm0 0"/></clipPath><clipPath id="Z"><path d="M209 292h5v47h-5Zm0 0"/></clipPath><clipPath id="aa"><path d="M212 294h5v45h-5Zm0 0"/></clipPath><clipPath id="ab"><path d="M216 292h4v47h-4Zm0 0"/></clipPath><clipPath id="ac"><path d="M219 292h4v47h-4Zm0 0"/></clipPath><clipPath id="ad"><path d="M222 290h4v49h-4Zm0 0"/></clipPath><clipPath id="ae"><path d="M225 287h5v52h-5Zm0 0"/></clipPath><clipPath id="af"><path d="M228 287h5v52h-5Zm0 0"/></clipPath><clipPath id="ag"><path d="M231 286h5v53h-5Zm0 0"/></clipPath><clipPath id="ah"><path d="M235 283h4v56h-4Zm0 0"/></clipPath><clipPath id="ai"><path d="M238 279h4v60h-4Zm0 0"/></clipPath><clipPath id="aj"><path d="M241 278h5v61h-5Zm0 0"/></clipPath><clipPath id="ak"><path d="M244 278h5v61h-5Zm0 0"/></clipPath><clipPath id="al"><path d="M247 271h5v68h-5Zm0 0"/></clipPath><clipPath id="am"><path d="M251 272h4v67h-4Zm0 0"/></clipPath><clipPath id="an"><path d="M254 269h4v70h-4Zm0 0"/></clipPath><clipPath id="ao"><path d="M257 257h4v82h-4Zm0 0"/></clipPath><clipPath id="ap"><path d="M260 257h5v82h-5Zm0 0"/></clipPath><clipPath id="aq"><path d="M263 243h5v96h-5Zm0 0"/></clipPath><clipPath id="ar"><path d="M266 229h5v110h-5Zm0 0"/></clipPath><clipPath id="as"><path d="M270 224h4v115h-4Zm0 0"/></clipPath><clipPath id="at"><path d="M273 220h4v119h-4Zm0 0"/></clipPath><clipPath id="au"><path d="M276 218h4v121h-4Zm0 0"/></clipPath><clipPath id="av"><path d="M279 210h5v129h-5Zm0 0"/></clipPath><clipPath id="aw"><path d="M282 195h5v144h-5Zm0 0"/></clipPath><clipPath id="ax"><path d="M285 186h5v153h-5Zm0 0"/></clipPath><clipPath id="ay"><path d="M289 175h4v164h-4Zm0 0"/></clipPath><clipPath id="az"><path d="M292 168h4v171h-4Zm0 0"/></clipPath><clipPath id="aA"><path d="M295 159h5v180h-5Zm0 0"/></clipPath><clipPath id="aB"><path d="M298 151h5v188h-5Zm0 0"/></clipPath><clipPath id="aC"><path d="M301 138h5v201h-5Zm0 0"/></clipPath><clipPath id="aD"><path d="M304 121h5v218h-5Zm0 0"/></clipPath><clipPath id="aE"><path d="M308 108h4v231h-4Zm0 0"/></clipPath><clipPath id="aF"><path d="M311 102h4v237h-4Zm0 0"/></clipPath><clipPath id="aG"><path d="M314 112h5v227h-5Zm0 0"/></clipPath><clipPath id="aH"><path d="M317 98h5v241h-5Zm0 0"/></clipPath><clipPath id="aI"><path d="M320 88h5v251h-5Zm0 0"/></clipPath><clipPath id="aJ"><path d="M324 78h4v261h-4Zm0 0"/></clipPath><clipPath id="aK"><path d="M327 76h4v263h-4Zm0 0"/></clipPath><clipPath id="aL"><path d="M330 63h4v276h-4Zm0 0"/></clipPath><clipPath id="aM"><path d="M333 52h5v287h-5Zm0 0"/></clipPath><clipPath id="aN"><path d="M336 58h5v281h-5Zm0 0"/></clipPath><clipPath id="aO"><path d="M339 51h5v288h-5Zm0 0"/></clipPath><clipPath id="aP"><path d="M343 49h4v290h-4Zm0 0"/></clipPath><clipPath id="aQ"><path d="M346 45h4v294h-4Zm0 0"/></clipPath><clipPath id="aR"><path d="M349 57h4v282h-4Zm0 0"/></clipPath><clipPath id="aS"><path d="M352 71h5v268h-5Zm0 0"/></clipPath><clipPath id="aT"><path d="M355 78h5v261h-5Zm0 0"/></clipPath><clipPath id="aU"><path d="M358 99h5v240h-5Zm0 0"/></clipPath><clipPath id="aV"><path d="M362 105h4v234h-4Zm0 0"/></clipPath><clipPath id="aW"><path d="M365 115h4v224h-4Zm0 0"/></clipPath><clipPath id="aX"><path d="M368 123h5v216h-5Zm0 0"/></clipPath><clipPath id="aY"><path d="M371 138h5v201h-5Zm0 0"/></clipPath><clipPath id="aZ"><path d="M374 149h5v190h-5Zm0 0"/></clipPath><clipPath id="ba"><path d="M378 157h4v182h-4Zm0 0"/></clipPath><clipPath id="bb"><path d="M381 167h4v172h-4Zm0 0"/></clipPath><clipPath id="bc"><path d="M384 175h4v164h-4Zm0 0"/></clipPath><clipPath id="bd"><path d="M387 178h5v161h-5Zm0 0"/></clipPath><clipPath id="be"><path d="M390 186h5v153h-5Zm0 0"/></clipPath><clipPath id="bf"><path d="M393 198h5v141h-5Zm0 0"/></clipPath><clipPath id="bg"><path d="M397 209h4v130h-4Zm0 0"/></clipPath><clipPath id="bh"><path d="M400 224h4v115h-4Zm0 0"/></clipPath><clipPath id="bi"><path d="M403 236h4v103h-4Zm0 0"/></clipPath><clipPath id="bj"><path d="M406 247h5v92h-5Zm0 0"/></clipPath><clipPath id="bk"><path d="M409 260h5v79h-5Zm0 0"/></clipPath><clipPath id="bl"><path d="M412 269h5v70h-5Zm0 0"/></clipPath><clipPath id="bm"><path d="M416 274h4v65h-4Zm0 0"/></clipPath><clipPath id="bn"><path d="M419 284h4v55h-4Zm0 0"/></clipPath><clipPath id="bo"><path d="M422 289h5v50h-5Zm0 0"/></clipPath><clipPath id="bp"><path d="M425 294h5v45h-5Zm0 0"/></clipPath><clipPath id="bq"><path d="M428 301h5v38h-5Zm0 0"/></clipPath><clipPath id="br"><path d="M431 305h5v34h-5Zm0 0"/></clipPath><clipPath id="bs"><path d="M435 310h4v29h-4Zm0 0"/></clipPath><clipPath id="bt"><path d="M438 314h4v25h-4Zm0 0"/></clipPath><clipPath id="bu"><path d="M441 319h5v20h-5Zm0 0"/></clipPath><clipPath id="bv"><path d="M444 320h5v19h-5Zm0 0"/></clipPath><clipPath id="bw"><path d="M447 322h5v17h-5Zm0 0"/></clipPath><clipPath id="bx"><path d="M451 325h4v14h-4Zm0 0"/></clipPath><clipPath id="by"><path d="M454 326h4v13h-4Zm0 0"/></clipPath><clipPath id="bz"><path d="M457 327h4v12h-4Zm0 0"/></clipPath><clipPath id="bA"><path d="M460 329h5v10h-5Zm0 0"/></clipPath><clipPath id="bB"><path d="M463 330h5v9h-5Zm0 0"/></clipPath><clipPath id="bC"><path d="M466 331h5v8h-5Zm0 0"/></clipPath><clipPath id="bD"><path d="M470 332h4v7h-4Zm0 0"/></clipPath><clipPath id="bE"><path d="M473 332h4v7h-4Zm0 0"/></clipPath><clipPath id="bF"><path d="M476 333h4v6h-4Zm0 0"/></clipPath><clipPath id="bG"><path d="M479 333h5v6h-5Zm0 0"/></clipPath><clipPath id="bH"><path d="M482 335h5v4h-5Zm0 0"/></clipPath><clipPath id="bI"><path d="M485 334h5v5h-5Zm0 0"/></clipPath><clipPath id="bJ"><path d="M489 335h4v4h-4Zm0 0"/></clipPath><clipPath id="bK"><path d="M492 336h4v3h-4Zm0 0"/></clipPath><clipPath id="bL"><path d="M495 336h5v3h-5Zm0 0"/></clipPath><clipPath id="bM"><path d="M498 337h5v2h-5Zm0 0"/></clipPath><clipPath id="bN"><path d="M501 336h5v3h-5Zm0 0"/></clipPath><clipPath id="bO"><path d="M505 337h4v2h-4Zm0 0"/></clipPath><clipPath id="bP"><path d="M508 337h4v2h-4Zm0 0"/></clipPath><clipPath id="bQ"><path d="M511 337h4v2h-4Zm0 0"/></clipPath><clipPath id="bR"><path d="M514 337h5v2h-5Zm0 0"/></clipPath><clipPath id="bS"><path d="M517 337h5v2h-5Zm0 0"/></clipPath><clipPath id="bT"><path d="M521 338h3.25v1H521Zm0 0"/></clipPath><clipPath id="bU"><path d="M520 337h4.25v2H520Zm0 0"/></clipPath><clipPath id="bV"><path d="M46 29h479v311H46Zm0 0"/></clipPath><path id="bW" d="M6.406-2.516H.97v-.703h5.437Zm0 0"/><path id="bX" d="M5.14 0H.704v-.922c.313-.258.617-.52.922-.781q.467-.404.875-.797c.563-.54.945-.973 1.156-1.297q.312-.48.313-1.031-.002-.516-.344-.797c-.219-.195-.531-.297-.937-.297q-.392 0-.86.14a3.3 3.3 0 0 0-.906.438H.875v-.922a4.3 4.3 0 0 1 .828-.28q.514-.142 1.016-.141.998 0 1.562.5.576.486.578 1.312 0 .375-.093.703-.095.316-.282.61-.174.269-.406.53-.22.27-.547.579a27 27 0 0 1-.984.906c-.336.281-.64.547-.922.797h3.516Zm0 0"/><path id="bY" d="M2.156 0H1.11v-1.25h1.047Zm0 0"/><path id="bZ" d="M5.078-2.078c0 .305-.058.594-.172.875a1.9 1.9 0 0 1-.453.703q-.315.315-.75.484a3.1 3.1 0 0 1-1.015.157Q2.154.14 1.656.016A4 4 0 0 1 .828-.25v-.922h.063c.238.156.515.29.828.39q.482.158.953.157c.207 0 .41-.023.61-.078.195-.063.366-.164.515-.313a1.1 1.1 0 0 0 .297-.453q.093-.264.093-.61a1.24 1.24 0 0 0-.125-.577.95.95 0 0 0-.312-.375 1.45 1.45 0 0 0-.547-.219 3.3 3.3 0 0 0-.734-.078q-.393.002-.75.062-.364.048-.61.094v-3.375h3.938v.766H1.953v1.75q.188-.014.375-.016.2-.014.36-.016.528 0 .921.094c.27.055.516.156.735.313q.358.236.547.625.187.377.187.953m0 0"/><path id="ca" d="M4.766 0H1.219v-.672h1.36v-4.375h-1.36v-.61q.28 0 .593-.046a1.8 1.8 0 0 0 .485-.125.8.8 0 0 0 .312-.281.85.85 0 0 0 .141-.453h.672v5.89h1.344Zm0 0"/><path id="cb" d="M5.125-3.281q-.001 1.769-.547 2.594C4.211-.133 3.641.14 2.86.14Q1.687.142 1.141-.687.608-1.531.609-3.266q-.002-1.746.547-2.578.545-.827 1.703-.828 1.186 0 1.72.844c.362.562.546 1.414.546 2.547m-1.156 2c.101-.239.172-.516.203-.828q.06-.48.062-1.172a10 10 0 0 0-.062-1.14 2.7 2.7 0 0 0-.203-.845 1.2 1.2 0 0 0-.422-.515c-.18-.114-.406-.172-.688-.172a1.3 1.3 0 0 0-.687.172q-.27.176-.422.515a3 3 0 0 0-.203.86 13 13 0 0 0-.047 1.14q0 .69.047 1.157.046.455.203.812.14.344.406.531c.176.118.41.172.703.172.282 0 .508-.054.688-.172q.28-.17.422-.515m0 0"/><path id="cc" d="M4.563-3.156c.132.125.25.289.343.484q.14.283.14.735 0 .454-.171.828A2.06 2.06 0 0 1 3.641 0q-.44.14-.97.14-.55 0-1.077-.141a4.6 4.6 0 0 1-.86-.281v-.922h.063q.373.252.875.422.516.157.984.156c.188 0 .383-.031.594-.094q.311-.091.5-.265.201-.2.297-.422c.07-.157.11-.352.11-.594q-.001-.357-.126-.578a1 1 0 0 0-.297-.375 1.4 1.4 0 0 0-.484-.172 3 3 0 0 0-.61-.062h-.39v-.735h.297q.668.002 1.062-.265c.27-.188.407-.461.407-.829a.77.77 0 0 0-.11-.406.75.75 0 0 0-.265-.297 1.5 1.5 0 0 0-.407-.156 2.3 2.3 0 0 0-.484-.047c-.281 0-.578.055-.89.156q-.47.141-.891.422H.922v-.922a4.3 4.3 0 0 1 .828-.28q.528-.142 1.016-.141.48 0 .843.093.358.095.657.282.31.222.468.515.171.3.172.688c0 .367-.133.683-.39.953a1.64 1.64 0 0 1-.907.515v.063q.216.034.485.156.28.112.468.266m0 0"/><path id="cd" d="M5.281-1.844h-.968V0h-.844v-1.844H.344v-1.015L3.5-6.547h.813v4h.968ZM3.47-2.547V-5.5L.938-2.547Zm0 0"/><path id="ce" d="M5.234-2.125q0 1.002-.656 1.64-.657.627-1.61.626-.485 0-.89-.141a1.9 1.9 0 0 1-.687-.453 2.4 2.4 0 0 1-.578-.969Q.608-2.03.609-2.875q-.002-.873.172-1.547c.125-.445.328-.844.61-1.187q.375-.499.984-.782.622-.28 1.438-.28.246 0 .421.03.186.02.36.079v.843h-.047a1 1 0 0 0-.36-.125 2.3 2.3 0 0 0-.515-.062q-.937.001-1.5.593-.563.58-.656 1.594.356-.234.718-.344.359-.107.829-.109.419 0 .734.078.328.063.656.297c.258.18.453.406.578.688q.201.41.203.984m-.89.031q-.001-.404-.125-.672a1.34 1.34 0 0 0-.39-.468 1.05 1.05 0 0 0-.454-.172 3 3 0 0 0-.516-.047q-.375 0-.703.094-.316.08-.656.265c0 .063-.008.125-.016.188v.219q0 .704.141 1.109.154.392.406.625.201.188.438.281c.156.063.32.094.5.094q.638 0 1-.39.375-.388.375-1.126m0 0"/><path id="cL" d="M7.969 0h-.813v-2.797q0-.31-.031-.61A1.4 1.4 0 0 0 7-3.874a.6.6 0 0 0-.297-.281c-.125-.07-.305-.11-.531-.11q-.364 0-.703.188-.346.175-.688.437.014.094.016.235.014.127.016.265V0h-.829v-2.797q0-.328-.03-.61a1.4 1.4 0 0 0-.126-.468.6.6 0 0 0-.281-.281c-.125-.07-.309-.11-.547-.11q-.346.001-.687.172a6 6 0 0 0-.672.422V0H.813v-4.906h.828v.547c.257-.22.515-.383.765-.5q.388-.188.828-.188.498 0 .844.219.357.204.516.578.513-.421.922-.61.404-.186.89-.187.797.001 1.172.5.388.486.39 1.36Zm0 0"/><path id="cM" d="M4.922-2.375h-3.61q-.001.457.125.797.142.329.375.547c.157.148.336.258.547.328q.312.094.688.094.497 0 1-.188.514-.2.734-.406h.047v.906q-.423.175-.86.297c-.292.07-.593.11-.905.11q-1.22 0-1.907-.657Q.468-1.202.47-2.422q0-1.201.656-1.906.657-.717 1.734-.719.984.002 1.516.578.546.58.547 1.657ZM4.125-3q-.017-.655-.344-1-.313-.359-.969-.36c-.449 0-.804.133-1.062.391A1.5 1.5 0 0 0 1.313-3Zm0 0"/><path id="cN" d="M4.625 0h-.812v-.516q-.111.064-.297.204-.187.126-.375.218a2.6 2.6 0 0 1-.47.157Q2.404.14 2.048.14q-.673 0-1.14-.438Q.45-.747.452-1.422q0-.562.235-.906.247-.341.687-.547.45-.186 1.078-.25.62-.077 1.36-.125v-.125a.86.86 0 0 0-.11-.453.7.7 0 0 0-.281-.297A1.1 1.1 0 0 0 3-4.265a3.3 3.3 0 0 0-1.25.063 6 6 0 0 0-.812.233H.89v-.828a6 6 0 0 1 .703-.156q.45-.077.89-.078a3.8 3.8 0 0 1 .907.093c.257.055.484.149.672.282q.281.203.421.531.141.316.141.797Zm-.812-1.203v-1.375l-.907.078q-.503.033-.797.125a1.23 1.23 0 0 0-.578.313c-.148.136-.218.328-.218.578q-.001.422.25.64.247.204.78.203.434.001.798-.156.355-.17.672-.406m0 0"/><path id="cO" d="M4.922 0h-.828v-2.797a4 4 0 0 0-.047-.64 1.05 1.05 0 0 0-.14-.454.7.7 0 0 0-.313-.28 1.3 1.3 0 0 0-.547-.095q-.328.001-.703.172a4.7 4.7 0 0 0-.703.422V0H.813v-4.906h.828v.547a3 3 0 0 1 .797-.5q.42-.188.843-.188.797.002 1.219.484.422.471.422 1.375Zm0 0"/><path id="cQ" d="M6.281-3.437H1.078v-.704h5.203Zm0 1.843H1.078v-.703h5.203Zm0 0"/><path id="cR" d="M3.422-2.469H.672v-.797h2.75Zm0 0"/><path id="cS" d="M5.156-5.562 2.188 0H1.25l3.156-5.781H.672v-.766h4.484Zm0 0"/><path id="cT" d="M5.188-1.828c0 .574-.227 1.047-.672 1.422q-.659.562-1.657.562Q1.795.158 1.156-.39.53-.952.531-1.812q-.002-.529.313-.97.328-.449.906-.718v-.016q-.534-.28-.781-.609-.251-.34-.25-.844c0-.488.195-.894.594-1.218q.609-.5 1.546-.5.984 0 1.563.468.592.471.594 1.188c0 .304-.094.593-.282.875a1.93 1.93 0 0 1-.812.672v.03q.61.27.937.657.33.376.329.969M4.14-5.016a.91.91 0 0 0-.36-.75q-.361-.28-.922-.28-.563 0-.921.265a.85.85 0 0 0-.344.703.9.9 0 0 0 .172.562c.125.149.304.282.547.407q.152.08.453.203.31.128.609.203c.29-.188.488-.383.594-.594a1.5 1.5 0 0 0 .172-.719m.14 3.282q0-.406-.187-.641-.174-.247-.688-.5a5 5 0 0 0-.453-.172 41 41 0 0 1-.656-.25 1.8 1.8 0 0 0-.64.594 1.5 1.5 0 0 0-.235.828q-.002.598.406.984.404.392 1.047.391.64 0 1.016-.328c.257-.227.39-.531.39-.906m0 0"/><path id="cU" d="M4.313-1.422q0 .675-.563 1.11-.55.438-1.5.437Q1.7.124 1.25 0a5 5 0 0 1-.766-.297v-.922h.047q.389.3.86.469.481.174.922.172.545.002.843-.172a.62.62 0 0 0 .313-.562.6.6 0 0 0-.156-.438q-.175-.154-.641-.25a6 6 0 0 0-.469-.094l-.515-.11q-.643-.169-.922-.5Q.498-3.043.5-3.53q-.001-.294.125-.563.121-.28.39-.484a1.9 1.9 0 0 1 .61-.328q.389-.124.86-.125.432.002.89.11.45.11.75.265v.875h-.047a2.9 2.9 0 0 0-.766-.39 2.8 2.8 0 0 0-.89-.157q-.457 0-.766.172a.56.56 0 0 0-.312.515q0 .315.187.454.187.156.61.25.217.064.5.124c.195.032.359.06.484.079q.575.141.89.453c.196.219.298.508.298.86m0 0"/><path id="cV" d="M3.36-.047a4 4 0 0 1-.516.094q-.269.047-.485.047-.752.002-1.14-.406Q.828-.718.829-1.61v-2.61H.265v-.687h.562v-1.407h.828v1.407H3.36v.687H1.656v2.235q-.001.391.016.609.012.22.125.406a.62.62 0 0 0 .266.266c.113.055.285.078.515.078q.2 0 .422-.062.218-.059.313-.094h.046Zm0 0"/><path id="cW" d="M4.797 0h-.828v-.516a3 3 0 0 1-.75.485q-.377.17-.828.172Q1.5.14.984-.531.47-1.216.47-2.421c0-.415.054-.786.172-1.11.125-.32.289-.598.5-.828a2 2 0 0 1 .687-.5q.406-.188.828-.188.388 0 .688.094c.195.055.406.133.625.234v-2.125h.828Zm-.828-1.203v-2.828a4 4 0 0 0-.594-.203 2.7 2.7 0 0 0-.578-.063q-.705.002-1.094.484-.375.486-.375 1.376 0 .877.297 1.328c.195.304.516.453.953.453q.357 0 .719-.156a3.3 3.3 0 0 0 .672-.391m0 0"/><path id="cX" d="M6.438-2.516H4.047v2.391h-.734v-2.39H.922v-.704h2.39v-2.39h.735v2.39h2.39Zm0 0"/><path id="cf" d="M9.906-7.64 7.922 0h-1.14l-1.61-6.344L3.609 0H2.484L.47-7.64h1.047l1.609 6.359 1.578-6.36h1.031l1.594 6.422L8.922-7.64Zm0 0"/><path id="cg" d="M6.781-2.344q-.001.564-.218 1a1.9 1.9 0 0 1-.579.719 2.5 2.5 0 0 1-.937.484Q4.53 0 3.734 0H1.031v-7.64h2.25q.843.002 1.25.062.422.066.797.266.421.222.61.562.187.347.187.828 0 .55-.281.938a1.8 1.8 0 0 1-.735.593v.047q.78.16 1.22.688.451.516.452 1.312M5.078-5.78q0-.282-.094-.469a.8.8 0 0 0-.296-.312 1.5 1.5 0 0 0-.594-.172q-.328-.031-.844-.032H2.047v2.204h1.312q.47 0 .75-.047.281-.047.532-.203a.83.83 0 0 0 .328-.391c.07-.164.11-.36.11-.578m.656 3.468q0-.45-.14-.718-.142-.282-.5-.469a1.8 1.8 0 0 0-.61-.156 6 6 0 0 0-.843-.047H2.047V-.86H3.39q.656 0 1.078-.063.433-.076.703-.265.28-.2.422-.454.14-.262.14-.671m0 0"/><path id="ch" d="M7.828 0H6.812v-6.578L4.688-2.11h-.609l-2.11-4.47V0h-.937v-7.64h1.375l2.031 4.25 1.97-4.25h1.421Zm0 0"/><path id="cj" d="M4.031-7.047h-.047a6 6 0 0 0-.421-.094 2.5 2.5 0 0 0-.454-.046q-.626 0-.906.28c-.18.18-.265.509-.265.985v.188h1.734v.812H1.969V0H1v-4.922H.344v-.812H1v-.188c0-.676.164-1.195.5-1.562q.515-.546 1.469-.547a5 5 0 0 1 1.062.11Zm0 0"/><path id="ck" d="M5.828-2.86Q5.826-1.464 5.11-.655q-.72.813-1.921.812-1.221 0-1.938-.812-.703-.81-.703-2.203 0-1.405.703-2.22c.477-.538 1.125-.812 1.938-.812.8 0 1.44.274 1.921.813.477.543.72 1.281.72 2.219m-1 0q-.002-1.106-.437-1.656-.424-.545-1.203-.546-.786 0-1.22.546-.437.55-.437 1.657 0 1.077.438 1.64.433.549 1.219.547.762.002 1.203-.547.435-.563.437-1.64m0 0"/><path id="cl" d="M4.516-4.672h-.047a2.6 2.6 0 0 0-.422-.078 8 8 0 0 0-.469-.016q-.456.002-.875.204-.41.188-.797.5V0H.953v-5.734h.953v.859q.575-.468 1.016-.656.434-.201.89-.203.264.002.376.015.106.018.328.047Zm0 0"/><path id="cm" d="M9.313 0h-.97v-3.266q0-.357-.03-.703a1.6 1.6 0 0 0-.141-.547.8.8 0 0 0-.344-.343c-.148-.07-.36-.11-.64-.11q-.41.002-.813.203a5.5 5.5 0 0 0-.797.516c.008.086.016.18.016.281q.013.157.015.297V0h-.968v-3.266q-.001-.374-.032-.718a1.6 1.6 0 0 0-.14-.547.72.72 0 0 0-.344-.328c-.148-.07-.355-.11-.625-.11a1.8 1.8 0 0 0-.797.203c-.262.125-.527.29-.797.485V0H.953v-5.734h.953v.64q.45-.374.907-.578.45-.218.953-.219.59.002 1 .25a1.6 1.6 0 0 1 .609.688q.575-.497 1.063-.719a2.5 2.5 0 0 1 1.03-.219c.626 0 1.087.196 1.391.579q.453.563.454 1.593Zm0 0"/><path id="cn" d="M5.406 0h-.968v-.61c-.086.063-.2.15-.344.25a2 2 0 0 1-.422.235 2.4 2.4 0 0 1-.563.203q-.315.077-.718.078c-.524 0-.965-.164-1.328-.5Q.53-.859.53-1.656q0-.655.282-1.063.281-.403.796-.625.529-.233 1.25-.312a19 19 0 0 1 1.579-.125v-.156q-.001-.328-.125-.532A.9.9 0 0 0 4-4.812a1.4 1.4 0 0 0-.5-.157 3.6 3.6 0 0 0-.594-.047c-.261 0-.547.04-.86.11a6 6 0 0 0-.952.281h-.047v-.984q.28-.075.812-.157a6 6 0 0 1 1.047-.093q.608 0 1.047.093.452.096.781.344c.22.156.383.36.5.61q.171.376.172.921Zm-.968-1.406V-3q-.439.02-1.047.078-.598.047-.938.14-.409.13-.672.376-.251.25-.25.672 0 .504.297.75c.195.168.5.25.906.25q.5 0 .922-.203a4.6 4.6 0 0 0 .781-.47m0 0"/><path id="co" d="M3.922-.047c-.18.043-.375.078-.594.11q-.316.046-.562.046-.892 0-1.344-.468C1.117-.672.969-1.176.969-1.875v-3.047H.313v-.812h.656v-1.641h.969v1.64h1.984v.813H1.937v2.61q-.001.455.016.718a1 1 0 0 0 .14.469.64.64 0 0 0 .313.297q.2.094.61.094.233 0 .484-.063.263-.077.375-.125h.047Zm0 0"/><path id="cp" d="M1.984-6.687H.891v-1h1.093ZM1.922 0H.953v-5.734h.969Zm0 0"/><path id="cq" d="M5.734 0h-.968v-3.266q0-.387-.047-.734a1.3 1.3 0 0 0-.157-.547.72.72 0 0 0-.375-.312 1.55 1.55 0 0 0-.625-.11q-.393.002-.828.203a4.7 4.7 0 0 0-.828.485V0H.953v-5.734h.953v.64q.452-.374.938-.578.48-.218.984-.219.937 0 1.422.563.482.564.484 1.61Zm0 0"/><path id="cr" d="M5.75-2.766H1.516q-.001.535.156.922.171.394.453.64.263.253.625.376c.25.086.52.125.813.125q.574 0 1.171-.235.592-.234.844-.468h.047v1.062q-.485.204-1 .344c-.336.094-.687.14-1.062.14Q2.14.143 1.342-.624q-.795-.78-.796-2.203-.001-1.405.766-2.234.761-.828 2.015-.829 1.154 0 1.781.688.64.675.641 1.922ZM4.797-3.5q0-.761-.375-1.172c-.25-.281-.633-.422-1.14-.422-.524 0-.938.157-1.25.469q-.457.457-.516 1.125Zm0 0"/><path id="cs" d="M5.594-.656c0 .976-.227 1.691-.672 2.14q-.659.687-2.031.688A7 7 0 0 1 2 2.109a7 7 0 0 1-.844-.187V.938h.047q.234.091.75.218.516.14 1.031.14.48 0 .797-.124.328-.112.516-.313.169-.203.25-.484a2.4 2.4 0 0 0 .078-.625v-.531q-.44.345-.828.515c-.262.118-.602.172-1.016.172-.68 0-1.219-.242-1.625-.734q-.61-.733-.61-2.094 0-.732.204-1.265.216-.546.578-.922.328-.375.797-.578a2.5 2.5 0 0 1 .969-.204c.32 0 .594.04.812.11a3.6 3.6 0 0 1 .719.297l.063-.25h.906Zm-.969-.922v-3.125a3.2 3.2 0 0 0-.719-.234 3 3 0 0 0-.656-.079c-.523 0-.937.18-1.25.532-.305.355-.453.87-.453 1.547q0 .971.328 1.468c.227.324.61.485 1.14.485q.423.001.844-.157a2.6 2.6 0 0 0 .766-.437m0 0"/><path id="ct" d="M5.906-5.734 2.563 2.109H1.53L2.594-.28.313-5.734h1.046l1.766 4.25 1.766-4.25Zm0 0"/><path id="cu" d="M4.016 2.11H2.844A8.2 8.2 0 0 1 1.422-.157c-.336-.82-.5-1.75-.5-2.781 0-1.02.164-1.942.5-2.766a8.5 8.5 0 0 1 1.422-2.281h1.172v.062a6.5 6.5 0 0 0-.797.86q-.376.485-.703 1.14-.301.628-.5 1.39a6.6 6.6 0 0 0-.188 1.595q0 .877.188 1.609.186.736.5 1.39.31.622.703 1.126.405.513.797.875Zm0 0"/><path id="cv" d="M7.047-7.64 4.266 0h-1.36L.141-7.64h1.078l2.39 6.718L6.016-7.64Zm0 0"/><path id="cw" d="M4.406-7.984.734 1.563h-.89L3.5-7.985Zm0 0"/><path id="cx" d="M3.844-2.937c0 1.03-.172 1.96-.516 2.78A8 8 0 0 1 1.922 2.11H.75v-.046a6.3 6.3 0 0 0 .797-.876A7 7 0 0 0 2.25.063c.207-.438.375-.899.5-1.391a6.5 6.5 0 0 0 .188-1.61q0-.843-.188-1.593a6.8 6.8 0 0 0-1.203-2.532q-.375-.482-.797-.859v-.062h1.172q.902 1.05 1.406 2.28.516 1.238.516 2.766m0 0"/><path id="cy" d="M0-6.844v1.25l-6.828 3.625H0v.938h-7.64v-1.563l6.234-3.312h-6.235v-.938Zm0 0"/><path id="cz" d="M0-5.703v.969h-.64q.393.486.593.937.201.44.203.985.002.908-.547 1.406c-.363.336-.906.5-1.625.5h-3.718v-.969h3.265q.44.002.75-.031.316-.047.532-.188a.76.76 0 0 0 .328-.344q.093-.233.093-.656 0-.357-.187-.797-.2-.45-.5-.843h-4.281v-.97Zm0 0"/><path id="cA" d="M0-9.312v.968h-3.266q-.357.001-.703.031-.34.035-.547.141a.8.8 0 0 0-.343.344c-.07.148-.11.36-.11.64q.002.41.203.813.206.393.516.797.13-.014.281-.016.157-.013.297-.015H0v.968h-3.266q-.374.001-.718.032-.341.035-.547.14a.72.72 0 0 0-.328.344c-.07.148-.11.355-.11.625q.002.392.203.797c.125.262.29.527.485.797H0v.953h-5.734v-.953h.64q-.374-.45-.578-.907a2.2 2.2 0 0 1-.219-.953q.002-.59.25-1a1.6 1.6 0 0 1 .688-.609q-.497-.575-.719-1.062A2.5 2.5 0 0 1-5.89-7.47c0-.625.196-1.086.579-1.39q.563-.452 1.593-.453Zm0 0"/><path id="cB" d="M-2.906-5.984q.721.002 1.297.203.564.205.953.547.41.362.61.797c.132.292.202.609.202.953Q.155-3 .031-2.625a4 4 0 0 1-.297.719L0-1.844v.89h-7.984v-.952h2.859a4.4 4.4 0 0 1-.547-.86 2.4 2.4 0 0 1-.219-1.03q.001-1.015.782-1.595.784-.592 2.203-.593m.031.984q-1.03.002-1.562.344-.53.344-.532 1.093 0 .424.188.86.175.422.468.797h3.282q.189-.423.265-.703a3.2 3.2 0 0 0 .063-.672q0-.81-.531-1.266-.528-.452-1.641-.453m0 0"/><path id="cC" d="M-2.766-5.75v4.234q.535.001.922-.156.394-.171.64-.453.253-.263.376-.625c.086-.25.125-.52.125-.812q0-.575-.235-1.172-.234-.592-.468-.844v-.047h1.062q.204.485.344 1 .14.502.14 1.063.002 1.422-.765 2.218-.78.798-2.203.797c-.938 0-1.68-.254-2.234-.765q-.828-.762-.829-2.016 0-1.154.688-1.781.675-.64 1.922-.641Zm-.734.953q-.761 0-1.172.375c-.281.25-.422.633-.422 1.14 0 .524.157.938.469 1.25q.457.457 1.125.516Zm0 0"/><path id="cD" d="M-4.672-4.516v.047q-.06.224-.078.422a8 8 0 0 0-.016.469q.002.456.204.875.188.41.5.797H0v.953h-5.734v-.953h.859q-.468-.575-.656-1.016a2.1 2.1 0 0 1-.203-.89q.002-.264.015-.376.018-.106.047-.328Zm0 0"/><path id="cF" d="M-2.86-5.828q1.395.002 2.204.719.813.72.812 1.922 0 1.22-.812 1.937-.81.703-2.203.703-1.405 0-2.22-.703c-.538-.477-.812-1.125-.812-1.937 0-.801.274-1.442.813-1.922.543-.477 1.281-.72 2.219-.72m0 1q-1.106.002-1.656.437-.545.423-.546 1.204 0 .785.546 1.218.55.439 1.657.438 1.077 0 1.64-.438.549-.433.547-1.218.002-.763-.547-1.204-.563-.435-1.64-.437m0 0"/><path id="cG" d="M-7.047-4.031v.047a6 6 0 0 0-.094.422q-.046.252-.046.453 0 .626.28.906c.18.18.509.265.985.265h.188v-1.734h.812v1.703H0V-1h-4.922v.656h-.812V-1h-.188c-.676 0-1.195-.164-1.562-.5q-.546-.515-.547-1.469a5 5 0 0 1 .11-1.062Zm0 0"/><path id="cH" d="M-2.172-6.578q.44 0 .875.219.441.204.734.578.33.409.516.953.188.551.188 1.312c0 .555-.055 1.047-.157 1.485A8 8 0 0 1-.469-.687H-1.75v-.079c.324-.382.574-.828.75-1.328.18-.508.266-.984.266-1.422 0-.632-.118-1.125-.36-1.468q-.357-.53-.937-.532c-.344 0-.594.086-.75.25q-.247.252-.375.75c-.07.262-.13.543-.172.844q-.06.44-.172.938-.218 1.019-.734 1.515-.516.486-1.36.485-.951 0-1.562-.813-.61-.81-.61-2.047.002-.81.157-1.484c.093-.445.218-.844.375-1.188h1.187v.079q-.358.437-.594 1.14-.248.703-.25 1.453c0 .543.118.98.344 1.313q.33.485.86.484.486 0 .75-.234.27-.247.421-.875.066-.327.172-.922.096-.61.203-1.031.236-.857.688-1.282.456-.435 1.281-.437m0 0"/><path id="cI" d="M-.047-3.922c.043.18.078.375.11.594q.046.316.046.562 0 .892-.468 1.344c-.313.305-.817.453-1.516.453h-3.047v.657h-.812V-.97h-1.641v-.968h1.64v-1.985h.813v1.985h2.61q.455.001.718-.016a1 1 0 0 0 .469-.14.64.64 0 0 0 .297-.313q.094-.2.094-.61 0-.233-.063-.484a4 4 0 0 0-.125-.375v-.047Zm0 0"/><path id="cJ" d="M-.36-5.187q.236.487.36.921.124.44.125.922c0 .406-.059.79-.172 1.14a2.25 2.25 0 0 1-.562.876 2.5 2.5 0 0 1-.922.594q-.576.204-1.328.203-1.407.001-2.203-.766-.797-.78-.797-2.047 0-.499.14-.969.14-.466.328-.875h1.079v.063a3.8 3.8 0 0 0-.532.906 2.4 2.4 0 0 0-.187.907q0 .832.562 1.312.55.47 1.61.469 1.047 0 1.609-.469.549-.468.547-1.312.001-.281-.078-.579a2.3 2.3 0 0 0-.203-.546 6 6 0 0 0-.22-.407 2 2 0 0 0-.218-.281v-.062Zm0 0"/><path id="cK" d="M-1.656-5.047q.798 0 1.297.656c.336.43.5 1.016.5 1.766 0 .43-.055.82-.157 1.172q-.151.533-.328.89h-1.078v-.046c.23-.313.414-.649.547-1.016a3.1 3.1 0 0 0 .203-1.078q.001-.638-.203-1a.72.72 0 0 0-.656-.36q-.328.002-.516.204-.168.188-.297.75a7 7 0 0 0-.094.53q-.058.33-.14.61-.201.751-.578 1.063-.389.314-.953.312-.357 0-.672-.14a1.6 1.6 0 0 1-.563-.438 2.3 2.3 0 0 1-.375-.734q-.14-.45-.14-1 .001-.516.125-1.031.128-.529.297-.876h1.03v.047q-.263.377-.452.907a3 3 0 0 0-.188 1.03q.002.534.203.892.206.361.594.359c.242 0 .418-.07.531-.219.125-.144.227-.375.297-.687q.066-.282.125-.61c.043-.219.078-.398.11-.547q.156-.668.53-1.03c.25-.25.587-.376 1-.376m0 0"/></defs><path fill="#FFF" d="M0 0h525v375H0Zm0 0"/><path fill="#FFF" d="M48 30h476.25v309H48Zm0 0"/><path fill="none" stroke="#D3D3D3" stroke-width=".75" d="M60.906 30v309m64.965-309v309m64.973-309v309m64.972-309v309m64.965-309v309M450.719 30v309m64.972-309v309M48 288h476.25M48 237h476.25M48 186h476.25M48 135.008h476.25M48 84.008h476.25M48 33.008h476.25"/><path fill="none" stroke="#EBF0F8" stroke-width="1.5" d="M385.754 30v309M48 339h476.25"/><path fill="#636EFA" d="M48 317.73h3.172V339H48Zm0 0"/><g clip-path="url(#a)"><path fill="none" stroke="#FFF" stroke-width=".375" d="M48 317.73h3.172V339H48Zm0 0"/></g><path fill="#636EFA" d="M51.172 314.266h3.18V339h-3.18Zm0 0"/><g clip-path="url(#b)"><path fill="none" stroke="#FFF" stroke-width=".375" d="M51.172 314.266h3.18V339h-3.18Zm0 0"/></g><path fill="#636EFA" d="M54.352 317.684h3.171V339h-3.171Zm0 0"/><g clip-path="url(#c)"><path fill="none" stroke="#FFF" stroke-width=".375" d="M54.352 317.684h3.171V339h-3.171Zm0 0"/></g><path fill="#636EFA" d="M57.523 315.39H60.7V339h-3.176Zm0 0"/><g clip-path="url(#d)"><path fill="none" stroke="#FFF" stroke-width=".375" d="M57.523 315.39H60.7V339h-3.176Zm0 0"/></g><path fill="#636EFA" d="M60.7 312.79h3.179V339h-3.18Zm0 0"/><g clip-path="url(#e)"><path fill="none" stroke="#FFF" stroke-width=".375" d="M60.7 312.79h3.179V339h-3.18Zm0 0"/></g><path fill="#636EFA" d="M63.879 312.48h3.172V339h-3.172Zm0 0"/><g clip-path="url(#f)"><path fill="none" stroke="#FFF" stroke-width=".375" d="M63.879 312.48h3.172V339h-3.172Zm0 0"/></g><path fill="#636EFA" d="M67.05 313.957h3.173V339H67.05Zm0 0"/><g clip-path="url(#g)"><path fill="none" stroke="#FFF" stroke-width=".375" d="M67.05 313.957h3.173V339H67.05Zm0 0"/></g><path fill="#636EFA" d="M70.223 315.39h3.18V339h-3.18Zm0 0"/><g clip-path="url(#h)"><path fill="none" stroke="#FFF" stroke-width=".375" d="M70.223 315.39h3.18V339h-3.18Zm0 0"/></g><path fill="#636EFA" d="M73.402 318.496h3.172V339h-3.172Zm0 0"/><g clip-path="url(#i)"><path fill="none" stroke="#FFF" stroke-width=".375" d="M73.402 318.496h3.172V339h-3.172Zm0 0"/></g><path fill="#636EFA" d="M76.574 314.113h3.172V339h-3.172Zm0 0"/><g clip-path="url(#j)"><path fill="none" stroke="#FFF" stroke-width=".375" d="M76.574 314.113h3.172V339h-3.172Zm0 0"/></g><path fill="#636EFA" d="M79.746 309.57h3.18V339h-3.18Zm0 0"/><g clip-path="url(#k)"><path fill="none" stroke="#FFF" stroke-width=".375" d="M79.746 309.57h3.18V339h-3.18Zm0 0"/></g><path fill="#636EFA" d="M82.926 313.14h3.176V339h-3.176Zm0 0"/><g clip-path="url(#l)"><path fill="none" stroke="#FFF" stroke-width=".375" d="M82.926 313.14h3.176V339h-3.176Zm0 0"/></g><path fill="#636EFA" d="M86.102 314.672h3.171V339h-3.171Zm0 0"/><g clip-path="url(#m)"><path fill="none" stroke="#FFF" stroke-width=".375" d="M86.102 314.672h3.171V339h-3.171Zm0 0"/></g><path fill="#636EFA" d="M89.273 312.023h3.18V339h-3.18Zm0 0"/><g clip-path="url(#n)"><path fill="none" stroke="#FFF" stroke-width=".375" d="M89.273 312.023h3.18V339h-3.18Zm0 0"/></g><path fill="#636EFA" d="M92.453 312.328h3.172V339h-3.172Zm0 0"/><g clip-path="url(#o)"><path fill="none" stroke="#FFF" stroke-width=".375" d="M92.453 312.328h3.172V339h-3.172Zm0 0"/></g><path fill="#636EFA" d="M95.625 313.297h3.172V339h-3.172Zm0 0"/><g clip-path="url(#p)"><path fill="none" stroke="#FFF" stroke-width=".375" d="M95.625 313.297h3.172V339h-3.172Zm0 0"/></g><path fill="#636EFA" d="M98.797 313.809h3.18V339h-3.18Zm0 0"/><g clip-path="url(#q)"><path fill="none" stroke="#FFF" stroke-width=".375" d="M98.797 313.809h3.18V339h-3.18Zm0 0"/></g><path fill="#636EFA" d="M101.977 313.754h3.171V339h-3.171Zm0 0"/><g clip-path="url(#r)"><path fill="none" stroke="#FFF" stroke-width=".375" d="M101.977 313.754h3.171V339h-3.171Zm0 0"/></g><path fill="#636EFA" d="M105.148 313.809h3.176V339h-3.176Zm0 0"/><g clip-path="url(#s)"><path fill="none" stroke="#FFF" stroke-width=".375" d="M105.148 313.809h3.176V339h-3.176Zm0 0"/></g><path fill="#636EFA" d="M108.324 314.063h3.18V339h-3.18Zm0 0"/><g clip-path="url(#t)"><path fill="none" stroke="#FFF" stroke-width=".375" d="M108.324 314.063h3.18V339h-3.18Zm0 0"/></g><path fill="#636EFA" d="M111.504 315.848h3.172V339h-3.172Zm0 0"/><g clip-path="url(#u)"><path fill="none" stroke="#FFF" stroke-width=".375" d="M111.504 315.848h3.172V339h-3.172Zm0 0"/></g><path fill="#636EFA" d="M114.676 318.75h3.172V339h-3.172Zm0 0"/><g clip-path="url(#v)"><path fill="none" stroke="#FFF" stroke-width=".375" d="M114.676 318.75h3.172V339h-3.172Zm0 0"/></g><path fill="#636EFA" d="M117.848 314.16h3.18V339h-3.18Zm0 0"/><g clip-path="url(#w)"><path fill="none" stroke="#FFF" stroke-width=".375" d="M117.848 314.16h3.18V339h-3.18Zm0 0"/></g><path fill="#636EFA" d="M121.027 317.176h3.172V339h-3.172Zm0 0"/><g clip-path="url(#x)"><path fill="none" stroke="#FFF" stroke-width=".375" d="M121.027 317.176h3.172V339h-3.172Zm0 0"/></g><path fill="#636EFA" d="M124.2 314.012h3.171V339H124.2Zm0 0"/><g clip-path="url(#y)"><path fill="none" stroke="#FFF" stroke-width=".375" d="M124.2 314.012h3.171V339H124.2Zm0 0"/></g><path fill="#636EFA" d="M127.371 311.82h3.18V339h-3.18Zm0 0"/><g clip-path="url(#z)"><path fill="none" stroke="#FFF" stroke-width=".375" d="M127.371 311.82h3.18V339h-3.18Zm0 0"/></g><path fill="#636EFA" d="M130.55 311.82h3.177V339h-3.176Zm0 0"/><g clip-path="url(#A)"><path fill="none" stroke="#FFF" stroke-width=".375" d="M130.55 311.82h3.177V339h-3.176Zm0 0"/></g><path fill="#636EFA" d="M133.727 310.133h3.171V339h-3.171Zm0 0"/><g clip-path="url(#B)"><path fill="none" stroke="#FFF" stroke-width=".375" d="M133.727 310.133h3.171V339h-3.171Zm0 0"/></g><path fill="#636EFA" d="M136.898 314.723h3.18V339h-3.18Zm0 0"/><g clip-path="url(#C)"><path fill="none" stroke="#FFF" stroke-width=".375" d="M136.898 314.723h3.18V339h-3.18Zm0 0"/></g><path fill="#636EFA" d="M140.078 310.078h3.172V339h-3.172Zm0 0"/><g clip-path="url(#D)"><path fill="none" stroke="#FFF" stroke-width=".375" d="M140.078 310.078h3.172V339h-3.172Zm0 0"/></g><path fill="#636EFA" d="M143.25 312.988h3.172V339h-3.172Zm0 0"/><g clip-path="url(#E)"><path fill="none" stroke="#FFF" stroke-width=".375" d="M143.25 312.988h3.172V339h-3.172Zm0 0"/></g><path fill="#636EFA" d="M146.422 312.227h3.18V339h-3.18Zm0 0"/><g clip-path="url(#F)"><path fill="none" stroke="#FFF" stroke-width=".375" d="M146.422 312.227h3.18V339h-3.18Zm0 0"/></g><path fill="#636EFA" d="M149.602 311.512h3.171V339h-3.171Zm0 0"/><g clip-path="url(#G)"><path fill="none" stroke="#FFF" stroke-width=".375" d="M149.602 311.512h3.171V339h-3.171Zm0 0"/></g><path fill="#636EFA" d="M152.773 310.898h3.176V339h-3.176Zm0 0"/><g clip-path="url(#H)"><path fill="none" stroke="#FFF" stroke-width=".375" d="M152.773 310.898h3.176V339h-3.176Zm0 0"/></g><path fill="#636EFA" d="M155.95 307.074h3.179V339h-3.18Zm0 0"/><g clip-path="url(#I)"><path fill="none" stroke="#FFF" stroke-width=".375" d="M155.95 307.074h3.179V339h-3.18Zm0 0"/></g><path fill="#636EFA" d="M159.129 308.96h3.172V339h-3.172Zm0 0"/><g clip-path="url(#J)"><path fill="none" stroke="#FFF" stroke-width=".375" d="M159.129 308.96h3.172V339h-3.172Zm0 0"/></g><path fill="#636EFA" d="M162.3 306.563h3.173V339H162.3Zm0 0"/><g clip-path="url(#K)"><path fill="none" stroke="#FFF" stroke-width=".375" d="M162.3 306.563h3.173V339H162.3Zm0 0"/></g><path fill="#636EFA" d="M165.473 307.582h3.18V339h-3.18Zm0 0"/><g clip-path="url(#L)"><path fill="none" stroke="#FFF" stroke-width=".375" d="M165.473 307.582h3.18V339h-3.18Zm0 0"/></g><path fill="#636EFA" d="M168.652 307.434h3.172V339h-3.172Zm0 0"/><g clip-path="url(#M)"><path fill="none" stroke="#FFF" stroke-width=".375" d="M168.652 307.434h3.172V339h-3.172Zm0 0"/></g><path fill="#636EFA" d="M171.824 305.902h3.172V339h-3.172Zm0 0"/><g clip-path="url(#N)"><path fill="none" stroke="#FFF" stroke-width=".375" d="M171.824 305.902h3.172V339h-3.172Zm0 0"/></g><path fill="#636EFA" d="M174.996 304.934h3.18V339h-3.18Zm0 0"/><g clip-path="url(#O)"><path fill="none" stroke="#FFF" stroke-width=".375" d="M174.996 304.934h3.18V339h-3.18Zm0 0"/></g><path fill="#636EFA" d="M178.176 301.46h3.176V339h-3.176Zm0 0"/><g clip-path="url(#P)"><path fill="none" stroke="#FFF" stroke-width=".375" d="M178.176 301.46h3.176V339h-3.176Zm0 0"/></g><path fill="#636EFA" d="M181.352 300.398h3.171V339h-3.171Zm0 0"/><g clip-path="url(#Q)"><path fill="none" stroke="#FFF" stroke-width=".375" d="M181.352 300.398h3.171V339h-3.171Zm0 0"/></g><path fill="#636EFA" d="M184.523 301.313h3.18V339h-3.18Zm0 0"/><g clip-path="url(#R)"><path fill="none" stroke="#FFF" stroke-width=".375" d="M184.523 301.313h3.18V339h-3.18Zm0 0"/></g><path fill="#636EFA" d="M187.703 301.566h3.172V339h-3.172Zm0 0"/><g clip-path="url(#S)"><path fill="none" stroke="#FFF" stroke-width=".375" d="M187.703 301.566h3.172V339h-3.172Zm0 0"/></g><path fill="#636EFA" d="M190.875 298.453h3.172V339h-3.172Zm0 0"/><g clip-path="url(#T)"><path fill="none" stroke="#FFF" stroke-width=".375" d="M190.875 298.453h3.172V339h-3.172Zm0 0"/></g><path fill="#636EFA" d="M194.047 301.926h3.18V339h-3.18Zm0 0"/><g clip-path="url(#U)"><path fill="none" stroke="#FFF" stroke-width=".375" d="M194.047 301.926h3.18V339h-3.18Zm0 0"/></g><path fill="#636EFA" d="M197.227 296.063h3.171V339h-3.171Zm0 0"/><g clip-path="url(#V)"><path fill="none" stroke="#FFF" stroke-width=".375" d="M197.227 296.063h3.171V339h-3.171Zm0 0"/></g><path fill="#636EFA" d="M200.398 297.54h3.176V339h-3.176Zm0 0"/><g clip-path="url(#W)"><path fill="none" stroke="#FFF" stroke-width=".375" d="M200.398 297.54h3.176V339h-3.176Zm0 0"/></g><path fill="#636EFA" d="M203.574 293.152h3.18V339h-3.18Zm0 0"/><g clip-path="url(#X)"><path fill="none" stroke="#FFF" stroke-width=".375" d="M203.574 293.152h3.18V339h-3.18Zm0 0"/></g><path fill="#636EFA" d="M206.754 297.89h3.172V339h-3.172Zm0 0"/><g clip-path="url(#Y)"><path fill="none" stroke="#FFF" stroke-width=".375" d="M206.754 297.89h3.172V339h-3.172Zm0 0"/></g><path fill="#636EFA" d="M209.926 292.844h3.172V339h-3.172Zm0 0"/><g clip-path="url(#Z)"><path fill="none" stroke="#FFF" stroke-width=".375" d="M209.926 292.844h3.172V339h-3.172Zm0 0"/></g><path fill="#636EFA" d="M213.098 294.988h3.18V339h-3.18Zm0 0"/><g clip-path="url(#aa)"><path fill="none" stroke="#FFF" stroke-width=".375" d="M213.098 294.988h3.18V339h-3.18Zm0 0"/></g><path fill="#636EFA" d="M216.277 292.54h3.172V339h-3.172Zm0 0"/><g clip-path="url(#ab)"><path fill="none" stroke="#FFF" stroke-width=".375" d="M216.277 292.54h3.172V339h-3.172Zm0 0"/></g><path fill="#636EFA" d="M219.45 292.898h3.171V339h-3.172Zm0 0"/><g clip-path="url(#ac)"><path fill="none" stroke="#FFF" stroke-width=".375" d="M219.45 292.898h3.171V339h-3.172Zm0 0"/></g><path fill="#636EFA" d="M222.621 291.164h3.18V339h-3.18Zm0 0"/><g clip-path="url(#ad)"><path fill="none" stroke="#FFF" stroke-width=".375" d="M222.621 291.164h3.18V339h-3.18Zm0 0"/></g><path fill="#636EFA" d="M225.8 287.852h3.177V339H225.8Zm0 0"/><g clip-path="url(#ae)"><path fill="none" stroke="#FFF" stroke-width=".375" d="M225.8 287.852h3.177V339H225.8Zm0 0"/></g><path fill="#636EFA" d="M228.977 287.488h3.171V339h-3.171Zm0 0"/><g clip-path="url(#af)"><path fill="none" stroke="#FFF" stroke-width=".375" d="M228.977 287.488h3.171V339h-3.171Zm0 0"/></g><path fill="#636EFA" d="M232.148 286.574h3.18V339h-3.18Zm0 0"/><g clip-path="url(#ag)"><path fill="none" stroke="#FFF" stroke-width=".375" d="M232.148 286.574h3.18V339h-3.18Zm0 0"/></g><path fill="#636EFA" d="M235.328 284.121h3.172V339h-3.172Zm0 0"/><g clip-path="url(#ah)"><path fill="none" stroke="#FFF" stroke-width=".375" d="M235.328 284.121h3.172V339h-3.172Zm0 0"/></g><path fill="#636EFA" d="M238.5 280.043h3.172V339H238.5Zm0 0"/><g clip-path="url(#ai)"><path fill="none" stroke="#FFF" stroke-width=".375" d="M238.5 280.043h3.172V339H238.5Zm0 0"/></g><path fill="#636EFA" d="M241.672 278.469h3.18V339h-3.18Zm0 0"/><g clip-path="url(#aj)"><path fill="none" stroke="#FFF" stroke-width=".375" d="M241.672 278.469h3.18V339h-3.18Zm0 0"/></g><path fill="#636EFA" d="M244.852 278.414h3.171V339h-3.171Zm0 0"/><g clip-path="url(#ak)"><path fill="none" stroke="#FFF" stroke-width=".375" d="M244.852 278.414h3.171V339h-3.171Zm0 0"/></g><path fill="#636EFA" d="M248.023 271.273h3.176V339h-3.176Zm0 0"/><g clip-path="url(#al)"><path fill="none" stroke="#FFF" stroke-width=".375" d="M248.023 271.273h3.176V339h-3.176Zm0 0"/></g><path fill="#636EFA" d="M251.2 272.348h3.179V339h-3.18Zm0 0"/><g clip-path="url(#am)"><path fill="none" stroke="#FFF" stroke-width=".375" d="M251.2 272.348h3.179V339h-3.18Zm0 0"/></g><path fill="#636EFA" d="M254.379 269.895h3.172V339h-3.172Zm0 0"/><g clip-path="url(#an)"><path fill="none" stroke="#FFF" stroke-width=".375" d="M254.379 269.895h3.172V339h-3.172Zm0 0"/></g><path fill="#636EFA" d="M257.55 257.762h3.173V339h-3.172Zm0 0"/><g clip-path="url(#ao)"><path fill="none" stroke="#FFF" stroke-width=".375" d="M257.55 257.762h3.173V339h-3.172Zm0 0"/></g><path fill="#636EFA" d="M260.723 258.066h3.18V339h-3.18Zm0 0"/><g clip-path="url(#ap)"><path fill="none" stroke="#FFF" stroke-width=".375" d="M260.723 258.066h3.18V339h-3.18Zm0 0"/></g><path fill="#636EFA" d="M263.902 243.832h3.172V339h-3.172Zm0 0"/><g clip-path="url(#aq)"><path fill="none" stroke="#FFF" stroke-width=".375" d="M263.902 243.832h3.172V339h-3.172Zm0 0"/></g><path fill="#636EFA" d="M267.074 230.063h3.172V339h-3.172Zm0 0"/><g clip-path="url(#ar)"><path fill="none" stroke="#FFF" stroke-width=".375" d="M267.074 230.063h3.172V339h-3.172Zm0 0"/></g><path fill="#636EFA" d="M270.246 224.762h3.18V339h-3.18Zm0 0"/><g clip-path="url(#as)"><path fill="none" stroke="#FFF" stroke-width=".375" d="M270.246 224.762h3.18V339h-3.18Zm0 0"/></g><path fill="#636EFA" d="M273.426 220.785h3.176V339h-3.176Zm0 0"/><g clip-path="url(#at)"><path fill="none" stroke="#FFF" stroke-width=".375" d="M273.426 220.785h3.176V339h-3.176Zm0 0"/></g><path fill="#636EFA" d="M276.602 218.34h3.171V339h-3.171Zm0 0"/><g clip-path="url(#au)"><path fill="none" stroke="#FFF" stroke-width=".375" d="M276.602 218.34h3.171V339h-3.171Zm0 0"/></g><path fill="#636EFA" d="M279.773 210.277h3.18V339h-3.18Zm0 0"/><g clip-path="url(#av)"><path fill="none" stroke="#FFF" stroke-width=".375" d="M279.773 210.277h3.18V339h-3.18Zm0 0"/></g><path fill="#636EFA" d="M282.953 195.488h3.172V339h-3.172Zm0 0"/><g clip-path="url(#aw)"><path fill="none" stroke="#FFF" stroke-width=".375" d="M282.953 195.488h3.172V339h-3.172Zm0 0"/></g><path fill="#636EFA" d="M286.125 186.563h3.172V339h-3.172Zm0 0"/><g clip-path="url(#ax)"><path fill="none" stroke="#FFF" stroke-width=".375" d="M286.125 186.563h3.172V339h-3.172Zm0 0"/></g><path fill="#636EFA" d="M289.297 176.11h3.18V339h-3.18Zm0 0"/><g clip-path="url(#ay)"><path fill="none" stroke="#FFF" stroke-width=".375" d="M289.297 176.11h3.18V339h-3.18Zm0 0"/></g><path fill="#636EFA" d="M292.477 168.969h3.171V339h-3.171Zm0 0"/><g clip-path="url(#az)"><path fill="none" stroke="#FFF" stroke-width=".375" d="M292.477 168.969h3.171V339h-3.171Zm0 0"/></g><path fill="#636EFA" d="M295.648 159.79h3.176V339h-3.176Zm0 0"/><g clip-path="url(#aA)"><path fill="none" stroke="#FFF" stroke-width=".375" d="M295.648 159.79h3.176V339h-3.176Zm0 0"/></g><path fill="#636EFA" d="M298.824 151.988h3.18V339h-3.18Zm0 0"/><g clip-path="url(#aB)"><path fill="none" stroke="#FFF" stroke-width=".375" d="M298.824 151.988h3.18V339h-3.18Zm0 0"/></g><path fill="#636EFA" d="M302.004 139.133h3.172V339h-3.172Zm0 0"/><g clip-path="url(#aC)"><path fill="none" stroke="#FFF" stroke-width=".375" d="M302.004 139.133h3.172V339h-3.172Zm0 0"/></g><path fill="#636EFA" d="M305.176 121.281h3.172V339h-3.172Zm0 0"/><g clip-path="url(#aD)"><path fill="none" stroke="#FFF" stroke-width=".375" d="M305.176 121.281h3.172V339h-3.172Zm0 0"/></g><path fill="#636EFA" d="M308.348 108.277h3.18V339h-3.18Zm0 0"/><g clip-path="url(#aE)"><path fill="none" stroke="#FFF" stroke-width=".375" d="M308.348 108.277h3.18V339h-3.18Zm0 0"/></g><path fill="#636EFA" d="M311.527 102.262h3.172V339h-3.172Zm0 0"/><g clip-path="url(#aF)"><path fill="none" stroke="#FFF" stroke-width=".375" d="M311.527 102.262h3.172V339h-3.172Zm0 0"/></g><path fill="#636EFA" d="M314.7 113.023h3.171V339H314.7Zm0 0"/><g clip-path="url(#aG)"><path fill="none" stroke="#FFF" stroke-width=".375" d="M314.7 113.023h3.171V339H314.7Zm0 0"/></g><path fill="#636EFA" d="M317.871 98.543h3.18V339h-3.18Zm0 0"/><g clip-path="url(#aH)"><path fill="none" stroke="#FFF" stroke-width=".375" d="M317.871 98.543h3.18V339h-3.18Zm0 0"/></g><path fill="#636EFA" d="M321.05 88.547h3.177V339h-3.176Zm0 0"/><g clip-path="url(#aI)"><path fill="none" stroke="#FFF" stroke-width=".375" d="M321.05 88.547h3.177V339h-3.176Zm0 0"/></g><path fill="#636EFA" d="M324.227 79.164h3.171V339h-3.171Zm0 0"/><g clip-path="url(#aJ)"><path fill="none" stroke="#FFF" stroke-width=".375" d="M324.227 79.164h3.171V339h-3.171Zm0 0"/></g><path fill="#636EFA" d="M327.398 76.36h3.18V339h-3.18Zm0 0"/><g clip-path="url(#aK)"><path fill="none" stroke="#FFF" stroke-width=".375" d="M327.398 76.36h3.18V339h-3.18Zm0 0"/></g><path fill="#636EFA" d="M330.578 64.066h3.172V339h-3.172Zm0 0"/><g clip-path="url(#aL)"><path fill="none" stroke="#FFF" stroke-width=".375" d="M330.578 64.066h3.172V339h-3.172Zm0 0"/></g><path fill="#636EFA" d="M333.75 53.102h3.172V339h-3.172Zm0 0"/><g clip-path="url(#aM)"><path fill="none" stroke="#FFF" stroke-width=".375" d="M333.75 53.102h3.172V339h-3.172Zm0 0"/></g><path fill="#636EFA" d="M336.922 59.113h3.18V339h-3.18Zm0 0"/><g clip-path="url(#aN)"><path fill="none" stroke="#FFF" stroke-width=".375" d="M336.922 59.113h3.18V339h-3.18Zm0 0"/></g><path fill="#636EFA" d="M340.102 51.676h3.171V339h-3.171Zm0 0"/><g clip-path="url(#aO)"><path fill="none" stroke="#FFF" stroke-width=".375" d="M340.102 51.676h3.171V339h-3.171Zm0 0"/></g><path fill="#636EFA" d="M343.273 49.273h3.176V339h-3.176Zm0 0"/><g clip-path="url(#aP)"><path fill="none" stroke="#FFF" stroke-width=".375" d="M343.273 49.273h3.176V339h-3.176Zm0 0"/></g><path fill="#636EFA" d="M346.45 45.45h3.179V339h-3.18Zm0 0"/><g clip-path="url(#aQ)"><path fill="none" stroke="#FFF" stroke-width=".375" d="M346.45 45.45h3.179V339h-3.18Zm0 0"/></g><path fill="#636EFA" d="M349.629 57.637h3.172V339h-3.172Zm0 0"/><g clip-path="url(#aR)"><path fill="none" stroke="#FFF" stroke-width=".375" d="M349.629 57.637h3.172V339h-3.172Zm0 0"/></g><path fill="#636EFA" d="M352.8 71.203h3.173V339H352.8Zm0 0"/><g clip-path="url(#aS)"><path fill="none" stroke="#FFF" stroke-width=".375" d="M352.8 71.203h3.173V339H352.8Zm0 0"/></g><path fill="#636EFA" d="M355.973 79.059h3.18V339h-3.18Zm0 0"/><g clip-path="url(#aT)"><path fill="none" stroke="#FFF" stroke-width=".375" d="M355.973 79.059h3.18V339h-3.18Zm0 0"/></g><path fill="#636EFA" d="M359.152 100.074h3.172V339h-3.172Zm0 0"/><g clip-path="url(#aU)"><path fill="none" stroke="#FFF" stroke-width=".375" d="M359.152 100.074h3.172V339h-3.172Zm0 0"/></g><path fill="#636EFA" d="M362.324 105.426h3.172V339h-3.172Zm0 0"/><g clip-path="url(#aV)"><path fill="none" stroke="#FFF" stroke-width=".375" d="M362.324 105.426h3.172V339h-3.172Zm0 0"/></g><path fill="#636EFA" d="M365.496 115.32h3.18V339h-3.18Zm0 0"/><g clip-path="url(#aW)"><path fill="none" stroke="#FFF" stroke-width=".375" d="M365.496 115.32h3.18V339h-3.18Zm0 0"/></g><path fill="#636EFA" d="M368.676 123.734h3.176V339h-3.176Zm0 0"/><g clip-path="url(#aX)"><path fill="none" stroke="#FFF" stroke-width=".375" d="M368.676 123.734h3.176V339h-3.176Zm0 0"/></g><path fill="#636EFA" d="M371.852 138.219h3.171V339h-3.171Zm0 0"/><g clip-path="url(#aY)"><path fill="none" stroke="#FFF" stroke-width=".375" d="M371.852 138.219h3.171V339h-3.171Zm0 0"/></g><path fill="#636EFA" d="M375.023 149.332h3.18V339h-3.18Zm0 0"/><g clip-path="url(#aZ)"><path fill="none" stroke="#FFF" stroke-width=".375" d="M375.023 149.332h3.18V339h-3.18Zm0 0"/></g><path fill="#636EFA" d="M378.203 158.004h3.172V339h-3.172Zm0 0"/><g clip-path="url(#ba)"><path fill="none" stroke="#FFF" stroke-width=".375" d="M378.203 158.004h3.172V339h-3.172Zm0 0"/></g><path fill="#636EFA" d="M381.375 167.29h3.172V339h-3.172Zm0 0"/><g clip-path="url(#bb)"><path fill="none" stroke="#FFF" stroke-width=".375" d="M381.375 167.29h3.172V339h-3.172Zm0 0"/></g><path fill="#EF553B" d="M384.547 175.648h3.18V339h-3.18Zm0 0"/><g clip-path="url(#bc)"><path fill="none" stroke="#FFF" stroke-width=".375" d="M384.547 175.648h3.18V339h-3.18Zm0 0"/></g><path fill="#EF553B" d="M387.727 179.113h3.171V339h-3.171Zm0 0"/><g clip-path="url(#bd)"><path fill="none" stroke="#FFF" stroke-width=".375" d="M387.727 179.113h3.171V339h-3.171Zm0 0"/></g><path fill="#EF553B" d="M390.898 187.074h3.176V339h-3.176Zm0 0"/><g clip-path="url(#be)"><path fill="none" stroke="#FFF" stroke-width=".375" d="M390.898 187.074h3.176V339h-3.176Zm0 0"/></g><path fill="#EF553B" d="M394.074 199.004h3.18V339h-3.18Zm0 0"/><g clip-path="url(#bf)"><path fill="none" stroke="#FFF" stroke-width=".375" d="M394.074 199.004h3.18V339h-3.18Zm0 0"/></g><path fill="#EF553B" d="M397.254 210.18h3.172V339h-3.172Zm0 0"/><g clip-path="url(#bg)"><path fill="none" stroke="#FFF" stroke-width=".375" d="M397.254 210.18h3.172V339h-3.172Zm0 0"/></g><path fill="#EF553B" d="M400.426 224.813h3.172V339h-3.172Zm0 0"/><g clip-path="url(#bh)"><path fill="none" stroke="#FFF" stroke-width=".375" d="M400.426 224.813h3.172V339h-3.172Zm0 0"/></g><path fill="#EF553B" d="M403.598 236.746h3.18V339h-3.18Zm0 0"/><g clip-path="url(#bi)"><path fill="none" stroke="#FFF" stroke-width=".375" d="M403.598 236.746h3.18V339h-3.18Zm0 0"/></g><path fill="#EF553B" d="M406.777 247.613h3.172V339h-3.172Zm0 0"/><g clip-path="url(#bj)"><path fill="none" stroke="#FFF" stroke-width=".375" d="M406.777 247.613h3.172V339h-3.172Zm0 0"/></g><path fill="#EF553B" d="M409.95 261.129h3.171V339h-3.172Zm0 0"/><g clip-path="url(#bk)"><path fill="none" stroke="#FFF" stroke-width=".375" d="M409.95 261.129h3.171V339h-3.172Zm0 0"/></g><path fill="#EF553B" d="M413.121 269.797h3.18V339h-3.18Zm0 0"/><g clip-path="url(#bl)"><path fill="none" stroke="#FFF" stroke-width=".375" d="M413.121 269.797h3.18V339h-3.18Zm0 0"/></g><path fill="#EF553B" d="M416.3 274.941h3.177V339H416.3Zm0 0"/><g clip-path="url(#bm)"><path fill="none" stroke="#FFF" stroke-width=".375" d="M416.3 274.941h3.177V339H416.3Zm0 0"/></g><path fill="#EF553B" d="M419.477 284.992h3.171V339h-3.171Zm0 0"/><g clip-path="url(#bn)"><path fill="none" stroke="#FFF" stroke-width=".375" d="M419.477 284.992h3.171V339h-3.171Zm0 0"/></g><path fill="#EF553B" d="M422.648 289.273h3.18V339h-3.18Zm0 0"/><g clip-path="url(#bo)"><path fill="none" stroke="#FFF" stroke-width=".375" d="M422.648 289.273h3.18V339h-3.18Zm0 0"/></g><path fill="#EF553B" d="M425.828 294.578H429V339h-3.172Zm0 0"/><g clip-path="url(#bp)"><path fill="none" stroke="#FFF" stroke-width=".375" d="M425.828 294.578H429V339h-3.172Zm0 0"/></g><path fill="#EF553B" d="M429 301.77h3.172V339H429Zm0 0"/><g clip-path="url(#bq)"><path fill="none" stroke="#FFF" stroke-width=".375" d="M429 301.77h3.172V339H429Zm0 0"/></g><path fill="#EF553B" d="M432.172 305.543h3.18V339h-3.18Zm0 0"/><g clip-path="url(#br)"><path fill="none" stroke="#FFF" stroke-width=".375" d="M432.172 305.543h3.18V339h-3.18Zm0 0"/></g><path fill="#EF553B" d="M435.352 310.64h3.171V339h-3.171Zm0 0"/><g clip-path="url(#bs)"><path fill="none" stroke="#FFF" stroke-width=".375" d="M435.352 310.64h3.171V339h-3.171Zm0 0"/></g><path fill="#EF553B" d="M438.523 314.316h3.176V339h-3.176Zm0 0"/><g clip-path="url(#bt)"><path fill="none" stroke="#FFF" stroke-width=".375" d="M438.523 314.316h3.176V339h-3.176Zm0 0"/></g><path fill="#EF553B" d="M441.7 319.418h3.179V339h-3.18Zm0 0"/><g clip-path="url(#bu)"><path fill="none" stroke="#FFF" stroke-width=".375" d="M441.7 319.418h3.179V339h-3.18Zm0 0"/></g><path fill="#EF553B" d="M444.879 320.691h3.172V339h-3.172Zm0 0"/><g clip-path="url(#bv)"><path fill="none" stroke="#FFF" stroke-width=".375" d="M444.879 320.691h3.172V339h-3.172Zm0 0"/></g><path fill="#EF553B" d="M448.05 323.04h3.173V339h-3.172Zm0 0"/><g clip-path="url(#bw)"><path fill="none" stroke="#FFF" stroke-width=".375" d="M448.05 323.04h3.173V339h-3.172Zm0 0"/></g><path fill="#EF553B" d="M451.223 325.89h3.18V339h-3.18Zm0 0"/><g clip-path="url(#bx)"><path fill="none" stroke="#FFF" stroke-width=".375" d="M451.223 325.89h3.18V339h-3.18Zm0 0"/></g><path fill="#EF553B" d="M454.402 327.016h3.172V339h-3.172Zm0 0"/><g clip-path="url(#by)"><path fill="none" stroke="#FFF" stroke-width=".375" d="M454.402 327.016h3.172V339h-3.172Zm0 0"/></g><path fill="#EF553B" d="M457.574 327.727h3.172V339h-3.172Zm0 0"/><g clip-path="url(#bz)"><path fill="none" stroke="#FFF" stroke-width=".375" d="M457.574 327.727h3.172V339h-3.172Zm0 0"/></g><path fill="#EF553B" d="M460.746 329.82h3.18V339h-3.18Zm0 0"/><g clip-path="url(#bA)"><path fill="none" stroke="#FFF" stroke-width=".375" d="M460.746 329.82h3.18V339h-3.18Zm0 0"/></g><path fill="#EF553B" d="M463.926 330.691h3.176V339h-3.176Zm0 0"/><g clip-path="url(#bB)"><path fill="none" stroke="#FFF" stroke-width=".375" d="M463.926 330.691h3.176V339h-3.176Zm0 0"/></g><path fill="#EF553B" d="M467.102 332.012h3.171V339h-3.171Zm0 0"/><g clip-path="url(#bC)"><path fill="none" stroke="#FFF" stroke-width=".375" d="M467.102 332.012h3.171V339h-3.171Zm0 0"/></g><path fill="#EF553B" d="M470.273 332.676h3.18V339h-3.18Zm0 0"/><g clip-path="url(#bD)"><path fill="none" stroke="#FFF" stroke-width=".375" d="M470.273 332.676h3.18V339h-3.18Zm0 0"/></g><path fill="#EF553B" d="M473.453 332.422h3.172V339h-3.172Zm0 0"/><g clip-path="url(#bE)"><path fill="none" stroke="#FFF" stroke-width=".375" d="M473.453 332.422h3.172V339h-3.172Zm0 0"/></g><path fill="#EF553B" d="M476.625 334.156h3.172V339h-3.172Zm0 0"/><g clip-path="url(#bF)"><path fill="none" stroke="#FFF" stroke-width=".375" d="M476.625 334.156h3.172V339h-3.172Zm0 0"/></g><path fill="#EF553B" d="M479.797 334.156h3.18V339h-3.18Zm0 0"/><g clip-path="url(#bG)"><path fill="none" stroke="#FFF" stroke-width=".375" d="M479.797 334.156h3.18V339h-3.18Zm0 0"/></g><path fill="#EF553B" d="M482.977 335.578h3.171V339h-3.171Zm0 0"/><g clip-path="url(#bH)"><path fill="none" stroke="#FFF" stroke-width=".375" d="M482.977 335.578h3.171V339h-3.171Zm0 0"/></g><path fill="#EF553B" d="M486.148 334.973h3.176V339h-3.176Zm0 0"/><g clip-path="url(#bI)"><path fill="none" stroke="#FFF" stroke-width=".375" d="M486.148 334.973h3.176V339h-3.176Zm0 0"/></g><path fill="#EF553B" d="M489.324 335.684h3.18V339h-3.18Zm0 0"/><g clip-path="url(#bJ)"><path fill="none" stroke="#FFF" stroke-width=".375" d="M489.324 335.684h3.18V339h-3.18Zm0 0"/></g><path fill="#EF553B" d="M492.504 336.809h3.172V339h-3.172Zm0 0"/><g clip-path="url(#bK)"><path fill="none" stroke="#FFF" stroke-width=".375" d="M492.504 336.809h3.172V339h-3.172Zm0 0"/></g><path fill="#EF553B" d="M495.676 336.855h3.172V339h-3.172Zm0 0"/><g clip-path="url(#bL)"><path fill="none" stroke="#FFF" stroke-width=".375" d="M495.676 336.855h3.172V339h-3.172Zm0 0"/></g><path fill="#EF553B" d="M498.848 337.215h3.18V339h-3.18Zm0 0"/><g clip-path="url(#bM)"><path fill="none" stroke="#FFF" stroke-width=".375" d="M498.848 337.215h3.18V339h-3.18Zm0 0"/></g><path fill="#EF553B" d="M502.027 337.012h3.172V339h-3.172Zm0 0"/><g clip-path="url(#bN)"><path fill="none" stroke="#FFF" stroke-width=".375" d="M502.027 337.012h3.172V339h-3.172Zm0 0"/></g><path fill="#EF553B" d="M505.2 337.469h3.171V339H505.2Zm0 0"/><g clip-path="url(#bO)"><path fill="none" stroke="#FFF" stroke-width=".375" d="M505.2 337.469h3.171V339H505.2Zm0 0"/></g><path fill="#EF553B" d="M508.371 337.777h3.18V339h-3.18Zm0 0"/><g clip-path="url(#bP)"><path fill="none" stroke="#FFF" stroke-width=".375" d="M508.371 337.777h3.18V339h-3.18Zm0 0"/></g><path fill="#EF553B" d="M511.55 337.98h3.177V339h-3.176Zm0 0"/><g clip-path="url(#bQ)"><path fill="none" stroke="#FFF" stroke-width=".375" d="M511.55 337.98h3.177V339h-3.176Zm0 0"/></g><path fill="#EF553B" d="M514.727 338.184h3.171V339h-3.171Zm0 0"/><g clip-path="url(#bR)"><path fill="none" stroke="#FFF" stroke-width=".375" d="M514.727 338.184h3.171V339h-3.171Zm0 0"/></g><path fill="#EF553B" d="M517.898 337.828h3.18V339h-3.18Zm0 0"/><g clip-path="url(#bS)"><path fill="none" stroke="#FFF" stroke-width=".375" d="M517.898 337.828h3.18V339h-3.18Zm0 0"/></g><g clip-path="url(#bT)"><path fill="#EF553B" d="M521.078 338.184h3.172V339h-3.172Zm0 0"/></g><g clip-path="url(#bU)"><path fill="none" stroke="#FFF" stroke-width=".375" d="M521.078 338.184h3.172V339h-3.172Zm0 0"/></g><g clip-path="url(#bV)"><path fill="none" stroke="#000" stroke-width=".75" d="M47.25 339.375H525M47.25 29.625H525"/></g><path fill="none" stroke="#000" stroke-width=".75" d="M47.625 30v309m477-309v309"/><path fill="none" stroke="#444" stroke-width=".75" d="M60.906 339.75v3.75m64.965-3.75v3.75m64.973-3.75v3.75m64.972-3.75v3.75m64.965-3.75v3.75m64.973-3.75v3.75m64.965-3.75v3.75m64.972-3.75v3.75"/><g fill="#2A3F5F"><use xlink:href="#bW" x="49.866" y="354.3"/><use xlink:href="#bX" x="57.231" y="354.3"/><use xlink:href="#bY" x="62.953" y="354.3"/><use xlink:href="#bZ" x="66.227" y="354.3"/></g><g fill="#2A3F5F"><use xlink:href="#bW" x="119.329" y="354.3"/><use xlink:href="#bX" x="126.694" y="354.3"/></g><g fill="#2A3F5F"><use xlink:href="#bW" x="179.804" y="354.3"/><use xlink:href="#ca" x="187.169" y="354.3"/><use xlink:href="#bY" x="192.891" y="354.3"/><use xlink:href="#bZ" x="196.165" y="354.3"/></g><g fill="#2A3F5F"><use xlink:href="#bW" x="249.274" y="354.3"/><use xlink:href="#ca" x="256.639" y="354.3"/></g><g fill="#2A3F5F"><use xlink:href="#bW" x="309.741" y="354.3"/><use xlink:href="#cb" x="317.106" y="354.3"/><use xlink:href="#bY" x="322.828" y="354.3"/><use xlink:href="#bZ" x="326.102" y="354.3"/></g><use xlink:href="#cb" x="382.894" y="354.3" fill="#2A3F5F"/><g fill="#2A3F5F"><use xlink:href="#cb" x="443.361" y="354.3"/><use xlink:href="#bY" x="449.083" y="354.3"/><use xlink:href="#bZ" x="452.357" y="354.3"/></g><use xlink:href="#ca" x="512.832" y="354.3" fill="#2A3F5F"/><path fill="none" stroke="#444" stroke-width=".75" d="M47.25 339H43.5m3.75-51H43.5m3.75-51H43.5m3.75-51H43.5m3.75-50.992H43.5m3.75-51H43.5m3.75-51H43.5"/><use xlink:href="#cb" x="35.978" y="342.15" fill="#2A3F5F"/><g fill="#2A3F5F"><use xlink:href="#ca" x="18.813" y="291.15"/><use xlink:href="#cb" x="24.535" y="291.15"/><use xlink:href="#cb" x="30.257" y="291.15"/><use xlink:href="#cb" x="35.978" y="291.15"/></g><g fill="#2A3F5F"><use xlink:href="#bX" x="18.813" y="240.15"/><use xlink:href="#cb" x="24.535" y="240.15"/><use xlink:href="#cb" x="30.257" y="240.15"/><use xlink:href="#cb" x="35.978" y="240.15"/></g><g fill="#2A3F5F"><use xlink:href="#cc" x="18.813" y="189.15"/><use xlink:href="#cb" x="24.535" y="189.15"/><use xlink:href="#cb" x="30.257" y="189.15"/><use xlink:href="#cb" x="35.978" y="189.15"/></g><g fill="#2A3F5F"><use xlink:href="#cd" x="18.813" y="138.157"/><use xlink:href="#cb" x="24.535" y="138.157"/><use xlink:href="#cb" x="30.257" y="138.157"/><use xlink:href="#cb" x="35.978" y="138.157"/></g><g fill="#2A3F5F"><use xlink:href="#bZ" x="18.813" y="87.157"/><use xlink:href="#cb" x="24.535" y="87.157"/><use xlink:href="#cb" x="30.257" y="87.157"/><use xlink:href="#cb" x="35.978" y="87.157"/></g><g fill="#2A3F5F"><use xlink:href="#ce" x="18.813" y="36.157"/><use xlink:href="#cb" x="24.535" y="36.157"/><use xlink:href="#cb" x="30.257" y="36.157"/><use xlink:href="#cb" x="35.978" y="36.157"/></g><path fill="#2A3F5F" d="M284.16 339v-6.75h.75V339m-.75-13.5v-6.75h.75v6.75m-.75-13.5v-6.75h.75V312m-.75-13.5v-6.75h.75v6.75m-.75-13.5v-6.75h.75V285m-.75-13.5v-6.75h.75v6.75m-.75-13.5v-6.75h.75V258m-.75-13.5v-6.75h.75v6.75m-.75-13.5v-6.75h.75V231m-.75-13.5v-6.75h.75v6.75m-.75-13.5v-6.75h.75V204m-.75-13.5v-6.75h.75v6.75m-.75-13.5v-6.75h.75V177m-.75-13.5v-6.75h.75v6.75m-.75-13.5v-6.75h.75V150m-.75-13.5v-6.75h.75v6.75m-.75-13.5v-6.75h.75V123m-.75-13.5v-6.75h.75v6.75m-.75-13.5v-6.75h.75V96m-.75-13.5v-6.75h.75v6.75m-.75-13.5v-6.75h.75V69m-.75-13.5v-6.75h.75v6.75m-.75-13.5v-6.75h.75V42M165.285 339v-6.75h.375V339m-.375-13.5v-6.75h.375v6.75m-.375-13.5v-6.75h.375V312m-.375-13.5v-6.75h.375v6.75m-.375-13.5v-6.75h.375V285m-.375-13.5v-6.75h.375v6.75m-.375-13.5v-6.75h.375V258m-.375-13.5v-6.75h.375v6.75m-.375-13.5v-6.75h.375V231m-.375-13.5v-6.75h.375v6.75m-.375-13.5v-6.75h.375V204m-.375-13.5v-6.75h.375v6.75m-.375-13.5v-6.75h.375V177m-.375-13.5v-6.75h.375v6.75m-.375-13.5v-6.75h.375V150m-.375-13.5v-6.75h.375v6.75m-.375-13.5v-6.75h.375V123m-.375-13.5v-6.75h.375v6.75m-.375-13.5v-6.75h.375V96m-.375-13.5v-6.75h.375v6.75m-.375-13.5v-6.75h.375V69m-.375-13.5v-6.75h.375v6.75m-.375-13.5v-6.75h.375V42m237.75 297v-6.75h.375V339m-.375-13.5v-6.75h.375v6.75m-.375-13.5v-6.75h.375V312m-.375-13.5v-6.75h.375v6.75m-.375-13.5v-6.75h.375V285m-.375-13.5v-6.75h.375v6.75m-.375-13.5v-6.75h.375V258m-.375-13.5v-6.75h.375v6.75m-.375-13.5v-6.75h.375V231m-.375-13.5v-6.75h.375v6.75m-.375-13.5v-6.75h.375V204m-.375-13.5v-6.75h.375v6.75m-.375-13.5v-6.75h.375V177m-.375-13.5v-6.75h.375v6.75m-.375-13.5v-6.75h.375V150m-.375-13.5v-6.75h.375v6.75m-.375-13.5v-6.75h.375V123m-.375-13.5v-6.75h.375v6.75M403.41 96v-6.75h.375V96m-.375-13.5v-6.75h.375v6.75M403.41 69v-6.75h.375V69m-.375-13.5v-6.75h.375v6.75M403.41 42v-6.75h.375V42"/><g fill="#2A3F5F"><use xlink:href="#cf" x="196.244" y="372.75"/><use xlink:href="#cg" x="206.626" y="372.75"/><use xlink:href="#ch" x="213.825" y="372.75"/><use xlink:href="#ci" x="222.674" y="372.75"/><use xlink:href="#cj" x="226.365" y="372.75"/><use xlink:href="#ck" x="230.057" y="372.75"/><use xlink:href="#cl" x="236.429" y="372.75"/><use xlink:href="#cm" x="240.91" y="372.75"/><use xlink:href="#cn" x="251.123" y="372.75"/><use xlink:href="#co" x="257.429" y="372.75"/><use xlink:href="#cp" x="261.567" y="372.75"/><use xlink:href="#ck" x="264.448" y="372.75"/><use xlink:href="#cq" x="270.821" y="372.75"/><use xlink:href="#ci" x="277.466" y="372.75"/><use xlink:href="#cr" x="281.157" y="372.75"/><use xlink:href="#cq" x="287.412" y="372.75"/><use xlink:href="#cr" x="294.056" y="372.75"/><use xlink:href="#cl" x="300.311" y="372.75"/><use xlink:href="#cs" x="304.792" y="372.75"/><use xlink:href="#ct" x="311.334" y="372.75"/><use xlink:href="#ci" x="317.548" y="372.75"/><use xlink:href="#cu" x="321.239" y="372.75"/><use xlink:href="#cr" x="326.008" y="372.75"/><use xlink:href="#cv" x="332.262" y="372.75"/><use xlink:href="#cw" x="339.44" y="372.75"/><use xlink:href="#cn" x="344.208" y="372.75"/><use xlink:href="#co" x="350.514" y="372.75"/><use xlink:href="#ck" x="354.652" y="372.75"/><use xlink:href="#cm" x="361.025" y="372.75"/><use xlink:href="#cx" x="371.238" y="372.75"/></g><g fill="#2A3F5F"><use xlink:href="#cy" x="10.5" y="241.668"/><use xlink:href="#cz" x="10.5" y="233.814"/><use xlink:href="#cA" x="10.5" y="227.169"/><use xlink:href="#cB" x="10.5" y="216.956"/><use xlink:href="#cC" x="10.5" y="210.414"/><use xlink:href="#cD" x="10.5" y="204.159"/><use xlink:href="#cE" x="10.5" y="199.678"/><use xlink:href="#cF" x="10.5" y="195.987"/><use xlink:href="#cG" x="10.5" y="189.614"/><use xlink:href="#cE" x="10.5" y="185.923"/><use xlink:href="#cH" x="10.5" y="182.231"/><use xlink:href="#cI" x="10.5" y="175.054"/><use xlink:href="#cD" x="10.5" y="170.916"/><use xlink:href="#cz" x="10.5" y="166.435"/><use xlink:href="#cJ" x="10.5" y="159.791"/><use xlink:href="#cI" x="10.5" y="154.32"/><use xlink:href="#cz" x="10.5" y="150.183"/><use xlink:href="#cD" x="10.5" y="143.538"/><use xlink:href="#cC" x="10.5" y="139.057"/><use xlink:href="#cK" x="10.5" y="132.802"/></g><g fill="#2A3F5F"><use xlink:href="#cL" x="215.255" y="48"/><use xlink:href="#cM" x="224.009" y="48"/><use xlink:href="#cN" x="229.37" y="48"/><use xlink:href="#cO" x="234.776" y="48"/><use xlink:href="#cP" x="240.471" y="48"/><use xlink:href="#cQ" x="243.635" y="48"/><use xlink:href="#cP" x="251" y="48"/><use xlink:href="#cR" x="254.164" y="48"/><use xlink:href="#cb" x="258.251" y="48"/><use xlink:href="#bY" x="263.973" y="48"/><use xlink:href="#cS" x="267.247" y="48"/><use xlink:href="#cT" x="272.968" y="48"/></g><g fill="#2A3F5F"><use xlink:href="#cL" x="72.755" y="48"/><use xlink:href="#cM" x="81.509" y="48"/><use xlink:href="#cN" x="86.87" y="48"/><use xlink:href="#cO" x="92.276" y="48"/><use xlink:href="#cP" x="97.971" y="48"/><use xlink:href="#cR" x="101.135" y="48"/><use xlink:href="#cP" x="105.222" y="48"/><use xlink:href="#cU" x="108.386" y="48"/><use xlink:href="#cV" x="113.075" y="48"/><use xlink:href="#cW" x="116.621" y="48"/><use xlink:href="#cP" x="122.229" y="48"/><use xlink:href="#cQ" x="125.393" y="48"/><use xlink:href="#cP" x="132.758" y="48"/><use xlink:href="#cR" x="135.922" y="48"/><use xlink:href="#ca" x="140.009" y="48"/><use xlink:href="#bY" x="145.731" y="48"/><use xlink:href="#cS" x="149.005" y="48"/><use xlink:href="#cb" x="154.726" y="48"/></g><g fill="#2A3F5F"><use xlink:href="#cL" x="311.261" y="48"/><use xlink:href="#cM" x="320.015" y="48"/><use xlink:href="#cN" x="325.376" y="48"/><use xlink:href="#cO" x="330.781" y="48"/><use xlink:href="#cP" x="336.477" y="48"/><use xlink:href="#cX" x="339.641" y="48"/><use xlink:href="#cP" x="347.006" y="48"/><use xlink:href="#cU" x="350.17" y="48"/><use xlink:href="#cV" x="354.859" y="48"/><use xlink:href="#cW" x="358.406" y="48"/><use xlink:href="#cP" x="364.013" y="48"/><use xlink:href="#cQ" x="367.177" y="48"/><use xlink:href="#cP" x="374.542" y="48"/><use xlink:href="#cb" x="377.706" y="48"/><use xlink:href="#bY" x="383.428" y="48"/><use xlink:href="#ca" x="386.702" y="48"/><use xlink:href="#cd" x="392.424" y="48"/></g></svg>