<svg xmlns="http://www.w3.org/2000/svg" xmlns:xlink="http://www.w3.org/1999/xlink" width="600" height="224.88"><defs><path id="e" d="M0 .906V.234h.125v.25h.828v-.25h.11q-.002.047.015.11.013.058.031.094.012.029.047.046.03.031.094.032v.14H.125v.25Zm0 0"/><path id="g" d="M5.125-3.281q-.001 1.769-.547 2.594C4.211-.133 3.641.14 2.86.14Q1.687.142 1.141-.687.608-1.531.609-3.266q-.002-1.746.547-2.578.545-.827 1.703-.828 1.186 0 1.72.844c.362.562.546 1.414.546 2.547m-1.156 2c.101-.239.172-.516.203-.828q.06-.48.062-1.172a10 10 0 0 0-.062-1.14 2.7 2.7 0 0 0-.203-.845 1.2 1.2 0 0 0-.422-.515c-.18-.114-.406-.172-.688-.172a1.3 1.3 0 0 0-.687.172q-.27.176-.422.515a3 3 0 0 0-.203.86 13 13 0 0 0-.047 1.14q0 .69.047 1.157.046.455.203.812.14.344.406.531c.176.118.41.172.703.172.282 0 .508-.054.688-.172q.28-.17.422-.515m0 0"/><path id="i" d="M4.766 0H1.219v-.672h1.36v-4.375h-1.36v-.61q.28 0 .593-.046a1.8 1.8 0 0 0 .485-.125.8.8 0 0 0 .312-.281.85.85 0 0 0 .141-.453h.672v5.89h1.344Zm0 0"/><path id="j" d="M5.156-5.562 2.188 0H1.25l3.156-5.781H.672v-.766h4.484Zm0 0"/><path id="k" d="M5.281-1.844h-.968V0h-.844v-1.844H.344v-1.015L3.5-6.547h.813v4h.968ZM3.47-2.547V-5.5L.938-2.547Zm0 0"/><path id="l" d="M4.563-3.156c.132.125.25.289.343.484q.14.283.14.735 0 .454-.171.828A2.06 2.06 0 0 1 3.641 0q-.44.14-.97.14-.55 0-1.077-.141a4.6 4.6 0 0 1-.86-.281v-.922h.063q.373.252.875.422.516.157.984.156c.188 0 .383-.031.594-.094q.311-.091.5-.265.201-.2.297-.422c.07-.157.11-.352.11-.594q-.001-.357-.126-.578a1 1 0 0 0-.297-.375 1.4 1.4 0 0 0-.484-.172 3 3 0 0 0-.61-.062h-.39v-.735h.297q.668.002 1.062-.265c.27-.188.407-.461.407-.829a.77.77 0 0 0-.11-.406.75.75 0 0 0-.265-.297 1.5 1.5 0 0 0-.407-.156 2.3 2.3 0 0 0-.484-.047c-.281 0-.578.055-.89.156q-.47.141-.891.422H.922v-.922a4.3 4.3 0 0 1 .828-.28q.528-.142 1.016-.141.48 0 .843.093.358.095.657.282.31.222.468.515.171.3.172.688c0 .367-.133.683-.39.953a1.64 1.64 0 0 1-.907.515v.063q.216.034.485.156.28.112.468.266m0 0"/><path id="r" d="M5.14 0H.704v-.922c.313-.258.617-.52.922-.781q.467-.404.875-.797c.563-.54.945-.973 1.156-1.297q.312-.48.313-1.031-.002-.516-.344-.797c-.219-.195-.531-.297-.937-.297q-.392 0-.86.14a3.3 3.3 0 0 0-.906.438H.875v-.922a4.3 4.3 0 0 1 .828-.28q.514-.142 1.016-.141.998 0 1.562.5.576.486.578 1.312 0 .375-.093.703-.095.316-.282.61-.174.269-.406.53-.22.27-.547.579a27 27 0 0 1-.984.906c-.336.281-.64.547-.922.797h3.516Zm0 0"/><path id="s" d="M5.078-2.078c0 .305-.058.594-.172.875a1.9 1.9 0 0 1-.453.703q-.315.315-.75.484a3.1 3.1 0 0 1-1.015.157Q2.154.14 1.656.016A4 4 0 0 1 .828-.25v-.922h.063c.238.156.515.29.828.39q.482.158.953.157c.207 0 .41-.023.61-.078.195-.063.366-.164.515-.313a1.1 1.1 0 0 0 .297-.453q.093-.264.093-.61a1.24 1.24 0 0 0-.125-.577.95.95 0 0 0-.312-.375 1.45 1.45 0 0 0-.547-.219 3.3 3.3 0 0 0-.734-.078q-.393.002-.75.062-.364.048-.61.094v-3.375h3.938v.766H1.953v1.75q.188-.014.375-.016.2-.014.36-.016.528 0 .921.094c.27.055.516.156.735.313q.358.236.547.625.187.377.187.953m0 0"/><path id="v" d="M5.188-1.828c0 .574-.227 1.047-.672 1.422q-.659.562-1.657.562Q1.795.158 1.156-.39.53-.952.531-1.812q-.002-.529.313-.97.328-.449.906-.718v-.016q-.534-.28-.781-.609-.251-.34-.25-.844c0-.488.195-.894.594-1.218q.609-.5 1.546-.5.984 0 1.563.468.592.471.594 1.188c0 .304-.094.593-.282.875a1.93 1.93 0 0 1-.812.672v.03q.61.27.937.657.33.376.329.969M4.14-5.016a.91.91 0 0 0-.36-.75q-.361-.28-.922-.28-.563 0-.921.265a.85.85 0 0 0-.344.703.9.9 0 0 0 .172.562c.125.149.304.282.547.407q.152.08.453.203.31.128.609.203c.29-.188.488-.383.594-.594a1.5 1.5 0 0 0 .172-.719m.14 3.282q0-.406-.187-.641-.174-.247-.688-.5a5 5 0 0 0-.453-.172 41 41 0 0 1-.656-.25 1.8 1.8 0 0 0-.64.594 1.5 1.5 0 0 0-.235.828q-.002.598.406.984.404.392 1.047.391.64 0 1.016-.328c.257-.227.39-.531.39-.906m0 0"/><path id="z" d="M6.703 0h-.86v-5.64L4.017-1.798H3.5L1.688-5.64V0H.875v-6.547h1.188l1.75 3.64L5.5-6.546h1.203Zm0 0"/><path id="A" d="M5.188 0H.875v-6.547h4.313v.781H1.75v1.782h3.438v.78H1.75V-.78h3.438Zm0 0"/><path id="B" d="M6.344-.484a9 9 0 0 1-1.188.437 4.7 4.7 0 0 1-2.625-.031 3 3 0 0 1-1.078-.64A2.75 2.75 0 0 1 .75-1.782Q.499-2.42.5-3.281q-.002-1.56.922-2.469.92-.905 2.516-.906.56 0 1.14.14.575.128 1.25.438v1.031H6.25c-.086-.062-.215-.148-.39-.266a7 7 0 0 0-.516-.296q-.3-.124-.688-.22a3.6 3.6 0 0 0-.875-.093q-1.095 0-1.734.703c-.43.469-.64 1.106-.64 1.907q-.001 1.281.671 1.984.668.703 1.813.703c.28 0 .562-.023.843-.078.282-.063.524-.133.735-.219v-1.61h-1.75v-.765h2.625Zm0 0"/><path id="C" d="M5.875 0H4.797l-3.11-5.86V0H.876v-6.547h1.36l2.828 5.344v-5.344h.812Zm0 0"/><path id="D" d="M4.922-2.375h-3.61q-.001.457.125.797.142.329.375.547c.157.148.336.258.547.328q.312.094.688.094.497 0 1-.188.514-.2.734-.406h.047v.906q-.423.175-.86.297c-.292.07-.593.11-.905.11q-1.22 0-1.907-.657Q.468-1.202.47-2.422q0-1.201.656-1.906.657-.717 1.734-.719.984.002 1.516.578.546.58.547 1.657ZM4.125-3q-.017-.655-.344-1-.313-.359-.969-.36c-.449 0-.804.133-1.062.391A1.5 1.5 0 0 0 1.313-3Zm0 0"/><path id="E" d="M3.36-.047a4 4 0 0 1-.516.094q-.269.047-.485.047-.752.002-1.14-.406Q.828-.718.829-1.61v-2.61H.265v-.687h.562v-1.407h.828v1.407H3.36v.687H1.656v2.235q-.001.391.016.609.012.22.125.406a.62.62 0 0 0 .266.266c.113.055.285.078.515.078q.2 0 .422-.062.218-.059.313-.094h.046Zm0 0"/><path id="F" d="M6.031 0H5.11l-.64-1.828H1.64L1 0H.11L2.5-6.547h1.156ZM4.203-2.578 3.047-5.781l-1.14 3.203Zm0 0"/><path id="G" d="M5.938-.469q-.253.094-.454.188a4 4 0 0 1-.5.203 6 6 0 0 1-.578.14q-.316.062-.703.063Q3 .123 2.406-.078a2.6 2.6 0 0 1-1-.625 3 3 0 0 1-.672-1.063Q.5-2.403.5-3.266q0-.81.234-1.437a3.05 3.05 0 0 1 .657-1.078q.419-.434 1.015-.657a3.8 3.8 0 0 1 1.313-.218q.515.001 1.047.125.527.128 1.172.437v1.047h-.079q-.533-.451-1.062-.656a3 3 0 0 0-1.14-.219q-.504.001-.907.172a2 2 0 0 0-.703.484q-.3.329-.469.844a3.5 3.5 0 0 0-.172 1.156q0 .69.188 1.188.186.503.484.812.31.331.719.485.405.14.875.14a3.3 3.3 0 0 0 1.172-.203A3.4 3.4 0 0 0 5.875-1.5h.063Zm0 0"/><path id="H" d="M5.89 0h-.874v-3.203H1.75V0H.875v-6.547h.875v2.563h3.266v-2.563h.875Zm0 0"/><path id="I" d="M5.813-2.016A1.9 1.9 0 0 1 5.14-.53q-.377.282-.828.406-.441.127-1.11.125H.875v-6.547h1.938c.476 0 .835.024 1.078.063q.358.047.687.218c.238.125.41.29.516.485.101.199.156.433.156.703q0 .468-.234.797a1.7 1.7 0 0 1-.625.531v.031q.655.128 1.03.578.39.458.391 1.125m-1.47-2.953a.9.9 0 0 0-.077-.39.6.6 0 0 0-.25-.266 1.1 1.1 0 0 0-.5-.14 8 8 0 0 0-.735-.032H1.75v1.89h1.125q.406 0 .64-.046.248-.045.454-.172a.77.77 0 0 0 .281-.344q.094-.2.094-.5m.563 2.985c0-.258-.043-.47-.125-.625Q4.67-2.844 4.36-3a1.5 1.5 0 0 0-.515-.14 8 8 0 0 0-.735-.032H1.75V-.75h1.156q.56 0 .922-.047.375-.06.61-.219.247-.169.359-.39c.07-.145.11-.336.11-.578m0 0"/><path id="J" d="M5.75-5.797q.405.44.61 1.078.217.645.218 1.453 0 .798-.219 1.438-.222.645-.609 1.078a2.6 2.6 0 0 1-.953.672 3.4 3.4 0 0 1-1.25.219c-.461 0-.883-.082-1.266-.235a2.7 2.7 0 0 1-.953-.656 3 3 0 0 1-.61-1.062C.57-2.238.5-2.722.5-3.266q-.001-.793.203-1.437.216-.639.625-1.094.389-.422.953-.656a3.3 3.3 0 0 1 1.266-.234q.702 0 1.25.234a2.7 2.7 0 0 1 .953.656m-.078 2.531q-.002-1.277-.578-1.968-.562-.687-1.547-.688-1.003 0-1.578.688-.563.69-.563 1.968 0 1.283.578 1.97.591.689 1.563.687.966.002 1.547-.688.576-.685.578-1.969m0 0"/><path id="K" d="M8.5-6.547 6.797 0h-.984L4.438-5.437 3.093 0H2.14L.406-6.547h.89l1.376 5.438 1.36-5.438h.874l1.375 5.5 1.36-5.5Zm0 0"/><path id="L" d="M5.64-1.875q0 .392-.187.766a1.6 1.6 0 0 1-.5.625q-.344.282-.812.453a3.7 3.7 0 0 1-1.125.156A6 6 0 0 1 1.734 0a6.3 6.3 0 0 1-1.14-.406V-1.5h.062c.32.281.703.496 1.14.64.438.15.845.22 1.22.22q.808 0 1.265-.297c.301-.196.453-.47.453-.813q-.001-.436-.218-.64-.222-.2-.641-.313a5 5 0 0 0-.734-.14A13 13 0 0 1 2.344-3q-.877-.186-1.297-.625-.422-.45-.422-1.172-.002-.81.688-1.328.7-.53 1.765-.531.703.001 1.266.125.574.129 1.031.328v1.031h-.062q-.375-.327-.985-.531a4 4 0 0 0-1.25-.203q-.703.002-1.125.297-.422.281-.422.734 0 .408.203.64.218.236.75.36.282.064.797.156.528.08.89.172c.477.125.845.32 1.095.578q.375.392.375 1.094m0 0"/><path id="M" d="M6.297 0h-1.14L2.968-2.61H1.75V0H.875v-6.547h1.844q.591 0 .984.078.387.082.703.282.358.222.563.562.201.345.203.86c0 .468-.121.867-.36 1.187a2.3 2.3 0 0 1-.984.719ZM4.266-4.703c0-.188-.04-.352-.11-.5a.8.8 0 0 0-.328-.36 1.05 1.05 0 0 0-.453-.187 3.4 3.4 0 0 0-.61-.047H1.75v2.469h.875q.421 0 .719-.063.31-.075.531-.28.188-.189.281-.423c.07-.156.11-.36.11-.61m0 0"/><path id="N" d="M3.875-4.016h-.047a7 7 0 0 0-.36-.046 2.5 2.5 0 0 0-.405-.032 1.7 1.7 0 0 0-.735.172 3.6 3.6 0 0 0-.687.438V0H.813v-4.906h.828v.718c.32-.257.609-.44.859-.546q.388-.171.781-.172c.133 0 .235.008.297.015.07 0 .172.012.297.032Zm0 0"/><path id="O" d="M4.922 0h-.828v-2.797a4 4 0 0 0-.047-.64 1.05 1.05 0 0 0-.14-.454.7.7 0 0 0-.313-.28 1.3 1.3 0 0 0-.547-.095q-.328.001-.703.172a4.7 4.7 0 0 0-.703.422V0H.813v-4.906h.828v.547a3 3 0 0 1 .797-.5q.42-.188.843-.188.797.002 1.219.484.422.471.422 1.375Zm0 0"/><path id="P" d="M3.453-6.031h-.047a2 2 0 0 0-.36-.078 2 2 0 0 0-.374-.047q-.534 0-.781.234-.235.234-.235.844v.172h1.485v.687H1.688V0H.859v-4.219H.297v-.687h.562v-.172q0-.872.438-1.328.434-.47 1.25-.469.279.001.5.031.217.018.406.047Zm0 0"/><path id="Q" d="M5-2.453c0 .805-.21 1.437-.625 1.906q-.61.69-1.64.688-1.048.002-1.657-.688c-.406-.469-.61-1.101-.61-1.906q0-1.2.61-1.89.608-.704 1.656-.704 1.032 0 1.641.703c.414.461.625 1.09.625 1.89m-.86 0q0-.95-.374-1.406-.375-.47-1.032-.47-.672 0-1.046.47-.375.456-.375 1.406 0 .926.375 1.406.374.47 1.046.469.657 0 1.032-.469t.375-1.406m0 0"/><path id="R" d="M7.969 0h-.813v-2.797q0-.31-.031-.61A1.4 1.4 0 0 0 7-3.874a.6.6 0 0 0-.297-.281c-.125-.07-.305-.11-.531-.11q-.364 0-.703.188-.346.175-.688.437.014.094.016.235.014.127.016.265V0h-.829v-2.797q0-.328-.03-.61a1.4 1.4 0 0 0-.126-.468.6.6 0 0 0-.281-.281c-.125-.07-.309-.11-.547-.11q-.346.001-.687.172a6 6 0 0 0-.672.422V0H.813v-4.906h.828v.547c.257-.22.515-.383.765-.5q.388-.188.828-.188.498 0 .844.219.357.204.516.578.513-.421.922-.61.404-.186.89-.187.797.001 1.172.5.388.486.39 1.36Zm0 0"/><path id="S" d="M6.031-6.547 3.656 0H2.5L.11-6.547h.937L3.094-.78l2.062-5.766Zm0 0"/><path id="T" d="M1.703-5.734H.766v-.86h.937ZM1.641 0H.828v-4.906h.813Zm0 0"/><path id="V" d="M5.063-5.766H1.75v1.844h2.844v.766H1.75V0H.875v-6.547h4.188Zm0 0"/><path id="o" d="M1.156 2.828a1.3 1.3 0 0 1-.875-.344 1.2 1.2 0 0 1-.265-.421A1.5 1.5 0 0 1-.078 1.5q.002-.298.062-.578.061-.27.157-.469h.515V.5a2 2 0 0 0-.219.453 1.7 1.7 0 0 0-.093.531q0 .187.047.344.059.155.172.297.107.093.25.156c.101.04.218.063.343.063a.6.6 0 0 0 .313-.078.6.6 0 0 0 .218-.172.75.75 0 0 0 .125-.313 1.7 1.7 0 0 0 .047-.406q0-.223-.03-.422L1.766.609H3.64v2.204h-.422v-1.72H2.25c.008.063.016.13.016.204V1.5q0 .293-.047.516-.048.217-.172.406a.85.85 0 0 1-.36.297c-.136.07-.312.11-.53.11m0 0"/><path id="p" d="M1.016 2.89a.97.97 0 0 1-.782-.374c-.21-.243-.312-.547-.312-.922q0-.597.297-.953Q.53.297 1 .297q.311-.002.547.172c.164.125.3.289.406.5h.016Q2.12.67 2.297.53a.76.76 0 0 1 .469-.14.83.83 0 0 1 .687.343q.281.342.281.86-.001.546-.265.875a.83.83 0 0 1-.672.328.9.9 0 0 1-.485-.156 1.1 1.1 0 0 1-.374-.453h-.016a1.3 1.3 0 0 1-.36.515.82.82 0 0 1-.546.188m1.78-.578q.265-.002.423-.203a.84.84 0 0 0 .156-.515.83.83 0 0 0-.156-.516.46.46 0 0 0-.39-.187.55.55 0 0 0-.313.093.9.9 0 0 0-.22.297 5 5 0 0 0-.124.266 5 5 0 0 0-.11.328q.152.248.329.344.17.094.406.094M.97 2.392c.144 0 .265-.04.36-.11.093-.062.187-.195.28-.39q.048-.111.094-.25c.031-.086.07-.203.125-.36A.9.9 0 0 0 1.5.921a.83.83 0 0 0-.453-.124.73.73 0 0 0-.547.219.8.8 0 0 0-.219.578q0 .357.188.578a.63.63 0 0 0 .5.219m0 0"/><path id="W" d="M0-7.828v1.016h-6.578l4.469 2.125v.609l-4.47 2.11H0v.937h-7.64v-1.375l4.25-2.031-4.25-1.97v-1.421Zm0 0"/><path id="X" d="M-2.86-5.828q1.395.002 2.204.719.813.72.812 1.922 0 1.22-.812 1.937-.81.703-2.203.703-1.405 0-2.22-.703c-.538-.477-.812-1.125-.812-1.937 0-.801.274-1.442.813-1.922.543-.477 1.281-.72 2.219-.72m0 1q-1.106.002-1.656.437-.545.423-.546 1.204 0 .785.546 1.218.55.439 1.657.438 1.077 0 1.64-.438.549-.433.547-1.218.002-.763-.547-1.204-.563-.435-1.64-.437m0 0"/><path id="Y" d="M0-5.594v.969h-.594q.363.409.563.86.187.456.187.984c0 .68-.258 1.219-.781 1.625q-.795.61-2.187.61-.734 0-1.297-.204a3.1 3.1 0 0 1-.985-.578 2.4 2.4 0 0 1-.578-.797 2.3 2.3 0 0 1-.219-.969q0-.45.094-.797.096-.358.297-.734h-2.484v-.969Zm-1.406.969h-3.297a3.7 3.7 0 0 0-.234.703q-.062.3-.063.656Q-5-2.45-4.437-2c.375.305.906.453 1.593.453q1.033.001 1.563-.344.515-.357.515-1.125c0-.27-.054-.546-.171-.828a3.8 3.8 0 0 0-.47-.781m0 0"/><path id="Z" d="M-2.766-5.75v4.234q.535.001.922-.156.394-.171.64-.453.253-.263.376-.625c.086-.25.125-.52.125-.812q0-.575-.235-1.172-.234-.592-.468-.844v-.047h1.062q.204.485.344 1 .14.502.14 1.063.002 1.422-.765 2.218-.78.798-2.203.797c-.938 0-1.68-.254-2.234-.765q-.828-.762-.829-2.016 0-1.154.688-1.781.675-.64 1.922-.641Zm-.734.953q-.761 0-1.172.375c-.281.25-.422.633-.422 1.14 0 .524.157.938.469 1.25q.457.457 1.125.516Zm0 0"/><path id="aa" d="M0-1.922v.969h-7.984v-.969Zm0 0"/><path id="ab" d="M7.547 0H6.39l-.797-2.281H2.047L1.25 0H.14l2.985-8.172h1.453ZM5.25-3.219 3.813-7.234 2.375-3.22Zm0 0"/><path id="ac" d="M2.063 0H1.03v-8.547h1.032Zm0 0"/><path id="ae" d="M9.969 0H8.938v-3.5q0-.387-.047-.75a1.8 1.8 0 0 0-.141-.594.9.9 0 0 0-.36-.36q-.235-.123-.687-.124-.44 0-.875.219a6 6 0 0 0-.86.562L6-4.25a4 4 0 0 1 .016.328V0H4.984v-3.5q0-.403-.046-.766a1.8 1.8 0 0 0-.141-.578.85.85 0 0 0-.375-.36c-.156-.081-.383-.124-.672-.124q-.423 0-.86.219a4.8 4.8 0 0 0-.843.53V0H1.016v-6.14h1.03v.687q.482-.404.97-.625.481-.234 1.015-.234.622.001 1.063.265c.289.18.508.422.656.734.414-.351.797-.609 1.14-.765A2.6 2.6 0 0 1 8-6.312q1.015.001 1.484.625c.32.406.485.976.485 1.703Zm0 0"/><path id="af" d="M6.25-3.062q-.001 1.5-.781 2.375-.77.86-2.047.859-1.314.001-2.078-.86Q.577-1.56.578-3.062q-.001-1.498.766-2.374.764-.875 2.078-.875 1.278 0 2.047.875.78.876.781 2.375m-1.062 0q0-1.186-.47-1.766-.469-.593-1.296-.594-.844.002-1.313.594-.468.58-.468 1.766 0 1.159.468 1.75c.313.398.75.593 1.313.593.539 0 .969-.195 1.281-.593q.482-.591.484-1.75m0 0"/><path id="ag" d="M6 0H4.953v-.64a4 4 0 0 1-.922.593 2.5 2.5 0 0 1-1.047.219q-1.094 0-1.75-.844c-.43-.562-.64-1.344-.64-2.344 0-.52.07-.984.219-1.39q.216-.609.609-1.047.374-.404.86-.625a2.4 2.4 0 0 1 1.03-.234c.32 0 .61.039.86.109q.373.095.781.312v-2.656H6ZM4.953-1.516V-5.03a3.3 3.3 0 0 0-.734-.25 3.2 3.2 0 0 0-.719-.08q-.88 0-1.36.609-.485.596-.484 1.703c0 .73.125 1.29.375 1.672q.373.563 1.203.563.434 0 .891-.188.452-.2.828-.516m0 0"/><path id="ah" d="M6.156-2.953H1.625q-.002.563.172.984.17.424.469.688.28.268.672.39.405.127.874.125.624.001 1.25-.25c.426-.164.735-.328.922-.484h.047v1.125Q5.515-.153 4.97 0q-.55.14-1.14.14-1.536.002-2.391-.827-.861-.827-.86-2.344 0-1.5.813-2.39.824-.892 2.172-.891 1.248.001 1.921.734.67.72.672 2.062ZM5.141-3.75Q5.14-4.56 4.734-5q-.41-.452-1.218-.453-.831.002-1.328.484-.487.486-.563 1.219Zm0 0"/><path id="ai" d="M5.406-1.766c0 .563-.234 1.024-.703 1.375q-.69.533-1.89.532c-.461 0-.883-.055-1.266-.157a4.3 4.3 0 0 1-.938-.359v-1.156h.047q.48.376 1.078.593c.407.149.79.22 1.157.22q.686.002 1.062-.22a.77.77 0 0 0 .39-.703c0-.238-.07-.421-.202-.546-.149-.126-.418-.227-.813-.313q-.222-.045-.578-.11-.346-.074-.64-.156c-.532-.144-.915-.351-1.141-.625Q.625-3.81.625-4.406q-.001-.389.156-.719c.102-.219.266-.414.485-.594q.311-.264.78-.406a3.4 3.4 0 0 1 1.063-.156q.547 0 1.11.14.562.127.937.313v1.11H5.11a3.6 3.6 0 0 0-.968-.485 3.3 3.3 0 0 0-1.11-.203q-.564.001-.953.218a.68.68 0 0 0-.39.641q0 .375.234.563.234.205.75.328.28.066.625.125.357.066.61.125.715.158 1.109.562c.257.274.39.633.39 1.078m0 0"/><path id="aj" d="M3.219-4.578H1.906v-1.563H3.22Zm0 4.578H1.906v-1.562H3.22Zm0 0"/><path id="ak" d="M5.703-3.937q.263.235.438.593.17.361.172.922-.002.563-.204 1.031a2.4 2.4 0 0 1-.578.813q-.407.375-.968.562a3.8 3.8 0 0 1-1.22.188Q2.656.17 2 0A6 6 0 0 1 .922-.344V-1.5H1q.468.316 1.094.516a4 4 0 0 0 1.219.203 2.7 2.7 0 0 0 .734-.11 1.8 1.8 0 0 0 .64-.343c.165-.164.29-.344.375-.532q.125-.293.125-.734 0-.436-.14-.719a1.2 1.2 0 0 0-.39-.469 1.6 1.6 0 0 0-.61-.234 4.5 4.5 0 0 0-.75-.062h-.485v-.907h.376q.842.001 1.328-.343.499-.358.5-1.032a1.05 1.05 0 0 0-.125-.515 1.1 1.1 0 0 0-.344-.36 1.35 1.35 0 0 0-.516-.203 3 3 0 0 0-.61-.062 3.7 3.7 0 0 0-1.108.187 4.7 4.7 0 0 0-1.11.532h-.047v-1.141a4.8 4.8 0 0 1 1.032-.36 5.6 5.6 0 0 1 1.265-.156c.395 0 .742.04 1.047.11.313.074.586.187.828.343q.405.268.61.641c.132.25.203.543.203.875q-.002.674-.485 1.188a2.2 2.2 0 0 1-1.14.64v.078q.263.048.609.188.342.141.578.343m0 0"/><path id="al" d="M6.422 0H.89v-1.14q.575-.498 1.156-.985.574-.497 1.078-1c.695-.676 1.176-1.21 1.438-1.61.257-.406.39-.843.39-1.312q0-.638-.422-1-.422-.359-1.172-.36-.504 0-1.078.188a4.6 4.6 0 0 0-1.14.532h-.047v-1.157a5.4 5.4 0 0 1 1.031-.343q.657-.155 1.266-.157 1.248 0 1.968.61c.477.398.72.945.72 1.64q-.001.47-.126.875a3 3 0 0 1-.344.766q-.222.33-.515.672-.283.33-.688.719-.597.58-1.218 1.124-.628.533-1.172 1h4.406Zm0 0"/><path id="am" d="M5.953 0H1.531v-.828h1.703v-5.484H1.531v-.75q.341 0 .735-.047.404-.06.609-.188c.164-.082.297-.191.39-.328q.14-.216.172-.578h.844v7.375h1.672Zm0 0"/><path id="an" d="M6.14 0H5.11v-3.5q0-.42-.048-.781c-.03-.25-.09-.442-.171-.578a.84.84 0 0 0-.407-.344q-.25-.124-.671-.125-.423 0-.891.219a4.3 4.3 0 0 0-.875.53V0H1.016v-8.547h1.03v3.094q.484-.404 1-.625a2.5 2.5 0 0 1 1.063-.234q.998 0 1.516.609.516.595.516 1.719Zm0 0"/><clipPath id="a"><path d="M0 0h600v224.879H0Zm0 0"/></clipPath><clipPath id="b"><path d="M79.5 3H82v19h-2.5Zm0 0"/></clipPath><clipPath id="c"><path d="M79.5 2H82v21h-2.5Zm0 0"/></clipPath><clipPath id="d"><path d="M79.5 11H82v2h-2.5Zm0 0"/></clipPath><clipPath id="f"><path d="M79.5 12H82v2h-2.5Zm0 0"/></clipPath><clipPath id="h"><path d="M79.5 26H112v20H79.5Zm0 0"/></clipPath><clipPath id="m"><path d="M79.5 50H91v19H79.5Zm0 0"/></clipPath><clipPath id="n"><path d="M79.5 49H91v21H79.5Zm0 0"/></clipPath><clipPath id="q"><path d="M79.5 73H574v20H79.5Zm0 0"/></clipPath><clipPath id="t"><path d="M79.5 97H106v20H79.5Zm0 0"/></clipPath><clipPath id="u"><path d="M79.5 120H95v20H79.5Zm0 0"/></clipPath><clipPath id="w"><path d="M79.5 144H100v20H79.5Zm0 0"/></clipPath><clipPath id="x"><path d="M79.5 144H101v20H79.5Zm0 0"/></clipPath><clipPath id="y"><path d="M79.5 167H81v20h-1.5Zm0 0"/></clipPath></defs><g clip-path="url(#a)"><path fill="#FFF" d="M-60-22.488h720v269.856H-60z"/></g><path fill="#FFF" d="M79.5.75h519.75V189H79.5Zm0 0"/><path fill="none" stroke="#D3D3D3" stroke-width=".75" d="M170.754.75V189M262.012.75V189M353.266.75V189M444.516.75V189M535.777.75V189M79.5 177.234h519.75M79.5 153.703h519.75M79.5 130.172h519.75M79.5 106.64h519.75M79.5 83.11h519.75M79.5 59.578h519.75M79.5 36.047h519.75M79.5 12.516h519.75"/><path fill="none" stroke="#EBF0F8" stroke-width="1.5" d="M79.5.75V189"/><g clip-path="url(#b)"><path fill="#AB63FA" d="M79.5 3.105h2.063V21.93H79.5Zm0 0"/></g><g clip-path="url(#c)"><path fill="none" stroke="#FFF" stroke-width=".375" d="M79.5 3.105h2.063V21.93H79.5Zm0 0"/></g><g clip-path="url(#d)"><use xlink:href="#e" x="79.856" y="11.435" fill="#444"/></g><g clip-path="url(#f)"><use xlink:href="#e" x="79.856" y="12.517" fill="#444"/></g><path fill="#AB63FA" stroke="#FFF" stroke-width=".375" d="M81.563 3.105h.039V21.93h-.04Zm0 0"/><use xlink:href="#g" x="83.86" y="16.08" fill="#2A3F5F"/><g clip-path="url(#h)"><path fill="#FF6692" stroke="#FFF" stroke-width=".375" d="M79.5 26.633h31.719v18.824H79.5Zm0 0"/></g><g fill="#444"><use xlink:href="#i" x="91.795" y="39.607"/><use xlink:href="#j" x="97.517" y="39.607"/><use xlink:href="#k" x="103.238" y="39.607"/></g><path fill="#FF6692" stroke="#FFF" stroke-width=".375" d="M111.219 26.633h5.64v18.824h-5.64Zm0 0"/><g fill="#2A3F5F"><use xlink:href="#l" x="119.116" y="39.607"/><use xlink:href="#i" x="124.838" y="39.607"/></g><g clip-path="url(#m)"><path fill="#FF97FF" d="M79.5 50.168h10.566v18.824H79.5Zm0 0"/></g><g clip-path="url(#n)"><path fill="none" stroke="#FFF" stroke-width=".375" d="M79.5 50.168h10.566v18.824H79.5Zm0 0"/></g><use xlink:href="#o" x="82.796" y="56.39" fill="#444"/><use xlink:href="#p" x="82.796" y="59.58" fill="#444"/><path fill="#FF97FF" stroke="#FFF" stroke-width=".375" d="M90.066 50.168h.09v18.824h-.09Zm0 0"/><use xlink:href="#i" x="92.418" y="63.142" fill="#2A3F5F"/><g clip-path="url(#q)"><path fill="#19D3F3" stroke="#FFF" stroke-width=".375" d="M79.5 73.695h493.762V92.52H79.5Zm0 0"/></g><g fill="#444"><use xlink:href="#r" x="548.12" y="86.67"/><use xlink:href="#j" x="553.842" y="86.67"/><use xlink:href="#g" x="559.563" y="86.67"/><use xlink:href="#s" x="565.285" y="86.67"/></g><g clip-path="url(#t)"><path fill="#EF553B" stroke="#FFF" stroke-width=".375" d="M79.5 97.23h26.012v18.825H79.5Zm0 0"/></g><g fill="#444"><use xlink:href="#i" x="86.088" y="110.205"/><use xlink:href="#k" x="91.809" y="110.205"/><use xlink:href="#l" x="97.531" y="110.205"/></g><g clip-path="url(#u)"><path fill="#00CC96" stroke="#FFF" stroke-width=".375" d="M79.5 120.758h15.254v18.824H79.5Zm0 0"/></g><g fill="#2A3F5F"><use xlink:href="#v" x="97.014" y="133.732"/><use xlink:href="#k" x="102.735" y="133.732"/></g><g clip-path="url(#w)"><path fill="#636EFA" d="M79.5 144.293h20.422v18.824H79.5Zm0 0"/></g><g clip-path="url(#x)"><path fill="none" stroke="#FFF" stroke-width=".375" d="M79.5 144.293h20.422v18.824H79.5Zm0 0"/></g><g fill="#2A3F5F"><use xlink:href="#i" x="102.18" y="157.267"/><use xlink:href="#i" x="107.901" y="157.267"/><use xlink:href="#r" x="113.623" y="157.267"/></g><g clip-path="url(#y)"><path fill="#B6E880" stroke="#FFF" stroke-width=".375" d="M79.5 167.82h.621v18.825H79.5Zm0 0"/></g><use xlink:href="#l" x="82.383" y="180.795" fill="#2A3F5F"/><path fill="none" stroke="#000" stroke-width=".75" d="M78.75 189.375H600M78.75.375H600M79.125.75V189M599.625.75V189"/><path fill="none" stroke="#444" stroke-width=".75" d="M79.5 189.75v3.75m91.254-3.75v3.75m91.258-3.75v3.75m91.254-3.75v3.75m91.25-3.75v3.75m91.261-3.75v3.75"/><use xlink:href="#g" x="76.639" y="204.3" fill="#2A3F5F"/><g fill="#2A3F5F"><use xlink:href="#s" x="162.17" y="204.3"/><use xlink:href="#g" x="167.892" y="204.3"/><use xlink:href="#g" x="173.613" y="204.3"/></g><g fill="#2A3F5F"><use xlink:href="#i" x="250.569" y="204.3"/><use xlink:href="#g" x="256.291" y="204.3"/><use xlink:href="#g" x="262.012" y="204.3"/><use xlink:href="#g" x="267.734" y="204.3"/></g><g fill="#2A3F5F"><use xlink:href="#i" x="341.822" y="204.3"/><use xlink:href="#s" x="347.543" y="204.3"/><use xlink:href="#g" x="353.265" y="204.3"/><use xlink:href="#g" x="358.987" y="204.3"/></g><g fill="#2A3F5F"><use xlink:href="#r" x="433.074" y="204.3"/><use xlink:href="#g" x="438.796" y="204.3"/><use xlink:href="#g" x="444.517" y="204.3"/><use xlink:href="#g" x="450.239" y="204.3"/></g><g fill="#2A3F5F"><use xlink:href="#r" x="524.334" y="204.3"/><use xlink:href="#s" x="530.056" y="204.3"/><use xlink:href="#g" x="535.777" y="204.3"/><use xlink:href="#g" x="541.499" y="204.3"/></g><path fill="none" stroke="#444" stroke-width=".75" d="M78.75 177.234H75m3.75-23.531H75m3.75-23.531H75m3.75-23.532H75m3.75-23.53H75m3.75-23.532H75m3.75-23.531H75m3.75-23.531H75"/><g fill="#2A3F5F"><use xlink:href="#z" x="37.305" y="180.382"/><use xlink:href="#A" x="44.89" y="180.382"/><use xlink:href="#B" x="50.581" y="180.382"/><use xlink:href="#C" x="57.56" y="180.382"/><use xlink:href="#D" x="64.292" y="180.382"/><use xlink:href="#E" x="69.654" y="180.382"/></g><g fill="#2A3F5F"><use xlink:href="#z" x="47.488" y="156.855"/><use xlink:href="#F" x="55.073" y="156.855"/><use xlink:href="#G" x="61.225" y="156.855"/><use xlink:href="#A" x="67.509" y="156.855"/></g><g fill="#2A3F5F"><use xlink:href="#z" x="37.275" y="133.32"/><use xlink:href="#l" x="44.86" y="133.32"/><use xlink:href="#B" x="50.581" y="133.32"/><use xlink:href="#C" x="57.56" y="133.32"/><use xlink:href="#D" x="64.292" y="133.32"/><use xlink:href="#E" x="69.654" y="133.32"/></g><g fill="#2A3F5F"><use xlink:href="#G" x="37.534" y="109.792"/><use xlink:href="#H" x="43.818" y="109.792"/><use xlink:href="#B" x="50.581" y="109.792"/><use xlink:href="#C" x="57.56" y="109.792"/><use xlink:href="#D" x="64.292" y="109.792"/><use xlink:href="#E" x="69.654" y="109.792"/></g><g fill="#2A3F5F"><use xlink:href="#I" x="38.637" y="86.257"/><use xlink:href="#J" x="44.807" y="86.257"/><use xlink:href="#K" x="51.891" y="86.257"/><use xlink:href="#L" x="60.79" y="86.257"/><use xlink:href="#M" x="66.942" y="86.257"/></g><g fill="#2A3F5F"><use xlink:href="#K" x="18.98" y="62.73"/><use xlink:href="#N" x="27.879" y="62.73"/><use xlink:href="#D" x="31.72" y="62.73"/><use xlink:href="#O" x="37.081" y="62.73"/><use xlink:href="#P" x="42.777" y="62.73"/><use xlink:href="#Q" x="45.941" y="62.73"/><use xlink:href="#N" x="51.403" y="62.73"/><use xlink:href="#R" x="55.244" y="62.73"/><use xlink:href="#D" x="63.998" y="62.73"/><use xlink:href="#N" x="69.359" y="62.73"/></g><g fill="#2A3F5F"><use xlink:href="#S" x="24.06" y="39.195"/><use xlink:href="#Q" x="30.213" y="39.195"/><use xlink:href="#N" x="35.675" y="39.195"/><use xlink:href="#Q" x="39.516" y="39.195"/><use xlink:href="#O" x="44.978" y="39.195"/><use xlink:href="#Q" x="50.674" y="39.195"/><use xlink:href="#T" x="56.136" y="39.195"/><use xlink:href="#U" x="58.606" y="39.195"/><use xlink:href="#M" x="61.77" y="39.195"/><use xlink:href="#V" x="68.028" y="39.195"/></g><g fill="#2A3F5F"><use xlink:href="#G" x="40.188" y="15.667"/><use xlink:href="#B" x="46.472" y="15.667"/><use xlink:href="#G" x="53.451" y="15.667"/><use xlink:href="#C" x="59.735" y="15.667"/><use xlink:href="#C" x="66.468" y="15.667"/></g><g fill="#2A3F5F"><use xlink:href="#W" x="10.5" y="110.325"/><use xlink:href="#X" x="10.5" y="101.476"/><use xlink:href="#Y" x="10.5" y="95.103"/><use xlink:href="#Z" x="10.5" y="88.561"/><use xlink:href="#aa" x="10.5" y="82.306"/></g><g fill="#2A3F5F"><use xlink:href="#ab" x="485.26" y="15.75"/><use xlink:href="#ac" x="492.95" y="15.75"/><use xlink:href="#ac" x="496.037" y="15.75"/><use xlink:href="#ad" x="499.125" y="15.75"/><use xlink:href="#ae" x="503.08" y="15.75"/><use xlink:href="#af" x="514.022" y="15.75"/><use xlink:href="#ag" x="520.85" y="15.75"/><use xlink:href="#ah" x="527.859" y="15.75"/><use xlink:href="#ac" x="534.561" y="15.75"/><use xlink:href="#ai" x="537.648" y="15.75"/><use xlink:href="#aj" x="543.509" y="15.75"/><use xlink:href="#ad" x="548.618" y="15.75"/><use xlink:href="#ak" x="552.573" y="15.75"/><use xlink:href="#ak" x="559.725" y="15.75"/><use xlink:href="#al" x="566.877" y="15.75"/><use xlink:href="#am" x="574.029" y="15.75"/><use xlink:href="#ad" x="581.181" y="15.75"/><use xlink:href="#an" x="585.137" y="15.75"/></g></svg>