<svg xmlns="http://www.w3.org/2000/svg" xmlns:xlink="http://www.w3.org/1999/xlink" width="375.12" height="224.88"><defs><clipPath id="a"><path d="M0 0h375v224.879H0Zm0 0"/></clipPath><clipPath id="b"><path d="M42 168h2v21h-2Zm0 0"/></clipPath><clipPath id="c"><path d="M47 172h2v17h-2Zm0 0"/></clipPath><clipPath id="d"><path d="M68 172h2v17h-2Zm0 0"/></clipPath><clipPath id="e"><path d="M70 155h2v34h-2Zm0 0"/></clipPath><clipPath id="f"><path d="M71 141h2v48h-2Zm0 0"/></clipPath><clipPath id="g"><path d="M72 133h3v56h-3Zm0 0"/></clipPath><clipPath id="h"><path d="M73 123h3v66h-3Zm0 0"/></clipPath><clipPath id="i"><path d="M74 108h3v81h-3Zm0 0"/></clipPath><clipPath id="j"><path d="M75 113h3v76h-3Zm0 0"/></clipPath><clipPath id="k"><path d="M77 120h2v69h-2Zm0 0"/></clipPath><clipPath id="l"><path d="M78 132h2v57h-2Zm0 0"/></clipPath><clipPath id="m"><path d="M79 139h2v50h-2Zm0 0"/></clipPath><clipPath id="n"><path d="M80 145h2v44h-2Zm0 0"/></clipPath><clipPath id="o"><path d="M81 145h2v44h-2Zm0 0"/></clipPath><clipPath id="p"><path d="M82 141h2v48h-2Zm0 0"/></clipPath><clipPath id="q"><path d="M83 134h2v55h-2Zm0 0"/></clipPath><clipPath id="r"><path d="M84 143h3v46h-3Zm0 0"/></clipPath><clipPath id="s"><path d="M85 157h3v32h-3Zm0 0"/></clipPath><clipPath id="t"><path d="M86 164h3v25h-3Zm0 0"/></clipPath><clipPath id="u"><path d="M88 164h2v25h-2Zm0 0"/></clipPath><clipPath id="v"><path d="M89 158h2v31h-2Zm0 0"/></clipPath><clipPath id="w"><path d="M90 164h2v25h-2Zm0 0"/></clipPath><clipPath id="x"><path d="M91 179h2v10h-2Zm0 0"/></clipPath><clipPath id="y"><path d="M92 160h2v29h-2Zm0 0"/></clipPath><clipPath id="z"><path d="M93 155h2v34h-2Zm0 0"/></clipPath><clipPath id="A"><path d="M94 162h2v27h-2Zm0 0"/></clipPath><clipPath id="B"><path d="M95 143h3v46h-3Zm0 0"/></clipPath><clipPath id="C"><path d="M96 137h3v52h-3Zm0 0"/></clipPath><clipPath id="D"><path d="M97 147h3v42h-3Zm0 0"/></clipPath><clipPath id="E"><path d="M99 148h2v41h-2Zm0 0"/></clipPath><clipPath id="F"><path d="M100 145h2v44h-2Zm0 0"/></clipPath><clipPath id="G"><path d="M101 155h2v34h-2Zm0 0"/></clipPath><clipPath id="H"><path d="M102 162h2v27h-2Zm0 0"/></clipPath><clipPath id="I"><path d="M103 142h2v47h-2Zm0 0"/></clipPath><clipPath id="J"><path d="M104 97h2v92h-2Zm0 0"/></clipPath><clipPath id="K"><path d="M105 105h2v84h-2Zm0 0"/></clipPath><clipPath id="L"><path d="M106 116h3v73h-3Zm0 0"/></clipPath><clipPath id="M"><path d="M107 110h3v79h-3Zm0 0"/></clipPath><clipPath id="N"><path d="M108 102h3v87h-3Zm0 0"/></clipPath><clipPath id="O"><path d="M110 110h2v79h-2Zm0 0"/></clipPath><clipPath id="P"><path d="M111 117h2v72h-2Zm0 0"/></clipPath><clipPath id="Q"><path d="M112 122h2v67h-2Zm0 0"/></clipPath><clipPath id="R"><path d="M113 117h2v72h-2Zm0 0"/></clipPath><clipPath id="S"><path d="M114 101h2v88h-2Zm0 0"/></clipPath><clipPath id="T"><path d="M115 94h2v95h-2Zm0 0"/></clipPath><clipPath id="U"><path d="M116 100h2v89h-2Zm0 0"/></clipPath><clipPath id="V"><path d="M117 118h2v71h-2Zm0 0"/></clipPath><clipPath id="W"><path d="M118 126h3v63h-3Zm0 0"/></clipPath><clipPath id="X"><path d="M119 127h3v62h-3Zm0 0"/></clipPath><clipPath id="Y"><path d="M120 125h3v64h-3Zm0 0"/></clipPath><clipPath id="Z"><path d="M122 124h2v65h-2Zm0 0"/></clipPath><clipPath id="aa"><path d="M123 119h2v70h-2Zm0 0"/></clipPath><clipPath id="ab"><path d="M124 107h2v82h-2Zm0 0"/></clipPath><clipPath id="ac"><path d="M125 103h2v86h-2Zm0 0"/></clipPath><clipPath id="ad"><path d="M126 97h2v92h-2Zm0 0"/></clipPath><clipPath id="ae"><path d="M127 108h2v81h-2Zm0 0"/></clipPath><clipPath id="af"><path d="M128 104h2v85h-2Zm0 0"/></clipPath><clipPath id="ag"><path d="M129 95h3v94h-3Zm0 0"/></clipPath><clipPath id="ah"><path d="M130 113h3v76h-3Zm0 0"/></clipPath><clipPath id="ai"><path d="M131 121h3v68h-3Zm0 0"/></clipPath><clipPath id="aj"><path d="M133 120h2v69h-2Zm0 0"/></clipPath><clipPath id="ak"><path d="M134 122h2v67h-2Zm0 0"/></clipPath><clipPath id="al"><path d="M135 122h2v67h-2Zm0 0"/></clipPath><clipPath id="am"><path d="M136 118h2v71h-2Zm0 0"/></clipPath><clipPath id="an"><path d="M137 115h2v74h-2Zm0 0"/></clipPath><clipPath id="ao"><path d="M138 113h2v76h-2Zm0 0"/></clipPath><clipPath id="ap"><path d="M139 99h2v90h-2Zm0 0"/></clipPath><clipPath id="aq"><path d="M140 93h3v96h-3Zm0 0"/></clipPath><clipPath id="ar"><path d="M141 97h3v92h-3Zm0 0"/></clipPath><clipPath id="as"><path d="M142 111h3v78h-3Zm0 0"/></clipPath><clipPath id="at"><path d="M144 112h2v77h-2Zm0 0"/></clipPath><clipPath id="au"><path d="M145 113h2v76h-2Zm0 0"/></clipPath><clipPath id="av"><path d="M146 111h2v78h-2Zm0 0"/></clipPath><clipPath id="aw"><path d="M147 110h2v79h-2Zm0 0"/></clipPath><clipPath id="ax"><path d="M148 110h2v79h-2Zm0 0"/></clipPath><clipPath id="ay"><path d="M149 105h2v84h-2Zm0 0"/></clipPath><clipPath id="az"><path d="M150 97h2v92h-2Zm0 0"/></clipPath><clipPath id="aA"><path d="M151 94h2v95h-2Zm0 0"/></clipPath><clipPath id="aB"><path d="M152 100h3v89h-3Zm0 0"/></clipPath><clipPath id="aC"><path d="M153 100h3v89h-3Zm0 0"/></clipPath><clipPath id="aD"><path d="M154 98h3v91h-3Zm0 0"/></clipPath><clipPath id="aE"><path d="M156 96h2v93h-2Zm0 0"/></clipPath><clipPath id="aF"><path d="M157 93h2v96h-2Zm0 0"/></clipPath><clipPath id="aG"><path d="M158 89h2v100h-2Zm0 0"/></clipPath><clipPath id="aH"><path d="M159 86h2v103h-2Zm0 0"/></clipPath><clipPath id="aI"><path d="M160 80h2v109h-2Zm0 0"/></clipPath><clipPath id="aJ"><path d="M161 71h2v118h-2Zm0 0"/></clipPath><clipPath id="aK"><path d="M162 57h2v132h-2Zm0 0"/></clipPath><clipPath id="aL"><path d="M163 35h3v154h-3Zm0 0"/></clipPath><clipPath id="aM"><path d="M164 13h3v176h-3Zm0 0"/></clipPath><clipPath id="aN"><path d="M165 48h3v141h-3Zm0 0"/></clipPath><clipPath id="aO"><path d="M167 59h2v130h-2Zm0 0"/></clipPath><clipPath id="aP"><path d="M168 65h2v124h-2Zm0 0"/></clipPath><clipPath id="aQ"><path d="M169 69h2v120h-2Zm0 0"/></clipPath><clipPath id="aR"><path d="M170 76h2v113h-2Zm0 0"/></clipPath><clipPath id="aS"><path d="M171 77h2v112h-2Zm0 0"/></clipPath><clipPath id="aT"><path d="M172 76h2v113h-2Zm0 0"/></clipPath><clipPath id="aU"><path d="M173 78h2v111h-2Zm0 0"/></clipPath><clipPath id="aV"><path d="M174 76h3v113h-3Zm0 0"/></clipPath><clipPath id="aW"><path d="M175 81h3v108h-3Zm0 0"/></clipPath><clipPath id="aX"><path d="M176 77h3v112h-3Zm0 0"/></clipPath><clipPath id="aY"><path d="M177 73h3v116h-3Zm0 0"/></clipPath><clipPath id="aZ"><path d="M179 81h2v108h-2Zm0 0"/></clipPath><clipPath id="ba"><path d="M180 83h2v106h-2Zm0 0"/></clipPath><clipPath id="bb"><path d="M181 84h2v105h-2Zm0 0"/></clipPath><clipPath id="bc"><path d="M182 85h2v104h-2Zm0 0"/></clipPath><clipPath id="bd"><path d="M183 86h2v103h-2Zm0 0"/></clipPath><clipPath id="be"><path d="M184 87h2v102h-2Zm0 0"/></clipPath><clipPath id="bf"><path d="M185 87h2v102h-2Zm0 0"/></clipPath><clipPath id="bg"><path d="M186 81h3v108h-3Zm0 0"/></clipPath><clipPath id="bh"><path d="M187 75h3v114h-3Zm0 0"/></clipPath><clipPath id="bi"><path d="M188 71h3v118h-3Zm0 0"/></clipPath><clipPath id="bj"><path d="M190 84h2v105h-2Zm0 0"/></clipPath><clipPath id="bk"><path d="M191 85h2v104h-2Zm0 0"/></clipPath><clipPath id="bl"><path d="M192 85h2v104h-2Zm0 0"/></clipPath><clipPath id="bm"><path d="M193 84h2v105h-2Zm0 0"/></clipPath><clipPath id="bn"><path d="M194 84h2v105h-2Zm0 0"/></clipPath><clipPath id="bo"><path d="M195 86h2v103h-2Zm0 0"/></clipPath><clipPath id="bp"><path d="M196 90h2v99h-2Zm0 0"/></clipPath><clipPath id="bq"><path d="M197 89h3v100h-3Zm0 0"/></clipPath><clipPath id="br"><path d="M198 78h3v111h-3Zm0 0"/></clipPath><clipPath id="bs"><path d="M199 79h3v110h-3Zm0 0"/></clipPath><clipPath id="bt"><path d="M201 88h2v101h-2Zm0 0"/></clipPath><clipPath id="bu"><path d="M202 77h2v112h-2Zm0 0"/></clipPath><clipPath id="bv"><path d="M203 82h2v107h-2Zm0 0"/></clipPath><clipPath id="bw"><path d="M204 81h2v108h-2Zm0 0"/></clipPath><clipPath id="bx"><path d="M205 85h2v104h-2Zm0 0"/></clipPath><clipPath id="by"><path d="M206 88h2v101h-2Zm0 0"/></clipPath><clipPath id="bz"><path d="M207 92h2v97h-2Zm0 0"/></clipPath><clipPath id="bA"><path d="M208 93h3v96h-3Zm0 0"/></clipPath><clipPath id="bB"><path d="M209 95h3v94h-3Zm0 0"/></clipPath><clipPath id="bC"><path d="M210 92h3v97h-3Zm0 0"/></clipPath><clipPath id="bD"><path d="M212 84h2v105h-2Zm0 0"/></clipPath><clipPath id="bE"><path d="M213 70h2v119h-2Zm0 0"/></clipPath><clipPath id="bF"><path d="M214 76h2v113h-2Zm0 0"/></clipPath><clipPath id="bG"><path d="M215 81h2v108h-2Zm0 0"/></clipPath><clipPath id="bH"><path d="M216 87h2v102h-2Zm0 0"/></clipPath><clipPath id="bI"><path d="M217 88h2v101h-2Zm0 0"/></clipPath><clipPath id="bJ"><path d="M218 84h2v105h-2Zm0 0"/></clipPath><clipPath id="bK"><path d="M219 73h2v116h-2Zm0 0"/></clipPath><clipPath id="bL"><path d="M220 73h3v116h-3Zm0 0"/></clipPath><clipPath id="bM"><path d="M221 90h3v99h-3Zm0 0"/></clipPath><clipPath id="bN"><path d="M222 85h3v104h-3Zm0 0"/></clipPath><clipPath id="bO"><path d="M224 75h2v114h-2Zm0 0"/></clipPath><clipPath id="bP"><path d="M225 103h2v86h-2Zm0 0"/></clipPath><clipPath id="bQ"><path d="M226 135h2v54h-2Zm0 0"/></clipPath><clipPath id="bR"><path d="M227 135h2v54h-2Zm0 0"/></clipPath><clipPath id="bS"><path d="M228 125h2v64h-2Zm0 0"/></clipPath><clipPath id="bT"><path d="M229 127h2v62h-2Zm0 0"/></clipPath><clipPath id="bU"><path d="M230 123h2v66h-2Zm0 0"/></clipPath><clipPath id="bV"><path d="M231 134h3v55h-3Zm0 0"/></clipPath><clipPath id="bW"><path d="M232 129h3v60h-3Zm0 0"/></clipPath><clipPath id="bX"><path d="M233 134h3v55h-3Zm0 0"/></clipPath><clipPath id="bY"><path d="M235 126h2v63h-2Zm0 0"/></clipPath><clipPath id="bZ"><path d="M236 131h2v58h-2Zm0 0"/></clipPath><clipPath id="ca"><path d="M237 147h2v42h-2Zm0 0"/></clipPath><clipPath id="cb"><path d="M238 140h2v49h-2Zm0 0"/></clipPath><clipPath id="cc"><path d="M239 150h2v39h-2Zm0 0"/></clipPath><clipPath id="cd"><path d="M240 147h2v42h-2Zm0 0"/></clipPath><clipPath id="ce"><path d="M241 137h2v52h-2Zm0 0"/></clipPath><clipPath id="cf"><path d="M242 131h3v58h-3Zm0 0"/></clipPath><clipPath id="cg"><path d="M243 116h3v73h-3Zm0 0"/></clipPath><clipPath id="ch"><path d="M244 103h3v86h-3Zm0 0"/></clipPath><clipPath id="ci"><path d="M246 109h2v80h-2Zm0 0"/></clipPath><clipPath id="cj"><path d="M247 112h2v77h-2Zm0 0"/></clipPath><clipPath id="ck"><path d="M248 114h2v75h-2Zm0 0"/></clipPath><clipPath id="cl"><path d="M249 116h2v73h-2Zm0 0"/></clipPath><clipPath id="cm"><path d="M250 107h2v82h-2Zm0 0"/></clipPath><clipPath id="cn"><path d="M251 95h2v94h-2Zm0 0"/></clipPath><clipPath id="co"><path d="M252 90h2v99h-2Zm0 0"/></clipPath><clipPath id="cp"><path d="M253 87h2v102h-2Zm0 0"/></clipPath><clipPath id="cq"><path d="M254 108h3v81h-3Zm0 0"/></clipPath><clipPath id="cr"><path d="M255 119h3v70h-3Zm0 0"/></clipPath><clipPath id="cs"><path d="M256 129h3v60h-3Zm0 0"/></clipPath><clipPath id="ct"><path d="M258 130h2v59h-2Zm0 0"/></clipPath><clipPath id="cu"><path d="M259 139h2v50h-2Zm0 0"/></clipPath><clipPath id="cv"><path d="M260 160h2v29h-2Zm0 0"/></clipPath><clipPath id="cw"><path d="M271 164h2v25h-2Zm0 0"/></clipPath><clipPath id="cx"><path d="M281 179h2v10h-2Zm0 0"/></clipPath><clipPath id="cy"><path d="M282 172h2v17h-2Zm0 0"/></clipPath><clipPath id="cz"><path d="M286 179h2v10h-2Zm0 0"/></clipPath><clipPath id="cA"><path d="M369 172h2.25v17H369Zm0 0"/></clipPath><path id="cB" d="M6.406-2.516H.97v-.703h5.437Zm0 0"/><path id="cC" d="M5.078-2.078c0 .305-.058.594-.172.875a1.9 1.9 0 0 1-.453.703q-.315.315-.75.484a3.1 3.1 0 0 1-1.015.157Q2.154.14 1.656.016A4 4 0 0 1 .828-.25v-.922h.063c.238.156.515.29.828.39q.482.158.953.157c.207 0 .41-.023.61-.078.195-.063.366-.164.515-.313a1.1 1.1 0 0 0 .297-.453q.093-.264.093-.61a1.24 1.24 0 0 0-.125-.577.95.95 0 0 0-.312-.375 1.45 1.45 0 0 0-.547-.219 3.3 3.3 0 0 0-.734-.078q-.393.002-.75.062-.364.048-.61.094v-3.375h3.938v.766H1.953v1.75q.188-.014.375-.016.2-.014.36-.016.528 0 .921.094c.27.055.516.156.735.313q.358.236.547.625.187.377.187.953m0 0"/><path id="cD" d="M5.125-3.281q-.001 1.769-.547 2.594C4.211-.133 3.641.14 2.86.14Q1.687.142 1.141-.687.608-1.531.609-3.266q-.002-1.746.547-2.578.545-.827 1.703-.828 1.186 0 1.72.844c.362.562.546 1.414.546 2.547m-1.156 2c.101-.239.172-.516.203-.828q.06-.48.062-1.172a10 10 0 0 0-.062-1.14 2.7 2.7 0 0 0-.203-.845 1.2 1.2 0 0 0-.422-.515c-.18-.114-.406-.172-.688-.172a1.3 1.3 0 0 0-.687.172q-.27.176-.422.515a3 3 0 0 0-.203.86 13 13 0 0 0-.047 1.14q0 .69.047 1.157.046.455.203.812.14.344.406.531c.176.118.41.172.703.172.282 0 .508-.054.688-.172q.28-.17.422-.515m0 0"/><path id="cE" d="M4.766 0H1.219v-.672h1.36v-4.375h-1.36v-.61q.28 0 .593-.046a1.8 1.8 0 0 0 .485-.125.8.8 0 0 0 .312-.281.85.85 0 0 0 .141-.453h.672v5.89h1.344Zm0 0"/><path id="cF" d="M5.266 0H4.172L2.203-2.156l-.531.515V0H.844v-6.844h.828v4.39l2.39-2.452H5.11L2.83-2.641Zm0 0"/><path id="cG" d="M6.703 0h-.86v-5.64L4.017-1.798H3.5L1.688-5.64V0H.875v-6.547h1.188l1.75 3.64L5.5-6.546h1.203Zm0 0"/><path id="cH" d="M7.828 0H6.812v-6.578L4.688-2.11h-.609l-2.11-4.47V0h-.937v-7.64h1.375l2.031 4.25 1.97-4.25h1.421Zm0 0"/><path id="cI" d="M5.406 0h-.968v-.61c-.086.063-.2.15-.344.25a2 2 0 0 1-.422.235 2.4 2.4 0 0 1-.563.203q-.315.077-.718.078c-.524 0-.965-.164-1.328-.5Q.53-.859.53-1.656q0-.655.282-1.063.281-.403.796-.625.529-.233 1.25-.312a19 19 0 0 1 1.579-.125v-.156q-.001-.328-.125-.532A.9.9 0 0 0 4-4.812a1.4 1.4 0 0 0-.5-.157 3.6 3.6 0 0 0-.594-.047c-.261 0-.547.04-.86.11a6 6 0 0 0-.952.281h-.047v-.984q.28-.075.812-.157a6 6 0 0 1 1.047-.093q.608 0 1.047.093.452.096.781.344c.22.156.383.36.5.61q.171.376.172.921Zm-.968-1.406V-3q-.439.02-1.047.078-.598.047-.938.14-.409.13-.672.376-.251.25-.25.672 0 .504.297.75c.195.168.5.25.906.25q.5 0 .922-.203a4.6 4.6 0 0 0 .781-.47m0 0"/><path id="cJ" d="M5.594-.656c0 .976-.227 1.691-.672 2.14q-.659.687-2.031.688A7 7 0 0 1 2 2.109a7 7 0 0 1-.844-.187V.938h.047q.234.091.75.218.516.14 1.031.14.48 0 .797-.124.328-.112.516-.313.169-.203.25-.484a2.4 2.4 0 0 0 .078-.625v-.531q-.44.345-.828.515c-.262.118-.602.172-1.016.172-.68 0-1.219-.242-1.625-.734q-.61-.733-.61-2.094 0-.732.204-1.265.216-.546.578-.922.328-.375.797-.578a2.5 2.5 0 0 1 .969-.204c.32 0 .594.04.812.11a3.6 3.6 0 0 1 .719.297l.063-.25h.906Zm-.969-.922v-3.125a3.2 3.2 0 0 0-.719-.234 3 3 0 0 0-.656-.079c-.523 0-.937.18-1.25.532-.305.355-.453.87-.453 1.547q0 .971.328 1.468c.227.324.61.485 1.14.485q.423.001.844-.157a2.6 2.6 0 0 0 .766-.437m0 0"/><path id="cK" d="M9.313 0h-.97v-3.266q0-.357-.03-.703a1.6 1.6 0 0 0-.141-.547.8.8 0 0 0-.344-.343c-.148-.07-.36-.11-.64-.11q-.41.002-.813.203a5.5 5.5 0 0 0-.797.516c.008.086.016.18.016.281q.013.157.015.297V0h-.968v-3.266q-.001-.374-.032-.718a1.6 1.6 0 0 0-.14-.547.72.72 0 0 0-.344-.328c-.148-.07-.355-.11-.625-.11a1.8 1.8 0 0 0-.797.203c-.262.125-.527.29-.797.485V0H.953v-5.734h.953v.64q.45-.374.907-.578.45-.218.953-.219.59.002 1 .25a1.6 1.6 0 0 1 .609.688q.575-.497 1.063-.719a2.5 2.5 0 0 1 1.03-.219c.626 0 1.087.196 1.391.579q.453.563.454 1.593Zm0 0"/><path id="cL" d="M5.828-2.86Q5.826-1.464 5.11-.655q-.72.813-1.921.812-1.221 0-1.938-.812-.703-.81-.703-2.203 0-1.405.703-2.22c.477-.538 1.125-.812 1.938-.812.8 0 1.44.274 1.921.813.477.543.72 1.281.72 2.219m-1 0q-.002-1.106-.437-1.656-.424-.545-1.203-.546-.786 0-1.22.546-.437.55-.437 1.657 0 1.077.438 1.64.433.549 1.219.547.762.002 1.203-.547.435-.563.437-1.64m0 0"/><path id="cM" d="M5.047-1.656q0 .798-.656 1.297c-.43.336-1.016.5-1.766.5-.43 0-.82-.055-1.172-.157a5.4 5.4 0 0 1-.89-.328v-1.078h.046c.313.23.649.414 1.016.547a3.1 3.1 0 0 0 1.078.203q.638.001 1-.203a.72.72 0 0 0 .36-.656q-.002-.328-.204-.516-.187-.168-.75-.297a7 7 0 0 0-.53-.094 6 6 0 0 1-.61-.14Q1.218-2.78.906-3.156.593-3.545.594-4.11q0-.357.14-.672.14-.31.438-.563.294-.234.734-.375.45-.14 1-.14.516.001 1.031.125.529.128.876.297v1.03h-.047a3.8 3.8 0 0 0-.907-.452 3 3 0 0 0-1.03-.188q-.534.002-.892.203c-.242.137-.359.336-.359.594 0 .242.07.418.219.531.144.125.375.227.687.297q.282.066.61.125c.219.043.398.078.547.11q.668.156 1.03.53c.25.25.376.587.376 1m0 0"/><path id="cO" d="M4.016 2.11H2.844A8.2 8.2 0 0 1 1.422-.157c-.336-.82-.5-1.75-.5-2.781 0-1.02.164-1.942.5-2.766a8.5 8.5 0 0 1 1.422-2.281h1.172v.062a6.5 6.5 0 0 0-.797.86q-.376.485-.703 1.14-.301.628-.5 1.39a6.6 6.6 0 0 0-.188 1.595q0 .877.188 1.609.186.736.5 1.39.31.622.703 1.126.405.513.797.875Zm0 0"/><path id="cP" d="M5.766 0h-.953v-.61c-.25.274-.493.462-.72.563q-.345.155-.75.156a1.75 1.75 0 0 1-.702-.14q-.3-.14-.735-.547v2.687H.953v-7.843h.953v4.297q.17.205.578.421.406.205.875.204.468.002.813-.172.356-.17.625-.485v-4.265h.969Zm0 0"/><path id="cR" d="M3.844-2.937c0 1.03-.172 1.96-.516 2.78A8 8 0 0 1 1.922 2.11H.75v-.046a6.3 6.3 0 0 0 .797-.876A7 7 0 0 0 2.25.063c.207-.438.375-.899.5-1.391a6.5 6.5 0 0 0 .188-1.61q0-.843-.188-1.593a6.8 6.8 0 0 0-1.203-2.532q-.375-.482-.797-.859v-.062h1.172q.902 1.05 1.406 2.28.516 1.238.516 2.766m0 0"/><path id="cQ" d="M4.75-1.64c0 .261-.055.495-.156.702a1.6 1.6 0 0 1-.407.5q-.298.237-.656.344A3.8 3.8 0 0 1 2.61 0H.72v-5.344h1.578q.592 0 .875.047.293.047.562.188c.188.093.32.226.407.39q.14.237.14.578 0 .376-.187.641a1.4 1.4 0 0 1-.516.438v.03q.544.112.86.47c.207.242.312.546.312.921M3.547-4.048a.74.74 0 0 0-.063-.312.56.56 0 0 0-.203-.235 1.05 1.05 0 0 0-.422-.11 5 5 0 0 0-.593-.03h-.844v1.547h.922q.327.002.531-.032.2-.047.36-.14a.55.55 0 0 0 .234-.282 1 1 0 0 0 .078-.406M4-1.609q0-.33-.094-.516c-.062-.125-.18-.234-.344-.328a1.7 1.7 0 0 0-.421-.11 5 5 0 0 0-.594-.03H1.422V-.61h.937q.469 0 .766-.047.293-.045.5-.172a1 1 0 0 0 .281-.313Q4-1.328 4-1.609m0 0"/><path id="cS" d="M0-6.844v1.25l-6.828 3.625H0v.938h-7.64v-1.563l6.234-3.312h-6.235v-.938Zm0 0"/><path id="cT" d="M0-5.703v.969h-.64q.393.486.593.937.201.44.203.985.002.908-.547 1.406c-.363.336-.906.5-1.625.5h-3.718v-.969h3.265q.44.002.75-.031.316-.047.532-.188a.76.76 0 0 0 .328-.344q.093-.233.093-.656 0-.357-.187-.797-.2-.45-.5-.843h-4.281v-.97Zm0 0"/><path id="cU" d="M0-9.312v.968h-3.266q-.357.001-.703.031-.34.035-.547.141a.8.8 0 0 0-.343.344c-.07.148-.11.36-.11.64q.002.41.203.813.206.393.516.797.13-.014.281-.016.157-.013.297-.015H0v.968h-3.266q-.374.001-.718.032-.341.035-.547.14a.72.72 0 0 0-.328.344c-.07.148-.11.355-.11.625q.002.392.203.797c.125.262.29.527.485.797H0v.953h-5.734v-.953h.64q-.374-.45-.578-.907a2.2 2.2 0 0 1-.219-.953q.002-.59.25-1a1.6 1.6 0 0 1 .688-.609q-.497-.575-.719-1.062A2.5 2.5 0 0 1-5.89-7.47c0-.625.196-1.086.579-1.39q.563-.452 1.593-.453Zm0 0"/><path id="cV" d="M-2.906-5.984q.721.002 1.297.203.564.205.953.547.41.362.61.797c.132.292.202.609.202.953Q.155-3 .031-2.625a4 4 0 0 1-.297.719L0-1.844v.89h-7.984v-.952h2.859a4.4 4.4 0 0 1-.547-.86 2.4 2.4 0 0 1-.219-1.03q.001-1.015.782-1.595.784-.592 2.203-.593m.031.984q-1.03.002-1.562.344-.53.344-.532 1.093 0 .424.188.86.175.422.468.797h3.282q.189-.423.265-.703a3.2 3.2 0 0 0 .063-.672q0-.81-.531-1.266-.528-.452-1.641-.453m0 0"/><path id="cW" d="M-2.766-5.75v4.234q.535.001.922-.156.394-.171.64-.453.253-.263.376-.625c.086-.25.125-.52.125-.812q0-.575-.235-1.172-.234-.592-.468-.844v-.047h1.062q.204.485.344 1 .14.502.14 1.063.002 1.422-.765 2.218-.78.798-2.203.797c-.938 0-1.68-.254-2.234-.765q-.828-.762-.829-2.016 0-1.154.688-1.781.675-.64 1.922-.641Zm-.734.953q-.761 0-1.172.375c-.281.25-.422.633-.422 1.14 0 .524.157.938.469 1.25q.457.457 1.125.516Zm0 0"/><path id="cX" d="M-4.672-4.516v.047q-.06.224-.078.422a8 8 0 0 0-.016.469q.002.456.204.875.188.41.5.797H0v.953h-5.734v-.953h.859q-.468-.575-.656-1.016a2.1 2.1 0 0 1-.203-.89q.002-.264.015-.376.018-.106.047-.328Zm0 0"/><path id="cZ" d="M-2.86-5.828q1.395.002 2.204.719.813.72.812 1.922 0 1.22-.812 1.937-.81.703-2.203.703-1.405 0-2.22-.703c-.538-.477-.812-1.125-.812-1.937 0-.801.274-1.442.813-1.922.543-.477 1.281-.72 2.219-.72m0 1q-1.106.002-1.656.437-.545.423-.546 1.204 0 .785.546 1.218.55.439 1.657.438 1.077 0 1.64-.438.549-.433.547-1.218.002-.763-.547-1.204-.563-.435-1.64-.437m0 0"/><path id="da" d="M-7.047-4.031v.047a6 6 0 0 0-.094.422q-.046.252-.046.453 0 .626.28.906c.18.18.509.265.985.265h.188v-1.734h.812v1.703H0V-1h-4.922v.656h-.812V-1h-.188c-.676 0-1.195-.164-1.562-.5q-.546-.515-.547-1.469a5 5 0 0 1 .11-1.062Zm0 0"/><path id="db" d="M-1.656-5.047q.798 0 1.297.656c.336.43.5 1.016.5 1.766 0 .43-.055.82-.157 1.172q-.151.533-.328.89h-1.078v-.046c.23-.313.414-.649.547-1.016a3.1 3.1 0 0 0 .203-1.078q.001-.638-.203-1a.72.72 0 0 0-.656-.36q-.328.002-.516.204-.168.188-.297.75a7 7 0 0 0-.094.53q-.058.33-.14.61-.201.751-.578 1.063-.389.314-.953.312-.357 0-.672-.14a1.6 1.6 0 0 1-.563-.438 2.3 2.3 0 0 1-.375-.734q-.14-.45-.14-1 .001-.516.125-1.031.128-.529.297-.876h1.03v.047q-.263.377-.452.907a3 3 0 0 0-.188 1.03q.002.534.203.892.206.361.594.359c.242 0 .418-.07.531-.219.125-.144.227-.375.297-.687q.066-.282.125-.61c.043-.219.078-.398.11-.547q.156-.668.53-1.03c.25-.25.587-.376 1-.376m0 0"/><path id="dc" d="M-.047-3.922c.043.18.078.375.11.594q.046.316.046.562 0 .892-.468 1.344c-.313.305-.817.453-1.516.453h-3.047v.657h-.812V-.97h-1.641v-.968h1.64v-1.985h.813v1.985h2.61q.455.001.718-.016a1 1 0 0 0 .469-.14.64.64 0 0 0 .297-.313q.094-.2.094-.61 0-.233-.063-.484a4 4 0 0 0-.125-.375v-.047Zm0 0"/><path id="dd" d="M-.36-5.187q.236.487.36.921.124.44.125.922c0 .406-.059.79-.172 1.14a2.25 2.25 0 0 1-.562.876 2.5 2.5 0 0 1-.922.594q-.576.204-1.328.203-1.407.001-2.203-.766-.797-.78-.797-2.047 0-.499.14-.969.14-.466.328-.875h1.079v.063a3.8 3.8 0 0 0-.532.906 2.4 2.4 0 0 0-.187.907q0 .832.562 1.312.55.47 1.61.469 1.047 0 1.609-.469.549-.468.547-1.312.001-.281-.078-.579a2.3 2.3 0 0 0-.203-.546 6 6 0 0 0-.22-.407 2 2 0 0 0-.218-.281v-.062Zm0 0"/></defs><g clip-path="url(#a)"><path fill="#FFF" d="M0 0h375v225H0Zm0 0"/></g><path fill="#FFF" d="M42 3.75h329.25V189H42Zm0 0"/><path fill="none" stroke="#EBF0F8" stroke-width=".75" d="M42 179.738h329.25M42 130.598h329.25M42 81.45h329.25M42 32.309h329.25"/><g clip-path="url(#b)"><path fill="#636EFA" d="M42 168.016h1.313v1780.859H42Zm0 0"/></g><g clip-path="url(#c)"><path fill="#636EFA" d="M47.484 172.344h1.317v1776.531h-1.317Zm0 0"/></g><g clip-path="url(#d)"><path fill="#636EFA" d="M68.324 172.344h1.313v1776.531h-1.313Zm0 0"/></g><g clip-path="url(#e)"><path fill="#636EFA" d="M70.516 155.168h1.32v1793.707h-1.32Zm0 0"/></g><g clip-path="url(#f)"><path fill="#636EFA" d="M71.61 141.203h1.32v1807.672h-1.32Zm0 0"/></g><g clip-path="url(#g)"><path fill="#636EFA" d="M72.71 133.95h1.313v1814.925h-1.312Zm0 0"/></g><g clip-path="url(#h)"><path fill="#636EFA" d="M73.809 123.246h1.312v1825.629H73.81Zm0 0"/></g><g clip-path="url(#i)"><path fill="#636EFA" d="M74.902 108.855h1.32v1840.02h-1.32Zm0 0"/></g><g clip-path="url(#j)"><path fill="#636EFA" d="M75.996 113.46h1.32v1835.415h-1.32Zm0 0"/></g><g clip-path="url(#k)"><path fill="#636EFA" d="M77.102 120.727h1.312v1828.148h-1.312Zm0 0"/></g><g clip-path="url(#l)"><path fill="#636EFA" d="M78.195 132.203h1.313v1816.672h-1.313Zm0 0"/></g><g clip-path="url(#m)"><path fill="#636EFA" d="M79.29 139.598h1.32v1809.277h-1.32Zm0 0"/></g><g clip-path="url(#n)"><path fill="#636EFA" d="M80.387 145.387h1.316v1803.488h-1.316Zm0 0"/></g><g clip-path="url(#o)"><path fill="#636EFA" d="M81.48 145.387h1.32v1803.488h-1.32Zm0 0"/></g><g clip-path="url(#p)"><path fill="#636EFA" d="M82.582 141.496h1.313v1807.379h-1.313Zm0 0"/></g><g clip-path="url(#q)"><path fill="#636EFA" d="M83.676 134.707h1.312v1814.168h-1.312Zm0 0"/></g><g clip-path="url(#r)"><path fill="#636EFA" d="M84.773 143.805h1.32v1805.07h-1.32Zm0 0"/></g><g clip-path="url(#s)"><path fill="#636EFA" d="M85.867 157.547h1.32v1791.328h-1.32Zm0 0"/></g><g clip-path="url(#t)"><path fill="#636EFA" d="M86.969 164.95h1.312v1783.925H86.97Zm0 0"/></g><g clip-path="url(#u)"><path fill="#636EFA" d="M88.066 164.95h1.313v1783.925h-1.313Zm0 0"/></g><g clip-path="url(#v)"><path fill="#636EFA" d="M89.16 158.969h1.32v1789.906h-1.32Zm0 0"/></g><g clip-path="url(#w)"><path fill="#636EFA" d="M90.254 164.95h1.32v1783.925h-1.32Zm0 0"/></g><g clip-path="url(#x)"><path fill="#636EFA" d="M91.36 179.738h1.312v1769.137h-1.313Zm0 0"/></g><g clip-path="url(#y)"><path fill="#636EFA" d="M92.453 160.621h1.313v1788.254h-1.313Zm0 0"/></g><g clip-path="url(#z)"><path fill="#636EFA" d="M93.547 155.168h1.32v1793.707h-1.32Zm0 0"/></g><g clip-path="url(#A)"><path fill="#636EFA" d="M94.64 162.563h1.32v1786.312h-1.32Zm0 0"/></g><g clip-path="url(#B)"><path fill="#636EFA" d="M95.746 143.094h1.313v1805.781h-1.313Zm0 0"/></g><g clip-path="url(#C)"><path fill="#636EFA" d="M96.84 137.781h1.312v1811.094H96.84Zm0 0"/></g><g clip-path="url(#D)"><path fill="#636EFA" d="M97.934 147.773h1.32v1801.102h-1.32Zm0 0"/></g><g clip-path="url(#E)"><path fill="#636EFA" d="M99.031 148.89h1.32v1799.985h-1.32Zm0 0"/></g><g clip-path="url(#F)"><path fill="#636EFA" d="M100.125 145.824h1.32v1803.051h-1.32Zm0 0"/></g><g clip-path="url(#G)"><path fill="#636EFA" d="M101.227 155.168h1.312v1793.707h-1.312Zm0 0"/></g><g clip-path="url(#H)"><path fill="#636EFA" d="M102.324 162.563h1.313v1786.312h-1.313Zm0 0"/></g><g clip-path="url(#I)"><path fill="#636EFA" d="M103.418 142.754h1.32v1806.121h-1.32Zm0 0"/></g><g clip-path="url(#J)"><path fill="#636EFA" d="M104.512 97.566h1.32v1851.309h-1.32Zm0 0"/></g><g clip-path="url(#K)"><path fill="#636EFA" d="M105.613 105.04h1.313v1843.835h-1.313Zm0 0"/></g><g clip-path="url(#L)"><path fill="#636EFA" d="M106.71 116.953h1.313v1831.922h-1.312Zm0 0"/></g><g clip-path="url(#M)"><path fill="#636EFA" d="M107.805 110.21h1.32v1838.665h-1.32Zm0 0"/></g><g clip-path="url(#N)"><path fill="#636EFA" d="M108.898 102.27h1.32v1846.605h-1.32Zm0 0"/></g><g clip-path="url(#O)"><path fill="#636EFA" d="M110.004 110.535h1.312v1838.34h-1.312Zm0 0"/></g><g clip-path="url(#P)"><path fill="#636EFA" d="M111.098 117.758h1.312v1831.117h-1.312Zm0 0"/></g><g clip-path="url(#Q)"><path fill="#636EFA" d="M112.191 122.422h1.32v1826.453h-1.32Zm0 0"/></g><g clip-path="url(#R)"><path fill="#636EFA" d="M113.29 117.473h1.32v1831.402h-1.32Zm0 0"/></g><g clip-path="url(#S)"><path fill="#636EFA" d="M114.39 101.504h1.313v1847.371h-1.312Zm0 0"/></g><g clip-path="url(#T)"><path fill="#636EFA" d="M115.484 94.523h1.313v1854.352h-1.313Zm0 0"/></g><g clip-path="url(#U)"><path fill="#636EFA" d="M116.578 100.809h1.32v1848.066h-1.32Zm0 0"/></g><g clip-path="url(#V)"><path fill="#636EFA" d="M117.676 118.313h1.32v1830.562h-1.32Zm0 0"/></g><g clip-path="url(#W)"><path fill="#636EFA" d="M118.777 126.05h1.313v1822.825h-1.313Zm0 0"/></g><g clip-path="url(#X)"><path fill="#636EFA" d="M119.871 127.238h1.313v1821.637h-1.313Zm0 0"/></g><g clip-path="url(#Y)"><path fill="#636EFA" d="M120.969 125.379h1.312v1823.496h-1.312Zm0 0"/></g><g clip-path="url(#Z)"><path fill="#636EFA" d="M122.063 124.5h1.32v1824.375h-1.32Zm0 0"/></g><g clip-path="url(#aa)"><path fill="#636EFA" d="M123.156 119.879h1.32v1828.996h-1.32Zm0 0"/></g><g clip-path="url(#ab)"><path fill="#636EFA" d="M124.262 107.969h1.312v1840.906h-1.312Zm0 0"/></g><g clip-path="url(#ac)"><path fill="#636EFA" d="M125.355 103.336h1.313v1845.539h-1.313Zm0 0"/></g><g clip-path="url(#ad)"><path fill="#636EFA" d="M126.45 97.672h1.32v1851.203h-1.32Zm0 0"/></g><g clip-path="url(#ae)"><path fill="#636EFA" d="M127.547 108.352h1.316v1840.523h-1.316Zm0 0"/></g><g clip-path="url(#af)"><path fill="#636EFA" d="M128.648 104.738h1.313v1844.137h-1.313Zm0 0"/></g><g clip-path="url(#ag)"><path fill="#636EFA" d="M129.742 95.676h1.313v1853.199h-1.313Zm0 0"/></g><g clip-path="url(#ah)"><path fill="#636EFA" d="M130.836 113.61h1.32v1835.265h-1.32Zm0 0"/></g><g clip-path="url(#ai)"><path fill="#636EFA" d="M131.934 121.344h1.32v1827.531h-1.32Zm0 0"/></g><g clip-path="url(#aj)"><path fill="#636EFA" d="M133.035 120.816h1.313v1828.059h-1.313Zm0 0"/></g><g clip-path="url(#ak)"><path fill="#636EFA" d="M134.129 122.086h1.312v1826.789h-1.312Zm0 0"/></g><g clip-path="url(#al)"><path fill="#636EFA" d="M135.227 122.422h1.32v1826.453h-1.32Zm0 0"/></g><g clip-path="url(#am)"><path fill="#636EFA" d="M136.32 118.184h1.32v1830.691h-1.32Zm0 0"/></g><g clip-path="url(#an)"><path fill="#636EFA" d="M137.422 115.64h1.312v1833.235h-1.312Zm0 0"/></g><g clip-path="url(#ao)"><path fill="#636EFA" d="M138.516 113.227h1.312v1835.648h-1.312Zm0 0"/></g><g clip-path="url(#ap)"><path fill="#636EFA" d="M139.613 99.367h1.313v1849.508h-1.313Zm0 0"/></g><g clip-path="url(#aq)"><path fill="#636EFA" d="M140.707 93.848h1.32v1855.027h-1.32Zm0 0"/></g><g clip-path="url(#ar)"><path fill="#636EFA" d="M141.8 97.98h1.321v1850.895h-1.32Zm0 0"/></g><g clip-path="url(#as)"><path fill="#636EFA" d="M142.906 111.172h1.313v1837.703h-1.313Zm0 0"/></g><g clip-path="url(#at)"><path fill="#636EFA" d="M144 112.656h1.313v1836.219H144Zm0 0"/></g><g clip-path="url(#au)"><path fill="#636EFA" d="M145.094 113.633h1.32v1835.242h-1.32Zm0 0"/></g><g clip-path="url(#av)"><path fill="#636EFA" d="M146.191 111.93h1.32v1836.945h-1.32Zm0 0"/></g><g clip-path="url(#aw)"><path fill="#636EFA" d="M147.293 110.953h1.312v1837.922h-1.312Zm0 0"/></g><g clip-path="url(#ax)"><path fill="#636EFA" d="M148.387 110.324h1.312v1838.551h-1.312Zm0 0"/></g><g clip-path="url(#ay)"><path fill="#636EFA" d="M149.484 105.586h1.317v1843.289h-1.317Zm0 0"/></g><g clip-path="url(#az)"><path fill="#636EFA" d="M150.578 97.516h1.32v1851.359h-1.32Zm0 0"/></g><g clip-path="url(#aA)"><path fill="#636EFA" d="M151.68 94.547h1.312v1854.328h-1.312Zm0 0"/></g><g clip-path="url(#aB)"><path fill="#636EFA" d="M152.773 100.238h1.313v1848.637h-1.313Zm0 0"/></g><g clip-path="url(#aC)"><path fill="#636EFA" d="M153.871 100.336h1.32v1848.539h-1.32Zm0 0"/></g><g clip-path="url(#aD)"><path fill="#636EFA" d="M154.965 98.766h1.32v1850.109h-1.32Zm0 0"/></g><g clip-path="url(#aE)"><path fill="#636EFA" d="M156.066 96.457h1.313v1852.418h-1.313Zm0 0"/></g><g clip-path="url(#aF)"><path fill="#636EFA" d="M157.164 93.57h1.313v1855.305h-1.313Zm0 0"/></g><g clip-path="url(#aG)"><path fill="#636EFA" d="M158.258 89.762h1.312v1859.113h-1.312Zm0 0"/></g><g clip-path="url(#aH)"><path fill="#636EFA" d="M159.352 86.578h1.32v1862.297h-1.32Zm0 0"/></g><g clip-path="url(#aI)"><path fill="#636EFA" d="M160.45 80.64h1.316v1868.235h-1.317Zm0 0"/></g><g clip-path="url(#aJ)"><path fill="#636EFA" d="M161.55 71.863h1.313v1877.012h-1.312Zm0 0"/></g><g clip-path="url(#aK)"><path fill="#636EFA" d="M162.645 57.293h1.312v1891.582h-1.312Zm0 0"/></g><g clip-path="url(#aL)"><path fill="#636EFA" d="M163.738 35.438h1.32v1913.437h-1.32Zm0 0"/></g><g clip-path="url(#aM)"><path fill="#636EFA" d="M164.836 13.012h1.32v1935.863h-1.32Zm0 0"/></g><g clip-path="url(#aN)"><path fill="#636EFA" d="M165.938 48.984h1.312v1899.891h-1.312Zm0 0"/></g><g clip-path="url(#aO)"><path fill="#636EFA" d="M167.031 59.094h1.313v1889.781h-1.313Zm0 0"/></g><g clip-path="url(#aP)"><path fill="#636EFA" d="M168.129 65.11h1.32v1883.765h-1.32Zm0 0"/></g><g clip-path="url(#aQ)"><path fill="#636EFA" d="M169.223 69.773h1.32v1879.102h-1.32Zm0 0"/></g><g clip-path="url(#aR)"><path fill="#636EFA" d="M170.324 76.184h1.313v1872.691h-1.313Zm0 0"/></g><g clip-path="url(#aS)"><path fill="#636EFA" d="M171.422 77.086h1.312v1871.789h-1.312Zm0 0"/></g><g clip-path="url(#aT)"><path fill="#636EFA" d="M172.516 76.148h1.32v1872.727h-1.32Zm0 0"/></g><g clip-path="url(#aU)"><path fill="#636EFA" d="M173.61 78.105h1.32v1870.77h-1.32Zm0 0"/></g><g clip-path="url(#aV)"><path fill="#636EFA" d="M174.71 76.867h1.313v1872.008h-1.312Zm0 0"/></g><g clip-path="url(#aW)"><path fill="#636EFA" d="M175.809 81.93h1.312v1866.945h-1.312Zm0 0"/></g><g clip-path="url(#aX)"><path fill="#636EFA" d="M176.902 77.723h1.313v1871.152h-1.313Zm0 0"/></g><g clip-path="url(#aY)"><path fill="#636EFA" d="M177.996 73.89h1.32v1874.985h-1.32Zm0 0"/></g><g clip-path="url(#aZ)"><path fill="#636EFA" d="M179.094 81.367h1.32v1867.508h-1.32Zm0 0"/></g><g clip-path="url(#ba)"><path fill="#636EFA" d="M180.195 83.414h1.313v1865.461h-1.313Zm0 0"/></g><g clip-path="url(#bb)"><path fill="#636EFA" d="M181.29 84.277h1.312v1864.598h-1.313Zm0 0"/></g><g clip-path="url(#bc)"><path fill="#636EFA" d="M182.387 85.629h1.316v1863.246h-1.316Zm0 0"/></g><g clip-path="url(#bd)"><path fill="#636EFA" d="M183.48 86.055h1.32v1862.82h-1.32Zm0 0"/></g><g clip-path="url(#be)"><path fill="#636EFA" d="M184.582 87.156h1.313v1861.719h-1.313Zm0 0"/></g><g clip-path="url(#bf)"><path fill="#636EFA" d="M185.676 87.504h1.312v1861.371h-1.312Zm0 0"/></g><g clip-path="url(#bg)"><path fill="#636EFA" d="M186.773 81.691h1.32v1867.184h-1.32Zm0 0"/></g><g clip-path="url(#bh)"><path fill="#636EFA" d="M187.867 75.945h1.32v1872.93h-1.32Zm0 0"/></g><g clip-path="url(#bi)"><path fill="#636EFA" d="M188.969 71.73h1.312v1877.145h-1.312Zm0 0"/></g><g clip-path="url(#bj)"><path fill="#636EFA" d="M190.066 84.398h1.313v1864.477h-1.313Zm0 0"/></g><g clip-path="url(#bk)"><path fill="#636EFA" d="M191.16 85.59h1.32v1863.285h-1.32Zm0 0"/></g><g clip-path="url(#bl)"><path fill="#636EFA" d="M192.254 85.71h1.32v1863.165h-1.32Zm0 0"/></g><g clip-path="url(#bm)"><path fill="#636EFA" d="M193.36 84.45h1.312v1864.425h-1.313Zm0 0"/></g><g clip-path="url(#bn)"><path fill="#636EFA" d="M194.453 84.996h1.313v1863.879h-1.313Zm0 0"/></g><g clip-path="url(#bo)"><path fill="#636EFA" d="M195.547 86.953h1.32v1861.922h-1.32Zm0 0"/></g><g clip-path="url(#bp)"><path fill="#636EFA" d="M196.64 90.871h1.32v1858.004h-1.32Zm0 0"/></g><g clip-path="url(#bq)"><path fill="#636EFA" d="M197.738 89.766h1.32v1859.109h-1.32Zm0 0"/></g><g clip-path="url(#br)"><path fill="#636EFA" d="M198.84 78.668h1.312v1870.207h-1.312Zm0 0"/></g><g clip-path="url(#bs)"><path fill="#636EFA" d="M199.934 79.418h1.312v1869.457h-1.312Zm0 0"/></g><g clip-path="url(#bt)"><path fill="#636EFA" d="M201.031 88.094h1.32v1860.781h-1.32Zm0 0"/></g><g clip-path="url(#bu)"><path fill="#636EFA" d="M202.125 77.633h1.32v1871.242h-1.32Zm0 0"/></g><g clip-path="url(#bv)"><path fill="#636EFA" d="M203.227 82.379h1.312v1866.496h-1.312Zm0 0"/></g><g clip-path="url(#bw)"><path fill="#636EFA" d="M204.324 81.375h1.313v1867.5h-1.313Zm0 0"/></g><g clip-path="url(#bx)"><path fill="#636EFA" d="M205.418 85.102h1.32v1863.773h-1.32Zm0 0"/></g><g clip-path="url(#by)"><path fill="#636EFA" d="M206.512 88.078h1.32v1860.797h-1.32Zm0 0"/></g><g clip-path="url(#bz)"><path fill="#636EFA" d="M207.613 92.527h1.313v1856.348h-1.313Zm0 0"/></g><g clip-path="url(#bA)"><path fill="#636EFA" d="M208.71 93.516h1.313v1855.359h-1.312Zm0 0"/></g><g clip-path="url(#bB)"><path fill="#636EFA" d="M209.805 95.484h1.32v1853.391h-1.32Zm0 0"/></g><g clip-path="url(#bC)"><path fill="#636EFA" d="M210.898 92.836h1.32v1856.039h-1.32Zm0 0"/></g><g clip-path="url(#bD)"><path fill="#636EFA" d="M212.004 84.293h1.312v1864.582h-1.312Zm0 0"/></g><g clip-path="url(#bE)"><path fill="#636EFA" d="M213.098 70.852h1.312v1878.023h-1.312Zm0 0"/></g><g clip-path="url(#bF)"><path fill="#636EFA" d="M214.191 76.453h1.32v1872.422h-1.32Zm0 0"/></g><g clip-path="url(#bG)"><path fill="#636EFA" d="M215.29 81.504h1.32v1867.371h-1.32Zm0 0"/></g><g clip-path="url(#bH)"><path fill="#636EFA" d="M216.383 87.098h1.32v1861.777h-1.32Zm0 0"/></g><g clip-path="url(#bI)"><path fill="#636EFA" d="M217.484 88.191h1.313v1860.684h-1.313Zm0 0"/></g><g clip-path="url(#bJ)"><path fill="#636EFA" d="M218.578 84.36h1.313v1864.515h-1.313Zm0 0"/></g><g clip-path="url(#bK)"><path fill="#636EFA" d="M219.676 73.5h1.32v1875.375h-1.32Zm0 0"/></g><g clip-path="url(#bL)"><path fill="#636EFA" d="M220.77 73.46h1.32v1875.415h-1.32Zm0 0"/></g><g clip-path="url(#bM)"><path fill="#636EFA" d="M221.871 90.734h1.313v1858.141h-1.313Zm0 0"/></g><g clip-path="url(#bN)"><path fill="#636EFA" d="M222.969 85.262h1.312v1863.613h-1.312Zm0 0"/></g><g clip-path="url(#bO)"><path fill="#636EFA" d="M224.063 75.36h1.32v1873.515h-1.32Zm0 0"/></g><g clip-path="url(#bP)"><path fill="#636EFA" d="M225.156 103.582h1.32v1845.293h-1.32Zm0 0"/></g><g clip-path="url(#bQ)"><path fill="#636EFA" d="M226.262 135.188h1.312v1813.687h-1.312Zm0 0"/></g><g clip-path="url(#bR)"><path fill="#636EFA" d="M227.355 135.031h1.313v1813.844h-1.313Zm0 0"/></g><g clip-path="url(#bS)"><path fill="#636EFA" d="M228.45 125.781h1.32v1823.094h-1.32Zm0 0"/></g><g clip-path="url(#bT)"><path fill="#636EFA" d="M229.547 127.793h1.316v1821.082h-1.316Zm0 0"/></g><g clip-path="url(#bU)"><path fill="#636EFA" d="M230.648 123.977h1.313v1824.898h-1.313Zm0 0"/></g><g clip-path="url(#bV)"><path fill="#636EFA" d="M231.742 134.398h1.313v1814.477h-1.313Zm0 0"/></g><g clip-path="url(#bW)"><path fill="#636EFA" d="M232.836 129.195h1.32v1819.68h-1.32Zm0 0"/></g><g clip-path="url(#bX)"><path fill="#636EFA" d="M233.934 134.863h1.32v1814.012h-1.32Zm0 0"/></g><g clip-path="url(#bY)"><path fill="#636EFA" d="M235.035 126.27h1.313v1822.605h-1.313Zm0 0"/></g><g clip-path="url(#bZ)"><path fill="#636EFA" d="M236.129 131.258h1.312v1817.617h-1.312Zm0 0"/></g><g clip-path="url(#ca)"><path fill="#636EFA" d="M237.227 147.773h1.312v1801.102h-1.312Zm0 0"/></g><g clip-path="url(#cb)"><path fill="#636EFA" d="M238.32 140.918h1.32v1807.957h-1.32Zm0 0"/></g><g clip-path="url(#cc)"><path fill="#636EFA" d="M239.414 150.148h1.32v1798.727h-1.32Zm0 0"/></g><g clip-path="url(#cd)"><path fill="#636EFA" d="M240.516 147.773h1.312v1801.102h-1.312Zm0 0"/></g><g clip-path="url(#ce)"><path fill="#636EFA" d="M241.613 137.781h1.313v1811.094h-1.313Zm0 0"/></g><g clip-path="url(#cf)"><path fill="#636EFA" d="M242.707 131.258h1.32v1817.617h-1.32Zm0 0"/></g><g clip-path="url(#cg)"><path fill="#636EFA" d="M243.8 116.488h1.321v1832.387h-1.32Zm0 0"/></g><g clip-path="url(#ch)"><path fill="#636EFA" d="M244.906 103.965h1.313v1844.91h-1.313Zm0 0"/></g><g clip-path="url(#ci)"><path fill="#636EFA" d="M246 109.426h1.313v1839.449H246Zm0 0"/></g><g clip-path="url(#cj)"><path fill="#636EFA" d="M247.094 112.816h1.32v1836.059h-1.32Zm0 0"/></g><g clip-path="url(#ck)"><path fill="#636EFA" d="M248.191 114.691h1.32v1834.184h-1.32Zm0 0"/></g><g clip-path="url(#cl)"><path fill="#636EFA" d="M249.293 116.234h1.312v1832.641h-1.312Zm0 0"/></g><g clip-path="url(#cm)"><path fill="#636EFA" d="M250.387 107.969h1.312v1840.906h-1.312Zm0 0"/></g><g clip-path="url(#cn)"><path fill="#636EFA" d="M251.484 95.46h1.317v1853.415h-1.317Zm0 0"/></g><g clip-path="url(#co)"><path fill="#636EFA" d="M252.578 90.098h1.32v1858.777h-1.32Zm0 0"/></g><g clip-path="url(#cp)"><path fill="#636EFA" d="M253.68 87.059h1.312v1861.816h-1.312Zm0 0"/></g><g clip-path="url(#cq)"><path fill="#636EFA" d="M254.773 108.594h1.313v1840.281h-1.313Zm0 0"/></g><g clip-path="url(#cr)"><path fill="#636EFA" d="M255.871 119.61h1.313v1829.265h-1.313Zm0 0"/></g><g clip-path="url(#cs)"><path fill="#636EFA" d="M256.965 129.293h1.32v1819.582h-1.32Zm0 0"/></g><g clip-path="url(#ct)"><path fill="#636EFA" d="M258.059 130.484h1.32v1818.391h-1.32Zm0 0"/></g><g clip-path="url(#cu)"><path fill="#636EFA" d="M259.164 139.36h1.313v1809.515h-1.313Zm0 0"/></g><g clip-path="url(#cv)"><path fill="#636EFA" d="M260.258 160.621h1.312v1788.254h-1.312Zm0 0"/></g><g clip-path="url(#cw)"><path fill="#636EFA" d="M271.223 164.95h1.32v1783.925h-1.32Zm0 0"/></g><g clip-path="url(#cx)"><path fill="#636EFA" d="M281.094 179.738h1.32v1769.137h-1.32Zm0 0"/></g><g clip-path="url(#cy)"><path fill="#636EFA" d="M282.195 172.344h1.313v1776.531h-1.313Zm0 0"/></g><g clip-path="url(#cz)"><path fill="#636EFA" d="M286.582 179.738h1.313v1769.137h-1.313Zm0 0"/></g><g clip-path="url(#cA)"><path fill="#636EFA" d="M369.938 172.344h1.312v1776.531h-1.312Zm0 0"/></g><path fill="none" stroke="#D3D3D3" stroke-width=".75" d="M41.25 189.375h330M41.625 3.75V189"/><g fill="#2A3F5F"><use xlink:href="#cB" x="94.797" y="200.55"/><use xlink:href="#cC" x="102.162" y="200.55"/></g><use xlink:href="#cD" x="162.679" y="200.55" fill="#2A3F5F"/><use xlink:href="#cC" x="226.879" y="200.55" fill="#2A3F5F"/><g fill="#2A3F5F"><use xlink:href="#cE" x="288.218" y="200.55"/><use xlink:href="#cD" x="293.94" y="200.55"/></g><g fill="#2A3F5F"><use xlink:href="#cE" x="352.418" y="200.55"/><use xlink:href="#cC" x="358.14" y="200.55"/></g><use xlink:href="#cE" x="33.728" y="182.887" fill="#2A3F5F"/><g fill="#2A3F5F"><use xlink:href="#cE" x="22.285" y="133.747"/><use xlink:href="#cD" x="28.007" y="133.747"/><use xlink:href="#cD" x="33.728" y="133.747"/></g><g fill="#2A3F5F"><use xlink:href="#cE" x="22.68" y="84.6"/><use xlink:href="#cD" x="28.402" y="84.6"/><use xlink:href="#cF" x="34.124" y="84.6"/></g><g fill="#2A3F5F"><use xlink:href="#cE" x="26.143" y="35.46"/><use xlink:href="#cG" x="31.865" y="35.46"/></g><g fill="#2A3F5F"><use xlink:href="#cH" x="167.151" y="220.655"/><use xlink:href="#cI" x="176" y="220.655"/><use xlink:href="#cJ" x="182.306" y="220.655"/><use xlink:href="#cK" x="188.848" y="220.655"/><use xlink:href="#cL" x="199.061" y="220.655"/><use xlink:href="#cK" x="205.433" y="220.655"/><use xlink:href="#cM" x="215.646" y="220.655"/><use xlink:href="#cN" x="221.117" y="220.655"/><use xlink:href="#cO" x="224.808" y="220.655"/><use xlink:href="#cP" x="229.576" y="220.655"/><use xlink:href="#cN" x="236.293" y="220.655"/></g><use xlink:href="#cQ" x="236.293" y="222.86" fill="#2A3F5F"/><use xlink:href="#cN" x="241.331" y="220.655" fill="#2A3F5F"/><use xlink:href="#cR" x="241.331" y="220.655" fill="#2A3F5F"/><g fill="#2A3F5F"><use xlink:href="#cS" x="10.5" y="152.689"/><use xlink:href="#cT" x="10.5" y="144.835"/><use xlink:href="#cU" x="10.5" y="138.19"/><use xlink:href="#cV" x="10.5" y="127.978"/><use xlink:href="#cW" x="10.5" y="121.436"/><use xlink:href="#cX" x="10.5" y="115.181"/><use xlink:href="#cY" x="10.5" y="110.7"/><use xlink:href="#cZ" x="10.5" y="107.008"/><use xlink:href="#da" x="10.5" y="100.635"/><use xlink:href="#cY" x="10.5" y="96.944"/><use xlink:href="#db" x="10.5" y="93.253"/><use xlink:href="#dc" x="10.5" y="87.782"/><use xlink:href="#cX" x="10.5" y="83.645"/><use xlink:href="#cT" x="10.5" y="79.164"/><use xlink:href="#dd" x="10.5" y="72.519"/><use xlink:href="#dc" x="10.5" y="67.049"/><use xlink:href="#cT" x="10.5" y="62.911"/><use xlink:href="#cX" x="10.5" y="56.267"/><use xlink:href="#cW" x="10.5" y="51.786"/><use xlink:href="#db" x="10.5" y="45.531"/></g></svg>