<svg xmlns="http://www.w3.org/2000/svg" xmlns:xlink="http://www.w3.org/1999/xlink" width="375.12" height="224.88"><defs><clipPath id="a"><path d="M0 0h375v224.879H0Zm0 0"/></clipPath><clipPath id="b"><path d="M48 179h2v10h-2Zm0 0"/></clipPath><clipPath id="c"><path d="M73 179h3v10h-3Zm0 0"/></clipPath><clipPath id="d"><path d="M86 179h3v10h-3Zm0 0"/></clipPath><clipPath id="e"><path d="M99 106h2v83h-2Zm0 0"/></clipPath><clipPath id="f"><path d="M100 98h3v91h-3Zm0 0"/></clipPath><clipPath id="g"><path d="M101 100h3v89h-3Zm0 0"/></clipPath><clipPath id="h"><path d="M102 84h3v105h-3Zm0 0"/></clipPath><clipPath id="i"><path d="M103 81h3v108h-3Zm0 0"/></clipPath><clipPath id="j"><path d="M105 74h2v115h-2Zm0 0"/></clipPath><clipPath id="k"><path d="M106 78h2v111h-2Zm0 0"/></clipPath><clipPath id="l"><path d="M107 74h2v115h-2Zm0 0"/></clipPath><clipPath id="m"><path d="M108 70h2v119h-2Zm0 0"/></clipPath><clipPath id="n"><path d="M109 69h2v120h-2Zm0 0"/></clipPath><clipPath id="o"><path d="M110 64h2v125h-2Zm0 0"/></clipPath><clipPath id="p"><path d="M111 61h2v128h-2Zm0 0"/></clipPath><clipPath id="q"><path d="M112 58h2v131h-2Zm0 0"/></clipPath><clipPath id="r"><path d="M113 55h2v134h-2Zm0 0"/></clipPath><clipPath id="s"><path d="M114 50h3v139h-3Zm0 0"/></clipPath><clipPath id="t"><path d="M115 49h3v140h-3Zm0 0"/></clipPath><clipPath id="u"><path d="M116 47h3v142h-3Zm0 0"/></clipPath><clipPath id="v"><path d="M117 44h3v145h-3Zm0 0"/></clipPath><clipPath id="w"><path d="M119 41h2v148h-2Zm0 0"/></clipPath><clipPath id="x"><path d="M120 40h2v149h-2Zm0 0"/></clipPath><clipPath id="y"><path d="M121 38h2v151h-2Zm0 0"/></clipPath><clipPath id="z"><path d="M122 36h2v153h-2Zm0 0"/></clipPath><clipPath id="A"><path d="M123 34h2v155h-2Zm0 0"/></clipPath><clipPath id="B"><path d="M124 29h2v160h-2Zm0 0"/></clipPath><clipPath id="C"><path d="M125 29h2v160h-2Zm0 0"/></clipPath><clipPath id="D"><path d="M126 29h2v160h-2Zm0 0"/></clipPath><clipPath id="E"><path d="M127 27h2v162h-2Zm0 0"/></clipPath><clipPath id="F"><path d="M128 26h3v163h-3Zm0 0"/></clipPath><clipPath id="G"><path d="M129 24h3v165h-3Zm0 0"/></clipPath><clipPath id="H"><path d="M130 21h3v168h-3Zm0 0"/></clipPath><clipPath id="I"><path d="M131 21h3v168h-3Zm0 0"/></clipPath><clipPath id="J"><path d="M133 19h2v170h-2Zm0 0"/></clipPath><clipPath id="K"><path d="M134 20h2v169h-2Zm0 0"/></clipPath><clipPath id="L"><path d="M135 18h2v171h-2Zm0 0"/></clipPath><clipPath id="M"><path d="M136 17h2v172h-2Zm0 0"/></clipPath><clipPath id="N"><path d="M137 15h2v174h-2Zm0 0"/></clipPath><clipPath id="O"><path d="M138 15h2v174h-2Zm0 0"/></clipPath><clipPath id="P"><path d="M139 13h2v176h-2Zm0 0"/></clipPath><clipPath id="Q"><path d="M140 13h2v176h-2Zm0 0"/></clipPath><clipPath id="R"><path d="M141 14h2v175h-2Zm0 0"/></clipPath><clipPath id="S"><path d="M142 15h3v174h-3Zm0 0"/></clipPath><clipPath id="T"><path d="M143 15h3v174h-3Zm0 0"/></clipPath><clipPath id="U"><path d="M144 16h3v173h-3Zm0 0"/></clipPath><clipPath id="V"><path d="M145 17h3v172h-3Zm0 0"/></clipPath><clipPath id="W"><path d="M147 16h2v173h-2Zm0 0"/></clipPath><clipPath id="X"><path d="M148 17h2v172h-2Zm0 0"/></clipPath><clipPath id="Y"><path d="M149 15h2v174h-2Zm0 0"/></clipPath><clipPath id="Z"><path d="M150 18h2v171h-2Zm0 0"/></clipPath><clipPath id="aa"><path d="M151 18h2v171h-2Zm0 0"/></clipPath><clipPath id="ab"><path d="M152 17h2v172h-2Zm0 0"/></clipPath><clipPath id="ac"><path d="M153 16h2v173h-2Zm0 0"/></clipPath><clipPath id="ad"><path d="M154 18h2v171h-2Zm0 0"/></clipPath><clipPath id="ae"><path d="M155 19h2v170h-2Zm0 0"/></clipPath><clipPath id="af"><path d="M156 19h3v170h-3Zm0 0"/></clipPath><clipPath id="ag"><path d="M157 21h3v168h-3Zm0 0"/></clipPath><clipPath id="ah"><path d="M158 20h3v169h-3Zm0 0"/></clipPath><clipPath id="ai"><path d="M159 20h3v169h-3Zm0 0"/></clipPath><clipPath id="aj"><path d="M161 21h2v168h-2Zm0 0"/></clipPath><clipPath id="ak"><path d="M162 21h2v168h-2Zm0 0"/></clipPath><clipPath id="al"><path d="M163 22h2v167h-2Zm0 0"/></clipPath><clipPath id="am"><path d="M164 24h2v165h-2Zm0 0"/></clipPath><clipPath id="an"><path d="M165 23h2v166h-2Zm0 0"/></clipPath><clipPath id="ao"><path d="M166 23h2v166h-2Zm0 0"/></clipPath><clipPath id="ap"><path d="M167 22h2v167h-2Zm0 0"/></clipPath><clipPath id="aq"><path d="M168 21h2v168h-2Zm0 0"/></clipPath><clipPath id="ar"><path d="M169 21h2v168h-2Zm0 0"/></clipPath><clipPath id="as"><path d="M170 21h3v168h-3Zm0 0"/></clipPath><clipPath id="at"><path d="M171 19h3v170h-3Zm0 0"/></clipPath><clipPath id="au"><path d="M172 18h3v171h-3Zm0 0"/></clipPath><clipPath id="av"><path d="M173 18h3v171h-3Zm0 0"/></clipPath><clipPath id="aw"><path d="M175 18h2v171h-2Zm0 0"/></clipPath><clipPath id="ax"><path d="M176 16h2v173h-2Zm0 0"/></clipPath><clipPath id="ay"><path d="M177 15h2v174h-2Zm0 0"/></clipPath><clipPath id="az"><path d="M178 15h2v174h-2Zm0 0"/></clipPath><clipPath id="aA"><path d="M179 14h2v175h-2Zm0 0"/></clipPath><clipPath id="aB"><path d="M180 15h2v174h-2Zm0 0"/></clipPath><clipPath id="aC"><path d="M181 14h2v175h-2Zm0 0"/></clipPath><clipPath id="aD"><path d="M182 15h2v174h-2Zm0 0"/></clipPath><clipPath id="aE"><path d="M183 16h2v173h-2Zm0 0"/></clipPath><clipPath id="aF"><path d="M184 17h3v172h-3Zm0 0"/></clipPath><clipPath id="aG"><path d="M185 19h3v170h-3Zm0 0"/></clipPath><clipPath id="aH"><path d="M186 21h3v168h-3Zm0 0"/></clipPath><clipPath id="aI"><path d="M187 22h3v167h-3Zm0 0"/></clipPath><clipPath id="aJ"><path d="M189 21h2v168h-2Zm0 0"/></clipPath><clipPath id="aK"><path d="M190 18h2v171h-2Zm0 0"/></clipPath><clipPath id="aL"><path d="M191 20h2v169h-2Zm0 0"/></clipPath><clipPath id="aM"><path d="M192 23h2v166h-2Zm0 0"/></clipPath><clipPath id="aN"><path d="M193 23h2v166h-2Zm0 0"/></clipPath><clipPath id="aO"><path d="M194 26h2v163h-2Zm0 0"/></clipPath><clipPath id="aP"><path d="M195 33h2v156h-2Zm0 0"/></clipPath><clipPath id="aQ"><path d="M196 37h2v152h-2Zm0 0"/></clipPath><clipPath id="aR"><path d="M197 41h2v148h-2Zm0 0"/></clipPath><clipPath id="aS"><path d="M198 46h3v143h-3Zm0 0"/></clipPath><clipPath id="aT"><path d="M199 48h3v141h-3Zm0 0"/></clipPath><clipPath id="aU"><path d="M200 50h3v139h-3Zm0 0"/></clipPath><clipPath id="aV"><path d="M201 52h3v137h-3Zm0 0"/></clipPath><clipPath id="aW"><path d="M203 55h2v134h-2Zm0 0"/></clipPath><clipPath id="aX"><path d="M204 57h2v132h-2Zm0 0"/></clipPath><clipPath id="aY"><path d="M205 58h2v131h-2Zm0 0"/></clipPath><clipPath id="aZ"><path d="M206 61h2v128h-2Zm0 0"/></clipPath><clipPath id="ba"><path d="M207 61h2v128h-2Zm0 0"/></clipPath><clipPath id="bb"><path d="M208 62h2v127h-2Zm0 0"/></clipPath><clipPath id="bc"><path d="M209 61h2v128h-2Zm0 0"/></clipPath><clipPath id="bd"><path d="M210 61h2v128h-2Zm0 0"/></clipPath><clipPath id="be"><path d="M211 64h2v125h-2Zm0 0"/></clipPath><clipPath id="bf"><path d="M212 64h3v125h-3Zm0 0"/></clipPath><clipPath id="bg"><path d="M213 64h3v125h-3Zm0 0"/></clipPath><clipPath id="bh"><path d="M214 67h3v122h-3Zm0 0"/></clipPath><clipPath id="bi"><path d="M215 71h3v118h-3Zm0 0"/></clipPath><clipPath id="bj"><path d="M217 71h2v118h-2Zm0 0"/></clipPath><clipPath id="bk"><path d="M218 72h2v117h-2Zm0 0"/></clipPath><clipPath id="bl"><path d="M219 72h2v117h-2Zm0 0"/></clipPath><clipPath id="bm"><path d="M220 70h2v119h-2Zm0 0"/></clipPath><clipPath id="bn"><path d="M221 75h2v114h-2Zm0 0"/></clipPath><clipPath id="bo"><path d="M222 77h2v112h-2Zm0 0"/></clipPath><clipPath id="bp"><path d="M223 78h2v111h-2Zm0 0"/></clipPath><clipPath id="bq"><path d="M224 79h2v110h-2Zm0 0"/></clipPath><clipPath id="br"><path d="M225 77h2v112h-2Zm0 0"/></clipPath><clipPath id="bs"><path d="M226 78h3v111h-3Zm0 0"/></clipPath><clipPath id="bt"><path d="M227 76h3v113h-3Zm0 0"/></clipPath><clipPath id="bu"><path d="M228 80h3v109h-3Zm0 0"/></clipPath><clipPath id="bv"><path d="M229 78h3v111h-3Zm0 0"/></clipPath><clipPath id="bw"><path d="M231 77h2v112h-2Zm0 0"/></clipPath><clipPath id="bx"><path d="M232 79h2v110h-2Zm0 0"/></clipPath><clipPath id="by"><path d="M233 77h2v112h-2Zm0 0"/></clipPath><clipPath id="bz"><path d="M234 82h2v107h-2Zm0 0"/></clipPath><clipPath id="bA"><path d="M235 79h2v110h-2Zm0 0"/></clipPath><clipPath id="bB"><path d="M236 79h2v110h-2Zm0 0"/></clipPath><clipPath id="bC"><path d="M237 80h2v109h-2Zm0 0"/></clipPath><clipPath id="bD"><path d="M238 85h2v104h-2Zm0 0"/></clipPath><clipPath id="bE"><path d="M239 85h2v104h-2Zm0 0"/></clipPath><clipPath id="bF"><path d="M240 91h3v98h-3Zm0 0"/></clipPath><clipPath id="bG"><path d="M241 86h3v103h-3Zm0 0"/></clipPath><clipPath id="bH"><path d="M242 87h3v102h-3Zm0 0"/></clipPath><clipPath id="bI"><path d="M243 88h3v101h-3Zm0 0"/></clipPath><clipPath id="bJ"><path d="M245 93h2v96h-2Zm0 0"/></clipPath><clipPath id="bK"><path d="M246 91h2v98h-2Zm0 0"/></clipPath><clipPath id="bL"><path d="M247 92h2v97h-2Zm0 0"/></clipPath><clipPath id="bM"><path d="M248 89h2v100h-2Zm0 0"/></clipPath><clipPath id="bN"><path d="M249 92h2v97h-2Zm0 0"/></clipPath><clipPath id="bO"><path d="M250 96h2v93h-2Zm0 0"/></clipPath><clipPath id="bP"><path d="M251 91h2v98h-2Zm0 0"/></clipPath><clipPath id="bQ"><path d="M252 89h2v100h-2Zm0 0"/></clipPath><clipPath id="bR"><path d="M253 88h2v101h-2Zm0 0"/></clipPath><clipPath id="bS"><path d="M254 88h3v101h-3Zm0 0"/></clipPath><clipPath id="bT"><path d="M255 94h3v95h-3Zm0 0"/></clipPath><clipPath id="bU"><path d="M256 95h3v94h-3Zm0 0"/></clipPath><clipPath id="bV"><path d="M257 96h3v93h-3Zm0 0"/></clipPath><clipPath id="bW"><path d="M259 96h2v93h-2Zm0 0"/></clipPath><clipPath id="bX"><path d="M260 93h2v96h-2Zm0 0"/></clipPath><clipPath id="bY"><path d="M261 91h2v98h-2Zm0 0"/></clipPath><clipPath id="bZ"><path d="M262 93h2v96h-2Zm0 0"/></clipPath><clipPath id="ca"><path d="M263 97h2v92h-2Zm0 0"/></clipPath><clipPath id="cb"><path d="M264 100h2v89h-2Zm0 0"/></clipPath><clipPath id="cc"><path d="M265 93h2v96h-2Zm0 0"/></clipPath><clipPath id="cd"><path d="M266 94h2v95h-2Zm0 0"/></clipPath><clipPath id="ce"><path d="M267 98h2v91h-2Zm0 0"/></clipPath><clipPath id="cf"><path d="M268 98h3v91h-3Zm0 0"/></clipPath><clipPath id="cg"><path d="M269 98h3v91h-3Zm0 0"/></clipPath><clipPath id="ch"><path d="M270 101h3v88h-3Zm0 0"/></clipPath><clipPath id="ci"><path d="M271 98h3v91h-3Zm0 0"/></clipPath><clipPath id="cj"><path d="M273 101h2v88h-2Zm0 0"/></clipPath><clipPath id="ck"><path d="M274 98h2v91h-2Zm0 0"/></clipPath><clipPath id="cl"><path d="M275 103h2v86h-2Zm0 0"/></clipPath><clipPath id="cm"><path d="M276 103h2v86h-2Zm0 0"/></clipPath><clipPath id="cn"><path d="M277 102h2v87h-2Zm0 0"/></clipPath><clipPath id="co"><path d="M278 101h2v88h-2Zm0 0"/></clipPath><clipPath id="cp"><path d="M279 106h2v83h-2Zm0 0"/></clipPath><clipPath id="cq"><path d="M280 105h2v84h-2Zm0 0"/></clipPath><clipPath id="cr"><path d="M281 103h2v86h-2Zm0 0"/></clipPath><clipPath id="cs"><path d="M282 107h3v82h-3Zm0 0"/></clipPath><clipPath id="ct"><path d="M283 109h3v80h-3Zm0 0"/></clipPath><clipPath id="cu"><path d="M284 111h3v78h-3Zm0 0"/></clipPath><clipPath id="cv"><path d="M285 109h3v80h-3Zm0 0"/></clipPath><clipPath id="cw"><path d="M287 125h2v64h-2Zm0 0"/></clipPath><clipPath id="cx"><path d="M288 108h2v81h-2Zm0 0"/></clipPath><clipPath id="cy"><path d="M289 119h2v70h-2Zm0 0"/></clipPath><clipPath id="cz"><path d="M290 117h2v72h-2Zm0 0"/></clipPath><clipPath id="cA"><path d="M291 120h2v69h-2Zm0 0"/></clipPath><clipPath id="cB"><path d="M292 115h2v74h-2Zm0 0"/></clipPath><clipPath id="cC"><path d="M293 126h2v63h-2Zm0 0"/></clipPath><clipPath id="cD"><path d="M294 112h2v77h-2Zm0 0"/></clipPath><clipPath id="cE"><path d="M295 128h2v61h-2Zm0 0"/></clipPath><clipPath id="cF"><path d="M296 137h3v52h-3Zm0 0"/></clipPath><clipPath id="cG"><path d="M297 128h3v61h-3Zm0 0"/></clipPath><clipPath id="cH"><path d="M298 141h3v48h-3Zm0 0"/></clipPath><clipPath id="cI"><path d="M299 138h3v51h-3Zm0 0"/></clipPath><clipPath id="cJ"><path d="M301 146h2v43h-2Zm0 0"/></clipPath><clipPath id="cK"><path d="M302 153h2v36h-2Zm0 0"/></clipPath><clipPath id="cL"><path d="M303 150h2v39h-2Zm0 0"/></clipPath><clipPath id="cM"><path d="M304 162h2v27h-2Zm0 0"/></clipPath><clipPath id="cN"><path d="M305 179h2v10h-2Zm0 0"/></clipPath><clipPath id="cO"><path d="M306 153h2v36h-2Zm0 0"/></clipPath><clipPath id="cP"><path d="M307 179h2v10h-2Zm0 0"/></clipPath><clipPath id="cQ"><path d="M308 168h2v21h-2Zm0 0"/></clipPath><clipPath id="cR"><path d="M311 168h3v21h-3Zm0 0"/></clipPath><clipPath id="cS"><path d="M313 179h3v10h-3Zm0 0"/></clipPath><clipPath id="cT"><path d="M340 179h3v10h-3Zm0 0"/></clipPath><clipPath id="cU"><path d="M369 179h2.25v10H369Zm0 0"/></clipPath><path id="cV" d="M6.406-2.516H.97v-.703h5.437Zm0 0"/><path id="cW" d="M5.078-2.078c0 .305-.058.594-.172.875a1.9 1.9 0 0 1-.453.703q-.315.315-.75.484a3.1 3.1 0 0 1-1.015.157Q2.154.14 1.656.016A4 4 0 0 1 .828-.25v-.922h.063c.238.156.515.29.828.39q.482.158.953.157c.207 0 .41-.023.61-.078.195-.063.366-.164.515-.313a1.1 1.1 0 0 0 .297-.453q.093-.264.093-.61a1.24 1.24 0 0 0-.125-.577.95.95 0 0 0-.312-.375 1.45 1.45 0 0 0-.547-.219 3.3 3.3 0 0 0-.734-.078q-.393.002-.75.062-.364.048-.61.094v-3.375h3.938v.766H1.953v1.75q.188-.014.375-.016.2-.014.36-.016.528 0 .921.094c.27.055.516.156.735.313q.358.236.547.625.187.377.187.953m0 0"/><path id="cX" d="M5.125-3.281q-.001 1.769-.547 2.594C4.211-.133 3.641.14 2.86.14Q1.687.142 1.141-.687.608-1.531.609-3.266q-.002-1.746.547-2.578.545-.827 1.703-.828 1.186 0 1.72.844c.362.562.546 1.414.546 2.547m-1.156 2c.101-.239.172-.516.203-.828q.06-.48.062-1.172a10 10 0 0 0-.062-1.14 2.7 2.7 0 0 0-.203-.845 1.2 1.2 0 0 0-.422-.515c-.18-.114-.406-.172-.688-.172a1.3 1.3 0 0 0-.687.172q-.27.176-.422.515a3 3 0 0 0-.203.86 13 13 0 0 0-.047 1.14q0 .69.047 1.157.046.455.203.812.14.344.406.531c.176.118.41.172.703.172.282 0 .508-.054.688-.172q.28-.17.422-.515m0 0"/><path id="cY" d="M4.766 0H1.219v-.672h1.36v-4.375h-1.36v-.61q.28 0 .593-.046a1.8 1.8 0 0 0 .485-.125.8.8 0 0 0 .312-.281.85.85 0 0 0 .141-.453h.672v5.89h1.344Zm0 0"/><path id="db" d="M5.266 0H4.172L2.203-2.156l-.531.515V0H.844v-6.844h.828v4.39l2.39-2.452H5.11L2.83-2.641Zm0 0"/><path id="cZ" d="M3.86 0H.53v-.687l.688-.594q.357-.295.656-.594.623-.607.86-.969a1.4 1.4 0 0 0 .234-.781q-.002-.388-.25-.594-.253-.217-.703-.218-.3.002-.657.109a2.3 2.3 0 0 0-.671.312H.656v-.687q.234-.107.625-.203c.258-.07.508-.11.75-.11q.75 0 1.172.375.437.364.438.985a1.8 1.8 0 0 1-.079.531q-.062.236-.203.453a3.5 3.5 0 0 1-.296.406c-.118.125-.258.274-.422.438q-.345.344-.72.672-.375.314-.702.593h2.64Zm0 0"/><path id="da" d="M3.813-1.562q0 .345-.126.656-.127.314-.343.531a1.6 1.6 0 0 1-.563.36 2.2 2.2 0 0 1-.765.124q-.392 0-.766-.093a2.7 2.7 0 0 1-.64-.203v-.688h.046q.28.175.64.297.36.11.704.11.233 0 .453-.063a.87.87 0 0 0 .39-.235.8.8 0 0 0 .22-.328q.076-.2.078-.468a.9.9 0 0 0-.094-.422.6.6 0 0 0-.235-.282 1.1 1.1 0 0 0-.421-.171 2.3 2.3 0 0 0-.547-.063q-.282 0-.563.047a4 4 0 0 0-.453.078v-2.531h2.953v.578H1.47v1.297h.281q.153-.014.266-.016c.257 0 .488.024.687.063q.31.064.563.234c.164.125.297.29.39.484q.154.282.156.704m0 0"/><path id="dc" d="M6.063 0H1.03v-7.64h5.032v.906H2.047v2.093h4.015v.907H2.048v2.828h4.015Zm0 0"/><path id="di" d="M4.016 2.11H2.844A8.2 8.2 0 0 1 1.422-.157c-.336-.82-.5-1.75-.5-2.781 0-1.02.164-1.942.5-2.766a8.5 8.5 0 0 1 1.422-2.281h1.172v.062a6.5 6.5 0 0 0-.797.86q-.376.485-.703 1.14-.301.628-.5 1.39a6.6 6.6 0 0 0-.188 1.595q0 .877.188 1.609.186.736.5 1.39.31.622.703 1.126.405.513.797.875Zm0 0"/><path id="dj" d="M5.75-2.766H1.516q-.001.535.156.922.171.394.453.64.263.253.625.376c.25.086.52.125.813.125q.574 0 1.171-.235.592-.234.844-.468h.047v1.062q-.485.204-1 .344c-.336.094-.687.14-1.062.14Q2.14.143 1.342-.624q-.795-.78-.796-2.203-.001-1.405.766-2.234.761-.828 2.015-.829 1.154 0 1.781.688.64.675.641 1.922ZM4.797-3.5q0-.761-.375-1.172c-.25-.281-.633-.422-1.14-.422-.524 0-.938.157-1.25.469q-.457.457-.516 1.125Zm0 0"/><path id="dk" d="M7.047-7.64 4.266 0h-1.36L.141-7.64h1.078l2.39 6.718L6.016-7.64Zm0 0"/><path id="dl" d="M4.406-7.984.734 1.563h-.89L3.5-7.985Zm0 0"/><path id="dm" d="M5.406 0h-.968v-.61c-.086.063-.2.15-.344.25a2 2 0 0 1-.422.235 2.4 2.4 0 0 1-.563.203q-.315.077-.718.078c-.524 0-.965-.164-1.328-.5Q.53-.859.53-1.656q0-.655.282-1.063.281-.403.796-.625.529-.233 1.25-.312a19 19 0 0 1 1.579-.125v-.156q-.001-.328-.125-.532A.9.9 0 0 0 4-4.812a1.4 1.4 0 0 0-.5-.157 3.6 3.6 0 0 0-.594-.047c-.261 0-.547.04-.86.11a6 6 0 0 0-.952.281h-.047v-.984q.28-.075.812-.157a6 6 0 0 1 1.047-.093q.608 0 1.047.093.452.096.781.344c.22.156.383.36.5.61q.171.376.172.921Zm-.968-1.406V-3q-.439.02-1.047.078-.598.047-.938.14-.409.13-.672.376-.251.25-.25.672 0 .504.297.75c.195.168.5.25.906.25q.5 0 .922-.203a4.6 4.6 0 0 0 .781-.47m0 0"/><path id="dn" d="M3.922-.047c-.18.043-.375.078-.594.11q-.316.046-.562.046-.892 0-1.344-.468C1.117-.672.969-1.176.969-1.875v-3.047H.313v-.812h.656v-1.641h.969v1.64h1.984v.813H1.937v2.61q-.001.455.016.718a1 1 0 0 0 .14.469.64.64 0 0 0 .313.297q.2.094.61.094.233 0 .484-.063.263-.077.375-.125h.047Zm0 0"/><path id="do" d="M5.828-2.86Q5.826-1.464 5.11-.655q-.72.813-1.921.812-1.221 0-1.938-.812-.703-.81-.703-2.203 0-1.405.703-2.22c.477-.538 1.125-.812 1.938-.812.8 0 1.44.274 1.921.813.477.543.72 1.281.72 2.219m-1 0q-.002-1.106-.437-1.656-.424-.545-1.203-.546-.786 0-1.22.546-.437.55-.437 1.657 0 1.077.438 1.64.433.549 1.219.547.762.002 1.203-.547.435-.563.437-1.64m0 0"/><path id="dp" d="M9.313 0h-.97v-3.266q0-.357-.03-.703a1.6 1.6 0 0 0-.141-.547.8.8 0 0 0-.344-.343c-.148-.07-.36-.11-.64-.11q-.41.002-.813.203a5.5 5.5 0 0 0-.797.516c.008.086.016.18.016.281q.013.157.015.297V0h-.968v-3.266q-.001-.374-.032-.718a1.6 1.6 0 0 0-.14-.547.72.72 0 0 0-.344-.328c-.148-.07-.355-.11-.625-.11a1.8 1.8 0 0 0-.797.203c-.262.125-.527.29-.797.485V0H.953v-5.734h.953v.64q.45-.374.907-.578.45-.218.953-.219.59.002 1 .25a1.6 1.6 0 0 1 .609.688q.575-.497 1.063-.719a2.5 2.5 0 0 1 1.03-.219c.626 0 1.087.196 1.391.579q.453.563.454 1.593Zm0 0"/><path id="dq" d="M3.844-2.937c0 1.03-.172 1.96-.516 2.78A8 8 0 0 1 1.922 2.11H.75v-.046a6.3 6.3 0 0 0 .797-.876A7 7 0 0 0 2.25.063c.207-.438.375-.899.5-1.391a6.5 6.5 0 0 0 .188-1.61q0-.843-.188-1.593a6.8 6.8 0 0 0-1.203-2.532q-.375-.482-.797-.859v-.062h1.172q.902 1.05 1.406 2.28.516 1.238.516 2.766m0 0"/><path id="de" d="M2.813-4.922H2.78a5 5 0 0 0-.297-.062 1.2 1.2 0 0 0-.312-.047c-.281 0-.492.07-.625.203q-.188.188-.188.687V-4h1.204v.563H1.375V0H.703v-3.437H.25V-4h.453v-.14q-.001-.717.344-1.094.357-.375 1.031-.375.233.002.406.015.188.018.329.047Zm0 0"/><path id="df" d="M4.078-2q-.001.984-.5 1.547c-.336.375-.781.562-1.344.562Q1.373.11.875-.453C.539-.828.375-1.343.375-2s.164-1.172.5-1.547q.498-.562 1.36-.562c.562 0 1.007.187 1.343.562q.499.562.5 1.547m-.703 0q0-.78-.312-1.156-.3-.375-.829-.375-.55 0-.859.375Q1.077-2.78 1.078-2c0 .5.098.883.297 1.14q.31.392.86.391.527 0 .828-.375.311-.388.312-1.156m0 0"/><path id="dg" d="M3.156-3.266h-.031a2 2 0 0 0-.297-.062 4 4 0 0 0-.328-.016q-.316 0-.61.14a3 3 0 0 0-.546.36V0H.656v-4h.688v.594a2.7 2.7 0 0 1 .703-.453Q2.357-4 2.672-4c.113 0 .195.008.25.016q.076.002.234.015Zm0 0"/><path id="dh" d="M6.516 0h-.688v-2.281q-.001-.248-.031-.485a1.3 1.3 0 0 0-.078-.39.65.65 0 0 0-.25-.235q-.143-.076-.438-.078-.281 0-.562.14a4 4 0 0 0-.578.36c.007.055.015.117.015.188q.014.112.016.219V0H3.25v-2.281a4 4 0 0 0-.031-.5 1.1 1.1 0 0 0-.094-.39.47.47 0 0 0-.234-.22 1 1 0 0 0-.438-.078q-.281 0-.562.14a2.5 2.5 0 0 0-.547.345V0H.656v-4h.688v.438q.31-.265.625-.407.31-.14.672-.14.406 0 .687.172.281.176.422.468.405-.341.75-.484a1.75 1.75 0 0 1 .719-.156q.654 0 .968.406.33.394.329 1.11Zm0 0"/><path id="dr" d="M0-6.844v1.25l-6.828 3.625H0v.938h-7.64v-1.563l6.234-3.312h-6.235v-.938Zm0 0"/><path id="ds" d="M0-5.703v.969h-.64q.393.486.593.937.201.44.203.985.002.908-.547 1.406c-.363.336-.906.5-1.625.5h-3.718v-.969h3.265q.44.002.75-.031.316-.047.532-.188a.76.76 0 0 0 .328-.344q.093-.233.093-.656 0-.357-.187-.797-.2-.45-.5-.843h-4.281v-.97Zm0 0"/><path id="dt" d="M0-9.312v.968h-3.266q-.357.001-.703.031-.34.035-.547.141a.8.8 0 0 0-.343.344c-.07.148-.11.36-.11.64q.002.41.203.813.206.393.516.797.13-.014.281-.016.157-.013.297-.015H0v.968h-3.266q-.374.001-.718.032-.341.035-.547.14a.72.72 0 0 0-.328.344c-.07.148-.11.355-.11.625q.002.392.203.797c.125.262.29.527.485.797H0v.953h-5.734v-.953h.64q-.374-.45-.578-.907a2.2 2.2 0 0 1-.219-.953q.002-.59.25-1a1.6 1.6 0 0 1 .688-.609q-.497-.575-.719-1.062A2.5 2.5 0 0 1-5.89-7.47c0-.625.196-1.086.579-1.39q.563-.452 1.593-.453Zm0 0"/><path id="du" d="M-2.906-5.984q.721.002 1.297.203.564.205.953.547.41.362.61.797c.132.292.202.609.202.953Q.155-3 .031-2.625a4 4 0 0 1-.297.719L0-1.844v.89h-7.984v-.952h2.859a4.4 4.4 0 0 1-.547-.86 2.4 2.4 0 0 1-.219-1.03q.001-1.015.782-1.595.784-.592 2.203-.593m.031.984q-1.03.002-1.562.344-.53.344-.532 1.093 0 .424.188.86.175.422.468.797h3.282q.189-.423.265-.703a3.2 3.2 0 0 0 .063-.672q0-.81-.531-1.266-.528-.452-1.641-.453m0 0"/><path id="dv" d="M-2.766-5.75v4.234q.535.001.922-.156.394-.171.64-.453.253-.263.376-.625c.086-.25.125-.52.125-.812q0-.575-.235-1.172-.234-.592-.468-.844v-.047h1.062q.204.485.344 1 .14.502.14 1.063.002 1.422-.765 2.218-.78.798-2.203.797c-.938 0-1.68-.254-2.234-.765q-.828-.762-.829-2.016 0-1.154.688-1.781.675-.64 1.922-.641Zm-.734.953q-.761 0-1.172.375c-.281.25-.422.633-.422 1.14 0 .524.157.938.469 1.25q.457.457 1.125.516Zm0 0"/><path id="dw" d="M-4.672-4.516v.047q-.06.224-.078.422a8 8 0 0 0-.016.469q.002.456.204.875.188.41.5.797H0v.953h-5.734v-.953h.859q-.468-.575-.656-1.016a2.1 2.1 0 0 1-.203-.89q.002-.264.015-.376.018-.106.047-.328Zm0 0"/><path id="dy" d="M-2.86-5.828q1.395.002 2.204.719.813.72.812 1.922 0 1.22-.812 1.937-.81.703-2.203.703-1.405 0-2.22-.703c-.538-.477-.812-1.125-.812-1.937 0-.801.274-1.442.813-1.922.543-.477 1.281-.72 2.219-.72m0 1q-1.106.002-1.656.437-.545.423-.546 1.204 0 .785.546 1.218.55.439 1.657.438 1.077 0 1.64-.438.549-.433.547-1.218.002-.763-.547-1.204-.563-.435-1.64-.437m0 0"/><path id="dz" d="M-7.047-4.031v.047a6 6 0 0 0-.094.422q-.046.252-.046.453 0 .626.28.906c.18.18.509.265.985.265h.188v-1.734h.812v1.703H0V-1h-4.922v.656h-.812V-1h-.188c-.676 0-1.195-.164-1.562-.5q-.546-.515-.547-1.469a5 5 0 0 1 .11-1.062Zm0 0"/><path id="dA" d="M-1.656-5.047q.798 0 1.297.656c.336.43.5 1.016.5 1.766 0 .43-.055.82-.157 1.172q-.151.533-.328.89h-1.078v-.046c.23-.313.414-.649.547-1.016a3.1 3.1 0 0 0 .203-1.078q.001-.638-.203-1a.72.72 0 0 0-.656-.36q-.328.002-.516.204-.168.188-.297.75a7 7 0 0 0-.094.53q-.058.33-.14.61-.201.751-.578 1.063-.389.314-.953.312-.357 0-.672-.14a1.6 1.6 0 0 1-.563-.438 2.3 2.3 0 0 1-.375-.734q-.14-.45-.14-1 .001-.516.125-1.031.128-.529.297-.876h1.03v.047q-.263.377-.452.907a3 3 0 0 0-.188 1.03q.002.534.203.892.206.361.594.359c.242 0 .418-.07.531-.219.125-.144.227-.375.297-.687q.066-.282.125-.61c.043-.219.078-.398.11-.547q.156-.668.53-1.03c.25-.25.587-.376 1-.376m0 0"/><path id="dB" d="M-.047-3.922c.043.18.078.375.11.594q.046.316.046.562 0 .892-.468 1.344c-.313.305-.817.453-1.516.453h-3.047v.657h-.812V-.97h-1.641v-.968h1.64v-1.985h.813v1.985h2.61q.455.001.718-.016a1 1 0 0 0 .469-.14.64.64 0 0 0 .297-.313q.094-.2.094-.61 0-.233-.063-.484a4 4 0 0 0-.125-.375v-.047Zm0 0"/><path id="dC" d="M-.36-5.187q.236.487.36.921.124.44.125.922c0 .406-.059.79-.172 1.14a2.25 2.25 0 0 1-.562.876 2.5 2.5 0 0 1-.922.594q-.576.204-1.328.203-1.407.001-2.203-.766-.797-.78-.797-2.047 0-.499.14-.969.14-.466.328-.875h1.079v.063a3.8 3.8 0 0 0-.532.906 2.4 2.4 0 0 0-.187.907q0 .832.562 1.312.55.47 1.61.469 1.047 0 1.609-.469.549-.468.547-1.312.001-.281-.078-.579a2.3 2.3 0 0 0-.203-.546 6 6 0 0 0-.22-.407 2 2 0 0 0-.218-.281v-.062Zm0 0"/></defs><g clip-path="url(#a)"><path fill="#FFF" d="M0 0h375v225H0Zm0 0"/></g><path fill="#FFF" d="M48 3.75h323.25V189H48Zm0 0"/><path fill="none" stroke="#EBF0F8" stroke-width=".75" d="M48 179.738h323.25M48 168.61h323.25M48 153.89h323.25M48 142.762h323.25M48 131.625h323.25M48 116.918h323.25M48 105.781h323.25M48 94.648h323.25M48 79.934h323.25M48 68.805h323.25M48 57.676h323.25M48 42.96h323.25M48 31.828h323.25M48 20.7h323.25M48 5.984h323.25"/><g clip-path="url(#b)"><path fill="#636EFA" d="M48 179.738h1.29v1769.137H48Zm0 0"/></g><g clip-path="url(#c)"><path fill="#636EFA" d="M73.844 179.738h1.293v1769.137h-1.293Zm0 0"/></g><g clip-path="url(#d)"><path fill="#636EFA" d="M86.766 179.738h1.293v1769.137h-1.293Zm0 0"/></g><g clip-path="url(#e)"><path fill="#636EFA" d="M99.684 106.441h1.296v1842.434h-1.296Zm0 0"/></g><g clip-path="url(#f)"><path fill="#636EFA" d="M100.762 98.137h1.289v1850.738h-1.29Zm0 0"/></g><g clip-path="url(#g)"><path fill="#636EFA" d="M101.844 100.156h1.289v1848.719h-1.29Zm0 0"/></g><g clip-path="url(#h)"><path fill="#636EFA" d="M102.914 84.383h1.29v1864.492h-1.29Zm0 0"/></g><g clip-path="url(#i)"><path fill="#636EFA" d="M103.996 81.238h1.29v1867.637h-1.29Zm0 0"/></g><g clip-path="url(#j)"><path fill="#636EFA" d="M105.066 74.625h1.297v1874.25h-1.297Zm0 0"/></g><g clip-path="url(#k)"><path fill="#636EFA" d="M106.148 78.969h1.29v1869.906h-1.29Zm0 0"/></g><g clip-path="url(#l)"><path fill="#636EFA" d="M107.219 74.836h1.297v1874.039h-1.297Zm0 0"/></g><g clip-path="url(#m)"><path fill="#636EFA" d="M108.3 70.734h1.29v1878.141h-1.29Zm0 0"/></g><g clip-path="url(#n)"><path fill="#636EFA" d="M109.379 69.684h1.293v1879.191h-1.293Zm0 0"/></g><g clip-path="url(#o)"><path fill="#636EFA" d="M110.453 64.621h1.29v1884.254h-1.29Zm0 0"/></g><g clip-path="url(#p)"><path fill="#636EFA" d="M111.531 61.172h1.293v1887.703h-1.293Zm0 0"/></g><g clip-path="url(#q)"><path fill="#636EFA" d="M112.605 58.387h1.297v1890.488h-1.297Zm0 0"/></g><g clip-path="url(#r)"><path fill="#636EFA" d="M113.684 55.125h1.293v1893.75h-1.293Zm0 0"/></g><g clip-path="url(#s)"><path fill="#636EFA" d="M114.758 50.7h1.297v1898.175h-1.297Zm0 0"/></g><g clip-path="url(#t)"><path fill="#636EFA" d="M115.836 49.273h1.293v1899.602h-1.293Zm0 0"/></g><g clip-path="url(#u)"><path fill="#636EFA" d="M116.918 47.102h1.289v1901.773h-1.289Zm0 0"/></g><g clip-path="url(#v)"><path fill="#636EFA" d="M117.988 44.684h1.293v1904.191h-1.293Zm0 0"/></g><g clip-path="url(#w)"><path fill="#636EFA" d="M119.07 41.813h1.29v1907.062h-1.29Zm0 0"/></g><g clip-path="url(#x)"><path fill="#636EFA" d="M120.14 40.703h1.301v1908.172h-1.3Zm0 0"/></g><g clip-path="url(#y)"><path fill="#636EFA" d="M121.223 38.715h1.289v1910.16h-1.29Zm0 0"/></g><g clip-path="url(#z)"><path fill="#636EFA" d="M122.297 36.14h1.297v1912.735h-1.297Zm0 0"/></g><g clip-path="url(#A)"><path fill="#636EFA" d="M123.375 34.867h1.29v1914.008h-1.29Zm0 0"/></g><g clip-path="url(#B)"><path fill="#636EFA" d="M124.453 29.145h1.293v1919.73h-1.293Zm0 0"/></g><g clip-path="url(#C)"><path fill="#636EFA" d="M125.527 29.484h1.29v1919.391h-1.29Zm0 0"/></g><g clip-path="url(#D)"><path fill="#636EFA" d="M126.61 29.168h1.288v1919.707h-1.289Zm0 0"/></g><g clip-path="url(#E)"><path fill="#636EFA" d="M127.68 27.727h1.297v1921.148h-1.297Zm0 0"/></g><g clip-path="url(#F)"><path fill="#636EFA" d="M128.762 26.309h1.289v1922.566h-1.29Zm0 0"/></g><g clip-path="url(#G)"><path fill="#636EFA" d="M129.832 24.047h1.297v1924.828h-1.297Zm0 0"/></g><g clip-path="url(#H)"><path fill="#636EFA" d="M130.914 21.414h1.29v1927.461h-1.29Zm0 0"/></g><g clip-path="url(#I)"><path fill="#636EFA" d="M131.992 21.668h1.29v1927.207h-1.29Zm0 0"/></g><g clip-path="url(#J)"><path fill="#636EFA" d="M133.066 19.914h1.29v1928.961h-1.29Zm0 0"/></g><g clip-path="url(#K)"><path fill="#636EFA" d="M134.145 20.297h1.289v1928.578h-1.29Zm0 0"/></g><g clip-path="url(#L)"><path fill="#636EFA" d="M135.219 18.953h1.297v1929.922h-1.297Zm0 0"/></g><g clip-path="url(#M)"><path fill="#636EFA" d="M136.297 17.21h1.289v1931.665h-1.29Zm0 0"/></g><g clip-path="url(#N)"><path fill="#636EFA" d="M137.371 15.887h1.297v1932.988h-1.297Zm0 0"/></g><g clip-path="url(#O)"><path fill="#636EFA" d="M138.45 15.137h1.288v1933.738h-1.289Zm0 0"/></g><g clip-path="url(#P)"><path fill="#636EFA" d="M139.531 13.012h1.29v1935.863h-1.29Zm0 0"/></g><g clip-path="url(#Q)"><path fill="#636EFA" d="M140.602 13.516h1.289v1935.359h-1.29Zm0 0"/></g><g clip-path="url(#R)"><path fill="#636EFA" d="M141.684 14.496h1.289v1934.379h-1.29Zm0 0"/></g><g clip-path="url(#S)"><path fill="#636EFA" d="M142.754 15.547h1.297v1933.328h-1.297Zm0 0"/></g><g clip-path="url(#T)"><path fill="#636EFA" d="M143.836 15.563h1.289v1933.312h-1.29Zm0 0"/></g><g clip-path="url(#U)"><path fill="#636EFA" d="M144.906 16.59h1.297v1932.285h-1.297Zm0 0"/></g><g clip-path="url(#V)"><path fill="#636EFA" d="M145.988 17.11h1.29v1931.765h-1.29Zm0 0"/></g><g clip-path="url(#W)"><path fill="#636EFA" d="M147.066 16.844h1.293v1932.031h-1.293Zm0 0"/></g><g clip-path="url(#X)"><path fill="#636EFA" d="M148.14 17.309h1.29v1931.566h-1.29Zm0 0"/></g><g clip-path="url(#Y)"><path fill="#636EFA" d="M149.219 15.848h1.293v1933.027h-1.293Zm0 0"/></g><g clip-path="url(#Z)"><path fill="#636EFA" d="M150.293 18.621h1.297v1930.254h-1.297Zm0 0"/></g><g clip-path="url(#aa)"><path fill="#636EFA" d="M151.371 18.164h1.293v1930.711h-1.293Zm0 0"/></g><g clip-path="url(#ab)"><path fill="#636EFA" d="M152.445 17.672h1.297v1931.203h-1.297Zm0 0"/></g><g clip-path="url(#ac)"><path fill="#636EFA" d="M153.523 16.621h1.293v1932.254h-1.293Zm0 0"/></g><g clip-path="url(#ad)"><path fill="#636EFA" d="M154.605 18.023h1.29v1930.852h-1.29Zm0 0"/></g><g clip-path="url(#ae)"><path fill="#636EFA" d="M155.676 19.273h1.293v1929.602h-1.293Zm0 0"/></g><g clip-path="url(#af)"><path fill="#636EFA" d="M156.758 19.988h1.289v1928.887h-1.29Zm0 0"/></g><g clip-path="url(#ag)"><path fill="#636EFA" d="M157.828 21.098h1.3v1927.777h-1.3Zm0 0"/></g><g clip-path="url(#ah)"><path fill="#636EFA" d="M158.91 20.227h1.29v1928.648h-1.29Zm0 0"/></g><g clip-path="url(#ai)"><path fill="#636EFA" d="M159.984 20.355h1.297v1928.52h-1.297Zm0 0"/></g><g clip-path="url(#aj)"><path fill="#636EFA" d="M161.063 21.082h1.289v1927.793h-1.29Zm0 0"/></g><g clip-path="url(#ak)"><path fill="#636EFA" d="M162.14 21.285h1.294v1927.59h-1.293Zm0 0"/></g><g clip-path="url(#al)"><path fill="#636EFA" d="M163.215 22.926h1.289v1925.949h-1.29Zm0 0"/></g><g clip-path="url(#am)"><path fill="#636EFA" d="M164.297 24.098h1.289v1924.777h-1.29Zm0 0"/></g><g clip-path="url(#an)"><path fill="#636EFA" d="M165.367 23.96h1.297v1924.915h-1.297Zm0 0"/></g><g clip-path="url(#ao)"><path fill="#636EFA" d="M166.45 23.664h1.288v1925.211h-1.289Zm0 0"/></g><g clip-path="url(#ap)"><path fill="#636EFA" d="M167.52 22.344h1.296v1926.531h-1.296Zm0 0"/></g><g clip-path="url(#aq)"><path fill="#636EFA" d="M168.602 21.61h1.289v1927.265h-1.29Zm0 0"/></g><g clip-path="url(#ar)"><path fill="#636EFA" d="M169.68 21.188h1.289v1927.687h-1.29Zm0 0"/></g><g clip-path="url(#as)"><path fill="#636EFA" d="M170.754 21.727h1.289v1927.148h-1.29Zm0 0"/></g><g clip-path="url(#at)"><path fill="#636EFA" d="M171.832 19.934h1.29v1928.941h-1.29Zm0 0"/></g><g clip-path="url(#au)"><path fill="#636EFA" d="M172.906 18.523h1.297v1930.352h-1.297Zm0 0"/></g><g clip-path="url(#av)"><path fill="#636EFA" d="M173.984 18.48h1.29v1930.395h-1.29Zm0 0"/></g><g clip-path="url(#aw)"><path fill="#636EFA" d="M175.059 18.426h1.296v1930.449h-1.296Zm0 0"/></g><g clip-path="url(#ax)"><path fill="#636EFA" d="M176.137 16.508h1.289v1932.367h-1.29Zm0 0"/></g><g clip-path="url(#ay)"><path fill="#636EFA" d="M177.219 15.945h1.289v1932.93h-1.29Zm0 0"/></g><g clip-path="url(#az)"><path fill="#636EFA" d="M178.29 15.89h1.288v1932.985h-1.289Zm0 0"/></g><g clip-path="url(#aA)"><path fill="#636EFA" d="M179.371 14.836h1.29v1934.039h-1.29Zm0 0"/></g><g clip-path="url(#aB)"><path fill="#636EFA" d="M180.441 15.227h1.297v1933.648h-1.297Zm0 0"/></g><g clip-path="url(#aC)"><path fill="#636EFA" d="M181.523 14.773h1.29v1934.102h-1.29Zm0 0"/></g><g clip-path="url(#aD)"><path fill="#636EFA" d="M182.594 15.426h1.297v1933.449h-1.297Zm0 0"/></g><g clip-path="url(#aE)"><path fill="#636EFA" d="M183.676 16.059h1.289v1932.816h-1.29Zm0 0"/></g><g clip-path="url(#aF)"><path fill="#636EFA" d="M184.754 17.309h1.293v1931.566h-1.293Zm0 0"/></g><g clip-path="url(#aG)"><path fill="#636EFA" d="M185.828 19.531h1.29v1929.344h-1.29Zm0 0"/></g><g clip-path="url(#aH)"><path fill="#636EFA" d="M186.906 21.441h1.293v1927.434h-1.293Zm0 0"/></g><g clip-path="url(#aI)"><path fill="#636EFA" d="M187.98 22.05h1.297v1926.825h-1.297Zm0 0"/></g><g clip-path="url(#aJ)"><path fill="#636EFA" d="M189.059 21.113h1.293v1927.762h-1.293Zm0 0"/></g><g clip-path="url(#aK)"><path fill="#636EFA" d="M190.133 18.367h1.297v1930.508h-1.297Zm0 0"/></g><g clip-path="url(#aL)"><path fill="#636EFA" d="M191.21 20.918h1.294v1927.957h-1.293Zm0 0"/></g><g clip-path="url(#aM)"><path fill="#636EFA" d="M192.293 23.152h1.289v1925.723h-1.289Zm0 0"/></g><g clip-path="url(#aN)"><path fill="#636EFA" d="M193.363 23.371h1.293v1925.504h-1.293Zm0 0"/></g><g clip-path="url(#aO)"><path fill="#636EFA" d="M194.445 26.684h1.29v1922.191h-1.29Zm0 0"/></g><g clip-path="url(#aP)"><path fill="#636EFA" d="M195.516 33.473h1.3v1915.402h-1.3Zm0 0"/></g><g clip-path="url(#aQ)"><path fill="#636EFA" d="M196.598 37.793h1.289v1911.082h-1.29Zm0 0"/></g><g clip-path="url(#aR)"><path fill="#636EFA" d="M197.672 41.55h1.297v1907.325h-1.297Zm0 0"/></g><g clip-path="url(#aS)"><path fill="#636EFA" d="M198.75 46.254h1.29v1902.621h-1.29Zm0 0"/></g><g clip-path="url(#aT)"><path fill="#636EFA" d="M199.828 48.984h1.293v1899.891h-1.293Zm0 0"/></g><g clip-path="url(#aU)"><path fill="#636EFA" d="M200.902 50.016h1.29v1898.859h-1.29Zm0 0"/></g><g clip-path="url(#aV)"><path fill="#636EFA" d="M201.984 52.98h1.29v1895.895h-1.29Zm0 0"/></g><g clip-path="url(#aW)"><path fill="#636EFA" d="M203.055 55.133h1.297v1893.742h-1.297Zm0 0"/></g><g clip-path="url(#aX)"><path fill="#636EFA" d="M204.137 57.105h1.289v1891.77h-1.29Zm0 0"/></g><g clip-path="url(#aY)"><path fill="#636EFA" d="M205.207 58.598h1.297v1890.277h-1.297Zm0 0"/></g><g clip-path="url(#aZ)"><path fill="#636EFA" d="M206.29 61.2h1.288v1887.675h-1.289Zm0 0"/></g><g clip-path="url(#ba)"><path fill="#636EFA" d="M207.367 61.273h1.29v1887.602h-1.29Zm0 0"/></g><g clip-path="url(#bb)"><path fill="#636EFA" d="M208.441 62.445h1.29v1886.43h-1.29Zm0 0"/></g><g clip-path="url(#bc)"><path fill="#636EFA" d="M209.52 61.207h1.289v1887.668h-1.29Zm0 0"/></g><g clip-path="url(#bd)"><path fill="#636EFA" d="M210.594 61.809h1.289v1887.066h-1.29Zm0 0"/></g><g clip-path="url(#be)"><path fill="#636EFA" d="M211.672 64.605h1.289v1884.27h-1.29Zm0 0"/></g><g clip-path="url(#bf)"><path fill="#636EFA" d="M212.746 64.664h1.297v1884.211h-1.297Zm0 0"/></g><g clip-path="url(#bg)"><path fill="#636EFA" d="M213.824 64.648h1.29v1884.227h-1.29Zm0 0"/></g><g clip-path="url(#bh)"><path fill="#636EFA" d="M214.898 67.043h1.297v1881.832h-1.297Zm0 0"/></g><g clip-path="url(#bi)"><path fill="#636EFA" d="M215.977 71.281h1.289v1877.594h-1.29Zm0 0"/></g><g clip-path="url(#bj)"><path fill="#636EFA" d="M217.059 71.414h1.289v1877.461h-1.29Zm0 0"/></g><g clip-path="url(#bk)"><path fill="#636EFA" d="M218.129 72.188h1.293v1876.687h-1.293Zm0 0"/></g><g clip-path="url(#bl)"><path fill="#636EFA" d="M219.21 72.984h1.29v1875.891h-1.29Zm0 0"/></g><g clip-path="url(#bm)"><path fill="#636EFA" d="M220.281 70.426h1.297v1878.449h-1.297Zm0 0"/></g><g clip-path="url(#bn)"><path fill="#636EFA" d="M221.363 75.406h1.29v1873.469h-1.29Zm0 0"/></g><g clip-path="url(#bo)"><path fill="#636EFA" d="M222.434 77.031h1.3v1871.844h-1.3Zm0 0"/></g><g clip-path="url(#bp)"><path fill="#636EFA" d="M223.516 78.375h1.289v1870.5h-1.29Zm0 0"/></g><g clip-path="url(#bq)"><path fill="#636EFA" d="M224.594 79.648h1.293v1869.227h-1.293Zm0 0"/></g><g clip-path="url(#br)"><path fill="#636EFA" d="M225.668 77.527h1.289v1871.348h-1.289Zm0 0"/></g><g clip-path="url(#bs)"><path fill="#636EFA" d="M226.746 78.09h1.293v1870.785h-1.293Zm0 0"/></g><g clip-path="url(#bt)"><path fill="#636EFA" d="M227.82 76.254h1.297v1872.621h-1.297Zm0 0"/></g><g clip-path="url(#bu)"><path fill="#636EFA" d="M228.898 80.031h1.293v1868.844h-1.293Zm0 0"/></g><g clip-path="url(#bv)"><path fill="#636EFA" d="M229.973 78h1.297v1870.875h-1.297Zm0 0"/></g><g clip-path="url(#bw)"><path fill="#636EFA" d="M231.05 77.094h1.294v1871.781h-1.293Zm0 0"/></g><g clip-path="url(#bx)"><path fill="#636EFA" d="M232.133 79.215h1.289v1869.66h-1.29Zm0 0"/></g><g clip-path="url(#by)"><path fill="#636EFA" d="M233.203 77.61h1.293v1871.265h-1.293Zm0 0"/></g><g clip-path="url(#bz)"><path fill="#636EFA" d="M234.285 82.395h1.29v1866.48h-1.29Zm0 0"/></g><g clip-path="url(#bA)"><path fill="#636EFA" d="M235.36 79.336h1.296v1869.539h-1.297Zm0 0"/></g><g clip-path="url(#bB)"><path fill="#636EFA" d="M236.438 79.492h1.289v1869.383h-1.29Zm0 0"/></g><g clip-path="url(#bC)"><path fill="#636EFA" d="M237.512 80.863h1.297v1868.012h-1.297Zm0 0"/></g><g clip-path="url(#bD)"><path fill="#636EFA" d="M238.59 85.035h1.289v1863.84h-1.29Zm0 0"/></g><g clip-path="url(#bE)"><path fill="#636EFA" d="M239.672 85.941h1.289v1862.934h-1.29Zm0 0"/></g><g clip-path="url(#bF)"><path fill="#636EFA" d="M240.742 91.328h1.29v1857.547h-1.29Zm0 0"/></g><g clip-path="url(#bG)"><path fill="#636EFA" d="M241.824 86.754h1.29v1862.121h-1.29Zm0 0"/></g><g clip-path="url(#bH)"><path fill="#636EFA" d="M242.895 87.93h1.296v1860.945h-1.296Zm0 0"/></g><g clip-path="url(#bI)"><path fill="#636EFA" d="M243.977 88.965h1.289v1859.91h-1.29Zm0 0"/></g><g clip-path="url(#bJ)"><path fill="#636EFA" d="M245.047 93.195h1.297v1855.68h-1.297Zm0 0"/></g><g clip-path="url(#bK)"><path fill="#636EFA" d="M246.129 91.395h1.289v1857.48h-1.29Zm0 0"/></g><g clip-path="url(#bL)"><path fill="#636EFA" d="M247.207 92.55h1.29v1856.325h-1.29Zm0 0"/></g><g clip-path="url(#bM)"><path fill="#636EFA" d="M248.281 89.836h1.29v1859.039h-1.29Zm0 0"/></g><g clip-path="url(#bN)"><path fill="#636EFA" d="M249.36 92.406h1.288v1856.469h-1.289Zm0 0"/></g><g clip-path="url(#bO)"><path fill="#636EFA" d="M250.434 96.703h1.296v1852.172h-1.296Zm0 0"/></g><g clip-path="url(#bP)"><path fill="#636EFA" d="M251.512 91.453h1.289v1857.422h-1.29Zm0 0"/></g><g clip-path="url(#bQ)"><path fill="#636EFA" d="M252.586 89.594h1.297v1859.281h-1.297Zm0 0"/></g><g clip-path="url(#bR)"><path fill="#636EFA" d="M253.664 88.46h1.29v1860.415h-1.29Zm0 0"/></g><g clip-path="url(#bS)"><path fill="#636EFA" d="M254.746 88.46h1.29v1860.415h-1.29Zm0 0"/></g><g clip-path="url(#bT)"><path fill="#636EFA" d="M255.816 94.973h1.293v1853.902h-1.293Zm0 0"/></g><g clip-path="url(#bU)"><path fill="#636EFA" d="M256.898 95.477h1.29v1853.398h-1.29Zm0 0"/></g><g clip-path="url(#bV)"><path fill="#636EFA" d="M257.969 96.703h1.297v1852.172h-1.297Zm0 0"/></g><g clip-path="url(#bW)"><path fill="#636EFA" d="M259.05 96.613h1.29v1852.262h-1.29Zm0 0"/></g><g clip-path="url(#bX)"><path fill="#636EFA" d="M260.121 93.121h1.3v1855.754h-1.3Zm0 0"/></g><g clip-path="url(#bY)"><path fill="#636EFA" d="M261.203 91.996h1.29v1856.879h-1.29Zm0 0"/></g><g clip-path="url(#bZ)"><path fill="#636EFA" d="M262.281 93.797h1.293v1855.078h-1.293Zm0 0"/></g><g clip-path="url(#ca)"><path fill="#636EFA" d="M263.355 97.64h1.29v1851.235h-1.29Zm0 0"/></g><g clip-path="url(#cb)"><path fill="#636EFA" d="M264.434 100.035h1.293v1848.84h-1.293Zm0 0"/></g><g clip-path="url(#cc)"><path fill="#636EFA" d="M265.508 93.047h1.297v1855.828h-1.297Zm0 0"/></g><g clip-path="url(#cd)"><path fill="#636EFA" d="M266.586 94.492h1.293v1854.383h-1.293Zm0 0"/></g><g clip-path="url(#ce)"><path fill="#636EFA" d="M267.66 98.137h1.297v1850.738h-1.297Zm0 0"/></g><g clip-path="url(#cf)"><path fill="#636EFA" d="M268.738 98.438h1.293v1850.437h-1.293Zm0 0"/></g><g clip-path="url(#cg)"><path fill="#636EFA" d="M269.82 98.852h1.29v1850.023h-1.29Zm0 0"/></g><g clip-path="url(#ch)"><path fill="#636EFA" d="M270.89 101.445h1.294v1847.43h-1.293Zm0 0"/></g><g clip-path="url(#ci)"><path fill="#636EFA" d="M271.973 98.852h1.289v1850.023h-1.29Zm0 0"/></g><g clip-path="url(#cj)"><path fill="#636EFA" d="M273.047 101.445h1.297v1847.43h-1.297Zm0 0"/></g><g clip-path="url(#ck)"><path fill="#636EFA" d="M274.125 98.852h1.29v1850.023h-1.29Zm0 0"/></g><g clip-path="url(#cl)"><path fill="#636EFA" d="M275.2 103.68h1.296v1845.195H275.2Zm0 0"/></g><g clip-path="url(#cm)"><path fill="#636EFA" d="M276.277 103.402h1.29v1845.473h-1.29Zm0 0"/></g><g clip-path="url(#cn)"><path fill="#636EFA" d="M277.36 102.594h1.288v1846.281h-1.289Zm0 0"/></g><g clip-path="url(#co)"><path fill="#636EFA" d="M278.43 101.445h1.289v1847.43h-1.29Zm0 0"/></g><g clip-path="url(#cp)"><path fill="#636EFA" d="M279.512 106.273h1.289v1842.602h-1.29Zm0 0"/></g><g clip-path="url(#cq)"><path fill="#636EFA" d="M280.582 105.309h1.297v1843.566h-1.297Zm0 0"/></g><g clip-path="url(#cr)"><path fill="#636EFA" d="M281.664 103.402h1.29v1845.473h-1.29Zm0 0"/></g><g clip-path="url(#cs)"><path fill="#636EFA" d="M282.734 107.121h1.297v1841.754h-1.297Zm0 0"/></g><g clip-path="url(#ct)"><path fill="#636EFA" d="M283.816 109.98h1.29v1838.895h-1.29Zm0 0"/></g><g clip-path="url(#cu)"><path fill="#636EFA" d="M284.895 111.059h1.289v1837.816h-1.29Zm0 0"/></g><g clip-path="url(#cv)"><path fill="#636EFA" d="M285.969 109.77h1.289v1839.105h-1.29Zm0 0"/></g><g clip-path="url(#cw)"><path fill="#636EFA" d="M287.047 125.664h1.289v1823.211h-1.29Zm0 0"/></g><g clip-path="url(#cx)"><path fill="#636EFA" d="M288.121 108.203h1.297v1840.672h-1.297Zm0 0"/></g><g clip-path="url(#cy)"><path fill="#636EFA" d="M289.2 119.332h1.288v1829.543H289.2Zm0 0"/></g><g clip-path="url(#cz)"><path fill="#636EFA" d="M290.273 117.238h1.297v1831.637h-1.297Zm0 0"/></g><g clip-path="url(#cA)"><path fill="#636EFA" d="M291.352 120.906h1.289v1827.969h-1.29Zm0 0"/></g><g clip-path="url(#cB)"><path fill="#636EFA" d="M292.434 115.98h1.289v1832.895h-1.29Zm0 0"/></g><g clip-path="url(#cC)"><path fill="#636EFA" d="M293.504 126.809h1.293v1822.066h-1.293Zm0 0"/></g><g clip-path="url(#cD)"><path fill="#636EFA" d="M294.586 112.703h1.289v1836.172h-1.29Zm0 0"/></g><g clip-path="url(#cE)"><path fill="#636EFA" d="M295.656 128.047h1.297v1820.828h-1.297Zm0 0"/></g><g clip-path="url(#cF)"><path fill="#636EFA" d="M296.738 137.355h1.29v1811.52h-1.29Zm0 0"/></g><g clip-path="url(#cG)"><path fill="#636EFA" d="M297.809 128.7h1.3v1820.175h-1.3Zm0 0"/></g><g clip-path="url(#cH)"><path fill="#636EFA" d="M298.89 141.234h1.29v1807.641h-1.29Zm0 0"/></g><g clip-path="url(#cI)"><path fill="#636EFA" d="M299.969 138.547h1.293v1810.328h-1.293Zm0 0"/></g><g clip-path="url(#cJ)"><path fill="#636EFA" d="M301.043 146.34h1.289v1802.535h-1.289Zm0 0"/></g><g clip-path="url(#cK)"><path fill="#636EFA" d="M302.121 153.89h1.293v1794.985h-1.293Zm0 0"/></g><g clip-path="url(#cL)"><path fill="#636EFA" d="M303.195 150.96h1.297v1797.915h-1.297Zm0 0"/></g><g clip-path="url(#cM)"><path fill="#636EFA" d="M304.273 162.098h1.293v1786.777h-1.293Zm0 0"/></g><g clip-path="url(#cN)"><path fill="#636EFA" d="M305.348 179.738h1.297v1769.137h-1.297Zm0 0"/></g><g clip-path="url(#cO)"><path fill="#636EFA" d="M306.426 153.89h1.293v1794.985h-1.293Zm0 0"/></g><g clip-path="url(#cP)"><path fill="#636EFA" d="M307.508 179.738h1.289v1769.137h-1.29Zm0 0"/></g><g clip-path="url(#cQ)"><path fill="#636EFA" d="M308.578 168.61h1.293v1780.265h-1.293Zm0 0"/></g><g clip-path="url(#cR)"><path fill="#636EFA" d="M311.813 168.61h1.289v1780.265h-1.29Zm0 0"/></g><g clip-path="url(#cS)"><path fill="#636EFA" d="M313.965 179.738h1.289v1769.137h-1.29Zm0 0"/></g><g clip-path="url(#cT)"><path fill="#636EFA" d="M340.883 179.738h1.297v1769.137h-1.297Zm0 0"/></g><g clip-path="url(#cU)"><path fill="#636EFA" d="M369.96 179.738h1.29v1769.137h-1.29Zm0 0"/></g><path fill="none" stroke="#D3D3D3" stroke-width=".75" d="M47.25 189.375h324M47.625 3.75V189"/><g fill="#2A3F5F"><use xlink:href="#cV" x="84.019" y="200.55"/><use xlink:href="#cW" x="91.384" y="200.55"/></g><use xlink:href="#cX" x="188.209" y="200.55" fill="#2A3F5F"/><use xlink:href="#cW" x="288.717" y="200.55" fill="#2A3F5F"/><use xlink:href="#cY" x="39.728" y="182.887" fill="#2A3F5F"/><use xlink:href="#cZ" x="41.159" y="170.97" fill="#2A3F5F"/><use xlink:href="#da" x="41.159" y="156.255" fill="#2A3F5F"/><g fill="#2A3F5F"><use xlink:href="#cY" x="34.007" y="145.912"/><use xlink:href="#cX" x="39.728" y="145.912"/></g><use xlink:href="#cZ" x="41.159" y="133.987" fill="#2A3F5F"/><use xlink:href="#da" x="41.159" y="119.28" fill="#2A3F5F"/><g fill="#2A3F5F"><use xlink:href="#cY" x="28.285" y="108.93"/><use xlink:href="#cX" x="34.007" y="108.93"/><use xlink:href="#cX" x="39.728" y="108.93"/></g><use xlink:href="#cZ" x="41.159" y="97.012" fill="#2A3F5F"/><use xlink:href="#da" x="41.159" y="82.297" fill="#2A3F5F"/><g fill="#2A3F5F"><use xlink:href="#cY" x="22.563" y="71.955"/><use xlink:href="#cX" x="28.285" y="71.955"/><use xlink:href="#cX" x="34.007" y="71.955"/><use xlink:href="#cX" x="39.728" y="71.955"/></g><use xlink:href="#cZ" x="41.159" y="60.037" fill="#2A3F5F"/><use xlink:href="#da" x="41.159" y="45.322" fill="#2A3F5F"/><g fill="#2A3F5F"><use xlink:href="#cY" x="28.68" y="34.98"/><use xlink:href="#cX" x="34.402" y="34.98"/><use xlink:href="#db" x="40.124" y="34.98"/></g><use xlink:href="#cZ" x="41.159" y="23.062" fill="#2A3F5F"/><use xlink:href="#da" x="41.159" y="8.348" fill="#2A3F5F"/><g fill="#2A3F5F"><use xlink:href="#dc" x="168.411" y="220.655"/><use xlink:href="#dd" x="175.051" y="220.655"/></g><g fill="#2A3F5F"><use xlink:href="#de" x="175.051" y="222.86"/><use xlink:href="#df" x="177.635" y="222.86"/></g><use xlink:href="#dg" x="182.096" y="222.86" fill="#2A3F5F"/><use xlink:href="#dh" x="185.232" y="222.86" fill="#2A3F5F"/><use xlink:href="#dd" x="192.381" y="220.655" fill="#2A3F5F"/><g fill="#2A3F5F"><use xlink:href="#dd" x="192.381" y="220.655"/><use xlink:href="#di" x="196.073" y="220.655"/><use xlink:href="#dj" x="200.841" y="220.655"/><use xlink:href="#dk" x="207.096" y="220.655"/><use xlink:href="#dl" x="214.273" y="220.655"/><use xlink:href="#dm" x="219.041" y="220.655"/><use xlink:href="#dn" x="225.348" y="220.655"/><use xlink:href="#do" x="229.485" y="220.655"/><use xlink:href="#dp" x="235.858" y="220.655"/><use xlink:href="#dq" x="246.071" y="220.655"/></g><g fill="#2A3F5F"><use xlink:href="#dr" x="10.5" y="152.689"/><use xlink:href="#ds" x="10.5" y="144.835"/><use xlink:href="#dt" x="10.5" y="138.19"/><use xlink:href="#du" x="10.5" y="127.978"/><use xlink:href="#dv" x="10.5" y="121.436"/><use xlink:href="#dw" x="10.5" y="115.181"/><use xlink:href="#dx" x="10.5" y="110.7"/><use xlink:href="#dy" x="10.5" y="107.008"/><use xlink:href="#dz" x="10.5" y="100.635"/><use xlink:href="#dx" x="10.5" y="96.944"/><use xlink:href="#dA" x="10.5" y="93.253"/><use xlink:href="#dB" x="10.5" y="87.782"/><use xlink:href="#dw" x="10.5" y="83.645"/><use xlink:href="#ds" x="10.5" y="79.164"/><use xlink:href="#dC" x="10.5" y="72.519"/><use xlink:href="#dB" x="10.5" y="67.049"/><use xlink:href="#ds" x="10.5" y="62.911"/><use xlink:href="#dw" x="10.5" y="56.267"/><use xlink:href="#dv" x="10.5" y="51.786"/><use xlink:href="#dA" x="10.5" y="45.531"/></g></svg>