<svg xmlns="http://www.w3.org/2000/svg" xmlns:xlink="http://www.w3.org/1999/xlink" width="375.12" height="224.88"><defs><clipPath id="a"><path d="M0 0h375v224.879H0Zm0 0"/></clipPath><clipPath id="b"><path d="M48 179h2v10h-2Zm0 0"/></clipPath><clipPath id="c"><path d="M120 179h2v10h-2Zm0 0"/></clipPath><clipPath id="d"><path d="M215 179h3v10h-3Zm0 0"/></clipPath><clipPath id="e"><path d="M225 179h2v10h-2Zm0 0"/></clipPath><clipPath id="f"><path d="M235 179h2v10h-2Zm0 0"/></clipPath><clipPath id="g"><path d="M241 179h3v10h-3Zm0 0"/></clipPath><clipPath id="h"><path d="M248 171h2v18h-2Zm0 0"/></clipPath><clipPath id="i"><path d="M251 171h2v18h-2Zm0 0"/></clipPath><clipPath id="j"><path d="M252 179h2v10h-2Zm0 0"/></clipPath><clipPath id="k"><path d="M253 179h2v10h-2Zm0 0"/></clipPath><clipPath id="l"><path d="M260 179h2v10h-2Zm0 0"/></clipPath><clipPath id="m"><path d="M264 179h2v10h-2Zm0 0"/></clipPath><clipPath id="n"><path d="M267 179h2v10h-2Zm0 0"/></clipPath><clipPath id="o"><path d="M270 171h3v18h-3Zm0 0"/></clipPath><clipPath id="p"><path d="M273 179h2v10h-2Zm0 0"/></clipPath><clipPath id="q"><path d="M276 179h2v10h-2Zm0 0"/></clipPath><clipPath id="r"><path d="M277 166h2v23h-2Zm0 0"/></clipPath><clipPath id="s"><path d="M278 171h2v18h-2Zm0 0"/></clipPath><clipPath id="t"><path d="M279 163h2v26h-2Zm0 0"/></clipPath><clipPath id="u"><path d="M280 166h2v23h-2Zm0 0"/></clipPath><clipPath id="v"><path d="M281 160h2v29h-2Zm0 0"/></clipPath><clipPath id="w"><path d="M283 171h3v18h-3Zm0 0"/></clipPath><clipPath id="x"><path d="M284 163h3v26h-3Zm0 0"/></clipPath><clipPath id="y"><path d="M285 153h3v36h-3Zm0 0"/></clipPath><clipPath id="z"><path d="M287 147h2v42h-2Zm0 0"/></clipPath><clipPath id="A"><path d="M288 153h2v36h-2Zm0 0"/></clipPath><clipPath id="B"><path d="M289 147h2v42h-2Zm0 0"/></clipPath><clipPath id="C"><path d="M290 143h2v46h-2Zm0 0"/></clipPath><clipPath id="D"><path d="M291 141h2v48h-2Zm0 0"/></clipPath><clipPath id="E"><path d="M292 136h2v53h-2Zm0 0"/></clipPath><clipPath id="F"><path d="M293 133h2v56h-2Zm0 0"/></clipPath><clipPath id="G"><path d="M294 128h2v61h-2Zm0 0"/></clipPath><clipPath id="H"><path d="M295 126h2v63h-2Zm0 0"/></clipPath><clipPath id="I"><path d="M296 124h3v65h-3Zm0 0"/></clipPath><clipPath id="J"><path d="M297 121h3v68h-3Zm0 0"/></clipPath><clipPath id="K"><path d="M298 117h3v72h-3Zm0 0"/></clipPath><clipPath id="L"><path d="M299 114h3v75h-3Zm0 0"/></clipPath><clipPath id="M"><path d="M301 108h2v81h-2Zm0 0"/></clipPath><clipPath id="N"><path d="M302 105h2v84h-2Zm0 0"/></clipPath><clipPath id="O"><path d="M303 100h2v89h-2Zm0 0"/></clipPath><clipPath id="P"><path d="M304 99h2v90h-2Zm0 0"/></clipPath><clipPath id="Q"><path d="M305 94h2v95h-2Zm0 0"/></clipPath><clipPath id="R"><path d="M306 90h2v99h-2Zm0 0"/></clipPath><clipPath id="S"><path d="M307 85h2v104h-2Zm0 0"/></clipPath><clipPath id="T"><path d="M308 78h2v111h-2Zm0 0"/></clipPath><clipPath id="U"><path d="M309 70h2v119h-2Zm0 0"/></clipPath><clipPath id="V"><path d="M310 57h3v132h-3Zm0 0"/></clipPath><clipPath id="W"><path d="M311 13h3v176h-3Zm0 0"/></clipPath><clipPath id="X"><path d="M312 41h3v148h-3Zm0 0"/></clipPath><clipPath id="Y"><path d="M313 63h3v126h-3Zm0 0"/></clipPath><clipPath id="Z"><path d="M315 76h2v113h-2Zm0 0"/></clipPath><clipPath id="aa"><path d="M316 87h2v102h-2Zm0 0"/></clipPath><clipPath id="ab"><path d="M317 98h2v91h-2Zm0 0"/></clipPath><clipPath id="ac"><path d="M318 108h2v81h-2Zm0 0"/></clipPath><clipPath id="ad"><path d="M319 116h2v73h-2Zm0 0"/></clipPath><clipPath id="ae"><path d="M320 128h2v61h-2Zm0 0"/></clipPath><clipPath id="af"><path d="M321 137h2v52h-2Zm0 0"/></clipPath><clipPath id="ag"><path d="M322 141h2v48h-2Zm0 0"/></clipPath><clipPath id="ah"><path d="M323 143h2v46h-2Zm0 0"/></clipPath><clipPath id="ai"><path d="M324 152h3v37h-3Zm0 0"/></clipPath><clipPath id="aj"><path d="M325 160h3v29h-3Zm0 0"/></clipPath><clipPath id="ak"><path d="M326 166h3v23h-3Zm0 0"/></clipPath><clipPath id="al"><path d="M327 163h3v26h-3Zm0 0"/></clipPath><clipPath id="am"><path d="M329 166h2v23h-2Zm0 0"/></clipPath><clipPath id="an"><path d="M330 160h2v29h-2Zm0 0"/></clipPath><clipPath id="ao"><path d="M331 163h2v26h-2Zm0 0"/></clipPath><clipPath id="ap"><path d="M332 163h2v26h-2Zm0 0"/></clipPath><clipPath id="aq"><path d="M333 179h2v10h-2Zm0 0"/></clipPath><clipPath id="ar"><path d="M334 160h2v29h-2Zm0 0"/></clipPath><clipPath id="as"><path d="M335 166h2v23h-2Zm0 0"/></clipPath><clipPath id="at"><path d="M343 179h2v10h-2Zm0 0"/></clipPath><clipPath id="au"><path d="M344 179h2v10h-2Zm0 0"/></clipPath><clipPath id="av"><path d="M353 179h3v10h-3Zm0 0"/></clipPath><clipPath id="aw"><path d="M369 171h2.25v18H369Zm0 0"/></clipPath><path id="ax" d="M6.406-2.516H.97v-.703h5.437Zm0 0"/><path id="ay" d="M4.766 0H1.219v-.672h1.36v-4.375h-1.36v-.61q.28 0 .593-.046a1.8 1.8 0 0 0 .485-.125.8.8 0 0 0 .312-.281.85.85 0 0 0 .141-.453h.672v5.89h1.344Zm0 0"/><path id="az" d="M5.125-3.281q-.001 1.769-.547 2.594C4.211-.133 3.641.14 2.86.14Q1.687.142 1.141-.687.608-1.531.609-3.266q-.002-1.746.547-2.578.545-.827 1.703-.828 1.186 0 1.72.844c.362.562.546 1.414.546 2.547m-1.156 2c.101-.239.172-.516.203-.828q.06-.48.062-1.172a10 10 0 0 0-.062-1.14 2.7 2.7 0 0 0-.203-.845 1.2 1.2 0 0 0-.422-.515c-.18-.114-.406-.172-.688-.172a1.3 1.3 0 0 0-.687.172q-.27.176-.422.515a3 3 0 0 0-.203.86 13 13 0 0 0-.047 1.14q0 .69.047 1.157.046.455.203.812.14.344.406.531c.176.118.41.172.703.172.282 0 .508-.054.688-.172q.28-.17.422-.515m0 0"/><path id="aA" d="M5.078-2.078c0 .305-.058.594-.172.875a1.9 1.9 0 0 1-.453.703q-.315.315-.75.484a3.1 3.1 0 0 1-1.015.157Q2.154.14 1.656.016A4 4 0 0 1 .828-.25v-.922h.063c.238.156.515.29.828.39q.482.158.953.157c.207 0 .41-.023.61-.078.195-.063.366-.164.515-.313a1.1 1.1 0 0 0 .297-.453q.093-.264.093-.61a1.24 1.24 0 0 0-.125-.577.95.95 0 0 0-.312-.375 1.45 1.45 0 0 0-.547-.219 3.3 3.3 0 0 0-.734-.078q-.393.002-.75.062-.364.048-.61.094v-3.375h3.938v.766H1.953v1.75q.188-.014.375-.016.2-.014.36-.016.528 0 .921.094c.27.055.516.156.735.313q.358.236.547.625.187.377.187.953m0 0"/><path id="aB" d="M5.266 0H4.172L2.203-2.156l-.531.515V0H.844v-6.844h.828v4.39l2.39-2.452H5.11L2.83-2.641Zm0 0"/><path id="aC" d="M6.703 0h-.86v-5.64L4.017-1.798H3.5L1.688-5.64V0H.875v-6.547h1.188l1.75 3.64L5.5-6.546h1.203Zm0 0"/><path id="aD" d="M5.563 0H1.422v-.781h1.594v-5.11H1.422v-.703c.219 0 .445-.015.687-.047q.375-.06.563-.156a1.3 1.3 0 0 0 .375-.328q.14-.201.156-.531H4v6.875h1.563Zm0 0"/><path id="aE" d="M4.406-7.984.734 1.563h-.89L3.5-7.985Zm0 0"/><path id="aF" d="M5.328-3.672c.156.149.285.328.39.547q.172.33.173.86-.002.534-.203.968a2.15 2.15 0 0 1-.532.75q-.377.362-.906.531a3.6 3.6 0 0 1-1.125.172Q2.48.154 1.859 0a5 5 0 0 1-1-.328v-1.063h.079q.434.281 1.015.47.592.186 1.14.187c.22 0 .446-.032.688-.094a1.44 1.44 0 0 0 .938-.813q.124-.28.125-.703 0-.403-.14-.672a1.05 1.05 0 0 0-.36-.421 1.6 1.6 0 0 0-.563-.22 4 4 0 0 0-.703-.062h-.453v-.844h.36q.778 0 1.234-.328.468-.327.468-.953a.9.9 0 0 0-.125-.484 1 1 0 0 0-.328-.344 1.6 1.6 0 0 0-.468-.172 2.5 2.5 0 0 0-.563-.062q-.485 0-1.047.172c-.367.117-.71.28-1.031.5h-.047v-1.078q.359-.17.969-.329a4.8 4.8 0 0 1 1.172-.156c.375 0 .703.04.984.11q.435.093.781.328.359.253.547.593.201.344.203.813c0 .43-.152.797-.453 1.11a2 2 0 0 1-1.062.593v.078q.246.048.562.172.311.129.547.328m0 0"/><path id="aH" d="M6.469-6.734H3.75V0H2.734v-6.734H0v-.907h6.469Zm0 0"/><path id="aI" d="M4.516-4.672h-.047a2.6 2.6 0 0 0-.422-.078 8 8 0 0 0-.469-.016q-.456.002-.875.204-.41.188-.797.5V0H.953v-5.734h.953v.859q.575-.468 1.016-.656.434-.201.89-.203.264.002.376.015.106.018.328.047Zm0 0"/><path id="aJ" d="M4.016 2.11H2.844A8.2 8.2 0 0 1 1.422-.157c-.336-.82-.5-1.75-.5-2.781 0-1.02.164-1.942.5-2.766a8.5 8.5 0 0 1 1.422-2.281h1.172v.062a6.5 6.5 0 0 0-.797.86q-.376.485-.703 1.14-.301.628-.5 1.39a6.6 6.6 0 0 0-.188 1.595q0 .877.188 1.609.186.736.5 1.39.31.622.703 1.126.405.513.797.875Zm0 0"/><path id="aK" d="M5.828-2.86c0 .962-.242 1.704-.719 2.235q-.72.783-1.921.781-1.237 0-1.938-.812-.703-.81-.703-2.203-.001-1.405.719-2.22c.476-.538 1.125-.812 1.937-.812.188 0 .367.024.547.063q.282.064.422.094H6.64v.859H5.156q.327.376.5.875.171.485.172 1.14m-1 0q0-1.106-.422-1.656-.408-.545-1.203-.546c-.555 0-.969.195-1.25.578q-.422.58-.422 1.625 0 1.064.422 1.625.436.562 1.235.562.78.002 1.203-.547.435-.563.437-1.64m0 0"/><path id="aL" d="M3.844-2.937c0 1.03-.172 1.96-.516 2.78A8 8 0 0 1 1.922 2.11H.75v-.046a6.3 6.3 0 0 0 .797-.876A7 7 0 0 0 2.25.063c.207-.438.375-.899.5-1.391a6.5 6.5 0 0 0 .188-1.61q0-.843-.188-1.593a6.8 6.8 0 0 0-1.203-2.532q-.375-.482-.797-.859v-.062h1.172q.902 1.05 1.406 2.28.516 1.238.516 2.766m0 0"/><path id="aM" d="M5.75-2.766H1.516q-.001.535.156.922.171.394.453.64.263.253.625.376c.25.086.52.125.813.125q.574 0 1.171-.235.592-.234.844-.468h.047v1.062q-.485.204-1 .344c-.336.094-.687.14-1.062.14Q2.14.143 1.342-.624q-.795-.78-.796-2.203-.001-1.405.766-2.234.761-.828 2.015-.829 1.154 0 1.781.688.64.675.641 1.922ZM4.797-3.5q0-.761-.375-1.172c-.25-.281-.633-.422-1.14-.422-.524 0-.938.157-1.25.469q-.457.457-.516 1.125Zm0 0"/><path id="aN" d="M7.047-7.64 4.266 0h-1.36L.141-7.64h1.078l2.39 6.718L6.016-7.64Zm0 0"/><path id="aO" d="M7.047 0H5.969l-.766-2.125H1.922L1.156 0H.141l2.656-7.219a1.8 1.8 0 0 1-.735-.625 1.65 1.65 0 0 1-.265-.937q0-.733.516-1.219.515-.499 1.265-.5c.508 0 .938.168 1.281.5q.516.486.516 1.219-.001.516-.266.937-.269.424-.718.625ZM4.609-8.766Q4.607-9.2 4.313-9.5a.98.98 0 0 0-.735-.297c-.293 0-.539.102-.734.297q-.281.3-.281.734 0 .441.28.735.295.298.735.297.451 0 .735-.297.294-.295.296-.735M4.891-3 3.563-6.672 2.234-3Zm0 0"/><path id="aP" d="M4.906-4.187q0 .393-.172.687c-.117.188-.265.34-.453.453q-.3.173-.687.266a4 4 0 0 1-.828.078A4.8 4.8 0 0 1 1.063-3v-.922h.078q.199.19.703.344.499.14.968.14c.344 0 .63-.054.86-.171.226-.125.344-.313.344-.563q-.001-.434-.313-.594c-.2-.101-.492-.156-.875-.156H2.11v-.719h.657c.375 0 .648-.066.828-.203a.64.64 0 0 0 .281-.547.56.56 0 0 0-.25-.484q-.253-.187-.781-.187-.393.002-.89.156c-.337.105-.579.218-.735.343h-.063v-.906q.374-.14.813-.234.45-.094.906-.094.904 0 1.39.36.5.345.5.89 0 .457-.28.75a1.76 1.76 0 0 1-.735.422v.031c.32.063.594.188.813.375q.341.283.343.782m0 0"/><path id="aQ" d="M0-6.844v1.25l-6.828 3.625H0v.938h-7.64v-1.563l6.234-3.312h-6.235v-.938Zm0 0"/><path id="aR" d="M0-5.703v.969h-.64q.393.486.593.937.201.44.203.985.002.908-.547 1.406c-.363.336-.906.5-1.625.5h-3.718v-.969h3.265q.44.002.75-.031.316-.047.532-.188a.76.76 0 0 0 .328-.344q.093-.233.093-.656 0-.357-.187-.797-.2-.45-.5-.843h-4.281v-.97Zm0 0"/><path id="aS" d="M0-9.312v.968h-3.266q-.357.001-.703.031-.34.035-.547.141a.8.8 0 0 0-.343.344c-.07.148-.11.36-.11.64q.002.41.203.813.206.393.516.797.13-.014.281-.016.157-.013.297-.015H0v.968h-3.266q-.374.001-.718.032-.341.035-.547.14a.72.72 0 0 0-.328.344c-.07.148-.11.355-.11.625q.002.392.203.797c.125.262.29.527.485.797H0v.953h-5.734v-.953h.64q-.374-.45-.578-.907a2.2 2.2 0 0 1-.219-.953q.002-.59.25-1a1.6 1.6 0 0 1 .688-.609q-.497-.575-.719-1.062A2.5 2.5 0 0 1-5.89-7.47c0-.625.196-1.086.579-1.39q.563-.452 1.593-.453Zm0 0"/><path id="aT" d="M-2.906-5.984q.721.002 1.297.203.564.205.953.547.41.362.61.797c.132.292.202.609.202.953Q.155-3 .031-2.625a4 4 0 0 1-.297.719L0-1.844v.89h-7.984v-.952h2.859a4.4 4.4 0 0 1-.547-.86 2.4 2.4 0 0 1-.219-1.03q.001-1.015.782-1.595.784-.592 2.203-.593m.031.984q-1.03.002-1.562.344-.53.344-.532 1.093 0 .424.188.86.175.422.468.797h3.282q.189-.423.265-.703a3.2 3.2 0 0 0 .063-.672q0-.81-.531-1.266-.528-.452-1.641-.453m0 0"/><path id="aU" d="M-2.766-5.75v4.234q.535.001.922-.156.394-.171.64-.453.253-.263.376-.625c.086-.25.125-.52.125-.812q0-.575-.235-1.172-.234-.592-.468-.844v-.047h1.062q.204.485.344 1 .14.502.14 1.063.002 1.422-.765 2.218-.78.798-2.203.797c-.938 0-1.68-.254-2.234-.765q-.828-.762-.829-2.016 0-1.154.688-1.781.675-.64 1.922-.641Zm-.734.953q-.761 0-1.172.375c-.281.25-.422.633-.422 1.14 0 .524.157.938.469 1.25q.457.457 1.125.516Zm0 0"/><path id="aV" d="M-4.672-4.516v.047q-.06.224-.078.422a8 8 0 0 0-.016.469q.002.456.204.875.188.41.5.797H0v.953h-5.734v-.953h.859q-.468-.575-.656-1.016a2.1 2.1 0 0 1-.203-.89q.002-.264.015-.376.018-.106.047-.328Zm0 0"/><path id="aX" d="M-2.86-5.828q1.395.002 2.204.719.813.72.812 1.922 0 1.22-.812 1.937-.81.703-2.203.703-1.405 0-2.22-.703c-.538-.477-.812-1.125-.812-1.937 0-.801.274-1.442.813-1.922.543-.477 1.281-.72 2.219-.72m0 1q-1.106.002-1.656.437-.545.423-.546 1.204 0 .785.546 1.218.55.439 1.657.438 1.077 0 1.64-.438.549-.433.547-1.218.002-.763-.547-1.204-.563-.435-1.64-.437m0 0"/><path id="aY" d="M-7.047-4.031v.047a6 6 0 0 0-.094.422q-.046.252-.046.453 0 .626.28.906c.18.18.509.265.985.265h.188v-1.734h.812v1.703H0V-1h-4.922v.656h-.812V-1h-.188c-.676 0-1.195-.164-1.562-.5q-.546-.515-.547-1.469a5 5 0 0 1 .11-1.062Zm0 0"/><path id="aZ" d="M-1.656-5.047q.798 0 1.297.656c.336.43.5 1.016.5 1.766 0 .43-.055.82-.157 1.172q-.151.533-.328.89h-1.078v-.046c.23-.313.414-.649.547-1.016a3.1 3.1 0 0 0 .203-1.078q.001-.638-.203-1a.72.72 0 0 0-.656-.36q-.328.002-.516.204-.168.188-.297.75a7 7 0 0 0-.094.53q-.058.33-.14.61-.201.751-.578 1.063-.389.314-.953.312-.357 0-.672-.14a1.6 1.6 0 0 1-.563-.438 2.3 2.3 0 0 1-.375-.734q-.14-.45-.14-1 .001-.516.125-1.031.128-.529.297-.876h1.03v.047q-.263.377-.452.907a3 3 0 0 0-.188 1.03q.002.534.203.892.206.361.594.359c.242 0 .418-.07.531-.219.125-.144.227-.375.297-.687q.066-.282.125-.61c.043-.219.078-.398.11-.547q.156-.668.53-1.03c.25-.25.587-.376 1-.376m0 0"/><path id="ba" d="M-.047-3.922c.043.18.078.375.11.594q.046.316.046.562 0 .892-.468 1.344c-.313.305-.817.453-1.516.453h-3.047v.657h-.812V-.97h-1.641v-.968h1.64v-1.985h.813v1.985h2.61q.455.001.718-.016a1 1 0 0 0 .469-.14.64.64 0 0 0 .297-.313q.094-.2.094-.61 0-.233-.063-.484a4 4 0 0 0-.125-.375v-.047Zm0 0"/><path id="bb" d="M-.36-5.187q.236.487.36.921.124.44.125.922c0 .406-.059.79-.172 1.14a2.25 2.25 0 0 1-.562.876 2.5 2.5 0 0 1-.922.594q-.576.204-1.328.203-1.407.001-2.203-.766-.797-.78-.797-2.047 0-.499.14-.969.14-.466.328-.875h1.079v.063a3.8 3.8 0 0 0-.532.906 2.4 2.4 0 0 0-.187.907q0 .832.562 1.312.55.47 1.61.469 1.047 0 1.609-.469.549-.468.547-1.312.001-.281-.078-.579a2.3 2.3 0 0 0-.203-.546 6 6 0 0 0-.22-.407 2 2 0 0 0-.218-.281v-.062Zm0 0"/></defs><g clip-path="url(#a)"><path fill="#FFF" d="M0 0h375v225H0Zm0 0"/></g><path fill="#FFF" d="M48 3.75h323.25V189H48Zm0 0"/><path fill="none" stroke="#EBF0F8" stroke-width=".75" d="M48 179.738h323.25M48 152.566h323.25M48 125.39h323.25M48 98.219h323.25M48 71.047h323.25M48 43.875h323.25M48 16.703h323.25"/><g clip-path="url(#b)"><path fill="#636EFA" d="M48 179.738h1.29v1769.137H48Zm0 0"/></g><g clip-path="url(#c)"><path fill="#636EFA" d="M120.14 179.738h1.301v1769.137h-1.3Zm0 0"/></g><g clip-path="url(#d)"><path fill="#636EFA" d="M215.977 179.738h1.289v1769.137h-1.29Zm0 0"/></g><g clip-path="url(#e)"><path fill="#636EFA" d="M225.668 179.738h1.289v1769.137h-1.289Zm0 0"/></g><g clip-path="url(#f)"><path fill="#636EFA" d="M235.36 179.738h1.296v1769.137h-1.297Zm0 0"/></g><g clip-path="url(#g)"><path fill="#636EFA" d="M241.824 179.738h1.29v1769.137h-1.29Zm0 0"/></g><g clip-path="url(#h)"><path fill="#636EFA" d="M248.281 171.555h1.29v1777.32h-1.29Zm0 0"/></g><g clip-path="url(#i)"><path fill="#636EFA" d="M251.512 171.555h1.289v1777.32h-1.29Zm0 0"/></g><g clip-path="url(#j)"><path fill="#636EFA" d="M252.586 179.738h1.297v1769.137h-1.297Zm0 0"/></g><g clip-path="url(#k)"><path fill="#636EFA" d="M253.664 179.738h1.29v1769.137h-1.29Zm0 0"/></g><g clip-path="url(#l)"><path fill="#636EFA" d="M260.121 179.738h1.3v1769.137h-1.3Zm0 0"/></g><g clip-path="url(#m)"><path fill="#636EFA" d="M264.434 179.738h1.293v1769.137h-1.293Zm0 0"/></g><g clip-path="url(#n)"><path fill="#636EFA" d="M267.66 179.738h1.297v1769.137h-1.297Zm0 0"/></g><g clip-path="url(#o)"><path fill="#636EFA" d="M270.89 171.555h1.294v1777.32h-1.293Zm0 0"/></g><g clip-path="url(#p)"><path fill="#636EFA" d="M273.047 179.738h1.297v1769.137h-1.297Zm0 0"/></g><g clip-path="url(#q)"><path fill="#636EFA" d="M276.277 179.738h1.29v1769.137h-1.29Zm0 0"/></g><g clip-path="url(#r)"><path fill="#636EFA" d="M277.36 166.77h1.288v1782.105h-1.289Zm0 0"/></g><g clip-path="url(#s)"><path fill="#636EFA" d="M278.43 171.555h1.289v1777.32h-1.29Zm0 0"/></g><g clip-path="url(#t)"><path fill="#636EFA" d="M279.512 163.379h1.289v1785.496h-1.29Zm0 0"/></g><g clip-path="url(#u)"><path fill="#636EFA" d="M280.582 166.77h1.297v1782.105h-1.297Zm0 0"/></g><g clip-path="url(#v)"><path fill="#636EFA" d="M281.664 160.746h1.29v1788.129h-1.29Zm0 0"/></g><g clip-path="url(#w)"><path fill="#636EFA" d="M283.816 171.555h1.29v1777.32h-1.29Zm0 0"/></g><g clip-path="url(#x)"><path fill="#636EFA" d="M284.895 163.379h1.289v1785.496h-1.29Zm0 0"/></g><g clip-path="url(#y)"><path fill="#636EFA" d="M285.969 153.809h1.289v1795.066h-1.29Zm0 0"/></g><g clip-path="url(#z)"><path fill="#636EFA" d="M287.047 147.781h1.289v1801.094h-1.29Zm0 0"/></g><g clip-path="url(#A)"><path fill="#636EFA" d="M288.121 153.809h1.297v1795.066h-1.297Zm0 0"/></g><g clip-path="url(#B)"><path fill="#636EFA" d="M289.2 147.781h1.288v1801.094H289.2Zm0 0"/></g><g clip-path="url(#C)"><path fill="#636EFA" d="M290.273 143.258h1.297v1805.617h-1.297Zm0 0"/></g><g clip-path="url(#D)"><path fill="#636EFA" d="M291.352 141.75h1.289v1807.125h-1.29Zm0 0"/></g><g clip-path="url(#E)"><path fill="#636EFA" d="M292.434 136.508h1.289v1812.367h-1.29Zm0 0"/></g><g clip-path="url(#F)"><path fill="#636EFA" d="M293.504 133.574h1.293v1815.301h-1.293Zm0 0"/></g><g clip-path="url(#G)"><path fill="#636EFA" d="M294.586 128.176h1.289v1820.699h-1.29Zm0 0"/></g><g clip-path="url(#H)"><path fill="#636EFA" d="M295.656 126.375h1.297v1822.5h-1.297Zm0 0"/></g><g clip-path="url(#I)"><path fill="#636EFA" d="M296.738 124.598h1.29v1824.277h-1.29Zm0 0"/></g><g clip-path="url(#J)"><path fill="#636EFA" d="M297.809 121.852h1.3v1827.023h-1.3Zm0 0"/></g><g clip-path="url(#K)"><path fill="#636EFA" d="M298.89 117.04h1.29v1831.835h-1.29Zm0 0"/></g><g clip-path="url(#L)"><path fill="#636EFA" d="M299.969 114.719h1.293v1834.156h-1.293Zm0 0"/></g><g clip-path="url(#M)"><path fill="#636EFA" d="M301.043 108.887h1.289v1839.988h-1.289Zm0 0"/></g><g clip-path="url(#N)"><path fill="#636EFA" d="M302.121 105.316h1.293v1843.559h-1.293Zm0 0"/></g><g clip-path="url(#O)"><path fill="#636EFA" d="M303.195 100.898h1.297v1847.977h-1.297Zm0 0"/></g><g clip-path="url(#P)"><path fill="#636EFA" d="M304.273 99.398h1.293v1849.477h-1.293Zm0 0"/></g><g clip-path="url(#Q)"><path fill="#636EFA" d="M305.348 94.762h1.297v1854.113h-1.297Zm0 0"/></g><g clip-path="url(#R)"><path fill="#636EFA" d="M306.426 90.18h1.293v1858.695h-1.293Zm0 0"/></g><g clip-path="url(#S)"><path fill="#636EFA" d="M307.508 85.176h1.289v1863.699h-1.29Zm0 0"/></g><g clip-path="url(#T)"><path fill="#636EFA" d="M308.578 78.809h1.293v1870.066h-1.293Zm0 0"/></g><g clip-path="url(#U)"><path fill="#636EFA" d="M309.66 70.965h1.29v1877.91h-1.29Zm0 0"/></g><g clip-path="url(#V)"><path fill="#636EFA" d="M310.734 57.637h1.297v1891.238h-1.297Zm0 0"/></g><g clip-path="url(#W)"><path fill="#636EFA" d="M311.813 13.012h1.289v1935.863h-1.29Zm0 0"/></g><g clip-path="url(#X)"><path fill="#636EFA" d="M312.887 41.137h1.297v1907.738h-1.297Zm0 0"/></g><g clip-path="url(#Y)"><path fill="#636EFA" d="M313.965 63.023h1.289v1885.852h-1.29Zm0 0"/></g><g clip-path="url(#Z)"><path fill="#636EFA" d="M315.047 76.012h1.289v1872.863h-1.29Zm0 0"/></g><g clip-path="url(#aa)"><path fill="#636EFA" d="M316.117 87.61h1.29v1861.265h-1.29Zm0 0"/></g><g clip-path="url(#ab)"><path fill="#636EFA" d="M317.2 98.348h1.288v1850.527H317.2Zm0 0"/></g><g clip-path="url(#ac)"><path fill="#636EFA" d="M318.27 108.066h1.296v1840.809h-1.296Zm0 0"/></g><g clip-path="url(#ad)"><path fill="#636EFA" d="M319.352 116.805h1.289v1832.07h-1.29Zm0 0"/></g><g clip-path="url(#ae)"><path fill="#636EFA" d="M320.422 128.023h1.297v1820.852h-1.297Zm0 0"/></g><g clip-path="url(#af)"><path fill="#636EFA" d="M321.504 137.121h1.289v1811.754h-1.29Zm0 0"/></g><g clip-path="url(#ag)"><path fill="#636EFA" d="M322.582 141.293h1.29v1807.582h-1.29Zm0 0"/></g><g clip-path="url(#ah)"><path fill="#636EFA" d="M323.656 143.813h1.29v1805.062h-1.29Zm0 0"/></g><g clip-path="url(#ai)"><path fill="#636EFA" d="M324.734 152.566h1.29v1796.309h-1.29Zm0 0"/></g><g clip-path="url(#aj)"><path fill="#636EFA" d="M325.809 160.746h1.296v1788.129h-1.296Zm0 0"/></g><g clip-path="url(#ak)"><path fill="#636EFA" d="M326.887 166.77h1.289v1782.105h-1.29Zm0 0"/></g><g clip-path="url(#al)"><path fill="#636EFA" d="M327.96 163.379h1.298v1785.496h-1.297Zm0 0"/></g><g clip-path="url(#am)"><path fill="#636EFA" d="M329.04 166.77h1.288v1782.105h-1.289Zm0 0"/></g><g clip-path="url(#an)"><path fill="#636EFA" d="M330.121 160.746h1.29v1788.129h-1.29Zm0 0"/></g><g clip-path="url(#ao)"><path fill="#636EFA" d="M331.191 163.379h1.293v1785.496h-1.293Zm0 0"/></g><g clip-path="url(#ap)"><path fill="#636EFA" d="M332.273 163.379h1.29v1785.496h-1.29Zm0 0"/></g><g clip-path="url(#aq)"><path fill="#636EFA" d="M333.344 179.738h1.297v1769.137h-1.297Zm0 0"/></g><g clip-path="url(#ar)"><path fill="#636EFA" d="M334.426 160.746h1.289v1788.129h-1.29Zm0 0"/></g><g clip-path="url(#as)"><path fill="#636EFA" d="M335.496 166.77h1.3v1782.105h-1.3Zm0 0"/></g><g clip-path="url(#at)"><path fill="#636EFA" d="M343.035 179.738h1.297v1769.137h-1.297Zm0 0"/></g><g clip-path="url(#au)"><path fill="#636EFA" d="M344.113 179.738h1.293v1769.137h-1.293Zm0 0"/></g><g clip-path="url(#av)"><path fill="#636EFA" d="M353.805 179.738h1.289v1769.137h-1.29Zm0 0"/></g><g clip-path="url(#aw)"><path fill="#636EFA" d="M369.96 171.555h1.29v1777.32h-1.29Zm0 0"/></g><path fill="none" stroke="#D3D3D3" stroke-width=".75" d="M47.25 189.375h324M47.625 3.75V189"/><g fill="#2A3F5F"><use xlink:href="#ax" x="65.813" y="200.55"/><use xlink:href="#ay" x="73.178" y="200.55"/><use xlink:href="#az" x="78.9" y="200.55"/></g><g fill="#2A3F5F"><use xlink:href="#ax" x="187.722" y="200.55"/><use xlink:href="#aA" x="195.087" y="200.55"/></g><use xlink:href="#az" x="310.459" y="200.55" fill="#2A3F5F"/><use xlink:href="#ay" x="39.728" y="182.887" fill="#2A3F5F"/><g fill="#2A3F5F"><use xlink:href="#ay" x="34.007" y="155.715"/><use xlink:href="#az" x="39.728" y="155.715"/></g><g fill="#2A3F5F"><use xlink:href="#ay" x="28.285" y="128.542"/><use xlink:href="#az" x="34.007" y="128.542"/><use xlink:href="#az" x="39.728" y="128.542"/></g><g fill="#2A3F5F"><use xlink:href="#ay" x="22.563" y="101.37"/><use xlink:href="#az" x="28.285" y="101.37"/><use xlink:href="#az" x="34.007" y="101.37"/><use xlink:href="#az" x="39.728" y="101.37"/></g><g fill="#2A3F5F"><use xlink:href="#ay" x="28.68" y="74.197"/><use xlink:href="#az" x="34.402" y="74.197"/><use xlink:href="#aB" x="40.124" y="74.197"/></g><g fill="#2A3F5F"><use xlink:href="#ay" x="22.959" y="47.025"/><use xlink:href="#az" x="28.68" y="47.025"/><use xlink:href="#az" x="34.402" y="47.025"/><use xlink:href="#aB" x="40.124" y="47.025"/></g><g fill="#2A3F5F"><use xlink:href="#ay" x="32.143" y="19.852"/><use xlink:href="#aC" x="37.865" y="19.852"/></g><g fill="#2A3F5F"><use xlink:href="#aD" x="163.018" y="220.655"/><use xlink:href="#aE" x="169.694" y="220.655"/><use xlink:href="#aF" x="174.462" y="220.655"/><use xlink:href="#aG" x="181.137" y="220.655"/><use xlink:href="#aH" x="184.828" y="220.655"/><use xlink:href="#aI" x="191.299" y="220.655"/><use xlink:href="#aJ" x="195.78" y="220.655"/><use xlink:href="#aK" x="200.548" y="220.655"/><use xlink:href="#aL" x="207.167" y="220.655"/><use xlink:href="#aG" x="211.935" y="220.655"/><use xlink:href="#aJ" x="215.626" y="220.655"/><use xlink:href="#aM" x="220.394" y="220.655"/><use xlink:href="#aN" x="226.649" y="220.655"/><use xlink:href="#aE" x="233.827" y="220.655"/><use xlink:href="#aO" x="238.595" y="220.655"/><use xlink:href="#aP" x="245.773" y="220.655"/><use xlink:href="#aL" x="251.463" y="220.655"/></g><g fill="#2A3F5F"><use xlink:href="#aQ" x="10.5" y="152.689"/><use xlink:href="#aR" x="10.5" y="144.835"/><use xlink:href="#aS" x="10.5" y="138.19"/><use xlink:href="#aT" x="10.5" y="127.978"/><use xlink:href="#aU" x="10.5" y="121.436"/><use xlink:href="#aV" x="10.5" y="115.181"/><use xlink:href="#aW" x="10.5" y="110.7"/><use xlink:href="#aX" x="10.5" y="107.008"/><use xlink:href="#aY" x="10.5" y="100.635"/><use xlink:href="#aW" x="10.5" y="96.944"/><use xlink:href="#aZ" x="10.5" y="93.253"/><use xlink:href="#ba" x="10.5" y="87.782"/><use xlink:href="#aV" x="10.5" y="83.645"/><use xlink:href="#aR" x="10.5" y="79.164"/><use xlink:href="#bb" x="10.5" y="72.519"/><use xlink:href="#ba" x="10.5" y="67.049"/><use xlink:href="#aR" x="10.5" y="62.911"/><use xlink:href="#aV" x="10.5" y="56.267"/><use xlink:href="#aU" x="10.5" y="51.786"/><use xlink:href="#aZ" x="10.5" y="45.531"/></g></svg>