<svg xmlns="http://www.w3.org/2000/svg" xmlns:xlink="http://www.w3.org/1999/xlink" width="375.12" height="224.88"><defs><clipPath id="a"><path d="M0 0h375v224.879H0Zm0 0"/></clipPath><clipPath id="b"><path d="M49.5 13H51v176h-1.5Zm0 0"/></clipPath><clipPath id="c"><path d="M50 55h2v134h-2Zm0 0"/></clipPath><clipPath id="d"><path d="M51 66h2v123h-2Zm0 0"/></clipPath><clipPath id="e"><path d="M52 74h2v115h-2Zm0 0"/></clipPath><clipPath id="f"><path d="M53 80h3v109h-3Zm0 0"/></clipPath><clipPath id="g"><path d="M54 85h3v104h-3Zm0 0"/></clipPath><clipPath id="h"><path d="M55 89h3v100h-3Zm0 0"/></clipPath><clipPath id="i"><path d="M57 92h2v97h-2Zm0 0"/></clipPath><clipPath id="j"><path d="M58 95h2v94h-2Zm0 0"/></clipPath><clipPath id="k"><path d="M59 98h2v91h-2Zm0 0"/></clipPath><clipPath id="l"><path d="M60 101h2v88h-2Zm0 0"/></clipPath><clipPath id="m"><path d="M61 103h2v86h-2Zm0 0"/></clipPath><clipPath id="n"><path d="M62 106h2v83h-2Zm0 0"/></clipPath><clipPath id="o"><path d="M63 107h2v82h-2Zm0 0"/></clipPath><clipPath id="p"><path d="M64 109h2v80h-2Zm0 0"/></clipPath><clipPath id="q"><path d="M65 111h2v78h-2Zm0 0"/></clipPath><clipPath id="r"><path d="M66 112h2v77h-2Zm0 0"/></clipPath><clipPath id="s"><path d="M67 114h3v75h-3Zm0 0"/></clipPath><clipPath id="t"><path d="M68 116h3v73h-3Zm0 0"/></clipPath><clipPath id="u"><path d="M69 118h3v71h-3Zm0 0"/></clipPath><clipPath id="v"><path d="M70 119h3v70h-3Zm0 0"/></clipPath><clipPath id="w"><path d="M72 121h2v68h-2Zm0 0"/></clipPath><clipPath id="x"><path d="M73 121h2v68h-2Zm0 0"/></clipPath><clipPath id="y"><path d="M74 122h2v67h-2Zm0 0"/></clipPath><clipPath id="z"><path d="M75 124h2v65h-2Zm0 0"/></clipPath><clipPath id="A"><path d="M76 126h2v63h-2Zm0 0"/></clipPath><clipPath id="B"><path d="M77 128h2v61h-2Zm0 0"/></clipPath><clipPath id="C"><path d="M78 128h2v61h-2Zm0 0"/></clipPath><clipPath id="D"><path d="M79 128h2v61h-2Zm0 0"/></clipPath><clipPath id="E"><path d="M80 130h2v59h-2Zm0 0"/></clipPath><clipPath id="F"><path d="M81 130h2v59h-2Zm0 0"/></clipPath><clipPath id="G"><path d="M82 130h3v59h-3Zm0 0"/></clipPath><clipPath id="H"><path d="M83 132h3v57h-3Zm0 0"/></clipPath><clipPath id="I"><path d="M84 135h3v54h-3Zm0 0"/></clipPath><clipPath id="J"><path d="M85 135h3v54h-3Zm0 0"/></clipPath><clipPath id="K"><path d="M87 135h2v54h-2Zm0 0"/></clipPath><clipPath id="L"><path d="M88 138h2v51h-2Zm0 0"/></clipPath><clipPath id="M"><path d="M89 138h2v51h-2Zm0 0"/></clipPath><clipPath id="N"><path d="M90 138h2v51h-2Zm0 0"/></clipPath><clipPath id="O"><path d="M91 138h2v51h-2Zm0 0"/></clipPath><clipPath id="P"><path d="M92 140h2v49h-2Zm0 0"/></clipPath><clipPath id="Q"><path d="M93 139h2v50h-2Zm0 0"/></clipPath><clipPath id="R"><path d="M94 140h2v49h-2Zm0 0"/></clipPath><clipPath id="S"><path d="M95 142h2v47h-2Zm0 0"/></clipPath><clipPath id="T"><path d="M96 139h2v50h-2Zm0 0"/></clipPath><clipPath id="U"><path d="M97 140h3v49h-3Zm0 0"/></clipPath><clipPath id="V"><path d="M98 140h3v49h-3Zm0 0"/></clipPath><clipPath id="W"><path d="M99 141h3v48h-3Zm0 0"/></clipPath><clipPath id="X"><path d="M100 144h3v45h-3Zm0 0"/></clipPath><clipPath id="Y"><path d="M102 143h2v46h-2Zm0 0"/></clipPath><clipPath id="Z"><path d="M103 143h2v46h-2Zm0 0"/></clipPath><clipPath id="aa"><path d="M104 144h2v45h-2Zm0 0"/></clipPath><clipPath id="ab"><path d="M105 143h2v46h-2Zm0 0"/></clipPath><clipPath id="ac"><path d="M106 151h2v38h-2Zm0 0"/></clipPath><clipPath id="ad"><path d="M107 144h2v45h-2Zm0 0"/></clipPath><clipPath id="ae"><path d="M108 150h2v39h-2Zm0 0"/></clipPath><clipPath id="af"><path d="M109 146h2v43h-2Zm0 0"/></clipPath><clipPath id="ag"><path d="M110 146h2v43h-2Zm0 0"/></clipPath><clipPath id="ah"><path d="M111 149h2v40h-2Zm0 0"/></clipPath><clipPath id="ai"><path d="M112 152h3v37h-3Zm0 0"/></clipPath><clipPath id="aj"><path d="M113 154h3v35h-3Zm0 0"/></clipPath><clipPath id="ak"><path d="M114 147h3v42h-3Zm0 0"/></clipPath><clipPath id="al"><path d="M115 155h3v34h-3Zm0 0"/></clipPath><clipPath id="am"><path d="M117 155h2v34h-2Zm0 0"/></clipPath><clipPath id="an"><path d="M118 154h2v35h-2Zm0 0"/></clipPath><clipPath id="ao"><path d="M119 155h2v34h-2Zm0 0"/></clipPath><clipPath id="ap"><path d="M120 155h2v34h-2Zm0 0"/></clipPath><clipPath id="aq"><path d="M121 159h2v30h-2Zm0 0"/></clipPath><clipPath id="ar"><path d="M122 156h2v33h-2Zm0 0"/></clipPath><clipPath id="as"><path d="M123 155h2v34h-2Zm0 0"/></clipPath><clipPath id="at"><path d="M124 161h2v28h-2Zm0 0"/></clipPath><clipPath id="au"><path d="M125 161h2v28h-2Zm0 0"/></clipPath><clipPath id="av"><path d="M126 156h2v33h-2Zm0 0"/></clipPath><clipPath id="aw"><path d="M127 163h3v26h-3Zm0 0"/></clipPath><clipPath id="ax"><path d="M128 155h3v34h-3Zm0 0"/></clipPath><clipPath id="ay"><path d="M129 155h3v34h-3Zm0 0"/></clipPath><clipPath id="az"><path d="M130 165h3v24h-3Zm0 0"/></clipPath><clipPath id="aA"><path d="M132 156h2v33h-2Zm0 0"/></clipPath><clipPath id="aB"><path d="M133 169h2v20h-2Zm0 0"/></clipPath><clipPath id="aC"><path d="M134 167h2v22h-2Zm0 0"/></clipPath><clipPath id="aD"><path d="M135 163h2v26h-2Zm0 0"/></clipPath><clipPath id="aE"><path d="M136 169h2v20h-2Zm0 0"/></clipPath><clipPath id="aF"><path d="M137 169h2v20h-2Zm0 0"/></clipPath><clipPath id="aG"><path d="M138 167h2v22h-2Zm0 0"/></clipPath><clipPath id="aH"><path d="M139 165h2v24h-2Zm0 0"/></clipPath><clipPath id="aI"><path d="M140 162h2v27h-2Zm0 0"/></clipPath><clipPath id="aJ"><path d="M141 173h2v16h-2Zm0 0"/></clipPath><clipPath id="aK"><path d="M142 165h3v24h-3Zm0 0"/></clipPath><clipPath id="aL"><path d="M143 167h3v22h-3Zm0 0"/></clipPath><clipPath id="aM"><path d="M144 165h3v24h-3Zm0 0"/></clipPath><clipPath id="aN"><path d="M145 169h3v20h-3Zm0 0"/></clipPath><clipPath id="aO"><path d="M147 169h2v20h-2Zm0 0"/></clipPath><clipPath id="aP"><path d="M148 163h2v26h-2Zm0 0"/></clipPath><clipPath id="aQ"><path d="M149 161h2v28h-2Zm0 0"/></clipPath><clipPath id="aR"><path d="M150 169h2v20h-2Zm0 0"/></clipPath><clipPath id="aS"><path d="M154 173h2v16h-2Zm0 0"/></clipPath><clipPath id="aT"><path d="M155 179h2v10h-2Zm0 0"/></clipPath><clipPath id="aU"><path d="M156 167h2v22h-2Zm0 0"/></clipPath><clipPath id="aV"><path d="M158 167h3v22h-3Zm0 0"/></clipPath><clipPath id="aW"><path d="M159 162h3v27h-3Zm0 0"/></clipPath><clipPath id="aX"><path d="M160 179h3v10h-3Zm0 0"/></clipPath><clipPath id="aY"><path d="M162 163h2v26h-2Zm0 0"/></clipPath><clipPath id="aZ"><path d="M163 173h2v16h-2Zm0 0"/></clipPath><clipPath id="ba"><path d="M165 173h2v16h-2Zm0 0"/></clipPath><clipPath id="bb"><path d="M166 179h2v10h-2Zm0 0"/></clipPath><clipPath id="bc"><path d="M167 169h2v20h-2Zm0 0"/></clipPath><clipPath id="bd"><path d="M168 173h2v16h-2Zm0 0"/></clipPath><clipPath id="be"><path d="M169 173h2v16h-2Zm0 0"/></clipPath><clipPath id="bf"><path d="M170 173h2v16h-2Zm0 0"/></clipPath><clipPath id="bg"><path d="M171 169h2v20h-2Zm0 0"/></clipPath><clipPath id="bh"><path d="M172 173h3v16h-3Zm0 0"/></clipPath><clipPath id="bi"><path d="M174 179h3v10h-3Zm0 0"/></clipPath><clipPath id="bj"><path d="M178 179h2v10h-2Zm0 0"/></clipPath><clipPath id="bk"><path d="M183 167h2v22h-2Zm0 0"/></clipPath><clipPath id="bl"><path d="M185 179h2v10h-2Zm0 0"/></clipPath><clipPath id="bm"><path d="M193 179h2v10h-2Zm0 0"/></clipPath><clipPath id="bn"><path d="M194 173h2v16h-2Zm0 0"/></clipPath><clipPath id="bo"><path d="M196 179h2v10h-2Zm0 0"/></clipPath><clipPath id="bp"><path d="M365 173h2v16h-2Zm0 0"/></clipPath><clipPath id="bq"><path d="M368 179h3v10h-3Zm0 0"/></clipPath><clipPath id="br"><path d="M369 179h2.25v10H369Zm0 0"/></clipPath><path id="bs" d="M5.125-3.281q-.001 1.769-.547 2.594C4.211-.133 3.641.14 2.86.14Q1.687.142 1.141-.687.608-1.531.609-3.266q-.002-1.746.547-2.578.545-.827 1.703-.828 1.186 0 1.72.844c.362.562.546 1.414.546 2.547m-1.156 2c.101-.239.172-.516.203-.828q.06-.48.062-1.172a10 10 0 0 0-.062-1.14 2.7 2.7 0 0 0-.203-.845 1.2 1.2 0 0 0-.422-.515c-.18-.114-.406-.172-.688-.172a1.3 1.3 0 0 0-.687.172q-.27.176-.422.515a3 3 0 0 0-.203.86 13 13 0 0 0-.047 1.14q0 .69.047 1.157.046.455.203.812.14.344.406.531c.176.118.41.172.703.172.282 0 .508-.054.688-.172q.28-.17.422-.515m0 0"/><path id="bt" d="M4.766 0H1.219v-.672h1.36v-4.375h-1.36v-.61q.28 0 .593-.046a1.8 1.8 0 0 0 .485-.125.8.8 0 0 0 .312-.281.85.85 0 0 0 .141-.453h.672v5.89h1.344Zm0 0"/><path id="bu" d="M5.14 0H.704v-.922c.313-.258.617-.52.922-.781q.467-.404.875-.797c.563-.54.945-.973 1.156-1.297q.312-.48.313-1.031-.002-.516-.344-.797c-.219-.195-.531-.297-.937-.297q-.392 0-.86.14a3.3 3.3 0 0 0-.906.438H.875v-.922a4.3 4.3 0 0 1 .828-.28q.514-.142 1.016-.141.998 0 1.562.5.576.486.578 1.312 0 .375-.093.703-.095.316-.282.61-.174.269-.406.53-.22.27-.547.579a27 27 0 0 1-.984.906c-.336.281-.64.547-.922.797h3.516Zm0 0"/><path id="bv" d="M4.563-3.156c.132.125.25.289.343.484q.14.283.14.735 0 .454-.171.828A2.06 2.06 0 0 1 3.641 0q-.44.14-.97.14-.55 0-1.077-.141a4.6 4.6 0 0 1-.86-.281v-.922h.063q.373.252.875.422.516.157.984.156c.188 0 .383-.031.594-.094q.311-.091.5-.265.201-.2.297-.422c.07-.157.11-.352.11-.594q-.001-.357-.126-.578a1 1 0 0 0-.297-.375 1.4 1.4 0 0 0-.484-.172 3 3 0 0 0-.61-.062h-.39v-.735h.297q.668.002 1.062-.265c.27-.188.407-.461.407-.829a.77.77 0 0 0-.11-.406.75.75 0 0 0-.265-.297 1.5 1.5 0 0 0-.407-.156 2.3 2.3 0 0 0-.484-.047c-.281 0-.578.055-.89.156q-.47.141-.891.422H.922v-.922a4.3 4.3 0 0 1 .828-.28q.528-.142 1.016-.141.48 0 .843.093.358.095.657.282.31.222.468.515.171.3.172.688c0 .367-.133.683-.39.953a1.64 1.64 0 0 1-.907.515v.063q.216.034.485.156.28.112.468.266m0 0"/><path id="bw" d="M5.281-1.844h-.968V0h-.844v-1.844H.344v-1.015L3.5-6.547h.813v4h.968ZM3.47-2.547V-5.5L.938-2.547Zm0 0"/><path id="bx" d="M5.078-2.078c0 .305-.058.594-.172.875a1.9 1.9 0 0 1-.453.703q-.315.315-.75.484a3.1 3.1 0 0 1-1.015.157Q2.154.14 1.656.016A4 4 0 0 1 .828-.25v-.922h.063c.238.156.515.29.828.39q.482.158.953.157c.207 0 .41-.023.61-.078.195-.063.366-.164.515-.313a1.1 1.1 0 0 0 .297-.453q.093-.264.093-.61a1.24 1.24 0 0 0-.125-.577.95.95 0 0 0-.312-.375 1.45 1.45 0 0 0-.547-.219 3.3 3.3 0 0 0-.734-.078q-.393.002-.75.062-.364.048-.61.094v-3.375h3.938v.766H1.953v1.75q.188-.014.375-.016.2-.014.36-.016.528 0 .921.094c.27.055.516.156.735.313q.358.236.547.625.187.377.187.953m0 0"/><path id="by" d="M5.266 0H4.172L2.203-2.156l-.531.515V0H.844v-6.844h.828v4.39l2.39-2.452H5.11L2.83-2.641Zm0 0"/><path id="bz" d="M6.703 0h-.86v-5.64L4.017-1.798H3.5L1.688-5.64V0H.875v-6.547h1.188l1.75 3.64L5.5-6.546h1.203Zm0 0"/><path id="bA" d="M2.828 2.016h-.89v-10h.89Zm0 0"/><path id="bB" d="M5.906-6.734h-3.86v2.156H5.36v.906H2.047V0H1.03v-7.64h4.875Zm0 0"/><path id="bC" d="M5.828-2.86Q5.826-1.464 5.11-.655q-.72.813-1.921.812-1.221 0-1.938-.812-.703-.81-.703-2.203 0-1.405.703-2.22c.477-.538 1.125-.812 1.938-.812.8 0 1.44.274 1.921.813.477.543.72 1.281.72 2.219m-1 0q-.002-1.106-.437-1.656-.424-.545-1.203-.546-.786 0-1.22.546-.437.55-.437 1.657 0 1.077.438 1.64.433.549 1.219.547.762.002 1.203-.547.435-.563.437-1.64m0 0"/><path id="bD" d="M4.516-4.672h-.047a2.6 2.6 0 0 0-.422-.078 8 8 0 0 0-.469-.016q-.456.002-.875.204-.41.188-.797.5V0H.953v-5.734h.953v.859q.575-.468 1.016-.656.434-.201.89-.203.264.002.376.015.106.018.328.047Zm0 0"/><path id="bE" d="M5.188-.36a6 6 0 0 1-.922.36 3.7 3.7 0 0 1-2.062-.047 2.25 2.25 0 0 1-.876-.562 2.5 2.5 0 0 1-.594-.922Q.531-2.107.531-2.86q-.001-1.407.766-2.203.78-.797 2.047-.797.499 0 .969.14.466.14.875.328v1.079h-.063a3.8 3.8 0 0 0-.906-.532 2.4 2.4 0 0 0-.907-.187q-.832 0-1.312.562-.469.55-.469 1.61 0 1.047.469 1.609.469.549 1.313.547.28.001.578-.078.311-.075.547-.203.216-.106.406-.22.187-.123.281-.218h.063Zm0 0"/><path id="bF" d="M5.75-2.766H1.516q-.001.535.156.922.171.394.453.64.263.253.625.376c.25.086.52.125.813.125q.574 0 1.171-.235.592-.234.844-.468h.047v1.062q-.485.204-1 .344c-.336.094-.687.14-1.062.14Q2.14.143 1.342-.624q-.795-.78-.796-2.203-.001-1.405.766-2.234.761-.828 2.015-.829 1.154 0 1.781.688.64.675.641 1.922ZM4.797-3.5q0-.761-.375-1.172c-.25-.281-.633-.422-1.14-.422-.524 0-.938.157-1.25.469q-.457.457-.516 1.125Zm0 0"/><path id="bG" d="M5.047-1.656q0 .798-.656 1.297c-.43.336-1.016.5-1.766.5-.43 0-.82-.055-1.172-.157a5.4 5.4 0 0 1-.89-.328v-1.078h.046c.313.23.649.414 1.016.547a3.1 3.1 0 0 0 1.078.203q.638.001 1-.203a.72.72 0 0 0 .36-.656q-.002-.328-.204-.516-.187-.168-.75-.297a7 7 0 0 0-.53-.094 6 6 0 0 1-.61-.14Q1.218-2.78.906-3.156.593-3.545.594-4.11q0-.357.14-.672.14-.31.438-.563.294-.234.734-.375.45-.14 1-.14.516.001 1.031.125.529.128.876.297v1.03h-.047a3.8 3.8 0 0 0-.907-.452 3 3 0 0 0-1.03-.188q-.534.002-.892.203c-.242.137-.359.336-.359.594 0 .242.07.418.219.531.144.125.375.227.687.297q.282.066.61.125c.219.043.398.078.547.11q.668.156 1.03.53c.25.25.376.587.376 1m0 0"/><path id="bI" d="M4.016 2.11H2.844A8.2 8.2 0 0 1 1.422-.157c-.336-.82-.5-1.75-.5-2.781 0-1.02.164-1.942.5-2.766a8.5 8.5 0 0 1 1.422-2.281h1.172v.062a6.5 6.5 0 0 0-.797.86q-.376.485-.703 1.14-.301.628-.5 1.39a6.6 6.6 0 0 0-.188 1.595q0 .877.188 1.609.186.736.5 1.39.31.622.703 1.126.405.513.797.875Zm0 0"/><path id="bJ" d="M7.047-7.64 4.266 0h-1.36L.141-7.64h1.078l2.39 6.718L6.016-7.64Zm0 0"/><path id="bK" d="M4.406-7.984.734 1.563h-.89L3.5-7.985Zm0 0"/><path id="bL" d="M7.047 0H5.969l-.766-2.125H1.922L1.156 0H.141l2.656-7.219a1.8 1.8 0 0 1-.735-.625 1.65 1.65 0 0 1-.265-.937q0-.733.516-1.219.515-.499 1.265-.5c.508 0 .938.168 1.281.5q.516.486.516 1.219-.001.516-.266.937-.269.424-.718.625ZM4.609-8.766Q4.607-9.2 4.313-9.5a.98.98 0 0 0-.735-.297c-.293 0-.539.102-.734.297q-.281.3-.281.734 0 .441.28.735.295.298.735.297.451 0 .735-.297.294-.295.296-.735M4.891-3 3.563-6.672 2.234-3Zm0 0"/><path id="bM" d="M3.844-2.937c0 1.03-.172 1.96-.516 2.78A8 8 0 0 1 1.922 2.11H.75v-.046a6.3 6.3 0 0 0 .797-.876A7 7 0 0 0 2.25.063c.207-.438.375-.899.5-1.391a6.5 6.5 0 0 0 .188-1.61q0-.843-.188-1.593a6.8 6.8 0 0 0-1.203-2.532q-.375-.482-.797-.859v-.062h1.172q.902 1.05 1.406 2.28.516 1.238.516 2.766m0 0"/><path id="bN" d="M0-6.844v1.25l-6.828 3.625H0v.938h-7.64v-1.563l6.234-3.312h-6.235v-.938Zm0 0"/><path id="bO" d="M0-5.703v.969h-.64q.393.486.593.937.201.44.203.985.002.908-.547 1.406c-.363.336-.906.5-1.625.5h-3.718v-.969h3.265q.44.002.75-.031.316-.047.532-.188a.76.76 0 0 0 .328-.344q.093-.233.093-.656 0-.357-.187-.797-.2-.45-.5-.843h-4.281v-.97Zm0 0"/><path id="bP" d="M0-9.312v.968h-3.266q-.357.001-.703.031-.34.035-.547.141a.8.8 0 0 0-.343.344c-.07.148-.11.36-.11.64q.002.41.203.813.206.393.516.797.13-.014.281-.016.157-.013.297-.015H0v.968h-3.266q-.374.001-.718.032-.341.035-.547.14a.72.72 0 0 0-.328.344c-.07.148-.11.355-.11.625q.002.392.203.797c.125.262.29.527.485.797H0v.953h-5.734v-.953h.64q-.374-.45-.578-.907a2.2 2.2 0 0 1-.219-.953q.002-.59.25-1a1.6 1.6 0 0 1 .688-.609q-.497-.575-.719-1.062A2.5 2.5 0 0 1-5.89-7.47c0-.625.196-1.086.579-1.39q.563-.452 1.593-.453Zm0 0"/><path id="bQ" d="M-2.906-5.984q.721.002 1.297.203.564.205.953.547.41.362.61.797c.132.292.202.609.202.953Q.155-3 .031-2.625a4 4 0 0 1-.297.719L0-1.844v.89h-7.984v-.952h2.859a4.4 4.4 0 0 1-.547-.86 2.4 2.4 0 0 1-.219-1.03q.001-1.015.782-1.595.784-.592 2.203-.593m.031.984q-1.03.002-1.562.344-.53.344-.532 1.093 0 .424.188.86.175.422.468.797h3.282q.189-.423.265-.703a3.2 3.2 0 0 0 .063-.672q0-.81-.531-1.266-.528-.452-1.641-.453m0 0"/><path id="bR" d="M-2.766-5.75v4.234q.535.001.922-.156.394-.171.64-.453.253-.263.376-.625c.086-.25.125-.52.125-.812q0-.575-.235-1.172-.234-.592-.468-.844v-.047h1.062q.204.485.344 1 .14.502.14 1.063.002 1.422-.765 2.218-.78.798-2.203.797c-.938 0-1.68-.254-2.234-.765q-.828-.762-.829-2.016 0-1.154.688-1.781.675-.64 1.922-.641Zm-.734.953q-.761 0-1.172.375c-.281.25-.422.633-.422 1.14 0 .524.157.938.469 1.25q.457.457 1.125.516Zm0 0"/><path id="bS" d="M-4.672-4.516v.047q-.06.224-.078.422a8 8 0 0 0-.016.469q.002.456.204.875.188.41.5.797H0v.953h-5.734v-.953h.859q-.468-.575-.656-1.016a2.1 2.1 0 0 1-.203-.89q.002-.264.015-.376.018-.106.047-.328Zm0 0"/><path id="bU" d="M-2.86-5.828q1.395.002 2.204.719.813.72.812 1.922 0 1.22-.812 1.937-.81.703-2.203.703-1.405 0-2.22-.703c-.538-.477-.812-1.125-.812-1.937 0-.801.274-1.442.813-1.922.543-.477 1.281-.72 2.219-.72m0 1q-1.106.002-1.656.437-.545.423-.546 1.204 0 .785.546 1.218.55.439 1.657.438 1.077 0 1.64-.438.549-.433.547-1.218.002-.763-.547-1.204-.563-.435-1.64-.437m0 0"/><path id="bV" d="M-7.047-4.031v.047a6 6 0 0 0-.094.422q-.046.252-.046.453 0 .626.28.906c.18.18.509.265.985.265h.188v-1.734h.812v1.703H0V-1h-4.922v.656h-.812V-1h-.188c-.676 0-1.195-.164-1.562-.5q-.546-.515-.547-1.469a5 5 0 0 1 .11-1.062Zm0 0"/><path id="bW" d="M-1.656-5.047q.798 0 1.297.656c.336.43.5 1.016.5 1.766 0 .43-.055.82-.157 1.172q-.151.533-.328.89h-1.078v-.046c.23-.313.414-.649.547-1.016a3.1 3.1 0 0 0 .203-1.078q.001-.638-.203-1a.72.72 0 0 0-.656-.36q-.328.002-.516.204-.168.188-.297.75a7 7 0 0 0-.094.53q-.058.33-.14.61-.201.751-.578 1.063-.389.314-.953.312-.357 0-.672-.14a1.6 1.6 0 0 1-.563-.438 2.3 2.3 0 0 1-.375-.734q-.14-.45-.14-1 .001-.516.125-1.031.128-.529.297-.876h1.03v.047q-.263.377-.452.907a3 3 0 0 0-.188 1.03q.002.534.203.892.206.361.594.359c.242 0 .418-.07.531-.219.125-.144.227-.375.297-.687q.066-.282.125-.61c.043-.219.078-.398.11-.547q.156-.668.53-1.03c.25-.25.587-.376 1-.376m0 0"/><path id="bX" d="M-.047-3.922c.043.18.078.375.11.594q.046.316.046.562 0 .892-.468 1.344c-.313.305-.817.453-1.516.453h-3.047v.657h-.812V-.97h-1.641v-.968h1.64v-1.985h.813v1.985h2.61q.455.001.718-.016a1 1 0 0 0 .469-.14.64.64 0 0 0 .297-.313q.094-.2.094-.61 0-.233-.063-.484a4 4 0 0 0-.125-.375v-.047Zm0 0"/><path id="bY" d="M-.36-5.187q.236.487.36.921.124.44.125.922c0 .406-.059.79-.172 1.14a2.25 2.25 0 0 1-.562.876 2.5 2.5 0 0 1-.922.594q-.576.204-1.328.203-1.407.001-2.203-.766-.797-.78-.797-2.047 0-.499.14-.969.14-.466.328-.875h1.079v.063a3.8 3.8 0 0 0-.532.906 2.4 2.4 0 0 0-.187.907q0 .832.562 1.312.55.47 1.61.469 1.047 0 1.609-.469.549-.468.547-1.312.001-.281-.078-.579a2.3 2.3 0 0 0-.203-.546 6 6 0 0 0-.22-.407 2 2 0 0 0-.218-.281v-.062Zm0 0"/></defs><g clip-path="url(#a)"><path fill="#FFF" d="M0 0h375v225H0Zm0 0"/></g><path fill="#FFF" d="M49.5 3.75h321.75V189H49.5Zm0 0"/><path fill="none" stroke="#EBF0F8" stroke-width=".75" d="M49.5 179.738h321.75M49.5 138.89h321.75M49.5 98.047h321.75M49.5 57.203h321.75M49.5 16.363h321.75"/><g clip-path="url(#b)"><path fill="#636EFA" d="M49.5 13.012h1.281v1935.863H49.5Zm0 0"/></g><g clip-path="url(#c)"><path fill="#636EFA" d="M50.574 55.035h1.281v1893.84h-1.28Zm0 0"/></g><g clip-path="url(#d)"><path fill="#636EFA" d="M51.645 66.406h1.28v1882.469h-1.28Zm0 0"/></g><g clip-path="url(#e)"><path fill="#636EFA" d="M52.719 74.414H54v1874.461h-1.281Zm0 0"/></g><g clip-path="url(#f)"><path fill="#636EFA" d="M53.79 80.527h1.284v1868.348H53.79Zm0 0"/></g><g clip-path="url(#g)"><path fill="#636EFA" d="M54.863 85.344h1.282v1863.531h-1.282Zm0 0"/></g><g clip-path="url(#h)"><path fill="#636EFA" d="M55.926 89.129h1.293v1859.746h-1.293Zm0 0"/></g><g clip-path="url(#i)"><path fill="#636EFA" d="M57 92.61h1.29v1856.265H57Zm0 0"/></g><g clip-path="url(#j)"><path fill="#636EFA" d="M58.074 95.863h1.29v1853.012h-1.29Zm0 0"/></g><g clip-path="url(#k)"><path fill="#636EFA" d="M59.145 98.684h1.289v1850.191h-1.29Zm0 0"/></g><g clip-path="url(#l)"><path fill="#636EFA" d="M60.219 101.488h1.289v1847.387h-1.29Zm0 0"/></g><g clip-path="url(#m)"><path fill="#636EFA" d="M61.29 103.477h1.284v1845.398H61.29Zm0 0"/></g><g clip-path="url(#n)"><path fill="#636EFA" d="M62.363 106.086h1.282v1842.789h-1.282Zm0 0"/></g><g clip-path="url(#o)"><path fill="#636EFA" d="M63.434 107.773h1.285v1841.102h-1.285Zm0 0"/></g><g clip-path="url(#p)"><path fill="#636EFA" d="M64.508 109.914h1.281v1838.961h-1.281Zm0 0"/></g><g clip-path="url(#q)"><path fill="#636EFA" d="M65.578 111.457h1.285v1837.418h-1.285Zm0 0"/></g><g clip-path="url(#r)"><path fill="#636EFA" d="M66.645 112.98h1.289v1835.895h-1.29Zm0 0"/></g><g clip-path="url(#s)"><path fill="#636EFA" d="M67.719 114.023h1.289v1834.852h-1.29Zm0 0"/></g><g clip-path="url(#t)"><path fill="#636EFA" d="M68.79 116.918h1.288v1831.957H68.79Zm0 0"/></g><g clip-path="url(#u)"><path fill="#636EFA" d="M69.863 118.36h1.29v1830.515h-1.29Zm0 0"/></g><g clip-path="url(#v)"><path fill="#636EFA" d="M70.934 119.648h1.293v1829.227h-1.293Zm0 0"/></g><g clip-path="url(#w)"><path fill="#636EFA" d="M72.008 121.297h1.281v1827.578h-1.281Zm0 0"/></g><g clip-path="url(#x)"><path fill="#636EFA" d="M73.078 121.656h1.285v1827.219h-1.285Zm0 0"/></g><g clip-path="url(#y)"><path fill="#636EFA" d="M74.152 122.969h1.282v1825.906h-1.282Zm0 0"/></g><g clip-path="url(#z)"><path fill="#636EFA" d="M75.227 124.8h1.28v1824.075h-1.28Zm0 0"/></g><g clip-path="url(#A)"><path fill="#636EFA" d="M76.297 126.488h1.281v1822.387h-1.281Zm0 0"/></g><g clip-path="url(#B)"><path fill="#636EFA" d="M77.371 128.094h1.281v1820.781h-1.28Zm0 0"/></g><g clip-path="url(#C)"><path fill="#636EFA" d="M78.434 128.664h1.293v1820.211h-1.293Zm0 0"/></g><g clip-path="url(#D)"><path fill="#636EFA" d="M79.508 128.387h1.289v1820.488h-1.29Zm0 0"/></g><g clip-path="url(#E)"><path fill="#636EFA" d="M80.578 130.02h1.293v1818.855h-1.293Zm0 0"/></g><g clip-path="url(#F)"><path fill="#636EFA" d="M81.652 130.418h1.29v1818.457h-1.29Zm0 0"/></g><g clip-path="url(#G)"><path fill="#636EFA" d="M82.727 130.59h1.289v1818.285h-1.29Zm0 0"/></g><g clip-path="url(#H)"><path fill="#636EFA" d="M83.797 132.66h1.281v1816.215h-1.281Zm0 0"/></g><g clip-path="url(#I)"><path fill="#636EFA" d="M84.871 135.36h1.281v1813.515h-1.28Zm0 0"/></g><g clip-path="url(#J)"><path fill="#636EFA" d="M85.941 135.238h1.286v1813.637H85.94Zm0 0"/></g><g clip-path="url(#K)"><path fill="#636EFA" d="M87.016 135.3h1.28v1813.575h-1.28Zm0 0"/></g><g clip-path="url(#L)"><path fill="#636EFA" d="M88.086 138.129h1.285v1810.746h-1.285Zm0 0"/></g><g clip-path="url(#M)"><path fill="#636EFA" d="M89.152 138.547h1.29v1810.328h-1.29Zm0 0"/></g><g clip-path="url(#N)"><path fill="#636EFA" d="M90.227 138.293h1.289v1810.582h-1.29Zm0 0"/></g><g clip-path="url(#O)"><path fill="#636EFA" d="M91.297 138.375h1.289v1810.5h-1.29Zm0 0"/></g><g clip-path="url(#P)"><path fill="#636EFA" d="M92.371 140.234h1.29v1808.641h-1.29Zm0 0"/></g><g clip-path="url(#Q)"><path fill="#636EFA" d="M93.441 139.54h1.293v1809.335h-1.293Zm0 0"/></g><g clip-path="url(#R)"><path fill="#636EFA" d="M94.516 140.332h1.28v1808.543h-1.28Zm0 0"/></g><g clip-path="url(#S)"><path fill="#636EFA" d="M95.586 142.45h1.285v1806.425h-1.285Zm0 0"/></g><g clip-path="url(#T)"><path fill="#636EFA" d="M96.66 139.074h1.281v1809.801h-1.28Zm0 0"/></g><g clip-path="url(#U)"><path fill="#636EFA" d="M97.734 140.871h1.282v1808.004h-1.282Zm0 0"/></g><g clip-path="url(#V)"><path fill="#636EFA" d="M98.805 140.023h1.28v1808.852h-1.28Zm0 0"/></g><g clip-path="url(#W)"><path fill="#636EFA" d="M99.879 141.809h1.281v1807.066h-1.28Zm0 0"/></g><g clip-path="url(#X)"><path fill="#636EFA" d="M100.941 144.195h1.293v1804.68h-1.293Zm0 0"/></g><g clip-path="url(#Y)"><path fill="#636EFA" d="M102.016 143.129h1.289v1805.746h-1.29Zm0 0"/></g><g clip-path="url(#Z)"><path fill="#636EFA" d="M103.086 143.129h1.293v1805.746h-1.293Zm0 0"/></g><g clip-path="url(#aa)"><path fill="#636EFA" d="M104.16 144.863h1.29v1804.012h-1.29Zm0 0"/></g><g clip-path="url(#ab)"><path fill="#636EFA" d="M105.234 143.422h1.29v1805.453h-1.29Zm0 0"/></g><g clip-path="url(#ac)"><path fill="#636EFA" d="M106.305 151.55h1.28v1797.325h-1.28Zm0 0"/></g><g clip-path="url(#ad)"><path fill="#636EFA" d="M107.379 144.36h1.281v1804.515h-1.281Zm0 0"/></g><g clip-path="url(#ae)"><path fill="#636EFA" d="M108.45 150.18h1.284v1798.695h-1.285Zm0 0"/></g><g clip-path="url(#af)"><path fill="#636EFA" d="M109.523 146.805h1.282v1802.07h-1.282Zm0 0"/></g><g clip-path="url(#ag)"><path fill="#636EFA" d="M110.594 146.805h1.285v1802.07h-1.285Zm0 0"/></g><g clip-path="url(#ah)"><path fill="#636EFA" d="M111.66 149.574h1.29v1799.301h-1.29Zm0 0"/></g><g clip-path="url(#ai)"><path fill="#636EFA" d="M112.734 152.324h1.29v1796.551h-1.29Zm0 0"/></g><g clip-path="url(#aj)"><path fill="#636EFA" d="M113.805 154.102h1.289v1794.773h-1.29Zm0 0"/></g><g clip-path="url(#ak)"><path fill="#636EFA" d="M114.879 147.246h1.289v1801.629h-1.29Zm0 0"/></g><g clip-path="url(#al)"><path fill="#636EFA" d="M115.95 155.145h1.288v1793.73h-1.289Zm0 0"/></g><g clip-path="url(#am)"><path fill="#636EFA" d="M117.023 155.723h1.282v1793.152h-1.282Zm0 0"/></g><g clip-path="url(#an)"><path fill="#636EFA" d="M118.094 154.102h1.285v1794.773h-1.285Zm0 0"/></g><g clip-path="url(#ao)"><path fill="#636EFA" d="M119.168 155.723h1.281v1793.152h-1.281Zm0 0"/></g><g clip-path="url(#ap)"><path fill="#636EFA" d="M120.238 155.723h1.285v1793.152h-1.285Zm0 0"/></g><g clip-path="url(#aq)"><path fill="#636EFA" d="M121.313 159.316h1.28v1789.559h-1.28Zm0 0"/></g><g clip-path="url(#ar)"><path fill="#636EFA" d="M122.387 156.328h1.281v1792.547h-1.281Zm0 0"/></g><g clip-path="url(#as)"><path fill="#636EFA" d="M123.45 155.145h1.288v1793.73h-1.289Zm0 0"/></g><g clip-path="url(#at)"><path fill="#636EFA" d="M124.523 161.297h1.29v1787.578h-1.29Zm0 0"/></g><g clip-path="url(#au)"><path fill="#636EFA" d="M125.594 161.297h1.293v1787.578h-1.293Zm0 0"/></g><g clip-path="url(#av)"><path fill="#636EFA" d="M126.668 156.328h1.289v1792.547h-1.289Zm0 0"/></g><g clip-path="url(#aw)"><path fill="#636EFA" d="M127.738 163.844h1.293v1785.031h-1.293Zm0 0"/></g><g clip-path="url(#ax)"><path fill="#636EFA" d="M128.813 155.145h1.28v1793.73h-1.28Zm0 0"/></g><g clip-path="url(#ay)"><path fill="#636EFA" d="M129.887 155.723h1.281v1793.152h-1.281Zm0 0"/></g><g clip-path="url(#az)"><path fill="#636EFA" d="M130.957 165.465h1.281v1783.41h-1.281Zm0 0"/></g><g clip-path="url(#aA)"><path fill="#636EFA" d="M132.031 156.988h1.281v1791.887h-1.28Zm0 0"/></g><g clip-path="url(#aB)"><path fill="#636EFA" d="M133.102 169.996h1.285v1778.879h-1.285Zm0 0"/></g><g clip-path="url(#aC)"><path fill="#636EFA" d="M134.168 167.445h1.289v1781.43h-1.289Zm0 0"/></g><g clip-path="url(#aD)"><path fill="#636EFA" d="M135.238 163.844h1.293v1785.031h-1.293Zm0 0"/></g><g clip-path="url(#aE)"><path fill="#636EFA" d="M136.313 169.996h1.289v1778.879h-1.29Zm0 0"/></g><g clip-path="url(#aF)"><path fill="#636EFA" d="M137.387 169.996h1.289v1778.879h-1.29Zm0 0"/></g><g clip-path="url(#aG)"><path fill="#636EFA" d="M138.457 167.445h1.29v1781.43h-1.29Zm0 0"/></g><g clip-path="url(#aH)"><path fill="#636EFA" d="M139.531 165.465h1.281v1783.41h-1.28Zm0 0"/></g><g clip-path="url(#aI)"><path fill="#636EFA" d="M140.602 162.48h1.285v1786.395h-1.285Zm0 0"/></g><g clip-path="url(#aJ)"><path fill="#636EFA" d="M141.676 173.586h1.281v1775.289h-1.281Zm0 0"/></g><g clip-path="url(#aK)"><path fill="#636EFA" d="M142.746 165.465h1.285v1783.41h-1.285Zm0 0"/></g><g clip-path="url(#aL)"><path fill="#636EFA" d="M143.82 167.445h1.282v1781.43h-1.282Zm0 0"/></g><g clip-path="url(#aM)"><path fill="#636EFA" d="M144.89 165.465h1.286v1783.41h-1.285Zm0 0"/></g><g clip-path="url(#aN)"><path fill="#636EFA" d="M145.957 169.996h1.29v1778.879h-1.29Zm0 0"/></g><g clip-path="url(#aO)"><path fill="#636EFA" d="M147.031 169.996h1.29v1778.879h-1.29Zm0 0"/></g><g clip-path="url(#aP)"><path fill="#636EFA" d="M148.102 163.844h1.289v1785.031h-1.29Zm0 0"/></g><g clip-path="url(#aQ)"><path fill="#636EFA" d="M149.176 161.297h1.289v1787.578h-1.29Zm0 0"/></g><g clip-path="url(#aR)"><path fill="#636EFA" d="M150.246 169.996h1.293v1778.879h-1.293Zm0 0"/></g><g clip-path="url(#aS)"><path fill="#636EFA" d="M154.54 173.586h1.28v1775.289h-1.28Zm0 0"/></g><g clip-path="url(#aT)"><path fill="#636EFA" d="M155.61 179.738h1.28v1769.137h-1.28Zm0 0"/></g><g clip-path="url(#aU)"><path fill="#636EFA" d="M156.676 167.445h1.289v1781.43h-1.29Zm0 0"/></g><g clip-path="url(#aV)"><path fill="#636EFA" d="M158.82 167.445h1.29v1781.43h-1.29Zm0 0"/></g><g clip-path="url(#aW)"><path fill="#636EFA" d="M159.89 162.48h1.294v1786.395h-1.293Zm0 0"/></g><g clip-path="url(#aX)"><path fill="#636EFA" d="M160.965 179.738h1.289v1769.137h-1.29Zm0 0"/></g><g clip-path="url(#aY)"><path fill="#636EFA" d="M162.04 163.844h1.28v1785.031h-1.28Zm0 0"/></g><g clip-path="url(#aZ)"><path fill="#636EFA" d="M163.11 173.586h1.28v1775.289h-1.28Zm0 0"/></g><g clip-path="url(#ba)"><path fill="#636EFA" d="M165.254 173.586h1.285v1775.289h-1.285Zm0 0"/></g><g clip-path="url(#bb)"><path fill="#636EFA" d="M166.328 179.738h1.281v1769.137h-1.28Zm0 0"/></g><g clip-path="url(#bc)"><path fill="#636EFA" d="M167.398 169.996h1.286v1778.879h-1.286Zm0 0"/></g><g clip-path="url(#bd)"><path fill="#636EFA" d="M168.465 173.586h1.289v1775.289h-1.29Zm0 0"/></g><g clip-path="url(#be)"><path fill="#636EFA" d="M169.54 173.586h1.288v1775.289h-1.289Zm0 0"/></g><g clip-path="url(#bf)"><path fill="#636EFA" d="M170.61 173.586h1.288v1775.289h-1.289Zm0 0"/></g><g clip-path="url(#bg)"><path fill="#636EFA" d="M171.684 169.996h1.289v1778.879h-1.29Zm0 0"/></g><g clip-path="url(#bh)"><path fill="#636EFA" d="M172.754 173.586h1.293v1775.289h-1.293Zm0 0"/></g><g clip-path="url(#bi)"><path fill="#636EFA" d="M174.898 179.738h1.286v1769.137h-1.286Zm0 0"/></g><g clip-path="url(#bj)"><path fill="#636EFA" d="M178.117 179.738h1.281v1769.137h-1.28Zm0 0"/></g><g clip-path="url(#bk)"><path fill="#636EFA" d="M183.473 167.445h1.289v1781.43h-1.29Zm0 0"/></g><g clip-path="url(#bl)"><path fill="#636EFA" d="M185.617 179.738h1.281v1769.137h-1.28Zm0 0"/></g><g clip-path="url(#bm)"><path fill="#636EFA" d="M193.117 179.738h1.29v1769.137h-1.29Zm0 0"/></g><g clip-path="url(#bn)"><path fill="#636EFA" d="M194.191 173.586h1.29v1775.289h-1.29Zm0 0"/></g><g clip-path="url(#bo)"><path fill="#636EFA" d="M196.336 179.738h1.281v1769.137h-1.281Zm0 0"/></g><g clip-path="url(#bp)"><path fill="#636EFA" d="M365.676 173.586h1.285v1775.289h-1.285Zm0 0"/></g><g clip-path="url(#bq)"><path fill="#636EFA" d="M368.895 179.738h1.28v1769.137h-1.28Zm0 0"/></g><g clip-path="url(#br)"><path fill="#636EFA" d="M369.969 179.738h1.281v1769.137h-1.281Zm0 0"/></g><path fill="none" stroke="#D3D3D3" stroke-width=".75" d="M48.75 189.375h322.5M49.125 3.75V189"/><use xlink:href="#bs" x="47.284" y="200.55" fill="#2A3F5F"/><g fill="#2A3F5F"><use xlink:href="#bt" x="102.672" y="200.55"/><use xlink:href="#bs" x="108.394" y="200.55"/><use xlink:href="#bs" x="114.116" y="200.55"/></g><g fill="#2A3F5F"><use xlink:href="#bu" x="163.782" y="200.55"/><use xlink:href="#bs" x="169.504" y="200.55"/><use xlink:href="#bs" x="175.226" y="200.55"/></g><g fill="#2A3F5F"><use xlink:href="#bv" x="224.892" y="200.55"/><use xlink:href="#bs" x="230.614" y="200.55"/><use xlink:href="#bs" x="236.336" y="200.55"/></g><g fill="#2A3F5F"><use xlink:href="#bw" x="286.002" y="200.55"/><use xlink:href="#bs" x="291.724" y="200.55"/><use xlink:href="#bs" x="297.446" y="200.55"/></g><g fill="#2A3F5F"><use xlink:href="#bx" x="347.112" y="200.55"/><use xlink:href="#bs" x="352.834" y="200.55"/><use xlink:href="#bs" x="358.556" y="200.55"/></g><use xlink:href="#bt" x="41.228" y="182.887" fill="#2A3F5F"/><g fill="#2A3F5F"><use xlink:href="#bt" x="29.785" y="142.042"/><use xlink:href="#bs" x="35.507" y="142.042"/><use xlink:href="#bs" x="41.228" y="142.042"/></g><g fill="#2A3F5F"><use xlink:href="#bt" x="30.18" y="101.197"/><use xlink:href="#bs" x="35.902" y="101.197"/><use xlink:href="#by" x="41.624" y="101.197"/></g><g fill="#2A3F5F"><use xlink:href="#bt" x="33.643" y="60.352"/><use xlink:href="#bz" x="39.365" y="60.352"/></g><g fill="#2A3F5F"><use xlink:href="#bt" x="22.2" y="19.515"/><use xlink:href="#bs" x="27.922" y="19.515"/><use xlink:href="#bs" x="33.643" y="19.515"/><use xlink:href="#bz" x="39.365" y="19.515"/></g><g fill="#2A3F5F"><use xlink:href="#bA" x="169.262" y="220.655"/><use xlink:href="#bB" x="174.03" y="220.655"/><use xlink:href="#bC" x="180.064" y="220.655"/><use xlink:href="#bD" x="186.437" y="220.655"/><use xlink:href="#bE" x="190.918" y="220.655"/><use xlink:href="#bF" x="196.389" y="220.655"/><use xlink:href="#bG" x="202.644" y="220.655"/><use xlink:href="#bA" x="208.114" y="220.655"/><use xlink:href="#bH" x="212.882" y="220.655"/><use xlink:href="#bI" x="216.573" y="220.655"/><use xlink:href="#bF" x="221.342" y="220.655"/><use xlink:href="#bJ" x="227.596" y="220.655"/><use xlink:href="#bK" x="234.774" y="220.655"/><use xlink:href="#bL" x="239.542" y="220.655"/><use xlink:href="#bM" x="246.72" y="220.655"/></g><g fill="#2A3F5F"><use xlink:href="#bN" x="10.5" y="152.689"/><use xlink:href="#bO" x="10.5" y="144.835"/><use xlink:href="#bP" x="10.5" y="138.19"/><use xlink:href="#bQ" x="10.5" y="127.978"/><use xlink:href="#bR" x="10.5" y="121.436"/><use xlink:href="#bS" x="10.5" y="115.181"/><use xlink:href="#bT" x="10.5" y="110.7"/><use xlink:href="#bU" x="10.5" y="107.008"/><use xlink:href="#bV" x="10.5" y="100.635"/><use xlink:href="#bT" x="10.5" y="96.944"/><use xlink:href="#bW" x="10.5" y="93.253"/><use xlink:href="#bX" x="10.5" y="87.782"/><use xlink:href="#bS" x="10.5" y="83.645"/><use xlink:href="#bO" x="10.5" y="79.164"/><use xlink:href="#bY" x="10.5" y="72.519"/><use xlink:href="#bX" x="10.5" y="67.049"/><use xlink:href="#bO" x="10.5" y="62.911"/><use xlink:href="#bS" x="10.5" y="56.267"/><use xlink:href="#bR" x="10.5" y="51.786"/><use xlink:href="#bW" x="10.5" y="45.531"/></g></svg>