<svg xmlns="http://www.w3.org/2000/svg" xmlns:xlink="http://www.w3.org/1999/xlink" width="337.92" height="224.88"><defs><clipPath id="a"><path d="M0 0h337.922v224.582H0Zm0 0"/></clipPath><clipPath id="b"><path d="M45.816 181H47v4.523h-1.184Zm0 0"/></clipPath><clipPath id="c"><path d="M46 160h2v25.523h-2Zm0 0"/></clipPath><clipPath id="d"><path d="M47 157h3v28.523h-3Zm0 0"/></clipPath><clipPath id="e"><path d="M49 13h2v172.523h-2Zm0 0"/></clipPath><clipPath id="f"><path d="M50 121h2v64.523h-2Zm0 0"/></clipPath><clipPath id="g"><path d="M51 87h2v98.523h-2Zm0 0"/></clipPath><clipPath id="h"><path d="M52 153h3v32.523h-3Zm0 0"/></clipPath><clipPath id="i"><path d="M54 35h2v150.523h-2Zm0 0"/></clipPath><clipPath id="j"><path d="M55 137h2v48.523h-2Zm0 0"/></clipPath><clipPath id="k"><path d="M56 56h3v129.523h-3Zm0 0"/></clipPath><clipPath id="l"><path d="M58 162h2v23.523h-2Zm0 0"/></clipPath><clipPath id="m"><path d="M59 26h2v159.523h-2Zm0 0"/></clipPath><clipPath id="n"><path d="M60 155h2v30.523h-2Zm0 0"/></clipPath><clipPath id="o"><path d="M61 78h3v107.523h-3Zm0 0"/></clipPath><clipPath id="p"><path d="M63 153h2v32.523h-2Zm0 0"/></clipPath><clipPath id="q"><path d="M64 38h2v147.523h-2Zm0 0"/></clipPath><clipPath id="r"><path d="M65 171h2v14.523h-2Zm0 0"/></clipPath><clipPath id="s"><path d="M66 103h3v82.523h-3Zm0 0"/></clipPath><clipPath id="t"><path d="M68 155h2v30.523h-2Zm0 0"/></clipPath><clipPath id="u"><path d="M69 40h2v145.523h-2Zm0 0"/></clipPath><clipPath id="v"><path d="M70 157h3v28.523h-3Zm0 0"/></clipPath><clipPath id="w"><path d="M72 108h2v77.523h-2Zm0 0"/></clipPath><clipPath id="x"><path d="M73 170h2v15.523h-2Zm0 0"/></clipPath><clipPath id="y"><path d="M74 42h2v143.523h-2Zm0 0"/></clipPath><clipPath id="z"><path d="M75 164h3v21.523h-3Zm0 0"/></clipPath><clipPath id="A"><path d="M77 139h2v46.523h-2Zm0 0"/></clipPath><clipPath id="B"><path d="M78 174h2v11.523h-2Zm0 0"/></clipPath><clipPath id="C"><path d="M79 47h3v138.523h-3Zm0 0"/></clipPath><clipPath id="D"><path d="M81 169h2v16.523h-2Zm0 0"/></clipPath><clipPath id="E"><path d="M82 136h2v49.523h-2Zm0 0"/></clipPath><clipPath id="F"><path d="M83 173h2v12.523h-2Zm0 0"/></clipPath><clipPath id="G"><path d="M84 82h3v103.523h-3Zm0 0"/></clipPath><clipPath id="H"><path d="M86 178h2v7.523h-2Zm0 0"/></clipPath><clipPath id="I"><path d="M87 159h2v26.523h-2Zm0 0"/></clipPath><clipPath id="J"><path d="M88 179h3v6.523h-3Zm0 0"/></clipPath><clipPath id="K"><path d="M90 92h2v93.523h-2Zm0 0"/></clipPath><clipPath id="L"><path d="M91 176h2v9.523h-2Zm0 0"/></clipPath><clipPath id="M"><path d="M92 154h2v31.523h-2Zm0 0"/></clipPath><clipPath id="N"><path d="M93 178h3v7.523h-3Zm0 0"/></clipPath><clipPath id="O"><path d="M95 97h2v88.523h-2Zm0 0"/></clipPath><clipPath id="P"><path d="M96 179h2v6.523h-2Zm0 0"/></clipPath><clipPath id="Q"><path d="M97 153h3v32.523h-3Zm0 0"/></clipPath><clipPath id="R"><path d="M99 179h2v6.523h-2Zm0 0"/></clipPath><clipPath id="S"><path d="M100 133h2v52.523h-2Zm0 0"/></clipPath><clipPath id="T"><path d="M101 178h2v7.523h-2Zm0 0"/></clipPath><clipPath id="U"><path d="M102 162h3v23.523h-3Zm0 0"/></clipPath><clipPath id="V"><path d="M104 183h2v2.523h-2Zm0 0"/></clipPath><clipPath id="W"><path d="M105 128h2v57.523h-2Zm0 0"/></clipPath><clipPath id="X"><path d="M106 181h3v4.523h-3Zm0 0"/></clipPath><clipPath id="Y"><path d="M108 169h2v16.523h-2Zm0 0"/></clipPath><clipPath id="Z"><path d="M109 183h2v2.523h-2Zm0 0"/></clipPath><clipPath id="aa"><path d="M110 146h2v39.523h-2Zm0 0"/></clipPath><clipPath id="ab"><path d="M111 184h3v1.523h-3Zm0 0"/></clipPath><clipPath id="ac"><path d="M113 166h2v19.523h-2Zm0 0"/></clipPath><clipPath id="ad"><path d="M114 183h2v2.523h-2Zm0 0"/></clipPath><clipPath id="ae"><path d="M115 136h3v49.523h-3Zm0 0"/></clipPath><clipPath id="af"><path d="M117 183h2v2.523h-2Zm0 0"/></clipPath><clipPath id="ag"><path d="M118 176h2v9.523h-2Zm0 0"/></clipPath><clipPath id="ah"><path d="M119 183h2v2.523h-2Zm0 0"/></clipPath><clipPath id="ai"><path d="M120 154h3v31.523h-3Zm0 0"/></clipPath><clipPath id="aj"><path d="M122 184h2v1.523h-2Zm0 0"/></clipPath><clipPath id="ak"><path d="M123 176h2v9.523h-2Zm0 0"/></clipPath><clipPath id="al"><path d="M124 181h3v4.523h-3Zm0 0"/></clipPath><clipPath id="am"><path d="M126 137h2v48.523h-2Zm0 0"/></clipPath><clipPath id="an"><path d="M127 183h2v2.523h-2Zm0 0"/></clipPath><clipPath id="ao"><path d="M128 178h2v7.523h-2Zm0 0"/></clipPath><clipPath id="ap"><path d="M129 184h3v1.523h-3Zm0 0"/></clipPath><clipPath id="aq"><path d="M131 162h2v23.523h-2Zm0 0"/></clipPath><clipPath id="ar"><path d="M132 184h2v1.523h-2Zm0 0"/></clipPath><clipPath id="as"><path d="M133 177h3v8.523h-3Zm0 0"/></clipPath><clipPath id="at"><path d="M135 184h2v1.523h-2Zm0 0"/></clipPath><clipPath id="au"><path d="M136 154h2v31.523h-2Zm0 0"/></clipPath><clipPath id="av"><path d="M137 184h2v1.523h-2Zm0 0"/></clipPath><clipPath id="aw"><path d="M138 181h3v4.523h-3Zm0 0"/></clipPath><clipPath id="ax"><path d="M140 184h2v1.523h-2Zm0 0"/></clipPath><clipPath id="ay"><path d="M141 168h2v17.523h-2Zm0 0"/></clipPath><clipPath id="az"><path d="M142 183h2v2.523h-2Zm0 0"/></clipPath><clipPath id="aA"><path d="M143 178h3v7.523h-3Zm0 0"/></clipPath><clipPath id="aB"><path d="M145 183h2v2.523h-2Zm0 0"/></clipPath><clipPath id="aC"><path d="M146 150h2v35.523h-2Zm0 0"/></clipPath><clipPath id="aD"><path d="M147 184h3v1.523h-3Zm0 0"/></clipPath><clipPath id="aE"><path d="M149 181h2v4.523h-2Zm0 0"/></clipPath><clipPath id="aF"><path d="M150 183h2v2.523h-2Zm0 0"/></clipPath><clipPath id="aG"><path d="M151 169h2v16.523h-2Zm0 0"/></clipPath><clipPath id="aH"><path d="M152 185h3v.523h-3Zm0 0"/></clipPath><clipPath id="aI"><path d="M154 180h2v5.523h-2Zm0 0"/></clipPath><clipPath id="aJ"><path d="M155 184h2v1.523h-2Zm0 0"/></clipPath><clipPath id="aK"><path d="M156 169h3v16.523h-3Zm0 0"/></clipPath><clipPath id="aL"><path d="M158 185h2v.523h-2Zm0 0"/></clipPath><clipPath id="aM"><path d="M159 179h2v6.523h-2Zm0 0"/></clipPath><clipPath id="aN"><path d="M160 185h2v.523h-2Zm0 0"/></clipPath><clipPath id="aO"><path d="M161 176h3v9.523h-3Zm0 0"/></clipPath><clipPath id="aP"><path d="M163 184h2v1.523h-2Zm0 0"/></clipPath><clipPath id="aQ"><path d="M164 182h2v3.523h-2Zm0 0"/></clipPath><clipPath id="aR"><path d="M165 184h3v1.523h-3Zm0 0"/></clipPath><clipPath id="aS"><path d="M167 171h2v14.523h-2Zm0 0"/></clipPath><clipPath id="aT"><path d="M168 184h2v1.523h-2Zm0 0"/></clipPath><clipPath id="aU"><path d="M169 183h2v2.523h-2Zm0 0"/></clipPath><clipPath id="aV"><path d="M170 185h3v.523h-3Zm0 0"/></clipPath><clipPath id="aW"><path d="M172 168h2v17.523h-2Zm0 0"/></clipPath><clipPath id="aX"><path d="M173 185h2v.523h-2Zm0 0"/></clipPath><clipPath id="aY"><path d="M174 182h3v3.523h-3Zm0 0"/></clipPath><clipPath id="aZ"><path d="M176 185h2v.523h-2Zm0 0"/></clipPath><clipPath id="ba"><path d="M177 177h2v8.523h-2Zm0 0"/></clipPath><clipPath id="bb"><path d="M178 182h2v3.523h-2Zm0 0"/></clipPath><clipPath id="bc"><path d="M179 182h3v3.523h-3Zm0 0"/></clipPath><clipPath id="bd"><path d="M181 185h2v.523h-2Zm0 0"/></clipPath><clipPath id="be"><path d="M182 178h2v7.523h-2Zm0 0"/></clipPath><clipPath id="bf"><path d="M183 185h3v.523h-3Zm0 0"/></clipPath><clipPath id="bg"><path d="M185 184h2v1.523h-2Zm0 0"/></clipPath><clipPath id="bh"><path d="M186 185h2v.523h-2Zm0 0"/></clipPath><clipPath id="bi"><path d="M187 177h2v8.523h-2Zm0 0"/></clipPath><clipPath id="bj"><path d="M188 185h3v.523h-3Zm0 0"/></clipPath><clipPath id="bk"><path d="M190 184h2v1.523h-2Zm0 0"/></clipPath><clipPath id="bl"><path d="M191 185h2v.523h-2Zm0 0"/></clipPath><clipPath id="bm"><path d="M192 181h3v4.523h-3Zm0 0"/></clipPath><clipPath id="bn"><path d="M194 185h2v.523h-2Zm0 0"/></clipPath><clipPath id="bo"><path d="M195 184h2v1.523h-2Zm0 0"/></clipPath><clipPath id="bp"><path d="M196 185h2v.523h-2Zm0 0"/></clipPath><clipPath id="bq"><path d="M197 180h3v5.523h-3Zm0 0"/></clipPath><clipPath id="br"><path d="M199 185h2v.523h-2Zm0 0"/></clipPath><clipPath id="bs"><path d="M200 185h2v.523h-2Zm0 0"/></clipPath><clipPath id="bt"><path d="M201 185h3v.523h-3Zm0 0"/></clipPath><clipPath id="bu"><path d="M203 183h2v2.523h-2Zm0 0"/></clipPath><clipPath id="bv"><path d="M204 185h2v.523h-2Zm0 0"/></clipPath><clipPath id="bw"><path d="M205 184h2v1.523h-2Zm0 0"/></clipPath><clipPath id="bx"><path d="M206 185h3v.523h-3Zm0 0"/></clipPath><clipPath id="by"><path d="M208 181h2v4.523h-2Zm0 0"/></clipPath><clipPath id="bz"><path d="M209 185h2v.523h-2Zm0 0"/></clipPath><clipPath id="bA"><path d="M210 185h3v.523h-3Zm0 0"/></clipPath><clipPath id="bB"><path d="M213 183h2v2.523h-2Zm0 0"/></clipPath><clipPath id="bC"><path d="M214 185h2v.523h-2Zm0 0"/></clipPath><clipPath id="bD"><path d="M215 185h3v.523h-3Zm0 0"/></clipPath><clipPath id="bE"><path d="M217 185h2v.523h-2Zm0 0"/></clipPath><clipPath id="bF"><path d="M218 182h2v3.523h-2Zm0 0"/></clipPath><clipPath id="bG"><path d="M220 184h3v1.523h-3Zm0 0"/></clipPath><clipPath id="bH"><path d="M222 185h2v.523h-2Zm0 0"/></clipPath><clipPath id="bI"><path d="M223 183h2v2.523h-2Zm0 0"/></clipPath><clipPath id="bJ"><path d="M226 185h2v.523h-2Zm0 0"/></clipPath><clipPath id="bK"><path d="M227 185h2v.523h-2Zm0 0"/></clipPath><clipPath id="bL"><path d="M228 175h2v10.523h-2Zm0 0"/></clipPath><clipPath id="bM"><path d="M229 185h3v.523h-3Zm0 0"/></clipPath><clipPath id="bN"><path d="M231 185h2v.523h-2Zm0 0"/></clipPath><clipPath id="bO"><path d="M232 185h2v.523h-2Zm0 0"/></clipPath><clipPath id="bP"><path d="M233 183h3v2.523h-3Zm0 0"/></clipPath><clipPath id="bQ"><path d="M236 184h2v1.523h-2Zm0 0"/></clipPath><clipPath id="bR"><path d="M237 185h2v.523h-2Zm0 0"/></clipPath><clipPath id="bS"><path d="M238 182h3v3.523h-3Zm0 0"/></clipPath><clipPath id="bT"><path d="M240 185h2v.523h-2Zm0 0"/></clipPath><clipPath id="bU"><path d="M241 185h2v.523h-2Zm0 0"/></clipPath><clipPath id="bV"><path d="M242 185h3v.523h-3Zm0 0"/></clipPath><clipPath id="bW"><path d="M244 184h2v1.523h-2Zm0 0"/></clipPath><clipPath id="bX"><path d="M245 185h2v.523h-2Zm0 0"/></clipPath><clipPath id="bY"><path d="M246 185h2v.523h-2Zm0 0"/></clipPath><clipPath id="bZ"><path d="M247 185h3v.523h-3Zm0 0"/></clipPath><clipPath id="ca"><path d="M249 182h2v3.523h-2Zm0 0"/></clipPath><clipPath id="cb"><path d="M250 185h2v.523h-2Zm0 0"/></clipPath><clipPath id="cc"><path d="M251 185h3v.523h-3Zm0 0"/></clipPath><clipPath id="cd"><path d="M254 184h2v1.523h-2Zm0 0"/></clipPath><clipPath id="ce"><path d="M255 185h2v.523h-2Zm0 0"/></clipPath><clipPath id="cf"><path d="M256 185h3v.523h-3Zm0 0"/></clipPath><clipPath id="cg"><path d="M258 185h2v.523h-2Zm0 0"/></clipPath><clipPath id="ch"><path d="M259 182h2v3.523h-2Zm0 0"/></clipPath><clipPath id="ci"><path d="M260 185h3v.523h-3Zm0 0"/></clipPath><clipPath id="cj"><path d="M262 185h2v.523h-2Zm0 0"/></clipPath><clipPath id="ck"><path d="M263 185h2v.523h-2Zm0 0"/></clipPath><clipPath id="cl"><path d="M264 184h2v1.523h-2Zm0 0"/></clipPath><clipPath id="cm"><path d="M267 185h2v.523h-2Zm0 0"/></clipPath><clipPath id="cn"><path d="M268 185h2v.523h-2Zm0 0"/></clipPath><clipPath id="co"><path d="M269 183h3v2.523h-3Zm0 0"/></clipPath><clipPath id="cp"><path d="M271 185h2v.523h-2Zm0 0"/></clipPath><clipPath id="cq"><path d="M272 185h2v.523h-2Zm0 0"/></clipPath><clipPath id="cr"><path d="M274 184h3v1.523h-3Zm0 0"/></clipPath><clipPath id="cs"><path d="M277 185h2v.523h-2Zm0 0"/></clipPath><clipPath id="ct"><path d="M280 184h2v1.523h-2Zm0 0"/></clipPath><clipPath id="cu"><path d="M281 185h2v.523h-2Zm0 0"/></clipPath><clipPath id="cv"><path d="M282 185h2v.523h-2Zm0 0"/></clipPath><clipPath id="cw"><path d="M285 185h2v.523h-2Zm0 0"/></clipPath><clipPath id="cx"><path d="M286 185h2v.523h-2Zm0 0"/></clipPath><clipPath id="cy"><path d="M287 185h3v.523h-3Zm0 0"/></clipPath><clipPath id="cz"><path d="M289 185h2v.523h-2Zm0 0"/></clipPath><clipPath id="cA"><path d="M290 183h2v2.523h-2Zm0 0"/></clipPath><clipPath id="cB"><path d="M292 185h3v.523h-3Zm0 0"/></clipPath><clipPath id="cC"><path d="M294 185h2v.523h-2Zm0 0"/></clipPath><clipPath id="cD"><path d="M295 185h2v.523h-2Zm0 0"/></clipPath><clipPath id="cE"><path d="M296 185h2v.523h-2Zm0 0"/></clipPath><clipPath id="cF"><path d="M297 185h3v.523h-3Zm0 0"/></clipPath><clipPath id="cG"><path d="M300 184h1.195v1.523H300Zm0 0"/></clipPath><clipPath id="cP"><path d="M147.969 42H149v71.117h-1.031Zm0 0"/></clipPath><clipPath id="cQ"><path d="M148 26h1v87.117h-1Zm0 0"/></clipPath><clipPath id="cR"><path d="M148 25h2v88.117h-2Zm0 0"/></clipPath><clipPath id="cS"><path d="M149 9h1v104.117h-1Zm0 0"/></clipPath><clipPath id="cT"><path d="M149 18h1v95.117h-1Zm0 0"/></clipPath><clipPath id="cU"><path d="M149 14h2v99.117h-2Zm0 0"/></clipPath><clipPath id="cV"><path d="M150 24h1v89.117h-1Zm0 0"/></clipPath><clipPath id="cW"><path d="M150 11h1v102.117h-1Zm0 0"/></clipPath><clipPath id="cX"><path d="M150 20h2v93.117h-2Zm0 0"/></clipPath><clipPath id="cY"><path d="M151 12h1v101.117h-1Zm0 0"/></clipPath><clipPath id="cZ"><path d="M151 27h1v86.117h-1Zm0 0"/></clipPath><clipPath id="da"><path d="M151 10h2v103.117h-2Zm0 0"/></clipPath><clipPath id="db"><path d="M152 25h1v88.117h-1Zm0 0"/></clipPath><clipPath id="dc"><path d="M152 14h1v99.117h-1Zm0 0"/></clipPath><clipPath id="dd"><path d="M152 24h2v89.117h-2Zm0 0"/></clipPath><clipPath id="de"><path d="M153 11h1v102.117h-1Zm0 0"/></clipPath><clipPath id="df"><path d="M153 31h1v82.117h-1Zm0 0"/></clipPath><clipPath id="dg"><path d="M153 16h2v97.117h-2Zm0 0"/></clipPath><clipPath id="dh"><path d="M154 25h1v88.117h-1Zm0 0"/></clipPath><clipPath id="di"><path d="M154 11h1v102.117h-1Zm0 0"/></clipPath><clipPath id="dj"><path d="M154 25h2v88.117h-2Zm0 0"/></clipPath><clipPath id="dk"><path d="M155 16h1v97.117h-1Zm0 0"/></clipPath><clipPath id="dl"><path d="M155 30h1v83.117h-1Zm0 0"/></clipPath><clipPath id="dm"><path d="M155 11h2v102.117h-2Zm0 0"/></clipPath><clipPath id="dn"><path d="M156 28h1v85.117h-1Zm0 0"/></clipPath><clipPath id="do"><path d="M156 21h1v92.117h-1Zm0 0"/></clipPath><clipPath id="dp"><path d="M156 33h2v80.117h-2Zm0 0"/></clipPath><clipPath id="dq"><path d="M157 11h1v102.117h-1Zm0 0"/></clipPath><clipPath id="dr"><path d="M157 30h1v83.117h-1Zm0 0"/></clipPath><clipPath id="ds"><path d="M157 20h2v93.117h-2Zm0 0"/></clipPath><clipPath id="dt"><path d="M158 33h1v80.117h-1Zm0 0"/></clipPath><clipPath id="du"><path d="M158 14h2v99.117h-2Zm0 0"/></clipPath><clipPath id="dv"><path d="M159 36h1v77.117h-1Zm0 0"/></clipPath><clipPath id="dw"><path d="M159 26h1v87.117h-1Zm0 0"/></clipPath><clipPath id="dx"><path d="M159 39h2v74.117h-2Zm0 0"/></clipPath><clipPath id="dy"><path d="M160 15h1v98.117h-1Zm0 0"/></clipPath><clipPath id="dz"><path d="M160 35h1v78.117h-1Zm0 0"/></clipPath><clipPath id="dA"><path d="M160 24h2v89.117h-2Zm0 0"/></clipPath><clipPath id="dB"><path d="M161 37h1v76.117h-1Zm0 0"/></clipPath><clipPath id="dC"><path d="M161 15h1v98.117h-1Zm0 0"/></clipPath><clipPath id="dD"><path d="M161 38h2v75.117h-2Zm0 0"/></clipPath><clipPath id="dE"><path d="M162 24h1v89.117h-1Zm0 0"/></clipPath><clipPath id="dF"><path d="M162 39h1v74.117h-1Zm0 0"/></clipPath><clipPath id="dG"><path d="M162 20h2v93.117h-2Zm0 0"/></clipPath><clipPath id="dH"><path d="M163 37h1v76.117h-1Zm0 0"/></clipPath><clipPath id="dI"><path d="M163 27h1v86.117h-1Zm0 0"/></clipPath><clipPath id="dJ"><path d="M163 46h2v67.117h-2Zm0 0"/></clipPath><clipPath id="dK"><path d="M164 19h1v94.117h-1Zm0 0"/></clipPath><clipPath id="dL"><path d="M164 43h1v70.117h-1Zm0 0"/></clipPath><clipPath id="dM"><path d="M164 30h2v83.117h-2Zm0 0"/></clipPath><clipPath id="dN"><path d="M165 47h1v66.117h-1Zm0 0"/></clipPath><clipPath id="dO"><path d="M165 22h1v91.117h-1Zm0 0"/></clipPath><clipPath id="dP"><path d="M165 51h2v62.117h-2Zm0 0"/></clipPath><clipPath id="dQ"><path d="M166 29h1v84.117h-1Zm0 0"/></clipPath><clipPath id="dR"><path d="M166 47h1v66.117h-1Zm0 0"/></clipPath><clipPath id="dS"><path d="M166 20h2v93.117h-2Zm0 0"/></clipPath><clipPath id="dT"><path d="M167 49h1v64.117h-1Zm0 0"/></clipPath><clipPath id="dU"><path d="M167 34h2v79.117h-2Zm0 0"/></clipPath><clipPath id="dV"><path d="M168 47h1v66.117h-1Zm0 0"/></clipPath><clipPath id="dW"><path d="M168 24h1v89.117h-1Zm0 0"/></clipPath><clipPath id="dX"><path d="M168 56h2v57.117h-2Zm0 0"/></clipPath><clipPath id="dY"><path d="M169 34h1v79.117h-1Zm0 0"/></clipPath><clipPath id="dZ"><path d="M169 42h1v71.117h-1Zm0 0"/></clipPath><clipPath id="ea"><path d="M169 21h2v92.117h-2Zm0 0"/></clipPath><clipPath id="eb"><path d="M170 46h1v67.117h-1Zm0 0"/></clipPath><clipPath id="ec"><path d="M170 37h1v76.117h-1Zm0 0"/></clipPath><clipPath id="ed"><path d="M170 54h2v59.117h-2Zm0 0"/></clipPath><clipPath id="ee"><path d="M171 27h1v86.117h-1Zm0 0"/></clipPath><clipPath id="ef"><path d="M171 51h1v62.117h-1Zm0 0"/></clipPath><clipPath id="eg"><path d="M171 35h2v78.117h-2Zm0 0"/></clipPath><clipPath id="eh"><path d="M172 55h1v58.117h-1Zm0 0"/></clipPath><clipPath id="ei"><path d="M172 24h1v89.117h-1Zm0 0"/></clipPath><clipPath id="ej"><path d="M172 55h2v58.117h-2Zm0 0"/></clipPath><clipPath id="ek"><path d="M173 41h1v72.117h-1Zm0 0"/></clipPath><clipPath id="el"><path d="M173 51h1v62.117h-1Zm0 0"/></clipPath><clipPath id="em"><path d="M173 30h2v83.117h-2Zm0 0"/></clipPath><clipPath id="en"><path d="M174 50h1v63.117h-1Zm0 0"/></clipPath><clipPath id="eo"><path d="M174 37h1v76.117h-1Zm0 0"/></clipPath><clipPath id="ep"><path d="M174 49h2v64.117h-2Zm0 0"/></clipPath><clipPath id="eq"><path d="M175 23h1v90.117h-1Zm0 0"/></clipPath><clipPath id="er"><path d="M175 52h1v61.117h-1Zm0 0"/></clipPath><clipPath id="es"><path d="M175 43h2v70.117h-2Zm0 0"/></clipPath><clipPath id="et"><path d="M176 49h1v64.117h-1Zm0 0"/></clipPath><clipPath id="eu"><path d="M176 30h2v83.117h-2Zm0 0"/></clipPath><clipPath id="ev"><path d="M177 60h1v53.117h-1Zm0 0"/></clipPath><clipPath id="ew"><path d="M177 41h1v72.117h-1Zm0 0"/></clipPath><clipPath id="ex"><path d="M177 57h2v56.117h-2Zm0 0"/></clipPath><clipPath id="ey"><path d="M178 30h1v83.117h-1Zm0 0"/></clipPath><clipPath id="ez"><path d="M178 61h1v52.117h-1Zm0 0"/></clipPath><clipPath id="eA"><path d="M178 38h2v75.117h-2Zm0 0"/></clipPath><clipPath id="eB"><path d="M179 61h1v52.117h-1Zm0 0"/></clipPath><clipPath id="eC"><path d="M179 35h1v78.117h-1Zm0 0"/></clipPath><clipPath id="eD"><path d="M179 59h2v54.117h-2Zm0 0"/></clipPath><clipPath id="eE"><path d="M180 45h1v68.117h-1Zm0 0"/></clipPath><clipPath id="eF"><path d="M180 57h1v56.117h-1Zm0 0"/></clipPath><clipPath id="eG"><path d="M180 31h2v82.117h-2Zm0 0"/></clipPath><clipPath id="eH"><path d="M181 59h1v54.117h-1Zm0 0"/></clipPath><clipPath id="eI"><path d="M181 46h1v67.117h-1Zm0 0"/></clipPath><clipPath id="eJ"><path d="M181 62h2v51.117h-2Zm0 0"/></clipPath><clipPath id="eK"><path d="M182 29h1v84.117h-1Zm0 0"/></clipPath><clipPath id="eL"><path d="M182 67h1v46.117h-1Zm0 0"/></clipPath><clipPath id="eM"><path d="M182 45h2v68.117h-2Zm0 0"/></clipPath><clipPath id="eN"><path d="M183 63h1v50.117h-1Zm0 0"/></clipPath><clipPath id="eO"><path d="M183 35h1v78.117h-1Zm0 0"/></clipPath><clipPath id="eP"><path d="M183 46h2v67.117h-2Zm0 0"/></clipPath><clipPath id="eQ"><path d="M184 45h1v68.117h-1Zm0 0"/></clipPath><clipPath id="eR"><path d="M184 67h1v46.117h-1Zm0 0"/></clipPath><clipPath id="eS"><path d="M184 37h2v76.117h-2Zm0 0"/></clipPath><clipPath id="eT"><path d="M185 67h1v46.117h-1Zm0 0"/></clipPath><clipPath id="eU"><path d="M185 55h2v58.117h-2Zm0 0"/></clipPath><clipPath id="eV"><path d="M186 63h1v50.117h-1Zm0 0"/></clipPath><clipPath id="eW"><path d="M186 36h1v77.117h-1Zm0 0"/></clipPath><clipPath id="eX"><path d="M186 69h2v44.117h-2Zm0 0"/></clipPath><clipPath id="eY"><path d="M187 54h1v59.117h-1Zm0 0"/></clipPath><clipPath id="eZ"><path d="M187 78h1v35.117h-1Zm0 0"/></clipPath><clipPath id="fa"><path d="M187 42h2v71.117h-2Zm0 0"/></clipPath><clipPath id="fb"><path d="M188 63h1v50.117h-1Zm0 0"/></clipPath><clipPath id="fc"><path d="M188 55h1v58.117h-1Zm0 0"/></clipPath><clipPath id="fd"><path d="M188 67h2v46.117h-2Zm0 0"/></clipPath><clipPath id="fe"><path d="M189 40h1v73.117h-1Zm0 0"/></clipPath><clipPath id="ff"><path d="M189 72h1v41.117h-1Zm0 0"/></clipPath><clipPath id="fg"><path d="M189 61h2v52.117h-2Zm0 0"/></clipPath><clipPath id="fh"><path d="M190 67h1v46.117h-1Zm0 0"/></clipPath><clipPath id="fi"><path d="M190 47h1v66.117h-1Zm0 0"/></clipPath><clipPath id="fj"><path d="M190 69h2v44.117h-2Zm0 0"/></clipPath><clipPath id="fk"><path d="M191 53h1v60.117h-1Zm0 0"/></clipPath><clipPath id="fl"><path d="M191 75h1v38.117h-1Zm0 0"/></clipPath><clipPath id="fm"><path d="M191 42h2v71.117h-2Zm0 0"/></clipPath><clipPath id="fn"><path d="M192 78h1v35.117h-1Zm0 0"/></clipPath><clipPath id="fo"><path d="M192 63h1v50.117h-1Zm0 0"/></clipPath><clipPath id="fp"><path d="M193 46h1v67.117h-1Zm0 0"/></clipPath><clipPath id="fq"><path d="M193 74h1v39.117h-1Zm0 0"/></clipPath><clipPath id="fr"><path d="M193 66h2v47.117h-2Zm0 0"/></clipPath><clipPath id="fs"><path d="M194 76h1v37.117h-1Zm0 0"/></clipPath><clipPath id="ft"><path d="M194 44h2v69.117h-2Zm0 0"/></clipPath><clipPath id="fu"><path d="M195 59h1v54.117h-1Zm0 0"/></clipPath><clipPath id="fv"><path d="M195 75h2v38.117h-2Zm0 0"/></clipPath><clipPath id="fw"><path d="M196 47h1v66.117h-1Zm0 0"/></clipPath><clipPath id="fx"><path d="M196 107h1v6.117h-1Zm0 0"/></clipPath><clipPath id="fy"><path d="M196 59h2v54.117h-2Zm0 0"/></clipPath><clipPath id="fz"><path d="M197 77h1v36.117h-1Zm0 0"/></clipPath><clipPath id="fA"><path d="M197 34h1v79.117h-1Zm0 0"/></clipPath><clipPath id="fB"><path d="M197 74h2v39.117h-2Zm0 0"/></clipPath><clipPath id="fC"><path d="M198 63h1v50.117h-1Zm0 0"/></clipPath><clipPath id="fD"><path d="M198 80h1v33.117h-1Zm0 0"/></clipPath><clipPath id="fE"><path d="M198 50h2v63.117h-2Zm0 0"/></clipPath><clipPath id="fF"><path d="M199 55h1v58.117h-1Zm0 0"/></clipPath><clipPath id="fG"><path d="M199 81h2v32.117h-2Zm0 0"/></clipPath><clipPath id="fH"><path d="M200 45h1v68.117h-1Zm0 0"/></clipPath><clipPath id="fI"><path d="M200 76h1v37.117h-1Zm0 0"/></clipPath><clipPath id="fJ"><path d="M200 67h2v46.117h-2Zm0 0"/></clipPath><clipPath id="fK"><path d="M201 89h1v24.117h-1Zm0 0"/></clipPath><clipPath id="fL"><path d="M201 51h1v62.117h-1Zm0 0"/></clipPath><clipPath id="fM"><path d="M201 93h2v20.117h-2Zm0 0"/></clipPath><clipPath id="fN"><path d="M202 73h1v40.117h-1Zm0 0"/></clipPath><clipPath id="fO"><path d="M202 78h1v35.117h-1Zm0 0"/></clipPath><clipPath id="fP"><path d="M202 43h2v70.117h-2Zm0 0"/></clipPath><clipPath id="fQ"><path d="M203 68h1v45.117h-1Zm0 0"/></clipPath><clipPath id="fR"><path d="M203 64h1v49.117h-1Zm0 0"/></clipPath><clipPath id="fS"><path d="M204 50h1v63.117h-1Zm0 0"/></clipPath><clipPath id="fT"><path d="M204 83h2v30.117h-2Zm0 0"/></clipPath><clipPath id="fU"><path d="M205 74h1v39.117h-1Zm0 0"/></clipPath><clipPath id="fV"><path d="M205 87h1v26.117h-1Zm0 0"/></clipPath><clipPath id="fW"><path d="M205 45h2v68.117h-2Zm0 0"/></clipPath><clipPath id="fX"><path d="M206 85h1v28.117h-1Zm0 0"/></clipPath><clipPath id="fY"><path d="M206 83h2v30.117h-2Zm0 0"/></clipPath><clipPath id="fZ"><path d="M207 59h1v54.117h-1Zm0 0"/></clipPath><clipPath id="ga"><path d="M207 62h2v51.117h-2Zm0 0"/></clipPath><clipPath id="gb"><path d="M208 80h1v33.117h-1Zm0 0"/></clipPath><clipPath id="gc"><path d="M208 49h1v64.117h-1Zm0 0"/></clipPath><clipPath id="gd"><path d="M208 82h2v31.117h-2Zm0 0"/></clipPath><clipPath id="ge"><path d="M209 68h1v45.117h-1Zm0 0"/></clipPath><clipPath id="gf"><path d="M209 56h2v57.117h-2Zm0 0"/></clipPath><clipPath id="gg"><path d="M210 64h1v49.117h-1Zm0 0"/></clipPath><clipPath id="gh"><path d="M211 54h1v59.117h-1Zm0 0"/></clipPath><clipPath id="gi"><path d="M211 74h1v39.117h-1Zm0 0"/></clipPath><clipPath id="gj"><path d="M211 69h2v44.117h-2Zm0 0"/></clipPath><clipPath id="gk"><path d="M212 60h1v53.117h-1Zm0 0"/></clipPath><clipPath id="gl"><path d="M212 87h2v26.117h-2Zm0 0"/></clipPath><clipPath id="gm"><path d="M213 80h1v33.117h-1Zm0 0"/></clipPath><clipPath id="gn"><path d="M213 81h2v32.117h-2Zm0 0"/></clipPath><clipPath id="go"><path d="M214 48h1v65.117h-1Zm0 0"/></clipPath><clipPath id="gp"><path d="M214 80h2v33.117h-2Zm0 0"/></clipPath><clipPath id="gq"><path d="M215 80h1v33.117h-1Zm0 0"/></clipPath><clipPath id="gr"><path d="M215 65h1v48.117h-1Zm0 0"/></clipPath><clipPath id="gs"><path d="M215 86h2v27.117h-2Zm0 0"/></clipPath><clipPath id="gt"><path d="M216 70h1v43.117h-1Zm0 0"/></clipPath><clipPath id="gu"><path d="M216 57h2v56.117h-2Zm0 0"/></clipPath><clipPath id="gv"><path d="M218 92h1v21.117h-1Zm0 0"/></clipPath><clipPath id="gw"><path d="M218 83h2v30.117h-2Zm0 0"/></clipPath><clipPath id="gx"><path d="M219 81h1v32.117h-1Zm0 0"/></clipPath><clipPath id="gy"><path d="M219 61h1v52.117h-1Zm0 0"/></clipPath><clipPath id="gz"><path d="M220 74h2v39.117h-2Zm0 0"/></clipPath><clipPath id="gA"><path d="M222 60h1v53.117h-1Zm0 0"/></clipPath><clipPath id="gB"><path d="M223 87h1v26.117h-1Zm0 0"/></clipPath><clipPath id="gC"><path d="M223 78h2v35.117h-2Zm0 0"/></clipPath><clipPath id="gD"><path d="M224 93h1v20.117h-1Zm0 0"/></clipPath><clipPath id="gE"><path d="M225 65h1v48.117h-1Zm0 0"/></clipPath><clipPath id="gF"><path d="M226 72h1v41.117h-1Zm0 0"/></clipPath><clipPath id="gG"><path d="M227 73h2v40.117h-2Zm0 0"/></clipPath><clipPath id="gH"><path d="M228 77h1v36.117h-1Zm0 0"/></clipPath><clipPath id="gI"><path d="M229 79h1v34.117h-1Zm0 0"/></clipPath><clipPath id="gJ"><path d="M230 65h1v48.117h-1Zm0 0"/></clipPath><clipPath id="gK"><path d="M232 76h1v37.117h-1Zm0 0"/></clipPath><clipPath id="gL"><path d="M232 78h2v35.117h-2Zm0 0"/></clipPath><clipPath id="gM"><path d="M233 65h1v48.117h-1Zm0 0"/></clipPath><clipPath id="gN"><path d="M234 88h1v25.117h-1Zm0 0"/></clipPath><clipPath id="gO"><path d="M234 70h2v43.117h-2Zm0 0"/></clipPath><clipPath id="gP"><path d="M236 71h1v42.117h-1Zm0 0"/></clipPath><clipPath id="gQ"><path d="M237 87h1v26.117h-1Zm0 0"/></clipPath><clipPath id="gR"><path d="M238 76h2v37.117h-2Zm0 0"/></clipPath><clipPath id="gS"><path d="M240 86h1v27.117h-1Zm0 0"/></clipPath><clipPath id="gT"><path d="M241 74h2v39.117h-2Zm0 0"/></clipPath><clipPath id="gU"><path d="M242 87h1v26.117h-1Zm0 0"/></clipPath><clipPath id="gV"><path d="M243 107h1v6.117h-1Zm0 0"/></clipPath><clipPath id="gW"><path d="M245 93h1v20.117h-1Zm0 0"/></clipPath><clipPath id="gX"><path d="M245 85h2v28.117h-2Zm0 0"/></clipPath><clipPath id="gY"><path d="M246 85h1v28.117h-1Zm0 0"/></clipPath><clipPath id="gZ"><path d="M247 70h1v43.117h-1Zm0 0"/></clipPath><clipPath id="ha"><path d="M248 87h1v26.117h-1Zm0 0"/></clipPath><clipPath id="hb"><path d="M248 79h1v34.117h-1Zm0 0"/></clipPath><clipPath id="hc"><path d="M250 71h1v42.117h-1Zm0 0"/></clipPath><clipPath id="hd"><path d="M251 81h1v32.117h-1Zm0 0"/></clipPath><clipPath id="he"><path d="M252 80h2v33.117h-2Zm0 0"/></clipPath><clipPath id="hf"><path d="M255 82h1v31.117h-1Zm0 0"/></clipPath><clipPath id="hg"><path d="M258 79h1v34.117h-1Zm0 0"/></clipPath><clipPath id="hh"><path d="M259 83h2v30.117h-2Zm0 0"/></clipPath><clipPath id="hi"><path d="M261 73h1v40.117h-1Zm0 0"/></clipPath><clipPath id="hj"><path d="M262 88h1v25.117h-1Zm0 0"/></clipPath><clipPath id="hk"><path d="M263 72h2v41.117h-2Zm0 0"/></clipPath><clipPath id="hl"><path d="M266 85h1v28.117h-1Zm0 0"/></clipPath><clipPath id="hm"><path d="M269 89h1v24.117h-1Zm0 0"/></clipPath><clipPath id="hn"><path d="M272 93h1v20.117h-1Zm0 0"/></clipPath><clipPath id="ho"><path d="M279 82h1v31.117h-1Zm0 0"/></clipPath><clipPath id="hp"><path d="M283 80h1v33.117h-1Zm0 0"/></clipPath><clipPath id="hq"><path d="M287 81h1v32.117h-1Zm0 0"/></clipPath><clipPath id="hr"><path d="M288 101h2v12.117h-2Zm0 0"/></clipPath><clipPath id="hs"><path d="M294 81h2v32.117h-2Zm0 0"/></clipPath><clipPath id="ht"><path d="M297 93h1v20.117h-1Zm0 0"/></clipPath><clipPath id="hu"><path d="M300 82h1.195v31.117H300Zm0 0"/></clipPath><clipPath id="hv"><path d="M147.969 5h153.226v108.117H147.97Zm0 0"/></clipPath><clipPath id="hy"><path d="M170 20h2v93.117h-2Zm0 0"/></clipPath><path id="cH" d="M5.094-2.078c0 .305-.059.594-.172.875a1.9 1.9 0 0 1-.453.703q-.317.315-.75.484a3.1 3.1 0 0 1-1.016.157Q2.153.14 1.656.016A4 4 0 0 1 .828-.25v-.922h.063q.358.222.843.39c.32.106.641.157.954.157.207 0 .406-.023.593-.078a1.36 1.36 0 0 0 .531-.313c.126-.125.22-.273.282-.453.07-.176.11-.383.11-.625q-.001-.328-.126-.562a.95.95 0 0 0-.312-.375 1.4 1.4 0 0 0-.563-.235 3.3 3.3 0 0 0-.734-.078c-.262 0-.512.024-.75.063a6 6 0 0 0-.61.11v-3.391h3.938v.78H1.953v1.735q.187-.014.39-.016c.134-.007.25-.015.345-.015q.528 0 .921.094.405.095.75.312.343.253.532.64c.132.25.203.571.203.954m0 0"/><path id="cI" d="M5.14-3.281q0 1.769-.562 2.594-.55.83-1.703.828-1.19.001-1.734-.828-.533-.844-.532-2.579-.002-1.746.547-2.578.547-.843 1.719-.843 1.17.002 1.719.859c.363.562.547 1.414.547 2.547m-1.156 2q.154-.358.204-.844.06-.481.062-1.156-.002-.67-.062-1.156a2.4 2.4 0 0 0-.22-.844 1.07 1.07 0 0 0-.421-.5 1.23 1.23 0 0 0-.672-.172q-.423 0-.687.172-.27.176-.438.515a3 3 0 0 0-.203.86 13 13 0 0 0-.047 1.14q0 .69.047 1.157.046.455.203.812.14.344.406.531c.188.118.426.172.719.172.27 0 .492-.054.672-.172q.28-.17.437-.515m0 0"/><path id="cJ" d="M4.766 0H1.219v-.672h1.375v-4.39H1.219v-.594q.28 0 .593-.047.329-.047.485-.14a.8.8 0 0 0 .312-.282.85.85 0 0 0 .141-.453h.688v5.906h1.328Zm0 0"/><path id="cK" d="M5.14 0H.704v-.922c.313-.258.617-.52.922-.781q.467-.404.875-.797c.563-.54.945-.973 1.156-1.297a1.9 1.9 0 0 0 .313-1.047q-.002-.516-.344-.797-.328-.294-.937-.296-.392.002-.86.156a3.5 3.5 0 0 0-.906.422H.875v-.922a4.3 4.3 0 0 1 .828-.282 4.5 4.5 0 0 1 1.016-.125c.664 0 1.191.165 1.578.485q.576.487.578 1.312c0 .25-.04.485-.11.704a2.5 2.5 0 0 1-.265.609 4 4 0 0 1-.406.547q-.235.268-.563.578c-.312.312-.636.617-.969.906q-.503.422-.937.797h3.516Zm0 0"/><path id="cL" d="M5.281 0H4.188l-1.97-2.156-.546.515V0H.844v-6.844h.828v4.39l2.39-2.468H5.11L2.83-2.64Zm0 0"/><path id="cM" d="M5.297-1.844h-.969V0h-.844v-1.844H.344v-1.015l3.172-3.703h.812v4.015h.969Zm-1.813-.703V-5.5L.938-2.547Zm0 0"/><path id="cN" d="M5.25-2.125c0 .668-.227 1.215-.672 1.64q-.657.627-1.61.626-.485 0-.89-.141a1.9 1.9 0 0 1-.687-.453 2.4 2.4 0 0 1-.578-.969Q.608-2.03.609-2.875q0-.873.188-1.547c.125-.445.32-.848.594-1.203a2.54 2.54 0 0 1 1-.766q.608-.28 1.422-.28.262.002.437.015.17.018.36.078v.844h-.048a2.2 2.2 0 0 0-.875-.187q-.953 0-1.515.593-.563.597-.656 1.594c.25-.145.492-.254.734-.328q.359-.125.828-.125.404 0 .719.078.327.08.672.312.374.268.578.672.201.409.203 1m-.906.031q-.001-.404-.125-.672a1.13 1.13 0 0 0-.39-.468 1.2 1.2 0 0 0-.454-.188 2.6 2.6 0 0 0-.516-.047q-.375 0-.703.094-.314.095-.64.266-.017.11-.016.203v.219q0 .69.14 1.093.14.41.391.64.201.189.438.282.234.094.515.094.638 0 1-.39.36-.388.36-1.126m0 0"/><path id="cO" d="M5.188-1.828c0 .562-.22 1.039-.657 1.422Q3.874.156 2.86.156 1.795.158 1.156-.39.53-.952.531-1.812q-.002-.546.313-.985.328-.433.906-.703v-.031q-.534-.281-.781-.61-.251-.339-.25-.843c0-.489.195-.895.594-1.22q.609-.498 1.546-.5.984 0 1.563.47.592.469.594 1.203 0 .44-.282.875c-.18.281-.449.508-.812.672v.015q.62.27.937.656.33.393.329.985M4.156-5.031a.89.89 0 0 0-.375-.75q-.361-.282-.922-.282-.55.001-.906.266a.85.85 0 0 0-.36.719c0 .21.055.39.173.547.125.156.304.293.547.406.113.055.269.125.468.219q.311.128.594.203.434-.293.61-.61a1.5 1.5 0 0 0 .171-.718m.125 3.281q0-.388-.172-.64-.175-.248-.703-.5a5 5 0 0 0-.453-.172q-.234-.077-.656-.235a1.8 1.8 0 0 0-.64.594 1.5 1.5 0 0 0-.235.828q-.002.598.406.984.42.392 1.047.391.64 0 1.016-.328c.257-.227.39-.535.39-.922m0 0"/><path id="hw" d="M4.563-3.156c.144.125.257.289.343.484q.14.283.14.735-.002.438-.155.812-.16.375-.453.656A2.1 2.1 0 0 1 3.656 0Q3.2.14 2.672.14 2.12.14 1.594 0a4.6 4.6 0 0 1-.86-.281v-.922h.063q.373.252.875.422.516.157.984.156c.188 0 .383-.031.594-.094q.311-.091.5-.265a1.3 1.3 0 0 0 .297-.438A1.4 1.4 0 0 0 4.157-2c0-.238-.04-.437-.11-.594a.85.85 0 0 0-.313-.36 1.2 1.2 0 0 0-.484-.187 4 4 0 0 0-.61-.046h-.39v-.735h.313q.668 0 1.062-.281.406-.28.406-.813a.77.77 0 0 0-.11-.406.8.8 0 0 0-.28-.312 1.5 1.5 0 0 0-.407-.157 2.3 2.3 0 0 0-.484-.046q-.422.002-.89.156-.47.158-.891.422H.922v-.922a4.3 4.3 0 0 1 .828-.282 4.5 4.5 0 0 1 1.016-.125q.48 0 .843.094c.25.055.473.14.672.266q.311.222.469.516.17.298.172.703c0 .367-.133.683-.39.953a1.7 1.7 0 0 1-.907.515v.063q.2.035.469.14.28.112.468.282m0 0"/><path id="hx" d="M3.89-4.734q0 .986-.421 1.468-.41.47-1.188.47-.814 0-1.219-.47C.79-3.586.657-4.078.657-4.734q0-.985.422-1.453c.281-.32.68-.485 1.203-.485q.795.002 1.203.484.406.488.407 1.454M6.94-6.562 3.5 0h-.734l3.437-6.562Zm2.109 4.75q0 .986-.422 1.468-.423.47-1.203.469-.798.001-1.203-.484-.409-.48-.407-1.453-.002-.984.407-1.47.42-.482 1.203-.484.808.002 1.219.485.406.485.406 1.469m-5.94-2.923q-.002-.763-.203-1.063c-.125-.195-.336-.297-.625-.297-.304 0-.523.102-.656.297q-.187.3-.187 1.063 0 .768.187 1.062.2.299.656.297.436 0 .625-.297.201-.293.203-1.062m5.157 2.922q-.002-.763-.203-1.063c-.126-.195-.336-.297-.626-.297-.304 0-.523.102-.656.297q-.187.3-.187 1.063 0 .768.187 1.062.2.299.657.297.435 0 .625-.297c.132-.195.203-.55.203-1.062m0 0"/><path id="hz" d="M5.938-.469A8 8 0 0 0 5.5-.28a4 4 0 0 1-.516.203 6 6 0 0 1-.578.14q-.313.062-.687.063-.72-.002-1.313-.203a2.6 2.6 0 0 1-1-.625 3 3 0 0 1-.672-1.063Q.5-2.42.5-3.266q0-.808.234-1.453a3.05 3.05 0 0 1 .657-1.078 2.8 2.8 0 0 1 1.015-.64 3.5 3.5 0 0 1 1.313-.235c.351 0 .703.043 1.047.125.351.086.742.234 1.172.453v1.032h-.063q-.551-.451-1.078-.657a3 3 0 0 0-1.14-.218q-.488 0-.891.171a1.9 1.9 0 0 0-.703.5q-.316.33-.485.829-.174.503-.172 1.171 0 .69.188 1.188.186.503.484.812.31.317.719.47c.281.105.57.155.875.155a3.3 3.3 0 0 0 1.172-.203A3.2 3.2 0 0 0 5.875-1.5h.063Zm0 0"/><path id="hA" d="M4.89 0h-.827v-.547q-.425.328-.813.516-.376.17-.828.172-.786 0-1.219-.47-.422-.48-.422-1.39v-3.203h.828v2.797c0 .25.008.469.032.656.02.18.07.328.156.453.07.125.172.22.297.282q.2.08.562.078.312 0 .688-.156.389-.17.719-.438v-3.672h.828Zm0 0"/><path id="hB" d="M7.984 0h-.828v-2.797q0-.31-.031-.61a1.15 1.15 0 0 0-.11-.468.7.7 0 0 0-.296-.297q-.189-.093-.547-.094-.346.001-.688.172-.345.175-.703.438.014.11.016.25.014.127.016.265V0h-.829v-2.797q0-.328-.03-.625a1.15 1.15 0 0 0-.11-.469.7.7 0 0 0-.297-.28Q3.358-4.267 3-4.267q-.346.001-.687.172a3.8 3.8 0 0 0-.672.422V0H.813v-4.922h.828v.547a3.8 3.8 0 0 1 .765-.484q.388-.188.828-.188.498 0 .844.219.356.204.531.578.497-.421.907-.61.421-.186.89-.187.812.002 1.188.484.388.487.39 1.375Zm0 0"/><path id="hC" d="M1.656 0H.828v-6.844h.828Zm0 0"/><path id="hD" d="M4.64 0h-.827v-.531q-.111.08-.297.219a4 4 0 0 1-.36.218 3 3 0 0 1-.484.157Q2.403.14 2.047.14q-.673 0-1.14-.438Q.45-.747.452-1.422q0-.562.235-.906.247-.341.687-.547.45-.2 1.078-.266.639-.075 1.36-.109v-.125a.95.95 0 0 0-.11-.469.7.7 0 0 0-.281-.297A1.3 1.3 0 0 0 3-4.266a2.6 2.6 0 0 0-.516-.046q-.315 0-.718.093a4.6 4.6 0 0 0-.828.25H.89v-.844q.246-.058.703-.14.45-.077.906-.078.515 0 .89.093c.258.055.485.149.672.282q.282.203.422.531.155.314.157.781Zm-.827-1.203v-1.375q-.375.017-.891.062a5 5 0 0 0-.813.125 1.36 1.36 0 0 0-.578.329q-.22.204-.218.578-.001.422.25.64.264.204.78.203.434.001.798-.156.355-.17.672-.406m0 0"/><path id="hE" d="M3.375-.047a4 4 0 0 1-.516.094 3 3 0 0 1-.484.047q-.769.002-1.156-.406Q.828-.718.829-1.61v-2.61H.265v-.703h.562v-1.406h.828v1.406h1.719v.703H1.656v2.235q-.001.391.016.609.012.22.125.406a.62.62 0 0 0 .266.266c.113.055.285.078.515.078q.2 0 .422-.062.235-.059.328-.094h.047Zm0 0"/><path id="hF" d="M1.703-5.734H.766v-.86h.937ZM1.656 0H.828v-4.922h.828Zm0 0"/><path id="hG" d="M5.063-4.922 3.077 0H2.25L.266-4.922h.906L2.688-1l1.515-3.922Zm0 0"/><path id="hH" d="M4.938-2.375H1.313c0 .305.039.57.125.797q.14.329.375.547c.156.148.335.258.546.328q.31.094.704.094a2.6 2.6 0 0 0 1-.203c.343-.133.585-.266.734-.391h.031v.906A7 7 0 0 1 3.984 0c-.293.07-.601.11-.921.11q-1.22 0-1.907-.657-.688-.655-.687-1.89 0-1.203.656-1.907.657-.703 1.734-.703.997.002 1.532.578.546.58.547 1.64ZM4.125-3q0-.654-.328-1.016-.328-.358-.985-.359c-.449 0-.804.133-1.062.39q-.392.393-.437.985Zm0 0"/><path id="hI" d="M6.86 0H5.61L1.983-6.844V0H1.03v-7.64h1.58l3.297 6.234v-6.235h.953Zm0 0"/><path id="hJ" d="M5.703 0h-.969v-.64q-.486.393-.937.593a2.4 2.4 0 0 1-.985.203q-.89.002-1.406-.547c-.336-.363-.5-.906-.5-1.625v-3.718h.969v3.265q-.002.44.031.75.047.316.188.532c.094.148.21.257.36.328q.216.093.64.093.375 0 .812-.187.452-.2.828-.5v-4.281h.97Zm0 0"/><path id="hK" d="M9.313 0h-.954v-3.266q0-.374-.046-.718a1.6 1.6 0 0 0-.141-.547.74.74 0 0 0-.328-.328c-.149-.07-.36-.11-.64-.11q-.41.002-.813.203a5 5 0 0 0-.813.516l.031.266c.008.105.016.21.016.312V0h-.969v-3.266q0-.374-.047-.718a1.8 1.8 0 0 0-.125-.547.84.84 0 0 0-.343-.328c-.149-.07-.36-.11-.641-.11a1.8 1.8 0 0 0-.797.203c-.262.125-.523.29-.781.485V0H.953v-5.734h.969v.64q.434-.374.89-.578.453-.218.97-.219.573.002.984.25.404.237.609.672.593-.48 1.063-.703a2.5 2.5 0 0 1 1.03-.219c.634 0 1.098.196 1.391.579q.453.563.454 1.593Zm0 0"/><path id="hL" d="M6-2.906q-.002.721-.203 1.297-.206.564-.547.953a2.4 2.4 0 0 1-.797.61 2.3 2.3 0 0 1-.969.202Q3 .155 2.625.031a3.5 3.5 0 0 1-.703-.297L1.859 0H.953v-7.984h.969v2.843q.404-.327.86-.53.45-.219 1.03-.22 1.015.001 1.594.782Q6-4.325 6-2.906m-1 .015q-.002-1.013-.344-1.546c-.218-.352-.586-.532-1.093-.532q-.424 0-.86.188a3.3 3.3 0 0 0-.781.453v3.297q.405.175.703.25c.195.054.422.078.672.078q.795 0 1.25-.531.452-.53.453-1.657m0 0"/><path id="hM" d="M5.75-2.766H1.531q-.001.535.157.922a1.6 1.6 0 0 0 .437.64q.263.253.625.376c.25.086.52.125.813.125q.591 0 1.171-.235.591-.234.86-.468h.047v1.062q-.487.204-1 .344-.502.14-1.063.14Q2.14.143 1.344-.624q-.797-.78-.797-2.203-.001-1.405.766-2.234.761-.828 2.015-.829 1.17 0 1.797.688c.414.45.625 1.086.625 1.906ZM4.813-3.5c0-.508-.133-.898-.391-1.172-.25-.281-.633-.422-1.14-.422q-.785.002-1.235.453A1.77 1.77 0 0 0 1.53-3.5Zm0 0"/><path id="hN" d="M4.531-4.687h-.047a4 4 0 0 0-.421-.063 3.4 3.4 0 0 0-.485-.031c-.305 0-.594.07-.875.203a3.5 3.5 0 0 0-.781.5V0H.953v-5.734h.969v.843q.561-.451 1-.64.45-.201.906-.203.247.002.36.015.107.018.343.047Zm0 0"/><path id="hP" d="M5.844-2.86q-.002 1.395-.719 2.204-.72.813-1.937.812-1.208 0-1.922-.812-.72-.81-.72-2.203 0-1.405.72-2.22c.476-.538 1.117-.812 1.922-.812.812 0 1.457.274 1.937.813q.717.813.719 2.219m-1 0c0-.75-.149-1.3-.438-1.656q-.44-.545-1.218-.546-.786 0-1.22.546-.42.533-.421 1.657 0 1.077.422 1.64.433.549 1.219.547.778.002 1.218-.547.437-.563.438-1.64m0 0"/><path id="hQ" d="M4.031-7.062h-.047l-.421-.079a2 2 0 0 0-.454-.062q-.61 0-.89.281-.281.27-.281.984v.204h1.734v.812H1.969V0H1v-4.922H.344v-.812H1v-.188c0-.687.164-1.21.5-1.578.344-.363.836-.547 1.484-.547a5 5 0 0 1 1.047.11Zm0 0"/><path id="hR" d="M5.406 0h-.953v-.61a3 3 0 0 0-.36.25 2 2 0 0 1-.421.235c-.156.086-.34.148-.547.203q-.314.077-.734.078-.785 0-1.328-.515Q.53-.873.53-1.656q0-.655.282-1.063.281-.405.796-.64.528-.217 1.266-.297.734-.095 1.578-.14v-.142a1.1 1.1 0 0 0-.125-.546A.84.84 0 0 0 4-4.828a1.5 1.5 0 0 0-.5-.14 3.6 3.6 0 0 0-.594-.048q-.375 0-.844.094a5.6 5.6 0 0 0-.968.297h-.047v-.984q.28-.078.812-.172a6 6 0 0 1 1.047-.094c.406 0 .758.04 1.063.11q.451.093.781.327.31.235.484.61.171.375.172.937Zm-.953-1.406v-1.61a49 49 0 0 0-1.047.094 5.6 5.6 0 0 0-.953.14 1.6 1.6 0 0 0-.672.36q-.251.253-.25.688 0 .504.297.75c.195.168.5.25.906.25q.516 0 .938-.203a4.6 4.6 0 0 0 .781-.47m0 0"/><path id="hS" d="M3.922-.047c-.18.043-.375.078-.594.11q-.316.046-.562.046-.877 0-1.344-.468C1.117-.672.969-1.176.969-1.875v-3.047H.313v-.812h.656v-1.657h.969v1.657h1.984v.812H1.937v2.61q-.001.455.016.718.03.252.14.469a.76.76 0 0 0 .313.297q.2.094.61.094.233 0 .484-.063.263-.077.375-.125h.047Zm0 0"/><path id="hT" d="M5.047-1.656q0 .783-.656 1.297c-.43.336-1.016.5-1.766.5-.43 0-.82-.055-1.172-.157a5.4 5.4 0 0 1-.89-.328v-1.078h.046c.313.23.649.414 1.016.547a3.1 3.1 0 0 0 1.078.203q.638.001 1-.203a.72.72 0 0 0 .36-.656q-.002-.34-.204-.516-.187-.168-.75-.297a19 19 0 0 0-.53-.11 10 10 0 0 1-.595-.124q-.766-.2-1.078-.594-.313-.389-.312-.953 0-.355.14-.672.153-.311.454-.547c.187-.164.425-.297.718-.39q.45-.141 1-.141.516.001 1.031.125.528.127.891.313v1.03h-.062a3.2 3.2 0 0 0-.891-.468 3.1 3.1 0 0 0-1.047-.187q-.515.002-.89.203a.66.66 0 0 0-.36.609c0 .242.07.418.219.531.144.125.379.227.703.297q.265.066.594.125c.219.043.398.078.547.11.445.105.797.28 1.047.53.238.25.359.587.359 1m0 0"/><path id="hU" d="M0-6.86v1.25l-6.844 3.626H0v.953h-7.64V-2.61l6.234-3.297h-6.235v-.953Zm0 0"/><path id="hV" d="M0-5.703v.969h-.64q.393.486.593.937.201.44.203.985.002.89-.547 1.406c-.363.336-.906.5-1.625.5h-3.718v-.969h3.265q.44.002.75-.031.316-.047.532-.188a.85.85 0 0 0 .328-.36q.093-.216.093-.64 0-.375-.187-.812a3.8 3.8 0 0 0-.5-.828h-4.281v-.97Zm0 0"/><path id="hW" d="M0-9.312v.953h-3.266q-.374 0-.718.046-.341.035-.547.141a.74.74 0 0 0-.328.328c-.07.149-.11.36-.11.64q.002.41.203.813.206.41.516.813l.266-.031a4 4 0 0 1 .312-.016H0v.969h-3.266q-.374 0-.718.047-.341.032-.547.125a.84.84 0 0 0-.328.343c-.07.149-.11.36-.11.641q.002.392.203.797c.125.262.29.523.485.781H0v.969h-5.734v-.969h.64a3.7 3.7 0 0 1-.578-.89 2.2 2.2 0 0 1-.219-.97q.002-.573.25-.984.237-.404.672-.609-.48-.593-.703-1.062A2.5 2.5 0 0 1-5.89-7.47c0-.633.196-1.097.579-1.39q.563-.452 1.593-.453Zm0 0"/><path id="hX" d="M-2.906-6q.721.002 1.297.203.564.206.953.547.41.363.61.797c.132.293.202.617.202.969Q.155-3 .031-2.625a3.5 3.5 0 0 1-.297.703L0-1.859v.906h-7.984v-.969h2.843a4 4 0 0 1-.53-.86 2.35 2.35 0 0 1-.22-1.03q.001-1.014.782-1.594Q-4.325-6-2.906-6m.015 1q-1.013.002-1.546.344c-.352.218-.532.586-.532 1.093q0 .424.188.86c.117.281.265.543.453.781h3.297q.175-.405.25-.703a2.5 2.5 0 0 0 .078-.672q0-.795-.531-1.25-.53-.452-1.657-.453m0 0"/><path id="hY" d="M-2.766-5.75v4.219q.535.001.922-.157a1.6 1.6 0 0 0 .64-.437q.253-.263.376-.625c.086-.25.125-.52.125-.812q0-.593-.235-1.172-.234-.591-.468-.86v-.047h1.062q.204.487.344 1 .14.502.14 1.063.002 1.439-.765 2.234-.78.798-2.203.797c-.938 0-1.68-.254-2.234-.765q-.828-.762-.829-2.016 0-1.17.688-1.797.676-.623 1.906-.625Zm-.734.938q-.761.002-1.172.39c-.281.25-.422.633-.422 1.14q.002.785.453 1.235A1.77 1.77 0 0 0-3.5-1.53Zm0 0"/><path id="hZ" d="M-4.687-4.531v.047a4 4 0 0 0-.063.422q-.03.203-.031.484c0 .305.07.594.203.875q.189.408.5.781H0v.969h-5.734v-.969h.843q-.451-.561-.64-1a2.2 2.2 0 0 1-.203-.906q.002-.247.015-.36.018-.107.047-.343Zm0 0"/><path id="ib" d="M-2.86-5.844q1.395.002 2.204.719.813.72.812 1.938 0 1.207-.812 1.921-.81.72-2.203.72-1.405 0-2.22-.72c-.538-.476-.812-1.117-.812-1.921 0-.813.274-1.458.813-1.938q.813-.717 2.219-.719m0 1c-.75 0-1.3.149-1.656.438q-.545.44-.546 1.218 0 .786.546 1.22.533.42 1.657.421 1.077 0 1.64-.422.549-.433.547-1.218.002-.78-.547-1.22c-.375-.288-.922-.437-1.64-.437m0 0"/><path id="ic" d="M-7.062-4.031v.047l-.079.422q-.06.252-.062.453 0 .61.281.89.27.281.984.281h.204v-1.734h.812v1.703H0V-1h-4.922v.656h-.812V-1h-.188c-.687 0-1.21-.164-1.578-.5-.363-.344-.547-.836-.547-1.484a5 5 0 0 1 .11-1.047Zm0 0"/><path id="id" d="M-2.187-6.578q.456.002.89.203.441.204.734.578.33.423.516.969.188.551.188 1.312c0 .555-.055 1.047-.157 1.485A8 8 0 0 1-.469-.687H-1.75v-.079c.324-.382.574-.828.75-1.328.18-.508.266-.988.266-1.437q.001-.937-.36-1.469-.357-.53-.937-.531c-.344 0-.594.086-.75.25q-.247.251-.375.765c-.07.25-.13.528-.172.829-.05.304-.11.62-.172.953q-.218 1.019-.734 1.515-.528.486-1.36.485-.968 0-1.578-.813-.61-.808-.61-2.062.002-.796.157-1.47.158-.668.375-1.202h1.203v.078q-.375.44-.61 1.156c-.163.469-.25.953-.25 1.453 0 .543.118.98.345 1.313q.328.485.875.484.468 0 .75-.234c.18-.164.312-.457.406-.875q.082-.328.187-.938.096-.61.203-1.031c.149-.562.375-.984.688-1.266q.457-.435 1.265-.437m0 0"/><path id="ie" d="M-.047-3.922c.043.18.078.375.11.594q.046.316.046.562 0 .877-.468 1.344c-.313.305-.817.453-1.516.453h-3.047v.657h-.812V-.97h-1.657v-.968h1.657v-1.985h.812v1.985h2.61q.455.001.718-.016.252-.03.469-.14a.76.76 0 0 0 .297-.313q.094-.2.094-.61 0-.233-.063-.484a4 4 0 0 0-.125-.375v-.047Zm0 0"/><path id="if" d="M-.36-5.187q.236.487.36.921.124.424.125.907-.001.628-.172 1.156a2.25 2.25 0 0 1-.562.875q-.359.377-.922.578-.576.204-1.328.203-1.407 0-2.203-.765-.812-.763-.813-2.047c0-.32.047-.641.14-.953.094-.32.212-.614.344-.875h1.079v.046a3.8 3.8 0 0 0-.532.907 2.5 2.5 0 0 0-.187.922q0 .83.562 1.296.55.47 1.61.47 1.03.001 1.593-.454.563-.468.563-1.312.001-.295-.078-.594a2.7 2.7 0 0 0-.203-.547 9 9 0 0 0-.22-.39 3 3 0 0 0-.218-.298v-.046Zm0 0"/><path id="ig" d="M-1.656-5.047q.783 0 1.297.656c.336.43.5 1.016.5 1.766 0 .43-.055.82-.157 1.172q-.151.533-.328.89h-1.078v-.046c.23-.313.414-.649.547-1.016a3.1 3.1 0 0 0 .203-1.078q.001-.638-.203-1a.72.72 0 0 0-.656-.36q-.34.002-.516.204-.168.188-.297.75-.045.204-.11.53a10 10 0 0 1-.124.595q-.2.766-.594 1.078-.389.314-.953.312-.355 0-.672-.14a1.6 1.6 0 0 1-.547-.453 2 2 0 0 1-.39-.72q-.141-.449-.141-1 .001-.515.125-1.03.127-.528.313-.891h1.03v.062a3.2 3.2 0 0 0-.468.891 3.1 3.1 0 0 0-.187 1.047q.002.515.203.89c.136.243.34.36.609.36.242 0 .418-.07.531-.219.125-.144.227-.379.297-.703a10 10 0 0 0 .125-.594c.043-.219.078-.398.11-.547q.156-.67.53-1.046c.25-.239.587-.36 1-.36m0 0"/><path id="ih" d="M0-1.922v.969h-7.984v-.969Zm0 0"/><path id="ii" d="M-.656-5.61c.976 0 1.691.227 2.14.673.457.437.688 1.117.688 2.03 0 .313-.024.618-.063.907a7 7 0 0 1-.187.844H.938v-.047a7 7 0 0 0 .218-.75q.14-.516.14-1.031c0-.32-.042-.594-.124-.813a1.13 1.13 0 0 0-.313-.5 1.2 1.2 0 0 0-.484-.266A2.4 2.4 0 0 0-.25-4.64h-.531q.345.44.515.844c.118.262.172.602.172 1.016 0 .68-.242 1.219-.734 1.625-.5.406-1.195.61-2.094.61q-.732 0-1.265-.204a3 3 0 0 1-.938-.578 2.3 2.3 0 0 1-.562-.813 2.5 2.5 0 0 1-.204-.953c0-.332.04-.61.11-.828a3.6 3.6 0 0 1 .297-.719l-.25-.062v-.906Zm-.922.97h-3.125q-.169.391-.25.718-.077.329-.078.656 0 .798.547 1.266c.355.305.87.453 1.547.453q.954.001 1.453-.344c.336-.226.5-.601.5-1.125q.001-.42-.157-.843a2.9 2.9 0 0 0-.437-.782m0 0"/><path id="ij" d="M-2.875-3.984v3.203h-.937v-3.203Zm0 0"/><path id="ik" d="M0-5.406v.953h-.61q.082.142.25.36.159.222.235.421c.086.156.148.34.203.547q.077.314.078.734 0 .785-.515 1.329-.514.531-1.297.53-.655 0-1.063-.28a1.9 1.9 0 0 1-.64-.797q-.217-.528-.297-1.266a22 22 0 0 1-.14-1.578h-.142a1.1 1.1 0 0 0-.546.125.84.84 0 0 0-.344.328 1.5 1.5 0 0 0-.14.5 3.6 3.6 0 0 0-.048.594q0 .375.094.844.096.469.297.968v.047h-.984a10 10 0 0 1-.172-.812 6 6 0 0 1-.094-1.047c0-.406.04-.758.11-1.063q.093-.451.327-.781.235-.31.61-.484.375-.171.937-.172Zm-1.406.953h-1.61q.036.456.094 1.047.047.597.14.953.113.409.36.672.253.251.688.25.504 0 .75-.297c.168-.195.25-.5.25-.906q0-.516-.203-.938a4.6 4.6 0 0 0-.47-.781m0 0"/><path id="il" d="M0-5.61v.97h-.594q.363.422.563.874.187.457.187.985c0 .68-.258 1.219-.781 1.625q-.797.61-2.203.61-.717 0-1.281-.204a3.1 3.1 0 0 1-.985-.578 2.3 2.3 0 0 1-.593-.813 2.4 2.4 0 0 1-.204-.953q0-.45.094-.797.096-.357.297-.75h-2.484v-.968Zm-1.406.97h-3.297a3.7 3.7 0 0 0-.234.702q-.078.316-.079.672c0 .543.196.965.579 1.266.375.305.906.453 1.593.453q1.02.001 1.547-.344.533-.357.531-1.125c0-.28-.054-.554-.171-.828a4 4 0 0 0-.47-.797m0 0"/><path id="im" d="M0-5.75v.969h-3.266q-.387 0-.734.047-.358.047-.547.172a.72.72 0 0 0-.312.375 1.55 1.55 0 0 0-.11.625q.002.393.203.828c.125.28.29.554.485.812H0v.969h-7.984v-.969h2.89a3.5 3.5 0 0 1-.578-.922 2.4 2.4 0 0 1-.219-1q0-.92.563-1.406.55-.499 1.61-.5Zm0 0"/><path id="in" d="M-5.734-8.156 0-6.672v.89l-4.422 1.485L0-2.844v.89L-5.734-.436v-1.016L-1.297-2.5l-4.437-1.437v-.797l4.437-1.47-4.437-.984Zm0 0"/><path id="io" d="M-6.703-1.984v1.078h-1v-1.078ZM0-1.922v.969h-5.734v-.969Zm0 0"/></defs><g clip-path="url(#a)"><path fill="#FFF" d="M-33.792-22.488h405.504v269.856H-33.792z"/></g><path fill="#FFF" d="M45.816 4.508h255.38v181.015H45.815Zm0 0"/><path fill="none" stroke="#D3D3D3" stroke-width=".751" d="M108.7 4.508v181.015M172.867 4.508v181.015m64.16-181.015v181.015M45.816 144.82h255.38m-255.38-40.707h255.38M45.816 63.41h255.38M45.816 22.7h255.38"/><path fill="none" stroke="#EBF0F8" stroke-width="1.502" d="M45.816 185.523h255.38"/><g clip-path="url(#b)"><path fill="#636EFA" d="M45.18 181.559h1.277v3.964H45.18Zm0 0"/></g><g clip-path="url(#c)"><path fill="#636EFA" d="M46.457 160.234h1.285v25.29h-1.285Zm0 0"/></g><g clip-path="url(#d)"><path fill="#636EFA" d="M47.742 157.5h1.281v28.023h-1.28Zm0 0"/></g><g clip-path="url(#e)"><path fill="#636EFA" d="M49.023 13.559h1.286v171.964h-1.286Zm0 0"/></g><g clip-path="url(#f)"><path fill="#636EFA" d="M50.309 121.762h1.285v63.761h-1.285Zm0 0"/></g><g clip-path="url(#g)"><path fill="#636EFA" d="M51.594 87.25h1.285v98.273h-1.285Zm0 0"/></g><g clip-path="url(#h)"><path fill="#636EFA" d="M52.879 153.078h1.285v32.445H52.88Zm0 0"/></g><g clip-path="url(#i)"><path fill="#636EFA" d="M54.164 35.82h1.277v149.703h-1.277Zm0 0"/></g><g clip-path="url(#j)"><path fill="#636EFA" d="M55.441 137.102h1.282v48.421H55.44Zm0 0"/></g><g clip-path="url(#k)"><path fill="#636EFA" d="M56.723 56.266h1.285v129.257h-1.285Zm0 0"/></g><g clip-path="url(#l)"><path fill="#636EFA" d="M58.008 162.922h1.285v22.601h-1.285Zm0 0"/></g><g clip-path="url(#m)"><path fill="#636EFA" d="M59.293 26.355h1.285v159.168h-1.285Zm0 0"/></g><g clip-path="url(#n)"><path fill="#636EFA" d="M60.578 155.887h1.285v29.636h-1.285Zm0 0"/></g><g clip-path="url(#o)"><path fill="#636EFA" d="M61.863 78.973h1.282v106.55h-1.282Zm0 0"/></g><g clip-path="url(#p)"><path fill="#636EFA" d="M63.145 153.48h1.277v32.043h-1.277Zm0 0"/></g><g clip-path="url(#q)"><path fill="#636EFA" d="M64.422 38.254h1.285v147.27h-1.285Zm0 0"/></g><g clip-path="url(#r)"><path fill="#636EFA" d="M65.707 171.102h1.285v14.421h-1.285Zm0 0"/></g><g clip-path="url(#s)"><path fill="#636EFA" d="M66.992 103.262h1.285v82.261h-1.285Zm0 0"/></g><g clip-path="url(#t)"><path fill="#636EFA" d="M68.277 155.914h1.282v29.61h-1.282Zm0 0"/></g><g clip-path="url(#u)"><path fill="#636EFA" d="M69.559 40.402h1.285v145.121h-1.285Zm0 0"/></g><g clip-path="url(#v)"><path fill="#636EFA" d="M70.844 157.465h1.285v28.058h-1.285Zm0 0"/></g><g clip-path="url(#w)"><path fill="#636EFA" d="M72.129 108.746h1.277v76.777H72.13Zm0 0"/></g><g clip-path="url(#x)"><path fill="#636EFA" d="M73.406 170.285h1.285v15.238h-1.285Zm0 0"/></g><g clip-path="url(#y)"><path fill="#636EFA" d="M74.691 42.797h1.286v142.726H74.69Zm0 0"/></g><g clip-path="url(#z)"><path fill="#636EFA" d="M75.977 164.996h1.28v20.527h-1.28Zm0 0"/></g><g clip-path="url(#A)"><path fill="#636EFA" d="M77.258 139.355h1.285v46.168h-1.285Zm0 0"/></g><g clip-path="url(#B)"><path fill="#636EFA" d="M78.543 174.7h1.285v10.823h-1.285Zm0 0"/></g><g clip-path="url(#C)"><path fill="#636EFA" d="M79.828 47.95h1.277v137.573h-1.277Zm0 0"/></g><g clip-path="url(#D)"><path fill="#636EFA" d="M81.105 169.773h1.286v15.75h-1.286Zm0 0"/></g><g clip-path="url(#E)"><path fill="#636EFA" d="M82.39 136.258h1.282v49.265H82.39Zm0 0"/></g><g clip-path="url(#F)"><path fill="#636EFA" d="M83.672 173.941h1.285v11.582h-1.285Zm0 0"/></g><g clip-path="url(#G)"><path fill="#636EFA" d="M84.957 82.93h1.285v102.593h-1.285Zm0 0"/></g><g clip-path="url(#H)"><path fill="#636EFA" d="M86.242 178.082h1.285v7.441h-1.285Zm0 0"/></g><g clip-path="url(#I)"><path fill="#636EFA" d="M87.527 159.324h1.285v26.2h-1.285Zm0 0"/></g><g clip-path="url(#J)"><path fill="#636EFA" d="M88.813 179.703h1.277v5.82h-1.278Zm0 0"/></g><g clip-path="url(#K)"><path fill="#636EFA" d="M90.09 92.727h1.281v92.796H90.09Zm0 0"/></g><g clip-path="url(#L)"><path fill="#636EFA" d="M91.371 176.465h1.285v9.058h-1.285Zm0 0"/></g><g clip-path="url(#M)"><path fill="#636EFA" d="M92.656 154.219h1.285v31.304h-1.285Zm0 0"/></g><g clip-path="url(#N)"><path fill="#636EFA" d="M93.941 178.262h1.286v7.261H93.94Zm0 0"/></g><g clip-path="url(#O)"><path fill="#636EFA" d="M95.227 97.098h1.285v88.425h-1.285Zm0 0"/></g><g clip-path="url(#P)"><path fill="#636EFA" d="M96.512 179.133h1.281v6.39h-1.281Zm0 0"/></g><g clip-path="url(#Q)"><path fill="#636EFA" d="M97.793 153.07h1.277v32.453h-1.277Zm0 0"/></g><g clip-path="url(#R)"><path fill="#636EFA" d="M99.07 179.742h1.285v5.781H99.07Zm0 0"/></g><g clip-path="url(#S)"><path fill="#636EFA" d="M100.355 133.523h1.286v52h-1.286Zm0 0"/></g><g clip-path="url(#T)"><path fill="#636EFA" d="M101.64 178.703h1.286v6.82h-1.285Zm0 0"/></g><g clip-path="url(#U)"><path fill="#636EFA" d="M102.926 162.719h1.285v22.804h-1.285Zm0 0"/></g><g clip-path="url(#V)"><path fill="#636EFA" d="M104.21 183.164h1.282v2.36h-1.281Zm0 0"/></g><g clip-path="url(#W)"><path fill="#636EFA" d="M105.492 128.29h1.285v57.233h-1.285Zm0 0"/></g><g clip-path="url(#X)"><path fill="#636EFA" d="M106.777 181.844h1.278v3.68h-1.278Zm0 0"/></g><g clip-path="url(#Y)"><path fill="#636EFA" d="M108.055 169.887h1.285v15.636h-1.285Zm0 0"/></g><g clip-path="url(#Z)"><path fill="#636EFA" d="M109.34 183.406h1.285v2.117h-1.285Zm0 0"/></g><g clip-path="url(#aa)"><path fill="#636EFA" d="M110.625 146.047h1.281v39.476h-1.281Zm0 0"/></g><g clip-path="url(#ab)"><path fill="#636EFA" d="M111.906 184.074h1.285v1.45h-1.285Zm0 0"/></g><g clip-path="url(#ac)"><path fill="#636EFA" d="M113.191 166.89h1.286v18.633h-1.286Zm0 0"/></g><g clip-path="url(#ad)"><path fill="#636EFA" d="M114.477 183.383h1.285v2.14h-1.285Zm0 0"/></g><g clip-path="url(#ae)"><path fill="#636EFA" d="M115.762 136.363h1.277v49.16h-1.277Zm0 0"/></g><g clip-path="url(#af)"><path fill="#636EFA" d="M117.04 183.773h1.284v1.75h-1.285Zm0 0"/></g><g clip-path="url(#ag)"><path fill="#636EFA" d="M118.324 176.008h1.281v9.515h-1.28Zm0 0"/></g><g clip-path="url(#ah)"><path fill="#636EFA" d="M119.605 183.258h1.286v2.265h-1.286Zm0 0"/></g><g clip-path="url(#ai)"><path fill="#636EFA" d="M120.89 154.438h1.286v31.085h-1.285Zm0 0"/></g><g clip-path="url(#aj)"><path fill="#636EFA" d="M122.176 184.79h1.285v.733h-1.285Zm0 0"/></g><g clip-path="url(#ak)"><path fill="#636EFA" d="M123.46 176.129h1.286v9.394h-1.285Zm0 0"/></g><g clip-path="url(#al)"><path fill="#636EFA" d="M124.746 181.633h1.274v3.89h-1.274Zm0 0"/></g><g clip-path="url(#am)"><path fill="#636EFA" d="M126.02 137.89h1.285v47.633h-1.285Zm0 0"/></g><g clip-path="url(#an)"><path fill="#636EFA" d="M127.305 183.172h1.285v2.351h-1.285Zm0 0"/></g><g clip-path="url(#ao)"><path fill="#636EFA" d="M128.59 178.313h1.285v7.21h-1.285Zm0 0"/></g><g clip-path="url(#ap)"><path fill="#636EFA" d="M129.875 184.578h1.285v.945h-1.285Zm0 0"/></g><g clip-path="url(#aq)"><path fill="#636EFA" d="M131.16 162.352h1.285v23.171h-1.285Zm0 0"/></g><g clip-path="url(#ar)"><path fill="#636EFA" d="M132.445 184.09h1.282v1.433h-1.282Zm0 0"/></g><g clip-path="url(#as)"><path fill="#636EFA" d="M133.727 177.043h1.277v8.48h-1.277Zm0 0"/></g><g clip-path="url(#at)"><path fill="#636EFA" d="M135.004 184.652h1.285v.871h-1.285Zm0 0"/></g><g clip-path="url(#au)"><path fill="#636EFA" d="M136.29 154.602h1.284v30.921h-1.285Zm0 0"/></g><g clip-path="url(#av)"><path fill="#636EFA" d="M137.574 184.684h1.285v.84h-1.285Zm0 0"/></g><g clip-path="url(#aw)"><path fill="#636EFA" d="M138.86 181.176h1.28v4.347h-1.28Zm0 0"/></g><g clip-path="url(#ax)"><path fill="#636EFA" d="M140.14 184.164h1.286v1.36h-1.285Zm0 0"/></g><g clip-path="url(#ay)"><path fill="#636EFA" d="M141.426 168.977h1.277v16.546h-1.277Zm0 0"/></g><g clip-path="url(#az)"><path fill="#636EFA" d="M142.703 183.953h1.285v1.57h-1.285Zm0 0"/></g><g clip-path="url(#aA)"><path fill="#636EFA" d="M143.988 178.27h1.285v7.253h-1.285Zm0 0"/></g><g clip-path="url(#aB)"><path fill="#636EFA" d="M145.273 183.855h1.286v1.668h-1.286Zm0 0"/></g><g clip-path="url(#aC)"><path fill="#636EFA" d="M146.559 150.059h1.28v35.464h-1.28Zm0 0"/></g><g clip-path="url(#aD)"><path fill="#636EFA" d="M147.84 184.324h1.285v1.2h-1.285Zm0 0"/></g><g clip-path="url(#aE)"><path fill="#636EFA" d="M149.125 181.898h1.285v3.625h-1.285Zm0 0"/></g><g clip-path="url(#aF)"><path fill="#636EFA" d="M150.41 183.805h1.278v1.718h-1.278Zm0 0"/></g><g clip-path="url(#aG)"><path fill="#636EFA" d="M151.688 169.668h1.285v15.855h-1.286Zm0 0"/></g><g clip-path="url(#aH)"><path fill="#636EFA" d="M152.973 185.059h1.28v.464h-1.28Zm0 0"/></g><g clip-path="url(#aI)"><path fill="#636EFA" d="M154.254 180.89h1.285v4.633h-1.285Zm0 0"/></g><g clip-path="url(#aJ)"><path fill="#636EFA" d="M155.54 184.871h1.284v.652h-1.285Zm0 0"/></g><g clip-path="url(#aK)"><path fill="#636EFA" d="M156.824 169.457h1.285v16.066h-1.285Zm0 0"/></g><g clip-path="url(#aL)"><path fill="#636EFA" d="M158.11 185.098h1.285v.425h-1.286Zm0 0"/></g><g clip-path="url(#aM)"><path fill="#636EFA" d="M159.395 179.164h1.277v6.36h-1.277Zm0 0"/></g><g clip-path="url(#aN)"><path fill="#636EFA" d="M160.672 185.074h1.281v.45h-1.281Zm0 0"/></g><g clip-path="url(#aO)"><path fill="#636EFA" d="M161.953 176.156h1.285v9.367h-1.285Zm0 0"/></g><g clip-path="url(#aP)"><path fill="#636EFA" d="M163.238 184.953h1.285v.57h-1.285Zm0 0"/></g><g clip-path="url(#aQ)"><path fill="#636EFA" d="M164.523 182.754h1.286v2.77h-1.286Zm0 0"/></g><g clip-path="url(#aR)"><path fill="#636EFA" d="M165.809 184.855h1.285v.668h-1.285Zm0 0"/></g><g clip-path="url(#aS)"><path fill="#636EFA" d="M167.094 171.629h1.281v13.894h-1.281Zm0 0"/></g><g clip-path="url(#aT)"><path fill="#636EFA" d="M168.375 184.96h1.277v.563h-1.277Zm0 0"/></g><g clip-path="url(#aU)"><path fill="#636EFA" d="M169.652 183.031h1.286v2.492h-1.286Zm0 0"/></g><g clip-path="url(#aV)"><path fill="#636EFA" d="M170.938 185.156h1.285v.367h-1.286Zm0 0"/></g><g clip-path="url(#aW)"><path fill="#636EFA" d="M172.223 168.527h1.285v16.996h-1.285Zm0 0"/></g><g clip-path="url(#aX)"><path fill="#636EFA" d="M173.508 185.313h1.285v.21h-1.285Zm0 0"/></g><g clip-path="url(#aY)"><path fill="#636EFA" d="M174.793 182.79h1.281v2.733h-1.281Zm0 0"/></g><g clip-path="url(#aZ)"><path fill="#636EFA" d="M176.074 185.18h1.285v.343h-1.285Zm0 0"/></g><g clip-path="url(#ba)"><path fill="#636EFA" d="M177.36 177.09h1.277v8.433h-1.278Zm0 0"/></g><g clip-path="url(#bb)"><path fill="#636EFA" d="M178.637 182.95h1.285v2.573h-1.285Zm0 0"/></g><g clip-path="url(#bc)"><path fill="#636EFA" d="M179.922 182.887h1.285v2.636h-1.285Zm0 0"/></g><g clip-path="url(#bd)"><path fill="#636EFA" d="M181.207 185.32h1.281v.203h-1.281Zm0 0"/></g><g clip-path="url(#be)"><path fill="#636EFA" d="M182.488 178.293h1.285v7.23h-1.285Zm0 0"/></g><g clip-path="url(#bf)"><path fill="#636EFA" d="M183.773 185.305h1.286v.218h-1.286Zm0 0"/></g><g clip-path="url(#bg)"><path fill="#636EFA" d="M185.059 184.61h1.285v.913h-1.285Zm0 0"/></g><g clip-path="url(#bh)"><path fill="#636EFA" d="M186.344 185.18h1.277v.343h-1.277Zm0 0"/></g><g clip-path="url(#bi)"><path fill="#636EFA" d="M187.621 177.645h1.285v7.878h-1.285Zm0 0"/></g><g clip-path="url(#bj)"><path fill="#636EFA" d="M188.906 185.344h1.281v.18h-1.28Zm0 0"/></g><g clip-path="url(#bk)"><path fill="#636EFA" d="M190.188 184.52h1.285v1.003h-1.286Zm0 0"/></g><g clip-path="url(#bl)"><path fill="#636EFA" d="M191.473 185.465h1.285v.058h-1.285Zm0 0"/></g><g clip-path="url(#bm)"><path fill="#636EFA" d="M192.758 181.535h1.285v3.988h-1.285Zm0 0"/></g><g clip-path="url(#bn)"><path fill="#636EFA" d="M194.043 185.172h1.285v.351h-1.285Zm0 0"/></g><g clip-path="url(#bo)"><path fill="#636EFA" d="M195.328 184.61h1.274v.913h-1.274Zm0 0"/></g><g clip-path="url(#bp)"><path fill="#636EFA" d="M196.602 185.3h1.285v.223h-1.285Zm0 0"/></g><g clip-path="url(#bq)"><path fill="#636EFA" d="M197.887 180.46h1.285v5.063h-1.285Zm0 0"/></g><g clip-path="url(#br)"><path fill="#636EFA" d="M199.172 185.402h1.285v.121h-1.285Zm0 0"/></g><g clip-path="url(#bs)"><path fill="#636EFA" d="M200.457 185.066h1.285v.457h-1.285Zm0 0"/></g><g clip-path="url(#bt)"><path fill="#636EFA" d="M201.742 185.305h1.281v.218h-1.28Zm0 0"/></g><g clip-path="url(#bu)"><path fill="#636EFA" d="M203.023 183.316h1.286v2.207h-1.286Zm0 0"/></g><g clip-path="url(#bv)"><path fill="#636EFA" d="M204.309 185.344h1.277v.18h-1.277Zm0 0"/></g><g clip-path="url(#bw)"><path fill="#636EFA" d="M205.586 184.457h1.285v1.066h-1.285Zm0 0"/></g><g clip-path="url(#bx)"><path fill="#636EFA" d="M206.871 185.441h1.285v.082h-1.285Zm0 0"/></g><g clip-path="url(#by)"><path fill="#636EFA" d="M208.156 181.52h1.285v4.003h-1.285Zm0 0"/></g><g clip-path="url(#bz)"><path fill="#636EFA" d="M209.441 185.465h1.282v.058h-1.282Zm0 0"/></g><g clip-path="url(#bA)"><path fill="#636EFA" d="M210.723 185.195h1.285v.328h-1.285Zm0 0"/></g><g clip-path="url(#bB)"><path fill="#636EFA" d="M213.285 183.129h1.285v2.394h-1.285Zm0 0"/></g><g clip-path="url(#bC)"><path fill="#636EFA" d="M214.57 185.434h1.285v.09h-1.285Zm0 0"/></g><g clip-path="url(#bD)"><path fill="#636EFA" d="M215.855 185.27h1.286v.253h-1.286Zm0 0"/></g><g clip-path="url(#bE)"><path fill="#636EFA" d="M217.14 185.45h1.282v.073h-1.281Zm0 0"/></g><g clip-path="url(#bF)"><path fill="#636EFA" d="M218.422 182.422h1.285v3.101h-1.285Zm0 0"/></g><g clip-path="url(#bG)"><path fill="#636EFA" d="M220.992 184.96h1.278v.563h-1.278Zm0 0"/></g><g clip-path="url(#bH)"><path fill="#636EFA" d="M222.27 185.441h1.285v.082h-1.285Zm0 0"/></g><g clip-path="url(#bI)"><path fill="#636EFA" d="M223.555 183.195h1.28v2.328h-1.28Zm0 0"/></g><g clip-path="url(#bJ)"><path fill="#636EFA" d="M226.121 185h1.285v.523h-1.285Zm0 0"/></g><g clip-path="url(#bK)"><path fill="#636EFA" d="M227.406 185.457h1.285v.066h-1.285Zm0 0"/></g><g clip-path="url(#bL)"><path fill="#636EFA" d="M228.691 175.438h1.286v10.085h-1.286Zm0 0"/></g><g clip-path="url(#bM)"><path fill="#636EFA" d="M229.977 185.426h1.277v.097h-1.277Zm0 0"/></g><g clip-path="url(#bN)"><path fill="#636EFA" d="M231.254 185.195h1.281v.328h-1.281Zm0 0"/></g><g clip-path="url(#bO)"><path fill="#636EFA" d="M232.535 185.48h1.285v.043h-1.285Zm0 0"/></g><g clip-path="url(#bP)"><path fill="#636EFA" d="M233.82 183.992h1.285v1.531h-1.285Zm0 0"/></g><g clip-path="url(#bQ)"><path fill="#636EFA" d="M236.39 184.652h1.286v.871h-1.285Zm0 0"/></g><g clip-path="url(#bR)"><path fill="#636EFA" d="M237.676 185.48h1.281v.043h-1.281Zm0 0"/></g><g clip-path="url(#bS)"><path fill="#636EFA" d="M238.957 182.844h1.277v2.68h-1.277Zm0 0"/></g><g clip-path="url(#bT)"><path fill="#636EFA" d="M240.234 185.441h1.286v.082h-1.286Zm0 0"/></g><g clip-path="url(#bU)"><path fill="#636EFA" d="M241.52 185.3h1.285v.223h-1.285Zm0 0"/></g><g clip-path="url(#bV)"><path fill="#636EFA" d="M242.805 185.508h1.285v.015h-1.285Zm0 0"/></g><g clip-path="url(#bW)"><path fill="#636EFA" d="M244.09 184.074h1.281v1.45h-1.281Zm0 0"/></g><g clip-path="url(#bX)"><path fill="#636EFA" d="M245.371 185.516h1.285v.007h-1.285Zm0 0"/></g><g clip-path="url(#bY)"><path fill="#636EFA" d="M246.656 185.41h1.285v.113h-1.285Zm0 0"/></g><g clip-path="url(#bZ)"><path fill="#636EFA" d="M247.941 185.465h1.278v.058h-1.278Zm0 0"/></g><g clip-path="url(#ca)"><path fill="#636EFA" d="M249.219 182.137h1.285v3.386h-1.285Zm0 0"/></g><g clip-path="url(#cb)"><path fill="#636EFA" d="M250.504 185.32h1.285v.203h-1.285Zm0 0"/></g><g clip-path="url(#cc)"><path fill="#636EFA" d="M251.79 185.215h1.28v.308h-1.28Zm0 0"/></g><g clip-path="url(#cd)"><path fill="#636EFA" d="M254.355 184.031h1.286v1.492h-1.286Zm0 0"/></g><g clip-path="url(#ce)"><path fill="#636EFA" d="M255.64 185.488h1.286v.035h-1.285Zm0 0"/></g><g clip-path="url(#cf)"><path fill="#636EFA" d="M256.926 185.426h1.277v.097h-1.277Zm0 0"/></g><g clip-path="url(#cg)"><path fill="#636EFA" d="M258.203 185.5h1.281v.023h-1.28Zm0 0"/></g><g clip-path="url(#ch)"><path fill="#636EFA" d="M259.484 182.887h1.286v2.636h-1.286Zm0 0"/></g><g clip-path="url(#ci)"><path fill="#636EFA" d="M260.77 185.496h1.285v.027h-1.285Zm0 0"/></g><g clip-path="url(#cj)"><path fill="#636EFA" d="M262.055 185.496h1.285v.027h-1.285Zm0 0"/></g><g clip-path="url(#ck)"><path fill="#636EFA" d="M263.34 185.496h1.285v.027h-1.285Zm0 0"/></g><g clip-path="url(#cl)"><path fill="#636EFA" d="M264.625 184.96h1.285v.563h-1.285Zm0 0"/></g><g clip-path="url(#cm)"><path fill="#636EFA" d="M267.184 185.125h1.285v.398h-1.285Zm0 0"/></g><g clip-path="url(#cn)"><path fill="#636EFA" d="M268.469 185.48h1.285v.043h-1.285Zm0 0"/></g><g clip-path="url(#co)"><path fill="#636EFA" d="M269.754 183.75h1.285v1.773h-1.285Zm0 0"/></g><g clip-path="url(#cp)"><path fill="#636EFA" d="M271.04 185.488h1.284v.035h-1.285Zm0 0"/></g><g clip-path="url(#cq)"><path fill="#636EFA" d="M272.324 185.32h1.281v.203h-1.28Zm0 0"/></g><g clip-path="url(#cr)"><path fill="#636EFA" d="M274.883 184.715h1.285v.808h-1.285Zm0 0"/></g><g clip-path="url(#cs)"><path fill="#636EFA" d="M277.453 185.23h1.285v.293h-1.285Zm0 0"/></g><g clip-path="url(#ct)"><path fill="#636EFA" d="M280.023 184.586h1.282v.937h-1.282Zm0 0"/></g><g clip-path="url(#cu)"><path fill="#636EFA" d="M281.305 185.434h1.285v.09h-1.285Zm0 0"/></g><g clip-path="url(#cv)"><path fill="#636EFA" d="M282.59 185.36h1.277v.163h-1.277Zm0 0"/></g><g clip-path="url(#cw)"><path fill="#636EFA" d="M285.152 185.059h1.286v.464h-1.286Zm0 0"/></g><g clip-path="url(#cx)"><path fill="#636EFA" d="M286.438 185.5h1.28v.023h-1.28Zm0 0"/></g><g clip-path="url(#cy)"><path fill="#636EFA" d="M287.719 185.473h1.285v.05h-1.285Zm0 0"/></g><g clip-path="url(#cz)"><path fill="#636EFA" d="M289.004 185.488h1.285v.035h-1.285Zm0 0"/></g><g clip-path="url(#cA)"><path fill="#636EFA" d="M290.29 183.457h1.284v2.066h-1.285Zm0 0"/></g><g clip-path="url(#cB)"><path fill="#636EFA" d="M292.852 185.48h1.285v.043h-1.285Zm0 0"/></g><g clip-path="url(#cC)"><path fill="#636EFA" d="M294.137 185.473h1.281v.05h-1.281Zm0 0"/></g><g clip-path="url(#cD)"><path fill="#636EFA" d="M295.418 185.254h1.285v.27h-1.285Zm0 0"/></g><g clip-path="url(#cE)"><path fill="#636EFA" d="M296.703 185.5h1.285v.023h-1.285Zm0 0"/></g><g clip-path="url(#cF)"><path fill="#636EFA" d="M297.988 185.367h1.285v.156h-1.285Zm0 0"/></g><g clip-path="url(#cG)"><path fill="#636EFA" d="M300.559 184.797h1.273v.726h-1.273Zm0 0"/></g><path fill="none" stroke="#000" stroke-width=".751" d="M45.066 185.898h256.88M45.065 4.133h256.88m-256.504.375v181.015M301.571 4.508v181.015"/><path fill="none" stroke="#444" stroke-width=".751" d="M108.7 186.277v3.754m64.167-3.754v3.754m64.16-3.754v3.754m64.168-3.754v3.754"/><g fill="#2A3F5F"><use xlink:href="#cH" x="102.971" y="200.847"/><use xlink:href="#cI" x="108.701" y="200.847"/></g><g fill="#2A3F5F"><use xlink:href="#cJ" x="164.273" y="200.847"/><use xlink:href="#cI" x="170.003" y="200.847"/><use xlink:href="#cI" x="175.733" y="200.847"/></g><g fill="#2A3F5F"><use xlink:href="#cJ" x="228.433" y="200.847"/><use xlink:href="#cH" x="234.163" y="200.847"/><use xlink:href="#cI" x="239.893" y="200.847"/></g><g fill="#2A3F5F"><use xlink:href="#cK" x="292.6" y="200.847"/><use xlink:href="#cI" x="298.33" y="200.847"/><use xlink:href="#cI" x="304.061" y="200.847"/></g><path fill="none" stroke="#444" stroke-width=".751" d="M45.066 185.523h-3.754m3.754-40.703h-3.754m3.754-40.707h-3.754m3.754-40.703h-3.754m3.754-40.71h-3.754"/><use xlink:href="#cI" x="33.778" y="188.679" fill="#2A3F5F"/><g fill="#2A3F5F"><use xlink:href="#cK" x="22.714" y="147.976"/><use xlink:href="#cI" x="28.444" y="147.976"/><use xlink:href="#cL" x="34.174" y="147.976"/></g><g fill="#2A3F5F"><use xlink:href="#cM" x="22.714" y="107.266"/><use xlink:href="#cI" x="28.444" y="107.266"/><use xlink:href="#cL" x="34.174" y="107.266"/></g><g fill="#2A3F5F"><use xlink:href="#cN" x="22.714" y="66.563"/><use xlink:href="#cI" x="28.444" y="66.563"/><use xlink:href="#cL" x="34.174" y="66.563"/></g><g fill="#2A3F5F"><use xlink:href="#cO" x="22.714" y="25.853"/><use xlink:href="#cI" x="28.444" y="25.853"/><use xlink:href="#cL" x="34.174" y="25.853"/></g><path fill="#FFF" d="M147.969 4.508h153.226v108.61H147.97Zm0 0"/><path fill="none" stroke="#D3D3D3" stroke-width=".751" d="M182.387 4.508v108.61m34.586-108.61v108.61m34.589-108.61v108.61m34.59-108.61v108.61m-138.183-5.43h153.226M147.969 68.004h153.226m-153.226-39.68h153.226"/><g clip-path="url(#cP)"><path fill="#636EFA" d="M147.969 42.414h.344v1102.504h-.344Zm0 0"/></g><g clip-path="url(#cQ)"><path fill="#636EFA" d="M148.313 26.453h.347v1118.465h-.347Zm0 0"/></g><g clip-path="url(#cR)"><path fill="#636EFA" d="M148.66 25.566h.344v1119.352h-.344Zm0 0"/></g><g clip-path="url(#cS)"><path fill="#636EFA" d="M149.004 9.938h.348v1134.98h-.348Zm0 0"/></g><g clip-path="url(#cT)"><path fill="#636EFA" d="M149.352 18.484h.343v1126.434h-.343Zm0 0"/></g><g clip-path="url(#cU)"><path fill="#636EFA" d="M149.695 14.758h.348v1130.16h-.348Zm0 0"/></g><g clip-path="url(#cV)"><path fill="#636EFA" d="M150.043 24.305h.344v1120.613h-.344Zm0 0"/></g><g clip-path="url(#cW)"><path fill="#636EFA" d="M150.387 11.133h.347v1133.785h-.347Zm0 0"/></g><g clip-path="url(#cX)"><path fill="#636EFA" d="M150.734 20.86h.344v1124.058h-.344Zm0 0"/></g><g clip-path="url(#cY)"><path fill="#636EFA" d="M151.078 12.395h.348v1132.523h-.348Zm0 0"/></g><g clip-path="url(#cZ)"><path fill="#636EFA" d="M151.426 27.422h.351v1117.496h-.351Zm0 0"/></g><g clip-path="url(#da)"><path fill="#636EFA" d="M151.777 10.605h.344v1134.313h-.344Zm0 0"/></g><g clip-path="url(#db)"><path fill="#636EFA" d="M152.121 25.086h.348v1119.832h-.348Zm0 0"/></g><g clip-path="url(#dc)"><path fill="#636EFA" d="M152.469 14.063h.344v1130.855h-.344Zm0 0"/></g><g clip-path="url(#dd)"><path fill="#636EFA" d="M152.813 24.41h.347v1120.508h-.347Zm0 0"/></g><g clip-path="url(#de)"><path fill="#636EFA" d="M153.16 11.273h.344v1133.645h-.344Zm0 0"/></g><g clip-path="url(#df)"><path fill="#636EFA" d="M153.504 31.293h.348v1113.625h-.348Zm0 0"/></g><g clip-path="url(#dg)"><path fill="#636EFA" d="M153.852 16.293h.343v1128.625h-.343Zm0 0"/></g><g clip-path="url(#dh)"><path fill="#636EFA" d="M154.195 25.094h.348v1119.824h-.348Zm0 0"/></g><g clip-path="url(#di)"><path fill="#636EFA" d="M154.543 11.402h.344v1133.516h-.344Zm0 0"/></g><g clip-path="url(#dj)"><path fill="#636EFA" d="M154.887 25.559h.343v1119.359h-.343Zm0 0"/></g><g clip-path="url(#dk)"><path fill="#636EFA" d="M155.23 16.887h.348v1128.031h-.348Zm0 0"/></g><g clip-path="url(#dl)"><path fill="#636EFA" d="M155.578 30.816h.344v1114.102h-.344Zm0 0"/></g><g clip-path="url(#dm)"><path fill="#636EFA" d="M155.922 11.543h.348v1133.375h-.348Zm0 0"/></g><g clip-path="url(#dn)"><path fill="#636EFA" d="M156.27 28.25h.343v1116.668h-.343Zm0 0"/></g><g clip-path="url(#do)"><path fill="#636EFA" d="M156.613 21.266h.348v1123.652h-.348Zm0 0"/></g><g clip-path="url(#dp)"><path fill="#636EFA" d="M156.96 33.762h.345v1111.156h-.344Zm0 0"/></g><g clip-path="url(#dq)"><path fill="#636EFA" d="M157.305 11.86h.347v1133.058h-.347Zm0 0"/></g><g clip-path="url(#dr)"><path fill="#636EFA" d="M157.652 30.531h.344v1114.387h-.344Zm0 0"/></g><g clip-path="url(#ds)"><path fill="#636EFA" d="M157.996 20.707h.344v1124.211h-.344Zm0 0"/></g><g clip-path="url(#dt)"><path fill="#636EFA" d="M158.34 33.184h.355v1111.734h-.355Zm0 0"/></g><g clip-path="url(#du)"><path fill="#636EFA" d="M158.695 14.39h.344v1130.528h-.344Zm0 0"/></g><g clip-path="url(#dv)"><path fill="#636EFA" d="M159.04 36.992h.347v1107.926h-.348Zm0 0"/></g><g clip-path="url(#dw)"><path fill="#636EFA" d="M159.387 26.152h.343v1118.766h-.343Zm0 0"/></g><g clip-path="url(#dx)"><path fill="#636EFA" d="M159.73 39.11h.348v1105.808h-.348Zm0 0"/></g><g clip-path="url(#dy)"><path fill="#636EFA" d="M160.078 15.254h.344v1129.664h-.344Zm0 0"/></g><g clip-path="url(#dz)"><path fill="#636EFA" d="M160.422 35.3h.348v1109.618h-.348Zm0 0"/></g><g clip-path="url(#dA)"><path fill="#636EFA" d="M160.77 24.613h.343v1120.305h-.343Zm0 0"/></g><g clip-path="url(#dB)"><path fill="#636EFA" d="M161.113 37.21h.344v1107.708h-.344Zm0 0"/></g><g clip-path="url(#dC)"><path fill="#636EFA" d="M161.457 15.668h.348v1129.25h-.348Zm0 0"/></g><g clip-path="url(#dD)"><path fill="#636EFA" d="M161.805 38.309h.343v1106.609h-.343Zm0 0"/></g><g clip-path="url(#dE)"><path fill="#636EFA" d="M162.148 24.305h.348v1120.613h-.348Zm0 0"/></g><g clip-path="url(#dF)"><path fill="#636EFA" d="M162.496 39.172h.344v1105.746h-.344Zm0 0"/></g><g clip-path="url(#dG)"><path fill="#636EFA" d="M162.84 20.242h.347v1124.676h-.347Zm0 0"/></g><g clip-path="url(#dH)"><path fill="#636EFA" d="M163.188 37.742h.343v1107.176h-.344Zm0 0"/></g><g clip-path="url(#dI)"><path fill="#636EFA" d="M163.531 27.348h.348v1117.57h-.348Zm0 0"/></g><g clip-path="url(#dJ)"><path fill="#636EFA" d="M163.879 46.883h.344v1098.035h-.344Zm0 0"/></g><g clip-path="url(#dK)"><path fill="#636EFA" d="M164.223 19.418h.347v1125.5h-.347Zm0 0"/></g><g clip-path="url(#dL)"><path fill="#636EFA" d="M164.57 43.063h.344v1101.855h-.344Zm0 0"/></g><g clip-path="url(#dM)"><path fill="#636EFA" d="M164.914 30.602h.344v1114.316h-.344Zm0 0"/></g><g clip-path="url(#dN)"><path fill="#636EFA" d="M165.258 47.809h.355v1097.109h-.355Zm0 0"/></g><g clip-path="url(#dO)"><path fill="#636EFA" d="M165.613 22.617h.344v1122.301h-.344Zm0 0"/></g><g clip-path="url(#dP)"><path fill="#636EFA" d="M165.957 51.105h.348v1093.813h-.348Zm0 0"/></g><g clip-path="url(#dQ)"><path fill="#636EFA" d="M166.305 29.082h.343v1115.836h-.343Zm0 0"/></g><g clip-path="url(#dR)"><path fill="#636EFA" d="M166.648 47.742h.348v1097.176h-.348Zm0 0"/></g><g clip-path="url(#dS)"><path fill="#636EFA" d="M166.996 20.73h.344v1124.188h-.344Zm0 0"/></g><g clip-path="url(#dT)"><path fill="#636EFA" d="M167.34 49.453h.344v1095.465h-.344Zm0 0"/></g><g clip-path="url(#dU)"><path fill="#636EFA" d="M167.684 34.875h.347v1110.043h-.347Zm0 0"/></g><g clip-path="url(#dV)"><path fill="#636EFA" d="M168.031 47.223h.344v1097.695h-.344Zm0 0"/></g><g clip-path="url(#dW)"><path fill="#636EFA" d="M168.375 24.676h.348v1120.242h-.348Zm0 0"/></g><g clip-path="url(#dX)"><path fill="#636EFA" d="M168.723 56.918h.343v1088h-.343Zm0 0"/></g><g clip-path="url(#dY)"><path fill="#636EFA" d="M169.066 34.988h.348v1109.93h-.348Zm0 0"/></g><g clip-path="url(#dZ)"><path fill="#636EFA" d="M169.414 42.59h.344v1102.328h-.344Zm0 0"/></g><g clip-path="url(#ea)"><path fill="#636EFA" d="M169.758 21h.347v1123.918h-.347Zm0 0"/></g><g clip-path="url(#eb)"><path fill="#636EFA" d="M170.105 46.93h.344v1097.988h-.344Zm0 0"/></g><g clip-path="url(#ec)"><path fill="#636EFA" d="M170.45 37.262h.347v1107.656h-.348Zm0 0"/></g><g clip-path="url(#ed)"><path fill="#636EFA" d="M170.797 54.777h.344v1090.141h-.344Zm0 0"/></g><g clip-path="url(#ee)"><path fill="#636EFA" d="M171.14 27.207h.344v1117.711h-.343Zm0 0"/></g><g clip-path="url(#ef)"><path fill="#636EFA" d="M171.484 51.164h.348v1093.754h-.348Zm0 0"/></g><g clip-path="url(#eg)"><path fill="#636EFA" d="M171.832 35.875h.344v1109.043h-.344Zm0 0"/></g><g clip-path="url(#eh)"><path fill="#636EFA" d="M172.176 55.453h.355v1089.465h-.355Zm0 0"/></g><g clip-path="url(#ei)"><path fill="#636EFA" d="M172.531 24.719h.344v1120.199h-.344Zm0 0"/></g><g clip-path="url(#ej)"><path fill="#636EFA" d="M172.875 55.785h.348v1089.133h-.348Zm0 0"/></g><g clip-path="url(#ek)"><path fill="#636EFA" d="M173.223 41.617h.343v1103.301h-.343Zm0 0"/></g><g clip-path="url(#el)"><path fill="#636EFA" d="M173.566 51.633h.348v1093.285h-.348Zm0 0"/></g><g clip-path="url(#em)"><path fill="#636EFA" d="M173.914 30.113h.344v1114.805h-.344Zm0 0"/></g><g clip-path="url(#en)"><path fill="#636EFA" d="M174.258 50.414h.344v1094.504h-.344Zm0 0"/></g><g clip-path="url(#eo)"><path fill="#636EFA" d="M174.602 37.21h.347v1107.708h-.347Zm0 0"/></g><g clip-path="url(#ep)"><path fill="#636EFA" d="M174.95 49.867h.343v1095.051h-.344Zm0 0"/></g><g clip-path="url(#eq)"><path fill="#636EFA" d="M175.293 23.54h.348v1121.378h-.348Zm0 0"/></g><g clip-path="url(#er)"><path fill="#636EFA" d="M175.64 52.684h.344v1092.234h-.343Zm0 0"/></g><g clip-path="url(#es)"><path fill="#636EFA" d="M175.984 43.18h.348v1101.738h-.348Zm0 0"/></g><g clip-path="url(#et)"><path fill="#636EFA" d="M176.332 49.625h.344v1095.293h-.344Zm0 0"/></g><g clip-path="url(#eu)"><path fill="#636EFA" d="M176.676 30.48h.347v1114.438h-.347Zm0 0"/></g><g clip-path="url(#ev)"><path fill="#636EFA" d="M177.023 60.871h.344v1084.047h-.344Zm0 0"/></g><g clip-path="url(#ew)"><path fill="#636EFA" d="M177.367 41.078h.344v1103.84h-.344Zm0 0"/></g><g clip-path="url(#ex)"><path fill="#636EFA" d="M177.71 57.957h.349v1086.961h-.348Zm0 0"/></g><g clip-path="url(#ey)"><path fill="#636EFA" d="M178.059 30.367h.343v1114.551h-.343Zm0 0"/></g><g clip-path="url(#ez)"><path fill="#636EFA" d="M178.402 61.531h.348v1083.387h-.348Zm0 0"/></g><g clip-path="url(#eA)"><path fill="#636EFA" d="M178.75 38.344h.344v1106.574h-.344Zm0 0"/></g><g clip-path="url(#eB)"><path fill="#636EFA" d="M179.094 61.172h.355v1083.746h-.355Zm0 0"/></g><g clip-path="url(#eC)"><path fill="#636EFA" d="M179.45 35.008h.343v1109.91h-.344Zm0 0"/></g><g clip-path="url(#eD)"><path fill="#636EFA" d="M179.793 59.074h.348v1085.844h-.348Zm0 0"/></g><g clip-path="url(#eE)"><path fill="#636EFA" d="M180.14 45.512h.344v1099.406h-.343Zm0 0"/></g><g clip-path="url(#eF)"><path fill="#636EFA" d="M180.484 57.797h.344v1087.121h-.344Zm0 0"/></g><g clip-path="url(#eG)"><path fill="#636EFA" d="M180.828 31.613h.348v1113.305h-.348Zm0 0"/></g><g clip-path="url(#eH)"><path fill="#636EFA" d="M181.176 59.227h.344v1085.691h-.344Zm0 0"/></g><g clip-path="url(#eI)"><path fill="#636EFA" d="M181.52 46.426h.347v1098.492h-.347Zm0 0"/></g><g clip-path="url(#eJ)"><path fill="#636EFA" d="M181.867 62.941h.344v1081.977h-.344Zm0 0"/></g><g clip-path="url(#eK)"><path fill="#636EFA" d="M182.21 29.879h.349v1115.039h-.348Zm0 0"/></g><g clip-path="url(#eL)"><path fill="#636EFA" d="M182.559 67.668h.343v1077.25h-.343Zm0 0"/></g><g clip-path="url(#eM)"><path fill="#636EFA" d="M182.902 45.613h.348v1099.305h-.348Zm0 0"/></g><g clip-path="url(#eN)"><path fill="#636EFA" d="M183.25 63.535h.344v1081.383h-.344Zm0 0"/></g><g clip-path="url(#eO)"><path fill="#636EFA" d="M183.594 35.91h.347v1109.008h-.347Zm0 0"/></g><g clip-path="url(#eP)"><path fill="#636EFA" d="M183.941 46.148h.344v1098.77h-.344Zm0 0"/></g><g clip-path="url(#eQ)"><path fill="#636EFA" d="M184.285 45.945h.344v1098.973h-.344Zm0 0"/></g><g clip-path="url(#eR)"><path fill="#636EFA" d="M184.629 67.922h.348v1076.996h-.348Zm0 0"/></g><g clip-path="url(#eS)"><path fill="#636EFA" d="M184.977 37.238h.343v1107.68h-.343Zm0 0"/></g><g clip-path="url(#eT)"><path fill="#636EFA" d="M185.32 67.418h.348v1077.5h-.348Zm0 0"/></g><g clip-path="url(#eU)"><path fill="#636EFA" d="M185.668 55.05h.344v1089.868h-.344Zm0 0"/></g><g clip-path="url(#eV)"><path fill="#636EFA" d="M186.012 63.43h.355v1081.488h-.355Zm0 0"/></g><g clip-path="url(#eW)"><path fill="#636EFA" d="M186.367 36.496h.344v1108.422h-.344Zm0 0"/></g><g clip-path="url(#eX)"><path fill="#636EFA" d="M186.71 69.11h.349v1075.808h-.348Zm0 0"/></g><g clip-path="url(#eY)"><path fill="#636EFA" d="M187.059 54.262h.343v1090.656h-.343Zm0 0"/></g><g clip-path="url(#eZ)"><path fill="#636EFA" d="M187.402 78.672h.344v1066.246h-.344Zm0 0"/></g><g clip-path="url(#fa)"><path fill="#636EFA" d="M187.746 42.363h.348v1102.555h-.348Zm0 0"/></g><g clip-path="url(#fb)"><path fill="#636EFA" d="M188.094 63.234h.344v1081.684h-.344Zm0 0"/></g><g clip-path="url(#fc)"><path fill="#636EFA" d="M188.438 55.012h.347v1089.906h-.347Zm0 0"/></g><g clip-path="url(#fd)"><path fill="#636EFA" d="M188.785 67.262h.344v1077.656h-.344Zm0 0"/></g><g clip-path="url(#fe)"><path fill="#636EFA" d="M189.129 40.32h.348v1104.598h-.348Zm0 0"/></g><g clip-path="url(#ff)"><path fill="#636EFA" d="M189.477 72.55h.343v1072.368h-.343Zm0 0"/></g><g clip-path="url(#fg)"><path fill="#636EFA" d="M189.82 61.059h.348v1083.859h-.348Zm0 0"/></g><g clip-path="url(#fh)"><path fill="#636EFA" d="M190.168 67.418h.344v1077.5h-.344Zm0 0"/></g><g clip-path="url(#fi)"><path fill="#636EFA" d="M190.512 47.457h.343v1097.461h-.343Zm0 0"/></g><g clip-path="url(#fj)"><path fill="#636EFA" d="M190.855 69.207h.348v1075.711h-.348Zm0 0"/></g><g clip-path="url(#fk)"><path fill="#636EFA" d="M191.203 53.75h.344v1091.168h-.344Zm0 0"/></g><g clip-path="url(#fl)"><path fill="#636EFA" d="M191.547 75.691h.348v1069.227h-.348Zm0 0"/></g><g clip-path="url(#fm)"><path fill="#636EFA" d="M191.895 42.34h.343v1102.578h-.343Zm0 0"/></g><g clip-path="url(#fn)"><path fill="#636EFA" d="M192.238 78.672h.348v1066.246h-.348Zm0 0"/></g><g clip-path="url(#fo)"><path fill="#636EFA" d="M192.586 63.906h.344v1081.012h-.344Zm0 0"/></g><g clip-path="url(#fp)"><path fill="#636EFA" d="M193.285 46.75h.344v1098.168h-.344Zm0 0"/></g><g clip-path="url(#fq)"><path fill="#636EFA" d="M193.629 74.7h.344v1070.218h-.344Zm0 0"/></g><g clip-path="url(#fr)"><path fill="#636EFA" d="M193.973 66.148h.347v1078.77h-.347Zm0 0"/></g><g clip-path="url(#fs)"><path fill="#636EFA" d="M194.32 76.344h.344v1068.574h-.344Zm0 0"/></g><g clip-path="url(#ft)"><path fill="#636EFA" d="M194.664 44.535h.348v1100.383h-.348Zm0 0"/></g><g clip-path="url(#fu)"><path fill="#636EFA" d="M195.355 59.227h.348v1085.691h-.348Zm0 0"/></g><g clip-path="url(#fv)"><path fill="#636EFA" d="M195.703 75.48h.344v1069.438h-.344Zm0 0"/></g><g clip-path="url(#fw)"><path fill="#636EFA" d="M196.047 47.012h.348v1097.906h-.348Zm0 0"/></g><g clip-path="url(#fx)"><path fill="#636EFA" d="M196.395 107.688h.343v1037.23h-.343Zm0 0"/></g><g clip-path="url(#fy)"><path fill="#636EFA" d="M196.738 59.805h.348v1085.113h-.348Zm0 0"/></g><g clip-path="url(#fz)"><path fill="#636EFA" d="M197.086 77.305h.344v1067.613h-.344Zm0 0"/></g><g clip-path="url(#fA)"><path fill="#636EFA" d="M197.43 34.371h.343v1110.547h-.343Zm0 0"/></g><g clip-path="url(#fB)"><path fill="#636EFA" d="M197.773 74.512h.348v1070.406h-.348Zm0 0"/></g><g clip-path="url(#fC)"><path fill="#636EFA" d="M198.121 63.8h.344v1081.118h-.344Zm0 0"/></g><g clip-path="url(#fD)"><path fill="#636EFA" d="M198.465 80.668h.347v1064.25h-.347Zm0 0"/></g><g clip-path="url(#fE)"><path fill="#636EFA" d="M198.813 50.61h.343v1094.308h-.344Zm0 0"/></g><g clip-path="url(#fF)"><path fill="#636EFA" d="M199.504 55.477h.344v1089.441h-.344Zm0 0"/></g><g clip-path="url(#fG)"><path fill="#636EFA" d="M199.848 81.45h.347v1063.468h-.347Zm0 0"/></g><g clip-path="url(#fH)"><path fill="#636EFA" d="M200.195 45.781h.352v1099.137h-.352Zm0 0"/></g><g clip-path="url(#fI)"><path fill="#636EFA" d="M200.547 76.117h.344v1068.801h-.344Zm0 0"/></g><g clip-path="url(#fJ)"><path fill="#636EFA" d="M200.89 67.027h.348v1077.891h-.347Zm0 0"/></g><g clip-path="url(#fK)"><path fill="#636EFA" d="M201.238 89.773h.344v1055.145h-.344Zm0 0"/></g><g clip-path="url(#fL)"><path fill="#636EFA" d="M201.582 51.105h.348v1093.813h-.348Zm0 0"/></g><g clip-path="url(#fM)"><path fill="#636EFA" d="M201.93 93.82h.343v1051.098h-.343Zm0 0"/></g><g clip-path="url(#fN)"><path fill="#636EFA" d="M202.273 73h.348v1071.918h-.348Zm0 0"/></g><g clip-path="url(#fO)"><path fill="#636EFA" d="M202.621 78.102h.344v1066.816h-.344Zm0 0"/></g><g clip-path="url(#fP)"><path fill="#636EFA" d="M202.965 43.766h.347v1101.152h-.347Zm0 0"/></g><g clip-path="url(#fQ)"><path fill="#636EFA" d="M203.313 68.098h.343v1076.82h-.344Zm0 0"/></g><g clip-path="url(#fR)"><path fill="#636EFA" d="M203.656 64.512H204v1080.406h-.344Zm0 0"/></g><g clip-path="url(#fS)"><path fill="#636EFA" d="M204.348 50.82h.343v1094.098h-.343Zm0 0"/></g><g clip-path="url(#fT)"><path fill="#636EFA" d="M204.691 83.277h.348v1061.641h-.348Zm0 0"/></g><g clip-path="url(#fU)"><path fill="#636EFA" d="M205.04 74.148h.343v1070.77h-.344Zm0 0"/></g><g clip-path="url(#fV)"><path fill="#636EFA" d="M205.383 87.852h.347v1057.066h-.347Zm0 0"/></g><g clip-path="url(#fW)"><path fill="#636EFA" d="M205.73 45.922h.344v1098.996h-.344Zm0 0"/></g><g fill="#636EFA" clip-path="url(#fX)"><path d="M206.074 85.59h.348v1059.328h-.348Zm0 0"/><path d="M206.422 85.59h.344v1059.328h-.344Zm0 0"/></g><g clip-path="url(#fY)"><path fill="#636EFA" d="M206.766 83.793h.347v1061.125h-.347Zm0 0"/></g><g clip-path="url(#fZ)"><path fill="#636EFA" d="M207.113 59.227h.352v1085.691h-.352Zm0 0"/></g><g clip-path="url(#ga)"><path fill="#636EFA" d="M207.809 62.16h.347v1082.758h-.347Zm0 0"/></g><g clip-path="url(#gb)"><path fill="#636EFA" d="M208.156 80.668h.344v1064.25h-.344Zm0 0"/></g><g clip-path="url(#gc)"><path fill="#636EFA" d="M208.5 49.363h.348v1095.555h-.348Zm0 0"/></g><g clip-path="url(#gd)"><path fill="#636EFA" d="M208.848 82.313h.343v1062.605h-.343Zm0 0"/></g><g clip-path="url(#ge)"><path fill="#636EFA" d="M209.191 68.18h.348v1076.738h-.348Zm0 0"/></g><g clip-path="url(#gf)"><path fill="#636EFA" d="M209.883 56.121h.344v1088.797h-.344Zm0 0"/></g><g clip-path="url(#gg)"><path fill="#636EFA" d="M210.574 64.805h.344v1080.113h-.344Zm0 0"/></g><g clip-path="url(#gh)"><path fill="#636EFA" d="M211.266 54.84h.343v1090.078h-.343Zm0 0"/></g><g clip-path="url(#gi)"><path fill="#636EFA" d="M211.61 74.887h.347v1070.031h-.348Zm0 0"/></g><g clip-path="url(#gj)"><path fill="#636EFA" d="M211.957 69.719h.344v1075.199h-.344Zm0 0"/></g><g clip-path="url(#gk)"><path fill="#636EFA" d="M212.648 60.906h.344v1084.012h-.344Zm0 0"/></g><g clip-path="url(#gl)"><path fill="#636EFA" d="M212.992 87.023h.348v1057.895h-.348Zm0 0"/></g><g clip-path="url(#gm)"><path fill="#636EFA" d="M213.34 80.3h.344v1064.618h-.344Zm0 0"/></g><g clip-path="url(#gn)"><path fill="#636EFA" d="M213.684 81.871h.343v1063.047h-.343Zm0 0"/></g><g clip-path="url(#go)"><path fill="#636EFA" d="M214.027 48.043h.356v1096.875h-.356Zm0 0"/></g><g clip-path="url(#gp)"><path fill="#636EFA" d="M214.727 80.668h.347v1064.25h-.347Zm0 0"/></g><g clip-path="url(#gq)"><path fill="#636EFA" d="M215.074 80.3h.344v1064.618h-.344Zm0 0"/></g><g clip-path="url(#gr)"><path fill="#636EFA" d="M215.418 65.48h.348v1079.438h-.348Zm0 0"/></g><g clip-path="url(#gs)"><path fill="#636EFA" d="M215.766 86.273h.343v1058.645h-.343Zm0 0"/></g><g clip-path="url(#gt)"><path fill="#636EFA" d="M216.11 70.035h.347v1074.883h-.348Zm0 0"/></g><g clip-path="url(#gu)"><path fill="#636EFA" d="M216.8 57.016h.345v1087.902h-.344Zm0 0"/></g><g clip-path="url(#gv)"><path fill="#636EFA" d="M218.184 92.25h.343v1052.668h-.343Zm0 0"/></g><g clip-path="url(#gw)"><path fill="#636EFA" d="M218.875 83.277h.344v1061.641h-.344Zm0 0"/></g><g clip-path="url(#gx)"><path fill="#636EFA" d="M219.219 81.871h.347v1063.047h-.347Zm0 0"/></g><g clip-path="url(#gy)"><path fill="#636EFA" d="M219.566 61.45h.344v1083.468h-.344Zm0 0"/></g><g clip-path="url(#gz)"><path fill="#636EFA" d="M220.945 74.7h.356v1070.218h-.356Zm0 0"/></g><g clip-path="url(#gA)"><path fill="#636EFA" d="M222.336 60.008h.348v1084.91h-.348Zm0 0"/></g><g clip-path="url(#gB)"><path fill="#636EFA" d="M223.027 87.023h.344v1057.895h-.344Zm0 0"/></g><g clip-path="url(#gC)"><path fill="#636EFA" d="M223.719 78.973h.344v1065.945h-.344Zm0 0"/></g><g clip-path="url(#gD)"><path fill="#636EFA" d="M224.41 93.82h.344v1051.098h-.344Zm0 0"/></g><g clip-path="url(#gE)"><path fill="#636EFA" d="M225.102 65.676h.343v1079.242h-.343Zm0 0"/></g><g clip-path="url(#gF)"><path fill="#636EFA" d="M226.484 72.406h.344v1072.512h-.344Zm0 0"/></g><g clip-path="url(#gG)"><path fill="#636EFA" d="M227.863 73.64h.356v1071.278h-.356Zm0 0"/></g><g clip-path="url(#gH)"><path fill="#636EFA" d="M228.563 77.559h.347v1067.359h-.347Zm0 0"/></g><g clip-path="url(#gI)"><path fill="#636EFA" d="M229.254 79.61h.348v1065.308h-.348Zm0 0"/></g><g clip-path="url(#gJ)"><path fill="#636EFA" d="M230.637 65.168h.343v1079.75h-.343Zm0 0"/></g><g clip-path="url(#gK)"><path fill="#636EFA" d="M232.02 76.344h.343v1068.574h-.343Zm0 0"/></g><g clip-path="url(#gL)"><path fill="#636EFA" d="M232.71 78.379h.345v1066.539h-.344Zm0 0"/></g><g clip-path="url(#gM)"><path fill="#636EFA" d="M233.398 65.48h.348v1079.438h-.348Zm0 0"/></g><g clip-path="url(#gN)"><path fill="#636EFA" d="M234.09 88.75h.347v1056.168h-.347Zm0 0"/></g><g clip-path="url(#gO)"><path fill="#636EFA" d="M234.781 70.258h.356v1074.66h-.356Zm0 0"/></g><g clip-path="url(#gP)"><path fill="#636EFA" d="M236.172 71.59h.344v1073.328h-.344Zm0 0"/></g><g clip-path="url(#gQ)"><path fill="#636EFA" d="M237.555 87.852h.343v1057.066h-.343Zm0 0"/></g><g clip-path="url(#gR)"><path fill="#636EFA" d="M238.938 76.809h.343v1068.109h-.344Zm0 0"/></g><g clip-path="url(#gS)"><path fill="#636EFA" d="M240.316 86.273h.348v1058.645h-.348Zm0 0"/></g><g clip-path="url(#gT)"><path fill="#636EFA" d="M241.7 74.887h.355v1070.031h-.356Zm0 0"/></g><g clip-path="url(#gU)"><path fill="#636EFA" d="M242.055 87.023h.343v1057.895h-.343Zm0 0"/></g><g clip-path="url(#gV)"><path fill="#636EFA" d="M243.09 107.688h.344v1037.23h-.344Zm0 0"/></g><g clip-path="url(#gW)"><path fill="#636EFA" d="M245.164 93.82h.344v1051.098h-.344Zm0 0"/></g><g clip-path="url(#gX)"><path fill="#636EFA" d="M245.855 85.59h.344v1059.328h-.344Zm0 0"/></g><g clip-path="url(#gY)"><path fill="#636EFA" d="M246.543 85.59h.348v1059.328h-.348Zm0 0"/></g><g clip-path="url(#gZ)"><path fill="#636EFA" d="M247.234 70.145h.348v1074.773h-.348Zm0 0"/></g><g clip-path="url(#ha)"><path fill="#636EFA" d="M248.273 87.023h.344v1057.895h-.344Zm0 0"/></g><g clip-path="url(#hb)"><path fill="#636EFA" d="M248.617 79.61h.356v1065.308h-.356Zm0 0"/></g><g clip-path="url(#hc)"><path fill="#636EFA" d="M250.008 71.324h.344v1073.594h-.344Zm0 0"/></g><g clip-path="url(#hd)"><path fill="#636EFA" d="M251.39 81.45h.344v1063.468h-.343Zm0 0"/></g><g clip-path="url(#he)"><path fill="#636EFA" d="M252.77 80.3h.347v1064.618h-.347Zm0 0"/></g><g clip-path="url(#hf)"><path fill="#636EFA" d="M255.535 82.781h.348v1062.137h-.348Zm0 0"/></g><g clip-path="url(#hg)"><path fill="#636EFA" d="M258.309 79.95h.343v1064.968h-.343Zm0 0"/></g><g clip-path="url(#hh)"><path fill="#636EFA" d="M259.688 83.793h.347v1061.125h-.348Zm0 0"/></g><g clip-path="url(#hi)"><path fill="#636EFA" d="M261.07 73.473h.348v1071.445h-.348Zm0 0"/></g><g clip-path="url(#hj)"><path fill="#636EFA" d="M262.453 88.75h.344v1056.168h-.344Zm0 0"/></g><g clip-path="url(#hk)"><path fill="#636EFA" d="M263.844 72.121h.344v1072.797h-.344Zm0 0"/></g><g clip-path="url(#hl)"><path fill="#636EFA" d="M266.605 85.59h.348v1059.328h-.348Zm0 0"/></g><g clip-path="url(#hm)"><path fill="#636EFA" d="M269.371 89.773h.344v1055.145h-.344Zm0 0"/></g><g clip-path="url(#hn)"><path fill="#636EFA" d="M272.14 93.82h.348v1051.098h-.347Zm0 0"/></g><g clip-path="url(#ho)"><path fill="#636EFA" d="M279.059 82.313h.347v1062.605h-.347Zm0 0"/></g><g clip-path="url(#hp)"><path fill="#636EFA" d="M283.207 80.668h.344v1064.25h-.344Zm0 0"/></g><g clip-path="url(#hq)"><path fill="#636EFA" d="M287.36 81.871h.347v1063.047h-.348Zm0 0"/></g><g clip-path="url(#hr)"><path fill="#636EFA" d="M288.742 101.715h.344v1043.203h-.344Zm0 0"/></g><g clip-path="url(#hs)"><path fill="#636EFA" d="M294.969 81.45h.344v1063.468h-.344Zm0 0"/></g><g clip-path="url(#ht)"><path fill="#636EFA" d="M297.043 93.82h.344v1051.098h-.344Zm0 0"/></g><g clip-path="url(#hu)"><path fill="#636EFA" d="M300.852 82.781h.343v1062.137h-.343Zm0 0"/></g><g clip-path="url(#hv)"><path fill="none" stroke="#00CC96" stroke-miterlimit="2" stroke-width="1.502" d="m147.969 112.988.691-1.71.344-5.512 1.73-12.598.344-4.145.348-.73.344-5.102.343-.953.356-3.418.343-1.027.348-4.727.344-.457.348-2.644.343-.945.348-4.657 1.035-3.855.344-4.574 1.039-2.493.344-4.41.347-.504.344-1.582.344-.367.347-3.293 1.036-1.27.347-2.972 1.043-1.531.344-2.832.348-.211.343-1.035.348-.188.344-1.668 1.039-1.031.344-1.832 1.035-.692.347-1.261.692-.645.344-.07.691-1.637.348-.3.343-.075.344-1 1.047-.45.344-1.523 1.039-.34.344-.742 1.035-.347.347-.992 1.036-.207.347-.536 1.035-.328.344-1.144 1.04-.211.343-.508 1.043-.18.348-.52 2.418-.66.347-.445 1.727-.66.344-.09 1.73-.457.344-.234 3.808-.512.344-.164 7.266-.562.343-.016 7.266-.7.344-.042 96.48-.528"/></g><path fill="none" stroke="#000" stroke-width=".751" d="M147.219 113.492h154.726M147.22 4.132h154.726m-154.352.376v108.61M301.57 4.507v108.61m0-108.609v108.61M45.441 4.507v108.61"/><path fill="none" stroke="#444" stroke-width=".751" d="M182.387 113.867v3.758m34.586-3.758v3.758m34.589-3.758v3.758m34.59-3.758v3.758"/><g fill="#2A3F5F"><use xlink:href="#cJ" x="173.79" y="128.44"/><use xlink:href="#cI" x="179.52" y="128.44"/><use xlink:href="#cI" x="185.25" y="128.44"/></g><g fill="#2A3F5F"><use xlink:href="#cK" x="208.378" y="128.44"/><use xlink:href="#cI" x="214.108" y="128.44"/><use xlink:href="#cI" x="219.839" y="128.44"/></g><g fill="#2A3F5F"><use xlink:href="#hw" x="242.967" y="128.44"/><use xlink:href="#cI" x="248.697" y="128.44"/><use xlink:href="#cI" x="254.427" y="128.44"/></g><g fill="#2A3F5F"><use xlink:href="#cM" x="277.556" y="128.44"/><use xlink:href="#cI" x="283.286" y="128.44"/><use xlink:href="#cI" x="289.016" y="128.44"/></g><path fill="none" stroke="#444" stroke-width=".751" d="M147.219 107.688h-3.758m3.758-39.684h-3.758m3.758-39.68h-3.758"/><use xlink:href="#cJ" x="135.929" y="110.841" fill="#2A3F5F"/><g fill="#2A3F5F"><use xlink:href="#cJ" x="124.469" y="71.16"/><use xlink:href="#cI" x="130.199" y="71.16"/><use xlink:href="#cI" x="135.929" y="71.16"/></g><g fill="#2A3F5F"><use xlink:href="#cJ" x="124.865" y="31.479"/><use xlink:href="#cI" x="130.595" y="31.479"/><use xlink:href="#cL" x="136.325" y="31.479"/></g><path fill="none" stroke="#444" stroke-width=".751" d="M301.945 113.117h3.758m-3.758-51.594h3.758m-3.758-51.586h3.758"/><g fill="#2A3F5F"><use xlink:href="#cI" x="307.505" y="116.272"/><use xlink:href="#hx" x="313.235" y="116.272"/></g><g fill="#2A3F5F"><use xlink:href="#cH" x="307.505" y="64.678"/><use xlink:href="#cI" x="313.235" y="64.678"/><use xlink:href="#hx" x="318.965" y="64.678"/></g><g fill="#2A3F5F"><use xlink:href="#cJ" x="307.505" y="13.092"/><use xlink:href="#cI" x="313.235" y="13.092"/><use xlink:href="#cI" x="318.965" y="13.092"/><use xlink:href="#hx" x="324.695" y="13.092"/></g><g clip-path="url(#hy)"><path fill="#2A3F5F" d="M170.418 113.117v-2.254h.754v2.254m-.754-4.508v-2.254h.754v2.254m-.754-4.504v-2.253h.754v2.253m-.754-4.507v-2.254h.754v2.254m-.754-4.508v-2.254h.754v2.254m-.754-4.504v-2.254h.754v2.254m-.754-4.508v-2.254h.754v2.254m-.754-4.508v-2.254h.754v2.254m-.754-4.507v-2.25h.754v2.25m-.754-4.504v-2.254h.754v2.254m-.754-4.508v-2.254h.754v2.254m-.754-4.508v-2.254h.754v2.254m-.754-4.504v-2.254h.754v2.254m-.754-4.508v-2.254h.754v2.254m-.754-4.508V47.77h.754v2.253m-.754-4.507v-2.25h.754v2.25m-.754-4.504v-2.254h.754v2.254m-.754-4.508V34.25h.754v2.254m-.754-4.508v-2.254h.754v2.254m-.754-4.504v-2.254h.754v2.254m-.754-4.508V20.73h.754v2.254"/></g><path fill="#2A3F5F" d="M170.797 19.883h2.25v.75h-2.25m4.504-.75h2.254v.75H175.3m4.508-.75h2.254v.75h-2.254m4.507-.75h2.254v.75h-2.254m4.504-.75h2.254v.75h-2.254m4.508-.75h2.254v.75h-2.254m4.508-.75h2.254v.75h-2.254m4.504-.75h2.254v.75h-2.254m4.508-.75h2.254v.75h-2.254m4.507-.75h2.254v.75h-2.254m4.508-.75h2.25v.75h-2.25m4.504-.75h2.254v.75h-2.254m4.508-.75h2.254v.75h-2.254m4.508-.75h2.254v.75h-2.254m4.504-.75h2.254v.75h-2.254m4.508-.75h2.253v.75h-2.253m4.507-.75h2.254v.75h-2.254m4.508-.75h2.25v.75h-2.25m4.504-.75h2.254v.75h-2.254m4.508-.75h2.254v.75h-2.254m4.508-.75h2.254v.75h-2.254m4.504-.75h2.253v.75h-2.253m4.507-.75h2.254v.75h-2.254m4.508-.75h2.254v.75h-2.254m4.508-.75h2.25v.75h-2.25m4.504-.75h2.254v.75h-2.254m4.508-.75h2.254v.75h-2.254m4.508-.75h2.25v.75h-2.25m4.503-.75h2.254v.75h-2.254"/><g fill="#2A3F5F"><use xlink:href="#hz" x="235.398" y="150.996"/><use xlink:href="#hA" x="241.692" y="150.996"/><use xlink:href="#hB" x="247.395" y="150.996"/><use xlink:href="#hA" x="256.162" y="150.996"/><use xlink:href="#hC" x="261.866" y="150.996"/><use xlink:href="#hD" x="264.339" y="150.996"/><use xlink:href="#hE" x="269.753" y="150.996"/><use xlink:href="#hF" x="273.304" y="150.996"/><use xlink:href="#hG" x="275.778" y="150.996"/><use xlink:href="#hH" x="281.112" y="150.996"/></g><path fill="none" stroke="#00CC96" stroke-width="1.502" d="M209.11 147.48h22.535"/><g fill="#2A3F5F"><use xlink:href="#hI" x="127.47" y="220.982"/><use xlink:href="#hJ" x="135.336" y="220.982"/><use xlink:href="#hK" x="141.991" y="220.982"/><use xlink:href="#hL" x="152.219" y="220.982"/><use xlink:href="#hM" x="158.77" y="220.982"/><use xlink:href="#hN" x="165.035" y="220.982"/><use xlink:href="#hO" x="169.522" y="220.982"/><use xlink:href="#hP" x="173.219" y="220.982"/><use xlink:href="#hQ" x="179.601" y="220.982"/><use xlink:href="#hO" x="183.298" y="220.982"/><use xlink:href="#hR" x="186.995" y="220.982"/><use xlink:href="#hS" x="193.311" y="220.982"/><use xlink:href="#hP" x="197.454" y="220.982"/><use xlink:href="#hK" x="203.836" y="220.982"/><use xlink:href="#hT" x="214.064" y="220.982"/></g><g fill="#2A3F5F"><use xlink:href="#hU" x="10.515" y="152.268"/><use xlink:href="#hV" x="10.515" y="144.402"/><use xlink:href="#hW" x="10.515" y="137.748"/><use xlink:href="#hX" x="10.515" y="127.52"/><use xlink:href="#hY" x="10.515" y="120.968"/><use xlink:href="#hZ" x="10.515" y="114.704"/><use xlink:href="#ia" x="10.515" y="110.216"/><use xlink:href="#ib" x="10.515" y="106.519"/><use xlink:href="#ic" x="10.515" y="100.137"/><use xlink:href="#ia" x="10.515" y="96.44"/><use xlink:href="#id" x="10.515" y="92.744"/><use xlink:href="#ie" x="10.515" y="85.555"/><use xlink:href="#hZ" x="10.515" y="81.412"/><use xlink:href="#hV" x="10.515" y="76.924"/><use xlink:href="#if" x="10.515" y="70.27"/><use xlink:href="#ie" x="10.515" y="64.791"/><use xlink:href="#hV" x="10.515" y="60.647"/><use xlink:href="#hZ" x="10.515" y="53.993"/><use xlink:href="#hY" x="10.515" y="49.505"/><use xlink:href="#ig" x="10.515" y="43.241"/></g><g fill="#2A3F5F"><use xlink:href="#ih" x="117.476" y="118.08"/><use xlink:href="#ib" x="117.476" y="115.194"/><use xlink:href="#ii" x="117.476" y="108.812"/><use xlink:href="#ij" x="117.476" y="102.261"/><use xlink:href="#ig" x="117.476" y="97.485"/><use xlink:href="#if" x="117.476" y="92.007"/><use xlink:href="#ik" x="117.476" y="86.528"/><use xlink:href="#ih" x="117.476" y="80.213"/><use xlink:href="#hY" x="117.476" y="77.327"/><use xlink:href="#il" x="117.476" y="71.063"/><use xlink:href="#ia" x="117.476" y="64.511"/><use xlink:href="#ie" x="117.476" y="60.814"/><use xlink:href="#ib" x="117.476" y="56.671"/><use xlink:href="#ia" x="117.476" y="50.289"/><use xlink:href="#ig" x="117.476" y="46.592"/><use xlink:href="#im" x="117.476" y="41.113"/><use xlink:href="#ib" x="117.476" y="34.459"/><use xlink:href="#in" x="117.476" y="28.077"/><use xlink:href="#ia" x="117.476" y="19.471"/><use xlink:href="#ie" x="117.476" y="15.774"/><use xlink:href="#ik" x="117.476" y="11.631"/><use xlink:href="#io" x="117.476" y="5.315"/><use xlink:href="#ih" x="117.476" y="2.43"/></g></svg>