<svg xmlns="http://www.w3.org/2000/svg" xmlns:xlink="http://www.w3.org/1999/xlink" width="337.92" height="210"><defs><path id="w" d="M4.766 0H1.219v-.672h1.375v-4.39H1.219v-.594q.28 0 .593-.047.329-.047.485-.14a.8.8 0 0 0 .312-.282.85.85 0 0 0 .141-.453h.688v5.906h1.328Zm0 0"/><path id="x" d="M5.14 0H.704v-.922c.313-.258.617-.52.922-.781q.467-.404.875-.797c.563-.54.945-.973 1.156-1.297a1.9 1.9 0 0 0 .313-1.047q-.002-.516-.344-.797-.328-.294-.937-.296-.392.002-.86.156a3.5 3.5 0 0 0-.906.422H.875v-.922a4.3 4.3 0 0 1 .828-.282 4.5 4.5 0 0 1 1.016-.125c.664 0 1.191.165 1.578.485q.576.487.578 1.312c0 .25-.04.485-.11.704a2.5 2.5 0 0 1-.265.609 4 4 0 0 1-.406.547q-.235.268-.563.578c-.312.312-.636.617-.969.906q-.503.422-.937.797h3.516Zm0 0"/><path id="y" d="M4.563-3.156c.144.125.257.289.343.484q.14.283.14.735-.002.438-.155.812-.16.375-.453.656A2.1 2.1 0 0 1 3.656 0Q3.2.14 2.672.14 2.12.14 1.594 0a4.6 4.6 0 0 1-.86-.281v-.922h.063q.373.252.875.422.516.157.984.156c.188 0 .383-.031.594-.094q.311-.091.5-.265a1.3 1.3 0 0 0 .297-.438A1.4 1.4 0 0 0 4.157-2c0-.238-.04-.437-.11-.594a.85.85 0 0 0-.313-.36 1.2 1.2 0 0 0-.484-.187 4 4 0 0 0-.61-.046h-.39v-.735h.313q.668 0 1.062-.281.406-.28.406-.813a.77.77 0 0 0-.11-.406.8.8 0 0 0-.28-.312 1.5 1.5 0 0 0-.407-.157 2.3 2.3 0 0 0-.484-.046q-.422.002-.89.156-.47.158-.891.422H.922v-.922a4.3 4.3 0 0 1 .828-.282 4.5 4.5 0 0 1 1.016-.125q.48 0 .843.094c.25.055.473.14.672.266q.311.222.469.516.17.298.172.703c0 .367-.133.683-.39.953a1.7 1.7 0 0 1-.907.515v.063q.2.035.469.14.28.112.468.282m0 0"/><path id="z" d="M5.297-1.844h-.969V0h-.844v-1.844H.344v-1.015l3.172-3.703h.812v4.015h.969Zm-1.813-.703V-5.5L.938-2.547Zm0 0"/><path id="A" d="M5.094-2.078c0 .305-.059.594-.172.875a1.9 1.9 0 0 1-.453.703q-.317.315-.75.484a3.1 3.1 0 0 1-1.016.157Q2.153.14 1.656.016A4 4 0 0 1 .828-.25v-.922h.063q.358.222.843.39c.32.106.641.157.954.157.207 0 .406-.023.593-.078a1.36 1.36 0 0 0 .531-.313c.126-.125.22-.273.282-.453.07-.176.11-.383.11-.625q-.001-.328-.126-.562a.95.95 0 0 0-.312-.375 1.4 1.4 0 0 0-.563-.235 3.3 3.3 0 0 0-.734-.078c-.262 0-.512.024-.75.063a6 6 0 0 0-.61.11v-3.391h3.938v.78H1.953v1.735q.187-.014.39-.016c.134-.007.25-.015.345-.015q.528 0 .921.094.405.095.75.312.343.253.532.64c.132.25.203.571.203.954m0 0"/><path id="B" d="M5.25-2.125c0 .668-.227 1.215-.672 1.64q-.657.627-1.61.626-.485 0-.89-.141a1.9 1.9 0 0 1-.687-.453 2.4 2.4 0 0 1-.578-.969Q.608-2.03.609-2.875q0-.873.188-1.547c.125-.445.32-.848.594-1.203a2.54 2.54 0 0 1 1-.766q.608-.28 1.422-.28.262.002.437.015.17.018.36.078v.844h-.048a2.2 2.2 0 0 0-.875-.187q-.953 0-1.515.593-.563.597-.656 1.594c.25-.145.492-.254.734-.328q.359-.125.828-.125.404 0 .719.078.327.08.672.312.374.268.578.672.201.409.203 1m-.906.031q-.001-.404-.125-.672a1.13 1.13 0 0 0-.39-.468 1.2 1.2 0 0 0-.454-.188 2.6 2.6 0 0 0-.516-.047q-.375 0-.703.094-.314.095-.64.266-.017.11-.016.203v.219q0 .69.14 1.093.14.41.391.64.201.189.438.282.234.094.515.094.638 0 1-.39.36-.388.36-1.126m0 0"/><path id="C" d="M5.14-3.281q0 1.769-.562 2.594-.55.83-1.703.828-1.19.001-1.734-.828-.533-.844-.532-2.579-.002-1.746.547-2.578.547-.843 1.719-.843 1.17.002 1.719.859c.363.562.547 1.414.547 2.547m-1.156 2q.154-.358.204-.844.06-.481.062-1.156-.002-.67-.062-1.156a2.4 2.4 0 0 0-.22-.844 1.07 1.07 0 0 0-.421-.5 1.23 1.23 0 0 0-.672-.172q-.423 0-.687.172-.27.176-.438.515a3 3 0 0 0-.203.86 13 13 0 0 0-.047 1.14q0 .69.047 1.157.046.455.203.812.14.344.406.531c.188.118.426.172.719.172.27 0 .492-.054.672-.172q.28-.17.437-.515m0 0"/><path id="D" d="M2.172 0H1.109v-1.25h1.063Zm0 0"/><path id="F" d="M6.719 0h-.875v-5.64L4.03-1.814H3.5L1.688-5.64V0H.875v-6.562h1.188l1.75 3.656L5.5-6.562h1.219Zm0 0"/><path id="G" d="M5.172-4.578c0 .293-.055.562-.156.812q-.159.376-.422.641-.344.345-.813.516-.454.174-1.156.172H1.75V0H.875v-6.562h1.781q.591.002 1 .109.406.095.735.312.374.251.578.625.201.375.203.938m-.906.031q-.001-.34-.125-.594a.94.94 0 0 0-.36-.406 1.6 1.6 0 0 0-.484-.203 3.3 3.3 0 0 0-.688-.062H1.75v2.625h.734q.53 0 .86-.094.327-.093.531-.297.216-.218.297-.453.093-.235.094-.516m0 0"/><path id="H" d="M3.375-.047a4 4 0 0 1-.516.094 3 3 0 0 1-.484.047q-.769.002-1.156-.406Q.828-.718.829-1.61v-2.61H.265v-.703h.562v-1.406h.828v1.406h1.719v.703H1.656v2.235q-.001.391.016.609.012.22.125.406a.62.62 0 0 0 .266.266c.113.055.285.078.515.078q.2 0 .422-.062.235-.059.328-.094h.047Zm0 0"/><path id="I" d="M3.875-4.016h-.031a3 3 0 0 0-.36-.062 6 6 0 0 0-.421-.016 1.7 1.7 0 0 0-.735.172 2.7 2.7 0 0 0-.687.438V0H.813v-4.922h.828v.734q.499-.404.875-.562.374-.17.765-.172.218.002.313.016l.281.047Zm0 0"/><path id="J" d="M2.344-5.734h-.938v-.86h.938ZM2.297.125q0 .856-.453 1.297-.44.435-1.172.437-.176 0-.469-.03a3 3 0 0 1-.469-.095v-.78h.032q.129.045.328.109.216.06.422.062.312 0 .5-.094a.55.55 0 0 0 .297-.265 1.3 1.3 0 0 0 .125-.422c.019-.168.03-.367.03-.61v-3.953H.439v-.703h1.859Zm0 0"/><path id="K" d="M8.516-6.562 6.813 0h-.985L4.453-5.437 3.093 0h-.952L.406-6.562h.89L2.673-1.11l1.36-5.453h.89l1.36 5.515 1.374-5.515Zm0 0"/><path id="L" d="M5.828-2.016q0 .486-.187.86-.189.376-.5.625c-.25.187-.524.324-.813.406Q3.888.002 3.203 0H.875v-6.562h1.953q.716.002 1.063.062.358.047.687.219.357.19.516.484.17.299.172.719c0 .305-.079.562-.235.781a1.7 1.7 0 0 1-.64.531v.032c.445.093.797.293 1.047.593.257.293.39.668.39 1.125M4.36-4.969a.9.9 0 0 0-.078-.39.7.7 0 0 0-.25-.282 1.7 1.7 0 0 0-.515-.14 7 7 0 0 0-.72-.032H1.75v1.891h1.125q.406.002.64-.031.246-.047.47-.188a.67.67 0 0 0 .28-.328q.094-.217.094-.5m.563 2.985c0-.258-.043-.47-.125-.625Q4.669-2.844 4.359-3a1.5 1.5 0 0 0-.515-.14 5 5 0 0 0-.719-.047H1.75V-.75h1.156q.575 0 .938-.047.358-.06.594-.219.247-.169.359-.39.124-.234.125-.578m0 0"/><path id="M" d="M6.86 0H5.61L1.983-6.844V0H1.03v-7.64h1.58l3.297 6.234v-6.235h.953Zm0 0"/><path id="N" d="M5.703 0h-.969v-.64q-.486.393-.937.593a2.4 2.4 0 0 1-.985.203q-.89.002-1.406-.547c-.336-.363-.5-.906-.5-1.625v-3.718h.969v3.265q-.002.44.031.75.047.316.188.532c.094.148.21.257.36.328q.216.093.64.093.375 0 .812-.187.452-.2.828-.5v-4.281h.97Zm0 0"/><path id="O" d="M9.313 0h-.954v-3.266q0-.374-.046-.718a1.6 1.6 0 0 0-.141-.547.74.74 0 0 0-.328-.328c-.149-.07-.36-.11-.64-.11q-.41.002-.813.203a5 5 0 0 0-.813.516l.031.266c.008.105.016.21.016.312V0h-.969v-3.266q0-.374-.047-.718a1.8 1.8 0 0 0-.125-.547.84.84 0 0 0-.343-.328c-.149-.07-.36-.11-.641-.11a1.8 1.8 0 0 0-.797.203c-.262.125-.523.29-.781.485V0H.953v-5.734h.969v.64q.434-.374.89-.578.453-.218.97-.219.573.002.984.25.404.237.609.672.593-.48 1.063-.703a2.5 2.5 0 0 1 1.03-.219c.634 0 1.098.196 1.391.579q.453.563.454 1.593Zm0 0"/><path id="P" d="M6-2.906q-.002.721-.203 1.297-.206.564-.547.953a2.4 2.4 0 0 1-.797.61 2.3 2.3 0 0 1-.969.202Q3 .155 2.625.031a3.5 3.5 0 0 1-.703-.297L1.859 0H.953v-7.984h.969v2.843q.404-.327.86-.53.45-.219 1.03-.22 1.015.001 1.594.782Q6-4.325 6-2.906m-1 .015q-.002-1.013-.344-1.546c-.218-.352-.586-.532-1.093-.532q-.424 0-.86.188a3.3 3.3 0 0 0-.781.453v3.297q.405.175.703.25c.195.054.422.078.672.078q.795 0 1.25-.531.452-.53.453-1.657m0 0"/><path id="Q" d="M5.75-2.766H1.531q-.001.535.157.922a1.6 1.6 0 0 0 .437.64q.263.253.625.376c.25.086.52.125.813.125q.591 0 1.171-.235.591-.234.86-.468h.047v1.062q-.487.204-1 .344-.502.14-1.063.14Q2.14.143 1.344-.624q-.797-.78-.797-2.203-.001-1.405.766-2.234.761-.828 2.015-.829 1.17 0 1.797.688c.414.45.625 1.086.625 1.906ZM4.813-3.5c0-.508-.133-.898-.391-1.172-.25-.281-.633-.422-1.14-.422q-.785.002-1.235.453A1.77 1.77 0 0 0 1.53-3.5Zm0 0"/><path id="R" d="M4.531-4.687h-.047a4 4 0 0 0-.421-.063 3.4 3.4 0 0 0-.485-.031c-.305 0-.594.07-.875.203a3.5 3.5 0 0 0-.781.5V0H.953v-5.734h.969v.843q.561-.451 1-.64.45-.201.906-.203.247.002.36.015.107.018.343.047Zm0 0"/><path id="T" d="M5.844-2.86q-.002 1.395-.719 2.204-.72.813-1.937.812-1.208 0-1.922-.812-.72-.81-.72-2.203 0-1.405.72-2.22c.476-.538 1.117-.812 1.922-.812.812 0 1.457.274 1.937.813q.717.813.719 2.219m-1 0c0-.75-.149-1.3-.438-1.656q-.44-.545-1.218-.546-.786 0-1.22.546-.42.533-.421 1.657 0 1.077.422 1.64.433.549 1.219.547.778.002 1.218-.547.437-.563.438-1.64m0 0"/><path id="U" d="M4.031-7.062h-.047l-.421-.079a2 2 0 0 0-.454-.062q-.61 0-.89.281-.281.27-.281.984v.204h1.734v.812H1.969V0H1v-4.922H.344v-.812H1v-.188c0-.687.164-1.21.5-1.578.344-.363.836-.547 1.484-.547a5 5 0 0 1 1.047.11Zm0 0"/><path id="V" d="M6.063 0H1.03v-7.64h5.032v.906H2.047v2.093h4.015v.891H2.048v2.844h4.015Zm0 0"/><path id="W" d="M1.922 0H.953v-7.984h.969Zm0 0"/><path id="X" d="M5.75 0h-.969v-3.266q0-.387-.047-.734c-.03-.238-.09-.422-.171-.547a.72.72 0 0 0-.375-.312 1.55 1.55 0 0 0-.625-.11q-.394.002-.829.203a4.2 4.2 0 0 0-.812.485V0H.953v-5.734h.969v.64q.435-.374.922-.578c.32-.144.656-.219 1-.219q.92 0 1.406.563.499.55.5 1.61Zm0 0"/><path id="Y" d="M3.922-.047c-.18.043-.375.078-.594.11q-.316.046-.562.046-.877 0-1.344-.468C1.117-.672.969-1.176.969-1.875v-3.047H.313v-.812h.656v-1.657h.969v1.657h1.984v.812H1.937v2.61q-.001.455.016.718.03.252.14.469a.76.76 0 0 0 .313.297q.2.094.61.094.233 0 .484-.063.263-.077.375-.125h.047Zm0 0"/><path id="Z" d="M5.047-1.656q0 .783-.656 1.297c-.43.336-1.016.5-1.766.5-.43 0-.82-.055-1.172-.157a5.4 5.4 0 0 1-.89-.328v-1.078h.046c.313.23.649.414 1.016.547a3.1 3.1 0 0 0 1.078.203q.638.001 1-.203a.72.72 0 0 0 .36-.656q-.002-.34-.204-.516-.187-.168-.75-.297a19 19 0 0 0-.53-.11 10 10 0 0 1-.595-.124q-.766-.2-1.078-.594-.313-.389-.312-.953 0-.355.14-.672.153-.311.454-.547c.187-.164.425-.297.718-.39q.45-.141 1-.141.516.001 1.031.125.528.127.891.313v1.03h-.062a3.2 3.2 0 0 0-.891-.468 3.1 3.1 0 0 0-1.047-.187q-.515.002-.89.203a.66.66 0 0 0-.36.609c0 .242.07.418.219.531.144.125.379.227.703.297q.265.066.594.125c.219.043.398.078.547.11.445.105.797.28 1.047.53.238.25.359.587.359 1m0 0"/><path id="aa" d="M1.984-6.703H.906v-1h1.078ZM1.922 0H.953v-5.734h.969Zm0 0"/><path id="ab" d="M5.906-6.734h-3.86v2.156H5.36v.89H2.047V0H1.03v-7.64h4.875Zm0 0"/><path id="ac" d="M5.406 0h-.953v-.61a3 3 0 0 0-.36.25 2 2 0 0 1-.421.235c-.156.086-.34.148-.547.203q-.314.077-.734.078-.785 0-1.328-.515Q.53-.873.53-1.656q0-.655.282-1.063.281-.405.796-.64.528-.217 1.266-.297.734-.095 1.578-.14v-.142a1.1 1.1 0 0 0-.125-.546A.84.84 0 0 0 4-4.828a1.5 1.5 0 0 0-.5-.14 3.6 3.6 0 0 0-.594-.048q-.375 0-.844.094a5.6 5.6 0 0 0-.968.297h-.047v-.984q.28-.078.812-.172a6 6 0 0 1 1.047-.094c.406 0 .758.04 1.063.11q.451.093.781.327.31.235.484.61.171.375.172.937Zm-.953-1.406v-1.61a49 49 0 0 0-1.047.094 5.6 5.6 0 0 0-.953.14 1.6 1.6 0 0 0-.672.36q-.251.253-.25.688 0 .504.297.75c.195.168.5.25.906.25q.516 0 .938-.203a4.6 4.6 0 0 0 .781-.47m0 0"/><path id="ad" d="M-6.734-5.906v3.86h2.156V-5.36h.89v3.312H0v1.016h-7.64v-4.875Zm0 0"/><path id="ae" d="M-4.687-4.531v.047a4 4 0 0 0-.063.422q-.03.203-.031.484c0 .305.07.594.203.875q.189.408.5.781H0v.969h-5.734v-.969h.843q-.451-.561-.64-1a2.2 2.2 0 0 1-.203-.906q.002-.247.015-.36.018-.107.047-.343Zm0 0"/><path id="af" d="M0-5.406v.953h-.61q.082.142.25.36.159.222.235.421c.086.156.148.34.203.547q.077.314.078.734 0 .785-.515 1.329-.514.531-1.297.53-.655 0-1.063-.28a1.9 1.9 0 0 1-.64-.797q-.217-.528-.297-1.266a22 22 0 0 1-.14-1.578h-.142a1.1 1.1 0 0 0-.546.125.84.84 0 0 0-.344.328 1.5 1.5 0 0 0-.14.5 3.6 3.6 0 0 0-.048.594q0 .375.094.844.096.469.297.968v.047h-.984a10 10 0 0 1-.172-.812 6 6 0 0 1-.094-1.047c0-.406.04-.758.11-1.063q.093-.451.327-.781.235-.31.61-.484.375-.171.937-.172Zm-1.406.953h-1.61q.036.456.094 1.047.047.597.14.953.113.409.36.672.253.251.688.25.504 0 .75-.297c.168-.195.25-.5.25-.906q0-.516-.203-.938a4.6 4.6 0 0 0-.47-.781m0 0"/><path id="ag" d="M-.36-5.187q.236.487.36.921.124.424.125.907-.001.628-.172 1.156a2.25 2.25 0 0 1-.562.875q-.359.377-.922.578-.576.204-1.328.203-1.407 0-2.203-.765-.812-.763-.813-2.047c0-.32.047-.641.14-.953.094-.32.212-.614.344-.875h1.079v.046a3.8 3.8 0 0 0-.532.907 2.5 2.5 0 0 0-.187.922q0 .83.562 1.296.55.47 1.61.47 1.03.001 1.593-.454.563-.468.563-1.312.001-.295-.078-.594a2.7 2.7 0 0 0-.203-.547 9 9 0 0 0-.22-.39 3 3 0 0 0-.218-.298v-.046Zm0 0"/><path id="ah" d="M-.047-3.922c.043.18.078.375.11.594q.046.316.046.562 0 .877-.468 1.344c-.313.305-.817.453-1.516.453h-3.047v.657h-.812V-.97h-1.657v-.968h1.657v-1.985h.812v1.985h2.61q.455.001.718-.016.252-.03.469-.14a.76.76 0 0 0 .297-.313q.094-.2.094-.61 0-.233-.063-.484a4 4 0 0 0-.125-.375v-.047Zm0 0"/><path id="ai" d="M-6.703-1.984v1.078h-1v-1.078ZM0-1.922v.969h-5.734v-.969Zm0 0"/><path id="aj" d="M-2.86-5.844q1.395.002 2.204.719.813.72.812 1.938 0 1.207-.812 1.921-.81.72-2.203.72-1.405 0-2.22-.72c-.538-.476-.812-1.117-.812-1.921 0-.813.274-1.458.813-1.938q.813-.717 2.219-.719m0 1c-.75 0-1.3.149-1.656.438q-.545.44-.546 1.218 0 .786.546 1.22.533.42 1.657.421 1.077 0 1.64-.422.549-.433.547-1.218.002-.78-.547-1.22c-.375-.288-.922-.437-1.64-.437m0 0"/><path id="ak" d="M0-5.75v.969h-3.266q-.387 0-.734.047-.358.047-.547.172a.72.72 0 0 0-.312.375 1.55 1.55 0 0 0-.11.625q.002.393.203.828c.125.28.29.554.485.812H0v.969h-5.734v-.969h.64a3.5 3.5 0 0 1-.578-.922 2.4 2.4 0 0 1-.219-1q0-.92.563-1.406.55-.499 1.61-.5Zm0 0"/><path id="am" d="M-7.062-4.031v.047l-.079.422q-.06.252-.062.453 0 .61.281.89.27.281.984.281h.204v-1.734h.812v1.703H0V-1h-4.922v.656h-.812V-1h-.188c-.687 0-1.21-.164-1.578-.5-.363-.344-.547-.836-.547-1.484a5 5 0 0 1 .11-1.047Zm0 0"/><path id="an" d="M-2.187-6.578q.456.002.89.203.441.204.734.578.33.423.516.969.188.551.188 1.312c0 .555-.055 1.047-.157 1.485A8 8 0 0 1-.469-.687H-1.75v-.079c.324-.382.574-.828.75-1.328.18-.508.266-.988.266-1.437q.001-.937-.36-1.469-.357-.53-.937-.531c-.344 0-.594.086-.75.25q-.247.251-.375.765c-.07.25-.13.528-.172.829-.05.304-.11.62-.172.953q-.218 1.019-.734 1.515-.528.486-1.36.485-.968 0-1.578-.813-.61-.808-.61-2.062.002-.796.157-1.47.158-.668.375-1.202h1.203v.078q-.375.44-.61 1.156c-.163.469-.25.953-.25 1.453 0 .543.118.98.345 1.313q.328.485.875.484.468 0 .75-.234c.18-.164.312-.457.406-.875q.082-.328.187-.938.096-.61.203-1.031c.149-.562.375-.984.688-1.266q.457-.435 1.265-.437m0 0"/><path id="ao" d="M0-5.703v.969h-.64q.393.486.593.937.201.44.203.985.002.89-.547 1.406c-.363.336-.906.5-1.625.5h-3.718v-.969h3.265q.44.002.75-.031.316-.047.532-.188a.85.85 0 0 0 .328-.36q.093-.216.093-.64 0-.375-.187-.812a3.8 3.8 0 0 0-.5-.828h-4.281v-.97Zm0 0"/><path id="ap" d="M-2.766-5.75v4.219q.535.001.922-.157a1.6 1.6 0 0 0 .64-.437q.253-.263.376-.625c.086-.25.125-.52.125-.812q0-.593-.235-1.172-.234-.591-.468-.86v-.047h1.062q.204.487.344 1 .14.502.14 1.063.002 1.439-.765 2.234-.78.798-2.203.797c-.938 0-1.68-.254-2.234-.765q-.828-.762-.829-2.016 0-1.17.688-1.797.676-.623 1.906-.625Zm-.734.938q-.761.002-1.172.39c-.281.25-.422.633-.422 1.14q.002.785.453 1.235A1.77 1.77 0 0 0-3.5-1.53Zm0 0"/><path id="aq" d="M-1.656-5.047q.783 0 1.297.656c.336.43.5 1.016.5 1.766 0 .43-.055.82-.157 1.172q-.151.533-.328.89h-1.078v-.046c.23-.313.414-.649.547-1.016a3.1 3.1 0 0 0 .203-1.078q.001-.638-.203-1a.72.72 0 0 0-.656-.36q-.34.002-.516.204-.168.188-.297.75-.045.204-.11.53a10 10 0 0 1-.124.595q-.2.766-.594 1.078-.389.314-.953.312-.355 0-.672-.14a1.6 1.6 0 0 1-.547-.453 2 2 0 0 1-.39-.72q-.141-.449-.141-1 .001-.515.125-1.03.127-.528.313-.891h1.03v.062a3.2 3.2 0 0 0-.468.891 3.1 3.1 0 0 0-.187 1.047q.002.515.203.89c.136.243.34.36.609.36.242 0 .418-.07.531-.219.125-.144.227-.379.297-.703a10 10 0 0 0 .125-.594c.043-.219.078-.398.11-.547q.156-.67.53-1.046c.25-.239.587-.36 1-.36m0 0"/><path id="ar" d="M-3.812-7.484q1.048 0 1.89.453.844.455 1.313 1.203.328.533.468 1.172Q0-4.012 0-2.953v1.922h-7.64v-1.906q.002-1.125.156-1.782c.105-.437.25-.804.437-1.11q.504-.779 1.313-1.218.814-.435 1.922-.437m-.016 1.062q-.905.001-1.516.313-.622.315-.968.937a3 3 0 0 0-.36.969A6.7 6.7 0 0 0-6.766-3v.953h5.891V-3a6.5 6.5 0 0 0-.11-1.281 3 3 0 0 0-.39-1 2.33 2.33 0 0 0-.969-.86q-.592-.28-1.484-.28m0 0"/><clipPath id="a"><path d="M0 0h337.922v209.559H0Zm0 0"/></clipPath><clipPath id="b"><path d="M33 0h304.922v181H33Zm0 0"/></clipPath><clipPath id="c"><path d="M33 133h304.922v2H33Zm0 0"/></clipPath><clipPath id="d"><path d="M33 87h304.922v1H33Zm0 0"/></clipPath><clipPath id="e"><path d="M33 40h304.922v2H33Zm0 0"/></clipPath><clipPath id="f"><path d="M33 179h304.922v3H33Zm0 0"/></clipPath><clipPath id="g"><path d="M38 179h15v1.266H38Zm0 0"/></clipPath><clipPath id="h"><path d="M89 149h15v31.266H89Zm0 0"/></clipPath><clipPath id="i"><path d="M140 80h14v100.266h-14Zm0 0"/></clipPath><clipPath id="j"><path d="M190 112h15v68.266h-15Zm0 0"/></clipPath><clipPath id="k"><path d="M241 156h15v24.266h-15Zm0 0"/></clipPath><clipPath id="l"><path d="M292 172h14v8.266h-14Zm0 0"/></clipPath><clipPath id="m"><path d="M52 178h14v2.266H52Zm0 0"/></clipPath><clipPath id="n"><path d="M103 147h14v33.266h-14Zm0 0"/></clipPath><clipPath id="o"><path d="M153 79h15v101.266h-15Zm0 0"/></clipPath><clipPath id="p"><path d="M204 111h15v69.266h-15Zm0 0"/></clipPath><clipPath id="q"><path d="M255 157h14v23.266h-14Zm0 0"/></clipPath><clipPath id="r"><path d="M305 175h15v5.266h-15Zm0 0"/></clipPath><clipPath id="s"><path d="M116 151h15v29.266h-15Zm0 0"/></clipPath><clipPath id="t"><path d="M167 9h14v171.266h-14Zm0 0"/></clipPath><clipPath id="u"><path d="M218 149h14v31.266h-14Zm0 0"/></clipPath><clipPath id="v"><path d="M268 179h15v1.266h-15Zm0 0"/></clipPath><clipPath id="E"><path d="M280 0h57.922v51H280Zm0 0"/></clipPath></defs><g clip-path="url(#a)"><path fill="#FFF" d="M-33.792-21h405.504v252H-33.792z"/></g><g clip-path="url(#b)"><path fill="#FFF" d="M33.8 0H338v180.266H33.8Zm0 0"/></g><g clip-path="url(#c)"><path fill="none" stroke="#EBF0F8" stroke-width=".751" d="M33.8 133.93H338"/></g><g clip-path="url(#d)"><path fill="none" stroke="#EBF0F8" stroke-width=".751" d="M33.8 87.586H338"/></g><g clip-path="url(#e)"><path fill="none" stroke="#EBF0F8" stroke-width=".751" d="M33.8 41.25H338"/></g><g clip-path="url(#f)"><path fill="none" stroke="#EBF0F8" stroke-width="1.502" d="M33.8 180.266H338"/></g><g clip-path="url(#g)"><path fill="#636EFA" d="M38.871 179.078h13.52v1.188H38.87Zm0 0"/></g><g clip-path="url(#h)"><path fill="#636EFA" d="M89.57 149.383h13.52v30.883H89.57Zm0 0"/></g><g clip-path="url(#i)"><path fill="#636EFA" d="M140.27 80.465h13.52v99.8h-13.52Zm0 0"/></g><g clip-path="url(#j)"><path fill="#636EFA" d="M190.969 112.863h13.52v67.403h-13.52Zm0 0"/></g><g clip-path="url(#k)"><path fill="#636EFA" d="M241.672 156.207h13.52v24.059h-13.52Zm0 0"/></g><g clip-path="url(#l)"><path fill="#636EFA" d="M292.371 172.266h13.52v8h-13.52Zm0 0"/></g><g clip-path="url(#m)"><path fill="#EF553B" d="M52.39 178.793h13.52v1.473H52.39Zm0 0"/></g><g clip-path="url(#n)"><path fill="#EF553B" d="M103.09 147.984h13.52v32.282h-13.52Zm0 0"/></g><g clip-path="url(#o)"><path fill="#EF553B" d="M153.79 79.168h13.519v101.098h-13.52Zm0 0"/></g><g clip-path="url(#p)"><path fill="#EF553B" d="M204.488 111.367h13.524v68.899h-13.524Zm0 0"/></g><g clip-path="url(#q)"><path fill="#EF553B" d="M255.191 157.05h13.52v23.216h-13.52Zm0 0"/></g><g clip-path="url(#r)"><path fill="#EF553B" d="M305.89 175.95h13.52v4.316h-13.52Zm0 0"/></g><g clip-path="url(#s)"><path fill="#00CC96" d="M116.61 151.078h13.519v29.188h-13.52Zm0 0"/></g><g clip-path="url(#t)"><path fill="#00CC96" d="M167.309 9.012h13.52v171.254h-13.52Zm0 0"/></g><g clip-path="url(#u)"><path fill="#00CC96" d="M218.012 149.68h13.52v30.586h-13.52Zm0 0"/></g><g clip-path="url(#v)"><path fill="#00CC96" d="M268.71 179.605h13.52v.66h-13.52Zm0 0"/></g><use xlink:href="#w" x="56.285" y="190.031" fill="#2A3F5F"/><use xlink:href="#x" x="106.985" y="190.031" fill="#2A3F5F"/><use xlink:href="#y" x="157.685" y="190.031" fill="#2A3F5F"/><use xlink:href="#z" x="208.385" y="190.031" fill="#2A3F5F"/><use xlink:href="#A" x="259.085" y="190.031" fill="#2A3F5F"/><use xlink:href="#B" x="309.785" y="190.031" fill="#2A3F5F"/><use xlink:href="#C" x="27.319" y="183.421" fill="#2A3F5F"/><g fill="#2A3F5F"><use xlink:href="#C" x="18.31" y="137.085"/><use xlink:href="#D" x="24.04" y="137.085"/><use xlink:href="#x" x="27.318" y="137.085"/></g><g fill="#2A3F5F"><use xlink:href="#C" x="18.31" y="90.742"/><use xlink:href="#D" x="24.04" y="90.742"/><use xlink:href="#z" x="27.318" y="90.742"/></g><g fill="#2A3F5F"><use xlink:href="#C" x="18.31" y="44.406"/><use xlink:href="#D" x="24.04" y="44.406"/><use xlink:href="#B" x="27.318" y="44.406"/></g><g clip-path="url(#E)"><path fill="#FFF" d="M280.164 0H338v50.324h-57.836Zm0 0"/></g><g fill="#2A3F5F"><use xlink:href="#F" x="310.209" y="14.406"/><use xlink:href="#G" x="317.805" y="14.406"/></g><path fill="#636EFA" d="M290.68 6.383h9.011v9.015h-9.011Zm0 0"/><use xlink:href="#F" x="310.209" y="28.677" fill="#2A3F5F"/><g fill="#2A3F5F"><use xlink:href="#G" x="317.805" y="28.677"/><use xlink:href="#H" x="323.24" y="28.677"/><use xlink:href="#I" x="326.792" y="28.677"/></g><use xlink:href="#J" x="330.638" y="28.677" fill="#2A3F5F"/><path fill="#EF553B" d="M290.68 20.656h9.011v9.012h-9.011Zm0 0"/><g fill="#2A3F5F"><use xlink:href="#K" x="310.209" y="42.948"/><use xlink:href="#L" x="319.121" y="42.948"/><use xlink:href="#F" x="325.303" y="42.948"/></g><path fill="#00CC96" d="M290.68 34.926h9.011v9.015h-9.011Zm0 0"/><g fill="#2A3F5F"><use xlink:href="#M" x="101.889" y="208.058"/><use xlink:href="#N" x="109.754" y="208.058"/></g><use xlink:href="#O" x="116.408" y="208.058" fill="#2A3F5F"/><g fill="#2A3F5F"><use xlink:href="#P" x="126.637" y="208.058"/><use xlink:href="#Q" x="133.188" y="208.058"/></g><use xlink:href="#R" x="139.452" y="208.058" fill="#2A3F5F"/><use xlink:href="#S" x="143.94" y="208.058" fill="#2A3F5F"/><use xlink:href="#T" x="147.637" y="208.058" fill="#2A3F5F"/><use xlink:href="#U" x="154.019" y="208.058" fill="#2A3F5F"/><use xlink:href="#S" x="157.717" y="208.058" fill="#2A3F5F"/><use xlink:href="#V" x="161.414" y="208.058" fill="#2A3F5F"/><use xlink:href="#W" x="168.063" y="208.058" fill="#2A3F5F"/><use xlink:href="#Q" x="170.948" y="208.058" fill="#2A3F5F"/><use xlink:href="#O" x="177.212" y="208.058" fill="#2A3F5F"/><use xlink:href="#Q" x="187.441" y="208.058" fill="#2A3F5F"/><use xlink:href="#X" x="193.705" y="208.058" fill="#2A3F5F"/><g fill="#2A3F5F"><use xlink:href="#Y" x="200.359" y="208.058"/><use xlink:href="#Z" x="204.502" y="208.058"/><use xlink:href="#S" x="209.981" y="208.058"/></g><use xlink:href="#aa" x="213.678" y="208.058" fill="#2A3F5F"/><use xlink:href="#X" x="216.564" y="208.058" fill="#2A3F5F"/><use xlink:href="#S" x="223.218" y="208.058" fill="#2A3F5F"/><use xlink:href="#ab" x="226.915" y="208.058" fill="#2A3F5F"/><use xlink:href="#T" x="232.959" y="208.058" fill="#2A3F5F"/><use xlink:href="#R" x="239.34" y="208.058" fill="#2A3F5F"/><use xlink:href="#O" x="243.829" y="208.058" fill="#2A3F5F"/><use xlink:href="#N" x="254.057" y="208.058" fill="#2A3F5F"/><use xlink:href="#W" x="260.711" y="208.058" fill="#2A3F5F"/><use xlink:href="#ac" x="263.597" y="208.058" fill="#2A3F5F"/><use xlink:href="#ad" x="10.515" y="176.404" fill="#2A3F5F"/><use xlink:href="#ae" x="10.515" y="170.361" fill="#2A3F5F"/><use xlink:href="#af" x="10.515" y="165.873" fill="#2A3F5F"/><g fill="#2A3F5F"><use xlink:href="#ag" x="10.515" y="159.557"/><use xlink:href="#ah" x="10.515" y="154.078"/><use xlink:href="#ai" x="10.515" y="149.935"/></g><use xlink:href="#aj" x="10.515" y="147.05" fill="#2A3F5F"/><use xlink:href="#ak" x="10.515" y="140.668" fill="#2A3F5F"/><use xlink:href="#al" x="10.515" y="134.014" fill="#2A3F5F"/><use xlink:href="#aj" x="10.515" y="130.316" fill="#2A3F5F"/><use xlink:href="#am" x="10.515" y="123.935" fill="#2A3F5F"/><use xlink:href="#al" x="10.515" y="120.237" fill="#2A3F5F"/><use xlink:href="#an" x="10.515" y="116.54" fill="#2A3F5F"/><g fill="#2A3F5F"><use xlink:href="#ah" x="10.515" y="109.352"/><use xlink:href="#ae" x="10.515" y="105.208"/></g><use xlink:href="#ao" x="10.515" y="100.72" fill="#2A3F5F"/><g fill="#2A3F5F"><use xlink:href="#ag" x="10.515" y="94.066"/><use xlink:href="#ah" x="10.515" y="88.588"/><use xlink:href="#ao" x="10.515" y="84.444"/></g><use xlink:href="#ae" x="10.515" y="77.79" fill="#2A3F5F"/><use xlink:href="#ap" x="10.515" y="73.302" fill="#2A3F5F"/><g fill="#2A3F5F"><use xlink:href="#aq" x="10.515" y="67.038"/><use xlink:href="#al" x="10.515" y="61.559"/></g><use xlink:href="#ai" x="10.515" y="57.862" fill="#2A3F5F"/><use xlink:href="#ak" x="10.515" y="54.977" fill="#2A3F5F"/><use xlink:href="#al" x="10.515" y="48.322" fill="#2A3F5F"/><use xlink:href="#ar" x="10.515" y="44.625" fill="#2A3F5F"/><use xlink:href="#af" x="10.515" y="36.523" fill="#2A3F5F"/><g fill="#2A3F5F"><use xlink:href="#ah" x="10.515" y="30.207"/><use xlink:href="#af" x="10.515" y="26.064"/></g><g fill="#2A3F5F"><use xlink:href="#aq" x="10.515" y="19.749"/><use xlink:href="#ap" x="10.515" y="14.27"/></g><use xlink:href="#ah" x="10.515" y="8.006" fill="#2A3F5F"/></svg>