<svg xmlns="http://www.w3.org/2000/svg" xmlns:xlink="http://www.w3.org/1999/xlink" width="234" height="166"><defs><path id="f" d="M.625-6.922h1.438V0H.625Zm0 0"/><path id="g" d="M4.14-4.875q.61.393.704 1.313H3.5a1 1 0 0 0-.14-.407q-.236-.264-.75-.265-.439 0-.626.14-.187.127-.187.313-.001.234.203.328.186.112 1.39.375.797.187 1.188.562a1.3 1.3 0 0 1 .406.97q0 .765-.562 1.234-.58.482-1.75.484Q1.453.172.89-.344.31-.843.313-1.64h1.359q.03.375.172.516c.164.18.472.266.922.266q.388 0 .625-.11.234-.124.234-.36a.4.4 0 0 0-.187-.343q-.19-.106-1.391-.406-.879-.216-1.219-.531-.376-.312-.36-.922-.002-.703.548-1.219.561-.516 1.562-.516.966.002 1.563.391m0 0"/><path id="h" d="M4.89-4.469q.64.815.641 1.922-.001 1.125-.64 1.922-.657.797-1.97.797Q1.61.172.954-.625c-.43-.531-.64-1.172-.64-1.922 0-.738.21-1.379.64-1.922q.657-.81 1.969-.812 1.312.002 1.969.812m-1.968.328q-.598.001-.906.407c-.211.28-.313.68-.313 1.187q-.002.767.313 1.188.309.421.906.422.575 0 .89-.422.33-.422.329-1.188 0-.764-.328-1.187-.316-.406-.891-.407m0 0"/><path id="i" d="M4.906-4.562c.414.437.625 1.085.625 1.937q0 1.36-.61 2.063c-.405.48-.929.71-1.562.703-.418 0-.757-.102-1.015-.297a2 2 0 0 1-.438-.5v2.672H.594V-5.11h1.281v.75q.2-.328.453-.532.436-.341 1.063-.343.889.002 1.515.672m-.765 2c0-.383-.09-.735-.266-1.047-.18-.301-.469-.453-.875-.453q-.719 0-1 .687-.14.375-.14.938-.001.89.484 1.25A.98.98 0 0 0 3-.97q.561.001.86-.437c.187-.282.28-.664.28-1.156m0 0"/><path id="j" d="M2-5.11V0H.64v-5.11Zm0-1.843v1.234H.64v-1.234Zm0 0"/><path id="k" d="M3.031-4.125q-.69.002-.937.578-.127.315-.125.781V0H.64v-5.11h1.28v.75q.25-.386.485-.562.422-.311 1.047-.312.795 0 1.297.406.498.423.516 1.39V0H3.89v-3.11c0-.269-.04-.476-.11-.624q-.204-.389-.75-.391m0 0"/><path id="l" d="M2.969-.953v1l-.64.031q-.957.03-1.298-.344C.883-.41.813-.645.813-.969v-3.14h-.72v-.953h.72V-6.5H2.14v1.438h.828v.953H2.14v2.703c0 .21.023.34.078.39q.074.08.484.079.06.001.125-.016.06.018.14 0m0 0"/><path id="m" d="M.813-4.562q.526-.67 1.828-.672.827 0 1.484.328.657.345.656 1.265v2.344q-.001.253.016.594.013.269.078.344a.4.4 0 0 0 .188.156V0H3.609a1 1 0 0 1-.078-.297 1.4 1.4 0 0 1-.047-.297c-.187.2-.398.367-.625.5a2 2 0 0 1-.984.25c-.469.008-.852-.12-1.14-.39Q.264-.64.28-1.36q0-.937.719-1.36.405-.234 1.172-.328l.453-.062c.25-.032.426-.07.531-.125q.296-.106.297-.375 0-.31-.219-.438c-.148-.07-.359-.11-.64-.11q-.485 0-.672.235a1 1 0 0 0-.188.469H.438q.046-.669.375-1.11m1 3.593a.67.67 0 0 0 .453.156q.433.001.797-.25.357-.247.374-.921v-.5a1.4 1.4 0 0 1-.25.125 4 4 0 0 1-.359.093l-.297.063q-.421.08-.61.172-.296.19-.296.578 0 .344.188.484m0 0"/><path id="n" d="M.656-6.922h1.328V0H.656Zm0 0"/><path id="o" d="M3.672-2.484H2.203V0H.766v-6.922H3.78q1.031.001 1.656.547.624.532.625 1.656.001 1.22-.623 1.719-.627.516-1.765.516m.672-1.438q.28-.246.281-.797c0-.351-.094-.61-.281-.765q-.3-.235-.797-.235H2.203v2.047h1.344q.498.001.797-.25m0 0"/><path id="p" d="M3.188-3.875q-.798 0-1.079.516-.157.313-.156.922V0H.61v-5.11h1.282v.891c.195-.343.375-.578.53-.703q.375-.311.985-.312h.173v1.375c-.087 0-.157-.004-.22-.016zm0 0"/><path id="q" d="m2.703-1.344 1.063-3.765h1.422L3.422-.08q-.504 1.453-.797 1.798c-.2.226-.594.343-1.187.343a1.6 1.6 0 0 1-.282 0q-.11-.002-.328-.015V.984H1q.2.013.375-.015a.7.7 0 0 0 .297-.094q.106-.081.219-.344.106-.253.078-.312L.094-5.11h1.484Zm0 0"/><path id="r" d="M5-1.5q-.046.456-.469.922c-.437.5-1.054.75-1.843.75a2.56 2.56 0 0 1-1.72-.625Q.219-1.075.219-2.5.218-3.825.892-4.547q.669-.703 1.75-.703.639 0 1.156.234.498.251.844.766c.195.305.328.652.39 1.047q.046.361.032 1.015h-3.5q.028.768.484 1.079.28.187.672.187.403 0 .672-.234.138-.123.25-.344ZM3.672-3.062c-.024-.352-.125-.626-.313-.813a1.05 1.05 0 0 0-.718-.266q-.471 0-.72.282-.268.298-.327.797Zm0 0"/><path id="s" d="M5.047-3.281H3.672a1.2 1.2 0 0 0-.188-.516q-.234-.311-.703-.312-.675.016-.922.672c-.086.242-.125.558-.125.953 0 .375.04.68.125.906.164.43.47.64.907.64.312 0 .535-.085.672-.265q.187-.246.234-.656h1.36q-.05.628-.438 1.156c-.43.594-1.047.883-1.86.875Q1.497.173.922-.547C.523-1.035.328-1.672.328-2.453Q.326-3.763.968-4.5q.64-.733 1.782-.734.968 0 1.578.422.608.44.719 1.53m0 0"/><path id="t" d="M3.906-.719q-.034.018-.094.14a.7.7 0 0 1-.187.204q-.313.284-.594.39-.3.106-.687.094Q1.2.11.813-.703q-.222-.45-.22-1.328V-5.11h1.36v3.078q-.001.439.11.656.186.391.718.39.669.002.938-.546.124-.31.125-.797V-5.11h1.36V0H3.905Zm0 0"/><path id="u" d="M2.063 0H.702v-6.922h2.11l1.25 5.438 1.25-5.438H7.39V0H6.047v-5.25c.008-.238.016-.422.016-.547L4.75 0H3.344L2.047-5.797v.547q.013.377.015.578Zm0 0"/><path id="v" d="M2.64.172c-.867 0-1.468-.3-1.812-.906q-.532-.904-.531-2.61 0-1.668.531-2.593c.344-.602.945-.907 1.813-.907q1.294.002 1.828.907C4.82-5.32 5-4.457 5-3.344c0 1.137-.18 2.008-.531 2.61Q3.935.173 2.64.172m.797-1.719q.171-.608.172-1.797 0-1.216-.171-1.812-.206-.593-.797-.594c-.399 0-.657.2-.782.594q-.187.595-.187 1.812 0 1.188.187 1.797c.125.418.383.625.782.625q.591.001.797-.625m0 0"/><path id="M" d="M3.64 0H2.267v-4.687H.672v-.922q.622-.013.875-.079.405-.092.656-.359.17-.168.266-.484a3 3 0 0 0 .062-.266h1.11Zm0 0"/><path id="Q" d="M3.344-5.422q-.253-.28-.688-.281-.61 0-.828.453c-.094.18-.148.453-.156.828H.375q.03-.856.313-1.39.528-1.032 1.906-1.032c.719 0 1.289.203 1.719.61q.639.595.64 1.578 0 .768-.453 1.343-.3.394-.969.876l-.547.374c-.336.243-.562.415-.687.516a1.4 1.4 0 0 0-.313.375h2.97V0H.296Q.31-.733.609-1.344q.294-.669 1.36-1.437.919-.657 1.187-.938.422-.45.422-.984 0-.421-.234-.719m0 0"/><path id="S" d="M1.844-5.453q-.235.314-.219.812H.375a3.3 3.3 0 0 1 .172-.968q.151-.388.516-.735c.175-.156.382-.273.625-.36q.357-.14.89-.14.968.018 1.578.516c.395.336.594.781.594 1.344q0 .61-.36 1.015c-.148.18-.304.297-.468.36q.169 0 .531.312.499.47.5 1.297-.002.86-.594 1.516-.595.656-1.765.656Q1.14.172.578-.781.28-1.261.25-2.094h1.313c0 .274.046.5.14.688.156.324.445.484.875.484q.405.002.703-.265.281-.265.281-.782 0-.656-.546-.89-.3-.124-.97-.125v-.97c.427 0 .727-.038.907-.124q.436-.187.453-.797a.88.88 0 0 0-.234-.625q-.235-.248-.64-.25c-.313 0-.544.102-.688.297m0 0"/><path id="W" d="M5.031-2.516v1.047H4.25V0H2.953v-1.469H.25v-1.156l2.5-4.14h1.5v4.25Zm-3.781 0h1.703v-2.937Zm0 0"/><path id="Y" d="M2.563-3.375q-.253.002-.422.063a.82.82 0 0 0-.47.406L.47-2.953.938-6.72h3.75v1.14H1.906l-.234 1.485c.195-.133.36-.222.484-.265.188-.07.422-.11.703-.11q.843 0 1.47.563c.413.386.624.937.624 1.656q-.002.956-.594 1.688c-.406.492-1.011.734-1.812.734q-.973 0-1.594-.516Q.308-.857.25-1.828h1.328q.076.456.313.672.216.251.656.25c.332 0 .586-.117.765-.36q.249-.34.25-.875 0-.513-.234-.875-.251-.358-.765-.359m0 0"/><path id="Z" d="M2.938-4.422q.902.017 1.484.625c.383.406.578.93.578 1.563q0 .972-.562 1.687-.582.72-1.766.719-1.3.014-1.89-1.063-.486-.843-.485-2.171 0-.78.062-1.266.123-.856.47-1.453.28-.481.75-.782.482-.311 1.14-.312.938.002 1.5.484.56.502.64 1.297H3.531q0-.152-.14-.36-.221-.31-.641-.312c-.437 0-.75.243-.937.72-.094.273-.165.671-.204 1.202.164-.195.36-.344.579-.437q.327-.124.75-.14M2.03-3.14q-.39.317-.39.985c0 .375.097.68.297.906q.292.345.75.344.433 0 .703-.344.248-.327.25-.86c0-.406-.094-.71-.282-.921a.96.96 0 0 0-.718-.313q-.345.002-.61.203m0 0"/><path id="ab" d="M4.234-4.61a7.6 7.6 0 0 0-.89 1.563q-.299.627-.531 1.547-.236.926-.22 1.5h-1.39q.06-1.827 1.203-3.812.732-1.219 1.235-1.704H.25l.016-1.203h4.797v1.047q-.3.3-.829 1.063m0 0"/><path id="ad" d="M.844-.422C.445-.816.25-1.305.25-1.89c0-.375.086-.718.266-1.03q.263-.47.765-.704-.502-.328-.64-.703a1.9 1.9 0 0 1-.157-.719q0-.732.563-1.266.545-.528 1.578-.53 1.015.002 1.578.53.546.534.547 1.266 0 .33-.14.719-.143.375-.641.656.498.282.75.75.264.469.265 1.031 0 .878-.64 1.47c-.43.398-1.024.593-1.782.593-.761 0-1.335-.195-1.718-.594m.797-1.547q-.002.503.265.766c.164.187.407.281.719.281q.45 0 .719-.281.264-.263.265-.766-.018-.515-.265-.797-.269-.264-.719-.265-.456.001-.719.265c-.18.188-.265.454-.265.797M2-4.297q.216.234.625.234.404 0 .625-.234.218-.216.234-.61c-.011-.257-.09-.468-.234-.624q-.221-.218-.625-.219-.409 0-.625.219-.234.236-.234.625 0 .392.234.61m0 0"/><path id="ae" d="M2.5.203c-.512 0-.969-.16-1.375-.469Q.498-.699.422-1.578H1.75c.031.21.117.371.266.484.125.137.304.2.547.188.437 0 .742-.242.921-.735q.141-.386.188-1.171a1.6 1.6 0 0 1-.39.359q-.377.22-.923.219a2.05 2.05 0 0 1-1.437-.563c-.43-.363-.64-.898-.64-1.61 0-.726.21-1.32.64-1.78q.62-.67 1.64-.672 1.547.001 2.126 1.375.328.783.328 2.047-.001 1.236-.313 2.062C4.297-.32 3.563.203 2.5.203m-.469-5.75q-.39.301-.39 1.016-.001.61.25.906.234.299.75.297a.8.8 0 0 0 .53-.156q.454-.281.454-1-.001-.576-.266-.922a.93.93 0 0 0-.75-.344.98.98 0 0 0-.578.203m0 0"/><path id="w" d="M4.266-2.828 3.219-5.875l-1.11 3.047ZM2.734-6.891h1.063L6.297 0H5.266l-.703-2.062h-2.72L1.094 0H.142Zm0 0"/><path id="x" d="M3.328-3.984c.383 0 .688-.051.906-.157q.516-.263.516-.937c0-.445-.184-.75-.547-.906q-.299-.124-.906-.125H1.625v2.125Zm.313 3.187c.57 0 .976-.164 1.218-.5q.235-.309.235-.766c0-.488-.227-.828-.672-1.015q-.363-.14-.938-.14H1.625v2.421ZM.703-6.89h2.969c.8 0 1.375.243 1.719.72.195.292.297.62.297.984q-.002.655-.36 1.078a1.8 1.8 0 0 1-.562.39q.527.223.797.469.468.439.468 1.234-.017.675-.422 1.204Q4.983 0 3.625 0H.703Zm0 0"/><path id="y" d="M.297 0c.031-.57.148-1.078.36-1.516q.31-.639 1.218-1.156l.906-.531q.592-.341.844-.594.388-.387.39-.89 0-.593-.359-.938-.363-.342-.937-.344-.877 0-1.203.657-.176.363-.188.984h-.86q.014-.874.313-1.438.562-.984 1.938-.984 1.154.001 1.703.625c.344.43.52.89.531 1.39a1.9 1.9 0 0 1-.578 1.391q-.329.329-1.172.797l-.64.36a4 4 0 0 0-.735.484c-.312.273-.508.574-.578.906h3.656V0Zm0 0"/><path id="z" d="M3.64-7.078q1.295 0 2.032.687.714.69.797 1.563h-.907q-.158-.655-.609-1.047-.468-.388-1.312-.39-1.02 0-1.641.702-.626.721-.625 2.204 0 1.206.563 1.968.562.75 1.687.75c.688 0 1.21-.265 1.578-.796q.282-.404.422-1.094h.906q-.129 1.096-.797 1.828-.83.877-2.218.875Q2.308.173 1.5-.547.422-1.512.422-3.516q0-1.528.812-2.5.872-1.061 2.407-1.062m0 0"/><path id="A" d="M.406-3.11H2.75v.86H.406Zm0 0"/><path id="B" d="M2.61-.547c.562 0 .945-.21 1.156-.64q.311-.622.312-1.407 0-.702-.219-1.14c-.25-.47-.664-.703-1.234-.703q-.785.001-1.125.593-.361.597-.36 1.422-.002.815.36 1.344.341.532 1.11.531m.03-4.625q.985 0 1.641.656.67.644.672 1.891-.002 1.236-.578 2.016-.596.796-1.844.797-1.03 0-1.64-.704-.627-.701-.61-1.89-.002-1.266.64-2.016.64-.75 1.72-.75m0 0"/><path id="C" d="M.938-6.89h.953V0H.938Zm0 0"/><path id="D" d="M.922-4.75v-.656c.601-.063 1.031-.16 1.281-.297q.342-.2.531-.984h.672V0H2.5v-4.75Zm0 0"/><path id="E" d="M2.594-6.719q1.312 0 1.89 1.078.453.832.454 2.266-.001 1.376-.407 2.266Q3.935.19 2.594.188 1.387.19.797-.875c-.336-.582-.5-1.363-.5-2.344q0-1.137.297-1.969c.375-1.019 1.039-1.53 2-1.53m0 6.125q.655.018 1.047-.578c.25-.383.379-1.11.39-2.172q0-1.137-.281-1.875c-.2-.488-.562-.734-1.094-.734q-.752 0-1.094.687-.344.706-.343 2.079c0 .687.07 1.242.218 1.656q.341.937 1.157.937m0 0"/><path id="F" d="M5.031-6.61v.735c-.218.219-.508.586-.86 1.094a10 10 0 0 0-.952 1.687q-.41.879-.625 1.594-.143.47-.344 1.5h-.937q.31-1.92 1.406-3.828.64-1.124 1.344-1.922H.358v-.86Zm0 0"/><path id="G" d="M1.266-1.344c0 .25.086.446.265.578a.96.96 0 0 0 .64.22q.437 0 .86-.204.703-.34.703-1.125v-.687a1.2 1.2 0 0 1-.39.171 4 4 0 0 1-.485.094l-.515.063c-.305.043-.531.105-.688.187q-.39.223-.39.703m2.047-1.703q.28-.028.39-.25a.66.66 0 0 0 .063-.312q-.02-.436-.313-.625-.314-.187-.875-.203-.675 0-.937.359-.158.206-.203.594H.64q.01-.936.609-1.297.575-.36 1.344-.36.874 0 1.437.329.546.345.547 1.046v2.907q0 .128.063.203.044.08.218.078h.125c.051-.008.102-.016.157-.016v.625a8 8 0 0 1-.297.063 3 3 0 0 1-.282.015q-.44 0-.64-.312-.111-.153-.14-.469-.27.347-.75.594a2.3 2.3 0 0 1-1.063.25c-.469 0-.852-.149-1.14-.438Q.388-.67.39-1.312q0-.704.438-1.095.42-.375 1.14-.469Zm0 0"/><path id="H" d="M.828-5.797q.012-.515.188-.766c.195-.28.578-.421 1.14-.421h.156q.094.002.204.015v.766a.7.7 0 0 1-.188-.016h-.125q-.376.002-.453.203c-.055.137-.078.477-.078 1.016h.844v.672h-.844V0H.828v-4.328H.125V-5h.703Zm0 0"/><path id="I" d="M.625-6.922h.844v2.578A2.5 2.5 0 0 1 2-4.875q.406-.265 1.016-.266 1.09.002 1.484.766.218.423.219 1.156V0h-.875v-3.172q0-.544-.14-.812-.237-.406-.86-.407-.533 0-.953.36-.44.363-.422 1.36V0H.625Zm0 0"/><path id="J" d="M3.172-2.375v-3.047L1.016-2.375ZM3.187 0v-1.64H.25v-.829l3.078-4.265h.703v4.359h1v.734h-1V0Zm0 0"/><path id="K" d="M1.188-1.719q.075.737.671 1 .295.14.688.14.75 0 1.125-.468.34-.482.36-1.062c0-.47-.15-.832-.438-1.094a1.54 1.54 0 0 0-1.031-.375c-.293 0-.54.055-.735.156a1.6 1.6 0 0 0-.547.469l-.734-.031.516-3.625h3.5v.812h-2.86l-.297 1.875a2.3 2.3 0 0 1 .453-.265q.375-.155.86-.157.92.002 1.578.594.64.611.64 1.516-.001.955-.593 1.672C3.945-.07 3.32.172 2.469.172a2.37 2.37 0 0 1-1.453-.469Q.389-.747.313-1.719Zm0 0"/><path id="L" d="M2.813-6.75q1.124.002 1.562.578.452.598.453 1.219h-.844q-.081-.404-.234-.625Q3.436-6 2.828-6q-.72.001-1.125.64-.421.675-.469 1.876c.188-.282.43-.489.735-.625q.386-.188.89-.188c.57 0 1.067.18 1.485.531q.623.55.625 1.61c0 .617-.2 1.156-.594 1.625-.406.469-.977.703-1.703.703q-.938.001-1.625-.719-.69-.703-.688-2.406-.002-1.248.313-2.125.576-1.67 2.14-1.672M2.75-.578c.445 0 .781-.149 1-.453q.328-.436.328-1.047-.002-.516-.297-.985-.298-.468-1.078-.468-.55 0-.953.36-.408.361-.406 1.093c0 .43.125.781.375 1.062q.375.439 1.031.438m0 0"/><path id="N" d="M2.61-3.906q.56.002.874-.313.312-.312.313-.734c0-.25-.102-.484-.297-.703q-.314-.312-.922-.313-.61.001-.875.313a1.05 1.05 0 0 0-.266.75q0 .469.344.734c.239.18.516.266.828.266m.062 3.328q.575.002.969-.313c.257-.207.39-.523.39-.953q0-.639-.406-.984-.408-.342-1.016-.344-.609.002-.984.344-.391.345-.39.953-.001.532.343.906.342.391 1.094.39m-1.203-3c-.242-.094-.422-.211-.547-.36q-.375-.358-.375-.968-.002-.748.547-1.297.528-.53 1.531-.531.966.001 1.516.5c.375.343.562.742.562 1.187q-.018.645-.328 1.031a2 2 0 0 1-.547.422q.404.207.656.453.437.47.438 1.22-.002.89-.594 1.5Q3.73.186 2.64.187 1.669.186.984-.344.312-.87.313-1.89q0-.591.28-1.03.295-.422.876-.657m0 0"/><path id="O" d="M.547-6.922h.828v2.5q.264-.34.656-.547.388-.187.844-.187.936.001 1.516.64.592.658.593 1.907-.002 1.189-.578 1.984-.596.783-1.61.781c-.374 0-.698-.097-.968-.281q-.235-.152-.5-.516V0H.547ZM2.75-.594q.685 0 1.031-.531.328-.546.328-1.437 0-.798-.328-1.313-.346-.53-1.015-.531a1.35 1.35 0 0 0-1 .437q-.439.422-.438 1.406-.002.706.172 1.141c.219.555.633.828 1.25.828m0 0"/><path id="P" d="M1.281-1.625q.029.704.532.969.262.14.578.14c.406 0 .754-.164 1.047-.5q.419-.499.593-2.046-.282.438-.687.624a2.3 2.3 0 0 1-.906.172c-.649 0-1.157-.195-1.532-.593Q.344-3.468.344-4.422q0-.903.562-1.61.546-.702 1.64-.702 1.467.002 2.032 1.328.312.738.313 1.828 0 1.237-.375 2.187Q3.904.19 2.438.188C1.77.188 1.27.012.938-.328Q.422-.842.422-1.625ZM2.563-3q.48.001.921-.344.406-.327.407-1.14 0-.748-.375-1.11-.377-.359-.953-.36-.627.002-.985.407-.361.422-.36 1.11c0 .437.102.789.313 1.046q.328.392 1.032.391m0 0"/><path id="R" d="M2.719-5.14q.527.001 1.031.25.497.25.766.656.247.375.343.89.062.345.063 1.094H1.25q.013.784.36 1.234.326.47 1.046.47.656 0 1.047-.438a1.5 1.5 0 0 0 .328-.594h.828a2.1 2.1 0 0 1-.218.61q-.188.362-.422.562-.392.375-.953.515-.3.075-.688.063A2.14 2.14 0 0 1 .984-.5q-.657-.686-.64-1.922 0-1.202.656-1.953.64-.764 1.719-.766m1.344 2.234q-.064-.545-.25-.89-.347-.61-1.157-.61-.58.017-.969.422-.41.42-.421 1.078Zm0 0"/><path id="T" d="M2.5.188Q1.292.188.766-.47q-.55-.655-.532-1.594h.875q.047.659.25.954.329.515 1.188.515.654.019 1.062-.343.406-.359.407-.922c0-.47-.141-.79-.422-.97q-.439-.28-1.188-.28H2.25a1 1 0 0 1-.187.015v-.75q.124.017.218.016a.6.6 0 0 0 .203 0q.469 0 .766-.14.546-.265.547-.938 0-.499-.36-.782a1.37 1.37 0 0 0-.828-.265q-.844 0-1.171.562c-.125.211-.196.5-.204.875H.406q-.018-.749.297-1.28.5-.921 1.813-.938 1.03 0 1.593.468.563.458.563 1.313-.017.628-.344 1.016a1.45 1.45 0 0 1-.531.374q.528.141.828.563c.195.281.297.621.297 1.016 0 .648-.211 1.168-.625 1.562q-.644.61-1.797.61m0 0"/><path id="U" d="M2.563-5.172q.842 0 1.374.422.529.41.641 1.406h-.812q-.096-.45-.344-.765-.284-.294-.86-.313c-.542 0-.93.266-1.156.797q-.234.516-.234 1.266T1.5-1.094q.31.516 1 .516.528 0 .844-.328.293-.312.422-.875h.812q-.14 1-.703 1.469-.563.455-1.437.453C1.77.148 1.242-.086.859-.58Q.281-1.294.281-2.374.28-3.687.921-4.437q.64-.734 1.642-.735m0 0"/><path id="V" d="M.828-6.89h3.094q.921 0 1.484.515.563.533.563 1.453-.001.815-.5 1.406-.504.61-1.547.61H1.75V0H.828Zm4.203 1.984q0-.762-.562-1.032c-.211-.101-.496-.156-.86-.156H1.75v2.39h1.86c.413 0 .757-.085 1.03-.265q.375-.264.391-.937m0 0"/><path id="X" d="M.828-6.89H5.61v.843H1.75v2.094h3.39v.812H1.75V0H.828Zm0 0"/><path id="aa" d="M.625-5.031h.828v.718q.294-.373.547-.546.404-.282.953-.282c.395 0 .711.102.953.297q.2.174.375.5.28-.404.672-.61a1.86 1.86 0 0 1 .844-.187q1.014 0 1.39.735.188.393.188 1.062V0H6.5v-3.484c0-.332-.086-.567-.25-.703a1 1 0 0 0-.61-.188 1.3 1.3 0 0 0-.859.344q-.362.329-.36 1.11V0h-.859v-3.281q0-.516-.124-.75-.19-.342-.72-.344-.47 0-.859.375-.39.377-.39 1.328V0H.625Zm0 0"/><path id="ac" d="M.781-6.422h.86v1.39h.797v.704H1.64v3.266c0 .18.062.296.187.359q.094.047.328.047c.031.011.07.011.125 0a1 1 0 0 0 .156-.016V0c-.093.031-.195.05-.296.063a5 5 0 0 1-.344.015Q1.199.078 1-.219.78-.51.781-1.016v-3.312H.11v-.703h.672Zm0 0"/><path id="af" d="M2.39-5.11q.592 0 1.032.282.248.175.484.484v-.64h.781v4.578q0 .951-.28 1.515-.533 1.015-1.985 1.016-.814 0-1.36-.36Q.499 1.404.439.626h.859c.039.227.125.398.25.516q.28.28.89.28.966 0 1.282-.687.169-.39.156-1.437a1.6 1.6 0 0 1-.61.578q-.363.188-.937.188a2 2 0 0 1-1.423-.58Q.28-1.089.281-2.437.28-3.686.906-4.407c.407-.468.899-.702 1.485-.702M3.907-2.53q0-.936-.375-1.39-.392-.453-.984-.454-.89 0-1.219.844-.174.439-.172 1.172c0 .562.114.992.344 1.28.227.306.535.454.922.454.601 0 1.031-.273 1.281-.828q.201-.47.203-1.078m0 0"/><clipPath id="a"><path d="M0 .5h13V2H0Zm0 0"/></clipPath><clipPath id="b"><path d="M12 .5h107V2H12Zm0 0"/></clipPath><clipPath id="c"><path d="M118 .5h35V2h-35Zm0 0"/></clipPath><clipPath id="d"><path d="M152 .5h82V2h-82Zm0 0"/></clipPath></defs><path fill="#FDE725" d="M118.535 15.504h33.61v15.004h-33.61Zm0 0"/><path fill="#46075A" d="M152.145 15.504h81.023v15.004h-81.023Zm0 0"/><path fill="#297A8E" d="M118.535 30.508h33.61v15.004h-33.61Zm0 0"/><path fill="#440154" d="M152.145 30.508h81.023v15.004h-81.023Zm0 0"/><path fill="#472C7A" d="M118.535 45.512h33.61v15.004h-33.61Zm0 0"/><path fill="#440154" d="M152.145 45.512h81.023v15.004h-81.023Zm0 0"/><path fill="#470E61" d="M118.535 60.516h33.61V75.52h-33.61Zm0 0"/><path fill="#31668E" d="M152.145 60.516h81.023V75.52h-81.023Zm0 0"/><path fill="#460A5D" d="M118.535 75.52h33.61v15.003h-33.61Zm0 0"/><path fill="#FDE725" d="M152.145 75.52h81.023v15.003h-81.023Zm0 0"/><path fill="#450559" d="M118.535 90.523h33.61v15.008h-33.61Zm0 0"/><path fill="#440154" d="M152.145 90.523h81.023v15.008h-81.023Zm0 0"/><path fill="#450457" d="M118.535 105.531h33.61v15.004h-33.61Zm0 0"/><path fill="#440154" d="M152.145 105.531h81.023v15.004h-81.023Zm0 0"/><path fill="#450457" d="M118.535 120.535h33.61v15.004h-33.61Zm0 0"/><path fill="#440154" d="M152.145 120.535h81.023v15.004h-81.023Zm0 0"/><path fill="#440256" d="M118.535 135.54h33.61v15.003h-33.61Zm0 0"/><path fill="#440154" d="M152.145 135.54h81.023v15.003h-81.023Zm-33.61 15.003h33.61v15.004h-33.61Zm33.61 0h81.023v15.004h-81.023Zm0 0"/><g clip-path="url(#a)"><path d="M.3.5h12.606v.602H.301Zm0 0"/></g><path d="M.3 15.504h12.606v.601H.301Zm0 0"/><g clip-path="url(#b)"><path d="M12.906.5h105.63v.602H12.905Zm0 0"/></g><path d="M12.906 15.504h105.63v.601H12.905Zm0 0"/><g clip-path="url(#c)"><path d="M118.535.5h33.61v.602h-33.61Zm0 0"/></g><path d="M118.535 15.504h33.61v.601h-33.61Zm0 0"/><g clip-path="url(#d)"><path d="M152.145.5h81.023v.602h-81.023Zm0 0"/></g><path d="M152.145 15.504h81.023v.601h-81.023ZM.3 15.504h12.606v.601H.301Zm0 15.004h12.606v.601H.301Zm0 0"/><path d="M12.906 15.504h105.63v.601H12.905Zm0 0"/><path d="M118.535 15.504h33.61v.601h-33.61Zm33.61 0h81.023v.601h-81.023ZM.3 30.508h12.606v.601H.301Zm0 15.004h12.606v.601H.301Zm0 0"/><path d="M.3 45.512h12.606v.601H.301Zm0 15.004h12.606v.601H.301Zm0 0"/><path d="M.3 60.516h12.606v.601H.301Zm0 15.004h12.606v.601H.301Zm0 0"/><path d="M.3 75.52h12.606v.601H.301Zm0 15.003h12.606v.602H.301Zm0 0"/><path d="M.3 90.523h12.606v.602H.301Zm0 15.008h12.606v.598H.301Zm0 0"/><path d="M.3 105.531h12.606v.598H.301Zm0 15.004h12.606v.598H.301Zm0 0"/><path d="M.3 120.535h12.606v.598H.301Zm0 15.005h12.606v.597H.301Zm0 0"/><path d="M.3 135.54h12.606v.597H.301Zm0 15.003h12.606v.598H.301Zm0 0"/><path d="M.3 150.543h12.606v.598H.301Zm0 15.004h12.606v.598H.301Zm0 0"/><use xlink:href="#e" x="3.902" y="10.703"/><use xlink:href="#f" x="16.506" y="10.703"/><use xlink:href="#g" x="19.169" y="10.703"/><use xlink:href="#h" x="24.505" y="10.703"/><use xlink:href="#i" x="30.366" y="10.703"/><use xlink:href="#h" x="36.227" y="10.703"/><use xlink:href="#j" x="42.088" y="10.703"/><use xlink:href="#k" x="44.751" y="10.703"/><use xlink:href="#l" x="50.612" y="10.703"/><use xlink:href="#m" x="53.81" y="10.703"/><use xlink:href="#n" x="59.146" y="10.703"/><use xlink:href="#e" x="61.809" y="10.703"/><use xlink:href="#o" x="64.472" y="10.703"/><use xlink:href="#p" x="70.877" y="10.703"/><use xlink:href="#h" x="74.61" y="10.703"/><use xlink:href="#l" x="80.471" y="10.703"/><use xlink:href="#h" x="83.668" y="10.703"/><use xlink:href="#l" x="89.529" y="10.703"/><use xlink:href="#q" x="92.727" y="10.703"/><use xlink:href="#i" x="98.063" y="10.703"/><use xlink:href="#r" x="103.924" y="10.703"/><use xlink:href="#g" x="109.26" y="10.703"/><use xlink:href="#s" x="122.135" y="10.703"/><use xlink:href="#h" x="127.471" y="10.703"/><use xlink:href="#t" x="133.332" y="10.703"/><use xlink:href="#k" x="139.193" y="10.703"/><use xlink:href="#l" x="145.054" y="10.703"/><use xlink:href="#u" x="155.745" y="10.703"/><use xlink:href="#o" x="163.744" y="10.703"/><use xlink:href="#e" x="170.149" y="10.703"/><use xlink:href="#h" x="172.812" y="10.703"/><use xlink:href="#s" x="178.673" y="10.703"/><use xlink:href="#s" x="184.009" y="10.703"/><use xlink:href="#t" x="189.345" y="10.703"/><use xlink:href="#p" x="195.206" y="10.703"/><use xlink:href="#p" x="198.938" y="10.703"/><use xlink:href="#r" x="202.67" y="10.703"/><use xlink:href="#k" x="208.006" y="10.703"/><use xlink:href="#s" x="213.867" y="10.703"/><use xlink:href="#r" x="219.203" y="10.703"/><use xlink:href="#g" x="224.539" y="10.703"/><use xlink:href="#v" x="3.902" y="25.707"/><use xlink:href="#w" x="16.506" y="25.707"/><use xlink:href="#x" x="22.911" y="25.707"/><use xlink:href="#y" x="29.316" y="25.707"/><use xlink:href="#z" x="34.652" y="25.707"/><use xlink:href="#y" x="41.582" y="25.707"/><use xlink:href="#A" x="46.917" y="25.707"/><use xlink:href="#B" x="50.115" y="25.707"/><use xlink:href="#C" x="55.451" y="25.707"/><use xlink:href="#D" x="58.114" y="25.707"/><use xlink:href="#E" x="63.45" y="25.707"/><use xlink:href="#A" x="68.786" y="25.707"/><use xlink:href="#F" x="71.984" y="25.707"/><use xlink:href="#D" x="77.32" y="25.707"/><use xlink:href="#A" x="82.656" y="25.707"/><use xlink:href="#G" x="85.853" y="25.707"/><use xlink:href="#A" x="91.189" y="25.707"/><use xlink:href="#H" x="94.387" y="25.707"/><use xlink:href="#A" x="97.05" y="25.707"/><use xlink:href="#I" x="100.248" y="25.707"/><use xlink:href="#J" x="122.135" y="25.707"/><use xlink:href="#K" x="127.471" y="25.707"/><use xlink:href="#L" x="132.807" y="25.707"/><use xlink:href="#F" x="155.745" y="25.707" fill="#F1F1F1"/><use xlink:href="#K" x="161.081" y="25.707" fill="#F1F1F1"/><use xlink:href="#M" x="3.902" y="40.711"/><use xlink:href="#w" x="16.506" y="40.111"/><use xlink:href="#x" x="22.911" y="40.111"/><use xlink:href="#z" x="29.316" y="40.111"/><use xlink:href="#y" x="36.246" y="40.111"/><use xlink:href="#A" x="41.582" y="40.111"/><use xlink:href="#B" x="44.779" y="40.111"/><use xlink:href="#C" x="50.115" y="40.111"/><use xlink:href="#N" x="52.778" y="40.111"/><use xlink:href="#A" x="58.114" y="40.111"/><use xlink:href="#F" x="61.312" y="40.111"/><use xlink:href="#D" x="66.648" y="40.111"/><use xlink:href="#A" x="71.984" y="40.111"/><use xlink:href="#G" x="75.182" y="40.111"/><use xlink:href="#A" x="80.517" y="40.111"/><use xlink:href="#O" x="83.715" y="40.111"/><use xlink:href="#A" x="89.051" y="40.111"/><use xlink:href="#H" x="92.249" y="40.111"/><use xlink:href="#D" x="122.135" y="40.111" fill="#F1F1F1"/><use xlink:href="#P" x="127.471" y="40.111" fill="#F1F1F1"/><use xlink:href="#J" x="132.807" y="40.111" fill="#F1F1F1"/><use xlink:href="#E" x="155.745" y="40.111" fill="#F1F1F1"/><use xlink:href="#Q" x="3.902" y="55.715"/><use xlink:href="#w" x="16.506" y="55.115"/><use xlink:href="#x" x="22.911" y="55.115"/><use xlink:href="#y" x="29.316" y="55.115"/><use xlink:href="#A" x="34.652" y="55.115"/><use xlink:href="#B" x="37.849" y="55.115"/><use xlink:href="#C" x="43.185" y="55.115"/><use xlink:href="#L" x="45.848" y="55.115"/><use xlink:href="#A" x="51.184" y="55.115"/><use xlink:href="#F" x="54.382" y="55.115"/><use xlink:href="#D" x="59.718" y="55.115"/><use xlink:href="#A" x="65.054" y="55.115"/><use xlink:href="#G" x="68.252" y="55.115"/><use xlink:href="#A" x="73.587" y="55.115"/><use xlink:href="#R" x="76.785" y="55.115"/><use xlink:href="#L" x="122.135" y="55.115" fill="#F1F1F1"/><use xlink:href="#N" x="127.471" y="55.115" fill="#F1F1F1"/><use xlink:href="#D" x="155.745" y="55.115" fill="#F1F1F1"/><use xlink:href="#L" x="161.081" y="55.115" fill="#F1F1F1"/><use xlink:href="#S" x="3.902" y="70.72"/><use xlink:href="#w" x="16.506" y="70.119"/><use xlink:href="#x" x="22.911" y="70.119"/><use xlink:href="#z" x="29.316" y="70.119"/><use xlink:href="#T" x="36.246" y="70.119"/><use xlink:href="#A" x="41.582" y="70.119"/><use xlink:href="#U" x="44.779" y="70.119"/><use xlink:href="#V" x="49.581" y="70.119"/><use xlink:href="#K" x="55.986" y="70.119"/><use xlink:href="#A" x="61.321" y="70.119"/><use xlink:href="#y" x="64.519" y="70.119"/><use xlink:href="#y" x="69.855" y="70.119"/><use xlink:href="#D" x="75.191" y="70.119"/><use xlink:href="#A" x="80.527" y="70.119"/><use xlink:href="#G" x="83.725" y="70.119"/><use xlink:href="#A" x="89.06" y="70.119"/><use xlink:href="#O" x="92.258" y="70.119"/><use xlink:href="#A" x="97.594" y="70.119"/><use xlink:href="#U" x="100.792" y="70.119"/><use xlink:href="#T" x="122.135" y="70.119" fill="#F1F1F1"/><use xlink:href="#E" x="127.471" y="70.119" fill="#F1F1F1"/><use xlink:href="#D" x="155.745" y="70.119" fill="#F1F1F1"/><use xlink:href="#J" x="161.081" y="70.119" fill="#F1F1F1"/><use xlink:href="#y" x="166.416" y="70.119" fill="#F1F1F1"/><use xlink:href="#P" x="171.752" y="70.119" fill="#F1F1F1"/><use xlink:href="#W" x="3.902" y="85.724"/><use xlink:href="#w" x="16.506" y="85.124"/><use xlink:href="#x" x="22.911" y="85.124"/><use xlink:href="#z" x="29.316" y="85.124"/><use xlink:href="#y" x="36.246" y="85.124"/><use xlink:href="#A" x="41.582" y="85.124"/><use xlink:href="#U" x="44.779" y="85.124"/><use xlink:href="#X" x="49.581" y="85.124"/><use xlink:href="#D" x="55.442" y="85.124"/><use xlink:href="#L" x="60.778" y="85.124"/><use xlink:href="#A" x="66.113" y="85.124"/><use xlink:href="#y" x="69.311" y="85.124"/><use xlink:href="#y" x="74.647" y="85.124"/><use xlink:href="#K" x="79.983" y="85.124"/><use xlink:href="#A" x="85.319" y="85.124"/><use xlink:href="#G" x="88.517" y="85.124"/><use xlink:href="#A" x="93.852" y="85.124"/><use xlink:href="#O" x="97.05" y="85.124"/><use xlink:href="#A" x="102.386" y="85.124"/><use xlink:href="#U" x="105.584" y="85.124"/><use xlink:href="#y" x="122.135" y="85.124" fill="#F1F1F1"/><use xlink:href="#J" x="127.471" y="85.124" fill="#F1F1F1"/><use xlink:href="#J" x="155.745" y="85.124"/><use xlink:href="#T" x="161.081" y="85.124"/><use xlink:href="#P" x="166.416" y="85.124"/><use xlink:href="#K" x="171.752" y="85.124"/><use xlink:href="#Y" x="3.902" y="100.728"/><use xlink:href="#w" x="16.506" y="100.128"/><use xlink:href="#x" x="22.911" y="100.128"/><use xlink:href="#T" x="29.316" y="100.128"/><use xlink:href="#A" x="34.652" y="100.128"/><use xlink:href="#B" x="37.849" y="100.128"/><use xlink:href="#C" x="43.185" y="100.128"/><use xlink:href="#N" x="45.848" y="100.128"/><use xlink:href="#A" x="51.184" y="100.128"/><use xlink:href="#F" x="54.382" y="100.128"/><use xlink:href="#D" x="59.718" y="100.128"/><use xlink:href="#A" x="65.054" y="100.128"/><use xlink:href="#G" x="68.252" y="100.128"/><use xlink:href="#A" x="73.587" y="100.128"/><use xlink:href="#O" x="76.785" y="100.128"/><use xlink:href="#H" x="82.121" y="100.128"/><use xlink:href="#D" x="122.135" y="100.128" fill="#F1F1F1"/><use xlink:href="#P" x="127.471" y="100.128" fill="#F1F1F1"/><use xlink:href="#y" x="155.745" y="100.128" fill="#F1F1F1"/><use xlink:href="#Z" x="3.902" y="115.732"/><use xlink:href="#w" x="16.506" y="115.132"/><use xlink:href="#x" x="22.911" y="115.132"/><use xlink:href="#y" x="29.316" y="115.132"/><use xlink:href="#A" x="34.652" y="115.132"/><use xlink:href="#aa" x="37.849" y="115.132"/><use xlink:href="#z" x="45.848" y="115.132"/><use xlink:href="#D" x="52.778" y="115.132"/><use xlink:href="#y" x="58.114" y="115.132"/><use xlink:href="#A" x="63.45" y="115.132"/><use xlink:href="#D" x="66.648" y="115.132"/><use xlink:href="#K" x="71.984" y="115.132"/><use xlink:href="#A" x="77.32" y="115.132"/><use xlink:href="#R" x="80.517" y="115.132"/><use xlink:href="#A" x="85.853" y="115.132"/><use xlink:href="#y" x="89.051" y="115.132"/><use xlink:href="#H" x="94.387" y="115.132"/><use xlink:href="#D" x="122.135" y="115.132" fill="#F1F1F1"/><use xlink:href="#N" x="127.471" y="115.132" fill="#F1F1F1"/><use xlink:href="#E" x="155.745" y="115.132" fill="#F1F1F1"/><use xlink:href="#ab" x="3.902" y="130.736"/><use xlink:href="#w" x="16.506" y="130.136"/><use xlink:href="#x" x="22.911" y="130.136"/><use xlink:href="#z" x="29.316" y="130.136"/><use xlink:href="#y" x="36.246" y="130.136"/><use xlink:href="#A" x="41.582" y="130.136"/><use xlink:href="#ac" x="44.779" y="130.136"/><use xlink:href="#C" x="47.443" y="130.136"/><use xlink:href="#N" x="50.106" y="130.136"/><use xlink:href="#A" x="55.442" y="130.136"/><use xlink:href="#D" x="58.639" y="130.136"/><use xlink:href="#T" x="63.975" y="130.136"/><use xlink:href="#P" x="69.311" y="130.136"/><use xlink:href="#A" x="74.647" y="130.136"/><use xlink:href="#G" x="77.845" y="130.136"/><use xlink:href="#A" x="83.181" y="130.136"/><use xlink:href="#O" x="86.378" y="130.136"/><use xlink:href="#A" x="91.714" y="130.136"/><use xlink:href="#R" x="94.912" y="130.136"/><use xlink:href="#D" x="122.135" y="130.136" fill="#F1F1F1"/><use xlink:href="#F" x="127.471" y="130.136" fill="#F1F1F1"/><use xlink:href="#K" x="155.745" y="130.136" fill="#F1F1F1"/><use xlink:href="#ad" x="3.902" y="145.741"/><use xlink:href="#w" x="16.506" y="145.14"/><use xlink:href="#x" x="22.911" y="145.14"/><use xlink:href="#y" x="29.316" y="145.14"/><use xlink:href="#z" x="34.652" y="145.14"/><use xlink:href="#K" x="41.582" y="145.14"/><use xlink:href="#A" x="46.917" y="145.14"/><use xlink:href="#B" x="50.115" y="145.14"/><use xlink:href="#C" x="55.451" y="145.14"/><use xlink:href="#D" x="58.114" y="145.14"/><use xlink:href="#L" x="63.45" y="145.14"/><use xlink:href="#A" x="68.786" y="145.14"/><use xlink:href="#F" x="71.984" y="145.14"/><use xlink:href="#D" x="77.32" y="145.14"/><use xlink:href="#A" x="82.656" y="145.14"/><use xlink:href="#U" x="85.853" y="145.14"/><use xlink:href="#A" x="90.655" y="145.14"/><use xlink:href="#R" x="93.852" y="145.14"/><use xlink:href="#A" x="99.188" y="145.14"/><use xlink:href="#G" x="102.386" y="145.14"/><use xlink:href="#aa" x="107.722" y="145.14"/><use xlink:href="#D" x="122.135" y="145.14" fill="#F1F1F1"/><use xlink:href="#L" x="127.471" y="145.14" fill="#F1F1F1"/><use xlink:href="#T" x="155.745" y="145.14" fill="#F1F1F1"/><use xlink:href="#ae" x="3.902" y="160.745"/><use xlink:href="#w" x="16.506" y="160.145"/><use xlink:href="#y" x="22.911" y="160.145"/><use xlink:href="#x" x="28.247" y="160.145"/><use xlink:href="#T" x="34.652" y="160.145"/><use xlink:href="#A" x="39.987" y="160.145"/><use xlink:href="#B" x="43.185" y="160.145"/><use xlink:href="#C" x="48.521" y="160.145"/><use xlink:href="#D" x="51.184" y="160.145"/><use xlink:href="#E" x="56.52" y="160.145"/><use xlink:href="#A" x="61.856" y="160.145"/><use xlink:href="#F" x="65.054" y="160.145"/><use xlink:href="#D" x="70.39" y="160.145"/><use xlink:href="#A" x="75.726" y="160.145"/><use xlink:href="#R" x="78.923" y="160.145"/><use xlink:href="#A" x="84.259" y="160.145"/><use xlink:href="#U" x="87.457" y="160.145"/><use xlink:href="#af" x="92.258" y="160.145"/><use xlink:href="#D" x="122.135" y="160.145" fill="#F1F1F1"/><use xlink:href="#T" x="127.471" y="160.145" fill="#F1F1F1"/><use xlink:href="#T" x="155.745" y="160.145" fill="#F1F1F1"/></svg>