<svg xmlns="http://www.w3.org/2000/svg" xmlns:xlink="http://www.w3.org/1999/xlink" width="375.12" height="247.92"><defs><path id="n" d="M6.406-2.516H.97v-.703h5.437Zm0 0"/><path id="o" d="M5.125-3.281q-.001 1.769-.547 2.594C4.211-.133 3.641.14 2.86.14Q1.687.142 1.141-.687.608-1.531.609-3.266q-.002-1.746.547-2.578.545-.827 1.703-.828 1.186 0 1.72.844c.362.562.546 1.414.546 2.547m-1.156 2c.101-.239.172-.516.203-.828q.06-.48.062-1.172a10 10 0 0 0-.062-1.14 2.7 2.7 0 0 0-.203-.845 1.2 1.2 0 0 0-.422-.515c-.18-.114-.406-.172-.688-.172a1.3 1.3 0 0 0-.687.172q-.27.176-.422.515a3 3 0 0 0-.203.86 13 13 0 0 0-.047 1.14q0 .69.047 1.157.046.455.203.812.14.344.406.531c.176.118.41.172.703.172.282 0 .508-.054.688-.172q.28-.17.422-.515m0 0"/><path id="p" d="M2.156 0H1.11v-1.25h1.047Zm0 0"/><path id="q" d="M5.14 0H.704v-.922c.313-.258.617-.52.922-.781q.467-.404.875-.797c.563-.54.945-.973 1.156-1.297q.312-.48.313-1.031-.002-.516-.344-.797c-.219-.195-.531-.297-.937-.297q-.392 0-.86.14a3.3 3.3 0 0 0-.906.438H.875v-.922a4.3 4.3 0 0 1 .828-.28q.514-.142 1.016-.141.998 0 1.562.5.576.486.578 1.312 0 .375-.093.703-.095.316-.282.61-.174.269-.406.53-.22.27-.547.579a27 27 0 0 1-.984.906c-.336.281-.64.547-.922.797h3.516Zm0 0"/><path id="r" d="M4.766 0H1.219v-.672h1.36v-4.375h-1.36v-.61q.28 0 .593-.046a1.8 1.8 0 0 0 .485-.125.8.8 0 0 0 .312-.281.85.85 0 0 0 .141-.453h.672v5.89h1.344Zm0 0"/><path id="s" d="M5.078-2.078c0 .305-.058.594-.172.875a1.9 1.9 0 0 1-.453.703q-.315.315-.75.484a3.1 3.1 0 0 1-1.015.157Q2.154.14 1.656.016A4 4 0 0 1 .828-.25v-.922h.063c.238.156.515.29.828.39q.482.158.953.157c.207 0 .41-.023.61-.078.195-.063.366-.164.515-.313a1.1 1.1 0 0 0 .297-.453q.093-.264.093-.61a1.24 1.24 0 0 0-.125-.577.95.95 0 0 0-.312-.375 1.45 1.45 0 0 0-.547-.219 3.3 3.3 0 0 0-.734-.078q-.393.002-.75.062-.364.048-.61.094v-3.375h3.938v.766H1.953v1.75q.188-.014.375-.016.2-.014.36-.016.528 0 .921.094c.27.055.516.156.735.313q.358.236.547.625.187.377.187.953m0 0"/><path id="y" d="M5.813-2.016A1.9 1.9 0 0 1 5.14-.53q-.377.282-.828.406-.441.127-1.11.125H.875v-6.547h1.938c.476 0 .835.024 1.078.063q.358.047.687.218c.238.125.41.29.516.485.101.199.156.433.156.703q0 .468-.234.797a1.7 1.7 0 0 1-.625.531v.031q.655.128 1.03.578.39.458.391 1.125m-1.47-2.953a.9.9 0 0 0-.077-.39.6.6 0 0 0-.25-.266 1.1 1.1 0 0 0-.5-.14 8 8 0 0 0-.735-.032H1.75v1.89h1.125q.406 0 .64-.046.248-.045.454-.172a.77.77 0 0 0 .281-.344q.094-.2.094-.5m.563 2.985c0-.258-.043-.47-.125-.625Q4.67-2.844 4.36-3a1.5 1.5 0 0 0-.515-.14 8 8 0 0 0-.735-.032H1.75V-.75h1.156q.56 0 .922-.047.375-.06.61-.219.247-.169.359-.39c.07-.145.11-.336.11-.578m0 0"/><path id="z" d="M4.625 0h-.812v-.516q-.111.064-.297.204-.187.126-.375.218a2.6 2.6 0 0 1-.47.157Q2.404.14 2.048.14q-.673 0-1.14-.438Q.45-.747.452-1.422q0-.562.235-.906.247-.341.687-.547.45-.186 1.078-.25.62-.077 1.36-.125v-.125a.86.86 0 0 0-.11-.453.7.7 0 0 0-.281-.297A1.1 1.1 0 0 0 3-4.265a3.3 3.3 0 0 0-1.25.063 6 6 0 0 0-.812.233H.89v-.828a6 6 0 0 1 .703-.156q.45-.077.89-.078a3.8 3.8 0 0 1 .907.093c.257.055.484.149.672.282q.281.203.421.531.141.316.141.797Zm-.812-1.203v-1.375l-.907.078q-.503.033-.797.125a1.23 1.23 0 0 0-.578.313c-.148.136-.218.328-.218.578q-.001.422.25.64.247.204.78.203.434.001.798-.156.355-.17.672-.406m0 0"/><path id="A" d="M3.36-.047a4 4 0 0 1-.516.094q-.269.047-.485.047-.752.002-1.14-.406Q.828-.718.829-1.61v-2.61H.265v-.687h.562v-1.407h.828v1.407H3.36v.687H1.656v2.235q-.001.391.016.609.012.22.125.406a.62.62 0 0 0 .266.266c.113.055.285.078.515.078q.2 0 .422-.062.218-.059.313-.094h.046Zm0 0"/><path id="B" d="M4.438-.312A4.5 4.5 0 0 1 3.656 0c-.25.07-.511.11-.781.11a3 3 0 0 1-.984-.157 1.9 1.9 0 0 1-.75-.469 2 2 0 0 1-.5-.796c-.118-.32-.172-.704-.172-1.141q0-1.2.656-1.875.656-.687 1.75-.688.42.001.828.125.406.112.735.282v.906h-.032a3.7 3.7 0 0 0-.797-.438 2 2 0 0 0-.78-.171q-.705.002-1.11.484c-.274.312-.407.773-.407 1.375 0 .594.13 1.055.391 1.375q.405.469 1.125.469.246 0 .516-.063.264-.06.469-.172.17-.093.328-.187.17-.105.265-.188h.032Zm0 0"/><path id="C" d="M4.922 0h-.828v-2.797a4 4 0 0 0-.047-.64 1.05 1.05 0 0 0-.14-.454.7.7 0 0 0-.313-.28 1.3 1.3 0 0 0-.547-.095q-.328.001-.703.172a4.7 4.7 0 0 0-.703.422V0H.813v-6.844h.828v2.485a3 3 0 0 1 .797-.5q.42-.188.843-.188.797.002 1.219.484.422.471.422 1.375Zm0 0"/><path id="E" d="M5.281-1.844h-.968V0h-.844v-1.844H.344v-1.015L3.5-6.547h.813v4h.968ZM3.47-2.547V-5.5L.938-2.547Zm0 0"/><path id="F" d="M4.563-3.156c.132.125.25.289.343.484q.14.283.14.735 0 .454-.171.828A2.06 2.06 0 0 1 3.641 0q-.44.14-.97.14-.55 0-1.077-.141a4.6 4.6 0 0 1-.86-.281v-.922h.063q.373.252.875.422.516.157.984.156c.188 0 .383-.031.594-.094q.311-.091.5-.265.201-.2.297-.422c.07-.157.11-.352.11-.594q-.001-.357-.126-.578a1 1 0 0 0-.297-.375 1.4 1.4 0 0 0-.484-.172 3 3 0 0 0-.61-.062h-.39v-.735h.297q.668.002 1.062-.265c.27-.188.407-.461.407-.829a.77.77 0 0 0-.11-.406.75.75 0 0 0-.265-.297 1.5 1.5 0 0 0-.407-.156 2.3 2.3 0 0 0-.484-.047c-.281 0-.578.055-.89.156q-.47.141-.891.422H.922v-.922a4.3 4.3 0 0 1 .828-.28q.528-.142 1.016-.141.48 0 .843.093.358.095.657.282.31.222.468.515.171.3.172.688c0 .367-.133.683-.39.953a1.64 1.64 0 0 1-.907.515v.063q.216.034.485.156.28.112.468.266m0 0"/><path id="au" d="M6.703 0h-.86v-5.64L4.017-1.798H3.5L1.688-5.64V0H.875v-6.547h1.188l1.75 3.64L5.5-6.546h1.203Zm0 0"/><path id="av" d="M6.031 0H5.11l-.64-1.828H1.64L1 0H.11L2.5-6.547h1.156ZM4.203-2.578 3.047-5.781l-1.14 3.203Zm0 0"/><path id="aw" d="M5.188 0H.875v-6.547h4.313v.781H1.75v1.782h3.438v.78H1.75V-.78h3.438Zm0 0"/><path id="ax" d="M6.25-2.594 1.172-.344v-.781l4-1.734-4-1.735v-.797L6.25-3.14Zm0 0"/><path id="ay" d="M2.422 1.719h-.766v-8.563h.766Zm0 0"/><path id="aH" d="M3.875-4.016h-.047a7 7 0 0 0-.36-.046 2.5 2.5 0 0 0-.405-.032 1.7 1.7 0 0 0-.735.172 3.6 3.6 0 0 0-.687.438V0H.813v-4.906h.828v.718c.32-.257.609-.44.859-.546q.388-.171.781-.172c.133 0 .235.008.297.015.07 0 .172.012.297.032Zm0 0"/><path id="aI" d="M5-2.453c0 .805-.21 1.437-.625 1.906q-.61.69-1.64.688-1.048.002-1.657-.688c-.406-.469-.61-1.101-.61-1.906q0-1.2.61-1.89.608-.704 1.656-.704 1.032 0 1.641.703c.414.461.625 1.09.625 1.89m-.86 0q0-.95-.374-1.406-.375-.47-1.032-.47-.672 0-1.046.47-.375.456-.375 1.406 0 .926.375 1.406.374.47 1.046.469.657 0 1.032-.469t.375-1.406m0 0"/><path id="aJ" d="M1.64 0H.829v-6.844h.813Zm0 0"/><path id="aK" d="M1.703-5.734H.766v-.86h.937ZM1.641 0H.828v-4.906h.813Zm0 0"/><path id="aL" d="M4.922 0h-.828v-2.797a4 4 0 0 0-.047-.64 1.05 1.05 0 0 0-.14-.454.7.7 0 0 0-.313-.28 1.3 1.3 0 0 0-.547-.095q-.328.001-.703.172a4.7 4.7 0 0 0-.703.422V0H.813v-4.906h.828v.547a3 3 0 0 1 .797-.5q.42-.188.843-.188.797.002 1.219.484.422.471.422 1.375Zm0 0"/><path id="aM" d="M4.797-.562Q4.795.685 4.219 1.266q-.562.592-1.735.593-.39-.002-.765-.062a4.6 4.6 0 0 1-.735-.156V.797h.047q.2.093.64.203c.29.07.583.11.876.11q.421 0 .703-.094a.95.95 0 0 0 .438-.282Q3.84.56 3.906.313q.062-.234.063-.532v-.453q-.377.3-.719.453-.344.14-.86.14Q1.5-.076.985-.702.47-1.341.47-2.5c0-.426.054-.79.172-1.094.125-.3.289-.566.5-.797a1.9 1.9 0 0 1 .687-.484q.404-.17.813-.172.435 0 .718.094.282.082.61.25l.047-.203h.78Zm-.828-.782V-4.03a3.6 3.6 0 0 0-.61-.203 3 3 0 0 0-.562-.063q-.691 0-1.078.453-.391.456-.39 1.328 0 .831.28 1.25.295.423.97.422.355.002.718-.125.374-.141.672-.375m0 0"/><path id="aN" d="M6.984-4.906 5.704 0h-.766l-1.25-3.781L2.438 0h-.766L.375-4.906h.86L2.14-1.11l1.218-3.797h.688l1.25 3.797.86-3.797Zm0 0"/><path id="aO" d="M4.797 0h-.828v-.516a3 3 0 0 1-.75.485q-.377.17-.828.172Q1.5.14.984-.531.47-1.216.47-2.421c0-.415.054-.786.172-1.11.125-.32.289-.598.5-.828a2 2 0 0 1 .687-.5q.406-.188.828-.188.388 0 .688.094c.195.055.406.133.625.234v-2.125h.828Zm-.828-1.203v-2.828a4 4 0 0 0-.594-.203 2.7 2.7 0 0 0-.578-.063q-.705.002-1.094.484-.375.486-.375 1.376 0 .877.297 1.328c.195.304.516.453.953.453q.357 0 .719-.156a3.3 3.3 0 0 0 .672-.391m0 0"/><path id="aP" d="M6.281-3.437H1.078v-.704h5.203Zm0 1.843H1.078v-.703h5.203Zm0 0"/><path id="aQ" d="M7.969 0h-.813v-2.797q0-.31-.031-.61A1.4 1.4 0 0 0 7-3.874a.6.6 0 0 0-.297-.281c-.125-.07-.305-.11-.531-.11q-.364 0-.703.188-.346.175-.688.437.014.094.016.235.014.127.016.265V0h-.829v-2.797q0-.328-.03-.61a1.4 1.4 0 0 0-.126-.468.6.6 0 0 0-.281-.281c-.125-.07-.309-.11-.547-.11q-.346.001-.687.172a6 6 0 0 0-.672.422V0H.813v-4.906h.828v.547c.257-.22.515-.383.765-.5q.388-.188.828-.188.498 0 .844.219.357.204.516.578.513-.421.922-.61.404-.186.89-.187.797.001 1.172.5.388.486.39 1.36Zm0 0"/><path id="aR" d="M4.922-2.375h-3.61q-.001.457.125.797.142.329.375.547c.157.148.336.258.547.328q.312.094.688.094.497 0 1-.188.514-.2.734-.406h.047v.906q-.423.175-.86.297c-.292.07-.593.11-.905.11q-1.22 0-1.907-.657Q.468-1.202.47-2.422q0-1.201.656-1.906.657-.717 1.734-.719.984.002 1.516.578.546.58.547 1.657ZM4.125-3q-.017-.655-.344-1-.313-.359-.969-.36c-.449 0-.804.133-1.062.391A1.5 1.5 0 0 0 1.313-3Zm0 0"/><path id="aS" d="M6.031-6.547 3.656 0H2.5L.11-6.547h.937L3.094-.78l2.062-5.766Zm0 0"/><path id="t" d="M8.031 0H6l-.531-1.547H2.64L2.109 0H.125l2.813-7.64h2.265ZM4.984-2.937l-.937-2.75-.938 2.75Zm0 0"/><path id="u" d="M6.484 0H.97v-7.64h1.969v6.156h3.546Zm0 0"/><path id="v" d="M5.094 0H.625v-1.36h1.25v-4.92H.625v-1.36h4.469v1.36h-1.25v4.922h1.25Zm0 0"/><path id="w" d="M7.719-.437q-.505.205-1.36.406a7.7 7.7 0 0 1-1.671.187Q2.73.158 1.624-.89.531-1.952.531-3.828c0-1.188.367-2.14 1.11-2.86Q2.747-7.778 4.75-7.78q.75 0 1.422.14.687.128 1.531.532v1.797H7.47a9 9 0 0 0-.422-.297 4.4 4.4 0 0 0-.531-.344 3 3 0 0 0-.703-.281 2.8 2.8 0 0 0-.829-.125q-.531.002-.953.156a2.3 2.3 0 0 0-.765.469q-.314.315-.5.797a2.9 2.9 0 0 0-.188 1.078c0 .843.223 1.492.672 1.937.445.45 1.11.672 1.984.672h.235q.138.001.265-.016v-1.5h-1.53v-1.437H7.72Zm0 0"/><path id="x" d="M7.922 0H6.016L2.78-5.234V0H.97v-7.64h2.36l2.78 4.374V-7.64h1.813Zm0 0"/><path id="G" d="M6.063 0H1.03v-7.64h5.032v.906H2.047v2.093h4.015v.907H2.048v2.828h4.015Zm0 0"/><path id="T" d="M4.016 2.11H2.844A8.2 8.2 0 0 1 1.422-.157c-.336-.82-.5-1.75-.5-2.781 0-1.02.164-1.942.5-2.766a8.5 8.5 0 0 1 1.422-2.281h1.172v.062a6.5 6.5 0 0 0-.797.86q-.376.485-.703 1.14-.301.628-.5 1.39a6.6 6.6 0 0 0-.188 1.595q0 .877.188 1.609.186.736.5 1.39.31.622.703 1.126.405.513.797.875Zm0 0"/><path id="U" d="M5.75-2.766H1.516q-.001.535.156.922.171.394.453.64.263.253.625.376c.25.086.52.125.813.125q.574 0 1.171-.235.592-.234.844-.468h.047v1.062q-.485.204-1 .344c-.336.094-.687.14-1.062.14Q2.14.143 1.342-.624q-.795-.78-.796-2.203-.001-1.405.766-2.234.761-.828 2.015-.829 1.154 0 1.781.688.64.675.641 1.922ZM4.797-3.5q0-.761-.375-1.172c-.25-.281-.633-.422-1.14-.422-.524 0-.938.157-1.25.469q-.457.457-.516 1.125Zm0 0"/><path id="V" d="M7.047-7.64 4.266 0h-1.36L.141-7.64h1.078l2.39 6.718L6.016-7.64Zm0 0"/><path id="W" d="M4.406-7.984.734 1.563h-.89L3.5-7.985Zm0 0"/><path id="X" d="M5.406 0h-.968v-.61c-.086.063-.2.15-.344.25a2 2 0 0 1-.422.235 2.4 2.4 0 0 1-.563.203q-.315.077-.718.078c-.524 0-.965-.164-1.328-.5Q.53-.859.53-1.656q0-.655.282-1.063.281-.403.796-.625.529-.233 1.25-.312a19 19 0 0 1 1.579-.125v-.156q-.001-.328-.125-.532A.9.9 0 0 0 4-4.812a1.4 1.4 0 0 0-.5-.157 3.6 3.6 0 0 0-.594-.047c-.261 0-.547.04-.86.11a6 6 0 0 0-.952.281h-.047v-.984q.28-.075.812-.157a6 6 0 0 1 1.047-.093q.608 0 1.047.093.452.096.781.344c.22.156.383.36.5.61q.171.376.172.921Zm-.968-1.406V-3q-.439.02-1.047.078-.598.047-.938.14-.409.13-.672.376-.251.25-.25.672 0 .504.297.75c.195.168.5.25.906.25q.5 0 .922-.203a4.6 4.6 0 0 0 .781-.47m0 0"/><path id="Y" d="M3.922-.047c-.18.043-.375.078-.594.11q-.316.046-.562.046-.892 0-1.344-.468C1.117-.672.969-1.176.969-1.875v-3.047H.313v-.812h.656v-1.641h.969v1.64h1.984v.813H1.937v2.61q-.001.455.016.718a1 1 0 0 0 .14.469.64.64 0 0 0 .313.297q.2.094.61.094.233 0 .484-.063.263-.077.375-.125h.047Zm0 0"/><path id="Z" d="M5.828-2.86Q5.826-1.464 5.11-.655q-.72.813-1.921.812-1.221 0-1.938-.812-.703-.81-.703-2.203 0-1.405.703-2.22c.477-.538 1.125-.812 1.938-.812.8 0 1.44.274 1.921.813.477.543.72 1.281.72 2.219m-1 0q-.002-1.106-.437-1.656-.424-.545-1.203-.546-.786 0-1.22.546-.437.55-.437 1.657 0 1.077.438 1.64.433.549 1.219.547.762.002 1.203-.547.435-.563.437-1.64m0 0"/><path id="aa" d="M9.313 0h-.97v-3.266q0-.357-.03-.703a1.6 1.6 0 0 0-.141-.547.8.8 0 0 0-.344-.343c-.148-.07-.36-.11-.64-.11q-.41.002-.813.203a5.5 5.5 0 0 0-.797.516c.008.086.016.18.016.281q.013.157.015.297V0h-.968v-3.266q-.001-.374-.032-.718a1.6 1.6 0 0 0-.14-.547.72.72 0 0 0-.344-.328c-.148-.07-.355-.11-.625-.11a1.8 1.8 0 0 0-.797.203c-.262.125-.527.29-.797.485V0H.953v-5.734h.953v.64q.45-.374.907-.578.45-.218.953-.219.59.002 1 .25a1.6 1.6 0 0 1 .609.688q.575-.497 1.063-.719a2.5 2.5 0 0 1 1.03-.219c.626 0 1.087.196 1.391.579q.453.563.454 1.593Zm0 0"/><path id="ab" d="M3.844-2.937c0 1.03-.172 1.96-.516 2.78A8 8 0 0 1 1.922 2.11H.75v-.046a6.3 6.3 0 0 0 .797-.876A7 7 0 0 0 2.25.063c.207-.438.375-.899.5-1.391a6.5 6.5 0 0 0 .188-1.61q0-.843-.188-1.593a6.8 6.8 0 0 0-1.203-2.532q-.375-.482-.797-.859v-.062h1.172q.902 1.05 1.406 2.28.516 1.238.516 2.766m0 0"/><path id="I" d="M3.781 0H3.11v-.422l-.25.172a1.6 1.6 0 0 1-.296.172 1.5 1.5 0 0 1-.376.125q-.222.06-.515.062Q1.123.111.75-.25a1.2 1.2 0 0 1-.375-.906q0-.47.188-.75.198-.28.562-.438.358-.153.875-.219c.344-.039.71-.066 1.11-.078v-.109a.67.67 0 0 0-.094-.375.6.6 0 0 0-.22-.234.73.73 0 0 0-.343-.11 3 3 0 0 0-.422-.031c-.18 0-.375.027-.594.078a4.6 4.6 0 0 0-.671.188H.734v-.688q.188-.045.563-.11c.25-.05.492-.077.734-.077q.42 0 .735.078.311.064.547.234.233.175.343.438.124.253.125.64ZM3.11-.984v-1.11q-.314.018-.734.047a3.3 3.3 0 0 0-.656.11q-.299.08-.485.25c-.117.117-.171.277-.171.484q-.001.345.203.516c.144.117.359.171.64.171q.358 0 .657-.14.293-.14.546-.328m0 0"/><path id="J" d="M4.188-2.031q0 .502-.141.906a2.2 2.2 0 0 1-.375.672q-.269.28-.578.422c-.2.09-.418.14-.656.14q-.346 0-.61-.078a2.2 2.2 0 0 1-.484-.218L1.297 0h-.64v-5.578h.687v2q.28-.234.593-.375.329-.155.72-.156c.468 0 .835.183 1.109.547q.421.534.422 1.53m-.688.015q-.002-.714-.25-1.078c-.156-.25-.414-.375-.766-.375a1.6 1.6 0 0 0-.593.125q-.3.13-.547.328V-.72c.187.086.347.14.484.172q.2.047.469.047c.375 0 .664-.117.875-.36.219-.25.328-.632.328-1.156m0 0"/><path id="K" d="M4.078-2q-.001.984-.5 1.547c-.336.375-.781.562-1.344.562Q1.373.11.875-.453C.539-.828.375-1.343.375-2s.164-1.172.5-1.547q.498-.562 1.36-.562c.562 0 1.007.187 1.343.562q.499.562.5 1.547m-.703 0q0-.78-.312-1.156-.3-.375-.829-.375-.55 0-.859.375Q1.077-2.78 1.078-2c0 .5.098.883.297 1.14q.31.392.86.391.527 0 .828-.375.311-.388.312-1.156m0 0"/><path id="L" d="M4.125-4 2.5 0h-.672L.218-4h.735L2.188-.812 3.422-4Zm0 0"/><path id="M" d="M4.016-1.937H1.063q-.001.374.109.656.106.269.312.437.187.174.438.266c.176.055.363.078.562.078q.404.001.813-.156.421-.17.61-.328h.03v.734q-.345.157-.703.25-.346.094-.734.094-1 0-1.562-.531Q.375-.983.375-1.984q0-.985.531-1.547.544-.576 1.422-.578.81 0 1.25.468.437.47.438 1.344Zm-.657-.516q-.001-.53-.265-.813-.27-.294-.797-.296-.549 0-.875.328c-.211.21-.328.468-.36.78Zm0 0"/><path id="O" d="M5.469 0h-.703v-4.594L3.28-1.469h-.42L1.375-4.594V0H.719v-5.344h.969l1.421 2.985 1.375-2.985h.985Zm0 0"/><path id="P" d="M4.203-3.719q-.001.346-.125.656-.11.3-.344.516-.27.281-.656.422-.375.14-.937.14h-.72V0H.72v-5.344h1.453q.468 0 .797.094.34.082.61.25a1.4 1.4 0 0 1 .452.516q.171.298.172.765m-.734.016q0-.28-.094-.485a.8.8 0 0 0-.297-.328 1.1 1.1 0 0 0-.39-.171 3 3 0 0 0-.563-.047h-.703v2.14h.61c.28 0 .507-.023.687-.078a.9.9 0 0 0 .437-.25.95.95 0 0 0 .235-.36q.076-.187.078-.421m0 0"/><path id="Q" d="M4.016 0h-.672v-2.281q-.001-.282-.031-.516c-.024-.164-.063-.289-.126-.375a.52.52 0 0 0-.265-.219 1 1 0 0 0-.438-.078c-.18 0-.37.047-.578.14q-.298.129-.562.345V0H.656v-5.578h.688v2.016a2.6 2.6 0 0 1 .64-.407q.34-.14.704-.14.637.002.984.39c.226.262.344.637.344 1.125Zm0 0"/><path id="R" d="M3.984 0h-.671v-.437c-.231.18-.45.312-.657.406-.21.09-.437.14-.687.14q-.627 0-.985-.375c-.23-.257-.343-.64-.343-1.14V-4h.672v2.281q-.002.3.015.516.031.222.125.375a.7.7 0 0 0 .25.234q.154.064.453.063.263.001.578-.125c.207-.094.399-.211.579-.36V-4h.671Zm0 0"/><path id="S" d="M1.344 0H.672v-5.578h.672Zm0 0"/><path id="ac" d="M0-7.344v1.313L-3.031-3.47v1.422H0v1.016h-7.64v-2.125q0-.702.093-1.156a2.4 2.4 0 0 1 .328-.829q.252-.421.657-.656.39-.234 1-.234.83 0 1.39.422c.367.273.64.652.828 1.14Zm-5.484 2.375q-.328.001-.578.125a1 1 0 0 0-.438.375q-.14.222-.203.532-.062.298-.063.703v1.187h2.891v-1.015c0-.32-.023-.602-.078-.844a1.4 1.4 0 0 0-.328-.61 1.35 1.35 0 0 0-.5-.343 2 2 0 0 0-.703-.11m0 0"/><path id="ad" d="M-2.86-5.828q1.395.002 2.204.719.813.72.812 1.922 0 1.22-.812 1.937-.81.703-2.203.703-1.405 0-2.22-.703c-.538-.477-.812-1.125-.812-1.937 0-.801.274-1.442.813-1.922.543-.477 1.281-.72 2.219-.72m0 1q-1.106.002-1.656.437-.545.423-.546 1.204 0 .785.546 1.218.55.439 1.657.438 1.077 0 1.64-.438.549-.433.547-1.218.002-.763-.547-1.204-.563-.435-1.64-.437m0 0"/><path id="ae" d="M0-1.922v.969h-7.984v-.969Zm0 0"/><path id="af" d="M-6.687-1.984v1.093h-1v-1.093ZM0-1.922v.969h-5.734v-.969Zm0 0"/><path id="ag" d="M0-5.734v.968h-3.266q-.387 0-.734.047-.341.034-.547.157a.72.72 0 0 0-.312.375 1.55 1.55 0 0 0-.11.625q.002.393.203.828c.125.28.29.558.485.828H0v.953h-5.734v-.953h.64q-.374-.452-.578-.938a2.4 2.4 0 0 1-.219-.984q0-.937.563-1.422.564-.482 1.61-.484Zm0 0"/><path id="ah" d="M-.656-5.594c.976 0 1.691.227 2.14.672q.687.659.688 2.031c0 .305-.024.602-.063.891a7 7 0 0 1-.187.844H.938v-.047a7 7 0 0 0 .218-.75q.14-.516.14-1.031 0-.48-.124-.797a1.24 1.24 0 0 0-.313-.516 1.3 1.3 0 0 0-.484-.25 2.4 2.4 0 0 0-.625-.078h-.531q.345.44.515.828c.118.262.172.602.172 1.016 0 .68-.242 1.219-.734 1.625q-.733.61-2.094.61-.732 0-1.265-.204a2.8 2.8 0 0 1-.922-.578 2.2 2.2 0 0 1-.578-.797 2.5 2.5 0 0 1-.204-.969c0-.32.04-.594.11-.812a3.6 3.6 0 0 1 .297-.719l-.25-.062v-.907Zm-.922.969h-3.125q-.17.377-.234.719-.078.328-.079.656.002.783.532 1.25c.355.305.87.453 1.547.453q.971 0 1.468-.328c.324-.227.485-.61.485-1.14q.001-.423-.157-.844a2.6 2.6 0 0 0-.437-.766m0 0"/><path id="aj" d="M0-7.828v1.016h-6.578l4.469 2.125v.609l-4.47 2.11H0v.937h-7.64v-1.375l4.25-2.031-4.25-1.97v-1.421Zm0 0"/><path id="ak" d="M0-7.047v1.078l-2.125.75v3.313L0-1.156v1.015l-7.64-2.765v-1.36Zm-3 2.14-3.75 1.345L-3-2.22Zm0 0"/><path id="al" d="M0-6.062v5.03h-7.64v-5.03h.906v4.015h2.093v-4.015h.907v4.015h2.828v-4.015Zm0 0"/><path id="am" d="M2.11-4.016v1.172A8.2 8.2 0 0 1-.157-1.422c-.82.336-1.75.5-2.781.5-1.02 0-1.942-.164-2.766-.5a8.5 8.5 0 0 1-2.281-1.422v-1.172h.062c.25.282.54.547.86.797q.485.376 1.14.703.628.301 1.39.5.75.188 1.595.188.877 0 1.609-.188.736-.186 1.39-.5.622-.31 1.126-.703a7.5 7.5 0 0 0 .875-.797Zm0 0"/><path id="an" d="M-2.766-5.75v4.234q.535.001.922-.156.394-.171.64-.453.253-.263.376-.625c.086-.25.125-.52.125-.812q0-.575-.235-1.172-.234-.592-.468-.844v-.047h1.062q.204.485.344 1 .14.502.14 1.063.002 1.422-.765 2.218-.78.798-2.203.797c-.938 0-1.68-.254-2.234-.765q-.828-.762-.829-2.016 0-1.154.688-1.781.675-.64 1.922-.641Zm-.734.953q-.761 0-1.172.375c-.281.25-.422.633-.422 1.14 0 .524.157.938.469 1.25q.457.457 1.125.516Zm0 0"/><path id="ao" d="M-7.64-7.047 0-4.266v1.36L-7.64-.141v-1.078l6.718-2.39-6.719-2.407Zm0 0"/><path id="ap" d="M-7.984-4.406 1.563-.734v.89L-7.985-3.5Zm0 0"/><path id="aq" d="M0-5.406v.968h-.61c.063.086.15.2.25.344q.159.224.235.422c.086.156.148.344.203.563q.077.315.078.718c0 .524-.164.965-.5 1.329q-.515.531-1.312.53-.655 0-1.063-.28a1.8 1.8 0 0 1-.625-.797q-.233-.529-.312-1.25a19 19 0 0 1-.125-1.578h-.156q-.328 0-.532.125A.9.9 0 0 0-4.812-4a1.4 1.4 0 0 0-.157.5 3.6 3.6 0 0 0-.047.594c0 .261.04.547.11.86q.093.455.281.952v.047h-.984a8 8 0 0 1-.157-.812 6 6 0 0 1-.093-1.047q0-.608.093-1.047.096-.452.344-.781c.156-.22.36-.383.61-.5q.376-.171.921-.172Zm-1.406.968H-3q.02.439.078 1.047.047.598.14.938.13.409.376.672.25.251.672.25.504 0 .75-.297c.168-.195.25-.5.25-.906q0-.5-.203-.922a4.6 4.6 0 0 0-.47-.781m0 0"/><path id="ar" d="M-.047-3.922c.043.18.078.375.11.594q.046.316.046.562 0 .892-.468 1.344c-.313.305-.817.453-1.516.453h-3.047v.657h-.812V-.97h-1.641v-.968h1.64v-1.985h.813v1.985h2.61q.455.001.718-.016a1 1 0 0 0 .469-.14.64.64 0 0 0 .297-.313q.094-.2.094-.61 0-.233-.063-.484a4 4 0 0 0-.125-.375v-.047Zm0 0"/><path id="as" d="M0-9.312v.968h-3.266q-.357.001-.703.031-.34.035-.547.141a.8.8 0 0 0-.343.344c-.07.148-.11.36-.11.64q.002.41.203.813.206.393.516.797.13-.014.281-.016.157-.013.297-.015H0v.968h-3.266q-.374.001-.718.032-.341.035-.547.14a.72.72 0 0 0-.328.344c-.07.148-.11.355-.11.625q.002.392.203.797c.125.262.29.527.485.797H0v.953h-5.734v-.953h.64q-.374-.45-.578-.907a2.2 2.2 0 0 1-.219-.953q.002-.59.25-1a1.6 1.6 0 0 1 .688-.609q-.497-.575-.719-1.062A2.5 2.5 0 0 1-5.89-7.47c0-.625.196-1.086.579-1.39q.563-.452 1.593-.453Zm0 0"/><path id="at" d="M-2.937-3.844c1.03 0 1.96.172 2.78.516A8 8 0 0 1 2.11-1.922V-.75h-.046a6.3 6.3 0 0 0-.876-.797A7 7 0 0 0 .063-2.25a7.6 7.6 0 0 0-1.391-.5 6.5 6.5 0 0 0-1.61-.187q-.843 0-1.593.187a6.8 6.8 0 0 0-2.532 1.203q-.482.375-.859.797h-.062v-1.172q1.05-.902 2.28-1.406 1.238-.516 2.766-.516m0 0"/><path id="az" d="M3.438 0h-.579v-1.953q0-.232-.03-.438a.7.7 0 0 0-.095-.328.5.5 0 0 0-.218-.203 1 1 0 0 0-.375-.062q-.236.001-.5.125a2.5 2.5 0 0 0-.5.297V0H.563v-4.781h.578v1.734c.187-.156.375-.273.562-.36q.294-.123.594-.124.562.002.844.344c.195.218.297.539.297.953Zm0 0"/><path id="aA" d="M3.422 0h-.578v-.375q-.3.222-.563.344c-.18.082-.375.125-.594.125q-.55 0-.843-.328c-.2-.22-.297-.54-.297-.97v-2.234h.578v1.954c0 .18.004.328.016.453q.028.188.109.312.075.143.203.203a1 1 0 0 0 .39.063q.234.001.5-.11.267-.124.5-.312v-2.562h.579Zm0 0"/><path id="aB" d="M1.156 0H.578v-4.781h.578Zm0 0"/><path id="aD" d="M3.36 0h-.58v-.36a2 2 0 0 1-.531.344c-.18.07-.371.11-.578.11q-.627 0-.984-.469c-.243-.32-.36-.758-.36-1.312q-.001-.435.125-.782c.082-.226.195-.422.344-.578.133-.156.297-.273.484-.36q.281-.123.578-.124.264.002.47.062.217.048.452.172V-4.78h.578Zm-.58-.844v-1.969a2 2 0 0 0-.422-.14A1.7 1.7 0 0 0 1.953-3q-.485.002-.766.344c-.18.219-.265.539-.265.953q-.001.61.203.937.218.315.688.313.233.001.484-.11.263-.106.484-.28m0 0"/><path id="aE" d="M1.188-4.016H.53v-.593h.657ZM1.156 0H.578v-3.437h.578Zm0 0"/><path id="aF" d="M3.016-.984c0 .312-.133.57-.391.765-.25.2-.602.297-1.047.297Q1.186.078.86 0a2.6 2.6 0 0 1-.515-.203V-.86h.031q.265.204.594.328c.226.086.445.125.656.125.25 0 .445-.04.594-.125a.42.42 0 0 0 .219-.39q0-.202-.126-.298-.112-.105-.453-.187-.113-.03-.312-.063a2.4 2.4 0 0 1-.36-.078q-.454-.122-.64-.344A.9.9 0 0 1 .36-2.47q-.002-.217.079-.406a1 1 0 0 1 .265-.328 1.2 1.2 0 0 1 .438-.219 1.8 1.8 0 0 1 .593-.094q.31.001.625.079.31.08.532.171v.625H2.86a2.2 2.2 0 0 0-.546-.265 1.7 1.7 0 0 0-.61-.125 1.1 1.1 0 0 0-.547.125c-.148.086-.218.203-.218.36q0 .222.14.327.123.095.422.172c.102.024.219.047.344.078q.201.034.343.063.387.094.61.312.218.235.219.61m0 0"/><path id="aG" d="M2.36-.031C2.241 0 2.124.019 2 .03q-.19.031-.344.032-.532 0-.812-.282Q.576-.5.578-1.126v-1.828h-.39v-.485h.39v-.984h.578v.984H2.36v.485H1.156v1.562q-.001.284.016.438a.8.8 0 0 0 .078.281.5.5 0 0 0 .188.188q.123.045.375.046c.093 0 .187-.007.28-.03.102-.032.18-.055.235-.079h.031Zm0 0"/><clipPath id="e"><path d="M0 0h375v247.5H0Zm0 0"/></clipPath><clipPath id="f"><path d="M52.5 13.5H360V204H52.5Zm0 0"/></clipPath><clipPath id="c"><path d="M.5.5H308V191H.5Zm0 0"/></clipPath><clipPath id="d"><path d="M152 188h5v3h-5Zm0 0"/></clipPath><clipPath id="b"><path d="M0 0h308v191H0z"/></clipPath><clipPath id="i"><path d="M52.5 81H356v63H52.5Zm0 0"/></clipPath><clipPath id="j"><path d="M52.5 98H357v48H52.5Zm0 0"/></clipPath><clipPath id="k"><path d="M52.5 107H348v40H52.5Zm0 0"/></clipPath><clipPath id="l"><path d="M52.5 98H356v58H52.5Zm0 0"/></clipPath><clipPath id="m"><path d="M52.5 104H353v53H52.5Zm0 0"/></clipPath><filter id="a" width="100%" height="100%" x="0%" y="0%"><feColorMatrix color-interpolation-filters="sRGB" values="0 0 0 0 1 0 0 0 0 1 0 0 0 0 1 0 0 0 1 0"/></filter><mask id="g"><g filter="url(#a)"><path fill-opacity=".2" d="M-37.512-24.792h450.144v297.504H-37.512z"/></g></mask><g id="h" clip-path="url(#b)"><g clip-path="url(#c)"><path fill="red" d="M-614.5-761.5 154.25 191 923-761.5Zm0 0"/><path fill="none" stroke="#636EFA" stroke-miterlimit="2" stroke-width="1.5" d="M-614.5-761.5 154.25 191 923-761.5"/></g><g clip-path="url(#d)"><path fill="#636EFA" d="M156.5 191q-.001.447-.172.86-.17.414-.488.73-.316.317-.73.488a2.24 2.24 0 0 1-1.72 0 2.2 2.2 0 0 1-.73-.488 2.2 2.2 0 0 1-.488-.73 2.24 2.24 0 0 1 0-1.72q.17-.414.488-.73.316-.317.73-.488a2.24 2.24 0 0 1 1.72 0q.414.17.73.488.317.316.488.73.17.413.172.86m0 0"/></g></g></defs><g clip-path="url(#e)"><path fill="#FFF" d="M0 0h375v247.5H0Zm0 0"/></g><path fill="#FFF" d="M52.5 13.5H360V204H52.5Zm0 0"/><path fill="none" stroke="#D3D3D3" stroke-width=".75" d="M129.375 13.5V204m153.75-190.5V204M52.5 156.375H360M52.5 108.75H360M52.5 61.125H360"/><path fill="none" stroke="#EBF0F8" stroke-width="1.5" d="M206.25 13.5V204"/><g clip-path="url(#f)" mask="url(#g)"><use xlink:href="#h" transform="translate(52 13)"/></g><g clip-path="url(#i)"><path fill="#EF553B" d="m53.113 132.531 1.29 1.844-1.227.86-1.29-1.844Zm2.578 3.688 1.27 1.816-.613.43-.504-.555.027-.023L56.875 139l-.656.59-1.754-2.512Zm1.848.16 1.672-1.508 1.004 1.113-1.668 1.508Zm4.422-1.488 2.094.82-.547 1.398-2.094-.824Zm4.191 1.644 1.996.781-.273.7-.61-.438.06-.082 1.222.871-.402.559-2.543-.996Zm2.477-.87 1.308-1.833 1.22.867-1.305 1.832Zm2.805-3.778 1.77-1.39.929 1.179-1.77 1.39Zm3.539-2.778.125-.097.465.59-.692-.297.824-1.922 1.38.59-.9 2.097-.273.22Zm1.609-3.797.883-2.066 1.379.59-.883 2.066Zm1.77-4.136.488-1.14 1.488-.626.582 1.383-1.21.508-.29-.692.688.293-.368.864Zm4.05-2.637.559-.234.289.691-.465-.59 1.297-1.015.926 1.175-1.375 1.082-.649.274Zm3.45-2.539 1.175-.926 1.532.852-.73 1.312-1.095-.61.364-.655.465.59-.786.617Zm4.671 1.02.852.476 1.078.953-.996 1.121-1.016-.898.496-.563-.363.657-.781-.434Zm3.614 2.918 1.144 1.015-.496.563-.535-.528.508-.511 1.066 1.05-1.004 1.02-1.68-1.484Zm2.199-1.063 1.582-1.602 1.066 1.051-1.578 1.602Zm4.426-1.137 2.086.918.105.074-.879 1.22-.039-.032.438-.61-.301.688-2.016-.883Zm4.015 2.309 1.828 1.312-.878 1.22-1.825-1.317Zm3.653 2.629 1.824 1.312-.875 1.219-1.824-1.316Zm3.277.937 2.543-.738.363.418-1.125.988-.05-.058.562-.496.21.722-2.085.606Zm4.395 1.367 1.484 1.688-1.125.992-1.484-1.687Zm2.082 1.91 1.78-1.374.915 1.187-1.777 1.375Zm3.824-2.699 2.086-.847.562 1.39-2.086.848Zm4.73-.285 1.364 1.79-1.192.91-1.363-1.786Zm2.73 3.578.505.657-.598.453.484-.57 1.086.917-.965 1.145-1.152-.969-.55-.722Zm3.2 2.907 1.039.879-.484.574.34-.672.792.406-.68 1.336-.87-.441-1.106-.934Zm3.691 2.203 1.043.531-.34.668-.027-.75 1.078-.043.059 1.5-1.274.05-1.214-.616Zm4.004.32.63-.023 1.784.468-.382 1.45-1.676-.442.191-.726.028.75-.516.02Zm4.653 1.04 2.117.76-.512 1.411-2.113-.762Zm4.23 1.523 2.117.765-.508 1.41-2.117-.761Zm4.234 1.527 2.118.762-.508 1.41-2.117-.762Zm4.153 1.25 2.226.336-.226 1.48-2.223-.332Zm4.035-.156 2.238-.73.242.034-.214 1.485-.07-.008.109-.742.23.71-2.07.676Zm4.707-.371 1.543.222.7.113-.243 1.481-.668-.11-1.543-.222Zm4.46.699 1.145.187 1.153.953-.953 1.157-.996-.825.476-.578-.12.739-.946-.153Zm4.032 2.57 1.11.918-.477.578.047-.75.812.055-.097 1.496-1.051-.066-1.297-1.075Zm3.735.945.793.051-.047.746-.106-.742 1.442-.203.21 1.484-1.519.215-.867-.054Zm4.308-.468.32-.043 2.157.554-.375 1.453-2.012-.519.188-.727.105.743-.172.027Zm4.422.937 2.246-.168.11 1.496-2.243.164Zm4.078-.644 1.988-1.055.704 1.324-1.989 1.055Zm4.473-1.637 2.25.039-.028 1.5-2.246-.04Zm4.613.504 2.094.515-.18.73-.031-.75.094-.003.062 1.496-.203.012-2.195-.547Zm4.227.398 1.496-.062.031.75-.09-.742.746-.094.18 1.492-.774.094-1.53.062Zm4.414-.418 2.234-.273.184 1.488-2.235.274Zm4.468-.547 2.235-.273.18 1.488-2.235.274Zm4.317-.586 2.148-.675.45 1.433-2.149.672Zm4.578-1.105 2.246.055-.035 1.5-2.25-.055Zm4.316-.187 2.211-.41.274 1.476-2.211.41Zm4.227-1.106 2.121-.75.5 1.414-2.121.75Zm4.242-1.5 2.125-.75.496 1.418-2.12.746Zm4.246-1.496 1.223-.434 1.277.121-.14 1.497-1.114-.11.07-.746.25.707-1.066.379Zm4.739-.098.488.047-.07.746-.41-.625 1.472-.965.82 1.258-1.691 1.106-.75-.07Zm3.367-2.027.535-.348 1.562-.718.625 1.363-1.511.695-.313-.683.41.628-.488.32Zm4.144-2.004.364-.168 1.988-.39.289 1.468-1.902.375-.145-.734.313.68-.282.132Zm4.418-1.004 2.098-.816.543 1.394-2.094.82Zm4.094-1.664 2.004-1.031.683 1.336-2 1.027Zm4.004-2.059 2-1.027.687 1.336-2 1.027Zm4.004-2.054 2-1.028.687 1.332-2.004 1.032Zm3.601-2.215 1.594-1.586 1.059 1.063-1.594 1.585Zm3.746-3.227 2.247-.132.093 1.496-2.246.136Zm4.493-.27 2.246-.136.09 1.496-2.247.137Zm4.043-.792 2.015-1.004.668 1.344-2.015 1.004Zm4.043-1.996 2.02-.989.66 1.348-2.024.988Zm3.437-2.375 1.574-1.61 1.07 1.051-1.57 1.61Zm3.125-3.219 1.543-1.637 1.094 1.032-1.547 1.636Zm3.09-3.273.344-.364 2.504.364-.215 1.484-2.117-.305.105-.742.547.516-.078.078Zm5.062.312 2.235.293-.196 1.488-2.23-.293Zm3.645-.113 1.746-1.426.95 1.164-1.747 1.422Zm3.613-2.836 1.906-1.192.797 1.274-1.91 1.191Zm3.817-2.383 1.91-1.191.793 1.273-1.91 1.192Zm3.816-2.383 1.91-1.191.793 1.27-1.906 1.195Zm4.281-2.21 2.25-.063.04 1.5-2.25.062Zm4.532-.071 2.25.035-.024 1.5-2.25-.035Zm3.214-1.14 1.422-1.747 1.16.95-1.421 1.742Zm2.938-3.536 1.637-1.543 1.027 1.09-1.637 1.547Zm3.273-3.086.48-.457 1.864-.554.43 1.437-1.692.504-.214-.719.515.547-.355.332Zm4.496-1.652.055-.016 2.281-.336.22 1.485-2.227.324-.11-.742.219.719Zm4.313-.785 2.05-.926.618 1.367-2.05.926Zm4.101-1.856 2.047-.93.621 1.368-2.05.93Zm4.098-1.86 2.047-.929.621 1.367-2.05.93Zm0 0"/></g><g clip-path="url(#j)"><path fill="#00CC96" d="m52.84 113.316 3.96 2 1.774 1.86-1.086 1.035-1.683-1.766.543-.52-.34.673-3.848-1.942Zm10.265 8.918 1.5 1.774-.57.484-.105-.742 3.84-.54.105.743-.613-.433.316-.45 1.227.868-.504.71-4.57.645-1.77-2.09Zm9.586-3.52L76 124.599l-1.305.734-3.312-5.883Zm7.274 2.048 3.02-2.48 3.382.019-.008 1.5-3.113-.02.004-.75.477.582-2.809 2.309Zm13.094-3.168 1.945.074 4.156 2.477.38.59-1.263.808-.285-.441.633-.403-.383.645-3.84-2.29.383-.644-.031.75-1.754-.07Zm9.671 8.386 3.836.59 2.73 1.567-.745 1.3-2.61-1.496.371-.652-.113.742-3.695-.57Zm11.747 6.727.05.05-.527.532.375-.648 3.848 2.226-.375.649-.278-.696 2.075-.824.554 1.395-2.414.957-4.242-2.457-.121-.118Zm12.293 1.617 3.027 2.051-.422.621-.152-.734 3.035-.621.3 1.468-3.343.684-3.285-2.227Zm12.02 1.903 1.972-.403.148.735-.265-.7 4.035-1.523.828.152-.266 1.477-.625-.113.133-.739.266.7-3.899 1.468-2.031.414Zm13.233.53.762.4-.347.663.093-.746 3.848.496-.094.746-.125-.742 1.985-.332.246 1.48-2.09.352-4.094-.527-.879-.461Zm12.997 1.505 6.484 1.867-.414 1.441-6.485-1.867Zm12.488 3.73 1.863-.14 3.922.566 1.074.16-.222 1.484-1.063-.16-3.844-.554.11-.743.058.747-1.785.136Zm13.222 1.586 3.852-1.074 2.86-.309.16 1.493-2.801.3-.078-.746.203.723-3.793 1.058Zm13.473-2 2.035-.098 4.758.063-.02 1.5-4.734-.063.008-.75.035.75-2.008.098Zm13.543.05h.047l-.008.75-.027-.75 3.84-.14.027.75-.055-.75 2.852-.203.11 1.496-2.868.207-3.871.14h-.066Zm13.41-.831 5.79-.418.054.75-.172-.73.918-.215.344 1.46-.977.227-5.851.422Zm12.813-2.766 4.332-1.91 2.12-.457.313 1.469-2.043.437-.156-.734.3.687-4.26 1.88Zm12.965-3.316 2.855-1.125 3.461-1.29.523 1.407-3.437 1.277-2.852 1.13Zm12.64-4.774 1.778-.66 3.894-1.23.86-.188.316 1.465-.824.18-.16-.735.226.715-3.84 1.215-.226-.715.261.703-1.761.657Zm12.11-4.859 1.054-.836 5.176-2.172.578 1.383-5.078 2.133-.289-.692.465.586-.973.774Zm12.07-6.11.7-.433 4.062.082-.016.75-.309-.683 2.102-.954.617 1.368-2.254 1.023-4.011-.082.015-.746.395.637-.512.316Zm12.582-4.175 3.55-1.777 3.188.257-.12 1.496-2.981-.242.062-.75.336.672-3.363 1.684Zm12.996-3.293 2.328.305-.098.742-.105-.742 3.848-.555.105.742-.433-.61.418-.3.87 1.223-.57.406-4.129.594-2.43-.317Zm12.164-3.668 6.48-1.879.419 1.438-6.48 1.882Zm12.203-4.816.625-.422 3.988-.871.16.73-.503-.555 1.633-1.48 1.007 1.11-1.78 1.616-4.044.883-.16-.734.422.621-.5.34Zm12.336-5.004.082-.004.086 1.496-.082.004Zm0 0"/></g><g clip-path="url(#k)"><path fill="#AB63FA" d="m52.957 122.133 3.848 2.949-.457.594-.57-.485 4.14-4.863.918.23-.363 1.458-.465-.118.18-.726.57.484-4.301 5.051-4.414-3.383Zm16.941-5.125 1.375-1.028.45.598-.547-.512 4.27-4.52 3.831 2.481-.812 1.258-3.309-2.14.406-.63.547.516-3.886 4.11-1.426 1.066Zm17.82 2.226 3.665 2.688-.445.605.046-.75 3.848.235-.047.75-.097-.746 2.832-.364.19 1.489-2.901.37-4.137-.25-3.84-2.82Zm19.114 3.418.012.012-.531.531-.368-.652 4.196-2.375 4.199 2.125-.34.668-.527-.531 1.78-1.77 1.06 1.067-2.168 2.148-4.325-2.187.34-.668.367.652-4.34 2.457-.414-.414Zm18.836-2.027.324.25-.457.594-.02-.75 4.176-.106 4.079 4.356-.547.515.289-.695 1.261.531-.582 1.383-1.406-.59-3.957-4.226.547-.516.02.75-4.106.106-.539-.415Zm19.293 9.148.215.067 3.992 4.648-.57.489.105-.743 3.883.563 1.445.379-.379 1.449-1.406-.367.191-.727-.105.742-4.121-.593-4.031-4.7.57-.488-.219.719-.008-.004Zm19.18 9.82.011.005-.18.726.044-.746 3.953.223 7.023 2.652-.531 1.402-6.914-2.609.266-.703-.043.75-3.91-.223-.079-.02Zm21.601 4.981 1.32.047-.027.75-.113-.742 3.84-.574.113.742-.441-.606 4.144-3.03 1.582.46-.422 1.441-1.226-.359.21-.719.442.606-3.996 2.918-4.09.617-1.394-.05Zm21.25-2.101 10.738-.797.055.75-.152-.735.476-.097.301 1.469-.523.105-10.782.8Zm21.942-1.442.175-.047 10.696-2.875.386 1.45-10.675 2.867-.18.05Zm22.097-4.578 1.293-.086.051.746-.2-.722 3.86-1.051 5.813-1.395.347 1.457-5.797 1.391-.175-.727.199.723-3.922 1.07-1.371.09Zm21.59-5.719 2.668-.543.149.735-.372-.649 3.91-2.226 3.91-1.301.048-.016.488 1.418-.059.024-3.843 1.273-.235-.71.371.652-3.953 2.246-2.781.566Zm20.957-7.644.84-.29.242.712-.262-.703 3.875-1.442 3.887-1.004.188.723-.371-.652 1.996-1.13.738 1.305-2.078 1.18-3.945 1.023-.188-.726.262.703-3.852 1.426-.848.293Zm20.867-7.883 3.075-1.152 3.902-.739.14.735-.183-.727 4-1.004.367 1.457-4.023 1.008-3.86.73-.14-.734.261.7-3.011 1.128Zm21.914-5.484.426-.086.152.734-.167-.73 7.687-1.786.168.73-.215-.718 2.797-.836.43 1.438-2.82.84-7.72 1.793-.437.09Zm0 0"/></g><g clip-path="url(#l)"><path fill="#FFA15A" d="m52.09 139.426 3.847-2.52.41.63-.671-.337.96-1.922 1.344.668-1.05 2.106-4.02 2.633Zm5.55-6.164 1.005-2.012 1.343.668-1.004 2.016Zm2.86-4.168 3.547.054-.012.75-.293-.687 2.946-1.254.59 1.379-3.094 1.316-3.707-.058Zm8.809-1.203 2.168.609-.407 1.441-2.168-.609Zm4.332 1.218 5.972 1.68-.203.723-.183-.727.53-.133.364 1.453-.723.184-6.164-1.734Zm8.296.993 1.31-.329 1.237.301-.359 1.457-1.055-.258.18-.726.184.726-1.13.286Zm4.731.511.754.184 3.957 2.89-.442.61-.382-.645 1.175-.703.766 1.29-1.601.952-4.239-3.097.442-.606-.18.73-.606-.148Zm6.992 1.184 1.13-.672 1.57.96-.782 1.278-1.183-.722.39-.641.383.645-.738.44Zm4.621 1.46.735.45-.391.64-.125-.738 3.848-.648.125.742-.48-.574 1.519-1.277.965 1.148-1.68 1.41-4.324.723-.973-.594Zm6.957-2.85.883-.739 1.8.43-.347 1.457-1.433-.34.171-.73.481.574-.59.496Zm4.875.21.219.055-.172.726-.195-.722 4.11-1.117 2.542 1.226-.652 1.352-2.29-1.102.325-.676.195.723-4.023 1.09-.406-.094Zm8.39.957 2.208.426-.285 1.473-2.207-.426Zm4.415.844 6.727 1.246.152.09-.77 1.289-.035-.02.383-.644-.137.734-6.593-1.222Zm8.812 2.488 1.875 1.114-.382.644.172-.73.062.015-.34 1.461-.18-.043-1.976-1.172Zm3.918 1.559 1.586.37-.172.731-.039-.75 4.204-.23 1.09 1.21-1.118 1.005-.847-.946.558-.5.04.75-3.954.215-1.687-.394Zm8.172 3.008 1.489 1.656-.559.5.258-.703.023.008-.515 1.41-.2-.074-1.613-1.793Zm3.325 2.234 1.71.629-.257.703-.102-.742 4.172-.57 1.055.894-.97 1.145-.8-.68.484-.57.102.742-4.023.55-1.891-.69Zm8.296 2.371 1.329 1.129-.485.57.266-.703.472.18-.53 1.402-.595-.222-1.43-1.211Zm3.688 1.973 1.262.48-.266.703.133-.738 3.847.695 1.47.274-.274 1.472-1.461-.269-3.918-.711-1.324-.5Zm8.656 1.824.254.047 1.98.89-.617 1.372-1.898-.856.309-.687-.137.738-.164-.031Zm4.195 1.813 6.477 1.906-.426 1.441-6.472-1.91Zm8.684 2.761 2.02.992-.66 1.348-2.02-.992Zm3.793 1.235 2.629-.18 3.941.816-.152.735-.062-.746.292-.028.125 1.496-.402.036-3.945-.817.152-.734.05.746-2.526.172Zm8.89.41 1.372-.114.992.075-.113 1.496-.93-.07.055-.747.062.746-1.312.11Zm4.606.125.664.05-.054.747-.145-.735 5.969-1.172.289 1.473-6.067 1.191-.765-.058Zm8.64-1.543 2.212-.434.289 1.473-2.211.433Zm4.329-.946 2.824-.828 3.742-.89.344 1.46-3.723.883-.172-.726.211.719-2.804.82Zm8.488-2.574 1.918-.863.156-.066.575 1.386-.149.059-.285-.692.309.684-1.907.86Zm4.156-1.789 5.47-2.265.792-.301.535 1.398-.781.301-.27-.7.286.692-5.461 2.262Zm8.364-3.37.96-.368 1.165-.418.507 1.41-1.136.41-.961.367Zm4.242-1.548 4.422-1.594.254.708-.32-.676 1.85-.883.645 1.355-1.886.895-4.457 1.605Zm8.351-3.441 2.16-.637.422 1.441-2.16.633Zm4.317-1.27 6.476-1.902.426 1.437-6.476 1.903Zm8.637-2.539 2.16-.633.422 1.438-2.16.637Zm4.316-1.265 1.906-.563.211.723-.336-.672 3.91-1.95.536-.136.378 1.45-.46.12-.188-.726.336.672-3.902 1.941-1.965.578Zm8.406-3.168 2.176-.567.379 1.453-2.176.567Zm4.356-1.133.695-.18.188.723-.274-.696 3.848-1.5 1.746-.718.57 1.386-1.77.727-3.89 1.516-.738.195Zm8.285-3.227 2.082-.855.57 1.386-2.082.856Zm4.265-1.699 3.512-.945.195.722-.214-.718 2.98-.895.434 1.438-2.992.898-3.524.95Zm8.63-2.484 2.152-.649.433 1.438-2.156.648Zm3.992-1.61 2.355-1.34 3.957-.796.149.734-.282-.691.223-.094.566 1.39-.289.118-3.91.785-.148-.735.37.653-2.25 1.281Zm8.488-3.035 1.625-.664.676-.094.207 1.489-.586.078-.102-.742.281.695-1.539.625Zm4.527-1.066 1.031-.14.102.741-.273-.699 3.847-1.516.274.7-.313-.684 1.438-.652.62 1.367-1.452.66-3.95 1.555-1.117.152Zm8.153-3.184.355-.16.313.684-.45-.602 1.489-1.113.898 1.199-1.555 1.164-.43.195Zm3.507-2.539.723-.543 4.105-.45 2.25.134-.09 1.496-2.183-.13.043-.745.082.746-3.84.418-.082-.746.45.601-.56.418Zm8.786-.96 1.898-1.208.805 1.266-1.899 1.207Zm3.796-2.419 5.696-3.625.804 1.266-5.695 3.625Zm7.594-4.832 1.895-1.207.808 1.266-1.898 1.207Zm4.098-2.398 3.488-.7 3.149-.59.273 1.473-3.125.586-3.488.703Zm0 0"/></g><g clip-path="url(#m)"><path fill="#19D3F3" d="m52.746 127.848 3.969 1.37 3.988 3.196 1.55 1.727-1.116 1.004-1.508-1.684.559-.5-.47.586-3.84-3.078.47-.582-.246.707-3.848-1.328Zm11.98 8.363 2.126-.746.496 1.414-2.121.746Zm6.544 1.293.902.676-.45.601.048-.75 3.886.25 3.89.73-.136.735-.273-.695 2.195-.863.547 1.394-2.395.941-4.058-.757.136-.739-.046.75-4.063-.261-1.082-.813Zm13.34-1.75 1.562-1.621 1.082 1.043-1.567 1.617Zm5.285-4.379.699-.492 4.363-1.465 4.164 3.695-.496.559-.488-.57 1-.852.972 1.145-1.496 1.273-4.324-3.84.496-.562.238.714-3.847 1.29-.239-.711.43.613-.61.43Zm13.609-1.25 1.95 1.125-.755 1.3-1.945-1.128Zm5.973 2.535 4.71 1.223-.187.726-.047-.746 4.035-.246 2.469 1.121-.621 1.367-2.297-1.046.309-.68.047.746-3.97.242-4.827-1.254Zm15.078 3.942 2.047.93-.618 1.363-2.05-.93Zm6.12 2.668 2.884 1 3.918 2.585-.415.63-.218-.72 3.535-1.07.434 1.438-3.872 1.168-4.132-2.727.414-.625-.246.707-2.793-.969Zm14.759 3.386 1.722 1.446-.965 1.148-1.722-1.445Zm5.28 3.422 1.966.527 3.91 1.645 4.62 2.172-.636 1.36-4.61-2.169.321-.68-.293.692-3.847-1.617.292-.692-.195.723-1.914-.512Zm14.509 6.02 2.175.562-.375 1.453-2.175-.562Zm6.535 1.183 11.16 1.403-.188 1.488-11.16-1.402Zm15.71 1 2.177.578-.387 1.45-2.176-.579Zm5.81-.308 1.261-.606 7.844-.277.027.75-.066-.746 2.304-.207.133 1.492-2.324.21-7.707.27-.027-.75.324.676-1.121.54Zm15.785-1.664 2.222-.34.227 1.484-2.223.34Zm6.671-1.016 1.938-.293.113.738-.254-.703 3.93-1.406 3.941-.36.07.747-.23-.715 1.281-.414.465 1.425-1.363.442-3.93.36-.07-.747.254.707-3.91 1.395-2.008.308Zm15.02-3.852 2.113-.777.516 1.406-2.11.778Zm6.516-2.289 3.48-.457.098.746-.184-.73 3.84-.957.184.726-.29-.69 3.489-1.466.578 1.387-3.54 1.484-3.937.985-3.523.457Zm14.738-4.609 2.062-.898.598 1.378-2.063.895Zm6.023-2.871 1.715-.945 7.734-2.973.27.7-.45-.602.887-.665.899 1.204-.969.726-7.785 2.992-.27-.703.364.656-1.668.926Zm13.985-7.113 2.046-.934.622 1.363-2.047.934Zm6.14-2.801.84-.38 3.883-1.472 3.867-1.23.227.715-.328-.672 1.984-.969.66 1.348-2.035.992-3.902 1.238-.227-.715.266.703-3.84 1.454-.266-.7.313.684-.817.371Zm14.672-5.801 1.711-.644.727.03-.063 1.5-.574-.023.031-.75.266.703-1.57.59Zm6.61-.824 2.73-.895 3.898-.633.122.739-.231-.711 3.848-1.254.23.715-.336-.672.446-.223.671 1.344-.496.246-3.957 1.285-3.894.633-.121-.738.234.71-2.676.876Zm14.832-4.906 2.105-.797.531 1.402-2.101.797Zm6.668-1.688.527-.066.098.742-.247-.707 3.848-1.344.246.707-.351-.66 3.851-2.031 2.07-1.028.668 1.348-2.066 1.02-.332-.672.352.664-3.891 2.05-3.973 1.387-.605.078Zm14.078-6.379 1.695-.84.594-.086.21 1.485-.472.07-.106-.742.333.672-1.59.785Zm6.699-1.605 2.77-.528.14.735-.25-.707 3.93-1.395 4.406-.488.164 1.492-4.32.48-.082-.746.25.707-3.903 1.383-2.824.54Zm0 0"/></g><path fill="none" stroke="#000" stroke-width=".75" d="M51.75 204.375h309m-309-191.25h309M52.125 13.5V204m308.25-190.5V204"/><path fill="none" stroke="#444" stroke-width=".75" d="M52.5 204.75v3.75m76.875-3.75v3.75m76.875-3.75v3.75m76.875-3.75v3.75M360 204.75v3.75"/><g fill="#2A3F5F"><use xlink:href="#n" x="41.459" y="219.3"/><use xlink:href="#o" x="48.824" y="219.3"/><use xlink:href="#p" x="54.546" y="219.3"/><use xlink:href="#q" x="57.82" y="219.3"/></g><g fill="#2A3F5F"><use xlink:href="#n" x="118.334" y="219.3"/><use xlink:href="#o" x="125.699" y="219.3"/><use xlink:href="#p" x="131.421" y="219.3"/><use xlink:href="#r" x="134.695" y="219.3"/></g><use xlink:href="#o" x="203.389" y="219.3" fill="#2A3F5F"/><g fill="#2A3F5F"><use xlink:href="#o" x="275.766" y="219.3"/><use xlink:href="#p" x="281.488" y="219.3"/><use xlink:href="#r" x="284.762" y="219.3"/></g><g fill="#2A3F5F"><use xlink:href="#o" x="352.641" y="219.3"/><use xlink:href="#p" x="358.363" y="219.3"/><use xlink:href="#q" x="361.637" y="219.3"/></g><path fill="none" stroke="#444" stroke-width=".75" d="M51.75 204H48m3.75-47.625H48m3.75-47.625H48m3.75-47.625H48M51.75 13.5H48"/><use xlink:href="#o" x="40.478" y="207.15" fill="#2A3F5F"/><g fill="#2A3F5F"><use xlink:href="#o" x="25.761" y="159.525"/><use xlink:href="#p" x="31.483" y="159.525"/><use xlink:href="#o" x="34.757" y="159.525"/><use xlink:href="#s" x="40.478" y="159.525"/></g><g fill="#2A3F5F"><use xlink:href="#o" x="31.483" y="111.9"/><use xlink:href="#p" x="37.204" y="111.9"/><use xlink:href="#r" x="40.478" y="111.9"/></g><g fill="#2A3F5F"><use xlink:href="#o" x="25.761" y="64.275"/><use xlink:href="#p" x="31.483" y="64.275"/><use xlink:href="#r" x="34.757" y="64.275"/><use xlink:href="#s" x="40.478" y="64.275"/></g><g fill="#2A3F5F"><use xlink:href="#o" x="31.483" y="16.65"/><use xlink:href="#p" x="37.204" y="16.65"/><use xlink:href="#q" x="40.478" y="16.65"/></g><path fill="none" stroke="#2A3F5F" stroke-width="1.5" d="M321.563 188.762h30.75v5.715h-30.75Zm0 0"/><g fill="#2A3F5F"><use xlink:href="#t" x="60.15" y="120.84"/><use xlink:href="#u" x="68.302" y="120.84"/><use xlink:href="#v" x="74.993" y="120.84"/><use xlink:href="#w" x="80.724" y="120.84"/><use xlink:href="#x" x="89.24" y="120.84"/><use xlink:href="#x" x="98.13" y="120.84"/></g><g fill="#2A3F5F"><use xlink:href="#y" x="88.65" y="135.225"/><use xlink:href="#z" x="94.82" y="135.225"/><use xlink:href="#A" x="100.225" y="135.225"/><use xlink:href="#B" x="103.772" y="135.225"/><use xlink:href="#C" x="108.461" y="135.225"/><use xlink:href="#D" x="114.156" y="135.225"/><use xlink:href="#s" x="117.32" y="135.225"/></g><path fill="#EF553B" d="M62.398 130.965h2.25v1.5h-2.25m4.5-1.5h2.25v1.5h-2.25m4.5-1.5h2.25v1.5h-2.25m4.5-1.5h2.25v1.5h-2.25m4.5-1.5h2.25v1.5h-2.25"/><g fill="#2A3F5F"><use xlink:href="#y" x="88.65" y="149.475"/><use xlink:href="#z" x="94.82" y="149.475"/><use xlink:href="#A" x="100.225" y="149.475"/><use xlink:href="#B" x="103.772" y="149.475"/><use xlink:href="#C" x="108.461" y="149.475"/><use xlink:href="#D" x="114.156" y="149.475"/><use xlink:href="#E" x="117.32" y="149.475"/></g><path fill="#00CC96" d="M62.398 145.215h6.75v1.5h-6.75m13.5-1.5h6.75v1.5h-6.75"/><g fill="#2A3F5F"><use xlink:href="#y" x="88.65" y="163.725"/><use xlink:href="#z" x="94.82" y="163.725"/><use xlink:href="#A" x="100.225" y="163.725"/><use xlink:href="#B" x="103.772" y="163.725"/><use xlink:href="#C" x="108.461" y="163.725"/><use xlink:href="#D" x="114.156" y="163.725"/><use xlink:href="#F" x="117.32" y="163.725"/></g><path fill="#AB63FA" d="M62.398 159.465h11.25v1.5h-11.25"/><g fill="#2A3F5F"><use xlink:href="#y" x="88.65" y="177.975"/><use xlink:href="#z" x="94.82" y="177.975"/><use xlink:href="#A" x="100.225" y="177.975"/><use xlink:href="#B" x="103.772" y="177.975"/><use xlink:href="#C" x="108.461" y="177.975"/><use xlink:href="#D" x="114.156" y="177.975"/><use xlink:href="#q" x="117.32" y="177.975"/></g><path fill="#FFA15A" d="M62.398 173.715h6.75v1.5h-6.75m9-1.5h2.25v1.5h-2.25m4.5-1.5h6.75v1.5h-6.75"/><g fill="#2A3F5F"><use xlink:href="#y" x="88.65" y="192.225"/><use xlink:href="#z" x="94.82" y="192.225"/><use xlink:href="#A" x="100.225" y="192.225"/><use xlink:href="#B" x="103.772" y="192.225"/><use xlink:href="#C" x="108.461" y="192.225"/><use xlink:href="#D" x="114.156" y="192.225"/><use xlink:href="#r" x="117.32" y="192.225"/></g><path fill="#19D3F3" d="M62.398 187.965h11.25v1.5h-11.25m15.75-1.5h2.25v1.5h-2.25"/><g fill="#2A3F5F"><use xlink:href="#G" x="148.045" y="239.405"/><use xlink:href="#H" x="154.684" y="239.405"/></g><g fill="#2A3F5F"><use xlink:href="#I" x="154.684" y="241.61"/><use xlink:href="#J" x="159.098" y="241.61"/></g><use xlink:href="#K" x="163.678" y="241.61" fill="#2A3F5F"/><use xlink:href="#L" x="168.139" y="241.61" fill="#2A3F5F"/><g fill="#2A3F5F"><use xlink:href="#M" x="172.488" y="241.61"/><use xlink:href="#N" x="176.867" y="241.61"/><use xlink:href="#O" x="179.451" y="241.61"/></g><g fill="#2A3F5F"><use xlink:href="#P" x="185.645" y="241.61"/><use xlink:href="#N" x="190.078" y="241.61"/><use xlink:href="#Q" x="192.662" y="241.61"/></g><use xlink:href="#R" x="197.313" y="241.61" fill="#2A3F5F"/><use xlink:href="#S" x="201.964" y="241.61" fill="#2A3F5F"/><use xlink:href="#S" x="203.981" y="241.61" fill="#2A3F5F"/><use xlink:href="#H" x="205.998" y="239.405" fill="#2A3F5F"/><g fill="#2A3F5F"><use xlink:href="#H" x="205.998" y="239.405"/><use xlink:href="#T" x="209.689" y="239.405"/><use xlink:href="#U" x="214.457" y="239.405"/><use xlink:href="#V" x="220.712" y="239.405"/><use xlink:href="#W" x="227.89" y="239.405"/><use xlink:href="#X" x="232.658" y="239.405"/><use xlink:href="#Y" x="238.964" y="239.405"/><use xlink:href="#Z" x="243.101" y="239.405"/><use xlink:href="#aa" x="249.474" y="239.405"/><use xlink:href="#ab" x="259.687" y="239.405"/></g><g fill="#2A3F5F"><use xlink:href="#ac" x="10.5" y="168.91"/><use xlink:href="#ad" x="10.5" y="161.609"/><use xlink:href="#ae" x="10.5" y="155.236"/><use xlink:href="#ae" x="10.5" y="152.355"/><use xlink:href="#af" x="10.5" y="149.473"/><use xlink:href="#ag" x="10.5" y="146.592"/><use xlink:href="#ah" x="10.5" y="139.948"/><use xlink:href="#ai" x="10.5" y="133.406"/><use xlink:href="#aj" x="10.5" y="129.714"/><use xlink:href="#ak" x="10.5" y="120.865"/><use xlink:href="#al" x="10.5" y="113.687"/><use xlink:href="#ai" x="10.5" y="107.048"/><use xlink:href="#am" x="10.5" y="103.356"/><use xlink:href="#an" x="10.5" y="98.588"/><use xlink:href="#ao" x="10.5" y="92.333"/><use xlink:href="#ap" x="10.5" y="85.156"/><use xlink:href="#aq" x="10.5" y="80.388"/><use xlink:href="#ar" x="10.5" y="74.082"/><use xlink:href="#ad" x="10.5" y="69.944"/><use xlink:href="#as" x="10.5" y="63.571"/><use xlink:href="#at" x="10.5" y="53.358"/></g><g fill="#2A3F5F"><use xlink:href="#au" x="170.263" y="81"/><use xlink:href="#av" x="177.848" y="81"/><use xlink:href="#aw" x="184" y="81"/><use xlink:href="#D" x="189.691" y="81"/><use xlink:href="#ax" x="192.855" y="81"/><use xlink:href="#D" x="200.22" y="81"/><use xlink:href="#ay" x="203.384" y="81"/><use xlink:href="#aw" x="207.471" y="81"/><use xlink:href="#D" x="213.162" y="81"/></g><use xlink:href="#az" x="213.162" y="82.89" fill="#2A3F5F"/><use xlink:href="#aA" x="217.144" y="82.89" fill="#2A3F5F"/><use xlink:href="#aB" x="221.126" y="82.89" fill="#2A3F5F"/><use xlink:href="#aB" x="222.853" y="82.89" fill="#2A3F5F"/><use xlink:href="#aC" x="224.58" y="82.89" fill="#2A3F5F"/><use xlink:href="#aD" x="226.792" y="82.89" fill="#2A3F5F"/><use xlink:href="#aE" x="230.712" y="82.89" fill="#2A3F5F"/><use xlink:href="#aF" x="232.439" y="82.89" fill="#2A3F5F"/><use xlink:href="#aG" x="235.718" y="82.89" fill="#2A3F5F"/><use xlink:href="#ay" x="238.197" y="81" fill="#2A3F5F"/><g fill="#2A3F5F"><use xlink:href="#aH" x="210.003" y="195"/><use xlink:href="#aI" x="213.844" y="195"/><use xlink:href="#aJ" x="219.306" y="195"/><use xlink:href="#aJ" x="221.776" y="195"/><use xlink:href="#aK" x="224.246" y="195"/><use xlink:href="#aL" x="226.715" y="195"/><use xlink:href="#aM" x="232.411" y="195"/><use xlink:href="#D" x="238.018" y="195"/><use xlink:href="#aN" x="241.182" y="195"/><use xlink:href="#aK" x="248.547" y="195"/><use xlink:href="#aL" x="251.017" y="195"/><use xlink:href="#aO" x="256.712" y="195"/><use xlink:href="#aI" x="262.32" y="195"/><use xlink:href="#aN" x="267.782" y="195"/><use xlink:href="#aP" x="275.147" y="195"/><use xlink:href="#E" x="282.513" y="195"/><use xlink:href="#o" x="288.234" y="195"/><use xlink:href="#D" x="293.956" y="195"/><use xlink:href="#aQ" x="297.12" y="195"/><use xlink:href="#aR" x="305.874" y="195"/><use xlink:href="#aS" x="311.235" y="195"/></g></svg>