<svg xmlns="http://www.w3.org/2000/svg" xmlns:xlink="http://www.w3.org/1999/xlink" width="487.92" height="300"><defs><path id="r" d="M6.406-2.516H.97v-.703h5.437Zm0 0"/><path id="s" d="M5.14-3.281q0 1.769-.562 2.594-.55.83-1.703.828-1.19.001-1.734-.828-.533-.844-.532-2.579-.002-1.746.547-2.578.547-.843 1.719-.843 1.17.002 1.719.859c.363.562.547 1.414.547 2.547m-1.156 2q.154-.358.204-.844.06-.481.062-1.156-.002-.67-.062-1.156a2.4 2.4 0 0 0-.22-.844 1.07 1.07 0 0 0-.421-.5 1.23 1.23 0 0 0-.672-.172q-.423 0-.687.172-.27.176-.438.515a3 3 0 0 0-.203.86 13 13 0 0 0-.047 1.14q0 .69.047 1.157.046.455.203.812.14.344.406.531c.188.118.426.172.719.172.27 0 .492-.054.672-.172q.28-.17.437-.515m0 0"/><path id="t" d="M2.172 0H1.109v-1.25h1.063Zm0 0"/><path id="u" d="M5.14 0H.704v-.922c.313-.258.617-.52.922-.781q.467-.404.875-.797c.563-.54.945-.973 1.156-1.297a1.9 1.9 0 0 0 .313-1.047q-.002-.516-.344-.797-.328-.294-.937-.296-.392.002-.86.156a3.5 3.5 0 0 0-.906.422H.875v-.922a4.3 4.3 0 0 1 .828-.282 4.5 4.5 0 0 1 1.016-.125c.664 0 1.191.165 1.578.485q.576.487.578 1.312c0 .25-.04.485-.11.704a2.5 2.5 0 0 1-.265.609 4 4 0 0 1-.406.547q-.235.268-.563.578c-.312.312-.636.617-.969.906q-.503.422-.937.797h3.516Zm0 0"/><path id="v" d="M4.766 0H1.219v-.672h1.375v-4.39H1.219v-.594q.28 0 .593-.047.329-.047.485-.14a.8.8 0 0 0 .312-.282.85.85 0 0 0 .141-.453h.688v5.906h1.328Zm0 0"/><path id="w" d="M5.094-2.078c0 .305-.059.594-.172.875a1.9 1.9 0 0 1-.453.703q-.317.315-.75.484a3.1 3.1 0 0 1-1.016.157Q2.153.14 1.656.016A4 4 0 0 1 .828-.25v-.922h.063q.358.222.843.39c.32.106.641.157.954.157.207 0 .406-.023.593-.078a1.36 1.36 0 0 0 .531-.313c.126-.125.22-.273.282-.453.07-.176.11-.383.11-.625q-.001-.328-.126-.562a.95.95 0 0 0-.312-.375 1.4 1.4 0 0 0-.563-.235 3.3 3.3 0 0 0-.734-.078c-.262 0-.512.024-.75.063a6 6 0 0 0-.61.11v-3.391h3.938v.78H1.953v1.735q.187-.014.39-.016c.134-.007.25-.015.345-.015q.528 0 .921.094.405.095.75.312.343.253.532.64c.132.25.203.571.203.954m0 0"/><path id="z" d="M5.281 0H4.188l-1.97-2.156-.546.515V0H.844v-6.844h.828v4.39l2.39-2.468H5.11L2.83-2.64Zm0 0"/><path id="A" d="M5.297-1.844h-.969V0h-.844v-1.844H.344v-1.015l3.172-3.703h.812v4.015h.969Zm-1.813-.703V-5.5L.938-2.547Zm0 0"/><path id="B" d="M5.25-2.125c0 .668-.227 1.215-.672 1.64q-.657.627-1.61.626-.485 0-.89-.141a1.9 1.9 0 0 1-.687-.453 2.4 2.4 0 0 1-.578-.969Q.608-2.03.609-2.875q0-.873.188-1.547c.125-.445.32-.848.594-1.203a2.54 2.54 0 0 1 1-.766q.608-.28 1.422-.28.262.002.437.015.17.018.36.078v.844h-.048a2.2 2.2 0 0 0-.875-.187q-.953 0-1.515.593-.563.597-.656 1.594c.25-.145.492-.254.734-.328q.359-.125.828-.125.404 0 .719.078.327.08.672.312.374.268.578.672.201.409.203 1m-.906.031q-.001-.404-.125-.672a1.13 1.13 0 0 0-.39-.468 1.2 1.2 0 0 0-.454-.188 2.6 2.6 0 0 0-.516-.047q-.375 0-.703.094-.314.095-.64.266-.017.11-.016.203v.219q0 .69.14 1.093.14.41.391.64.201.189.438.282.234.094.515.094.638 0 1-.39.36-.388.36-1.126m0 0"/><path id="C" d="M5.188-1.828c0 .562-.22 1.039-.657 1.422Q3.874.156 2.86.156 1.795.158 1.156-.39.53-.952.531-1.812q-.002-.546.313-.985.328-.433.906-.703v-.031q-.534-.281-.781-.61-.251-.339-.25-.843c0-.489.195-.895.594-1.22q.609-.498 1.546-.5.984 0 1.563.47.592.469.594 1.203 0 .44-.282.875c-.18.281-.449.508-.812.672v.015q.62.27.937.656.33.393.329.985M4.156-5.031a.89.89 0 0 0-.375-.75q-.361-.282-.922-.282-.55.001-.906.266a.85.85 0 0 0-.36.719c0 .21.055.39.173.547.125.156.304.293.547.406.113.055.269.125.468.219q.311.128.594.203.434-.293.61-.61a1.5 1.5 0 0 0 .171-.718m.125 3.281q0-.388-.172-.64-.175-.248-.703-.5a5 5 0 0 0-.453-.172q-.234-.077-.656-.235a1.8 1.8 0 0 0-.64.594 1.5 1.5 0 0 0-.235.828q-.002.598.406.984.42.392 1.047.391.64 0 1.016-.328c.257-.227.39-.535.39-.922m0 0"/><path id="D" d="M5.938-.469A8 8 0 0 0 5.5-.28a4 4 0 0 1-.516.203 6 6 0 0 1-.578.14q-.313.062-.687.063-.72-.002-1.313-.203a2.6 2.6 0 0 1-1-.625 3 3 0 0 1-.672-1.063Q.5-2.42.5-3.266q0-.808.234-1.453a3.05 3.05 0 0 1 .657-1.078 2.8 2.8 0 0 1 1.015-.64 3.5 3.5 0 0 1 1.313-.235c.351 0 .703.043 1.047.125.351.086.742.234 1.172.453v1.032h-.063q-.551-.451-1.078-.657a3 3 0 0 0-1.14-.218q-.488 0-.891.171a1.9 1.9 0 0 0-.703.5q-.316.33-.485.829-.174.503-.172 1.171 0 .69.188 1.188.186.503.484.812.31.317.719.47c.281.105.57.155.875.155a3.3 3.3 0 0 0 1.172-.203A3.2 3.2 0 0 0 5.875-1.5h.063Zm0 0"/><path id="E" d="M6.344-.484a8 8 0 0 1-1.172.437q-.644.17-1.234.172Q3.17.123 2.53-.078a3 3 0 0 1-1.078-.64A2.75 2.75 0 0 1 .75-1.782Q.499-2.42.5-3.281q-.002-1.577.922-2.485c.613-.601 1.453-.906 2.516-.906q.56 0 1.14.14a5.7 5.7 0 0 1 1.266.454v1.031h-.078a10 10 0 0 0-.407-.281 3.4 3.4 0 0 0-.5-.281 4 4 0 0 0-.703-.235 3.6 3.6 0 0 0-.86-.093q-1.11.002-1.75.718-.642.704-.64 1.907 0 1.281.672 1.984.668.703 1.828.703c.281 0 .563-.023.844-.078.281-.063.523-.133.734-.219v-1.61h-1.75v-.765h2.61Zm0 0"/><path id="F" d="M5.875 0H4.797l-3.11-5.86V0H.876v-6.562h1.36l2.828 5.359v-5.36h.812Zm0 0"/><path id="G" d="M6.719 0h-.875v-5.64L4.03-1.814H3.5L1.688-5.64V0H.875v-6.562h1.188l1.75 3.656L5.5-6.562h1.219Zm0 0"/><path id="H" d="M5.203 0H.875v-6.562h4.328v.78H1.75v1.798h3.453v.78H1.75V-.78h3.453Zm0 0"/><path id="I" d="M4.938-2.375H1.313c0 .305.039.57.125.797q.14.329.375.547c.156.148.335.258.546.328q.31.094.704.094a2.6 2.6 0 0 0 1-.203c.343-.133.585-.266.734-.391h.031v.906A7 7 0 0 1 3.984 0c-.293.07-.601.11-.921.11q-1.22 0-1.907-.657-.688-.655-.687-1.89 0-1.203.656-1.907.657-.703 1.734-.703.997.002 1.532.578.546.58.547 1.64ZM4.125-3q0-.654-.328-1.016-.328-.358-.985-.359c-.449 0-.804.133-1.062.39q-.392.393-.437.985Zm0 0"/><path id="J" d="M3.375-.047a4 4 0 0 1-.516.094 3 3 0 0 1-.484.047q-.769.002-1.156-.406Q.828-.718.829-1.61v-2.61H.265v-.703h.562v-1.406h.828v1.406h1.719v.703H1.656v2.235q-.001.391.016.609.012.22.125.406a.62.62 0 0 0 .266.266c.113.055.285.078.515.078q.2 0 .422-.062.235-.059.328-.094h.047Zm0 0"/><path id="K" d="M5.828-2.016q0 .486-.187.86-.189.376-.5.625c-.25.187-.524.324-.813.406Q3.888.002 3.203 0H.875v-6.562h1.953q.716.002 1.063.062.358.047.687.219.357.19.516.484.17.299.172.719c0 .305-.079.562-.235.781a1.7 1.7 0 0 1-.64.531v.032c.445.093.797.293 1.047.593.257.293.39.668.39 1.125M4.36-4.969a.9.9 0 0 0-.078-.39.7.7 0 0 0-.25-.282 1.7 1.7 0 0 0-.515-.14 7 7 0 0 0-.72-.032H1.75v1.891h1.125q.406.002.64-.031.246-.047.47-.188a.67.67 0 0 0 .28-.328q.094-.217.094-.5m.563 2.985c0-.258-.043-.47-.125-.625Q4.669-2.844 4.359-3a1.5 1.5 0 0 0-.515-.14 5 5 0 0 0-.719-.047H1.75V-.75h1.156q.575 0 .938-.047.358-.06.594-.219.247-.169.359-.39.124-.234.125-.578m0 0"/><path id="L" d="M5.766-5.797q.404.44.609 1.078.218.643.219 1.438 0 .814-.219 1.453-.223.645-.61 1.078a2.75 2.75 0 0 1-.968.672 3.4 3.4 0 0 1-1.25.219c-.461 0-.883-.082-1.266-.235a2.7 2.7 0 0 1-.953-.656 3 3 0 0 1-.61-1.062C.57-2.238.5-2.727.5-3.282q-.001-.795.203-1.421.216-.639.625-1.094.388-.434.969-.656.575-.234 1.25-.234.703 0 1.265.234.562.222.954.656M5.687-3.28c0-.844-.195-1.492-.578-1.953q-.564-.704-1.562-.703-1.003 0-1.578.703-.563.688-.563 1.953 0 1.3.578 1.984.591.69 1.563.688.984.002 1.562-.688c.383-.457.579-1.117.579-1.984m0 0"/><path id="M" d="M8.516-6.562 6.813 0h-.985L4.453-5.437 3.093 0h-.952L.406-6.562h.89L2.673-1.11l1.36-5.453h.89l1.36 5.515 1.374-5.515Zm0 0"/><path id="N" d="M5.64-1.875q0 .392-.187.766-.175.376-.484.625-.361.282-.828.453a3.7 3.7 0 0 1-1.125.156Q2.31.124 1.734 0a6.3 6.3 0 0 1-1.14-.406V-1.5h.062q.497.423 1.14.64c.438.15.849.22 1.235.22q.795 0 1.25-.297c.301-.196.453-.47.453-.813q-.001-.436-.218-.64-.207-.2-.641-.329-.33-.075-.719-.14A19 19 0 0 1 2.344-3q-.877-.186-1.297-.625-.422-.45-.422-1.172-.002-.826.688-1.344.703-.528 1.78-.53.687 0 1.266.14a6 6 0 0 1 1.016.312v1.032h-.062q-.375-.312-.985-.516a3.7 3.7 0 0 0-1.25-.219c-.46 0-.836.102-1.125.297q-.422.282-.422.75 0 .408.203.64.218.236.75.36.282.047.797.14.528.095.89.188c.49.125.852.32 1.095.578q.375.392.375 1.094m0 0"/><path id="O" d="M6.297 0H5.172L2.984-2.61H1.75V0H.875v-6.562h1.844q.591 0 .984.078.404.081.719.28.358.225.547.563.201.347.203.875 0 .707-.36 1.188a2.16 2.16 0 0 1-.968.719ZM4.266-4.703c0-.188-.04-.352-.11-.5a.9.9 0 0 0-.312-.375 1.2 1.2 0 0 0-.453-.172 3 3 0 0 0-.61-.062H1.75v2.484h.875q.421.002.719-.078.31-.077.531-.266.201-.187.297-.422.093-.246.094-.61m0 0"/><path id="P" d="M6.453-2.516H4.047v2.391h-.719v-2.39H.922v-.704h2.406v-2.406h.719v2.406h2.406Zm0 0"/><path id="Q" d="M5.172-4.578c0 .293-.055.562-.156.812q-.159.376-.422.641-.344.345-.813.516-.454.174-1.156.172H1.75V0H.875v-6.562h1.781q.591.002 1 .109.406.095.735.312.374.251.578.625.201.375.203.938m-.906.031q-.001-.34-.125-.594a.94.94 0 0 0-.36-.406 1.6 1.6 0 0 0-.484-.203 3.3 3.3 0 0 0-.688-.062H1.75v2.625h.734q.53 0 .86-.094.327-.093.531-.297.216-.218.297-.453.093-.235.094-.516m0 0"/><path id="R" d="M3.875-4.016h-.031a3 3 0 0 0-.36-.062 6 6 0 0 0-.421-.016 1.7 1.7 0 0 0-.735.172 2.7 2.7 0 0 0-.687.438V0H.813v-4.922h.828v.734q.499-.404.875-.562.374-.17.765-.172.218.002.313.016l.281.047Zm0 0"/><path id="S" d="M4.922 0h-.828v-2.797a4 4 0 0 0-.047-.64 1.2 1.2 0 0 0-.14-.47.75.75 0 0 0-.313-.265 1.3 1.3 0 0 0-.531-.094q-.346.001-.72.172a3.3 3.3 0 0 0-.702.422V0H.813v-4.922h.828v.547q.386-.31.797-.484.42-.188.859-.188.795.002 1.203.484.422.471.422 1.375Zm0 0"/><path id="T" d="M3.453-6.047h-.031a2.4 2.4 0 0 0-.36-.078 2 2 0 0 0-.39-.047q-.534 0-.781.234-.235.237-.235.86v.156h1.5v.703H1.687V0H.86v-4.219H.297v-.703h.562v-.156q0-.874.438-1.344.434-.468 1.25-.469.279.001.5.032.232.017.406.046Zm0 0"/><path id="U" d="M5-2.453c0 .805-.21 1.437-.625 1.906q-.61.69-1.64.688-1.048.002-1.657-.688c-.406-.469-.61-1.101-.61-1.906q0-1.2.61-1.89.608-.704 1.656-.704 1.032 0 1.641.703c.414.461.625 1.09.625 1.89m-.844 0c0-.633-.125-1.11-.375-1.422q-.377-.468-1.047-.469-.672 0-1.046.469c-.243.313-.36.79-.36 1.422 0 .617.117 1.086.36 1.406q.374.47 1.046.469.67 0 1.047-.469.375-.468.375-1.406m0 0"/><path id="V" d="M7.984 0h-.828v-2.797q0-.31-.031-.61a1.15 1.15 0 0 0-.11-.468.7.7 0 0 0-.296-.297q-.189-.093-.547-.094-.346.001-.688.172-.345.175-.703.438.014.11.016.25.014.127.016.265V0h-.829v-2.797q0-.328-.03-.625a1.15 1.15 0 0 0-.11-.469.7.7 0 0 0-.297-.28Q3.358-4.267 3-4.267q-.346.001-.687.172a3.8 3.8 0 0 0-.672.422V0H.813v-4.922h.828v.547a3.8 3.8 0 0 1 .765-.484q.388-.188.828-.188.498 0 .844.219.356.204.531.578.497-.421.907-.61.421-.186.89-.187.812.002 1.188.484.388.487.39 1.375Zm0 0"/><path id="W" d="M6.047 0h-.922l-.64-1.828H1.64L1 0H.11L2.5-6.562h1.156ZM4.203-2.578l-1.14-3.219-1.157 3.219Zm0 0"/><path id="X" d="M5.031 0H.875v-6.562h.875v5.78h3.281Zm0 0"/><path id="Y" d="M3.188 0H.608v-.672h.86V-5.89h-.86v-.671h2.579v.671h-.86v5.22h.86Zm0 0"/><path id="Z" d="M4.563-3.156c.144.125.257.289.343.484q.14.283.14.735-.002.438-.155.812-.16.375-.453.656A2.1 2.1 0 0 1 3.656 0Q3.2.14 2.672.14 2.12.14 1.594 0a4.6 4.6 0 0 1-.86-.281v-.922h.063q.373.252.875.422.516.157.984.156c.188 0 .383-.031.594-.094q.311-.091.5-.265a1.3 1.3 0 0 0 .297-.438A1.4 1.4 0 0 0 4.157-2c0-.238-.04-.437-.11-.594a.85.85 0 0 0-.313-.36 1.2 1.2 0 0 0-.484-.187 4 4 0 0 0-.61-.046h-.39v-.735h.313q.668 0 1.062-.281.406-.28.406-.813a.77.77 0 0 0-.11-.406.8.8 0 0 0-.28-.312 1.5 1.5 0 0 0-.407-.157 2.3 2.3 0 0 0-.484-.046q-.422.002-.89.156-.47.158-.891.422H.922v-.922a4.3 4.3 0 0 1 .828-.282 4.5 4.5 0 0 1 1.016-.125q.48 0 .843.094c.25.055.473.14.672.266q.311.222.469.516.17.298.172.703c0 .367-.133.683-.39.953a1.7 1.7 0 0 1-.907.515v.063q.2.035.469.14.28.112.468.282m0 0"/><path id="aa" d="M5.89 0h-.874v-3.203H1.75V0H.875v-6.562h.875v2.578h3.266v-2.578h.875Zm0 0"/><path id="aQ" d="M6.266-2.594 1.188-.344v-.781l4-1.75-4-1.734v-.797l5.078 2.265Zm0 0"/><path id="aR" d="M2.438 1.719h-.782v-8.563h.782Zm0 0"/><path id="ba" d="M1.656 0H.828v-6.844h.828Zm0 0"/><path id="bb" d="M1.703-5.734H.766v-.86h.937ZM1.656 0H.828v-4.922h.828Zm0 0"/><path id="bc" d="M4.797-.562q0 1.247-.563 1.828-.564.592-1.75.593-.39-.002-.765-.062a6 6 0 0 1-.735-.14V.812h.047q.2.076.64.187.453.124.892.125c.28 0 .507-.04.687-.11a.95.95 0 0 0 .438-.28q.152-.177.218-.422.062-.234.063-.532v-.453q-.377.3-.719.453-.33.14-.86.14-.878.002-1.406-.624Q.47-1.341.47-2.5c0-.426.054-.79.172-1.094.125-.312.289-.578.5-.797a1.9 1.9 0 0 1 .687-.484 2.2 2.2 0 0 1 .828-.172q.422 0 .703.094a3 3 0 0 1 .61.25l.062-.219h.766Zm-.828-.782V-4.03a3 3 0 0 0-.61-.219 3 3 0 0 0-.562-.062q-.691 0-1.078.468-.391.456-.39 1.328 0 .831.28 1.25.295.423.97.422.355 0 .718-.14c.25-.094.473-.211.672-.36m0 0"/><path id="bd" d="M7-4.922 5.719 0h-.766L3.687-3.797 2.438 0h-.765L.375-4.922h.86l.906 3.813 1.234-3.813h.672l1.266 3.813.859-3.813Zm0 0"/><path id="be" d="M4.797 0h-.828v-.516q-.346.315-.735.485a2.1 2.1 0 0 1-.843.172Q1.512.14.984-.531.47-1.216.47-2.421c0-.415.054-.786.172-1.11.125-.332.289-.61.5-.828q.293-.34.687-.516.406-.17.828-.172.388 0 .688.078c.195.055.406.137.625.25v-2.125h.828Zm-.828-1.203v-2.828a2.5 2.5 0 0 0-.594-.203 2.7 2.7 0 0 0-.578-.063q-.691.002-1.078.484-.391.486-.39 1.376-.001.877.296 1.328.294.455.969.453.339 0 .703-.156a3.3 3.3 0 0 0 .672-.391m0 0"/><path id="bf" d="M6.297-3.437H1.078v-.704h5.219Zm0 1.843H1.078v-.703h5.219Zm0 0"/><path id="bg" d="M6.047-6.562 3.657 0H2.5L.11-6.562h.937l2.062 5.78 2.047-5.78Zm0 0"/><path id="ab" d="M6.063 0H1.03v-7.64h5.032v.906H2.047v2.093h4.015v.891H2.048v2.844h4.015Zm0 0"/><path id="ao" d="M4.016 2.11H2.844A8.2 8.2 0 0 1 1.422-.157c-.336-.82-.5-1.75-.5-2.781s.164-1.958.5-2.782a8.2 8.2 0 0 1 1.422-2.265h1.172v.046q-.411.376-.797.875-.375.488-.688 1.125-.316.645-.515 1.407a6.6 6.6 0 0 0-.188 1.593 6.5 6.5 0 0 0 .703 3q.295.622.688 1.126.405.513.797.875Zm0 0"/><path id="ap" d="M5.75-2.766H1.531q-.001.535.157.922a1.6 1.6 0 0 0 .437.64q.263.253.625.376c.25.086.52.125.813.125q.591 0 1.171-.235.591-.234.86-.468h.047v1.062q-.487.204-1 .344-.502.14-1.063.14Q2.14.143 1.344-.624q-.797-.78-.797-2.203-.001-1.405.766-2.234.761-.828 2.015-.829 1.17 0 1.797.688c.414.45.625 1.086.625 1.906ZM4.813-3.5c0-.508-.133-.898-.391-1.172-.25-.281-.633-.422-1.14-.422q-.785.002-1.235.453A1.77 1.77 0 0 0 1.53-3.5Zm0 0"/><path id="aq" d="M7.063-7.64 4.265 0H2.922L.14-7.64h1.078L3.625-.923l2.39-6.719Zm0 0"/><path id="ar" d="M4.422-7.984.734 1.563h-.89l3.672-9.547Zm0 0"/><path id="as" d="M5.406 0h-.953v-.61a3 3 0 0 0-.36.25 2 2 0 0 1-.421.235c-.156.086-.34.148-.547.203q-.314.077-.734.078-.785 0-1.328-.515Q.53-.873.53-1.656q0-.655.282-1.063.281-.405.796-.64.528-.217 1.266-.297.734-.095 1.578-.14v-.142a1.1 1.1 0 0 0-.125-.546A.84.84 0 0 0 4-4.828a1.5 1.5 0 0 0-.5-.14 3.6 3.6 0 0 0-.594-.048q-.375 0-.844.094a5.6 5.6 0 0 0-.968.297h-.047v-.984q.28-.078.812-.172a6 6 0 0 1 1.047-.094c.406 0 .758.04 1.063.11q.451.093.781.327.31.235.484.61.171.375.172.937Zm-.953-1.406v-1.61a49 49 0 0 0-1.047.094 5.6 5.6 0 0 0-.953.14 1.6 1.6 0 0 0-.672.36q-.251.253-.25.688 0 .504.297.75c.195.168.5.25.906.25q.516 0 .938-.203a4.6 4.6 0 0 0 .781-.47m0 0"/><path id="at" d="M3.922-.047c-.18.043-.375.078-.594.11q-.316.046-.562.046-.877 0-1.344-.468C1.117-.672.969-1.176.969-1.875v-3.047H.313v-.812h.656v-1.657h.969v1.657h1.984v.812H1.937v2.61q-.001.455.016.718.03.252.14.469a.76.76 0 0 0 .313.297q.2.094.61.094.233 0 .484-.063.263-.077.375-.125h.047Zm0 0"/><path id="au" d="M5.844-2.86q-.002 1.395-.719 2.204-.72.813-1.937.812-1.208 0-1.922-.812-.72-.81-.72-2.203 0-1.405.72-2.22c.476-.538 1.117-.812 1.922-.812.812 0 1.457.274 1.937.813q.717.813.719 2.219m-1 0c0-.75-.149-1.3-.438-1.656q-.44-.545-1.218-.546-.786 0-1.22.546-.42.533-.421 1.657 0 1.077.422 1.64.433.549 1.219.547.778.002 1.218-.547.437-.563.438-1.64m0 0"/><path id="av" d="M9.313 0h-.954v-3.266q0-.374-.046-.718a1.6 1.6 0 0 0-.141-.547.74.74 0 0 0-.328-.328c-.149-.07-.36-.11-.64-.11q-.41.002-.813.203a5 5 0 0 0-.813.516l.031.266c.008.105.016.21.016.312V0h-.969v-3.266q0-.374-.047-.718a1.8 1.8 0 0 0-.125-.547.84.84 0 0 0-.343-.328c-.149-.07-.36-.11-.641-.11a1.8 1.8 0 0 0-.797.203c-.262.125-.523.29-.781.485V0H.953v-5.734h.969v.64q.434-.374.89-.578.453-.218.97-.219.573.002.984.25.404.237.609.672.593-.48 1.063-.703a2.5 2.5 0 0 1 1.03-.219c.634 0 1.098.196 1.391.579q.453.563.454 1.593Zm0 0"/><path id="aw" d="M3.844-2.937c0 1.03-.168 1.96-.5 2.78A8 8 0 0 1 1.938 2.11H.75v-.046a6.3 6.3 0 0 0 .797-.876Q1.952.685 2.25.063c.207-.438.375-.899.5-1.391a6.5 6.5 0 0 0 .188-1.61q0-.843-.188-1.593a7.2 7.2 0 0 0-.5-1.407 7.3 7.3 0 0 0-.703-1.125 6 6 0 0 0-.797-.875v-.046h1.188A8 8 0 0 1 3.343-5.72q.499 1.235.5 2.782m0 0"/><path id="ad" d="M3.781 0H3.11v-.422l-.25.172a1.2 1.2 0 0 1-.28.172 2 2 0 0 1-.392.125q-.222.06-.515.062Q1.123.111.75-.25.375-.608.375-1.172q0-.452.188-.734.198-.28.562-.438.374-.17.875-.219c.344-.039.71-.07 1.11-.093v-.094a.8.8 0 0 0-.079-.375.65.65 0 0 0-.234-.25 1.2 1.2 0 0 0-.344-.11 3 3 0 0 0-.422-.03c-.18 0-.375.027-.594.078a3.6 3.6 0 0 0-.671.203H.734v-.688q.188-.06.563-.125c.25-.039.492-.062.734-.062q.435 0 .75.078.311.064.547.234a1 1 0 0 1 .328.422q.124.27.125.656ZM3.11-.984V-2.11q-.314.015-.734.062a5 5 0 0 0-.656.094 1.3 1.3 0 0 0-.469.266q-.174.176-.172.468 0 .362.203.532c.133.117.348.171.64.171q.341 0 .642-.14.293-.14.546-.328m0 0"/><path id="ae" d="M4.203-2.031c0 .336-.055.636-.156.906a2.2 2.2 0 0 1-.375.672 1.7 1.7 0 0 1-.563.422c-.199.09-.421.14-.671.14q-.347 0-.594-.078a2.4 2.4 0 0 1-.5-.218L1.297 0H.672v-5.594h.672v2q.28-.234.593-.375a1.7 1.7 0 0 1 .72-.156q.714.001 1.124.547.422.55.422 1.547m-.703.015q0-.716-.234-1.093-.237-.375-.766-.375-.299.001-.61.125-.3.129-.546.328V-.72c.187.086.347.14.484.172q.216.047.469.047c.375 0 .664-.117.875-.36.219-.25.328-.632.328-1.156m0 0"/><path id="af" d="M4.078-2q-.001.972-.5 1.547c-.336.375-.781.562-1.344.562Q1.391.11.875-.453C.539-.836.375-1.352.375-2c0-.656.164-1.172.5-1.547q.516-.576 1.36-.578c.562 0 1.007.195 1.343.578q.499.562.5 1.547m-.687 0q-.001-.78-.313-1.156-.299-.389-.844-.39-.55.002-.859.39Q1.077-2.78 1.078-2c0 .5.098.883.297 1.14q.31.392.86.391.545 0 .843-.39c.207-.258.313-.641.313-1.141m0 0"/><path id="ag" d="M4.14-4.016 2.517 0h-.688L.218-4.016h.735l1.25 3.204 1.219-3.204Zm0 0"/><path id="ah" d="M4.031-1.937H1.063q-.001.374.109.656.124.269.312.437.187.174.438.266c.176.055.367.078.578.078q.404.001.813-.156.419-.17.593-.328h.047v.734q-.345.157-.703.25a3 3 0 0 1-.75.094q-1 0-1.562-.531Q.375-.983.375-1.984q0-.984.531-1.563.544-.576 1.422-.578c.54 0 .957.164 1.25.484q.452.47.453 1.344Zm-.672-.516q-.001-.53-.265-.813-.27-.294-.797-.296c-.367 0-.656.109-.875.328-.211.21-.328.468-.36.78Zm0 0"/><path id="aj" d="M5.484 0h-.718v-4.61L3.28-1.468h-.42l-1.468-3.14V0H.719v-5.344h.969l1.421 2.969L4.5-5.344h.984Zm0 0"/><path id="ak" d="M4.219-3.734q-.001.361-.125.672-.129.298-.344.515a1.8 1.8 0 0 1-.656.422q-.377.127-.953.125h-.703v2h-.72v-5.344h1.454c.32 0 .594.028.812.078q.341.082.594.25.31.206.469.516.17.298.172.766m-.735.015c0-.187-.039-.347-.109-.484a.8.8 0 0 0-.281-.328 1.3 1.3 0 0 0-.406-.157 2.7 2.7 0 0 0-.547-.046h-.703v2.125h.593q.435 0 .703-.063a.99.99 0 0 0 .672-.61q.077-.2.078-.437m0 0"/><path id="al" d="M4.016 0h-.672v-2.281q-.001-.282-.031-.516a1 1 0 0 0-.126-.39.55.55 0 0 0-.25-.22 1.1 1.1 0 0 0-.437-.077q-.282 0-.594.14-.298.143-.562.344v3H.672v-5.594h.672v2.032a2.6 2.6 0 0 1 .64-.407c.227-.101.461-.156.704-.156.437 0 .765.133.984.39.226.262.344.637.344 1.126Zm0 0"/><path id="am" d="M4 0h-.687v-.453q-.347.28-.657.422c-.21.09-.437.14-.687.14q-.627 0-.985-.375c-.23-.257-.343-.64-.343-1.14v-2.61h.672v2.282c0 .21.007.386.03.53q.03.224.126.376a.6.6 0 0 0 .25.234c.101.043.25.063.437.063q.263 0 .578-.14.31-.141.579-.345v-3H4Zm0 0"/><path id="an" d="M1.344 0H.672v-5.594h.672Zm0 0"/><path id="ax" d="M0-7.36v1.329L-3.047-3.47v1.422H0v1.016h-7.64v-2.14a6 6 0 0 1 .093-1.142c.055-.312.156-.593.313-.843.18-.282.402-.492.672-.64q.39-.235 1-.235.83 0 1.39.422c.367.273.64.648.828 1.125Zm-5.5 2.391c-.219 0-.41.04-.578.11a1 1 0 0 0-.422.375 1.4 1.4 0 0 0-.203.53q-.062.299-.063.72v1.187h2.875v-1.031c0-.313-.023-.586-.078-.828a1.6 1.6 0 0 0-.312-.625 1.5 1.5 0 0 0-.5-.328 2 2 0 0 0-.719-.11m0 0"/><path id="ay" d="M-2.86-5.844q1.395.002 2.204.719.813.72.812 1.938 0 1.207-.812 1.921-.81.72-2.203.72-1.405 0-2.22-.72c-.538-.476-.812-1.117-.812-1.921 0-.813.274-1.458.813-1.938q.813-.717 2.219-.719m0 1c-.75 0-1.3.149-1.656.438q-.545.44-.546 1.218 0 .786.546 1.22.533.42 1.657.421 1.077 0 1.64-.422.549-.433.547-1.218.002-.78-.547-1.22c-.375-.288-.922-.437-1.64-.437m0 0"/><path id="az" d="M0-1.922v.969h-7.984v-.969Zm0 0"/><path id="aA" d="M-6.703-1.984v1.078h-1v-1.078ZM0-1.922v.969h-5.734v-.969Zm0 0"/><path id="aB" d="M0-5.75v.969h-3.266q-.387 0-.734.047-.358.047-.547.172a.72.72 0 0 0-.312.375 1.55 1.55 0 0 0-.11.625q.002.393.203.828c.125.28.29.554.485.812H0v.969h-5.734v-.969h.64a3.5 3.5 0 0 1-.578-.922 2.4 2.4 0 0 1-.219-1q0-.92.563-1.406.55-.499 1.61-.5Zm0 0"/><path id="aC" d="M-.656-5.61c.976 0 1.691.227 2.14.673.457.437.688 1.117.688 2.03 0 .313-.024.618-.063.907a7 7 0 0 1-.187.844H.938v-.047a7 7 0 0 0 .218-.75q.14-.516.14-1.031c0-.32-.042-.594-.124-.813a1.13 1.13 0 0 0-.313-.5 1.2 1.2 0 0 0-.484-.266A2.4 2.4 0 0 0-.25-4.64h-.531q.345.44.515.844c.118.262.172.602.172 1.016 0 .68-.242 1.219-.734 1.625-.5.406-1.195.61-2.094.61q-.732 0-1.265-.204a3 3 0 0 1-.938-.578 2.3 2.3 0 0 1-.562-.813 2.5 2.5 0 0 1-.204-.953c0-.332.04-.61.11-.828a3.6 3.6 0 0 1 .297-.719l-.25-.062v-.906Zm-.922.97h-3.125q-.169.391-.25.718-.077.329-.078.656 0 .798.547 1.266c.355.305.87.453 1.547.453q.954.001 1.453-.344c.336-.226.5-.601.5-1.125q.001-.42-.157-.843a2.9 2.9 0 0 0-.437-.782m0 0"/><path id="aE" d="M0-7.828v1.016h-6.594l4.485 2.125v.593l-4.485 2.11H0v.953h-7.64v-1.375l4.25-2.047-4.25-1.969v-1.406Zm0 0"/><path id="aF" d="M0-7.062v1.093l-2.125.75v3.297L0-1.172V-.14l-7.64-2.78v-1.345Zm-3 2.156-3.75 1.343L-3-2.218Zm0 0"/><path id="aG" d="M0-6.062v5.03h-7.64v-5.03h.906v4.015h2.093v-4.015h.891v4.015h2.844v-4.015Zm0 0"/><path id="aH" d="M2.11-4.016v1.172A8.2 8.2 0 0 1-.157-1.422c-.82.336-1.75.5-2.781.5s-1.958-.164-2.782-.5a8.2 8.2 0 0 1-2.265-1.422v-1.172h.046q.376.411.875.797.488.375 1.125.688.645.316 1.407.515.75.188 1.593.188a6.5 6.5 0 0 0 3-.703q.622-.295 1.126-.688a7.5 7.5 0 0 0 .875-.797Zm0 0"/><path id="aI" d="M-2.766-5.75v4.219q.535.001.922-.157a1.6 1.6 0 0 0 .64-.437q.253-.263.376-.625c.086-.25.125-.52.125-.812q0-.593-.235-1.172-.234-.591-.468-.86v-.047h1.062q.204.487.344 1 .14.502.14 1.063.002 1.439-.765 2.234-.78.798-2.203.797c-.938 0-1.68-.254-2.234-.765q-.828-.762-.829-2.016 0-1.17.688-1.797.676-.623 1.906-.625Zm-.734.938q-.761.002-1.172.39c-.281.25-.422.633-.422 1.14q.002.785.453 1.235A1.77 1.77 0 0 0-3.5-1.53Zm0 0"/><path id="aJ" d="M-7.64-7.062 0-4.267v1.344L-7.64-.14v-1.078l6.718-2.406-6.719-2.39Zm0 0"/><path id="aK" d="M-7.984-4.422 1.563-.734v.89l-9.547-3.672Zm0 0"/><path id="aL" d="M0-5.406v.953h-.61q.082.142.25.36.159.222.235.421c.086.156.148.34.203.547q.077.314.078.734 0 .785-.515 1.329-.514.531-1.297.53-.655 0-1.063-.28a1.9 1.9 0 0 1-.64-.797q-.217-.528-.297-1.266a22 22 0 0 1-.14-1.578h-.142a1.1 1.1 0 0 0-.546.125.84.84 0 0 0-.344.328 1.5 1.5 0 0 0-.14.5 3.6 3.6 0 0 0-.048.594q0 .375.094.844.096.469.297.968v.047h-.984a10 10 0 0 1-.172-.812 6 6 0 0 1-.094-1.047c0-.406.04-.758.11-1.063q.093-.451.327-.781.235-.31.61-.484.375-.171.937-.172Zm-1.406.953h-1.61q.036.456.094 1.047.047.597.14.953.113.409.36.672.253.251.688.25.504 0 .75-.297c.168-.195.25-.5.25-.906q0-.516-.203-.938a4.6 4.6 0 0 0-.47-.781m0 0"/><path id="aM" d="M-.047-3.922c.043.18.078.375.11.594q.046.316.046.562 0 .877-.468 1.344c-.313.305-.817.453-1.516.453h-3.047v.657h-.812V-.97h-1.657v-.968h1.657v-1.985h.812v1.985h2.61q.455.001.718-.016.252-.03.469-.14a.76.76 0 0 0 .297-.313q.094-.2.094-.61 0-.233-.063-.484a4 4 0 0 0-.125-.375v-.047Zm0 0"/><path id="aN" d="M0-9.312v.953h-3.266q-.374 0-.718.046-.341.035-.547.141a.74.74 0 0 0-.328.328c-.07.149-.11.36-.11.64q.002.41.203.813.206.41.516.813l.266-.031a4 4 0 0 1 .312-.016H0v.969h-3.266q-.374 0-.718.047-.341.032-.547.125a.84.84 0 0 0-.328.343c-.07.149-.11.36-.11.641q.002.392.203.797c.125.262.29.523.485.781H0v.969h-5.734v-.969h.64a3.7 3.7 0 0 1-.578-.89 2.2 2.2 0 0 1-.219-.97q.002-.573.25-.984.237-.404.672-.609-.48-.593-.703-1.062A2.5 2.5 0 0 1-5.89-7.47c0-.633.196-1.097.579-1.39q.563-.452 1.593-.453Zm0 0"/><path id="aO" d="M-2.937-3.844c1.03 0 1.96.168 2.78.5A8 8 0 0 1 2.11-1.938V-.75h-.046a6.3 6.3 0 0 0-.876-.797A5.8 5.8 0 0 0 .063-2.25a7.6 7.6 0 0 0-1.391-.5 6.5 6.5 0 0 0-1.61-.187q-.843 0-1.593.187a7.2 7.2 0 0 0-1.407.5q-.637.328-1.125.703a6 6 0 0 0-.875.797h-.046v-1.187A8 8 0 0 1-5.72-3.344q1.235-.499 2.782-.5m0 0"/><path id="aS" d="M3.438 0h-.579v-1.953q0-.232-.03-.438a.7.7 0 0 0-.095-.328.5.5 0 0 0-.218-.203 1 1 0 0 0-.375-.062q-.236.001-.5.125a2.5 2.5 0 0 0-.5.297V0H.563v-4.781h.578v1.734c.187-.156.375-.273.562-.36q.294-.123.594-.124.562.002.844.344c.195.218.297.539.297.953Zm0 0"/><path id="aT" d="M3.422 0h-.578v-.375q-.3.222-.563.344c-.18.082-.375.125-.594.125q-.55 0-.843-.328c-.2-.22-.297-.54-.297-.97v-2.234h.578v1.954c0 .18.004.328.016.453q.028.188.109.312.075.143.203.203a1 1 0 0 0 .39.063q.234.001.5-.11.267-.124.5-.312v-2.562h.579Zm0 0"/><path id="aU" d="M1.156 0H.578v-4.781h.578Zm0 0"/><path id="aW" d="M3.36 0h-.58v-.36a2 2 0 0 1-.531.344c-.18.07-.371.11-.578.11q-.627 0-.984-.469c-.243-.32-.36-.758-.36-1.312q-.001-.435.125-.782c.082-.226.195-.422.344-.578.133-.156.297-.273.484-.36q.281-.123.578-.124.264.002.47.062.217.048.452.172V-4.78h.578Zm-.58-.844v-1.969a2 2 0 0 0-.422-.14A1.7 1.7 0 0 0 1.953-3q-.485.002-.766.344c-.18.219-.265.539-.265.953q-.001.61.203.937.218.315.688.313.233.001.484-.11.263-.106.484-.28m0 0"/><path id="aX" d="M1.188-4.016H.53v-.593h.657ZM1.156 0H.578v-3.437h.578Zm0 0"/><path id="aY" d="M3.016-.984c0 .312-.133.57-.391.765-.25.2-.602.297-1.047.297Q1.186.078.86 0a2.6 2.6 0 0 1-.515-.203V-.86h.031q.265.204.594.328c.226.086.445.125.656.125.25 0 .445-.04.594-.125a.42.42 0 0 0 .219-.39q0-.202-.126-.298-.112-.105-.453-.187-.113-.03-.312-.063a2.4 2.4 0 0 1-.36-.078q-.454-.122-.64-.344A.9.9 0 0 1 .36-2.47q-.002-.217.079-.406a1 1 0 0 1 .265-.328 1.2 1.2 0 0 1 .438-.219 1.8 1.8 0 0 1 .593-.094q.31.001.625.079.31.08.532.171v.625H2.86a2.2 2.2 0 0 0-.546-.265 1.7 1.7 0 0 0-.61-.125 1.1 1.1 0 0 0-.547.125c-.148.086-.218.203-.218.36q0 .222.14.327.123.095.422.172c.102.024.219.047.344.078q.201.034.343.063.387.094.61.312.218.235.219.61m0 0"/><path id="aZ" d="M2.36-.031C2.241 0 2.124.019 2 .03q-.19.031-.344.032-.532 0-.812-.282Q.576-.5.578-1.126v-1.828h-.39v-.485h.39v-.984h.578v.984H2.36v.485H1.156v1.562q-.001.284.016.438a.8.8 0 0 0 .078.281.5.5 0 0 0 .188.188q.123.045.375.046c.093 0 .187-.007.28-.03.102-.032.18-.055.235-.079h.031Zm0 0"/><clipPath id="e"><path d="M0 0h487.922v299.559H0Zm0 0"/></clipPath><clipPath id="f"><path d="M48.8 72.074h343.102v186.942H48.801Zm0 0"/></clipPath><clipPath id="c"><path d="M.8.074h343.102v186.942H.801Zm0 0"/></clipPath><clipPath id="d"><path d="M170 184h5v3.016h-5Zm0 0"/></clipPath><clipPath id="b"><path d="M0 0h344v188H0z"/></clipPath><clipPath id="i"><path d="M48.8 103H384v80H48.8Zm0 0"/></clipPath><clipPath id="j"><path d="M48.8 110H387v62H48.8Zm0 0"/></clipPath><clipPath id="k"><path d="M48.8 131h343.102v61H48.801Zm0 0"/></clipPath><clipPath id="l"><path d="M48.8 122H388v90H48.8Zm0 0"/></clipPath><clipPath id="m"><path d="M48.8 128H388v88H48.8Zm0 0"/></clipPath><clipPath id="n"><path d="M48.8 157H386v50H48.8Zm0 0"/></clipPath><clipPath id="o"><path d="M48.8 169H388v62H48.8Zm0 0"/></clipPath><clipPath id="p"><path d="M48.8 185H388v47H48.8Zm0 0"/></clipPath><clipPath id="q"><path d="M48.8 190h343.102v49H48.801Zm0 0"/></clipPath><clipPath id="x"><path d="M48.8 12H389v47.61H48.8Zm0 0"/></clipPath><clipPath id="y"><path d="M48.8 9.762h343.102v49.847H48.801Zm0 0"/></clipPath><filter id="a" width="100%" height="100%" x="0%" y="0%"><feColorMatrix color-interpolation-filters="sRGB" values="0 0 0 0 1 0 0 0 0 1 0 0 0 0 1 0 0 0 1 0"/></filter><mask id="g"><g filter="url(#a)"><path fill-opacity=".2" d="M-48.792-30h585.504v360H-48.792z"/></g></mask><g id="h" clip-path="url(#b)"><g clip-path="url(#c)"><path fill="red" d="m-685.402-747.691 857.754 934.707 857.753-934.707Zm0 0"/><path fill="none" stroke="#636EFA" stroke-miterlimit="2" stroke-width="1.502" d="m-685.402-747.691 857.754 934.707 857.753-934.707"/></g><g clip-path="url(#d)"><path fill="#636EFA" d="M174.602 187.016q.002.447-.172.863a2.2 2.2 0 0 1-.485.73 2.3 2.3 0 0 1-.734.489 2.24 2.24 0 0 1-1.723 0 2.24 2.24 0 0 1-1.39-2.082 2.254 2.254 0 0 1 3.847-1.594c.211.21.371.457.485.73.117.278.172.563.172.864m0 0"/></g></g></defs><g clip-path="url(#e)"><path fill="#FFF" d="M-48.792-30h585.504v360H-48.792z"/></g><path fill="#FFF" d="M48.8 72.074h343.102v186.942H48.801Zm0-62.312h343.102v49.847H48.801Zm0 0"/><path fill="none" stroke="#D3D3D3" stroke-width=".751" d="M134.574 72.074v186.942M306.125 72.074v186.942M48.8 212.281h343.102M48.8 165.543h343.102M48.8 118.809h343.102"/><path fill="none" stroke="#EBF0F8" stroke-width="1.502" d="M220.352 72.074v186.942"/><g clip-path="url(#f)" mask="url(#g)"><use xlink:href="#h" transform="translate(48 72)"/></g><g clip-path="url(#i)"><path fill="#FF97FF" d="m48.79 145.68 4.288-.059.008.75-.54-.523 1.716-1.778 1.078 1.043-1.93 2.004-4.601.063Zm11.468-2.524 1.863 1.414-.453.598-.59-.465 2.746-3.465 1.176.934-3.2 4.039-2.448-1.86Zm9.719-5.02.257-.054 4.446.863 2.23.446-.293 1.468-2.222-.441-4.297-.832.144-.738.156.734-.109.023Zm12.882 4.837.735.625-.485.574.024-.754 4.508.129 1.421.976-.851 1.239-1.238-.852.425-.62-.023.75-4.55-.126-.934-.793Zm11.012 2.007 2.309-1.457 3.156 4.442-1.223.87-2.746-3.862.61-.434.402.633-1.707 1.078Zm10.563 5.547.418.075 4.433 3.207-.437.609.27-.7 1.12.434-.539 1.399-1.215-.469-4.37-3.164.437-.61-.125.743-.25-.043Zm12.117 5.078 1.07.09 4.41 2.098-.324.68-.117-.743 1.062-.164.23 1.485-1.288.199-4.496-2.14.324-.68-.067.75-.93-.078Zm12.937 2.942 6.164 2.766-.617 1.37-6.164-2.765Zm12.36 5.285 1.558.547-.25.707.02-.75 4.484.11.871.527-.777 1.285-.7-.426.391-.64-.02.75-4.405-.106-1.668-.59Zm12.402 4.836 2.203 1.574-.437.61.203-.723 3.902 1.078-.398 1.45-4.036-1.118-2.308-1.648Zm11.953 5.61 2.984 1.163 3.254 1.575-.656 1.351-3.226-1.562.328-.676-.274.7-2.957-1.153Zm12.59 4.308 6.613 1.39-.308 1.47-6.614-1.391Zm13.328 2.148 2.684.668-.184.727.008-.75 3.992.035-.012 1.5-4.082-.035-2.77-.688Zm12.008-1.464 3.023-3.063 3.032-.16.078 1.5-2.739.144-.039-.75.532.528-2.82 2.855Zm12.633-3.727 3.406-.856 3.148-.785.364 1.457-3.149.786-3.406.855Zm13.039-3.34 3.187-1.023.23.715-.265-.7 3.192-1.207.53 1.403-3.21 1.214-3.203 1.028Zm12.883-3.387 6.218-2.644.59 1.383-6.219 2.644Zm12.437-5.285 6.219-2.644.586 1.383-6.215 2.64Zm12.438-5.289 4.02-1.707 2.44-.594.356 1.457-2.383.579-.176-.727.293.691-3.964 1.684Zm12.562-4.758 6.113-2.879.641 1.36-6.113 2.879Zm12.227-5.757 6.113-2.88.64 1.36-6.113 2.879Zm12.297-5.66 1.187-.508.293.691-.352-.664 4.82-2.578.708 1.324-4.848 2.594-1.215.52Zm11.64-6.477 2.328-1.688 3.664-1.68.625 1.368-3.593 1.644-.313-.68.438.606-2.266 1.645Zm11.98-6.278 3.231-1.992 2.7-1.363.679 1.34-2.676 1.348-.336-.668.395.636-3.203 1.977Zm11.962-6.402 4.261-2.148 2.188-.36.242 1.48-2.074.34-.121-.742.34.672-4.157 2.098Zm12.925-4.074 4.239-1.184.199.723-.348-.668 2.09-1.094.695 1.332-2.156 1.13-4.312 1.21Zm12.23-5.273 6.06-2.989.663 1.348-6.058 2.988Zm12.118-5.977 1.203-.59.332.672-.43-.617 4.368-3.031.261-.102.543 1.402-.18.067-.269-.7.426.618-4.34 3.011-1.25.618Zm0 0"/></g><g clip-path="url(#j)"><path fill="#B6E880" d="m48.898 118.55 2.23.294-.19 1.488-2.235-.289Zm3.82.626 1.669-1.516 1.008 1.113-1.668 1.512Zm3.337-3.028.992-.902 1.355-.195.215 1.488-1.129.16-.105-.742.504.555-.825.746Zm4.578-1.418.93-.132.105.742-.527-.535.937-.922 1.055 1.07-1.113 1.094-1.172.172Zm3.05-2.425 1.606-1.582 1.05 1.07-1.6 1.582Zm4.462-1.239 2.132.723-.48 1.422-2.133-.719Zm4.265 1.442 2.133.722-.48 1.422-2.133-.718Zm4.27 1.578 2.082.855-.567 1.387-2.086-.851Zm4.132 2.059 1.903 1.207-.8 1.265-1.903-1.203Zm3.81 2.41 1.901 1.203-.8 1.27-1.907-1.204Zm3.804 2.406 1.906 1.203-.805 1.27-1.902-1.204Zm3.683 2.309 2.114.789-.528 1.406-2.11-.79Zm4.387 1.69 1.828 1.317-.879 1.22-1.828-1.317Zm3.652 2.638.555.398-.437.61-.082-.747 1.558-.171.164 1.492-1.847.203-.79-.567Zm3.832-.157.637-.07 1.832.524-.41 1.44-1.691-.48.203-.722.082.746-.488.055Zm4.637 1.07.52.15 1.644.921-.734 1.309-1.567-.88.368-.652-.207.72-.438-.122Zm4.13 2.173.78.437 1.176.797-.844 1.242-1.148-.777.422-.621-.367.652-.754-.422Zm3.82 2.5 1.277.867-.422.62.25-.706.668.238-.504 1.414-.758-.27-1.355-.921Zm3.894 1.777 1.535.55.629.298-.64 1.359-.598-.285.32-.68-.254.707-1.496-.535Zm4.203 1.809 1.707.804.395.262-.829 1.254-.347-.23.41-.63-.32.68-1.657-.781Zm3.98 2.308 1.88 1.238-.829 1.254-1.879-1.242Zm3.692 2.707 1.734 1.438-.957 1.156-1.734-1.438Zm3.469 2.875 1.734 1.438-.96 1.156-1.731-1.438Zm3.468 2.875.067.059-.477.578.348-.664 1.914 1-.695 1.332-1.985-1.04-.132-.109Zm3.848 2.016.383.199 1.617.832-.687 1.336-1.625-.836-.383-.2Zm4 2.058 2.004 1.032-.684 1.336-2.004-1.032Zm4.008 2.059 2.004 1.031-.688 1.336-2.004-1.031Zm4.008 2.059 2.004 1.03-.688 1.337-2.004-1.031Zm4.008 2.058 1.542.793.497.32-.813 1.262-.465-.297.406-.633-.343.668-1.512-.777Zm3.93 2.332 1.894 1.223-.813 1.262-1.894-1.22Zm3.812 2.336 1.949 1.129-.754 1.297-1.95-1.129Zm3.898 1.793 2.16.625-.414 1.441-2.164-.625Zm4.328 1.29 2.153.671-.446 1.434-2.152-.672Zm4.301 1.339 2.152.672-.445 1.433-2.152-.671Zm4.27 1.105 2.214.407-.273 1.48-2.215-.41Zm4.457 1.051 2.156.653-.434 1.437-2.156-.652Zm4.242.89 2.242.216-.145 1.492-2.242-.215Zm4.304-.066 2.231-.3.2 1.488-2.231.3Zm4.461-.601 1.946-.266.101.746-.34-.668.258-.132.68 1.34-.371.187-2.07.281Zm3.973-1.34 2.008-1.02.68 1.34-2.008 1.02Zm4.5-1.355 2.238-.254.168 1.492-2.234.254Zm4.477-.508 2.238-.254.168 1.492-2.238.254Zm4.476-.508 2.238-.254.168 1.492-2.238.254Zm4.477-.508 2.238-.254.168 1.492-2.238.254Zm4.472-.508 2.239-.254.172 1.489-2.239.258Zm4.477-.511 2.238-.254.172 1.492-2.238.254Zm4.477-.508 1.015-.113 1.367.101-.109 1.496-1.3-.094.054-.75.086.747-.945.105Zm4.628.152.743.055-.055.75-.043-.75 1.504-.09.09 1.5-1.555.09-.793-.059Zm4.399-.168.539-.035.043.75-.172-.73 1.668-.391.344 1.46-1.73.407-.606.035Zm4.27-.922.43-.097 1.769-.41.336 1.464-1.762.407-.43.101Zm4.39-1.011 2.195-.508.34 1.465-2.195.504Zm4.39-1.012 2.196-.508.336 1.465-2.191.504Zm4.391-1.012 2.196-.508.336 1.465-2.196.504Zm4.39-1.012 2.192-.507.34 1.464-2.195.504Zm4.388-1.011 2.195-.508.34 1.465-2.195.504Zm4.293-1.008 2.117-.777.515 1.41-2.113.777Zm4.285-1.563 2.164-.62.414 1.44-2.164.622Zm4.328-1.246 2.164-.62.414 1.44-2.164.622Zm4.328-1.246 2.164-.62.414 1.44-2.164.626Zm4.39-1.242 2.208-.45.3 1.47-2.207.453Zm4.31-.922 2.128-.73.488 1.422-2.132.73Zm4.261-1.457 2.129-.73.488 1.422-2.133.726Zm4.398-1.441 2.223-.356.238 1.48-2.222.36Zm4.352-.75 2.164-.614.41 1.446-2.168.613ZM315 145.41l2.168-.613.41 1.445-2.168.613Zm4.336-1.226 2.164-.614.41 1.442-2.168.613Zm4.332-1.23 2.168-.614.41 1.445-2.168.613Zm4.203-1.278 2.055-.918.613 1.37-2.059.919Zm4.234-1.809 2.165-.625.414 1.446-2.164.62Zm4.329-1.246 2.164-.625.414 1.445-2.164.621Zm4.328-1.246 2.164-.625.414 1.445-2.164.621Zm4.453-1.184 2.234-.3.2 1.488-2.231.3Zm4.422-.632 2.215-.41.273 1.476-2.215.41Zm4.43-.82 2.214-.41.274 1.476-2.215.41Zm4.43-.821 2.214-.41.273 1.476-2.214.41Zm4.429-.82 2.215-.41.273 1.476-2.215.41Zm4.254-1 2.117-.766.512 1.41-2.118.77Zm4.18-1.578 2.077-.864.579 1.387-2.079.863Zm4.16-1.73 2.078-.864.578 1.386-2.082.864Zm4.16-1.727 2.078-.868.578 1.387-2.082.867Zm4.156-1.731 2.082-.863.574 1.386-2.078.864Zm0 0"/></g><g clip-path="url(#k)"><path fill="none" stroke="#FF6692" stroke-miterlimit="2" stroke-width="1.502" d="m48.8 166.055 4.286 1.605 4.297-5.043 4.285-5.347 4.285 1.148 4.29-1.637 4.292-2.789 4.29-.219 4.284.977 4.29-.34 4.292 3.426 4.286-.024 4.289-2.011 4.285.203 4.297 3.34 4.285.246 4.289.969 4.285-.489 4.293.399 4.289-.09 4.285 3.664 12.871 2.07 4.285.942 4.286 2.035 4.296 1.238 4.286 3.543 4.289.938 4.285 2.367 4.297.48 4.285 2.078 4.285 1.09 4.29 1.2 4.292.3 4.29.512 4.284 3.258 8.582 1.418h4.285l12.872-.563 4.285-.43 8.574-2.624 4.293-1.008 8.574-2.125 4.29-.496 4.292-1.23 4.285-.579 8.575-2.516 4.296-.976 8.575-2.309 4.285-1.594 12.867-5.218 4.289-1.957 21.45-8.117 4.284-1.297 17.157-5.625 4.285-1.774 21.445-8.52 4.293-1.847 4.285-.805"/></g><g clip-path="url(#l)"><path fill="#19D3F3" d="m48.695 183.61 4.29-.602.1.742-.222-.715 4.547-1.433 2.508.992-.55 1.394-2.263-.89.278-.7.222.72-4.351 1.366-4.352.61Zm15.22-.489 2.03-.191.34.023-.113 1.5-.274-.02.055-.75.074.747-1.972.187Zm7.015.313 3.84 1.254-.235.714-.406-.632 4.406-2.829 2.215-.464.309 1.468-2.082.438-.153-.735.406.63-4.59 2.949-4.175-1.368Zm14.554-1.649 2.125.75-.5 1.414-2.125-.746Zm6.43 1.227 4.215.449 4.351 1.305-.214.718.136-.738 2.575.484-.278 1.473-2.61-.488-4.327-1.293.215-.719-.079.746-4.144-.445Zm15.422 2.613 1.617.05.77.196-.368 1.457-.69-.176.183-.73-.024.754-1.535-.051Zm6.48 1.02 3.606-.532 7.754 1.14-.219 1.49-7.644-1.126.109-.742.11.742-3.497.516Zm15.817 1.265.824.121 1.469.473-.457 1.43-1.41-.454.23-.714-.11.742-.765-.113Zm6.547 1.805 2.89.617 4.348 1.602-.262.707.137-.739 3.719.684-.27 1.476-3.785-.695-4.355-1.605.261-.707-.156.734-2.84-.605Zm15.082 4.902.84.45 1.148.687-.773 1.285-1.133-.676.386-.644-.355.66-.82-.438Zm5.644 2.992 3.606.309 4.406 2.074-.32.68.164-.73 2.968.66-.328 1.464-3.047-.68-4.363-2.054.32-.68-.066.75-3.469-.297Zm15.219 4.059 1.23.312-.183.727.008-.75.984.012-.016 1.5-1.074-.012-1.316-.332Zm6.68.648 10.937 2.68-.355 1.457-10.938-2.68Zm15.312 3.754 2.188.535-.356 1.458-2.187-.536Zm6.594 1.973 2.809 1.336-.325.68.055-.75 8.133.609-.113 1.496-8.27-.617-2.934-1.399Zm15.164 2.207.246.02-.059.75-.078-.747 1.996-.21.157 1.492-2.063.218-.312-.023Zm6.543-.75 6.402-.95.114.743-.211-.723 4.289-1.238.207.723-.328-.676.293-.145.656 1.352-.352.172-4.394 1.27-6.457.96Zm14.812-4.234 2.028-.989.656 1.352-2.023.984Zm6.032-3 2.484-1.301 7.598-3.758.664 1.348-7.586 3.754-.336-.676.348.668-2.477 1.293Zm14.117-7.055 2.02-1 .667 1.348-2.02 1Zm6.058-2.996 8.075-3.992 2.156-.852.55 1.399-2.128.835-.274-.695.332.672-8.046 3.98Zm14.204-6.715 1.968-1.098.73 1.313-1.964 1.097Zm5.902-3.293 5.062-2.828.368.656-.403-.637 4.29-2.703.316-.207.824 1.254-.34.223-4.305 2.715-5.082 2.836Zm13.402-8.187 1.883-1.235.824 1.254-1.886 1.234Zm5.688-3.684 3.097-1.91.395.64-.426-.617 6.258-4.347.856 1.23-6.274 4.363-3.117 1.918Zm13.023-8.805 1.852-1.285.855 1.234-1.847 1.286Zm5.551-3.855 5.973-4.153 3.644-1.855.68 1.336-3.594 1.836-.344-.668.43.613-5.933 4.125Zm13.348-8.375 1.879-1.238.828 1.25-1.883 1.242Zm5.742-3.75 4.113-1.965 6.145-2.723.61 1.371-6.138 2.72-.304-.684.324.675-4.106 1.961Zm14.379-6.516 2.058-.91.61 1.371-2.063.914Zm6.176-2.734 5.015-2.223 4.285-1.93.309.684-.426-.617.883-.61.852 1.239-.942.648-4.351 1.957-5.016 2.223Zm13.777-7.25 1.855-1.278.852 1.239-1.856 1.277Zm5.566-3.832 2.825-1.946 4.425-1.015.336 1.465-4.285.984-.168-.734.426.62-2.707 1.864Zm0 0"/></g><g clip-path="url(#m)"><path fill="#FFA15A" d="m48.844 181.727 4.285.246-.043.75-.527-.532 1.746-1.738 1.058 1.067-1.984 1.972-4.621-.27Zm7.058-2.86 1.262-1.254 1.305.375-.414 1.442-.88-.25.208-.723.527.535-.95.942Zm4.73-.262 1.352.387 4.383 2.88-.414.624-.246-.707.316-.113.5 1.418-.668.234-4.597-3.02.41-.628-.207.722-1.238-.351Zm7.516 2.32 2.125-.745.5 1.414-2.125.75Zm4.25-1.495 2.165-.762 4.55 1.922-.289.691-.273-.699.094-.039.543 1.402-.376.145-4.566-1.926.29-.691.25.707-1.891.668Zm8.348.3 2.477-.957.34.25-.891 1.207-.008-.003.445-.606.274.7-2.094.812Zm4.629.63 2.48 1.827 2.883 2.333-.945 1.167-2.867-2.32.472-.586-.445.606-2.469-1.82Zm6.496 5.058 2.156-.656.438 1.437-2.156.656Zm4.082-1.336 4.27-2.676 2.293 1.137-.672 1.344-1.914-.95.336-.671.398.632-3.914 2.457Zm8.578-.535.356.176-.336.672.25-.708 1.75.618-.496 1.414-1.797-.63-.395-.198Zm4.145 1.504.418.144-.246.711-.059-.75 4.332-.324 2.055.082-.063 1.5-2.011-.082.03-.75.06.75-4.446.332-.566-.2Zm8.75-.047h.023l-.027.75-.106-.742 2.207-.305.207 1.488-2.273.313-.09-.004Zm4.469-.586 4.253.203 2.563.91-.5 1.414-2.461-.87.25-.712-.035.75-4.14-.195Zm8.93 1.86 2.132.71-.473 1.426-2.136-.715Zm4.269 1.425 4.008 1.336-.239.711.051-.75 2.527.172-.101 1.5-2.625-.18-4.094-1.367Zm8.71 1.723 2.188.535-.355 1.457-2.188-.531Zm4.516 1.304 3.79 2.23-.38.65.34-.673 2.102 1.07-.68 1.34-2.12-1.081-3.813-2.243Zm7.864 4.297.171.09-.34.668.176-.73 2 .48-.351 1.461-2.082-.5-.258-.129Zm4.199 1.032.105.027 4.364 1.137 2.078.941-.621 1.367-2.02-.914.309-.683-.188.726-4.273-1.117-.106-.023Zm8.597 3.039.215.097-.308.684.175-.73 1.958.468-.352 1.461-2.027-.488-.282-.125Zm4.23 1.047 6.571 1.582-.351 1.46-6.57-1.582Zm8.759 2.109 2.191.527-.351 1.461-2.192-.527Zm4.379 1.055 6.57 1.582-.352 1.457L186 204.77Zm8.859 2.191 2.078.867-.578 1.387-2.078-.867Zm4.309 1.879 4.144 3.25-.465.594.383-.649 1.281.758-.765 1.293-1.324-.781-4.184-3.285Zm7.28 5.098 1.067.628-.379.645.176-.727.985.235-.352 1.46-1.094-.265-1.164-.683Zm4.04 1.312 1.117.27-.176.73.063-.75 4.285.352-.062.75-.016-.75 1.305-.032.035 1.5-1.344.032-4.387-.36-1.172-.285Zm8.766.52 2.253-.051.036 1.5-2.254.05Zm4.503-.102 4.81-.11.019.75-.18-.73 1.894-.46.352 1.46-1.969.48-4.89.11Zm8.73-1.082.208-.05.176.73-.301-.688 1.867-.82.602 1.375-1.926.848-.27.062Zm4.013-1.734.355-.16.3.687-.382-.645 4.328-2.582 1.301-.57.602 1.379-1.258.547-.301-.688.383.645-4.324 2.586-.403.176Zm7.968-4.168 2.067-.899.597 1.375-2.062.899Zm4.13-1.801 6.195-2.7.597 1.376-6.191 2.703Zm8.257-3.598 1.445-.629.301.688-.39-.645.582-.347.773 1.285-.621.375-1.488.648Zm3.867-2.097 1.852-1.118 4.48-1.574.496 1.418-4.406 1.547-.25-.707.387.64-1.785 1.079Zm8.457-3.438 2.04-.715.25.707-.356-.66.078-.043.711 1.32-.129.07-2.098.739Zm3.993-1.781 2.234-1.203 3.773-1.93.684 1.34-3.766 1.922-.343-.668.359.66-2.227 1.2Zm8.011-4.156 2.008-1.024.68 1.336-2.004 1.024Zm4.012-2.051 6.016-3.074.683 1.335-6.015 3.075Zm8.023-4.098 2.004-1.027.684 1.34-2.004 1.023Zm3.934-2.05 3.941-2.477.399.637-.422-.622 1.738-1.183.844 1.242-1.75 1.191-3.95 2.485Zm7.516-4.915.734-.5 1.336-.636.648 1.355-1.285.613-.324-.68.426.622-.688.468Zm4.101-2.11.973-.464.324.68-.422-.621 4.695-3.196.844 1.243-4.742 3.226-1.023.488Zm7.434-4.866 1.863-1.266.844 1.242-1.863 1.266Zm3.914-2.38 2.465-1.296.351.664-.46-.594 3.128-2.441.922 1.18-3.18 2.488-2.523 1.328Zm7.418-5.019 1.96-1.105.739 1.308-1.965 1.106Zm3.84-2.199 5.52-3.898.866 1.226-5.52 3.899Zm7.363-5.195 1.84-1.301.863 1.227-1.84 1.3Zm3.68-2.598 1.601-1.133 4.38-1.699.273.7-.383-.645.242-.145.762 1.293-.293.176-4.352 1.687-.273-.699.433.614-1.527 1.078Zm8.054-4.062 1.942-1.145.761 1.293-1.941 1.145Zm3.696-2.426 2.707-2.012 3.324-1.328.558 1.394-3.234 1.293-.281-.695.45.602-2.63 1.953Zm7.93-4.285 1.925-1.168.781 1.285-1.925 1.168Zm3.945-2.317 6.097-2.914.649 1.352-6.098 2.914Zm8.129-3.886 2.03-.973.65 1.355-2.032.973Zm4.062-1.946.129-.058.324.675-.453-.597 4.371-3.309 1.235-.5.562 1.39-1.14.462-.282-.696.453.598-4.355 3.297-.196.094Zm7.691-4.633 1.059-.43.563 1.391-1.055.43Zm0 0"/></g><g clip-path="url(#n)"><path fill="#AB63FA" d="m49.09 182.645 4.285 1.796-.29.692-.17-.73 4.577-1.075 2.184 1.203-.727 1.317-1.93-1.063.364-.66.168.73-4.531 1.063-4.508-1.887Zm20.586.632.469-.129 4.398.04-.008.75-.082-.747 4.285-.488.086.746-.261-.703 2.128-.781.52 1.406-2.215.816-4.422.504-4.34-.039.008-.75.195.723-.37.102Zm22.25-1.414 4.105-.48 4.422 1.152-.187.727-.051-.75 2.832-.188.101 1.5-2.953.196-4.406-1.149.188-.726.09.746-3.965.464Zm22.355 2.164 7.531 1.059-.105.746-.043-.75 3.652-.21.086 1.5-3.726.214-7.602-1.07Zm22.106 4.25 2.808 1.391-.332.676.254-.707 4.293 1.547-.254.707.02-.754 3.558.093-.039 1.504-3.68-.097-4.449-1.602-2.847-1.414Zm20.812 6.996 3.301.497 4.355 1.593-.257.703.191-.722 3.324.879-.383 1.449-3.355-.887-4.32-1.582.257-.703-.113.742-3.222-.484Zm21.89 5.352 10.93 2.703-.359 1.461-10.93-2.707Zm21.946 4.219 2.223.18-.063.746-.23-.715 4.414-1.414 4.656.152-.047 1.5-4.531-.145.027-.75.227.715-4.426 1.418-2.37-.191Zm22.113-1.656 9.985-1.137.086.746-.196-.723 1.168-.316.391 1.449-1.223.332-10.043 1.14Zm22.063-3.434.684-.184 10.226-2.636.375 1.453-10.215 2.636-.683.18Zm21.812-5.637 10.907-2.816.375 1.453-10.907 2.816Zm21.586-6.16 10.633-3.715.496 1.414-10.633 3.719Zm21.262-7.434 4.59-1.601.246.707-.266-.703 4.325-1.63 1.804-.464.375 1.453-1.761.457-.188-.726.262.703-4.293 1.617-4.598 1.605Zm21.527-6.664.247-.078 10.535-3.172.433 1.438-10.535 3.172-.246.078Zm21.567-6.496.125-.039 4.281-1.32 6.332-2 .453 1.434-6.344 2.003-4.292 1.32-.122.04Zm21.476-6.754 4.368-1.382.226.718-.285-.695 4.36-1.777 2.07-.422.3 1.472-2.003.407-.149-.735.281.696-4.32 1.761-4.398 1.387Zm0 0"/></g><g clip-path="url(#o)"><path fill="#00CC96" d="m49.016 199.902 4.285 1.282-.215.722-.215-.722 2.184-.657.433 1.438-2.402.722-4.5-1.347Zm12.859 1.762.082.035-.289.692-.148-.735 4.289-.863.144.734-.273-.699 2.14-.836.547 1.399-2.199.859-4.574.922-.293-.121Zm12.328-2.695 4.465-3.375 1.832.515-.406 1.446-1.473-.414.203-.723.453.598-4.168 3.152Zm12.387.433 1.27.996-.462.59.043-.75 4.293.258-.043.746-.12-.738.831-.137.239 1.485-.91.144-4.614-.273-1.453-1.141Zm12.73 1.125 1.11.246 5.492 1.118-.297 1.468-5.523-1.12-1.11-.247Zm13.203 2.313.68.066-.07.746-.172-.73 5.91-1.395.344 1.461-6.028 1.426-.804-.078Zm13.235-1.766.375.016 4.379 1.375-.223.715.086-.746 1.973.234-.176 1.488-2.04-.238-4.355-1.363.223-.72-.035.75-.281-.01Zm13.16 3.746 4.547 2.055-.309.684.262-.704 1.656.614-.523 1.406-1.68-.621-4.57-2.066Zm12.46 5.157.642.265-.29.696.192-.727 4.289 1.133-.195.726.148-.738 1.598.324-.297 1.473-1.617-.328-4.36-1.153-.687-.285Zm13.009 3.011.414.082 4.34 1.582-.254.707.14-.738 1.793.348-.285 1.476-1.851-.363-4.344-1.578.258-.707-.149.734-.36-.07Zm13.066 3.27 6.633 1.289-.285 1.473-6.633-1.29Zm13.238 3.101 6.407 2.141-.477 1.422-6.406-2.14Zm12.45 5.48.472.317 4.278 2.778-.407.629.149-.735 1.054.219-.304 1.469-1.192-.246-4.414-2.868-.472-.316Zm12.113 4.005 5.129.215-.031.75-.047-.746 1.62-.102.09 1.5-1.656.101-5.168-.218Zm13.32-.617 4.54-.645.105.742-.262-.703 2.04-.754.523 1.406-2.118.782-4.613.66Zm12.262-4.403.61-.37 4.35-1.911 1.313-.527.559 1.39-1.3.524-.282-.696.305.688-4.297 1.887-.301-.688.39.64-.566.344Zm12.539-5.336 6.266-2.527.562 1.394-6.265 2.524Zm12.61-4.941 1.292-.457.25.707-.28-.695 4.983-2.036.57 1.391-5.003 2.043-1.309.465Zm12.503-5.035 6.254-2.551.57 1.39-6.257 2.551ZM291 203.406l6.254-2.55.57 1.39-6.258 2.55Zm12.57-5.008 6.313-2.406.535 1.403-6.313 2.406Zm12.63-4.812 6.312-2.406.535 1.402-6.317 2.406Zm12.624-4.813 6.313-2.406.535 1.403-6.313 2.406Zm12.797-4.503 6.48-1.918.426 1.441-6.48 1.914Zm12.957-3.836 6.48-1.914.426 1.437-6.48 1.918Zm13.04-3.614 6.527-1.75.39 1.453-6.527 1.747Zm12.589-4.324 2.836-1.465 3.539-1.082.438 1.434-3.473 1.066-.219-.719.344.668-2.777 1.43Zm0 0"/></g><g clip-path="url(#p)"><path fill="#EF553B" d="m48.855 197.957 2.247.172-.114 1.496-2.246-.172Zm4.493.344 2.246.168-.114 1.5-2.246-.172Zm4.492.34 2.246.172-.113 1.496-2.246-.168Zm4.492.343 2.246.172-.113 1.496-2.246-.172Zm4.64.59 2.126.754-.504 1.414-2.121-.75Zm4.036 1.2 2.254-.016.008 1.5-2.25.015Zm4.199-.313 2.121-.758.504 1.414-2.117.758Zm4.777-.79 2.051.934-.625 1.368-2.047-.934Zm4.168 2.169 1.688 1.492-.996 1.125-1.688-1.492Zm3.375 2.984.368.324-.497.563-.011-.75 1.761-.024.02 1.504-2.05.024-.587-.516Zm3.875.086 2.25-.027.02 1.5-2.25.031Zm4.504-.055 2.25-.027.02 1.5-2.25.027Zm4.649-.011 2.215.41-.274 1.476-2.215-.41Zm4.28.75 2.25-.051.032 1.5-2.25.05Zm4.5-.102 2.255-.047.031 1.5-2.25.051Zm4.442-.152 2.243-.227.152 1.492-2.242.23Zm4.383-.543 2.2-.477.32 1.465-2.2.48Zm4.688-.586 2.226.348-.23 1.484-2.227-.348Zm4.43.648 2.238.266-.18 1.492-2.234-.265Zm4.472.532 2.238.265-.18 1.492-2.234-.265Zm4.535.761 2.18.563-.375 1.457-2.184-.567Zm4.38 1.282 2.124.746-.496 1.418-2.125-.746Zm4.25 1.496 2.124.746-.496 1.418-2.125-.75Zm4.25 1.496 2.124.746-.5 1.418-2.125-.75Zm4.25 1.492 2.124.75-.5 1.414-2.125-.746Zm4.21 1.297 2.2.48-.321 1.465-2.2-.48Zm4.43 1.137 2.14.699-.468 1.43-2.137-.704Zm4.28 1.402 2.142.7-.47 1.425-2.14-.7ZM170.59 217l2.195.504-.336 1.46-2.195-.503Zm4.336.793 2.238.238-.16 1.492-2.238-.238Zm4.535.734 2.187.532-.351 1.457-2.192-.528Zm4.387 1.153 2.164.625-.418 1.441-2.164-.625Zm4.328 1.25 2.164.629-.418 1.441-2.164-.625Zm4.328 1.254 2.16.625-.414 1.441-2.164-.625Zm4.324 1.25 2.164.629-.418 1.44-2.164-.624Zm4.29 1.82 1.937 1.144-.762 1.293-1.941-1.144Zm3.886 2.055 2.074.882-.59 1.383-2.074-.883Zm4.094 1.449 2.203.469-.313 1.468-2.203-.468Zm4.332.699 2.246.148-.102 1.5-2.246-.152Zm4.492.3 2.25.153-.102 1.5-2.25-.152Zm4.496.305 2.246.153-.101 1.5-2.247-.153Zm4.43.094 2.066-.05.02.75-.067-.75.184-.016.129 1.496-.207.02-2.086.054Zm4.449-.258 1.86-.16.062.746-.168-.73.379-.086.336 1.465-.43.097-1.91.165Zm4.328-.734 1.715-.394.164.734-.219-.719.473-.144.441 1.433-.5.153-1.738.402Zm4.285-1.184 2.153-.664.44 1.438-2.151.66Zm4.305-1.324 2.156-.66.438 1.434-2.153.664Zm4.308-1.32 2.153-.664.441 1.437-2.152.66Zm4.305-1.324 2.152-.66.442 1.433-2.152.664Zm4.309-1.32 2.152-.665.441 1.438-2.156.66Zm4.304-1.325 2.153-.66.441 1.434-2.152.664Zm4.305-1.32 2.156-.664.438 1.437-2.152.66Zm4.309-1.324 2.152-.66.441 1.433-2.152.664Zm4.304-1.32 2.153-.665.441 1.438-2.152.66Zm4.305-1.325 2.156-.66.438 1.434-2.153.664Zm4.309-1.32 2.152-.66.441 1.433-2.152.66Zm4.304-1.324 2.153-.66.441 1.433-2.152.664Zm4.309-1.32 2.152-.66.442 1.433-2.157.66Zm4.305-1.325 2.152-.66.441 1.437-2.152.66Zm4.304-1.32 2.157-.66.437 1.433-2.152.66Zm4.309-1.324 2.152-.66.442 1.437-2.153.66Zm4.305-1.32 2.152-.66.441 1.433-2.152.66Zm4.308-1.325 2.153-.66.44 1.437-2.155.66Zm4.305-1.32 2.152-.66.442 1.433-2.153.66Zm4.305-1.325 2.156-.66.437 1.438-2.152.66Zm4.308-1.32 2.152-.66.442 1.434-2.152.66Zm4.305-1.324 1.324-.406.887-.215.355 1.46-.867.212-.176-.73.219.718-1.3.398Zm4.398-1.152 1.235-.301.945-.238.367 1.457-.957.238-1.234.3Zm4.367-1.09 2.184-.547.367 1.457-2.187.547Zm4.368-1.098 2.183-.547.367 1.457-2.183.547Zm4.367-1.098 2.187-.546.364 1.457-2.184.546Zm4.37-1.097 2.185-.547.367 1.453-2.184.55Zm4.368-1.098 2.184-.547.367 1.453-2.184.551Zm4.371-1.098 2.184-.55.367 1.457-2.187.55Zm4.367-1.097 2.184-.551.367 1.457-2.183.55Zm4.368-1.098 2.187-.55.363 1.456-2.183.551Zm4.37-1.097.509-.13.183.727-.242-.707 1.633-.562.488 1.422-1.664.57-.54.137Zm4.212-1.403.523-.18.246.711-.289-.695 1.574-.644.57 1.386-1.593.657-.543.183Zm4.136-1.664.727-.3 1.64-.227.208 1.488-1.547.211-.102-.742.285.695-.64.262Zm4.602-.836.508-.07.207 1.488-.512.07Zm0 0"/></g><g clip-path="url(#q)"><path fill="none" stroke="#636EFA" stroke-miterlimit="2" stroke-width="1.502" d="m48.8 209.203 8.583-.844 4.285.34 4.285.906 4.29-.382 8.581-3.204 4.285.497 4.29 2.843 4.292.383 8.575-.05 4.285.68 8.582.12 4.289-.035 8.578.223 4.289.609 4.285.066 4.29 1.52 12.866 3.57 4.286.739 8.582 1.847 4.289 1.426 25.734 6.02 4.29 1.359 8.573 5.137 4.293.863 12.86.683 4.297-.128 4.285-.43 4.285-1.14 8.582-2.919 4.289-1.058 47.176-13.867 4.289-1.067 21.441-4.887 4.285-.543 12.871-2.566 4.286-.633 12.867-2.883 4.289-1.41 8.582-1.703 4.285-.992 12.867-3.649"/></g><path fill="none" stroke="#000" stroke-width=".751" d="M48.05 259.39h344.602M48.051 71.7h344.601m-344.226.374v186.942M392.277 72.074v186.942"/><path fill="none" stroke="#444" stroke-width=".751" d="M48.8 259.766v3.753m85.774-3.753v3.753m85.778-3.753v3.753m85.773-3.753v3.753m85.777-3.753v3.753"/><g fill="#2A3F5F"><use xlink:href="#r" x="37.747" y="274.331"/><use xlink:href="#s" x="45.12" y="274.331"/><use xlink:href="#t" x="50.848" y="274.331"/><use xlink:href="#u" x="54.125" y="274.331"/></g><g fill="#2A3F5F"><use xlink:href="#r" x="123.523" y="274.331"/><use xlink:href="#s" x="130.896" y="274.331"/><use xlink:href="#t" x="136.623" y="274.331"/><use xlink:href="#v" x="139.9" y="274.331"/></g><use xlink:href="#s" x="217.487" y="274.331" fill="#2A3F5F"/><g fill="#2A3F5F"><use xlink:href="#s" x="298.76" y="274.331"/><use xlink:href="#t" x="304.487" y="274.331"/><use xlink:href="#v" x="307.765" y="274.331"/></g><g fill="#2A3F5F"><use xlink:href="#s" x="384.535" y="274.331"/><use xlink:href="#t" x="390.263" y="274.331"/><use xlink:href="#u" x="393.54" y="274.331"/></g><path fill="none" stroke="#444" stroke-width=".751" d="M48.05 259.016h-3.753m3.753-46.735h-3.753m3.753-46.738h-3.753m3.753-46.734h-3.753m3.753-46.735h-3.753"/><use xlink:href="#s" x="36.766" y="262.169" fill="#2A3F5F"/><g fill="#2A3F5F"><use xlink:href="#s" x="22.034" y="215.433"/><use xlink:href="#t" x="27.761" y="215.433"/><use xlink:href="#s" x="31.038" y="215.433"/><use xlink:href="#w" x="36.766" y="215.433"/></g><g fill="#2A3F5F"><use xlink:href="#s" x="27.761" y="168.698"/><use xlink:href="#t" x="33.489" y="168.698"/><use xlink:href="#v" x="36.766" y="168.698"/></g><g fill="#2A3F5F"><use xlink:href="#s" x="22.034" y="121.962"/><use xlink:href="#t" x="27.761" y="121.962"/><use xlink:href="#v" x="31.038" y="121.962"/><use xlink:href="#w" x="36.766" y="121.962"/></g><g fill="#2A3F5F"><use xlink:href="#s" x="27.761" y="75.227"/><use xlink:href="#t" x="33.489" y="75.227"/><use xlink:href="#u" x="36.766" y="75.227"/></g><path fill="none" stroke="#D3D3D3" stroke-width=".751" d="M134.574 9.762v49.847M306.125 9.762v49.847M48.8 47.98h343.102M48.8 36.36h343.102M48.8 24.73h343.102M48.8 13.102h343.102"/><path fill="none" stroke="#EBF0F8" stroke-width="1.502" d="M220.352 9.762v49.847M48.8 59.61h343.102"/><g clip-path="url(#x)"><path fill="#0096C8" fill-opacity=".502" d="M388.469 59.61H48.8v-.391l30.879-.2 3.43-.085 48.035-1.344 3.43-.395 13.726-.625 3.43-.527 6.863-.41 3.43-.512 3.43-.945 3.433.18 3.43-.97 3.43.06 10.292-1.915 3.434-1.664 10.293-2.117 3.43-1.277 3.429-1.043 3.434-1.989 3.43-3.964 3.429-7.66 3.434-19.563 3.43 15.613 3.429 3.215 3.434 1.5 6.859.332 3.434.902 3.43-.218 3.433.449 3.43-.008 3.43 1.36 3.433-.31 3.43 1.595 6.863-.243 3.43 1.309 10.292 1.184 3.43.648 3.434.02 3.43 1.261 3.429-.074 3.434.863 6.859 1.106 3.434-.332 3.43 1.058 3.429.254 6.863 1.547 3.43.047 6.863.824 3.43.074 3.433.31 3.43.944 20.586 1.024 3.43.847 3.433-.039 3.43.676 13.723.95"/></g><g clip-path="url(#y)"><path fill="none" stroke="#0096C8" stroke-miterlimit="2" stroke-width="1.502" d="m48.8 59.219 30.88-.2 3.43-.085 48.035-1.344 3.43-.395 13.726-.625 3.43-.527 6.863-.41 3.43-.512 3.43-.945 3.433.18 3.43-.97 3.43.06 10.292-1.915 3.434-1.664 10.293-2.117 3.43-1.277 3.429-1.043 3.434-1.989 3.43-3.964 3.429-7.66 3.434-19.563 3.43 15.613 3.429 3.215 3.433 1.5 6.86.332 3.433.902 3.43-.218 3.434.449 3.43-.008 3.43 1.36 3.433-.31 3.43 1.595 6.863-.243 3.43 1.309 10.292 1.184 3.43.648 3.434.02 3.43 1.261 3.429-.074 3.434.863 6.859 1.106 3.434-.332 3.43 1.058 3.429.254 6.863 1.547 3.43.047 6.863.824 3.43.074 3.433.31 3.43.944 20.586 1.024 3.43.847 3.433-.039 3.43.676 13.723.95"/></g><path fill="none" stroke="#000" stroke-width=".751" d="M48.426 9.762v49.847M392.277 9.762v49.847"/><path fill="none" stroke="#444" stroke-width=".751" d="M48.05 59.61h-3.753m3.753-11.63h-3.753m3.753-11.62h-3.753m3.753-11.63h-3.753m3.753-11.628h-3.753"/><use xlink:href="#s" x="36.766" y="62.764" fill="#2A3F5F"/><g fill="#2A3F5F"><use xlink:href="#u" x="31.434" y="51.135"/><use xlink:href="#z" x="37.162" y="51.135"/></g><g fill="#2A3F5F"><use xlink:href="#A" x="31.434" y="39.513"/><use xlink:href="#z" x="37.162" y="39.513"/></g><g fill="#2A3F5F"><use xlink:href="#B" x="31.434" y="27.884"/><use xlink:href="#z" x="37.162" y="27.884"/></g><g fill="#2A3F5F"><use xlink:href="#C" x="31.434" y="16.254"/><use xlink:href="#z" x="37.162" y="16.254"/></g><path fill="none" stroke="#2A3F5F" stroke-width="1.502" d="M349.02 244.059h34.308v5.609h-34.309Zm0 0"/><g fill="#2A3F5F"><use xlink:href="#D" x="425.363" y="137.526"/><use xlink:href="#E" x="431.654" y="137.526"/><use xlink:href="#D" x="438.64" y="137.526"/><use xlink:href="#F" x="444.93" y="137.526"/><use xlink:href="#F" x="451.67" y="137.526"/></g><path fill="#FF97FF" d="M399.086 133.262h6.758v1.5h-6.758m13.516-1.5h6.753v1.5h-6.753"/><g fill="#2A3F5F"><use xlink:href="#G" x="425.363" y="151.791"/><use xlink:href="#H" x="432.956" y="151.791"/><use xlink:href="#E" x="438.653" y="151.791"/><use xlink:href="#F" x="445.638" y="151.791"/><use xlink:href="#I" x="452.378" y="151.791"/><use xlink:href="#J" x="457.745" y="151.791"/></g><path fill="#B6E880" d="M399.086 147.527h2.254v1.5h-2.254m4.504-1.5h2.254v1.5h-2.254m4.504-1.5h2.254v1.5h-2.254m4.508-1.5h2.25v1.5h-2.25m4.503-1.5h2.25v1.5h-2.25"/><g fill="#2A3F5F"><use xlink:href="#K" x="425.363" y="166.055"/><use xlink:href="#L" x="431.54" y="166.055"/><use xlink:href="#M" x="438.631" y="166.055"/><use xlink:href="#N" x="447.539" y="166.055"/><use xlink:href="#O" x="453.698" y="166.055"/></g><path fill="none" stroke="#FF6692" stroke-width="1.502" d="M399.086 162.543h22.523"/><g fill="#2A3F5F"><use xlink:href="#D" x="425.363" y="180.32"/><use xlink:href="#E" x="431.654" y="180.32"/><use xlink:href="#D" x="438.64" y="180.32"/><use xlink:href="#F" x="444.93" y="180.32"/><use xlink:href="#F" x="451.67" y="180.32"/><use xlink:href="#P" x="458.409" y="180.32"/><use xlink:href="#Q" x="465.782" y="180.32"/></g><path fill="#19D3F3" d="M399.086 176.055h11.262v1.504h-11.262m15.766-1.504h2.253v1.504h-2.253"/><g fill="#2A3F5F"><use xlink:href="#M" x="425.363" y="194.584"/><use xlink:href="#R" x="434.271" y="194.584"/><use xlink:href="#I" x="438.116" y="194.584"/><use xlink:href="#S" x="443.483" y="194.584"/><use xlink:href="#T" x="449.184" y="194.584"/><use xlink:href="#U" x="452.351" y="194.584"/><use xlink:href="#R" x="457.819" y="194.584"/><use xlink:href="#V" x="461.664" y="194.584"/><use xlink:href="#I" x="470.427" y="194.584"/><use xlink:href="#R" x="475.794" y="194.584"/></g><path fill="#FFA15A" d="M399.086 190.32h6.758v1.5h-6.758m9.008-1.5h2.254v1.5h-2.254m4.508-1.5h6.753v1.5h-6.753"/><g fill="#2A3F5F"><use xlink:href="#W" x="425.363" y="208.849"/><use xlink:href="#X" x="431.522" y="208.849"/><use xlink:href="#Y" x="436.537" y="208.849"/><use xlink:href="#E" x="440.329" y="208.849"/><use xlink:href="#F" x="447.315" y="208.849"/><use xlink:href="#F" x="454.054" y="208.849"/></g><path fill="#AB63FA" d="M399.086 204.586h11.262v1.5h-11.262"/><g fill="#2A3F5F"><use xlink:href="#G" x="425.363" y="223.114"/><use xlink:href="#Z" x="432.956" y="223.114"/><use xlink:href="#E" x="438.684" y="223.114"/><use xlink:href="#F" x="445.669" y="223.114"/><use xlink:href="#I" x="452.409" y="223.114"/><use xlink:href="#J" x="457.775" y="223.114"/></g><path fill="#00CC96" d="M399.086 218.848h6.758v1.504h-6.758m13.516-1.504h6.753v1.504h-6.753"/><g fill="#2A3F5F"><use xlink:href="#D" x="425.363" y="237.378"/><use xlink:href="#aa" x="431.654" y="237.378"/><use xlink:href="#E" x="438.424" y="237.378"/><use xlink:href="#F" x="445.41" y="237.378"/><use xlink:href="#I" x="452.149" y="237.378"/><use xlink:href="#J" x="457.516" y="237.378"/></g><path fill="#EF553B" d="M399.086 233.113h2.254v1.504h-2.254m4.504-1.504h2.254v1.504h-2.254m4.504-1.504h2.254v1.504h-2.254m4.508-1.504h2.25v1.504h-2.25m4.503-1.504h2.25v1.504h-2.25"/><g fill="#2A3F5F"><use xlink:href="#G" x="425.363" y="251.643"/><use xlink:href="#W" x="432.956" y="251.643"/><use xlink:href="#D" x="439.115" y="251.643"/><use xlink:href="#H" x="445.405" y="251.643"/></g><path fill="none" stroke="#636EFA" stroke-width="1.502" d="M399.086 248.129h22.523"/><g fill="#2A3F5F"><use xlink:href="#ab" x="162.086" y="294.456"/><use xlink:href="#ac" x="168.732" y="294.456"/></g><g fill="#2A3F5F"><use xlink:href="#ad" x="168.732" y="296.664"/><use xlink:href="#ae" x="173.151" y="296.664"/></g><use xlink:href="#af" x="177.735" y="296.664" fill="#2A3F5F"/><use xlink:href="#ag" x="182.2" y="296.664" fill="#2A3F5F"/><g fill="#2A3F5F"><use xlink:href="#ah" x="186.555" y="296.664"/><use xlink:href="#ai" x="190.938" y="296.664"/><use xlink:href="#aj" x="193.524" y="296.664"/></g><g fill="#2A3F5F"><use xlink:href="#ak" x="199.725" y="296.664"/><use xlink:href="#ai" x="204.162" y="296.664"/><use xlink:href="#al" x="206.748" y="296.664"/></g><use xlink:href="#am" x="211.404" y="296.664" fill="#2A3F5F"/><use xlink:href="#an" x="216.06" y="296.664" fill="#2A3F5F"/><use xlink:href="#an" x="218.079" y="296.664" fill="#2A3F5F"/><use xlink:href="#ac" x="220.098" y="294.456" fill="#2A3F5F"/><g fill="#2A3F5F"><use xlink:href="#ac" x="220.098" y="294.456"/><use xlink:href="#ao" x="223.793" y="294.456"/><use xlink:href="#ap" x="228.566" y="294.456"/><use xlink:href="#aq" x="234.828" y="294.456"/><use xlink:href="#ar" x="242.013" y="294.456"/><use xlink:href="#as" x="246.786" y="294.456"/><use xlink:href="#at" x="253.098" y="294.456"/><use xlink:href="#au" x="257.24" y="294.456"/><use xlink:href="#av" x="263.619" y="294.456"/><use xlink:href="#aw" x="273.843" y="294.456"/></g><g fill="#2A3F5F"><use xlink:href="#ax" x="10.511" y="225.766"/><use xlink:href="#ay" x="10.511" y="218.458"/><use xlink:href="#az" x="10.511" y="212.078"/><use xlink:href="#az" x="10.511" y="209.194"/><use xlink:href="#aA" x="10.511" y="206.31"/><use xlink:href="#aB" x="10.511" y="203.425"/><use xlink:href="#aC" x="10.511" y="196.774"/><use xlink:href="#aD" x="10.511" y="190.225"/><use xlink:href="#aE" x="10.511" y="186.53"/><use xlink:href="#aF" x="10.511" y="177.672"/><use xlink:href="#aG" x="10.511" y="170.487"/><use xlink:href="#aD" x="10.511" y="163.841"/><use xlink:href="#aH" x="10.511" y="160.146"/><use xlink:href="#aI" x="10.511" y="155.373"/><use xlink:href="#aJ" x="10.511" y="149.111"/><use xlink:href="#aK" x="10.511" y="141.926"/><use xlink:href="#aL" x="10.511" y="137.153"/><use xlink:href="#aM" x="10.511" y="130.841"/><use xlink:href="#ay" x="10.511" y="126.699"/><use xlink:href="#aN" x="10.511" y="120.32"/><use xlink:href="#aO" x="10.511" y="110.096"/></g><g fill="#2A3F5F"><use xlink:href="#G" x="184.702" y="95.348"/><use xlink:href="#W" x="192.295" y="95.348"/><use xlink:href="#H" x="198.454" y="95.348"/><use xlink:href="#aP" x="204.15" y="95.348"/><use xlink:href="#aQ" x="207.318" y="95.348"/><use xlink:href="#aP" x="214.69" y="95.348"/><use xlink:href="#aR" x="217.858" y="95.348"/><use xlink:href="#H" x="221.949" y="95.348"/><use xlink:href="#aP" x="227.646" y="95.348"/></g><use xlink:href="#aS" x="227.646" y="97.24" fill="#2A3F5F"/><use xlink:href="#aT" x="231.632" y="97.24" fill="#2A3F5F"/><use xlink:href="#aU" x="235.618" y="97.24" fill="#2A3F5F"/><use xlink:href="#aU" x="237.346" y="97.24" fill="#2A3F5F"/><use xlink:href="#aV" x="239.075" y="97.24" fill="#2A3F5F"/><use xlink:href="#aW" x="241.289" y="97.24" fill="#2A3F5F"/><use xlink:href="#aX" x="245.214" y="97.24" fill="#2A3F5F"/><use xlink:href="#aY" x="246.942" y="97.24" fill="#2A3F5F"/><use xlink:href="#aZ" x="250.224" y="97.24" fill="#2A3F5F"/><use xlink:href="#aP" x="252.706" y="95.348" fill="#2A3F5F"/><use xlink:href="#aR" x="252.706" y="95.348" fill="#2A3F5F"/><g fill="#2A3F5F"><use xlink:href="#R" x="237.246" y="250.757"/><use xlink:href="#U" x="241.091" y="250.757"/><use xlink:href="#ba" x="246.559" y="250.757"/><use xlink:href="#ba" x="249.031" y="250.757"/><use xlink:href="#bb" x="251.503" y="250.757"/><use xlink:href="#S" x="253.976" y="250.757"/><use xlink:href="#bc" x="259.677" y="250.757"/><use xlink:href="#aP" x="265.29" y="250.757"/><use xlink:href="#bd" x="268.457" y="250.757"/><use xlink:href="#bb" x="275.83" y="250.757"/><use xlink:href="#S" x="278.302" y="250.757"/><use xlink:href="#be" x="284.003" y="250.757"/><use xlink:href="#U" x="289.617" y="250.757"/><use xlink:href="#bd" x="295.085" y="250.757"/><use xlink:href="#bf" x="302.457" y="250.757"/><use xlink:href="#A" x="309.83" y="250.757"/><use xlink:href="#s" x="315.558" y="250.757"/><use xlink:href="#aP" x="321.285" y="250.757"/><use xlink:href="#V" x="324.453" y="250.757"/><use xlink:href="#I" x="333.215" y="250.757"/><use xlink:href="#bg" x="338.582" y="250.757"/></g></svg>