<svg xmlns="http://www.w3.org/2000/svg" xmlns:xlink="http://www.w3.org/1999/xlink" width="375.12" height="247.92"><defs><path id="n" d="M6.406-2.516H.97v-.703h5.437Zm0 0"/><path id="o" d="M5.125-3.281q-.001 1.769-.547 2.594C4.211-.133 3.641.14 2.86.14Q1.687.142 1.141-.687.608-1.531.609-3.266q-.002-1.746.547-2.578.545-.827 1.703-.828 1.186 0 1.72.844c.362.562.546 1.414.546 2.547m-1.156 2c.101-.239.172-.516.203-.828q.06-.48.062-1.172a10 10 0 0 0-.062-1.14 2.7 2.7 0 0 0-.203-.845 1.2 1.2 0 0 0-.422-.515c-.18-.114-.406-.172-.688-.172a1.3 1.3 0 0 0-.687.172q-.27.176-.422.515a3 3 0 0 0-.203.86 13 13 0 0 0-.047 1.14q0 .69.047 1.157.046.455.203.812.14.344.406.531c.176.118.41.172.703.172.282 0 .508-.054.688-.172q.28-.17.422-.515m0 0"/><path id="p" d="M2.156 0H1.11v-1.25h1.047Zm0 0"/><path id="q" d="M5.14 0H.704v-.922c.313-.258.617-.52.922-.781q.467-.404.875-.797c.563-.54.945-.973 1.156-1.297q.312-.48.313-1.031-.002-.516-.344-.797c-.219-.195-.531-.297-.937-.297q-.392 0-.86.14a3.3 3.3 0 0 0-.906.438H.875v-.922a4.3 4.3 0 0 1 .828-.28q.514-.142 1.016-.141.998 0 1.562.5.576.486.578 1.312 0 .375-.093.703-.095.316-.282.61-.174.269-.406.53-.22.27-.547.579a27 27 0 0 1-.984.906c-.336.281-.64.547-.922.797h3.516Zm0 0"/><path id="r" d="M4.766 0H1.219v-.672h1.36v-4.375h-1.36v-.61q.28 0 .593-.046a1.8 1.8 0 0 0 .485-.125.8.8 0 0 0 .312-.281.85.85 0 0 0 .141-.453h.672v5.89h1.344Zm0 0"/><path id="s" d="M5.078-2.078c0 .305-.058.594-.172.875a1.9 1.9 0 0 1-.453.703q-.315.315-.75.484a3.1 3.1 0 0 1-1.015.157Q2.154.14 1.656.016A4 4 0 0 1 .828-.25v-.922h.063c.238.156.515.29.828.39q.482.158.953.157c.207 0 .41-.023.61-.078.195-.063.366-.164.515-.313a1.1 1.1 0 0 0 .297-.453q.093-.264.093-.61a1.24 1.24 0 0 0-.125-.577.95.95 0 0 0-.312-.375 1.45 1.45 0 0 0-.547-.219 3.3 3.3 0 0 0-.734-.078q-.393.002-.75.062-.364.048-.61.094v-3.375h3.938v.766H1.953v1.75q.188-.014.375-.016.2-.014.36-.016.528 0 .921.094c.27.055.516.156.735.313q.358.236.547.625.187.377.187.953m0 0"/><path id="x" d="M5.813-2.016A1.9 1.9 0 0 1 5.14-.53q-.377.282-.828.406-.441.127-1.11.125H.875v-6.547h1.938c.476 0 .835.024 1.078.063q.358.047.687.218c.238.125.41.29.516.485.101.199.156.433.156.703q0 .468-.234.797a1.7 1.7 0 0 1-.625.531v.031q.655.128 1.03.578.39.458.391 1.125m-1.47-2.953a.9.9 0 0 0-.077-.39.6.6 0 0 0-.25-.266 1.1 1.1 0 0 0-.5-.14 8 8 0 0 0-.735-.032H1.75v1.89h1.125q.406 0 .64-.046.248-.045.454-.172a.77.77 0 0 0 .281-.344q.094-.2.094-.5m.563 2.985c0-.258-.043-.47-.125-.625Q4.67-2.844 4.36-3a1.5 1.5 0 0 0-.515-.14 8 8 0 0 0-.735-.032H1.75V-.75h1.156q.56 0 .922-.047.375-.06.61-.219.247-.169.359-.39c.07-.145.11-.336.11-.578m0 0"/><path id="y" d="M4.625 0h-.812v-.516q-.111.064-.297.204-.187.126-.375.218a2.6 2.6 0 0 1-.47.157Q2.404.14 2.048.14q-.673 0-1.14-.438Q.45-.747.452-1.422q0-.562.235-.906.247-.341.687-.547.45-.186 1.078-.25.62-.077 1.36-.125v-.125a.86.86 0 0 0-.11-.453.7.7 0 0 0-.281-.297A1.1 1.1 0 0 0 3-4.265a3.3 3.3 0 0 0-1.25.063 6 6 0 0 0-.812.233H.89v-.828a6 6 0 0 1 .703-.156q.45-.077.89-.078a3.8 3.8 0 0 1 .907.093c.257.055.484.149.672.282q.281.203.421.531.141.316.141.797Zm-.812-1.203v-1.375l-.907.078q-.503.033-.797.125a1.23 1.23 0 0 0-.578.313c-.148.136-.218.328-.218.578q-.001.422.25.64.247.204.78.203.434.001.798-.156.355-.17.672-.406m0 0"/><path id="z" d="M3.36-.047a4 4 0 0 1-.516.094q-.269.047-.485.047-.752.002-1.14-.406Q.828-.718.829-1.61v-2.61H.265v-.687h.562v-1.407h.828v1.407H3.36v.687H1.656v2.235q-.001.391.016.609.012.22.125.406a.62.62 0 0 0 .266.266c.113.055.285.078.515.078q.2 0 .422-.062.218-.059.313-.094h.046Zm0 0"/><path id="A" d="M4.438-.312A4.5 4.5 0 0 1 3.656 0c-.25.07-.511.11-.781.11a3 3 0 0 1-.984-.157 1.9 1.9 0 0 1-.75-.469 2 2 0 0 1-.5-.796c-.118-.32-.172-.704-.172-1.141q0-1.2.656-1.875.656-.687 1.75-.688.42.001.828.125.406.112.735.282v.906h-.032a3.7 3.7 0 0 0-.797-.438 2 2 0 0 0-.78-.171q-.705.002-1.11.484c-.274.312-.407.773-.407 1.375 0 .594.13 1.055.391 1.375q.405.469 1.125.469.246 0 .516-.063.264-.06.469-.172.17-.093.328-.187.17-.105.265-.188h.032Zm0 0"/><path id="B" d="M4.922 0h-.828v-2.797a4 4 0 0 0-.047-.64 1.05 1.05 0 0 0-.14-.454.7.7 0 0 0-.313-.28 1.3 1.3 0 0 0-.547-.095q-.328.001-.703.172a4.7 4.7 0 0 0-.703.422V0H.813v-6.844h.828v2.485a3 3 0 0 1 .797-.5q.42-.188.843-.188.797.002 1.219.484.422.471.422 1.375Zm0 0"/><path id="D" d="M5.281-1.844h-.968V0h-.844v-1.844H.344v-1.015L3.5-6.547h.813v4h.968ZM3.47-2.547V-5.5L.938-2.547Zm0 0"/><path id="E" d="M4.563-3.156c.132.125.25.289.343.484q.14.283.14.735 0 .454-.171.828A2.06 2.06 0 0 1 3.641 0q-.44.14-.97.14-.55 0-1.077-.141a4.6 4.6 0 0 1-.86-.281v-.922h.063q.373.252.875.422.516.157.984.156c.188 0 .383-.031.594-.094q.311-.091.5-.265.201-.2.297-.422c.07-.157.11-.352.11-.594q-.001-.357-.126-.578a1 1 0 0 0-.297-.375 1.4 1.4 0 0 0-.484-.172 3 3 0 0 0-.61-.062h-.39v-.735h.297q.668.002 1.062-.265c.27-.188.407-.461.407-.829a.77.77 0 0 0-.11-.406.75.75 0 0 0-.265-.297 1.5 1.5 0 0 0-.407-.156 2.3 2.3 0 0 0-.484-.047c-.281 0-.578.055-.89.156q-.47.141-.891.422H.922v-.922a4.3 4.3 0 0 1 .828-.28q.528-.142 1.016-.141.48 0 .843.093.358.095.657.282.31.222.468.515.171.3.172.688c0 .367-.133.683-.39.953a1.64 1.64 0 0 1-.907.515v.063q.216.034.485.156.28.112.468.266m0 0"/><path id="at" d="M6.703 0h-.86v-5.64L4.017-1.798H3.5L1.688-5.64V0H.875v-6.547h1.188l1.75 3.64L5.5-6.546h1.203Zm0 0"/><path id="au" d="M6.031 0H5.11l-.64-1.828H1.64L1 0H.11L2.5-6.547h1.156ZM4.203-2.578 3.047-5.781l-1.14 3.203Zm0 0"/><path id="av" d="M5.188 0H.875v-6.547h4.313v.781H1.75v1.782h3.438v.78H1.75V-.78h3.438Zm0 0"/><path id="aw" d="M6.25-2.594 1.172-.344v-.781l4-1.734-4-1.735v-.797L6.25-3.14Zm0 0"/><path id="ax" d="M2.422 1.719h-.766v-8.563h.766Zm0 0"/><path id="aG" d="M3.875-4.016h-.047a7 7 0 0 0-.36-.046 2.5 2.5 0 0 0-.405-.032 1.7 1.7 0 0 0-.735.172 3.6 3.6 0 0 0-.687.438V0H.813v-4.906h.828v.718c.32-.257.609-.44.859-.546q.388-.171.781-.172c.133 0 .235.008.297.015.07 0 .172.012.297.032Zm0 0"/><path id="aH" d="M5-2.453c0 .805-.21 1.437-.625 1.906q-.61.69-1.64.688-1.048.002-1.657-.688c-.406-.469-.61-1.101-.61-1.906q0-1.2.61-1.89.608-.704 1.656-.704 1.032 0 1.641.703c.414.461.625 1.09.625 1.89m-.86 0q0-.95-.374-1.406-.375-.47-1.032-.47-.672 0-1.046.47-.375.456-.375 1.406 0 .926.375 1.406.374.47 1.046.469.657 0 1.032-.469t.375-1.406m0 0"/><path id="aI" d="M1.64 0H.829v-6.844h.813Zm0 0"/><path id="aJ" d="M1.703-5.734H.766v-.86h.937ZM1.641 0H.828v-4.906h.813Zm0 0"/><path id="aK" d="M4.922 0h-.828v-2.797a4 4 0 0 0-.047-.64 1.05 1.05 0 0 0-.14-.454.7.7 0 0 0-.313-.28 1.3 1.3 0 0 0-.547-.095q-.328.001-.703.172a4.7 4.7 0 0 0-.703.422V0H.813v-4.906h.828v.547a3 3 0 0 1 .797-.5q.42-.188.843-.188.797.002 1.219.484.422.471.422 1.375Zm0 0"/><path id="aL" d="M4.797-.562Q4.795.685 4.219 1.266q-.562.592-1.735.593-.39-.002-.765-.062a4.6 4.6 0 0 1-.735-.156V.797h.047q.2.093.64.203c.29.07.583.11.876.11q.421 0 .703-.094a.95.95 0 0 0 .438-.282Q3.84.56 3.906.313q.062-.234.063-.532v-.453q-.377.3-.719.453-.344.14-.86.14Q1.5-.076.985-.702.47-1.341.47-2.5c0-.426.054-.79.172-1.094.125-.3.289-.566.5-.797a1.9 1.9 0 0 1 .687-.484q.404-.17.813-.172.435 0 .718.094.282.082.61.25l.047-.203h.78Zm-.828-.782V-4.03a3.6 3.6 0 0 0-.61-.203 3 3 0 0 0-.562-.063q-.691 0-1.078.453-.391.456-.39 1.328 0 .831.28 1.25.295.423.97.422.355.002.718-.125.374-.141.672-.375m0 0"/><path id="aM" d="M6.984-4.906 5.704 0h-.766l-1.25-3.781L2.438 0h-.766L.375-4.906h.86L2.14-1.11l1.218-3.797h.688l1.25 3.797.86-3.797Zm0 0"/><path id="aN" d="M4.797 0h-.828v-.516a3 3 0 0 1-.75.485q-.377.17-.828.172Q1.5.14.984-.531.47-1.216.47-2.421c0-.415.054-.786.172-1.11.125-.32.289-.598.5-.828a2 2 0 0 1 .687-.5q.406-.188.828-.188.388 0 .688.094c.195.055.406.133.625.234v-2.125h.828Zm-.828-1.203v-2.828a4 4 0 0 0-.594-.203 2.7 2.7 0 0 0-.578-.063q-.705.002-1.094.484-.375.486-.375 1.376 0 .877.297 1.328c.195.304.516.453.953.453q.357 0 .719-.156a3.3 3.3 0 0 0 .672-.391m0 0"/><path id="aO" d="M6.281-3.437H1.078v-.704h5.203Zm0 1.843H1.078v-.703h5.203Zm0 0"/><path id="aP" d="M7.969 0h-.813v-2.797q0-.31-.031-.61A1.4 1.4 0 0 0 7-3.874a.6.6 0 0 0-.297-.281c-.125-.07-.305-.11-.531-.11q-.364 0-.703.188-.346.175-.688.437.014.094.016.235.014.127.016.265V0h-.829v-2.797q0-.328-.03-.61a1.4 1.4 0 0 0-.126-.468.6.6 0 0 0-.281-.281c-.125-.07-.309-.11-.547-.11q-.346.001-.687.172a6 6 0 0 0-.672.422V0H.813v-4.906h.828v.547c.257-.22.515-.383.765-.5q.388-.188.828-.188.498 0 .844.219.357.204.516.578.513-.421.922-.61.404-.186.89-.187.797.001 1.172.5.388.486.39 1.36Zm0 0"/><path id="aQ" d="M4.922-2.375h-3.61q-.001.457.125.797.142.329.375.547c.157.148.336.258.547.328q.312.094.688.094.497 0 1-.188.514-.2.734-.406h.047v.906q-.423.175-.86.297c-.292.07-.593.11-.905.11q-1.22 0-1.907-.657Q.468-1.202.47-2.422q0-1.201.656-1.906.657-.717 1.734-.719.984.002 1.516.578.546.58.547 1.657ZM4.125-3q-.017-.655-.344-1-.313-.359-.969-.36c-.449 0-.804.133-1.062.391A1.5 1.5 0 0 0 1.313-3Zm0 0"/><path id="aR" d="M6.031-6.547 3.656 0H2.5L.11-6.547h.937L3.094-.78l2.062-5.766Zm0 0"/><path id="t" d="M8.984 0H7.016v-5.11L5.609-1.796H4.25L2.828-5.109V0H.968v-7.64h2.298l1.718 3.843L6.688-7.64h2.296Zm0 0"/><path id="u" d="M8.031 0H6l-.531-1.547H2.64L2.109 0H.125l2.813-7.64h2.265ZM4.984-2.937l-.937-2.75-.938 2.75Zm0 0"/><path id="v" d="M4.422.156a4.8 4.8 0 0 1-1.563-.25 3.7 3.7 0 0 1-1.25-.75 3.3 3.3 0 0 1-.796-1.234Q.53-2.828.53-3.813c0-.601.086-1.148.266-1.64a3.7 3.7 0 0 1 .797-1.266A3.2 3.2 0 0 1 2.828-7.5a4.5 4.5 0 0 1 1.61-.281q.467.002.859.062.389.048.719.125.341.112.625.235.28.112.484.218v1.844h-.219q-.158-.123-.375-.281a5 5 0 0 0-.484-.344 4 4 0 0 0-.61-.266 2 2 0 0 0-.703-.125 2.3 2.3 0 0 0-.796.141q-.376.13-.688.422-.299.3-.484.781-.188.486-.188 1.172 0 .705.203 1.188.2.485.5.765.311.282.703.407.389.11.766.109.341 0 .688-.094c.238-.07.457-.172.656-.297q.264-.153.468-.312.218-.17.36-.297h.203V-.5q-.282.129-.547.234-.268.112-.547.188-.375.11-.703.172-.33.06-.906.062m0 0"/><path id="w" d="M6.5 0H.969v-7.64H6.5v1.484H2.938v1.312h3.296v1.485H2.938v1.875H6.5Zm0 0"/><path id="F" d="M6.063 0H1.03v-7.64h5.032v.906H2.047v2.093h4.015v.907H2.048v2.828h4.015Zm0 0"/><path id="S" d="M4.016 2.11H2.844A8.2 8.2 0 0 1 1.422-.157c-.336-.82-.5-1.75-.5-2.781 0-1.02.164-1.942.5-2.766a8.5 8.5 0 0 1 1.422-2.281h1.172v.062a6.5 6.5 0 0 0-.797.86q-.376.485-.703 1.14-.301.628-.5 1.39a6.6 6.6 0 0 0-.188 1.595q0 .877.188 1.609.186.736.5 1.39.31.622.703 1.126.405.513.797.875Zm0 0"/><path id="T" d="M5.75-2.766H1.516q-.001.535.156.922.171.394.453.64.263.253.625.376c.25.086.52.125.813.125q.574 0 1.171-.235.592-.234.844-.468h.047v1.062q-.485.204-1 .344c-.336.094-.687.14-1.062.14Q2.14.143 1.342-.624q-.795-.78-.796-2.203-.001-1.405.766-2.234.761-.828 2.015-.829 1.154 0 1.781.688.64.675.641 1.922ZM4.797-3.5q0-.761-.375-1.172c-.25-.281-.633-.422-1.14-.422-.524 0-.938.157-1.25.469q-.457.457-.516 1.125Zm0 0"/><path id="U" d="M7.047-7.64 4.266 0h-1.36L.141-7.64h1.078l2.39 6.718L6.016-7.64Zm0 0"/><path id="V" d="M4.406-7.984.734 1.563h-.89L3.5-7.985Zm0 0"/><path id="W" d="M5.406 0h-.968v-.61c-.086.063-.2.15-.344.25a2 2 0 0 1-.422.235 2.4 2.4 0 0 1-.563.203q-.315.077-.718.078c-.524 0-.965-.164-1.328-.5Q.53-.859.53-1.656q0-.655.282-1.063.281-.403.796-.625.529-.233 1.25-.312a19 19 0 0 1 1.579-.125v-.156q-.001-.328-.125-.532A.9.9 0 0 0 4-4.812a1.4 1.4 0 0 0-.5-.157 3.6 3.6 0 0 0-.594-.047c-.261 0-.547.04-.86.11a6 6 0 0 0-.952.281h-.047v-.984q.28-.075.812-.157a6 6 0 0 1 1.047-.093q.608 0 1.047.093.452.096.781.344c.22.156.383.36.5.61q.171.376.172.921Zm-.968-1.406V-3q-.439.02-1.047.078-.598.047-.938.14-.409.13-.672.376-.251.25-.25.672 0 .504.297.75c.195.168.5.25.906.25q.5 0 .922-.203a4.6 4.6 0 0 0 .781-.47m0 0"/><path id="X" d="M3.922-.047c-.18.043-.375.078-.594.11q-.316.046-.562.046-.892 0-1.344-.468C1.117-.672.969-1.176.969-1.875v-3.047H.313v-.812h.656v-1.641h.969v1.64h1.984v.813H1.937v2.61q-.001.455.016.718a1 1 0 0 0 .14.469.64.64 0 0 0 .313.297q.2.094.61.094.233 0 .484-.063.263-.077.375-.125h.047Zm0 0"/><path id="Y" d="M5.828-2.86Q5.826-1.464 5.11-.655q-.72.813-1.921.812-1.221 0-1.938-.812-.703-.81-.703-2.203 0-1.405.703-2.22c.477-.538 1.125-.812 1.938-.812.8 0 1.44.274 1.921.813.477.543.72 1.281.72 2.219m-1 0q-.002-1.106-.437-1.656-.424-.545-1.203-.546-.786 0-1.22.546-.437.55-.437 1.657 0 1.077.438 1.64.433.549 1.219.547.762.002 1.203-.547.435-.563.437-1.64m0 0"/><path id="Z" d="M9.313 0h-.97v-3.266q0-.357-.03-.703a1.6 1.6 0 0 0-.141-.547.8.8 0 0 0-.344-.343c-.148-.07-.36-.11-.64-.11q-.41.002-.813.203a5.5 5.5 0 0 0-.797.516c.008.086.016.18.016.281q.013.157.015.297V0h-.968v-3.266q-.001-.374-.032-.718a1.6 1.6 0 0 0-.14-.547.72.72 0 0 0-.344-.328c-.148-.07-.355-.11-.625-.11a1.8 1.8 0 0 0-.797.203c-.262.125-.527.29-.797.485V0H.953v-5.734h.953v.64q.45-.374.907-.578.45-.218.953-.219.59.002 1 .25a1.6 1.6 0 0 1 .609.688q.575-.497 1.063-.719a2.5 2.5 0 0 1 1.03-.219c.626 0 1.087.196 1.391.579q.453.563.454 1.593Zm0 0"/><path id="aa" d="M3.844-2.937c0 1.03-.172 1.96-.516 2.78A8 8 0 0 1 1.922 2.11H.75v-.046a6.3 6.3 0 0 0 .797-.876A7 7 0 0 0 2.25.063c.207-.438.375-.899.5-1.391a6.5 6.5 0 0 0 .188-1.61q0-.843-.188-1.593a6.8 6.8 0 0 0-1.203-2.532q-.375-.482-.797-.859v-.062h1.172q.902 1.05 1.406 2.28.516 1.238.516 2.766m0 0"/><path id="H" d="M3.781 0H3.11v-.422l-.25.172a1.6 1.6 0 0 1-.296.172 1.5 1.5 0 0 1-.376.125q-.222.06-.515.062Q1.123.111.75-.25a1.2 1.2 0 0 1-.375-.906q0-.47.188-.75.198-.28.562-.438.358-.153.875-.219c.344-.039.71-.066 1.11-.078v-.109a.67.67 0 0 0-.094-.375.6.6 0 0 0-.22-.234.73.73 0 0 0-.343-.11 3 3 0 0 0-.422-.031c-.18 0-.375.027-.594.078a4.6 4.6 0 0 0-.671.188H.734v-.688q.188-.045.563-.11c.25-.05.492-.077.734-.077q.42 0 .735.078.311.064.547.234.233.175.343.438.124.253.125.64ZM3.11-.984v-1.11q-.314.018-.734.047a3.3 3.3 0 0 0-.656.11q-.299.08-.485.25c-.117.117-.171.277-.171.484q-.001.345.203.516c.144.117.359.171.64.171q.358 0 .657-.14.293-.14.546-.328m0 0"/><path id="I" d="M4.188-2.031q0 .502-.141.906a2.2 2.2 0 0 1-.375.672q-.269.28-.578.422c-.2.09-.418.14-.656.14q-.346 0-.61-.078a2.2 2.2 0 0 1-.484-.218L1.297 0h-.64v-5.578h.687v2q.28-.234.593-.375.329-.155.72-.156c.468 0 .835.183 1.109.547q.421.534.422 1.53m-.688.015q-.002-.714-.25-1.078c-.156-.25-.414-.375-.766-.375a1.6 1.6 0 0 0-.593.125q-.3.13-.547.328V-.72c.187.086.347.14.484.172q.2.047.469.047c.375 0 .664-.117.875-.36.219-.25.328-.632.328-1.156m0 0"/><path id="J" d="M4.078-2q-.001.984-.5 1.547c-.336.375-.781.562-1.344.562Q1.373.11.875-.453C.539-.828.375-1.343.375-2s.164-1.172.5-1.547q.498-.562 1.36-.562c.562 0 1.007.187 1.343.562q.499.562.5 1.547m-.703 0q0-.78-.312-1.156-.3-.375-.829-.375-.55 0-.859.375Q1.077-2.78 1.078-2c0 .5.098.883.297 1.14q.31.392.86.391.527 0 .828-.375.311-.388.312-1.156m0 0"/><path id="K" d="M4.125-4 2.5 0h-.672L.218-4h.735L2.188-.812 3.422-4Zm0 0"/><path id="L" d="M4.016-1.937H1.063q-.001.374.109.656.106.269.312.437.187.174.438.266c.176.055.363.078.562.078q.404.001.813-.156.421-.17.61-.328h.03v.734q-.345.157-.703.25-.346.094-.734.094-1 0-1.562-.531Q.375-.983.375-1.984q0-.985.531-1.547.544-.576 1.422-.578.81 0 1.25.468.437.47.438 1.344Zm-.657-.516q-.001-.53-.265-.813-.27-.294-.797-.296-.549 0-.875.328c-.211.21-.328.468-.36.78Zm0 0"/><path id="N" d="M5.469 0h-.703v-4.594L3.28-1.469h-.42L1.375-4.594V0H.719v-5.344h.969l1.421 2.985 1.375-2.985h.985Zm0 0"/><path id="O" d="M4.203-3.719q-.001.346-.125.656-.11.3-.344.516-.27.281-.656.422-.375.14-.937.14h-.72V0H.72v-5.344h1.453q.468 0 .797.094.34.082.61.25a1.4 1.4 0 0 1 .452.516q.171.298.172.765m-.734.016q0-.28-.094-.485a.8.8 0 0 0-.297-.328 1.1 1.1 0 0 0-.39-.171 3 3 0 0 0-.563-.047h-.703v2.14h.61c.28 0 .507-.023.687-.078a.9.9 0 0 0 .437-.25.95.95 0 0 0 .235-.36q.076-.187.078-.421m0 0"/><path id="P" d="M4.016 0h-.672v-2.281q-.001-.282-.031-.516c-.024-.164-.063-.289-.126-.375a.52.52 0 0 0-.265-.219 1 1 0 0 0-.438-.078c-.18 0-.37.047-.578.14q-.298.129-.562.345V0H.656v-5.578h.688v2.016a2.6 2.6 0 0 1 .64-.407q.34-.14.704-.14.637.002.984.39c.226.262.344.637.344 1.125Zm0 0"/><path id="Q" d="M3.984 0h-.671v-.437c-.231.18-.45.312-.657.406-.21.09-.437.14-.687.14q-.627 0-.985-.375c-.23-.257-.343-.64-.343-1.14V-4h.672v2.281q-.002.3.015.516.031.222.125.375a.7.7 0 0 0 .25.234q.154.064.453.063.263.001.578-.125c.207-.094.399-.211.579-.36V-4h.671Zm0 0"/><path id="R" d="M1.344 0H.672v-5.578h.672Zm0 0"/><path id="ab" d="M0-7.344v1.313L-3.031-3.47v1.422H0v1.016h-7.64v-2.125q0-.702.093-1.156a2.4 2.4 0 0 1 .328-.829q.252-.421.657-.656.39-.234 1-.234.83 0 1.39.422c.367.273.64.652.828 1.14Zm-5.484 2.375q-.328.001-.578.125a1 1 0 0 0-.438.375q-.14.222-.203.532-.062.298-.063.703v1.187h2.891v-1.015c0-.32-.023-.602-.078-.844a1.4 1.4 0 0 0-.328-.61 1.35 1.35 0 0 0-.5-.343 2 2 0 0 0-.703-.11m0 0"/><path id="ac" d="M-2.86-5.828q1.395.002 2.204.719.813.72.812 1.922 0 1.22-.812 1.937-.81.703-2.203.703-1.405 0-2.22-.703c-.538-.477-.812-1.125-.812-1.937 0-.801.274-1.442.813-1.922.543-.477 1.281-.72 2.219-.72m0 1q-1.106.002-1.656.437-.545.423-.546 1.204 0 .785.546 1.218.55.439 1.657.438 1.077 0 1.64-.438.549-.433.547-1.218.002-.763-.547-1.204-.563-.435-1.64-.437m0 0"/><path id="ad" d="M0-1.922v.969h-7.984v-.969Zm0 0"/><path id="ae" d="M-6.687-1.984v1.093h-1v-1.093ZM0-1.922v.969h-5.734v-.969Zm0 0"/><path id="af" d="M0-5.734v.968h-3.266q-.387 0-.734.047-.341.034-.547.157a.72.72 0 0 0-.312.375 1.55 1.55 0 0 0-.11.625q.002.393.203.828c.125.28.29.558.485.828H0v.953h-5.734v-.953h.64q-.374-.452-.578-.938a2.4 2.4 0 0 1-.219-.984q0-.937.563-1.422.564-.482 1.61-.484Zm0 0"/><path id="ag" d="M-.656-5.594c.976 0 1.691.227 2.14.672q.687.659.688 2.031c0 .305-.024.602-.063.891a7 7 0 0 1-.187.844H.938v-.047a7 7 0 0 0 .218-.75q.14-.516.14-1.031 0-.48-.124-.797a1.24 1.24 0 0 0-.313-.516 1.3 1.3 0 0 0-.484-.25 2.4 2.4 0 0 0-.625-.078h-.531q.345.44.515.828c.118.262.172.602.172 1.016 0 .68-.242 1.219-.734 1.625q-.733.61-2.094.61-.732 0-1.265-.204a2.8 2.8 0 0 1-.922-.578 2.2 2.2 0 0 1-.578-.797 2.5 2.5 0 0 1-.204-.969c0-.32.04-.594.11-.812a3.6 3.6 0 0 1 .297-.719l-.25-.062v-.907Zm-.922.969h-3.125q-.17.377-.234.719-.078.328-.079.656.002.783.532 1.25c.355.305.87.453 1.547.453q.971 0 1.468-.328c.324-.227.485-.61.485-1.14q.001-.423-.157-.844a2.6 2.6 0 0 0-.437-.766m0 0"/><path id="ai" d="M0-7.828v1.016h-6.578l4.469 2.125v.609l-4.47 2.11H0v.937h-7.64v-1.375l4.25-2.031-4.25-1.97v-1.421Zm0 0"/><path id="aj" d="M0-7.047v1.078l-2.125.75v3.313L0-1.156v1.015l-7.64-2.765v-1.36Zm-3 2.14-3.75 1.345L-3-2.22Zm0 0"/><path id="ak" d="M0-6.062v5.03h-7.64v-5.03h.906v4.015h2.093v-4.015h.907v4.015h2.828v-4.015Zm0 0"/><path id="al" d="M2.11-4.016v1.172A8.2 8.2 0 0 1-.157-1.422c-.82.336-1.75.5-2.781.5-1.02 0-1.942-.164-2.766-.5a8.5 8.5 0 0 1-2.281-1.422v-1.172h.062c.25.282.54.547.86.797q.485.376 1.14.703.628.301 1.39.5.75.188 1.595.188.877 0 1.609-.188.736-.186 1.39-.5.622-.31 1.126-.703a7.5 7.5 0 0 0 .875-.797Zm0 0"/><path id="am" d="M-2.766-5.75v4.234q.535.001.922-.156.394-.171.64-.453.253-.263.376-.625c.086-.25.125-.52.125-.812q0-.575-.235-1.172-.234-.592-.468-.844v-.047h1.062q.204.485.344 1 .14.502.14 1.063.002 1.422-.765 2.218-.78.798-2.203.797c-.938 0-1.68-.254-2.234-.765q-.828-.762-.829-2.016 0-1.154.688-1.781.675-.64 1.922-.641Zm-.734.953q-.761 0-1.172.375c-.281.25-.422.633-.422 1.14 0 .524.157.938.469 1.25q.457.457 1.125.516Zm0 0"/><path id="an" d="M-7.64-7.047 0-4.266v1.36L-7.64-.141v-1.078l6.718-2.39-6.719-2.407Zm0 0"/><path id="ao" d="M-7.984-4.406 1.563-.734v.89L-7.985-3.5Zm0 0"/><path id="ap" d="M0-5.406v.968h-.61c.063.086.15.2.25.344q.159.224.235.422c.086.156.148.344.203.563q.077.315.078.718c0 .524-.164.965-.5 1.329q-.515.531-1.312.53-.655 0-1.063-.28a1.8 1.8 0 0 1-.625-.797q-.233-.529-.312-1.25a19 19 0 0 1-.125-1.578h-.156q-.328 0-.532.125A.9.9 0 0 0-4.812-4a1.4 1.4 0 0 0-.157.5 3.6 3.6 0 0 0-.047.594c0 .261.04.547.11.86q.093.455.281.952v.047h-.984a8 8 0 0 1-.157-.812 6 6 0 0 1-.093-1.047q0-.608.093-1.047.096-.452.344-.781c.156-.22.36-.383.61-.5q.376-.171.921-.172Zm-1.406.968H-3q.02.439.078 1.047.047.598.14.938.13.409.376.672.25.251.672.25.504 0 .75-.297c.168-.195.25-.5.25-.906q0-.5-.203-.922a4.6 4.6 0 0 0-.47-.781m0 0"/><path id="aq" d="M-.047-3.922c.043.18.078.375.11.594q.046.316.046.562 0 .892-.468 1.344c-.313.305-.817.453-1.516.453h-3.047v.657h-.812V-.97h-1.641v-.968h1.64v-1.985h.813v1.985h2.61q.455.001.718-.016a1 1 0 0 0 .469-.14.64.64 0 0 0 .297-.313q.094-.2.094-.61 0-.233-.063-.484a4 4 0 0 0-.125-.375v-.047Zm0 0"/><path id="ar" d="M0-9.312v.968h-3.266q-.357.001-.703.031-.34.035-.547.141a.8.8 0 0 0-.343.344c-.07.148-.11.36-.11.64q.002.41.203.813.206.393.516.797.13-.014.281-.016.157-.013.297-.015H0v.968h-3.266q-.374.001-.718.032-.341.035-.547.14a.72.72 0 0 0-.328.344c-.07.148-.11.355-.11.625q.002.392.203.797c.125.262.29.527.485.797H0v.953h-5.734v-.953h.64q-.374-.45-.578-.907a2.2 2.2 0 0 1-.219-.953q.002-.59.25-1a1.6 1.6 0 0 1 .688-.609q-.497-.575-.719-1.062A2.5 2.5 0 0 1-5.89-7.47c0-.625.196-1.086.579-1.39q.563-.452 1.593-.453Zm0 0"/><path id="as" d="M-2.937-3.844c1.03 0 1.96.172 2.78.516A8 8 0 0 1 2.11-1.922V-.75h-.046a6.3 6.3 0 0 0-.876-.797A7 7 0 0 0 .063-2.25a7.6 7.6 0 0 0-1.391-.5 6.5 6.5 0 0 0-1.61-.187q-.843 0-1.593.187a6.8 6.8 0 0 0-2.532 1.203q-.482.375-.859.797h-.062v-1.172q1.05-.902 2.28-1.406 1.238-.516 2.766-.516m0 0"/><path id="ay" d="M3.438 0h-.579v-1.953q0-.232-.03-.438a.7.7 0 0 0-.095-.328.5.5 0 0 0-.218-.203 1 1 0 0 0-.375-.062q-.236.001-.5.125a2.5 2.5 0 0 0-.5.297V0H.563v-4.781h.578v1.734c.187-.156.375-.273.562-.36q.294-.123.594-.124.562.002.844.344c.195.218.297.539.297.953Zm0 0"/><path id="az" d="M3.422 0h-.578v-.375q-.3.222-.563.344c-.18.082-.375.125-.594.125q-.55 0-.843-.328c-.2-.22-.297-.54-.297-.97v-2.234h.578v1.954c0 .18.004.328.016.453q.028.188.109.312.075.143.203.203a1 1 0 0 0 .39.063q.234.001.5-.11.267-.124.5-.312v-2.562h.579Zm0 0"/><path id="aA" d="M1.156 0H.578v-4.781h.578Zm0 0"/><path id="aC" d="M3.36 0h-.58v-.36a2 2 0 0 1-.531.344c-.18.07-.371.11-.578.11q-.627 0-.984-.469c-.243-.32-.36-.758-.36-1.312q-.001-.435.125-.782c.082-.226.195-.422.344-.578.133-.156.297-.273.484-.36q.281-.123.578-.124.264.002.47.062.217.048.452.172V-4.78h.578Zm-.58-.844v-1.969a2 2 0 0 0-.422-.14A1.7 1.7 0 0 0 1.953-3q-.485.002-.766.344c-.18.219-.265.539-.265.953q-.001.61.203.937.218.315.688.313.233.001.484-.11.263-.106.484-.28m0 0"/><path id="aD" d="M1.188-4.016H.53v-.593h.657ZM1.156 0H.578v-3.437h.578Zm0 0"/><path id="aE" d="M3.016-.984c0 .312-.133.57-.391.765-.25.2-.602.297-1.047.297Q1.186.078.86 0a2.6 2.6 0 0 1-.515-.203V-.86h.031q.265.204.594.328c.226.086.445.125.656.125.25 0 .445-.04.594-.125a.42.42 0 0 0 .219-.39q0-.202-.126-.298-.112-.105-.453-.187-.113-.03-.312-.063a2.4 2.4 0 0 1-.36-.078q-.454-.122-.64-.344A.9.9 0 0 1 .36-2.47q-.002-.217.079-.406a1 1 0 0 1 .265-.328 1.2 1.2 0 0 1 .438-.219 1.8 1.8 0 0 1 .593-.094q.31.001.625.079.31.08.532.171v.625H2.86a2.2 2.2 0 0 0-.546-.265 1.7 1.7 0 0 0-.61-.125 1.1 1.1 0 0 0-.547.125c-.148.086-.218.203-.218.36q0 .222.14.327.123.095.422.172c.102.024.219.047.344.078q.201.034.343.063.387.094.61.312.218.235.219.61m0 0"/><path id="aF" d="M2.36-.031C2.241 0 2.124.019 2 .03q-.19.031-.344.032-.532 0-.812-.282Q.576-.5.578-1.126v-1.828h-.39v-.485h.39v-.984h.578v.984H2.36v.485H1.156v1.562q-.001.284.016.438a.8.8 0 0 0 .078.281.5.5 0 0 0 .188.188q.123.045.375.046c.093 0 .187-.007.28-.03.102-.032.18-.055.235-.079h.031Zm0 0"/><clipPath id="e"><path d="M0 0h375v247.5H0Zm0 0"/></clipPath><clipPath id="f"><path d="M52.5 13.5H360V204H52.5Zm0 0"/></clipPath><clipPath id="c"><path d="M.5.5H308V191H.5Zm0 0"/></clipPath><clipPath id="d"><path d="M152 188h5v3h-5Zm0 0"/></clipPath><clipPath id="b"><path d="M0 0h308v191H0z"/></clipPath><clipPath id="i"><path d="M52.5 130H357v46H52.5Zm0 0"/></clipPath><clipPath id="j"><path d="M52.5 127H357v49H52.5Zm0 0"/></clipPath><clipPath id="k"><path d="M52.5 133H356v44H52.5Zm0 0"/></clipPath><clipPath id="l"><path d="M52.5 139H355v43H52.5Zm0 0"/></clipPath><clipPath id="m"><path d="M52.5 144H357v42H52.5Zm0 0"/></clipPath><filter id="a" width="100%" height="100%" x="0%" y="0%"><feColorMatrix color-interpolation-filters="sRGB" values="0 0 0 0 1 0 0 0 0 1 0 0 0 0 1 0 0 0 1 0"/></filter><mask id="g"><g filter="url(#a)"><path fill-opacity=".2" d="M-37.512-24.792h450.144v297.504H-37.512z"/></g></mask><g id="h" clip-path="url(#b)"><g clip-path="url(#c)"><path fill="red" d="M-614.5-761.5 154.25 191 923-761.5Zm0 0"/><path fill="none" stroke="#636EFA" stroke-miterlimit="2" stroke-width="1.5" d="M-614.5-761.5 154.25 191 923-761.5"/></g><g clip-path="url(#d)"><path fill="#636EFA" d="M156.5 191q-.001.447-.172.86-.17.414-.488.73-.316.317-.73.488a2.24 2.24 0 0 1-1.72 0 2.2 2.2 0 0 1-.73-.488 2.2 2.2 0 0 1-.488-.73 2.24 2.24 0 0 1 0-1.72q.17-.414.488-.73.316-.317.73-.488a2.24 2.24 0 0 1 1.72 0q.414.17.73.488.317.316.488.73.17.413.172.86m0 0"/></g></g></defs><g clip-path="url(#e)"><path fill="#FFF" d="M0 0h375v247.5H0Zm0 0"/></g><path fill="#FFF" d="M52.5 13.5H360V204H52.5Zm0 0"/><path fill="none" stroke="#D3D3D3" stroke-width=".75" d="M129.375 13.5V204m153.75-190.5V204M52.5 156.375H360M52.5 108.75H360M52.5 61.125H360"/><path fill="none" stroke="#EBF0F8" stroke-width="1.5" d="M206.25 13.5V204"/><g clip-path="url(#f)" mask="url(#g)"><use xlink:href="#h" transform="translate(52 13)"/></g><g clip-path="url(#i)"><path fill="#EF553B" d="m53.043 151.05 1.555 1.626-1.082 1.035-1.559-1.625Zm3.11 3.25.738.77-.543.516-.508-.547.867-.809 1.02 1.102-1.41 1.309-1.247-1.305Zm2.206-1.597 1.508-1.398.711-.055.121 1.496-.453.035-.059-.75.508.551-1.316 1.223Zm4.465-1.633 2.242-.175.118 1.496-2.243.175Zm4.485-.351.507-.043.059.75-.27-.7 1.625-.624.54 1.398-1.727.664-.617.047Zm4.023-1.426.121-.047.27.703-.403-.633 1.79-1.14.804 1.265-1.852 1.18-.19.074Zm3.672-2.324.156-.098.403.633-.618-.426 1.168-1.703 1.239.848-1.258 1.832-.281.18Zm2.383-3.45 1.273-1.855 1.235.848-1.274 1.855Zm4.011-2.449 2.247-.078.054 1.5-2.25.078Zm4.497-.156 1.562-.055.89 1.157-1.19.914-.653-.852.594-.457.027.75-1.18.043Zm3.824 2.883 1.37 1.785-1.187.914-1.37-1.785Zm2.808 3.426 1.524 1.652-1.102 1.02-1.523-1.653Zm2.672 2.828 2.242.168-.109 1.496-2.242-.168Zm4.242.05 2.196-.5.332 1.462-2.192.5Zm4.387-1 2.195-.503.332 1.464-2.19.5Zm4.504-.796 1.738-.211.09.742-.363-.656.437-.239.727 1.313-.566.312-1.883.227Zm3.871-1.453 1.676-.926.871.18-.305 1.468-.597-.125.152-.734.363.656-1.433.793Zm4.75-.293 1.047.218-.152.735-.48-.578.905-.758.961 1.152-1.183.988-1.403-.289Zm3.047-1.825 1.207-1.011.48.578-.539-.52.47-.488 1.081 1.039-.5.516-1.238 1.035Zm3.18-3.062 1.562-1.621 1.078 1.043-1.562 1.62Zm4.066-2.45 2.332-.44.445.363-.949 1.16-.172-.14.473-.583.14.738-1.988.375Zm4.52 1.344 1.742 1.426-.946 1.16-1.746-1.422Zm3.515 2.754 1.805 1.344-.895 1.203-1.804-1.34Zm3.656 2.344 2.024.992-.66 1.344-2.02-.988Zm4.036 2.07 1.972 1.078-.718 1.317-1.973-1.078Zm3.949 2.153 1.976 1.078-.718 1.316-1.977-1.074Zm3.95 2.156 2 1.09.108.097-.996 1.118-.047-.04.5-.558-.359.66-1.922-1.05Zm3.788 2.684 1.68 1.496-.996 1.12-1.68-1.495Zm3.442 2.425 2.062.903-.601 1.375-2.063-.903Zm4.023 1.055 1.906.098.383.043-.164 1.488-.36-.04.083-.745-.04.75-1.882-.094Zm4.527.383 1.395.152 1.004.57-.738 1.305-.872-.492.371-.652-.082.746-1.242-.137Zm4.356 1.832 1.023.582.934.523-.735 1.309-.94-.527-1.02-.582Zm3.918 2.207 1.965 1.101-.735 1.305-1.96-1.097Zm3.926 2.2.863.483-.367.657.265-.703 1.18.449-.535 1.402-1.23-.469-.91-.511Zm4.043 1.687.59.226 1.515.73-.652 1.352-1.489-.719.328-.675-.265.703-.559-.215Zm4.132 1.937 2.024.98-.653 1.352-2.023-.98Zm4.051 1.961.188.09 1.754 1.3-.895 1.208-1.695-1.258.445-.606-.328.676-.121-.058Zm3.75 2.73.34.254-.445.602.14-.738 1.79.34-.278 1.476-1.96-.375-.481-.355Zm3.918.836 2.25.06-.039 1.5-2.246-.06Zm4.535.16 2.242.169-.113 1.496-2.242-.168Zm4.375.118 2.242-.168.114 1.492-2.242.172Zm4.473-.367 2.242-.196.133 1.493-2.242.199Zm4.484-.395 2.242-.2.13 1.497-2.239.195Zm4.48-.398.466-.04.066.747-.355-.66 1.57-.848.71 1.32-1.706.922-.617.055Zm3.727-1.871.32-.172 1.77-.793.613 1.37-1.746.778-.304-.683.355.66-.297.16Zm4.145-1.883 2.055-.922.613 1.371-2.055.918Zm4.105-1.84 2.055-.918.613 1.367-2.054.922Zm4.223-1.809 2.156-.644.43 1.433-2.152.649Zm4.195-1.37 2.07-.884.587 1.383-2.07.88Zm3.98-1.872 1.942-1.137.758 1.297-1.945 1.133Zm3.657-2.387 1.734-1.433.957 1.156-1.738 1.434Zm3.777-2.761 2.063-.899.601 1.375-2.062.899Zm4.434-1.508 2.238-.25.164 1.492-2.234.246Zm4.082-1.004 2.039-.95.633 1.364-2.043.945Zm4.324-1.602 2.172-.586.39 1.45-2.171.586Zm4.344-1.171 2.172-.586.39 1.449-2.171.586Zm4.348-1.172 2.171-.586.391 1.449-2.172.586Zm4.343-1.172.461-.125 2.063.3-.219 1.485-1.906-.277.11-.743.194.723-.312.086Zm4.184.414 1.879-1.235.824 1.25-1.883 1.239Zm4.05-2.512 2.208-.445.293 1.472-2.203.442Zm4.634-.683 2.242.183-.121 1.492-2.243-.183Zm4.34.101 2.238-.242.16 1.492-2.238.242Zm4.335-.723 2.188-.523.351 1.46-2.191.524Zm4.38-1.046 2.187-.524.347 1.461-2.187.524Zm4.374-1.047 2.188-.52.351 1.457-2.191.524Zm4.38-1.043.444-.11 2.102.649-.441 1.433-1.907-.586.223-.718.176.73-.25.059Zm4.237 1.074 2.137-.711.473 1.426-2.137.707Zm4.133-1.469 2.004-1.015.68 1.335-2.008 1.02Zm4.293-1.87 2.211-.411.274 1.473-2.211.414Zm4.184-1.071 2.078-.867.578 1.386-2.078.864Zm4.156-1.73 2.078-.864.574 1.383-2.078.863Zm4.422-1.368 1.773-.348.457-.078.246 1.48-.449.075-.12-.738.144.734-1.762.348Zm4.45-.793 1.175-.195.121.738-.41-.625.89-.582.817 1.258-1.02.664-1.328.223Zm3.663-1.89 1.125-.735.95-.406.593 1.375-.89.383-.297-.688.41.63-1.074.698Zm4.14-2.036.966-.418 1.363-.222.246 1.476-1.273.211-.122-.738.297.687-.882.383Zm4.548-1.011.36-.059.241 1.48-.355.06Zm0 0"/></g><g clip-path="url(#j)"><path fill="#00CC96" d="m53.004 136.05 3.848 3.512-.504.551-.172-.726 1.5-.356.344 1.461-1.887.446-4.137-3.778Zm11.598.923 3.738 2.941-.465.59.117-.738 1.969.312-.238 1.48-2.16-.343-3.891-3.063Zm10.421.52.067-.055.472.585-.562-.496 3.848-4.37.562.491-.629-.41.461-.699 1.254.82-.488.746-3.926 4.461-.117.094Zm9.165-9.61 3.48 5.781-1.285.774-3.48-5.782Zm8.867 9.027 2.347 3.41-.617.426-.14-.738 2.562-.488.281 1.472-3.043.582-2.625-3.812Zm10.925 2.422 2.5-.258 4.172 2.465.094.11-1.152.96-.012-.011.578-.48-.383.644-3.847-2.27.382-.648.079.746-2.254.234Zm10.903 6.777 3.086.512-.121.738-.008-.75 3.617-.043.02 1.5-3.688.043-3.152-.52Zm12.562-1.879 2.227.54 3.992 2.539.059.046-.957 1.153-.024-.016.48-.578-.402.633-3.847-2.445.402-.633-.176.73-2.105-.512ZM139 150.98l2.16.758-.25.707-.351-.664 4.027-2.133.332.024-.098 1.496-.12-.008.05-.746.352.66-4.13 2.188-2.468-.867Zm12.652-.867 1.106.07 4.047 3.872-.52.543.149-.735.578.117-.301 1.47-.79-.16-4.003-3.833.52-.543-.051.75-.832-.055Zm11.973 5.207.496.102-.148.734.125-.738 3.945.68 2.21 1.05-.644 1.356-2.12-1.008.323-.68-.128.743-3.848-.664-.508-.102Zm12.629 4.578 3.336.872 3.14 1.34-.59 1.378-3.085-1.316.293-.688-.192.723-3.281-.855Zm12.633 5.301 2.46 1.82 2.801 2.508-1.003 1.118-2.77-2.485.5-.558-.445.605-2.434-1.805Zm10.894 6.762 2.746.23 3.899.93-.176.73.047-.75.101.008-.093 1.496-.164-.011-3.907-.93.176-.73-.062.75-2.692-.227Zm13.352 1.562.851.051-.047.75-.101-.746 3.848-.523.101.742-.137-.738 1.985-.364.27 1.477-2 .367-3.938.535-.922-.054Zm12.59-3.132 3.355-1.586 3.168-.618.29 1.473-3.079.598-.144-.735.32.676-3.266 1.547Zm12.605-4.692 6.184-2.703.601 1.375-6.187 2.703Zm12.461-5.289 1.32-.5 4.985-1.902.535 1.402-4.988 1.903-1.325.5Zm12.61-4.808.285-.11 3.882-.984 2.434-.649.387 1.45-2.453.652-3.84.976-.184-.726.266.7-.242.093Zm13.445-2.567 2.41-.101.031.75-.164-.735 3.84-.855.164.734-.246-.71.383-.13.488 1.418-.422.145-3.945.879-2.477.105Zm13.293-1.758.8.137-.125.738-.054-.746 5.922-.433.11 1.496-6.013.437-.89-.148Zm13.074-.3 6.492-1.848.41 1.441-6.492 1.848Zm13.226-3.196 1.231-.09.055.75-.274-.699 5.133-2.02.55 1.4-5.241 2.058-1.344.097Zm12.426-4.527 6.285-2.469.547 1.395-6.28 2.472Zm13.043-3.54 6.438-1.105.129.743-.305-.688.2-.086.609 1.371-.286.125-6.53 1.121Zm12.985-3.316 1.129-.214.28 1.472-1.128.215Zm0 0"/></g><g clip-path="url(#k)"><path fill="#AB63FA" d="m52.32 134.504 3.938-.977 3.937.04-.008.75-.015-.75 3.445-.067.031 1.5-3.457.066-3.851-.035.008-.75.18.727-3.848.953Zm22.547-1.23.723-.016 4.195.402 4.52 5.36-1.149.964-4.32-5.125.574-.48-.07.746-3.848-.367.07-.746.016.75-.683.011Zm17.324 10.066 2.516-1.512 4.309 1.61 3.539 3.117-.993 1.125-3.433-3.028.496-.562-.262.703-3.84-1.434.262-.703.387.645-2.207 1.324Zm18.793 4.441 6.641-3.582 3.988-.383.145 1.493-3.84.367-.07-.746.355.66-6.508 3.512Zm20.868-1.14 9.41 3.21 1.238.919-.89 1.207-1.145-.848.445-.606-.242.711-9.3-3.175Zm20.261 9.672.668.34-.344.667.149-.734 4.016.805 3.972 2.988-.449.601.34-.667 1.582.8-.68 1.336-1.64-.832-3.891-2.926.45-.597-.15.734-3.948-.793-.758-.39Zm20.492 8 3.13.78 3.894 1.583-.281.695.183-.726 3.805.964-.367 1.453-3.856-.976-3.894-1.582.281-.695-.184.73-3.074-.77Zm20.918 8.218 1.477.594-.277.695.175-.73 7.688 1.84-.176.726.07-.746 1.747.168-.141 1.492-1.8-.172-7.79-1.863-1.531-.61Zm21.696 2.114 2.422-.473.144.734-.207-.719 8.438-2.433.414 1.441-8.47 2.442-2.456.48Zm21.605-6.008 7.692-2.215 3.261-.606.274 1.477-3.227.598-.137-.739.208.723-7.657 2.203Zm21.586-6.18 9.11-2.95.23.716-.262-.703 1.567-.586.527 1.406-1.586.59-9.125 2.953Zm21.352-7.086 7.066-2.273 3.934-.278.05.75-.199-.722.063-.02.402 1.445-.137.04-3.918.277-.05-.75.23.715-6.984 2.242Zm21.922-5.191.546-.09.118.742-.27-.7 3.934-1.507 3.945-.414.078.746-.195-.723 2.625-.703.387 1.45-2.68.714-3.906.414-.079-.746.27.7-3.914 1.5-.629.097Zm21.757-5.38 1.844-.308.125.738-.25-.707 7.828-2.78 1.367.07-.074 1.5-1.222-.063.039-.75.25.707-7.75 2.75-1.907.32Zm21.375-5.702 7.274-2.586 3.465-.934.39 1.45-3.437.925-.195-.726.25.707-7.247 2.578Zm0 0"/></g><g clip-path="url(#l)"><path fill="#FFA15A" d="m51.945 162.93 4.188-4.614 1.437.532-.52 1.406-.964-.356.262-.703.554.504-3.847 4.238Zm7.735-3.297.933.344 1.102 1.171-1.094 1.028-.98-1.043.547-.512-.262.703-.766-.285Zm3.574 3.156 1.328 1.414-.547.512.02-.75 3.84.097-.02.75-.254-.707.91-.328.512 1.41-1.047.38-4.293-.11-1.543-1.64Zm7.394.227 2.118-.766.507 1.41-2.113.766Zm4.235-1.528 4.531-1.636 2.328.855-.52 1.406-2.07-.758.258-.707.254.707-4.273 1.543Zm8.996.024 2.074.867-.578 1.383-2.078-.867Zm3.617 1.218 3.184-1.156.257.703-.566-.488 2.195-2.543 1.133.98-2.32 2.688-3.371 1.227Zm6.54-5.187.48-.555 2.363.563-.348 1.457-1.922-.457.176-.727.567.488-.18.211Zm4.925.469 3.574.293-.062.746-.356-.656 2.781-1.508.715 1.32-2.98 1.61-3.793-.31Zm8.273-1.938 2.223-.344.23 1.485-2.222.34Zm4.45-.687 2.421-.371 4.086 1.859.282.164-.743 1.3-.253-.144.37-.648-.312.68-3.847-1.754.312-.684.113.742-2.203.34Zm8.742 2.765 1.703.973.336.305-1.004 1.11-.277-.247.504-.559-.372.653-1.632-.93Zm3.707 2.786 1.906 1.722-.504.555.106-.742 3.921.55.364.141-.531 1.402-.286-.109.266-.703-.105.742-4.067-.57-2.074-1.875Zm7.898 3.023 1.457.555-.265.703.074-.746.687.066-.152 1.496-.785-.082-1.55-.59Zm4.192.809 1.054.105 3.973 2.012-.34.672.324-.68 1.368.652-.645 1.356-1.379-.657-3.855-1.953.34-.668-.075.746-.918-.093Zm8.41 3.73.441.21-.324.677.012-.75 1.765.031-.027 1.5-1.926-.035-.586-.278Zm4.187.219 6.73.52-.116 1.495-6.73-.52Zm8.973.691 2.242.176-.113 1.492-2.246-.172Zm4.484.348 1.813.14 3.902.95-.18.73.008-.75 1.043.012-.02 1.5-1.124-.012-3.926-.96.18-.727-.059.746-1.75-.133Zm8.836 1.11.653.007 1.726.469-.398 1.449-1.633-.445.2-.727-.009.75-.558-.004Zm4.547 1.07.04.011-.2.723.152-.734 6.575 1.359-.305 1.469-6.598-1.364-.058-.015Zm8.778 1.84 2.195.5-.336 1.464-2.192-.5Zm4.382 1.757 2.504 1.867-.449.602.281-.695 3.36 1.355-.559 1.395-3.453-1.395-2.582-1.926Zm7.7 3.461 2.238.242-.164 1.492-2.235-.242Zm4.472.484 1.5.165-.082.746-.074-.746 3.879-.387 1.422.004-.004 1.5-1.383-.004v-.75l.074.746-3.918.39-1.574-.171Zm8.895-.214 2.25.004-.004 1.5-2.25-.004Zm4.43-.032 3.402-.304.066.746-.258-.703 3.13-1.145.515 1.406-3.223 1.18-3.5.316Zm8.453-2.183 2.113-.774.515 1.41-2.113.774Zm4.226-1.547 2.098-.766 3.883-.972.593-.133.332 1.46-.562.13-3.848.96-.18-.73.258.707-2.058.754Zm8.77-2.367 1.07-.242.164.73-.277-.695 1.074-.43.555 1.395-1.13.449-1.124.254Zm4.12-1.465.684-.274 5.528-2.332.582 1.383-5.555 2.344-.684.27Zm8.286-3.477.117-.05 2.14-.59.4 1.445-2.095.578-.199-.723.293.692-.074.031Zm4.332-1.257 6.27-2.504.554 1.394-6.265 2.504Zm8.36-3.34 2.09-.832.554 1.39-2.09.836Zm4.175-1.668 6.27-2.504.558 1.39-6.27 2.508Zm8.488-3.176 1.696-.508.453-.14.437 1.433-.46.14-1.696.512Zm4.305-1.305 1.234-.375.22.719-.34-.668 3.894-1.984 1.148-.371.457 1.43-1.09.35-.23-.714.34.668-3.899 1.988-1.3.395Zm8.3-3.363 2.141-.688.457 1.43-2.14.688Zm4.286-1.371.187-.063 3.868-1 2.511-.664.383 1.453-2.52.66-3.847 1-.187-.726.23.715-.168.05Zm8.742-2.297 2.176-.574.383 1.449-2.176.574Zm4.395-1.098 2.492-.543 3.926-.66h.382v1.5h-.32v-.75l.125.738-3.848.649-.125-.742.16.734-2.472.54Zm9.05-1.203h1.27v.75l-.117-.742.969-.148.23 1.48-1.023.16h-1.329Zm4.344-.488 4.496-.703.118.742-.145-.738 2.16-.418.285 1.472-2.172.422-4.511.703Zm8.887-1.524 2.23-.292.196 1.484-2.23.297Zm4.46-.59 2.704-.355.098.746-.141-.738 3.84-.727.14.735-.207-.719.114-.031.414 1.441-.149.04-3.894.738-2.723.359Zm8.708-1.71 2.164-.625.414 1.445-2.164.621Zm4.324-1.246 4.953-1.422 1.586-.383.352 1.457-1.57.379-.176-.727.207.719-4.934 1.418Zm8.723-2.336.086-.02.175.73-.253-.706 2.039-.73.504 1.41-2.075.745-.12.032Zm0 0"/></g><g clip-path="url(#m)"><path fill="#19D3F3" d="m52.031 173.984 4.028-3.21 4.097-.313 2.504-.016.012 1.5-2.48.016-.005-.75.06.746-3.84.293-.06-.746.47.586-3.848 3.066Zm15.211-2.5.875.297-.242.711-.164-.73 1.289-.293.332 1.46-1.496.34-1.078-.363Zm6.149-1.011 6.054-1.375 4.051 1.328 1.14.414-.507 1.41-1.133-.41.254-.703-.234.71-3.84-1.261.234-.711.164.73-5.851 1.329Zm14.957.78 2.105-.788.527 1.402-2.105.79Zm6.234.77 3.84-1.492 4.074-.726 3.356.828-.36 1.457-3.199-.79.18-.726.129.738-3.844.68-.133-.738.273.7-3.773 1.468Zm15.574-1.234h.102l2.262.586-.375 1.45-2.172-.56.187-.726-.004.75h-.008Zm6.719 1.766 5.016 1.406-.204.723-.097-.746 3.96-.508 2.243.37-.246 1.481-2.133-.355.121-.738.094.742-3.996.515-5.16-1.445Zm15.203 1.308 1.086-.086.059.746-.098-.742 1.152-.152.196 1.488-1.172.153-1.106.085Zm6.66-.816 2.114-.277 3.882-.083.016.75-.168-.73 3.91-.89 1.43-.087.09 1.497-1.371.082-.043-.75.168.734-3.922.894-3.918.083-.016-.75.098.742-2.074.273Zm15.758-1.367 1.926.09.5.164-.469 1.425-.402-.132.234-.711-.035.75-1.824-.086Zm6.7 1.648 3.003.953-.226.715.039-.746 3.918.21 3.922 1.044-.192.723.024-.75.27.011-.048 1.496-.355-.011-3.93-1.04.191-.726-.039.75-3.937-.215-3.098-.984Zm15.37 2.492 2.2.485-.325 1.465-2.195-.485Zm6.594 1.453 4.195.926 3.97 2.988-.45.598.375-.648 2.004 1.148-.75 1.3-2.043-1.17-3.875-2.919.45-.598-.161.73-4.04-.89Zm13.992 6.188 1.477.133-.066.75.027-.75.77.027-.06 1.5-.784-.031-1.496-.133Zm6.703.336 6.27.238-.027.75v-.75l3.84-.008v.75l-.036-.75 1.133-.054.07 1.5-1.148.054-3.875.008-6.285-.242Zm15.434-.418 2.129-.613.207.722-.29-.691.032-.016.582 1.383-.074.031-2.172.625Zm6.375-2.316 3.484-.782.165.73-.215-.718 7.359-2.191.43 1.437-7.383 2.2-3.512.788Zm15.106-4.247 2.156-.644.43 1.437-2.157.645Zm6.468-1.925 8.77-2.614.215.72-.25-.708 1.984-.7.496 1.419-2 .699-8.785 2.621Zm15.024-4.703 2.148-.66.442 1.433-2.153.66Zm6.453-1.981 6.515-2 3.856-1.055.2.727-.224-.719.442-.133.441 1.43-.449.14-3.86 1.055-.199-.726.22.719-6.505 1.996Zm15.09-4.508 2.148-.664.442 1.434-2.149.664Zm6.394-2.082.371-.125.243.711-.305-.687 3.914-1.73 3.918-.927 2.66-.547.3 1.473-2.648.543-.152-.734.172.73-3.84.906-.172-.73.305.688-3.88 1.714-.401.137Zm15.207-4.207 2.207-.453.301 1.469-2.203.453Zm6.614-1.355 11.02-2.262.304 1.469-11.024 2.261Zm15.43-3.164 1.648-.34.152.734-.305-.683.516-.23.61 1.37-.59.262-1.731.355Zm6.245-2.286 6.871-2.101.22.715-.259-.703 3.82-1.395.512 1.41-3.836 1.399-6.886 2.113Zm14.965-4.87 2.14-.688.458 1.43-2.14.687Zm6.688-1.52.718-.09.188 1.488-.719.09Zm0 0"/></g><path fill="none" stroke="#000" stroke-width=".75" d="M51.75 204.375h309m-309-191.25h309M52.125 13.5V204m308.25-190.5V204"/><path fill="none" stroke="#444" stroke-width=".75" d="M52.5 204.75v3.75m76.875-3.75v3.75m76.875-3.75v3.75m76.875-3.75v3.75M360 204.75v3.75"/><g fill="#2A3F5F"><use xlink:href="#n" x="41.459" y="219.3"/><use xlink:href="#o" x="48.824" y="219.3"/><use xlink:href="#p" x="54.546" y="219.3"/><use xlink:href="#q" x="57.82" y="219.3"/></g><g fill="#2A3F5F"><use xlink:href="#n" x="118.334" y="219.3"/><use xlink:href="#o" x="125.699" y="219.3"/><use xlink:href="#p" x="131.421" y="219.3"/><use xlink:href="#r" x="134.695" y="219.3"/></g><use xlink:href="#o" x="203.389" y="219.3" fill="#2A3F5F"/><g fill="#2A3F5F"><use xlink:href="#o" x="275.766" y="219.3"/><use xlink:href="#p" x="281.488" y="219.3"/><use xlink:href="#r" x="284.762" y="219.3"/></g><g fill="#2A3F5F"><use xlink:href="#o" x="352.641" y="219.3"/><use xlink:href="#p" x="358.363" y="219.3"/><use xlink:href="#q" x="361.637" y="219.3"/></g><path fill="none" stroke="#444" stroke-width=".75" d="M51.75 204H48m3.75-47.625H48m3.75-47.625H48m3.75-47.625H48M51.75 13.5H48"/><use xlink:href="#o" x="40.478" y="207.15" fill="#2A3F5F"/><g fill="#2A3F5F"><use xlink:href="#o" x="25.761" y="159.525"/><use xlink:href="#p" x="31.483" y="159.525"/><use xlink:href="#o" x="34.757" y="159.525"/><use xlink:href="#s" x="40.478" y="159.525"/></g><g fill="#2A3F5F"><use xlink:href="#o" x="31.483" y="111.9"/><use xlink:href="#p" x="37.204" y="111.9"/><use xlink:href="#r" x="40.478" y="111.9"/></g><g fill="#2A3F5F"><use xlink:href="#o" x="25.761" y="64.275"/><use xlink:href="#p" x="31.483" y="64.275"/><use xlink:href="#r" x="34.757" y="64.275"/><use xlink:href="#s" x="40.478" y="64.275"/></g><g fill="#2A3F5F"><use xlink:href="#o" x="31.483" y="16.65"/><use xlink:href="#p" x="37.204" y="16.65"/><use xlink:href="#q" x="40.478" y="16.65"/></g><path fill="none" stroke="#2A3F5F" stroke-width="1.5" d="M321.563 188.762h30.75v5.715h-30.75Zm0 0"/><g fill="#2A3F5F"><use xlink:href="#t" x="60.15" y="120.84"/><use xlink:href="#u" x="70.101" y="120.84"/><use xlink:href="#v" x="78.253" y="120.84"/><use xlink:href="#w" x="85.851" y="120.84"/></g><g fill="#2A3F5F"><use xlink:href="#x" x="88.65" y="135.225"/><use xlink:href="#y" x="94.82" y="135.225"/><use xlink:href="#z" x="100.225" y="135.225"/><use xlink:href="#A" x="103.772" y="135.225"/><use xlink:href="#B" x="108.461" y="135.225"/><use xlink:href="#C" x="114.156" y="135.225"/><use xlink:href="#s" x="117.32" y="135.225"/></g><path fill="#EF553B" d="M62.398 130.965h2.25v1.5h-2.25m4.5-1.5h2.25v1.5h-2.25m4.5-1.5h2.25v1.5h-2.25m4.5-1.5h2.25v1.5h-2.25m4.5-1.5h2.25v1.5h-2.25"/><g fill="#2A3F5F"><use xlink:href="#x" x="88.65" y="149.475"/><use xlink:href="#y" x="94.82" y="149.475"/><use xlink:href="#z" x="100.225" y="149.475"/><use xlink:href="#A" x="103.772" y="149.475"/><use xlink:href="#B" x="108.461" y="149.475"/><use xlink:href="#C" x="114.156" y="149.475"/><use xlink:href="#D" x="117.32" y="149.475"/></g><path fill="#00CC96" d="M62.398 145.215h6.75v1.5h-6.75m13.5-1.5h6.75v1.5h-6.75"/><g fill="#2A3F5F"><use xlink:href="#x" x="88.65" y="163.725"/><use xlink:href="#y" x="94.82" y="163.725"/><use xlink:href="#z" x="100.225" y="163.725"/><use xlink:href="#A" x="103.772" y="163.725"/><use xlink:href="#B" x="108.461" y="163.725"/><use xlink:href="#C" x="114.156" y="163.725"/><use xlink:href="#E" x="117.32" y="163.725"/></g><path fill="#AB63FA" d="M62.398 159.465h11.25v1.5h-11.25"/><g fill="#2A3F5F"><use xlink:href="#x" x="88.65" y="177.975"/><use xlink:href="#y" x="94.82" y="177.975"/><use xlink:href="#z" x="100.225" y="177.975"/><use xlink:href="#A" x="103.772" y="177.975"/><use xlink:href="#B" x="108.461" y="177.975"/><use xlink:href="#C" x="114.156" y="177.975"/><use xlink:href="#q" x="117.32" y="177.975"/></g><path fill="#FFA15A" d="M62.398 173.715h6.75v1.5h-6.75m9-1.5h2.25v1.5h-2.25m4.5-1.5h6.75v1.5h-6.75"/><g fill="#2A3F5F"><use xlink:href="#x" x="88.65" y="192.225"/><use xlink:href="#y" x="94.82" y="192.225"/><use xlink:href="#z" x="100.225" y="192.225"/><use xlink:href="#A" x="103.772" y="192.225"/><use xlink:href="#B" x="108.461" y="192.225"/><use xlink:href="#C" x="114.156" y="192.225"/><use xlink:href="#r" x="117.32" y="192.225"/></g><path fill="#19D3F3" d="M62.398 187.965h11.25v1.5h-11.25m15.75-1.5h2.25v1.5h-2.25"/><g fill="#2A3F5F"><use xlink:href="#F" x="148.045" y="239.405"/><use xlink:href="#G" x="154.684" y="239.405"/></g><g fill="#2A3F5F"><use xlink:href="#H" x="154.684" y="241.61"/><use xlink:href="#I" x="159.098" y="241.61"/></g><use xlink:href="#J" x="163.678" y="241.61" fill="#2A3F5F"/><use xlink:href="#K" x="168.139" y="241.61" fill="#2A3F5F"/><g fill="#2A3F5F"><use xlink:href="#L" x="172.488" y="241.61"/><use xlink:href="#M" x="176.867" y="241.61"/><use xlink:href="#N" x="179.451" y="241.61"/></g><g fill="#2A3F5F"><use xlink:href="#O" x="185.645" y="241.61"/><use xlink:href="#M" x="190.078" y="241.61"/><use xlink:href="#P" x="192.662" y="241.61"/></g><use xlink:href="#Q" x="197.313" y="241.61" fill="#2A3F5F"/><use xlink:href="#R" x="201.964" y="241.61" fill="#2A3F5F"/><use xlink:href="#R" x="203.981" y="241.61" fill="#2A3F5F"/><use xlink:href="#G" x="205.998" y="239.405" fill="#2A3F5F"/><g fill="#2A3F5F"><use xlink:href="#G" x="205.998" y="239.405"/><use xlink:href="#S" x="209.689" y="239.405"/><use xlink:href="#T" x="214.457" y="239.405"/><use xlink:href="#U" x="220.712" y="239.405"/><use xlink:href="#V" x="227.89" y="239.405"/><use xlink:href="#W" x="232.658" y="239.405"/><use xlink:href="#X" x="238.964" y="239.405"/><use xlink:href="#Y" x="243.101" y="239.405"/><use xlink:href="#Z" x="249.474" y="239.405"/><use xlink:href="#aa" x="259.687" y="239.405"/></g><g fill="#2A3F5F"><use xlink:href="#ab" x="10.5" y="168.91"/><use xlink:href="#ac" x="10.5" y="161.609"/><use xlink:href="#ad" x="10.5" y="155.236"/><use xlink:href="#ad" x="10.5" y="152.355"/><use xlink:href="#ae" x="10.5" y="149.473"/><use xlink:href="#af" x="10.5" y="146.592"/><use xlink:href="#ag" x="10.5" y="139.948"/><use xlink:href="#ah" x="10.5" y="133.406"/><use xlink:href="#ai" x="10.5" y="129.714"/><use xlink:href="#aj" x="10.5" y="120.865"/><use xlink:href="#ak" x="10.5" y="113.687"/><use xlink:href="#ah" x="10.5" y="107.048"/><use xlink:href="#al" x="10.5" y="103.356"/><use xlink:href="#am" x="10.5" y="98.588"/><use xlink:href="#an" x="10.5" y="92.333"/><use xlink:href="#ao" x="10.5" y="85.156"/><use xlink:href="#ap" x="10.5" y="80.388"/><use xlink:href="#aq" x="10.5" y="74.082"/><use xlink:href="#ac" x="10.5" y="69.944"/><use xlink:href="#ar" x="10.5" y="63.571"/><use xlink:href="#as" x="10.5" y="53.358"/></g><g fill="#2A3F5F"><use xlink:href="#at" x="170.263" y="81"/><use xlink:href="#au" x="177.848" y="81"/><use xlink:href="#av" x="184" y="81"/><use xlink:href="#C" x="189.691" y="81"/><use xlink:href="#aw" x="192.855" y="81"/><use xlink:href="#C" x="200.22" y="81"/><use xlink:href="#ax" x="203.384" y="81"/><use xlink:href="#av" x="207.471" y="81"/><use xlink:href="#C" x="213.162" y="81"/></g><use xlink:href="#ay" x="213.162" y="82.89" fill="#2A3F5F"/><use xlink:href="#az" x="217.144" y="82.89" fill="#2A3F5F"/><use xlink:href="#aA" x="221.126" y="82.89" fill="#2A3F5F"/><use xlink:href="#aA" x="222.853" y="82.89" fill="#2A3F5F"/><use xlink:href="#aB" x="224.58" y="82.89" fill="#2A3F5F"/><use xlink:href="#aC" x="226.792" y="82.89" fill="#2A3F5F"/><use xlink:href="#aD" x="230.712" y="82.89" fill="#2A3F5F"/><use xlink:href="#aE" x="232.439" y="82.89" fill="#2A3F5F"/><use xlink:href="#aF" x="235.718" y="82.89" fill="#2A3F5F"/><use xlink:href="#ax" x="238.197" y="81" fill="#2A3F5F"/><g fill="#2A3F5F"><use xlink:href="#aG" x="210.003" y="195"/><use xlink:href="#aH" x="213.844" y="195"/><use xlink:href="#aI" x="219.306" y="195"/><use xlink:href="#aI" x="221.776" y="195"/><use xlink:href="#aJ" x="224.246" y="195"/><use xlink:href="#aK" x="226.715" y="195"/><use xlink:href="#aL" x="232.411" y="195"/><use xlink:href="#C" x="238.018" y="195"/><use xlink:href="#aM" x="241.182" y="195"/><use xlink:href="#aJ" x="248.547" y="195"/><use xlink:href="#aK" x="251.017" y="195"/><use xlink:href="#aN" x="256.712" y="195"/><use xlink:href="#aH" x="262.32" y="195"/><use xlink:href="#aM" x="267.782" y="195"/><use xlink:href="#aO" x="275.147" y="195"/><use xlink:href="#D" x="282.513" y="195"/><use xlink:href="#o" x="288.234" y="195"/><use xlink:href="#C" x="293.956" y="195"/><use xlink:href="#aP" x="297.12" y="195"/><use xlink:href="#aQ" x="305.874" y="195"/><use xlink:href="#aR" x="311.235" y="195"/></g></svg>