<svg xmlns="http://www.w3.org/2000/svg" xmlns:xlink="http://www.w3.org/1999/xlink" width="375.12" height="247.92"><defs><path id="n" d="M6.406-2.516H.97v-.703h5.437Zm0 0"/><path id="o" d="M5.125-3.281q-.001 1.769-.547 2.594C4.211-.133 3.641.14 2.86.14Q1.687.142 1.141-.687.608-1.531.609-3.266q-.002-1.746.547-2.578.545-.827 1.703-.828 1.186 0 1.72.844c.362.562.546 1.414.546 2.547m-1.156 2c.101-.239.172-.516.203-.828q.06-.48.062-1.172a10 10 0 0 0-.062-1.14 2.7 2.7 0 0 0-.203-.845 1.2 1.2 0 0 0-.422-.515c-.18-.114-.406-.172-.688-.172a1.3 1.3 0 0 0-.687.172q-.27.176-.422.515a3 3 0 0 0-.203.86 13 13 0 0 0-.047 1.14q0 .69.047 1.157.046.455.203.812.14.344.406.531c.176.118.41.172.703.172.282 0 .508-.054.688-.172q.28-.17.422-.515m0 0"/><path id="p" d="M2.156 0H1.11v-1.25h1.047Zm0 0"/><path id="q" d="M5.14 0H.704v-.922c.313-.258.617-.52.922-.781q.467-.404.875-.797c.563-.54.945-.973 1.156-1.297q.312-.48.313-1.031-.002-.516-.344-.797c-.219-.195-.531-.297-.937-.297q-.392 0-.86.14a3.3 3.3 0 0 0-.906.438H.875v-.922a4.3 4.3 0 0 1 .828-.28q.514-.142 1.016-.141.998 0 1.562.5.576.486.578 1.312 0 .375-.093.703-.095.316-.282.61-.174.269-.406.53-.22.27-.547.579a27 27 0 0 1-.984.906c-.336.281-.64.547-.922.797h3.516Zm0 0"/><path id="r" d="M4.766 0H1.219v-.672h1.36v-4.375h-1.36v-.61q.28 0 .593-.046a1.8 1.8 0 0 0 .485-.125.8.8 0 0 0 .312-.281.85.85 0 0 0 .141-.453h.672v5.89h1.344Zm0 0"/><path id="s" d="M5.078-2.078c0 .305-.058.594-.172.875a1.9 1.9 0 0 1-.453.703q-.315.315-.75.484a3.1 3.1 0 0 1-1.015.157Q2.154.14 1.656.016A4 4 0 0 1 .828-.25v-.922h.063c.238.156.515.29.828.39q.482.158.953.157c.207 0 .41-.023.61-.078.195-.063.366-.164.515-.313a1.1 1.1 0 0 0 .297-.453q.093-.264.093-.61a1.24 1.24 0 0 0-.125-.577.95.95 0 0 0-.312-.375 1.45 1.45 0 0 0-.547-.219 3.3 3.3 0 0 0-.734-.078q-.393.002-.75.062-.364.048-.61.094v-3.375h3.938v.766H1.953v1.75q.188-.014.375-.016.2-.014.36-.016.528 0 .921.094c.27.055.516.156.735.313q.358.236.547.625.187.377.187.953m0 0"/><path id="A" d="M5.813-2.016A1.9 1.9 0 0 1 5.14-.53q-.377.282-.828.406-.441.127-1.11.125H.875v-6.547h1.938c.476 0 .835.024 1.078.063q.358.047.687.218c.238.125.41.29.516.485.101.199.156.433.156.703q0 .468-.234.797a1.7 1.7 0 0 1-.625.531v.031q.655.128 1.03.578.39.458.391 1.125m-1.47-2.953a.9.9 0 0 0-.077-.39.6.6 0 0 0-.25-.266 1.1 1.1 0 0 0-.5-.14 8 8 0 0 0-.735-.032H1.75v1.89h1.125q.406 0 .64-.046.248-.045.454-.172a.77.77 0 0 0 .281-.344q.094-.2.094-.5m.563 2.985c0-.258-.043-.47-.125-.625Q4.67-2.844 4.36-3a1.5 1.5 0 0 0-.515-.14 8 8 0 0 0-.735-.032H1.75V-.75h1.156q.56 0 .922-.047.375-.06.61-.219.247-.169.359-.39c.07-.145.11-.336.11-.578m0 0"/><path id="B" d="M4.625 0h-.812v-.516q-.111.064-.297.204-.187.126-.375.218a2.6 2.6 0 0 1-.47.157Q2.404.14 2.048.14q-.673 0-1.14-.438Q.45-.747.452-1.422q0-.562.235-.906.247-.341.687-.547.45-.186 1.078-.25.62-.077 1.36-.125v-.125a.86.86 0 0 0-.11-.453.7.7 0 0 0-.281-.297A1.1 1.1 0 0 0 3-4.265a3.3 3.3 0 0 0-1.25.063 6 6 0 0 0-.812.233H.89v-.828a6 6 0 0 1 .703-.156q.45-.077.89-.078a3.8 3.8 0 0 1 .907.093c.257.055.484.149.672.282q.281.203.421.531.141.316.141.797Zm-.812-1.203v-1.375l-.907.078q-.503.033-.797.125a1.23 1.23 0 0 0-.578.313c-.148.136-.218.328-.218.578q-.001.422.25.64.247.204.78.203.434.001.798-.156.355-.17.672-.406m0 0"/><path id="C" d="M3.36-.047a4 4 0 0 1-.516.094q-.269.047-.485.047-.752.002-1.14-.406Q.828-.718.829-1.61v-2.61H.265v-.687h.562v-1.407h.828v1.407H3.36v.687H1.656v2.235q-.001.391.016.609.012.22.125.406a.62.62 0 0 0 .266.266c.113.055.285.078.515.078q.2 0 .422-.062.218-.059.313-.094h.046Zm0 0"/><path id="D" d="M4.438-.312A4.5 4.5 0 0 1 3.656 0c-.25.07-.511.11-.781.11a3 3 0 0 1-.984-.157 1.9 1.9 0 0 1-.75-.469 2 2 0 0 1-.5-.796c-.118-.32-.172-.704-.172-1.141q0-1.2.656-1.875.656-.687 1.75-.688.42.001.828.125.406.112.735.282v.906h-.032a3.7 3.7 0 0 0-.797-.438 2 2 0 0 0-.78-.171q-.705.002-1.11.484c-.274.312-.407.773-.407 1.375 0 .594.13 1.055.391 1.375q.405.469 1.125.469.246 0 .516-.063.264-.06.469-.172.17-.093.328-.187.17-.105.265-.188h.032Zm0 0"/><path id="E" d="M4.922 0h-.828v-2.797a4 4 0 0 0-.047-.64 1.05 1.05 0 0 0-.14-.454.7.7 0 0 0-.313-.28 1.3 1.3 0 0 0-.547-.095q-.328.001-.703.172a4.7 4.7 0 0 0-.703.422V0H.813v-6.844h.828v2.485a3 3 0 0 1 .797-.5q.42-.188.843-.188.797.002 1.219.484.422.471.422 1.375Zm0 0"/><path id="G" d="M5.281-1.844h-.968V0h-.844v-1.844H.344v-1.015L3.5-6.547h.813v4h.968ZM3.47-2.547V-5.5L.938-2.547Zm0 0"/><path id="H" d="M4.563-3.156c.132.125.25.289.343.484q.14.283.14.735 0 .454-.171.828A2.06 2.06 0 0 1 3.641 0q-.44.14-.97.14-.55 0-1.077-.141a4.6 4.6 0 0 1-.86-.281v-.922h.063q.373.252.875.422.516.157.984.156c.188 0 .383-.031.594-.094q.311-.091.5-.265.201-.2.297-.422c.07-.157.11-.352.11-.594q-.001-.357-.126-.578a1 1 0 0 0-.297-.375 1.4 1.4 0 0 0-.484-.172 3 3 0 0 0-.61-.062h-.39v-.735h.297q.668.002 1.062-.265c.27-.188.407-.461.407-.829a.77.77 0 0 0-.11-.406.75.75 0 0 0-.265-.297 1.5 1.5 0 0 0-.407-.156 2.3 2.3 0 0 0-.484-.047c-.281 0-.578.055-.89.156q-.47.141-.891.422H.922v-.922a4.3 4.3 0 0 1 .828-.28q.528-.142 1.016-.141.48 0 .843.093.358.095.657.282.31.222.468.515.171.3.172.688c0 .367-.133.683-.39.953a1.64 1.64 0 0 1-.907.515v.063q.216.034.485.156.28.112.468.266m0 0"/><path id="aw" d="M6.703 0h-.86v-5.64L4.017-1.798H3.5L1.688-5.64V0H.875v-6.547h1.188l1.75 3.64L5.5-6.546h1.203Zm0 0"/><path id="ax" d="M6.031 0H5.11l-.64-1.828H1.64L1 0H.11L2.5-6.547h1.156ZM4.203-2.578 3.047-5.781l-1.14 3.203Zm0 0"/><path id="ay" d="M5.188 0H.875v-6.547h4.313v.781H1.75v1.782h3.438v.78H1.75V-.78h3.438Zm0 0"/><path id="az" d="M6.25-2.594 1.172-.344v-.781l4-1.734-4-1.735v-.797L6.25-3.14Zm0 0"/><path id="aA" d="M2.422 1.719h-.766v-8.563h.766Zm0 0"/><path id="aJ" d="M3.875-4.016h-.047a7 7 0 0 0-.36-.046 2.5 2.5 0 0 0-.405-.032 1.7 1.7 0 0 0-.735.172 3.6 3.6 0 0 0-.687.438V0H.813v-4.906h.828v.718c.32-.257.609-.44.859-.546q.388-.171.781-.172c.133 0 .235.008.297.015.07 0 .172.012.297.032Zm0 0"/><path id="aK" d="M5-2.453c0 .805-.21 1.437-.625 1.906q-.61.69-1.64.688-1.048.002-1.657-.688c-.406-.469-.61-1.101-.61-1.906q0-1.2.61-1.89.608-.704 1.656-.704 1.032 0 1.641.703c.414.461.625 1.09.625 1.89m-.86 0q0-.95-.374-1.406-.375-.47-1.032-.47-.672 0-1.046.47-.375.456-.375 1.406 0 .926.375 1.406.374.47 1.046.469.657 0 1.032-.469t.375-1.406m0 0"/><path id="aL" d="M1.64 0H.829v-6.844h.813Zm0 0"/><path id="aM" d="M1.703-5.734H.766v-.86h.937ZM1.641 0H.828v-4.906h.813Zm0 0"/><path id="aN" d="M4.922 0h-.828v-2.797a4 4 0 0 0-.047-.64 1.05 1.05 0 0 0-.14-.454.7.7 0 0 0-.313-.28 1.3 1.3 0 0 0-.547-.095q-.328.001-.703.172a4.7 4.7 0 0 0-.703.422V0H.813v-4.906h.828v.547a3 3 0 0 1 .797-.5q.42-.188.843-.188.797.002 1.219.484.422.471.422 1.375Zm0 0"/><path id="aO" d="M4.797-.562Q4.795.685 4.219 1.266q-.562.592-1.735.593-.39-.002-.765-.062a4.6 4.6 0 0 1-.735-.156V.797h.047q.2.093.64.203c.29.07.583.11.876.11q.421 0 .703-.094a.95.95 0 0 0 .438-.282Q3.84.56 3.906.313q.062-.234.063-.532v-.453q-.377.3-.719.453-.344.14-.86.14Q1.5-.076.985-.702.47-1.341.47-2.5c0-.426.054-.79.172-1.094.125-.3.289-.566.5-.797a1.9 1.9 0 0 1 .687-.484q.404-.17.813-.172.435 0 .718.094.282.082.61.25l.047-.203h.78Zm-.828-.782V-4.03a3.6 3.6 0 0 0-.61-.203 3 3 0 0 0-.562-.063q-.691 0-1.078.453-.391.456-.39 1.328 0 .831.28 1.25.295.423.97.422.355.002.718-.125.374-.141.672-.375m0 0"/><path id="aP" d="M6.984-4.906 5.704 0h-.766l-1.25-3.781L2.438 0h-.766L.375-4.906h.86L2.14-1.11l1.218-3.797h.688l1.25 3.797.86-3.797Zm0 0"/><path id="aQ" d="M4.797 0h-.828v-.516a3 3 0 0 1-.75.485q-.377.17-.828.172Q1.5.14.984-.531.47-1.216.47-2.421c0-.415.054-.786.172-1.11.125-.32.289-.598.5-.828a2 2 0 0 1 .687-.5q.406-.188.828-.188.388 0 .688.094c.195.055.406.133.625.234v-2.125h.828Zm-.828-1.203v-2.828a4 4 0 0 0-.594-.203 2.7 2.7 0 0 0-.578-.063q-.705.002-1.094.484-.375.486-.375 1.376 0 .877.297 1.328c.195.304.516.453.953.453q.357 0 .719-.156a3.3 3.3 0 0 0 .672-.391m0 0"/><path id="aR" d="M6.281-3.437H1.078v-.704h5.203Zm0 1.843H1.078v-.703h5.203Zm0 0"/><path id="aS" d="M7.969 0h-.813v-2.797q0-.31-.031-.61A1.4 1.4 0 0 0 7-3.874a.6.6 0 0 0-.297-.281c-.125-.07-.305-.11-.531-.11q-.364 0-.703.188-.346.175-.688.437.014.094.016.235.014.127.016.265V0h-.829v-2.797q0-.328-.03-.61a1.4 1.4 0 0 0-.126-.468.6.6 0 0 0-.281-.281c-.125-.07-.309-.11-.547-.11q-.346.001-.687.172a6 6 0 0 0-.672.422V0H.813v-4.906h.828v.547c.257-.22.515-.383.765-.5q.388-.188.828-.188.498 0 .844.219.357.204.516.578.513-.421.922-.61.404-.186.89-.187.797.001 1.172.5.388.486.39 1.36Zm0 0"/><path id="aT" d="M4.922-2.375h-3.61q-.001.457.125.797.142.329.375.547c.157.148.336.258.547.328q.312.094.688.094.497 0 1-.188.514-.2.734-.406h.047v.906q-.423.175-.86.297c-.292.07-.593.11-.905.11q-1.22 0-1.907-.657Q.468-1.202.47-2.422q0-1.201.656-1.906.657-.717 1.734-.719.984.002 1.516.578.546.58.547 1.657ZM4.125-3q-.017-.655-.344-1-.313-.359-.969-.36c-.449 0-.804.133-1.062.391A1.5 1.5 0 0 0 1.313-3Zm0 0"/><path id="aU" d="M6.031-6.547 3.656 0H2.5L.11-6.547h.937L3.094-.78l2.062-5.766Zm0 0"/><path id="t" d="M11.516-7.64 9.453 0H7.281L5.906-4.969 4.578 0H2.391L.344-7.64H2.39l1.172 5.265 1.406-5.266h1.968L8.28-2.375 9.5-7.641Zm0 0"/><path id="u" d="M5.047-4h-.172q-.112-.045-.375-.062-.269-.014-.437-.016-.393 0-.704.047-.3.048-.64.172V0H.875v-5.75h1.844v.844q.607-.528 1.062-.703.452-.171.828-.172c.063 0 .133.008.22.015.081 0 .155.008.218.016Zm0 0"/><path id="v" d="M6.547-2.531H2.313q.046.674.515 1.031.481.361 1.406.36.575 0 1.125-.204.547-.216.875-.468h.204v1.484q-.626.253-1.188.36a5.6 5.6 0 0 1-1.219.124Q2.296.158 1.375-.625.451-1.404.453-2.844q-.001-1.418.875-2.25.873-.843 2.39-.843 1.407.002 2.11.718.717.705.719 2.032ZM4.703-3.625q-.017-.576-.297-.86c-.18-.195-.453-.296-.828-.296q-.534 0-.875.281-.345.268-.39.875Zm0 0"/><path id="w" d="M6.656 0h-1.86v-2.86a8 8 0 0 0-.03-.687q-.034-.34-.125-.515a.63.63 0 0 0-.313-.266q-.188-.094-.547-.094-.252 0-.515.078a2.4 2.4 0 0 0-.547.266V0H.875v-5.75h1.844v.625q.48-.374.937-.578.452-.218 1.016-.219.938.001 1.453.547.53.548.531 1.625Zm0 0"/><path id="x" d="M4.61-6.625h-.141l-.328-.078a1.7 1.7 0 0 0-.422-.047q-.549.002-.735.203-.187.188-.187.75v.047h1.422v1.25h-1.36V0H1.016v-4.5H.219v-1.25h.797v-.172q0-1.044.562-1.578.563-.53 1.688-.531.42 0 .75.031.326.033.593.078Zm0 0"/><path id="y" d="M6.75-2.875q0 1.425-.828 2.234-.831.814-2.313.813-1.5 0-2.328-.813-.83-.81-.828-2.234-.001-1.435.828-2.25c.563-.54 1.336-.812 2.328-.812q1.5 0 2.313.828.827.816.828 2.234m-2.266 1.39Q4.67-1.7 4.75-2q.094-.31.094-.86 0-.514-.094-.859a1.7 1.7 0 0 0-.25-.547 1.1 1.1 0 0 0-.406-.296 1.2 1.2 0 0 0-.485-.094q-.269 0-.484.078a1.1 1.1 0 0 0-.39.281q-.177.205-.282.563-.094.346-.094.875c0 .312.024.586.079.812q.091.345.265.563.169.187.39.28.235.095.532.095.246.002.469-.079a.9.9 0 0 0 .39-.296m0 0"/><path id="z" d="M6.5-4.078V0H4.64v-2.875q-.002-.421-.015-.719a1.3 1.3 0 0 0-.11-.484.57.57 0 0 0-.28-.25q-.19-.094-.532-.094c-.18 0-.355.04-.531.11q-.253.111-.453.234V0H.875v-5.75h1.844v.625q.467-.374.906-.578a2.14 2.14 0 0 1 .969-.219q.561.001 1 .266.435.253.687.734a5.7 5.7 0 0 1 1.063-.734 2.3 2.3 0 0 1 1.031-.266q.937 0 1.422.563.482.564.484 1.609V0h-1.86v-2.875q-.002-.421-.015-.719a1.3 1.3 0 0 0-.11-.484.5.5 0 0 0-.28-.25q-.19-.094-.532-.094c-.148 0-.296.027-.453.078-.148.055-.324.14-.531.266m0 0"/><path id="I" d="M6.063 0H1.03v-7.64h5.032v.906H2.047v2.093h4.015v.907H2.048v2.828h4.015Zm0 0"/><path id="V" d="M4.016 2.11H2.844A8.2 8.2 0 0 1 1.422-.157c-.336-.82-.5-1.75-.5-2.781 0-1.02.164-1.942.5-2.766a8.5 8.5 0 0 1 1.422-2.281h1.172v.062a6.5 6.5 0 0 0-.797.86q-.376.485-.703 1.14-.301.628-.5 1.39a6.6 6.6 0 0 0-.188 1.595q0 .877.188 1.609.186.736.5 1.39.31.622.703 1.126.405.513.797.875Zm0 0"/><path id="W" d="M5.75-2.766H1.516q-.001.535.156.922.171.394.453.64.263.253.625.376c.25.086.52.125.813.125q.574 0 1.171-.235.592-.234.844-.468h.047v1.062q-.485.204-1 .344c-.336.094-.687.14-1.062.14Q2.14.143 1.342-.624q-.795-.78-.796-2.203-.001-1.405.766-2.234.761-.828 2.015-.829 1.154 0 1.781.688.64.675.641 1.922ZM4.797-3.5q0-.761-.375-1.172c-.25-.281-.633-.422-1.14-.422-.524 0-.938.157-1.25.469q-.457.457-.516 1.125Zm0 0"/><path id="X" d="M7.047-7.64 4.266 0h-1.36L.141-7.64h1.078l2.39 6.718L6.016-7.64Zm0 0"/><path id="Y" d="M4.406-7.984.734 1.563h-.89L3.5-7.985Zm0 0"/><path id="Z" d="M5.406 0h-.968v-.61c-.086.063-.2.15-.344.25a2 2 0 0 1-.422.235 2.4 2.4 0 0 1-.563.203q-.315.077-.718.078c-.524 0-.965-.164-1.328-.5Q.53-.859.53-1.656q0-.655.282-1.063.281-.403.796-.625.529-.233 1.25-.312a19 19 0 0 1 1.579-.125v-.156q-.001-.328-.125-.532A.9.9 0 0 0 4-4.812a1.4 1.4 0 0 0-.5-.157 3.6 3.6 0 0 0-.594-.047c-.261 0-.547.04-.86.11a6 6 0 0 0-.952.281h-.047v-.984q.28-.075.812-.157a6 6 0 0 1 1.047-.093q.608 0 1.047.093.452.096.781.344c.22.156.383.36.5.61q.171.376.172.921Zm-.968-1.406V-3q-.439.02-1.047.078-.598.047-.938.14-.409.13-.672.376-.251.25-.25.672 0 .504.297.75c.195.168.5.25.906.25q.5 0 .922-.203a4.6 4.6 0 0 0 .781-.47m0 0"/><path id="aa" d="M3.922-.047c-.18.043-.375.078-.594.11q-.316.046-.562.046-.892 0-1.344-.468C1.117-.672.969-1.176.969-1.875v-3.047H.313v-.812h.656v-1.641h.969v1.64h1.984v.813H1.937v2.61q-.001.455.016.718a1 1 0 0 0 .14.469.64.64 0 0 0 .313.297q.2.094.61.094.233 0 .484-.063.263-.077.375-.125h.047Zm0 0"/><path id="ab" d="M5.828-2.86Q5.826-1.464 5.11-.655q-.72.813-1.921.812-1.221 0-1.938-.812-.703-.81-.703-2.203 0-1.405.703-2.22c.477-.538 1.125-.812 1.938-.812.8 0 1.44.274 1.921.813.477.543.72 1.281.72 2.219m-1 0q-.002-1.106-.437-1.656-.424-.545-1.203-.546-.786 0-1.22.546-.437.55-.437 1.657 0 1.077.438 1.64.433.549 1.219.547.762.002 1.203-.547.435-.563.437-1.64m0 0"/><path id="ac" d="M9.313 0h-.97v-3.266q0-.357-.03-.703a1.6 1.6 0 0 0-.141-.547.8.8 0 0 0-.344-.343c-.148-.07-.36-.11-.64-.11q-.41.002-.813.203a5.5 5.5 0 0 0-.797.516c.008.086.016.18.016.281q.013.157.015.297V0h-.968v-3.266q-.001-.374-.032-.718a1.6 1.6 0 0 0-.14-.547.72.72 0 0 0-.344-.328c-.148-.07-.355-.11-.625-.11a1.8 1.8 0 0 0-.797.203c-.262.125-.527.29-.797.485V0H.953v-5.734h.953v.64q.45-.374.907-.578.45-.218.953-.219.59.002 1 .25a1.6 1.6 0 0 1 .609.688q.575-.497 1.063-.719a2.5 2.5 0 0 1 1.03-.219c.626 0 1.087.196 1.391.579q.453.563.454 1.593Zm0 0"/><path id="ad" d="M3.844-2.937c0 1.03-.172 1.96-.516 2.78A8 8 0 0 1 1.922 2.11H.75v-.046a6.3 6.3 0 0 0 .797-.876A7 7 0 0 0 2.25.063c.207-.438.375-.899.5-1.391a6.5 6.5 0 0 0 .188-1.61q0-.843-.188-1.593a6.8 6.8 0 0 0-1.203-2.532q-.375-.482-.797-.859v-.062h1.172q.902 1.05 1.406 2.28.516 1.238.516 2.766m0 0"/><path id="K" d="M3.781 0H3.11v-.422l-.25.172a1.6 1.6 0 0 1-.296.172 1.5 1.5 0 0 1-.376.125q-.222.06-.515.062Q1.123.111.75-.25a1.2 1.2 0 0 1-.375-.906q0-.47.188-.75.198-.28.562-.438.358-.153.875-.219c.344-.039.71-.066 1.11-.078v-.109a.67.67 0 0 0-.094-.375.6.6 0 0 0-.22-.234.73.73 0 0 0-.343-.11 3 3 0 0 0-.422-.031c-.18 0-.375.027-.594.078a4.6 4.6 0 0 0-.671.188H.734v-.688q.188-.045.563-.11c.25-.05.492-.077.734-.077q.42 0 .735.078.311.064.547.234.233.175.343.438.124.253.125.64ZM3.11-.984v-1.11q-.314.018-.734.047a3.3 3.3 0 0 0-.656.11q-.299.08-.485.25c-.117.117-.171.277-.171.484q-.001.345.203.516c.144.117.359.171.64.171q.358 0 .657-.14.293-.14.546-.328m0 0"/><path id="L" d="M4.188-2.031q0 .502-.141.906a2.2 2.2 0 0 1-.375.672q-.269.28-.578.422c-.2.09-.418.14-.656.14q-.346 0-.61-.078a2.2 2.2 0 0 1-.484-.218L1.297 0h-.64v-5.578h.687v2q.28-.234.593-.375.329-.155.72-.156c.468 0 .835.183 1.109.547q.421.534.422 1.53m-.688.015q-.002-.714-.25-1.078c-.156-.25-.414-.375-.766-.375a1.6 1.6 0 0 0-.593.125q-.3.13-.547.328V-.72c.187.086.347.14.484.172q.2.047.469.047c.375 0 .664-.117.875-.36.219-.25.328-.632.328-1.156m0 0"/><path id="M" d="M4.078-2q-.001.984-.5 1.547c-.336.375-.781.562-1.344.562Q1.373.11.875-.453C.539-.828.375-1.343.375-2s.164-1.172.5-1.547q.498-.562 1.36-.562c.562 0 1.007.187 1.343.562q.499.562.5 1.547m-.703 0q0-.78-.312-1.156-.3-.375-.829-.375-.55 0-.859.375Q1.077-2.78 1.078-2c0 .5.098.883.297 1.14q.31.392.86.391.527 0 .828-.375.311-.388.312-1.156m0 0"/><path id="N" d="M4.125-4 2.5 0h-.672L.218-4h.735L2.188-.812 3.422-4Zm0 0"/><path id="O" d="M4.016-1.937H1.063q-.001.374.109.656.106.269.312.437.187.174.438.266c.176.055.363.078.562.078q.404.001.813-.156.421-.17.61-.328h.03v.734q-.345.157-.703.25-.346.094-.734.094-1 0-1.562-.531Q.375-.983.375-1.984q0-.985.531-1.547.544-.576 1.422-.578.81 0 1.25.468.437.47.438 1.344Zm-.657-.516q-.001-.53-.265-.813-.27-.294-.797-.296-.549 0-.875.328c-.211.21-.328.468-.36.78Zm0 0"/><path id="Q" d="M5.469 0h-.703v-4.594L3.28-1.469h-.42L1.375-4.594V0H.719v-5.344h.969l1.421 2.985 1.375-2.985h.985Zm0 0"/><path id="R" d="M4.203-3.719q-.001.346-.125.656-.11.3-.344.516-.27.281-.656.422-.375.14-.937.14h-.72V0H.72v-5.344h1.453q.468 0 .797.094.34.082.61.25a1.4 1.4 0 0 1 .452.516q.171.298.172.765m-.734.016q0-.28-.094-.485a.8.8 0 0 0-.297-.328 1.1 1.1 0 0 0-.39-.171 3 3 0 0 0-.563-.047h-.703v2.14h.61c.28 0 .507-.023.687-.078a.9.9 0 0 0 .437-.25.95.95 0 0 0 .235-.36q.076-.187.078-.421m0 0"/><path id="S" d="M4.016 0h-.672v-2.281q-.001-.282-.031-.516c-.024-.164-.063-.289-.126-.375a.52.52 0 0 0-.265-.219 1 1 0 0 0-.438-.078c-.18 0-.37.047-.578.14q-.298.129-.562.345V0H.656v-5.578h.688v2.016a2.6 2.6 0 0 1 .64-.407q.34-.14.704-.14.637.002.984.39c.226.262.344.637.344 1.125Zm0 0"/><path id="T" d="M3.984 0h-.671v-.437c-.231.18-.45.312-.657.406-.21.09-.437.14-.687.14q-.627 0-.985-.375c-.23-.257-.343-.64-.343-1.14V-4h.672v2.281q-.002.3.015.516.031.222.125.375a.7.7 0 0 0 .25.234q.154.064.453.063.263.001.578-.125c.207-.094.399-.211.579-.36V-4h.671Zm0 0"/><path id="U" d="M1.344 0H.672v-5.578h.672Zm0 0"/><path id="ae" d="M0-7.344v1.313L-3.031-3.47v1.422H0v1.016h-7.64v-2.125q0-.702.093-1.156a2.4 2.4 0 0 1 .328-.829q.252-.421.657-.656.39-.234 1-.234.83 0 1.39.422c.367.273.64.652.828 1.14Zm-5.484 2.375q-.328.001-.578.125a1 1 0 0 0-.438.375q-.14.222-.203.532-.062.298-.063.703v1.187h2.891v-1.015c0-.32-.023-.602-.078-.844a1.4 1.4 0 0 0-.328-.61 1.35 1.35 0 0 0-.5-.343 2 2 0 0 0-.703-.11m0 0"/><path id="af" d="M-2.86-5.828q1.395.002 2.204.719.813.72.812 1.922 0 1.22-.812 1.937-.81.703-2.203.703-1.405 0-2.22-.703c-.538-.477-.812-1.125-.812-1.937 0-.801.274-1.442.813-1.922.543-.477 1.281-.72 2.219-.72m0 1q-1.106.002-1.656.437-.545.423-.546 1.204 0 .785.546 1.218.55.439 1.657.438 1.077 0 1.64-.438.549-.433.547-1.218.002-.763-.547-1.204-.563-.435-1.64-.437m0 0"/><path id="ag" d="M0-1.922v.969h-7.984v-.969Zm0 0"/><path id="ah" d="M-6.687-1.984v1.093h-1v-1.093ZM0-1.922v.969h-5.734v-.969Zm0 0"/><path id="ai" d="M0-5.734v.968h-3.266q-.387 0-.734.047-.341.034-.547.157a.72.72 0 0 0-.312.375 1.55 1.55 0 0 0-.11.625q.002.393.203.828c.125.28.29.558.485.828H0v.953h-5.734v-.953h.64q-.374-.452-.578-.938a2.4 2.4 0 0 1-.219-.984q0-.937.563-1.422.564-.482 1.61-.484Zm0 0"/><path id="aj" d="M-.656-5.594c.976 0 1.691.227 2.14.672q.687.659.688 2.031c0 .305-.024.602-.063.891a7 7 0 0 1-.187.844H.938v-.047a7 7 0 0 0 .218-.75q.14-.516.14-1.031 0-.48-.124-.797a1.24 1.24 0 0 0-.313-.516 1.3 1.3 0 0 0-.484-.25 2.4 2.4 0 0 0-.625-.078h-.531q.345.44.515.828c.118.262.172.602.172 1.016 0 .68-.242 1.219-.734 1.625q-.733.61-2.094.61-.732 0-1.265-.204a2.8 2.8 0 0 1-.922-.578 2.2 2.2 0 0 1-.578-.797 2.5 2.5 0 0 1-.204-.969c0-.32.04-.594.11-.812a3.6 3.6 0 0 1 .297-.719l-.25-.062v-.907Zm-.922.969h-3.125q-.17.377-.234.719-.078.328-.079.656.002.783.532 1.25c.355.305.87.453 1.547.453q.971 0 1.468-.328c.324-.227.485-.61.485-1.14q.001-.423-.157-.844a2.6 2.6 0 0 0-.437-.766m0 0"/><path id="al" d="M0-7.828v1.016h-6.578l4.469 2.125v.609l-4.47 2.11H0v.937h-7.64v-1.375l4.25-2.031-4.25-1.97v-1.421Zm0 0"/><path id="am" d="M0-7.047v1.078l-2.125.75v3.313L0-1.156v1.015l-7.64-2.765v-1.36Zm-3 2.14-3.75 1.345L-3-2.22Zm0 0"/><path id="an" d="M0-6.062v5.03h-7.64v-5.03h.906v4.015h2.093v-4.015h.907v4.015h2.828v-4.015Zm0 0"/><path id="ao" d="M2.11-4.016v1.172A8.2 8.2 0 0 1-.157-1.422c-.82.336-1.75.5-2.781.5-1.02 0-1.942-.164-2.766-.5a8.5 8.5 0 0 1-2.281-1.422v-1.172h.062c.25.282.54.547.86.797q.485.376 1.14.703.628.301 1.39.5.75.188 1.595.188.877 0 1.609-.188.736-.186 1.39-.5.622-.31 1.126-.703a7.5 7.5 0 0 0 .875-.797Zm0 0"/><path id="ap" d="M-2.766-5.75v4.234q.535.001.922-.156.394-.171.64-.453.253-.263.376-.625c.086-.25.125-.52.125-.812q0-.575-.235-1.172-.234-.592-.468-.844v-.047h1.062q.204.485.344 1 .14.502.14 1.063.002 1.422-.765 2.218-.78.798-2.203.797c-.938 0-1.68-.254-2.234-.765q-.828-.762-.829-2.016 0-1.154.688-1.781.675-.64 1.922-.641Zm-.734.953q-.761 0-1.172.375c-.281.25-.422.633-.422 1.14 0 .524.157.938.469 1.25q.457.457 1.125.516Zm0 0"/><path id="aq" d="M-7.64-7.047 0-4.266v1.36L-7.64-.141v-1.078l6.718-2.39-6.719-2.407Zm0 0"/><path id="ar" d="M-7.984-4.406 1.563-.734v.89L-7.985-3.5Zm0 0"/><path id="as" d="M0-5.406v.968h-.61c.063.086.15.2.25.344q.159.224.235.422c.086.156.148.344.203.563q.077.315.078.718c0 .524-.164.965-.5 1.329q-.515.531-1.312.53-.655 0-1.063-.28a1.8 1.8 0 0 1-.625-.797q-.233-.529-.312-1.25a19 19 0 0 1-.125-1.578h-.156q-.328 0-.532.125A.9.9 0 0 0-4.812-4a1.4 1.4 0 0 0-.157.5 3.6 3.6 0 0 0-.047.594c0 .261.04.547.11.86q.093.455.281.952v.047h-.984a8 8 0 0 1-.157-.812 6 6 0 0 1-.093-1.047q0-.608.093-1.047.096-.452.344-.781c.156-.22.36-.383.61-.5q.376-.171.921-.172Zm-1.406.968H-3q.02.439.078 1.047.047.598.14.938.13.409.376.672.25.251.672.25.504 0 .75-.297c.168-.195.25-.5.25-.906q0-.5-.203-.922a4.6 4.6 0 0 0-.47-.781m0 0"/><path id="at" d="M-.047-3.922c.043.18.078.375.11.594q.046.316.046.562 0 .892-.468 1.344c-.313.305-.817.453-1.516.453h-3.047v.657h-.812V-.97h-1.641v-.968h1.64v-1.985h.813v1.985h2.61q.455.001.718-.016a1 1 0 0 0 .469-.14.64.64 0 0 0 .297-.313q.094-.2.094-.61 0-.233-.063-.484a4 4 0 0 0-.125-.375v-.047Zm0 0"/><path id="au" d="M0-9.312v.968h-3.266q-.357.001-.703.031-.34.035-.547.141a.8.8 0 0 0-.343.344c-.07.148-.11.36-.11.64q.002.41.203.813.206.393.516.797.13-.014.281-.016.157-.013.297-.015H0v.968h-3.266q-.374.001-.718.032-.341.035-.547.14a.72.72 0 0 0-.328.344c-.07.148-.11.355-.11.625q.002.392.203.797c.125.262.29.527.485.797H0v.953h-5.734v-.953h.64q-.374-.45-.578-.907a2.2 2.2 0 0 1-.219-.953q.002-.59.25-1a1.6 1.6 0 0 1 .688-.609q-.497-.575-.719-1.062A2.5 2.5 0 0 1-5.89-7.47c0-.625.196-1.086.579-1.39q.563-.452 1.593-.453Zm0 0"/><path id="av" d="M-2.937-3.844c1.03 0 1.96.172 2.78.516A8 8 0 0 1 2.11-1.922V-.75h-.046a6.3 6.3 0 0 0-.876-.797A7 7 0 0 0 .063-2.25a7.6 7.6 0 0 0-1.391-.5 6.5 6.5 0 0 0-1.61-.187q-.843 0-1.593.187a6.8 6.8 0 0 0-2.532 1.203q-.482.375-.859.797h-.062v-1.172q1.05-.902 2.28-1.406 1.238-.516 2.766-.516m0 0"/><path id="aB" d="M3.438 0h-.579v-1.953q0-.232-.03-.438a.7.7 0 0 0-.095-.328.5.5 0 0 0-.218-.203 1 1 0 0 0-.375-.062q-.236.001-.5.125a2.5 2.5 0 0 0-.5.297V0H.563v-4.781h.578v1.734c.187-.156.375-.273.562-.36q.294-.123.594-.124.562.002.844.344c.195.218.297.539.297.953Zm0 0"/><path id="aC" d="M3.422 0h-.578v-.375q-.3.222-.563.344c-.18.082-.375.125-.594.125q-.55 0-.843-.328c-.2-.22-.297-.54-.297-.97v-2.234h.578v1.954c0 .18.004.328.016.453q.028.188.109.312.075.143.203.203a1 1 0 0 0 .39.063q.234.001.5-.11.267-.124.5-.312v-2.562h.579Zm0 0"/><path id="aD" d="M1.156 0H.578v-4.781h.578Zm0 0"/><path id="aF" d="M3.36 0h-.58v-.36a2 2 0 0 1-.531.344c-.18.07-.371.11-.578.11q-.627 0-.984-.469c-.243-.32-.36-.758-.36-1.312q-.001-.435.125-.782c.082-.226.195-.422.344-.578.133-.156.297-.273.484-.36q.281-.123.578-.124.264.002.47.062.217.048.452.172V-4.78h.578Zm-.58-.844v-1.969a2 2 0 0 0-.422-.14A1.7 1.7 0 0 0 1.953-3q-.485.002-.766.344c-.18.219-.265.539-.265.953q-.001.61.203.937.218.315.688.313.233.001.484-.11.263-.106.484-.28m0 0"/><path id="aG" d="M1.188-4.016H.53v-.593h.657ZM1.156 0H.578v-3.437h.578Zm0 0"/><path id="aH" d="M3.016-.984c0 .312-.133.57-.391.765-.25.2-.602.297-1.047.297Q1.186.078.86 0a2.6 2.6 0 0 1-.515-.203V-.86h.031q.265.204.594.328c.226.086.445.125.656.125.25 0 .445-.04.594-.125a.42.42 0 0 0 .219-.39q0-.202-.126-.298-.112-.105-.453-.187-.113-.03-.312-.063a2.4 2.4 0 0 1-.36-.078q-.454-.122-.64-.344A.9.9 0 0 1 .36-2.47q-.002-.217.079-.406a1 1 0 0 1 .265-.328 1.2 1.2 0 0 1 .438-.219 1.8 1.8 0 0 1 .593-.094q.31.001.625.079.31.08.532.171v.625H2.86a2.2 2.2 0 0 0-.546-.265 1.7 1.7 0 0 0-.61-.125 1.1 1.1 0 0 0-.547.125c-.148.086-.218.203-.218.36q0 .222.14.327.123.095.422.172c.102.024.219.047.344.078q.201.034.343.063.387.094.61.312.218.235.219.61m0 0"/><path id="aI" d="M2.36-.031C2.241 0 2.124.019 2 .03q-.19.031-.344.032-.532 0-.812-.282Q.576-.5.578-1.126v-1.828h-.39v-.485h.39v-.984h.578v.984H2.36v.485H1.156v1.562q-.001.284.016.438a.8.8 0 0 0 .078.281.5.5 0 0 0 .188.188q.123.045.375.046c.093 0 .187-.007.28-.03.102-.032.18-.055.235-.079h.031Zm0 0"/><clipPath id="e"><path d="M0 0h375v247.5H0Zm0 0"/></clipPath><clipPath id="f"><path d="M52.5 13.5H360V204H52.5Zm0 0"/></clipPath><clipPath id="c"><path d="M.5.5H308V191H.5Zm0 0"/></clipPath><clipPath id="d"><path d="M152 188h5v3h-5Zm0 0"/></clipPath><clipPath id="b"><path d="M0 0h308v191H0z"/></clipPath><clipPath id="i"><path d="M52.5 53H357v87H52.5Zm0 0"/></clipPath><clipPath id="j"><path d="M52.5 64H356v87H52.5Zm0 0"/></clipPath><clipPath id="k"><path d="M52.5 69H349v87H52.5Zm0 0"/></clipPath><clipPath id="l"><path d="M52.5 75H357v92H52.5Zm0 0"/></clipPath><clipPath id="m"><path d="M52.5 91H357v81H52.5Zm0 0"/></clipPath><filter id="a" width="100%" height="100%" x="0%" y="0%"><feColorMatrix color-interpolation-filters="sRGB" values="0 0 0 0 1 0 0 0 0 1 0 0 0 0 1 0 0 0 1 0"/></filter><mask id="g"><g filter="url(#a)"><path fill-opacity=".2" d="M-37.512-24.792h450.144v297.504H-37.512z"/></g></mask><g id="h" clip-path="url(#b)"><g clip-path="url(#c)"><path fill="red" d="M-614.5-761.5 154.25 191 923-761.5Zm0 0"/><path fill="none" stroke="#636EFA" stroke-miterlimit="2" stroke-width="1.5" d="M-614.5-761.5 154.25 191 923-761.5"/></g><g clip-path="url(#d)"><path fill="#636EFA" d="M156.5 191q-.001.447-.172.86-.17.414-.488.73-.316.317-.73.488a2.24 2.24 0 0 1-1.72 0 2.2 2.2 0 0 1-.73-.488 2.2 2.2 0 0 1-.488-.73 2.24 2.24 0 0 1 0-1.72q.17-.414.488-.73.316-.317.73-.488a2.24 2.24 0 0 1 1.72 0q.414.17.73.488.317.316.488.73.17.413.172.86m0 0"/></g></g></defs><g clip-path="url(#e)"><path fill="#FFF" d="M0 0h375v247.5H0Zm0 0"/></g><path fill="#FFF" d="M52.5 13.5H360V204H52.5Zm0 0"/><path fill="none" stroke="#D3D3D3" stroke-width=".75" d="M129.375 13.5V204m153.75-190.5V204M52.5 156.375H360M52.5 108.75H360M52.5 61.125H360"/><path fill="none" stroke="#EBF0F8" stroke-width="1.5" d="M206.25 13.5V204"/><g clip-path="url(#f)" mask="url(#g)"><use xlink:href="#h" transform="translate(52 13)"/></g><g clip-path="url(#i)"><path fill="#EF553B" d="m53.012 97.145 1.648 1.53-1.02 1.098-1.652-1.527Zm3.297 3.062.55.508-.511.55-.664-.347.695-1.332 1.328.695-1.148 2.2-1.27-1.176Zm1.113-2.613 1.043-1.992 1.332.695-1.047 1.992Zm2.09-3.989.558-1.07 2.059 2.711-1.195.906-1.344-1.77.597-.452.665.347-.012.024Zm3.972 3.438 1.149 1.512-.598.453.48-.578.27.226-.957 1.153-.34-.278-1.199-1.586Zm3.032 3.05 1.73 1.434-.957 1.157-1.73-1.438Zm3.586 1.84 1.937.442.461.336-.883 1.21-.336-.241.442-.606-.168.73-1.79-.41Zm4.214 2.102 1.778 1.293.164.219-1.195.906-.098-.129.597-.453-.44.606-1.688-1.23Zm3.305 3.3 1.36 1.794-1.192.906-1.363-1.789Zm2.613 3.161 2.028.977-.649 1.351-2.027-.976Zm4.098 2.14 1.824 1.321-.883 1.215-1.82-1.32Zm3.676 3.087.996 2.02-1.348.66-.992-2.016Zm1.988 4.039.992 2.02-1.347.66-.993-2.02Zm.563 2.562.855-2.082 1.387.57-.852 2.083Zm1.707-4.164.851-2.082 1.387.57-.852 2.082Zm1.703-4.164.12-.297.696.285-.722-.207.53-1.855 1.442.414-.539 1.894-.137.336Zm1.242-4.238.621-2.16 1.441.41-.617 2.164Zm1.238-4.324.617-2.164 1.442.41-.617 2.164Zm1.235-4.329.336-1.164 1.793-.52.414 1.442-1.395.403-.207-.72.723.204-.22.77Zm4.289-2.308.77-.219 1.538 1.899-1.168.945-1.222-1.516.582-.472.207.722-.29.082Zm3.722 3.43 1.2 1.484-.582.473-.254-.707.32-.118.512 1.41-.825.301-1.535-1.898Zm2.797.367 1.414-.512.254.707-.61-.441.442-.606 1.215.88-.574.792-1.63.59Zm2.817-2.676 1.32-1.824 1.215.879-1.32 1.824Zm2.656-3.648 1.347-1.801 1.2.898-1.344 1.801Zm2.691-3.606.672-.894 1.172-.762.816 1.258-1.062.687-.406-.629.601.45-.59.788Zm3.735-2.883 1.41-.914 1.25 1.317-1.09 1.03-.816-.862.543-.516.406.629-.887.578Zm4.207 2.031 1.48 1.563-.543.516.438-.61.078.059-.875 1.219-.137-.098-1.531-1.613Zm3.28 2.84 1.829 1.309-.871 1.219-1.828-1.309Zm3.583 2.844 1.68 1.492-.996 1.121-1.68-1.492Zm3.23 1.809 2.25-.02.012 1.5-2.25.02Zm4.426 1.675 1.617 1.563-1.039 1.078-1.62-1.562Zm3.137 3.41 1.273 1.856-1.238.848-1.273-1.856Zm2.543 3.712.578.84.676 1.054-1.262.813-.668-1.047.629-.403-.617.422-.57-.832Zm2.473 3.785 1.218 1.89-1.261.813-1.22-1.89Zm2.261 2.765 2.246.16-.109 1.497-2.246-.16Zm4.578 1.297 1.786 1.371-.915 1.192-1.785-1.371Zm3.442 3.211 1.21 1.895-1.261.808-1.21-1.898Zm2.422 3.793.785 1.227-.633.402.195-.723.766.204-.387 1.449-1.05-.282-.938-1.472Zm3.289 1.692.902.242-.191.722-.426-.617 1.078-.746.852 1.234-1.364.946-1.242-.332Zm3.21-1.68 1.165-.809 1.425.242-.25 1.48-1.125-.19.125-.739.426.614-.91.632Zm4.81-.192.796.137 1.227 1.621-1.196.906-1.047-1.386.598-.45-.125.739-.508-.086Zm3.382 3.555 1.356 1.793-1.196.906-1.355-1.793Zm3.05 2.742 1.958 1.114-.738 1.304-1.957-1.113Zm3.93 1.457 1.758.328.57.239-.57 1.386-.5-.207.286-.695-.137.738-1.68-.312Zm4.41 1.422 1.266.52-.285.695-.363-.656.77-.43.726 1.313-1.086.601-1.598-.656Zm3.352-.965 1.614-.898 1.078 1.144-1.094 1.028-.676-.719.547-.516.363.657-1.101.617Zm4.235 1.883 1.539 1.637-1.09 1.031-1.543-1.64Zm3.082 3.278 1.543 1.636-1.094 1.028-1.543-1.637Zm2.617 2.05 2.168-.61.406 1.446-2.168.61Zm4.183-1.363 2.075-.871.582 1.383-2.075.87Zm4.383-1.46 2.117-.462.258.004-.023 1.5-.172-.004.012-.75.16.735-2.031.44Zm4.621-.423 1.422.02-.012.75-.144-.735.816-.16.286 1.473-.891.176-1.5-.024Zm4.29-.554.976-.192 1.531.336-.324 1.465-1.375-.3.16-.735.145.738-.825.16Zm4.703.625.265.058-.16.73-.488-.566 1.496-1.293.98 1.137-1.781 1.535-.633-.137Zm2.82-2.54.691-.597 1.258-.75.77 1.289-1.204.719-.382-.645.488.566-.64.555Zm3.883-2.5.828-.5 1.554-.242.235 1.48-1.41.223-.118-.742.383.645-.703.422Zm4.605-1.093.215-.035.117.742-.246-.711 1.922-.664.488 1.418-1.98.687-.281.043Zm4.133-1.403 2.125-.738.492 1.418-2.125.738Zm4.254-1.472 2.125-.735.492 1.414-2.129.739Zm4.117-1.559 2.02-.988.66 1.347-2.024.989Zm4.324-1.73 2.203-.457.305 1.468-2.203.457Zm3.54-1.645 1.613-1.57 1.046 1.074-1.613 1.57Zm3.312-3.125 1.719-1.45.968 1.145-1.718 1.454Zm3.691-2.898 2.059-.907.605 1.372-2.058.906Zm3.836-1.887 1.742-1.426.95 1.16-1.739 1.426Zm3.485-2.852 1.738-1.425.953 1.16-1.742 1.426Zm3.48-2.851.121-.098.477.582-.547-.515 1.433-1.524 1.094 1.028-1.469 1.558-.16.133Zm3.023-3.195.868-.922.546.511-.57-.484.637-.75 1.144.973-.652.761-.879.938Zm2.942-3.36 1.457-1.71 1.14.972-1.457 1.71Zm2.914-3.426 1.46-1.714 1.141.972-1.457 1.715Zm3.738-3.332 2.219.364-.242 1.48-2.219-.367Zm3.926.215 2.039-.949.633 1.363-2.04.946Zm3.7-2.078 1.683-1.492.996 1.121-1.684 1.492Zm4.171-2.621 2.191.508-.34 1.46-2.19-.507Zm3.473.164 1.707-1.465.976 1.137-1.703 1.465Zm4.215-2.562 2.175.574-.382 1.453-2.176-.574Zm3.648.375 1.926-1.165.777 1.282-1.926 1.164Zm4.047-2.22 2.094-.823.55 1.394-2.093.828Zm3.473-2.023 1.46-1.71 1.141.972-1.46 1.711Zm3.41-3.64 2.226-.313.211 1.485-2.23.312Zm4.011-.797 1.844-1.293.86 1.23-1.84 1.293Zm3.375-2.516 1.27-1.855 1.238.847-1.273 1.856Zm2.543-3.71 1.313-1.915.93.215-.344 1.461-.43-.102.172-.726.617.422-1.02 1.492Zm4.434-1.184 1.227.285-.172.73-.528-.535.707-.695 1.051 1.07-1 .985-1.629-.383Zm2.84-1.79 1.879-1.847.554.223-.558 1.394-.102-.043.281-.695.528.535-1.531 1.504Zm4.523-.785 1.66.668-.28.696-.567-.492.304-.348 1.13.984-.653.75-2.156-.867ZM342 67.805l1.477-1.696 1.132.985-1.476 1.695Zm3.227-3.309 1.761-1.398.934 1.175-1.762 1.399Zm3.043-2.812 1.082-1.973 1.316.719-1.082 1.972Zm2.16-3.95 1.078-1.972 1.316.718-1.078 1.973Zm3.515-3.175 1.993-.621.445 1.43-1.992.62Zm0 0"/></g><g clip-path="url(#j)"><path fill="#00CC96" d="m51.906 121.137 3.848-4.969.594.457-.727-.191.121-.45 1.45.387-.157.594-3.941 5.09Zm5.57-11.676 1.735-6.523 1.45.386-1.735 6.524Zm4.907-12.664 1.21-2.14 4.27-.06.012.75-.703-.261.308-.824 1.407.523-.489 1.305-4.351.058-.012-.75.653.372-1 1.765Zm7.469-8.86 1.183-3.156 1.531-3.094 1.344.665-1.515 3.062-.672-.336.703.266-1.172 3.12Zm7.14-9.734 3.055 4.93-.637.394.45-.597.761.57-.902 1.2-.871-.657-3.13-5.05Zm7.754 10.8 1.8 6.509-1.448.398-1.797-6.504Zm3.797 12.849 2.574 6.238-1.387.574-2.574-6.238Zm6.258 5.5 3.05-6.024 1.337.68-3.047 6.02Zm7.633-.551.695 1.258-.656.363.539-.52 3.683 3.828-1.082 1.043-3.75-3.906-.742-1.34Zm9.14 2.394 2.961 3.004-.535.528-.633-.407 1.371-2.132L116 111l-1.875 2.918-3.617-3.672Zm8.043-3.914 1.895-.707 4.418-.492.738 1.223-1.285.773-.492-.812.644-.387.082.746-3.847.43-.082-.746.261.703-1.808.672Zm10.211 5.332 6.469 1.926-.426 1.438-6.469-1.926Zm12.418 5.02 2.856.894 3.199 2.442-.914 1.195-3.094-2.367.457-.594-.223.715-2.726-.852Zm11.531 7.46 3.059 3.337-.55.507.312-.683 2.02.926-.622 1.363-2.16-.988-3.164-3.446Zm10.715 6.606h3.473l3.3 1.39-.581 1.384-3.164-1.336.292-.688v.75h-3.32Zm12.988 4.11 2.192 1.054-.324.676.214-.719 3.915 1.164.343.184-.715 1.32-.273-.148.356-.66-.215.718-3.895-1.156-2.246-1.082Zm12.13 6.03 5.3 4.177-.926 1.18-5.304-4.18Zm10.617 7.735 2.402.742-.219.715.102-.742 3.84.524-.102.746-.062-.75.355-.028.129 1.492-.442.04-3.984-.547-2.46-.758Zm13.203 1.516.644.12-.137.74-.19-.727 3.878-1.028 2.113-.363.254 1.477-2.082.359-.125-.742.192.726-4.012 1.063-.813-.153Zm11.726-4.465 3.813-2.512 2.183-.847.543 1.398-2.113.82-.27-.699.415.625-3.747 2.465Zm11.637-6.687 5.598-3.774.84 1.246-5.598 3.774Zm11.723-6.086 3.472-2.766 2.317-.98.582 1.378-2.219.942-.293-.692.469.586-3.395 2.703Zm12.062-5.84 2.977-1.73 3.02-1.481.66 1.347-2.993 1.47-.332-.677.375.649-2.953 1.719Zm12.055-6.184 6.058-2.973.66 1.344-6.058 2.977Zm12.258-5.793 1.812-.7.27.704-.422-.621 3.984-2.7.84 1.243-4.055 2.746-1.89.727Zm11.996-6.09 1.566-.093.047.75-.355-.665 4.566-2.44.71 1.323-4.714 2.52-1.73.105Zm10.875-6.351 1.758-1.973 3.343-2.613.926 1.183-3.293 2.57-.46-.59.558.497-1.711 1.922Zm10.883-8.469 2.714-.766.204.723-.391-.64 3.351-2.051.782 1.28-3.438 2.106-2.816.79Zm10.878-7.203 3.164-2.063.41.63-.511-.548 2.168-2.03 1.027 1.093-2.219 2.078-3.222 2.094Zm10.36-8.461.535-.445 3.977-1.274.23.711-.504-.555 1.613-1.453 1.004 1.114-1.73 1.562-3.992 1.277-.23-.714.48.578-.422.351Zm10.062-7.992 1.805-2.664 2.86-2.414.968 1.148-2.781 2.348-.485-.575.622.422-1.747 2.575Zm0 0"/></g><g clip-path="url(#k)"><path fill="#AB63FA" d="m52.563 130.52 3.847.328-.062.746-.641-.39 4.262-6.958.683.488-.87 1.223-.032-.023.438-.61.64.39-4.082 6.669-4.309-.371Zm16.09-5.864 2.488-3.926 4.418-4.054 1.609 1.449-1 1.117-1.106-.996.5-.555.508.551-3.84 3.524-.507-.551.632.402-2.437 3.844Zm13.382-10.64.934-1.926 4.683 3.426 2.938 4.507-1.254.82-2.867-4.394.629-.41-.442.606-3.847-2.813.441-.605.676.328-.54 1.113Zm17.836 6.89 2.848.156 4.008 2.665-.415.625.024-.75 3.969.128.246.09-.512 1.41-.133-.046.254-.707-.023.75-4.063-.133-4.015-2.668.414-.625-.043.75-2.64-.145Zm21.234 5.985.739.074 3.992 1.312 3.898 2.125-.359.66.297-.687 1.988.852-.59 1.378-2.023-.867-3.871-2.11.36-.66-.235.716-3.848-1.27.234-.71-.074.745-.656-.066Zm20.993 9.07 3.175 3.117-.523.535.293-.691 3.844 1.621-.29.691.157-.734 2.566.55-.316 1.466-2.633-.567-4.043-1.699-3.281-3.219Zm19.867 7.93 2.152.422-.144.738.082-.746 9 .988-.164 1.492-9.032-.992-2.183-.43Zm22.453 2.32 2.984 1.559 3.86 2.324-.387.64.219-.718 3.277 1-.437 1.433-3.368-1.023-3.918-2.36.387-.64-.347.664-2.965-1.547Zm20.676 7.254 5.047.277 3.847.266-.05.746-.305-.684 2.148-.953.606 1.371-2.317 1.028-4.015-.274-5.047-.281Zm20.972-4.903 2.942-1.304.304.687-.37-.652 3.847-2.184 3.18-1.734.719 1.32-3.157 1.72-3.883 2.202-2.976 1.317Zm19.809-10.8 2.586-.254.074.746-.3-.688 3.84-1.671.3.687-.387-.64 3.825-2.301.773 1.289-3.867 2.32-3.992 1.738-2.707.266Zm19.727-9.778 1.816-.894 3.848-1.899.332.672-.465-.586 3.84-3.03.464.589-.484-.574.035-.028.965 1.149-.043.035-3.91 3.086-3.918 1.93-1.816.894Zm18.07-12.968 2.86-2.133 6.277-4.457.87 1.222-6.273 4.454-.433-.614.449.602-2.852 2.129Zm16.832-14.434 1.375-1.734 4.016-1.707.293.687-.454-.594 4.02-3.066.91 1.195-4.098 3.121-3.925 1.672-.293-.691.586.465-1.254 1.582Zm18.656-12.691 2.008-1.243.394.637-.488-.57 3.899-3.352 3.363-1.941.75 1.297-3.3 1.906-.376-.648.488.57-3.89 3.344-2.059 1.277Zm18.723-12.227 2.472-1.871 6.903-4.438.812 1.262-6.879 4.422-.406-.633.453.598-2.453 1.855Zm0 0"/></g><g clip-path="url(#l)"><path fill="#FFA15A" d="M52.977 130.844 56.824 134l-.476.578-.657-.36.852-1.554 1.316.723-1.289 2.347-4.547-3.73Zm4.652-.153 1.082-1.968 1.312.718-1.082 1.973Zm3.07-3.875 3.739-.175 2.066 3.285-1.27.8-1.836-2.917.637-.399.035.75-3.3.153Zm7.004 5.016.824 1.313.352.68-1.336.687-.336-.653.668-.343-.637.398-.804-1.285Zm2.203 3.992 2.485 4.824-.668.344-.364-.656 1.16-.64.727 1.312-1.836 1.015-2.836-5.511Zm4.582 2.781.938-.52 1.676.278-.243 1.48-1.418-.234.121-.738.364.656-.711.391Zm4.832.122.211.035-.12.738-.15-.734 3.84-.774.149.735-.215-.72 2.512-.75.43 1.438-2.547.762-4.008.805-.344-.055Zm8.664-1.856 2.25.098-.066 1.5-2.25-.102Zm4.61.555 2.469.676 3.847 2.043-.703 1.324-3.773-2.004.351-.664-.2.726-2.386-.652Zm8.312 3.715 1.899.941-.332.672.14-.734.125.023-.277 1.473-.23-.043-1.993-.989Zm4.043 1.32 1.504.285-.14.738.011-.75 3.848.051-.012.75-.12-.742 1.355-.219.242 1.48-1.422.231-3.977-.055-1.566-.296Zm8.664-.254.664-.11 1.618 1.758-1.106 1.016-1.34-1.457.551-.508.121.739-.266.042Zm3.805 3.305.98 1.07-.55.508.222-.715 3.914 1.215 1.184.656-.727 1.309-1.117-.618.364-.656-.223.719-4.031-1.254-1.121-1.219Zm7.719 3.824.761.422-.363.656-.23-.715 1.308-.426.465 1.426-1.621.528-1.047-.582Zm3.617-.754.57-.187 4.035.742-.136.734-.442-.605 1.969-1.426.879 1.215-2.227 1.613-4.164-.762.137-.738.23.715-.386.125Zm7.816-2.062.368-.266 2.437.84-.488 1.418-2.07-.711.245-.711.442.61-.05.034Zm4.93 1.308 3.496 1.207-.246.711.086-.746 3.035.348-.172 1.492-3.117-.36-3.57-1.234Zm8.684 2.055 2.156.652-.434 1.438-2.156-.653Zm4.308 1.304 6.461 1.954-.433 1.437-6.461-1.957Zm8.613 2.606 1.16.352 1.051.582-.734 1.312-.977-.547.368-.656-.22.719-1.081-.328Zm4.176 2.031.899.504-.368.656-.023-.75 3.922-.132 1.918.32-.246 1.48-1.844-.308.121-.739.024.75-4.055.133-1.082-.601Zm8.625.996 2.18.555-.367 1.453-2.184-.55Zm4.36 1.106 6.543 1.66-.368 1.453-6.543-1.656Zm8.68 2.996 1.796 1.355-.906 1.2-1.793-1.36Zm3.617 2.46 2.515 1.364-.355.66-.051-.75 3.875-.258.07.004-.031 1.5-.04-.004.017-.75.05.75-4.058.27-2.707-1.469Zm8.304 1.067 2.25.047-.031 1.5-2.25-.047Zm4.5.098.899.02-.016.75-.125-.743 3.848-.644.125.742-.211-.723 1.867-.55.426 1.44-1.914.563-3.961.664-.97-.02Zm8.547-1.781 2.156-.637.426 1.437-2.16.637Zm4.027-1.364 3.27-2.164.414.625-.5-.562 2.117-1.88.996 1.122-2.156 1.914-3.312 2.195Zm6.98-5.476.145-.125 2.114-.91.593 1.379-2.003.863-.297-.692.5.563-.051.043Zm4.298-1.918 6.094-2.906.644 1.355-6.094 2.902Zm8.125-3.875 2.031-.965.645 1.352-2.032.968Zm3.82-2.028 3.117-2.386 2.617-1.367.696 1.328-2.559 1.34-.347-.665.457.594-3.067 2.348Zm7.727-4.8 1.992-1.043.699 1.328-1.996 1.047Zm3.988-2.086 5.976-3.133.696 1.328-5.977 3.133Zm7.754-4.29 1.797-1.355.902 1.2-1.797 1.355Zm3.55-2.718 5.239-4.258.945 1.164-5.238 4.258Zm7.172-5.774 2.067-.882.59 1.379-2.067.882Zm3.973-1.761 3.535-2.418.422.617-.547-.516 1.692-1.796 1.093 1.03-1.746 1.856-3.601 2.465Zm6.645-5.75.664-.707 1.203-.809.836 1.246-1.133.762-.418-.621.547.512-.61.644Zm3.73-2.77 4.692-3.16.418.625-.473-.586.855-.687.942 1.168-.88.707-4.714 3.175Zm7.242-5.222 1.243-1.004.507-.41.946 1.168-.508.41-1.246 1.004Zm3.5-2.829 5.254-4.238.942 1.164-5.25 4.242Zm6.672-5.812 1.48-1.695 1.13.992-1.485 1.691Zm3.387-3.34 6.125-2.84.629 1.364-6.125 2.835Zm7.52-4.02 1.363-1.785 1.195.91-1.367 1.79Zm2.73-3.574.445-.578 4.02-2.773 1.48-.528.504 1.415-1.387.496-.253-.707.425.617-3.84 2.648-.425-.62.593.456-.37.488Zm8.062-4.632.34-.122.254.704-.437-.606 1.53-1.105.88 1.215-1.621 1.167-.442.157Zm3.512-2.446.645-.46 4.043-.446.082.746-.422-.621 1.894-1.281.84 1.242-2.047 1.387-4.031.441-.082-.746.438.61-.481.347Zm8.106-3.324 1.863-1.258.84 1.239-1.864 1.261Zm3.726-2.52.285-.195 4.145-1.465 2.574.668-.375 1.45-2.351-.61.187-.726.25.707-3.84 1.359-.25-.707.422.621-.207.14Zm8.602-.867 2.004-1.02.68 1.34-2.005 1.016Zm3.86-2.09 3.108-2.168.86 1.235-3.113 2.164Zm0 0"/></g><g clip-path="url(#m)"><path fill="#19D3F3" d="m52.516 137.07 4.332.094 3.101 7.246-1.379.594-2.914-6.805.692-.297-.016.75-3.848-.082Zm9.863 10.407 1.848 1.28-.852 1.231-1.852-1.277Zm5.656 2.574 3.883-.055 4.02 2.309-.376.648-.394-.637 2.676-1.652.789 1.277-3.055 1.887-4.23-2.426.375-.652.011.75-3.675.05Zm14.086-1.2 1.012-.347 1.449.035-.039 1.5-1.313-.031.02-.75.242.707-.887.308Zm6.492-.949 2.282-.964L95 148.164l-.215.719-.238-.711 4.098-1.371 1.168.46-.547 1.395-.914-.36.273-.694.238.71-4.066 1.356-4.074-1.215.215-.719.292.692-2.03.855Zm15.004.168 2.192-.507.34 1.46-2.192.508Zm6.86.852 3.777 1.363-.254.703v-.75l3.945.008 3.368.902-.387 1.45-3.274-.875.196-.727v.75l-3.98-.008-3.9-1.406Zm15.21 2.476 2.235.27-.18 1.488-2.234-.265Zm6.38-.214 1.085-.258 3.946.176-.036.75-.492-.563 4.211-3.687 1.61.738-.625 1.363-1.168-.535.312-.684.492.567-4.074 3.566-4.14-.187.035-.75.172.73-.98.235Zm14.386-1.243 2.168.598-.398 1.45-2.172-.602Zm6.305 1.04 3.46-.56 4.048-.054 3.808 1.543-.562 1.39-3.668-1.488.281-.695.012.75-3.84.055-.012-.75.121.738-3.406.55Zm15.023 3.84 1.746 1.421-.949 1.164-1.742-1.422Zm5.149 3.652 2.789.625 7.77 3.007.21.106-.66 1.348-.184-.09.333-.672-.27.7-7.688-2.981.27-.7-.164.735-2.734-.617Zm14.957 6.12 1.297 1.84-1.227.864-1.297-1.84Zm3.668 4.966 3.375.968-.207.72-.024-.75 7.735-.25.046 1.495-7.851.258-3.488-1Zm15.375.539 2.25-.075.047 1.5-2.247.075Zm6.746-.223.238-.008.024.75-.09-.742 3.847-.473.09.743-.344-.668 6.352-3.258.684 1.336-6.47 3.32-4.01.492-.27.008Zm14.402-5.332.996-.328.238.71-.32-.679 1.082-.512.645 1.352-1.125.535-1.043.348Zm6.063-2.742 2.55-1.211 3.86-1.672.297.691-.356-.66 3.735-2.02.714 1.321-3.765 2.031-3.88 1.68-.296-.688.32.676-2.539 1.207Zm14.14-7.055 2.106-.785.527 1.406-2.11.785Zm6.121-2.605 1.48-.754.34.668-.429-.614 3.973-2.78 4.007-.735.137.738-.273-.7.925-.359.543 1.399-.988.387-3.918.718-.137-.738.43.613-3.883 2.715-1.523.778Zm14.098-6.34 1.895-1.215.808 1.262-1.894 1.214Zm5.684-3.645.914-.582 3.918-1.508.27.7-.391-.637 5.218-3.195.785 1.28-5.28 3.227-3.911 1.504-.27-.699.407.629-.852.547Zm13.472-7.73 1.66-1.516 1.012 1.11-1.664 1.515Zm5.094-4.469 1.488-1.25 3.907-2.105.355.66-.398-.637 3.847-2.414.399.633-.496-.559.359-.32.992 1.12-.406.364-3.918 2.461-3.863 2.078-.356-.66.48.574-1.425 1.203Zm12.828-8.977.113-.101 1.579-1.387.988 1.13-1.574 1.378-.114.102Zm5.074-4.457 2.727-2.39 4.008-3.586 2.652-.41.23 1.484-2.433.375-.113-.742.5.558-3.852 3.45-2.73 2.39Zm13.063-8.183 1.281-.844.414.625-.504-.555.528-.48 1.007 1.11-.57.519-1.328.879Zm5.05-4.278 3.926-3.562 3.965-1.598.281.7-.34-.672 1.731-.88.684 1.337-1.762.898-3.871 1.555-.281-.695.504.554-3.829 3.473Zm13.786-7.82 1.832-.629.242.711-.309-.683.29-.133.617 1.367-.32.145-1.864.64Zm6.156-2.586 3.379-1.527 3.941-.715.266 1.477-3.848.699-.132-.738.308.683-3.297 1.488Zm0 0"/></g><path fill="none" stroke="#000" stroke-width=".75" d="M51.75 204.375h309m-309-191.25h309M52.125 13.5V204m308.25-190.5V204"/><path fill="none" stroke="#444" stroke-width=".75" d="M52.5 204.75v3.75m76.875-3.75v3.75m76.875-3.75v3.75m76.875-3.75v3.75M360 204.75v3.75"/><g fill="#2A3F5F"><use xlink:href="#n" x="41.459" y="219.3"/><use xlink:href="#o" x="48.824" y="219.3"/><use xlink:href="#p" x="54.546" y="219.3"/><use xlink:href="#q" x="57.82" y="219.3"/></g><g fill="#2A3F5F"><use xlink:href="#n" x="118.334" y="219.3"/><use xlink:href="#o" x="125.699" y="219.3"/><use xlink:href="#p" x="131.421" y="219.3"/><use xlink:href="#r" x="134.695" y="219.3"/></g><use xlink:href="#o" x="203.389" y="219.3" fill="#2A3F5F"/><g fill="#2A3F5F"><use xlink:href="#o" x="275.766" y="219.3"/><use xlink:href="#p" x="281.488" y="219.3"/><use xlink:href="#r" x="284.762" y="219.3"/></g><g fill="#2A3F5F"><use xlink:href="#o" x="352.641" y="219.3"/><use xlink:href="#p" x="358.363" y="219.3"/><use xlink:href="#q" x="361.637" y="219.3"/></g><path fill="none" stroke="#444" stroke-width=".75" d="M51.75 204H48m3.75-47.625H48m3.75-47.625H48m3.75-47.625H48M51.75 13.5H48"/><use xlink:href="#o" x="40.478" y="207.15" fill="#2A3F5F"/><g fill="#2A3F5F"><use xlink:href="#o" x="25.761" y="159.525"/><use xlink:href="#p" x="31.483" y="159.525"/><use xlink:href="#o" x="34.757" y="159.525"/><use xlink:href="#s" x="40.478" y="159.525"/></g><g fill="#2A3F5F"><use xlink:href="#o" x="31.483" y="111.9"/><use xlink:href="#p" x="37.204" y="111.9"/><use xlink:href="#r" x="40.478" y="111.9"/></g><g fill="#2A3F5F"><use xlink:href="#o" x="25.761" y="64.275"/><use xlink:href="#p" x="31.483" y="64.275"/><use xlink:href="#r" x="34.757" y="64.275"/><use xlink:href="#s" x="40.478" y="64.275"/></g><g fill="#2A3F5F"><use xlink:href="#o" x="31.483" y="16.65"/><use xlink:href="#p" x="37.204" y="16.65"/><use xlink:href="#q" x="40.478" y="16.65"/></g><path fill="none" stroke="#2A3F5F" stroke-width="1.5" d="M321.563 188.762h30.75v5.715h-30.75Zm0 0"/><g fill="#2A3F5F"><use xlink:href="#t" x="60.15" y="120.84"/><use xlink:href="#u" x="71.998" y="120.84"/><use xlink:href="#v" x="77.218" y="120.84"/><use xlink:href="#w" x="84.19" y="120.84"/><use xlink:href="#x" x="91.67" y="120.84"/><use xlink:href="#y" x="96.105" y="120.84"/><use xlink:href="#u" x="103.314" y="120.84"/><use xlink:href="#z" x="108.533" y="120.84"/><use xlink:href="#v" x="119.643" y="120.84"/><use xlink:href="#u" x="126.616" y="120.84"/></g><g fill="#2A3F5F"><use xlink:href="#A" x="88.65" y="135.225"/><use xlink:href="#B" x="94.82" y="135.225"/><use xlink:href="#C" x="100.225" y="135.225"/><use xlink:href="#D" x="103.772" y="135.225"/><use xlink:href="#E" x="108.461" y="135.225"/><use xlink:href="#F" x="114.156" y="135.225"/><use xlink:href="#s" x="117.32" y="135.225"/></g><path fill="#EF553B" d="M62.398 130.965h2.25v1.5h-2.25m4.5-1.5h2.25v1.5h-2.25m4.5-1.5h2.25v1.5h-2.25m4.5-1.5h2.25v1.5h-2.25m4.5-1.5h2.25v1.5h-2.25"/><g fill="#2A3F5F"><use xlink:href="#A" x="88.65" y="149.475"/><use xlink:href="#B" x="94.82" y="149.475"/><use xlink:href="#C" x="100.225" y="149.475"/><use xlink:href="#D" x="103.772" y="149.475"/><use xlink:href="#E" x="108.461" y="149.475"/><use xlink:href="#F" x="114.156" y="149.475"/><use xlink:href="#G" x="117.32" y="149.475"/></g><path fill="#00CC96" d="M62.398 145.215h6.75v1.5h-6.75m13.5-1.5h6.75v1.5h-6.75"/><g fill="#2A3F5F"><use xlink:href="#A" x="88.65" y="163.725"/><use xlink:href="#B" x="94.82" y="163.725"/><use xlink:href="#C" x="100.225" y="163.725"/><use xlink:href="#D" x="103.772" y="163.725"/><use xlink:href="#E" x="108.461" y="163.725"/><use xlink:href="#F" x="114.156" y="163.725"/><use xlink:href="#H" x="117.32" y="163.725"/></g><path fill="#AB63FA" d="M62.398 159.465h11.25v1.5h-11.25"/><g fill="#2A3F5F"><use xlink:href="#A" x="88.65" y="177.975"/><use xlink:href="#B" x="94.82" y="177.975"/><use xlink:href="#C" x="100.225" y="177.975"/><use xlink:href="#D" x="103.772" y="177.975"/><use xlink:href="#E" x="108.461" y="177.975"/><use xlink:href="#F" x="114.156" y="177.975"/><use xlink:href="#q" x="117.32" y="177.975"/></g><path fill="#FFA15A" d="M62.398 173.715h6.75v1.5h-6.75m9-1.5h2.25v1.5h-2.25m4.5-1.5h6.75v1.5h-6.75"/><g fill="#2A3F5F"><use xlink:href="#A" x="88.65" y="192.225"/><use xlink:href="#B" x="94.82" y="192.225"/><use xlink:href="#C" x="100.225" y="192.225"/><use xlink:href="#D" x="103.772" y="192.225"/><use xlink:href="#E" x="108.461" y="192.225"/><use xlink:href="#F" x="114.156" y="192.225"/><use xlink:href="#r" x="117.32" y="192.225"/></g><path fill="#19D3F3" d="M62.398 187.965h11.25v1.5h-11.25m15.75-1.5h2.25v1.5h-2.25"/><g fill="#2A3F5F"><use xlink:href="#I" x="148.045" y="239.405"/><use xlink:href="#J" x="154.684" y="239.405"/></g><g fill="#2A3F5F"><use xlink:href="#K" x="154.684" y="241.61"/><use xlink:href="#L" x="159.098" y="241.61"/></g><use xlink:href="#M" x="163.678" y="241.61" fill="#2A3F5F"/><use xlink:href="#N" x="168.139" y="241.61" fill="#2A3F5F"/><g fill="#2A3F5F"><use xlink:href="#O" x="172.488" y="241.61"/><use xlink:href="#P" x="176.867" y="241.61"/><use xlink:href="#Q" x="179.451" y="241.61"/></g><g fill="#2A3F5F"><use xlink:href="#R" x="185.645" y="241.61"/><use xlink:href="#P" x="190.078" y="241.61"/><use xlink:href="#S" x="192.662" y="241.61"/></g><use xlink:href="#T" x="197.313" y="241.61" fill="#2A3F5F"/><use xlink:href="#U" x="201.964" y="241.61" fill="#2A3F5F"/><use xlink:href="#U" x="203.981" y="241.61" fill="#2A3F5F"/><use xlink:href="#J" x="205.998" y="239.405" fill="#2A3F5F"/><g fill="#2A3F5F"><use xlink:href="#J" x="205.998" y="239.405"/><use xlink:href="#V" x="209.689" y="239.405"/><use xlink:href="#W" x="214.457" y="239.405"/><use xlink:href="#X" x="220.712" y="239.405"/><use xlink:href="#Y" x="227.89" y="239.405"/><use xlink:href="#Z" x="232.658" y="239.405"/><use xlink:href="#aa" x="238.964" y="239.405"/><use xlink:href="#ab" x="243.101" y="239.405"/><use xlink:href="#ac" x="249.474" y="239.405"/><use xlink:href="#ad" x="259.687" y="239.405"/></g><g fill="#2A3F5F"><use xlink:href="#ae" x="10.5" y="168.91"/><use xlink:href="#af" x="10.5" y="161.609"/><use xlink:href="#ag" x="10.5" y="155.236"/><use xlink:href="#ag" x="10.5" y="152.355"/><use xlink:href="#ah" x="10.5" y="149.473"/><use xlink:href="#ai" x="10.5" y="146.592"/><use xlink:href="#aj" x="10.5" y="139.948"/><use xlink:href="#ak" x="10.5" y="133.406"/><use xlink:href="#al" x="10.5" y="129.714"/><use xlink:href="#am" x="10.5" y="120.865"/><use xlink:href="#an" x="10.5" y="113.687"/><use xlink:href="#ak" x="10.5" y="107.048"/><use xlink:href="#ao" x="10.5" y="103.356"/><use xlink:href="#ap" x="10.5" y="98.588"/><use xlink:href="#aq" x="10.5" y="92.333"/><use xlink:href="#ar" x="10.5" y="85.156"/><use xlink:href="#as" x="10.5" y="80.388"/><use xlink:href="#at" x="10.5" y="74.082"/><use xlink:href="#af" x="10.5" y="69.944"/><use xlink:href="#au" x="10.5" y="63.571"/><use xlink:href="#av" x="10.5" y="53.358"/></g><g fill="#2A3F5F"><use xlink:href="#aw" x="170.263" y="81"/><use xlink:href="#ax" x="177.848" y="81"/><use xlink:href="#ay" x="184" y="81"/><use xlink:href="#F" x="189.691" y="81"/><use xlink:href="#az" x="192.855" y="81"/><use xlink:href="#F" x="200.22" y="81"/><use xlink:href="#aA" x="203.384" y="81"/><use xlink:href="#ay" x="207.471" y="81"/><use xlink:href="#F" x="213.162" y="81"/></g><use xlink:href="#aB" x="213.162" y="82.89" fill="#2A3F5F"/><use xlink:href="#aC" x="217.144" y="82.89" fill="#2A3F5F"/><use xlink:href="#aD" x="221.126" y="82.89" fill="#2A3F5F"/><use xlink:href="#aD" x="222.853" y="82.89" fill="#2A3F5F"/><use xlink:href="#aE" x="224.58" y="82.89" fill="#2A3F5F"/><use xlink:href="#aF" x="226.792" y="82.89" fill="#2A3F5F"/><use xlink:href="#aG" x="230.712" y="82.89" fill="#2A3F5F"/><use xlink:href="#aH" x="232.439" y="82.89" fill="#2A3F5F"/><use xlink:href="#aI" x="235.718" y="82.89" fill="#2A3F5F"/><use xlink:href="#aA" x="238.197" y="81" fill="#2A3F5F"/><g fill="#2A3F5F"><use xlink:href="#aJ" x="210.003" y="195"/><use xlink:href="#aK" x="213.844" y="195"/><use xlink:href="#aL" x="219.306" y="195"/><use xlink:href="#aL" x="221.776" y="195"/><use xlink:href="#aM" x="224.246" y="195"/><use xlink:href="#aN" x="226.715" y="195"/><use xlink:href="#aO" x="232.411" y="195"/><use xlink:href="#F" x="238.018" y="195"/><use xlink:href="#aP" x="241.182" y="195"/><use xlink:href="#aM" x="248.547" y="195"/><use xlink:href="#aN" x="251.017" y="195"/><use xlink:href="#aQ" x="256.712" y="195"/><use xlink:href="#aK" x="262.32" y="195"/><use xlink:href="#aP" x="267.782" y="195"/><use xlink:href="#aR" x="275.147" y="195"/><use xlink:href="#G" x="282.513" y="195"/><use xlink:href="#o" x="288.234" y="195"/><use xlink:href="#F" x="293.956" y="195"/><use xlink:href="#aS" x="297.12" y="195"/><use xlink:href="#aT" x="305.874" y="195"/><use xlink:href="#aU" x="311.235" y="195"/></g></svg>