<svg xmlns="http://www.w3.org/2000/svg" xmlns:xlink="http://www.w3.org/1999/xlink" width="375.12" height="247.92"><defs><path id="n" d="M6.406-2.516H.97v-.703h5.437Zm0 0"/><path id="o" d="M5.125-3.281q-.001 1.769-.547 2.594C4.211-.133 3.641.14 2.86.14Q1.687.142 1.141-.687.608-1.531.609-3.266q-.002-1.746.547-2.578.545-.827 1.703-.828 1.186 0 1.72.844c.362.562.546 1.414.546 2.547m-1.156 2c.101-.239.172-.516.203-.828q.06-.48.062-1.172a10 10 0 0 0-.062-1.14 2.7 2.7 0 0 0-.203-.845 1.2 1.2 0 0 0-.422-.515c-.18-.114-.406-.172-.688-.172a1.3 1.3 0 0 0-.687.172q-.27.176-.422.515a3 3 0 0 0-.203.86 13 13 0 0 0-.047 1.14q0 .69.047 1.157.046.455.203.812.14.344.406.531c.176.118.41.172.703.172.282 0 .508-.054.688-.172q.28-.17.422-.515m0 0"/><path id="p" d="M2.156 0H1.11v-1.25h1.047Zm0 0"/><path id="q" d="M5.14 0H.704v-.922c.313-.258.617-.52.922-.781q.467-.404.875-.797c.563-.54.945-.973 1.156-1.297q.312-.48.313-1.031-.002-.516-.344-.797c-.219-.195-.531-.297-.937-.297q-.392 0-.86.14a3.3 3.3 0 0 0-.906.438H.875v-.922a4.3 4.3 0 0 1 .828-.28q.514-.142 1.016-.141.998 0 1.562.5.576.486.578 1.312 0 .375-.093.703-.095.316-.282.61-.174.269-.406.53-.22.27-.547.579a27 27 0 0 1-.984.906c-.336.281-.64.547-.922.797h3.516Zm0 0"/><path id="r" d="M4.766 0H1.219v-.672h1.36v-4.375h-1.36v-.61q.28 0 .593-.046a1.8 1.8 0 0 0 .485-.125.8.8 0 0 0 .312-.281.85.85 0 0 0 .141-.453h.672v5.89h1.344Zm0 0"/><path id="s" d="M5.078-2.078c0 .305-.058.594-.172.875a1.9 1.9 0 0 1-.453.703q-.315.315-.75.484a3.1 3.1 0 0 1-1.015.157Q2.154.14 1.656.016A4 4 0 0 1 .828-.25v-.922h.063c.238.156.515.29.828.39q.482.158.953.157c.207 0 .41-.023.61-.078.195-.063.366-.164.515-.313a1.1 1.1 0 0 0 .297-.453q.093-.264.093-.61a1.24 1.24 0 0 0-.125-.577.95.95 0 0 0-.312-.375 1.45 1.45 0 0 0-.547-.219 3.3 3.3 0 0 0-.734-.078q-.393.002-.75.062-.364.048-.61.094v-3.375h3.938v.766H1.953v1.75q.188-.014.375-.016.2-.014.36-.016.528 0 .921.094c.27.055.516.156.735.313q.358.236.547.625.187.377.187.953m0 0"/><path id="y" d="M5.813-2.016A1.9 1.9 0 0 1 5.14-.53q-.377.282-.828.406-.441.127-1.11.125H.875v-6.547h1.938c.476 0 .835.024 1.078.063q.358.047.687.218c.238.125.41.29.516.485.101.199.156.433.156.703q0 .468-.234.797a1.7 1.7 0 0 1-.625.531v.031q.655.128 1.03.578.39.458.391 1.125m-1.47-2.953a.9.9 0 0 0-.077-.39.6.6 0 0 0-.25-.266 1.1 1.1 0 0 0-.5-.14 8 8 0 0 0-.735-.032H1.75v1.89h1.125q.406 0 .64-.046.248-.045.454-.172a.77.77 0 0 0 .281-.344q.094-.2.094-.5m.563 2.985c0-.258-.043-.47-.125-.625Q4.67-2.844 4.36-3a1.5 1.5 0 0 0-.515-.14 8 8 0 0 0-.735-.032H1.75V-.75h1.156q.56 0 .922-.047.375-.06.61-.219.247-.169.359-.39c.07-.145.11-.336.11-.578m0 0"/><path id="z" d="M4.625 0h-.812v-.516q-.111.064-.297.204-.187.126-.375.218a2.6 2.6 0 0 1-.47.157Q2.404.14 2.048.14q-.673 0-1.14-.438Q.45-.747.452-1.422q0-.562.235-.906.247-.341.687-.547.45-.186 1.078-.25.62-.077 1.36-.125v-.125a.86.86 0 0 0-.11-.453.7.7 0 0 0-.281-.297A1.1 1.1 0 0 0 3-4.265a3.3 3.3 0 0 0-1.25.063 6 6 0 0 0-.812.233H.89v-.828a6 6 0 0 1 .703-.156q.45-.077.89-.078a3.8 3.8 0 0 1 .907.093c.257.055.484.149.672.282q.281.203.421.531.141.316.141.797Zm-.812-1.203v-1.375l-.907.078q-.503.033-.797.125a1.23 1.23 0 0 0-.578.313c-.148.136-.218.328-.218.578q-.001.422.25.64.247.204.78.203.434.001.798-.156.355-.17.672-.406m0 0"/><path id="A" d="M3.36-.047a4 4 0 0 1-.516.094q-.269.047-.485.047-.752.002-1.14-.406Q.828-.718.829-1.61v-2.61H.265v-.687h.562v-1.407h.828v1.407H3.36v.687H1.656v2.235q-.001.391.016.609.012.22.125.406a.62.62 0 0 0 .266.266c.113.055.285.078.515.078q.2 0 .422-.062.218-.059.313-.094h.046Zm0 0"/><path id="B" d="M4.438-.312A4.5 4.5 0 0 1 3.656 0c-.25.07-.511.11-.781.11a3 3 0 0 1-.984-.157 1.9 1.9 0 0 1-.75-.469 2 2 0 0 1-.5-.796c-.118-.32-.172-.704-.172-1.141q0-1.2.656-1.875.656-.687 1.75-.688.42.001.828.125.406.112.735.282v.906h-.032a3.7 3.7 0 0 0-.797-.438 2 2 0 0 0-.78-.171q-.705.002-1.11.484c-.274.312-.407.773-.407 1.375 0 .594.13 1.055.391 1.375q.405.469 1.125.469.246 0 .516-.063.264-.06.469-.172.17-.093.328-.187.17-.105.265-.188h.032Zm0 0"/><path id="C" d="M4.922 0h-.828v-2.797a4 4 0 0 0-.047-.64 1.05 1.05 0 0 0-.14-.454.7.7 0 0 0-.313-.28 1.3 1.3 0 0 0-.547-.095q-.328.001-.703.172a4.7 4.7 0 0 0-.703.422V0H.813v-6.844h.828v2.485a3 3 0 0 1 .797-.5q.42-.188.843-.188.797.002 1.219.484.422.471.422 1.375Zm0 0"/><path id="E" d="M5.281-1.844h-.968V0h-.844v-1.844H.344v-1.015L3.5-6.547h.813v4h.968ZM3.47-2.547V-5.5L.938-2.547Zm0 0"/><path id="F" d="M4.563-3.156c.132.125.25.289.343.484q.14.283.14.735 0 .454-.171.828A2.06 2.06 0 0 1 3.641 0q-.44.14-.97.14-.55 0-1.077-.141a4.6 4.6 0 0 1-.86-.281v-.922h.063q.373.252.875.422.516.157.984.156c.188 0 .383-.031.594-.094q.311-.091.5-.265.201-.2.297-.422c.07-.157.11-.352.11-.594q-.001-.357-.126-.578a1 1 0 0 0-.297-.375 1.4 1.4 0 0 0-.484-.172 3 3 0 0 0-.61-.062h-.39v-.735h.297q.668.002 1.062-.265c.27-.188.407-.461.407-.829a.77.77 0 0 0-.11-.406.75.75 0 0 0-.265-.297 1.5 1.5 0 0 0-.407-.156 2.3 2.3 0 0 0-.484-.047c-.281 0-.578.055-.89.156q-.47.141-.891.422H.922v-.922a4.3 4.3 0 0 1 .828-.28q.528-.142 1.016-.141.48 0 .843.093.358.095.657.282.31.222.468.515.171.3.172.688c0 .367-.133.683-.39.953a1.64 1.64 0 0 1-.907.515v.063q.216.034.485.156.28.112.468.266m0 0"/><path id="au" d="M6.703 0h-.86v-5.64L4.017-1.798H3.5L1.688-5.64V0H.875v-6.547h1.188l1.75 3.64L5.5-6.546h1.203Zm0 0"/><path id="av" d="M6.031 0H5.11l-.64-1.828H1.64L1 0H.11L2.5-6.547h1.156ZM4.203-2.578 3.047-5.781l-1.14 3.203Zm0 0"/><path id="aw" d="M5.188 0H.875v-6.547h4.313v.781H1.75v1.782h3.438v.78H1.75V-.78h3.438Zm0 0"/><path id="ax" d="M6.25-2.594 1.172-.344v-.781l4-1.734-4-1.735v-.797L6.25-3.14Zm0 0"/><path id="ay" d="M2.422 1.719h-.766v-8.563h.766Zm0 0"/><path id="aH" d="M3.875-4.016h-.047a7 7 0 0 0-.36-.046 2.5 2.5 0 0 0-.405-.032 1.7 1.7 0 0 0-.735.172 3.6 3.6 0 0 0-.687.438V0H.813v-4.906h.828v.718c.32-.257.609-.44.859-.546q.388-.171.781-.172c.133 0 .235.008.297.015.07 0 .172.012.297.032Zm0 0"/><path id="aI" d="M5-2.453c0 .805-.21 1.437-.625 1.906q-.61.69-1.64.688-1.048.002-1.657-.688c-.406-.469-.61-1.101-.61-1.906q0-1.2.61-1.89.608-.704 1.656-.704 1.032 0 1.641.703c.414.461.625 1.09.625 1.89m-.86 0q0-.95-.374-1.406-.375-.47-1.032-.47-.672 0-1.046.47-.375.456-.375 1.406 0 .926.375 1.406.374.47 1.046.469.657 0 1.032-.469t.375-1.406m0 0"/><path id="aJ" d="M1.64 0H.829v-6.844h.813Zm0 0"/><path id="aK" d="M1.703-5.734H.766v-.86h.937ZM1.641 0H.828v-4.906h.813Zm0 0"/><path id="aL" d="M4.922 0h-.828v-2.797a4 4 0 0 0-.047-.64 1.05 1.05 0 0 0-.14-.454.7.7 0 0 0-.313-.28 1.3 1.3 0 0 0-.547-.095q-.328.001-.703.172a4.7 4.7 0 0 0-.703.422V0H.813v-4.906h.828v.547a3 3 0 0 1 .797-.5q.42-.188.843-.188.797.002 1.219.484.422.471.422 1.375Zm0 0"/><path id="aM" d="M4.797-.562Q4.795.685 4.219 1.266q-.562.592-1.735.593-.39-.002-.765-.062a4.6 4.6 0 0 1-.735-.156V.797h.047q.2.093.64.203c.29.07.583.11.876.11q.421 0 .703-.094a.95.95 0 0 0 .438-.282Q3.84.56 3.906.313q.062-.234.063-.532v-.453q-.377.3-.719.453-.344.14-.86.14Q1.5-.076.985-.702.47-1.341.47-2.5c0-.426.054-.79.172-1.094.125-.3.289-.566.5-.797a1.9 1.9 0 0 1 .687-.484q.404-.17.813-.172.435 0 .718.094.282.082.61.25l.047-.203h.78Zm-.828-.782V-4.03a3.6 3.6 0 0 0-.61-.203 3 3 0 0 0-.562-.063q-.691 0-1.078.453-.391.456-.39 1.328 0 .831.28 1.25.295.423.97.422.355.002.718-.125.374-.141.672-.375m0 0"/><path id="aN" d="M6.984-4.906 5.704 0h-.766l-1.25-3.781L2.438 0h-.766L.375-4.906h.86L2.14-1.11l1.218-3.797h.688l1.25 3.797.86-3.797Zm0 0"/><path id="aO" d="M4.797 0h-.828v-.516a3 3 0 0 1-.75.485q-.377.17-.828.172Q1.5.14.984-.531.47-1.216.47-2.421c0-.415.054-.786.172-1.11.125-.32.289-.598.5-.828a2 2 0 0 1 .687-.5q.406-.188.828-.188.388 0 .688.094c.195.055.406.133.625.234v-2.125h.828Zm-.828-1.203v-2.828a4 4 0 0 0-.594-.203 2.7 2.7 0 0 0-.578-.063q-.705.002-1.094.484-.375.486-.375 1.376 0 .877.297 1.328c.195.304.516.453.953.453q.357 0 .719-.156a3.3 3.3 0 0 0 .672-.391m0 0"/><path id="aP" d="M6.281-3.437H1.078v-.704h5.203Zm0 1.843H1.078v-.703h5.203Zm0 0"/><path id="aQ" d="M7.969 0h-.813v-2.797q0-.31-.031-.61A1.4 1.4 0 0 0 7-3.874a.6.6 0 0 0-.297-.281c-.125-.07-.305-.11-.531-.11q-.364 0-.703.188-.346.175-.688.437.014.094.016.235.014.127.016.265V0h-.829v-2.797q0-.328-.03-.61a1.4 1.4 0 0 0-.126-.468.6.6 0 0 0-.281-.281c-.125-.07-.309-.11-.547-.11q-.346.001-.687.172a6 6 0 0 0-.672.422V0H.813v-4.906h.828v.547c.257-.22.515-.383.765-.5q.388-.188.828-.188.498 0 .844.219.357.204.516.578.513-.421.922-.61.404-.186.89-.187.797.001 1.172.5.388.486.39 1.36Zm0 0"/><path id="aR" d="M4.922-2.375h-3.61q-.001.457.125.797.142.329.375.547c.157.148.336.258.547.328q.312.094.688.094.497 0 1-.188.514-.2.734-.406h.047v.906q-.423.175-.86.297c-.292.07-.593.11-.905.11q-1.22 0-1.907-.657Q.468-1.202.47-2.422q0-1.201.656-1.906.657-.717 1.734-.719.984.002 1.516.578.546.58.547 1.657ZM4.125-3q-.017-.655-.344-1-.313-.359-.969-.36c-.449 0-.804.133-1.062.391A1.5 1.5 0 0 0 1.313-3Zm0 0"/><path id="aS" d="M6.031-6.547 3.656 0H2.5L.11-6.547h.937L3.094-.78l2.062-5.766Zm0 0"/><path id="t" d="M7.5-2.344q0 .564-.219 1a2 2 0 0 1-.61.719q-.455.344-1 .484Q5.139 0 4.313 0H.97v-7.64h2.969q.92.002 1.343.062.436.065.86.281c.289.149.504.344.64.594Q7-6.34 7-5.86c0 .367-.102.695-.297.984q-.3.422-.828.656v.032q.75.157 1.188.625.435.456.437 1.218M4.984-5.469a.9.9 0 0 0-.093-.39q-.096-.188-.344-.282a1.5 1.5 0 0 0-.531-.078q-.316-.013-.891-.015h-.187v1.609h.296q.47.001.797-.016.328-.011.516-.093.263-.124.344-.313a.9.9 0 0 0 .093-.422m.485 3.094q0-.358-.14-.547-.144-.201-.485-.297a2.2 2.2 0 0 0-.64-.078H2.937v1.89h1.328c.238 0 .457-.038.656-.124q.31-.14.422-.344a1 1 0 0 0 .125-.5m0 0"/><path id="u" d="M8.39-3.812q0 1.827-1.045 2.906Q6.31.158 4.454.156c-1.22 0-2.18-.351-2.876-1.062Q.53-1.985.531-3.812q0-1.84 1.047-2.907 1.045-1.078 2.875-1.078 1.842 0 2.89 1.078Q8.39-5.652 8.392-3.812m-2.61 1.937q.296-.359.438-.828c.093-.313.14-.68.14-1.11q0-.685-.171-1.171a2.4 2.4 0 0 0-.407-.782 1.64 1.64 0 0 0-.61-.453 1.9 1.9 0 0 0-.702-.14q-.376 0-.703.14a1.9 1.9 0 0 0-.61.438q-.27.299-.422.797a4 4 0 0 0-.156 1.172q-.002.69.156 1.171.154.47.407.766.263.314.609.453.342.14.719.14.374 0 .718-.14.341-.153.594-.453m0 0"/><path id="v" d="M11.516-7.64 9.453 0H7.281L5.906-4.969 4.578 0H2.391L.344-7.64H2.39l1.172 5.265 1.406-5.266h1.968L8.28-2.375 9.5-7.641Zm0 0"/><path id="w" d="M7.078-2.406q-.002 1.141-.953 1.844Q5.171.14 3.531.14a8 8 0 0 1-1.656-.157A7.7 7.7 0 0 1 .563-.453v-1.828H.78q.61.486 1.36.75c.5.18.984.265 1.453.265.125 0 .281-.007.469-.03q.295-.03.484-.11.217-.094.36-.235c.1-.093.155-.226.155-.406a.53.53 0 0 0-.218-.422q-.205-.186-.625-.297a36 36 0 0 0-.907-.187 8 8 0 0 1-.89-.219q-.972-.31-1.39-.844Q.608-4.56.608-5.359q0-1.061.954-1.735c.632-.445 1.453-.672 2.453-.672q.748 0 1.484.141.75.142 1.281.36V-5.5h-.203a4.2 4.2 0 0 0-1.14-.625 4 4 0 0 0-1.36-.25q-.253 0-.5.047a1.8 1.8 0 0 0-.453.125 1.1 1.1 0 0 0-.36.234.5.5 0 0 0-.14.344q0 .315.234.469.234.157.875.297.422.093.797.172.388.08.844.218.872.3 1.281.797.422.486.422 1.266m0 0"/><path id="x" d="M5.25-5.297a.9.9 0 0 0-.125-.484.7.7 0 0 0-.39-.328 1.7 1.7 0 0 0-.47-.094 6 6 0 0 0-.624-.031h-.703v2.062h.593q.48 0 .797-.047a1.1 1.1 0 0 0 .531-.218c.133-.102.235-.22.297-.344q.094-.187.094-.516M8.328 0H5.922L3.844-2.797h-.906V0H.968v-7.64h3.313q.67.001 1.157.077.48.081.921.344.422.252.672.657.265.41.266 1.03-.001.846-.406 1.376-.394.533-1.11.89Zm0 0"/><path id="G" d="M6.063 0H1.03v-7.64h5.032v.906H2.047v2.093h4.015v.907H2.048v2.828h4.015Zm0 0"/><path id="T" d="M4.016 2.11H2.844A8.2 8.2 0 0 1 1.422-.157c-.336-.82-.5-1.75-.5-2.781 0-1.02.164-1.942.5-2.766a8.5 8.5 0 0 1 1.422-2.281h1.172v.062a6.5 6.5 0 0 0-.797.86q-.376.485-.703 1.14-.301.628-.5 1.39a6.6 6.6 0 0 0-.188 1.595q0 .877.188 1.609.186.736.5 1.39.31.622.703 1.126.405.513.797.875Zm0 0"/><path id="U" d="M5.75-2.766H1.516q-.001.535.156.922.171.394.453.64.263.253.625.376c.25.086.52.125.813.125q.574 0 1.171-.235.592-.234.844-.468h.047v1.062q-.485.204-1 .344c-.336.094-.687.14-1.062.14Q2.14.143 1.342-.624q-.795-.78-.796-2.203-.001-1.405.766-2.234.761-.828 2.015-.829 1.154 0 1.781.688.64.675.641 1.922ZM4.797-3.5q0-.761-.375-1.172c-.25-.281-.633-.422-1.14-.422-.524 0-.938.157-1.25.469q-.457.457-.516 1.125Zm0 0"/><path id="V" d="M7.047-7.64 4.266 0h-1.36L.141-7.64h1.078l2.39 6.718L6.016-7.64Zm0 0"/><path id="W" d="M4.406-7.984.734 1.563h-.89L3.5-7.985Zm0 0"/><path id="X" d="M5.406 0h-.968v-.61c-.086.063-.2.15-.344.25a2 2 0 0 1-.422.235 2.4 2.4 0 0 1-.563.203q-.315.077-.718.078c-.524 0-.965-.164-1.328-.5Q.53-.859.53-1.656q0-.655.282-1.063.281-.403.796-.625.529-.233 1.25-.312a19 19 0 0 1 1.579-.125v-.156q-.001-.328-.125-.532A.9.9 0 0 0 4-4.812a1.4 1.4 0 0 0-.5-.157 3.6 3.6 0 0 0-.594-.047c-.261 0-.547.04-.86.11a6 6 0 0 0-.952.281h-.047v-.984q.28-.075.812-.157a6 6 0 0 1 1.047-.093q.608 0 1.047.093.452.096.781.344c.22.156.383.36.5.61q.171.376.172.921Zm-.968-1.406V-3q-.439.02-1.047.078-.598.047-.938.14-.409.13-.672.376-.251.25-.25.672 0 .504.297.75c.195.168.5.25.906.25q.5 0 .922-.203a4.6 4.6 0 0 0 .781-.47m0 0"/><path id="Y" d="M3.922-.047c-.18.043-.375.078-.594.11q-.316.046-.562.046-.892 0-1.344-.468C1.117-.672.969-1.176.969-1.875v-3.047H.313v-.812h.656v-1.641h.969v1.64h1.984v.813H1.937v2.61q-.001.455.016.718a1 1 0 0 0 .14.469.64.64 0 0 0 .313.297q.2.094.61.094.233 0 .484-.063.263-.077.375-.125h.047Zm0 0"/><path id="Z" d="M5.828-2.86Q5.826-1.464 5.11-.655q-.72.813-1.921.812-1.221 0-1.938-.812-.703-.81-.703-2.203 0-1.405.703-2.22c.477-.538 1.125-.812 1.938-.812.8 0 1.44.274 1.921.813.477.543.72 1.281.72 2.219m-1 0q-.002-1.106-.437-1.656-.424-.545-1.203-.546-.786 0-1.22.546-.437.55-.437 1.657 0 1.077.438 1.64.433.549 1.219.547.762.002 1.203-.547.435-.563.437-1.64m0 0"/><path id="aa" d="M9.313 0h-.97v-3.266q0-.357-.03-.703a1.6 1.6 0 0 0-.141-.547.8.8 0 0 0-.344-.343c-.148-.07-.36-.11-.64-.11q-.41.002-.813.203a5.5 5.5 0 0 0-.797.516c.008.086.016.18.016.281q.013.157.015.297V0h-.968v-3.266q-.001-.374-.032-.718a1.6 1.6 0 0 0-.14-.547.72.72 0 0 0-.344-.328c-.148-.07-.355-.11-.625-.11a1.8 1.8 0 0 0-.797.203c-.262.125-.527.29-.797.485V0H.953v-5.734h.953v.64q.45-.374.907-.578.45-.218.953-.219.59.002 1 .25a1.6 1.6 0 0 1 .609.688q.575-.497 1.063-.719a2.5 2.5 0 0 1 1.03-.219c.626 0 1.087.196 1.391.579q.453.563.454 1.593Zm0 0"/><path id="ab" d="M3.844-2.937c0 1.03-.172 1.96-.516 2.78A8 8 0 0 1 1.922 2.11H.75v-.046a6.3 6.3 0 0 0 .797-.876A7 7 0 0 0 2.25.063c.207-.438.375-.899.5-1.391a6.5 6.5 0 0 0 .188-1.61q0-.843-.188-1.593a6.8 6.8 0 0 0-1.203-2.532q-.375-.482-.797-.859v-.062h1.172q.902 1.05 1.406 2.28.516 1.238.516 2.766m0 0"/><path id="I" d="M3.781 0H3.11v-.422l-.25.172a1.6 1.6 0 0 1-.296.172 1.5 1.5 0 0 1-.376.125q-.222.06-.515.062Q1.123.111.75-.25a1.2 1.2 0 0 1-.375-.906q0-.47.188-.75.198-.28.562-.438.358-.153.875-.219c.344-.039.71-.066 1.11-.078v-.109a.67.67 0 0 0-.094-.375.6.6 0 0 0-.22-.234.73.73 0 0 0-.343-.11 3 3 0 0 0-.422-.031c-.18 0-.375.027-.594.078a4.6 4.6 0 0 0-.671.188H.734v-.688q.188-.045.563-.11c.25-.05.492-.077.734-.077q.42 0 .735.078.311.064.547.234.233.175.343.438.124.253.125.64ZM3.11-.984v-1.11q-.314.018-.734.047a3.3 3.3 0 0 0-.656.11q-.299.08-.485.25c-.117.117-.171.277-.171.484q-.001.345.203.516c.144.117.359.171.64.171q.358 0 .657-.14.293-.14.546-.328m0 0"/><path id="J" d="M4.188-2.031q0 .502-.141.906a2.2 2.2 0 0 1-.375.672q-.269.28-.578.422c-.2.09-.418.14-.656.14q-.346 0-.61-.078a2.2 2.2 0 0 1-.484-.218L1.297 0h-.64v-5.578h.687v2q.28-.234.593-.375.329-.155.72-.156c.468 0 .835.183 1.109.547q.421.534.422 1.53m-.688.015q-.002-.714-.25-1.078c-.156-.25-.414-.375-.766-.375a1.6 1.6 0 0 0-.593.125q-.3.13-.547.328V-.72c.187.086.347.14.484.172q.2.047.469.047c.375 0 .664-.117.875-.36.219-.25.328-.632.328-1.156m0 0"/><path id="K" d="M4.078-2q-.001.984-.5 1.547c-.336.375-.781.562-1.344.562Q1.373.11.875-.453C.539-.828.375-1.343.375-2s.164-1.172.5-1.547q.498-.562 1.36-.562c.562 0 1.007.187 1.343.562q.499.562.5 1.547m-.703 0q0-.78-.312-1.156-.3-.375-.829-.375-.55 0-.859.375Q1.077-2.78 1.078-2c0 .5.098.883.297 1.14q.31.392.86.391.527 0 .828-.375.311-.388.312-1.156m0 0"/><path id="L" d="M4.125-4 2.5 0h-.672L.218-4h.735L2.188-.812 3.422-4Zm0 0"/><path id="M" d="M4.016-1.937H1.063q-.001.374.109.656.106.269.312.437.187.174.438.266c.176.055.363.078.562.078q.404.001.813-.156.421-.17.61-.328h.03v.734q-.345.157-.703.25-.346.094-.734.094-1 0-1.562-.531Q.375-.983.375-1.984q0-.985.531-1.547.544-.576 1.422-.578.81 0 1.25.468.437.47.438 1.344Zm-.657-.516q-.001-.53-.265-.813-.27-.294-.797-.296-.549 0-.875.328c-.211.21-.328.468-.36.78Zm0 0"/><path id="O" d="M5.469 0h-.703v-4.594L3.28-1.469h-.42L1.375-4.594V0H.719v-5.344h.969l1.421 2.985 1.375-2.985h.985Zm0 0"/><path id="P" d="M4.203-3.719q-.001.346-.125.656-.11.3-.344.516-.27.281-.656.422-.375.14-.937.14h-.72V0H.72v-5.344h1.453q.468 0 .797.094.34.082.61.25a1.4 1.4 0 0 1 .452.516q.171.298.172.765m-.734.016q0-.28-.094-.485a.8.8 0 0 0-.297-.328 1.1 1.1 0 0 0-.39-.171 3 3 0 0 0-.563-.047h-.703v2.14h.61c.28 0 .507-.023.687-.078a.9.9 0 0 0 .437-.25.95.95 0 0 0 .235-.36q.076-.187.078-.421m0 0"/><path id="Q" d="M4.016 0h-.672v-2.281q-.001-.282-.031-.516c-.024-.164-.063-.289-.126-.375a.52.52 0 0 0-.265-.219 1 1 0 0 0-.438-.078c-.18 0-.37.047-.578.14q-.298.129-.562.345V0H.656v-5.578h.688v2.016a2.6 2.6 0 0 1 .64-.407q.34-.14.704-.14.637.002.984.39c.226.262.344.637.344 1.125Zm0 0"/><path id="R" d="M3.984 0h-.671v-.437c-.231.18-.45.312-.657.406-.21.09-.437.14-.687.14q-.627 0-.985-.375c-.23-.257-.343-.64-.343-1.14V-4h.672v2.281q-.002.3.015.516.031.222.125.375a.7.7 0 0 0 .25.234q.154.064.453.063.263.001.578-.125c.207-.094.399-.211.579-.36V-4h.671Zm0 0"/><path id="S" d="M1.344 0H.672v-5.578h.672Zm0 0"/><path id="ac" d="M0-7.344v1.313L-3.031-3.47v1.422H0v1.016h-7.64v-2.125q0-.702.093-1.156a2.4 2.4 0 0 1 .328-.829q.252-.421.657-.656.39-.234 1-.234.83 0 1.39.422c.367.273.64.652.828 1.14Zm-5.484 2.375q-.328.001-.578.125a1 1 0 0 0-.438.375q-.14.222-.203.532-.062.298-.063.703v1.187h2.891v-1.015c0-.32-.023-.602-.078-.844a1.4 1.4 0 0 0-.328-.61 1.35 1.35 0 0 0-.5-.343 2 2 0 0 0-.703-.11m0 0"/><path id="ad" d="M-2.86-5.828q1.395.002 2.204.719.813.72.812 1.922 0 1.22-.812 1.937-.81.703-2.203.703-1.405 0-2.22-.703c-.538-.477-.812-1.125-.812-1.937 0-.801.274-1.442.813-1.922.543-.477 1.281-.72 2.219-.72m0 1q-1.106.002-1.656.437-.545.423-.546 1.204 0 .785.546 1.218.55.439 1.657.438 1.077 0 1.64-.438.549-.433.547-1.218.002-.763-.547-1.204-.563-.435-1.64-.437m0 0"/><path id="ae" d="M0-1.922v.969h-7.984v-.969Zm0 0"/><path id="af" d="M-6.687-1.984v1.093h-1v-1.093ZM0-1.922v.969h-5.734v-.969Zm0 0"/><path id="ag" d="M0-5.734v.968h-3.266q-.387 0-.734.047-.341.034-.547.157a.72.72 0 0 0-.312.375 1.55 1.55 0 0 0-.11.625q.002.393.203.828c.125.28.29.558.485.828H0v.953h-5.734v-.953h.64q-.374-.452-.578-.938a2.4 2.4 0 0 1-.219-.984q0-.937.563-1.422.564-.482 1.61-.484Zm0 0"/><path id="ah" d="M-.656-5.594c.976 0 1.691.227 2.14.672q.687.659.688 2.031c0 .305-.024.602-.063.891a7 7 0 0 1-.187.844H.938v-.047a7 7 0 0 0 .218-.75q.14-.516.14-1.031 0-.48-.124-.797a1.24 1.24 0 0 0-.313-.516 1.3 1.3 0 0 0-.484-.25 2.4 2.4 0 0 0-.625-.078h-.531q.345.44.515.828c.118.262.172.602.172 1.016 0 .68-.242 1.219-.734 1.625q-.733.61-2.094.61-.732 0-1.265-.204a2.8 2.8 0 0 1-.922-.578 2.2 2.2 0 0 1-.578-.797 2.5 2.5 0 0 1-.204-.969c0-.32.04-.594.11-.812a3.6 3.6 0 0 1 .297-.719l-.25-.062v-.907Zm-.922.969h-3.125q-.17.377-.234.719-.078.328-.079.656.002.783.532 1.25c.355.305.87.453 1.547.453q.971 0 1.468-.328c.324-.227.485-.61.485-1.14q.001-.423-.157-.844a2.6 2.6 0 0 0-.437-.766m0 0"/><path id="aj" d="M0-7.828v1.016h-6.578l4.469 2.125v.609l-4.47 2.11H0v.937h-7.64v-1.375l4.25-2.031-4.25-1.97v-1.421Zm0 0"/><path id="ak" d="M0-7.047v1.078l-2.125.75v3.313L0-1.156v1.015l-7.64-2.765v-1.36Zm-3 2.14-3.75 1.345L-3-2.22Zm0 0"/><path id="al" d="M0-6.062v5.03h-7.64v-5.03h.906v4.015h2.093v-4.015h.907v4.015h2.828v-4.015Zm0 0"/><path id="am" d="M2.11-4.016v1.172A8.2 8.2 0 0 1-.157-1.422c-.82.336-1.75.5-2.781.5-1.02 0-1.942-.164-2.766-.5a8.5 8.5 0 0 1-2.281-1.422v-1.172h.062c.25.282.54.547.86.797q.485.376 1.14.703.628.301 1.39.5.75.188 1.595.188.877 0 1.609-.188.736-.186 1.39-.5.622-.31 1.126-.703a7.5 7.5 0 0 0 .875-.797Zm0 0"/><path id="an" d="M-2.766-5.75v4.234q.535.001.922-.156.394-.171.64-.453.253-.263.376-.625c.086-.25.125-.52.125-.812q0-.575-.235-1.172-.234-.592-.468-.844v-.047h1.062q.204.485.344 1 .14.502.14 1.063.002 1.422-.765 2.218-.78.798-2.203.797c-.938 0-1.68-.254-2.234-.765q-.828-.762-.829-2.016 0-1.154.688-1.781.675-.64 1.922-.641Zm-.734.953q-.761 0-1.172.375c-.281.25-.422.633-.422 1.14 0 .524.157.938.469 1.25q.457.457 1.125.516Zm0 0"/><path id="ao" d="M-7.64-7.047 0-4.266v1.36L-7.64-.141v-1.078l6.718-2.39-6.719-2.407Zm0 0"/><path id="ap" d="M-7.984-4.406 1.563-.734v.89L-7.985-3.5Zm0 0"/><path id="aq" d="M0-5.406v.968h-.61c.063.086.15.2.25.344q.159.224.235.422c.086.156.148.344.203.563q.077.315.078.718c0 .524-.164.965-.5 1.329q-.515.531-1.312.53-.655 0-1.063-.28a1.8 1.8 0 0 1-.625-.797q-.233-.529-.312-1.25a19 19 0 0 1-.125-1.578h-.156q-.328 0-.532.125A.9.9 0 0 0-4.812-4a1.4 1.4 0 0 0-.157.5 3.6 3.6 0 0 0-.047.594c0 .261.04.547.11.86q.093.455.281.952v.047h-.984a8 8 0 0 1-.157-.812 6 6 0 0 1-.093-1.047q0-.608.093-1.047.096-.452.344-.781c.156-.22.36-.383.61-.5q.376-.171.921-.172Zm-1.406.968H-3q.02.439.078 1.047.047.598.14.938.13.409.376.672.25.251.672.25.504 0 .75-.297c.168-.195.25-.5.25-.906q0-.5-.203-.922a4.6 4.6 0 0 0-.47-.781m0 0"/><path id="ar" d="M-.047-3.922c.043.18.078.375.11.594q.046.316.046.562 0 .892-.468 1.344c-.313.305-.817.453-1.516.453h-3.047v.657h-.812V-.97h-1.641v-.968h1.64v-1.985h.813v1.985h2.61q.455.001.718-.016a1 1 0 0 0 .469-.14.64.64 0 0 0 .297-.313q.094-.2.094-.61 0-.233-.063-.484a4 4 0 0 0-.125-.375v-.047Zm0 0"/><path id="as" d="M0-9.312v.968h-3.266q-.357.001-.703.031-.34.035-.547.141a.8.8 0 0 0-.343.344c-.07.148-.11.36-.11.64q.002.41.203.813.206.393.516.797.13-.014.281-.016.157-.013.297-.015H0v.968h-3.266q-.374.001-.718.032-.341.035-.547.14a.72.72 0 0 0-.328.344c-.07.148-.11.355-.11.625q.002.392.203.797c.125.262.29.527.485.797H0v.953h-5.734v-.953h.64q-.374-.45-.578-.907a2.2 2.2 0 0 1-.219-.953q.002-.59.25-1a1.6 1.6 0 0 1 .688-.609q-.497-.575-.719-1.062A2.5 2.5 0 0 1-5.89-7.47c0-.625.196-1.086.579-1.39q.563-.452 1.593-.453Zm0 0"/><path id="at" d="M-2.937-3.844c1.03 0 1.96.172 2.78.516A8 8 0 0 1 2.11-1.922V-.75h-.046a6.3 6.3 0 0 0-.876-.797A7 7 0 0 0 .063-2.25a7.6 7.6 0 0 0-1.391-.5 6.5 6.5 0 0 0-1.61-.187q-.843 0-1.593.187a6.8 6.8 0 0 0-2.532 1.203q-.482.375-.859.797h-.062v-1.172q1.05-.902 2.28-1.406 1.238-.516 2.766-.516m0 0"/><path id="az" d="M3.438 0h-.579v-1.953q0-.232-.03-.438a.7.7 0 0 0-.095-.328.5.5 0 0 0-.218-.203 1 1 0 0 0-.375-.062q-.236.001-.5.125a2.5 2.5 0 0 0-.5.297V0H.563v-4.781h.578v1.734c.187-.156.375-.273.562-.36q.294-.123.594-.124.562.002.844.344c.195.218.297.539.297.953Zm0 0"/><path id="aA" d="M3.422 0h-.578v-.375q-.3.222-.563.344c-.18.082-.375.125-.594.125q-.55 0-.843-.328c-.2-.22-.297-.54-.297-.97v-2.234h.578v1.954c0 .18.004.328.016.453q.028.188.109.312.075.143.203.203a1 1 0 0 0 .39.063q.234.001.5-.11.267-.124.5-.312v-2.562h.579Zm0 0"/><path id="aB" d="M1.156 0H.578v-4.781h.578Zm0 0"/><path id="aD" d="M3.36 0h-.58v-.36a2 2 0 0 1-.531.344c-.18.07-.371.11-.578.11q-.627 0-.984-.469c-.243-.32-.36-.758-.36-1.312q-.001-.435.125-.782c.082-.226.195-.422.344-.578.133-.156.297-.273.484-.36q.281-.123.578-.124.264.002.47.062.217.048.452.172V-4.78h.578Zm-.58-.844v-1.969a2 2 0 0 0-.422-.14A1.7 1.7 0 0 0 1.953-3q-.485.002-.766.344c-.18.219-.265.539-.265.953q-.001.61.203.937.218.315.688.313.233.001.484-.11.263-.106.484-.28m0 0"/><path id="aE" d="M1.188-4.016H.53v-.593h.657ZM1.156 0H.578v-3.437h.578Zm0 0"/><path id="aF" d="M3.016-.984c0 .312-.133.57-.391.765-.25.2-.602.297-1.047.297Q1.186.078.86 0a2.6 2.6 0 0 1-.515-.203V-.86h.031q.265.204.594.328c.226.086.445.125.656.125.25 0 .445-.04.594-.125a.42.42 0 0 0 .219-.39q0-.202-.126-.298-.112-.105-.453-.187-.113-.03-.312-.063a2.4 2.4 0 0 1-.36-.078q-.454-.122-.64-.344A.9.9 0 0 1 .36-2.47q-.002-.217.079-.406a1 1 0 0 1 .265-.328 1.2 1.2 0 0 1 .438-.219 1.8 1.8 0 0 1 .593-.094q.31.001.625.079.31.08.532.171v.625H2.86a2.2 2.2 0 0 0-.546-.265 1.7 1.7 0 0 0-.61-.125 1.1 1.1 0 0 0-.547.125c-.148.086-.218.203-.218.36q0 .222.14.327.123.095.422.172c.102.024.219.047.344.078q.201.034.343.063.387.094.61.312.218.235.219.61m0 0"/><path id="aG" d="M2.36-.031C2.241 0 2.124.019 2 .03q-.19.031-.344.032-.532 0-.812-.282Q.576-.5.578-1.126v-1.828h-.39v-.485h.39v-.984h.578v.984H2.36v.485H1.156v1.562q-.001.284.016.438a.8.8 0 0 0 .078.281.5.5 0 0 0 .188.188q.123.045.375.046c.093 0 .187-.007.28-.03.102-.032.18-.055.235-.079h.031Zm0 0"/><clipPath id="e"><path d="M0 0h375v247.5H0Zm0 0"/></clipPath><clipPath id="f"><path d="M52.5 13.5H360V204H52.5Zm0 0"/></clipPath><clipPath id="c"><path d="M.5.5H308V191H.5Zm0 0"/></clipPath><clipPath id="d"><path d="M152 188h5v3h-5Zm0 0"/></clipPath><clipPath id="b"><path d="M0 0h308v191H0z"/></clipPath><clipPath id="i"><path d="M52.5 71H357v69H52.5Zm0 0"/></clipPath><clipPath id="j"><path d="M52.5 83H357v58H52.5Zm0 0"/></clipPath><clipPath id="k"><path d="M52.5 80H350v56H52.5Zm0 0"/></clipPath><clipPath id="l"><path d="M52.5 74H355v58H52.5Zm0 0"/></clipPath><clipPath id="m"><path d="M52.5 71H357v53H52.5Zm0 0"/></clipPath><filter id="a" width="100%" height="100%" x="0%" y="0%"><feColorMatrix color-interpolation-filters="sRGB" values="0 0 0 0 1 0 0 0 0 1 0 0 0 0 1 0 0 0 1 0"/></filter><mask id="g"><g filter="url(#a)"><path fill-opacity=".2" d="M-37.512-24.792h450.144v297.504H-37.512z"/></g></mask><g id="h" clip-path="url(#b)"><g clip-path="url(#c)"><path fill="red" d="M-614.5-761.5 154.25 191 923-761.5Zm0 0"/><path fill="none" stroke="#636EFA" stroke-miterlimit="2" stroke-width="1.5" d="M-614.5-761.5 154.25 191 923-761.5"/></g><g clip-path="url(#d)"><path fill="#636EFA" d="M156.5 191q-.001.447-.172.86-.17.414-.488.73-.316.317-.73.488a2.24 2.24 0 0 1-1.72 0 2.2 2.2 0 0 1-.73-.488 2.2 2.2 0 0 1-.488-.73 2.24 2.24 0 0 1 0-1.72q.17-.414.488-.73.316-.317.73-.488a2.24 2.24 0 0 1 1.72 0q.414.17.73.488.317.316.488.73.17.413.172.86m0 0"/></g></g></defs><g clip-path="url(#e)"><path fill="#FFF" d="M0 0h375v247.5H0Zm0 0"/></g><path fill="#FFF" d="M52.5 13.5H360V204H52.5Zm0 0"/><path fill="none" stroke="#D3D3D3" stroke-width=".75" d="M129.375 13.5V204m153.75-190.5V204M52.5 156.375H360M52.5 108.75H360M52.5 61.125H360"/><path fill="none" stroke="#EBF0F8" stroke-width="1.5" d="M206.25 13.5V204"/><g clip-path="url(#f)" mask="url(#g)"><use xlink:href="#h" transform="translate(52 13)"/></g><g clip-path="url(#i)"><path fill="#EF553B" d="m52.055 108.738 1.808-1.336.89 1.203-1.808 1.34Zm3.617-2.675 1.805-1.34.894 1.207-1.809 1.336Zm3.613-2.68.457-.336.446.601-.684-.304.687-1.54 1.368.614-.766 1.719-.613.453Zm1.824-3.63.918-2.054 1.371.614-.921 2.05Zm1.836-4.108L63.684 94l1.816.996-.719 1.313-1.105-.602.36-.66.683.308-.403.903Zm4.532.43.894.487.945 1.215-1.18.922-.85-1.09.589-.46-.36.656-.761-.414Zm3.226 3.476 1.383 1.773-1.18.922-1.386-1.773Zm1.902.699 1.66-1.516 1.012 1.106-1.66 1.52Zm4.356-1.742 1.945 1.133-.754 1.296-1.945-1.132Zm3.824 1.867 2.184.555-.371 1.453-2.18-.555Zm4.156 2.313 1.403 1.757-1.172.938-1.402-1.758Zm2.856 3.617 1.137 1.941-1.297.758-1.133-1.945Zm2.27 3.886 1.132 1.942-1.297.758-1.132-1.946Zm1.433 1.422 1.637-1.547 1.031 1.094-1.637 1.543Zm3.371-3.086 1.781-1.379.918 1.188-1.777 1.379Zm4.277-2.593 2.168.605-.406 1.445-2.164-.605Zm4.45 1.722 1.656 1.52-1.012 1.105-1.66-1.52Zm2.218 2.934 1.434-1.735 1.156.957-1.433 1.735Zm2.871-3.465 1.25-1.512 1.297.551-.59 1.379-.777-.332.293-.688.578.477-.894 1.082Zm4.618-.078.988.422-.293.687-.664-.351.55-1.035 1.325.703-.871 1.644-1.625-.691Zm1.636-2.266 1.051-1.988 1.328.703-1.054 1.988Zm2.106-3.976.3-.563 2.247-.504.328 1.461-1.91.43-.164-.73.664.351-.14.258Zm4.457-1.547 1.887-1.227.82 1.258-1.887 1.227Zm4.676-2.153 1.64 1.54-1.023 1.093-1.645-1.539Zm3.285 3.079 1.64 1.535-1.023 1.097-1.644-1.539Zm3.281 3.074.988.926-.511.546.437-.609.73.527-.878 1.215-.766-.554-1.023-.957Zm3.465 2.707 1.324.957.52.476-1.012 1.106-.488-.445.507-.555-.437.61-1.29-.934Zm3.504 2.953 1.66 1.52-1.016 1.105-1.656-1.52Zm3.453 1.602 1.953.207.574.652-1.125.996-.382-.437.562-.497-.082.746-1.66-.175Zm4.016 2.546 1.492 1.688-1.125.992-1.492-1.687Zm2.882 1.895 2.246-.137.09 1.496-2.246.137Zm4.461 1.555 1.633 1.55-1.035 1.086-1.629-1.547Zm3.227 2.191 2.219.371-.246 1.48-2.22-.37Zm4.215.137 1.898-.27.106.742-.262-.703.312-.113.524 1.406-.39.14-1.977.282Zm4.164-1.13 1.61-.597.925.164-.258 1.477-.726-.125.129-.742.261.703-1.418.527Zm4.754-.042 1.148.2 1.082 1.151-1.09 1.028-.914-.969.547-.516-.129.739-.906-.157Zm3.773 2.988 1.387 1.473-.547.515.23-.714.22.07-.462 1.43-.402-.133-1.516-1.61Zm3.43 2.035 1.62.528.642.515-.942 1.168-.531-.43.469-.585-.23.714-1.49-.48Zm4.015 2.453 1.567 1.262.207.188-1.004 1.113-.187-.172.5-.555-.47.582-1.554-1.25Zm3.446 2.954 1.676 1.503-1.004 1.118-1.672-1.508Zm3.347 3.011 1.672 1.504-1.004 1.113-1.671-1.503Zm3.344 3.008 1.672 1.504-1.004 1.117-1.672-1.504Zm3.14 2.637 2.18.558-.37 1.454-2.18-.56Zm4.352 1.101 2.188.532-.356 1.457-2.187-.532Zm4.102.434 2.219-.36.242 1.481-2.223.36Zm4.582-.402 1.672-.02.008.75-.141-.734.566-.11.282 1.477-.633.117-1.738.02Zm4.316-.532 1.063-.203.14.739-.222-.715 1.113-.352.45 1.434-1.157.363-1.105.207Zm4.243-1.203.582-.183.226.714-.383-.644 1.41-.836.762 1.293-1.48.879-.668.207Zm3.77-2.094.495-.292.383.644-.406-.629 1.406-.91.813 1.262-1.418.918-.508.3Zm3.765-2.41.629-.406 1.582-.559.5 1.415-1.5.53-.25-.706.406.629-.55.36Zm4.332-1.714.219-.079.25.707-.399-.632 1.707-1.079.8 1.27-1.78 1.121-.297.106Zm3.68-2.278.3-.191 1.914-.723.532 1.402-1.844.7-.266-.703.399.636-.235.149Zm4.367-1.722 2.148-.66.441 1.433-2.148.66Zm4.43-1.262 2.226-.324.219 1.484-2.227.324Zm4.222-.871 2.098-.813.543 1.399-2.098.812Zm4.195-1.63 2.098-.812.543 1.399-2.098.812Zm4.196-1.624 2.066-.805.133-.031.347 1.46-.085.02-.172-.73.27.7-2.016.784Zm4.386-1.356 1.63-.39.702-.043.094 1.496-.637.039-.046-.746.171.73-1.566.371Zm4.575-.578.968-.062.047.746-.203-.719 1.234-.348.407 1.446-1.313.367-1.043.066Zm4.214-.988.438-.121.203.722-.262-.703 1.684-.625.523 1.403-1.715.64-.468.13Zm4.168-1.512.059-.023.262.703-.508-.55 1.613-1.485 1.012 1.105-1.719 1.582-.195.07Zm3.078-2.879.625-.574 1.313-.812.789 1.273-1.25.777-.394-.636.507.55-.574.528Zm3.848-2.574.797-.496 1.54-.328.312 1.465-1.41.3-.157-.734.395.637-.684.43Zm4.535-1.293.23-.05.157.734-.402-.633 1.703-1.082.8 1.27-1.812 1.152-.363.074Zm3.586-2.234 1.899-1.207.804 1.265-1.898 1.207Zm3.797-2.414.29-.184.401.633-.46-.59 1.503-1.176.922 1.184-1.53 1.195-.321.203Zm3.508-2.7.621-.484 1.41-.746.703 1.328-1.351.715-.352-.664.461.594-.566.441Zm4.02-2.28 1.988-1.055.703 1.324-1.988 1.054Zm3.976-2.106 1.988-1.055.703 1.324-1.988 1.055Zm3.977-2.11.253-.132 1.832-.829.618 1.368-1.809.816-.308-.684.351.664-.234.125Zm4.074-1.859 1.957-1.11.738 1.305-1.957 1.11Zm3.914-2.219 1.957-1.11.742 1.306-1.957 1.109Zm4.125-2.25 2.183-.539.36 1.457-2.184.54Zm4.473-1.004 2.234-.27.18 1.49-2.235.269Zm3.964-.984 1.907-1.195.796 1.27-1.906 1.194Zm3.524-2.508 1.625-1.558 1.039 1.078-1.625 1.558Zm3.574-3.125 2.078-.863.574 1.387-2.074.863Zm3.863-1.816 1.766-1.395.93 1.176-1.766 1.394Zm3.785-2.797 2.094-.817.547 1.399-2.098.816Zm4.368-1.528 2.214-.41.274 1.477-2.215.41Zm4.105-1.117 2.016-1 .668 1.34-2.016 1.004Zm4.192-1.86 2.125-.745.496 1.418-2.125.742Zm0 0"/></g><g clip-path="url(#j)"><path fill="#00CC96" d="m52.07 123.707 5.524-3.879.863 1.23-5.527 3.876Zm12.555-6.008 3.684 2.594-.434.613-.133-.738 2.211-.39.266 1.476-2.52.445-3.937-2.773Zm12.191.977 2.848 1.031 3.504 1.238-.5 1.414-3.512-1.242-2.851-1.031Zm11.672 7.058 3.11 5.797-.66.356-.649-.375.086-.149 1.297.754-.086.149-1.309-.024-3.113-5.797Zm5.282-.207.48-.828 4.367-2.14 1.903.894-.641 1.36-1.574-.747.32-.675.332.671-3.844 1.883-.328-.672.649.375-.368.633Zm12.449 1.793.57.473-.477.578-.367-.652 4.012-2.27 1.781-.035.028 1.5-1.59.031-.016-.75.367.653-4.293 2.43-.968-.798Zm10.558-4.82.559-.52.512.547-.555-.504 4.207-4.636.75.343-.629 1.364-.246-.114.313-.683.554.504-3.86 4.254-.581.543Zm11.645-2.43 1.148.309-.195.723-.21-.72 3.847-1.124.21.719-.429-.614 1.277-.886.856 1.23-1.375.957-4.168 1.219-1.352-.367Zm12.312-3.25.29.02 4.027.93 2.262 1.507-.833 1.246-2.148-1.43.418-.624-.168.73-3.84-.883.168-.73-.055.746-.23-.016Zm12.164 5.989 3.684 1.593-.297.692.137-.739 2.691.504-.277 1.473-2.774-.52-3.757-1.624Zm12.864 3.351 2.234.492 3.867 1.078-.203.723-.031-.75.492-.02.059 1.5-.61.024-3.96-1.105.202-.723-.16.734-2.214-.488Zm12.832.55.761-.198 4.055 1.156 2.078.7-.476 1.421-2.063-.691.238-.711-.207.718-3.84-1.093.208-.723.191.727-.562.148Zm12.57 5.65.211.19-.5.56.48-.575 3.848 3.227-.48.574.343-.668 1.286.664-.688 1.332-1.36-.7-3.921-3.288-.219-.196Zm11.344 5.992.05.007-.148.735.008-.75 3.86.047 2.87.18-.093 1.495-2.852-.18.047-.745-.008.75-3.91-.047-.121-.024Zm13.152-.676 2.02-.29.105.743-.242-.711 3.84-1.32.597-.22.512 1.411-.625.227-3.906 1.343-2.086.301Zm12.668-4.098 4.633-1.683 1.914-.352.273 1.473-1.851.343-.137-.738.254.707-4.574 1.66Zm13.152-3.351 3.079-.63 3.609-.535.219 1.485-3.59.531-.11-.742.153.734-3.059.625Zm12.56-3.98 1.929-.942 3.922-.918.171.726-.359-.656.652-.355.72 1.316-.743.402-3.937.926-.172-.73.328.671-1.856.907Zm12.241-5.38 5.926-3.23.719 1.316-5.926 3.234Zm11.852-6.46.887-.485 3.945-.871.16.73-.453-.594 1.52-1.16.91 1.192-1.653 1.261-4.004.883-.16-.734.36.66-.793.434Zm11.426-6.477.87-.664 3.966-1.73 1.511-.481.453 1.43-1.472.468-.227-.715.3.688-3.847 1.68-.3-.688.453.598-.797.609Zm12.78-4.914 6.438-2.04.453 1.43-6.437 2.04Zm13.247-3.38 2.148.04-.011.75-.149-.735 3.84-.773.149.734-.223-.715.648-.203.45 1.43-.688.215-3.96.797-2.231-.04Zm13.144-2.241.454-.043 3.836-.395.078.746-.461-.59 1.91-1.496.922 1.18-2.078 1.629-4.075.422-.453.039Zm11.77-4.684 3.68-3.05 1.718-1.13.82 1.254-1.683 1.106-.41-.63.48.579-3.644 3.023Zm11.043-7.879.457-.3 3.96-1.098.4 1.445-3.848 1.066-.2-.722.41.629-.355.234Zm0 0"/></g><g clip-path="url(#k)"><path fill="#AB63FA" d="m52.809 100.438 3.847 1.742-.308.683-.496-.562 3.925-3.453 1.852-.828.613 1.367-1.746.785-.309-.684.497.563-4.204 3.695-4.289-1.941Zm19.933-2.645 2.918.387-.097.746-.594-.461 3.957-5.121 1.976-.946.645 1.356-1.813.867-.324-.676.594.457-4.113 5.325-3.348-.446Zm18.559-2.66.164.16-.528.535.204-.723 7.687 2.153-.203.722-.418-.625 2.527-1.69.832 1.245-2.812 1.887-8.203-2.3-.301-.294Zm19.347 3.765 3.493-1.07 4.148 3.043-.441.606.304-.688 2.926 1.305-.61 1.367-3-1.332-3.913-2.867.445-.606.219.715-3.133.961Zm20.43 7.809 2.379.781-.234.715.18-.73 7.855 1.933.77.645-.962 1.148-.636-.531.48-.574-.18.726-7.714-1.894-2.407-.793Zm20.711 7.633.988.258 3.973 3.14-.465.59.219-.719 4 1.227 1.207 1.098-1.008 1.109-1.082-.984.504-.555-.219.719-3.976-1.22-3.957-3.132.464-.59-.187.727-.836-.215Zm19.336 10.441 1.012.836-.477.578.164-.73 3.91.867 3.91 1.695-.296.688.047-.75 1.808.12-.098 1.497-1.937-.129-3.965-1.715.297-.687-.164.73-4.016-.894-1.148-.946Zm20.672 6.543 7 2.29-.234.71.058-.746 3.848.3-.059.747-.027-.75h.023l.059 1.5h-.07l-3.98-.309-7.087-2.316Zm21.851 2.117 4.11-.16.027.75-.176-.726 3.84-.93.176.727-.266-.7 2.98-1.132.532 1.402-3.023 1.148-3.957.957-4.184.164Zm21.582-5.347 1.645-.278.125.743-.16-.735 7.687-1.687 1.653-.387.343 1.46-1.675.392-7.703 1.691-1.668.281Zm21.528-5.637 3.055-1.344 3.906-1.035.191.723-.293-.692 3.68-1.546.582 1.382-3.727 1.57-3.898 1.032-.192-.723.301.684-3.004 1.32Zm20.62-8.57 1.552-.946 8.644-3.984.63 1.36-8.606 3.968-.313-.683.39.64-1.515.926Zm20.415-9.64 8.144-3.75 2.352-.59.363 1.456-2.285.57-.18-.73.313.684-8.078 3.722Zm20.586-8.884 10.121-4.91.656 1.348-10.12 4.914Zm20.11-9.843 1.984-1.227 3.937-1.184.215.72-.383-.645 3.906-2.309.563-.21.527 1.401-.5.192-.265-.703.382.644-3.925 2.32L341 85.7l-.215-.715.395.637-1.903 1.176Zm0 0"/></g><g clip-path="url(#l)"><path fill="#FFA15A" d="m53.117 101.313 3.84 5.546-1.23.856-3.844-5.55Zm3.196 3.62.68-2.144 1.429.453-.68 2.145Zm1.359-4.288 1.808-5.688.297-.773 1.399.539-.29.75-.699-.27.715.23-1.8 5.665Zm2.91-8.563.805-2.098 1.402.536-.809 2.101Zm1.61-4.2 1.242-3.241 3.382-1.817.707 1.324-3.132 1.684-.356-.66.7.266-1.141 2.98Zm6.695-6.054 2.05-.93.618 1.368-2.051.93Zm3.156-2.316 3.45-5.246 1.593 1.925-1.156.957-.946-1.144.579-.48.624.413-2.89 4.399Zm6.477-1.582 1.43 1.734-1.157.953-1.43-1.734Zm2.863 3.468 2.445 2.965-.578.477.168-.73 2.832.644-.332 1.465-3.082-.703-2.61-3.16Zm7.031 4.864 1.316 1.824-1.214.879-1.317-1.824Zm2.633 3.648.5.695-.61.438.063-.746 3.848.328-.063.746-.64-.39 1.066-1.735 1.277.785-1.304 2.13-4.653-.4-.703-.972Zm5.34-2.582 1.18-1.918 1.277.785-1.18 1.918Zm3.828-2.562 2.75.734 2.289 3.895-1.293.761-2.137-3.629.649-.382-.196.726-2.449-.656Zm6.183 6.57.559.953-.644.383.109-.742 1.129.164-.219 1.484-1.484-.219-.743-1.265Zm3.38 1.09.492.074-.11.738-.015-.75 4.074-.078 2.207 1.457-.828 1.254-2.012-1.332.414-.625.016.75-3.903.078-.554-.082Zm8.538 2.691 1.848 1.281-.852 1.235-1.851-1.281Zm3.7 2.563.097.066-.425.617.117-.742 4.234.676 1.367 2.812-1.351.657-1.196-2.461.676-.328-.117.742-4.016-.64-.238-.169Zm6.375 5.453.984 2.023-1.352.656-.984-2.023Zm1.718 3.023 3.184.137 3.602.535-.22 1.484-3.562-.53.11-.743-.032.75-3.144-.133Zm9.059 1.547 2.039.883-.297.687.192-.722.027.008-.383 1.449-.082-.024-2.09-.902Zm4.137 1.426 5.484 1.445-.191.727-.012-.75 1.078-.016.024 1.496-1.18.02-5.586-1.469Zm8.61 1.371.862-.016 1.364 1.582-1.137.98-1.133-1.316.566-.492.012.75-.512.008Zm3.698 3.27 1.239 1.433-.567.492.2-.722 4.015 1.105.773.711-1.02 1.102-.636-.586.508-.551-.2.723-4.058-1.118-1.39-1.609Zm7.313 4.546 1.554 1.442-.507.55.175-.73.125.031-.351 1.457-.317-.074-1.699-1.574Zm3.535 1.817 1.57.379 3.961 1.48.973.606-.79 1.273-.91-.562.395-.637-.262.7-3.847-1.438.262-.704-.176.73-1.528-.366Zm8.418 3.652 1.016.633-.395.637.305-.684.96.426-.609 1.371-1.008-.45-1.062-.66Zm3.941 1.926.832.367-.304.688.097-.746 3.84.503-.097.743-.04-.746 1.97-.102.073 1.5-2.035.102-4.015-.524-.93-.414Zm8.946.957 1.84 1.297-.864 1.226-1.84-1.293Zm3.464 2.422 3.68.945-.187.727.011-.75 2.95.043-.024 1.5-3.039-.043-3.766-.969Zm8.727 1.047 2.246.113-.074 1.496-2.246-.113Zm4.496.226 1.836.094-.039.746-.117-.738 3.957-.617 1.117.152-.203 1.488-1.008-.14.102-.743.117.743-3.926.609-1.914-.098Zm8.984-.05.602.082-.101.742-.024-.75 1.64-.047.044 1.5-1.7.05-.668-.093Zm4.141-.012 6.379-2.207.492 1.418-6.379 2.207Zm8.508-2.942 2.125-.738.488 1.418-2.125.738Zm4.262-1.46 2.574-.864.238.711-.324-.676 3.637-1.75.648 1.352-3.68 1.77-2.617.878Zm8.515-3.087 1.856-.328.129.743-.352-.665.328-.171.7 1.324-.43.226-1.969.348Zm3.95-1.476 1.609-.852 3.941-.937.172.73-.32-.68.969-.452.636 1.359-1.035.484-3.926.934-.172-.73.352.663-1.527.81Zm8.41-3.145.898-.421 1.356-.344.37 1.453-1.288.324-.184-.726.316.68-.832.39Zm4.437-1.32.38-.094 3.843-.949.18.73-.286-.695 2.223-.918.57 1.387-2.273.941-3.89.957-.38.094Zm8.547-2.75 2.188-.535.355 1.453-2.184.54Zm4.156-1.223 2.91-1.382 3.22-1.473.624 1.363-3.199 1.465-2.91 1.383Zm8.176-3.793 2.047-.933.621 1.363-2.043.938Zm4.09-1.87 6.07-2.778.149-.047.472 1.422-.113.04-.234-.716.312.684-6.031 2.758Zm8.355-3.536 1.61-.535.566-.156.406 1.441-.55.156-.204-.722.235.71-1.59.528Zm4.344-1.297 6.5-1.82.406 1.445-6.504 1.817Zm8.668-2.425 2.168-.606.402 1.445-2.168.606Zm4.379-1.2 3.5-.773.16.734-.305-.687 2.899-1.278.605 1.372-2.964 1.308-3.57.79Zm8.5-2.761 2.184-.547.363 1.453-2.18.55Zm4.23-1.254 6.043-2.246.262.703-.348-.668.27-.137.691 1.328-.308.164-6.086 2.262Zm8.223-3.387 1.598-.828.46-.203.598 1.375-.433.191-.301-.687.348.664-1.578.82Zm4.117-1.93 1.48-.648 3.985-.145.027.746-.453-.597 1.145-.864.906 1.2-1.336 1.004-4.074.152-.027-.75.3.687-1.351.59Zm7.98-2.863 1.106-.832 1.364-.008.007 1.5-1.113.004-.004-.75.453.602-.91.683Zm4.72-.855h.476l.004.75-.355-.66 3.91-2.114 1.89-.582.442 1.438-1.82.554-.22-.715.356.66-4.012 2.165-.664.004Zm8.043-3.258 2.12-.754.505 1.414-2.122.754Zm0 0"/></g><g clip-path="url(#m)"><path fill="#19D3F3" d="m53.047 109.055 3.848 4.125-.547.511-.578-.476 3.558-4.332 1.16.953-4.105 4.996-4.43-4.754Zm8.43-3.957 1.074-1.977 1.32.719-1.078 1.972Zm5.148-1.868 1.742 1.52-.492.566-.488-.57 6.777-5.824.977 1.137-7.27 6.25-2.234-1.95Zm11.363-6.882 1.254-.766 1.293.16-.18 1.488-1.035-.125.09-.746.39.641-1.03.629Zm5.528-1.332 3.148-4.95 4.504-.414 1.723 1.36-.926 1.18-1.492-1.176.465-.59.07.75-3.84.351-.07-.746.632.403-2.949 4.636Zm12.32-2.864 2.043-.941.625 1.363-2.043.942Zm6.867-.097 3.922 1.093 4.031 2.594 1.852 2.133-1.133.984-1.781-2.05.566-.493-.406.63-3.848-2.473.406-.633-.203.722-3.808-1.066Zm12.11 7.347 1.949-1.117.746 1.3-1.95 1.118Zm6.789-.738.261.066-.175.727-.368-.652 4.227-2.383 4.215 2.535-.387.645.09-.747 2.066.247-.18 1.488-2.226-.266-3.977-2.39.387-.645.367.656-4.105 2.313-.55-.137Zm14.3.555 1.235-.043 1.183.281-.347 1.461-1.082-.258.172-.73.023.75-1.133.039Zm6.184.234 2.836-1.351 4.223 4.48-.547.512.418-.621 2.53 1.699-.835 1.246-2.602-1.746-3.906-4.14.547-.516.324.675-2.344 1.118Zm12.789 8 1.434 1.734-1.16.954-1.43-1.735Zm5.11 2.727.402.066 3.968 2.367-.382.645.191-.727 3.984 1.059 2.133 1.62-.906 1.196-2.016-1.531.453-.598-.19.727-3.942-1.047-3.938-2.352.383-.644-.121.742-.262-.043Zm13.804 6.07 1.856-.168.726.363-.672 1.344-.535-.27.336-.667.066.746-1.644.148Zm6.117 1.59 3.184-.91 4.351.078 2.543 3.828-1.25.832-2.324-3.504.625-.414-.012.75-3.847-.066.012-.75.207.718-3.079.88Zm12.543 4.601 2.192-.453.152-.004.027 1.5-.086.004-.011-.75.152.735-2.121.437Zm6.613-.699 3.266-.96 3.973.277-.051.75-.215-.72 3.969-1.175.246.008-.066 1.5-.121-.004.035-.75.214.719-3.98 1.18-3.977-.282.055-.746.211.719-3.133.922Zm15.512-1.773 2.219-.38.254 1.477-2.219.383Zm5.906-2.32.868-.536 3.98-.781.145.734-.223-.714 3.914-1.215 2.488-.242.149 1.492-2.414.234-.075-.746.223.715-3.879 1.207-3.886.766-.145-.739.39.64-.75.462Zm15.477-3.598.965-.235 1.46.051-.05 1.5-1.36-.047.028-.75.176.73-.867.208Zm6.469-.797 2.133-.867 4.015.203-.039.75-.176-.73 5.114-1.231.351 1.457-5.219 1.258-3.957-.2.04-.75.28.696-1.976.805Zm15.578-2.672 2.004-.172.262-.015.085 1.496-.25.015-.043-.75.063.75-1.992.168Zm6.543-.621 2.984-.91.219.719-.3-.688 3.991-1.742 4 .023-.003.75-.31-.683.087-.04.617 1.368-.234.105-4.004-.023.004-.75.3.687-3.886 1.7-3.028.918Zm14.656-4.422 1.91-1.187.793 1.273-1.91 1.188Zm6.137-3.11 5.23-1.792.243.71-.446-.605 3.938-2.89.996-.356.5 1.414-.89.317-.25-.707.444.605-3.94 2.895-5.34 1.828Zm14.2-6.44 2.12-.759.5 1.415-2.117.753Zm5.722-3.094.539-.368 4.023-2.101 3.992-.313.059.75-.41-.629 2.047-1.34.824 1.254-2.211 1.446-4.031.316-.059-.746.348.664-3.848 2.008-.348-.664.422.621-.504.34Zm14.312-6.184 1.719-.758.422-.137.469 1.426-.387.125-.235-.71.301.683-1.687.742Zm6.207-2.398 3.149-1.793 3.988-1.536 3.637-.402.168 1.488-3.543.395-.082-.746.27.703-3.848 1.476-.27-.699.371.649-3.098 1.77Zm14.543-5.278 1.762-1.398.934 1.172-1.762 1.402Zm5.961-3.574 2.035-.422.153.734-.426-.617 3.957-2.742 3.984-.934.344 1.461-3.848.899-.171-.73.425.617-3.965 2.75-2.183.453Zm0 0"/></g><path fill="none" stroke="#000" stroke-width=".75" d="M51.75 204.375h309m-309-191.25h309M52.125 13.5V204m308.25-190.5V204"/><path fill="none" stroke="#444" stroke-width=".75" d="M52.5 204.75v3.75m76.875-3.75v3.75m76.875-3.75v3.75m76.875-3.75v3.75M360 204.75v3.75"/><g fill="#2A3F5F"><use xlink:href="#n" x="41.459" y="219.3"/><use xlink:href="#o" x="48.824" y="219.3"/><use xlink:href="#p" x="54.546" y="219.3"/><use xlink:href="#q" x="57.82" y="219.3"/></g><g fill="#2A3F5F"><use xlink:href="#n" x="118.334" y="219.3"/><use xlink:href="#o" x="125.699" y="219.3"/><use xlink:href="#p" x="131.421" y="219.3"/><use xlink:href="#r" x="134.695" y="219.3"/></g><use xlink:href="#o" x="203.389" y="219.3" fill="#2A3F5F"/><g fill="#2A3F5F"><use xlink:href="#o" x="275.766" y="219.3"/><use xlink:href="#p" x="281.488" y="219.3"/><use xlink:href="#r" x="284.762" y="219.3"/></g><g fill="#2A3F5F"><use xlink:href="#o" x="352.641" y="219.3"/><use xlink:href="#p" x="358.363" y="219.3"/><use xlink:href="#q" x="361.637" y="219.3"/></g><path fill="none" stroke="#444" stroke-width=".75" d="M51.75 204H48m3.75-47.625H48m3.75-47.625H48m3.75-47.625H48M51.75 13.5H48"/><use xlink:href="#o" x="40.478" y="207.15" fill="#2A3F5F"/><g fill="#2A3F5F"><use xlink:href="#o" x="25.761" y="159.525"/><use xlink:href="#p" x="31.483" y="159.525"/><use xlink:href="#o" x="34.757" y="159.525"/><use xlink:href="#s" x="40.478" y="159.525"/></g><g fill="#2A3F5F"><use xlink:href="#o" x="31.483" y="111.9"/><use xlink:href="#p" x="37.204" y="111.9"/><use xlink:href="#r" x="40.478" y="111.9"/></g><g fill="#2A3F5F"><use xlink:href="#o" x="25.761" y="64.275"/><use xlink:href="#p" x="31.483" y="64.275"/><use xlink:href="#r" x="34.757" y="64.275"/><use xlink:href="#s" x="40.478" y="64.275"/></g><g fill="#2A3F5F"><use xlink:href="#o" x="31.483" y="16.65"/><use xlink:href="#p" x="37.204" y="16.65"/><use xlink:href="#q" x="40.478" y="16.65"/></g><path fill="none" stroke="#2A3F5F" stroke-width="1.5" d="M321.563 188.762h30.75v5.715h-30.75Zm0 0"/><g fill="#2A3F5F"><use xlink:href="#t" x="60.15" y="120.84"/><use xlink:href="#u" x="68.148" y="120.84"/><use xlink:href="#v" x="77.074" y="120.84"/><use xlink:href="#w" x="88.922" y="120.84"/><use xlink:href="#x" x="96.382" y="120.84"/></g><g fill="#2A3F5F"><use xlink:href="#y" x="88.65" y="135.225"/><use xlink:href="#z" x="94.82" y="135.225"/><use xlink:href="#A" x="100.225" y="135.225"/><use xlink:href="#B" x="103.772" y="135.225"/><use xlink:href="#C" x="108.461" y="135.225"/><use xlink:href="#D" x="114.156" y="135.225"/><use xlink:href="#s" x="117.32" y="135.225"/></g><path fill="#EF553B" d="M62.398 130.965h2.25v1.5h-2.25m4.5-1.5h2.25v1.5h-2.25m4.5-1.5h2.25v1.5h-2.25m4.5-1.5h2.25v1.5h-2.25m4.5-1.5h2.25v1.5h-2.25"/><g fill="#2A3F5F"><use xlink:href="#y" x="88.65" y="149.475"/><use xlink:href="#z" x="94.82" y="149.475"/><use xlink:href="#A" x="100.225" y="149.475"/><use xlink:href="#B" x="103.772" y="149.475"/><use xlink:href="#C" x="108.461" y="149.475"/><use xlink:href="#D" x="114.156" y="149.475"/><use xlink:href="#E" x="117.32" y="149.475"/></g><path fill="#00CC96" d="M62.398 145.215h6.75v1.5h-6.75m13.5-1.5h6.75v1.5h-6.75"/><g fill="#2A3F5F"><use xlink:href="#y" x="88.65" y="163.725"/><use xlink:href="#z" x="94.82" y="163.725"/><use xlink:href="#A" x="100.225" y="163.725"/><use xlink:href="#B" x="103.772" y="163.725"/><use xlink:href="#C" x="108.461" y="163.725"/><use xlink:href="#D" x="114.156" y="163.725"/><use xlink:href="#F" x="117.32" y="163.725"/></g><path fill="#AB63FA" d="M62.398 159.465h11.25v1.5h-11.25"/><g fill="#2A3F5F"><use xlink:href="#y" x="88.65" y="177.975"/><use xlink:href="#z" x="94.82" y="177.975"/><use xlink:href="#A" x="100.225" y="177.975"/><use xlink:href="#B" x="103.772" y="177.975"/><use xlink:href="#C" x="108.461" y="177.975"/><use xlink:href="#D" x="114.156" y="177.975"/><use xlink:href="#q" x="117.32" y="177.975"/></g><path fill="#FFA15A" d="M62.398 173.715h6.75v1.5h-6.75m9-1.5h2.25v1.5h-2.25m4.5-1.5h6.75v1.5h-6.75"/><g fill="#2A3F5F"><use xlink:href="#y" x="88.65" y="192.225"/><use xlink:href="#z" x="94.82" y="192.225"/><use xlink:href="#A" x="100.225" y="192.225"/><use xlink:href="#B" x="103.772" y="192.225"/><use xlink:href="#C" x="108.461" y="192.225"/><use xlink:href="#D" x="114.156" y="192.225"/><use xlink:href="#r" x="117.32" y="192.225"/></g><path fill="#19D3F3" d="M62.398 187.965h11.25v1.5h-11.25m15.75-1.5h2.25v1.5h-2.25"/><g fill="#2A3F5F"><use xlink:href="#G" x="148.045" y="239.405"/><use xlink:href="#H" x="154.684" y="239.405"/></g><g fill="#2A3F5F"><use xlink:href="#I" x="154.684" y="241.61"/><use xlink:href="#J" x="159.098" y="241.61"/></g><use xlink:href="#K" x="163.678" y="241.61" fill="#2A3F5F"/><use xlink:href="#L" x="168.139" y="241.61" fill="#2A3F5F"/><g fill="#2A3F5F"><use xlink:href="#M" x="172.488" y="241.61"/><use xlink:href="#N" x="176.867" y="241.61"/><use xlink:href="#O" x="179.451" y="241.61"/></g><g fill="#2A3F5F"><use xlink:href="#P" x="185.645" y="241.61"/><use xlink:href="#N" x="190.078" y="241.61"/><use xlink:href="#Q" x="192.662" y="241.61"/></g><use xlink:href="#R" x="197.313" y="241.61" fill="#2A3F5F"/><use xlink:href="#S" x="201.964" y="241.61" fill="#2A3F5F"/><use xlink:href="#S" x="203.981" y="241.61" fill="#2A3F5F"/><use xlink:href="#H" x="205.998" y="239.405" fill="#2A3F5F"/><g fill="#2A3F5F"><use xlink:href="#H" x="205.998" y="239.405"/><use xlink:href="#T" x="209.689" y="239.405"/><use xlink:href="#U" x="214.457" y="239.405"/><use xlink:href="#V" x="220.712" y="239.405"/><use xlink:href="#W" x="227.89" y="239.405"/><use xlink:href="#X" x="232.658" y="239.405"/><use xlink:href="#Y" x="238.964" y="239.405"/><use xlink:href="#Z" x="243.101" y="239.405"/><use xlink:href="#aa" x="249.474" y="239.405"/><use xlink:href="#ab" x="259.687" y="239.405"/></g><g fill="#2A3F5F"><use xlink:href="#ac" x="10.5" y="168.91"/><use xlink:href="#ad" x="10.5" y="161.609"/><use xlink:href="#ae" x="10.5" y="155.236"/><use xlink:href="#ae" x="10.5" y="152.355"/><use xlink:href="#af" x="10.5" y="149.473"/><use xlink:href="#ag" x="10.5" y="146.592"/><use xlink:href="#ah" x="10.5" y="139.948"/><use xlink:href="#ai" x="10.5" y="133.406"/><use xlink:href="#aj" x="10.5" y="129.714"/><use xlink:href="#ak" x="10.5" y="120.865"/><use xlink:href="#al" x="10.5" y="113.687"/><use xlink:href="#ai" x="10.5" y="107.048"/><use xlink:href="#am" x="10.5" y="103.356"/><use xlink:href="#an" x="10.5" y="98.588"/><use xlink:href="#ao" x="10.5" y="92.333"/><use xlink:href="#ap" x="10.5" y="85.156"/><use xlink:href="#aq" x="10.5" y="80.388"/><use xlink:href="#ar" x="10.5" y="74.082"/><use xlink:href="#ad" x="10.5" y="69.944"/><use xlink:href="#as" x="10.5" y="63.571"/><use xlink:href="#at" x="10.5" y="53.358"/></g><g fill="#2A3F5F"><use xlink:href="#au" x="170.263" y="81"/><use xlink:href="#av" x="177.848" y="81"/><use xlink:href="#aw" x="184" y="81"/><use xlink:href="#D" x="189.691" y="81"/><use xlink:href="#ax" x="192.855" y="81"/><use xlink:href="#D" x="200.22" y="81"/><use xlink:href="#ay" x="203.384" y="81"/><use xlink:href="#aw" x="207.471" y="81"/><use xlink:href="#D" x="213.162" y="81"/></g><use xlink:href="#az" x="213.162" y="82.89" fill="#2A3F5F"/><use xlink:href="#aA" x="217.144" y="82.89" fill="#2A3F5F"/><use xlink:href="#aB" x="221.126" y="82.89" fill="#2A3F5F"/><use xlink:href="#aB" x="222.853" y="82.89" fill="#2A3F5F"/><use xlink:href="#aC" x="224.58" y="82.89" fill="#2A3F5F"/><use xlink:href="#aD" x="226.792" y="82.89" fill="#2A3F5F"/><use xlink:href="#aE" x="230.712" y="82.89" fill="#2A3F5F"/><use xlink:href="#aF" x="232.439" y="82.89" fill="#2A3F5F"/><use xlink:href="#aG" x="235.718" y="82.89" fill="#2A3F5F"/><use xlink:href="#ay" x="238.197" y="81" fill="#2A3F5F"/><g fill="#2A3F5F"><use xlink:href="#aH" x="210.003" y="195"/><use xlink:href="#aI" x="213.844" y="195"/><use xlink:href="#aJ" x="219.306" y="195"/><use xlink:href="#aJ" x="221.776" y="195"/><use xlink:href="#aK" x="224.246" y="195"/><use xlink:href="#aL" x="226.715" y="195"/><use xlink:href="#aM" x="232.411" y="195"/><use xlink:href="#D" x="238.018" y="195"/><use xlink:href="#aN" x="241.182" y="195"/><use xlink:href="#aK" x="248.547" y="195"/><use xlink:href="#aL" x="251.017" y="195"/><use xlink:href="#aO" x="256.712" y="195"/><use xlink:href="#aI" x="262.32" y="195"/><use xlink:href="#aN" x="267.782" y="195"/><use xlink:href="#aP" x="275.147" y="195"/><use xlink:href="#E" x="282.513" y="195"/><use xlink:href="#o" x="288.234" y="195"/><use xlink:href="#D" x="293.956" y="195"/><use xlink:href="#aQ" x="297.12" y="195"/><use xlink:href="#aR" x="305.874" y="195"/><use xlink:href="#aS" x="311.235" y="195"/></g></svg>