<svg xmlns="http://www.w3.org/2000/svg" xmlns:xlink="http://www.w3.org/1999/xlink" width="375.12" height="247.92"><defs><path id="n" d="M6.406-2.516H.97v-.703h5.437Zm0 0"/><path id="o" d="M5.125-3.281q-.001 1.769-.547 2.594C4.211-.133 3.641.14 2.86.14Q1.687.142 1.141-.687.608-1.531.609-3.266q-.002-1.746.547-2.578.545-.827 1.703-.828 1.186 0 1.72.844c.362.562.546 1.414.546 2.547m-1.156 2c.101-.239.172-.516.203-.828q.06-.48.062-1.172a10 10 0 0 0-.062-1.14 2.7 2.7 0 0 0-.203-.845 1.2 1.2 0 0 0-.422-.515c-.18-.114-.406-.172-.688-.172a1.3 1.3 0 0 0-.687.172q-.27.176-.422.515a3 3 0 0 0-.203.86 13 13 0 0 0-.047 1.14q0 .69.047 1.157.046.455.203.812.14.344.406.531c.176.118.41.172.703.172.282 0 .508-.054.688-.172q.28-.17.422-.515m0 0"/><path id="p" d="M2.156 0H1.11v-1.25h1.047Zm0 0"/><path id="q" d="M5.14 0H.704v-.922c.313-.258.617-.52.922-.781q.467-.404.875-.797c.563-.54.945-.973 1.156-1.297q.312-.48.313-1.031-.002-.516-.344-.797c-.219-.195-.531-.297-.937-.297q-.392 0-.86.14a3.3 3.3 0 0 0-.906.438H.875v-.922a4.3 4.3 0 0 1 .828-.28q.514-.142 1.016-.141.998 0 1.562.5.576.486.578 1.312 0 .375-.093.703-.095.316-.282.61-.174.269-.406.53-.22.27-.547.579a27 27 0 0 1-.984.906c-.336.281-.64.547-.922.797h3.516Zm0 0"/><path id="r" d="M4.766 0H1.219v-.672h1.36v-4.375h-1.36v-.61q.28 0 .593-.046a1.8 1.8 0 0 0 .485-.125.8.8 0 0 0 .312-.281.85.85 0 0 0 .141-.453h.672v5.89h1.344Zm0 0"/><path id="s" d="M5.078-2.078c0 .305-.058.594-.172.875a1.9 1.9 0 0 1-.453.703q-.315.315-.75.484a3.1 3.1 0 0 1-1.015.157Q2.154.14 1.656.016A4 4 0 0 1 .828-.25v-.922h.063c.238.156.515.29.828.39q.482.158.953.157c.207 0 .41-.023.61-.078.195-.063.366-.164.515-.313a1.1 1.1 0 0 0 .297-.453q.093-.264.093-.61a1.24 1.24 0 0 0-.125-.577.95.95 0 0 0-.312-.375 1.45 1.45 0 0 0-.547-.219 3.3 3.3 0 0 0-.734-.078q-.393.002-.75.062-.364.048-.61.094v-3.375h3.938v.766H1.953v1.75q.188-.014.375-.016.2-.014.36-.016.528 0 .921.094c.27.055.516.156.735.313q.358.236.547.625.187.377.187.953m0 0"/><path id="z" d="M5.813-2.016A1.9 1.9 0 0 1 5.14-.53q-.377.282-.828.406-.441.127-1.11.125H.875v-6.547h1.938c.476 0 .835.024 1.078.063q.358.047.687.218c.238.125.41.29.516.485.101.199.156.433.156.703q0 .468-.234.797a1.7 1.7 0 0 1-.625.531v.031q.655.128 1.03.578.39.458.391 1.125m-1.47-2.953a.9.9 0 0 0-.077-.39.6.6 0 0 0-.25-.266 1.1 1.1 0 0 0-.5-.14 8 8 0 0 0-.735-.032H1.75v1.89h1.125q.406 0 .64-.046.248-.045.454-.172a.77.77 0 0 0 .281-.344q.094-.2.094-.5m.563 2.985c0-.258-.043-.47-.125-.625Q4.67-2.844 4.36-3a1.5 1.5 0 0 0-.515-.14 8 8 0 0 0-.735-.032H1.75V-.75h1.156q.56 0 .922-.047.375-.06.61-.219.247-.169.359-.39c.07-.145.11-.336.11-.578m0 0"/><path id="A" d="M4.625 0h-.812v-.516q-.111.064-.297.204-.187.126-.375.218a2.6 2.6 0 0 1-.47.157Q2.404.14 2.048.14q-.673 0-1.14-.438Q.45-.747.452-1.422q0-.562.235-.906.247-.341.687-.547.45-.186 1.078-.25.62-.077 1.36-.125v-.125a.86.86 0 0 0-.11-.453.7.7 0 0 0-.281-.297A1.1 1.1 0 0 0 3-4.265a3.3 3.3 0 0 0-1.25.063 6 6 0 0 0-.812.233H.89v-.828a6 6 0 0 1 .703-.156q.45-.077.89-.078a3.8 3.8 0 0 1 .907.093c.257.055.484.149.672.282q.281.203.421.531.141.316.141.797Zm-.812-1.203v-1.375l-.907.078q-.503.033-.797.125a1.23 1.23 0 0 0-.578.313c-.148.136-.218.328-.218.578q-.001.422.25.64.247.204.78.203.434.001.798-.156.355-.17.672-.406m0 0"/><path id="B" d="M3.36-.047a4 4 0 0 1-.516.094q-.269.047-.485.047-.752.002-1.14-.406Q.828-.718.829-1.61v-2.61H.265v-.687h.562v-1.407h.828v1.407H3.36v.687H1.656v2.235q-.001.391.016.609.012.22.125.406a.62.62 0 0 0 .266.266c.113.055.285.078.515.078q.2 0 .422-.062.218-.059.313-.094h.046Zm0 0"/><path id="C" d="M4.438-.312A4.5 4.5 0 0 1 3.656 0c-.25.07-.511.11-.781.11a3 3 0 0 1-.984-.157 1.9 1.9 0 0 1-.75-.469 2 2 0 0 1-.5-.796c-.118-.32-.172-.704-.172-1.141q0-1.2.656-1.875.656-.687 1.75-.688.42.001.828.125.406.112.735.282v.906h-.032a3.7 3.7 0 0 0-.797-.438 2 2 0 0 0-.78-.171q-.705.002-1.11.484c-.274.312-.407.773-.407 1.375 0 .594.13 1.055.391 1.375q.405.469 1.125.469.246 0 .516-.063.264-.06.469-.172.17-.093.328-.187.17-.105.265-.188h.032Zm0 0"/><path id="D" d="M4.922 0h-.828v-2.797a4 4 0 0 0-.047-.64 1.05 1.05 0 0 0-.14-.454.7.7 0 0 0-.313-.28 1.3 1.3 0 0 0-.547-.095q-.328.001-.703.172a4.7 4.7 0 0 0-.703.422V0H.813v-6.844h.828v2.485a3 3 0 0 1 .797-.5q.42-.188.843-.188.797.002 1.219.484.422.471.422 1.375Zm0 0"/><path id="F" d="M5.281-1.844h-.968V0h-.844v-1.844H.344v-1.015L3.5-6.547h.813v4h.968ZM3.47-2.547V-5.5L.938-2.547Zm0 0"/><path id="G" d="M4.563-3.156c.132.125.25.289.343.484q.14.283.14.735 0 .454-.171.828A2.06 2.06 0 0 1 3.641 0q-.44.14-.97.14-.55 0-1.077-.141a4.6 4.6 0 0 1-.86-.281v-.922h.063q.373.252.875.422.516.157.984.156c.188 0 .383-.031.594-.094q.311-.091.5-.265.201-.2.297-.422c.07-.157.11-.352.11-.594q-.001-.357-.126-.578a1 1 0 0 0-.297-.375 1.4 1.4 0 0 0-.484-.172 3 3 0 0 0-.61-.062h-.39v-.735h.297q.668.002 1.062-.265c.27-.188.407-.461.407-.829a.77.77 0 0 0-.11-.406.75.75 0 0 0-.265-.297 1.5 1.5 0 0 0-.407-.156 2.3 2.3 0 0 0-.484-.047c-.281 0-.578.055-.89.156q-.47.141-.891.422H.922v-.922a4.3 4.3 0 0 1 .828-.28q.528-.142 1.016-.141.48 0 .843.093.358.095.657.282.31.222.468.515.171.3.172.688c0 .367-.133.683-.39.953a1.64 1.64 0 0 1-.907.515v.063q.216.034.485.156.28.112.468.266m0 0"/><path id="av" d="M6.703 0h-.86v-5.64L4.017-1.798H3.5L1.688-5.64V0H.875v-6.547h1.188l1.75 3.64L5.5-6.546h1.203Zm0 0"/><path id="aw" d="M6.031 0H5.11l-.64-1.828H1.64L1 0H.11L2.5-6.547h1.156ZM4.203-2.578 3.047-5.781l-1.14 3.203Zm0 0"/><path id="ax" d="M5.188 0H.875v-6.547h4.313v.781H1.75v1.782h3.438v.78H1.75V-.78h3.438Zm0 0"/><path id="ay" d="M6.25-2.594 1.172-.344v-.781l4-1.734-4-1.735v-.797L6.25-3.14Zm0 0"/><path id="az" d="M2.422 1.719h-.766v-8.563h.766Zm0 0"/><path id="aI" d="M3.875-4.016h-.047a7 7 0 0 0-.36-.046 2.5 2.5 0 0 0-.405-.032 1.7 1.7 0 0 0-.735.172 3.6 3.6 0 0 0-.687.438V0H.813v-4.906h.828v.718c.32-.257.609-.44.859-.546q.388-.171.781-.172c.133 0 .235.008.297.015.07 0 .172.012.297.032Zm0 0"/><path id="aJ" d="M5-2.453c0 .805-.21 1.437-.625 1.906q-.61.69-1.64.688-1.048.002-1.657-.688c-.406-.469-.61-1.101-.61-1.906q0-1.2.61-1.89.608-.704 1.656-.704 1.032 0 1.641.703c.414.461.625 1.09.625 1.89m-.86 0q0-.95-.374-1.406-.375-.47-1.032-.47-.672 0-1.046.47-.375.456-.375 1.406 0 .926.375 1.406.374.47 1.046.469.657 0 1.032-.469t.375-1.406m0 0"/><path id="aK" d="M1.64 0H.829v-6.844h.813Zm0 0"/><path id="aL" d="M1.703-5.734H.766v-.86h.937ZM1.641 0H.828v-4.906h.813Zm0 0"/><path id="aM" d="M4.922 0h-.828v-2.797a4 4 0 0 0-.047-.64 1.05 1.05 0 0 0-.14-.454.7.7 0 0 0-.313-.28 1.3 1.3 0 0 0-.547-.095q-.328.001-.703.172a4.7 4.7 0 0 0-.703.422V0H.813v-4.906h.828v.547a3 3 0 0 1 .797-.5q.42-.188.843-.188.797.002 1.219.484.422.471.422 1.375Zm0 0"/><path id="aN" d="M4.797-.562Q4.795.685 4.219 1.266q-.562.592-1.735.593-.39-.002-.765-.062a4.6 4.6 0 0 1-.735-.156V.797h.047q.2.093.64.203c.29.07.583.11.876.11q.421 0 .703-.094a.95.95 0 0 0 .438-.282Q3.84.56 3.906.313q.062-.234.063-.532v-.453q-.377.3-.719.453-.344.14-.86.14Q1.5-.076.985-.702.47-1.341.47-2.5c0-.426.054-.79.172-1.094.125-.3.289-.566.5-.797a1.9 1.9 0 0 1 .687-.484q.404-.17.813-.172.435 0 .718.094.282.082.61.25l.047-.203h.78Zm-.828-.782V-4.03a3.6 3.6 0 0 0-.61-.203 3 3 0 0 0-.562-.063q-.691 0-1.078.453-.391.456-.39 1.328 0 .831.28 1.25.295.423.97.422.355.002.718-.125.374-.141.672-.375m0 0"/><path id="aO" d="M6.984-4.906 5.704 0h-.766l-1.25-3.781L2.438 0h-.766L.375-4.906h.86L2.14-1.11l1.218-3.797h.688l1.25 3.797.86-3.797Zm0 0"/><path id="aP" d="M4.797 0h-.828v-.516a3 3 0 0 1-.75.485q-.377.17-.828.172Q1.5.14.984-.531.47-1.216.47-2.421c0-.415.054-.786.172-1.11.125-.32.289-.598.5-.828a2 2 0 0 1 .687-.5q.406-.188.828-.188.388 0 .688.094c.195.055.406.133.625.234v-2.125h.828Zm-.828-1.203v-2.828a4 4 0 0 0-.594-.203 2.7 2.7 0 0 0-.578-.063q-.705.002-1.094.484-.375.486-.375 1.376 0 .877.297 1.328c.195.304.516.453.953.453q.357 0 .719-.156a3.3 3.3 0 0 0 .672-.391m0 0"/><path id="aQ" d="M6.281-3.437H1.078v-.704h5.203Zm0 1.843H1.078v-.703h5.203Zm0 0"/><path id="aR" d="M7.969 0h-.813v-2.797q0-.31-.031-.61A1.4 1.4 0 0 0 7-3.874a.6.6 0 0 0-.297-.281c-.125-.07-.305-.11-.531-.11q-.364 0-.703.188-.346.175-.688.437.014.094.016.235.014.127.016.265V0h-.829v-2.797q0-.328-.03-.61a1.4 1.4 0 0 0-.126-.468.6.6 0 0 0-.281-.281c-.125-.07-.309-.11-.547-.11q-.346.001-.687.172a6 6 0 0 0-.672.422V0H.813v-4.906h.828v.547c.257-.22.515-.383.765-.5q.388-.188.828-.188.498 0 .844.219.357.204.516.578.513-.421.922-.61.404-.186.89-.187.797.001 1.172.5.388.486.39 1.36Zm0 0"/><path id="aS" d="M4.922-2.375h-3.61q-.001.457.125.797.142.329.375.547c.157.148.336.258.547.328q.312.094.688.094.497 0 1-.188.514-.2.734-.406h.047v.906q-.423.175-.86.297c-.292.07-.593.11-.905.11q-1.22 0-1.907-.657Q.468-1.202.47-2.422q0-1.201.656-1.906.657-.717 1.734-.719.984.002 1.516.578.546.58.547 1.657ZM4.125-3q-.017-.655-.344-1-.313-.359-.969-.36c-.449 0-.804.133-1.062.391A1.5 1.5 0 0 0 1.313-3Zm0 0"/><path id="aT" d="M6.031-6.547 3.656 0H2.5L.11-6.547h.937L3.094-.78l2.062-5.766Zm0 0"/><path id="t" d="M4.422.156a4.8 4.8 0 0 1-1.563-.25 3.7 3.7 0 0 1-1.25-.75 3.3 3.3 0 0 1-.796-1.234Q.53-2.828.53-3.813c0-.601.086-1.148.266-1.64a3.7 3.7 0 0 1 .797-1.266A3.2 3.2 0 0 1 2.828-7.5a4.5 4.5 0 0 1 1.61-.281q.467.002.859.062.389.048.719.125.341.112.625.235.28.112.484.218v1.844h-.219q-.158-.123-.375-.281a5 5 0 0 0-.484-.344 4 4 0 0 0-.61-.266 2 2 0 0 0-.703-.125 2.3 2.3 0 0 0-.796.141q-.376.13-.688.422-.299.3-.484.781-.188.486-.188 1.172 0 .705.203 1.188.2.485.5.765.311.282.703.407.389.11.766.109.341 0 .688-.094c.238-.07.457-.172.656-.297q.264-.153.468-.312.218-.17.36-.297h.203V-.5q-.282.129-.547.234-.268.112-.547.188-.375.11-.703.172-.33.06-.906.062m0 0"/><path id="u" d="M7.813 0h-1.97v-3.36H2.939V0H.968v-7.64h1.97v2.796h2.906V-7.64h1.968Zm0 0"/><path id="v" d="M7.719-.437q-.505.205-1.36.406a7.7 7.7 0 0 1-1.671.187Q2.73.158 1.624-.89.531-1.952.531-3.828c0-1.188.367-2.14 1.11-2.86Q2.747-7.778 4.75-7.78q.75 0 1.422.14.687.128 1.531.532v1.797H7.47a9 9 0 0 0-.422-.297 4.4 4.4 0 0 0-.531-.344 3 3 0 0 0-.703-.281 2.8 2.8 0 0 0-.829-.125q-.531.002-.953.156a2.3 2.3 0 0 0-.765.469q-.314.315-.5.797a2.9 2.9 0 0 0-.188 1.078c0 .843.223 1.492.672 1.937.445.45 1.11.672 1.984.672h.235q.138.001.265-.016v-1.5h-1.53v-1.437H7.72Zm0 0"/><path id="w" d="M7.922 0H6.016L2.78-5.234V0H.97v-7.64h2.36l2.78 4.374V-7.64h1.813Zm0 0"/><path id="x" d="M6.547-2.531H2.313q.046.674.515 1.031.481.361 1.406.36.575 0 1.125-.204.547-.216.875-.468h.204v1.484q-.626.253-1.188.36a5.6 5.6 0 0 1-1.219.124Q2.296.158 1.375-.625.451-1.404.453-2.844q-.001-1.418.875-2.25.873-.843 2.39-.843 1.407.002 2.11.718.717.705.719 2.032ZM4.703-3.625q-.017-.576-.297-.86c-.18-.195-.453-.296-.828-.296q-.534 0-.875.281-.345.268-.39.875Zm0 0"/><path id="y" d="M4.547-.047q-.298.075-.625.11a6 6 0 0 1-.813.046C2.391.11 1.852-.035 1.5-.328Q.984-.763.984-1.812V-4.5H.22v-1.25h.765v-1.656h1.844v1.656h1.719v1.25h-1.72v2.562q-.001.222.078.407a.6.6 0 0 0 .25.281q.186.11.547.11.141 0 .375-.063.234-.061.328-.11h.14Zm0 0"/><path id="H" d="M6.063 0H1.03v-7.64h5.032v.906H2.047v2.093h4.015v.907H2.048v2.828h4.015Zm0 0"/><path id="U" d="M4.016 2.11H2.844A8.2 8.2 0 0 1 1.422-.157c-.336-.82-.5-1.75-.5-2.781 0-1.02.164-1.942.5-2.766a8.5 8.5 0 0 1 1.422-2.281h1.172v.062a6.5 6.5 0 0 0-.797.86q-.376.485-.703 1.14-.301.628-.5 1.39a6.6 6.6 0 0 0-.188 1.595q0 .877.188 1.609.186.736.5 1.39.31.622.703 1.126.405.513.797.875Zm0 0"/><path id="V" d="M5.75-2.766H1.516q-.001.535.156.922.171.394.453.64.263.253.625.376c.25.086.52.125.813.125q.574 0 1.171-.235.592-.234.844-.468h.047v1.062q-.485.204-1 .344c-.336.094-.687.14-1.062.14Q2.14.143 1.342-.624q-.795-.78-.796-2.203-.001-1.405.766-2.234.761-.828 2.015-.829 1.154 0 1.781.688.64.675.641 1.922ZM4.797-3.5q0-.761-.375-1.172c-.25-.281-.633-.422-1.14-.422-.524 0-.938.157-1.25.469q-.457.457-.516 1.125Zm0 0"/><path id="W" d="M7.047-7.64 4.266 0h-1.36L.141-7.64h1.078l2.39 6.718L6.016-7.64Zm0 0"/><path id="X" d="M4.406-7.984.734 1.563h-.89L3.5-7.985Zm0 0"/><path id="Y" d="M5.406 0h-.968v-.61c-.086.063-.2.15-.344.25a2 2 0 0 1-.422.235 2.4 2.4 0 0 1-.563.203q-.315.077-.718.078c-.524 0-.965-.164-1.328-.5Q.53-.859.53-1.656q0-.655.282-1.063.281-.403.796-.625.529-.233 1.25-.312a19 19 0 0 1 1.579-.125v-.156q-.001-.328-.125-.532A.9.9 0 0 0 4-4.812a1.4 1.4 0 0 0-.5-.157 3.6 3.6 0 0 0-.594-.047c-.261 0-.547.04-.86.11a6 6 0 0 0-.952.281h-.047v-.984q.28-.075.812-.157a6 6 0 0 1 1.047-.093q.608 0 1.047.093.452.096.781.344c.22.156.383.36.5.61q.171.376.172.921Zm-.968-1.406V-3q-.439.02-1.047.078-.598.047-.938.14-.409.13-.672.376-.251.25-.25.672 0 .504.297.75c.195.168.5.25.906.25q.5 0 .922-.203a4.6 4.6 0 0 0 .781-.47m0 0"/><path id="Z" d="M3.922-.047c-.18.043-.375.078-.594.11q-.316.046-.562.046-.892 0-1.344-.468C1.117-.672.969-1.176.969-1.875v-3.047H.313v-.812h.656v-1.641h.969v1.64h1.984v.813H1.937v2.61q-.001.455.016.718a1 1 0 0 0 .14.469.64.64 0 0 0 .313.297q.2.094.61.094.233 0 .484-.063.263-.077.375-.125h.047Zm0 0"/><path id="aa" d="M5.828-2.86Q5.826-1.464 5.11-.655q-.72.813-1.921.812-1.221 0-1.938-.812-.703-.81-.703-2.203 0-1.405.703-2.22c.477-.538 1.125-.812 1.938-.812.8 0 1.44.274 1.921.813.477.543.72 1.281.72 2.219m-1 0q-.002-1.106-.437-1.656-.424-.545-1.203-.546-.786 0-1.22.546-.437.55-.437 1.657 0 1.077.438 1.64.433.549 1.219.547.762.002 1.203-.547.435-.563.437-1.64m0 0"/><path id="ab" d="M9.313 0h-.97v-3.266q0-.357-.03-.703a1.6 1.6 0 0 0-.141-.547.8.8 0 0 0-.344-.343c-.148-.07-.36-.11-.64-.11q-.41.002-.813.203a5.5 5.5 0 0 0-.797.516c.008.086.016.18.016.281q.013.157.015.297V0h-.968v-3.266q-.001-.374-.032-.718a1.6 1.6 0 0 0-.14-.547.72.72 0 0 0-.344-.328c-.148-.07-.355-.11-.625-.11a1.8 1.8 0 0 0-.797.203c-.262.125-.527.29-.797.485V0H.953v-5.734h.953v.64q.45-.374.907-.578.45-.218.953-.219.59.002 1 .25a1.6 1.6 0 0 1 .609.688q.575-.497 1.063-.719a2.5 2.5 0 0 1 1.03-.219c.626 0 1.087.196 1.391.579q.453.563.454 1.593Zm0 0"/><path id="ac" d="M3.844-2.937c0 1.03-.172 1.96-.516 2.78A8 8 0 0 1 1.922 2.11H.75v-.046a6.3 6.3 0 0 0 .797-.876A7 7 0 0 0 2.25.063c.207-.438.375-.899.5-1.391a6.5 6.5 0 0 0 .188-1.61q0-.843-.188-1.593a6.8 6.8 0 0 0-1.203-2.532q-.375-.482-.797-.859v-.062h1.172q.902 1.05 1.406 2.28.516 1.238.516 2.766m0 0"/><path id="J" d="M3.781 0H3.11v-.422l-.25.172a1.6 1.6 0 0 1-.296.172 1.5 1.5 0 0 1-.376.125q-.222.06-.515.062Q1.123.111.75-.25a1.2 1.2 0 0 1-.375-.906q0-.47.188-.75.198-.28.562-.438.358-.153.875-.219c.344-.039.71-.066 1.11-.078v-.109a.67.67 0 0 0-.094-.375.6.6 0 0 0-.22-.234.73.73 0 0 0-.343-.11 3 3 0 0 0-.422-.031c-.18 0-.375.027-.594.078a4.6 4.6 0 0 0-.671.188H.734v-.688q.188-.045.563-.11c.25-.05.492-.077.734-.077q.42 0 .735.078.311.064.547.234.233.175.343.438.124.253.125.64ZM3.11-.984v-1.11q-.314.018-.734.047a3.3 3.3 0 0 0-.656.11q-.299.08-.485.25c-.117.117-.171.277-.171.484q-.001.345.203.516c.144.117.359.171.64.171q.358 0 .657-.14.293-.14.546-.328m0 0"/><path id="K" d="M4.188-2.031q0 .502-.141.906a2.2 2.2 0 0 1-.375.672q-.269.28-.578.422c-.2.09-.418.14-.656.14q-.346 0-.61-.078a2.2 2.2 0 0 1-.484-.218L1.297 0h-.64v-5.578h.687v2q.28-.234.593-.375.329-.155.72-.156c.468 0 .835.183 1.109.547q.421.534.422 1.53m-.688.015q-.002-.714-.25-1.078c-.156-.25-.414-.375-.766-.375a1.6 1.6 0 0 0-.593.125q-.3.13-.547.328V-.72c.187.086.347.14.484.172q.2.047.469.047c.375 0 .664-.117.875-.36.219-.25.328-.632.328-1.156m0 0"/><path id="L" d="M4.078-2q-.001.984-.5 1.547c-.336.375-.781.562-1.344.562Q1.373.11.875-.453C.539-.828.375-1.343.375-2s.164-1.172.5-1.547q.498-.562 1.36-.562c.562 0 1.007.187 1.343.562q.499.562.5 1.547m-.703 0q0-.78-.312-1.156-.3-.375-.829-.375-.55 0-.859.375Q1.077-2.78 1.078-2c0 .5.098.883.297 1.14q.31.392.86.391.527 0 .828-.375.311-.388.312-1.156m0 0"/><path id="M" d="M4.125-4 2.5 0h-.672L.218-4h.735L2.188-.812 3.422-4Zm0 0"/><path id="N" d="M4.016-1.937H1.063q-.001.374.109.656.106.269.312.437.187.174.438.266c.176.055.363.078.562.078q.404.001.813-.156.421-.17.61-.328h.03v.734q-.345.157-.703.25-.346.094-.734.094-1 0-1.562-.531Q.375-.983.375-1.984q0-.985.531-1.547.544-.576 1.422-.578.81 0 1.25.468.437.47.438 1.344Zm-.657-.516q-.001-.53-.265-.813-.27-.294-.797-.296-.549 0-.875.328c-.211.21-.328.468-.36.78Zm0 0"/><path id="P" d="M5.469 0h-.703v-4.594L3.28-1.469h-.42L1.375-4.594V0H.719v-5.344h.969l1.421 2.985 1.375-2.985h.985Zm0 0"/><path id="Q" d="M4.203-3.719q-.001.346-.125.656-.11.3-.344.516-.27.281-.656.422-.375.14-.937.14h-.72V0H.72v-5.344h1.453q.468 0 .797.094.34.082.61.25a1.4 1.4 0 0 1 .452.516q.171.298.172.765m-.734.016q0-.28-.094-.485a.8.8 0 0 0-.297-.328 1.1 1.1 0 0 0-.39-.171 3 3 0 0 0-.563-.047h-.703v2.14h.61c.28 0 .507-.023.687-.078a.9.9 0 0 0 .437-.25.95.95 0 0 0 .235-.36q.076-.187.078-.421m0 0"/><path id="R" d="M4.016 0h-.672v-2.281q-.001-.282-.031-.516c-.024-.164-.063-.289-.126-.375a.52.52 0 0 0-.265-.219 1 1 0 0 0-.438-.078c-.18 0-.37.047-.578.14q-.298.129-.562.345V0H.656v-5.578h.688v2.016a2.6 2.6 0 0 1 .64-.407q.34-.14.704-.14.637.002.984.39c.226.262.344.637.344 1.125Zm0 0"/><path id="S" d="M3.984 0h-.671v-.437c-.231.18-.45.312-.657.406-.21.09-.437.14-.687.14q-.627 0-.985-.375c-.23-.257-.343-.64-.343-1.14V-4h.672v2.281q-.002.3.015.516.031.222.125.375a.7.7 0 0 0 .25.234q.154.064.453.063.263.001.578-.125c.207-.094.399-.211.579-.36V-4h.671Zm0 0"/><path id="T" d="M1.344 0H.672v-5.578h.672Zm0 0"/><path id="ad" d="M0-7.344v1.313L-3.031-3.47v1.422H0v1.016h-7.64v-2.125q0-.702.093-1.156a2.4 2.4 0 0 1 .328-.829q.252-.421.657-.656.39-.234 1-.234.83 0 1.39.422c.367.273.64.652.828 1.14Zm-5.484 2.375q-.328.001-.578.125a1 1 0 0 0-.438.375q-.14.222-.203.532-.062.298-.063.703v1.187h2.891v-1.015c0-.32-.023-.602-.078-.844a1.4 1.4 0 0 0-.328-.61 1.35 1.35 0 0 0-.5-.343 2 2 0 0 0-.703-.11m0 0"/><path id="ae" d="M-2.86-5.828q1.395.002 2.204.719.813.72.812 1.922 0 1.22-.812 1.937-.81.703-2.203.703-1.405 0-2.22-.703c-.538-.477-.812-1.125-.812-1.937 0-.801.274-1.442.813-1.922.543-.477 1.281-.72 2.219-.72m0 1q-1.106.002-1.656.437-.545.423-.546 1.204 0 .785.546 1.218.55.439 1.657.438 1.077 0 1.64-.438.549-.433.547-1.218.002-.763-.547-1.204-.563-.435-1.64-.437m0 0"/><path id="af" d="M0-1.922v.969h-7.984v-.969Zm0 0"/><path id="ag" d="M-6.687-1.984v1.093h-1v-1.093ZM0-1.922v.969h-5.734v-.969Zm0 0"/><path id="ah" d="M0-5.734v.968h-3.266q-.387 0-.734.047-.341.034-.547.157a.72.72 0 0 0-.312.375 1.55 1.55 0 0 0-.11.625q.002.393.203.828c.125.28.29.558.485.828H0v.953h-5.734v-.953h.64q-.374-.452-.578-.938a2.4 2.4 0 0 1-.219-.984q0-.937.563-1.422.564-.482 1.61-.484Zm0 0"/><path id="ai" d="M-.656-5.594c.976 0 1.691.227 2.14.672q.687.659.688 2.031c0 .305-.024.602-.063.891a7 7 0 0 1-.187.844H.938v-.047a7 7 0 0 0 .218-.75q.14-.516.14-1.031 0-.48-.124-.797a1.24 1.24 0 0 0-.313-.516 1.3 1.3 0 0 0-.484-.25 2.4 2.4 0 0 0-.625-.078h-.531q.345.44.515.828c.118.262.172.602.172 1.016 0 .68-.242 1.219-.734 1.625q-.733.61-2.094.61-.732 0-1.265-.204a2.8 2.8 0 0 1-.922-.578 2.2 2.2 0 0 1-.578-.797 2.5 2.5 0 0 1-.204-.969c0-.32.04-.594.11-.812a3.6 3.6 0 0 1 .297-.719l-.25-.062v-.907Zm-.922.969h-3.125q-.17.377-.234.719-.078.328-.079.656.002.783.532 1.25c.355.305.87.453 1.547.453q.971 0 1.468-.328c.324-.227.485-.61.485-1.14q.001-.423-.157-.844a2.6 2.6 0 0 0-.437-.766m0 0"/><path id="ak" d="M0-7.828v1.016h-6.578l4.469 2.125v.609l-4.47 2.11H0v.937h-7.64v-1.375l4.25-2.031-4.25-1.97v-1.421Zm0 0"/><path id="al" d="M0-7.047v1.078l-2.125.75v3.313L0-1.156v1.015l-7.64-2.765v-1.36Zm-3 2.14-3.75 1.345L-3-2.22Zm0 0"/><path id="am" d="M0-6.062v5.03h-7.64v-5.03h.906v4.015h2.093v-4.015h.907v4.015h2.828v-4.015Zm0 0"/><path id="an" d="M2.11-4.016v1.172A8.2 8.2 0 0 1-.157-1.422c-.82.336-1.75.5-2.781.5-1.02 0-1.942-.164-2.766-.5a8.5 8.5 0 0 1-2.281-1.422v-1.172h.062c.25.282.54.547.86.797q.485.376 1.14.703.628.301 1.39.5.75.188 1.595.188.877 0 1.609-.188.736-.186 1.39-.5.622-.31 1.126-.703a7.5 7.5 0 0 0 .875-.797Zm0 0"/><path id="ao" d="M-2.766-5.75v4.234q.535.001.922-.156.394-.171.64-.453.253-.263.376-.625c.086-.25.125-.52.125-.812q0-.575-.235-1.172-.234-.592-.468-.844v-.047h1.062q.204.485.344 1 .14.502.14 1.063.002 1.422-.765 2.218-.78.798-2.203.797c-.938 0-1.68-.254-2.234-.765q-.828-.762-.829-2.016 0-1.154.688-1.781.675-.64 1.922-.641Zm-.734.953q-.761 0-1.172.375c-.281.25-.422.633-.422 1.14 0 .524.157.938.469 1.25q.457.457 1.125.516Zm0 0"/><path id="ap" d="M-7.64-7.047 0-4.266v1.36L-7.64-.141v-1.078l6.718-2.39-6.719-2.407Zm0 0"/><path id="aq" d="M-7.984-4.406 1.563-.734v.89L-7.985-3.5Zm0 0"/><path id="ar" d="M0-5.406v.968h-.61c.063.086.15.2.25.344q.159.224.235.422c.086.156.148.344.203.563q.077.315.078.718c0 .524-.164.965-.5 1.329q-.515.531-1.312.53-.655 0-1.063-.28a1.8 1.8 0 0 1-.625-.797q-.233-.529-.312-1.25a19 19 0 0 1-.125-1.578h-.156q-.328 0-.532.125A.9.9 0 0 0-4.812-4a1.4 1.4 0 0 0-.157.5 3.6 3.6 0 0 0-.047.594c0 .261.04.547.11.86q.093.455.281.952v.047h-.984a8 8 0 0 1-.157-.812 6 6 0 0 1-.093-1.047q0-.608.093-1.047.096-.452.344-.781c.156-.22.36-.383.61-.5q.376-.171.921-.172Zm-1.406.968H-3q.02.439.078 1.047.047.598.14.938.13.409.376.672.25.251.672.25.504 0 .75-.297c.168-.195.25-.5.25-.906q0-.5-.203-.922a4.6 4.6 0 0 0-.47-.781m0 0"/><path id="as" d="M-.047-3.922c.043.18.078.375.11.594q.046.316.046.562 0 .892-.468 1.344c-.313.305-.817.453-1.516.453h-3.047v.657h-.812V-.97h-1.641v-.968h1.64v-1.985h.813v1.985h2.61q.455.001.718-.016a1 1 0 0 0 .469-.14.64.64 0 0 0 .297-.313q.094-.2.094-.61 0-.233-.063-.484a4 4 0 0 0-.125-.375v-.047Zm0 0"/><path id="at" d="M0-9.312v.968h-3.266q-.357.001-.703.031-.34.035-.547.141a.8.8 0 0 0-.343.344c-.07.148-.11.36-.11.64q.002.41.203.813.206.393.516.797.13-.014.281-.016.157-.013.297-.015H0v.968h-3.266q-.374.001-.718.032-.341.035-.547.14a.72.72 0 0 0-.328.344c-.07.148-.11.355-.11.625q.002.392.203.797c.125.262.29.527.485.797H0v.953h-5.734v-.953h.64q-.374-.45-.578-.907a2.2 2.2 0 0 1-.219-.953q.002-.59.25-1a1.6 1.6 0 0 1 .688-.609q-.497-.575-.719-1.062A2.5 2.5 0 0 1-5.89-7.47c0-.625.196-1.086.579-1.39q.563-.452 1.593-.453Zm0 0"/><path id="au" d="M-2.937-3.844c1.03 0 1.96.172 2.78.516A8 8 0 0 1 2.11-1.922V-.75h-.046a6.3 6.3 0 0 0-.876-.797A7 7 0 0 0 .063-2.25a7.6 7.6 0 0 0-1.391-.5 6.5 6.5 0 0 0-1.61-.187q-.843 0-1.593.187a6.8 6.8 0 0 0-2.532 1.203q-.482.375-.859.797h-.062v-1.172q1.05-.902 2.28-1.406 1.238-.516 2.766-.516m0 0"/><path id="aA" d="M3.438 0h-.579v-1.953q0-.232-.03-.438a.7.7 0 0 0-.095-.328.5.5 0 0 0-.218-.203 1 1 0 0 0-.375-.062q-.236.001-.5.125a2.5 2.5 0 0 0-.5.297V0H.563v-4.781h.578v1.734c.187-.156.375-.273.562-.36q.294-.123.594-.124.562.002.844.344c.195.218.297.539.297.953Zm0 0"/><path id="aB" d="M3.422 0h-.578v-.375q-.3.222-.563.344c-.18.082-.375.125-.594.125q-.55 0-.843-.328c-.2-.22-.297-.54-.297-.97v-2.234h.578v1.954c0 .18.004.328.016.453q.028.188.109.312.075.143.203.203a1 1 0 0 0 .39.063q.234.001.5-.11.267-.124.5-.312v-2.562h.579Zm0 0"/><path id="aC" d="M1.156 0H.578v-4.781h.578Zm0 0"/><path id="aE" d="M3.36 0h-.58v-.36a2 2 0 0 1-.531.344c-.18.07-.371.11-.578.11q-.627 0-.984-.469c-.243-.32-.36-.758-.36-1.312q-.001-.435.125-.782c.082-.226.195-.422.344-.578.133-.156.297-.273.484-.36q.281-.123.578-.124.264.002.47.062.217.048.452.172V-4.78h.578Zm-.58-.844v-1.969a2 2 0 0 0-.422-.14A1.7 1.7 0 0 0 1.953-3q-.485.002-.766.344c-.18.219-.265.539-.265.953q-.001.61.203.937.218.315.688.313.233.001.484-.11.263-.106.484-.28m0 0"/><path id="aF" d="M1.188-4.016H.53v-.593h.657ZM1.156 0H.578v-3.437h.578Zm0 0"/><path id="aG" d="M3.016-.984c0 .312-.133.57-.391.765-.25.2-.602.297-1.047.297Q1.186.078.86 0a2.6 2.6 0 0 1-.515-.203V-.86h.031q.265.204.594.328c.226.086.445.125.656.125.25 0 .445-.04.594-.125a.42.42 0 0 0 .219-.39q0-.202-.126-.298-.112-.105-.453-.187-.113-.03-.312-.063a2.4 2.4 0 0 1-.36-.078q-.454-.122-.64-.344A.9.9 0 0 1 .36-2.47q-.002-.217.079-.406a1 1 0 0 1 .265-.328 1.2 1.2 0 0 1 .438-.219 1.8 1.8 0 0 1 .593-.094q.31.001.625.079.31.08.532.171v.625H2.86a2.2 2.2 0 0 0-.546-.265 1.7 1.7 0 0 0-.61-.125 1.1 1.1 0 0 0-.547.125c-.148.086-.218.203-.218.36q0 .222.14.327.123.095.422.172c.102.024.219.047.344.078q.201.034.343.063.387.094.61.312.218.235.219.61m0 0"/><path id="aH" d="M2.36-.031C2.241 0 2.124.019 2 .03q-.19.031-.344.032-.532 0-.812-.282Q.576-.5.578-1.126v-1.828h-.39v-.485h.39v-.984h.578v.984H2.36v.485H1.156v1.562q-.001.284.016.438a.8.8 0 0 0 .078.281.5.5 0 0 0 .188.188q.123.045.375.046c.093 0 .187-.007.28-.03.102-.032.18-.055.235-.079h.031Zm0 0"/><clipPath id="e"><path d="M0 0h375v247.5H0Zm0 0"/></clipPath><clipPath id="f"><path d="M52.5 13.5H360V204H52.5Zm0 0"/></clipPath><clipPath id="c"><path d="M.5.5H308V191H.5Zm0 0"/></clipPath><clipPath id="d"><path d="M152 188h5v3h-5Zm0 0"/></clipPath><clipPath id="b"><path d="M0 0h308v191H0z"/></clipPath><clipPath id="i"><path d="M52.5 120H356v53H52.5Zm0 0"/></clipPath><clipPath id="j"><path d="M52.5 126H357v46H52.5Zm0 0"/></clipPath><clipPath id="k"><path d="M52.5 124H353v51H52.5Zm0 0"/></clipPath><clipPath id="l"><path d="M52.5 129H357v49H52.5Zm0 0"/></clipPath><clipPath id="m"><path d="M52.5 138H357v43H52.5Zm0 0"/></clipPath><filter id="a" width="100%" height="100%" x="0%" y="0%"><feColorMatrix color-interpolation-filters="sRGB" values="0 0 0 0 1 0 0 0 0 1 0 0 0 0 1 0 0 0 1 0"/></filter><mask id="g"><g filter="url(#a)"><path fill-opacity=".2" d="M-37.512-24.792h450.144v297.504H-37.512z"/></g></mask><g id="h" clip-path="url(#b)"><g clip-path="url(#c)"><path fill="red" d="M-614.5-761.5 154.25 191 923-761.5Zm0 0"/><path fill="none" stroke="#636EFA" stroke-miterlimit="2" stroke-width="1.5" d="M-614.5-761.5 154.25 191 923-761.5"/></g><g clip-path="url(#d)"><path fill="#636EFA" d="M156.5 191q-.001.447-.172.86-.17.414-.488.73-.316.317-.73.488a2.24 2.24 0 0 1-1.72 0 2.2 2.2 0 0 1-.73-.488 2.2 2.2 0 0 1-.488-.73 2.24 2.24 0 0 1 0-1.72q.17-.414.488-.73.316-.317.73-.488a2.24 2.24 0 0 1 1.72 0q.414.17.73.488.317.316.488.73.17.413.172.86m0 0"/></g></g></defs><g clip-path="url(#e)"><path fill="#FFF" d="M0 0h375v247.5H0Zm0 0"/></g><path fill="#FFF" d="M52.5 13.5H360V204H52.5Zm0 0"/><path fill="none" stroke="#D3D3D3" stroke-width=".75" d="M129.375 13.5V204m153.75-190.5V204M52.5 156.375H360M52.5 108.75H360M52.5 61.125H360"/><path fill="none" stroke="#EBF0F8" stroke-width="1.5" d="M206.25 13.5V204"/><g clip-path="url(#f)" mask="url(#g)"><use xlink:href="#h" transform="translate(52 13)"/></g><g clip-path="url(#i)"><path fill="#EF553B" d="m53.172 141.672.996 2.02-1.344.663-.996-2.02Zm1.996 4.035.996 2.016-1.348.664-.996-2.016Zm1.395 3.297 2.226-.3.203 1.487-2.23.301Zm4.82.117 1.922 1.164-.778 1.285-1.925-1.168Zm3.847 2.332 1.922 1.168-.777 1.281-1.926-1.168Zm3.848 2.336L71 154.953l-.777 1.285-1.926-1.168Zm2.938 1.305 1.777-1.375.918 1.187-1.777 1.375Zm3.859-2.7 2.121-.75.5 1.415-2.121.75Zm4.676-.992 2.207.438-.29 1.469-2.206-.434Zm4.09.207 2.195-.504.336 1.461-2.192.504Zm4.73.047 1.762.477-.195.726-.333-.675.383-.188.66 1.348-.632.312-2.036-.554Zm3.633-.656 1.527-.75.7-.164.343 1.46-.617.145-.172-.73.332.672-1.449.715Zm4.418-1.43 1.031-.242.172.73-.285-.69 1.097-.454.575 1.387-1.157.476-1.09.254Zm4.098-1.515 2.078-.86.574 1.387-2.082.86Zm4.16-1.72 2.078-.858.574 1.386-2.082.86Zm4.156-1.714.039-.016.285.692-.52-.54 1.594-1.53 1.04 1.078-1.696 1.632-.168.067Zm3.02-2.957.785-.75 1.578-.305.285 1.473-1.363.262-.141-.735.52.54-.625.597Zm4.57-1.484 2.21-.426.286 1.473-2.211.43Zm4.062-.844 1.817-1.332.886 1.21-1.812 1.333Zm4.078-2.79 2.25-.007v1.5l-2.25.008Zm4.72.278 2.109.785-.524 1.407-2.11-.786Zm4.257 1.856 1.887 1.226-.817 1.258-1.886-1.223Zm3.77 2.656 1.664 1.512-1.008 1.109-1.664-1.512Zm3.367 3.125 1.457 1.715-1.145.969-1.457-1.715Zm2.914 3.43.726.859-.57.484.45-.601.898.672-.895 1.203-.969-.723-.785-.922Zm3.308 2.761 1.145.856-.45.601.317-.68.746.344-.637 1.36-.812-.38-1.207-.898Zm3.797 2.075 1.156.543.891.796-1.004 1.118-.804-.727.5-.559-.317.68-1.059-.492Zm3.719 2.843 1.367 1.23-.5.56.266-.704.383.145-.532 1.402-.515-.195-1.473-1.32Zm3.621 2.028 1.352.511-.266.703.156-.734.785.168-.308 1.469-.844-.18-1.406-.535Zm4.23 1.117.903.191 1.34.457-.485 1.418-1.297-.441.243-.711-.157.734-.859-.183Zm4.372 1.375 2.129.726-.485 1.422-2.129-.726Zm4.257 1.453 2.133.73-.488 1.418-2.129-.726ZM176.16 163l2.13.727-.485 1.418-2.13-.727Zm4.258 1.453 2.129.727-.484 1.418-2.13-.727Zm4.258 1.453 2.129.727-.485 1.422-2.129-.727Zm4.246 1.864 1.926 1.16-.774 1.285-1.926-1.164Zm3.871 2.144 2.023.98-.652 1.352-2.027-.98Zm3.973 1.164 1.851.133-.054.75.011-.75.39.004-.019 1.5-.414-.004-1.875-.137Zm4.449.168 2.25.035-.02 1.5-2.25-.035Zm4.5.066 2.25.032-.02 1.5-2.25-.031Zm4.347.055 2.211-.414.278 1.477-2.211.414Zm4.563-.722 2.25-.043.023 1.5-2.25.043Zm4.277-.375 2.172-.575.383 1.45-2.176.574Zm4.118-1.415 2.042-.937.63 1.36-2.047.94Zm4.085-1.878 1.907-.88.168-.07.574 1.387-.152.063-.29-.692.313.68-1.89.87Zm4.153-1.813 1.633-.676.488-.175.508 1.41-.473.172-.254-.708.29.692-1.618.672Zm4.238-1.613 2.117-.762.508 1.41-2.117.762Zm4.234-1.524 2.118-.761.507 1.41-2.117.762Zm4.235-1.523.469-.168.254.703-.372-.652 1.52-.864.742 1.305-1.574.895-.531.191Zm3.828-2.094.371-.21.371.652-.41-.63 1.523-1 .82 1.255-1.542 1.011-.39.227Zm3.734-2.422.547-.355 1.809-.434.347 1.457-1.68.403-.175-.73.41.628-.433.285Zm4.496-1.304 2.149-.664.445 1.43-2.148.667Zm4.297-1.332 2.149-.668.445 1.433-2.148.668Zm4.188-1.403 2.066-.894.594 1.379-2.066.89Zm4.125-1.789 2.058-.902.606 1.375-2.063.902Zm4.12-1.805 2.063-.902.602 1.371-2.063.903Zm4.13-1.8 2.066-.895.594 1.38-2.066.89Zm4.445-1.348 1.664-.297.133.738-.246-.707.523-.183.496 1.418-.582.203-1.726.305Zm4.2-1.191 1.214-.422.961-.281.422 1.437-.941.277-.211-.718.246.707-1.196.418Zm4.335-1.336 2.157-.637.425 1.441-2.16.633Zm4.317-1.27 2.16-.633.422 1.438-2.16.637Zm4.18-1.254 2.015-1.004.668 1.34-2.012 1.008Zm4.206-1.98 2.18-.559.371 1.457-2.18.555Zm4.36-1.113 2.183-.555.371 1.453-2.183.555Zm4.363-1.114 2.18-.554.37 1.453-2.179.554Zm3.867-1.617 1.887-1.23.82 1.257-1.886 1.227Zm4.207-2.035 2.16-.629.418 1.441-2.16.625Zm4.32-1.254 2.165-.629.418 1.441-2.164.63Zm4.325-1.254 2.16-.629.418 1.442-2.16.628Zm4.32-1.254 2.16-.629.418 1.442-2.16.629Zm4.324-1.254 2.16-.629.418 1.442-2.16.629Zm4.2-1.273 2.046-.93.622 1.363-2.047.934Zm4.168-1.836 2.113-.774.515 1.407-2.113.777Zm3.957-1.695 1.882-1.235.825 1.254-1.883 1.234Zm4.304-2.086 2.246-.106.07 1.496-2.245.106Zm0 0"/></g><g clip-path="url(#j)"><path fill="#00CC96" d="m53.059 140.844 3.847 4.289-.558.504-.543-.52.683-.715 1.082 1.036-1.238 1.3-4.39-4.89Zm8.078-1.328 2.789-2.961 3.277 2.222-.84 1.243-2.75-1.864.422-.62.547.515-2.355 2.492Zm11.355-2.836 3.188.511-.118.743-.62-.426 1.988-2.906 1.238.843-2.254 3.305-3.656-.586Zm9.961-6.168 1.117-.367 3.61 5.699-1.27.8-3.293-5.203.633-.402.234.715-.562.184Zm10.067 8.836 2.742 2.242-.477.582-.406-.633 2.7-1.738.812 1.262-3.16 2.035-3.16-2.59Zm10.906.968 2.992-.828 3.691 2.168-.757 1.293-3.418-2.008.379-.644.199.723-2.684.742Zm12.062 3.235 2.18-.692 3.887-.707.132.739-.46-.594.48-.371.922 1.18-.625.488-4.024.73-.132-.738.226.715-2.133.68Zm12.621-3.38 1.559.665-.293.687.168-.73 3.91.91 1.082.453-.586 1.383-1.02-.43.294-.691-.168.73-3.914-.906-1.618-.691Zm12.641 4.614.453.188-.293.691-.16-.73 4.031-.875 2.418.722-.43 1.438-2.234-.668.215-.719.16.734-4.074.883-.668-.285Zm12.95 2.645 3.148 3.582-.563.496.192-.727 1.914.508-.387 1.45-2.133-.563-3.297-3.758Zm11.214 5.593 3.164.84 3.25 1.614-.668 1.343-3.18-1.582.333-.672-.192.727-3.09-.82Zm12.633 4.86 6.32 2.37-.523 1.403-6.324-2.367Zm12.48 5.426 1.293.847 3.88 3.18-.477.582.28-.695.25.101-.565 1.387-.352-.14-3.938-3.231.477-.578-.41.625-1.262-.825Zm11.438 5.543 1.062.046 3.918 1.063-.195.723-.02-.75 1.79-.047.042 1.5-1.902.05-3.945-1.07.195-.726-.031.75-.98-.04Zm13.305.851 2.996-.082.02.75-.118-.742 3.703-.594.238 1.48-3.754.602-3.046.086Zm12.601-3.308 1.707-.754 3.922-.856.16.73-.3-.687.937-.406.598 1.375-1.004.437-3.918.856-.16-.73.304.683-1.64.723Zm12.613-4.672.586-.254 3.86-1.41 1.914-.711.523 1.402-1.922.719-3.84 1.402-.257-.707.3.688-.566.246Zm12.684-4.73 6.328-2.356.524 1.406-6.329 2.355Zm12.812-4.423 6.485-1.87.414 1.44-6.484 1.872Zm12.97-3.742 6.488-1.871.414 1.441-6.485 1.872Zm13.09-3.074 6.452-1.969.438 1.438-6.453 1.968Zm13.054-3.7 1.453-.277.14.739-.246-.707 4.977-1.735.492 1.414-5.027 1.754-1.512.285Zm13.011-3.511.008-.004.11.742-.235-.71 6.407-2.102.468 1.426-6.468 2.12-.075.012Zm12.704-4.18 6.437-2.117.063-.012.293 1.473-.02.004-.144-.734.234.71-6.399 2.102Zm12.98-3.691 4.965-1.512.219.719-.403-.633 1.313-.84.808 1.262-1.402.898-5.062 1.54Zm12.793-3.91.094.004-.035 1.5-.094-.004Zm0 0"/></g><g clip-path="url(#k)"><path fill="#AB63FA" d="m52.55 125.05 3.848.263-.05.746-.176-.727 4.11-.996 3.312 1.695-.684 1.336-3.066-1.57.343-.668.176.73-3.953.957-3.96-.27Zm19.454.634 3.633-.028 4.18.88 2.597 3.07-1.144.968-2.434-2.875.574-.484-.156.734-3.848-.808.156-.735.004.75-3.55.028Zm18.633 11.046.672.387-.371.649-.262-.703 4.265-1.579 4.176 3.653-.492.566.313-.683 1.156.53-.625 1.364-1.254-.574-3.922-3.434.492-.562.262.703-4.176 1.547-.976-.559Zm18.484 6.551.828-.242.211.723-.312-.684 3.84-1.762.312.68-.336-.668 4.031-2.016 2.067.157-.114 1.496-1.855-.14.055-.747.336.672-3.86 1.926-3.902 1.789-.879.258Zm21.606-1.043 6.73 4.168-.394.64.226-.714 3.176 1.012-.457 1.43-3.262-1.044-6.809-4.218Zm19.304 11.086 2.73 1.317-.323.675.218-.718 3.942 1.191 3.648 2.27-.789 1.273-3.566-2.215.394-.637-.219.72-3.902-1.18-2.785-1.344Zm20.906 6.574.958.317-.235.71.195-.722 3.895 1.059 3.898 1.691-.3.688.25-.707 1.949.691-.5 1.414-1.973-.7-3.875-1.683.301-.687-.195.726-3.86-1.05-.976-.32Zm20.836 8.36 7.07 2.863-.28.695.144-.734 3.555.7-.29 1.472-3.624-.715-7.137-2.89Zm21.567 4.273.605.008-.007.75-.16-.734 7.687-1.696.16.735-.21-.723 2.66-.777.421 1.441-2.684.785-7.796 1.72-.696-.009Zm21.36-6.027 2.058-.707.242.71-.27-.698 3.848-1.485 4.656-1.715.516 1.407-4.633 1.707-3.86 1.488-2.07.71Zm21.093-7.781 10.555-3.883.52 1.406-10.56 3.887Zm21.148-7.676 10.559-3.883.516 1.406-10.559 3.883Zm21.168-7.649 10.606-3.753.5 1.414-10.606 3.754Zm21.442-6.941 9.496-2.687.203.718-.281-.695 1.281-.516.563 1.391-1.32.531-9.532 2.703Zm21.597-5.762 3.254-1.015.223.715-.316-.68 3.847-1.8 3.301-1.458.606 1.371-3.274 1.445-3.89 1.825-3.305 1.03Zm0 0"/></g><g clip-path="url(#l)"><path fill="#FFA15A" d="m51.898 145.906 4.227-5.633.86.434-.672 1.34-.301-.152.336-.668.601.449-3.847 5.129Zm7.098-4.195 1.613.809.485.425-.996 1.121-.407-.359.496-.562-.335.671-1.524-.761Zm3.781 2.726 1.754 1.56-.496.562.336-.672 3.84 1.91.11.058-.696 1.333-.086-.047-3.926-1.957-1.832-1.625Zm7.54 4.465 1.992 1.043-.696 1.328-1.996-1.043Zm3.984 2.086 1.61.844-.349.664-.03-.746 3.882-.16 1.117.062-.082 1.496-1.082-.058.043-.75.031.75-4.05.164-1.786-.934Zm8.476.793.844.047 1.309 1.598-1.16.949-1.102-1.344.582-.472-.043.746-.512-.028Zm3.578 3.387 1.325 1.617-.582.477-.207-.723 3.84-1.094.207.72-.461-.59.523-.41.926 1.179-.64.504-4.458 1.27-1.633-2Zm6.418-1.39 1.774-1.383.562.03-.082 1.497-.285-.016.043-.75.461.594-1.547 1.21Zm4.582-1.227 1.415.082 3.94 1.32-.237.711-.325-.676 1.247-.593.644 1.351-1.516.727-4.136-1.387.238-.711-.043.75-1.309-.074Zm8.067-.13.691-.327 1.75-.153.13 1.496-1.618.137-.062-.746.324.676-.567.27Zm4.844-.667 3.902.496 2.809.953-.48 1.422-2.74-.93.243-.71-.094.745-3.828-.488Zm8.89 2.426 1.95 1.12-.75 1.302-1.95-1.125Zm3.899 2.414 2.933 2.21-.453.602.254-.707 2.895 1.04-.508 1.413-3-1.078-3.028-2.281Zm7.68 3.672 2.214.398-.265 1.477-2.215-.399Zm4.417.746 2.114.32 3.93 1.617-.286.692.176-.727.527.129-.351 1.457-.586-.14-3.899-1.606.286-.695-.114.742-2.023-.309Zm8.649 2.558 1.125.274-.176.73.023-.75 1.094.035-.05 1.5-1.169-.039-1.203-.293Zm4.312.364.547.02 6.223.866-.207 1.485-6.184-.864.106-.742-.024.75-.512-.015Zm8.996 1.195 2.23.312-.206 1.485-2.23-.309Zm4.457.625 6.688.93-.207 1.488-6.688-.934Zm8.914 1.242 1.356.188.973.336-.489 1.417-.902-.312.242-.707-.105.742-1.282-.18Zm4.454 1.254.808.277-.242.711.164-.734 5.754 1.293-.332 1.465-5.79-1.301-.847-.293Zm8.714 2.063 2.165.609-.407 1.441-2.164-.605Zm4.434 1.492 3.184 1.953-.391.64.234-.714 2.864.945-.47 1.426-2.944-.973-3.258-1.996Zm7.977 3.363 2.207.437-.293 1.473-2.207-.441Zm4.324.57 2.05.063-.023.75-.039-.75 4.691-.246.079 1.5-4.723.246-2.082-.067Zm8.93-.3 2.246-.118.078 1.5-2.246.118Zm4.492-.235 3.941-.203.04.746-.227-.715 2.671-.844.454 1.43-2.766.875-4.035.211Zm8.539-1.719 2.125-.746.496 1.418-2.125.742Zm4.246-1.492 2.5-.875 3.87-1.066.2.722-.258-.703.13-.047.519 1.407-.16.058-3.88 1.067-.198-.723.25.707-2.477.871Zm8.55-2.746 2.114-.781.516 1.41-2.11.777Zm4.223-1.559 1.227-.453.258.707-.32-.68 3.863-1.835 1.144-.434.535 1.399-1.117.425-.266-.699.32.68-3.87 1.836-1.254.46Zm8.274-3.5 2.101-.8.535 1.402-2.101.8Zm4.207-1.601 6.304-2.406.536 1.398-6.305 2.406Zm8.406-3.211 2.102-.8.535 1.402-2.102.8Zm4.2-1.605 3.054-1.188 3.379-1.027.433 1.437-3.347 1.016-.219-.719.273.7-3.03 1.179Zm8.585-2.868 2.152-.652.434 1.434-2.152.656Zm4.23-1.406 1.766-.64.254.707-.34-.668 3.907-1.993.613-.172.406 1.446-.543.152-.203-.723.34.668-3.88 1.977-1.808.656Zm8.368-3.367 1.137-.32.203.722-.274-.695.996-.39.547 1.394-1.031.406-1.176.324Zm4.156-1.508 6.285-2.465.547 1.399-6.285 2.465Zm8.379-3.285 2.094-.82.547 1.394-2.094.82Zm4.187-1.645 3.61-1.414 2.906-.675.34 1.46-2.856.665-.168-.73.274.694-3.559 1.399Zm8.832-2.453 2.239-.215.144 1.497-2.242.21Zm4.13-.914 2.23-.926 3.957-.3.058.746-.242-.707.57-.196.485 1.418-.66.227-3.934.3-.058-.75.289.696-2.121.879Zm8.706-2.11 1.16-.398 1.016-.293.418 1.442-1 .289-.207-.723.242.711-1.144.39Zm4.34-1.316.758-.218 3.926-.262.05.75-.206-.723 2.101-.601.414 1.445-2.18.621-3.925.262-.051-.75.207.723-.68.195Zm8.793-1.671 2.164-.618.41 1.442-2.16.617Zm4.328-1.235 6.489-1.855.414 1.441-6.492 1.856Zm8.653-2.476 2.164-.618.41 1.442-2.16.617Zm4.328-1.235 1.488-.426.414 1.442-1.492.426Zm0 0"/></g><g clip-path="url(#m)"><path fill="#19D3F3" d="m51.98 153.941 4.235-4.046 4.312 2.187-.34.672.243-.711 1.53.523-.487 1.422-1.578-.543-3.887-1.972.34-.672.52.543-3.848 3.683Zm14.223.399 2 1.023-.683 1.336-2-1.023Zm5.527 3.047 3.743-.457.09.742-.317-.68 4.356-2.02 2.507 2.856-1.125.988-2.136-2.433.562-.496.317.68-3.957 1.835-3.856.477Zm13.418 3.675 1.61 1.57-1.047 1.075-1.61-1.57Zm4.024.278 1.691-1.39 4.297 2.488-.375.648.098-.742 3.84.511-.098.743-.098-.743 1.254-.164.192 1.489-1.348.175-4.086-.542-3.977-2.305.376-.649.476.582-1.293 1.059Zm15.289 1.375 1.992.379-.14.734-.07-.746.222-.02.137 1.493-.325.03-2.097-.394Zm6.617.086 2.984.25-.062.75-.234-.715 4.101-1.344 4.09 1.582-.27.7-.007-.75h.09l.015 1.5-.234.003-3.973-1.539.27-.699.234.715-3.992 1.305-3.137-.262Zm15.192.43 2.25-.024.015 1.5-2.25.023Zm6.75-.067.246-.004 3.925.508 7.047 1.539-.316 1.465-7.02-1.531.16-.735-.097.746-3.84-.496.098-.742.007.75h-.195Zm15.617 3.004.12.027-.16.73-.003-.75 2.125-.007.008 1.5-2.207.012-.204-.047Zm6.644.246 1.149.102 3.937 1.203 3.871 1.476-.265.703.101-.746 2.02.274-.2 1.488-2.109-.285-3.93-1.5.27-.703-.219.719-3.84-1.168.22-.72-.067.747-1.074-.094Zm15.301 3.965 2.172.578-.387 1.45-2.172-.579Zm6.52 1.738 10.226 2.73.75.442-.758 1.293-.664-.39.38-.645-.196.723-10.125-2.704Zm14.757 5.18 2.172.601-.402 1.446-2.168-.602Zm6.473 1.031.3.016 7.712.988-.094.742v-.75l3.227-.004v1.5l-3.274.004-7.734-.988.094-.742-.043.746-.274-.016Zm15.625.887 2.246-.059.043 1.5-2.25.059Zm6.578-.63.953-.179 10.106-1.898.273 1.476-10.105 1.899-.95.176Zm15.293-3.257.961-.308 1.234-.333.391 1.45-1.219.328-.195-.727.23.715-.94.305Zm6.54-1.812 5.972-1.614 3.824-1.113.211.723-.23-.715 1.011-.328.461 1.426-1.023.332-3.864 1.125-5.972 1.613Zm15.07-4.434 2.14-.691.461 1.425-2.14.692Zm6.394-2.078 3.66-1.336 6.903-2.531.515 1.41-6.902 2.531-3.664 1.336Zm14.785-5.414.426-.156 1.75-.547.45 1.43-1.735.542-.223-.718.258.707-.406.148Zm6.363-2.188 9.465-3.734 1.184-.242.3 1.469-1.116.23-.153-.734.274.695-9.403 3.71Zm14.973-4.988 2.168-.605.406 1.445-2.168.605Zm6.5-1.82 10.836-3.035.402 1.445-10.832 3.035Zm15.168-4.25 2.164-.606.406 1.442-2.168.61Zm6.5-1.82.969-.274 3.89-.621.118.742-.246-.71 6.039-2.09.492 1.413-6.102 2.118-3.914.625-.117-.743.203.723-.93.262Zm15.02-4.43 2.125-.735.492 1.414-2.125.739Zm6.379-2.211 2.648-.914 3.95-.219.081 1.5-3.847.207-.04-.746.247.707-2.547.883Zm0 0"/></g><path fill="none" stroke="#000" stroke-width=".75" d="M51.75 204.375h309m-309-191.25h309M52.125 13.5V204m308.25-190.5V204"/><path fill="none" stroke="#444" stroke-width=".75" d="M52.5 204.75v3.75m76.875-3.75v3.75m76.875-3.75v3.75m76.875-3.75v3.75M360 204.75v3.75"/><g fill="#2A3F5F"><use xlink:href="#n" x="41.459" y="219.3"/><use xlink:href="#o" x="48.824" y="219.3"/><use xlink:href="#p" x="54.546" y="219.3"/><use xlink:href="#q" x="57.82" y="219.3"/></g><g fill="#2A3F5F"><use xlink:href="#n" x="118.334" y="219.3"/><use xlink:href="#o" x="125.699" y="219.3"/><use xlink:href="#p" x="131.421" y="219.3"/><use xlink:href="#r" x="134.695" y="219.3"/></g><use xlink:href="#o" x="203.389" y="219.3" fill="#2A3F5F"/><g fill="#2A3F5F"><use xlink:href="#o" x="275.766" y="219.3"/><use xlink:href="#p" x="281.488" y="219.3"/><use xlink:href="#r" x="284.762" y="219.3"/></g><g fill="#2A3F5F"><use xlink:href="#o" x="352.641" y="219.3"/><use xlink:href="#p" x="358.363" y="219.3"/><use xlink:href="#q" x="361.637" y="219.3"/></g><path fill="none" stroke="#444" stroke-width=".75" d="M51.75 204H48m3.75-47.625H48m3.75-47.625H48m3.75-47.625H48M51.75 13.5H48"/><use xlink:href="#o" x="40.478" y="207.15" fill="#2A3F5F"/><g fill="#2A3F5F"><use xlink:href="#o" x="25.761" y="159.525"/><use xlink:href="#p" x="31.483" y="159.525"/><use xlink:href="#o" x="34.757" y="159.525"/><use xlink:href="#s" x="40.478" y="159.525"/></g><g fill="#2A3F5F"><use xlink:href="#o" x="31.483" y="111.9"/><use xlink:href="#p" x="37.204" y="111.9"/><use xlink:href="#r" x="40.478" y="111.9"/></g><g fill="#2A3F5F"><use xlink:href="#o" x="25.761" y="64.275"/><use xlink:href="#p" x="31.483" y="64.275"/><use xlink:href="#r" x="34.757" y="64.275"/><use xlink:href="#s" x="40.478" y="64.275"/></g><g fill="#2A3F5F"><use xlink:href="#o" x="31.483" y="16.65"/><use xlink:href="#p" x="37.204" y="16.65"/><use xlink:href="#q" x="40.478" y="16.65"/></g><path fill="none" stroke="#2A3F5F" stroke-width="1.5" d="M321.563 188.762h30.75v5.715h-30.75Zm0 0"/><g fill="#2A3F5F"><use xlink:href="#t" x="60.15" y="120.84"/><use xlink:href="#u" x="67.748" y="120.84"/><use xlink:href="#v" x="76.541" y="120.84"/><use xlink:href="#w" x="85.057" y="120.84"/><use xlink:href="#x" x="93.947" y="120.84"/><use xlink:href="#y" x="100.92" y="120.84"/></g><g fill="#2A3F5F"><use xlink:href="#z" x="88.65" y="135.225"/><use xlink:href="#A" x="94.82" y="135.225"/><use xlink:href="#B" x="100.225" y="135.225"/><use xlink:href="#C" x="103.772" y="135.225"/><use xlink:href="#D" x="108.461" y="135.225"/><use xlink:href="#E" x="114.156" y="135.225"/><use xlink:href="#s" x="117.32" y="135.225"/></g><path fill="#EF553B" d="M62.398 130.965h2.25v1.5h-2.25m4.5-1.5h2.25v1.5h-2.25m4.5-1.5h2.25v1.5h-2.25m4.5-1.5h2.25v1.5h-2.25m4.5-1.5h2.25v1.5h-2.25"/><g fill="#2A3F5F"><use xlink:href="#z" x="88.65" y="149.475"/><use xlink:href="#A" x="94.82" y="149.475"/><use xlink:href="#B" x="100.225" y="149.475"/><use xlink:href="#C" x="103.772" y="149.475"/><use xlink:href="#D" x="108.461" y="149.475"/><use xlink:href="#E" x="114.156" y="149.475"/><use xlink:href="#F" x="117.32" y="149.475"/></g><path fill="#00CC96" d="M62.398 145.215h6.75v1.5h-6.75m13.5-1.5h6.75v1.5h-6.75"/><g fill="#2A3F5F"><use xlink:href="#z" x="88.65" y="163.725"/><use xlink:href="#A" x="94.82" y="163.725"/><use xlink:href="#B" x="100.225" y="163.725"/><use xlink:href="#C" x="103.772" y="163.725"/><use xlink:href="#D" x="108.461" y="163.725"/><use xlink:href="#E" x="114.156" y="163.725"/><use xlink:href="#G" x="117.32" y="163.725"/></g><path fill="#AB63FA" d="M62.398 159.465h11.25v1.5h-11.25"/><g fill="#2A3F5F"><use xlink:href="#z" x="88.65" y="177.975"/><use xlink:href="#A" x="94.82" y="177.975"/><use xlink:href="#B" x="100.225" y="177.975"/><use xlink:href="#C" x="103.772" y="177.975"/><use xlink:href="#D" x="108.461" y="177.975"/><use xlink:href="#E" x="114.156" y="177.975"/><use xlink:href="#q" x="117.32" y="177.975"/></g><path fill="#FFA15A" d="M62.398 173.715h6.75v1.5h-6.75m9-1.5h2.25v1.5h-2.25m4.5-1.5h6.75v1.5h-6.75"/><g fill="#2A3F5F"><use xlink:href="#z" x="88.65" y="192.225"/><use xlink:href="#A" x="94.82" y="192.225"/><use xlink:href="#B" x="100.225" y="192.225"/><use xlink:href="#C" x="103.772" y="192.225"/><use xlink:href="#D" x="108.461" y="192.225"/><use xlink:href="#E" x="114.156" y="192.225"/><use xlink:href="#r" x="117.32" y="192.225"/></g><path fill="#19D3F3" d="M62.398 187.965h11.25v1.5h-11.25m15.75-1.5h2.25v1.5h-2.25"/><g fill="#2A3F5F"><use xlink:href="#H" x="148.045" y="239.405"/><use xlink:href="#I" x="154.684" y="239.405"/></g><g fill="#2A3F5F"><use xlink:href="#J" x="154.684" y="241.61"/><use xlink:href="#K" x="159.098" y="241.61"/></g><use xlink:href="#L" x="163.678" y="241.61" fill="#2A3F5F"/><use xlink:href="#M" x="168.139" y="241.61" fill="#2A3F5F"/><g fill="#2A3F5F"><use xlink:href="#N" x="172.488" y="241.61"/><use xlink:href="#O" x="176.867" y="241.61"/><use xlink:href="#P" x="179.451" y="241.61"/></g><g fill="#2A3F5F"><use xlink:href="#Q" x="185.645" y="241.61"/><use xlink:href="#O" x="190.078" y="241.61"/><use xlink:href="#R" x="192.662" y="241.61"/></g><use xlink:href="#S" x="197.313" y="241.61" fill="#2A3F5F"/><use xlink:href="#T" x="201.964" y="241.61" fill="#2A3F5F"/><use xlink:href="#T" x="203.981" y="241.61" fill="#2A3F5F"/><use xlink:href="#I" x="205.998" y="239.405" fill="#2A3F5F"/><g fill="#2A3F5F"><use xlink:href="#I" x="205.998" y="239.405"/><use xlink:href="#U" x="209.689" y="239.405"/><use xlink:href="#V" x="214.457" y="239.405"/><use xlink:href="#W" x="220.712" y="239.405"/><use xlink:href="#X" x="227.89" y="239.405"/><use xlink:href="#Y" x="232.658" y="239.405"/><use xlink:href="#Z" x="238.964" y="239.405"/><use xlink:href="#aa" x="243.101" y="239.405"/><use xlink:href="#ab" x="249.474" y="239.405"/><use xlink:href="#ac" x="259.687" y="239.405"/></g><g fill="#2A3F5F"><use xlink:href="#ad" x="10.5" y="168.91"/><use xlink:href="#ae" x="10.5" y="161.609"/><use xlink:href="#af" x="10.5" y="155.236"/><use xlink:href="#af" x="10.5" y="152.355"/><use xlink:href="#ag" x="10.5" y="149.473"/><use xlink:href="#ah" x="10.5" y="146.592"/><use xlink:href="#ai" x="10.5" y="139.948"/><use xlink:href="#aj" x="10.5" y="133.406"/><use xlink:href="#ak" x="10.5" y="129.714"/><use xlink:href="#al" x="10.5" y="120.865"/><use xlink:href="#am" x="10.5" y="113.687"/><use xlink:href="#aj" x="10.5" y="107.048"/><use xlink:href="#an" x="10.5" y="103.356"/><use xlink:href="#ao" x="10.5" y="98.588"/><use xlink:href="#ap" x="10.5" y="92.333"/><use xlink:href="#aq" x="10.5" y="85.156"/><use xlink:href="#ar" x="10.5" y="80.388"/><use xlink:href="#as" x="10.5" y="74.082"/><use xlink:href="#ae" x="10.5" y="69.944"/><use xlink:href="#at" x="10.5" y="63.571"/><use xlink:href="#au" x="10.5" y="53.358"/></g><g fill="#2A3F5F"><use xlink:href="#av" x="170.263" y="81"/><use xlink:href="#aw" x="177.848" y="81"/><use xlink:href="#ax" x="184" y="81"/><use xlink:href="#E" x="189.691" y="81"/><use xlink:href="#ay" x="192.855" y="81"/><use xlink:href="#E" x="200.22" y="81"/><use xlink:href="#az" x="203.384" y="81"/><use xlink:href="#ax" x="207.471" y="81"/><use xlink:href="#E" x="213.162" y="81"/></g><use xlink:href="#aA" x="213.162" y="82.89" fill="#2A3F5F"/><use xlink:href="#aB" x="217.144" y="82.89" fill="#2A3F5F"/><use xlink:href="#aC" x="221.126" y="82.89" fill="#2A3F5F"/><use xlink:href="#aC" x="222.853" y="82.89" fill="#2A3F5F"/><use xlink:href="#aD" x="224.58" y="82.89" fill="#2A3F5F"/><use xlink:href="#aE" x="226.792" y="82.89" fill="#2A3F5F"/><use xlink:href="#aF" x="230.712" y="82.89" fill="#2A3F5F"/><use xlink:href="#aG" x="232.439" y="82.89" fill="#2A3F5F"/><use xlink:href="#aH" x="235.718" y="82.89" fill="#2A3F5F"/><use xlink:href="#az" x="238.197" y="81" fill="#2A3F5F"/><g fill="#2A3F5F"><use xlink:href="#aI" x="210.003" y="195"/><use xlink:href="#aJ" x="213.844" y="195"/><use xlink:href="#aK" x="219.306" y="195"/><use xlink:href="#aK" x="221.776" y="195"/><use xlink:href="#aL" x="224.246" y="195"/><use xlink:href="#aM" x="226.715" y="195"/><use xlink:href="#aN" x="232.411" y="195"/><use xlink:href="#E" x="238.018" y="195"/><use xlink:href="#aO" x="241.182" y="195"/><use xlink:href="#aL" x="248.547" y="195"/><use xlink:href="#aM" x="251.017" y="195"/><use xlink:href="#aP" x="256.712" y="195"/><use xlink:href="#aJ" x="262.32" y="195"/><use xlink:href="#aO" x="267.782" y="195"/><use xlink:href="#aQ" x="275.147" y="195"/><use xlink:href="#F" x="282.513" y="195"/><use xlink:href="#o" x="288.234" y="195"/><use xlink:href="#E" x="293.956" y="195"/><use xlink:href="#aR" x="297.12" y="195"/><use xlink:href="#aS" x="305.874" y="195"/><use xlink:href="#aT" x="311.235" y="195"/></g></svg>