<svg xmlns="http://www.w3.org/2000/svg" xmlns:xlink="http://www.w3.org/1999/xlink" width="375.12" height="247.92"><defs><path id="n" d="M6.406-2.516H.97v-.703h5.437Zm0 0"/><path id="o" d="M5.125-3.281q-.001 1.769-.547 2.594C4.211-.133 3.641.14 2.86.14Q1.687.142 1.141-.687.608-1.531.609-3.266q-.002-1.746.547-2.578.545-.827 1.703-.828 1.186 0 1.72.844c.362.562.546 1.414.546 2.547m-1.156 2c.101-.239.172-.516.203-.828q.06-.48.062-1.172a10 10 0 0 0-.062-1.14 2.7 2.7 0 0 0-.203-.845 1.2 1.2 0 0 0-.422-.515c-.18-.114-.406-.172-.688-.172a1.3 1.3 0 0 0-.687.172q-.27.176-.422.515a3 3 0 0 0-.203.86 13 13 0 0 0-.047 1.14q0 .69.047 1.157.046.455.203.812.14.344.406.531c.176.118.41.172.703.172.282 0 .508-.054.688-.172q.28-.17.422-.515m0 0"/><path id="p" d="M2.156 0H1.11v-1.25h1.047Zm0 0"/><path id="q" d="M5.14 0H.704v-.922c.313-.258.617-.52.922-.781q.467-.404.875-.797c.563-.54.945-.973 1.156-1.297q.312-.48.313-1.031-.002-.516-.344-.797c-.219-.195-.531-.297-.937-.297q-.392 0-.86.14a3.3 3.3 0 0 0-.906.438H.875v-.922a4.3 4.3 0 0 1 .828-.28q.514-.142 1.016-.141.998 0 1.562.5.576.486.578 1.312 0 .375-.093.703-.095.316-.282.61-.174.269-.406.53-.22.27-.547.579a27 27 0 0 1-.984.906c-.336.281-.64.547-.922.797h3.516Zm0 0"/><path id="r" d="M4.766 0H1.219v-.672h1.36v-4.375h-1.36v-.61q.28 0 .593-.046a1.8 1.8 0 0 0 .485-.125.8.8 0 0 0 .312-.281.85.85 0 0 0 .141-.453h.672v5.89h1.344Zm0 0"/><path id="s" d="M5.078-2.078c0 .305-.058.594-.172.875a1.9 1.9 0 0 1-.453.703q-.315.315-.75.484a3.1 3.1 0 0 1-1.015.157Q2.154.14 1.656.016A4 4 0 0 1 .828-.25v-.922h.063c.238.156.515.29.828.39q.482.158.953.157c.207 0 .41-.023.61-.078.195-.063.366-.164.515-.313a1.1 1.1 0 0 0 .297-.453q.093-.264.093-.61a1.24 1.24 0 0 0-.125-.577.95.95 0 0 0-.312-.375 1.45 1.45 0 0 0-.547-.219 3.3 3.3 0 0 0-.734-.078q-.393.002-.75.062-.364.048-.61.094v-3.375h3.938v.766H1.953v1.75q.188-.014.375-.016.2-.014.36-.016.528 0 .921.094c.27.055.516.156.735.313q.358.236.547.625.187.377.187.953m0 0"/><path id="w" d="M5.813-2.016A1.9 1.9 0 0 1 5.14-.53q-.377.282-.828.406-.441.127-1.11.125H.875v-6.547h1.938c.476 0 .835.024 1.078.063q.358.047.687.218c.238.125.41.29.516.485.101.199.156.433.156.703q0 .468-.234.797a1.7 1.7 0 0 1-.625.531v.031q.655.128 1.03.578.39.458.391 1.125m-1.47-2.953a.9.9 0 0 0-.077-.39.6.6 0 0 0-.25-.266 1.1 1.1 0 0 0-.5-.14 8 8 0 0 0-.735-.032H1.75v1.89h1.125q.406 0 .64-.046.248-.045.454-.172a.77.77 0 0 0 .281-.344q.094-.2.094-.5m.563 2.985c0-.258-.043-.47-.125-.625Q4.67-2.844 4.36-3a1.5 1.5 0 0 0-.515-.14 8 8 0 0 0-.735-.032H1.75V-.75h1.156q.56 0 .922-.047.375-.06.61-.219.247-.169.359-.39c.07-.145.11-.336.11-.578m0 0"/><path id="x" d="M4.625 0h-.812v-.516q-.111.064-.297.204-.187.126-.375.218a2.6 2.6 0 0 1-.47.157Q2.404.14 2.048.14q-.673 0-1.14-.438Q.45-.747.452-1.422q0-.562.235-.906.247-.341.687-.547.45-.186 1.078-.25.62-.077 1.36-.125v-.125a.86.86 0 0 0-.11-.453.7.7 0 0 0-.281-.297A1.1 1.1 0 0 0 3-4.265a3.3 3.3 0 0 0-1.25.063 6 6 0 0 0-.812.233H.89v-.828a6 6 0 0 1 .703-.156q.45-.077.89-.078a3.8 3.8 0 0 1 .907.093c.257.055.484.149.672.282q.281.203.421.531.141.316.141.797Zm-.812-1.203v-1.375l-.907.078q-.503.033-.797.125a1.23 1.23 0 0 0-.578.313c-.148.136-.218.328-.218.578q-.001.422.25.64.247.204.78.203.434.001.798-.156.355-.17.672-.406m0 0"/><path id="y" d="M3.36-.047a4 4 0 0 1-.516.094q-.269.047-.485.047-.752.002-1.14-.406Q.828-.718.829-1.61v-2.61H.265v-.687h.562v-1.407h.828v1.407H3.36v.687H1.656v2.235q-.001.391.016.609.012.22.125.406a.62.62 0 0 0 .266.266c.113.055.285.078.515.078q.2 0 .422-.062.218-.059.313-.094h.046Zm0 0"/><path id="z" d="M4.438-.312A4.5 4.5 0 0 1 3.656 0c-.25.07-.511.11-.781.11a3 3 0 0 1-.984-.157 1.9 1.9 0 0 1-.75-.469 2 2 0 0 1-.5-.796c-.118-.32-.172-.704-.172-1.141q0-1.2.656-1.875.656-.687 1.75-.688.42.001.828.125.406.112.735.282v.906h-.032a3.7 3.7 0 0 0-.797-.438 2 2 0 0 0-.78-.171q-.705.002-1.11.484c-.274.312-.407.773-.407 1.375 0 .594.13 1.055.391 1.375q.405.469 1.125.469.246 0 .516-.063.264-.06.469-.172.17-.093.328-.187.17-.105.265-.188h.032Zm0 0"/><path id="A" d="M4.922 0h-.828v-2.797a4 4 0 0 0-.047-.64 1.05 1.05 0 0 0-.14-.454.7.7 0 0 0-.313-.28 1.3 1.3 0 0 0-.547-.095q-.328.001-.703.172a4.7 4.7 0 0 0-.703.422V0H.813v-6.844h.828v2.485a3 3 0 0 1 .797-.5q.42-.188.843-.188.797.002 1.219.484.422.471.422 1.375Zm0 0"/><path id="C" d="M5.281-1.844h-.968V0h-.844v-1.844H.344v-1.015L3.5-6.547h.813v4h.968ZM3.47-2.547V-5.5L.938-2.547Zm0 0"/><path id="D" d="M4.563-3.156c.132.125.25.289.343.484q.14.283.14.735 0 .454-.171.828A2.06 2.06 0 0 1 3.641 0q-.44.14-.97.14-.55 0-1.077-.141a4.6 4.6 0 0 1-.86-.281v-.922h.063q.373.252.875.422.516.157.984.156c.188 0 .383-.031.594-.094q.311-.091.5-.265.201-.2.297-.422c.07-.157.11-.352.11-.594q-.001-.357-.126-.578a1 1 0 0 0-.297-.375 1.4 1.4 0 0 0-.484-.172 3 3 0 0 0-.61-.062h-.39v-.735h.297q.668.002 1.062-.265c.27-.188.407-.461.407-.829a.77.77 0 0 0-.11-.406.75.75 0 0 0-.265-.297 1.5 1.5 0 0 0-.407-.156 2.3 2.3 0 0 0-.484-.047c-.281 0-.578.055-.89.156q-.47.141-.891.422H.922v-.922a4.3 4.3 0 0 1 .828-.28q.528-.142 1.016-.141.48 0 .843.093.358.095.657.282.31.222.468.515.171.3.172.688c0 .367-.133.683-.39.953a1.64 1.64 0 0 1-.907.515v.063q.216.034.485.156.28.112.468.266m0 0"/><path id="as" d="M6.703 0h-.86v-5.64L4.017-1.798H3.5L1.688-5.64V0H.875v-6.547h1.188l1.75 3.64L5.5-6.546h1.203Zm0 0"/><path id="at" d="M6.031 0H5.11l-.64-1.828H1.64L1 0H.11L2.5-6.547h1.156ZM4.203-2.578 3.047-5.781l-1.14 3.203Zm0 0"/><path id="au" d="M5.188 0H.875v-6.547h4.313v.781H1.75v1.782h3.438v.78H1.75V-.78h3.438Zm0 0"/><path id="av" d="M6.25-2.594 1.172-.344v-.781l4-1.734-4-1.735v-.797L6.25-3.14Zm0 0"/><path id="aw" d="M2.422 1.719h-.766v-8.563h.766Zm0 0"/><path id="aF" d="M3.875-4.016h-.047a7 7 0 0 0-.36-.046 2.5 2.5 0 0 0-.405-.032 1.7 1.7 0 0 0-.735.172 3.6 3.6 0 0 0-.687.438V0H.813v-4.906h.828v.718c.32-.257.609-.44.859-.546q.388-.171.781-.172c.133 0 .235.008.297.015.07 0 .172.012.297.032Zm0 0"/><path id="aG" d="M5-2.453c0 .805-.21 1.437-.625 1.906q-.61.69-1.64.688-1.048.002-1.657-.688c-.406-.469-.61-1.101-.61-1.906q0-1.2.61-1.89.608-.704 1.656-.704 1.032 0 1.641.703c.414.461.625 1.09.625 1.89m-.86 0q0-.95-.374-1.406-.375-.47-1.032-.47-.672 0-1.046.47-.375.456-.375 1.406 0 .926.375 1.406.374.47 1.046.469.657 0 1.032-.469t.375-1.406m0 0"/><path id="aH" d="M1.64 0H.829v-6.844h.813Zm0 0"/><path id="aI" d="M1.703-5.734H.766v-.86h.937ZM1.641 0H.828v-4.906h.813Zm0 0"/><path id="aJ" d="M4.922 0h-.828v-2.797a4 4 0 0 0-.047-.64 1.05 1.05 0 0 0-.14-.454.7.7 0 0 0-.313-.28 1.3 1.3 0 0 0-.547-.095q-.328.001-.703.172a4.7 4.7 0 0 0-.703.422V0H.813v-4.906h.828v.547a3 3 0 0 1 .797-.5q.42-.188.843-.188.797.002 1.219.484.422.471.422 1.375Zm0 0"/><path id="aK" d="M4.797-.562Q4.795.685 4.219 1.266q-.562.592-1.735.593-.39-.002-.765-.062a4.6 4.6 0 0 1-.735-.156V.797h.047q.2.093.64.203c.29.07.583.11.876.11q.421 0 .703-.094a.95.95 0 0 0 .438-.282Q3.84.56 3.906.313q.062-.234.063-.532v-.453q-.377.3-.719.453-.344.14-.86.14Q1.5-.076.985-.702.47-1.341.47-2.5c0-.426.054-.79.172-1.094.125-.3.289-.566.5-.797a1.9 1.9 0 0 1 .687-.484q.404-.17.813-.172.435 0 .718.094.282.082.61.25l.047-.203h.78Zm-.828-.782V-4.03a3.6 3.6 0 0 0-.61-.203 3 3 0 0 0-.562-.063q-.691 0-1.078.453-.391.456-.39 1.328 0 .831.28 1.25.295.423.97.422.355.002.718-.125.374-.141.672-.375m0 0"/><path id="aL" d="M6.984-4.906 5.704 0h-.766l-1.25-3.781L2.438 0h-.766L.375-4.906h.86L2.14-1.11l1.218-3.797h.688l1.25 3.797.86-3.797Zm0 0"/><path id="aM" d="M4.797 0h-.828v-.516a3 3 0 0 1-.75.485q-.377.17-.828.172Q1.5.14.984-.531.47-1.216.47-2.421c0-.415.054-.786.172-1.11.125-.32.289-.598.5-.828a2 2 0 0 1 .687-.5q.406-.188.828-.188.388 0 .688.094c.195.055.406.133.625.234v-2.125h.828Zm-.828-1.203v-2.828a4 4 0 0 0-.594-.203 2.7 2.7 0 0 0-.578-.063q-.705.002-1.094.484-.375.486-.375 1.376 0 .877.297 1.328c.195.304.516.453.953.453q.357 0 .719-.156a3.3 3.3 0 0 0 .672-.391m0 0"/><path id="aN" d="M6.281-3.437H1.078v-.704h5.203Zm0 1.843H1.078v-.703h5.203Zm0 0"/><path id="aO" d="M7.969 0h-.813v-2.797q0-.31-.031-.61A1.4 1.4 0 0 0 7-3.874a.6.6 0 0 0-.297-.281c-.125-.07-.305-.11-.531-.11q-.364 0-.703.188-.346.175-.688.437.014.094.016.235.014.127.016.265V0h-.829v-2.797q0-.328-.03-.61a1.4 1.4 0 0 0-.126-.468.6.6 0 0 0-.281-.281c-.125-.07-.309-.11-.547-.11q-.346.001-.687.172a6 6 0 0 0-.672.422V0H.813v-4.906h.828v.547c.257-.22.515-.383.765-.5q.388-.188.828-.188.498 0 .844.219.357.204.516.578.513-.421.922-.61.404-.186.89-.187.797.001 1.172.5.388.486.39 1.36Zm0 0"/><path id="aP" d="M4.922-2.375h-3.61q-.001.457.125.797.142.329.375.547c.157.148.336.258.547.328q.312.094.688.094.497 0 1-.188.514-.2.734-.406h.047v.906q-.423.175-.86.297c-.292.07-.593.11-.905.11q-1.22 0-1.907-.657Q.468-1.202.47-2.422q0-1.201.656-1.906.657-.717 1.734-.719.984.002 1.516.578.546.58.547 1.657ZM4.125-3q-.017-.655-.344-1-.313-.359-.969-.36c-.449 0-.804.133-1.062.391A1.5 1.5 0 0 0 1.313-3Zm0 0"/><path id="aQ" d="M6.031-6.547 3.656 0H2.5L.11-6.547h.937L3.094-.78l2.062-5.766Zm0 0"/><path id="t" d="M4.422.156a4.8 4.8 0 0 1-1.563-.25 3.7 3.7 0 0 1-1.25-.75 3.3 3.3 0 0 1-.796-1.234Q.53-2.828.53-3.813c0-.601.086-1.148.266-1.64a3.7 3.7 0 0 1 .797-1.266A3.2 3.2 0 0 1 2.828-7.5a4.5 4.5 0 0 1 1.61-.281q.467.002.859.062.389.048.719.125.341.112.625.235.28.112.484.218v1.844h-.219q-.158-.123-.375-.281a5 5 0 0 0-.484-.344 4 4 0 0 0-.61-.266 2 2 0 0 0-.703-.125 2.3 2.3 0 0 0-.796.141q-.376.13-.688.422-.299.3-.484.781-.188.486-.188 1.172 0 .705.203 1.188.2.485.5.765.311.282.703.407.389.11.766.109.341 0 .688-.094c.238-.07.457-.172.656-.297q.264-.153.468-.312.218-.17.36-.297h.203V-.5q-.282.129-.547.234-.268.112-.547.188-.375.11-.703.172-.33.06-.906.062m0 0"/><path id="u" d="M7.719-.437q-.505.205-1.36.406a7.7 7.7 0 0 1-1.671.187Q2.73.158 1.624-.89.531-1.952.531-3.828c0-1.188.367-2.14 1.11-2.86Q2.747-7.778 4.75-7.78q.75 0 1.422.14.687.128 1.531.532v1.797H7.47a9 9 0 0 0-.422-.297 4.4 4.4 0 0 0-.531-.344 3 3 0 0 0-.703-.281 2.8 2.8 0 0 0-.829-.125q-.531.002-.953.156a2.3 2.3 0 0 0-.765.469q-.314.315-.5.797a2.9 2.9 0 0 0-.188 1.078c0 .843.223 1.492.672 1.937.445.45 1.11.672 1.984.672h.235q.138.001.265-.016v-1.5h-1.53v-1.437H7.72Zm0 0"/><path id="v" d="M7.922 0H6.016L2.78-5.234V0H.97v-7.64h2.36l2.78 4.374V-7.64h1.813Zm0 0"/><path id="E" d="M6.063 0H1.03v-7.64h5.032v.906H2.047v2.093h4.015v.907H2.048v2.828h4.015Zm0 0"/><path id="R" d="M4.016 2.11H2.844A8.2 8.2 0 0 1 1.422-.157c-.336-.82-.5-1.75-.5-2.781 0-1.02.164-1.942.5-2.766a8.5 8.5 0 0 1 1.422-2.281h1.172v.062a6.5 6.5 0 0 0-.797.86q-.376.485-.703 1.14-.301.628-.5 1.39a6.6 6.6 0 0 0-.188 1.595q0 .877.188 1.609.186.736.5 1.39.31.622.703 1.126.405.513.797.875Zm0 0"/><path id="S" d="M5.75-2.766H1.516q-.001.535.156.922.171.394.453.64.263.253.625.376c.25.086.52.125.813.125q.574 0 1.171-.235.592-.234.844-.468h.047v1.062q-.485.204-1 .344c-.336.094-.687.14-1.062.14Q2.14.143 1.342-.624q-.795-.78-.796-2.203-.001-1.405.766-2.234.761-.828 2.015-.829 1.154 0 1.781.688.64.675.641 1.922ZM4.797-3.5q0-.761-.375-1.172c-.25-.281-.633-.422-1.14-.422-.524 0-.938.157-1.25.469q-.457.457-.516 1.125Zm0 0"/><path id="T" d="M7.047-7.64 4.266 0h-1.36L.141-7.64h1.078l2.39 6.718L6.016-7.64Zm0 0"/><path id="U" d="M4.406-7.984.734 1.563h-.89L3.5-7.985Zm0 0"/><path id="V" d="M5.406 0h-.968v-.61c-.086.063-.2.15-.344.25a2 2 0 0 1-.422.235 2.4 2.4 0 0 1-.563.203q-.315.077-.718.078c-.524 0-.965-.164-1.328-.5Q.53-.859.53-1.656q0-.655.282-1.063.281-.403.796-.625.529-.233 1.25-.312a19 19 0 0 1 1.579-.125v-.156q-.001-.328-.125-.532A.9.9 0 0 0 4-4.812a1.4 1.4 0 0 0-.5-.157 3.6 3.6 0 0 0-.594-.047c-.261 0-.547.04-.86.11a6 6 0 0 0-.952.281h-.047v-.984q.28-.075.812-.157a6 6 0 0 1 1.047-.093q.608 0 1.047.093.452.096.781.344c.22.156.383.36.5.61q.171.376.172.921Zm-.968-1.406V-3q-.439.02-1.047.078-.598.047-.938.14-.409.13-.672.376-.251.25-.25.672 0 .504.297.75c.195.168.5.25.906.25q.5 0 .922-.203a4.6 4.6 0 0 0 .781-.47m0 0"/><path id="W" d="M3.922-.047c-.18.043-.375.078-.594.11q-.316.046-.562.046-.892 0-1.344-.468C1.117-.672.969-1.176.969-1.875v-3.047H.313v-.812h.656v-1.641h.969v1.64h1.984v.813H1.937v2.61q-.001.455.016.718a1 1 0 0 0 .14.469.64.64 0 0 0 .313.297q.2.094.61.094.233 0 .484-.063.263-.077.375-.125h.047Zm0 0"/><path id="X" d="M5.828-2.86Q5.826-1.464 5.11-.655q-.72.813-1.921.812-1.221 0-1.938-.812-.703-.81-.703-2.203 0-1.405.703-2.22c.477-.538 1.125-.812 1.938-.812.8 0 1.44.274 1.921.813.477.543.72 1.281.72 2.219m-1 0q-.002-1.106-.437-1.656-.424-.545-1.203-.546-.786 0-1.22.546-.437.55-.437 1.657 0 1.077.438 1.64.433.549 1.219.547.762.002 1.203-.547.435-.563.437-1.64m0 0"/><path id="Y" d="M9.313 0h-.97v-3.266q0-.357-.03-.703a1.6 1.6 0 0 0-.141-.547.8.8 0 0 0-.344-.343c-.148-.07-.36-.11-.64-.11q-.41.002-.813.203a5.5 5.5 0 0 0-.797.516c.008.086.016.18.016.281q.013.157.015.297V0h-.968v-3.266q-.001-.374-.032-.718a1.6 1.6 0 0 0-.14-.547.72.72 0 0 0-.344-.328c-.148-.07-.355-.11-.625-.11a1.8 1.8 0 0 0-.797.203c-.262.125-.527.29-.797.485V0H.953v-5.734h.953v.64q.45-.374.907-.578.45-.218.953-.219.59.002 1 .25a1.6 1.6 0 0 1 .609.688q.575-.497 1.063-.719a2.5 2.5 0 0 1 1.03-.219c.626 0 1.087.196 1.391.579q.453.563.454 1.593Zm0 0"/><path id="Z" d="M3.844-2.937c0 1.03-.172 1.96-.516 2.78A8 8 0 0 1 1.922 2.11H.75v-.046a6.3 6.3 0 0 0 .797-.876A7 7 0 0 0 2.25.063c.207-.438.375-.899.5-1.391a6.5 6.5 0 0 0 .188-1.61q0-.843-.188-1.593a6.8 6.8 0 0 0-1.203-2.532q-.375-.482-.797-.859v-.062h1.172q.902 1.05 1.406 2.28.516 1.238.516 2.766m0 0"/><path id="G" d="M3.781 0H3.11v-.422l-.25.172a1.6 1.6 0 0 1-.296.172 1.5 1.5 0 0 1-.376.125q-.222.06-.515.062Q1.123.111.75-.25a1.2 1.2 0 0 1-.375-.906q0-.47.188-.75.198-.28.562-.438.358-.153.875-.219c.344-.039.71-.066 1.11-.078v-.109a.67.67 0 0 0-.094-.375.6.6 0 0 0-.22-.234.73.73 0 0 0-.343-.11 3 3 0 0 0-.422-.031c-.18 0-.375.027-.594.078a4.6 4.6 0 0 0-.671.188H.734v-.688q.188-.045.563-.11c.25-.05.492-.077.734-.077q.42 0 .735.078.311.064.547.234.233.175.343.438.124.253.125.64ZM3.11-.984v-1.11q-.314.018-.734.047a3.3 3.3 0 0 0-.656.11q-.299.08-.485.25c-.117.117-.171.277-.171.484q-.001.345.203.516c.144.117.359.171.64.171q.358 0 .657-.14.293-.14.546-.328m0 0"/><path id="H" d="M4.188-2.031q0 .502-.141.906a2.2 2.2 0 0 1-.375.672q-.269.28-.578.422c-.2.09-.418.14-.656.14q-.346 0-.61-.078a2.2 2.2 0 0 1-.484-.218L1.297 0h-.64v-5.578h.687v2q.28-.234.593-.375.329-.155.72-.156c.468 0 .835.183 1.109.547q.421.534.422 1.53m-.688.015q-.002-.714-.25-1.078c-.156-.25-.414-.375-.766-.375a1.6 1.6 0 0 0-.593.125q-.3.13-.547.328V-.72c.187.086.347.14.484.172q.2.047.469.047c.375 0 .664-.117.875-.36.219-.25.328-.632.328-1.156m0 0"/><path id="I" d="M4.078-2q-.001.984-.5 1.547c-.336.375-.781.562-1.344.562Q1.373.11.875-.453C.539-.828.375-1.343.375-2s.164-1.172.5-1.547q.498-.562 1.36-.562c.562 0 1.007.187 1.343.562q.499.562.5 1.547m-.703 0q0-.78-.312-1.156-.3-.375-.829-.375-.55 0-.859.375Q1.077-2.78 1.078-2c0 .5.098.883.297 1.14q.31.392.86.391.527 0 .828-.375.311-.388.312-1.156m0 0"/><path id="J" d="M4.125-4 2.5 0h-.672L.218-4h.735L2.188-.812 3.422-4Zm0 0"/><path id="K" d="M4.016-1.937H1.063q-.001.374.109.656.106.269.312.437.187.174.438.266c.176.055.363.078.562.078q.404.001.813-.156.421-.17.61-.328h.03v.734q-.345.157-.703.25-.346.094-.734.094-1 0-1.562-.531Q.375-.983.375-1.984q0-.985.531-1.547.544-.576 1.422-.578.81 0 1.25.468.437.47.438 1.344Zm-.657-.516q-.001-.53-.265-.813-.27-.294-.797-.296-.549 0-.875.328c-.211.21-.328.468-.36.78Zm0 0"/><path id="M" d="M5.469 0h-.703v-4.594L3.28-1.469h-.42L1.375-4.594V0H.719v-5.344h.969l1.421 2.985 1.375-2.985h.985Zm0 0"/><path id="N" d="M4.203-3.719q-.001.346-.125.656-.11.3-.344.516-.27.281-.656.422-.375.14-.937.14h-.72V0H.72v-5.344h1.453q.468 0 .797.094.34.082.61.25a1.4 1.4 0 0 1 .452.516q.171.298.172.765m-.734.016q0-.28-.094-.485a.8.8 0 0 0-.297-.328 1.1 1.1 0 0 0-.39-.171 3 3 0 0 0-.563-.047h-.703v2.14h.61c.28 0 .507-.023.687-.078a.9.9 0 0 0 .437-.25.95.95 0 0 0 .235-.36q.076-.187.078-.421m0 0"/><path id="O" d="M4.016 0h-.672v-2.281q-.001-.282-.031-.516c-.024-.164-.063-.289-.126-.375a.52.52 0 0 0-.265-.219 1 1 0 0 0-.438-.078c-.18 0-.37.047-.578.14q-.298.129-.562.345V0H.656v-5.578h.688v2.016a2.6 2.6 0 0 1 .64-.407q.34-.14.704-.14.637.002.984.39c.226.262.344.637.344 1.125Zm0 0"/><path id="P" d="M3.984 0h-.671v-.437c-.231.18-.45.312-.657.406-.21.09-.437.14-.687.14q-.627 0-.985-.375c-.23-.257-.343-.64-.343-1.14V-4h.672v2.281q-.002.3.015.516.031.222.125.375a.7.7 0 0 0 .25.234q.154.064.453.063.263.001.578-.125c.207-.094.399-.211.579-.36V-4h.671Zm0 0"/><path id="Q" d="M1.344 0H.672v-5.578h.672Zm0 0"/><path id="aa" d="M0-7.344v1.313L-3.031-3.47v1.422H0v1.016h-7.64v-2.125q0-.702.093-1.156a2.4 2.4 0 0 1 .328-.829q.252-.421.657-.656.39-.234 1-.234.83 0 1.39.422c.367.273.64.652.828 1.14Zm-5.484 2.375q-.328.001-.578.125a1 1 0 0 0-.438.375q-.14.222-.203.532-.062.298-.063.703v1.187h2.891v-1.015c0-.32-.023-.602-.078-.844a1.4 1.4 0 0 0-.328-.61 1.35 1.35 0 0 0-.5-.343 2 2 0 0 0-.703-.11m0 0"/><path id="ab" d="M-2.86-5.828q1.395.002 2.204.719.813.72.812 1.922 0 1.22-.812 1.937-.81.703-2.203.703-1.405 0-2.22-.703c-.538-.477-.812-1.125-.812-1.937 0-.801.274-1.442.813-1.922.543-.477 1.281-.72 2.219-.72m0 1q-1.106.002-1.656.437-.545.423-.546 1.204 0 .785.546 1.218.55.439 1.657.438 1.077 0 1.64-.438.549-.433.547-1.218.002-.763-.547-1.204-.563-.435-1.64-.437m0 0"/><path id="ac" d="M0-1.922v.969h-7.984v-.969Zm0 0"/><path id="ad" d="M-6.687-1.984v1.093h-1v-1.093ZM0-1.922v.969h-5.734v-.969Zm0 0"/><path id="ae" d="M0-5.734v.968h-3.266q-.387 0-.734.047-.341.034-.547.157a.72.72 0 0 0-.312.375 1.55 1.55 0 0 0-.11.625q.002.393.203.828c.125.28.29.558.485.828H0v.953h-5.734v-.953h.64q-.374-.452-.578-.938a2.4 2.4 0 0 1-.219-.984q0-.937.563-1.422.564-.482 1.61-.484Zm0 0"/><path id="af" d="M-.656-5.594c.976 0 1.691.227 2.14.672q.687.659.688 2.031c0 .305-.024.602-.063.891a7 7 0 0 1-.187.844H.938v-.047a7 7 0 0 0 .218-.75q.14-.516.14-1.031 0-.48-.124-.797a1.24 1.24 0 0 0-.313-.516 1.3 1.3 0 0 0-.484-.25 2.4 2.4 0 0 0-.625-.078h-.531q.345.44.515.828c.118.262.172.602.172 1.016 0 .68-.242 1.219-.734 1.625q-.733.61-2.094.61-.732 0-1.265-.204a2.8 2.8 0 0 1-.922-.578 2.2 2.2 0 0 1-.578-.797 2.5 2.5 0 0 1-.204-.969c0-.32.04-.594.11-.812a3.6 3.6 0 0 1 .297-.719l-.25-.062v-.907Zm-.922.969h-3.125q-.17.377-.234.719-.078.328-.079.656.002.783.532 1.25c.355.305.87.453 1.547.453q.971 0 1.468-.328c.324-.227.485-.61.485-1.14q.001-.423-.157-.844a2.6 2.6 0 0 0-.437-.766m0 0"/><path id="ah" d="M0-7.828v1.016h-6.578l4.469 2.125v.609l-4.47 2.11H0v.937h-7.64v-1.375l4.25-2.031-4.25-1.97v-1.421Zm0 0"/><path id="ai" d="M0-7.047v1.078l-2.125.75v3.313L0-1.156v1.015l-7.64-2.765v-1.36Zm-3 2.14-3.75 1.345L-3-2.22Zm0 0"/><path id="aj" d="M0-6.062v5.03h-7.64v-5.03h.906v4.015h2.093v-4.015h.907v4.015h2.828v-4.015Zm0 0"/><path id="ak" d="M2.11-4.016v1.172A8.2 8.2 0 0 1-.157-1.422c-.82.336-1.75.5-2.781.5-1.02 0-1.942-.164-2.766-.5a8.5 8.5 0 0 1-2.281-1.422v-1.172h.062c.25.282.54.547.86.797q.485.376 1.14.703.628.301 1.39.5.75.188 1.595.188.877 0 1.609-.188.736-.186 1.39-.5.622-.31 1.126-.703a7.5 7.5 0 0 0 .875-.797Zm0 0"/><path id="al" d="M-2.766-5.75v4.234q.535.001.922-.156.394-.171.64-.453.253-.263.376-.625c.086-.25.125-.52.125-.812q0-.575-.235-1.172-.234-.592-.468-.844v-.047h1.062q.204.485.344 1 .14.502.14 1.063.002 1.422-.765 2.218-.78.798-2.203.797c-.938 0-1.68-.254-2.234-.765q-.828-.762-.829-2.016 0-1.154.688-1.781.675-.64 1.922-.641Zm-.734.953q-.761 0-1.172.375c-.281.25-.422.633-.422 1.14 0 .524.157.938.469 1.25q.457.457 1.125.516Zm0 0"/><path id="am" d="M-7.64-7.047 0-4.266v1.36L-7.64-.141v-1.078l6.718-2.39-6.719-2.407Zm0 0"/><path id="an" d="M-7.984-4.406 1.563-.734v.89L-7.985-3.5Zm0 0"/><path id="ao" d="M0-5.406v.968h-.61c.063.086.15.2.25.344q.159.224.235.422c.086.156.148.344.203.563q.077.315.078.718c0 .524-.164.965-.5 1.329q-.515.531-1.312.53-.655 0-1.063-.28a1.8 1.8 0 0 1-.625-.797q-.233-.529-.312-1.25a19 19 0 0 1-.125-1.578h-.156q-.328 0-.532.125A.9.9 0 0 0-4.812-4a1.4 1.4 0 0 0-.157.5 3.6 3.6 0 0 0-.047.594c0 .261.04.547.11.86q.093.455.281.952v.047h-.984a8 8 0 0 1-.157-.812 6 6 0 0 1-.093-1.047q0-.608.093-1.047.096-.452.344-.781c.156-.22.36-.383.61-.5q.376-.171.921-.172Zm-1.406.968H-3q.02.439.078 1.047.047.598.14.938.13.409.376.672.25.251.672.25.504 0 .75-.297c.168-.195.25-.5.25-.906q0-.5-.203-.922a4.6 4.6 0 0 0-.47-.781m0 0"/><path id="ap" d="M-.047-3.922c.043.18.078.375.11.594q.046.316.046.562 0 .892-.468 1.344c-.313.305-.817.453-1.516.453h-3.047v.657h-.812V-.97h-1.641v-.968h1.64v-1.985h.813v1.985h2.61q.455.001.718-.016a1 1 0 0 0 .469-.14.64.64 0 0 0 .297-.313q.094-.2.094-.61 0-.233-.063-.484a4 4 0 0 0-.125-.375v-.047Zm0 0"/><path id="aq" d="M0-9.312v.968h-3.266q-.357.001-.703.031-.34.035-.547.141a.8.8 0 0 0-.343.344c-.07.148-.11.36-.11.64q.002.41.203.813.206.393.516.797.13-.014.281-.016.157-.013.297-.015H0v.968h-3.266q-.374.001-.718.032-.341.035-.547.14a.72.72 0 0 0-.328.344c-.07.148-.11.355-.11.625q.002.392.203.797c.125.262.29.527.485.797H0v.953h-5.734v-.953h.64q-.374-.45-.578-.907a2.2 2.2 0 0 1-.219-.953q.002-.59.25-1a1.6 1.6 0 0 1 .688-.609q-.497-.575-.719-1.062A2.5 2.5 0 0 1-5.89-7.47c0-.625.196-1.086.579-1.39q.563-.452 1.593-.453Zm0 0"/><path id="ar" d="M-2.937-3.844c1.03 0 1.96.172 2.78.516A8 8 0 0 1 2.11-1.922V-.75h-.046a6.3 6.3 0 0 0-.876-.797A7 7 0 0 0 .063-2.25a7.6 7.6 0 0 0-1.391-.5 6.5 6.5 0 0 0-1.61-.187q-.843 0-1.593.187a6.8 6.8 0 0 0-2.532 1.203q-.482.375-.859.797h-.062v-1.172q1.05-.902 2.28-1.406 1.238-.516 2.766-.516m0 0"/><path id="ax" d="M3.438 0h-.579v-1.953q0-.232-.03-.438a.7.7 0 0 0-.095-.328.5.5 0 0 0-.218-.203 1 1 0 0 0-.375-.062q-.236.001-.5.125a2.5 2.5 0 0 0-.5.297V0H.563v-4.781h.578v1.734c.187-.156.375-.273.562-.36q.294-.123.594-.124.562.002.844.344c.195.218.297.539.297.953Zm0 0"/><path id="ay" d="M3.422 0h-.578v-.375q-.3.222-.563.344c-.18.082-.375.125-.594.125q-.55 0-.843-.328c-.2-.22-.297-.54-.297-.97v-2.234h.578v1.954c0 .18.004.328.016.453q.028.188.109.312.075.143.203.203a1 1 0 0 0 .39.063q.234.001.5-.11.267-.124.5-.312v-2.562h.579Zm0 0"/><path id="az" d="M1.156 0H.578v-4.781h.578Zm0 0"/><path id="aB" d="M3.36 0h-.58v-.36a2 2 0 0 1-.531.344c-.18.07-.371.11-.578.11q-.627 0-.984-.469c-.243-.32-.36-.758-.36-1.312q-.001-.435.125-.782c.082-.226.195-.422.344-.578.133-.156.297-.273.484-.36q.281-.123.578-.124.264.002.47.062.217.048.452.172V-4.78h.578Zm-.58-.844v-1.969a2 2 0 0 0-.422-.14A1.7 1.7 0 0 0 1.953-3q-.485.002-.766.344c-.18.219-.265.539-.265.953q-.001.61.203.937.218.315.688.313.233.001.484-.11.263-.106.484-.28m0 0"/><path id="aC" d="M1.188-4.016H.53v-.593h.657ZM1.156 0H.578v-3.437h.578Zm0 0"/><path id="aD" d="M3.016-.984c0 .312-.133.57-.391.765-.25.2-.602.297-1.047.297Q1.186.078.86 0a2.6 2.6 0 0 1-.515-.203V-.86h.031q.265.204.594.328c.226.086.445.125.656.125.25 0 .445-.04.594-.125a.42.42 0 0 0 .219-.39q0-.202-.126-.298-.112-.105-.453-.187-.113-.03-.312-.063a2.4 2.4 0 0 1-.36-.078q-.454-.122-.64-.344A.9.9 0 0 1 .36-2.47q-.002-.217.079-.406a1 1 0 0 1 .265-.328 1.2 1.2 0 0 1 .438-.219 1.8 1.8 0 0 1 .593-.094q.31.001.625.079.31.08.532.171v.625H2.86a2.2 2.2 0 0 0-.546-.265 1.7 1.7 0 0 0-.61-.125 1.1 1.1 0 0 0-.547.125c-.148.086-.218.203-.218.36q0 .222.14.327.123.095.422.172c.102.024.219.047.344.078q.201.034.343.063.387.094.61.312.218.235.219.61m0 0"/><path id="aE" d="M2.36-.031C2.241 0 2.124.019 2 .03q-.19.031-.344.032-.532 0-.812-.282Q.576-.5.578-1.126v-1.828h-.39v-.485h.39v-.984h.578v.984H2.36v.485H1.156v1.562q-.001.284.016.438a.8.8 0 0 0 .078.281.5.5 0 0 0 .188.188q.123.045.375.046c.093 0 .187-.007.28-.03.102-.032.18-.055.235-.079h.031Zm0 0"/><clipPath id="e"><path d="M0 0h375v247.5H0Zm0 0"/></clipPath><clipPath id="f"><path d="M52.5 13.5H360V204H52.5Zm0 0"/></clipPath><clipPath id="c"><path d="M.5.5H308V191H.5Zm0 0"/></clipPath><clipPath id="d"><path d="M152 188h5v3h-5Zm0 0"/></clipPath><clipPath id="b"><path d="M0 0h308v191H0z"/></clipPath><clipPath id="i"><path d="M52.5 13.5H357V122H52.5Zm0 0"/></clipPath><clipPath id="j"><path d="M52.5 34H353v90H52.5Zm0 0"/></clipPath><clipPath id="k"><path d="M52.5 64H349v63H52.5Zm0 0"/></clipPath><clipPath id="l"><path d="M52.5 45H357v90H52.5Zm0 0"/></clipPath><clipPath id="m"><path d="M52.5 42H356v82H52.5Zm0 0"/></clipPath><filter id="a" width="100%" height="100%" x="0%" y="0%"><feColorMatrix color-interpolation-filters="sRGB" values="0 0 0 0 1 0 0 0 0 1 0 0 0 0 1 0 0 0 1 0"/></filter><mask id="g"><g filter="url(#a)"><path fill-opacity=".2" d="M-37.512-24.792h450.144v297.504H-37.512z"/></g></mask><g id="h" clip-path="url(#b)"><g clip-path="url(#c)"><path fill="red" d="M-614.5-761.5 154.25 191 923-761.5Zm0 0"/><path fill="none" stroke="#636EFA" stroke-miterlimit="2" stroke-width="1.5" d="M-614.5-761.5 154.25 191 923-761.5"/></g><g clip-path="url(#d)"><path fill="#636EFA" d="M156.5 191q-.001.447-.172.86-.17.414-.488.73-.316.317-.73.488a2.24 2.24 0 0 1-1.72 0 2.2 2.2 0 0 1-.73-.488 2.2 2.2 0 0 1-.488-.73 2.24 2.24 0 0 1 0-1.72q.17-.414.488-.73.316-.317.73-.488a2.24 2.24 0 0 1 1.72 0q.414.17.73.488.317.316.488.73.17.413.172.86m0 0"/></g></g></defs><g clip-path="url(#e)"><path fill="#FFF" d="M0 0h375v247.5H0Zm0 0"/></g><path fill="#FFF" d="M52.5 13.5H360V204H52.5Zm0 0"/><path fill="none" stroke="#D3D3D3" stroke-width=".75" d="M129.375 13.5V204m153.75-190.5V204M52.5 156.375H360M52.5 108.75H360M52.5 61.125H360"/><path fill="none" stroke="#EBF0F8" stroke-width="1.5" d="M206.25 13.5V204"/><g clip-path="url(#f)" mask="url(#g)"><use xlink:href="#h" transform="translate(52 13)"/></g><g clip-path="url(#i)"><path fill="#EF553B" d="m52.242 100.988 2.113-.77.516 1.407-2.113.773Zm3.7-1.449 1.234-1.879 1.254.82-1.235 1.883Zm2.468-3.762 1.68-2.554.758.828-1.11 1.011-.105-.117.554-.504.63.41-1.149 1.75Zm3.957-.066 1.516 1.66-1.106 1.012-1.52-1.66Zm3.012 2.477 2.191.503-.336 1.465-2.191-.508Zm2.558-.57.946-2.044 1.36.63-.946 2.042Zm1.891-4.087.945-2.039 1.36.63-.945 2.042Zm1.754-4.078.785-2.105 1.406.523-.785 2.106Zm1.57-4.215.79-2.11 1.402.524-.785 2.11Zm1.575-4.218.32-.86 2.406.074-.047 1.5-1.867-.058.023-.75.704.261-.133.36Zm5.199-.582 2.105.792-.531 1.407-2.105-.797Zm4.304 1.843 1.813 1.332-.89 1.211-1.813-1.336Zm2.836 2.196 1.961-1.106.739 1.305-1.961 1.105Zm3.672-2.192 1.582-1.605 1.067 1.054-1.578 1.602Zm3.16-3.207.446-.453 1.695-.805.645 1.352-1.579.75-.32-.676.535.524-.355.359Zm4.176-2.223.867-.414 1.301 2.371-1.312.72-.961-1.747.656-.363.32.68-.226.109Zm3.254 3.926 1.082 1.973-1.316.723-1.082-1.973Zm2.192 3.828 1.3 1.836-1.222.868-1.301-1.836Zm2.605 3.668.8 1.133-.612.434.355-.66.762.41-.711 1.32-.918-.496-.903-1.27Zm3.285 2.38 1.106.597-.356.66.137-.738.98.183-.277 1.473-1.094-.203-1.207-.649Zm4.078 1.116.871.165 1.305 1.265-1.047 1.074-1.14-1.105.523-.54-.137.74-.652-.126Zm3.79 2.997 1.093 1.058-.523.54.289-.692.672.281-.579 1.383-.804-.336-1.196-1.16Zm3.605 2.054 1.219.508.875.824-1.028 1.094-.777-.73.516-.547-.29.691-1.093-.457Zm3.734 2.875 1.492 1.406.204.301-1.239.844-.16-.234.621-.422-.515.547-1.434-1.348Zm2.965 3.563 1.266 1.86-1.239.847-1.27-1.86Zm2.41 3.488 1.809 1.34-.89 1.203-1.81-1.336Zm3.621 2.676.055.039-.445.605.359-.656 1.914 1.047-.723 1.316-1.957-1.074-.097-.07Zm3.082 2.094 1.887-1.223.816 1.258-1.886 1.226Zm3.774-2.45.199-.125 2.402-.156.098 1.496-2.211.145-.047-.75.41.629-.03.02Zm5.219.11 1.832 1.3-.872 1.223-1.832-1.305Zm3.3 2.238 2.25-.008.004 1.5-2.25.008Zm4.625.2 2.211.425-.285 1.473-2.21-.426Zm4.172.288 2.223-.344.23 1.485-2.222.344Zm4.653-.125 1.816.18.676.504-.899 1.203-.508-.379.45-.602-.075.747-1.609-.16Zm4.292 2.031 1.532 1.149-.45.598.051-.746.336.019-.101 1.5-.555-.039-1.711-1.277Zm3.711 1.172 1.563.102.875.93-1.094 1.027-.672-.715.547-.512-.05.746-1.266-.082Zm3.98 2.668 1.54 1.641-1.09 1.027-1.543-1.636Zm3.15 1.34 2.242-.16.109 1.496-2.246.16Zm4.488-.324 1.25-.09 1.246.512-.57 1.39-1.083-.445.286-.695.054.75-1.078.074Zm4.578 1.281.683.281-.285.692-.172-.73 1.473-.344.34 1.46-1.703.399-.907-.371Zm3.886-.613.18-.043.172.73-.61-.441 1.212-1.672 1.214.875-1.37 1.903-.454.105Zm2.274-3.25 1.316-1.824 1.215.879-1.316 1.824Zm3.992-2.543 1.719-.324.672.023-.059 1.5-.586-.023.028-.75.14.738-1.633.309Zm4.64-.211 1.008.04-.027.75-.129-.743 1.223-.207.254 1.476-1.297.223-1.09-.043Zm4.294-.543 2.214-.379.254 1.477-2.214.383Zm4.425-.762 2.215-.398.266 1.476-2.215.399Zm4.47-.765 2.23-.301.199 1.488-2.23.301Zm4.277-.809 2.144-.683.457 1.43-2.144.683Zm4.707-.5 2 .344-.13.742-.1-.746.214-.027.207 1.484-.332.047-2.117-.367Zm4.214.004 1.41-.2.86-.073.133 1.492-.84.078-.066-.75.101.742-1.39.195Zm4.508-.477.77-.066.066.746-.387-.644 1.27-.762.773 1.289-1.418.848-.937.086Zm3.649-1.882.64-.383.387.644-.406-.632 1.261-.817.813 1.262-1.27.82-.652.395Zm3.77-2.41.804-.52 1.508-.36.347 1.462-1.382.328-.172-.73.406.628-.695.453Zm4.5-1.399.269-.066.175.73-.554-.508 1.332-1.453 1.105 1.008-1.484 1.629-.496.117Zm2.737-2.96 1.032-1.134.62-.523.973 1.14-.585.497-.485-.57.555.503-1.004 1.098Zm3.364-3.118 1.625-1.383.293-.133.629 1.36-.203.093-.313-.68.484.571-1.543 1.316Zm3.965-2.457 1.601-.738.313.683-.543-.52.332-.35 1.09 1.034-.434.457-1.734.797Zm3.254-2.559 1.55-1.629 1.086 1.032-1.547 1.632Zm3.226-3.21 1.672-1.508 1.004 1.113-1.668 1.508Zm3.918-2.743 2.203-.465.309 1.465-2.203.465Zm3.406-1.558 1.387-1.77 1.184.922-1.387 1.773Zm2.778-3.543.117-.153.59.465-.637-.398 1.094-1.746 1.273.8-1.117 1.774-.14.183Zm2.363-3.735L274.449 76l1.27.797-1.196 1.906Zm2.77-3.726 1.59-1.594 1.062 1.059-1.59 1.593Zm3.527-3.153 2.05-.93.618 1.368-2.051.926Zm3.601-1.98 1.47-1.707 1.136.976-1.469 1.707Zm2.934-3.414.402-.469 1.645-.937.742 1.304-1.531.871-.371-.648.57.488-.32.367Zm4-2.52.355-.203.372.653-.668-.336.828-1.645 1.34.676-.934 1.844-.55.316Zm1.898-3.543L293 57.562l1.34.676-1.016 2.008Zm2.028-4.015 1.015-2.012 1.336.676-1.011 2.011Zm2.027-4.02 1.012-2.008 1.34.676-1.012 2.008Zm3.176-3.781 2.156.648-.43 1.438-2.156-.649Zm3.601.559 1.922-1.168.782 1.28-1.922 1.169Zm3.606-2.41 1.652-1.524 1.016 1.101-1.652 1.524Zm3.469-3.098 1.937-1.145.762 1.29-1.938 1.144Zm4.039-2.297 2.129-.727.484 1.418-2.129.727Zm3.57-1.54 1.227-1.886 1.257.816-1.226 1.887Zm2.45-3.773 1.359-2.093 1 .535-.707 1.32-.391-.207.351-.664.63.41-.985 1.516Zm4.343-.5 1.469.785-.352.66-.117-.738.574-.09.235 1.481-.825.129-1.691-.902Zm3.8.27 1.04-.164.117.742-.652-.371.586-1.04 1.308.74-.77 1.355-1.398.218Zm2.2-2.79 1.105-1.96 1.305.738-1.105 1.957Zm2.418-4.097 1.73-1.441.961 1.152-1.73 1.441Zm3.457-2.883.352-.293 1.738-.898.687 1.332-1.664.86-.344-.665.481.574-.29.243Zm4.09-2.222.183-.098.344.668-.476-.578 1.578-1.3.953 1.16-1.64 1.347-.255.133Zm3.367-2.735.648-.535 1.68-.445.383 1.449-1.52.402-.191-.722.477.578-.524.43Zm4.5-1.558.156-.04.192.723-.328-.672 1.882-.914.653 1.352-1.946.941-.222.059Zm3.7-1.75 1.566-1.617 1.078 1.046-1.567 1.614Zm3.132-3.23.664-.684 1.078 1.043-.664.683Zm0 0"/></g><g clip-path="url(#j)"><path fill="#00CC96" d="m52.922 88.871 3.848 2.625-.422.617-.114-.738 2.07-.316.223 1.484-2.359.36-4.09-2.794Zm10.824 6.192.89 1.203-.6.445-.462-.59 3.844-2.973.457.594-.668-.344.184-.355 1.332.691-.258.5-4.574 3.54-1.352-1.817Zm6.75-8.012.559-1.086 1.324-.02 2.687 4.832-1.312.73-2.688-4.831.657-.367.664.347-.559 1.082Zm6.121 1.855 2.457-5.652 1.977 1.27-.809 1.261-1.238-.793.406-.633.688.301-2.106 4.844Zm10.352-2.363.222.027-.093.746-.426-.617 4.23-2.918 2.024 1.176-.758 1.297-1.61-.938.38-.648.425.617-4.074 2.809-.508-.063Zm10.484 3.644 1.844 3.329 1.246 2.73-1.363.625-1.239-2.703.684-.313-.656.364-1.828-3.305Zm5.785 11.653 3.508 1.906 2.188 1.95-.996 1.117-2.126-1.891.5-.559-.359.66-3.43-1.867Zm11.285 6.336 3.47.351 3.265.953-.418 1.438-3.203-.93.21-.722-.074.75-3.402-.348Zm12.704-.414 1.914-.633.234.715-.488-.57 3.593-3.087.977 1.141-3.707 3.18-2.05.68Zm12.457-3.094 1.414.191 4.043 1.559 1.078.93-.98 1.136-.977-.847.488-.567-.27.7-3.84-1.477.27-.7-.101.743-1.329-.184Zm11.921 6.258 1.188.539 3.894 2.472-.402.633.028-.75.937.032-.05 1.5-1.145-.04-4.02-2.554.403-.633-.31.684-1.14-.516Zm11.88 5.797.988.89-.5.559.336-.672 3.84 1.934-.337.671.02-.75 1.117.028-.035 1.5-1.289-.031-4.078-2.059-1.067-.957Zm12.05 4.785.332.183-.367.657-.34-.668 4.074-2.059 2.278.422-.274 1.477-2.027-.38.137-.734.336.668-4.204 2.121-.675-.379Zm12.617-.48 2.825.382-.102.742-.504-.554 2.883-2.625 1.012 1.109-3.145 2.86-3.172-.426Zm12.036-2.997 2.242.055-.02.75-.215-.715 4.016-1.21.668.128-.281 1.473-.489-.094.141-.734.215.718-3.953 1.188-2.364-.059Zm13.03-.984.575-.113.144.734-.199-.723 5.95-1.625.394 1.446-5.973 1.632-.601.118Zm13.067-2.902 6.453-1.977.438 1.434-6.453 1.976Zm12.375-4.54 1.766-1.203 3.816-2.597.844 1.242-3.816 2.594-1.766 1.203Zm11.469-7.328 2.02-.886 3.93-.766.144.738-.442-.61.57-.413.883 1.215-.707.511-4.007.782-.145-.735.3.688-1.945.851Zm11.816-5.793 5.696-3.625.804 1.266-5.695 3.625Zm11.899-6.652 1.394-.383.2.723-.22-.719 3.848-1.168.22.719-.56-.504.86-.953 1.113 1.004-.996 1.11-4.058 1.234-1.403.386Zm10.66-7.074 5.383-4.07.906 1.199-5.383 4.07Zm9.433-9.188.266-.347 4.059-1.364.238.711-.41-.629 2.086-1.363.82 1.258-2.168 1.414-3.93 1.32-.238-.71.598.453-.125.164Zm11.118-7.363 4.613-4.73.621-.106.258 1.477-.383.066-.129-.738.535.523-4.441 4.555Zm10.718-7.43 1.735-1.566 4.222.965-.168.73-.058-.75.86-.066.116 1.496-.972.074-3.953-.902.168-.73.504.554-1.446 1.309Zm11.88-3.273 1.23-1.145 4.035-.996.18.727-.508-.555.96-.879 1.016 1.11-1.105 1.007-4.031.997-.18-.727.512.55-1.09 1.009Zm11.007-7.313 5.211-4.293.953 1.16-5.21 4.29Zm9.988-7.847 2.606-6.227 1.383.578-2.606 6.227Zm0 0"/></g><g clip-path="url(#k)"><path fill="#AB63FA" d="m52.754 95.934 3.848 1.386-.254.703-.696-.28 2.696-6.634 1.386.563-2.964 7.305-4.524-1.633Zm12.129-10.102 2.418-6 4.148-1.617.274.7-.438-.61.793-.57.875 1.218-.871.625-3.934 1.535-.273-.699.695.281-2.297 5.696ZM82.8 78.297l.957.633 6.523 8.015-1.164.946-6.449-7.926.582-.473-.414.625-.86-.566Zm15.332 11.262 1.094 1.48-.602.445-.52-.539 4.47-4.297 2.894 3.997-1.211.878-2.39-3.296.605-.438.52.54-4.462 4.288-1.605-2.168Zm16.86 5.187 3.12 1.176-.265.7-.121-.74 4.265-.69 2.84 3.433-1.156.953-2.567-3.101.579-.477.12.742-4.038.653-3.305-1.247Zm18.234 10.817.574.699-.578.476-.18-.726 4.105-1.02 5.973 2.957-.664 1.344-5.727-2.832.333-.672.18.727-4.298 1.066-.879-1.062Zm20.148 6.949 3.309 1.66 6.136 4.621-.902 1.2-6.086-4.583.453-.601-.336.671-3.246-1.625Zm19.79 9.465 2.546.753 3.887 1.067 3.886 1.687-.297.688.032-.75.418.02-.063 1.5-.558-.028-3.965-1.719.297-.687-.2.722-3.859-1.062-2.547-.75Zm19.417-.938 1.867-1.996 8.086 1.379-.125.742-.05-.75 1.12-.078.102 1.5-1.21.082-7.774-1.328.125-.738.547.511-1.59 1.7Zm21.914-2.3 3.188-.684 3.968-.246 3.926.546-.105.747-.29-.692.286-.12.582 1.382-.477.2-4.054-.571.105-.742.047.75-3.84.238-.047-.746.156.734-3.132.668Zm21.348-4.81.867-.367 3.883-1.566 3.87-1.203.224.719-.348-.668 1.898-.989.692 1.332-1.957 1.02-3.903 1.211-.222-.715.28.695-3.839 1.547-.867.368Zm20.937-7.84 2.926-1.57 6.984-3.75.711 1.32-6.984 3.75-2.926 1.575Zm20.2-9.718 9.996-5.16.687 1.332-9.996 5.16Zm20.148-10.129 1.082-.453.289.695-.402-.636 3.847-2.438.403.637-.52-.543 3.918-3.79.262-.132.687 1.332-.164.086-.344-.668.52.54-3.894 3.765-3.965 2.511-1.141.477Zm18.355-12.633 2.125-1.046 4.082.707-.128.742-.301-.688 3.894-1.719 1.04-.285.398 1.446-.985.273-.199-.723.3.684-4.054 1.79-4.062-.708.129-.738.332.672-1.907.941Zm21.754-4.683 3.403-.668.144.734-.336-.668 3.86-1.945 3.214-1.395.598 1.38-3.2 1.382-.296-.687.336.668-3.93 1.98-3.504.688Zm0 0"/></g><g clip-path="url(#l)"><path fill="#FFA15A" d="m51.898 112.48 3.848-5.175.602.449-.73-.164.062-.297 1.465.328-.102.45-3.941 5.304Zm4.274-7.382.492-2.196 1.465.328-.492 2.196Zm.984-4.391 1.477-6.586 1.465.328-1.477 6.586Zm1.969-8.781.586-2.598 1.523 1.14-.898 1.204-.598-.45.45-.6.73.163-.328 1.469Zm3.91-.11 1.45 1.086-.45.602-.617-.426 2.8-4.07 1.239.851-3.246 4.711-2.074-1.55Zm5.61-4.27 1.863 1.263-.844 1.242-1.86-1.262Zm3.043 2.196 4.054-1.695 2.36 2.406-1.07 1.05-2.005-2.042.535-.527.29.695-3.586 1.496Zm7.988 2.317 1.578 1.605-1.07 1.05-1.579-1.605Zm3.152 3.214.957.973-.535.527.414-.625 4.016 2.668.43.864-1.344.668-.34-.684.672-.336-.414.625-3.914-2.598-1.012-1.035Zm6.285 6.418 1.004 2.016-1.344.668-1.003-2.012Zm2.004 4.032.492.984-.671.332-.614-.434L93.598 102l1.222.867-3.996 5.63-1.047-2.106Zm5.078-3.707 1.555 1.625-1.082 1.035-1.555-1.625Zm2.735 2.906 3.644.496-.101.746-.02-.75 3.07-.074.036 1.5-3.13.074-3.702-.508Zm9.011.84 2.16.625-.413 1.441-2.16-.625Zm3.739-.047 2.53-1.082 3.317 3.875-1.14.976-2.957-3.457.57-.488.297.691-2.027.864Zm6.574 3.246 1.973-1.086.722 1.313-1.972 1.085Zm4.21-2.008 2.97-.758 3.855-.082.035 1.496-3.773.082-.016-.75.184.727-2.883.738Zm9.212-.266 1.836.477.484.285-.762 1.293-.39-.23.379-.649-.192.727-1.734-.453Zm4.262 1.899 1.503.883-.379.644-.144-.734 4.332-.863.887 1.308-1.239.844-.609-.895.621-.421.145.734-4.125.82-1.754-1.027Zm7.464 3.098 1.266 1.859-1.238.844-1.266-1.86ZM146 114.96l3.031 2.14-.433.61.254-.703 2.863 1.027-.508 1.414-2.957-1.066-3.113-2.195Zm7.813 4.508 1.535 1.648-1.098 1.02-1.535-1.645Zm2.921 3.152 3.786 2.328-.395.637.3-.688 2.114.926-.598 1.375-2.164-.945-3.828-2.356Zm7.73 3.977 2.212.41-.274 1.472-2.21-.41Zm4.563 1.398 3.106 2.512-.473.586.117-.742 2.723.425-.234 1.485-2.922-.461-3.262-2.637Zm7.696 3.133 2.222.348-.234 1.484-2.223-.352Zm4.5 1.02 2.207.753-.243.711.012-.75 3.848.059-.012.75-.203-.723.547-.152.406 1.445-.652.184-4.074-.067-2.325-.793Zm8.324.042 1.125-.312.203.723-.434-.614.883-.625.867 1.227-.988.7-1.254.347Zm3.617-2.125 1.238-.87 3.97-1.048.19.723-.234-.71 1.328-.442.473 1.426-1.352.449-3.863 1.015-.191-.722.433.61-1.129.796Zm8.629-3.05 2.137-.707.468 1.421-2.132.707Zm4.184-1.387 3.812-1.82 2.36-.993.581 1.383-2.343.985-.29-.692.325.676-3.8 1.816Zm8.074-3.719 1.883-1.23.82 1.257-1.883 1.231Zm3.855-2.453 5.98-3.129.696 1.332-5.98 3.125Zm7.797-4.223 1.793-1.355.906 1.195-1.797 1.356Zm3.645-2.714 3.437-2.286 2.445-1.191.66 1.348-2.402 1.171-.328-.675.414.625-3.394 2.258Zm7.812-4.485 1.918-1.176.785 1.278-1.918 1.175Zm3.836-2.355 3.441-2.11 3.024-.347.172 1.488-2.86.328-.085-.742.39.637-3.297 2.027Zm8.172-3.145 1.879-1.238.828 1.25-1.879 1.238Zm4.207-2.164 2.71-.504.138.738-.23-.714 3.8-1.223.457 1.426-3.844 1.238-2.761.512Zm8.344-2.644 1.863-.91.328.675-.379-.648.153-.09.757 1.297-.175.105-1.891.918Zm3.91-2.106 1.844-1.078 3.964-.867.16.734-.35-.664.698-.371.703 1.328-.789.418-3.949.863-.16-.734.379.648-1.746 1.02Zm8.305-3.297 1.152-.61.351.665-.468-.586.738-.594.938 1.172-.793.637-1.215.64Zm3.53-2.531 1.462-1.172 3.976-1.242.223.715-.387-.64.852-.513.773 1.286-.93.558-3.925 1.227-.223-.715.469.582-1.352 1.086Zm8.052-4.016 1.168-.703 1.09-.258.347 1.457-.976.235-.172-.73.386.644-1.07.64Zm4.445-1.484.676-.16.175.73-.355-.66 3.848-2.07.355.66-.39-.64 1.44-.88.778 1.282-1.457.89-3.949 2.125-.773.184Zm7.668-4.188.48-.293.391.641-.477-.582 1.309-1.07.95 1.164-1.348 1.101-.524.32Zm3.445-2.73.828-.68 4.82-3.148.821 1.254-4.785 3.129-.41-.63.476.583-.8.656Zm7.531-5.059 1.094-.714 1.055-.38.508 1.41-.973.352-.254-.707.41.63-1.02.663Zm4.266-1.855.75-.27.254.707-.496-.562 3.89-3.43.747-.472.804 1.265-.695.442-.402-.633.496.562-3.957 3.485-.883.32Zm7.043-5.234 1.246-.79.402.633-.601-.445.46-.625 1.204.89-.543.739-1.363.863Zm2.844-3.036 2.222-3.007 3.524-.696.293 1.473-3.242.64-.145-.738.602.45-2.047 2.769Zm7.824-4.296 2.145-.688.457 1.43-2.145.687Zm4.078-1.606 1.95-.945.327.672-.378-.645 3.847-2.25.38.645-.579-.477.082-.098 1.152.957-.164.2-3.988 2.332-1.976.957Zm7.063-4.828 1.437-1.734 1.152.957-1.433 1.734Zm3.464-3.32 6.368-2.23.496 1.413-6.371 2.235Zm8.989-1.856 2.129.73-.489 1.419-2.128-.73Zm0 0"/></g><g clip-path="url(#m)"><path fill="#19D3F3" d="m52.523 61.688 4.18.128 4.055 4.778-.57.484.539-.52 1.02 1.06-1.083 1.038-1.035-1.074-3.852-4.539.57-.484-.023.75-3.847-.121Zm11.133 8.628 1.285-1.847 1.23.86-1.284 1.847Zm5.074-4.925 3.594 3.902 3.196 5.184-1.278.789-3.156-5.121.637-.395-.551.508-3.547-3.848Zm9.387 12.66 1.375 1.777-1.187.918-1.375-1.777Zm3.82 5.652 1.958 3.258-.645.383-.664-.352 3.488-6.586 1.328.703-3.488 6.586-1.309.035-1.953-3.253Zm8.543-1.883.926.739-.469.586-.511-.551.781-.723 1.023 1.098-1.257 1.164-1.43-1.14Zm5.118-2.175 3.457 10.707-1.426.46-3.461-10.703Zm5.218 8.898 1.7-1.488.988 1.015-1.078 1.047-.492-.508.539-.523.496.566-1.16 1.016Zm5.825 2.758.21.215-.538.523.265-.7 3.848 1.446-.266.703.106-.742 3.84.555-.106.742.004-.75 2.957.023-.012 1.5-3.008-.023-3.968-.574-4.082-1.535-.329-.34Zm13.972.336 1.239-.703 1.347 1.554-1.136.98-.942-1.09.567-.487.37.652-.703.398Zm5.528 4.258 7.359 8.507-1.137.985-7.355-8.512Zm10.3 11.914 1.188 1.375-.566.488-.036-.75.434-.02.07 1.5-.797.035-1.425-1.648Zm5.786 1.675 3.043 2.086 3.917 4.957-.59.465.231-.715 1.399.45-.457 1.43-1.618-.52-3.992-5.047.59-.465-.426.617-2.945-2.02Zm12.277 8.957 2 1.032-.684 1.332-2-1.028Zm6.137 2.547 3.59 1.309-.258.703-.04-.75 3.84-.195.04.75-.254-.707 3.375-1.211.507 1.414-3.48 1.246-4.102.21-3.73-1.359Zm14.53-1.62.231-.083 2.325.2-.13 1.492-2.16-.184.063-.746.254.703-.078.027Zm7.083.964 1.117.281-.184.73-.222-.718 4.031-1.254 4.027.817-.148.734-.633-.399 1.14-1.82 1.27.8-1.418 2.259-4.347-.883.148-.738.223.718-4.047 1.262-1.324-.332Zm11.527-5.437.508-.801 2.047-.164.117 1.496-1.672.133-.058-.75.632.402-.304.484Zm7.04-1.32 1.53-.122.06.75-.255-.707 3.84-1.387.254.707-.285-.695 5.21-2.133.571 1.387-5.226 2.14-3.95 1.426-1.632.13Zm14.519-5.294 2.082-.851.57 1.386-2.082.852Zm5.32-3.625.637-.543 4.05-.683.126.738-.418-.621 3.84-2.59 1.722-1.172.844 1.238-1.73 1.18-3.973 2.676-4.008.68-.125-.739.484.57-.476.407Zm13.676-7.406 1.86-1.266.843 1.239-1.86 1.27Zm6.457-1.93 3.668-1.168.226.715-.453-.597 3.883-2.93 2.274-1.324.754 1.296-2.23 1.301-.38-.648.453.597-3.953 2.981-3.785 1.207Zm13.781-7.234 1.38-.527.269.703-.348-.668.684-.356.695 1.328-.723.38-1.422.542Zm6.176-2.816 2.945-.88.215.72-.265-.704 3.84-1.445.265.703-.566-.492 2.668-3.078 1.132.984-2.793 3.219-4.043 1.523-2.968.887Zm12.7-8.149 1.722-1.125.527-.07.196 1.488-.36.047-.098-.742.41.625-1.577 1.035Zm6.495-1.953 6.766-2.508.262.703-.461-.59 3.175-2.488.926 1.184-3.27 2.558-6.874 2.551Zm12.993-7.879 1.367-1.305.8-.144.262 1.476-.574.106-.133-.738.52.543-1.203 1.148Zm6.382-2.43 2.801-1.129 3.899-.89 3.835-.95.18.727-.387-.644.332-.196.77 1.285-.426.258-3.969.98-3.84.88-.167-.73.28.695-2.745 1.105Zm14.813-5.351 2.21-.434.29 1.473-2.211.433Zm6.625-1.301.906-.176 4.07 1.961-.324.676-.207-.723 3.84-1.093.207.722-.562-.496 1.53-1.738 1.126.992-1.676 1.902-4.328 1.235-4.102-1.977.325-.676.144.735-.66.129Zm12.703-4.191 1.816-1.328.883 1.21-1.816 1.329Zm5.45-3.98 1.484-1.083L344.289 47l.336.672-.492-.567 4.133-3.617.441.098-.332 1.465-.066-.016.164-.734.492.566-3.918 3.43-3.926 1.973-.336-.672.442.605-1.43 1.043Zm13.437-5.845 1.777-1.382.922 1.183-1.774 1.383Zm0 0"/></g><path fill="none" stroke="#000" stroke-width=".75" d="M51.75 204.375h309m-309-191.25h309M52.125 13.5V204m308.25-190.5V204"/><path fill="none" stroke="#444" stroke-width=".75" d="M52.5 204.75v3.75m76.875-3.75v3.75m76.875-3.75v3.75m76.875-3.75v3.75M360 204.75v3.75"/><g fill="#2A3F5F"><use xlink:href="#n" x="41.459" y="219.3"/><use xlink:href="#o" x="48.824" y="219.3"/><use xlink:href="#p" x="54.546" y="219.3"/><use xlink:href="#q" x="57.82" y="219.3"/></g><g fill="#2A3F5F"><use xlink:href="#n" x="118.334" y="219.3"/><use xlink:href="#o" x="125.699" y="219.3"/><use xlink:href="#p" x="131.421" y="219.3"/><use xlink:href="#r" x="134.695" y="219.3"/></g><use xlink:href="#o" x="203.389" y="219.3" fill="#2A3F5F"/><g fill="#2A3F5F"><use xlink:href="#o" x="275.766" y="219.3"/><use xlink:href="#p" x="281.488" y="219.3"/><use xlink:href="#r" x="284.762" y="219.3"/></g><g fill="#2A3F5F"><use xlink:href="#o" x="352.641" y="219.3"/><use xlink:href="#p" x="358.363" y="219.3"/><use xlink:href="#q" x="361.637" y="219.3"/></g><path fill="none" stroke="#444" stroke-width=".75" d="M51.75 204H48m3.75-47.625H48m3.75-47.625H48m3.75-47.625H48M51.75 13.5H48"/><use xlink:href="#o" x="40.478" y="207.15" fill="#2A3F5F"/><g fill="#2A3F5F"><use xlink:href="#o" x="25.761" y="159.525"/><use xlink:href="#p" x="31.483" y="159.525"/><use xlink:href="#o" x="34.757" y="159.525"/><use xlink:href="#s" x="40.478" y="159.525"/></g><g fill="#2A3F5F"><use xlink:href="#o" x="31.483" y="111.9"/><use xlink:href="#p" x="37.204" y="111.9"/><use xlink:href="#r" x="40.478" y="111.9"/></g><g fill="#2A3F5F"><use xlink:href="#o" x="25.761" y="64.275"/><use xlink:href="#p" x="31.483" y="64.275"/><use xlink:href="#r" x="34.757" y="64.275"/><use xlink:href="#s" x="40.478" y="64.275"/></g><g fill="#2A3F5F"><use xlink:href="#o" x="31.483" y="16.65"/><use xlink:href="#p" x="37.204" y="16.65"/><use xlink:href="#q" x="40.478" y="16.65"/></g><path fill="none" stroke="#2A3F5F" stroke-width="1.5" d="M321.563 188.762h30.75v5.715h-30.75Zm0 0"/><g fill="#2A3F5F"><use xlink:href="#t" x="60.15" y="120.84"/><use xlink:href="#u" x="67.748" y="120.84"/><use xlink:href="#t" x="76.264" y="120.84"/><use xlink:href="#v" x="83.862" y="120.84"/><use xlink:href="#v" x="92.752" y="120.84"/></g><g fill="#2A3F5F"><use xlink:href="#w" x="88.65" y="135.225"/><use xlink:href="#x" x="94.82" y="135.225"/><use xlink:href="#y" x="100.225" y="135.225"/><use xlink:href="#z" x="103.772" y="135.225"/><use xlink:href="#A" x="108.461" y="135.225"/><use xlink:href="#B" x="114.156" y="135.225"/><use xlink:href="#s" x="117.32" y="135.225"/></g><path fill="#EF553B" d="M62.398 130.965h2.25v1.5h-2.25m4.5-1.5h2.25v1.5h-2.25m4.5-1.5h2.25v1.5h-2.25m4.5-1.5h2.25v1.5h-2.25m4.5-1.5h2.25v1.5h-2.25"/><g fill="#2A3F5F"><use xlink:href="#w" x="88.65" y="149.475"/><use xlink:href="#x" x="94.82" y="149.475"/><use xlink:href="#y" x="100.225" y="149.475"/><use xlink:href="#z" x="103.772" y="149.475"/><use xlink:href="#A" x="108.461" y="149.475"/><use xlink:href="#B" x="114.156" y="149.475"/><use xlink:href="#C" x="117.32" y="149.475"/></g><path fill="#00CC96" d="M62.398 145.215h6.75v1.5h-6.75m13.5-1.5h6.75v1.5h-6.75"/><g fill="#2A3F5F"><use xlink:href="#w" x="88.65" y="163.725"/><use xlink:href="#x" x="94.82" y="163.725"/><use xlink:href="#y" x="100.225" y="163.725"/><use xlink:href="#z" x="103.772" y="163.725"/><use xlink:href="#A" x="108.461" y="163.725"/><use xlink:href="#B" x="114.156" y="163.725"/><use xlink:href="#D" x="117.32" y="163.725"/></g><path fill="#AB63FA" d="M62.398 159.465h11.25v1.5h-11.25"/><g fill="#2A3F5F"><use xlink:href="#w" x="88.65" y="177.975"/><use xlink:href="#x" x="94.82" y="177.975"/><use xlink:href="#y" x="100.225" y="177.975"/><use xlink:href="#z" x="103.772" y="177.975"/><use xlink:href="#A" x="108.461" y="177.975"/><use xlink:href="#B" x="114.156" y="177.975"/><use xlink:href="#q" x="117.32" y="177.975"/></g><path fill="#FFA15A" d="M62.398 173.715h6.75v1.5h-6.75m9-1.5h2.25v1.5h-2.25m4.5-1.5h6.75v1.5h-6.75"/><g fill="#2A3F5F"><use xlink:href="#w" x="88.65" y="192.225"/><use xlink:href="#x" x="94.82" y="192.225"/><use xlink:href="#y" x="100.225" y="192.225"/><use xlink:href="#z" x="103.772" y="192.225"/><use xlink:href="#A" x="108.461" y="192.225"/><use xlink:href="#B" x="114.156" y="192.225"/><use xlink:href="#r" x="117.32" y="192.225"/></g><path fill="#19D3F3" d="M62.398 187.965h11.25v1.5h-11.25m15.75-1.5h2.25v1.5h-2.25"/><g fill="#2A3F5F"><use xlink:href="#E" x="148.045" y="239.405"/><use xlink:href="#F" x="154.684" y="239.405"/></g><g fill="#2A3F5F"><use xlink:href="#G" x="154.684" y="241.61"/><use xlink:href="#H" x="159.098" y="241.61"/></g><use xlink:href="#I" x="163.678" y="241.61" fill="#2A3F5F"/><use xlink:href="#J" x="168.139" y="241.61" fill="#2A3F5F"/><g fill="#2A3F5F"><use xlink:href="#K" x="172.488" y="241.61"/><use xlink:href="#L" x="176.867" y="241.61"/><use xlink:href="#M" x="179.451" y="241.61"/></g><g fill="#2A3F5F"><use xlink:href="#N" x="185.645" y="241.61"/><use xlink:href="#L" x="190.078" y="241.61"/><use xlink:href="#O" x="192.662" y="241.61"/></g><use xlink:href="#P" x="197.313" y="241.61" fill="#2A3F5F"/><use xlink:href="#Q" x="201.964" y="241.61" fill="#2A3F5F"/><use xlink:href="#Q" x="203.981" y="241.61" fill="#2A3F5F"/><use xlink:href="#F" x="205.998" y="239.405" fill="#2A3F5F"/><g fill="#2A3F5F"><use xlink:href="#F" x="205.998" y="239.405"/><use xlink:href="#R" x="209.689" y="239.405"/><use xlink:href="#S" x="214.457" y="239.405"/><use xlink:href="#T" x="220.712" y="239.405"/><use xlink:href="#U" x="227.89" y="239.405"/><use xlink:href="#V" x="232.658" y="239.405"/><use xlink:href="#W" x="238.964" y="239.405"/><use xlink:href="#X" x="243.101" y="239.405"/><use xlink:href="#Y" x="249.474" y="239.405"/><use xlink:href="#Z" x="259.687" y="239.405"/></g><g fill="#2A3F5F"><use xlink:href="#aa" x="10.5" y="168.91"/><use xlink:href="#ab" x="10.5" y="161.609"/><use xlink:href="#ac" x="10.5" y="155.236"/><use xlink:href="#ac" x="10.5" y="152.355"/><use xlink:href="#ad" x="10.5" y="149.473"/><use xlink:href="#ae" x="10.5" y="146.592"/><use xlink:href="#af" x="10.5" y="139.948"/><use xlink:href="#ag" x="10.5" y="133.406"/><use xlink:href="#ah" x="10.5" y="129.714"/><use xlink:href="#ai" x="10.5" y="120.865"/><use xlink:href="#aj" x="10.5" y="113.687"/><use xlink:href="#ag" x="10.5" y="107.048"/><use xlink:href="#ak" x="10.5" y="103.356"/><use xlink:href="#al" x="10.5" y="98.588"/><use xlink:href="#am" x="10.5" y="92.333"/><use xlink:href="#an" x="10.5" y="85.156"/><use xlink:href="#ao" x="10.5" y="80.388"/><use xlink:href="#ap" x="10.5" y="74.082"/><use xlink:href="#ab" x="10.5" y="69.944"/><use xlink:href="#aq" x="10.5" y="63.571"/><use xlink:href="#ar" x="10.5" y="53.358"/></g><g fill="#2A3F5F"><use xlink:href="#as" x="170.263" y="81"/><use xlink:href="#at" x="177.848" y="81"/><use xlink:href="#au" x="184" y="81"/><use xlink:href="#B" x="189.691" y="81"/><use xlink:href="#av" x="192.855" y="81"/><use xlink:href="#B" x="200.22" y="81"/><use xlink:href="#aw" x="203.384" y="81"/><use xlink:href="#au" x="207.471" y="81"/><use xlink:href="#B" x="213.162" y="81"/></g><use xlink:href="#ax" x="213.162" y="82.89" fill="#2A3F5F"/><use xlink:href="#ay" x="217.144" y="82.89" fill="#2A3F5F"/><use xlink:href="#az" x="221.126" y="82.89" fill="#2A3F5F"/><use xlink:href="#az" x="222.853" y="82.89" fill="#2A3F5F"/><use xlink:href="#aA" x="224.58" y="82.89" fill="#2A3F5F"/><use xlink:href="#aB" x="226.792" y="82.89" fill="#2A3F5F"/><use xlink:href="#aC" x="230.712" y="82.89" fill="#2A3F5F"/><use xlink:href="#aD" x="232.439" y="82.89" fill="#2A3F5F"/><use xlink:href="#aE" x="235.718" y="82.89" fill="#2A3F5F"/><use xlink:href="#aw" x="238.197" y="81" fill="#2A3F5F"/><g fill="#2A3F5F"><use xlink:href="#aF" x="210.003" y="195"/><use xlink:href="#aG" x="213.844" y="195"/><use xlink:href="#aH" x="219.306" y="195"/><use xlink:href="#aH" x="221.776" y="195"/><use xlink:href="#aI" x="224.246" y="195"/><use xlink:href="#aJ" x="226.715" y="195"/><use xlink:href="#aK" x="232.411" y="195"/><use xlink:href="#B" x="238.018" y="195"/><use xlink:href="#aL" x="241.182" y="195"/><use xlink:href="#aI" x="248.547" y="195"/><use xlink:href="#aJ" x="251.017" y="195"/><use xlink:href="#aM" x="256.712" y="195"/><use xlink:href="#aG" x="262.32" y="195"/><use xlink:href="#aL" x="267.782" y="195"/><use xlink:href="#aN" x="275.147" y="195"/><use xlink:href="#C" x="282.513" y="195"/><use xlink:href="#o" x="288.234" y="195"/><use xlink:href="#B" x="293.956" y="195"/><use xlink:href="#aO" x="297.12" y="195"/><use xlink:href="#aP" x="305.874" y="195"/><use xlink:href="#aQ" x="311.235" y="195"/></g></svg>