<svg xmlns="http://www.w3.org/2000/svg" xmlns:xlink="http://www.w3.org/1999/xlink" width="375.12" height="247.92"><defs><path id="n" d="M6.406-2.516H.97v-.703h5.437Zm0 0"/><path id="o" d="M5.125-3.281q-.001 1.769-.547 2.594C4.211-.133 3.641.14 2.86.14Q1.687.142 1.141-.687.608-1.531.609-3.266q-.002-1.746.547-2.578.545-.827 1.703-.828 1.186 0 1.72.844c.362.562.546 1.414.546 2.547m-1.156 2c.101-.239.172-.516.203-.828q.06-.48.062-1.172a10 10 0 0 0-.062-1.14 2.7 2.7 0 0 0-.203-.845 1.2 1.2 0 0 0-.422-.515c-.18-.114-.406-.172-.688-.172a1.3 1.3 0 0 0-.687.172q-.27.176-.422.515a3 3 0 0 0-.203.86 13 13 0 0 0-.047 1.14q0 .69.047 1.157.046.455.203.812.14.344.406.531c.176.118.41.172.703.172.282 0 .508-.054.688-.172q.28-.17.422-.515m0 0"/><path id="p" d="M2.156 0H1.11v-1.25h1.047Zm0 0"/><path id="q" d="M5.14 0H.704v-.922c.313-.258.617-.52.922-.781q.467-.404.875-.797c.563-.54.945-.973 1.156-1.297q.312-.48.313-1.031-.002-.516-.344-.797c-.219-.195-.531-.297-.937-.297q-.392 0-.86.14a3.3 3.3 0 0 0-.906.438H.875v-.922a4.3 4.3 0 0 1 .828-.28q.514-.142 1.016-.141.998 0 1.562.5.576.486.578 1.312 0 .375-.093.703-.095.316-.282.61-.174.269-.406.53-.22.27-.547.579a27 27 0 0 1-.984.906c-.336.281-.64.547-.922.797h3.516Zm0 0"/><path id="r" d="M4.766 0H1.219v-.672h1.36v-4.375h-1.36v-.61q.28 0 .593-.046a1.8 1.8 0 0 0 .485-.125.8.8 0 0 0 .312-.281.85.85 0 0 0 .141-.453h.672v5.89h1.344Zm0 0"/><path id="s" d="M5.078-2.078c0 .305-.058.594-.172.875a1.9 1.9 0 0 1-.453.703q-.315.315-.75.484a3.1 3.1 0 0 1-1.015.157Q2.154.14 1.656.016A4 4 0 0 1 .828-.25v-.922h.063c.238.156.515.29.828.39q.482.158.953.157c.207 0 .41-.023.61-.078.195-.063.366-.164.515-.313a1.1 1.1 0 0 0 .297-.453q.093-.264.093-.61a1.24 1.24 0 0 0-.125-.577.95.95 0 0 0-.312-.375 1.45 1.45 0 0 0-.547-.219 3.3 3.3 0 0 0-.734-.078q-.393.002-.75.062-.364.048-.61.094v-3.375h3.938v.766H1.953v1.75q.188-.014.375-.016.2-.014.36-.016.528 0 .921.094c.27.055.516.156.735.313q.358.236.547.625.187.377.187.953m0 0"/><path id="B" d="M5.813-2.016A1.9 1.9 0 0 1 5.14-.53q-.377.282-.828.406-.441.127-1.11.125H.875v-6.547h1.938c.476 0 .835.024 1.078.063q.358.047.687.218c.238.125.41.29.516.485.101.199.156.433.156.703q0 .468-.234.797a1.7 1.7 0 0 1-.625.531v.031q.655.128 1.03.578.39.458.391 1.125m-1.47-2.953a.9.9 0 0 0-.077-.39.6.6 0 0 0-.25-.266 1.1 1.1 0 0 0-.5-.14 8 8 0 0 0-.735-.032H1.75v1.89h1.125q.406 0 .64-.046.248-.045.454-.172a.77.77 0 0 0 .281-.344q.094-.2.094-.5m.563 2.985c0-.258-.043-.47-.125-.625Q4.67-2.844 4.36-3a1.5 1.5 0 0 0-.515-.14 8 8 0 0 0-.735-.032H1.75V-.75h1.156q.56 0 .922-.047.375-.06.61-.219.247-.169.359-.39c.07-.145.11-.336.11-.578m0 0"/><path id="C" d="M4.625 0h-.812v-.516q-.111.064-.297.204-.187.126-.375.218a2.6 2.6 0 0 1-.47.157Q2.404.14 2.048.14q-.673 0-1.14-.438Q.45-.747.452-1.422q0-.562.235-.906.247-.341.687-.547.45-.186 1.078-.25.62-.077 1.36-.125v-.125a.86.86 0 0 0-.11-.453.7.7 0 0 0-.281-.297A1.1 1.1 0 0 0 3-4.265a3.3 3.3 0 0 0-1.25.063 6 6 0 0 0-.812.233H.89v-.828a6 6 0 0 1 .703-.156q.45-.077.89-.078a3.8 3.8 0 0 1 .907.093c.257.055.484.149.672.282q.281.203.421.531.141.316.141.797Zm-.812-1.203v-1.375l-.907.078q-.503.033-.797.125a1.23 1.23 0 0 0-.578.313c-.148.136-.218.328-.218.578q-.001.422.25.64.247.204.78.203.434.001.798-.156.355-.17.672-.406m0 0"/><path id="D" d="M3.36-.047a4 4 0 0 1-.516.094q-.269.047-.485.047-.752.002-1.14-.406Q.828-.718.829-1.61v-2.61H.265v-.687h.562v-1.407h.828v1.407H3.36v.687H1.656v2.235q-.001.391.016.609.012.22.125.406a.62.62 0 0 0 .266.266c.113.055.285.078.515.078q.2 0 .422-.062.218-.059.313-.094h.046Zm0 0"/><path id="E" d="M4.438-.312A4.5 4.5 0 0 1 3.656 0c-.25.07-.511.11-.781.11a3 3 0 0 1-.984-.157 1.9 1.9 0 0 1-.75-.469 2 2 0 0 1-.5-.796c-.118-.32-.172-.704-.172-1.141q0-1.2.656-1.875.656-.687 1.75-.688.42.001.828.125.406.112.735.282v.906h-.032a3.7 3.7 0 0 0-.797-.438 2 2 0 0 0-.78-.171q-.705.002-1.11.484c-.274.312-.407.773-.407 1.375 0 .594.13 1.055.391 1.375q.405.469 1.125.469.246 0 .516-.063.264-.06.469-.172.17-.093.328-.187.17-.105.265-.188h.032Zm0 0"/><path id="F" d="M4.922 0h-.828v-2.797a4 4 0 0 0-.047-.64 1.05 1.05 0 0 0-.14-.454.7.7 0 0 0-.313-.28 1.3 1.3 0 0 0-.547-.095q-.328.001-.703.172a4.7 4.7 0 0 0-.703.422V0H.813v-6.844h.828v2.485a3 3 0 0 1 .797-.5q.42-.188.843-.188.797.002 1.219.484.422.471.422 1.375Zm0 0"/><path id="H" d="M5.281-1.844h-.968V0h-.844v-1.844H.344v-1.015L3.5-6.547h.813v4h.968ZM3.47-2.547V-5.5L.938-2.547Zm0 0"/><path id="I" d="M4.563-3.156c.132.125.25.289.343.484q.14.283.14.735 0 .454-.171.828A2.06 2.06 0 0 1 3.641 0q-.44.14-.97.14-.55 0-1.077-.141a4.6 4.6 0 0 1-.86-.281v-.922h.063q.373.252.875.422.516.157.984.156c.188 0 .383-.031.594-.094q.311-.091.5-.265.201-.2.297-.422c.07-.157.11-.352.11-.594q-.001-.357-.126-.578a1 1 0 0 0-.297-.375 1.4 1.4 0 0 0-.484-.172 3 3 0 0 0-.61-.062h-.39v-.735h.297q.668.002 1.062-.265c.27-.188.407-.461.407-.829a.77.77 0 0 0-.11-.406.75.75 0 0 0-.265-.297 1.5 1.5 0 0 0-.407-.156 2.3 2.3 0 0 0-.484-.047c-.281 0-.578.055-.89.156q-.47.141-.891.422H.922v-.922a4.3 4.3 0 0 1 .828-.28q.528-.142 1.016-.141.48 0 .843.093.358.095.657.282.31.222.468.515.171.3.172.688c0 .367-.133.683-.39.953a1.64 1.64 0 0 1-.907.515v.063q.216.034.485.156.28.112.468.266m0 0"/><path id="ax" d="M6.703 0h-.86v-5.64L4.017-1.798H3.5L1.688-5.64V0H.875v-6.547h1.188l1.75 3.64L5.5-6.546h1.203Zm0 0"/><path id="ay" d="M6.031 0H5.11l-.64-1.828H1.64L1 0H.11L2.5-6.547h1.156ZM4.203-2.578 3.047-5.781l-1.14 3.203Zm0 0"/><path id="az" d="M5.188 0H.875v-6.547h4.313v.781H1.75v1.782h3.438v.78H1.75V-.78h3.438Zm0 0"/><path id="aA" d="M6.25-2.594 1.172-.344v-.781l4-1.734-4-1.735v-.797L6.25-3.14Zm0 0"/><path id="aB" d="M2.422 1.719h-.766v-8.563h.766Zm0 0"/><path id="aK" d="M3.875-4.016h-.047a7 7 0 0 0-.36-.046 2.5 2.5 0 0 0-.405-.032 1.7 1.7 0 0 0-.735.172 3.6 3.6 0 0 0-.687.438V0H.813v-4.906h.828v.718c.32-.257.609-.44.859-.546q.388-.171.781-.172c.133 0 .235.008.297.015.07 0 .172.012.297.032Zm0 0"/><path id="aL" d="M5-2.453c0 .805-.21 1.437-.625 1.906q-.61.69-1.64.688-1.048.002-1.657-.688c-.406-.469-.61-1.101-.61-1.906q0-1.2.61-1.89.608-.704 1.656-.704 1.032 0 1.641.703c.414.461.625 1.09.625 1.89m-.86 0q0-.95-.374-1.406-.375-.47-1.032-.47-.672 0-1.046.47-.375.456-.375 1.406 0 .926.375 1.406.374.47 1.046.469.657 0 1.032-.469t.375-1.406m0 0"/><path id="aM" d="M1.64 0H.829v-6.844h.813Zm0 0"/><path id="aN" d="M1.703-5.734H.766v-.86h.937ZM1.641 0H.828v-4.906h.813Zm0 0"/><path id="aO" d="M4.922 0h-.828v-2.797a4 4 0 0 0-.047-.64 1.05 1.05 0 0 0-.14-.454.7.7 0 0 0-.313-.28 1.3 1.3 0 0 0-.547-.095q-.328.001-.703.172a4.7 4.7 0 0 0-.703.422V0H.813v-4.906h.828v.547a3 3 0 0 1 .797-.5q.42-.188.843-.188.797.002 1.219.484.422.471.422 1.375Zm0 0"/><path id="aP" d="M4.797-.562Q4.795.685 4.219 1.266q-.562.592-1.735.593-.39-.002-.765-.062a4.6 4.6 0 0 1-.735-.156V.797h.047q.2.093.64.203c.29.07.583.11.876.11q.421 0 .703-.094a.95.95 0 0 0 .438-.282Q3.84.56 3.906.313q.062-.234.063-.532v-.453q-.377.3-.719.453-.344.14-.86.14Q1.5-.076.985-.702.47-1.341.47-2.5c0-.426.054-.79.172-1.094.125-.3.289-.566.5-.797a1.9 1.9 0 0 1 .687-.484q.404-.17.813-.172.435 0 .718.094.282.082.61.25l.047-.203h.78Zm-.828-.782V-4.03a3.6 3.6 0 0 0-.61-.203 3 3 0 0 0-.562-.063q-.691 0-1.078.453-.391.456-.39 1.328 0 .831.28 1.25.295.423.97.422.355.002.718-.125.374-.141.672-.375m0 0"/><path id="aQ" d="M6.984-4.906 5.704 0h-.766l-1.25-3.781L2.438 0h-.766L.375-4.906h.86L2.14-1.11l1.218-3.797h.688l1.25 3.797.86-3.797Zm0 0"/><path id="aR" d="M4.797 0h-.828v-.516a3 3 0 0 1-.75.485q-.377.17-.828.172Q1.5.14.984-.531.47-1.216.47-2.421c0-.415.054-.786.172-1.11.125-.32.289-.598.5-.828a2 2 0 0 1 .687-.5q.406-.188.828-.188.388 0 .688.094c.195.055.406.133.625.234v-2.125h.828Zm-.828-1.203v-2.828a4 4 0 0 0-.594-.203 2.7 2.7 0 0 0-.578-.063q-.705.002-1.094.484-.375.486-.375 1.376 0 .877.297 1.328c.195.304.516.453.953.453q.357 0 .719-.156a3.3 3.3 0 0 0 .672-.391m0 0"/><path id="aS" d="M6.281-3.437H1.078v-.704h5.203Zm0 1.843H1.078v-.703h5.203Zm0 0"/><path id="aT" d="M7.969 0h-.813v-2.797q0-.31-.031-.61A1.4 1.4 0 0 0 7-3.874a.6.6 0 0 0-.297-.281c-.125-.07-.305-.11-.531-.11q-.364 0-.703.188-.346.175-.688.437.014.094.016.235.014.127.016.265V0h-.829v-2.797q0-.328-.03-.61a1.4 1.4 0 0 0-.126-.468.6.6 0 0 0-.281-.281c-.125-.07-.309-.11-.547-.11q-.346.001-.687.172a6 6 0 0 0-.672.422V0H.813v-4.906h.828v.547c.257-.22.515-.383.765-.5q.388-.188.828-.188.498 0 .844.219.357.204.516.578.513-.421.922-.61.404-.186.89-.187.797.001 1.172.5.388.486.39 1.36Zm0 0"/><path id="aU" d="M4.922-2.375h-3.61q-.001.457.125.797.142.329.375.547c.157.148.336.258.547.328q.312.094.688.094.497 0 1-.188.514-.2.734-.406h.047v.906q-.423.175-.86.297c-.292.07-.593.11-.905.11q-1.22 0-1.907-.657Q.468-1.202.47-2.422q0-1.201.656-1.906.657-.717 1.734-.719.984.002 1.516.578.546.58.547 1.657ZM4.125-3q-.017-.655-.344-1-.313-.359-.969-.36c-.449 0-.804.133-1.062.391A1.5 1.5 0 0 0 1.313-3Zm0 0"/><path id="aV" d="M6.031-6.547 3.656 0H2.5L.11-6.547h.937L3.094-.78l2.062-5.766Zm0 0"/><path id="t" d="M7.89-7.64 5.11 0H2.905L.125-7.64h2.063L4.03-2.267 5.875-7.64Zm0 0"/><path id="u" d="M6.75-2.875q0 1.425-.828 2.234-.831.814-2.313.813-1.5 0-2.328-.813-.83-.81-.828-2.234-.001-1.435.828-2.25c.563-.54 1.336-.812 2.328-.812q1.5 0 2.313.828.827.816.828 2.234m-2.266 1.39Q4.67-1.7 4.75-2q.094-.31.094-.86 0-.514-.094-.859a1.7 1.7 0 0 0-.25-.547 1.1 1.1 0 0 0-.406-.296 1.2 1.2 0 0 0-.485-.094q-.269 0-.484.078a1.1 1.1 0 0 0-.39.281q-.177.205-.282.563-.094.346-.094.875c0 .312.024.586.079.812q.091.345.265.563.169.187.39.28.235.095.532.095.246.002.469-.079a.9.9 0 0 0 .39-.296m0 0"/><path id="v" d="M5.047-4h-.172q-.112-.045-.375-.062-.269-.014-.437-.016-.393 0-.704.047-.3.048-.64.172V0H.875v-5.75h1.844v.844q.607-.528 1.062-.703.452-.171.828-.172c.063 0 .133.008.22.015.081 0 .155.008.218.016Zm0 0"/><path id="w" d="M6.656 0h-1.86v-2.86a8 8 0 0 0-.03-.687q-.034-.34-.125-.515a.63.63 0 0 0-.313-.266q-.188-.094-.547-.094-.252 0-.515.078a2.4 2.4 0 0 0-.547.266V0H.875v-5.75h1.844v.625q.48-.374.937-.578.452-.218 1.016-.219.938.001 1.453.547.53.548.531 1.625Zm0 0"/><path id="x" d="M2.719 0H.875v-5.75h1.844Zm.047-6.578H.828v-1.406h1.938Zm0 0"/><path id="z" d="M5.25-5.297a.9.9 0 0 0-.125-.484.7.7 0 0 0-.39-.328 1.7 1.7 0 0 0-.47-.094 6 6 0 0 0-.624-.031h-.703v2.062h.593q.48 0 .797-.047a1.1 1.1 0 0 0 .531-.218c.133-.102.235-.22.297-.344q.094-.187.094-.516M8.328 0H5.922L3.844-2.797h-.906V0H.968v-7.64h3.313q.67.001 1.157.077.48.081.921.344.422.252.672.657.265.41.266 1.03-.001.846-.406 1.376-.394.533-1.11.89Zm0 0"/><path id="A" d="M6.438-6.156h-3.5v1.422h3.25v1.468h-3.25V0H.968v-7.64h5.47Zm0 0"/><path id="J" d="M6.063 0H1.03v-7.64h5.032v.906H2.047v2.093h4.015v.907H2.048v2.828h4.015Zm0 0"/><path id="W" d="M4.016 2.11H2.844A8.2 8.2 0 0 1 1.422-.157c-.336-.82-.5-1.75-.5-2.781 0-1.02.164-1.942.5-2.766a8.5 8.5 0 0 1 1.422-2.281h1.172v.062a6.5 6.5 0 0 0-.797.86q-.376.485-.703 1.14-.301.628-.5 1.39a6.6 6.6 0 0 0-.188 1.595q0 .877.188 1.609.186.736.5 1.39.31.622.703 1.126.405.513.797.875Zm0 0"/><path id="X" d="M5.75-2.766H1.516q-.001.535.156.922.171.394.453.64.263.253.625.376c.25.086.52.125.813.125q.574 0 1.171-.235.592-.234.844-.468h.047v1.062q-.485.204-1 .344c-.336.094-.687.14-1.062.14Q2.14.143 1.342-.624q-.795-.78-.796-2.203-.001-1.405.766-2.234.761-.828 2.015-.829 1.154 0 1.781.688.64.675.641 1.922ZM4.797-3.5q0-.761-.375-1.172c-.25-.281-.633-.422-1.14-.422-.524 0-.938.157-1.25.469q-.457.457-.516 1.125Zm0 0"/><path id="Y" d="M7.047-7.64 4.266 0h-1.36L.141-7.64h1.078l2.39 6.718L6.016-7.64Zm0 0"/><path id="Z" d="M4.406-7.984.734 1.563h-.89L3.5-7.985Zm0 0"/><path id="aa" d="M5.406 0h-.968v-.61c-.086.063-.2.15-.344.25a2 2 0 0 1-.422.235 2.4 2.4 0 0 1-.563.203q-.315.077-.718.078c-.524 0-.965-.164-1.328-.5Q.53-.859.53-1.656q0-.655.282-1.063.281-.403.796-.625.529-.233 1.25-.312a19 19 0 0 1 1.579-.125v-.156q-.001-.328-.125-.532A.9.9 0 0 0 4-4.812a1.4 1.4 0 0 0-.5-.157 3.6 3.6 0 0 0-.594-.047c-.261 0-.547.04-.86.11a6 6 0 0 0-.952.281h-.047v-.984q.28-.075.812-.157a6 6 0 0 1 1.047-.093q.608 0 1.047.093.452.096.781.344c.22.156.383.36.5.61q.171.376.172.921Zm-.968-1.406V-3q-.439.02-1.047.078-.598.047-.938.14-.409.13-.672.376-.251.25-.25.672 0 .504.297.75c.195.168.5.25.906.25q.5 0 .922-.203a4.6 4.6 0 0 0 .781-.47m0 0"/><path id="ab" d="M3.922-.047c-.18.043-.375.078-.594.11q-.316.046-.562.046-.892 0-1.344-.468C1.117-.672.969-1.176.969-1.875v-3.047H.313v-.812h.656v-1.641h.969v1.64h1.984v.813H1.937v2.61q-.001.455.016.718a1 1 0 0 0 .14.469.64.64 0 0 0 .313.297q.2.094.61.094.233 0 .484-.063.263-.077.375-.125h.047Zm0 0"/><path id="ac" d="M5.828-2.86Q5.826-1.464 5.11-.655q-.72.813-1.921.812-1.221 0-1.938-.812-.703-.81-.703-2.203 0-1.405.703-2.22c.477-.538 1.125-.812 1.938-.812.8 0 1.44.274 1.921.813.477.543.72 1.281.72 2.219m-1 0q-.002-1.106-.437-1.656-.424-.545-1.203-.546-.786 0-1.22.546-.437.55-.437 1.657 0 1.077.438 1.64.433.549 1.219.547.762.002 1.203-.547.435-.563.437-1.64m0 0"/><path id="ad" d="M9.313 0h-.97v-3.266q0-.357-.03-.703a1.6 1.6 0 0 0-.141-.547.8.8 0 0 0-.344-.343c-.148-.07-.36-.11-.64-.11q-.41.002-.813.203a5.5 5.5 0 0 0-.797.516c.008.086.016.18.016.281q.013.157.015.297V0h-.968v-3.266q-.001-.374-.032-.718a1.6 1.6 0 0 0-.14-.547.72.72 0 0 0-.344-.328c-.148-.07-.355-.11-.625-.11a1.8 1.8 0 0 0-.797.203c-.262.125-.527.29-.797.485V0H.953v-5.734h.953v.64q.45-.374.907-.578.45-.218.953-.219.59.002 1 .25a1.6 1.6 0 0 1 .609.688q.575-.497 1.063-.719a2.5 2.5 0 0 1 1.03-.219c.626 0 1.087.196 1.391.579q.453.563.454 1.593Zm0 0"/><path id="ae" d="M3.844-2.937c0 1.03-.172 1.96-.516 2.78A8 8 0 0 1 1.922 2.11H.75v-.046a6.3 6.3 0 0 0 .797-.876A7 7 0 0 0 2.25.063c.207-.438.375-.899.5-1.391a6.5 6.5 0 0 0 .188-1.61q0-.843-.188-1.593a6.8 6.8 0 0 0-1.203-2.532q-.375-.482-.797-.859v-.062h1.172q.902 1.05 1.406 2.28.516 1.238.516 2.766m0 0"/><path id="L" d="M3.781 0H3.11v-.422l-.25.172a1.6 1.6 0 0 1-.296.172 1.5 1.5 0 0 1-.376.125q-.222.06-.515.062Q1.123.111.75-.25a1.2 1.2 0 0 1-.375-.906q0-.47.188-.75.198-.28.562-.438.358-.153.875-.219c.344-.039.71-.066 1.11-.078v-.109a.67.67 0 0 0-.094-.375.6.6 0 0 0-.22-.234.73.73 0 0 0-.343-.11 3 3 0 0 0-.422-.031c-.18 0-.375.027-.594.078a4.6 4.6 0 0 0-.671.188H.734v-.688q.188-.045.563-.11c.25-.05.492-.077.734-.077q.42 0 .735.078.311.064.547.234.233.175.343.438.124.253.125.64ZM3.11-.984v-1.11q-.314.018-.734.047a3.3 3.3 0 0 0-.656.11q-.299.08-.485.25c-.117.117-.171.277-.171.484q-.001.345.203.516c.144.117.359.171.64.171q.358 0 .657-.14.293-.14.546-.328m0 0"/><path id="M" d="M4.188-2.031q0 .502-.141.906a2.2 2.2 0 0 1-.375.672q-.269.28-.578.422c-.2.09-.418.14-.656.14q-.346 0-.61-.078a2.2 2.2 0 0 1-.484-.218L1.297 0h-.64v-5.578h.687v2q.28-.234.593-.375.329-.155.72-.156c.468 0 .835.183 1.109.547q.421.534.422 1.53m-.688.015q-.002-.714-.25-1.078c-.156-.25-.414-.375-.766-.375a1.6 1.6 0 0 0-.593.125q-.3.13-.547.328V-.72c.187.086.347.14.484.172q.2.047.469.047c.375 0 .664-.117.875-.36.219-.25.328-.632.328-1.156m0 0"/><path id="N" d="M4.078-2q-.001.984-.5 1.547c-.336.375-.781.562-1.344.562Q1.373.11.875-.453C.539-.828.375-1.343.375-2s.164-1.172.5-1.547q.498-.562 1.36-.562c.562 0 1.007.187 1.343.562q.499.562.5 1.547m-.703 0q0-.78-.312-1.156-.3-.375-.829-.375-.55 0-.859.375Q1.077-2.78 1.078-2c0 .5.098.883.297 1.14q.31.392.86.391.527 0 .828-.375.311-.388.312-1.156m0 0"/><path id="O" d="M4.125-4 2.5 0h-.672L.218-4h.735L2.188-.812 3.422-4Zm0 0"/><path id="P" d="M4.016-1.937H1.063q-.001.374.109.656.106.269.312.437.187.174.438.266c.176.055.363.078.562.078q.404.001.813-.156.421-.17.61-.328h.03v.734q-.345.157-.703.25-.346.094-.734.094-1 0-1.562-.531Q.375-.983.375-1.984q0-.985.531-1.547.544-.576 1.422-.578.81 0 1.25.468.437.47.438 1.344Zm-.657-.516q-.001-.53-.265-.813-.27-.294-.797-.296-.549 0-.875.328c-.211.21-.328.468-.36.78Zm0 0"/><path id="R" d="M5.469 0h-.703v-4.594L3.28-1.469h-.42L1.375-4.594V0H.719v-5.344h.969l1.421 2.985 1.375-2.985h.985Zm0 0"/><path id="S" d="M4.203-3.719q-.001.346-.125.656-.11.3-.344.516-.27.281-.656.422-.375.14-.937.14h-.72V0H.72v-5.344h1.453q.468 0 .797.094.34.082.61.25a1.4 1.4 0 0 1 .452.516q.171.298.172.765m-.734.016q0-.28-.094-.485a.8.8 0 0 0-.297-.328 1.1 1.1 0 0 0-.39-.171 3 3 0 0 0-.563-.047h-.703v2.14h.61c.28 0 .507-.023.687-.078a.9.9 0 0 0 .437-.25.95.95 0 0 0 .235-.36q.076-.187.078-.421m0 0"/><path id="T" d="M4.016 0h-.672v-2.281q-.001-.282-.031-.516c-.024-.164-.063-.289-.126-.375a.52.52 0 0 0-.265-.219 1 1 0 0 0-.438-.078c-.18 0-.37.047-.578.14q-.298.129-.562.345V0H.656v-5.578h.688v2.016a2.6 2.6 0 0 1 .64-.407q.34-.14.704-.14.637.002.984.39c.226.262.344.637.344 1.125Zm0 0"/><path id="U" d="M3.984 0h-.671v-.437c-.231.18-.45.312-.657.406-.21.09-.437.14-.687.14q-.627 0-.985-.375c-.23-.257-.343-.64-.343-1.14V-4h.672v2.281q-.002.3.015.516.031.222.125.375a.7.7 0 0 0 .25.234q.154.064.453.063.263.001.578-.125c.207-.094.399-.211.579-.36V-4h.671Zm0 0"/><path id="V" d="M1.344 0H.672v-5.578h.672Zm0 0"/><path id="af" d="M0-7.344v1.313L-3.031-3.47v1.422H0v1.016h-7.64v-2.125q0-.702.093-1.156a2.4 2.4 0 0 1 .328-.829q.252-.421.657-.656.39-.234 1-.234.83 0 1.39.422c.367.273.64.652.828 1.14Zm-5.484 2.375q-.328.001-.578.125a1 1 0 0 0-.438.375q-.14.222-.203.532-.062.298-.063.703v1.187h2.891v-1.015c0-.32-.023-.602-.078-.844a1.4 1.4 0 0 0-.328-.61 1.35 1.35 0 0 0-.5-.343 2 2 0 0 0-.703-.11m0 0"/><path id="ag" d="M-2.86-5.828q1.395.002 2.204.719.813.72.812 1.922 0 1.22-.812 1.937-.81.703-2.203.703-1.405 0-2.22-.703c-.538-.477-.812-1.125-.812-1.937 0-.801.274-1.442.813-1.922.543-.477 1.281-.72 2.219-.72m0 1q-1.106.002-1.656.437-.545.423-.546 1.204 0 .785.546 1.218.55.439 1.657.438 1.077 0 1.64-.438.549-.433.547-1.218.002-.763-.547-1.204-.563-.435-1.64-.437m0 0"/><path id="ah" d="M0-1.922v.969h-7.984v-.969Zm0 0"/><path id="ai" d="M-6.687-1.984v1.093h-1v-1.093ZM0-1.922v.969h-5.734v-.969Zm0 0"/><path id="aj" d="M0-5.734v.968h-3.266q-.387 0-.734.047-.341.034-.547.157a.72.72 0 0 0-.312.375 1.55 1.55 0 0 0-.11.625q.002.393.203.828c.125.28.29.558.485.828H0v.953h-5.734v-.953h.64q-.374-.452-.578-.938a2.4 2.4 0 0 1-.219-.984q0-.937.563-1.422.564-.482 1.61-.484Zm0 0"/><path id="ak" d="M-.656-5.594c.976 0 1.691.227 2.14.672q.687.659.688 2.031c0 .305-.024.602-.063.891a7 7 0 0 1-.187.844H.938v-.047a7 7 0 0 0 .218-.75q.14-.516.14-1.031 0-.48-.124-.797a1.24 1.24 0 0 0-.313-.516 1.3 1.3 0 0 0-.484-.25 2.4 2.4 0 0 0-.625-.078h-.531q.345.44.515.828c.118.262.172.602.172 1.016 0 .68-.242 1.219-.734 1.625q-.733.61-2.094.61-.732 0-1.265-.204a2.8 2.8 0 0 1-.922-.578 2.2 2.2 0 0 1-.578-.797 2.5 2.5 0 0 1-.204-.969c0-.32.04-.594.11-.812a3.6 3.6 0 0 1 .297-.719l-.25-.062v-.907Zm-.922.969h-3.125q-.17.377-.234.719-.078.328-.079.656.002.783.532 1.25c.355.305.87.453 1.547.453q.971 0 1.468-.328c.324-.227.485-.61.485-1.14q.001-.423-.157-.844a2.6 2.6 0 0 0-.437-.766m0 0"/><path id="am" d="M0-7.828v1.016h-6.578l4.469 2.125v.609l-4.47 2.11H0v.937h-7.64v-1.375l4.25-2.031-4.25-1.97v-1.421Zm0 0"/><path id="an" d="M0-7.047v1.078l-2.125.75v3.313L0-1.156v1.015l-7.64-2.765v-1.36Zm-3 2.14-3.75 1.345L-3-2.22Zm0 0"/><path id="ao" d="M0-6.062v5.03h-7.64v-5.03h.906v4.015h2.093v-4.015h.907v4.015h2.828v-4.015Zm0 0"/><path id="ap" d="M2.11-4.016v1.172A8.2 8.2 0 0 1-.157-1.422c-.82.336-1.75.5-2.781.5-1.02 0-1.942-.164-2.766-.5a8.5 8.5 0 0 1-2.281-1.422v-1.172h.062c.25.282.54.547.86.797q.485.376 1.14.703.628.301 1.39.5.75.188 1.595.188.877 0 1.609-.188.736-.186 1.39-.5.622-.31 1.126-.703a7.5 7.5 0 0 0 .875-.797Zm0 0"/><path id="aq" d="M-2.766-5.75v4.234q.535.001.922-.156.394-.171.64-.453.253-.263.376-.625c.086-.25.125-.52.125-.812q0-.575-.235-1.172-.234-.592-.468-.844v-.047h1.062q.204.485.344 1 .14.502.14 1.063.002 1.422-.765 2.218-.78.798-2.203.797c-.938 0-1.68-.254-2.234-.765q-.828-.762-.829-2.016 0-1.154.688-1.781.675-.64 1.922-.641Zm-.734.953q-.761 0-1.172.375c-.281.25-.422.633-.422 1.14 0 .524.157.938.469 1.25q.457.457 1.125.516Zm0 0"/><path id="ar" d="M-7.64-7.047 0-4.266v1.36L-7.64-.141v-1.078l6.718-2.39-6.719-2.407Zm0 0"/><path id="as" d="M-7.984-4.406 1.563-.734v.89L-7.985-3.5Zm0 0"/><path id="at" d="M0-5.406v.968h-.61c.063.086.15.2.25.344q.159.224.235.422c.086.156.148.344.203.563q.077.315.078.718c0 .524-.164.965-.5 1.329q-.515.531-1.312.53-.655 0-1.063-.28a1.8 1.8 0 0 1-.625-.797q-.233-.529-.312-1.25a19 19 0 0 1-.125-1.578h-.156q-.328 0-.532.125A.9.9 0 0 0-4.812-4a1.4 1.4 0 0 0-.157.5 3.6 3.6 0 0 0-.047.594c0 .261.04.547.11.86q.093.455.281.952v.047h-.984a8 8 0 0 1-.157-.812 6 6 0 0 1-.093-1.047q0-.608.093-1.047.096-.452.344-.781c.156-.22.36-.383.61-.5q.376-.171.921-.172Zm-1.406.968H-3q.02.439.078 1.047.047.598.14.938.13.409.376.672.25.251.672.25.504 0 .75-.297c.168-.195.25-.5.25-.906q0-.5-.203-.922a4.6 4.6 0 0 0-.47-.781m0 0"/><path id="au" d="M-.047-3.922c.043.18.078.375.11.594q.046.316.046.562 0 .892-.468 1.344c-.313.305-.817.453-1.516.453h-3.047v.657h-.812V-.97h-1.641v-.968h1.64v-1.985h.813v1.985h2.61q.455.001.718-.016a1 1 0 0 0 .469-.14.64.64 0 0 0 .297-.313q.094-.2.094-.61 0-.233-.063-.484a4 4 0 0 0-.125-.375v-.047Zm0 0"/><path id="av" d="M0-9.312v.968h-3.266q-.357.001-.703.031-.34.035-.547.141a.8.8 0 0 0-.343.344c-.07.148-.11.36-.11.64q.002.41.203.813.206.393.516.797.13-.014.281-.016.157-.013.297-.015H0v.968h-3.266q-.374.001-.718.032-.341.035-.547.14a.72.72 0 0 0-.328.344c-.07.148-.11.355-.11.625q.002.392.203.797c.125.262.29.527.485.797H0v.953h-5.734v-.953h.64q-.374-.45-.578-.907a2.2 2.2 0 0 1-.219-.953q.002-.59.25-1a1.6 1.6 0 0 1 .688-.609q-.497-.575-.719-1.062A2.5 2.5 0 0 1-5.89-7.47c0-.625.196-1.086.579-1.39q.563-.452 1.593-.453Zm0 0"/><path id="aw" d="M-2.937-3.844c1.03 0 1.96.172 2.78.516A8 8 0 0 1 2.11-1.922V-.75h-.046a6.3 6.3 0 0 0-.876-.797A7 7 0 0 0 .063-2.25a7.6 7.6 0 0 0-1.391-.5 6.5 6.5 0 0 0-1.61-.187q-.843 0-1.593.187a6.8 6.8 0 0 0-2.532 1.203q-.482.375-.859.797h-.062v-1.172q1.05-.902 2.28-1.406 1.238-.516 2.766-.516m0 0"/><path id="aC" d="M3.438 0h-.579v-1.953q0-.232-.03-.438a.7.7 0 0 0-.095-.328.5.5 0 0 0-.218-.203 1 1 0 0 0-.375-.062q-.236.001-.5.125a2.5 2.5 0 0 0-.5.297V0H.563v-4.781h.578v1.734c.187-.156.375-.273.562-.36q.294-.123.594-.124.562.002.844.344c.195.218.297.539.297.953Zm0 0"/><path id="aD" d="M3.422 0h-.578v-.375q-.3.222-.563.344c-.18.082-.375.125-.594.125q-.55 0-.843-.328c-.2-.22-.297-.54-.297-.97v-2.234h.578v1.954c0 .18.004.328.016.453q.028.188.109.312.075.143.203.203a1 1 0 0 0 .39.063q.234.001.5-.11.267-.124.5-.312v-2.562h.579Zm0 0"/><path id="aE" d="M1.156 0H.578v-4.781h.578Zm0 0"/><path id="aG" d="M3.36 0h-.58v-.36a2 2 0 0 1-.531.344c-.18.07-.371.11-.578.11q-.627 0-.984-.469c-.243-.32-.36-.758-.36-1.312q-.001-.435.125-.782c.082-.226.195-.422.344-.578.133-.156.297-.273.484-.36q.281-.123.578-.124.264.002.47.062.217.048.452.172V-4.78h.578Zm-.58-.844v-1.969a2 2 0 0 0-.422-.14A1.7 1.7 0 0 0 1.953-3q-.485.002-.766.344c-.18.219-.265.539-.265.953q-.001.61.203.937.218.315.688.313.233.001.484-.11.263-.106.484-.28m0 0"/><path id="aH" d="M1.188-4.016H.53v-.593h.657ZM1.156 0H.578v-3.437h.578Zm0 0"/><path id="aI" d="M3.016-.984c0 .312-.133.57-.391.765-.25.2-.602.297-1.047.297Q1.186.078.86 0a2.6 2.6 0 0 1-.515-.203V-.86h.031q.265.204.594.328c.226.086.445.125.656.125.25 0 .445-.04.594-.125a.42.42 0 0 0 .219-.39q0-.202-.126-.298-.112-.105-.453-.187-.113-.03-.312-.063a2.4 2.4 0 0 1-.36-.078q-.454-.122-.64-.344A.9.9 0 0 1 .36-2.47q-.002-.217.079-.406a1 1 0 0 1 .265-.328 1.2 1.2 0 0 1 .438-.219 1.8 1.8 0 0 1 .593-.094q.31.001.625.079.31.08.532.171v.625H2.86a2.2 2.2 0 0 0-.546-.265 1.7 1.7 0 0 0-.61-.125 1.1 1.1 0 0 0-.547.125c-.148.086-.218.203-.218.36q0 .222.14.327.123.095.422.172c.102.024.219.047.344.078q.201.034.343.063.387.094.61.312.218.235.219.61m0 0"/><path id="aJ" d="M2.36-.031C2.241 0 2.124.019 2 .03q-.19.031-.344.032-.532 0-.812-.282Q.576-.5.578-1.126v-1.828h-.39v-.485h.39v-.984h.578v.984H2.36v.485H1.156v1.562q-.001.284.016.438a.8.8 0 0 0 .078.281.5.5 0 0 0 .188.188q.123.045.375.046c.093 0 .187-.007.28-.03.102-.032.18-.055.235-.079h.031Zm0 0"/><clipPath id="e"><path d="M0 0h375v247.5H0Zm0 0"/></clipPath><clipPath id="f"><path d="M52.5 13.5H360V204H52.5Zm0 0"/></clipPath><clipPath id="c"><path d="M.5.5H308V191H.5Zm0 0"/></clipPath><clipPath id="d"><path d="M152 188h5v3h-5Zm0 0"/></clipPath><clipPath id="b"><path d="M0 0h308v191H0z"/></clipPath><clipPath id="i"><path d="M52.5 23H357v92H52.5Zm0 0"/></clipPath><clipPath id="j"><path d="M52.5 38H354v88H52.5Zm0 0"/></clipPath><clipPath id="k"><path d="M52.5 40H351v85H52.5Zm0 0"/></clipPath><clipPath id="l"><path d="M52.5 37H357v97H52.5Zm0 0"/></clipPath><clipPath id="m"><path d="M52.5 58H354v86H52.5Zm0 0"/></clipPath><filter id="a" width="100%" height="100%" x="0%" y="0%"><feColorMatrix color-interpolation-filters="sRGB" values="0 0 0 0 1 0 0 0 0 1 0 0 0 0 1 0 0 0 1 0"/></filter><mask id="g"><g filter="url(#a)"><path fill-opacity=".2" d="M-37.512-24.792h450.144v297.504H-37.512z"/></g></mask><g id="h" clip-path="url(#b)"><g clip-path="url(#c)"><path fill="red" d="M-614.5-761.5 154.25 191 923-761.5Zm0 0"/><path fill="none" stroke="#636EFA" stroke-miterlimit="2" stroke-width="1.5" d="M-614.5-761.5 154.25 191 923-761.5"/></g><g clip-path="url(#d)"><path fill="#636EFA" d="M156.5 191q-.001.447-.172.86-.17.414-.488.73-.316.317-.73.488a2.24 2.24 0 0 1-1.72 0 2.2 2.2 0 0 1-.73-.488 2.2 2.2 0 0 1-.488-.73 2.24 2.24 0 0 1 0-1.72q.17-.414.488-.73.316-.317.73-.488a2.24 2.24 0 0 1 1.72 0q.414.17.73.488.317.316.488.73.17.413.172.86m0 0"/></g></g></defs><g clip-path="url(#e)"><path fill="#FFF" d="M0 0h375v247.5H0Zm0 0"/></g><path fill="#FFF" d="M52.5 13.5H360V204H52.5Zm0 0"/><path fill="none" stroke="#D3D3D3" stroke-width=".75" d="M129.375 13.5V204m153.75-190.5V204M52.5 156.375H360M52.5 108.75H360M52.5 61.125H360"/><path fill="none" stroke="#EBF0F8" stroke-width="1.5" d="M206.25 13.5V204"/><g clip-path="url(#f)" mask="url(#g)"><use xlink:href="#h" transform="translate(52 13)"/></g><g clip-path="url(#i)"><path fill="#EF553B" d="m53.098 23.195 1.359 1.793-1.195.907-1.36-1.793Zm2.718 3.582 1.36 1.793-1.192.907-1.363-1.79Zm2.723 3.586 1.36 1.793-1.196.907-1.36-1.793Zm2.719 3.586 1.36 1.793-1.196.906-1.36-1.793Zm2.719 3.586.761 1 .258 1.313-1.469.293-.226-1.145.734-.144-.597.453-.657-.864Zm1.457 4.52.441 2.207-1.473.293-.437-2.207Zm.879 4.414.437 2.207-1.473.293-.437-2.207Zm.874 4.414.438 2.207-1.473.293-.437-2.207Zm.876 4.414.437 2.207-1.473.293-.437-2.207Zm-.102 1.07 1.008-2.012 1.34.676L69.3 57.04Zm2.016-4.02 1.011-2.011 1.34.672-1.008 2.012Zm3.445-.35 1.117 1.952-1.3.746-1.118-1.953Zm2.238 3.901.606 1.063.289 1.21-1.461.349-.262-1.106.73-.176-.652.375-.555-.968Zm1.414 4.461.52 2.192-1.457.344-.52-2.188Zm1.043 4.38.52 2.187-1.461.347-.52-2.187Zm1.04 4.378.519 2.188-1.457.347-.524-2.187Zm.593 3.594 2.234.281-.187 1.488-2.234-.28Zm3.941.125 2.004-1.023.684 1.335-2.004 1.024Zm4.008-2.047 2.004-1.023.68 1.336-2 1.023Zm4.672-1.062 2.098.812-.543 1.398-2.098-.812Zm4.113 2.277 1.664 1.52-1.011 1.105-1.664-1.516Zm3.325 3.035 1.66 1.52-1.008 1.105-1.664-1.516Zm2.332 2.742 1.71-1.465.977 1.141-1.71 1.465Zm3.418-2.93.265-.226.489.57-.598-.453 1.144-1.515 1.2.906-1.196 1.578-.328.281Zm2.66-3.417 1.484-1.961.242-.082.477 1.421-.024.008-.238-.71.598.453-1.344 1.777Zm3.86-2.758 1.683-.567.238.711-.453-.597.375-.285.91 1.19-.477.364-1.8.606Zm3.632-2.102 1.684-1.285.453.598-.516-.543.098-.094 1.03 1.09-.124.12-1.715 1.306Zm3.352-2.87 1.628-1.552 1.036 1.09-1.633 1.547Zm3.796-2.774 2.07-.88.587 1.38-2.07.879ZM127 59.168l2.07-.879.586 1.379-2.07.879Zm4.715.094 1.996.957.242.32-1.195.906-.133-.175.598-.454-.325.676-1.832-.875Zm3.597 3.07 1.364 1.79-1.196.905-1.363-1.789Zm2.665 3.207 1.941 1.137-.754 1.293-1.945-1.137Zm3.918 2.395 1.78 1.375-.917 1.187-1.781-1.375Zm3.562 2.75 1.781 1.375-.918 1.187-1.78-1.375Zm3.563 2.75.035.027-.457.594.039-.75 2.199.117-.078 1.5-2.434-.129-.222-.172Zm4.312.464 1.969 1.094-.73 1.309-1.966-1.094Zm3.934 2.188 1.968 1.094-.73 1.308-1.965-1.093Zm3.289 1.43 2.047-.934.62 1.367-2.046.93Zm4.11-1.856 2.062-.902.601 1.37-2.058.907Zm4.542-1.308 2.25.011-.004 1.5-2.25-.011Zm4.629.82 2.09.836-.555 1.394-2.09-.836Zm4.18 1.668 1.609.644-.277.696.07-.746.516.046-.141 1.497-.625-.059-1.707-.684Zm4.156.851 1.285.121 1.11.786-.864 1.222-.95-.668.435-.613-.07.746-1.087-.101Zm4.234 2.204 1.84 1.296-.863 1.223-1.84-1.297Zm3.68 2.593 1.367.965.438.82-1.32.707-.356-.664.66-.355-.434.613-1.222-.863Zm2.867 3.77 1.063 1.98-1.32.711-1.063-1.984Zm2.125 3.965.305.57-.66.355.632-.402.86 1.352-1.266.804-.875-1.375-.316-.597Zm2.344 3.773 1.207 1.899-1.266.804-1.207-1.898Zm2.543 3.348 1.762 1.398-.934 1.176-1.762-1.402Zm3.527 2.851 1.692 1.485-.989 1.129-1.691-1.485Zm3.266 2.84 1.98 1.07-.71 1.32-1.981-1.07Zm4.054 2.278 1.715 1.457-.968 1.14-1.715-1.453Zm3.434 2.91.176.148-.484.574.39-.64 1.723 1.05-.781 1.282-1.774-1.082-.219-.188Zm3.727 2.304.222.137 1.668 1.156-.851 1.235-1.653-1.145.426-.617-.39.64-.204-.124Zm3.742 2.578.336.235-.426.613-.195-.723 1.777-.472.387 1.449-2.11.563-.625-.434Zm3.55-.906 2.06-.91.605 1.375-2.059.906Zm4.5-1.691 2.247.14-.094 1.5-2.246-.14Zm4.243-.012 2.187-.527.352 1.46-2.188.524Zm4.375-1.055 2.187-.527.352 1.461-2.188.527Zm4.484-.867 1.715-.246.106.746-.145-.738.504-.102.293 1.473-.528.106-1.734.246Zm4.387-.777 1.137-.227.144.739-.37-.653.952-.539.738 1.305-1.054.598-1.254.25Zm3.82-1.79 1.125-.636 1.399.082-.086 1.496-1.18-.066.043-.75.371.652-.934.528Zm4.77-.421.422.023-.043.75-.278-.699 1.696-.676.554 1.395-1.851.738-.586-.035Zm3.886-1.434.055-.023.277.7-.437-.61 1.785-1.278.871 1.223-1.855 1.328-.137.055Zm3.512-2.515 1.832-1.309.871 1.219-1.832 1.308Zm3.664-2.617.469-.336 1.66-.746.617 1.367-1.593.715-.309-.684.438.613-.41.293Zm4.18-2.008.203-.09.309.683-.371-.652 1.761-1.004.742 1.305-1.793 1.02-.234.105Zm3.855-2.176.125-.074.372.652-.563-.496 1.395-1.578 1.125.996-1.477 1.668-.234.133Zm2.82-3.18 1.083-1.226.918-.352.539 1.402-.746.286-.27-.7.563.496-.961 1.086Zm4.102-2.383.992-.378.27.699-.527-.531.84-.836 1.058 1.062-.953.95-1.14.437Zm3.172-2.632 1.48-1.473.317-.18.738 1.305-.23.129-.367-.652.527.53-1.41 1.403Zm3.758-2.758 1.855-1.051.586.055-.14 1.496-.352-.035.07-.746.368.652-1.653.933Zm4.68-.785 1.257.117-.07.746-.226-.715.945-.297.45 1.434-1.087.34-1.41-.133Zm4.05-.82.75-.239.227.715-.488-.57 1.113-.95.973 1.141-1.227 1.05-.898.282Zm3.313-2.505 1.023-.875.692-.585.972 1.144-.687.582-1.024.875Zm3.434-2.914 1.55-1.316.504-.152.434 1.437-.356.106-.214-.72.484.575-1.434 1.215Zm4.21-2.117 1.34-.402.215.719-.289-.692.79-.328.573 1.387-.82.34-1.375.414Zm4.133-1.562 2.078-.864.575 1.383-2.079.864Zm4.157-1.727 2.078-.863.574 1.387-2.078.863Zm4.156-1.726.347-.145.29.691-.649-.378.945-1.614 1.297.758-1.074 1.832-.582.242Zm2.07-3.387 1.14-1.942 1.294.758-1.137 1.942Zm2.543-3.883 1.52-1.66 1.105 1.016-1.52 1.656Zm3.043-3.316.16-.176 1.703-1.305.91 1.192-1.648 1.265-.457-.597.55.507-.113.125Zm3.648-2.848.532-.406 1.82-.48.379 1.448-1.672.442-.191-.723.457.594-.414.316Zm4.2-1.285 1.636-1.547 1.028 1.09-1.633 1.547Zm3.27-3.09.679-.645 1.508-.574.535 1.399-1.367.523-.27-.7.516.548-.57.539Zm4.288-2.023.367-.141.27.7-.41-.63 1.55-1.015.82 1.254-1.616 1.062-.446.168Zm3.66-2.317.414-.273.41.629-.449-.602 1.403-1.05.898 1.198-1.422 1.067-.433.285Zm3.579-2.648.859-.645 1.73.121-.105 1.496-1.45-.101.051-.75.45.601-.637.477Zm4.832-.367.152.011-.102 1.496-.156-.011Zm0 0"/></g><g clip-path="url(#j)"><path fill="#00CC96" d="m51.887 69.746 4.265-6.039.676.445-.824 1.254-.066-.047.41-.625.613.43-3.848 5.445ZM62.5 67.742l1.914 1.13-.379.644-.652-.368 2.215-3.941 1.308.734-2.594 4.61-2.574-1.516Zm6.695-8.32 2.047-2.996 3.403-1.203.5 1.414-3.172 1.12-.25-.706.62.426-1.91 2.793Zm8.434 2 1.492 6.586-1.46.328-1.493-6.582Zm3.785 10.183 2.094-.32 3.832 3.778-1.05 1.07-3.567-3.516.527-.535.113.742-1.722.262ZM93.5 75.04l1.66.184 3.711 4.28-1.133.985-3.52-4.058.567-.493-.082.747-1.371-.153Zm9.137 10.195.468.73-.632.407-.496-.562 3.84-3.391.496.562-.547-.511.515-.555 1.098 1.023-.543.583-4.523 3.992-.942-1.469Zm9.246-5.34 2.715 3.594-.598.453-.46-.593 1.772-1.375.922 1.183L113.86 85l-3.171-4.203Zm9.957-.32 6.71-.738.165 1.492-6.707.738Zm13.562.172 5.524 3.883-.86 1.226-5.523-3.878Zm11.555 6.246 5.867 1.672.735.711-1.04 1.082-.601-.582.52-.54-.208.72-5.687-1.618Zm11.668 5.73 1.637.31-.137.734-.121-.739 3.996-.66 1.297.305-.348 1.46-1.148-.273.172-.73.12.742-3.976.656-1.77-.328Zm13.512.923 3.722 2.02-.359.66.059-.747 2.507.195-.117 1.497-2.668-.211-3.863-2.094Zm12.203 5.183 3.254 2.008 1.613 2.898-1.312.73-1.516-2.726.656-.367-.394.64-3.09-1.91Zm8.176 10.774 2.855 4.886-.648.375.445-.601.875.648-.89 1.207-1-.742-2.934-5.02Zm8.98 9.261 1.348.953-.434.614.274-.7 3.894 1.524.895.527-.766 1.293-.84-.5.383-.644-.273.699-3.926-1.535-1.422-1.008Zm11.941 5.414.684.172-.184.727.125-.739 3.848.653-.125.738-.074-.746 2.133-.207.144 1.492-2.23.219-3.977-.676-.71-.18Zm12.954-.945 2.875-.18.047.75-.196-.722 3.735-1.016.394 1.45-3.812 1.03-2.95.188Zm12.683-3.336 1.508-.719 3.965-1.14 1.207-.121.148 1.492-1.14.117-.075-.746.208.719-3.84 1.101-.207-.719.324.676-1.453.696Zm12.649-4.086.351-.191 3.91-1.305.239.715-.375-.652 2.047-1.172.746 1.3-2.11 1.211-3.918 1.305-.238-.71.355.66-.292.16Zm12.027-5.965 5.855-3.355.747 1.3-5.856 3.356Zm11.477-6.687 3.554-3.582 1.395-1.121.941 1.168-1.363 1.093-.469-.582.531.528-3.523 3.55Zm9.87-9.18 1.383-1.402 3.973-2.938.164-.058.516 1.41-.063.023-.257-.707.445.606-3.84 2.836-.445-.606.535.528-1.344 1.359Zm11.47-7.152 1.535-.965.398.637-.527-.535 3.515-3.465 1.055 1.066-3.574 3.523-1.606 1.008Zm10.386-8.465 5.426-4.012.894 1.203-5.43 4.016Zm11.05-7.93 3.204-1.719.356.665-.5-.563 2.324-2.07 1 1.12-2.39 2.13-3.286 1.758Zm10.548-8.074.262-.215 3.89-2.406.395.64-.57-.488 1.261-1.476 1.14.972-1.34 1.567-3.944 2.441-.395-.64.48.578-.218.18Zm9.34-9.195 2.351-3.43 2.332-1.652.867 1.226-2.222 1.57-.434-.613.617.426-2.273 3.32Zm9.75-9.383.332-.309 4.785-4.125.98 1.137-4.777 4.117-.488-.566.507.554-.328.297Zm0 0"/></g><g clip-path="url(#k)"><path fill="#AB63FA" d="m52.23 77.684 3.848-1.473.27.703-.684-.309 2.906-6.511 1.367.613-3.03 6.797-4.137 1.578Zm13.317-11.727 1.707-3.184 5.148-5.87 1.13.988-5.094 5.804-.563-.492.66.356-1.668 3.109Zm16.96-9.434 1.231 1.055-.488.57v-.75l4.176.008 4.062 4.38-.55.51-.626-.417.075-.113 1.25.832-.602.906-4.488-4.84.55-.508v.75l-4.124-.008-1.442-1.238Zm15.634 3.008 1.07 1.344-.586.469-.2-.723 4.286-1.18 4.102 4.368-1.094 1.027-3.793-4.04.547-.51.199.722-4.324 1.187-1.38-1.73Zm18.062 10.258 2.219 2.668-.574.48.422-.62 6.437 4.367-.844 1.238-6.523-4.422-2.29-2.75Zm16.387 13.273.836.086 3.96 1.883-.323.68.238-.711 3.949 1.316 1.922 1.336-.86 1.23-1.832-1.273.43-.617-.238.711-3.89-1.297-3.884-1.847.325-.68-.075.746-.707-.07Zm20.566 8.727 3.45 1.629-.32.676-.18-.727 3.972-.984 3.594.445-.188 1.488-3.453-.43.094-.745.18.73-4.098 1.016-3.691-1.742Zm21.004 3.7 5.61 3.241 3.835 3.012-.925 1.18-3.797-2.98.465-.59-.375.648-5.563-3.21Zm16.578 14.988.797 1.488-.66.355.574-.484 3.848 4.55-.574.485.492-.566 2.722 2.355-.984 1.137-2.766-2.395-3.937-4.66-.832-1.558Zm17.27 11.601 2.156.2 7.7.824-.079.746-.293-.692 1.242-.527.586 1.379-1.422.605-7.87-.843-2.157-.2Zm21.715-2.312 3.285-.68.152.734-.234-.715 3.898-1.277 3.867-.61.235 1.481-3.809.602-.117-.742.234.714-3.879 1.274-3.328.687Zm21.297-6.61 1.132-.351.223.715-.36-.66 7.688-4.184.36.66-.438-.61 1.063-.765.878 1.215-1.105.797-7.793 4.242-1.2.375Zm19.34-11.078 4.71-2.644.368.652-.391-.637 3.848-2.355 1.132-.703.79 1.277-1.141.703-3.86 2.363-4.722 2.653Zm19.23-11.61.855-.53 3.875-1.977.34.668-.402-.633 3.84-2.453.402.633-.55-.512.952-1.027 1.102 1.02-1.02 1.097-3.949 2.523-3.883 1.985-.34-.668.395.636-.828.512Zm18.348-12.706 1.71-1.035.387.644-.457-.594 3.84-2.957.457.594-.473-.582 3.414-2.785.95 1.164-3.426 2.793-3.88 2.984-1.745 1.059Zm17.519-13.832 3.34-3.137 3.918-2.336.383.645-.532-.532 1.606-1.61 1.062 1.063-1.671 1.672-3.93 2.344-.383-.644.512.546-3.278 3.082Zm16.645-14.942 1.992-2.004.531.528-.582-.473 3.902-4.781 1.907-1.496.925 1.183-1.843 1.442-.461-.59.582.473-3.871 4.746-2.016 2.027Zm0 0"/></g><g clip-path="url(#l)"><path fill="#FFA15A" d="m52.7 64.195 3.847 1.059-.2.723-.687-.297 1.09-2.535 1.379.593-1.352 3.137-4.476-1.23Zm4.937-3.117.89-2.066 1.38.593-.891 2.067Zm1.781-4.133.117-.273 4.598-5.996.664 1.183-1.309.735-.11-.192.657-.367.594.457-3.848 5.016-.593-.457.687.297-.078.191Zm6.48-3.12L67 55.784l-1.309.735-1.101-1.961Zm2.2 3.925.43.766-.653.367-.137-.738 3.848-.711.137.738-.364-.656 1.711-.95.727 1.309-1.817 1.012-4.496.832-.695-1.239Zm6.941-2.277.516-.285 2.183 1.156-.699 1.324-1.828-.965.352-.664.363.656-.16.09Zm4.691 1.922.032.015-.352.664-.308-.683 4.023-1.825 2.684.262-.145 1.492-2.488-.242.074-.746.309.684-4.176 1.89-.356-.187Zm8.524-.75 1.793 1.359-.906 1.195-1.793-1.36Zm3.246 2.222 3.629-.015 2.48 2.898-1.14.977-2.254-2.637.57-.488.004.75-3.285.015Zm7.57 4.594.125.148-.57.485.5-.555 1.531 1.375-1.004 1.113-1.566-1.406-.156-.183Zm3.258 2.96.645.583-.5.555-.075-.746 4.11-.418 1.898 1.293-.847 1.238-1.668-1.137.421-.617.075.746-4.168.422-.895-.805Zm7.938 2.532 1.859 1.266-.844 1.242-1.863-1.27Zm3.718 2.535.438.297-.422.621.16-.734 4.203.91 1.16 2.375-1.347.66-1-2.05.672-.329-.16.73-3.989-.863-.558-.378Zm6.532 5.492.988 2.02-1.348.66-.988-2.023Zm1.832 3.637 3.593 2.332-.406.63.238-.712 2.332.781-.472 1.422-2.426-.808-3.676-2.387Zm7.703 3.504 2.25.035-.024 1.5-2.25-.035Zm4.66 1.074 2.836 2.387-.484.574.207-.722 2.925.843-.414 1.442-3.078-.887-2.957-2.488Zm7.66 4.383 1.664 1.512-1.008 1.11-1.664-1.513Zm3.227 2.715 3.289 1.379-.29.691-.03-.746 3.18-.137.062 1.497-3.348.144-3.445-1.445Zm8.593 1.781 2.098.809-.539 1.398-2.102-.808Zm4.157 1.207 2.015.352 3.95 2-.34.668.152-.735.492.106-.304 1.469-.59-.125-3.938-1.996.34-.668-.129.738-1.902-.328Zm8.472 2.844 1.328.277.977.813-.96 1.152-.833-.691.48-.578-.152.734-1.144-.238Zm4.032 2.527 1.289 1.07-.48.579.136-.739 4.039.75 1.039.903-.984 1.133-.883-.77.492-.566-.137.738-4.031-.75-1.437-1.195Zm7.722 4.04 1.266 1.101-.492.566.472-.586.446.36-.946 1.168-.453-.367-1.277-1.11Zm3.442 2.855 5.254 4.238-.942 1.168-5.254-4.238Zm6.574 6.402 1.027 2-1.336.688-1.027-2.004Zm2.05 4.004.903 1.758-.668.34.625-.414 2.645 3.976-1.25.832-2.668-4.011-.918-1.797Zm4.594 7.328 1.809 1.336-.895 1.207-1.808-1.34Zm3.618 2.676.156.117-.446.602.29-.692 6.043 2.543-.583 1.383-6.125-2.578-.23-.168Zm7.925 3.25 2.243.203-.137 1.496-2.242-.207Zm4.493.426 6.593.703-.078.742-.344-.664.106-.055.687 1.332-.304.16-6.82-.726Zm8.273-.309 1.738-.898.266-.137.68 1.34-.258.129-1.735.898Zm4.012-2.05 6.02-3.06.675 1.34-6.016 3.055Zm8.023-4.079 2.008-1.015.68 1.336-2.008 1.02Zm4.012-2.035 1.144-.582 3.93-.996.184.727-.34-.668 1.414-.715.676 1.34-1.485.75-3.93.996-.183-.727.34.668-1.07.543Zm8.34-3.246 2.007-1.016.676 1.34-2.008 1.012Zm4.015-2.031.317-.16 3.91-1.102.203.723-.5-.559 1.852-1.652.996 1.12-1.977 1.767-4.008 1.128-.203-.722.34.668-.254.129Zm7.457-4.246.391-.348 1.7-.887.69 1.332-1.613.84-.347-.664.5.559-.32.285Zm4.082-2.274.23-.12.349.663-.446-.601 5.211-3.868.89 1.204-5.257 3.906-.281.144Zm7.149-5.27 1.805-1.34.894 1.204-1.805 1.344Zm3.613-2.683.902-.668.45.602-.493-.567 3.84-3.343.399-.352.988 1.133-.402.347-3.864 3.364-.925.691Zm6.797-5.805 1.695-1.476.985 1.129-1.696 1.476Zm3.094-3.101 2.508-2.91 2.773-1.543.73 1.312-2.66 1.477-.363-.656.57.488-2.422 2.812Zm6.906-5.621 1.555-1.625 1.086 1.035-1.555 1.629Zm3.11-3.254.163-.168 5.348-3.941.89 1.207-5.296 3.902-.445-.606.542.52-.117.125Zm7.324-5.445.578-.426.445.605-.582-.476.973-1.184 1.16.95-1.031 1.257-.653.48Zm2.836-3.223 1.507-1.844 3.61-2.762.91 1.192-3.535 2.707-.457-.594.582.477-1.453 1.773Zm6.902-5.973 1.789-1.367.91 1.188-1.785 1.37Zm3.574-2.738 2.652-2.027 2.887-1.91.828 1.25-2.867 1.894-.414-.625.457.598-2.633 2.011Zm7.664-5.047 2.102-.812.539 1.402-2.098.809Zm4.2-1.621 2.488-.96.27.698-.52-.543 2.945-2.828 1.039 1.082-3.055 2.934-2.629 1.015Zm7.367-4.945 2.168-.606.402 1.446-2.168.605Zm3.75-1.63 2.683-2.269 2.477-2.086.965 1.149-2.473 2.082-2.684 2.27Zm7.09-5.812 2.015-1 .668 1.344-2.016 1Zm3.632-2.027 3.453-4.004 1.223-1.012.957 1.157-1.176.972-.476-.578.566.488-3.41 3.957Zm6.41-6.453.957-.79.88-.612.855 1.234-.856.59-.425-.614.476.579-.93.77Zm3.688-2.684 1.14-.793.856 1.23-1.145.794Zm0 0"/></g><g clip-path="url(#m)"><path fill="#19D3F3" d="m51.96 70.594 4.661-4.785 2.527 6.414-1.394.55-2.106-5.335.7-.274.539.523-3.848 3.95Zm8.837 5.816.09.219-.7.277-.007-.75 2.011-.02.016 1.5-2.527.024-.278-.703Zm5.738 1.649 1.895 1.656 3.894 5.265-.601.446-.473-.582 1.816-1.485.946 1.164-2.426 1.98-4.313-5.831.602-.445-.492.566-1.836-1.606Zm10.957 4.87 1.723 1.45-.965 1.148-1.723-1.449Zm5.485 3.54.609.304-.336.668-.082-.746 3.848-.425.082.746-.395-.637L90.543 84l.394.637-.503-.555 1.62-1.465 1.005 1.113-1.668 1.508-4.043 2.504-4.235.469-.808-.402Zm13.472-5.106 1.88 1.242-.829 1.25-1.879-1.238Zm5.246.23.836-.35 4.196 2.507 5.062 3.73-.89 1.207-5.032-3.707.445-.605-.386.645-3.84-2.297.387-.645.289.692-.485.207Zm13.102 7.286 2.062-.902.602 1.375-2.063.902Zm5.648-3.317 1.34-.968 4.3 4.625-.55.511.2-.722 3.84 1.047-.2.726-.29-.695.583-.238.574 1.382-.816.34-4.293-1.172-3.996-4.296.55-.512.438.61-.8.577Zm13.907 3.16 2.164.626-.418 1.437-2.16-.625Zm5.941 3.544 1.129 1.046-.512.551.336-.672 3.91 1.965 3.938 3.13.383.374-1.047 1.074-.356-.347.524-.535-.47.585-3.847-3.058.469-.59-.336.672-3.937-1.977-1.207-1.12Zm12.402 9.539.266.257-.524.54.34-.672 1.676.855-.68 1.336-1.777-.906-.348-.336Zm5.785 2.765 5.88 2.172 3.94 3.399-.488.566.29-.691.043.02-.579 1.382-.152-.063-3.93-3.386.489-.57-.262.703-5.75-2.125Zm13.817 7.2 2.078.867-.578 1.383-2.078-.868Zm6.156 2.957 1.262.714-.367.653.28-.696 8.005 3.262.601 1.735-1.418.492-.488-1.414.707-.246-.285.695-7.73-3.152-1.305-.739Zm11.254 9.921.734 2.125-1.418.493-.734-2.13Zm2.32 6.172 3.348 5.864-.652.37.21-.718 3.84 1.133.48.14-.425 1.438-.476-.14-4.13-1.22-3.495-6.12Zm11.54 8.067 2.16.636-.426 1.438-2.16-.637Zm6.48 1.812.242.063-.191.726.144-.738 7.688 1.523-.145.739-.328-.676 2.84-1.387.66 1.348-3.07 1.496-7.961-1.574-.266-.07Zm14.234-1.797.906-.476 1.313-.395.43 1.438-1.243.375-.214-.719.347.664-.843.441Zm6.309-2.39 9.93-4.864.187-.09.633 1.364-.164.074-9.93 4.863Zm14.11-6.856 1.933-1.152.765 1.289-1.933 1.152Zm5.796-3.453 1.496-.89.383.64-.402-.633 3.886-2.468 4.52-2.137.64 1.355-4.476 2.118-.32-.676.402.633-3.855 2.449-1.504.894Zm13.95-7.414 2.034-.96.641 1.355-2.035.964Zm5.449-3.535 1.285-1.09 3.922-1.96.336.671-.489-.57 3.906-3.344.332-.18.72 1.317-.262.144-.36-.66.488.57-3.918 3.352-3.921 1.96-.336-.667.484.57-1.215 1.031Zm13.246-8.625 1.976-1.074.715 1.316-1.973 1.074Zm5.562-3.55 1.645-1.294.464.59-.488-.57 3.903-3.332 3.628-2.055.743 1.305-3.567 2.02-.37-.653.487.57-3.859 3.297-1.656 1.3Zm13.324-8.54.02-.004.3.684-.488-.567 1.696-1.453.976 1.137-1.781 1.527-.117.051Zm5.407-3.957 2.308-.988.293.691-.457-.594 3.883-2.98 3.445-1.938.735 1.309-3.399 1.91-.367-.656.457.598-3.914 3.004-2.398 1.023Zm12.816-8.578.871-.75 1.05-.637.774 1.285-.996.602-.387-.64.489.566-.82.71Zm5.602-3.781 2.93-2.344.468.582-.531-.527 3.926-3.95 1.886-1.027.719 1.316-1.793.977-.36-.656.532.527-3.879 3.899-2.96 2.375Zm12.757-9.293 1.868-.84.308.683-.422-.617.168-.113.844 1.238-.223.153-1.93.863Zm5.524-3.332 3.851-3.922 3.899-2.727.43.617-.524-.539.816-.789 1.043 1.075-.855.832-3.89 2.718-.43-.613.535.527-3.805 3.871Zm0 0"/></g><path fill="none" stroke="#000" stroke-width=".75" d="M51.75 204.375h309m-309-191.25h309M52.125 13.5V204m308.25-190.5V204"/><path fill="none" stroke="#444" stroke-width=".75" d="M52.5 204.75v3.75m76.875-3.75v3.75m76.875-3.75v3.75m76.875-3.75v3.75M360 204.75v3.75"/><g fill="#2A3F5F"><use xlink:href="#n" x="41.459" y="219.3"/><use xlink:href="#o" x="48.824" y="219.3"/><use xlink:href="#p" x="54.546" y="219.3"/><use xlink:href="#q" x="57.82" y="219.3"/></g><g fill="#2A3F5F"><use xlink:href="#n" x="118.334" y="219.3"/><use xlink:href="#o" x="125.699" y="219.3"/><use xlink:href="#p" x="131.421" y="219.3"/><use xlink:href="#r" x="134.695" y="219.3"/></g><use xlink:href="#o" x="203.389" y="219.3" fill="#2A3F5F"/><g fill="#2A3F5F"><use xlink:href="#o" x="275.766" y="219.3"/><use xlink:href="#p" x="281.488" y="219.3"/><use xlink:href="#r" x="284.762" y="219.3"/></g><g fill="#2A3F5F"><use xlink:href="#o" x="352.641" y="219.3"/><use xlink:href="#p" x="358.363" y="219.3"/><use xlink:href="#q" x="361.637" y="219.3"/></g><path fill="none" stroke="#444" stroke-width=".75" d="M51.75 204H48m3.75-47.625H48m3.75-47.625H48m3.75-47.625H48M51.75 13.5H48"/><use xlink:href="#o" x="40.478" y="207.15" fill="#2A3F5F"/><g fill="#2A3F5F"><use xlink:href="#o" x="25.761" y="159.525"/><use xlink:href="#p" x="31.483" y="159.525"/><use xlink:href="#o" x="34.757" y="159.525"/><use xlink:href="#s" x="40.478" y="159.525"/></g><g fill="#2A3F5F"><use xlink:href="#o" x="31.483" y="111.9"/><use xlink:href="#p" x="37.204" y="111.9"/><use xlink:href="#r" x="40.478" y="111.9"/></g><g fill="#2A3F5F"><use xlink:href="#o" x="25.761" y="64.275"/><use xlink:href="#p" x="31.483" y="64.275"/><use xlink:href="#r" x="34.757" y="64.275"/><use xlink:href="#s" x="40.478" y="64.275"/></g><g fill="#2A3F5F"><use xlink:href="#o" x="31.483" y="16.65"/><use xlink:href="#p" x="37.204" y="16.65"/><use xlink:href="#q" x="40.478" y="16.65"/></g><path fill="none" stroke="#2A3F5F" stroke-width="1.5" d="M321.563 188.762h30.75v5.715h-30.75Zm0 0"/><g fill="#2A3F5F"><use xlink:href="#t" x="60.15" y="120.84"/><use xlink:href="#u" x="68.169" y="120.84"/><use xlink:href="#v" x="75.377" y="120.84"/><use xlink:href="#u" x="80.596" y="120.84"/><use xlink:href="#w" x="87.805" y="120.84"/><use xlink:href="#u" x="95.285" y="120.84"/><use xlink:href="#x" x="102.493" y="120.84"/><use xlink:href="#y" x="106.082" y="120.84"/><use xlink:href="#z" x="109.671" y="120.84"/><use xlink:href="#A" x="117.885" y="120.84"/></g><g fill="#2A3F5F"><use xlink:href="#B" x="88.65" y="135.225"/><use xlink:href="#C" x="94.82" y="135.225"/><use xlink:href="#D" x="100.225" y="135.225"/><use xlink:href="#E" x="103.772" y="135.225"/><use xlink:href="#F" x="108.461" y="135.225"/><use xlink:href="#G" x="114.156" y="135.225"/><use xlink:href="#s" x="117.32" y="135.225"/></g><path fill="#EF553B" d="M62.398 130.965h2.25v1.5h-2.25m4.5-1.5h2.25v1.5h-2.25m4.5-1.5h2.25v1.5h-2.25m4.5-1.5h2.25v1.5h-2.25m4.5-1.5h2.25v1.5h-2.25"/><g fill="#2A3F5F"><use xlink:href="#B" x="88.65" y="149.475"/><use xlink:href="#C" x="94.82" y="149.475"/><use xlink:href="#D" x="100.225" y="149.475"/><use xlink:href="#E" x="103.772" y="149.475"/><use xlink:href="#F" x="108.461" y="149.475"/><use xlink:href="#G" x="114.156" y="149.475"/><use xlink:href="#H" x="117.32" y="149.475"/></g><path fill="#00CC96" d="M62.398 145.215h6.75v1.5h-6.75m13.5-1.5h6.75v1.5h-6.75"/><g fill="#2A3F5F"><use xlink:href="#B" x="88.65" y="163.725"/><use xlink:href="#C" x="94.82" y="163.725"/><use xlink:href="#D" x="100.225" y="163.725"/><use xlink:href="#E" x="103.772" y="163.725"/><use xlink:href="#F" x="108.461" y="163.725"/><use xlink:href="#G" x="114.156" y="163.725"/><use xlink:href="#I" x="117.32" y="163.725"/></g><path fill="#AB63FA" d="M62.398 159.465h11.25v1.5h-11.25"/><g fill="#2A3F5F"><use xlink:href="#B" x="88.65" y="177.975"/><use xlink:href="#C" x="94.82" y="177.975"/><use xlink:href="#D" x="100.225" y="177.975"/><use xlink:href="#E" x="103.772" y="177.975"/><use xlink:href="#F" x="108.461" y="177.975"/><use xlink:href="#G" x="114.156" y="177.975"/><use xlink:href="#q" x="117.32" y="177.975"/></g><path fill="#FFA15A" d="M62.398 173.715h6.75v1.5h-6.75m9-1.5h2.25v1.5h-2.25m4.5-1.5h6.75v1.5h-6.75"/><g fill="#2A3F5F"><use xlink:href="#B" x="88.65" y="192.225"/><use xlink:href="#C" x="94.82" y="192.225"/><use xlink:href="#D" x="100.225" y="192.225"/><use xlink:href="#E" x="103.772" y="192.225"/><use xlink:href="#F" x="108.461" y="192.225"/><use xlink:href="#G" x="114.156" y="192.225"/><use xlink:href="#r" x="117.32" y="192.225"/></g><path fill="#19D3F3" d="M62.398 187.965h11.25v1.5h-11.25m15.75-1.5h2.25v1.5h-2.25"/><g fill="#2A3F5F"><use xlink:href="#J" x="148.045" y="239.405"/><use xlink:href="#K" x="154.684" y="239.405"/></g><g fill="#2A3F5F"><use xlink:href="#L" x="154.684" y="241.61"/><use xlink:href="#M" x="159.098" y="241.61"/></g><use xlink:href="#N" x="163.678" y="241.61" fill="#2A3F5F"/><use xlink:href="#O" x="168.139" y="241.61" fill="#2A3F5F"/><g fill="#2A3F5F"><use xlink:href="#P" x="172.488" y="241.61"/><use xlink:href="#Q" x="176.867" y="241.61"/><use xlink:href="#R" x="179.451" y="241.61"/></g><g fill="#2A3F5F"><use xlink:href="#S" x="185.645" y="241.61"/><use xlink:href="#Q" x="190.078" y="241.61"/><use xlink:href="#T" x="192.662" y="241.61"/></g><use xlink:href="#U" x="197.313" y="241.61" fill="#2A3F5F"/><use xlink:href="#V" x="201.964" y="241.61" fill="#2A3F5F"/><use xlink:href="#V" x="203.981" y="241.61" fill="#2A3F5F"/><use xlink:href="#K" x="205.998" y="239.405" fill="#2A3F5F"/><g fill="#2A3F5F"><use xlink:href="#K" x="205.998" y="239.405"/><use xlink:href="#W" x="209.689" y="239.405"/><use xlink:href="#X" x="214.457" y="239.405"/><use xlink:href="#Y" x="220.712" y="239.405"/><use xlink:href="#Z" x="227.89" y="239.405"/><use xlink:href="#aa" x="232.658" y="239.405"/><use xlink:href="#ab" x="238.964" y="239.405"/><use xlink:href="#ac" x="243.101" y="239.405"/><use xlink:href="#ad" x="249.474" y="239.405"/><use xlink:href="#ae" x="259.687" y="239.405"/></g><g fill="#2A3F5F"><use xlink:href="#af" x="10.5" y="168.91"/><use xlink:href="#ag" x="10.5" y="161.609"/><use xlink:href="#ah" x="10.5" y="155.236"/><use xlink:href="#ah" x="10.5" y="152.355"/><use xlink:href="#ai" x="10.5" y="149.473"/><use xlink:href="#aj" x="10.5" y="146.592"/><use xlink:href="#ak" x="10.5" y="139.948"/><use xlink:href="#al" x="10.5" y="133.406"/><use xlink:href="#am" x="10.5" y="129.714"/><use xlink:href="#an" x="10.5" y="120.865"/><use xlink:href="#ao" x="10.5" y="113.687"/><use xlink:href="#al" x="10.5" y="107.048"/><use xlink:href="#ap" x="10.5" y="103.356"/><use xlink:href="#aq" x="10.5" y="98.588"/><use xlink:href="#ar" x="10.5" y="92.333"/><use xlink:href="#as" x="10.5" y="85.156"/><use xlink:href="#at" x="10.5" y="80.388"/><use xlink:href="#au" x="10.5" y="74.082"/><use xlink:href="#ag" x="10.5" y="69.944"/><use xlink:href="#av" x="10.5" y="63.571"/><use xlink:href="#aw" x="10.5" y="53.358"/></g><g fill="#2A3F5F"><use xlink:href="#ax" x="170.263" y="81"/><use xlink:href="#ay" x="177.848" y="81"/><use xlink:href="#az" x="184" y="81"/><use xlink:href="#G" x="189.691" y="81"/><use xlink:href="#aA" x="192.855" y="81"/><use xlink:href="#G" x="200.22" y="81"/><use xlink:href="#aB" x="203.384" y="81"/><use xlink:href="#az" x="207.471" y="81"/><use xlink:href="#G" x="213.162" y="81"/></g><use xlink:href="#aC" x="213.162" y="82.89" fill="#2A3F5F"/><use xlink:href="#aD" x="217.144" y="82.89" fill="#2A3F5F"/><use xlink:href="#aE" x="221.126" y="82.89" fill="#2A3F5F"/><use xlink:href="#aE" x="222.853" y="82.89" fill="#2A3F5F"/><use xlink:href="#aF" x="224.58" y="82.89" fill="#2A3F5F"/><use xlink:href="#aG" x="226.792" y="82.89" fill="#2A3F5F"/><use xlink:href="#aH" x="230.712" y="82.89" fill="#2A3F5F"/><use xlink:href="#aI" x="232.439" y="82.89" fill="#2A3F5F"/><use xlink:href="#aJ" x="235.718" y="82.89" fill="#2A3F5F"/><use xlink:href="#aB" x="238.197" y="81" fill="#2A3F5F"/><g fill="#2A3F5F"><use xlink:href="#aK" x="210.003" y="195"/><use xlink:href="#aL" x="213.844" y="195"/><use xlink:href="#aM" x="219.306" y="195"/><use xlink:href="#aM" x="221.776" y="195"/><use xlink:href="#aN" x="224.246" y="195"/><use xlink:href="#aO" x="226.715" y="195"/><use xlink:href="#aP" x="232.411" y="195"/><use xlink:href="#G" x="238.018" y="195"/><use xlink:href="#aQ" x="241.182" y="195"/><use xlink:href="#aN" x="248.547" y="195"/><use xlink:href="#aO" x="251.017" y="195"/><use xlink:href="#aR" x="256.712" y="195"/><use xlink:href="#aL" x="262.32" y="195"/><use xlink:href="#aQ" x="267.782" y="195"/><use xlink:href="#aS" x="275.147" y="195"/><use xlink:href="#H" x="282.513" y="195"/><use xlink:href="#o" x="288.234" y="195"/><use xlink:href="#G" x="293.956" y="195"/><use xlink:href="#aT" x="297.12" y="195"/><use xlink:href="#aU" x="305.874" y="195"/><use xlink:href="#aV" x="311.235" y="195"/></g></svg>