<svg xmlns="http://www.w3.org/2000/svg" xmlns:xlink="http://www.w3.org/1999/xlink" width="263.04" height="263.04"><style>.B{filter:url(#A)}.C{fill:#000}.D{fill-opacity:.698}.E{fill-rule:nonzero}.F{fill-opacity:1}.G{fill:#fff}.H{clip-rule:nonzero}.I{fill:#36c}.J{fill:#dc3912}.K{fill:#f90}.L{fill:#109618}.M{fill:#444}.N{fill:#909}.O{fill:#0099c6}.P{fill:#d47}</style><defs><path id="B" d="M.141-5.562q1.062.55 1.391 1.422.329.861-.141 1.781Q.904-1.434 0-1.218c-.594.148-1.242.039-1.953-.328q-1.078-.562-1.406-1.422-.34-.855.141-1.781.47-.918 1.375-1.141.907-.234 1.984.328m-.391.75q-.841-.451-1.437-.328c-.596.123-.695.324-.906.719s-.227.777-.062 1.141q.25.533 1.094.984.815.423 1.406.313c.591-.11.695-.305.906-.703s.227-.773.063-1.141Q.577-4.391-.25-4.812m0 0"/><path id="C" d="M-1.781-5.297v.031A1.3 1.3 0 0 0-2-4.969l-.219.359a1.74 1.74 0 0 0-.187.734 2.8 2.8 0 0 0 .063.813L.75-1.453l-.375.734-4.359-2.265.375-.734.641.328q-.123-.64-.094-1.031.033-.405.219-.75.096-.2.156-.266l.156-.25zm0 0"/><path id="D" d="M1.516-3.016a3.4 3.4 0 0 1-.156.516q-.094.268-.187.438-.345.691-.891.844c-.546.153-.805.016-1.328-.266l-2.328-1.203-.25.5-.609-.312.25-.5-1.25-.656.391-.734 1.25.656.797-1.531.609.313-.797 1.531L-1-2.391l.563.281a.84.84 0 0 0 .406.063.6.6 0 0 0 .359-.109q.153-.106.313-.406.094-.188.141-.422l.063-.328.031-.047zm0 0"/><path id="E" d="m2.266-4.359-.375.734-2.484-1.297a4 4 0 0 0-.578-.25 1.25 1.25 0 0 0-.5-.094.7.7 0 0 0-.375.156 1.3 1.3 0 0 0-.328.422 1.8 1.8 0 0 0-.172.719 3.4 3.4 0 0 0 .047.828L.75-1.453l-.375.734-6.078-3.156.375-.734 2.203 1.141a3.7 3.7 0 0 1-.062-.937 2 2 0 0 1 .219-.844c.25-.469.586-.75 1-.844q.61-.155 1.406.266zm0 0"/><path id="F" d="m3.688-7.078-.391.734L.813-7.641l-.547-.25A1 1 0 0 0-.203-8a.62.62 0 0 0-.391.125q-.169.11-.344.438-.154.3-.156.688-.012.376.047.828a1.5 1.5 0 0 1 .25.094l.234.109 2.781 1.453-.375.734-2.484-1.297-.562-.266q-.281-.122-.469-.109a.7.7 0 0 0-.391.141q-.17.11-.328.438a1.34 1.34 0 0 0-.172.672q-.013.377.063.813L.75-1.453l-.375.734-4.359-2.265.375-.734.484.25a4 4 0 0 1-.078-.906q.019-.434.219-.828.222-.434.578-.656.344-.216.766-.203c-.094-.414-.133-.773-.125-1.078s.09-.594.234-.875q.375-.716.984-.828c.609-.112.875.027 1.406.297zm0 0"/><path id="G" d="M.156-5.719q.562.3.906.688a2.4 2.4 0 0 1 .516.781q.169.438.156.859a1.9 1.9 0 0 1-.234.813 2.4 2.4 0 0 1-.422.594 4 4 0 0 1-.531.422l.188.156-.359.688-6.078-3.156.375-.734 2.172 1.125a4.3 4.3 0 0 1-.062-.859 2.2 2.2 0 0 1 .234-.875q.41-.78 1.234-.922c.824-.142 1.188.047 1.906.422zm-.375.781q-.796-.406-1.328-.359c-.532.047-.629.234-.828.609a2.2 2.2 0 0 0-.187.734 3.7 3.7 0 0 0 .031.797L-.047-1.86l.484-.453a2.4 2.4 0 0 0 .328-.484q.311-.607.078-1.156-.224-.545-1.062-.984zm0 0"/><path id="H" d="m-4.312-4.156-.422.844-.75-.406.422-.844zM.766-1.469l-.391.734L-3.984-3l.391-.734zm0 0"/><path id="I" d="M1.781-4.094a5 5 0 0 1-.094.844c-.055.25-.141.5-.266.75a3.2 3.2 0 0 1-.594.797 2.1 2.1 0 0 1-.75.453 2.05 2.05 0 0 1-.953.063 3.6 3.6 0 0 1-1.078-.359q-1.077-.562-1.375-1.453-.311-.903.188-1.875c.125-.25.289-.473.484-.672a5 5 0 0 1 .609-.547l.828.438-.031.047a2.9 2.9 0 0 0-.766.484 2.1 2.1 0 0 0-.5.625c-.219.406-.25.805-.094 1.188q.221.582 1.047 1.016c.523.273.984.359 1.391.266s.719-.348.938-.766a3 3 0 0 0 .172-.484q.077-.263.078-.484a3 3 0 0 0-.031-.406l-.031-.297.031-.047zm0 0"/><path id="J" d="M.766-5.453q.749.394.953 1.25c.133.563.047 1.148-.266 1.75q-.486.938-1.266 1.25-.78.3-1.547-.109a1.58 1.58 0 0 1-.719-.734 2.23 2.23 0 0 1-.219-1.109l-.016-.016q-.5.329-.922.406-.42.063-.859-.172a1.52 1.52 0 0 1-.812-1.094q-.155-.762.266-1.594.47-.873 1.156-1.172.69-.312 1.328.016.393.205.656.656.253.44.219 1.031l.016.016q.517-.435 1.016-.547c.32-.07.66-.016 1.016.172m-3.312-.562a.91.91 0 0 0-.828 0q-.42.188-.687.688-.247.486-.172.938a.81.81 0 0 0 .469.641q.27.14.563.094c.199-.039.402-.141.609-.297l.406-.328.469-.422q-.06-.515-.266-.812a1.44 1.44 0 0 0-.562-.5zM.422-4.609c-.242-.113-.457-.16-.656-.141s-.445.156-.75.406a4 4 0 0 0-.359.313l-.516.484a1.67 1.67 0 0 0 .219.828c.148.25.359.449.641.594.344.18.695.203 1.047.078a1.5 1.5 0 0 0 .844-.734c.195-.383.25-.738.156-1.062Q.92-4.34.423-4.609zm0 0"/><path id="K" d="M.5-5.469a2.3 2.3 0 0 1 .703.547q.31.33.422.719.122.422.063.891a2.8 2.8 0 0 1-.312.984 4.3 4.3 0 0 1-.578.859 5 5 0 0 1-.641.625l-.828-.437.031-.062q.375-.2.75-.547a2.7 2.7 0 0 0 .578-.781 1.6 1.6 0 0 0 .203-.562q.06-.31-.031-.609a1.2 1.2 0 0 0-.266-.469 1.8 1.8 0 0 0-.516-.391 1.1 1.1 0 0 0-.547-.141 1.2 1.2 0 0 0-.484.094 1.5 1.5 0 0 0-.469.406 3.2 3.2 0 0 0-.406.609q-.187.346-.297.688a4 4 0 0 0-.172.594l-3.016-1.562 1.813-3.5.703.359-1.422 2.75 1.531.797a3 3 0 0 1 .156-.344l.141-.312a4 4 0 0 1 .531-.781 2.4 2.4 0 0 1 .625-.516 1.65 1.65 0 0 1 .797-.172q.422.001.938.266zm0 0"/><path id="L" d="M-2.406-5.641c.586.305.953.652 1.109 1.047q.223.58-.141 1.266-.375.736-.984.875c-.609.139-.898-.008-1.484-.312S-4.852-3.414-5-3.812q-.233-.593.125-1.297c.25-.469.586-.742 1-.828.406-.094.898.008 1.469.297zm-.219-3.547L1.609-3.11l-.328.656-4.25-6.078zm5.188.313q.872.47 1.094 1.063.233.595-.125 1.297c-.358.702-.57.75-.984.844q-.61.13-1.469-.328Q.199-6.451-.03-7.03q-.247-.591.109-1.281.375-.733.984-.875.621-.14 1.5.313zm-5.328 3.922q-.668-.342-1.031-.297-.357.033-.562.406-.2.409-.031.719c.169.31.398.43.844.656q.69.363 1.047.328.346-.045.547-.453.205-.373.047-.687-.169-.31-.859-.672zm4.969-3.219q-.674-.341-1.031-.312-.346.035-.547.422-.222.392-.047.719.186.317.859.656.686.364 1.031.328.34-.046.563-.437.2-.387.031-.703c-.169-.316-.402-.43-.859-.672zm0 0"/><path id="M" d="M3 2.313a4.6 4.6 0 0 1-.672-.25 2.4 2.4 0 0 1-.562-.375 2.9 2.9 0 0 1-.547-.656 1.6 1.6 0 0 1-.203-.719q-.033-.391.125-.781a3 3 0 0 1 .531-.812q.686-.78 1.484-.844.808-.059 1.5.563a2.6 2.6 0 0 1 .453.531q.2.299.328.609l-.531.594-.031-.031a2.4 2.4 0 0 0-.234-.734 2 2 0 0 0-.422-.547q-.438-.388-.953-.312-.517.065-1.047.656-.504.552-.516 1.063-.019.528.438.938c.113.102.238.188.375.25a1.8 1.8 0 0 0 .391.156q.153.046.313.063l.266.047.031.031zm0 0"/><path id="N" d="m3.109 2.766-.531-.469.313-.344a4 4 0 0 1-.797-.156 1.6 1.6 0 0 1-.641-.359Q.966.998.953.453q-.017-.531.5-1.109L3.25-2.687l.531.469L2.203-.437a4 4 0 0 0-.328.422.9.9 0 0 0-.156.359.65.65 0 0 0 .031.359c.039.113.141.242.297.391q.187.17.531.281.358.106.703.125L5.344-.828l.531.469zm0 0"/><path id="O" d="M4.672 1.297q-.347.405-.734.609a2.6 2.6 0 0 1-.766.297 1.9 1.9 0 0 1-.734-.078 2 2 0 0 1-.625-.359 2.5 2.5 0 0 1-.406-.469 2.6 2.6 0 0 1-.234-.516L1 .891.516.453l3.859-4.344.531.469-1.375 1.547c.25.012.492.055.734.125a1.5 1.5 0 0 1 .656.375c.375.324.539.727.5 1.203q-.065.702-.75 1.469zM4.109.859q.498-.563.563-1.016.076-.466-.328-.828a2 2 0 0 0-.547-.312 1.9 1.9 0 0 0-.672-.125L1.547.359c.094.195.18.352.266.469a2.4 2.4 0 0 0 .313.375q.451.387.938.328.497-.064 1.047-.672zm0 0"/><path id="P" d="m4.328-2.672-.609-.531.484-.547.609.531zM1.047.938.531.469l2.766-3.125.516.469zm0 0"/><path id="Q" d="M6.422-.625 1.391 1.234.797.703l5.266-1.891-2.359-2.094.422-.484L6.97-1.235zm0 0"/><path id="R" d="M5.156-.797c-.375.406-.746.633-1.109.672Q3.513-.06 3.031-.5q-.516-.451-.516-.984.014-.53.578-1.141.561-.639 1.094-.703c.533-.064.695.086 1.031.375q.497.457.484 1-.001.534-.547 1.156zm2.938.547L2.219 1.969l-.453-.406L7.625-.656zM6.781 3.953q-.563.622-1.109.688c-.546.066-.711-.086-1.031-.375q-.517-.457-.5-.984.029-.534.578-1.156c.549-.622.723-.652 1.078-.703q.528-.064 1.031.375.499.451.5.984-.001.545-.547 1.172zM4.641-1.25c.289-.332.453-.594.484-.781q.046-.294-.234-.547-.3-.247-.594-.172c-.187.043-.43.23-.719.563q-.438.487-.484.781-.034.283.266.531.282.251.563.188.28-.076.719-.562zm1.64 4.75q.422-.487.469-.781c.047-.294-.047-.383-.234-.547q-.3-.253-.594-.172-.281.076-.703.563-.438.481-.484.781c-.046.3.051.379.25.547q.282.247.563.172.294-.082.734-.562zm0 0"/><path id="S" d="M1.313.5 1.094.469A.5.5 0 0 1 .906.406Q.608.296.516.063.422-.155.563-.5l.406-1-.203-.078.109-.281.203.078.219-.547.328.125-.219.547.672.266-.109.281-.672-.266-.344.859-.094.25a.22.22 0 0 0 0 .172c0 .055.016.094.047.125a.7.7 0 0 0 .188.125l.172.031.141.016h.031zm0 0"/><path id="T" d="M2.266-.156.875-.719q-.065.19-.078.344 0 .142.063.266a.45.45 0 0 0 .156.188 1 1 0 0 0 .25.156 1.2 1.2 0 0 0 .422.078 1.1 1.1 0 0 0 .359-.047l.016.016-.141.359A3 3 0 0 1 1.531.61a1.2 1.2 0 0 1-.359-.094Q.702.327.531-.031C.414-.281.422-.562.547-.875s.305-.523.547-.641a.98.98 0 0 1 .797 0q.388.158.5.469.123.298-.047.719zm-.203-.359a.6.6 0 0 0 .016-.437.54.54 0 0 0-.312-.297c-.18-.07-.34-.078-.484-.016a.52.52 0 0 0-.297.313zm0 0"/><path id="U" d="M2.125-.953h-.016l-.141-.078-.156-.078a.7.7 0 0 0-.312-.047 2 2 0 0 0-.328.063L.641.25.313.125l.766-1.906.328.125-.109.281q.232-.06.406-.062a.9.9 0 0 1 .328.031.5.5 0 0 1 .109.063l.109.063zm0 0"/><path id="V" d="M1.781.719 1.469.578l.078-.203a.4.4 0 0 1-.141.047 1 1 0 0 1-.172.016 1 1 0 0 1-.219 0 .7.7 0 0 1-.25-.062.67.67 0 0 1-.374-.36.59.59 0 0 1 0-.5q.095-.218.234-.312C.764-.89.836-.894.984-.905q.2.002.453.063a6 6 0 0 1 .531.172l.016-.062a.3.3 0 0 0 .031-.172.3.3 0 0 0-.047-.156.34.34 0 0 0-.141-.125 2 2 0 0 0-.203-.109 5 5 0 0 0-.297-.062 2 2 0 0 0-.359-.031H.953l.125-.328c.07 0 .172.016.297.047.133.031.254.07.359.109q.201.094.344.188.14.081.203.203a.35.35 0 0 1 .078.266q-.002.158-.062.328zm-.125-.61.219-.531A4 4 0 0 1 1.5-.516l-.312-.078a.4.4 0 0 0-.266.031C.836-.532.774-.461.735-.36s-.043.199 0 .281c.051.074.141.133.266.188a.8.8 0 0 0 .328.047 1.2 1.2 0 0 0 .328-.047zm0 0"/><path id="W" d="M1.953.516c-.137.32-.309.531-.516.625s-.469.078-.781-.047A2 2 0 0 1 .375.969L.125.797.25.469h.031a3 3 0 0 0 .203.172 1.2 1.2 0 0 0 .328.188.8.8 0 0 0 .281.063.7.7 0 0 0 .219-.031.5.5 0 0 0 .141-.141 1 1 0 0 0 .109-.203L1.64.345a.9.9 0 0 1-.344.078A1 1 0 0 1 .938.344Q.591.202.484-.109.391-.435.578-.891c.063-.164.133-.297.219-.391a1.2 1.2 0 0 1 .313-.25 1 1 0 0 1 .344-.062q.2-.012.359.047c.159.059.188.09.25.141s.125.121.188.203l.063-.078.313.109zM1.734.094l.422-1.031-.203-.187a1 1 0 0 0-.203-.125.6.6 0 0 0-.5.031q-.222.113-.344.453-.129.316-.094.531c.031.148.133.254.313.328q.122.045.297.031a1.5 1.5 0 0 0 .313-.031zm0 0"/><path id="X" d="M2.313-.172c-.125.301-.305.508-.531.625a.83.83 0 0 1-.734.031C.773.379.594.203.5-.047S.422-.57.547-.875q.187-.466.531-.641.356-.169.766-.016.387.157.516.531.14.362-.047.828zm-.328-.125c.102-.258.129-.469.078-.625a.52.52 0 0 0-.328-.344q-.269-.106-.484.016-.207.129-.359.516Q.75-.387.814-.14c.051.152.164.27.344.344q.246.093.469-.031c.223-.124.266-.238.359-.469zm0 0"/><path id="Y" d="M1.906.766 1.578.625l.438-1.094.078-.234a.8.8 0 0 0 .031-.203.44.44 0 0 0-.297-.281.7.7 0 0 0-.297-.031q-.158 0-.328.047L.641.25.313.125l.766-1.906.328.125-.094.219q.188-.06.375-.062a.8.8 0 0 1 .375.063.58.58 0 0 1 .375.375q.093.253-.031.594zm0 0"/><path id="Z" d="M.641.25.313.125 1.36-2.516l.328.125zm0 0"/><path id="a" d="m2.328.094-.375-.141-.281.719-.328-.141.281-.719L.406-.672l.156-.391 1.813-.922.313.125-.625 1.547.375.141zm-.594-.547.453-1.156L.75-.844zm0 0"/><path id="b" d="M2.25-1.219q-.159.376-.406.5a.66.66 0 0 1-.531 0q-.33-.139-.407-.39c-.077-.251-.027-.375.078-.625q.141-.374.375-.484.246-.123.563 0a.58.58 0 0 1 .375.375q.094.251-.047.625zm1.453-.234L1.344.531 1.078.422l2.328-2zM3.781.688q-.157.388-.391.5c-.156.082-.336.082-.531 0q-.329-.129-.406-.375-.081-.236.078-.625c.159-.389.227-.426.375-.5q.232-.105.547 0c.195.086.328.207.391.359.063.164.039.379-.062.641zM1.938-1.344c.07-.195.098-.344.078-.437s-.086-.16-.187-.203q-.174-.077-.312 0-.129.082-.234.375-.129.298-.094.438.045.142.219.219.153.066.281-.016c.128-.082.164-.176.25-.375zM3.469.578q.123-.298.094-.437c-.029-.139-.09-.164-.203-.219q-.175-.06-.297.016c-.074.055-.152.176-.234.375s-.117.344-.094.438q.029.154.203.219.17.078.281-.016.122-.083.25-.375zm0 0"/><path id="c" d="M2.438.469 2.172.422l.172-.859.016-.187a.5.5 0 0 0 0-.156q-.017-.058-.062-.094c-.045-.036-.086-.039-.156-.062a.7.7 0 0 0-.234.016.6.6 0 0 0-.234.094.16.16 0 0 0-.016.078v.078l-.187.953-.25-.047.172-.859.016-.187a.5.5 0 0 0 0-.156q-.033-.058-.078-.094c-.045-.036-.086-.039-.156-.062a.7.7 0 0 0-.234.016.7.7 0 0 0-.219.078L.5.094.25.047l.281-1.5.25.047-.031.172a2 2 0 0 1 .266-.094.9.9 0 0 1 .266-.016.42.42 0 0 1 .234.125.54.54 0 0 1 .141.188 1.3 1.3 0 0 1 .313-.125.7.7 0 0 1 .281 0q.235.047.328.219.094.157.047.438zm0 0"/><path id="d" d="M1.656-.453q-.064.362-.297.531-.22.186-.547.125Q.499.138.359-.109C.219-.356.238-.477.281-.719q.075-.373.297-.547a.68.68 0 0 1 .547-.109q.328.065.469.313.14.234.063.609zm-.25-.062c.039-.195.031-.344-.031-.437q-.081-.155-.297-.203a.44.44 0 0 0-.344.078q-.129.112-.187.406-.048.298.031.469.077.158.281.188c.133.027.25.008.344-.078q.155-.123.203-.422zm0 0"/><path id="e" d="M1.5.281 1.25.234l.172-.859.016-.187a.4.4 0 0 0 0-.141q-.035-.076-.094-.109c-.059-.033-.094-.035-.156-.047a.46.46 0 0 0-.234 0 .7.7 0 0 0-.234.078L.5.094.25.047l.281-1.5.25.047-.031.172a2 2 0 0 1 .281-.094.9.9 0 0 1 .266-.016q.248.047.344.219.094.157.047.438zm0 0"/><path id="f" d="M1.359.172q-.128.03-.25.031a1 1 0 0 1-.234 0Q.7.17.578.094C.456.018.43-.02.391-.094a.65.65 0 0 1-.125-.265 1.3 1.3 0 0 1 .015-.36q.077-.374.313-.531.234-.169.578-.109a1 1 0 0 1 .25.078q.123.065.188.141l-.047.266-.016-.016a.7.7 0 0 0-.203-.156.55.55 0 0 0-.234-.094.39.39 0 0 0-.359.078q-.143.11-.203.391-.048.283.031.453a.45.45 0 0 0 .313.203A1 1 0 0 0 1.063 0a.4.4 0 0 0 .156-.047 1 1 0 0 0 .109-.031l.078-.047.016.016zm0 0"/><path id="g" d="M.5.094.25.047l.406-2.094.25.047zm0 0"/><path id="h" d="m.859-1.656-.281-.047.047-.266.281.047zM.5.094.25.047l.281-1.5.25.047zm0 0"/><path id="i" d="M1.563.297.219.047l.047-.281.328-.188q.17-.092.313-.203l.422-.312a.52.52 0 0 0 .172-.297.3.3 0 0 0-.062-.266.43.43 0 0 0-.281-.156 1.5 1.5 0 0 0-.266 0 1.3 1.3 0 0 0-.297.078H.578l.063-.297.266-.031a1.2 1.2 0 0 1 .313.016q.311.063.453.25.153.175.094.438-.017.11-.062.203a.4.4 0 0 1-.141.172l-.141.141a.7.7 0 0 1-.203.141q-.159.126-.345.233L.531-.14l1.078.203zm0 0"/><path id="j" d="M1.469-1.203q-.065.299-.219.422c-.154.123-.242.105-.406.063C.676-.75.563-.82.5-.937q-.082-.17-.016-.469.06-.31.203-.422a.5.5 0 0 1 .391-.094q.248.064.344.25.094.175.047.469m1.047-.391L1.063.203.844.156l1.438-1.797zm.359 1.578c-.043.188-.121.32-.234.406q-.159.14-.406.094A.47.47 0 0 1 1.906.25q-.094-.174-.031-.453.06-.31.219-.437c.159-.127.227-.109.375-.078q.247.047.359.219c.112.172.086.277.047.484zM1.234-1.25q.046-.234 0-.344c-.046-.11-.094-.117-.187-.141q-.142-.013-.219.063c-.043.055-.078.156-.109.313-.031.148-.039.258-.016.328q.047.112.188.125c.094.023.164.008.219-.047s.094-.148.125-.297zM2.625-.062q.046-.234 0-.344c-.046-.11-.09-.113-.172-.125q-.142-.03-.219.063c-.043.055-.078.156-.109.313-.031.148-.039.25-.016.313q.047.105.188.141.122.013.203-.062c.081-.075.094-.152.125-.297zm0 0"/><path id="k" d="M.547.047H.391a.33.33 0 0 1-.188-.078Q.156-.091.156-.25l.047-.422-.094-.016v-.109l.094.016.016-.234h.125l-.016.234.281.031v.109L.328-.672l-.031.36a.4.4 0 0 0-.016.109l.031.078q.013.035.031.047h.22zm0 0"/><path id="l" d="M.672-.609H.609C.586-.617.566-.625.547-.625a.2.2 0 0 0-.125.016 1 1 0 0 1-.109.063L.266.016H.125l.063-.797h.141v.109A.5.5 0 0 1 .47-.734.2.2 0 0 1 .595-.75h.094zm0 0"/><path id="m" d="M.359-.922H.203l.016-.141h.156zM.266.016H.141l.063-.797h.125zm0 0"/><path id="n" d="M.781-.031Q.763.168.656.25C.594.313.5.336.375.328.332.328.289.32.25.313A1 1 0 0 0 .141.281v-.14h.016a1 1 0 0 1 .094.047.4.4 0 0 0 .156.031.5.5 0 0 0 .109-.016Q.561.202.578.172C.609.148.625.125.625.094.633.07.641.047.641.016l.016-.078A.34.34 0 0 1 .531 0a1 1 0 0 1-.14.016C.297.004.223-.035.172-.109S.098-.281.109-.406Q.12-.512.156-.578A.4.4 0 0 1 .25-.703a.23.23 0 0 1 .109-.062A.3.3 0 0 1 .5-.797l.109.031a.5.5 0 0 1 .094.047L.719-.75l.125.016zM.656-.172l.031-.437a.1.1 0 0 0-.078-.032 1 1 0 0 1-.094-.031.25.25 0 0 0-.187.078Q.263-.531.25-.391a.3.3 0 0 0 .031.203c.031.055.082.078.156.078a.3.3 0 0 0 .109-.016.3.3 0 0 0 .109-.047zm0 0"/><path id="o" d="M.844-.344a.5.5 0 0 1-.125.313.37.37 0 0 1-.266.078.37.37 0 0 1-.265-.125.46.46 0 0 1-.078-.328q.012-.187.124-.297c.112-.11.164-.102.281-.094.102.012.188.059.25.141s.086.188.078.313zM.703-.359Q.715-.513.656-.578a.2.2 0 0 0-.141-.094.3.3 0 0 0-.187.063Q.263-.544.25-.39c-.013.154 0 .188.031.25.039.055.098.078.172.078q.093.019.156-.062a.4.4 0 0 0 .094-.234zm0 0"/><path id="p" d="M.797.063.672.047l.031-.453a.25.25 0 0 0 0-.109c0-.031-.008-.055-.016-.078S.66-.625.641-.625C.617-.633.594-.641.563-.641a.2.2 0 0 0-.125.016 1 1 0 0 0-.125.047L.266.016H.125l.063-.797h.141v.078l.125-.062a.26.26 0 0 1 .141-.016q.14 0 .188.094a.4.4 0 0 1 .063.234zm0 0"/><path id="q" d="M.75.063.625.047v-.078Q.608-.031.578 0 .544.013.516.031H.438a.5.5 0 0 1-.109.016Q.215.029.156-.047a.24.24 0 0 1-.062-.187.3.3 0 0 1 .047-.141.5.5 0 0 1 .109-.078l.188-.016.234-.016V-.5c0-.031-.008-.055-.016-.078S.629-.613.609-.625a.3.3 0 0 0-.062-.031C.523-.664.5-.672.469-.672s-.074.008-.125.016a.3.3 0 0 0-.141.031H.188l.016-.141a.5.5 0 0 1 .109-.015c.05-.008.101-.016.156-.016s.098.012.141.031a.5.5 0 0 1 .109.047.5.5 0 0 1 .063.109.5.5 0 0 1 .016.125zM.641-.156l.016-.219H.5a.5.5 0 0 0-.125.016q-.064 0-.094.047a.2.2 0 0 0-.047.094q-.002.064.031.109c.031.023.07.031.125.031s.098-.004.141-.016.078-.031.109-.062zm0 0"/><path id="r" d="M.266.016H.141l.094-1.109H.36zm0 0"/><path id="s" d="M.781.063.203.016l.016-.11.219.016.047-.719-.219-.016.016-.094h.094q.045.001.078-.016C.487-.94.488-.945.5-.969a.2.2 0 0 0 .047-.078l.109.016-.078.969.219.016zm0 0"/><path id="t" d="M.703-.719Q.685-.56.609-.484C.533-.408.488-.41.406-.422.313-.43.242-.461.203-.516Q.155-.592.172-.75.184-.918.266-1c.082-.082.117-.07.203-.062s.145.043.188.094.055.137.047.25zm.5-.25L.563.047.453.031l.641-1.016zm.297.797q-.018.156-.094.219-.063.075-.203.063-.129 0-.187-.094Q.968-.06.984-.219q0-.154.063-.219a.27.27 0 0 1 .203-.078q.14.017.188.109a.4.4 0 0 1 .063.234zM.563-.719Q.575-.842.547-.906C.519-.97.492-.969.453-.969q-.082 0-.109.047c-.027.047-.039.09-.047.172s-.008.148.016.188q.029.047.109.047.058.002.094-.031a.5.5 0 0 0 .047-.172zm.813.531a.36.36 0 0 0-.031-.172q-.018-.046-.094-.062a.15.15 0 0 0-.109.047q-.033.048-.031.172a.4.4 0 0 0 0 .172q.03.047.094.047.075.01.109-.031.046-.045.063-.172zm0 0"/><path id="u" d="M.406.016H.344v-.281q.012-.03 0-.047C.332-.329.32-.328.313-.328a.1.1 0 0 1-.032-.031.2.2 0 0 0-.078.016.14.14 0 0 1-.047.031L.141 0H.078l.016-.578h.063v.219q.028-.03.063-.047c.035-.017.039-.008.063 0q.075 0 .109.047.03.034.031.109zm0 0"/><path id="v" d="M.406-.187.109-.203v.063a.14.14 0 0 0 .047.063c.008 0 .02.008.031.016q.03.017.078.016.029.018.063 0a.2.2 0 0 0 .078-.049v.078C.375-.004.348.004.328.016s-.043.008-.062 0q-.112 0-.172-.062C.034-.108.031-.141.031-.203c.008-.07.035-.125.078-.156A.2.2 0 0 1 .25-.421q.078.017.125.063c.047.046.039.078.031.141zM.344-.234q.013-.06-.016-.078Q.309-.342.25-.359q-.064.001-.094.031a1 1 0 0 1-.047.078zm0 0"/><path id="w" d="M.422.016H.344L.219-.156.109 0H.031l.156-.203-.141-.203h.078l.094.141.141-.125h.078l-.172.172zm0 0"/><path id="x" d="M.391.016H.313v-.047C.313-.02.305-.008.297 0Q.277.001.266-.016.248.001.219 0a.1.1 0 0 1-.047.016.2.2 0 0 1-.094-.032.15.15 0 0 1-.047-.109Q.03-.171.047-.187a.2.2 0 0 1 .078-.047q.03-.03.094-.031a.5.5 0 0 1 .109.016v-.063c0-.008-.012-.016-.031-.016C.285-.336.273-.344.266-.344Q.247-.358.234-.359a.2.2 0 0 0-.078.016c-.012 0-.031.008-.062.016v-.078h.047a.4.4 0 0 1 .094-.016c.02 0 .039.008.063.016s.039.023.063.031l.031.047c.008.023.016.043.016.063zm-.078-.11v-.109H.234Q.2-.215.172-.203C.144-.191.133-.18.125-.172s-.016.027-.016.047.004.039.016.047q.03.017.078.016h.063q.03.002.047-.031zm0 0"/><path id="y" d="M.406-.031c0 .07-.016.125-.047.156S.281.164.219.156A.2.2 0 0 1 .141.141H.078V.078h.063a.2.2 0 0 0 .078.016h.047c.02 0 .035-.008.047-.016V.047a.13.13 0 0 0 .015-.063v-.031Q.31-.014.281-.016H.203a.17.17 0 0 1-.125-.047.25.25 0 0 1-.047-.156.1.1 0 0 1 .031-.078.4.4 0 0 1 .047-.062q.029-.03.063-.047c.034-.017.039-.016.063-.016.031 0 .051.008.063.016l.047.031.016-.016h.063zM.328-.109l.016-.219a.1.1 0 0 0-.047-.016.1.1 0 0 0-.047-.015q-.064 0-.094.047a.2.2 0 0 0-.047.094q-.002.081.031.109c.033.028.047.031.078.031h.063q.03.002.047-.031m0 0"/><path id="z" d="M.422-.187a.22.22 0 0 1-.062.156Q.312.027.219.016a.18.18 0 0 1-.141-.063.25.25 0 0 1-.047-.156.26.26 0 0 1 .063-.156.2.2 0 0 1 .141-.062.23.23 0 0 1 .141.078c.039.031.055.086.047.156zm-.078 0q.013-.075-.016-.11a.17.17 0 0 0-.094-.062.09.09 0 0 0-.078.047.2.2 0 0 0-.047.109c0 .055.008.094.031.125q.03.033.078.031.058.019.094-.016a.22.22 0 0 0 .031-.125zm0 0"/><path id="AA" d="M.406.016H.344v-.281q.012-.03 0-.047C.332-.329.32-.328.313-.328a.1.1 0 0 1-.032-.031.2.2 0 0 0-.078.016.14.14 0 0 1-.047.031L.141 0H.078l.016-.406h.063v.047q.028-.03.063-.047c.035-.017.039-.008.063 0q.075 0 .109.047.03.034.031.109zm0 0"/><path id="AB" d="M.141 0H.078l.016-.578h.063zm0 0"/><path id="AC" d="M.406.016.109 0v-.062h.109l.016-.359H.125v-.047h.031c.02-.008.035-.016.047-.016q.03-.013.031-.031c.001-.018.004-.02.016-.031l.047.016-.016.484h.125zm0 0"/><path id="AD" d="M.344-.391q0 .095-.047.125-.034.033-.109.031-.064.002-.094-.031a.4.4 0 0 1-.016-.14Q.076-.481.109-.515C.142-.549.16-.547.203-.547q.076 0 .109.047.03.034.031.109zm.25-.141L.297.016.234 0l.297-.531zm.156.391q-.001.08-.031.125C.689.029.664.031.625.031.57.031.535.012.516-.016S.484-.086.484-.141.492-.227.516-.25a.17.17 0 0 1 .125-.047q.06 0 .078.047.03.034.031.109M.281-.406q0-.046-.031-.063Q.232-.499.203-.5C.174-.501.164-.488.156-.469Q.139-.453.14-.406q-.001.082.016.109.012.017.047.016C.238-.282.238-.285.25-.297q.03-.029.031-.109m.406.266a.15.15 0 0 0-.015-.079Q.671-.249.641-.25c-.03-.001-.043.012-.062.031-.024.012-.032.039-.032.078q-.001.081.016.109.028.017.063.016C.661-.017.66-.02.672-.031A.3.3 0 0 0 .688-.14zm0 0"/><path id="AE" d="M7.375-1.859 1.844 1.203 1.047.688l5.797-3.125-3.125-2.047.422-.656 3.766 2.453zm0 0"/><path id="AF" d="M4 2.594 1.016.672 1.375.11l1.156.734 2.406-3.687-1.156-.734.313-.5a6 6 0 0 0 .531.281q.31.141.484.141a.76.76 0 0 0 .422-.047.9.9 0 0 0 .359-.312l.563.375-3.219 4.953 1.125.719zm0 0"/><path id="AG" d="M5.344 1.297c-.312.469-.758.738-1.328.813-.562.082-1.133-.059-1.703-.422Q1.422 1.107 1.188.297q-.22-.792.25-1.516a1.56 1.56 0 0 1 .797-.656 2.2 2.2 0 0 1 1.141-.109L3.391-2q-.299-.53-.328-.953-.017-.42.266-.828.388-.62 1.156-.703.779-.094 1.563.422.827.534 1.063 1.25c.236.716.098.922-.172 1.328q-.235.362-.703.578-.456.22-1.047.125l-.016.016q.388.563.438 1.063c.05.5-.059.664-.266 1zm.875-3.25q.263-.388.109-.828c-.154-.44-.32-.535-.641-.734q-.458-.293-.891-.266a.82.82 0 0 0-.687.406.85.85 0 0 0-.156.547q.03.282.234.641l.281.438a6 6 0 0 0 .375.484q.545-.013.844-.172.31-.17.531-.516zM4.547.859q.216-.33.203-.641-.019-.297-.312-.781l-.281-.391-.437-.562a1.74 1.74 0 0 0-.859.156 1.56 1.56 0 0 0-.656.563A1.32 1.32 0 0 0 2.018.25q.141.545.656.891.544.357 1.047.281c.344-.055.617-.242.828-.562zm0 0"/><path id="AH" d="M4.313 2.797.594.391l.5-.766 1.203-.156 1.156-.203q1.156-.218 1.672-.453.528-.248.844-.719.28-.435.156-.859c-.124-.424-.297-.531-.641-.75a2.8 2.8 0 0 0-.797-.344 3.5 3.5 0 0 0-1-.141l-.031-.016.5-.766q.356.033.859.219.497.175.906.438c.563.367.914.789 1.063 1.266s.07.953-.219 1.422a2.7 2.7 0 0 1-.484.531 2.2 2.2 0 0 1-.562.359c-.199.094-.414.18-.641.25a6 6 0 0 1-.781.156 12 12 0 0 1-1.312.234L1.766.266l2.953 1.906zm0 0"/><path id="AI" d="M5.844-1.844q-.531.831-1.141 1c-.61.169-.828.031-1.266-.25q-.672-.452-.766-1.062-.081-.62.453-1.453c.534-.833.734-.883 1.141-1 .414-.113.844-.023 1.281.266q.668.423.75 1.063.075.628-.453 1.438zm3.547.125L2.938 1.906 2.313 1.5l6.469-3.625zm-.828 5.141q-.531.827-1.141.984-.609.17-1.266-.25-.656-.44-.75-1.062-.081-.628.453-1.437C6.223 1.102 6.602.766 7 .641c.406-.117.828-.031 1.266.25q.685.435.766 1.063.077.638-.469 1.469zM5.188-2.281q.422-.639.422-.984 0-.358-.375-.594-.375-.248-.703-.109c-.328.139-.469.355-.75.781s-.422.762-.422 1q.014.363.391.609.373.234.688.094.329-.153.75-.797zm2.734 5.266q.422-.644.422-1 0-.347-.375-.594-.375-.234-.703-.094c-.328.14-.469.352-.75.781q-.408.638-.406 1c.002.362.125.438.375.594q.375.246.703.094c.219-.094.461-.355.734-.781m0 0"/><path id="AJ" d="M2.797-3.203q.328.674.094 1.313c-.148.43-.434.75-.859.969a1.6 1.6 0 0 1-1.25.141 2 2 0 0 1-.734-.453q-.342-.328-.625-.906a4 4 0 0 1-.391-1.078 2.6 2.6 0 0 1-.016-1.016 1.8 1.8 0 0 1 .391-.859q.318-.388.875-.687l.297-.125q.124-.045.266-.078l.297.563-.031.016q-.11 0-.297.047a1.2 1.2 0 0 0-.359.141q-.626.316-.812.906c-.186.59-.088.832.107 1.309a3.6 3.6 0 0 1 .359-.484q.188-.218.516-.375.281-.14.516-.187a1.7 1.7 0 0 1 .563-.031q.34.066.609.266.281.205.484.609zm-.609.313a1.2 1.2 0 0 0-.297-.406.95.95 0 0 0-.437-.187 1.1 1.1 0 0 0-.359.031 2 2 0 0 0-.359.141q-.25.141-.437.313c-.187.172-.242.25-.344.406a1 1 0 0 0 .047.125l.078.156c.156.305.313.531.469.688.164.148.328.242.484.281q.187.065.375.047a.9.9 0 0 0 .375-.109q.435-.218.547-.594.105-.387-.141-.891zm0 0"/><path id="AK" d="M2.703-3.125a2 2 0 0 1 .188.641 1.6 1.6 0 0 1-.062.625 1.7 1.7 0 0 1-.344.578 2.3 2.3 0 0 1-.625.453 3.4 3.4 0 0 1-.734.281 2.7 2.7 0 0 1-.641.094l-.328-.625.031-.031a2.2 2.2 0 0 0 .688-.016 2.4 2.4 0 0 0 .703-.219 1.25 1.25 0 0 0 .625-.641.8.8 0 0 0 .047-.406 1.6 1.6 0 0 0-.141-.437 1 1 0 0 0-.281-.344.65.65 0 0 0-.344-.141 1.3 1.3 0 0 0-.469.031q-.235.063-.5.203c-.265.14-.34.195-.484.297a3 3 0 0 0-.375.281l-1.172-2.281 2.641-1.344.281.531-2.062 1.047.578 1.156.25-.125.234-.141q.357-.168.656-.25a1.8 1.8 0 0 1 .609-.047q.31.049.563.25.264.19.469.578zm0 0"/><path id="AL" d="M3.453-1.766.469-.234l-.313-.61.344-.859.328-.812c.176-.57.281-1 .313-1.281A1.44 1.44 0 0 0 1-4.609Q.826-4.95.516-5.015q-.315-.075-.719.125a2.5 2.5 0 0 0-.547.391 2.3 2.3 0 0 0-.469.594l-.031.016-.312-.609q.158-.216.469-.484a2.7 2.7 0 0 1 .641-.422c.438-.227.836-.297 1.203-.203q.546.127.828.688a2 2 0 0 1 .172.5 1.4 1.4 0 0 1 .031.5 4 4 0 0 1-.078.5 6 6 0 0 1-.187.578l-.344.922-.344.875 2.375-1.219zm0 0"/><path id="AM" d="M.984-4.5q.341.657.219 1.125-.11.47-.625.734c-.367.188-.687.219-.969.094q-.435-.201-.781-.859c-.219-.437-.289-.805-.219-1.109q.112-.467.641-.734c.529-.267.68-.203.969-.078.289.117.547.391.766.828zm1.422-2.281-.062 5.594-.484.234.047-5.578zm3.031 2.469q.341.657.219 1.125-.112.47-.641.734c-.529.264-.68.211-.969.094q-.44-.187-.781-.844-.33-.654-.219-1.109.124-.467.641-.734.544-.281.984-.094.435.174.766.828m-4.969.078q-.251-.497-.484-.625-.233-.141-.531 0-.31.157-.344.438-.028.269.219.766c.18.344.344.559.5.641s.336.074.547-.031q.293-.14.328-.406c.035-.266-.059-.437-.234-.781zm4.453.188q-.251-.497-.484-.625c-.156-.094-.336-.094-.531 0q-.315.157-.344.438-.034.269.219.766.265.517.5.641c.235.124.336.074.547-.031q.293-.14.328-.406c.035-.266-.059-.437-.234-.781zm0 0"/><path id="AN" d="M1.5-2.062a.96.96 0 0 1 .125.781 1 1 0 0 1-.453.625Q.985-.546.797-.5a1 1 0 0 1-.375 0 1 1 0 0 1-.453-.234 2 2 0 0 1-.437-.516 2.5 2.5 0 0 1-.281-.625 1.8 1.8 0 0 1-.047-.609 1.05 1.05 0 0 1 .188-.531q.157-.247.484-.453a.5.5 0 0 1 .156-.078 1 1 0 0 0 .172-.078l.203.344H.391l-.172.047A1.2 1.2 0 0 0 0-3.141a.9.9 0 0 0-.437.594q-.075.363.125.75l.203-.297a1.1 1.1 0 0 1 .297-.25q.155-.093.297-.141a1 1 0 0 1 .328-.047.77.77 0 0 1 .375.141 1.1 1.1 0 0 1 .313.328zm-.344.234a.9.9 0 0 0-.203-.234.43.43 0 0 0-.25-.078.5.5 0 0 0-.219.047 1.3 1.3 0 0 0-.203.078 1.4 1.4 0 0 0-.266.203 2 2 0 0 0-.172.25.2.2 0 0 0 .047.078l.047.094q.155.269.297.391a.55.55 0 0 0 .313.141.46.46 0 0 0 .219.016.6.6 0 0 0 .515-.471q.045-.235-.125-.516zm0 0"/><path id="AO" d="M1.094-2.625a2.5 2.5 0 0 1 .281.641c.063.211.082.406.063.594a1.06 1.06 0 0 1-.187.547 2 2 0 0 1-.469.438l-.187.094-.141.063-.204-.33.016-.016.156-.031a1 1 0 0 0 .219-.094q.374-.233.438-.594.076-.356-.125-.766a1.2 1.2 0 0 1-.219.313 1 1 0 0 1-.281.219 1.1 1.1 0 0 1-.297.156 1 1 0 0 1-.328.047 1.2 1.2 0 0 1-.375-.125 1 1 0 0 1-.312-.344A.91.91 0 0 1-1-2.578q.094-.405.469-.641.188-.122.375-.156c.187-.034.25-.02.375 0q.233.065.438.234.216.176.438.516zm-.359.141a1.6 1.6 0 0 0-.344-.391.6.6 0 0 0-.297-.141.46.46 0 0 0-.234 0 .7.7 0 0 0-.219.078q-.246.157-.281.391c-.031.156.008.324.109.5a.64.64 0 0 0 .219.25.5.5 0 0 0 .25.063q.124.017.219-.031l.219-.109a1.3 1.3 0 0 0 .234-.187l.203-.25a.3.3 0 0 1-.047-.078.2.2 0 0 0-.031-.094zm0 0"/><path id="AP" d="m1.828-1.141-1.359.86-.156-.25.531-.344-1.047-1.687-.531.344-.141-.234.234-.172A.5.5 0 0 0-.5-2.78q.035-.093.047-.187c.012-.094-.008-.133-.062-.219l.266-.156 1.406 2.281.516-.328zm0 0"/><path id="AQ" d="M.359-2.734c.156.25.219.477.188.672q-.035.283-.328.453c-.199.125-.391.164-.578.109q-.28-.094-.516-.469c-.236-.375-.219-.469-.187-.656.031-.195.148-.359.344-.484q.315-.187.578-.094c.263.093.344.219.5.469zm.734-1.422.25 3.328-.281.172-.25-3.328zm1.953 1.328q.218.375.172.656c-.031.18-.148.328-.344.453-.211.125-.402.164-.578.109s-.34-.203-.484-.453q-.25-.389-.203-.672c.047-.283.145-.344.344-.469s.383-.156.563-.094q.28.082.531.469zm-2.969.281q-.17-.28-.328-.359a.34.34 0 0 0-.328.016q-.169.111-.156.281.001.174.172.453c.171.279.227.309.328.359q.142.081.313-.031a.29.29 0 0 0 .156-.266q.013-.171-.156-.453zm2.656-.094q-.187-.292-.328-.375c-.141-.083-.199-.039-.312.031s-.172.168-.172.281q0 .159.188.453.17.283.313.359c.094.043.195.027.313-.047s.172-.16.172-.266-.059-.25-.172-.437zm0 0"/><path id="AR" d="M.328.234Q.263.263.203.25C.143.237.129.211.109.172A.14.14 0 0 1 .078.125Q.077.108.094.063.094.029.109 0a.3.3 0 0 1 .078-.078.2.2 0 0 1 .109-.047 1 1 0 0 0 .109-.031l.078.047q.045.019.078.078.015.018.017.031l.016.016-.062.031V.031L.516.016C.516.004.508-.004.5-.016Q.465-.076.406-.078a.15.15 0 0 0-.125.031c.02 0 .035.008.047.016q.03.018.047.047a.14.14 0 0 0 .031.047C.414.07.422.086.422.109L.375.172zM.297.188Q.326.152.344.141C.362.13.352.118.344.11V.063C.344.051.336.039.328.031Q.327.013.297 0C.267-.013.258-.02.25-.031q-.017.002-.016.016C.195.004.176.02.156.031a.1.1 0 0 0-.015.047v.047Q.14.138.157.156q.012.047.047.047A.4.4 0 0 0 .298.187zm0 0"/><path id="AS" d="M.375.141Q.357.151.344.188c0 .02-.008.035-.016.047C.305.242.285.25.266.25H.203Q.186.249.141.219A.2.2 0 0 1 .094.156C.07.133.063.113.063.094S.055.051.047.031L.109 0v.063q.013.06.031.078l.031.031a.07.07 0 0 0 .048.016H.25C.27.188.285.18.297.172S.313.148.313.141C.32.129.328.117.328.109S.32.082.313.063C.313.051.305.039.297.031L.281.016l.047-.032L.344 0a.1.1 0 0 0 .047.047.2.2 0 0 0 .094 0V.016q.012-.016 0-.031c0-.035-.008-.047-.016-.047L.422-.124Q.404-.156.375-.156l.047-.031q.012.001.047.031l.047.063a.1.1 0 0 1 .016.047c.008.012.016.027.016.047S.539.035.531.047c0 .02-.008.035-.016.047a.13.13 0 0 1-.078 0C.414.094.391.086.359.078c.008.008.016.02.016.031zm0 0"/><path id="AT" d="M.391.188A.34.34 0 0 1 .219.25Q.154.25.094.172A.13.13 0 0 1 .078.031a.4.4 0 0 1 .125-.125q.123-.075.188-.062.078.002.125.063c.039.055.047.098.016.141a.6.6 0 0 1-.141.14m-.156 0Q.28.187.297.156.325.138.359.125L.438.063Q.468.044.469.031C.488.008.492-.004.484-.016a.1.1 0 0 0-.016-.047Q.45-.093.438-.094q-.017-.012-.063 0-.018-.013-.047.016a1 1 0 0 0-.078.047L.188 0 .141.063S.133.07.125.094Q.124.123.141.157q.012.014.047.016c.02.008.035.016.047.016zm0 0"/><path id="AU" d="M.078.125.047.063.125.016l.031.062zm0 0"/><path id="AV" d="M.203.313.031.047.094 0q.029.013.063.031a.4.4 0 0 0 .109.016l.109.016Q.404.061.438.047.484.013.484-.016c0-.029-.007-.039-.015-.062a.3.3 0 0 1-.047-.047Q.404-.155.375-.156L.359-.172l.047-.031q.028 0 .063.047.03.035.047.047.03.064.031.109Q.547.058.5.094.466.108.438.109C.426.117.414.125.406.125q-.048.012-.062 0H.281A.4.4 0 0 0 .188.094.2.2 0 0 0 .109.078L.25.281zm0 0"/><path id="AW" d="M.188.281.047.078.094.047l.062.078.266-.172-.063-.078.032-.031c.008.012.016.023.016.031a.13.13 0 0 0 .062.047c.008-.008.023-.016.047-.016l.031.031-.359.234.047.078zm0 0"/><path id="AX" d="M.438.047Q.39.077.344.078C.298.079.285.063.266.031Q.231-.027.25-.062c.008-.032.031-.055.063-.079.039-.031.078-.039.109-.031q.045 0 .078.047c.033.047.023.063.016.094a.3.3 0 0 1-.078.078m.25.109L.141.219.109.172.656.109zM.469.469Q.406.514.359.5A.2.2 0 0 1 .281.453Q.247.407.266.359C.285.311.301.297.344.266A.2.2 0 0 1 .453.234c.031.008.055.032.078.063q.028.03.016.078a.17.17 0 0 1-.078.094M.406 0q.047-.029.047-.062.012-.03 0-.047Q.435-.14.406-.141.389-.14.344-.11c-.045.03-.055.043-.062.063Q.281-.03.298 0c.008.008.02.016.031.016Q.359.028.406 0m.047.422Q.5.388.5.359C.5.348.492.336.484.328Q.467.295.438.297.421.295.375.328C.329.361.32.363.313.375Q.312.404.329.438c.008.008.023.016.047.016S.422.441.453.422m0 0"/><path id="AY" d="M3.875-3.375.531-.469l-.609-.687.172-1.203.156-1.172q.094-1.171 0-1.734a1.9 1.9 0 0 0-.453-.984q-.341-.389-.781-.391c-.44-.002-.586.137-.891.406q-.294.251-.547.672c-.253.421-.305.59-.422.922l-.031.031-.594-.703q.128-.31.438-.75a4.7 4.7 0 0 1 .672-.75c.5-.445 1.008-.676 1.516-.687q.748-.012 1.297.609.248.283.391.594c.143.311.156.43.188.656a3.7 3.7 0 0 1 .063.672q0 .363-.047.797L.906-2.859.719-1.625l2.656-2.312zm0 0"/><path id="AZ" d="M3.594-3.141.922-.797l-.437-.5 1.031-.906-2.891-3.312-1.031.906-.391-.453.422-.422q.207-.248.266-.437a.9.9 0 0 0 .063-.406.9.9 0 0 0-.203-.437l.516-.453 3.891 4.453 1-.875zm0 0"/><path id="Aa" d="M1.359-5.375q.282 0 .563.141.294.129.594.469a2.05 2.05 0 0 1 .422.719 2 2 0 0 1 .094.766 2.2 2.2 0 0 1-.297.875 3.3 3.3 0 0 1-.625.766 4.6 4.6 0 0 1-.906.609 4.2 4.2 0 0 1-.844.328l-.609-.687.047-.047q.451-.046.938-.25.497-.216.859-.531c.145-.125.273-.273.391-.453a1.4 1.4 0 0 0 .203-.531 1.3 1.3 0 0 0-.078-.531 1.5 1.5 0 0 0-.297-.5q-.234-.28-.469-.375a.76.76 0 0 0-.469-.062q-.253.019-.5.172a3.4 3.4 0 0 0-.484.359l-.297.25-.484-.547.25-.203c.336-.289.539-.594.609-.906.07-.32-.004-.617-.234-.891a.8.8 0 0 0-.344-.234A1 1 0 0 0-1.03-6.7q-.218.034-.406.141a2 2 0 0 0-.391.281 2.8 2.8 0 0 0-.578.703 4 4 0 0 0-.391.906l-.047.031-.594-.703q.128-.31.438-.75a4.7 4.7 0 0 1 .672-.75q.377-.326.719-.5a1.9 1.9 0 0 1 .672-.234q.375-.029.703.078c.211.074.398.215.578.422a1.3 1.3 0 0 1 .328.969 1.7 1.7 0 0 1-.328.984l.031.047a3 3 0 0 1 .453-.203q.28-.094.531-.094zm0 0"/><path id="Ab" d="M-.172-6.125q.64.737.641 1.375 0 .626-.594 1.141-.609.532-1.219.438-.621-.091-1.266-.828-.656-.749-.656-1.375 0-.64.594-1.156.597-.528 1.234-.422.627.095 1.266.828zM.906-9.5 2.64-2.297l-.562.484L.359-9.016zm4.719 2.188q.638.737.625 1.375-.002.643-.578 1.156c-.406.344-.82.484-1.234.422q-.628-.106-1.25-.828c-.437-.5-.664-.961-.672-1.391 0-.426.195-.805.594-1.141q.608-.544 1.234-.437c.414.063.844.344 1.281.844M-.766-5.609q-.515-.576-.859-.672c-.344-.096-.453 0-.672.188q-.342.299-.297.656.047.346.563.922.504.579.844.672c.34.093.461-.004.688-.203q.329-.28.281-.625-.045-.357-.547-.937zm5.797-1.187q-.518-.576-.859-.672-.328-.106-.656.188-.344.299-.297.656.047.346.563.922.498.579.844.672c.346.093.457-.004.688-.203q.326-.294.266-.641-.048-.341-.547-.922zm0 0"/><path id="Ac" d="M3.078-3.922.422-.547l-.703-.547-.047-1.172-.078-1.141q-.122-1.125-.297-1.641a1.85 1.85 0 0 0-.609-.859q-.389-.311-.812-.219-.42.081-.781.531a3 3 0 0 0-.406.75 3.5 3.5 0 0 0-.219.938l-.031.047-.703-.547q.065-.342.281-.812.222-.482.516-.859c.406-.52.852-.82 1.328-.906q.704-.14 1.344.359a2.4 2.4 0 0 1 .469.484q.176.269.281.578.123.283.188.625l.109.781.078 1.281.063 1.188L2.5-4.375zm0 0"/><path id="Ad" d="M1.469-5.125a2.3 2.3 0 0 1 .547.656 2.3 2.3 0 0 1 .281.766c.031.293-.008.578-.109.859a3.2 3.2 0 0 1-.484.875 4.5 4.5 0 0 1-.687.719q-.375.316-.703.484l-.703-.562.031-.047a3.8 3.8 0 0 0 .797-.406q.406-.28.688-.625c.125-.164.223-.344.297-.531a1.3 1.3 0 0 0 .078-.578A1.3 1.3 0 0 0 1.328-4a1.8 1.8 0 0 0-.391-.437 1.3 1.3 0 0 0-.516-.25.9.9 0 0 0-.484.016 1.6 1.6 0 0 0-.516.281 3 3 0 0 0-.484.516 4 4 0 0 0-.391.594l-.297.531-2.562-2.016 2.344-3 .578.453-1.844 2.359 1.328 1.047q.096-.171.203-.312l.203-.25q.33-.42.641-.672.3-.265.688-.359.37-.14.781-.047.404.082.859.422zm0 0"/><path id="Ae" d="M.328-5.359a1.2 1.2 0 0 1 .563.016q.31.081.656.344.329.269.516.625a1.75 1.75 0 0 1 .234.719q.029.44-.125.875a3.2 3.2 0 0 1-.469.828 4.5 4.5 0 0 1-.75.734 5.6 5.6 0 0 1-.719.484l-.703-.547.047-.047q.408-.123.828-.422c.42-.299.516-.414.703-.656q.153-.2.281-.5a1 1 0 0 0 .109-.547 1.3 1.3 0 0 0-.156-.484 1.5 1.5 0 0 0-.375-.437 1.4 1.4 0 0 0-.531-.25.8.8 0 0 0-.453.016 1.06 1.06 0 0 0-.437.25q-.2.189-.406.438l-.234.313-.547-.437.188-.25q.41-.499.422-.969a.93.93 0 0 0-.375-.797.9.9 0 0 0-.391-.172.8.8 0 0 0-.375.031c-.145.055-.27.125-.375.219a5 5 0 0 0-.328.344 3 3 0 0 0-.406.766 3.5 3.5 0 0 0-.219.938l-.031.031-.703-.547q.081-.359.297-.828a4 4 0 0 1 .5-.844 3.2 3.2 0 0 1 .578-.578q.282-.234.609-.328a1.3 1.3 0 0 1 .672-.062 1.4 1.4 0 0 1 .641.281 1.3 1.3 0 0 1 .5.875q.063.533-.172.984l.047.047q.159-.14.406-.281c.247-.141.328-.148.484-.172zm0 0"/><path id="Af" d="M-1.281-5.797q.751.596.875 1.203.11.596-.359 1.188-.482.61-1.094.641-.607.018-1.344-.562-.763-.593-.875-1.203c-.112-.61.047-.805.359-1.203q.485-.608 1.094-.625c.609-.017.855.18 1.344.563zm.453-3.406 2.922 6.531-.437.563-2.922-6.547zm4.859 1.219q.749.595.859 1.203.122.61-.359 1.203-.469.61-1.078.641-.61.018-1.344-.562-.769-.607-.875-1.203-.112-.608.344-1.203c.32-.406.688-.617 1.094-.641s.859.168 1.359.563zM-1.75-5.219q-.575-.451-.922-.469-.34-.03-.609.297-.263.344-.156.672c.107.328.309.484.703.797q.581.456.922.484c.341.028.434-.082.609-.312q.268-.328.156-.656-.105-.342-.703-.812zm5.297-2.156q-.581-.45-.922-.484-.33-.045-.594.297c-.264.342-.23.453-.156.672q.105.315.703.781.575.456.922.5.34.034.609-.312c.269-.346.223-.445.141-.656q-.111-.328-.703-.797zm0 0"/><path id="Ag" d="M1.516-2.516.203-.344-.25-.625l-.094-.687-.141-.641q-.154-.655-.297-.953a1 1 0 0 0-.422-.453.53.53 0 0 0-.469-.078q-.246.083-.422.375a1.4 1.4 0 0 0-.187.469 4 4 0 0 0-.078.578V-2l-.437-.266c0-.133.031-.297.094-.484q.095-.294.234-.547c.199-.32.434-.531.703-.625s.547-.055.828.109a1.3 1.3 0 0 1 .297.25 1.8 1.8 0 0 1 .234.328q.083.157.141.344c.058.187.086.277.125.453L0-1.703l.109.688 1.047-1.719zm0 0"/><path id="Ah" d="M1.406-2.328.359-.609.031-.797l.406-.641-2.141-1.312-.406.641-.297-.172q.081-.122.156-.297.065-.17.078-.266a.6.6 0 0 0-.047-.234.4.4 0 0 0-.172-.203l.203-.328 2.875 1.75.391-.656zm0 0"/><path id="Ai" d="M.5-3.187q.498.298.609.813a1.33 1.33 0 0 1-.172.984 1.5 1.5 0 0 1-.328.375 1.05 1.05 0 0 1-.437.188 1.3 1.3 0 0 1-.625.016q-.358-.076-.781-.328a3.5 3.5 0 0 1-.687-.547 2.4 2.4 0 0 1-.422-.656q-.106-.328-.078-.703c.028-.375.117-.508.281-.781A1.2 1.2 0 0 1-2-4.031a1.5 1.5 0 0 1 .156-.156l.406.25-.016.031q-.077.019-.172.125a2 2 0 0 0-.187.234q-.264.456-.141.906.11.456.578.813a3 3 0 0 1 .063-.453 1.3 1.3 0 0 1 .172-.453c.086-.133.172-.242.266-.328q.129-.14.328-.25.252-.107.516-.078c.164.023.344.09.531.203m-.234.453a.9.9 0 0 0-.359-.141 1 1 0 0 0-.359.047.8.8 0 0 0-.219.172 3 3 0 0 0-.172.234A1.5 1.5 0 0 0-1-2.047a2 2 0 0 0-.078.406.3.3 0 0 1 .094.063 1 1 0 0 0 .109.063q.346.205.594.25a.9.9 0 0 0 .406 0 .6.6 0 0 0 .266-.125q.122-.105.203-.234.187-.31.094-.609-.082-.293-.422-.5zm0 0"/><path id="Aj" d="M-1.172-3.297q.486.283.609.625.11.347-.125.734c-.235.387-.352.414-.594.453q-.358.047-.844-.234-.482-.294-.594-.625c-.07-.227-.031-.473.125-.734s.355-.406.594-.437c.242-.039.516.031.828.219zm.016-2.016 2.188 3.594-.219.375-2.187-3.609zm2.938.359q.482.282.594.641c.07.23.031.477-.125.734s-.355.406-.594.438-.516-.047-.828-.234C.516-3.57.316-3.781.234-4q-.11-.341.125-.734c.235-.393.352-.41.594-.453s.516.039.828.234zm-3.187 2.047q-.357-.218-.562-.219c-.205-.001-.242.074-.328.219s-.094.281-.031.406q.081.189.438.406.376.22.594.219.205-.012.328-.234c.123-.222.094-.273.031-.391q-.093-.186-.469-.406zm2.953-1.672q-.362-.232-.578-.219-.205.018-.328.234c-.123.216-.094.281-.031.406.063.117.211.25.453.406q.375.22.563.219.2-.012.328-.234c.128-.222.098-.281.047-.406s-.203-.258-.453-.406zm0 0"/><path id="Ak" d="M1.875-4.391.484-1.125l-.625-.266.531-1.266-4.031-1.719-.531 1.266-.547-.234a4.4 4.4 0 0 0 .203-.562q.082-.312.047-.5a.8.8 0 0 0-.125-.391.94.94 0 0 0-.375-.312l.266-.625L.719-3.422l.531-1.234zm0 0"/><path id="Al" d="M-1.109-5.437q.25-.124.578-.125.318-.013.734.156.406.175.688.469a1.7 1.7 0 0 1 .406.672c.113.281.156.586.125.906a3.6 3.6 0 0 1-.25.969 4.7 4.7 0 0 1-.547.938 4 4 0 0 1-.609.672l-.844-.359.031-.062A3.63 3.63 0 0 0 .468-2.685a2.2 2.2 0 0 0 .141-.578 1.5 1.5 0 0 0-.047-.578 1.4 1.4 0 0 0-.296-.456 1.3 1.3 0 0 0-.484-.312 1.3 1.3 0 0 0-.578-.125.8.8 0 0 0-.453.141 1.2 1.2 0 0 0-.359.375q-.155.235-.297.547l-.156.359-.672-.281.125-.297c.18-.406.234-.77.172-1.094q-.107-.482-.594-.687a.77.77 0 0 0-.422-.062 1 1 0 0 0-.406.141 1.6 1.6 0 0 0-.281.313 2 2 0 0 0-.25.422 2.7 2.7 0 0 0-.203.891q-.029.487.031.969l-.016.047-.844-.359a4.2 4.2 0 0 1 .078-.875 4.3 4.3 0 0 1 .266-.984 5.5 5.5 0 0 1 .422-.75 2 2 0 0 1 .5-.5 1.7 1.7 0 0 1 .672-.219c.23-.031.469.008.719.109q.503.207.719.734a1.8 1.8 0 0 1 .125 1.047l.047.016a3 3 0 0 1 .328-.391 1.2 1.2 0 0 1 .438-.312zm0 0"/><path id="Am" d="M-1.359-6.172A5.5 5.5 0 0 1 0-5.375q.562.455.859 1.016a2.7 2.7 0 0 1 .313 1.219q.014.659-.312 1.422l-.172.391a1.6 1.6 0 0 1-.203.297l-.781-.328.016-.047q.112-.093.266-.281.14-.2.25-.453.375-.889.047-1.625c-.211-.5-.613-.906-1.219-1.219a3.7 3.7 0 0 1 .031.844 2.6 2.6 0 0 1-.219.766q-.154.376-.359.641c-.205.265-.316.34-.547.484q-.405.252-.844.281-.451.017-.984-.219-.92-.388-1.25-1.25a2.28 2.28 0 0 1 .031-1.734q.207-.434.5-.734a2.5 2.5 0 0 1 .672-.5 2.4 2.4 0 0 1 1.094-.156q.61.034 1.453.391zm-.516.75q-.64-.263-1.062-.297a1.37 1.37 0 0 0-.75.109 1.04 1.04 0 0 0-.437.297 1.7 1.7 0 0 0-.281.422q-.248.596-.016 1.094.22.485.875.766a1.8 1.8 0 0 0 .672.156 1.1 1.1 0 0 0 .578-.172 1.5 1.5 0 0 0 .344-.328 2.2 2.2 0 0 0 .25-.469 2.3 2.3 0 0 0 .188-.672 3 3 0 0 0 0-.734 1 1 0 0 1-.156-.062 3 3 0 0 0-.203-.109zm0 0"/><path id="An" d="M-2.828-5.437q.907.394 1.188.969c.18.375.164.805-.047 1.281q-.31.75-.906.938-.608.175-1.516-.219c-.908-.394-.992-.578-1.172-.953q-.263-.575.031-1.297.315-.731.922-.906.609-.187 1.5.188zm-.484-3.516 4.688 5.734-.297.672-4.672-5.734zm5.188-.094q.902.394 1.172.969.28.581-.031 1.297-.315.736-.922.922-.596.189-1.484-.203-.907-.374-1.187-.953c-.28-.579-.18-.816.016-1.297q.329-.748.922-.922.608-.187 1.516.188zM-3.14-4.719q-.702-.293-1.047-.234-.356.064-.531.469c-.175.405-.102.508.031.703q.188.3.891.594c.703.294.824.277 1.063.234q.345-.058.516-.469c.171-.411.109-.504-.016-.703q-.201-.294-.906-.594zm4.719-3.609Q.875-8.621.517-8.562q-.345.064-.516.469-.185.423.016.719c.201.296.438.398.906.594q.702.316 1.047.25c.345-.066.406-.203.531-.484q.169-.405-.031-.703-.188-.292-.891-.609zm0 0"/><path id="Ao" d="M.641.203.172.047l.031-.094.188.063.187-.594-.187-.063.015-.078q.028.018.063.031a.3.3 0 0 0 .094-.016q.03.001.047-.016.03-.014.047-.062L.75-.75.5.047l.172.062zm0 0"/><path id="Ap" d="M.703.219.094.031l.031-.125a1 1 0 0 0 .172-.062q.076-.03.156-.078a2 2 0 0 0 .203-.125.2.2 0 0 0 .078-.125Q.747-.562.719-.609.701-.668.625-.703a.4.4 0 0 0-.141 0h-.14l.047-.109a.25.25 0 0 1 .109 0c.051 0 .102.008.156.016a.3.3 0 0 1 .172.141.24.24 0 0 1 .031.203.5.5 0 0 1-.047.094q-.018.047-.047.047a.6.6 0 0 1-.094.078 1 1 0 0 0-.094.047l-.172.094a.7.7 0 0 1-.155.045l.484.156zm0 0"/><path id="Aq" d="M.938-.547.297.094.172.047l.672-.656-.5-.156.031-.094.609.188zm0 0"/><path id="Ar" d="M.844-.234C.789-.066.727.039.656.094a.27.27 0 0 1-.265.047C.273.098.203.035.172-.047q-.036-.14.047-.39C.27-.594.328-.695.391-.75q.105-.091.281-.031a.26.26 0 0 1 .188.188c.031.094.023.215-.016.359M.594 0l.063-.109c.02-.039.039-.094.063-.156a.4.4 0 0 0 .03-.157.3.3 0 0 0 0-.125.15.15 0 0 0-.031-.094Q.7-.67.641-.687.578-.716.531-.703C.484-.69.472-.672.453-.64a.3.3 0 0 0-.062.109.7.7 0 0 0-.047.14l-.062.172a.15.15 0 0 0 .016.125q-.001.033.016.078.03.029.094.063.058.012.094 0A1 1 0 0 0 .594 0m0 0"/><path id="As" d="M.297.094.156.047l.047-.172.141.047zm0 0"/><path id="At" d="M.797-.031.656-.062l-.078.25L.484.141l.078-.25-.437-.125.047-.141.594-.375.094.047-.172.547.141.031zM.594-.203l.125-.406-.469.313zm0 0"/><path id="Au" d="M.719-.484q-.047.14-.125.188C.551-.265.492-.257.422-.28Q.294-.31.266-.391A.44.44 0 0 1 .297-.61q.029-.14.109-.187c.08-.047.114-.035.188-.015s.113.059.125.109a.4.4 0 0 1 0 .219m.5-.109L.484.141.375.109l.75-.734zm.078.719a.4.4 0 0 1-.109.172q-.066.06-.172.031C.93.305.879.266.859.203.836.148.844.086.875.016q.03-.14.094-.187.075-.046.203-.016.106.034.125.109c.02.055.02.117 0 .203zM.625-.516c.02-.07.023-.125.016-.156S.602-.723.563-.734s-.079-.004-.11.015q-.034.036-.062.141c-.028.105-.027.125-.016.156q.013.035.078.047c.065.012.07.012.094 0q.045-.03.078-.141m.578.609a.3.3 0 0 0 .016-.141q-.002-.06-.062-.078c-.06-.018-.078 0-.109.031Q1-.06.97.046.934.125.953.172a.1.1 0 0 0 .078.078q.058.014.094-.031.045-.032.078-.125zm0 0"/><path id="Av" d="M.328.094.094.031l.015-.047L.188 0l.094-.312-.078-.016v-.031h.062q.03.001.031-.016l.031-.031h.031L.25.016l.094.031zm0 0"/><path id="Aw" d="M.359.109.047.016l.016-.063q.045-.03.078-.031a.16.16 0 0 0 .078-.047l.109-.062a.3.3 0 0 0 .047-.062Q.388-.295.359-.311a.1.1 0 0 0-.046-.048H.172l.016-.062q.014-.012.063 0h.078q.058.033.094.078.028.035.016.094c0 .023-.008.043-.016.063l-.031.031q-.035.033-.047.031C.333-.126.318-.112.298-.093l-.094.047a.2.2 0 0 0-.062.031l.234.078zm0 0"/><path id="Ax" d="M.438-.141a1 1 0 0 1-.047.094.4.4 0 0 1-.078.078.16.16 0 0 1-.079.016.4.4 0 0 1-.093.016Q.122.046.109.047C.096.048.086.035.078.016l.016-.062q.013.033.031.031c.018-.002.02.008.031.016q.075.013.109-.016a.3.3 0 0 0 .094-.109.14.14 0 0 1-.078.031L.234-.125H.172Q.155-.137.156-.172.123-.184.125-.219c.002-.035.004-.039.016-.062q.014-.092.063-.125c.049-.033.07-.02.125 0q.012.001.047.031.03.018.047.047a.1.1 0 0 1 .016.063.3.3 0 0 1 0 .125zM.375-.187c.008-.031.016-.055.016-.078S.379-.301.359-.312a.02.02 0 0 0-.016-.016.02.02 0 0 0-.016-.016q-.064-.012-.094 0c-.03.012-.039.031-.047.063q-.018.035 0 .047c.018.012.016.027.016.047q-.001.017.016.016c.017-.001.023.008.047.016.008 0 .023.008.047.016q.03.001.047-.016l.016-.016zm0 0"/><path id="Ay" d="M.422-.109a.3.3 0 0 1-.094.156Q.281.092.203.078a.2.2 0 0 1-.109-.094.36.36 0 0 1 .015-.187q.048-.14.094-.188c.046-.048.07-.035.125-.016a.12.12 0 0 1 .094.094q.03.081 0 .203zm-.109.094q-.001-.03.016-.047L.36-.14c.008-.039.016-.07.016-.094S.379-.27.391-.281L.359-.328C.348-.336.336-.344.328-.344a.08.08 0 0 0-.062 0c-.012 0-.023.008-.031.016a.1.1 0 0 0-.047.047c0 .023-.008.055-.016.094l-.031.078q-.001.018.016.047-.018.035 0 .047.029.016.063.031h.03Q.279.015.313-.015m0 0"/><path id="Az" d="M.141.047.078.016l.031-.094.063.031zm0 0"/><path id="BA" d="M.375-.25a.15.15 0 0 1-.062.094q-.035.018-.094 0C.16-.174.148-.18.141-.203a.17.17 0 0 1 0-.109q.01-.077.047-.094a.11.11 0 0 1 .093-.016q.06.016.078.063.028.034.016.109m.234-.078L.25.078.203.063l.36-.407zm.047.391Q.64.123.594.141a.12.12 0 0 1-.078.031.3.3 0 0 1-.078-.078.17.17 0 0 1 0-.11Q.466-.092.5-.109a.08.08 0 0 1 .094 0q.046 0 .063.047.03.045 0 .125zM.313-.266q.012-.06 0-.078-.001-.03-.031-.031a.08.08 0 0 0-.062 0q-.019.019-.031.078a.2.2 0 0 0-.016.078.1.1 0 0 0 .047.031q.03.001.047-.016.03-.014.047-.062zM.61.047a.13.13 0 0 0 0-.078Q.609-.061.579-.062q-.036-.012-.048 0A.13.13 0 0 0 .5 0a.3.3 0 0 0-.016.078.1.1 0 0 0 .047.047c.02 0 .035-.008.047-.016Q.591.107.609.047zm0 0"/><path id="BB" d="M.813-3.891.203-1l-.547-.109.234-1.109-3.578-.75-.234 1.109-.484-.109q.048-.217.078-.484.017-.279-.031-.406a.9.9 0 0 0-.172-.312.62.62 0 0 0-.359-.187l.125-.562L.047-2.906.266-4zm0 0"/><path id="BC" d="M-.828-4.5q.393.082.703.281.295.205.484.484.187.33.25.719.06.376-.031.828a3.6 3.6 0 0 1-.281.828 3.5 3.5 0 0 1-.359.641l-.766-.156.016-.047q.269-.246.484-.609.205-.374.281-.766.063-.247.031-.5a1.2 1.2 0 0 0-.156-.484A1.2 1.2 0 0 0-.5-3.578a1.4 1.4 0 0 0-.484-.203 1.3 1.3 0 0 0-.484 0 .67.67 0 0 0-.359.203q-.152.159-.281.406c-.129.247-.145.367-.187.594a4.5 4.5 0 0 0-.078.609l-.016.516-2.766-.578.672-3.203.641.141-.531 2.516 1.422.297.047-.312.047-.297a3.5 3.5 0 0 1 .234-.719 2 2 0 0 1 .391-.562 1.26 1.26 0 0 1 .594-.328q.344-.093.813 0zm0 0"/><path id="BD" d="M.875-4.187.125-.578l-.75-.156-.484-.891-.5-.828q-.515-.826-.859-1.172c-.344-.346-.5-.375-.812-.437q-.406-.077-.687.141-.294.221-.406.719a3 3 0 0 0-.031.734 2.7 2.7 0 0 0 .203.813l-.016.047-.75-.156a3 3 0 0 1-.078-.734 3.5 3.5 0 0 1 .078-.859q.176-.81.656-1.187c.48-.377.715-.328 1.172-.234a2.3 2.3 0 0 1 .547.188q.236.129.453.328a3.5 3.5 0 0 1 .359.422l.391.547.547.953.516.906.594-2.875zm0 0"/><path id="BE" d="M-3.203-3.984q.797.174 1.125.594.316.408.188 1.063c-.094.43-.289.73-.594.906q-.468.253-1.266.078c-.531-.102-.898-.297-1.109-.578q-.328-.42-.187-1.062c.094-.445.293-.75.594-.906q.455-.246 1.25-.094zm-.953-2.781 4.75 3.922-.125.578-4.75-3.906zm4.219-.922q.809.174 1.125.594.328.423.188 1.063-.141.657-.609.922c-.312.168-.738.195-1.266.078s-.898-.312-1.109-.594-.27-.633-.187-1.062q.141-.655.609-.906.458-.264 1.25-.094zm-3.391 4.359q-.621-.122-.891-.016-.263.094-.344.469-.075.363.125.563c.2.2.414.246.828.328q.626.142.906.031.269-.106.344-.469.082-.375-.125-.562-.217-.201-.844-.344zm3.25-3.719c-.406-.082-.695-.086-.875-.016q-.28.112-.359.453-.076.376.141.594.204.205.813.328c.414.094.719.105.906.031s.305-.234.359-.484q.077-.341-.141-.547-.223-.218-.844-.359m0 0"/><path id="BF" d="M.516.063.141.016l.015-.078.125.016.063-.469-.125-.016v-.047h.094Q.36-.591.36-.609a.2.2 0 0 0 .031-.047h.063l-.078.625.156.016zm0 0"/><path id="BG" d="M.563.078.078.016l.016-.11.094-.062a.4.4 0 0 0 .109-.078l.141-.109a.15.15 0 0 0 .046-.11Q.497-.498.469-.531a.11.11 0 0 0-.094-.047.2.2 0 0 0-.094 0 .2.2 0 0 0-.094.031H.172l.016-.109a.2.2 0 0 1 .078-.016.25.25 0 0 1 .109 0q.106 0 .172.078a.2.2 0 0 1 .063.141l-.031.078a.3.3 0 0 1-.047.063.3.3 0 0 1-.048.062c-.023.012-.046.027-.078.047a.4.4 0 0 1-.109.078.24.24 0 0 0-.094.078L.578 0zm0 0"/><path id="BH" d="M.594-.266A.8.8 0 0 1 .5 0Q.437.075.297.063a.25.25 0 0 1-.172-.11.47.47 0 0 1-.016-.281q.03-.2.094-.266a.22.22 0 0 1 .188-.062q.14.017.188.109c.048.092.035.156.016.281zm-.156.188q.03-.045.031-.078L.5-.281l.016-.125A.3.3 0 0 0 .5-.5a.13.13 0 0 0-.047-.047Q.436-.577.391-.578q-.049-.012-.078 0a.08.08 0 0 0-.047.047q-.019.018-.032.078c0 .031-.008.074-.016.125s-.016.094-.016.125v.094Q.2-.075.233-.046q.03.019.078.031.045.001.078-.016c.033-.017.035-.023.047-.047zm0 0"/><path id="BI" d="M.219.031.125.016l.016-.141.094.016zm0 0"/><path id="BJ" d="M.531-.266q.03.017.031.063a.2.2 0 0 1 .016.078.4.4 0 0 0-.031.078Q.528-.013.469.016a.12.12 0 0 1-.078.031.5.5 0 0 1-.109.016.4.4 0 0 1-.109-.047L.078-.016l.016-.109H.11q.03.034.078.063a.4.4 0 0 0 .109.047q.029.001.063-.016c.034-.017.039-.016.063-.016a.2.2 0 0 0 .03-.047q.03-.03.031-.047a.1.1 0 0 0-.016-.062.1.1 0 0 0-.016-.047Q.419-.28.391-.281C.367-.289.348-.297.328-.297L.281-.312l.016-.079h.031a.2.2 0 0 0 .125 0 .15.15 0 0 0 .063-.094c0-.008-.008-.02-.016-.031S.477-.539.469-.562H.422C.41-.57.398-.578.391-.578a.3.3 0 0 0-.11 0 .2.2 0 0 0-.094.031l.016-.109a.2.2 0 0 1 .078-.016.25.25 0 0 1 .109 0q.045.001.078.031l.078.031q.047.033.047.078c.008.023.016.043.016.063q-.017.064-.062.094a.16.16 0 0 1-.109.031v.016a.1.1 0 0 0 .047.031q.03.001.047.031zm0 0"/><path id="BK" d="M.594-.109q-.017.082-.11.125Q.403.074.297.063C.191.052.164.023.125-.016Q.077-.09.094-.172a.2.2 0 0 1 .031-.109.23.23 0 0 1 .109-.062L.172-.422a.1.1 0 0 1-.016-.094q0-.078.063-.125a.26.26 0 0 1 .172-.031q.106.019.172.078c.066.059.063.086.063.125a.5.5 0 0 1-.047.094.3.3 0 0 1-.109.063.3.3 0 0 1 .094.094.2.2 0 0 1 .031.109zM.516-.484Q.515-.513.485-.546a.11.11 0 0 0-.094-.048.15.15 0 0 0-.11.016Q.248-.561.25-.531q-.018.034 0 .063c.018.029.023.043.047.063q.029.001.063.031l.047.031q.06-.012.078-.047a1 1 0 0 1 .031-.094m-.031.359c0-.02-.008-.039-.016-.062Q.467-.216.407-.249a.1.1 0 0 0-.048-.017.3.3 0 0 1-.078-.046q-.034.017-.062.046c-.028.029-.031.055-.031.094a.09.09 0 0 0 .016.094.2.2 0 0 0 .109.063.25.25 0 0 0 .109-.016.15.15 0 0 0 .063-.094m0 0"/><path id="BL" d="M.484-.453q-.002.11-.062.156-.046.048-.141.031C.227-.273.191-.297.172-.328A.34.34 0 0 1 .141-.5a.24.24 0 0 1 .062-.141.15.15 0 0 1 .125-.031c.063.012.102.039.125.078q.045.046.031.141m.344-.156L.375.047H.297L.75-.609zm.156.547a.26.26 0 0 1-.062.14.13.13 0 0 1-.125.047.23.23 0 0 1-.141-.078.23.23 0 0 1-.015-.156.26.26 0 0 1 .062-.157c.039-.031.094-.039.156-.031a.16.16 0 0 1 .109.078c.02.031.023.086.016.156zM.391-.469q.012-.058 0-.094C.379-.599.359-.598.328-.609a.1.1 0 0 0-.078.031Q.232-.559.219-.5v.141q.014.033.063.031.045.019.078-.016c.033-.035.031-.062.031-.125m.531.406c0-.051-.008-.094-.016-.125S.875-.234.844-.234s-.059.011-.078.031-.032.058-.032.109q-.018.082 0 .109.014.047.063.047C.846.062.852.051.875.031.895.02.91-.008.922-.062zm0 0"/><path id="BM" d="M.156-1.937.047-.5l-.266-.016.047-.547-1.797-.156-.047.547-.234-.016v-.234a.6.6 0 0 0-.031-.219.4.4 0 0 0-.109-.125.3.3 0 0 0-.172-.078l.016-.281 2.391.203.047-.531zm0 0"/><path id="BN" d="M-.687-2.219a.92.92 0 0 1 .641.344.92.92 0 0 1 .203.672 1.1 1.1 0 0 1-.094.359.6.6 0 0 1-.203.266.9.9 0 0 1-.406.203 1.8 1.8 0 0 1-.609.031 2.5 2.5 0 0 1-.625-.125 1.2 1.2 0 0 1-.453-.281 1.2 1.2 0 0 1-.266-.422 1.3 1.3 0 0 1-.078-.594l.031-.172q.018-.076.047-.156l.328.031v.016l-.047.141q-.03.096-.047.203-.03.394.188.641.206.252.609.328a2 2 0 0 1-.109-.312 1.4 1.4 0 0 1-.016-.344 1.2 1.2 0 0 1 .063-.297.54.54 0 0 1 .141-.25.6.6 0 0 1 .281-.219.94.94 0 0 1 .422-.062zm-.031.375q-.153.001-.266.031a.5.5 0 0 0-.203.141.45.45 0 0 0-.078.188q-.03.096-.047.203a1 1 0 0 0 .016.297c.012.086.039.172.078.266a.2.2 0 0 0 .078.016h.094q.283.033.453-.016c.17-.049.203-.078.266-.141a.6.6 0 0 0 .141-.156.5.5 0 0 0 .047-.219.49.49 0 0 0-.109-.406q-.153-.169-.469-.203zm0 0"/><path id="BO" d="M-1.797-1.734q.392.033.578.219c.125.117.18.281.156.5s-.098.383-.234.484c-.145.094-.348.133-.609.109s-.445-.094-.562-.219q-.187-.185-.156-.5.035-.328.234-.469.206-.154.594-.125zm-.625-1.297L.125-1.422l-.031.297-2.547-1.609zm2-.703c.262.023.445.094.563.219q.187.189.156.5c-.023.219-.102.383-.234.484s-.332.148-.594.125q-.406-.03-.594-.219c-.188-.189-.176-.297-.156-.516q.033-.31.25-.469.206-.154.609-.125zm-1.391 2.313q-.31-.03-.437.047-.123.064-.141.25c-.008.117.023.203.094.266q.111.082.422.109.298.018.438-.047.129-.059.141-.234.018-.188-.094-.281-.123-.093-.422-.109zm1.359-1.984q-.31-.03-.437.047-.14.064-.156.234-.013.188.109.281.111.082.422.109c.311.027.355.012.438-.031q.123-.078.141-.266.012-.169-.094-.25-.105-.092-.422-.125zm0 0"/><path id="BP" d="M.672.016.172 0v-.094l.203.016.031-.625-.203-.016v-.078h.078a.16.16 0 0 0 .078-.016.14.14 0 0 0 .047-.031.2.2 0 0 0 .016-.078h.094l-.031.844h.188zm0 0"/><path id="BQ" d="M.75-.484a.45.45 0 0 1-.047.203 1 1 0 0 1-.078.172A.6.6 0 0 1 .469 0a.6.6 0 0 1-.188.031.2.2 0 0 0-.078-.015C.191.016.176.008.156 0v-.109h.016q.012.002.047.016a.2.2 0 0 0 .078.016c.094 0 .164-.023.219-.078Q.61-.232.61-.389a.23.23 0 0 1-.109.063h-.11Q.345-.325.297-.342a.3.3 0 0 1-.094-.049.18.18 0 0 1-.094-.093.5.5 0 0 1-.016-.141.32.32 0 0 1 .109-.219.3.3 0 0 1 .219-.094.24.24 0 0 1 .125.031q.06.017.109.063c.049.046.051.078.063.141a.7.7 0 0 1 .031.219zM.625-.531a1 1 0 0 0-.016-.156Q.592-.747.563-.781C.534-.815.52-.812.5-.812a.2.2 0 0 0-.078-.016q-.093 0-.141.047C.233-.734.226-.703.219-.64q-.001.064.016.109a.3.3 0 0 0 .047.078q.029.019.063.031h.078a.3.3 0 0 0 .094-.016.4.4 0 0 0 .094-.031C.619-.477.627-.489.627-.5v-.031zm0 0"/><path id="BR" d="M.766-.234.625-.25.609.016H.5L.516-.25.063-.266v-.141l.469-.516h.109l-.016.578.141.016zm-.25-.109.016-.422-.375.406zm0 0"/><path id="BS" d="M.75-.437q-.018.252-.094.359C.58.029.52.031.406.031Q.231.016.156-.094.076-.217.094-.469c.018-.252.039-.285.094-.359q.074-.122.25-.109.17 0 .234.141a.7.7 0 0 1 .078.359m-.187.266A.4.4 0 0 0 .61-.28a1 1 0 0 0 .016-.172A1 1 0 0 0 .61-.608c0-.051-.008-.094-.016-.125S.563-.785.531-.797a.14.14 0 0 0-.093-.031.2.2 0 0 0-.109.031.1.1 0 0 0-.047.063.2.2 0 0 0-.047.109v.156a1 1 0 0 1-.016.172q-.002.065.031.125a.14.14 0 0 0 .047.078q.045.033.109.031C.47-.065.477-.066.5-.078a.15.15 0 0 0 .063-.094zm0 0"/><path id="BT" d="M.313.016.156 0v-.172l.156.016zm0 0"/><path id="BU" d="M.734.031.094 0v-.125l.141-.109a.7.7 0 0 0 .141-.109l.156-.172a.3.3 0 0 0 .047-.156Q.593-.747.548-.78a.17.17 0 0 0-.126-.048c-.043 0-.09.008-.141.016a1 1 0 0 0-.125.047V-.89a.2.2 0 0 1 .109-.031 1 1 0 0 1 .156-.016c.094 0 .164.027.219.078q.075.064.063.188a.4.4 0 0 1-.016.094.1.1 0 0 1-.031.078 1 1 0 0 0-.062.094l-.078.078q-.064.065-.141.125a1 1 0 0 1-.141.094l.5.031zm0 0"/><path id="BV" d="M.563-.656a.36.36 0 0 1-.062.219C.47-.394.415-.374.345-.374Q.215-.388.156-.453a.43.43 0 0 1-.047-.219q.013-.14.078-.203.06-.075.172-.062c.07 0 .125.027.156.078q.059.063.047.203zm.453-.25L.5.016H.391l.516-.922zm.281.688q-.019.143-.078.203c-.031.039-.086.063-.156.063C.977.047.914.023.875-.016a.3.3 0 0 1-.031-.203q0-.14.047-.203.058-.077.187-.078c.07 0 .125.027.156.078a.34.34 0 0 1 .063.203zM.453-.656Q.466-.761.437-.797.419-.844.359-.844c-.06 0-.074.012-.094.031s-.039.07-.047.141q-.002.11.031.156c.033.046.051.047.094.047S.41-.477.422-.5a.3.3 0 0 0 .031-.156m.734.422a.3.3 0 0 0-.031-.141q-.019-.047-.078-.047c-.059 0-.074.016-.094.047s-.031.086-.031.156q-.019.094.016.141c.035.047.051.047.094.047s.066-.016.078-.047a.4.4 0 0 0 .047-.156zm0 0"/><path id="BW" d="M.375 0H.047v-.078A.2.2 0 0 0 .11-.125a.4.4 0 0 0 .078-.062q.06-.058.078-.094C.284-.317.281-.32.281-.344q0-.046-.031-.062a.1.1 0 0 0-.062-.016.2.2 0 0 0-.062.016c-.012 0-.027.008-.047.016H.063v-.062q.011-.015.046-.017c.032-.008.055-.015.079-.015q.078.001.125.031c.047.03.047.055.047.094 0 .023-.008.043-.016.063 0 .012-.008.027-.016.047l-.031.031-.047.047-.062.063-.062.063h.25zm0 0"/><path id="BX" d="M.375-.234q0 .129-.047.188C.305-.004.266.016.203.016a.14.14 0 0 1-.125-.063.4.4 0 0 1-.031-.187q-.002-.14.031-.187a.15.15 0 0 1 .125-.062c.063 0 .102.023.125.063a.3.3 0 0 1 .047.188zm-.094.141c.008-.02.016-.039.016-.062.008-.02.016-.047.016-.078S.305-.289.297-.312a.1.1 0 0 0-.016-.062Q.28-.404.25-.405.232-.42.203-.422C.174-.424.164-.414.156-.406q-.018.001-.031.031-.017.017-.016.063v.156q-.001.034.016.063-.001.018.016.031.028.017.063.016C.239-.047.238-.051.25-.062q.03-.013.031-.031m0 0"/><path id="BY" d="M.156 0H.078v-.094h.078zm0 0"/><path id="BZ" d="M.344 0h-.25v-.047h.094v-.328H.094v-.031h.031c.02-.008.031-.016.031-.016q.03.001.031-.016c.001-.017.004-.023.016-.047H.25v.438h.094zm0 0"/><path id="Ba" d="M.281-.344a.2.2 0 0 1-.031.109q-.035.033-.094.031-.048.002-.078-.031a.17.17 0 0 1-.031-.109Q.045-.419.078-.453c.033-.034.047-.031.078-.031q.058.001.094.031c.036.03.031.059.031.109M.5-.484.25 0H.203l.25-.484zm.156.359a.2.2 0 0 1-.031.109.1.1 0 0 1-.078.032Q.483.015.453-.016a.17.17 0 0 1-.031-.109Q.42-.201.453-.234q.03-.047.094-.047.045 0 .078.047.03.034.031.109M.219-.344a.1.1 0 0 0-.016-.062Q.185-.436.156-.437C.127-.438.117-.425.109-.406v.141q.011.017.047.016C.192-.25.191-.253.203-.265S.219-.3.219-.343zm.391.219a.15.15 0 0 0-.016-.078Q.576-.233.547-.234C.518-.235.508-.223.5-.203q-.017.019-.016.078A.15.15 0 0 0 .5-.047q.011.017.047.016c.036-.001.035-.004.047-.016A.2.2 0 0 0 .61-.125m0 0"/><clipPath id="Bc"><path d="M0 0h263v263H0z"/></clipPath><clipPath id="Bf"><path d="M0 0h42v66H0z"/></clipPath><clipPath id="Bi"><path d="M0 0h42v61H0z"/></clipPath><clipPath id="Bl"><path d="M1 1h38.922v56H1zm0 0" class="H"/></clipPath><clipPath id="Bm"><path d="M0 0h40v58H0z"/></clipPath><clipPath id="Bp"><path d="M0 0h40v57H0z"/></clipPath><clipPath id="Bs"><path d="M1 1h39v54.762H1zm0 0" class="H"/></clipPath><clipPath id="Bt"><path d="M0 0h41v56H0z"/></clipPath><clipPath id="Bw"><path d="M0 0h61v66H0z"/></clipPath><clipPath id="Bz"><path d="M0 0h64v56H0z"/></clipPath><clipPath id="CC"><path d="M1 .238h62V42H1zm0 0" class="H"/></clipPath><clipPath id="CD"><path d="M0 0h64v43H0z"/></clipPath><clipPath id="CG"><path d="M1 1h59v32.641H1zm0 0" class="H"/></clipPath><clipPath id="CH"><path d="M0 0h61v34H0z"/></clipPath><clipPath id="CK"><path d="M1 1h67v42.922H1zm0 0" class="H"/></clipPath><clipPath id="CL"><path d="M0 0h70v44H0z"/></clipPath><clipPath id="CO"><path d="M1 .52h64V23H1zm0 0" class="H"/></clipPath><clipPath id="CP"><path d="M0 0h66v25H0z"/></clipPath><clipPath id="CS"><path d="M0 0h67v23H0z"/></clipPath><clipPath id="CV"><path d="M0 0h66v21H0z"/></clipPath><clipPath id="CY"><path d="M0 0h69v28H0z"/></clipPath><clipPath id="Cb"><path d="M0 0h68v14H0z"/></clipPath><clipPath id="Ce"><path d="M1 1h66v9.801H1zm0 0" class="H"/></clipPath><clipPath id="Cf"><path d="M0 0h68v11H0z"/></clipPath><clipPath id="Ci"><path d="M1 .238h66V10H1zm0 0" class="H"/></clipPath><clipPath id="Cj"><path d="M0 0h68v11H0z"/></clipPath><clipPath id="Cm"><path d="M1 .398h67V13H1zm0 0" class="H"/></clipPath><clipPath id="Cn"><path d="M0 0h68v14H0z"/></clipPath><clipPath id="Cq"><path d="M.078 1H67v5H.078zm0 0" class="H"/></clipPath><clipPath id="Cr"><path d="M0 0h67v7H0z"/></clipPath><clipPath id="Cu"><path d="M.078.238H67V6H.078zm0 0" class="H"/></clipPath><clipPath id="Cv"><path d="M0 0h67v7H0z"/></clipPath><clipPath id="Cy"><path d="M.078 1H67v2.641H.078zm0 0" class="H"/></clipPath><clipPath id="Cz"><path d="M0 0h67v4H0z"/></clipPath><clipPath id="DC"><path d="M.078 1H67v2.922H.078zm0 0" class="H"/></clipPath><clipPath id="DD"><path d="M0 0h67v4H0z"/></clipPath><mask id="Bb"><g class="B"><path d="M-26.304-26.304h315.648v315.648H-26.304z" class="C D"/></g></mask><mask id="Be"><g class="B"><path d="M-26.304-26.304h315.648v315.648H-26.304z" class="C D"/></g></mask><mask id="Bh"><g class="B"><path d="M-26.304-26.304h315.648v315.648H-26.304z" class="C D"/></g></mask><mask id="Bk"><g class="B"><path d="M-26.304-26.304h315.648v315.648H-26.304z" class="C D"/></g></mask><mask id="Bo"><g class="B"><path d="M-26.304-26.304h315.648v315.648H-26.304z" class="C D"/></g></mask><mask id="Br"><g class="B"><path d="M-26.304-26.304h315.648v315.648H-26.304z" class="C D"/></g></mask><mask id="Bv"><g class="B"><path d="M-26.304-26.304h315.648v315.648H-26.304z" class="C D"/></g></mask><mask id="By"><g class="B"><path d="M-26.304-26.304h315.648v315.648H-26.304z" class="C D"/></g></mask><mask id="CB"><g class="B"><path d="M-26.304-26.304h315.648v315.648H-26.304z" class="C D"/></g></mask><mask id="CF"><g class="B"><path d="M-26.304-26.304h315.648v315.648H-26.304z" class="C D"/></g></mask><mask id="CJ"><g class="B"><path d="M-26.304-26.304h315.648v315.648H-26.304z" class="C D"/></g></mask><mask id="CN"><g class="B"><path d="M-26.304-26.304h315.648v315.648H-26.304z" class="C D"/></g></mask><mask id="CR"><g class="B"><path d="M-26.304-26.304h315.648v315.648H-26.304z" class="C D"/></g></mask><mask id="CU"><g class="B"><path d="M-26.304-26.304h315.648v315.648H-26.304z" class="C D"/></g></mask><mask id="CX"><g class="B"><path d="M-26.304-26.304h315.648v315.648H-26.304z" class="C D"/></g></mask><mask id="Ca"><g class="B"><path d="M-26.304-26.304h315.648v315.648H-26.304z" class="C D"/></g></mask><mask id="Cd"><g class="B"><path d="M-26.304-26.304h315.648v315.648H-26.304z" class="C D"/></g></mask><mask id="Ch"><g class="B"><path d="M-26.304-26.304h315.648v315.648H-26.304z" class="C D"/></g></mask><mask id="Cl"><g class="B"><path d="M-26.304-26.304h315.648v315.648H-26.304z" class="C D"/></g></mask><mask id="Cp"><g class="B"><path d="M-26.304-26.304h315.648v315.648H-26.304z" class="C D"/></g></mask><mask id="Ct"><g class="B"><path d="M-26.304-26.304h315.648v315.648H-26.304z" class="C D"/></g></mask><mask id="Cx"><g class="B"><path d="M-26.304-26.304h315.648v315.648H-26.304z" class="C D"/></g></mask><mask id="DB"><g class="B"><path d="M-26.304-26.304h315.648v315.648H-26.304z" class="C D"/></g></mask><g id="Bd" clip-path="url(#Bc)"><path d="M196.875 131.5h65.375l-.187-6.984-.559-6.965-.934-6.922-1.297-6.867-1.664-6.785-2.023-6.687-2.379-6.57-2.727-6.43-3.066-6.281-3.398-6.105-3.715-5.914-4.031-5.707-4.328-5.484-4.613-5.246-4.887-4.992-5.148-4.727-5.395-4.441-5.621-4.145-5.836-3.844-6.035-3.523-6.211-3.195-6.375-2.859-6.52-2.516-6.641-2.164-6.75-1.809-6.836-1.441-6.902-1.074-6.953-.707-6.977-.332c-2.332-.051-4.66-.035-6.988.039l-6.977.414-6.941.785-6.891 1.156-6.816 1.52-6.73 1.883-6.617 2.242-6.488 2.59-6.34 2.934-6.176 3.27-5.992 3.59-5.793 3.91-5.574 4.211-5.34 4.504-5.094 4.785-4.832 5.047-4.551 5.297-4.266 5.535-3.965 5.754-3.648 5.957-3.324 6.145-2.996 6.313-2.652 6.465-2.301 6.598-1.945 6.711-1.586 6.801-1.223 6.883-.852 6.934-.477 6.969-.105 6.988.266 6.98.641 6.957 1.008 6.914 1.379 6.848 1.742 6.766 2.102 6.664 2.453 6.543 2.801 6.398 3.137 6.246 3.469 6.063 3.785 5.875 4.094 5.66 4.391 5.434 4.676 5.191 4.945 4.938 5.203 4.664 5.441 4.379 5.672 4.082 5.879 3.773 6.074 3.453 6.25 3.125 6.406 2.789 6.547 2.441 6.668 2.086 6.77 1.727 6.852 1.363 6.914.996 6.961.625 6.98.254 6.984-.121 6.973-.492 6.93-.867 6.879-1.234 6.801-1.598 6.707-1.961 6.59-2.316 6.457-2.668-26.543-59.742-3.227 1.332-3.297 1.16-3.355.98-3.398.801-3.437.617-3.469.43-3.484.25-3.492.059-3.492-.125-3.477-.312-3.461-.5-3.426-.68-3.383-.867-3.336-1.043-3.273-1.219-3.203-1.395-3.125-1.562-3.035-1.727-2.941-1.887-2.832-2.043-2.723-2.187-2.602-2.332-2.473-2.469-2.336-2.594-2.195-2.719-2.047-2.832-1.895-2.934-1.734-3.035-1.566-3.121-1.402-3.199-1.227-3.27-1.051-3.332-.871-3.383-.687-3.426-.508-3.457-.32-3.48-.133-3.488.055-3.492.238-3.488.426-3.465.609-3.441.793-3.402.977-3.355 1.148-3.297 1.328-3.23 1.496-3.156 1.664-3.074 1.824-2.977 1.98-2.879 2.133-2.766 2.277-2.652 2.414-2.523 2.547-2.391 2.672-2.25 2.785-2.109 2.895-1.953 2.996-1.797 3.09-1.633 3.168-1.465 3.246-1.297 3.309-1.121 3.363-.941 3.41-.762 3.445-.578 3.473-.391 3.484-.207 3.496-.02 3.488.164 3.477.355 3.449.535 3.418.723 3.375.902 3.324 1.082 3.258 1.258 3.188 1.43 3.105 1.602 3.016 1.762 2.918 1.918 2.813 2.074 2.695 2.223 2.574 2.359 2.445 2.496 2.309 2.625 2.164 2.742 2.012 2.852 1.859 2.961 1.699 3.051 1.531 3.141 1.363 3.215 1.191 3.285 1.012 3.344.832 3.395.648 3.43.465 3.465.281 3.48.094 3.492zm0 0" class="E F I"/></g><g id="Bg" clip-path="url(#Bf)"><path d="m2.043 5.242 26.543 59.742A131 131 0 0 0 41 58.66L8.25 2.078a64 64 0 0 1-6.207 3.164m0 0" class="E F I"/></g><g id="Bj" clip-path="url(#Bi)"><path d="M1.25 3.078 34 59.66l6.664-4.129L4.582 1.016zm0 0" class="E F I"/></g><g id="Bn" clip-path="url(#Bl)"><path d="m1.582 2.016 36.082 54.516 1.445-.973L2.305 1.531l-.723.484zm0 0" class="E F I"/></g><g id="Bq" clip-path="url(#Bp)"><path d="M1.305 1.531 38.11 55.558l.719-.492L1.664 1.281zm0 0" class="E F I"/></g><g id="Bu" clip-path="url(#Bs)"><path d="m1.664 1.281 37.164 53.785.715-.5L2.023 1.035zm0 0" class="E F I"/></g><g id="Bx" clip-path="url(#Bw)"><path d="m1.023 11.035 37.52 53.531A130.2 130.2 0 0 0 59.5 46.265l-48-44.383a65.6 65.6 0 0 1-10.477 9.152zm0 0" class="E F J"/></g><g id="CA" clip-path="url(#Bz)"><path d="m1.5 9.883 48 44.383a130 130 0 0 0 12.91-16.422L7.953 1.672A65 65 0 0 1 1.5 9.883m0 0" class="E F J"/></g><g id="CE" clip-path="url(#CC)"><path d="M1.953 5.672 56.41 41.844a131 131 0 0 0 5.852-9.691L4.879.828a64 64 0 0 1-2.926 4.844m0 0" class="E F J"/></g><g id="CI" clip-path="url(#CG)"><path d="m1.879 1.828 57.383 31.324.414-.766L2.086 1.441zm0 0" class="E F J"/></g><g id="CM" clip-path="url(#CK)"><path d="m1.086 12.441 57.59 30.945a130.7 130.7 0 0 0 9.215-21.609L5.695 1.641a65 65 0 0 1-4.609 10.801zm0 0" class="E F K"/></g><g id="CQ" clip-path="url(#CO)"><path d="M1.695 2.641 63.89 22.778l1.027-3.328L2.211.977zm0 0" class="E F K"/></g><g id="CT" clip-path="url(#CS)"><path d="M2.211 2.977 64.918 21.45l.48-1.672L2.449 2.137zm0 0" class="E F K"/></g><g id="CW" clip-path="url(#CV)"><path d="m1.449 2.137 62.949 17.641.234-.84L1.566 1.719zm0 0" class="E F K"/></g><g id="CZ" clip-path="url(#CY)"><path d="m1.566 8.719 63.066 17.219a131 131 0 0 0 3.215-15.34L3.172 1.047a66 66 0 0 1-1.605 7.672zm0 0" class="E F L"/></g><g id="Cc" clip-path="url(#Cb)"><path d="m1.172 3.047 64.676 9.551.355-2.59L1.352 1.754zm0 0" class="E F L"/></g><g id="Cg" clip-path="url(#Ce)"><path d="m1.352 1.754 64.852 8.254.105-.863L1.406 1.32zm0 0" class="E F L"/></g><g id="Ck" clip-path="url(#Ci)"><path d="m1.406 1.32 64.902 7.824.102-.867L1.457.891zm0 0" class="E F L"/></g><g id="Co" clip-path="url(#Cm)"><path d="m1.457 4.891 64.953 7.387.652-7.812L1.781.984zm0 0" class="E F N"/></g><g id="Cs" clip-path="url(#Cq)"><path d="m.781 1.984 65.281 3.48.043-.867-65.3-3.05-.023.438zm0 0" class="E F N"/></g><g id="Cw" clip-path="url(#Cu)"><path d="m.805 2.547 65.301 3.051.117-3.484L.859.809zm0 0" class="E F O"/></g><g id="DA" clip-path="url(#Cy)"><path d="m.859 1.809 65.363 1.305.016-.871L.867 1.371zm0 0" class="E F O"/></g><g id="DE" clip-path="url(#DC)"><path d="m.867 2.371 65.371.871.012-1.742H.875zm0 0" class="E F P"/></g><filter id="A" width="100%" height="100%" x="0%" y="0%"><feColorMatrix color-interpolation-filters="sRGB" values="0 0 0 0 1 0 0 0 0 1 0 0 0 0 1 0 0 0 1 0"/></filter></defs><path d="M0 0h263v263H0zm0 0" class="G"/><path d="M131.5 131.5h65.375l-.102-3.625-.301-3.609-.5-3.59-.699-3.559-.895-3.512-1.09-3.457-1.277-3.395-1.465-3.316-1.648-3.227-1.82-3.133-1.996-3.031-2.156-2.91-2.316-2.789-2.469-2.656-2.609-2.516-2.746-2.363-2.875-2.211-2.988-2.047-3.102-1.879-3.199-1.707-3.289-1.523-3.367-1.34-3.437-1.148-3.496-.961-3.543-.762-3.582-.566-3.605-.367-3.621-.164a62 62 0 0 0-3.625.035l-3.617.234-3.598.438-3.57.633-3.527.832-3.477 1.027-3.414 1.219-3.344 1.402-3.258 1.59-3.164 1.766-3.062 1.938-2.953 2.105-2.828 2.266-2.699 2.418-2.562 2.566-2.414 2.703-2.266 2.832-2.098 2.953-1.937 3.066-1.762 3.168-1.582 3.258-1.398 3.344-1.215 3.418-1.02 3.477-.828 3.531-.629 3.57-.434 3.598-.23 3.617-.031 3.625.172 3.621.371 3.605.57 3.582.77 3.539.961 3.496 1.156 3.438 1.344 3.363 1.527 3.289 1.711 3.195 1.883 3.098 2.051 2.988 2.215 2.871 2.367 2.742 2.52 2.609 2.66 2.461 2.789 2.316 2.918 2.152 3.027 1.988 3.137 1.82 3.23 1.641 3.32 1.461 3.391 1.273 3.461 1.086 3.516.891 3.555.691 3.594.496 3.609.297 3.625.098 3.625-.105 3.609-.305 3.59-.508 3.559-.703 3.508-.898 3.457-1.094 3.391-1.285 3.313-1.469 3.23-1.648 3.129-1.828 3.027-1.996zm0 0" class="I"/><g class="G"><use xlink:href="#B" x="95.771" y="147.09"/><use xlink:href="#C" x="98.297" y="142.235"/><use xlink:href="#D" x="100.073" y="138.821"/><use xlink:href="#E" x="101.713" y="135.669"/><use xlink:href="#B" x="104.346" y="130.607"/><use xlink:href="#C" x="106.872" y="125.752"/><use xlink:href="#E" x="108.648" y="122.338"/><use xlink:href="#B" x="111.282" y="117.276"/><use xlink:href="#F" x="113.808" y="112.421"/><use xlink:href="#G" x="117.856" y="104.641"/><use xlink:href="#H" x="120.449" y="99.657"/><use xlink:href="#I" x="121.591" y="97.462"/><use xlink:href="#J" x="115.279" y="134.992"/><use xlink:href="#K" x="117.925" y="129.907"/><use xlink:href="#L" x="120.571" y="124.821"/></g><path d="m131.5 131.5 37.523 53.535a65.2 65.2 0 0 0 11.355-10.121 65 65 0 0 0 8.707-12.473zm0 0" class="J"/><g class="G"><use xlink:href="#M" x="165.803" y="159.363"/><use xlink:href="#N" x="168.783" y="162.01"/><use xlink:href="#O" x="172.402" y="165.224"/><use xlink:href="#P" x="175.965" y="168.389"/><use xlink:href="#M" x="177.535" y="169.783"/><use xlink:href="#Q" x="161.657" y="168.986"/><use xlink:href="#R" x="165.293" y="172.216"/></g><path d="m131.5 131.5 57.586 30.941a65 65 0 0 0 5.48-13.723zm0 0" class="K"/><g class="M"><use xlink:href="#S" x="173.787" y="147.352"/><use xlink:href="#T" x="175.159" y="147.899"/><use xlink:href="#S" x="177.234" y="148.727"/><use xlink:href="#U" x="178.606" y="149.275"/><use xlink:href="#V" x="180.092" y="149.868"/><use xlink:href="#W" x="182.183" y="150.703"/><use xlink:href="#X" x="184.353" y="151.569"/><use xlink:href="#Y" x="186.467" y="152.413"/><use xlink:href="#V" x="188.671" y="153.293"/><use xlink:href="#Z" x="190.762" y="154.128"/><use xlink:href="#a" x="177.964" y="154.269"/><use xlink:href="#b" x="180.178" y="155.153"/></g><path d="m131.5 131.5 63.066 17.219a65 65 0 0 0 1.891-9.828zm0 0" class="L"/><g class="G"><use xlink:href="#c" x="180.541" y="140.199"/><use xlink:href="#d" x="183.218" y="140.713"/><use xlink:href="#e" x="184.888" y="141.035"/><use xlink:href="#d" x="186.63" y="141.369"/><use xlink:href="#f" x="188.301" y="141.69"/><use xlink:href="#g" x="189.735" y="141.966"/><use xlink:href="#h" x="190.49" y="142.111"/><use xlink:href="#e" x="191.245" y="142.256"/><use xlink:href="#h" x="192.987" y="142.591"/><use xlink:href="#f" x="193.742" y="142.736"/><use xlink:href="#i" x="184.814" y="144.734"/><use xlink:href="#j" x="186.564" y="145.071"/></g><path d="m131.5 131.5 64.957 7.391.348-4.344zm0 0" class="N"/><g class="G"><use xlink:href="#k" x="190.856" y="135.881"/><use xlink:href="#l" x="191.432" y="135.928"/><use xlink:href="#m" x="192.055" y="135.977"/><use xlink:href="#n" x="192.456" y="136.01"/><use xlink:href="#o" x="193.366" y="136.083"/><use xlink:href="#p" x="194.252" y="136.154"/><use xlink:href="#q" x="195.177" y="136.228"/><use xlink:href="#r" x="196.054" y="136.298"/><use xlink:href="#s" x="192.253" y="137.906"/><use xlink:href="#t" x="193.182" y="137.981"/></g><path d="m131.5 131.5 65.305 3.047.063-2.176zm0 0" class="O"/><g class="G"><use xlink:href="#u" x="192.811" y="133.146"/><use xlink:href="#v" x="193.286" y="133.16"/><use xlink:href="#w" x="193.734" y="133.174"/><use xlink:href="#x" x="194.178" y="133.187"/><use xlink:href="#y" x="194.629" y="133.201"/><use xlink:href="#z" x="195.097" y="133.215"/><use xlink:href="#AA" x="195.553" y="133.228"/><use xlink:href="#x" x="196.028" y="133.243"/><use xlink:href="#AB" x="196.479" y="133.256"/><use xlink:href="#AC" x="194.076" y="134.168"/><use xlink:href="#AD" x="194.553" y="134.182"/></g><path d="m131.5 131.5 65.367.871.008-.871zm0 0" class="P"/><g mask="url(#Bb)"><use xlink:href="#Bd"/></g><g class="G"><use xlink:href="#AE" x="47.423" y="74.116"/><use xlink:href="#AF" x="52.23" y="77.24"/><use xlink:href="#AG" x="36.967" y="81.3"/><use xlink:href="#AH" x="41.773" y="84.424"/><use xlink:href="#AI" x="46.58" y="87.548"/></g><g mask="url(#Be)"><use xlink:href="#Bg" x="156" y="186"/></g><g class="G"><use xlink:href="#AJ" x="182.179" y="240.42"/><use xlink:href="#AK" x="186.022" y="238.461"/><use xlink:href="#AL" x="184.857" y="248.965"/><use xlink:href="#AM" x="188.7" y="247.006"/></g><g mask="url(#Bh)"><use xlink:href="#Bj" x="163" y="185"/></g><g class="G"><use xlink:href="#AN" x="194.82" y="238.597"/><use xlink:href="#AO" x="197.013" y="237.238"/><use xlink:href="#AP" x="196.841" y="243.555"/><use xlink:href="#AQ" x="199.034" y="242.196"/></g><g mask="url(#Bk)"><use xlink:href="#Bn" x="166" y="184"/></g><g class="G"><use xlink:href="#AR" x="203.539" y="238.482"/><use xlink:href="#AS" x="203.771" y="238.827"/><use xlink:href="#AT" x="202.336" y="238.222"/><use xlink:href="#AU" x="202.568" y="238.567"/><use xlink:href="#AV" x="202.701" y="238.764"/><use xlink:href="#AW" x="202.932" y="239.109"/><use xlink:href="#AV" x="203.164" y="239.454"/><use xlink:href="#AX" x="203.396" y="239.799"/></g><g mask="url(#Bo)"><use xlink:href="#Bq" x="167" y="184"/></g><g mask="url(#Br)"><use xlink:href="#Bu" x="167" y="184"/></g><g mask="url(#Bv)"><use xlink:href="#Bx" x="168" y="174"/></g><g class="G"><use xlink:href="#AY" x="199.817" y="222.789"/><use xlink:href="#AY" x="204.134" y="219.018"/><use xlink:href="#AZ" x="208.452" y="215.247"/><use xlink:href="#Aa" x="208.191" y="231.039"/><use xlink:href="#Ab" x="212.509" y="227.267"/></g><g mask="url(#By)"><use xlink:href="#CA" x="178" y="166"/></g><g class="G"><use xlink:href="#Ac" x="218.243" y="210.293"/><use xlink:href="#Ac" x="221.674" y="205.929"/><use xlink:href="#Ad" x="225.105" y="201.565"/><use xlink:href="#Ae" x="227.696" y="216.641"/><use xlink:href="#Af" x="231.127" y="212.278"/></g><g mask="url(#CB)"><use xlink:href="#CE" x="184" y="162"/></g><g class="G"><use xlink:href="#Ag" x="233.982" y="199.079"/><use xlink:href="#Ah" x="235.67" y="196.281"/><use xlink:href="#Ai" x="237.359" y="193.484"/><use xlink:href="#Ah" x="239.964" y="202.103"/><use xlink:href="#Aj" x="241.653" y="199.306"/></g><g mask="url(#CF)"><use xlink:href="#CI" x="187" y="161"/></g><g mask="url(#CJ)"><use xlink:href="#CM" x="188" y="150"/></g><g class="M"><use xlink:href="#Ak" x="234.471" y="184.762"/><use xlink:href="#Al" x="236.72" y="179.488"/><use xlink:href="#Am" x="238.968" y="174.215"/><use xlink:href="#Al" x="245.599" y="188.55"/><use xlink:href="#An" x="247.848" y="183.277"/></g><g mask="url(#CN)"><use xlink:href="#CQ" x="192" y="149"/></g><g class="M"><use xlink:href="#Ao" x="252.795" y="168.656"/><use xlink:href="#Ap" x="253.576" y="168.897"/><use xlink:href="#Aq" x="254.356" y="169.139"/><use xlink:href="#Ar" x="251.027" y="169.86"/><use xlink:href="#As" x="251.808" y="170.101"/><use xlink:href="#At" x="252.254" y="170.239"/><use xlink:href="#Ap" x="253.035" y="170.481"/><use xlink:href="#At" x="253.815" y="170.722"/><use xlink:href="#Au" x="254.595" y="170.963"/></g><g mask="url(#CR)"><use xlink:href="#CT" x="192" y="147"/></g><g class="M"><use xlink:href="#Av" x="255.304" y="166.906"/><use xlink:href="#Aw" x="255.704" y="167.021"/><use xlink:href="#Ax" x="256.103" y="167.135"/><use xlink:href="#Ay" x="254.417" y="167.539"/><use xlink:href="#Az" x="254.816" y="167.654"/><use xlink:href="#Aw" x="255.045" y="167.719"/><use xlink:href="#Av" x="255.444" y="167.834"/><use xlink:href="#Aw" x="255.844" y="167.949"/><use xlink:href="#BA" x="256.243" y="168.064"/></g><g mask="url(#CU)"><use xlink:href="#CW" x="193" y="147"/></g><g mask="url(#CX)"><use xlink:href="#CZ" x="193" y="140"/></g><g class="G"><use xlink:href="#BB" x="246.897" y="160.556"/><use xlink:href="#BC" x="247.875" y="155.885"/><use xlink:href="#BD" x="256.118" y="164.178"/><use xlink:href="#BE" x="257.097" y="159.507"/></g><g mask="url(#Ca)"><use xlink:href="#Cc" x="195" y="138"/></g><g class="G"><use xlink:href="#BF" x="258.455" y="148.699"/><use xlink:href="#BG" x="259.066" y="148.783"/><use xlink:href="#BH" x="256.981" y="149.776"/><use xlink:href="#BI" x="257.592" y="149.859"/><use xlink:href="#BJ" x="257.941" y="149.908"/><use xlink:href="#BF" x="258.551" y="149.991"/><use xlink:href="#BK" x="259.162" y="150.075"/><use xlink:href="#BL" x="259.772" y="150.159"/></g><g mask="url(#Cd)"><use xlink:href="#Cg" x="195" y="138"/></g><g mask="url(#Ch)"><use xlink:href="#Ck" x="195" y="138"/></g><g mask="url(#Cl)"><use xlink:href="#Co" x="195" y="134"/></g><g class="G"><use xlink:href="#BM" x="255.762" y="145.39"/><use xlink:href="#BN" x="255.956" y="143.062"/><use xlink:href="#BN" x="256.15" y="140.734"/><use xlink:href="#BM" x="260.553" y="145.43"/><use xlink:href="#BO" x="260.748" y="143.102"/></g><g mask="url(#Cp)"><use xlink:href="#Cs" x="196" y="133"/></g><g mask="url(#Ct)"><use xlink:href="#Cw" x="196" y="132"/></g><g class="G"><use xlink:href="#BP" x="258.299" y="135.398"/><use xlink:href="#BQ" x="259.115" y="135.425"/><use xlink:href="#BR" x="259.932" y="135.453"/><use xlink:href="#BS" x="256.91" y="137.025"/><use xlink:href="#BT" x="257.727" y="137.052"/><use xlink:href="#BR" x="258.194" y="137.068"/><use xlink:href="#BU" x="259.01" y="137.095"/><use xlink:href="#BR" x="259.827" y="137.122"/><use xlink:href="#BV" x="260.643" y="137.15"/></g><g mask="url(#Cx)"><use xlink:href="#DA" x="196" y="131"/></g><g mask="url(#DB)"><use xlink:href="#DE" x="196" y="130"/></g><g class="G"><use xlink:href="#BW" x="260.681" y="132.194"/><use xlink:href="#BX" x="259.582" y="133.04"/><use xlink:href="#BY" x="259.997" y="133.043"/><use xlink:href="#BW" x="260.235" y="133.044"/><use xlink:href="#BZ" x="260.651" y="133.047"/><use xlink:href="#BW" x="261.066" y="133.05"/><use xlink:href="#Ba" x="261.482" y="133.052"/></g></svg>