<svg xmlns="http://www.w3.org/2000/svg" xmlns:xlink="http://www.w3.org/1999/xlink" width="525.12" height="375.12"><defs><path id="m" d="M6.406-2.516H.97v-.703h5.437Zm0 0"/><path id="n" d="M5.125-3.281q-.001 1.769-.547 2.594C4.211-.133 3.641.14 2.86.14Q1.687.142 1.141-.687.608-1.531.609-3.266q-.002-1.746.547-2.578.545-.827 1.703-.828 1.186 0 1.72.844c.362.562.546 1.414.546 2.547m-1.156 2c.101-.239.172-.516.203-.828q.06-.48.062-1.172a10 10 0 0 0-.062-1.14 2.7 2.7 0 0 0-.203-.845 1.2 1.2 0 0 0-.422-.515c-.18-.114-.406-.172-.688-.172a1.3 1.3 0 0 0-.687.172q-.27.176-.422.515a3 3 0 0 0-.203.86 13 13 0 0 0-.047 1.14q0 .69.047 1.157.046.455.203.812.14.344.406.531c.176.118.41.172.703.172.282 0 .508-.054.688-.172q.28-.17.422-.515m0 0"/><path id="o" d="M2.156 0H1.11v-1.25h1.047Zm0 0"/><path id="p" d="M5.14 0H.704v-.922c.313-.258.617-.52.922-.781q.467-.404.875-.797c.563-.54.945-.973 1.156-1.297q.312-.48.313-1.031-.002-.516-.344-.797c-.219-.195-.531-.297-.937-.297q-.392 0-.86.14a3.3 3.3 0 0 0-.906.438H.875v-.922a4.3 4.3 0 0 1 .828-.28q.514-.142 1.016-.141.998 0 1.562.5.576.486.578 1.312 0 .375-.093.703-.095.316-.282.61-.174.269-.406.53-.22.27-.547.579a27 27 0 0 1-.984.906c-.336.281-.64.547-.922.797h3.516Zm0 0"/><path id="q" d="M4.766 0H1.219v-.672h1.36v-4.375h-1.36v-.61q.28 0 .593-.046a1.8 1.8 0 0 0 .485-.125.8.8 0 0 0 .312-.281.85.85 0 0 0 .141-.453h.672v5.89h1.344Zm0 0"/><path id="r" d="M5.078-2.078c0 .305-.058.594-.172.875a1.9 1.9 0 0 1-.453.703q-.315.315-.75.484a3.1 3.1 0 0 1-1.015.157Q2.154.14 1.656.016A4 4 0 0 1 .828-.25v-.922h.063c.238.156.515.29.828.39q.482.158.953.157c.207 0 .41-.023.61-.078.195-.063.366-.164.515-.313a1.1 1.1 0 0 0 .297-.453q.093-.264.093-.61a1.24 1.24 0 0 0-.125-.577.95.95 0 0 0-.312-.375 1.45 1.45 0 0 0-.547-.219 3.3 3.3 0 0 0-.734-.078q-.393.002-.75.062-.364.048-.61.094v-3.375h3.938v.766H1.953v1.75q.188-.014.375-.016.2-.014.36-.016.528 0 .921.094c.27.055.516.156.735.313q.358.236.547.625.187.377.187.953m0 0"/><path id="A" d="M5.813-2.016A1.9 1.9 0 0 1 5.14-.53q-.377.282-.828.406-.441.127-1.11.125H.875v-6.547h1.938c.476 0 .835.024 1.078.063q.358.047.687.218c.238.125.41.29.516.485.101.199.156.433.156.703q0 .468-.234.797a1.7 1.7 0 0 1-.625.531v.031q.655.128 1.03.578.39.458.391 1.125m-1.47-2.953a.9.9 0 0 0-.077-.39.6.6 0 0 0-.25-.266 1.1 1.1 0 0 0-.5-.14 8 8 0 0 0-.735-.032H1.75v1.89h1.125q.406 0 .64-.046.248-.045.454-.172a.77.77 0 0 0 .281-.344q.094-.2.094-.5m.563 2.985c0-.258-.043-.47-.125-.625Q4.67-2.844 4.36-3a1.5 1.5 0 0 0-.515-.14 8 8 0 0 0-.735-.032H1.75V-.75h1.156q.56 0 .922-.047.375-.06.61-.219.247-.169.359-.39c.07-.145.11-.336.11-.578m0 0"/><path id="B" d="M4.625 0h-.812v-.516q-.111.064-.297.204-.187.126-.375.218a2.6 2.6 0 0 1-.47.157Q2.404.14 2.048.14q-.673 0-1.14-.438Q.45-.747.452-1.422q0-.562.235-.906.247-.341.687-.547.45-.186 1.078-.25.62-.077 1.36-.125v-.125a.86.86 0 0 0-.11-.453.7.7 0 0 0-.281-.297A1.1 1.1 0 0 0 3-4.265a3.3 3.3 0 0 0-1.25.063 6 6 0 0 0-.812.233H.89v-.828a6 6 0 0 1 .703-.156q.45-.077.89-.078a3.8 3.8 0 0 1 .907.093c.257.055.484.149.672.282q.281.203.421.531.141.316.141.797Zm-.812-1.203v-1.375l-.907.078q-.503.033-.797.125a1.23 1.23 0 0 0-.578.313c-.148.136-.218.328-.218.578q-.001.422.25.64.247.204.78.203.434.001.798-.156.355-.17.672-.406m0 0"/><path id="C" d="M3.36-.047a4 4 0 0 1-.516.094q-.269.047-.485.047-.752.002-1.14-.406Q.828-.718.829-1.61v-2.61H.265v-.687h.562v-1.407h.828v1.407H3.36v.687H1.656v2.235q-.001.391.016.609.012.22.125.406a.62.62 0 0 0 .266.266c.113.055.285.078.515.078q.2 0 .422-.062.218-.059.313-.094h.046Zm0 0"/><path id="D" d="M4.438-.312A4.5 4.5 0 0 1 3.656 0c-.25.07-.511.11-.781.11a3 3 0 0 1-.984-.157 1.9 1.9 0 0 1-.75-.469 2 2 0 0 1-.5-.796c-.118-.32-.172-.704-.172-1.141q0-1.2.656-1.875.656-.687 1.75-.688.42.001.828.125.406.112.735.282v.906h-.032a3.7 3.7 0 0 0-.797-.438 2 2 0 0 0-.78-.171q-.705.002-1.11.484c-.274.312-.407.773-.407 1.375 0 .594.13 1.055.391 1.375q.405.469 1.125.469.246 0 .516-.063.264-.06.469-.172.17-.093.328-.187.17-.105.265-.188h.032Zm0 0"/><path id="E" d="M4.922 0h-.828v-2.797a4 4 0 0 0-.047-.64 1.05 1.05 0 0 0-.14-.454.7.7 0 0 0-.313-.28 1.3 1.3 0 0 0-.547-.095q-.328.001-.703.172a4.7 4.7 0 0 0-.703.422V0H.813v-6.844h.828v2.485a3 3 0 0 1 .797-.5q.42-.188.843-.188.797.002 1.219.484.422.471.422 1.375Zm0 0"/><path id="G" d="M5.281-1.844h-.968V0h-.844v-1.844H.344v-1.015L3.5-6.547h.813v4h.968ZM3.47-2.547V-5.5L.938-2.547Zm0 0"/><path id="H" d="M4.563-3.156c.132.125.25.289.343.484q.14.283.14.735 0 .454-.171.828A2.06 2.06 0 0 1 3.641 0q-.44.14-.97.14-.55 0-1.077-.141a4.6 4.6 0 0 1-.86-.281v-.922h.063q.373.252.875.422.516.157.984.156c.188 0 .383-.031.594-.094q.311-.091.5-.265.201-.2.297-.422c.07-.157.11-.352.11-.594q-.001-.357-.126-.578a1 1 0 0 0-.297-.375 1.4 1.4 0 0 0-.484-.172 3 3 0 0 0-.61-.062h-.39v-.735h.297q.668.002 1.062-.265c.27-.188.407-.461.407-.829a.77.77 0 0 0-.11-.406.75.75 0 0 0-.265-.297 1.5 1.5 0 0 0-.407-.156 2.3 2.3 0 0 0-.484-.047c-.281 0-.578.055-.89.156q-.47.141-.891.422H.922v-.922a4.3 4.3 0 0 1 .828-.28q.528-.142 1.016-.141.48 0 .843.093.358.095.657.282.31.222.468.515.171.3.172.688c0 .367-.133.683-.39.953a1.64 1.64 0 0 1-.907.515v.063q.216.034.485.156.28.112.468.266m0 0"/><path id="aw" d="M6.703 0h-.86v-5.64L4.017-1.798H3.5L1.688-5.64V0H.875v-6.547h1.188l1.75 3.64L5.5-6.546h1.203Zm0 0"/><path id="ax" d="M6.031 0H5.11l-.64-1.828H1.64L1 0H.11L2.5-6.547h1.156ZM4.203-2.578 3.047-5.781l-1.14 3.203Zm0 0"/><path id="ay" d="M5.188 0H.875v-6.547h4.313v.781H1.75v1.782h3.438v.78H1.75V-.78h3.438Zm0 0"/><path id="az" d="M6.25-2.594 1.172-.344v-.781l4-1.734-4-1.735v-.797L6.25-3.14Zm0 0"/><path id="aA" d="M2.422 1.719h-.766v-8.563h.766Zm0 0"/><path id="aK" d="M3.875-4.016h-.047a7 7 0 0 0-.36-.046 2.5 2.5 0 0 0-.405-.032 1.7 1.7 0 0 0-.735.172 3.6 3.6 0 0 0-.687.438V0H.813v-4.906h.828v.718c.32-.257.609-.44.859-.546q.388-.171.781-.172c.133 0 .235.008.297.015.07 0 .172.012.297.032Zm0 0"/><path id="aL" d="M5-2.453c0 .805-.21 1.437-.625 1.906q-.61.69-1.64.688-1.048.002-1.657-.688c-.406-.469-.61-1.101-.61-1.906q0-1.2.61-1.89.608-.704 1.656-.704 1.032 0 1.641.703c.414.461.625 1.09.625 1.89m-.86 0q0-.95-.374-1.406-.375-.47-1.032-.47-.672 0-1.046.47-.375.456-.375 1.406 0 .926.375 1.406.374.47 1.046.469.657 0 1.032-.469t.375-1.406m0 0"/><path id="aM" d="M1.64 0H.829v-6.844h.813Zm0 0"/><path id="aN" d="M1.703-5.734H.766v-.86h.937ZM1.641 0H.828v-4.906h.813Zm0 0"/><path id="aO" d="M4.922 0h-.828v-2.797a4 4 0 0 0-.047-.64 1.05 1.05 0 0 0-.14-.454.7.7 0 0 0-.313-.28 1.3 1.3 0 0 0-.547-.095q-.328.001-.703.172a4.7 4.7 0 0 0-.703.422V0H.813v-4.906h.828v.547a3 3 0 0 1 .797-.5q.42-.188.843-.188.797.002 1.219.484.422.471.422 1.375Zm0 0"/><path id="aP" d="M4.797-.562Q4.795.685 4.219 1.266q-.562.592-1.735.593-.39-.002-.765-.062a4.6 4.6 0 0 1-.735-.156V.797h.047q.2.093.64.203c.29.07.583.11.876.11q.421 0 .703-.094a.95.95 0 0 0 .438-.282Q3.84.56 3.906.313q.062-.234.063-.532v-.453q-.377.3-.719.453-.344.14-.86.14Q1.5-.076.985-.702.47-1.341.47-2.5c0-.426.054-.79.172-1.094.125-.3.289-.566.5-.797a1.9 1.9 0 0 1 .687-.484q.404-.17.813-.172.435 0 .718.094.282.082.61.25l.047-.203h.78Zm-.828-.782V-4.03a3.6 3.6 0 0 0-.61-.203 3 3 0 0 0-.562-.063q-.691 0-1.078.453-.391.456-.39 1.328 0 .831.28 1.25.295.423.97.422.355.002.718-.125.374-.141.672-.375m0 0"/><path id="aQ" d="M6.984-4.906 5.704 0h-.766l-1.25-3.781L2.438 0h-.766L.375-4.906h.86L2.14-1.11l1.218-3.797h.688l1.25 3.797.86-3.797Zm0 0"/><path id="aR" d="M4.797 0h-.828v-.516a3 3 0 0 1-.75.485q-.377.17-.828.172Q1.5.14.984-.531.47-1.216.47-2.421c0-.415.054-.786.172-1.11.125-.32.289-.598.5-.828a2 2 0 0 1 .687-.5q.406-.188.828-.188.388 0 .688.094c.195.055.406.133.625.234v-2.125h.828Zm-.828-1.203v-2.828a4 4 0 0 0-.594-.203 2.7 2.7 0 0 0-.578-.063q-.705.002-1.094.484-.375.486-.375 1.376 0 .877.297 1.328c.195.304.516.453.953.453q.357 0 .719-.156a3.3 3.3 0 0 0 .672-.391m0 0"/><path id="aS" d="M6.281-3.437H1.078v-.704h5.203Zm0 1.843H1.078v-.703h5.203Zm0 0"/><path id="aT" d="M7.969 0h-.813v-2.797q0-.31-.031-.61A1.4 1.4 0 0 0 7-3.874a.6.6 0 0 0-.297-.281c-.125-.07-.305-.11-.531-.11q-.364 0-.703.188-.346.175-.688.437.014.094.016.235.014.127.016.265V0h-.829v-2.797q0-.328-.03-.61a1.4 1.4 0 0 0-.126-.468.6.6 0 0 0-.281-.281c-.125-.07-.309-.11-.547-.11q-.346.001-.687.172a6 6 0 0 0-.672.422V0H.813v-4.906h.828v.547c.257-.22.515-.383.765-.5q.388-.188.828-.188.498 0 .844.219.357.204.516.578.513-.421.922-.61.404-.186.89-.187.797.001 1.172.5.388.486.39 1.36Zm0 0"/><path id="aU" d="M4.922-2.375h-3.61q-.001.457.125.797.142.329.375.547c.157.148.336.258.547.328q.312.094.688.094.497 0 1-.188.514-.2.734-.406h.047v.906q-.423.175-.86.297c-.292.07-.593.11-.905.11q-1.22 0-1.907-.657Q.468-1.202.47-2.422q0-1.201.656-1.906.657-.717 1.734-.719.984.002 1.516.578.546.58.547 1.657ZM4.125-3q-.017-.655-.344-1-.313-.359-.969-.36c-.449 0-.804.133-1.062.391A1.5 1.5 0 0 0 1.313-3Zm0 0"/><path id="aV" d="M6.031-6.547 3.656 0H2.5L.11-6.547h.937L3.094-.78l2.062-5.766Zm0 0"/><path id="s" d="M7.89-7.64 5.11 0H2.905L.125-7.64h2.063L4.03-2.267 5.875-7.64Zm0 0"/><path id="t" d="M6.75-2.875q0 1.425-.828 2.234-.831.814-2.313.813-1.5 0-2.328-.813-.83-.81-.828-2.234-.001-1.435.828-2.25c.563-.54 1.336-.812 2.328-.812q1.5 0 2.313.828.827.816.828 2.234m-2.266 1.39Q4.67-1.7 4.75-2q.094-.31.094-.86 0-.514-.094-.859a1.7 1.7 0 0 0-.25-.547 1.1 1.1 0 0 0-.406-.296 1.2 1.2 0 0 0-.485-.094q-.269 0-.484.078a1.1 1.1 0 0 0-.39.281q-.177.205-.282.563-.094.346-.094.875c0 .312.024.586.079.812q.091.345.265.563.169.187.39.28.235.095.532.095.246.002.469-.079a.9.9 0 0 0 .39-.296m0 0"/><path id="u" d="M5.047-4h-.172q-.112-.045-.375-.062-.269-.014-.437-.016-.393 0-.704.047-.3.048-.64.172V0H.875v-5.75h1.844v.844q.607-.528 1.062-.703.452-.171.828-.172c.063 0 .133.008.22.015.081 0 .155.008.218.016Zm0 0"/><path id="v" d="M6.656 0h-1.86v-2.86a8 8 0 0 0-.03-.687q-.034-.34-.125-.515a.63.63 0 0 0-.313-.266q-.188-.094-.547-.094-.252 0-.515.078a2.4 2.4 0 0 0-.547.266V0H.875v-5.75h1.844v.625q.48-.374.937-.578.452-.218 1.016-.219.938.001 1.453.547.53.548.531 1.625Zm0 0"/><path id="w" d="M2.719 0H.875v-5.75h1.844Zm.047-6.578H.828v-1.406h1.938Zm0 0"/><path id="y" d="M5.25-5.297a.9.9 0 0 0-.125-.484.7.7 0 0 0-.39-.328 1.7 1.7 0 0 0-.47-.094 6 6 0 0 0-.624-.031h-.703v2.062h.593q.48 0 .797-.047a1.1 1.1 0 0 0 .531-.218c.133-.102.235-.22.297-.344q.094-.187.094-.516M8.328 0H5.922L3.844-2.797h-.906V0H.968v-7.64h3.313q.67.001 1.157.077.48.081.921.344.422.252.672.657.265.41.266 1.03-.001.846-.406 1.376-.394.533-1.11.89Zm0 0"/><path id="z" d="M6.438-6.156h-3.5v1.422h3.25v1.468h-3.25V0H.968v-7.64h5.47Zm0 0"/><path id="I" d="M6.063 0H1.03v-7.64h5.032v.906H2.047v2.093h4.015v.907H2.048v2.828h4.015Zm0 0"/><path id="V" d="M4.016 2.11H2.844A8.2 8.2 0 0 1 1.422-.157c-.336-.82-.5-1.75-.5-2.781 0-1.02.164-1.942.5-2.766a8.5 8.5 0 0 1 1.422-2.281h1.172v.062a6.5 6.5 0 0 0-.797.86q-.376.485-.703 1.14-.301.628-.5 1.39a6.6 6.6 0 0 0-.188 1.595q0 .877.188 1.609.186.736.5 1.39.31.622.703 1.126.405.513.797.875Zm0 0"/><path id="W" d="M5.75-2.766H1.516q-.001.535.156.922.171.394.453.64.263.253.625.376c.25.086.52.125.813.125q.574 0 1.171-.235.592-.234.844-.468h.047v1.062q-.485.204-1 .344c-.336.094-.687.14-1.062.14Q2.14.143 1.342-.624q-.795-.78-.796-2.203-.001-1.405.766-2.234.761-.828 2.015-.829 1.154 0 1.781.688.64.675.641 1.922ZM4.797-3.5q0-.761-.375-1.172c-.25-.281-.633-.422-1.14-.422-.524 0-.938.157-1.25.469q-.457.457-.516 1.125Zm0 0"/><path id="X" d="M7.047-7.64 4.266 0h-1.36L.141-7.64h1.078l2.39 6.718L6.016-7.64Zm0 0"/><path id="Y" d="M4.406-7.984.734 1.563h-.89L3.5-7.985Zm0 0"/><path id="Z" d="M5.406 0h-.968v-.61c-.086.063-.2.15-.344.25a2 2 0 0 1-.422.235 2.4 2.4 0 0 1-.563.203q-.315.077-.718.078c-.524 0-.965-.164-1.328-.5Q.53-.859.53-1.656q0-.655.282-1.063.281-.403.796-.625.529-.233 1.25-.312a19 19 0 0 1 1.579-.125v-.156q-.001-.328-.125-.532A.9.9 0 0 0 4-4.812a1.4 1.4 0 0 0-.5-.157 3.6 3.6 0 0 0-.594-.047c-.261 0-.547.04-.86.11a6 6 0 0 0-.952.281h-.047v-.984q.28-.075.812-.157a6 6 0 0 1 1.047-.093q.608 0 1.047.093.452.096.781.344c.22.156.383.36.5.61q.171.376.172.921Zm-.968-1.406V-3q-.439.02-1.047.078-.598.047-.938.14-.409.13-.672.376-.251.25-.25.672 0 .504.297.75c.195.168.5.25.906.25q.5 0 .922-.203a4.6 4.6 0 0 0 .781-.47m0 0"/><path id="aa" d="M3.922-.047c-.18.043-.375.078-.594.11q-.316.046-.562.046-.892 0-1.344-.468C1.117-.672.969-1.176.969-1.875v-3.047H.313v-.812h.656v-1.641h.969v1.64h1.984v.813H1.937v2.61q-.001.455.016.718a1 1 0 0 0 .14.469.64.64 0 0 0 .313.297q.2.094.61.094.233 0 .484-.063.263-.077.375-.125h.047Zm0 0"/><path id="ab" d="M5.828-2.86Q5.826-1.464 5.11-.655q-.72.813-1.921.812-1.221 0-1.938-.812-.703-.81-.703-2.203 0-1.405.703-2.22c.477-.538 1.125-.812 1.938-.812.8 0 1.44.274 1.921.813.477.543.72 1.281.72 2.219m-1 0q-.002-1.106-.437-1.656-.424-.545-1.203-.546-.786 0-1.22.546-.437.55-.437 1.657 0 1.077.438 1.64.433.549 1.219.547.762.002 1.203-.547.435-.563.437-1.64m0 0"/><path id="ac" d="M9.313 0h-.97v-3.266q0-.357-.03-.703a1.6 1.6 0 0 0-.141-.547.8.8 0 0 0-.344-.343c-.148-.07-.36-.11-.64-.11q-.41.002-.813.203a5.5 5.5 0 0 0-.797.516c.008.086.016.18.016.281q.013.157.015.297V0h-.968v-3.266q-.001-.374-.032-.718a1.6 1.6 0 0 0-.14-.547.72.72 0 0 0-.344-.328c-.148-.07-.355-.11-.625-.11a1.8 1.8 0 0 0-.797.203c-.262.125-.527.29-.797.485V0H.953v-5.734h.953v.64q.45-.374.907-.578.45-.218.953-.219.59.002 1 .25a1.6 1.6 0 0 1 .609.688q.575-.497 1.063-.719a2.5 2.5 0 0 1 1.03-.219c.626 0 1.087.196 1.391.579q.453.563.454 1.593Zm0 0"/><path id="ad" d="M3.844-2.937c0 1.03-.172 1.96-.516 2.78A8 8 0 0 1 1.922 2.11H.75v-.046a6.3 6.3 0 0 0 .797-.876A7 7 0 0 0 2.25.063c.207-.438.375-.899.5-1.391a6.5 6.5 0 0 0 .188-1.61q0-.843-.188-1.593a6.8 6.8 0 0 0-1.203-2.532q-.375-.482-.797-.859v-.062h1.172q.902 1.05 1.406 2.28.516 1.238.516 2.766m0 0"/><path id="K" d="M3.781 0H3.11v-.422l-.25.172a1.6 1.6 0 0 1-.296.172 1.5 1.5 0 0 1-.376.125q-.222.06-.515.062Q1.123.111.75-.25a1.2 1.2 0 0 1-.375-.906q0-.47.188-.75.198-.28.562-.438.358-.153.875-.219c.344-.039.71-.066 1.11-.078v-.109a.67.67 0 0 0-.094-.375.6.6 0 0 0-.22-.234.73.73 0 0 0-.343-.11 3 3 0 0 0-.422-.031c-.18 0-.375.027-.594.078a4.6 4.6 0 0 0-.671.188H.734v-.688q.188-.045.563-.11c.25-.05.492-.077.734-.077q.42 0 .735.078.311.064.547.234.233.175.343.438.124.253.125.64ZM3.11-.984v-1.11q-.314.018-.734.047a3.3 3.3 0 0 0-.656.11q-.299.08-.485.25c-.117.117-.171.277-.171.484q-.001.345.203.516c.144.117.359.171.64.171q.358 0 .657-.14.293-.14.546-.328m0 0"/><path id="L" d="M4.188-2.031q0 .502-.141.906a2.2 2.2 0 0 1-.375.672q-.269.28-.578.422c-.2.09-.418.14-.656.14q-.346 0-.61-.078a2.2 2.2 0 0 1-.484-.218L1.297 0h-.64v-5.578h.687v2q.28-.234.593-.375.329-.155.72-.156c.468 0 .835.183 1.109.547q.421.534.422 1.53m-.688.015q-.002-.714-.25-1.078c-.156-.25-.414-.375-.766-.375a1.6 1.6 0 0 0-.593.125q-.3.13-.547.328V-.72c.187.086.347.14.484.172q.2.047.469.047c.375 0 .664-.117.875-.36.219-.25.328-.632.328-1.156m0 0"/><path id="M" d="M4.078-2q-.001.984-.5 1.547c-.336.375-.781.562-1.344.562Q1.373.11.875-.453C.539-.828.375-1.343.375-2s.164-1.172.5-1.547q.498-.562 1.36-.562c.562 0 1.007.187 1.343.562q.499.562.5 1.547m-.703 0q0-.78-.312-1.156-.3-.375-.829-.375-.55 0-.859.375Q1.077-2.78 1.078-2c0 .5.098.883.297 1.14q.31.392.86.391.527 0 .828-.375.311-.388.312-1.156m0 0"/><path id="N" d="M4.125-4 2.5 0h-.672L.218-4h.735L2.188-.812 3.422-4Zm0 0"/><path id="O" d="M4.016-1.937H1.063q-.001.374.109.656.106.269.312.437.187.174.438.266c.176.055.363.078.562.078q.404.001.813-.156.421-.17.61-.328h.03v.734q-.345.157-.703.25-.346.094-.734.094-1 0-1.562-.531Q.375-.983.375-1.984q0-.985.531-1.547.544-.576 1.422-.578.81 0 1.25.468.437.47.438 1.344Zm-.657-.516q-.001-.53-.265-.813-.27-.294-.797-.296-.549 0-.875.328c-.211.21-.328.468-.36.78Zm0 0"/><path id="Q" d="M5.469 0h-.703v-4.594L3.28-1.469h-.42L1.375-4.594V0H.719v-5.344h.969l1.421 2.985 1.375-2.985h.985Zm0 0"/><path id="R" d="M4.203-3.719q-.001.346-.125.656-.11.3-.344.516-.27.281-.656.422-.375.14-.937.14h-.72V0H.72v-5.344h1.453q.468 0 .797.094.34.082.61.25a1.4 1.4 0 0 1 .452.516q.171.298.172.765m-.734.016q0-.28-.094-.485a.8.8 0 0 0-.297-.328 1.1 1.1 0 0 0-.39-.171 3 3 0 0 0-.563-.047h-.703v2.14h.61c.28 0 .507-.023.687-.078a.9.9 0 0 0 .437-.25.95.95 0 0 0 .235-.36q.076-.187.078-.421m0 0"/><path id="S" d="M4.016 0h-.672v-2.281q-.001-.282-.031-.516c-.024-.164-.063-.289-.126-.375a.52.52 0 0 0-.265-.219 1 1 0 0 0-.438-.078c-.18 0-.37.047-.578.14q-.298.129-.562.345V0H.656v-5.578h.688v2.016a2.6 2.6 0 0 1 .64-.407q.34-.14.704-.14.637.002.984.39c.226.262.344.637.344 1.125Zm0 0"/><path id="T" d="M3.984 0h-.671v-.437c-.231.18-.45.312-.657.406-.21.09-.437.14-.687.14q-.627 0-.985-.375c-.23-.257-.343-.64-.343-1.14V-4h.672v2.281q-.002.3.015.516.031.222.125.375a.7.7 0 0 0 .25.234q.154.064.453.063.263.001.578-.125c.207-.094.399-.211.579-.36V-4h.671Zm0 0"/><path id="U" d="M1.344 0H.672v-5.578h.672Zm0 0"/><path id="ae" d="M-4.672-4.516v.047q-.06.224-.078.422a8 8 0 0 0-.016.469q.002.456.204.875.188.41.5.797H0v.953h-5.734v-.953h.859q-.468-.575-.656-1.016a2.1 2.1 0 0 1-.203-.89q.002-.264.015-.376.018-.106.047-.328Zm0 0"/><path id="af" d="M-2.86-5.828q1.395.002 2.204.719.813.72.812 1.922 0 1.22-.812 1.937-.81.703-2.203.703-1.405 0-2.22-.703c-.538-.477-.812-1.125-.812-1.937 0-.801.274-1.442.813-1.922.543-.477 1.281-.72 2.219-.72m0 1q-1.106.002-1.656.437-.545.423-.546 1.204 0 .785.546 1.218.55.439 1.657.438 1.077 0 1.64-.438.549-.433.547-1.218.002-.763-.547-1.204-.563-.435-1.64-.437m0 0"/><path id="ag" d="M0-1.922v.969h-7.984v-.969Zm0 0"/><path id="ah" d="M-6.687-1.984v1.093h-1v-1.093ZM0-1.922v.969h-5.734v-.969Zm0 0"/><path id="ai" d="M0-5.734v.968h-3.266q-.387 0-.734.047-.341.034-.547.157a.72.72 0 0 0-.312.375 1.55 1.55 0 0 0-.11.625q.002.393.203.828c.125.28.29.558.485.828H0v.953h-5.734v-.953h.64q-.374-.452-.578-.938a2.4 2.4 0 0 1-.219-.984q0-.937.563-1.422.564-.482 1.61-.484Zm0 0"/><path id="aj" d="M-.656-5.594c.976 0 1.691.227 2.14.672q.687.659.688 2.031c0 .305-.024.602-.063.891a7 7 0 0 1-.187.844H.938v-.047a7 7 0 0 0 .218-.75q.14-.516.14-1.031 0-.48-.124-.797a1.24 1.24 0 0 0-.313-.516 1.3 1.3 0 0 0-.484-.25 2.4 2.4 0 0 0-.625-.078h-.531q.345.44.515.828c.118.262.172.602.172 1.016 0 .68-.242 1.219-.734 1.625q-.733.61-2.094.61-.732 0-1.265-.204a2.8 2.8 0 0 1-.922-.578 2.2 2.2 0 0 1-.578-.797 2.5 2.5 0 0 1-.204-.969c0-.32.04-.594.11-.812a3.6 3.6 0 0 1 .297-.719l-.25-.062v-.907Zm-.922.969h-3.125q-.17.377-.234.719-.078.328-.079.656.002.783.532 1.25c.355.305.87.453 1.547.453q.971 0 1.468-.328c.324-.227.485-.61.485-1.14q.001-.423-.157-.844a2.6 2.6 0 0 0-.437-.766m0 0"/><path id="al" d="M0-7.828v1.016h-6.578l4.469 2.125v.609l-4.47 2.11H0v.937h-7.64v-1.375l4.25-2.031-4.25-1.97v-1.421Zm0 0"/><path id="am" d="M0-7.047v1.078l-2.125.75v3.313L0-1.156v1.015l-7.64-2.765v-1.36Zm-3 2.14-3.75 1.345L-3-2.22Zm0 0"/><path id="an" d="M0-6.062v5.03h-7.64v-5.03h.906v4.015h2.093v-4.015h.907v4.015h2.828v-4.015Zm0 0"/><path id="ao" d="M2.11-4.016v1.172A8.2 8.2 0 0 1-.157-1.422c-.82.336-1.75.5-2.781.5-1.02 0-1.942-.164-2.766-.5a8.5 8.5 0 0 1-2.281-1.422v-1.172h.062c.25.282.54.547.86.797q.485.376 1.14.703.628.301 1.39.5.75.188 1.595.188.877 0 1.609-.188.736-.186 1.39-.5.622-.31 1.126-.703a7.5 7.5 0 0 0 .875-.797Zm0 0"/><path id="ap" d="M-2.766-5.75v4.234q.535.001.922-.156.394-.171.64-.453.253-.263.376-.625c.086-.25.125-.52.125-.812q0-.575-.235-1.172-.234-.592-.468-.844v-.047h1.062q.204.485.344 1 .14.502.14 1.063.002 1.422-.765 2.218-.78.798-2.203.797c-.938 0-1.68-.254-2.234-.765q-.828-.762-.829-2.016 0-1.154.688-1.781.675-.64 1.922-.641Zm-.734.953q-.761 0-1.172.375c-.281.25-.422.633-.422 1.14 0 .524.157.938.469 1.25q.457.457 1.125.516Zm0 0"/><path id="aq" d="M-7.64-7.047 0-4.266v1.36L-7.64-.141v-1.078l6.718-2.39-6.719-2.407Zm0 0"/><path id="ar" d="M-7.984-4.406 1.563-.734v.89L-7.985-3.5Zm0 0"/><path id="as" d="M0-5.406v.968h-.61c.063.086.15.2.25.344q.159.224.235.422c.086.156.148.344.203.563q.077.315.078.718c0 .524-.164.965-.5 1.329q-.515.531-1.312.53-.655 0-1.063-.28a1.8 1.8 0 0 1-.625-.797q-.233-.529-.312-1.25a19 19 0 0 1-.125-1.578h-.156q-.328 0-.532.125A.9.9 0 0 0-4.812-4a1.4 1.4 0 0 0-.157.5 3.6 3.6 0 0 0-.047.594c0 .261.04.547.11.86q.093.455.281.952v.047h-.984a8 8 0 0 1-.157-.812 6 6 0 0 1-.093-1.047q0-.608.093-1.047.096-.452.344-.781c.156-.22.36-.383.61-.5q.376-.171.921-.172Zm-1.406.968H-3q.02.439.078 1.047.047.598.14.938.13.409.376.672.25.251.672.25.504 0 .75-.297c.168-.195.25-.5.25-.906q0-.5-.203-.922a4.6 4.6 0 0 0-.47-.781m0 0"/><path id="at" d="M-.047-3.922c.043.18.078.375.11.594q.046.316.046.562 0 .892-.468 1.344c-.313.305-.817.453-1.516.453h-3.047v.657h-.812V-.97h-1.641v-.968h1.64v-1.985h.813v1.985h2.61q.455.001.718-.016a1 1 0 0 0 .469-.14.64.64 0 0 0 .297-.313q.094-.2.094-.61 0-.233-.063-.484a4 4 0 0 0-.125-.375v-.047Zm0 0"/><path id="au" d="M0-9.312v.968h-3.266q-.357.001-.703.031-.34.035-.547.141a.8.8 0 0 0-.343.344c-.07.148-.11.36-.11.64q.002.41.203.813.206.393.516.797.13-.014.281-.016.157-.013.297-.015H0v.968h-3.266q-.374.001-.718.032-.341.035-.547.14a.72.72 0 0 0-.328.344c-.07.148-.11.355-.11.625q.002.392.203.797c.125.262.29.527.485.797H0v.953h-5.734v-.953h.64q-.374-.45-.578-.907a2.2 2.2 0 0 1-.219-.953q.002-.59.25-1a1.6 1.6 0 0 1 .688-.609q-.497-.575-.719-1.062A2.5 2.5 0 0 1-5.89-7.47c0-.625.196-1.086.579-1.39q.563-.452 1.593-.453Zm0 0"/><path id="av" d="M-2.937-3.844c1.03 0 1.96.172 2.78.516A8 8 0 0 1 2.11-1.922V-.75h-.046a6.3 6.3 0 0 0-.876-.797A7 7 0 0 0 .063-2.25a7.6 7.6 0 0 0-1.391-.5 6.5 6.5 0 0 0-1.61-.187q-.843 0-1.593.187a6.8 6.8 0 0 0-2.532 1.203q-.482.375-.859.797h-.062v-1.172q1.05-.902 2.28-1.406 1.238-.516 2.766-.516m0 0"/><path id="aB" d="M3.234 0h-.578v-.36a2 2 0 0 0-.203.141q-.128.095-.25.14a1.3 1.3 0 0 1-.328.126 1.8 1.8 0 0 1-.437.047A1.14 1.14 0 0 1 .64-.203 1.05 1.05 0 0 1 .313-1c0-.258.054-.469.171-.625A1.05 1.05 0 0 1 .97-2a2.5 2.5 0 0 1 .75-.187q.433-.06.937-.079v-.093a.8.8 0 0 0-.062-.328.5.5 0 0 0-.203-.204 1 1 0 0 0-.297-.078A2 2 0 0 0 1.734-3c-.148 0-.312.023-.5.063a2.6 2.6 0 0 0-.578.171H.625v-.593q.168-.048.484-.094c.22-.04.43-.063.641-.063.238 0 .445.024.625.063q.264.064.469.203a.85.85 0 0 1 .281.375c.07.148.11.328.11.547Zm-.578-.844v-.953q-.268.017-.625.047-.345.033-.562.078a1 1 0 0 0-.407.234q-.14.142-.14.407-.002.3.172.453.17.14.547.14.294.001.547-.109.263-.122.468-.297m0 0"/><path id="aC" d="M3.594-1.75q-.001.44-.125.781-.13.344-.328.578a1.5 1.5 0 0 1-.485.375c-.168.07-.355.11-.562.11q-.3-.002-.516-.078a2.2 2.2 0 0 1-.437-.172L1.109 0H.563v-4.781h.578v1.703q.246-.2.515-.328a1.5 1.5 0 0 1 .625-.125q.609 0 .953.469.36.468.36 1.312M3-1.734c0-.407-.07-.711-.203-.922q-.206-.328-.656-.328c-.168 0-.34.039-.516.109a2.6 2.6 0 0 0-.484.281v1.969q.246.11.422.156c.125.031.257.047.406.047.32 0 .57-.101.75-.312q.28-.31.281-1m0 0"/><path id="aD" d="M3.5-1.719q-.002.846-.437 1.328-.423.486-1.157.485Q1.185.095.75-.391.328-.873.328-1.719q0-.843.422-1.328c.29-.32.676-.484 1.156-.484.489 0 .875.164 1.157.484q.435.486.437 1.328m-.594 0q-.001-.667-.265-.984c-.18-.219-.422-.328-.735-.328q-.469 0-.734.328-.251.316-.25.984-.001.657.25.985.265.327.734.328c.313 0 .555-.11.735-.328q.264-.329.265-.985m0 0"/><path id="aE" d="M3.531-3.437 2.156 0h-.594L.188-3.437h.625L1.875-.703l1.063-2.734Zm0 0"/><path id="aF" d="M3.438-1.656H.906q0 .313.094.547c.07.156.16.289.266.39q.169.142.39.219c.145.055.305.078.485.078q.34 0 .687-.14.357-.141.516-.282h.031v.64q-.299.112-.61.204-.298.077-.624.078C1.566.078 1.117-.07.797-.375Q.327-.842.328-1.703q-.002-.843.453-1.328.47-.499 1.219-.5.687 0 1.063.406.374.408.374 1.156Zm-.563-.438q0-.469-.234-.703-.222-.248-.672-.25-.47 0-.75.281-.268.27-.313.672Zm0 0"/><path id="aH" d="M3.438 0h-.579v-1.953q0-.232-.03-.438a.7.7 0 0 0-.095-.328.5.5 0 0 0-.218-.203 1 1 0 0 0-.375-.062q-.236.001-.5.125a2.5 2.5 0 0 0-.5.297V0H.563v-4.781h.578v1.734c.187-.156.375-.273.562-.36q.294-.123.594-.124.562.002.844.344c.195.218.297.539.297.953Zm0 0"/><path id="aI" d="M3.422 0h-.578v-.375q-.3.222-.563.344c-.18.082-.375.125-.594.125q-.55 0-.843-.328c-.2-.22-.297-.54-.297-.97v-2.234h.578v1.954c0 .18.004.328.016.453q.028.188.109.312.075.143.203.203a1 1 0 0 0 .39.063q.234.001.5-.11.267-.124.5-.312v-2.562h.579Zm0 0"/><path id="aJ" d="M1.156 0H.578v-4.781h.578Zm0 0"/><clipPath id="e"><path d="M47.25 13.5H510v324H47.25Zm0 0"/></clipPath><clipPath id="c"><path d="M.25.5H463v324H.25Zm0 0"/></clipPath><clipPath id="d"><path d="M229 322h5v2.5h-5Zm0 0"/></clipPath><clipPath id="b"><path d="M0 0h463v325H0z"/></clipPath><clipPath id="h"><path d="M47.25 13.5H509V182H47.25Zm0 0"/></clipPath><clipPath id="i"><path d="M47.25 50H509v154H47.25Zm0 0"/></clipPath><clipPath id="j"><path d="M47.25 28H509v176H47.25Zm0 0"/></clipPath><clipPath id="k"><path d="M47.25 22H509v198H47.25Zm0 0"/></clipPath><clipPath id="l"><path d="M47.25 14H509v221H47.25Zm0 0"/></clipPath><filter id="a" width="100%" height="100%" x="0%" y="0%"><feColorMatrix color-interpolation-filters="sRGB" values="0 0 0 0 1 0 0 0 0 1 0 0 0 0 1 0 0 0 1 0"/></filter><mask id="f"><g filter="url(#a)"><path fill-opacity=".2" d="M-52.512-37.512h630.144v450.144H-52.512z"/></g></mask><g id="g" clip-path="url(#b)"><g clip-path="url(#c)"><path fill="red" d="m-925.25-1295.5 1156.875 1620 1156.875-1620Zm0 0"/><path fill="none" stroke="#636EFA" stroke-miterlimit="2" stroke-width="1.5" d="m-925.25-1295.5 1156.875 1620 1156.875-1620"/></g><g clip-path="url(#d)"><path fill="#636EFA" d="M233.875 324.5q-.001.447-.172.86-.17.414-.488.73-.316.317-.73.488a2.24 2.24 0 0 1-1.72 0 2.2 2.2 0 0 1-.73-.488 2.2 2.2 0 0 1-.488-.73 2.24 2.24 0 0 1 0-1.72q.17-.414.488-.73.316-.317.73-.488a2.24 2.24 0 0 1 1.72 0q.414.17.73.488.317.316.488.73.17.413.172.86m0 0"/></g></g></defs><path fill="#FFF" d="M0 0h525v375H0Zm0 0"/><path fill="#FFF" d="M47.25 13.5H510v324H47.25Zm0 0"/><path fill="none" stroke="#EBF0F8" stroke-width=".75" d="M105.098 13.5v324m57.839-324v324m57.848-324v324m115.688-324v324m57.84-324v324m57.847-324v324m-404.91-81H510m-462.75-81H510m-462.75-81H510"/><path fill="none" stroke="#EBF0F8" stroke-width="1.5" d="M278.625 13.5v324m-231.375 0H510"/><g clip-path="url(#e)" mask="url(#f)"><use xlink:href="#g" transform="translate(47 13)"/></g><g clip-path="url(#h)"><path fill="none" stroke="#FFA15A" stroke-miterlimit="2" stroke-width="1.5" d="m47.25 6.238 5.781-1.715L58.824 16.5l5.781-5.672 5.782 16.45 5.785 21.007 5.789-3.816 5.781 1.011 5.781 10.852 5.786 6.773 5.789 8.383 5.78 19.024 5.786 10.965 5.781.921 5.79 1.793 5.78 2.082 5.786-.246 11.57-14.28 5.785-4.438 5.782-.332 5.78 7.949 11.575 11.012 5.781 9.71 5.785 10.5 5.79 4.223 11.562 11.418 5.785-2.973 5.79-1.695 5.78-.156 5.786 1.418 5.78.316 5.79-1.531 5.781 2.57 5.785 1.586 5.782 9.86 5.789 8.418 5.785 3.336 5.781 3.886 5.781 2.106 5.793 3.285 5.781 2.3 5.782 2.673 5.785-3.227 5.789-3.84 5.781.09 5.781-3.719 5.786-1.531 5.789-.156 5.78-.89 5.786-2.446 5.781-.301 5.79-1.547 5.78-3.93 5.786-2.316 5.781-3.668 11.574-5.242 5.782.031 5.78-1.035 5.794.14 5.781 3.391 5.781.735 5.785 1.785 5.79-1.117 5.78-.66 5.782-1.688 5.785.105 5.79-3.043 5.78-6.511 5.786-.399 5.78-1.101 5.79-.235 5.781-2.414 5.785-3.035 5.782-7.125 5.789-.152 5.785.984"/></g><g clip-path="url(#i)"><path fill="none" stroke="#AB63FA" stroke-miterlimit="2" stroke-width="1.5" d="m47.25 54.3 5.781 1.184 5.793 5.782 5.781-1.625 5.782-.907 5.785-1.23 5.789 11.16 5.781-2.469 5.781 6.801 5.786 8.23 5.789 11.79 5.78 11.062 5.786 12.36 5.781 5.91 5.79-2.243 5.78 7.29 5.786 6 17.355-8.848 5.782-.43 5.78 2.11 5.794 4.64 5.781 3.7 5.781 6.05 5.785 5.512 5.79 2.918 5.78 7.012 5.782.765 17.355.254 5.786 3.414 5.78-.219 5.79 3.579 5.781 3.406 5.785 10.793 5.782 9.285 5.789 3.855 5.785 3.59 5.781 1.57 5.781 2.84 5.793-.043 5.781.188 5.782-2.273 5.785-3.594 5.789-1.332 11.562-4.043 5.786-3.504 11.57-1.809 5.785-2.265 5.781-1.29 5.79-2.757 5.78-3.422 5.786-2.57 5.781-.97 5.79-1.89 5.784-2.566 5.782-3.531 5.78-1.98 5.794-.849 11.562-.328 5.785-2.039 11.57-3.648 5.782-3.285 5.785-1.965 5.79-1.313 11.566-5.722 5.78-1.551 5.79-4.262 5.781-6.508 5.785-.375 5.782-1.832 5.789-1.617 5.785-.008"/></g><g clip-path="url(#j)"><path fill="none" stroke="#00CC96" stroke-miterlimit="2" stroke-width="1.5" d="m47.25 48.504 5.781-4.988 5.793-11.04 5.781 14.153 5.782-.918 5.785 12.543 5.789-5.793 5.781-6.973 5.781 1.996 5.786 11.727 5.789 19.719 5.78-3.434 5.786 11.602 5.781-1.387 5.79 10.613 5.78 6.965 5.786 5.852 5.781 6.87 5.79.509 5.784 2.859 5.782 6.351 5.78 1.844 5.794 3.63 5.781 2.925 5.781 7.336 5.785 5.828 5.79 3.352 5.78 5.632 5.782.137 5.785 1.715 5.79-1.461 5.78 4.223 5.786 2.968 17.351 11.739 5.785 11.105 5.782 6.168 5.789 4.371 11.566 1.754 5.781-.719 11.574-.53 5.782-4.286 11.574-4.215 5.781-1.266 5.781-2.601 5.786-.832 5.789-2.274 5.78-3.12 5.786-.684 5.781-3.23 11.57-5.567 5.786-1.274 5.781-1.832 5.79-.98 5.784-.977 5.782-2.675 5.78-1.188 5.794-.11 5.781-2.058 5.781-1.047 5.785-1.89 5.79-.961 5.78-1.176 5.782-2.11 5.785-2.324 5.79-1.5 5.78-.007 5.786-3.57 5.78-2.04 5.79-3.055 5.781-2.496 5.785.188 5.782-1.164 5.789-1.942 5.785-4.632"/></g><g clip-path="url(#k)"><path fill="none" stroke="#EF553B" stroke-miterlimit="2" stroke-width="1.5" d="m47.25 26.566 5.781 32.211 5.793-19.28 5.781.007 5.782 13.605 5.785-.273 5.789 7.562 5.781 3.84 5.781 5.219 5.786 5.25 5.789 9.375 5.78 10.172 5.786 5.262 5.781 6.136 5.79.383 5.78 2.664 5.786 5.457 5.781.547 5.79 9.707 5.784.676 5.782 1.844 5.78 3.539 5.794 8.062 5.781 3.805 5.781 5.46 5.785 5.571 5.79 2.438 5.78 3.195 5.782 4.125 5.785 2.7 5.79.87 5.78 5.625 5.786 1.387 17.351 15.055 5.785 11.172 5.782 8.597 5.789 3.778 11.566 3.257 5.781-.52 11.574-1.124 5.782-4.559 5.785-4.492 5.789-3.52 5.781-3.964 5.781-2.68 5.786-1.223 5.789-2.78 5.78-3 5.786-1.794 5.781-4.46 5.79-3.317 11.566-7.043 5.781-4.824 11.574-8.352 5.782-6.512 11.574-5.355 5.781-2.098 11.566-7.41 5.79-1.3 5.78-1.43 5.782.09 5.785-2.333 5.79-1.343 5.78.066 5.786-3.39 5.78 2.011 5.79-4.312 5.781-2.723 5.785-.316 5.782-.989 5.789-1.77 5.785-3.456"/></g><g clip-path="url(#l)"><path fill="none" stroke="#636EFA" stroke-miterlimit="2" stroke-width="1.5" d="m47.25 18.61 5.781 4.804 5.793 10.05 5.781 5.032 5.782-.05 5.785 12.042 5.789 14.41 5.781 14.204 5.781.113 11.575 11.02 5.78 3.742 5.786 11.789 5.781-1.703 5.79-.63 5.78 5.024 5.786 6.75 5.781-1.543 5.79-.285 5.784 6.59 5.782 1.222 5.78 3.278 5.794 6.383 5.781 9.398 5.781 8.445 5.785 6.989 5.79 8.086 5.78 6.066 5.782 5.078 5.785 3.203 5.79 7.727 5.78 3.39 5.786 2.907 5.78 4.14 5.79 1.824 5.781 2.856 5.785 17.297 5.782 10.199 5.789.488 5.785 1.14 11.562.599 5.793-.368 5.781.016 5.782-5.348 5.785-6.132 5.789-3.407 11.562-8.984 5.786-4.059 5.789-3.554 5.78-4.461 11.567-9.856 5.79-3.758 5.78-3.25 5.786-3.964 5.781-4.809 5.79-3.195 5.784-3.66 5.782-1.704 11.574-4.703 5.781-3.36 11.566-2.757 5.79-2.312 11.562-4.887 5.785-2.89 5.79-5.009 5.78-2.027 5.786-1.91 5.78-5.422 5.79-1.254 5.781-.113 5.785-.98 5.782-1.989 5.789 1.29 5.785-1.345"/></g><g fill="#2A3F5F"><use xlink:href="#m" x="36.209" y="347.25"/><use xlink:href="#n" x="43.574" y="347.25"/><use xlink:href="#o" x="49.296" y="347.25"/><use xlink:href="#p" x="52.57" y="347.25"/></g><g fill="#2A3F5F"><use xlink:href="#m" x="91.195" y="347.25"/><use xlink:href="#n" x="98.561" y="347.25"/><use xlink:href="#o" x="104.282" y="347.25"/><use xlink:href="#q" x="107.556" y="347.25"/><use xlink:href="#r" x="113.278" y="347.25"/></g><g fill="#2A3F5F"><use xlink:href="#m" x="151.896" y="347.25"/><use xlink:href="#n" x="159.261" y="347.25"/><use xlink:href="#o" x="164.983" y="347.25"/><use xlink:href="#q" x="168.257" y="347.25"/></g><g fill="#2A3F5F"><use xlink:href="#m" x="206.883" y="347.25"/><use xlink:href="#n" x="214.248" y="347.25"/><use xlink:href="#o" x="219.97" y="347.25"/><use xlink:href="#n" x="223.244" y="347.25"/><use xlink:href="#r" x="228.965" y="347.25"/></g><use xlink:href="#n" x="275.764" y="347.25" fill="#2A3F5F"/><g fill="#2A3F5F"><use xlink:href="#n" x="326.253" y="347.25"/><use xlink:href="#o" x="331.975" y="347.25"/><use xlink:href="#n" x="335.249" y="347.25"/><use xlink:href="#r" x="340.97" y="347.25"/></g><g fill="#2A3F5F"><use xlink:href="#n" x="386.954" y="347.25"/><use xlink:href="#o" x="392.676" y="347.25"/><use xlink:href="#q" x="395.949" y="347.25"/></g><g fill="#2A3F5F"><use xlink:href="#n" x="441.94" y="347.25"/><use xlink:href="#o" x="447.662" y="347.25"/><use xlink:href="#q" x="450.936" y="347.25"/><use xlink:href="#r" x="456.658" y="347.25"/></g><g fill="#2A3F5F"><use xlink:href="#n" x="502.641" y="347.25"/><use xlink:href="#o" x="508.363" y="347.25"/><use xlink:href="#p" x="511.637" y="347.25"/></g><use xlink:href="#n" x="40.778" y="340.65" fill="#2A3F5F"/><g fill="#2A3F5F"><use xlink:href="#n" x="26.061" y="259.65"/><use xlink:href="#o" x="31.783" y="259.65"/><use xlink:href="#n" x="35.057" y="259.65"/><use xlink:href="#r" x="40.778" y="259.65"/></g><g fill="#2A3F5F"><use xlink:href="#n" x="31.783" y="178.65"/><use xlink:href="#o" x="37.504" y="178.65"/><use xlink:href="#q" x="40.778" y="178.65"/></g><g fill="#2A3F5F"><use xlink:href="#n" x="26.061" y="97.65"/><use xlink:href="#o" x="31.783" y="97.65"/><use xlink:href="#q" x="35.057" y="97.65"/><use xlink:href="#r" x="40.778" y="97.65"/></g><g fill="#2A3F5F"><use xlink:href="#n" x="31.783" y="16.65"/><use xlink:href="#o" x="37.504" y="16.65"/><use xlink:href="#p" x="40.778" y="16.65"/></g><path fill="none" stroke="#2A3F5F" stroke-width="1.5" d="M475.297 314.82h23.137v6.48h-23.137Zm0 0"/><path fill="#FFF" d="M56.504 238.02h68.25v93h-68.25Zm0 0"/><g fill="#2A3F5F"><use xlink:href="#s" x="58.005" y="251.67"/><use xlink:href="#t" x="66.024" y="251.67"/><use xlink:href="#u" x="73.232" y="251.67"/><use xlink:href="#t" x="78.451" y="251.67"/><use xlink:href="#v" x="85.66" y="251.67"/><use xlink:href="#t" x="93.14" y="251.67"/><use xlink:href="#w" x="100.348" y="251.67"/><use xlink:href="#x" x="103.937" y="251.67"/><use xlink:href="#y" x="107.526" y="251.67"/><use xlink:href="#z" x="115.74" y="251.67"/></g><g fill="#2A3F5F"><use xlink:href="#A" x="86.505" y="266.055"/><use xlink:href="#B" x="92.675" y="266.055"/><use xlink:href="#C" x="98.08" y="266.055"/><use xlink:href="#D" x="101.627" y="266.055"/><use xlink:href="#E" x="106.316" y="266.055"/><use xlink:href="#F" x="112.011" y="266.055"/><use xlink:href="#r" x="115.175" y="266.055"/></g><path fill="none" stroke="#FFA15A" stroke-width="1.5" d="M60.254 262.547h22.5"/><g fill="#2A3F5F"><use xlink:href="#A" x="86.505" y="280.305"/><use xlink:href="#B" x="92.675" y="280.305"/><use xlink:href="#C" x="98.08" y="280.305"/><use xlink:href="#D" x="101.627" y="280.305"/><use xlink:href="#E" x="106.316" y="280.305"/><use xlink:href="#F" x="112.011" y="280.305"/><use xlink:href="#G" x="115.175" y="280.305"/></g><path fill="none" stroke="#AB63FA" stroke-width="1.5" d="M60.254 276.797h22.5"/><g fill="#2A3F5F"><use xlink:href="#A" x="86.505" y="294.555"/><use xlink:href="#B" x="92.675" y="294.555"/><use xlink:href="#C" x="98.08" y="294.555"/><use xlink:href="#D" x="101.627" y="294.555"/><use xlink:href="#E" x="106.316" y="294.555"/><use xlink:href="#F" x="112.011" y="294.555"/><use xlink:href="#H" x="115.175" y="294.555"/></g><path fill="none" stroke="#00CC96" stroke-width="1.5" d="M60.254 291.047h22.5"/><g fill="#2A3F5F"><use xlink:href="#A" x="86.505" y="308.805"/><use xlink:href="#B" x="92.675" y="308.805"/><use xlink:href="#C" x="98.08" y="308.805"/><use xlink:href="#D" x="101.627" y="308.805"/><use xlink:href="#E" x="106.316" y="308.805"/><use xlink:href="#F" x="112.011" y="308.805"/><use xlink:href="#p" x="115.175" y="308.805"/></g><path fill="none" stroke="#EF553B" stroke-width="1.5" d="M60.254 305.297h22.5"/><g fill="#2A3F5F"><use xlink:href="#A" x="86.505" y="323.055"/><use xlink:href="#B" x="92.675" y="323.055"/><use xlink:href="#C" x="98.08" y="323.055"/><use xlink:href="#D" x="101.627" y="323.055"/><use xlink:href="#E" x="106.316" y="323.055"/><use xlink:href="#F" x="112.011" y="323.055"/><use xlink:href="#q" x="115.175" y="323.055"/></g><path fill="none" stroke="#636EFA" stroke-width="1.5" d="M60.254 319.547h22.5"/><g fill="#2A3F5F"><use xlink:href="#I" x="220.42" y="367.35"/><use xlink:href="#J" x="227.059" y="367.35"/></g><g fill="#2A3F5F"><use xlink:href="#K" x="227.059" y="369.555"/><use xlink:href="#L" x="231.473" y="369.555"/></g><use xlink:href="#M" x="236.053" y="369.555" fill="#2A3F5F"/><use xlink:href="#N" x="240.514" y="369.555" fill="#2A3F5F"/><g fill="#2A3F5F"><use xlink:href="#O" x="244.863" y="369.555"/><use xlink:href="#P" x="249.242" y="369.555"/><use xlink:href="#Q" x="251.826" y="369.555"/></g><g fill="#2A3F5F"><use xlink:href="#R" x="258.02" y="369.555"/><use xlink:href="#P" x="262.453" y="369.555"/><use xlink:href="#S" x="265.037" y="369.555"/></g><use xlink:href="#T" x="269.688" y="369.555" fill="#2A3F5F"/><use xlink:href="#U" x="274.339" y="369.555" fill="#2A3F5F"/><use xlink:href="#U" x="276.356" y="369.555" fill="#2A3F5F"/><use xlink:href="#J" x="278.373" y="367.35" fill="#2A3F5F"/><g fill="#2A3F5F"><use xlink:href="#J" x="278.373" y="367.35"/><use xlink:href="#V" x="282.064" y="367.35"/><use xlink:href="#W" x="286.832" y="367.35"/><use xlink:href="#X" x="293.087" y="367.35"/><use xlink:href="#Y" x="300.265" y="367.35"/><use xlink:href="#Z" x="305.033" y="367.35"/><use xlink:href="#aa" x="311.339" y="367.35"/><use xlink:href="#ab" x="315.476" y="367.35"/><use xlink:href="#ac" x="321.849" y="367.35"/><use xlink:href="#ad" x="332.062" y="367.35"/></g><g fill="#2A3F5F"><use xlink:href="#ae" x="10.5" y="234.25"/><use xlink:href="#af" x="10.5" y="229.769"/><use xlink:href="#ag" x="10.5" y="223.396"/><use xlink:href="#ag" x="10.5" y="220.515"/><use xlink:href="#ah" x="10.5" y="217.633"/><use xlink:href="#ai" x="10.5" y="214.752"/><use xlink:href="#aj" x="10.5" y="208.107"/><use xlink:href="#ak" x="10.5" y="201.565"/><use xlink:href="#al" x="10.5" y="197.874"/><use xlink:href="#am" x="10.5" y="189.025"/><use xlink:href="#an" x="10.5" y="181.847"/><use xlink:href="#ak" x="10.5" y="175.208"/><use xlink:href="#ao" x="10.5" y="171.516"/><use xlink:href="#ap" x="10.5" y="166.748"/><use xlink:href="#aq" x="10.5" y="160.493"/><use xlink:href="#ar" x="10.5" y="153.316"/><use xlink:href="#as" x="10.5" y="148.548"/><use xlink:href="#at" x="10.5" y="142.241"/><use xlink:href="#af" x="10.5" y="138.104"/><use xlink:href="#au" x="10.5" y="131.731"/><use xlink:href="#av" x="10.5" y="121.518"/></g><g fill="#2A3F5F"><use xlink:href="#aw" x="239.267" y="88.5"/><use xlink:href="#ax" x="246.852" y="88.5"/><use xlink:href="#ay" x="253.004" y="88.5"/><use xlink:href="#F" x="258.695" y="88.5"/><use xlink:href="#az" x="261.859" y="88.5"/><use xlink:href="#F" x="269.224" y="88.5"/><use xlink:href="#aA" x="272.388" y="88.5"/><use xlink:href="#ay" x="276.475" y="88.5"/><use xlink:href="#F" x="282.166" y="88.5"/></g><use xlink:href="#aB" x="282.166" y="90.39" fill="#2A3F5F"/><use xlink:href="#aC" x="285.945" y="90.39" fill="#2A3F5F"/><use xlink:href="#aD" x="289.866" y="90.39" fill="#2A3F5F"/><use xlink:href="#aE" x="293.685" y="90.39" fill="#2A3F5F"/><use xlink:href="#aF" x="297.409" y="90.39" fill="#2A3F5F"/><use xlink:href="#aG" x="301.157" y="90.39" fill="#2A3F5F"/><use xlink:href="#aH" x="303.37" y="90.39" fill="#2A3F5F"/><use xlink:href="#aI" x="307.351" y="90.39" fill="#2A3F5F"/><use xlink:href="#aJ" x="311.333" y="90.39" fill="#2A3F5F"/><use xlink:href="#aJ" x="313.06" y="90.39" fill="#2A3F5F"/><use xlink:href="#F" x="314.787" y="88.5" fill="#2A3F5F"/><use xlink:href="#aA" x="314.787" y="88.5" fill="#2A3F5F"/><g fill="#2A3F5F"><use xlink:href="#aK" x="363.753" y="321.75"/><use xlink:href="#aL" x="367.594" y="321.75"/><use xlink:href="#aM" x="373.056" y="321.75"/><use xlink:href="#aM" x="375.526" y="321.75"/><use xlink:href="#aN" x="377.996" y="321.75"/><use xlink:href="#aO" x="380.465" y="321.75"/><use xlink:href="#aP" x="386.161" y="321.75"/><use xlink:href="#F" x="391.768" y="321.75"/><use xlink:href="#aQ" x="394.932" y="321.75"/><use xlink:href="#aN" x="402.297" y="321.75"/><use xlink:href="#aO" x="404.767" y="321.75"/><use xlink:href="#aR" x="410.462" y="321.75"/><use xlink:href="#aL" x="416.07" y="321.75"/><use xlink:href="#aQ" x="421.532" y="321.75"/><use xlink:href="#aS" x="428.897" y="321.75"/><use xlink:href="#G" x="436.263" y="321.75"/><use xlink:href="#n" x="441.984" y="321.75"/><use xlink:href="#F" x="447.706" y="321.75"/><use xlink:href="#aT" x="450.87" y="321.75"/><use xlink:href="#aU" x="459.624" y="321.75"/><use xlink:href="#aV" x="464.985" y="321.75"/></g></svg>