<svg xmlns="http://www.w3.org/2000/svg" xmlns:xlink="http://www.w3.org/1999/xlink" width="388.949" height="135.836"><defs><path id="v" d="M10.266 0h-2.25v-5.844l-1.61 3.797H4.86L3.234-5.844V0H1.11v-8.719h2.625l1.954 4.375L7.64-8.719h2.625Zm0 0"/><path id="w" d="M7.719-3.281q-.002 1.61-.953 2.547-.94.937-2.641.937-1.723 0-2.672-.937-.937-.937-.937-2.547-.001-1.64.953-2.563.95-.937 2.656-.937 1.718 0 2.656.937T7.72-3.28M5.125-1.687q.201-.247.297-.61c.07-.238.11-.566.11-.984 0-.383-.04-.707-.11-.969a1.6 1.6 0 0 0-.281-.625 1 1 0 0 0-.453-.328c-.18-.07-.368-.11-.563-.11q-.313.001-.547.079a1.1 1.1 0 0 0-.453.328 1.9 1.9 0 0 0-.312.64q-.111.393-.11.985 0 .551.094.937c.07.262.172.477.297.64q.187.224.437.329.264.11.61.11.279 0 .547-.094a.93.93 0 0 0 .437-.328m0 0"/><path id="x" d="M7.39 0H5.282v-.687q-.549.456-1.015.671c-.313.133-.68.204-1.094.204Q1.965.19 1.25-.734q-.72-.936-.719-2.5c0-.563.078-1.055.235-1.485q.248-.655.672-1.125a2.6 2.6 0 0 1 .953-.672c.382-.164.77-.25 1.156-.25q.576.001.953.125.388.13.781.329v-2.813h2.11ZM5.282-1.812v-3.235a2 2 0 0 0-.468-.125 2.3 2.3 0 0 0-.454-.047c-.554 0-.968.172-1.25.516q-.408.517-.406 1.437 0 .974.328 1.407.34.438 1.078.437a1.9 1.9 0 0 0 .61-.11q.327-.105.562-.28m0 0"/><path id="y" d="M7.484-2.906H2.656q.046.784.578 1.187c.364.274.895.407 1.594.407a3.7 3.7 0 0 0 1.297-.235c.414-.156.75-.328 1-.516h.234v1.688q-.72.3-1.359.422a7 7 0 0 1-1.39.125q-1.987 0-3.048-.89Q.516-1.61.517-3.25q-.001-1.623 1-2.578c.664-.633 1.578-.953 2.734-.953q1.606.002 2.422.812.81.815.812 2.328ZM5.375-4.141q-.018-.655-.328-.984c-.211-.227-.531-.344-.969-.344q-.611 0-1 .328-.392.316-.437 1Zm0 0"/><path id="z" d="M3.11 0H1v-9.125h2.11Zm0 0"/><path id="A" d="M9.172 0H6.844L6.25-1.766H3.016L2.406 0H.141l3.218-8.719h2.594ZM5.703-3.36 4.625-6.5 3.563-3.36Zm0 0"/><path id="B" d="M5.063.172A5.7 5.7 0 0 1 3.25-.11a4 4 0 0 1-1.406-.86 3.9 3.9 0 0 1-.922-1.42Q.607-3.234.609-4.359q0-1.032.297-1.875a4 4 0 0 1 .907-1.453q.573-.575 1.406-.891a5.3 5.3 0 0 1 1.844-.313 7.5 7.5 0 0 1 1.812.22q.387.108.703.25.328.142.563.25v2.124h-.25a23 23 0 0 0-.422-.328 6 6 0 0 0-.563-.39 3.7 3.7 0 0 0-.687-.313 2.3 2.3 0 0 0-.813-.14c-.312 0-.617.054-.906.155a2 2 0 0 0-.781.5q-.345.33-.563.875c-.148.368-.219.813-.219 1.344q0 .814.235 1.375.234.55.578.86.357.328.797.468c.3.086.594.125.875.125.27 0 .539-.039.812-.125q.406-.123.735-.328c.195-.113.375-.234.531-.36.164-.132.3-.25.406-.343h.235v2.094q-.331.14-.625.281A7.2 7.2 0 0 1 6.094.11q-.375.062-1.032.063m0 0"/><path id="C" d="M7.422 0H1.109v-8.719h6.313v1.688H3.359v1.5h3.766v1.687H3.359v2.157h4.063Zm0 0"/><path id="D" d="M5.11-3.031H.64V-4.72h4.47Zm0 0"/><path id="E" d="M8.313-5.969q-.002.58-.204 1.14a2.5 2.5 0 0 1-.578.938 3.7 3.7 0 0 1-1.172.782c-.43.18-.96.265-1.593.265H3.359V0H1.11v-8.719h3.704q.843 0 1.406.14a3.4 3.4 0 0 1 1.015.423q.528.345.797.89.282.535.281 1.297m-2.329.047q-.002-.356-.203-.625a.92.92 0 0 0-.453-.375 2.2 2.2 0 0 0-.687-.156 25 25 0 0 0-.891-.016h-.39v2.61h.656q.562 0 .937-.063.374-.075.625-.281.218-.186.313-.453.093-.264.093-.64m0 0"/><path id="F" d="M8.938 0h-2.25v-3.844H3.359V0H1.11v-8.719h2.25v3.188h3.329V-8.72h2.25Zm0 0"/><path id="G" d="M8.828-.5q-.58.235-1.547.469a9 9 0 0 1-1.937.219Q3.125.19 1.859-1.016.607-2.233.61-4.375q0-2.028 1.266-3.266c.844-.832 2.023-1.25 3.547-1.25q.855.002 1.64.157.78.157 1.735.609v2.047h-.25l-.485-.344a5 5 0 0 0-.609-.39 4 4 0 0 0-.797-.313 3.2 3.2 0 0 0-.953-.14 3.3 3.3 0 0 0-1.094.171 2.4 2.4 0 0 0-.875.547q-.362.345-.578.89a3.3 3.3 0 0 0-.219 1.25q-.001 1.456.766 2.22.78.766 2.281.765h.282q.152-.013.28-.031v-1.703H4.813v-1.656h4.016Zm0 0"/><path id="H" d="M9.047 0H6.875L3.172-5.984V0H1.109v-8.719h2.688l3.187 4.985V-8.72h2.063Zm0 0"/><path id="I" d="M5.203-.062a5 5 0 0 1-.719.14q-.375.047-.937.047c-.813 0-1.422-.164-1.828-.5-.399-.332-.594-.898-.594-1.703v-3.078H.25v-1.422h.875v-1.89h2.11v1.89h1.968v1.422H3.234v2.953q0 .253.094.453.076.205.281.328.217.11.61.11.169 0 .437-.063.264-.077.375-.125h.172Zm0 0"/><path id="K" d="M7.625-6.578 5.094 0h-2.39L.171-6.578h2.234l1.531 4.516 1.5-4.516Zm0 0"/><path id="L" d="M7.875-4.36q-.002 1.096-.203 1.97-.187.86-.61 1.421a2.8 2.8 0 0 1-1.125.86c-.448.195-1.007.297-1.67.297Q3.279.186 2.594-.11a2.6 2.6 0 0 1-1.11-.875q-.44-.562-.64-1.422A9.2 9.2 0 0 1 .656-4.36q0-1.136.203-1.97.201-.842.625-1.421.434-.576 1.125-.86.703-.294 1.657-.296.996.002 1.672.297.685.299 1.125.89.42.563.609 1.407.201.844.203 1.953m-2.266 0q0-1.592-.312-2.265c-.211-.445-.555-.672-1.031-.672-.48 0-.825.227-1.032.672q-.313.673-.312 2.266c0 1.043.101 1.793.312 2.25q.33.673 1.032.672.7 0 1.015-.672.328-.685.328-2.25m0 0"/><path id="M" d="M3.266 0H1.078v-2.297h2.188Zm0 0"/><path id="N" d="M7.078-4.094c.188.168.336.36.453.578q.171.33.172.875c0 .407-.086.79-.25 1.141a2.4 2.4 0 0 1-.734.922q-.504.364-1.172.562c-.438.133-.977.204-1.61.204A9 9 0 0 1 2.078.016Q1.31-.154.828-.375v-1.906h.219q.499.298 1.203.531.703.22 1.281.219.341 0 .735-.047.406-.061.687-.25.2-.154.328-.36.14-.198.14-.609 0-.374-.187-.578a.9.9 0 0 0-.453-.297 2.2 2.2 0 0 0-.687-.094c-.274-.007-.524-.015-.75-.015h-.485v-1.563h.5q.452.002.797-.031.358-.03.61-.14a.9.9 0 0 0 .375-.282q.14-.186.14-.547a.6.6 0 0 0-.14-.422.9.9 0 0 0-.328-.265 2 2 0 0 0-.547-.125 4 4 0 0 0-.532-.047c-.367 0-.765.062-1.203.187q-.644.189-1.234.547h-.219v-1.89c.313-.125.742-.243 1.297-.36a7.6 7.6 0 0 1 1.688-.187q.81 0 1.437.14.621.143 1.031.391c.32.188.563.422.719.703q.234.41.234.953 0 .721-.453 1.297-.455.564-1.187.734v.079q.295.034.625.156c.218.086.422.203.61.36m0 0"/><path id="O" d="M8.094-2.75Q8.092-1.45 7-.64 5.906.155 4.031.155c-.718 0-1.351-.062-1.89-.187a9 9 0 0 1-1.5-.485V-2.61h.25c.457.375.972.664 1.547.859q.874.299 1.671.297.202.002.532-.031c.226-.032.41-.07.547-.125q.263-.106.421-.266.171-.153.172-.469c0-.187-.086-.347-.25-.484q-.234-.217-.703-.328-.485-.107-1.047-.203a6 6 0 0 1-1.015-.282q-1.114-.34-1.594-.953-.485-.622-.484-1.531Q.687-7.343 1.78-8.109q1.09-.781 2.813-.782.857.001 1.703.172a8.6 8.6 0 0 1 1.453.422v2.016h-.234a4.7 4.7 0 0 0-1.297-.703 4.4 4.4 0 0 0-1.563-.297q-.281 0-.562.047-.269.035-.532.14a1 1 0 0 0-.406.266.58.58 0 0 0-.156.406c0 .23.086.406.266.531q.261.188 1 .329.481.11.922.203.435.095.953.25c.664.218 1.156.523 1.468.906.32.375.485.86.485 1.453m0 0"/><path id="P" d="M8.938 0H7.78v-7.516l-2.42 5.11h-.687L2.25-7.516V0H1.172v-8.719H2.75l2.328 4.844 2.25-4.844h1.61Zm0 0"/><path id="Q" d="M8.047 0H6.812l-.859-2.437H2.187L1.329 0H.156l3.172-8.719h1.547ZM5.609-3.422 4.08-7.719 2.53-3.422Zm0 0"/><path id="R" d="M6.922 0h-5.75v-8.719h5.75v1.031H2.328v2.391h4.594v1.031H2.328v3.235h4.594Zm0 0"/><path id="Z" d="M4.594 2.422H3.25a9.4 9.4 0 0 1-1.625-2.61q-.562-1.404-.562-3.171c0-1.164.187-2.22.562-3.157A9.4 9.4 0 0 1 3.25-9.125h1.344v.063a7.6 7.6 0 0 0-.922 1 7.3 7.3 0 0 0-.781 1.296 7.6 7.6 0 0 0-.578 1.594 7.2 7.2 0 0 0-.22 1.813q0 1.019.204 1.843.218.83.594 1.579.34.716.797 1.296.45.591.906 1Zm0 0"/><path id="aa" d="M7.39-7.687H4.282V0H3.125v-7.687H0V-8.72h7.39Zm0 0"/><path id="ab" d="M7.844 0H6.687v-4.266H2.329V0H1.172v-8.719h1.156v3.422h4.36v-3.422h1.156Zm0 0"/><path id="ac" d="M5.828 0H.547v-.812l3.812-4.813H.625v-.922h5.11v.781L1.905-.937h3.922Zm0 0"/><path id="ad" d="M4.39-3.36c0 1.18-.195 2.235-.577 3.173a9.7 9.7 0 0 1-1.61 2.609H.86v-.063q.45-.409.907-1 .45-.58.797-1.296.373-.748.578-1.579.217-.825.218-1.843-.001-.95-.218-1.813a8 8 0 0 0-.578-1.594q-.364-.748-.797-1.296a7 7 0 0 0-.907-1v-.063h1.344a9.7 9.7 0 0 1 1.61 2.61c.382.937.578 1.992.578 3.156m0 0"/><path id="af" d="M6.078-4.203q.282.253.469.64.187.375.187.985-.001.597-.218 1.094a2.6 2.6 0 0 1-.61.859q-.438.41-1.047.61a4 4 0 0 1-1.296.203Q2.843.188 2.14 0A6.6 6.6 0 0 1 .984-.375v-1.219h.079q.498.33 1.171.547c.446.149.883.219 1.313.219q.356.001.765-.125c.282-.082.508-.203.688-.36a1.7 1.7 0 0 0 .39-.578q.141-.311.141-.78-.002-.468-.156-.767a1.2 1.2 0 0 0-.406-.5 1.7 1.7 0 0 0-.64-.234 4 4 0 0 0-.813-.078H3v-.969h.406q.89 0 1.422-.375.53-.374.531-1.093 0-.313-.14-.547a1.1 1.1 0 0 0-.375-.391 1.5 1.5 0 0 0-.547-.203 3 3 0 0 0-.64-.063q-.566.002-1.188.204a4.2 4.2 0 0 0-1.172.562h-.063v-1.234q.404-.2 1.094-.375a5.8 5.8 0 0 1 1.36-.172q.638.001 1.124.125.482.112.875.36.421.281.641.687.218.392.219.937 0 .72-.516 1.266a2.3 2.3 0 0 1-1.203.672v.093q.28.05.64.204.358.14.61.359m0 0"/><path id="ag" d="M2.89 0H1.485v-1.672h1.407Zm0 0"/><path id="ah" d="M6.922-2.437q0 1.14-.89 1.89-.879.75-2.22.75c-.949 0-1.703-.242-2.265-.734C.992-1.02.719-1.645.719-2.406q0-.733.422-1.313.42-.591 1.187-.937v-.032q-.705-.374-1.047-.812-.327-.45-.328-1.125 0-.984.797-1.64.81-.657 2.063-.657 1.31.002 2.093.625.781.628.782 1.594 0 .597-.375 1.172-.375.563-1.079.89v.032q.81.344 1.25.859.437.516.438 1.313m-1.39-4.25c0-.415-.165-.75-.485-1q-.485-.375-1.234-.375-.739 0-1.22.359-.468.346-.468.937 0 .424.234.735c.164.21.407.39.72.547a9 9 0 0 0 1.421.562q.574-.386.797-.797.234-.42.234-.968m.171 4.359q0-.529-.234-.86-.236-.327-.922-.656a8 8 0 0 0-.61-.234q-.328-.106-.874-.313-.534.283-.844.782A2 2 0 0 0 1.906-2.5q-.001.797.532 1.313.546.515 1.39.515.856.001 1.36-.437.515-.435.515-1.22m0 0"/><path id="ai" d="M6.875-7.422 2.922 0h-1.25l4.203-7.703H.906V-8.72h5.969Zm0 0"/><path id="aj" d="M7.047-2.453H5.75V0H4.625v-2.453H.453v-1.344l4.219-4.922H5.75v5.328h1.297Zm-2.422-.938v-3.937L1.25-3.391Zm0 0"/><path id="ak" d="M6.781-2.766q0 .61-.234 1.172a2.7 2.7 0 0 1-.594.922 3 3 0 0 1-1.016.64 3.8 3.8 0 0 1-1.343.22c-.48 0-.946-.055-1.39-.157a6 6 0 0 1-1.11-.36v-1.233h.078q.48.298 1.125.515c.437.149.86.219 1.265.219q.422.001.813-.11.388-.123.688-.421a1.5 1.5 0 0 0 .39-.594q.14-.359.14-.828-.002-.452-.155-.75a1.3 1.3 0 0 0-.438-.5 1.7 1.7 0 0 0-.734-.313 4.7 4.7 0 0 0-.985-.093c-.344 0-.68.027-1 .078a24 24 0 0 0-.812.125V-8.72h5.25v1.016h-4.11v2.328q.247-.03.5-.031.263-.014.47-.016.701.001 1.233.125.528.111.985.422.467.313.719.828.264.503.265 1.281m0 0"/><path id="al" d="M8.39 0h-1.5L3.97-3.469H2.33V0H1.171v-8.719h2.437c.532 0 .973.04 1.329.11q.528.094.953.359.466.3.734.75.265.457.266 1.14-.002.956-.485 1.594-.47.626-1.297.954ZM5.673-6.266q-.001-.375-.125-.656a1.16 1.16 0 0 0-.438-.5 1.6 1.6 0 0 0-.593-.234q-.344-.077-.813-.078H2.328v3.297H3.5c.375 0 .695-.032.969-.094.27-.063.5-.18.687-.36q.263-.246.39-.562.125-.327.126-.813m0 0"/><path id="ap" d="M6.844-4.36q0 2.345-.735 3.454Q5.373.189 3.83.188 2.246.19 1.515-.923.795-2.047.795-4.36q-.002-2.326.735-3.438.733-1.108 2.297-1.11c1.04 0 1.8.384 2.281 1.141q.734 1.126.735 3.407M5.297-1.702q.199-.48.281-1.125.077-.64.078-1.531 0-.891-.078-1.547a4.2 4.2 0 0 0-.281-1.125 1.5 1.5 0 0 0-.563-.672q-.362-.234-.906-.234-.563 0-.922.234-.364.22-.562.687-.205.438-.281 1.141-.064.69-.063 1.516 0 .925.063 1.547.059.611.265 1.093.2.458.547.703.357.235.953.235.544 0 .906-.235c.239-.156.426-.382.563-.687m0 0"/><path id="aq" d="M4.547-3.281H.89v-1.063h3.656Zm0 0"/><path id="ar" d="M6.844 0H.938v-1.219q.623-.528 1.234-1.062.622-.53 1.156-1.047 1.123-1.09 1.531-1.735.422-.639.422-1.39c0-.445-.152-.797-.453-1.047q-.439-.388-1.234-.39-.55 0-1.172.187a4.8 4.8 0 0 0-1.203.578h-.063v-1.234a6.3 6.3 0 0 1 1.11-.375 5.7 5.7 0 0 1 1.343-.172q1.342 0 2.11.656.763.644.765 1.75-.001.504-.125.938-.128.42-.375.796-.236.376-.546.735-.3.344-.735.765-.628.612-1.297 1.188-.675.58-1.25 1.078h4.688Zm0 0"/><path id="aw" d="M6.36 0H1.624v-.89h1.828v-5.844H1.625v-.797q.375 0 .797-.063.42-.058.64-.187a1.2 1.2 0 0 0 .422-.36q.153-.234.172-.609h.922v7.86H6.36Zm0 0"/><path id="ax" d="M6.844-4.89q-.001 1.14-.266 2.077c-.18.626-.437 1.157-.781 1.594A3.9 3.9 0 0 1 4.453-.187q-.798.357-1.89.359Q2.264.17 1.984.14a2 2 0 0 1-.468-.11v-1.11h.062q.153.082.469.157c.207.055.441.078.703.078q1.277 0 2.016-.765.749-.781.859-2.141-.55.328-1.031.469a3.7 3.7 0 0 1-1.047.14 4 4 0 0 1-.969-.109 2.6 2.6 0 0 1-.875-.406 2.3 2.3 0 0 1-.781-.906C.742-4.937.656-5.38.656-5.891c0-.882.29-1.609.875-2.171q.891-.844 2.157-.844.621.002 1.156.203.544.188.953.594.497.487.766 1.25.28.767.28 1.968m-1.188-.25q0-.903-.187-1.454-.187-.561-.516-.86a1.7 1.7 0 0 0-.594-.374 1.9 1.9 0 0 0-.687-.125c-.563 0-1.008.18-1.328.531q-.486.535-.485 1.484-.001.564.157.922.153.346.53.61.264.175.579.234.31.064.703.063.452.001.922-.125.468-.124.875-.36.014-.123.016-.234a4 4 0 0 0 .015-.313m0 0"/><path id="S" d="M6.094-2.984q-.002.72-.203 1.312a2.8 2.8 0 0 1-.578.984q-.345.377-.813.594-.468.201-.984.203c-.305 0-.578-.03-.828-.093a3 3 0 0 1-.75-.313v2.438h-.97v-7.97h.97v.626q.386-.34.875-.563.497-.217 1.046-.218 1.044 0 1.641.797.593.795.594 2.203m-1.016.03c0-.694-.121-1.218-.36-1.562q-.36-.528-1.109-.53c-.28 0-.57.062-.859.187a3.7 3.7 0 0 0-.812.468v3.297q.42.189.718.266.295.063.688.062.808.002 1.265-.546.47-.562.47-1.641m0 0"/><path id="T" d="M5.828 0h-.984v-3.312q0-.405-.047-.75-.048-.359-.172-.547a.8.8 0 0 0-.375-.328 1.55 1.55 0 0 0-.625-.11q-.41.002-.844.203a4 4 0 0 0-.844.5V0H.97v-8.11h.969v2.938q.467-.388.953-.594c.32-.144.656-.218 1-.218q.95.002 1.437.578.499.564.5 1.625Zm0 0"/><path id="V" d="M7.594-3.875q0 1.066-.469 1.922A3.4 3.4 0 0 1 5.906-.625c-.355.219-.75.383-1.187.484Q4.06 0 3 0H1.047v-7.766h1.937q1.124.001 1.797.172.67.16 1.14.453.797.487 1.235 1.313c.29.555.438 1.203.438 1.953m-1.078-.016q-.001-.903-.313-1.53a2.34 2.34 0 0 0-.953-.985 3 3 0 0 0-.969-.36 6.2 6.2 0 0 0-1.234-.109h-.969v5.984h.969A6.5 6.5 0 0 0 4.328-1q.563-.106 1.031-.406.576-.36.86-.969c.195-.406.297-.91.297-1.516m0 0"/><path id="W" d="M6.828-6.875c.313.355.55.79.719 1.297q.265.752.266 1.703-.001.955-.266 1.719-.25.75-.719 1.265a3.2 3.2 0 0 1-1.14.782 4 4 0 0 1-1.485.265q-.832-.001-1.5-.265a3 3 0 0 1-1.125-.782 3.7 3.7 0 0 1-.734-1.265c-.168-.5-.25-1.07-.25-1.719q-.001-.951.25-1.703.247-.748.734-1.297.45-.497 1.125-.766a3.9 3.9 0 0 1 1.5-.28q.827 0 1.484.28.671.269 1.141.766m-.094 3q0-1.513-.687-2.328-.674-.827-1.844-.828-1.19 0-1.86.828-.671.815-.671 2.328c0 1.023.226 1.805.687 2.344q.684.797 1.844.797 1.154 0 1.844-.797.686-.809.687-2.344m0 0"/><path id="X" d="M6.688-2.219q-.001.457-.22.906a2.1 2.1 0 0 1-.593.75q-.408.33-.969.516-.563.188-1.343.188a6.8 6.8 0 0 1-1.5-.157 7 7 0 0 1-1.36-.468v-1.282h.063a4.3 4.3 0 0 0 1.359.75q.78.268 1.453.266c.633 0 1.129-.117 1.485-.36q.545-.356.546-.952-.001-.515-.265-.766-.251-.247-.766-.375a7 7 0 0 0-.844-.172c-.304-.05-.625-.11-.968-.172q-1.033-.216-1.532-.75Q.75-4.825.75-5.687q0-.967.813-1.594c.55-.414 1.25-.625 2.093-.625q.81.002 1.5.156a7 7 0 0 1 1.219.39v1.22h-.078q-.44-.375-1.172-.626a4.5 4.5 0 0 0-1.469-.25c-.554 0-1 .118-1.344.344q-.501.345-.5.89 0 .486.25.766.247.282.891.422.328.082.938.188c.414.062.765.133 1.047.203q.873.234 1.312.703.437.456.438 1.281m0 0"/><path id="am" d="M6.094 0H.844v-1.094q.543-.468 1.094-.937c.363-.313.703-.617 1.015-.922q.998-.968 1.375-1.531.375-.575.375-1.25-.001-.61-.406-.938c-.262-.226-.633-.344-1.11-.344q-.468.001-1.03.172a4 4 0 0 0-1.079.5h-.047v-1.093a4.5 4.5 0 0 1 .985-.329 5 5 0 0 1 1.203-.156q1.184.002 1.86.578.686.58.687 1.563c0 .293-.04.57-.11.828a2.5 2.5 0 0 1-.343.719 4.5 4.5 0 0 1-.485.64q-.27.315-.656.688a23 23 0 0 1-1.14 1.062c-.4.344-.766.664-1.11.953h4.172Zm0 0"/><path id="as" d="M8.172 0h-3v-2.016q.31-.199.625-.421.31-.235.531-.532.234-.31.375-.719a3 3 0 0 0 .14-.968q-.002-1.077-.671-1.719-.658-.656-1.813-.656-1.143 0-1.812.656c-.438.43-.656 1-.656 1.719q0 .548.14.968.141.41.375.72.233.297.531.53.31.224.626.422V0h-3v-.906h2.14v-.64a3.85 3.85 0 0 1-1.36-1.282 3.33 3.33 0 0 1-.515-1.828c0-.957.32-1.739.969-2.344q.983-.92 2.562-.922c1.063 0 1.914.309 2.563.922q.984.908.984 2.344c0 .68-.18 1.289-.531 1.828a3.8 3.8 0 0 1-1.344 1.281v.64h2.14Zm0 0"/><path id="ae" d="M.89.094V-.36c.47.242.79.414.97.53q.28.17.843.626v-8.64h.594v8.64q.64-.61 1.812-1.156v.453c-.562.5-.992.93-1.28 1.297a5.3 5.3 0 0 0-.704 1.125h-.281a5.5 5.5 0 0 0-.656-1.078Q1.748.874.89.093m0 0"/><path id="ao" d="M.89-5.422c.57-.52 1.005-.969 1.297-1.344q.434-.574.657-1.078h.281q.264.58.703 1.125.437.549 1.281 1.297v.453q-1.171-.546-1.812-1.156v8.64h-.594v-8.64a8 8 0 0 1-.844.625c-.18.117-.5.29-.968.516Zm0 0"/><path id="at" d="M7.969 0h-.813v-2.797q0-.31-.031-.61A1.4 1.4 0 0 0 7-3.874a.6.6 0 0 0-.297-.281c-.125-.07-.305-.11-.531-.11q-.364 0-.703.188-.346.175-.688.437.014.094.016.235.014.127.016.265V0h-.829v-2.797q0-.328-.03-.61a1.4 1.4 0 0 0-.126-.468.6.6 0 0 0-.281-.281c-.125-.07-.309-.11-.547-.11q-.346.001-.687.172a6 6 0 0 0-.672.422V0H.813v-4.906h.828v.547c.257-.22.515-.383.765-.5q.388-.188.828-.188.498 0 .844.219.357.204.516.578.513-.421.922-.61.404-.186.89-.187.797.001 1.172.5.388.486.39 1.36Zm0 0"/><path id="au" d="M4.625 0h-.812v-.516q-.111.064-.297.204-.187.126-.375.218a2.6 2.6 0 0 1-.47.157Q2.404.14 2.048.14q-.673 0-1.14-.438Q.45-.747.452-1.422q0-.562.235-.906.247-.341.687-.547.45-.186 1.078-.25.62-.077 1.36-.125v-.125a.86.86 0 0 0-.11-.453.7.7 0 0 0-.281-.297A1.1 1.1 0 0 0 3-4.265a3.3 3.3 0 0 0-1.25.063 6 6 0 0 0-.812.233H.89v-.828a6 6 0 0 1 .703-.156q.45-.077.89-.078a3.8 3.8 0 0 1 .907.093c.257.055.484.149.672.282q.281.203.421.531.141.316.141.797Zm-.812-1.203v-1.375l-.907.078q-.503.033-.797.125a1.23 1.23 0 0 0-.578.313c-.148.136-.218.328-.218.578q-.001.422.25.64.247.204.78.203.434.001.798-.156.355-.17.672-.406m0 0"/><path id="av" d="M5.063 0H4.016L2.625-1.89 1.219 0H.266l1.922-2.453L.28-4.906h1.047l1.375 1.86 1.39-1.86h.97L3.14-2.484Zm0 0"/><clipPath id="a"><path d="M121.27 22.04h72.496v26.386H121.27Zm0 0"/></clipPath><clipPath id="b"><path d="M193.766 22.04h107.226v26.386H193.766Zm0 0"/></clipPath><clipPath id="c"><path d="M300.992 22.04h87.89v26.386h-87.89Zm0 0"/></clipPath><clipPath id="d"><path d="M121.27 48.426h72.496v30.383H121.27Zm0 0"/></clipPath><clipPath id="e"><path d="M193.766 48.426h107.226v30.383H193.766Zm0 0"/></clipPath><clipPath id="f"><path d="M300.992 48.426h87.89v30.383h-87.89Zm0 0"/></clipPath><clipPath id="g"><path d="M121.27 78.805h72.496v26.39H121.27Zm0 0"/></clipPath><clipPath id="h"><path d="M193.766 78.805h107.226v26.39H193.766Zm0 0"/></clipPath><clipPath id="i"><path d="M300.992 78.805h87.89v26.39h-87.89Zm0 0"/></clipPath><clipPath id="j"><path d="M121.27 105.195h72.496v30.38H121.27Zm0 0"/></clipPath><clipPath id="k"><path d="M193.766 105.195h107.226v30.38H193.766Zm0 0"/></clipPath><clipPath id="l"><path d="M300.992 105.195h87.89v30.38h-87.89Zm0 0"/></clipPath><clipPath id="m"><path d="M300 0h88.95v2H300Zm0 0"/></clipPath><clipPath id="n"><path d="M300 21h88.95v2H300Zm0 0"/></clipPath><clipPath id="o"><path d="M300 48h88.95v1H300Zm0 0"/></clipPath><clipPath id="p"><path d="M300 78h88.95v2H300Zm0 0"/></clipPath><clipPath id="q"><path d="M300 104h88.95v2H300Zm0 0"/></clipPath><clipPath id="r"><path d="M0 135h122v.836H0Zm0 0"/></clipPath><clipPath id="s"><path d="M120 135h75v.836h-75Zm0 0"/></clipPath><clipPath id="t"><path d="M193 135h109v.836H193Zm0 0"/></clipPath><clipPath id="u"><path d="M300 135h88.95v.836H300Zm0 0"/></clipPath></defs><g clip-path="url(#a)"><path fill="#08306B" d="M121.27 48.426h72.496V22.039H121.27Zm0 0"/></g><g clip-path="url(#b)"><path fill="#99C7E0" d="M193.766 48.426h107.226V22.039H193.766Zm0 0"/></g><g clip-path="url(#c)"><path fill="#F7FBFF" d="M300.992 48.426h87.89V22.039h-87.89Zm0 0"/></g><g clip-path="url(#d)"><path fill="#08306B" d="M121.27 78.809h72.496V48.426H121.27Zm0 0"/></g><g clip-path="url(#e)"><path fill="#F7FBFF" d="M193.766 78.809h107.226V48.426H193.766Zm0 0"/></g><g clip-path="url(#f)"><path fill="#BAD6EB" d="M300.992 78.809h87.89V48.426h-87.89Zm0 0"/></g><g clip-path="url(#g)"><path fill="#08306B" d="M121.27 105.195h72.496v-26.39H121.27Zm0 0"/></g><g clip-path="url(#h)"><path fill="#1865AC" d="M193.766 105.195h107.226v-26.39H193.766Zm0 0"/></g><g clip-path="url(#i)"><path fill="#F7FBFF" d="M300.992 105.195h87.89v-26.39h-87.89Zm0 0"/></g><g clip-path="url(#j)"><path fill="#08306B" d="M121.27 135.574h72.496v-30.379H121.27Zm0 0"/></g><g clip-path="url(#k)"><path fill="#1764AB" d="M193.766 135.574h107.226v-30.379H193.766Zm0 0"/></g><g clip-path="url(#l)"><path fill="#F7FBFF" d="M300.992 135.574h87.89v-30.379h-87.89Zm0 0"/></g><path fill="none" stroke="#000" stroke-miterlimit="10" stroke-width=".75" d="M.258.703H121.27m0 0h72.496m0 0h107.226"/><g clip-path="url(#m)"><path fill="none" stroke="#000" stroke-miterlimit="10" stroke-width=".75" d="M300.992.703h87.89"/></g><path fill="none" stroke="#000" stroke-miterlimit="10" stroke-width=".75" d="M.258 22.04H121.27m0 0h72.496m0 0h107.226"/><g clip-path="url(#n)"><path fill="none" stroke="#000" stroke-miterlimit="10" stroke-width=".75" d="M300.992 22.04h87.89"/></g><path fill="none" stroke="#000" stroke-miterlimit="10" stroke-width=".75" d="M.258 48.426H121.27m0 0h72.496m0 0h107.226"/><g clip-path="url(#o)"><path fill="none" stroke="#000" stroke-miterlimit="10" stroke-width=".75" d="M300.992 48.426h87.89"/></g><path fill="none" stroke="#000" stroke-miterlimit="10" stroke-width=".75" d="M.258 78.809H121.27m0 0h72.496m0 0h107.226"/><g clip-path="url(#p)"><path fill="none" stroke="#000" stroke-miterlimit="10" stroke-width=".75" d="M300.992 78.809h87.89"/></g><path fill="none" stroke="#000" stroke-miterlimit="10" stroke-width=".75" d="M.258 105.195H121.27m0 0h72.496m0 0h107.226"/><g clip-path="url(#q)"><path fill="none" stroke="#000" stroke-miterlimit="10" stroke-width=".75" d="M300.992 105.195h87.89"/></g><g clip-path="url(#r)"><path fill="none" stroke="#000" stroke-miterlimit="10" stroke-width=".75" d="M.258 135.574H121.27"/></g><g clip-path="url(#s)"><path fill="none" stroke="#000" stroke-miterlimit="10" stroke-width=".75" d="M121.27 135.574h72.496"/></g><g clip-path="url(#t)"><path fill="none" stroke="#000" stroke-miterlimit="10" stroke-width=".75" d="M193.766 135.574h107.226"/></g><g clip-path="url(#u)"><path fill="none" stroke="#000" stroke-miterlimit="10" stroke-width=".75" d="M300.992 135.574h87.89"/></g><use xlink:href="#v" x="4.758" y="16.144"/><use xlink:href="#w" x="16.134" y="16.144"/><use xlink:href="#x" x="24.378" y="16.144"/><use xlink:href="#y" x="32.766" y="16.144"/><use xlink:href="#z" x="40.734" y="16.144"/><use xlink:href="#v" x="125.768" y="16.144"/><use xlink:href="#A" x="137.144" y="16.144"/><use xlink:href="#B" x="146.456" y="16.144"/><use xlink:href="#C" x="155.144" y="16.144"/><use xlink:href="#D" x="163.34" y="16.144"/><use xlink:href="#v" x="169.1" y="16.144"/><use xlink:href="#E" x="180.476" y="16.144"/><use xlink:href="#B" x="198.266" y="16.144"/><use xlink:href="#F" x="206.954" y="16.144"/><use xlink:href="#G" x="216.998" y="16.144"/><use xlink:href="#H" x="226.73" y="16.144"/><use xlink:href="#y" x="236.894" y="16.144"/><use xlink:href="#I" x="244.862" y="16.144"/><use xlink:href="#J" x="250.334" y="16.144"/><use xlink:href="#K" x="254.438" y="16.144"/><use xlink:href="#L" x="262.238" y="16.144"/><use xlink:href="#M" x="270.77" y="16.144"/><use xlink:href="#N" x="275.102" y="16.144"/><use xlink:href="#M" x="283.634" y="16.144"/><use xlink:href="#L" x="287.966" y="16.144"/><use xlink:href="#v" x="305.493" y="16.144"/><use xlink:href="#N" x="316.869" y="16.144"/><use xlink:href="#G" x="325.401" y="16.144"/><use xlink:href="#H" x="335.133" y="16.144"/><use xlink:href="#y" x="345.297" y="16.144"/><use xlink:href="#I" x="353.265" y="16.144"/><use xlink:href="#D" x="358.737" y="16.144"/><use xlink:href="#v" x="364.497" y="16.144"/><use xlink:href="#O" x="375.873" y="16.144"/><use xlink:href="#P" x="3.258" y="37.478"/><use xlink:href="#Q" x="13.374" y="37.478"/><use xlink:href="#R" x="21.582" y="37.478"/><use xlink:href="#S" x="29.162" y="42.811"/><use xlink:href="#T" x="35.808" y="42.811"/><use xlink:href="#U" x="42.56" y="42.811"/><use xlink:href="#V" x="46.314" y="42.811"/><use xlink:href="#W" x="54.538" y="42.811"/><use xlink:href="#X" x="62.933" y="42.811"/><use xlink:href="#Y" x="70.215" y="37.478"/><use xlink:href="#Z" x="74.439" y="37.478"/><use xlink:href="#aa" x="79.887" y="37.478"/><use xlink:href="#ab" x="87.279" y="37.478"/><use xlink:href="#ac" x="96.291" y="37.478"/><use xlink:href="#ad" x="102.591" y="37.478"/><use xlink:href="#Y" x="108.039" y="37.478"/><use xlink:href="#ae" x="112.263" y="37.478"/><g fill="#F1F1F1"><use xlink:href="#af" x="125.768" y="40.005"/><use xlink:href="#ag" x="133.4" y="40.005"/><use xlink:href="#ah" x="137.768" y="40.005"/><use xlink:href="#ai" x="145.4" y="40.005"/></g><use xlink:href="#aj" x="198.266" y="40.005"/><use xlink:href="#ag" x="205.898" y="40.005"/><use xlink:href="#ah" x="210.266" y="40.005"/><use xlink:href="#af" x="217.898" y="40.005"/><use xlink:href="#ak" x="305.493" y="40.005"/><use xlink:href="#ag" x="313.125" y="40.005"/><use xlink:href="#aj" x="317.493" y="40.005"/><use xlink:href="#aj" x="325.125" y="40.005"/><use xlink:href="#al" x="3.258" y="67.859"/><use xlink:href="#am" x="11.602" y="62.525"/><use xlink:href="#S" x="18.383" y="73.192"/><use xlink:href="#T" x="25.029" y="73.192"/><use xlink:href="#U" x="31.781" y="73.192"/><use xlink:href="#V" x="35.535" y="73.192"/><use xlink:href="#W" x="43.759" y="73.192"/><use xlink:href="#X" x="52.154" y="73.192"/><use xlink:href="#an" x="59.436" y="67.859"/><use xlink:href="#ao" x="62.772" y="67.859"/><g fill="#F1F1F1"><use xlink:href="#ap" x="125.768" y="68.389"/><use xlink:href="#ag" x="133.4" y="68.389"/><use xlink:href="#ap" x="137.768" y="68.389"/><use xlink:href="#af" x="145.4" y="68.389"/></g><use xlink:href="#aq" x="198.266" y="68.389"/><use xlink:href="#ap" x="203.714" y="68.389"/><use xlink:href="#ag" x="211.346" y="68.389"/><use xlink:href="#ap" x="215.714" y="68.389"/><use xlink:href="#aj" x="223.346" y="68.389"/><use xlink:href="#aq" x="305.493" y="68.389"/><use xlink:href="#ap" x="310.941" y="68.389"/><use xlink:href="#ag" x="318.573" y="68.389"/><use xlink:href="#ap" x="322.941" y="68.389"/><use xlink:href="#ar" x="330.573" y="68.389"/><use xlink:href="#P" x="3.258" y="94.246"/><use xlink:href="#Q" x="13.374" y="94.246"/><use xlink:href="#R" x="21.582" y="94.246"/><use xlink:href="#as" x="29.162" y="99.579"/><use xlink:href="#at" x="37.892" y="95.079"/><use xlink:href="#au" x="46.649" y="95.079"/><use xlink:href="#av" x="52.058" y="95.079"/><use xlink:href="#Y" x="57.377" y="94.246"/><use xlink:href="#Z" x="61.601" y="94.246"/><use xlink:href="#aa" x="67.049" y="94.246"/><use xlink:href="#ab" x="74.441" y="94.246"/><use xlink:href="#ac" x="83.453" y="94.246"/><use xlink:href="#ad" x="89.753" y="94.246"/><use xlink:href="#Y" x="95.201" y="94.246"/><use xlink:href="#ae" x="99.425" y="94.246"/><g fill="#F1F1F1"><use xlink:href="#aw" x="125.768" y="96.773"/><use xlink:href="#ag" x="133.4" y="96.773"/><use xlink:href="#ai" x="137.768" y="96.773"/><use xlink:href="#ax" x="145.4" y="96.773"/></g><g fill="#F1F1F1"><use xlink:href="#ar" x="198.266" y="96.773"/><use xlink:href="#ag" x="205.898" y="96.773"/><use xlink:href="#af" x="210.266" y="96.773"/><use xlink:href="#aw" x="217.898" y="96.773"/></g><use xlink:href="#aj" x="305.493" y="96.773"/><use xlink:href="#ag" x="313.125" y="96.773"/><use xlink:href="#af" x="317.493" y="96.773"/><use xlink:href="#aj" x="325.125" y="96.773"/><use xlink:href="#al" x="3.258" y="124.627"/><use xlink:href="#am" x="11.602" y="119.294"/><use xlink:href="#as" x="18.383" y="129.96"/><use xlink:href="#at" x="27.113" y="125.46"/><use xlink:href="#au" x="35.87" y="125.46"/><use xlink:href="#av" x="41.279" y="125.46"/><use xlink:href="#Y" x="46.598" y="124.627"/><use xlink:href="#Z" x="50.822" y="124.627"/><use xlink:href="#aa" x="56.27" y="124.627"/><use xlink:href="#ab" x="63.662" y="124.627"/><use xlink:href="#ac" x="72.674" y="124.627"/><use xlink:href="#ad" x="78.974" y="124.627"/><use xlink:href="#Y" x="84.422" y="124.627"/><use xlink:href="#ao" x="88.646" y="124.627"/><g fill="#F1F1F1"><use xlink:href="#ap" x="125.768" y="125.157"/><use xlink:href="#ag" x="133.4" y="125.157"/><use xlink:href="#ax" x="137.768" y="125.157"/><use xlink:href="#ax" x="145.4" y="125.157"/></g><g fill="#F1F1F1"><use xlink:href="#ap" x="198.266" y="125.157"/><use xlink:href="#ag" x="205.898" y="125.157"/><use xlink:href="#ax" x="210.266" y="125.157"/><use xlink:href="#ah" x="217.898" y="125.157"/></g><use xlink:href="#ap" x="305.493" y="125.157"/><use xlink:href="#ag" x="313.125" y="125.157"/><use xlink:href="#ax" x="317.493" y="125.157"/><use xlink:href="#aj" x="325.125" y="125.157"/></svg>