<svg xmlns="http://www.w3.org/2000/svg" xmlns:xlink="http://www.w3.org/1999/xlink" width="339.955" height="171.792"><defs><path id="H" d="M10.266 0h-2.25v-5.844l-1.61 3.797H4.86L3.234-5.844V0H1.11v-8.719h2.625l1.954 4.375L7.64-8.719h2.625Zm0 0"/><path id="I" d="M7.719-3.281q-.002 1.61-.953 2.547-.94.937-2.641.937-1.723 0-2.672-.937-.937-.937-.937-2.547-.001-1.64.953-2.563.95-.937 2.656-.937 1.718 0 2.656.937T7.72-3.28M5.125-1.687q.201-.247.297-.61c.07-.238.11-.566.11-.984 0-.383-.04-.707-.11-.969a1.6 1.6 0 0 0-.281-.625 1 1 0 0 0-.453-.328c-.18-.07-.368-.11-.563-.11q-.313.001-.547.079a1.1 1.1 0 0 0-.453.328 1.9 1.9 0 0 0-.312.64q-.111.393-.11.985 0 .551.094.937c.07.262.172.477.297.64q.187.224.437.329.264.11.61.11.279 0 .547-.094a.93.93 0 0 0 .437-.328m0 0"/><path id="J" d="M7.39 0H5.282v-.687q-.549.456-1.015.671c-.313.133-.68.204-1.094.204Q1.965.19 1.25-.734q-.72-.936-.719-2.5c0-.563.078-1.055.235-1.485q.248-.655.672-1.125a2.6 2.6 0 0 1 .953-.672c.382-.164.77-.25 1.156-.25q.576.001.953.125.388.13.781.329v-2.813h2.11ZM5.282-1.812v-3.235a2 2 0 0 0-.468-.125 2.3 2.3 0 0 0-.454-.047c-.554 0-.968.172-1.25.516q-.408.517-.406 1.437 0 .974.328 1.407.34.438 1.078.437a1.9 1.9 0 0 0 .61-.11q.327-.105.562-.28m0 0"/><path id="K" d="M7.484-2.906H2.656q.046.784.578 1.187c.364.274.895.407 1.594.407a3.7 3.7 0 0 0 1.297-.235c.414-.156.75-.328 1-.516h.234v1.688q-.72.3-1.359.422a7 7 0 0 1-1.39.125q-1.987 0-3.048-.89Q.516-1.61.517-3.25q-.001-1.623 1-2.578c.664-.633 1.578-.953 2.734-.953q1.606.002 2.422.812.81.815.812 2.328ZM5.375-4.141q-.018-.655-.328-.984c-.211-.227-.531-.344-.969-.344q-.611 0-1 .328-.392.316-.437 1Zm0 0"/><path id="L" d="M3.11 0H1v-9.125h2.11Zm0 0"/><path id="M" d="M9.172 0H6.844L6.25-1.766H3.016L2.406 0H.141l3.218-8.719h2.594ZM5.703-3.36 4.625-6.5 3.563-3.36Zm0 0"/><path id="N" d="M5.063.172A5.7 5.7 0 0 1 3.25-.11a4 4 0 0 1-1.406-.86 3.9 3.9 0 0 1-.922-1.42Q.607-3.234.609-4.359q0-1.032.297-1.875a4 4 0 0 1 .907-1.453q.573-.575 1.406-.891a5.3 5.3 0 0 1 1.844-.313 7.5 7.5 0 0 1 1.812.22q.387.108.703.25.328.142.563.25v2.124h-.25a23 23 0 0 0-.422-.328 6 6 0 0 0-.563-.39 3.7 3.7 0 0 0-.687-.313 2.3 2.3 0 0 0-.813-.14c-.312 0-.617.054-.906.155a2 2 0 0 0-.781.5q-.345.33-.563.875c-.148.368-.219.813-.219 1.344q0 .814.235 1.375.234.55.578.86.357.328.797.468c.3.086.594.125.875.125.27 0 .539-.039.812-.125q.406-.123.735-.328c.195-.113.375-.234.531-.36.164-.132.3-.25.406-.343h.235v2.094q-.331.14-.625.281A7.2 7.2 0 0 1 6.094.11q-.375.062-1.032.063m0 0"/><path id="O" d="M7.422 0H1.109v-8.719h6.313v1.688H3.359v1.5h3.766v1.687H3.359v2.157h4.063Zm0 0"/><path id="P" d="M5.11-3.031H.64V-4.72h4.47Zm0 0"/><path id="Q" d="M8.313-5.969q-.002.58-.204 1.14a2.5 2.5 0 0 1-.578.938 3.7 3.7 0 0 1-1.172.782c-.43.18-.96.265-1.593.265H3.359V0H1.11v-8.719h3.704q.843 0 1.406.14a3.4 3.4 0 0 1 1.015.423q.528.345.797.89.282.535.281 1.297m-2.329.047q-.002-.356-.203-.625a.92.92 0 0 0-.453-.375 2.2 2.2 0 0 0-.687-.156 25 25 0 0 0-.891-.016h-.39v2.61h.656q.562 0 .937-.063.374-.075.625-.281.218-.186.313-.453.093-.264.093-.64m0 0"/><path id="R" d="M7.078-4.094c.188.168.336.36.453.578q.171.33.172.875c0 .407-.086.79-.25 1.141a2.4 2.4 0 0 1-.734.922q-.504.364-1.172.562c-.438.133-.977.204-1.61.204A9 9 0 0 1 2.078.016Q1.31-.154.828-.375v-1.906h.219q.499.298 1.203.531.703.22 1.281.219.341 0 .735-.047.406-.061.687-.25.2-.154.328-.36.14-.198.14-.609 0-.374-.187-.578a.9.9 0 0 0-.453-.297 2.2 2.2 0 0 0-.687-.094c-.274-.007-.524-.015-.75-.015h-.485v-1.563h.5q.452.002.797-.031.358-.03.61-.14a.9.9 0 0 0 .375-.282q.14-.186.14-.547a.6.6 0 0 0-.14-.422.9.9 0 0 0-.328-.265 2 2 0 0 0-.547-.125 4 4 0 0 0-.532-.047c-.367 0-.765.062-1.203.187q-.644.189-1.234.547h-.219v-1.89c.313-.125.742-.243 1.297-.36a7.6 7.6 0 0 1 1.688-.187q.81 0 1.437.14.621.143 1.031.391c.32.188.563.422.719.703q.234.41.234.953 0 .721-.453 1.297-.455.564-1.187.734v.079q.295.034.625.156c.218.086.422.203.61.36m0 0"/><path id="S" d="M8.828-.5q-.58.235-1.547.469a9 9 0 0 1-1.937.219Q3.125.19 1.859-1.016.607-2.233.61-4.375q0-2.028 1.266-3.266c.844-.832 2.023-1.25 3.547-1.25q.855.002 1.64.157.78.157 1.735.609v2.047h-.25l-.485-.344a5 5 0 0 0-.609-.39 4 4 0 0 0-.797-.313 3.2 3.2 0 0 0-.953-.14 3.3 3.3 0 0 0-1.094.171 2.4 2.4 0 0 0-.875.547q-.362.345-.578.89a3.3 3.3 0 0 0-.219 1.25q-.001 1.456.766 2.22.78.766 2.281.765h.282q.152-.013.28-.031v-1.703H4.813v-1.656h4.016Zm0 0"/><path id="T" d="M9.047 0H6.875L3.172-5.984V0H1.109v-8.719h2.688l3.187 4.985V-8.72h2.063Zm0 0"/><path id="U" d="M5.203-.062a5 5 0 0 1-.719.14q-.375.047-.937.047c-.813 0-1.422-.164-1.828-.5-.399-.332-.594-.898-.594-1.703v-3.078H.25v-1.422h.875v-1.89h2.11v1.89h1.968v1.422H3.234v2.953q0 .253.094.453.076.205.281.328.217.11.61.11.169 0 .437-.063.264-.077.375-.125h.172Zm0 0"/><path id="V" d="M8.094-2.75Q8.092-1.45 7-.64 5.906.155 4.031.155c-.718 0-1.351-.062-1.89-.187a9 9 0 0 1-1.5-.485V-2.61h.25c.457.375.972.664 1.547.859q.874.299 1.671.297.202.002.532-.031c.226-.032.41-.07.547-.125q.263-.106.421-.266.171-.153.172-.469c0-.187-.086-.347-.25-.484q-.234-.217-.703-.328-.485-.107-1.047-.203a6 6 0 0 1-1.015-.282q-1.114-.34-1.594-.953-.485-.622-.484-1.531Q.687-7.343 1.78-8.109q1.09-.781 2.813-.782.857.001 1.703.172a8.6 8.6 0 0 1 1.453.422v2.016h-.234a4.7 4.7 0 0 0-1.297-.703 4.4 4.4 0 0 0-1.563-.297q-.281 0-.562.047-.269.035-.532.14a1 1 0 0 0-.406.266.58.58 0 0 0-.156.406c0 .23.086.406.266.531q.261.188 1 .329.481.11.922.203.435.095.953.25c.664.218 1.156.523 1.468.906.32.375.485.86.485 1.453m0 0"/><path id="W" d="M8.938 0h-2.25v-3.844H3.359V0H1.11v-8.719h2.25v3.188h3.329V-8.72h2.25Zm0 0"/><path id="Y" d="M7.625-6.578 5.094 0h-2.39L.171-6.578h2.234l1.531 4.516 1.5-4.516Zm0 0"/><path id="Z" d="M7.875-4.36q-.002 1.096-.203 1.97-.187.86-.61 1.421a2.8 2.8 0 0 1-1.125.86c-.448.195-1.007.297-1.67.297Q3.279.186 2.594-.11a2.6 2.6 0 0 1-1.11-.875q-.44-.562-.64-1.422A9.2 9.2 0 0 1 .656-4.36q0-1.136.203-1.97.201-.842.625-1.421.434-.576 1.125-.86.703-.294 1.657-.296.996.002 1.672.297.685.299 1.125.89.42.563.609 1.407.201.844.203 1.953m-2.266 0q0-1.592-.312-2.265c-.211-.445-.555-.672-1.031-.672-.48 0-.825.227-1.032.672q-.313.673-.312 2.266c0 1.043.101 1.793.312 2.25q.33.673 1.032.672.7 0 1.015-.672.328-.685.328-2.25m0 0"/><path id="aa" d="M3.266 0H1.078v-2.297h2.188Zm0 0"/><path id="ab" d="M6.875-6.094q-.002.58-.203 1.078a2.6 2.6 0 0 1-.563.86 3 3 0 0 1-1.062.687c-.406.149-.922.219-1.547.219H2.328V0H1.172v-8.719h2.375q.778.001 1.328.125.546.127.969.406.48.346.75.844c.187.336.281.75.281 1.25m-1.203.032c0-.301-.055-.563-.156-.782a1.4 1.4 0 0 0-.485-.547 1.9 1.9 0 0 0-.64-.265 4.5 4.5 0 0 0-.907-.078H2.328v3.484h.985q.701.001 1.14-.125.436-.121.719-.39a1.7 1.7 0 0 0 .375-.594q.124-.311.125-.703m0 0"/><path id="ac" d="M5.172-5.344h-.063a3 3 0 0 0-.484-.078 4 4 0 0 0-.547-.031q-.504 0-.984.234-.471.222-.906.578V0h-1.11v-6.547h1.11v.969q.654-.528 1.156-.75a2.5 2.5 0 0 1 1.015-.219q.293.002.422.016.122.016.39.062Zm0 0"/><path id="ad" d="M6.563-3.156H1.734q0 .596.188 1.047.186.455.5.734.294.282.719.422.419.14.922.14c.445 0 .894-.085 1.343-.265q.687-.264.969-.516h.063v1.188C6.063-.25 5.68-.113 5.297 0a4.8 4.8 0 0 1-1.219.156c-1.086 0-1.933-.289-2.547-.875Q.624-1.607.625-3.234c0-1.07.29-1.922.875-2.547q.873-.951 2.297-.953 1.325 0 2.047.78.716.769.718 2.204ZM5.484-4q-.002-.874-.437-1.344-.423-.468-1.297-.468-.893 0-1.422.515A2.06 2.06 0 0 0 1.734-4Zm0 0"/><path id="ae" d="M5.922-.406c-.367.18-.715.312-1.047.406Q4.39.14 3.828.14c-.469 0-.902-.07-1.297-.202a2.56 2.56 0 0 1-1.015-.625A2.74 2.74 0 0 1 .844-1.75Q.609-2.405.609-3.266q-.001-1.606.875-2.515.89-.921 2.344-.922.561 0 1.094.172.543.158 1 .375v1.234h-.063a4 4 0 0 0-1.03-.61A2.8 2.8 0 0 0 3.78-5.75q-.938.001-1.484.64-.532.627-.531 1.844 0 1.19.515 1.829.528.625 1.5.625.328.002.672-.079.356-.093.625-.234.248-.124.453-.266.217-.14.328-.234h.063Zm0 0"/><path id="af" d="M2.89 0H1.485v-1.672h1.407Zm0 0"/><path id="ai" d="M6.844-4.36q0 2.345-.735 3.454Q5.373.189 3.83.188 2.246.19 1.515-.923.795-2.047.795-4.36q-.002-2.326.735-3.438.733-1.108 2.297-1.11c1.04 0 1.8.384 2.281 1.141q.734 1.126.735 3.407M5.297-1.702q.199-.48.281-1.125.077-.64.078-1.531 0-.891-.078-1.547a4.2 4.2 0 0 0-.281-1.125 1.5 1.5 0 0 0-.563-.672q-.362-.234-.906-.234-.563 0-.922.234-.364.22-.562.687-.205.438-.281 1.141-.064.69-.063 1.516 0 .925.063 1.547.059.611.265 1.093.2.458.547.703.357.235.953.235.544 0 .906-.235c.239-.156.426-.382.563-.687m0 0"/><path id="aj" d="M6.875-7.422 2.922 0h-1.25l4.203-7.703H.906V-8.72h5.969Zm0 0"/><path id="ak" d="M6.844-4.89q-.001 1.14-.266 2.077c-.18.626-.437 1.157-.781 1.594A3.9 3.9 0 0 1 4.453-.187q-.798.357-1.89.359Q2.264.17 1.984.14a2 2 0 0 1-.468-.11v-1.11h.062q.153.082.469.157c.207.055.441.078.703.078q1.277 0 2.016-.765.749-.781.859-2.141-.55.328-1.031.469a3.7 3.7 0 0 1-1.047.14 4 4 0 0 1-.969-.109 2.6 2.6 0 0 1-.875-.406 2.3 2.3 0 0 1-.781-.906C.742-4.937.656-5.38.656-5.891c0-.882.29-1.609.875-2.171q.891-.844 2.157-.844.621.002 1.156.203.544.188.953.594.497.487.766 1.25.28.767.28 1.968m-1.188-.25q0-.903-.187-1.454-.187-.561-.516-.86a1.7 1.7 0 0 0-.594-.374 1.9 1.9 0 0 0-.687-.125c-.563 0-1.008.18-1.328.531q-.486.535-.485 1.484-.001.564.157.922.153.346.53.61.264.175.579.234.31.064.703.063.452.001.922-.125.468-.124.875-.36.014-.123.016-.234a4 4 0 0 0 .015-.313m0 0"/><path id="al" d="M6.781-2.766q0 .61-.234 1.172a2.7 2.7 0 0 1-.594.922 3 3 0 0 1-1.016.64 3.8 3.8 0 0 1-1.343.22c-.48 0-.946-.055-1.39-.157a6 6 0 0 1-1.11-.36v-1.233h.078q.48.298 1.125.515c.437.149.86.219 1.265.219q.422.001.813-.11.388-.123.688-.421a1.5 1.5 0 0 0 .39-.594q.14-.359.14-.828-.002-.452-.155-.75a1.3 1.3 0 0 0-.438-.5 1.7 1.7 0 0 0-.734-.313 4.7 4.7 0 0 0-.985-.093c-.344 0-.68.027-1 .078a24 24 0 0 0-.812.125V-8.72h5.25v1.016h-4.11v2.328q.247-.03.5-.031.263-.014.47-.016.701.001 1.233.125.528.111.985.422.467.313.719.828.264.503.265 1.281m0 0"/><path id="am" d="M6.078-4.203q.282.253.469.64.187.375.187.985-.001.597-.218 1.094a2.6 2.6 0 0 1-.61.859q-.438.41-1.047.61a4 4 0 0 1-1.296.203Q2.843.188 2.14 0A6.6 6.6 0 0 1 .984-.375v-1.219h.079q.498.33 1.171.547c.446.149.883.219 1.313.219q.356.001.765-.125c.282-.082.508-.203.688-.36a1.7 1.7 0 0 0 .39-.578q.141-.311.141-.78-.002-.468-.156-.767a1.2 1.2 0 0 0-.406-.5 1.7 1.7 0 0 0-.64-.234 4 4 0 0 0-.813-.078H3v-.969h.406q.89 0 1.422-.375.53-.374.531-1.093 0-.313-.14-.547a1.1 1.1 0 0 0-.375-.391 1.5 1.5 0 0 0-.547-.203 3 3 0 0 0-.64-.063q-.566.002-1.188.204a4.2 4.2 0 0 0-1.172.562h-.063v-1.234q.404-.2 1.094-.375a5.8 5.8 0 0 1 1.36-.172q.638.001 1.124.125.482.112.875.36.421.281.641.687.218.392.219.937 0 .72-.516 1.266a2.3 2.3 0 0 1-1.203.672v.093q.28.05.64.204.358.14.61.359m0 0"/><path id="an" d="M8.39 0h-1.5L3.97-3.469H2.33V0H1.171v-8.719h2.437c.532 0 .973.04 1.329.11q.528.094.953.359.466.3.734.75.265.457.266 1.14-.002.956-.485 1.594-.47.626-1.297.954ZM5.673-6.266q-.001-.375-.125-.656a1.16 1.16 0 0 0-.438-.5 1.6 1.6 0 0 0-.593-.234q-.344-.077-.813-.078H2.328v3.297H3.5c.375 0 .695-.032.969-.094.27-.063.5-.18.687-.36q.263-.246.39-.562.125-.327.126-.813m0 0"/><path id="ao" d="M6.172 0H5.078v-.703q-.159.11-.406.297a2 2 0 0 1-.469.265 3.3 3.3 0 0 1-.64.235 3.4 3.4 0 0 1-.844.094 2.12 2.12 0 0 1-1.5-.579q-.61-.59-.61-1.515-.002-.732.313-1.188c.219-.312.523-.554.922-.734q.59-.265 1.422-.36.841-.093 1.812-.14V-4.5q0-.375-.14-.61a.95.95 0 0 0-.375-.39A1.5 1.5 0 0 0 4-5.687a5 5 0 0 0-.687-.047 4.5 4.5 0 0 0-.97.125 7 7 0 0 0-1.093.328h-.062v-1.125a8 8 0 0 1 .937-.188 7 7 0 0 1 1.203-.11q.687.001 1.203.126.515.112.89.375.36.27.548.703.201.423.203 1.063ZM5.078-1.61v-1.827q-.503.034-1.187.093-.691.066-1.078.172-.488.13-.782.422-.28.283-.281.781 0 .563.328.844.342.282 1.047.281c.383 0 .738-.07 1.063-.219.32-.156.617-.335.89-.546m0 0"/><path id="ap" d="M2.203 0h-1.11v-9.125h1.11Zm0 0"/><path id="aq" d="M6.922-2.437q0 1.14-.89 1.89-.879.75-2.22.75c-.949 0-1.703-.242-2.265-.734C.992-1.02.719-1.645.719-2.406q0-.733.422-1.313.42-.591 1.187-.937v-.032q-.705-.374-1.047-.812-.327-.45-.328-1.125 0-.984.797-1.64.81-.657 2.063-.657 1.31.002 2.093.625.781.628.782 1.594 0 .597-.375 1.172-.375.563-1.079.89v.032q.81.344 1.25.859.437.516.438 1.313m-1.39-4.25c0-.415-.165-.75-.485-1q-.485-.375-1.234-.375-.739 0-1.22.359-.468.346-.468.937 0 .424.234.735c.164.21.407.39.72.547a9 9 0 0 0 1.421.562q.574-.386.797-.797.234-.42.234-.968m.171 4.359q0-.529-.234-.86-.236-.327-.922-.656a8 8 0 0 0-.61-.234q-.328-.106-.874-.313-.534.283-.844.782A2 2 0 0 0 1.906-2.5q-.001.797.532 1.313.546.515 1.39.515.856.001 1.36-.437.515-.435.515-1.22m0 0"/><path id="ar" d="M6.844 0H.938v-1.219q.623-.528 1.234-1.062.622-.53 1.156-1.047 1.123-1.09 1.531-1.735.422-.639.422-1.39c0-.445-.152-.797-.453-1.047q-.439-.388-1.234-.39-.55 0-1.172.187a4.8 4.8 0 0 0-1.203.578h-.063v-1.234a6.3 6.3 0 0 1 1.11-.375 5.7 5.7 0 0 1 1.343-.172q1.342 0 2.11.656.763.644.765 1.75-.001.504-.125.938-.128.42-.375.796-.236.376-.546.735-.3.344-.735.765-.628.612-1.297 1.188-.675.58-1.25 1.078h4.688Zm0 0"/><path id="as" d="M6.36 0H1.624v-.89h1.828v-5.844H1.625v-.797q.375 0 .797-.063.42-.058.64-.187a1.2 1.2 0 0 0 .422-.36q.153-.234.172-.609h.922v7.86H6.36Zm0 0"/><path id="at" d="M6.75-7.687H2.328v2.453h3.797v1.03H2.328V0H1.172v-8.719H6.75Zm0 0"/><path id="au" d="M6.984-2.828q-.001 1.33-.875 2.172-.879.844-2.156.844Q3.31.186 2.781-.016a2.5 2.5 0 0 1-.922-.593c-.343-.32-.609-.75-.796-1.282C.883-2.43.797-3.078.797-3.828Q.796-5 1.047-5.891q.246-.89.797-1.593a3.54 3.54 0 0 1 1.328-1.032q.81-.375 1.906-.375.342.001.578.032.235.034.469.109v1.11h-.047a3.4 3.4 0 0 0-.5-.157 3 3 0 0 0-.672-.078q-1.265.001-2.015.781-.751.784-.875 2.125.499-.293.968-.453c.32-.101.692-.156 1.11-.156q.545.002.968.11.436.094.875.406.514.361.782.906.264.55.265 1.328m-1.187.047q-.001-.544-.172-.906a1.54 1.54 0 0 0-.531-.626 1.36 1.36 0 0 0-.594-.234 4 4 0 0 0-.687-.062q-.502.001-.922.125a4 4 0 0 0-.875.359q-.019.128-.032.25v.297q0 .924.188 1.469.201.533.531.843.263.252.578.375.312.111.688.11.842 0 1.328-.516c.332-.344.5-.836.5-1.484m0 0"/><path id="av" d="M7.672-7.719c.351.387.625.867.812 1.438q.296.843.297 1.922c0 .718-.101 1.367-.297 1.937a3.8 3.8 0 0 1-.812 1.406q-.533.597-1.266.907C5.914.086 5.352.188 4.72.188A4.6 4.6 0 0 1 3.047-.11c-.5-.207-.93-.508-1.281-.907a4.1 4.1 0 0 1-.813-1.421Q.673-3.282.672-4.36q0-1.061.281-1.907c.188-.57.461-1.054.828-1.453q.515-.575 1.282-.875a4.4 4.4 0 0 1 1.656-.312q.937 0 1.687.312.75.3 1.266.875m-.094 3.36c0-1.133-.258-2.008-.766-2.625q-.766-.921-2.078-.922-1.33 0-2.093.922-.767.925-.766 2.625-.001 1.722.766 2.625.78.907 2.093.906 1.295.001 2.063-.906.78-.903.781-2.625m0 0"/><path id="aw" d="M7.906-.64q-.314.14-.578.265c-.18.086-.406.172-.687.266a8 8 0 0 1-.782.187q-.409.077-.906.078Q3.997.155 3.22-.109a3.4 3.4 0 0 1-1.344-.828Q1.312-1.5.985-2.36c-.212-.57-.313-1.239-.313-2q0-1.08.297-1.922.31-.843.89-1.438a3.8 3.8 0 0 1 1.344-.86 4.7 4.7 0 0 1 1.75-.312q.704.001 1.406.172.705.175 1.547.61v1.375h-.078q-.72-.609-1.437-.875a4 4 0 0 0-1.516-.282c-.437 0-.836.075-1.187.22a2.55 2.55 0 0 0-.954.655q-.408.44-.64 1.11c-.149.449-.219.965-.219 1.547q-.001.925.25 1.593.247.657.64 1.079c.282.28.602.496.97.64q.546.204 1.156.203.824 0 1.562-.281A4.6 4.6 0 0 0 7.828-2h.078Zm0 0"/><path id="ax" d="M8.047 0H6.812l-.859-2.437H2.187L1.329 0H.156l3.172-8.719h1.547ZM5.609-3.422 4.08-7.719 2.53-3.422Zm0 0"/><path id="ay" d="M7.734-3.5c0 .625-.07 1.18-.203 1.656q-.205.704-.687 1.172-.438.44-1.047.656A4.5 4.5 0 0 1 4.39.188q-.83-.001-1.438-.22a2.6 2.6 0 0 1-1.015-.64 2.66 2.66 0 0 1-.688-1.156q-.204-.687-.203-1.672v-5.219h1.156v5.266q0 .72.094 1.125.094.41.328.75.264.377.703.578.436.188 1.063.188.622 0 1.062-.188.435-.201.703-.578.235-.342.328-.766.094-.433.094-1.078v-5.297h1.156Zm0 0"/><path id="az" d="M7.047-2.453H5.75V0H4.625v-2.453H.453v-1.344l4.219-4.922H5.75v5.328h1.297Zm-2.422-.938v-3.937L1.25-3.391Zm0 0"/><path id="aB" d="M7.828 0H6.391L2.25-7.812V0H1.172v-8.719h1.797L6.75-1.594v-7.125h1.078Zm0 0"/><path id="ah" d="M.89-5.422c.57-.52 1.005-.969 1.297-1.344q.434-.574.657-1.078h.281q.264.58.703 1.125.437.549 1.281 1.297v.453q-1.171-.546-1.812-1.156v8.64h-.594v-8.64a8 8 0 0 1-.844.625c-.18.117-.5.29-.968.516Zm0 0"/><path id="aA" d="M.89.094V-.36c.47.242.79.414.97.53q.28.17.843.626v-8.64h.594v8.64q.64-.61 1.812-1.156v.453c-.562.5-.992.93-1.28 1.297a5.3 5.3 0 0 0-.704 1.125h-.281a5.5 5.5 0 0 0-.656-1.078Q1.748.874.89.093m0 0"/><clipPath id="a"><path d="M72.172 22.04h72.496v21.343H72.172Zm0 0"/></clipPath><clipPath id="b"><path d="M144.668 22.04h87.89v21.343h-87.89Zm0 0"/></clipPath><clipPath id="c"><path d="M232.559 22.04h107.226v21.343H232.56Zm0 0"/></clipPath><clipPath id="d"><path d="M72.172 43.383h72.496V64.73H72.172Zm0 0"/></clipPath><clipPath id="e"><path d="M144.668 43.383h87.89V64.73h-87.89Zm0 0"/></clipPath><clipPath id="f"><path d="M232.559 43.383h107.226V64.73H232.56Zm0 0"/></clipPath><clipPath id="g"><path d="M72.172 64.73h72.496v21.344H72.172Zm0 0"/></clipPath><clipPath id="h"><path d="M144.668 64.73h87.89v21.344h-87.89Zm0 0"/></clipPath><clipPath id="i"><path d="M232.559 64.73h107.226v21.344H232.56Zm0 0"/></clipPath><clipPath id="j"><path d="M72.172 86.074h72.496v21.348H72.172Zm0 0"/></clipPath><clipPath id="k"><path d="M144.668 86.074h87.89v21.348h-87.89Zm0 0"/></clipPath><clipPath id="l"><path d="M232.559 86.074h107.226v21.348H232.56Zm0 0"/></clipPath><clipPath id="m"><path d="M72.172 107.422h72.496v21.344H72.172Zm0 0"/></clipPath><clipPath id="n"><path d="M144.668 107.422h87.89v21.344h-87.89Zm0 0"/></clipPath><clipPath id="o"><path d="M232.559 107.422h107.226v21.344H232.56Zm0 0"/></clipPath><clipPath id="p"><path d="M72.172 128.766h72.496v21.347H72.172Zm0 0"/></clipPath><clipPath id="q"><path d="M144.668 128.766h87.89v21.347h-87.89Zm0 0"/></clipPath><clipPath id="r"><path d="M232.559 128.766h107.226v21.347H232.56Zm0 0"/></clipPath><clipPath id="s"><path d="M72.172 150.113h72.496v21.344H72.172Zm0 0"/></clipPath><clipPath id="t"><path d="M144.668 150.113h87.89v21.344h-87.89Zm0 0"/></clipPath><clipPath id="u"><path d="M232.559 150.113h107.226v21.344H232.56Zm0 0"/></clipPath><clipPath id="v"><path d="M232 0h107.953v2H232Zm0 0"/></clipPath><clipPath id="w"><path d="M232 21h107.953v2H232Zm0 0"/></clipPath><clipPath id="x"><path d="M232 43h107.953v1H232Zm0 0"/></clipPath><clipPath id="y"><path d="M232 64h107.953v2H232Zm0 0"/></clipPath><clipPath id="z"><path d="M232 85h107.953v2H232Zm0 0"/></clipPath><clipPath id="A"><path d="M232 107h107.953v1H232Zm0 0"/></clipPath><clipPath id="B"><path d="M232 128h107.953v2H232Zm0 0"/></clipPath><clipPath id="C"><path d="M232 149h107.953v2H232Zm0 0"/></clipPath><clipPath id="D"><path d="M0 171h73v.793H0Zm0 0"/></clipPath><clipPath id="E"><path d="M71 171h75v.793H71Zm0 0"/></clipPath><clipPath id="F"><path d="M144 171h89v.793h-89Zm0 0"/></clipPath><clipPath id="G"><path d="M232 171h107.953v.793H232Zm0 0"/></clipPath></defs><g clip-path="url(#a)"><path fill="#08306B" d="M72.172 43.383h72.496V22.039H72.172Zm0 0"/></g><g clip-path="url(#b)"><path fill="#CADDF0" d="M144.668 43.383h87.89V22.039h-87.89Zm0 0"/></g><g clip-path="url(#c)"><path fill="#F7FBFF" d="M232.559 43.383h107.226V22.039H232.56Zm0 0"/></g><g clip-path="url(#d)"><path fill="#F7FBFF" d="M72.172 64.73h72.496V43.383H72.172Zm0 0"/></g><g clip-path="url(#e)"><path fill="#61A7D2" d="M144.668 64.73h87.89V43.383h-87.89Zm0 0"/></g><g clip-path="url(#f)"><path fill="#08306B" d="M232.559 64.73h107.226V43.383H232.56Zm0 0"/></g><g clip-path="url(#g)"><path fill="#08306B" d="M72.172 86.074h72.496V64.73H72.172Zm0 0"/></g><g clip-path="url(#h)"><path fill="#C6DBEF" d="M144.668 86.074h87.89V64.73h-87.89Zm0 0"/></g><g clip-path="url(#i)"><path fill="#F7FBFF" d="M232.559 86.074h107.226V64.73H232.56Zm0 0"/></g><g clip-path="url(#j)"><path fill="#08306B" d="M72.172 107.422h72.496V86.074H72.172Zm0 0"/></g><g clip-path="url(#k)"><path fill="#ABD0E6" d="M144.668 107.422h87.89V86.074h-87.89Zm0 0"/></g><g clip-path="url(#l)"><path fill="#F7FBFF" d="M232.559 107.422h107.226V86.074H232.56Zm0 0"/></g><g clip-path="url(#m)"><path fill="#08306B" d="M72.172 128.766h72.496v-21.344H72.172Zm0 0"/></g><g clip-path="url(#n)"><path fill="#ABD0E6" d="M144.668 128.766h87.89v-21.344h-87.89Zm0 0"/></g><g clip-path="url(#o)"><path fill="#F7FBFF" d="M232.559 128.766h107.226v-21.344H232.56Zm0 0"/></g><g clip-path="url(#p)"><path fill="#08306B" d="M72.172 150.113h72.496v-21.347H72.172Zm0 0"/></g><g clip-path="url(#q)"><path fill="#A1CBE2" d="M144.668 150.113h87.89v-21.347h-87.89Zm0 0"/></g><g clip-path="url(#r)"><path fill="#F7FBFF" d="M232.559 150.113h107.226v-21.347H232.56Zm0 0"/></g><g clip-path="url(#s)"><path fill="#F7FBFF" d="M72.172 171.457h72.496v-21.344H72.172Zm0 0"/></g><g clip-path="url(#t)"><path fill="#61A7D2" d="M144.668 171.457h87.89v-21.344h-87.89Zm0 0"/></g><g clip-path="url(#u)"><path fill="#08306B" d="M232.559 171.457h107.226v-21.344H232.56Zm0 0"/></g><path fill="none" stroke="#000" stroke-miterlimit="10" stroke-width=".75" d="M.258.703h71.914m0 0h72.496m0 0h87.89"/><g clip-path="url(#v)"><path fill="none" stroke="#000" stroke-miterlimit="10" stroke-width=".75" d="M232.559.703h107.226"/></g><path fill="none" stroke="#000" stroke-miterlimit="10" stroke-width=".75" d="M.258 22.04h71.914m0 0h72.496m0 0h87.89"/><g clip-path="url(#w)"><path fill="none" stroke="#000" stroke-miterlimit="10" stroke-width=".75" d="M232.559 22.04h107.226"/></g><path fill="none" stroke="#000" stroke-miterlimit="10" stroke-width=".75" d="M.258 43.383h71.914m0 0h72.496m0 0h87.89"/><g clip-path="url(#x)"><path fill="none" stroke="#000" stroke-miterlimit="10" stroke-width=".75" d="M232.559 43.383h107.226"/></g><path fill="none" stroke="#000" stroke-miterlimit="10" stroke-width=".75" d="M.258 64.73h71.914m0 0h72.496m0 0h87.89"/><g clip-path="url(#y)"><path fill="none" stroke="#000" stroke-miterlimit="10" stroke-width=".75" d="M232.559 64.73h107.226"/></g><path fill="none" stroke="#000" stroke-miterlimit="10" stroke-width=".75" d="M.258 86.074h71.914m0 0h72.496m0 0h87.89"/><g clip-path="url(#z)"><path fill="none" stroke="#000" stroke-miterlimit="10" stroke-width=".75" d="M232.559 86.074h107.226"/></g><path fill="none" stroke="#000" stroke-miterlimit="10" stroke-width=".75" d="M.258 107.422h71.914m0 0h72.496m0 0h87.89"/><g clip-path="url(#A)"><path fill="none" stroke="#000" stroke-miterlimit="10" stroke-width=".75" d="M232.559 107.422h107.226"/></g><path fill="none" stroke="#000" stroke-miterlimit="10" stroke-width=".75" d="M.258 128.766h71.914m0 0h72.496m0 0h87.89"/><g clip-path="url(#B)"><path fill="none" stroke="#000" stroke-miterlimit="10" stroke-width=".75" d="M232.559 128.766h107.226"/></g><path fill="none" stroke="#000" stroke-miterlimit="10" stroke-width=".75" d="M.258 150.113h71.914m0 0h72.496m0 0h87.89"/><g clip-path="url(#C)"><path fill="none" stroke="#000" stroke-miterlimit="10" stroke-width=".75" d="M232.559 150.113h107.226"/></g><g clip-path="url(#D)"><path fill="none" stroke="#000" stroke-miterlimit="10" stroke-width=".75" d="M.258 171.457h71.914"/></g><g clip-path="url(#E)"><path fill="none" stroke="#000" stroke-miterlimit="10" stroke-width=".75" d="M72.172 171.457h72.496"/></g><g clip-path="url(#F)"><path fill="none" stroke="#000" stroke-miterlimit="10" stroke-width=".75" d="M144.668 171.457h87.89"/></g><g clip-path="url(#G)"><path fill="none" stroke="#000" stroke-miterlimit="10" stroke-width=".75" d="M232.559 171.457h107.226"/></g><use xlink:href="#H" x="4.758" y="16.144"/><use xlink:href="#I" x="16.134" y="16.144"/><use xlink:href="#J" x="24.378" y="16.144"/><use xlink:href="#K" x="32.766" y="16.144"/><use xlink:href="#L" x="40.734" y="16.144"/><use xlink:href="#H" x="76.67" y="16.144"/><use xlink:href="#M" x="88.046" y="16.144"/><use xlink:href="#N" x="97.358" y="16.144"/><use xlink:href="#O" x="106.046" y="16.144"/><use xlink:href="#P" x="114.242" y="16.144"/><use xlink:href="#H" x="120.002" y="16.144"/><use xlink:href="#Q" x="131.378" y="16.144"/><use xlink:href="#H" x="149.168" y="16.144"/><use xlink:href="#R" x="160.544" y="16.144"/><use xlink:href="#S" x="169.076" y="16.144"/><use xlink:href="#T" x="178.808" y="16.144"/><use xlink:href="#K" x="188.972" y="16.144"/><use xlink:href="#U" x="196.94" y="16.144"/><use xlink:href="#P" x="202.412" y="16.144"/><use xlink:href="#H" x="208.172" y="16.144"/><use xlink:href="#V" x="219.548" y="16.144"/><use xlink:href="#N" x="237.059" y="16.144"/><use xlink:href="#W" x="245.747" y="16.144"/><use xlink:href="#S" x="255.791" y="16.144"/><use xlink:href="#T" x="265.523" y="16.144"/><use xlink:href="#K" x="275.687" y="16.144"/><use xlink:href="#U" x="283.655" y="16.144"/><use xlink:href="#X" x="289.127" y="16.144"/><use xlink:href="#Y" x="293.231" y="16.144"/><use xlink:href="#Z" x="301.031" y="16.144"/><use xlink:href="#aa" x="309.563" y="16.144"/><use xlink:href="#R" x="313.895" y="16.144"/><use xlink:href="#aa" x="322.427" y="16.144"/><use xlink:href="#Z" x="326.759" y="16.144"/><use xlink:href="#ab" x="3.258" y="37.478"/><use xlink:href="#ac" x="10.494" y="37.478"/><use xlink:href="#ad" x="15.618" y="37.478"/><use xlink:href="#ae" x="22.77" y="37.478"/><use xlink:href="#af" x="29.022" y="37.478"/><use xlink:href="#ag" x="33.39" y="37.478"/><use xlink:href="#ah" x="37.614" y="37.478"/><g fill="#F1F1F1"><use xlink:href="#ai" x="76.67" y="37.484"/><use xlink:href="#af" x="84.302" y="37.484"/><use xlink:href="#aj" x="88.67" y="37.484"/><use xlink:href="#ak" x="96.302" y="37.484"/></g><use xlink:href="#ai" x="149.168" y="37.484"/><use xlink:href="#af" x="156.8" y="37.484"/><use xlink:href="#al" x="161.168" y="37.484"/><use xlink:href="#ak" x="168.8" y="37.484"/><use xlink:href="#ai" x="237.059" y="37.484"/><use xlink:href="#af" x="244.691" y="37.484"/><use xlink:href="#al" x="249.059" y="37.484"/><use xlink:href="#am" x="256.691" y="37.484"/><use xlink:href="#an" x="3.258" y="58.824"/><use xlink:href="#ad" x="11.316" y="58.824"/><use xlink:href="#ae" x="18.468" y="58.824"/><use xlink:href="#ao" x="24.72" y="58.824"/><use xlink:href="#ap" x="31.932" y="58.824"/><use xlink:href="#ap" x="35.22" y="58.824"/><use xlink:href="#ag" x="38.508" y="58.824"/><use xlink:href="#ah" x="42.732" y="58.824"/><use xlink:href="#ai" x="76.67" y="58.83"/><use xlink:href="#af" x="84.302" y="58.83"/><use xlink:href="#aq" x="88.67" y="58.83"/><use xlink:href="#ar" x="96.302" y="58.83"/><g fill="#F1F1F1"><use xlink:href="#ai" x="149.168" y="58.829"/><use xlink:href="#af" x="156.8" y="58.829"/><use xlink:href="#ak" x="161.168" y="58.829"/><use xlink:href="#as" x="168.8" y="58.829"/></g><g fill="#F1F1F1"><use xlink:href="#ai" x="237.059" y="58.829"/><use xlink:href="#af" x="244.691" y="58.829"/><use xlink:href="#ak" x="249.059" y="58.829"/><use xlink:href="#ak" x="256.691" y="58.829"/></g><use xlink:href="#at" x="3.258" y="80.169"/><use xlink:href="#as" x="10.158" y="80.169"/><use xlink:href="#ag" x="17.79" y="80.169"/><use xlink:href="#ah" x="22.014" y="80.169"/><g fill="#F1F1F1"><use xlink:href="#ai" x="76.67" y="80.175"/><use xlink:href="#af" x="84.302" y="80.175"/><use xlink:href="#aq" x="88.67" y="80.175"/><use xlink:href="#as" x="96.302" y="80.175"/></g><use xlink:href="#ai" x="149.168" y="80.175"/><use xlink:href="#af" x="156.8" y="80.175"/><use xlink:href="#aj" x="161.168" y="80.175"/><use xlink:href="#ar" x="168.8" y="80.175"/><use xlink:href="#ai" x="237.059" y="80.175"/><use xlink:href="#af" x="244.691" y="80.175"/><use xlink:href="#au" x="249.059" y="80.175"/><use xlink:href="#ak" x="256.691" y="80.175"/><use xlink:href="#an" x="3.258" y="101.515"/><use xlink:href="#av" x="11.598" y="101.515"/><use xlink:href="#aw" x="21.042" y="101.515"/><use xlink:href="#ag" x="29.418" y="101.515"/><use xlink:href="#ax" x="33.642" y="101.515"/><use xlink:href="#ay" x="41.796" y="101.515"/><use xlink:href="#aw" x="50.58" y="101.515"/><use xlink:href="#ag" x="58.956" y="101.515"/><use xlink:href="#ah" x="63.18" y="101.515"/><g fill="#F1F1F1"><use xlink:href="#ai" x="76.67" y="101.521"/><use xlink:href="#af" x="84.302" y="101.521"/><use xlink:href="#aq" x="88.67" y="101.521"/><use xlink:href="#ai" x="96.302" y="101.521"/></g><use xlink:href="#ai" x="149.168" y="101.521"/><use xlink:href="#af" x="156.8" y="101.521"/><use xlink:href="#au" x="161.168" y="101.521"/><use xlink:href="#az" x="168.8" y="101.521"/><use xlink:href="#ai" x="237.059" y="101.521"/><use xlink:href="#af" x="244.691" y="101.521"/><use xlink:href="#al" x="249.059" y="101.521"/><use xlink:href="#au" x="256.691" y="101.521"/><use xlink:href="#ax" x="3.258" y="122.861"/><use xlink:href="#ae" x="11.466" y="122.861"/><use xlink:href="#ae" x="17.718" y="122.861"/><use xlink:href="#af" x="23.97" y="122.861"/><use xlink:href="#ag" x="28.338" y="122.861"/><use xlink:href="#ah" x="32.562" y="122.861"/><g fill="#F1F1F1"><use xlink:href="#ai" x="76.67" y="122.866"/><use xlink:href="#af" x="84.302" y="122.866"/><use xlink:href="#aq" x="88.67" y="122.866"/><use xlink:href="#ai" x="96.302" y="122.866"/></g><use xlink:href="#ai" x="149.168" y="122.866"/><use xlink:href="#af" x="156.8" y="122.866"/><use xlink:href="#au" x="161.168" y="122.866"/><use xlink:href="#az" x="168.8" y="122.866"/><use xlink:href="#ai" x="237.059" y="122.866"/><use xlink:href="#af" x="244.691" y="122.866"/><use xlink:href="#al" x="249.059" y="122.866"/><use xlink:href="#au" x="256.691" y="122.866"/><use xlink:href="#at" x="3.258" y="144.206"/><use xlink:href="#ab" x="10.158" y="144.206"/><use xlink:href="#an" x="17.394" y="144.206"/><use xlink:href="#ag" x="25.734" y="144.206"/><use xlink:href="#aA" x="29.958" y="144.206"/><g fill="#F1F1F1"><use xlink:href="#ai" x="76.67" y="144.212"/><use xlink:href="#af" x="84.302" y="144.212"/><use xlink:href="#ar" x="88.67" y="144.212"/><use xlink:href="#as" x="96.302" y="144.212"/></g><use xlink:href="#ai" x="149.168" y="144.212"/><use xlink:href="#af" x="156.8" y="144.212"/><use xlink:href="#au" x="161.168" y="144.212"/><use xlink:href="#am" x="168.8" y="144.212"/><use xlink:href="#ai" x="237.059" y="144.212"/><use xlink:href="#af" x="244.691" y="144.212"/><use xlink:href="#aq" x="249.059" y="144.212"/><use xlink:href="#aj" x="256.691" y="144.212"/><use xlink:href="#at" x="3.258" y="165.552"/><use xlink:href="#aB" x="10.158" y="165.552"/><use xlink:href="#an" x="19.134" y="165.552"/><use xlink:href="#ag" x="27.474" y="165.552"/><use xlink:href="#aA" x="31.698" y="165.552"/><use xlink:href="#ai" x="76.67" y="165.558"/><use xlink:href="#af" x="84.302" y="165.558"/><use xlink:href="#as" x="88.67" y="165.558"/><use xlink:href="#aq" x="96.302" y="165.558"/><g fill="#F1F1F1"><use xlink:href="#ai" x="149.168" y="165.558"/><use xlink:href="#af" x="156.8" y="165.558"/><use xlink:href="#ai" x="161.168" y="165.558"/><use xlink:href="#ak" x="168.8" y="165.558"/></g><g fill="#F1F1F1"><use xlink:href="#ai" x="237.059" y="165.558"/><use xlink:href="#af" x="244.691" y="165.558"/><use xlink:href="#ai" x="249.059" y="165.558"/><use xlink:href="#as" x="256.691" y="165.558"/></g></svg>