<svg xmlns="http://www.w3.org/2000/svg" width="700" height="500" class="main-svg"><path d="M0 0h700v500H0z" style="fill:#fff;fill-opacity:1"/><defs><clipPath id="b" class="plotclip"><path d="M0 0h625v451H0z"/></clipPath><clipPath id="a" class="axesclip"><path d="M0 15h700v451H0z"/></clipPath></defs><g class="layer-below"><g class="shapelayer"><g class="shape-group" clip-path="url(#a)" data-index="1"><path fill-rule="evenodd" d="M69 268.69h625v-56.38H69Z" data-index="1" style="opacity:.1;stroke:#2a3f5f;stroke-opacity:1;fill:green;fill-opacity:1;stroke-width:2px"/></g></g></g><g class="cartesianlayer"><g class="subplot xy"><g class="gridlayer"><g class="x"><path d="M0 15v451" class="xgrid crisp" style="stroke:#d3d3d3;stroke-opacity:1;stroke-width:1px" transform="translate(113)"/><path d="M0 15v451" class="xgrid crisp" style="stroke:#d3d3d3;stroke-opacity:1;stroke-width:1px" transform="translate(312.91)"/><path d="M0 15v451" class="xgrid crisp" style="stroke:#d3d3d3;stroke-opacity:1;stroke-width:1px" transform="translate(512.82)"/></g><g class="y"><path d="M69 0h625" class="ygrid crisp" style="stroke:#d3d3d3;stroke-opacity:1;stroke-width:1px" transform="translate(0 409.63)"/><path d="M69 0h625" class="ygrid crisp" style="stroke:#d3d3d3;stroke-opacity:1;stroke-width:1px" transform="translate(0 353.25)"/><path d="M69 0h625" class="ygrid crisp" style="stroke:#d3d3d3;stroke-opacity:1;stroke-width:1px" transform="translate(0 296.88)"/><path d="M69 0h625" class="ygrid crisp" style="stroke:#d3d3d3;stroke-opacity:1;stroke-width:1px" transform="translate(0 240.5)"/><path d="M69 0h625" class="ygrid crisp" style="stroke:#d3d3d3;stroke-opacity:1;stroke-width:1px" transform="translate(0 184.13)"/><path d="M69 0h625" class="ygrid crisp" style="stroke:#d3d3d3;stroke-opacity:1;stroke-width:1px" transform="translate(0 127.75)"/><path d="M69 0h625" class="ygrid crisp" style="stroke:#d3d3d3;stroke-opacity:1;stroke-width:1px" transform="translate(0 71.38)"/></g></g><g class="plot" clip-path="url(#b)" transform="translate(69 15)"><g class="violinlayer mlayer"><g class="trace violins" style="opacity:1"><path d="M44 509.02h.18q.09-2.49.15-3.74c.06-1.25.13-2.49.21-3.74s.17-2.49.25-3.74c.09-1.25.18-2.5.26-3.75.07-1.25.15-2.49.19-3.74s.07-2.49.07-3.74-.03-2.49-.07-3.74-.12-2.49-.19-3.74c-.08-1.25-.17-2.49-.26-3.74-.08-1.25-.17-2.49-.25-3.74a234 234 0 0 1-.45-11.22c-.02-1.25-.04-2.49-.05-3.74l-.03-3.74c-.01-1.25-.01-2.49-.01-3.74v-41.15c0-1.25 0-2.49.01-3.74l.03-3.74a233 233 0 0 1 .16-7.48c.05-1.25.1-2.5.19-3.75.08-1.25.19-2.49.32-3.74s.29-2.5.48-3.74a79 79 0 0 1 1.53-7.48 99 99 0 0 1 2.24-7.48c.42-1.25.86-2.5 1.32-3.74.46-1.25.93-2.5 1.42-3.74.49-1.25.99-2.49 1.5-3.74s1.03-2.49 1.55-3.74 1.06-2.49 1.58-3.74 1.03-2.49 1.54-3.74 1-2.5 1.53-3.74c.53-1.25 1.05-2.51 1.67-3.74.64-1.26 1.3-2.53 2.12-3.75a32.6 32.6 0 0 1 2.94-3.74c1.18-1.29 2.55-2.53 3.98-3.74 1.52-1.29 3.23-2.51 4.92-3.74 1.75-1.27 3.63-2.49 5.42-3.74 1.77-1.24 3.59-2.46 5.26-3.74 1.6-1.22 3.15-2.46 4.57-3.74 1.34-1.21 2.57-2.47 3.75-3.74 1.14-1.23 2.15-2.5 3.24-3.74 1.09-1.25 2.13-2.51 3.29-3.74 1.2-1.27 2.45-2.52 3.79-3.74 1.4-1.27 2.9-2.51 4.44-3.74 1.59-1.27 3.28-2.5 4.95-3.74 1.69-1.25 3.43-2.49 5.15-3.74 1.73-1.25 3.45-2.51 5.22-3.75 1.79-1.26 3.56-2.52 5.45-3.74 1.97-1.27 3.98-2.53 6.15-3.74 2.32-1.29 4.78-2.54 7.38-3.74 2.81-1.3 5.84-2.53 8.93-3.74 3.28-1.29 6.78-2.51 10.23-3.74 3.52-1.26 7.22-2.47 10.71-3.74 3.36-1.22 6.82-2.41 9.84-3.74 2.69-1.18 5.48-2.31 7.44-3.74 1.56-1.13 3.33-2.38 3.69-3.74.31-1.16-.16-2.63-.97-3.74-1.1-1.5-3.62-2.61-5.97-3.74-2.97-1.43-6.8-2.57-10.64-3.74-4.41-1.35-9.41-2.53-14.4-3.74-5.36-1.3-11.11-2.51-16.76-3.75-5.76-1.26-11.73-2.48-17.49-3.74-5.63-1.23-11.3-2.46-16.69-3.74-5.08-1.21-10.09-2.44-14.78-3.74-4.31-1.2-8.47-2.42-12.32-3.74-3.48-1.19-6.79-2.42-9.82-3.74-2.72-1.19-5.27-2.42-7.58-3.74-2.08-1.19-4-2.43-5.71-3.74-1.55-1.19-2.96-2.44-4.19-3.74-1.14-1.2-2.13-2.46-3-3.74a29 29 0 0 1-2.12-3.74c-.59-1.23-1.07-2.48-1.52-3.74-.45-1.24-.82-2.49-1.19-3.74-.37-1.24-.69-2.49-1.01-3.74-.32-1.24-.62-2.49-.91-3.74-.28-1.25-.56-2.5-.8-3.75a98 98 0 0 1-.66-3.74 78 78 0 0 1-.48-3.74 67 67 0 0 1-.28-3.74c-.06-1.25-.07-2.49-.07-3.74s.04-2.49.08-3.74c.05-1.25.12-2.49.19-3.74s.16-2.49.23-3.74.13-2.49.17-3.74.07-2.49.07-3.74-.03-2.49-.07-3.74-.12-2.49-.19-3.74c-.08-1.25-.17-2.49-.26-3.74-.08-1.25-.17-2.49-.25-3.74q-.12-1.875-.21-3.75-.06-1.25-.15-3.74H44" class="violin" style="vector-effect:none;stroke-width:2px;stroke:orange;stroke-opacity:1;fill:orange;fill-opacity:.5"/><path d="M46 255.43h18.74M46 283.72h18.74v-44.7H46Zm0 0v66.13m0-110.83v-59.4" class="box" style="vector-effect:non-scaling-stroke;stroke-width:2px;stroke:orange;stroke-opacity:1;fill:orange;fill-opacity:.5"/></g><g class="trace violins" style="opacity:1"><path d="M243.91 472.71h.21q.11-2.61.18-3.91c.07-1.31.16-2.61.25-3.92s.21-2.61.31-3.92c.1-1.3.21-2.61.3-3.91.09-1.31.18-2.61.23-3.92.05-1.3.09-2.61.09-3.91 0-1.31-.02-2.61-.07-3.92-.05-1.3-.14-2.61-.23-3.91-.09-1.31-.2-2.61-.3-3.92s-.21-2.61-.3-3.92c-.09-1.3-.19-2.61-.26-3.91-.07-1.31-.13-2.61-.18-3.92-.05-1.3-.09-2.61-.11-3.91-.03-1.31-.04-2.61-.04-3.92s-.01-2.61.01-3.92c.02-1.3.04-2.61.09-3.91.05-1.31.11-2.62.2-3.92.1-1.31.21-2.61.37-3.91.16-1.31.35-2.62.6-3.92.25-1.31.56-2.61.92-3.91.36-1.31.78-2.62 1.25-3.92.48-1.32 1.02-2.62 1.59-3.92.58-1.31 1.22-2.61 1.87-3.91.66-1.31 1.35-2.62 2.06-3.92.72-1.31 1.46-2.61 2.22-3.91.77-1.31 1.56-2.62 2.39-3.92.85-1.31 1.72-2.62 2.66-3.91.97-1.32 1.98-2.64 3.09-3.92 1.16-1.33 2.39-2.65 3.74-3.92 1.42-1.34 2.96-2.65 4.61-3.91 1.76-1.35 3.67-2.65 5.67-3.92 2.13-1.35 4.42-2.64 6.76-3.91 2.46-1.34 5.07-2.63 7.67-3.92 2.67-1.32 5.44-2.61 8.16-3.92 2.71-1.3 5.46-2.59 8.12-3.91 2.6-1.29 5.16-2.6 7.67-3.92 2.45-1.29 4.81-2.6 7.2-3.91 2.37-1.3 4.67-2.63 7.07-3.92 2.45-1.32 4.91-2.63 7.47-3.91 2.66-1.33 5.42-2.64 8.23-3.92 2.92-1.33 5.95-2.62 8.97-3.92 3.05-1.31 6.2-2.59 9.23-3.91 2.96-1.29 5.95-2.58 8.75-3.92 2.64-1.27 5.25-2.54 7.59-3.91 2.14-1.25 4.2-2.53 5.95-3.92 1.57-1.24 3.02-2.53 4.16-3.91 1.03-1.24 1.9-2.57 2.49-3.92.55-1.26.89-2.6 1.02-3.92.13-1.29.02-2.62-.24-3.91-.27-1.33-.77-2.65-1.41-3.92-.67-1.35-1.55-2.66-2.58-3.91-1.12-1.37-2.45-2.67-3.94-3.92-1.65-1.38-3.54-2.68-5.58-3.92-2.27-1.38-4.8-2.66-7.46-3.91-2.92-1.37-6.12-2.66-9.4-3.92-3.52-1.35-7.28-2.63-11.07-3.91-3.95-1.33-8.08-2.62-12.18-3.92-4.16-1.31-8.41-2.6-12.58-3.91-4.14-1.3-8.31-2.6-12.37-3.92-3.96-1.29-7.9-2.59-11.71-3.92-3.66-1.28-7.27-2.57-10.73-3.91-3.3-1.27-6.53-2.57-9.59-3.92-2.88-1.27-5.68-2.56-8.3-3.91-2.45-1.26-4.79-2.56-6.96-3.92-2.01-1.26-3.92-2.55-5.64-3.91-1.59-1.26-3.08-2.56-4.38-3.92-1.21-1.26-2.3-2.57-3.21-3.92-.86-1.27-1.57-2.58-2.16-3.91-.56-1.28-.98-2.6-1.32-3.92-.33-1.29-.53-2.6-.71-3.91-.18-1.3-.26-2.61-.38-3.92-.11-1.31-.2-2.61-.31-3.92-.11-1.3-.22-2.61-.36-3.91-.14-1.31-.3-2.61-.47-3.92-.16-1.3-.35-2.61-.52-3.91-.17-1.31-.35-2.61-.51-3.92-.16-1.3-.33-2.61-.47-3.91-.15-1.31-.27-2.61-.4-3.92s-.24-2.61-.36-3.92c-.12-1.3-.24-2.61-.37-3.91-.13-1.31-.26-2.61-.4-3.92l-.42-3.91c-.14-1.31-.28-2.61-.41-3.92-.13-1.3-.25-2.61-.35-3.91-.11-1.31-.2-2.61-.28-3.92q-.08-1.31-.18-3.92h-.22" class="violin" style="vector-effect:none;stroke-width:2px;stroke:#00f;stroke-opacity:1;fill:#00f;fill-opacity:.5"/><path d="M245.91 286.45h18.74M245.91 310h18.74v-47.1h-18.74Zm0 0v64.62m0-111.72v-68.17" class="box" style="vector-effect:non-scaling-stroke;stroke-width:2px;stroke:#00f;stroke-opacity:1;fill:#00f;fill-opacity:.5"/></g><g class="trace violins" style="opacity:1"><path d="M443.82 508.32h.16q.08-1.77.14-2.65c.06-.88.13-1.77.2-2.65s.16-1.77.24-2.65.17-1.77.24-2.65.14-1.77.18-2.65.07-1.77.07-2.65-.02-1.77-.06-2.65-.11-1.76-.18-2.64-.16-1.77-.24-2.65-.17-1.77-.24-2.65-.14-1.77-.2-2.65-.1-1.77-.14-2.65-.07-1.77-.09-2.65-.04-1.77-.05-2.65-.01-1.77-.02-2.65c0-.88-.01-1.76-.01-2.64v-58.28c0-.88.01-1.77.01-2.65.01-.88.01-1.77.02-2.65s.01-1.77.03-2.65.05-1.76.08-2.64.07-1.77.12-2.65.12-1.77.19-2.65.15-1.77.23-2.65.18-1.77.25-2.65.14-1.77.19-2.65.09-1.77.1-2.65 0-1.77-.03-2.65-.09-1.77-.15-2.65-.15-1.76-.23-2.64-.17-1.77-.24-2.65-.14-1.77-.2-2.65-.11-1.77-.14-2.65-.05-1.77-.06-2.65-.01-1.77.01-2.65.06-1.77.11-2.65.1-1.77.18-2.65c.07-.88.17-1.76.27-2.64a239 239 0 0 1 .67-5.3l.36-2.65c.12-.88.25-1.77.38-2.65.14-.88.27-1.77.43-2.65s.33-1.77.52-2.65c.19-.89.4-1.77.63-2.65.23-.89.49-1.77.77-2.65s.59-1.76.92-2.64c.33-.89.69-1.77 1.06-2.65.38-.89.78-1.77 1.2-2.65.42-.89.87-1.77 1.32-2.65s.91-1.77 1.36-2.65.9-1.77 1.34-2.65.86-1.77 1.29-2.65.84-1.77 1.28-2.65c.45-.88.88-1.77 1.39-2.64.53-.9 1.08-1.79 1.74-2.65.7-.91 1.47-1.8 2.35-2.65.95-.92 2.04-1.8 3.2-2.65 1.26-.92 2.68-1.79 4.13-2.65 1.55-.91 3.22-1.78 4.89-2.65 1.71-.9 3.52-1.76 5.26-2.65 1.72-.88 3.47-1.74 5.1-2.65 1.55-.86 3.08-1.73 4.45-2.65 1.26-.85 2.46-1.71 3.5-2.64.95-.85 1.78-1.74 2.53-2.65.7-.86 1.27-1.76 1.86-2.65.58-.88 1.06-1.78 1.66-2.65.63-.9 1.25-1.8 2.04-2.65.86-.92 1.84-1.81 2.95-2.65 1.24-.94 2.67-1.81 4.2-2.65 1.7-.94 3.61-1.8 5.59-2.65 2.17-.93 4.52-1.8 6.95-2.65 2.62-.92 5.39-1.79 8.24-2.64 3.05-.91 6.23-1.79 9.5-2.65 3.45-.91 7.06-1.78 10.7-2.65 3.78-.9 7.72-1.77 11.6-2.65 3.89-.89 7.92-1.74 11.7-2.65 3.57-.86 7.25-1.68 10.38-2.65 2.67-.82 5.59-1.52 7.29-2.65 1.16-.77 2.53-1.81 2.46-2.65-.08-.93-1.94-1.88-3.47-2.64-2.31-1.15-5.96-1.84-9.48-2.65-4.3-.99-9.42-1.81-14.5-2.65-5.59-.93-11.69-1.78-17.67-2.65-6.16-.9-12.57-1.76-18.76-2.65-6.06-.87-12.17-1.74-17.98-2.65-5.48-.86-10.87-1.72-15.94-2.65-4.65-.85-9.14-1.71-13.32-2.65-3.76-.84-7.34-1.71-10.64-2.65-2.93-.83-5.7-1.7-8.22-2.64-2.23-.83-4.31-1.7-6.18-2.65-1.66-.84-3.19-1.71-4.53-2.65-1.19-.84-2.26-1.72-3.17-2.65-.82-.84-1.53-1.73-2.1-2.65-.53-.85-.94-1.75-1.27-2.65-.32-.87-.51-1.76-.68-2.65-.17-.88-.26-1.77-.35-2.65s-.15-1.76-.21-2.64-.11-1.77-.17-2.65-.12-1.77-.17-2.65-.1-1.77-.13-2.65-.05-1.77-.05-2.65.02-1.77.05-2.65.09-1.77.14-2.65.11-1.77.16-2.65.1-1.77.14-2.65.06-1.76.08-2.64.03-1.77.04-2.65.01-1.77.01-2.65 0-1.77-.01-2.65-.02-1.77-.04-2.65-.05-1.77-.09-2.65-.09-1.77-.16-2.65-.16-1.77-.24-2.65-.18-1.76-.26-2.64c-.09-.88-.17-1.77-.25-2.65-.07-.88-.14-1.77-.2-2.65q-.06-.88-.14-2.65h-.17" class="violin" style="vector-effect:none;stroke-width:2px;stroke:green;stroke-opacity:1;fill:green;fill-opacity:.5"/><path d="M445.82 247.65h18.74m-18.74 21.62h18.74v-31.76h-18.74Zm0 0v47.5m0-79.26v-43.94" class="box" style="vector-effect:non-scaling-stroke;stroke-width:2px;stroke:green;stroke-opacity:1;fill:green;fill-opacity:.5"/></g></g></g><path d="M68 466.5h627M68 14.5h627" class="xlines-above crisp" style="fill:none;stroke-width:1px;stroke:#000;stroke-opacity:1"/><path d="M68.5 15v451m626-451v451" class="ylines-above crisp" style="fill:none;stroke-width:1px;stroke:#000;stroke-opacity:1"/><g class="xaxislayer-above"><path d="M0 467v5" class="xtick ticks crisp" style="stroke:#444;stroke-opacity:1;stroke-width:1px" transform="translate(113)"/><path d="M0 467v5" class="xtick ticks crisp" style="stroke:#444;stroke-opacity:1;stroke-width:1px" transform="translate(312.91)"/><path d="M0 467v5" class="xtick ticks crisp" style="stroke:#444;stroke-opacity:1;stroke-width:1px" transform="translate(512.82)"/><text y="491.2" class="xtick" style="font-family:&quot;Open Sans&quot;,verdana,arial,sans-serif;font-size:16px;fill:#000;fill-opacity:1;white-space:pre;opacity:1" text-anchor="middle" transform="translate(113)">CHGNet</text><text y="491.2" class="xtick" style="font-family:&quot;Open Sans&quot;,verdana,arial,sans-serif;font-size:16px;fill:#000;fill-opacity:1;white-space:pre;opacity:1" text-anchor="middle" transform="translate(312.91)">M3GNet</text><text y="491.2" class="xtick" style="font-family:&quot;Open Sans&quot;,verdana,arial,sans-serif;font-size:16px;fill:#000;fill-opacity:1;white-space:pre;opacity:1" text-anchor="middle" transform="translate(512.82)">MACE</text></g><g class="yaxislayer-above"><path d="M68 0h-5" class="ytick ticks crisp" style="stroke:#444;stroke-opacity:1;stroke-width:1px" transform="translate(0 466)"/><path d="M68 0h-5" class="ytick ticks crisp" style="stroke:#444;stroke-opacity:1;stroke-width:1px" transform="translate(0 409.63)"/><path d="M68 0h-5" class="ytick ticks crisp" style="stroke:#444;stroke-opacity:1;stroke-width:1px" transform="translate(0 353.25)"/><path d="M68 0h-5" class="ytick ticks crisp" style="stroke:#444;stroke-opacity:1;stroke-width:1px" transform="translate(0 296.88)"/><path d="M68 0h-5" class="ytick ticks crisp" style="stroke:#444;stroke-opacity:1;stroke-width:1px" transform="translate(0 240.5)"/><path d="M68 0h-5" class="ytick ticks crisp" style="stroke:#444;stroke-opacity:1;stroke-width:1px" transform="translate(0 184.13)"/><path d="M68 0h-5" class="ytick ticks crisp" style="stroke:#444;stroke-opacity:1;stroke-width:1px" transform="translate(0 127.75)"/><path d="M68 0h-5" class="ytick ticks crisp" style="stroke:#444;stroke-opacity:1;stroke-width:1px" transform="translate(0 71.38)"/><path d="M68 0h-5" class="ytick ticks crisp" style="stroke:#444;stroke-opacity:1;stroke-width:1px" transform="translate(0 15)"/><text x="59.8" y="5.6" class="ytick" style="font-family:&quot;Open Sans&quot;,verdana,arial,sans-serif;font-size:16px;fill:#000;fill-opacity:1;white-space:pre;opacity:1" text-anchor="end" transform="translate(0 466)">0.2</text><text x="59.8" y="5.6" class="ytick" style="font-family:&quot;Open Sans&quot;,verdana,arial,sans-serif;font-size:16px;fill:#000;fill-opacity:1;white-space:pre;opacity:1" text-anchor="end" transform="translate(0 409.63)">0.4</text><text x="59.8" y="5.6" class="ytick" style="font-family:&quot;Open Sans&quot;,verdana,arial,sans-serif;font-size:16px;fill:#000;fill-opacity:1;white-space:pre;opacity:1" text-anchor="end" transform="translate(0 353.25)">0.6</text><text x="59.8" y="5.6" class="ytick" style="font-family:&quot;Open Sans&quot;,verdana,arial,sans-serif;font-size:16px;fill:#000;fill-opacity:1;white-space:pre;opacity:1" text-anchor="end" transform="translate(0 296.88)">0.8</text><text x="59.8" y="5.6" class="ytick" style="font-family:&quot;Open Sans&quot;,verdana,arial,sans-serif;font-size:16px;fill:#000;fill-opacity:1;white-space:pre;opacity:1" text-anchor="end" transform="translate(0 240.5)">1</text><text x="59.8" y="5.6" class="ytick" style="font-family:&quot;Open Sans&quot;,verdana,arial,sans-serif;font-size:16px;fill:#000;fill-opacity:1;white-space:pre;opacity:1" text-anchor="end" transform="translate(0 184.13)">1.2</text><text x="59.8" y="5.6" class="ytick" style="font-family:&quot;Open Sans&quot;,verdana,arial,sans-serif;font-size:16px;fill:#000;fill-opacity:1;white-space:pre;opacity:1" text-anchor="end" transform="translate(0 127.75)">1.4</text><text x="59.8" y="5.6" class="ytick" style="font-family:&quot;Open Sans&quot;,verdana,arial,sans-serif;font-size:16px;fill:#000;fill-opacity:1;white-space:pre;opacity:1" text-anchor="end" transform="translate(0 71.38)">1.6</text><text x="59.8" y="5.6" class="ytick" style="font-family:&quot;Open Sans&quot;,verdana,arial,sans-serif;font-size:16px;fill:#000;fill-opacity:1;white-space:pre;opacity:1" text-anchor="end" transform="translate(0 15)">1.8</text></g></g></g><g class="layer-above"><g class="shapelayer"><g class="shape-group" clip-path="url(#a)" data-index="0"><path fill="none" d="M69 240.5h625" data-index="0" style="opacity:1;stroke:#2a3f5f;stroke-opacity:1;fill:#000;fill-opacity:0;stroke-dasharray:3px,3px;stroke-width:2px"/></g></g></g><g class="infolayer"><g class="g-ytitle"><text x="5.825" y="240.5" class="ytitle" style="font-family:&quot;Open Sans&quot;,verdana,arial,sans-serif;font-size:19px;fill:#000;opacity:1;font-weight:400;white-space:pre" text-anchor="middle" transform="rotate(-90 13.655 232.67)">Ω​<tspan dy=".3em" style="font-size:70%">max</tspan><tspan dy="-.21em">​</tspan>​<tspan dy="-.6em" style="font-size:70%">ML</tspan><tspan dy=".42em">​</tspan> / Ω​<tspan dy=".3em" style="font-size:70%">max</tspan><tspan dy="-.21em">​</tspan>​<tspan dy="-.6em" style="font-size:70%">DFT</tspan><tspan dy=".42em">​</tspan></text></g><g class="annotation" data-index="0" style="opacity:1"><g class="annotation-text-g"><g class="cursor-pointer"><path fill="none" d="M.5.5h138v23H.5z" class="bg" style="stroke-width:1px;stroke:#000;stroke-opacity:0;fill:#000;fill-opacity:0" transform="translate(555 272)"/><text x="69.531" y="18" class="annotation-text" style="font-family:&quot;Open Sans&quot;,verdana,arial,sans-serif;font-size:16px;fill:#000;fill-opacity:1;white-space:pre" text-anchor="middle" transform="translate(555 272)">phonons too soft</text></g></g></g><g class="annotation" data-index="1" style="opacity:1"><g class="annotation-text-g"><g class="cursor-pointer"><path fill="none" d="M.5.5h139v23H.5z" class="bg" style="stroke-width:1px;stroke:#000;stroke-opacity:0;fill:#000;fill-opacity:0" transform="translate(554 185)"/><text x="69.688" y="18" class="annotation-text" style="font-family:&quot;Open Sans&quot;,verdana,arial,sans-serif;font-size:16px;fill:#000;fill-opacity:1;white-space:pre" text-anchor="middle" transform="translate(554 185)">phonons too stiff</text></g></g></g><g class="annotation" data-index="2" style="opacity:1"><g class="annotation-text-g"><g class="cursor-pointer"><path fill="none" d="M.5.5h41v20H.5z" class="bg" style="stroke-width:1px;stroke:#000;stroke-opacity:0;fill:#000;fill-opacity:0" transform="translate(69 273)"/><text x="20.859" y="16" class="annotation-text" style="font-family:&quot;Open Sans&quot;,verdana,arial,sans-serif;font-size:14px;fill:orange;fill-opacity:1;white-space:pre" text-anchor="middle" transform="translate(69 273)"><tspan style="font-weight:700">92%</tspan></text></g></g></g><g class="annotation" data-index="3" style="opacity:1"><g class="annotation-text-g"><g class="cursor-pointer"><path fill="none" d="M.5.5h31v20H.5z" class="bg" style="stroke-width:1px;stroke:#000;stroke-opacity:0;fill:#000;fill-opacity:0" transform="translate(79 187)"/><text x="15.891" y="16" class="annotation-text" style="font-family:&quot;Open Sans&quot;,verdana,arial,sans-serif;font-size:14px;fill:orange;fill-opacity:1;white-space:pre" text-anchor="middle" transform="translate(79 187)"><tspan style="font-weight:700">8%</tspan></text></g></g></g><g class="annotation" data-index="4" style="opacity:1"><g class="annotation-text-g"><g class="cursor-pointer"><path fill="none" d="M.5.5h41v20H.5z" class="bg" style="stroke-width:1px;stroke:#000;stroke-opacity:0;fill:#000;fill-opacity:0" transform="translate(269 273)"/><text x="20.859" y="16" class="annotation-text" style="font-family:&quot;Open Sans&quot;,verdana,arial,sans-serif;font-size:14px;fill:#00f;fill-opacity:1;white-space:pre" text-anchor="middle" transform="translate(269 273)"><tspan style="font-weight:700">97%</tspan></text></g></g></g><g class="annotation" data-index="5" style="opacity:1"><g class="annotation-text-g"><g class="cursor-pointer"><path fill="none" d="M.5.5h31v20H.5z" class="bg" style="stroke-width:1px;stroke:#000;stroke-opacity:0;fill:#000;fill-opacity:0" transform="translate(279 187)"/><text x="15.891" y="16" class="annotation-text" style="font-family:&quot;Open Sans&quot;,verdana,arial,sans-serif;font-size:14px;fill:#00f;fill-opacity:1;white-space:pre" text-anchor="middle" transform="translate(279 187)"><tspan style="font-weight:700">3%</tspan></text></g></g></g><g class="annotation" data-index="6" style="opacity:1"><g class="annotation-text-g"><g class="cursor-pointer"><path fill="none" d="M.5.5h41v20H.5z" class="bg" style="stroke-width:1px;stroke:#000;stroke-opacity:0;fill:#000;fill-opacity:0" transform="translate(469 273)"/><text x="20.859" y="16" class="annotation-text" style="font-family:&quot;Open Sans&quot;,verdana,arial,sans-serif;font-size:14px;fill:green;fill-opacity:1;white-space:pre" text-anchor="middle" transform="translate(469 273)"><tspan style="font-weight:700">95%</tspan></text></g></g></g><g class="annotation" data-index="7" style="opacity:1"><g class="annotation-text-g"><g class="cursor-pointer"><path fill="none" d="M.5.5h31v20H.5z" class="bg" style="stroke-width:1px;stroke:#000;stroke-opacity:0;fill:#000;fill-opacity:0" transform="translate(479 187)"/><text x="15.891" y="16" class="annotation-text" style="font-family:&quot;Open Sans&quot;,verdana,arial,sans-serif;font-size:14px;fill:green;fill-opacity:1;white-space:pre" text-anchor="middle" transform="translate(479 187)"><tspan style="font-weight:700">5%</tspan></text></g></g></g></g></svg>