<svg xmlns="http://www.w3.org/2000/svg" width="700" height="500" class="main-svg"><path d="M0 0h700v500H0z" style="fill:#fff;fill-opacity:1"/><defs><clipPath id="b" class="plotclip"><path d="M0 0h618v460H0z"/></clipPath><clipPath id="a" class="axesclip"><path d="M0 6h700v460H0z"/></clipPath></defs><g class="layer-below"><g class="shapelayer"><g class="shape-group" clip-path="url(#a)" data-index="1"><path fill-rule="evenodd" d="M76 256.33h618v-67.68H76Z" data-index="1" style="opacity:.1;stroke:#2a3f5f;stroke-opacity:1;fill:green;fill-opacity:1;stroke-width:2px"/></g></g></g><g class="cartesianlayer"><g class="subplot xy"><g class="gridlayer"><g class="x"><path d="M0 6v460" class="xgrid crisp" style="stroke:#d3d3d3;stroke-opacity:1;stroke-width:1px" transform="translate(119.97)"/><path d="M0 6v460" class="xgrid crisp" style="stroke:#d3d3d3;stroke-opacity:1;stroke-width:1px" transform="translate(317.48)"/><path d="M0 6v460" class="xgrid crisp" style="stroke:#d3d3d3;stroke-opacity:1;stroke-width:1px" transform="translate(514.98)"/></g><g class="y"><path d="M76 0h618" class="ygrid crisp" style="stroke:#d3d3d3;stroke-opacity:1;stroke-width:1px" transform="translate(0 448.08)"/><path d="M76 0h618" class="ygrid crisp" style="stroke:#d3d3d3;stroke-opacity:1;stroke-width:1px" transform="translate(0 335.28)"/><path d="M76 0h618" class="ygrid crisp" style="stroke:#d3d3d3;stroke-opacity:1;stroke-width:1px" transform="translate(0 109.7)"/></g></g><g class="zerolinelayer"><path d="M76 0h618" class="yzl zl crisp" style="stroke:#ebf0f8;stroke-opacity:1;stroke-width:2px" transform="translate(0 222.49)"/></g><g class="plot" clip-path="url(#b)" transform="translate(76 6)"><g class="violinlayer mlayer"><g class="trace violins" style="opacity:1"><path d="M43.97 353.84h.18q.08-.66.14-.99c.06-.33.14-.66.21-.99l.24-.99c.08-.33.18-.66.25-.99s.14-.66.18-.99.07-.66.07-.99-.03-.66-.07-.99-.11-.66-.18-.99-.17-.66-.25-.99l-.24-.99c-.07-.33-.15-.66-.21-.99s-.1-.66-.14-.99q-.06-.495-.09-.99c-.02-.33-.04-.65-.05-.98s-.01-.66-.02-.99c0-.33-.01-.66-.01-.99v-14.84c0-.33.01-.66.01-.99s0-.66.01-.99.02-.66.04-.99.05-.66.08-.99c.04-.33.08-.66.13-.99s.12-.66.19-.99.16-.66.24-.99.18-.66.26-.99.15-.66.2-.99.1-.66.11-.99 0-.66-.02-.99-.07-.66-.12-.99-.12-.65-.16-.98-.08-.66-.09-.99 0-.66.04-.99.12-.66.22-.99.24-.66.37-.99.3-.66.43-.99.27-.66.36-.99.16-.66.18-.99-.01-.66-.07-.99-.18-.66-.3-.99c-.13-.33-.29-.66-.45-.99s-.34-.66-.49-.99-.3-.66-.43-.99c-.12-.33-.23-.66-.32-.99s-.15-.66-.21-.99c-.05-.33-.09-.65-.12-.98s-.04-.66-.05-.99l-.03-.99c-.01-.33-.01-.66-.01-.99v-9.9c0-.33.01-.65.01-.98.01-.33.01-.66.02-.99s.02-.66.04-.99.05-.66.08-.99c.04-.33.08-.66.13-.99s.12-.66.19-.99.16-.66.24-.99.18-.66.26-.99.15-.66.2-.99q.075-.495.09-.99c.01-.33-.01-.66-.04-.99s-.1-.66-.16-.99-.15-.66-.22-.99-.15-.66-.21-.99-.11-.66-.14-.99-.03-.65-.02-.98q.015-.495.09-.99c.05-.33.12-.66.19-.99s.16-.66.23-.99.15-.66.21-.99.11-.66.14-.99.04-.66.05-.99 0-.66.01-.99 0-.66.03-.99.08-.66.17-.99.21-.67.35-.99c.15-.34.34-.66.53-.99.2-.33.43-.66.66-.99s.49-.66.73-.99.49-.66.73-.99.47-.65.69-.98a27 27 0 0 0 1.2-1.98c.18-.33.34-.66.51-.99s.32-.66.49-.99.33-.66.51-.99c.19-.33.37-.67.6-.99.24-.34.5-.67.8-.99.32-.34.68-.67 1.07-.99.42-.34.88-.67 1.37-.99.52-.34 1.08-.67 1.65-.99.59-.34 1.21-.66 1.82-.99.62-.33 1.26-.66 1.89-.99s1.27-.66 1.9-.99c.64-.33 1.27-.66 1.91-.99s1.28-.65 1.93-.98c.66-.33 1.32-.66 1.99-.99s1.36-.66 2.04-.99 1.37-.66 2.06-.99 1.38-.66 2.08-.99c.72-.33 1.44-.67 2.2-.99.81-.34 1.63-.68 2.53-.99 1.01-.35 2.08-.68 3.25-.99 1.35-.36 2.81-.68 4.39-.99 1.83-.36 3.83-.68 5.95-.99 2.43-.36 5.07-.68 7.83-.99 3.09-.35 6.4-.67 9.82-.99 3.74-.35 7.72-.67 11.77-.99 4.32-.34 8.85-.67 13.4-.99 4.72-.34 9.62-.66 14.44-.99s9.77-.64 14.47-.98c4.46-.32 9.01-.63 13.03-.99 3.46-.31 7.1-.56 9.66-.99 1.72-.29 4.26-.61 4.28-.99.02-.3-1.45-.71-2.63-.99-2.22-.52-6.2-.69-9.89-.99-4.69-.38-10.38-.67-15.97-.99-6.17-.35-12.96-.66-19.49-.99-6.59-.33-13.46-.65-19.88-.99-6.03-.32-12.06-.64-17.53-.99-4.81-.31-9.46-.62-13.54-.99-3.37-.3-6.54-.61-9.22-.99-2.09-.3-3.99-.6-5.55-.99-1.17-.29-2.17-.61-3.01-.99-.65-.3-1.16-.64-1.65-.99-.44-.31-.78-.66-1.19-.98-.43-.33-.85-.67-1.34-.99-.53-.35-1.12-.67-1.74-.99-.67-.35-1.41-.67-2.15-.99-.77-.34-1.58-.66-2.36-.99-.77-.33-1.57-.65-2.29-.99-.67-.32-1.34-.64-1.91-.99-.5-.31-.99-.63-1.34-.99-.3-.31-.55-.64-.69-.99-.13-.32-.15-.66-.15-.99s.11-.66.15-.99.12-.66.1-.99-.08-.68-.23-.99c-.17-.35-.46-.68-.78-.99-.36-.35-.83-.67-1.29-.99-.5-.34-1.08-.65-1.62-.98s-1.12-.65-1.63-.99c-.48-.32-.97-.64-1.37-.99-.36-.31-.69-.64-.94-.99-.23-.32-.4-.65-.53-.99-.12-.32-.19-.66-.25-.99s-.08-.66-.12-.99-.07-.66-.13-.99-.14-.66-.25-.99c-.12-.34-.26-.67-.44-.99-.19-.34-.42-.67-.66-.99-.25-.34-.54-.66-.82-.99s-.58-.66-.85-.99c-.26-.33-.53-.65-.74-.99-.2-.32-.39-.65-.52-.99-.13-.32-.21-.65-.27-.98s-.06-.66-.07-.99 0-.66 0-.99 0-.66-.02-.99-.05-.66-.1-.99-.13-.66-.2-.99-.16-.66-.23-.99-.15-.66-.2-.99-.1-.66-.1-.99.01-.66.07-.99.17-.67.31-.99c.15-.34.35-.67.58-.99.24-.34.54-.67.84-.99.31-.34.66-.66.99-.99s.68-.64.97-.98c.28-.32.56-.64.74-.99.17-.32.29-.66.33-.99s-.02-.67-.1-.99c-.08-.34-.26-.66-.41-.99-.16-.33-.35-.66-.52-.99-.16-.33-.34-.66-.47-.99q-.195-.495-.33-.99a9 9 0 0 1-.2-.99 17 17 0 0 1-.12-.99c-.03-.33-.05-.66-.07-.99q-.03-.495-.03-.99c0-.33.01-.66.01-.99s.01-.66-.01-.99a8 8 0 0 0-.1-.99c-.06-.33-.14-.66-.25-.98-.11-.33-.25-.66-.4-.99s-.35-.66-.52-.99c-.18-.33-.36-.66-.53-.99-.16-.33-.32-.66-.46-.99-.13-.33-.25-.66-.35-.99a11.7 11.7 0 0 1-.35-1.98c-.03-.33-.05-.66-.07-.99s-.02-.66-.03-.99-.01-.66-.01-.99v-19.78c0-.33.01-.66.01-.99.01-.33.01-.66.02-.99s.02-.66.04-.99.04-.66.07-.99c.04-.33.09-.66.14-.99.06-.33.12-.66.19-.99s.16-.66.24-.99.17-.66.25-.99.16-.66.21-.99q.075-.495.09-.99a8.2 8.2 0 0 0-.2-1.98c-.07-.33-.16-.66-.24-.99s-.17-.66-.24-.99-.14-.65-.19-.98-.08-.66-.1-.99-.03-.66-.01-.99.06-.66.11-.99q.075-.495.18-.99c.07-.33.16-.66.24-.99s.17-.66.24-.99.14-.66.17-.99.05-.66.04-.99q-.015-.495-.09-.99c-.05-.33-.12-.66-.19-.99s-.16-.66-.23-.99-.15-.66-.21-.99a8.4 8.4 0 0 1-.14-1.98c.02-.33.05-.65.1-.98s.12-.66.19-.99.16-.66.24-.99c.07-.33.16-.66.21-.99s.09-.66.11-.99.02-.66-.01-.99-.09-.66-.15-.99-.15-.66-.23-.99-.17-.66-.25-.99-.15-.66-.22-.99c-.06-.33-.12-.66-.17-.99s-.08-.66-.11-.99-.04-.66-.06-.99l-.03-.99c-.01-.33-.02-.66-.02-.99V61c0-.33.01-.66.01-.99.01-.33.01-.66.02-.99s.03-.66.05-.99q.03-.495.09-.99c.04-.33.08-.66.14-.99s.14-.66.21-.99l.24-.99c.08-.33.18-.66.25-.99s.14-.66.18-.99.07-.66.07-.99-.03-.66-.07-.99-.11-.66-.18-.99-.17-.66-.25-.99l-.24-.99c-.07-.33-.15-.65-.21-.98q-.06-.33-.14-.99h-.18" class="violin" style="vector-effect:none;stroke-width:2px;stroke:orange;stroke-opacity:1;fill:orange;fill-opacity:.5"/><path d="M45.97 219.32h18.52m-18.52 5.37h18.52v-9.14H45.97Zm0 0v13.58m0-22.72v-12.68" class="box" style="vector-effect:non-scaling-stroke;stroke-width:2px;stroke:orange;stroke-opacity:1;fill:orange;fill-opacity:.5"/></g><g class="trace violins" style="opacity:1"><path d="M241.48 437h.14q.08-.79.13-1.19.075-.6.18-1.2c.06-.4.14-.79.21-1.19s.16-.8.22-1.2.12-.79.16-1.19a12 12 0 0 0 0-2.39c-.04-.4-.1-.8-.16-1.2s-.15-.79-.22-1.19l-.21-1.2c-.06-.4-.13-.79-.18-1.19s-.1-.8-.13-1.2-.05-.79-.07-1.19-.03-.8-.04-1.2-.01-.79-.02-1.19c0-.4-.01-.79-.01-1.19v-17.92c0-.4 0-.8.01-1.2 0-.4.01-.79.02-1.19s.03-.8.05-1.2.05-.79.09-1.19.08-.8.14-1.2c.05-.4.12-.79.19-1.19s.15-.8.22-1.2.15-.79.21-1.19.1-.8.13-1.2.04-.79.03-1.19-.05-.8-.09-1.2c-.05-.4-.12-.79-.18-1.19l-.21-1.2c-.07-.4-.15-.79-.21-1.19s-.12-.79-.17-1.19-.08-.8-.11-1.2-.05-.79-.07-1.19-.02-.8-.03-1.2-.02-.79-.02-1.19V347.4c0-.4.01-.79.01-1.19.01-.4.01-.8.02-1.2s.03-.79.05-1.19q.03-.6.09-1.2c.04-.4.09-.79.14-1.19q.075-.6.18-1.2c.07-.4.15-.79.22-1.19s.15-.8.21-1.2.11-.79.14-1.19q.045-.6.03-1.2c-.01-.4-.04-.79-.08-1.19s-.11-.8-.18-1.2c-.06-.4-.14-.79-.21-1.19s-.14-.8-.2-1.2c-.05-.4-.1-.79-.13-1.19s-.06-.79-.06-1.19.01-.8.04-1.2c.02-.4.06-.79.11-1.19s.12-.8.19-1.2l.21-1.19c.07-.4.14-.8.19-1.2s.09-.79.11-1.19q.03-.6 0-1.2c-.02-.4-.07-.79-.12-1.19s-.12-.8-.19-1.2-.15-.79-.22-1.19-.14-.8-.2-1.2-.11-.79-.15-1.19-.07-.8-.1-1.2-.05-.79-.06-1.19-.02-.79-.02-1.19c-.01-.4-.01-.8-.01-1.2s.01-.79.02-1.19.02-.8.04-1.2.05-.79.08-1.19c.04-.4.08-.8.13-1.2s.12-.79.18-1.19l.21-1.2c.07-.4.16-.79.22-1.19q.09-.6.15-1.2c.03-.4.06-.79.06-1.19s-.03-.8-.07-1.2-.1-.79-.16-1.19-.15-.8-.22-1.2-.15-.79-.21-1.19-.12-.79-.17-1.19q-.075-.6-.12-1.2c-.03-.4-.06-.79-.07-1.19s-.02-.8-.01-1.2.02-.79.04-1.19a16 16 0 0 1 .29-2.39c.08-.4.17-.8.28-1.2s.24-.79.37-1.19.28-.8.42-1.2c.13-.4.27-.79.39-1.19s.23-.8.31-1.2.13-.79.17-1.19.05-.8.07-1.2.01-.79.04-1.19.05-.79.12-1.19.16-.81.3-1.2c.14-.4.32-.8.53-1.19.21-.41.48-.8.74-1.2.27-.4.57-.79.84-1.19s.56-.79.79-1.2c.21-.39.43-.78.54-1.19.11-.39.17-.8.14-1.2s-.17-.8-.34-1.19c-.18-.41-.47-.81-.75-1.2-.29-.41-.66-.79-.99-1.19s-.68-.79-.97-1.2c-.27-.39-.54-.78-.73-1.19-.18-.39-.32-.8-.39-1.2-.07-.39-.06-.8-.03-1.19.03-.4.13-.8.23-1.19.1-.4.24-.8.38-1.2s.3-.79.46-1.19.33-.8.52-1.2.4-.8.62-1.19c.23-.4.48-.8.74-1.2s.54-.79.81-1.19.55-.8.79-1.2c.24-.39.46-.79.65-1.19.18-.39.34-.8.47-1.2.13-.39.21-.79.32-1.19s.18-.81.33-1.2c.15-.4.33-.81.58-1.19.27-.42.61-.82 1-1.2.44-.42.97-.81 1.53-1.19.62-.42 1.33-.81 2.06-1.19.78-.41 1.62-.81 2.48-1.2.9-.41 1.84-.8 2.8-1.19a109 109 0 0 1 6.44-2.39c1.19-.41 2.42-.81 3.67-1.2 1.29-.41 2.63-.8 3.97-1.19a312 312 0 0 1 8.64-2.39c1.53-.4 3.06-.81 4.66-1.2 1.68-.41 3.37-.81 5.19-1.19 2.02-.42 4.11-.83 6.4-1.2 2.64-.43 5.48-.82 8.55-1.19 3.56-.43 7.48-.82 11.58-1.2 4.64-.43 9.73-.81 14.86-1.19 5.52-.41 11.46-.79 17.18-1.19 5.71-.4 11.74-.78 17.13-1.2 4.83-.38 9.92-.7 13.74-1.19 2.76-.35 6.92-.56 7.09-1.2.09-.33-.71-.86-1.49-1.19-1.79-.75-6.16-.84-9.84-1.2-4.69-.46-10.44-.81-16.01-1.19-6.06-.42-12.67-.8-19.01-1.2-6.35-.4-12.88-.78-19.06-1.19-5.86-.39-11.66-.78-17.1-1.2-4.96-.38-9.77-.76-14.22-1.19-3.96-.38-7.74-.77-11.19-1.2-2.99-.37-5.81-.75-8.35-1.19-2.14-.37-4.14-.75-5.89-1.2-1.43-.37-2.74-.74-3.85-1.19-.9-.36-1.69-.75-2.37-1.19-.58-.37-1.04-.79-1.51-1.2-.44-.39-.79-.8-1.21-1.19-.43-.4-.86-.81-1.34-1.2-.51-.41-1.07-.8-1.65-1.19-.61-.41-1.26-.8-1.91-1.2s-1.34-.79-1.99-1.19c-.63-.39-1.26-.79-1.83-1.2-.53-.39-1.05-.77-1.49-1.19-.4-.38-.77-.78-1.06-1.2-.26-.38-.47-.78-.62-1.19-.14-.39-.22-.8-.26-1.2s0-.79.04-1.19.14-.8.23-1.2c.1-.4.23-.79.34-1.19s.24-.79.33-1.19.18-.8.2-1.2.02-.8-.05-1.19c-.07-.4-.2-.81-.37-1.2-.18-.41-.43-.8-.68-1.19-.26-.41-.57-.8-.87-1.2s-.63-.79-.91-1.19c-.28-.39-.55-.79-.77-1.2-.21-.39-.4-.79-.52-1.19-.12-.39-.19-.8-.22-1.2s0-.79.04-1.19.12-.8.19-1.2c.06-.4.15-.79.2-1.19s.1-.8.1-1.2-.02-.79-.07-1.19-.14-.79-.23-1.19-.2-.8-.3-1.2c-.09-.4-.2-.79-.27-1.19s-.13-.8-.15-1.2-.02-.79.01-1.19.09-.8.16-1.2.17-.79.25-1.19.17-.8.24-1.2c.06-.4.12-.79.15-1.19s.04-.8.02-1.2-.07-.79-.13-1.19-.15-.8-.24-1.2c-.08-.4-.19-.79-.27-1.19s-.17-.8-.23-1.2-.11-.79-.14-1.19-.03-.79-.02-1.19.04-.8.07-1.2.07-.79.09-1.19.04-.8.04-1.2-.02-.79-.05-1.19-.09-.8-.15-1.2-.14-.79-.21-1.19-.15-.8-.22-1.2-.14-.79-.19-1.19c-.06-.4-.1-.8-.14-1.2s-.07-.79-.09-1.19-.04-.8-.05-1.2-.02-.79-.02-1.19c-.01-.4-.01-.8-.01-1.2v-7.16c0-.4 0-.8.01-1.2 0-.4.01-.79.02-1.19s.03-.8.05-1.2.05-.79.09-1.19q.075-.6.18-1.2c.07-.4.16-.79.26-1.19s.23-.8.36-1.2.28-.79.42-1.19c.13-.4.28-.8.39-1.2s.22-.79.28-1.19c.06-.39.09-.79.08-1.19s-.06-.8-.14-1.2-.2-.79-.32-1.19-.26-.8-.4-1.2c-.13-.4-.28-.79-.41-1.19-.12-.4-.24-.8-.34-1.2s-.17-.79-.24-1.19q-.09-.6-.15-1.2c-.04-.4-.05-.79-.07-1.19q-.03-.6-.03-1.2c0-.4 0-.79.01-1.19s.03-.8.05-1.2a24 24 0 0 1 .24-2.39c.06-.4.13-.79.2-1.19s.15-.79.22-1.19.15-.8.2-1.2.1-.79.12-1.19.03-.8.01-1.2-.06-.79-.11-1.19-.12-.8-.19-1.2-.15-.79-.22-1.19-.15-.8-.21-1.2-.11-.79-.15-1.19-.07-.8-.1-1.2-.05-.79-.06-1.19-.02-.8-.02-1.2-.01-.79 0-1.19.02-.8.04-1.2.04-.79.07-1.19.08-.79.13-1.19q.075-.6.18-1.2c.06-.4.14-.79.21-1.19s.16-.8.22-1.2.12-.79.16-1.19a12 12 0 0 0 0-2.39c-.04-.4-.1-.8-.16-1.2s-.15-.79-.22-1.19l-.21-1.2c-.06-.4-.13-.79-.18-1.19q-.05-.4-.13-1.2h-.14" class="violin" style="vector-effect:none;stroke-width:2px;stroke:#00f;stroke-opacity:1;fill:#00f;fill-opacity:.5"/><path d="M243.48 216.75h18.51m-18.51 8.46h18.51v-12.03h-18.51Zm0 0v17.99m0-30.02v-17.6" class="box" style="vector-effect:non-scaling-stroke;stroke-width:2px;stroke:#00f;stroke-opacity:1;fill:#00f;fill-opacity:.5"/></g><g class="trace violins" style="opacity:1"><path d="M438.98 371.19h.12q.06-.74.1-1.11c.04-.37.1-.75.15-1.12s.11-.75.17-1.12.13-.74.18-1.11.1-.75.13-1.12.05-.74.05-1.11-.02-.75-.05-1.12-.08-.75-.13-1.12-.12-.74-.18-1.11-.12-.75-.17-1.12-.11-.74-.15-1.11-.07-.75-.1-1.12-.05-.75-.07-1.12-.02-.74-.03-1.11-.01-.75-.01-1.12-.01-.74-.01-1.11v-69.2c0-.37.01-.74.01-1.11.01-.37.01-.75.02-1.12s.01-.74.03-1.11.04-.75.07-1.12.06-.75.11-1.12c.04-.37.1-.74.16-1.11l.18-1.12c.06-.37.12-.74.17-1.11a14 14 0 0 0 .15-2.24c-.01-.37-.04-.74-.07-1.11s-.08-.75-.13-1.12-.12-.74-.17-1.11-.11-.75-.15-1.12-.08-.75-.09-1.12-.02-.74 0-1.11a10.6 10.6 0 0 1 .34-2.23c.1-.37.21-.75.35-1.12.14-.38.31-.75.48-1.12s.37-.74.56-1.11.41-.75.6-1.12.39-.73.55-1.11c.16-.37.3-.74.4-1.12.09-.37.17-.75.18-1.12a5.2 5.2 0 0 0-.09-1.11c-.07-.38-.2-.75-.33-1.12s-.31-.74-.47-1.11-.35-.74-.51-1.12c-.16-.37-.32-.74-.45-1.12-.13-.37-.23-.74-.32-1.11s-.15-.75-.21-1.12-.09-.74-.13-1.11-.07-.75-.1-1.12a42 42 0 0 1-.13-2.23c-.01-.37 0-.75.02-1.12q.03-.555.12-1.11a9 9 0 0 1 .64-2.24c.17-.38.36-.75.59-1.11.25-.38.54-.76.87-1.12.36-.39.78-.75 1.24-1.11.51-.39 1.08-.76 1.68-1.12.65-.39 1.36-.76 2.07-1.12.74-.38 1.53-.74 2.29-1.11s1.54-.74 2.28-1.12c.7-.36 1.4-.73 2.04-1.11.61-.36 1.17-.74 1.72-1.12.53-.37 1-.76 1.54-1.12.56-.38 1.09-.76 1.75-1.11.77-.41 1.62-.78 2.63-1.12 1.27-.43 2.75-.77 4.43-1.11 2.15-.43 4.67-.78 7.44-1.12 3.47-.43 7.48-.78 11.75-1.12 5.12-.41 10.91-.76 16.89-1.11 6.76-.4 14.22-.76 21.6-1.12 7.75-.38 16.08-.73 23.84-1.11 7.4-.36 15.2-.7 21.7-1.12 5.31-.34 11.31-.51 14.47-1.12 1.59-.31 3.54-.79 3.51-1.11-.04-.48-4.91-.79-8.12-1.12-4.64-.47-11.07-.76-17.08-1.11-6.7-.39-14.23-.74-21.27-1.12-6.93-.37-14.11-.73-20.63-1.12-5.88-.35-11.66-.7-16.76-1.11-4.29-.34-8.33-.7-11.83-1.12-2.8-.34-5.32-.69-7.53-1.11a53 53 0 0 1-4.7-1.12c-1.21-.35-2.25-.74-3.33-1.12-1.02-.36-1.97-.74-2.97-1.11-1.03-.38-2.06-.76-3.13-1.12-1.11-.38-2.26-.74-3.41-1.11-1.18-.38-2.39-.75-3.59-1.12s-2.43-.74-3.61-1.12c-1.15-.37-2.31-.73-3.41-1.11-1.05-.36-2.1-.73-3.07-1.12-.9-.36-1.78-.72-2.56-1.11-.7-.35-1.39-.71-1.94-1.12-.48-.35-.93-.72-1.23-1.12-.25-.35-.45-.73-.51-1.11-.05-.36.03-.76.15-1.12.13-.38.39-.75.63-1.11.25-.38.57-.74.84-1.12.27-.37.56-.74.78-1.12.2-.36.41-.73.5-1.11.09-.36.12-.75.06-1.12-.06-.38-.22-.75-.42-1.11-.22-.39-.55-.76-.88-1.12-.36-.39-.8-.76-1.23-1.12-.45-.38-.95-.74-1.43-1.11s-.99-.74-1.46-1.12c-.46-.37-.93-.73-1.35-1.11-.4-.36-.8-.73-1.14-1.12-.32-.36-.62-.74-.87-1.12-.23-.36-.44-.73-.59-1.11a5.5 5.5 0 0 1-.4-2.23c.01-.37.06-.75.13-1.12.07-.38.18-.75.3-1.12s.27-.74.41-1.11.3-.75.44-1.12.27-.74.38-1.11c.1-.37.2-.74.25-1.12.05-.37.07-.75.06-1.12s-.06-.74-.1-1.11c-.05-.37-.11-.75-.17-1.12s-.13-.74-.17-1.11c-.05-.37-.08-.75-.1-1.12s-.02-.75-.03-1.12 0-.74-.02-1.11-.04-.75-.09-1.12-.12-.74-.2-1.11-.19-.75-.3-1.12-.23-.75-.35-1.12-.24-.74-.35-1.11c-.1-.37-.2-.75-.28-1.12s-.15-.74-.2-1.11-.09-.75-.12-1.12-.05-.75-.07-1.12-.02-.74-.03-1.11-.02-.75-.02-1.12v-27.9c0-.37.01-.74.01-1.11.01-.37.01-.75.02-1.12s.02-.75.04-1.12.05-.74.08-1.11.07-.75.12-1.12.1-.74.16-1.11l.18-1.12c.06-.37.11-.75.16-1.12.04-.37.09-.74.11-1.11s.03-.75.02-1.12-.04-.74-.08-1.11-.1-.75-.16-1.12l-.18-1.12c-.06-.37-.12-.74-.17-1.11s-.09-.75-.13-1.12q-.06-.555-.09-1.11c-.02-.37-.04-.75-.05-1.12l-.03-1.12c-.01-.37-.01-.74-.01-1.11V82.15c0-.37 0-.75.01-1.12 0-.37.01-.74.02-1.11s.03-.75.05-1.12.04-.75.07-1.12q.045-.555.12-1.11c.05-.37.11-.75.17-1.12l.18-1.11a22 22 0 0 0 .26-2.24 14 14 0 0 0-.07-2.23c-.04-.37-.1-.74-.16-1.11l-.18-1.12c-.06-.37-.12-.75-.17-1.12s-.1-.74-.13-1.11c-.04-.37-.06-.75-.08-1.12s-.04-.74-.05-1.11l-.03-1.12c-.01-.37-.01-.75-.01-1.12V40.86c0-.37.01-.75.01-1.12s0-.75.01-1.12.01-.74.03-1.11.04-.75.07-1.12.06-.74.1-1.11.1-.75.15-1.12.11-.75.17-1.12.13-.74.18-1.11.1-.75.13-1.12.05-.74.05-1.11-.02-.75-.05-1.12-.08-.75-.13-1.12-.12-.74-.18-1.11-.12-.75-.17-1.12-.11-.74-.15-1.11q-.04-.37-.1-1.12h-.12" class="violin" style="vector-effect:none;stroke-width:2px;stroke:green;stroke-opacity:1;fill:green;fill-opacity:.5"/><path d="M440.98 215.85h18.51m-18.51 1h18.51v-7.15h-18.51Zm0 0v10.56m0-17.71v-10.69" class="box" style="vector-effect:non-scaling-stroke;stroke-width:2px;stroke:green;stroke-opacity:1;fill:green;fill-opacity:.5"/></g></g></g><path d="M75 466.5h620M75 5.5h620" class="xlines-above crisp" style="fill:none;stroke-width:1px;stroke:#000;stroke-opacity:1"/><path d="M75.5 6v460m619-460v460" class="ylines-above crisp" style="fill:none;stroke-width:1px;stroke:#000;stroke-opacity:1"/><g class="xaxislayer-above"><path d="M0 467v5" class="xtick ticks crisp" style="stroke:#444;stroke-opacity:1;stroke-width:1px" transform="translate(119.97)"/><path d="M0 467v5" class="xtick ticks crisp" style="stroke:#444;stroke-opacity:1;stroke-width:1px" transform="translate(317.48)"/><path d="M0 467v5" class="xtick ticks crisp" style="stroke:#444;stroke-opacity:1;stroke-width:1px" transform="translate(514.98)"/><text y="491.2" class="xtick" style="font-family:&quot;Open Sans&quot;,verdana,arial,sans-serif;font-size:16px;fill:#000;fill-opacity:1;white-space:pre;opacity:1" text-anchor="middle" transform="translate(119.97)">CHGNet</text><text y="491.2" class="xtick" style="font-family:&quot;Open Sans&quot;,verdana,arial,sans-serif;font-size:16px;fill:#000;fill-opacity:1;white-space:pre;opacity:1" text-anchor="middle" transform="translate(317.48)">M3GNet</text><text y="491.2" class="xtick" style="font-family:&quot;Open Sans&quot;,verdana,arial,sans-serif;font-size:16px;fill:#000;fill-opacity:1;white-space:pre;opacity:1" text-anchor="middle" transform="translate(514.98)">MACE</text></g><g class="yaxislayer-above"><path d="M75 0h-5" class="ytick ticks crisp" style="stroke:#444;stroke-opacity:1;stroke-width:1px" transform="translate(0 448.08)"/><path d="M75 0h-5" class="ytick ticks crisp" style="stroke:#444;stroke-opacity:1;stroke-width:1px" transform="translate(0 335.28)"/><path d="M75 0h-5" class="ytick ticks crisp" style="stroke:#444;stroke-opacity:1;stroke-width:1px" transform="translate(0 222.49)"/><path d="M75 0h-5" class="ytick ticks crisp" style="stroke:#444;stroke-opacity:1;stroke-width:1px" transform="translate(0 109.7)"/><text x="66.8" y="5.6" class="ytick" style="font-family:&quot;Open Sans&quot;,verdana,arial,sans-serif;font-size:16px;fill:#000;fill-opacity:1;white-space:pre;opacity:1" text-anchor="end" transform="translate(0 448.08)">−10</text><text x="66.8" y="5.6" class="ytick" style="font-family:&quot;Open Sans&quot;,verdana,arial,sans-serif;font-size:16px;fill:#000;fill-opacity:1;white-space:pre;opacity:1" text-anchor="end" transform="translate(0 335.28)">−5</text><text x="66.8" y="5.6" class="ytick" style="font-family:&quot;Open Sans&quot;,verdana,arial,sans-serif;font-size:16px;fill:#000;fill-opacity:1;white-space:pre;opacity:1" text-anchor="end" transform="translate(0 222.49)">0</text><text x="66.8" y="5.6" class="ytick" style="font-family:&quot;Open Sans&quot;,verdana,arial,sans-serif;font-size:16px;fill:#000;fill-opacity:1;white-space:pre;opacity:1" text-anchor="end" transform="translate(0 109.7)">5</text></g></g></g><g class="layer-above"><g class="shapelayer"><g class="shape-group" clip-path="url(#a)" data-index="0"><path fill="none" d="M76 222.49h618" data-index="0" style="opacity:1;stroke:#2a3f5f;stroke-opacity:1;fill:#000;fill-opacity:0;stroke-dasharray:3px,3px;stroke-width:2px"/></g></g></g><g class="infolayer"><g class="g-ytitle"><text x="5.559" y="236" class="ytitle" style="font-family:&quot;Open Sans&quot;,verdana,arial,sans-serif;font-size:19px;fill:#000;opacity:1;font-weight:400;white-space:pre" text-anchor="middle" transform="rotate(-90 12.28 229.28)">Ω​<tspan dy=".3em" style="font-size:70%">min</tspan><tspan dy="-.21em">​</tspan> (THz)</text></g><g class="annotation" data-index="0" style="opacity:1"><g class="annotation-text-g"><g class="cursor-pointer"><path fill="none" d="M.5.5h138v23H.5z" class="bg" style="stroke-width:1px;stroke:#000;stroke-opacity:0;fill:#000;fill-opacity:0" transform="translate(555 259)"/><text x="69.531" y="18" class="annotation-text" style="font-family:&quot;Open Sans&quot;,verdana,arial,sans-serif;font-size:16px;fill:#000;fill-opacity:1;white-space:pre" text-anchor="middle" transform="translate(555 259)">phonons too soft</text></g></g></g><g class="annotation" data-index="1" style="opacity:1"><g class="annotation-text-g"><g class="cursor-pointer"><path fill="none" d="M.5.5h139v23H.5z" class="bg" style="stroke-width:1px;stroke:#000;stroke-opacity:0;fill:#000;fill-opacity:0" transform="translate(554 162)"/><text x="69.688" y="18" class="annotation-text" style="font-family:&quot;Open Sans&quot;,verdana,arial,sans-serif;font-size:16px;fill:#000;fill-opacity:1;white-space:pre" text-anchor="middle" transform="translate(554 162)">phonons too stiff</text></g></g></g><g class="annotation" data-index="2" style="opacity:1"><g class="annotation-text-g"><g class="cursor-pointer"><path fill="none" d="M.5.5h41v20H.5z" class="bg" style="stroke-width:1px;stroke:#000;stroke-opacity:0;fill:#000;fill-opacity:0" transform="translate(76 261)"/><text x="20.859" y="16" class="annotation-text" style="font-family:&quot;Open Sans&quot;,verdana,arial,sans-serif;font-size:14px;fill:orange;fill-opacity:1;white-space:pre" text-anchor="middle" transform="translate(76 261)"><tspan style="font-weight:700">72%</tspan></text></g></g></g><g class="annotation" data-index="3" style="opacity:1"><g class="annotation-text-g"><g class="cursor-pointer"><path fill="none" d="M.5.5h41v20H.5z" class="bg" style="stroke-width:1px;stroke:#000;stroke-opacity:0;fill:#000;fill-opacity:0" transform="translate(76 163)"/><text x="20.859" y="16" class="annotation-text" style="font-family:&quot;Open Sans&quot;,verdana,arial,sans-serif;font-size:14px;fill:orange;fill-opacity:1;white-space:pre" text-anchor="middle" transform="translate(76 163)"><tspan style="font-weight:700">28%</tspan></text></g></g></g><g class="annotation" data-index="4" style="opacity:1"><g class="annotation-text-g"><g class="cursor-pointer"><path fill="none" d="M.5.5h41v20H.5z" class="bg" style="stroke-width:1px;stroke:#000;stroke-opacity:0;fill:#000;fill-opacity:0" transform="translate(274 261)"/><text x="20.859" y="16" class="annotation-text" style="font-family:&quot;Open Sans&quot;,verdana,arial,sans-serif;font-size:14px;fill:#00f;fill-opacity:1;white-space:pre" text-anchor="middle" transform="translate(274 261)"><tspan style="font-weight:700">62%</tspan></text></g></g></g><g class="annotation" data-index="5" style="opacity:1"><g class="annotation-text-g"><g class="cursor-pointer"><path fill="none" d="M.5.5h41v20H.5z" class="bg" style="stroke-width:1px;stroke:#000;stroke-opacity:0;fill:#000;fill-opacity:0" transform="translate(274 163)"/><text x="20.859" y="16" class="annotation-text" style="font-family:&quot;Open Sans&quot;,verdana,arial,sans-serif;font-size:14px;fill:#00f;fill-opacity:1;white-space:pre" text-anchor="middle" transform="translate(274 163)"><tspan style="font-weight:700">38%</tspan></text></g></g></g><g class="annotation" data-index="6" style="opacity:1"><g class="annotation-text-g"><g class="cursor-pointer"><path fill="none" d="M.5.5h41v20H.5z" class="bg" style="stroke-width:1px;stroke:#000;stroke-opacity:0;fill:#000;fill-opacity:0" transform="translate(471 261)"/><text x="20.859" y="16" class="annotation-text" style="font-family:&quot;Open Sans&quot;,verdana,arial,sans-serif;font-size:14px;fill:green;fill-opacity:1;white-space:pre" text-anchor="middle" transform="translate(471 261)"><tspan style="font-weight:700">46%</tspan></text></g></g></g><g class="annotation" data-index="7" style="opacity:1"><g class="annotation-text-g"><g class="cursor-pointer"><path fill="none" d="M.5.5h41v20H.5z" class="bg" style="stroke-width:1px;stroke:#000;stroke-opacity:0;fill:#000;fill-opacity:0" transform="translate(471 163)"/><text x="20.859" y="16" class="annotation-text" style="font-family:&quot;Open Sans&quot;,verdana,arial,sans-serif;font-size:14px;fill:green;fill-opacity:1;white-space:pre" text-anchor="middle" transform="translate(471 163)"><tspan style="font-weight:700">54%</tspan></text></g></g></g></g></svg>