<svg xmlns="http://www.w3.org/2000/svg" width="700" height="500" class="main-svg"><path d="M0 0h700v500H0z" style="fill:#fff;fill-opacity:1"/><defs><clipPath id="b" class="plotclip"><path d="M0 0h646v460H0z"/></clipPath><clipPath id="a" class="axesclip"><path d="M0 6h700v460H0z"/></clipPath></defs><g class="layer-below"><g class="shapelayer"><g class="shape-group" clip-path="url(#a)" data-index="0"><path fill-rule="evenodd" d="M48 203.49h646v-2.08H48Z" data-index="0" style="opacity:.1;stroke:#2a3f5f;stroke-opacity:1;fill:green;fill-opacity:1;stroke-width:2px"/></g><g class="shape-group" clip-path="url(#a)" data-index="1"><path fill="none" d="M48 202.45h646" data-index="1" style="opacity:1;stroke:gray;stroke-opacity:1;fill:#000;fill-opacity:0;stroke-dasharray:3px,3px;stroke-width:2px"/></g></g></g><g class="cartesianlayer"><g class="subplot xy"><g class="gridlayer"><g class="x"><path d="M0 6v460" class="xgrid crisp" style="stroke:#d3d3d3;stroke-opacity:1;stroke-width:1px" transform="translate(163.36)"/><path d="M0 6v460" class="xgrid crisp" style="stroke:#d3d3d3;stroke-opacity:1;stroke-width:1px" transform="translate(371)"/><path d="M0 6v460" class="xgrid crisp" style="stroke:#d3d3d3;stroke-opacity:1;stroke-width:1px" transform="translate(578.64)"/></g><g class="y"><path d="M48 0h646" class="ygrid crisp" style="stroke:#d3d3d3;stroke-opacity:1;stroke-width:1px" transform="translate(0 420.02)"/><path d="M48 0h646" class="ygrid crisp" style="stroke:#d3d3d3;stroke-opacity:1;stroke-width:1px" transform="translate(0 368.22)"/><path d="M48 0h646" class="ygrid crisp" style="stroke:#d3d3d3;stroke-opacity:1;stroke-width:1px" transform="translate(0 316.42)"/><path d="M48 0h646" class="ygrid crisp" style="stroke:#d3d3d3;stroke-opacity:1;stroke-width:1px" transform="translate(0 264.61)"/><path d="M48 0h646" class="ygrid crisp" style="stroke:#d3d3d3;stroke-opacity:1;stroke-width:1px" transform="translate(0 161.01)"/><path d="M48 0h646" class="ygrid crisp" style="stroke:#d3d3d3;stroke-opacity:1;stroke-width:1px" transform="translate(0 109.2)"/><path d="M48 0h646" class="ygrid crisp" style="stroke:#d3d3d3;stroke-opacity:1;stroke-width:1px" transform="translate(0 57.4)"/></g></g><g class="zerolinelayer"><path d="M48 0h646" class="yzl zl crisp" style="stroke:#ebf0f8;stroke-opacity:1;stroke-width:2px" transform="translate(0 212.81)"/></g><g class="plot" clip-path="url(#b)" transform="translate(48 6)"><g class="violinlayer mlayer"><g class="trace violins" style="opacity:1"><path d="M115.46 399.92q.05-1.03.09-1.55c.04-.52.08-1.04.13-1.56l.15-1.55.15-1.55c.04-.52.09-1.03.12-1.55s.04-1.03.04-1.55-.01-1.03-.04-1.55-.08-1.03-.12-1.55l-.15-1.55-.15-1.56c-.05-.52-.09-1.03-.13-1.55s-.07-1.03-.09-1.55-.04-1.03-.05-1.55l-.03-1.55c-.01-.52-.01-1.03-.01-1.55s-.01-1.03-.01-1.55v-37.23c0-.52.01-1.03.01-1.55.01-.52.01-1.04.02-1.56s.02-1.03.04-1.55.05-1.03.08-1.55.07-1.03.11-1.55a81 81 0 0 1 .35-3.1l.21-1.55c.06-.52.13-1.03.18-1.55s.1-1.04.14-1.56.07-1.03.08-1.55a40 40 0 0 0-.06-3.1c-.03-.52-.08-1.03-.13-1.55s-.11-1.03-.17-1.55-.14-1.03-.21-1.55-.13-1.03-.19-1.55-.12-1.04-.17-1.56-.09-1.03-.12-1.55-.06-1.03-.08-1.55-.03-1.03-.04-1.55-.01-1.03 0-1.55.02-1.03.04-1.55a27 27 0 0 1 .29-3.1q.12-.78.3-1.56c.12-.52.25-1.04.4-1.55.15-.52.32-1.03.48-1.55.15-.52.32-1.03.45-1.55.13-.51.26-1.03.34-1.55.08-.51.14-1.03.16-1.55s.01-1.03-.01-1.55-.08-1.03-.11-1.55-.08-1.03-.09-1.55-.02-1.04.01-1.56.08-1.03.14-1.55c.07-.52.16-1.03.25-1.55l.27-1.55c.09-.52.19-1.03.28-1.55s.18-1.03.28-1.55c.11-.52.21-1.04.35-1.55.14-.52.3-1.04.5-1.55.2-.52.44-1.05.7-1.56.27-.53.59-1.04.91-1.55.33-.52.69-1.03 1.03-1.55s.71-1.03 1.02-1.55c.31-.51.61-1.02.85-1.55.23-.51.42-1.03.56-1.55.13-.51.21-1.03.26-1.55.05-.51.04-1.03.04-1.55s-.04-1.04-.04-1.56-.01-1.03.04-1.55.12-1.04.24-1.55c.12-.52.29-1.04.5-1.55.22-.53.49-1.04.8-1.55.32-.53.69-1.05 1.1-1.55.43-.53.92-1.05 1.45-1.55.57-.54 1.19-1.05 1.87-1.55.73-.54 1.53-1.06 2.38-1.56.93-.54 1.94-1.05 3-1.55 1.14-.54 2.37-1.05 3.62-1.55 1.33-.53 2.72-1.04 4.13-1.55 1.45-.53 2.96-1.04 4.45-1.55 1.5-.52 3.03-1.03 4.54-1.55 1.49-.51 2.98-1.03 4.46-1.55 1.47-.51 2.92-1.03 4.39-1.55 1.49-.52 2.96-1.05 4.48-1.56 1.57-.53 3.16-1.04 4.79-1.55 1.7-.53 3.45-1.04 5.21-1.55 1.81-.52 3.68-1.03 5.51-1.55 1.81-.51 3.67-1.02 5.42-1.55 1.66-.5 3.33-1 4.82-1.55 1.32-.49 2.65-.97 3.68-1.55.84-.47 1.75-.95 2.14-1.55.3-.47.47-1.08.32-1.56-.18-.57-.93-1.09-1.64-1.55-.94-.61-2.3-1.07-3.68-1.55-1.67-.58-3.65-1.06-5.68-1.55-2.29-.55-4.83-1.05-7.39-1.55-2.76-.54-5.7-1.04-8.62-1.55-3-.52-6.11-1.03-9.13-1.55-2.97-.51-5.98-1.02-8.85-1.55-2.73-.51-5.43-1.02-7.96-1.56-2.33-.5-4.58-1-6.67-1.55-1.88-.49-3.67-1-5.31-1.55-1.46-.49-2.83-1-4.08-1.55-1.1-.49-2.13-1-3.05-1.55-.82-.49-1.57-1-2.22-1.55-.58-.49-1.11-1.01-1.52-1.55-.37-.49-.68-1.02-.89-1.55-.2-.51-.31-1.04-.38-1.56-.07-.51-.05-1.03-.05-1.55s.07-1.03.08-1.55.04-1.03.01-1.55-.08-1.04-.17-1.55c-.09-.52-.23-1.04-.39-1.55-.16-.52-.36-1.04-.55-1.55-.2-.52-.42-1.03-.62-1.55s-.4-1.04-.57-1.56-.34-1.03-.47-1.55c-.13-.51-.24-1.03-.33-1.55-.09-.51-.15-1.03-.21-1.55s-.09-1.03-.13-1.55-.07-1.03-.11-1.55c-.03-.52-.06-1.03-.1-1.55s-.09-1.03-.14-1.55q-.075-.78-.18-1.56c-.07-.52-.14-1.03-.22-1.55l-.24-1.55c-.07-.52-.15-1.03-.21-1.55s-.11-1.03-.14-1.55-.03-1.03-.03-1.55.03-1.03.05-1.55.06-1.03.09-1.55.06-1.04.07-1.56.02-1.03.01-1.55-.04-1.03-.07-1.55-.08-1.03-.12-1.55-.1-1.03-.14-1.55-.08-1.03-.11-1.55-.06-1.03-.07-1.55-.01-1.03-.02-1.55c0-.52 0-1.03-.01-1.55s-.03-1.04-.05-1.56-.05-1.03-.09-1.55-.09-1.03-.14-1.55-.11-1.03-.16-1.55-.11-1.03-.16-1.55-.09-1.03-.12-1.55-.06-1.03-.08-1.55-.04-1.03-.05-1.55-.01-1.04-.02-1.56-.02-1.03-.02-1.55v-4.65c0-.52.01-1.03.01-1.55s0-1.03.01-1.55l.03-1.55c.01-.52.03-1.04.05-1.56s.05-1.03.09-1.55.08-1.03.13-1.55l.15-1.55.15-1.55c.04-.52.09-1.03.12-1.55s.04-1.03.04-1.55-.01-1.03-.04-1.55q-.045-.78-.12-1.56c-.04-.52-.1-1.03-.15-1.55l-.15-1.55c-.05-.52-.09-1.03-.13-1.55q-.04-.52-.09-1.55h-.21l-.09 1.55c-.04.52-.07 1.03-.12 1.55s-.11 1.03-.16 1.55-.11 1.03-.15 1.55-.08 1.04-.11 1.56-.05 1.03-.05 1.55.02 1.03.05 1.55.07 1.03.11 1.55.1 1.03.15 1.55l.15 1.55c.05.52.09 1.03.13 1.55s.07 1.03.09 1.55q.045.78.06 1.56c.01.52.01 1.03.02 1.55s.02 1.03.02 1.55v1.55c0 .52.01 1.03.01 1.55s-.01 1.03-.01 1.55v1.55c0 .52 0 1.03-.01 1.55l-.03 1.56c-.01.52-.03 1.03-.05 1.55s-.05 1.03-.08 1.55-.08 1.03-.12 1.55l-.15 1.55c-.05.52-.11 1.03-.16 1.55s-.11 1.03-.15 1.55-.07 1.03-.09 1.55-.03 1.04-.04 1.56-.01 1.03-.02 1.55-.01 1.03-.02 1.55-.03 1.03-.06 1.55-.07 1.03-.11 1.55-.09 1.03-.14 1.55c-.04.52-.1 1.03-.13 1.55s-.05 1.03-.06 1.55 0 1.03.01 1.55.04 1.04.07 1.56.07 1.03.09 1.55.05 1.03.05 1.55a27 27 0 0 1-.17 3.1c-.06.52-.14 1.03-.22 1.55l-.24 1.55c-.08.52-.15 1.03-.22 1.55q-.105.78-.18 1.56c-.05.52-.09 1.03-.13 1.55s-.07 1.03-.11 1.55c-.03.52-.06 1.03-.1 1.55s-.08 1.03-.14 1.55-.12 1.04-.21 1.55a20 20 0 0 1-.79 3.1c-.17.52-.38 1.04-.58 1.56s-.41 1.03-.61 1.55c-.19.52-.4 1.03-.56 1.55a11.5 11.5 0 0 0-.56 3.1c-.02.52 0 1.03.02 1.55s.08 1.03.08 1.55.02 1.04-.05 1.55c-.07.52-.19 1.05-.39 1.56-.21.53-.52 1.06-.89 1.55-.41.54-.93 1.06-1.51 1.55-.65.55-1.4 1.06-2.22 1.55-.92.55-1.95 1.06-3.06 1.55-1.25.55-2.62 1.06-4.08 1.55-1.64.55-3.43 1.06-5.31 1.55-2.09.55-4.34 1.05-6.67 1.55-2.53.54-5.23 1.05-7.95 1.56-2.87.53-5.88 1.04-8.86 1.55-3.02.52-6.12 1.03-9.12 1.55-2.92.51-5.86 1.01-8.62 1.55-2.56.5-5.11 1-7.4 1.55-2.02.49-4 .97-5.67 1.55-1.38.48-2.75.94-3.69 1.55-.71.46-1.46.98-1.64 1.55-.15.48.03 1.09.33 1.56.39.6 1.3 1.08 2.14 1.55 1.03.58 2.36 1.06 3.68 1.55 1.49.55 3.15 1.05 4.81 1.55 1.75.53 3.61 1.03 5.43 1.55 1.83.52 3.69 1.03 5.5 1.55 1.76.51 3.51 1.02 5.21 1.55 1.63.51 3.22 1.02 4.79 1.55 1.52.51 2.99 1.04 4.48 1.56 1.47.52 2.92 1.04 4.39 1.55 1.48.52 2.97 1.04 4.46 1.55 1.51.52 3.04 1.03 4.54 1.55 1.49.51 3 1.02 4.45 1.55 1.41.51 2.81 1.02 4.14 1.55 1.25.5 2.47 1.01 3.61 1.55 1.06.5 2.07 1.01 3 1.55.86.5 1.66 1.02 2.39 1.56.68.5 1.3 1.01 1.87 1.55.53.5 1.02 1.02 1.45 1.55.41.5.78 1.02 1.1 1.55.31.51.57 1.02.79 1.55.21.51.38 1.03.51 1.55.12.51.19 1.03.24 1.55s.04 1.03.04 1.55-.05 1.04-.05 1.56-.01 1.04.04 1.55c.05.52.13 1.04.26 1.55.14.52.33 1.04.56 1.55.24.53.54 1.04.85 1.55.31.52.68 1.03 1.02 1.55s.71 1.03 1.04 1.55c.32.51.63 1.03.9 1.55.26.51.5 1.04.7 1.56.2.51.36 1.03.5 1.55.14.51.24 1.03.35 1.55s.2 1.03.29 1.55l.27 1.55c.09.52.19 1.03.28 1.55s.17 1.03.24 1.55c.06.52.12 1.03.15 1.55s.02 1.04.01 1.56-.06 1.03-.09 1.55-.09 1.03-.11 1.55-.04 1.03-.02 1.55.08 1.04.16 1.55c.08.52.21 1.04.34 1.55.13.52.31 1.03.46 1.55.16.52.32 1.03.47 1.55s.29 1.03.41 1.55q.18.78.3 1.56c.08.52.13 1.03.18 1.55s.07 1.03.1 1.55c.02.52.04 1.03.05 1.55s0 1.03-.01 1.55-.01 1.03-.03 1.55-.05 1.03-.08 1.55a81 81 0 0 1-.29 3.11c-.06.52-.13 1.03-.2 1.55s-.14 1.03-.2 1.55-.13 1.03-.18 1.55-.1 1.03-.13 1.55-.05 1.03-.06 1.55 0 1.03.01 1.55.04 1.03.07 1.55c.04.52.08 1.04.14 1.56.05.52.13 1.03.19 1.55.07.52.13 1.03.2 1.55.06.52.13 1.03.19 1.55s.11 1.03.16 1.55.09 1.03.12 1.55a80 80 0 0 1 .11 3.1c.01.52.01 1.04.02 1.56 0 .52.01 1.03.01 1.55s.01 1.03.01 1.55v34.13c0 .52-.01 1.03-.01 1.55v1.55c0 .52-.01 1.03-.02 1.55s-.01 1.03-.02 1.55-.04 1.03-.06 1.55c-.03.52-.05 1.03-.09 1.55s-.08 1.03-.13 1.55l-.15 1.56c-.05.52-.11 1.03-.15 1.55s-.08 1.03-.11 1.55-.05 1.03-.05 1.55.02 1.03.05 1.55.07 1.03.11 1.55.1 1.03.15 1.55.11 1.03.16 1.55.08 1.04.12 1.56l.09 1.55Z" class="violin" style="vector-effect:none;stroke-width:2px;stroke:orange;stroke-opacity:1;fill:orange;fill-opacity:.5"/><path d="M94.59 224.65h41.53m-41.53 10.6h41.53v-18.54H94.59Zm20.77 0v27.06m0-45.6v-25.24" class="box" style="vector-effect:non-scaling-stroke;stroke-width:2px;stroke:orange;stroke-opacity:1;fill:orange;fill-opacity:.5"/><g class="points"><path d="M3 0a3 3 0 1 1-3-3 3 3 0 0 1 3 3" class="point" style="opacity:1;stroke-width:0;fill:orange;fill-opacity:1" transform="translate(115.36 390.6)"/><path d="M3 0a3 3 0 1 1-3-3 3 3 0 0 1 3 3" class="point" style="opacity:1;stroke-width:0;fill:orange;fill-opacity:1" transform="translate(115.36 323.09)"/><path d="M3 0a3 3 0 1 1-3-3 3 3 0 0 1 3 3" class="point" style="opacity:1;stroke-width:0;fill:orange;fill-opacity:1" transform="translate(115.36 316.65)"/><path d="M3 0a3 3 0 1 1-3-3 3 3 0 0 1 3 3" class="point" style="opacity:1;stroke-width:0;fill:orange;fill-opacity:1" transform="translate(115.36 290.55)"/><path d="M3 0a3 3 0 1 1-3-3 3 3 0 0 1 3 3" class="point" style="opacity:1;stroke-width:0;fill:orange;fill-opacity:1" transform="translate(115.36 290.38)"/><path d="M3 0a3 3 0 1 1-3-3 3 3 0 0 1 3 3" class="point" style="opacity:1;stroke-width:0;fill:orange;fill-opacity:1" transform="translate(115.36 289.59)"/><path d="M3 0a3 3 0 1 1-3-3 3 3 0 0 1 3 3" class="point" style="opacity:1;stroke-width:0;fill:orange;fill-opacity:1" transform="translate(115.36 280.99)"/><path d="M3 0a3 3 0 1 1-3-3 3 3 0 0 1 3 3" class="point" style="opacity:1;stroke-width:0;fill:orange;fill-opacity:1" transform="translate(115.36 277.68)"/><path d="M3 0a3 3 0 1 1-3-3 3 3 0 0 1 3 3" class="point" style="opacity:1;stroke-width:0;fill:orange;fill-opacity:1" transform="translate(115.36 277.64)"/><path d="M3 0a3 3 0 1 1-3-3 3 3 0 0 1 3 3" class="point" style="opacity:1;stroke-width:0;fill:orange;fill-opacity:1" transform="translate(115.36 272.6)"/><path d="M3 0a3 3 0 1 1-3-3 3 3 0 0 1 3 3" class="point" style="opacity:1;stroke-width:0;fill:orange;fill-opacity:1" transform="translate(115.36 271.34)"/><path d="M3 0a3 3 0 1 1-3-3 3 3 0 0 1 3 3" class="point" style="opacity:1;stroke-width:0;fill:orange;fill-opacity:1" transform="translate(115.36 267.58)"/><path d="M3 0a3 3 0 1 1-3-3 3 3 0 0 1 3 3" class="point" style="opacity:1;stroke-width:0;fill:orange;fill-opacity:1" transform="translate(115.36 266.53)"/><path d="M3 0a3 3 0 1 1-3-3 3 3 0 0 1 3 3" class="point" style="opacity:1;stroke-width:0;fill:orange;fill-opacity:1" transform="translate(115.36 266.26)"/><path d="M3 0a3 3 0 1 1-3-3 3 3 0 0 1 3 3" class="point" style="opacity:1;stroke-width:0;fill:orange;fill-opacity:1" transform="translate(115.36 264.99)"/><path d="M3 0a3 3 0 1 1-3-3 3 3 0 0 1 3 3" class="point" style="opacity:1;stroke-width:0;fill:orange;fill-opacity:1" transform="translate(115.36 264.31)"/><path d="M3 0a3 3 0 1 1-3-3 3 3 0 0 1 3 3" class="point" style="opacity:1;stroke-width:0;fill:orange;fill-opacity:1" transform="translate(115.36 264.11)"/><path d="M3 0a3 3 0 1 1-3-3 3 3 0 0 1 3 3" class="point" style="opacity:1;stroke-width:0;fill:orange;fill-opacity:1" transform="translate(115.36 187.72)"/><path d="M3 0a3 3 0 1 1-3-3 3 3 0 0 1 3 3" class="point" style="opacity:1;stroke-width:0;fill:orange;fill-opacity:1" transform="translate(115.36 187.5)"/><path d="M3 0a3 3 0 1 1-3-3 3 3 0 0 1 3 3" class="point" style="opacity:1;stroke-width:0;fill:orange;fill-opacity:1" transform="translate(115.36 185.86)"/><path d="M3 0a3 3 0 1 1-3-3 3 3 0 0 1 3 3" class="point" style="opacity:1;stroke-width:0;fill:orange;fill-opacity:1" transform="translate(115.36 179.28)"/><path d="M3 0a3 3 0 1 1-3-3 3 3 0 0 1 3 3" class="point" style="opacity:1;stroke-width:0;fill:orange;fill-opacity:1" transform="translate(115.36 178.89)"/><path d="M3 0a3 3 0 1 1-3-3 3 3 0 0 1 3 3" class="point" style="opacity:1;stroke-width:0;fill:orange;fill-opacity:1" transform="translate(115.36 172.76)"/><path d="M3 0a3 3 0 1 1-3-3 3 3 0 0 1 3 3" class="point" style="opacity:1;stroke-width:0;fill:orange;fill-opacity:1" transform="translate(115.36 170.62)"/><path d="M3 0a3 3 0 1 1-3-3 3 3 0 0 1 3 3" class="point" style="opacity:1;stroke-width:0;fill:orange;fill-opacity:1" transform="translate(115.36 160.63)"/><path d="M3 0a3 3 0 1 1-3-3 3 3 0 0 1 3 3" class="point" style="opacity:1;stroke-width:0;fill:orange;fill-opacity:1" transform="translate(115.36 156.01)"/><path d="M3 0a3 3 0 1 1-3-3 3 3 0 0 1 3 3" class="point" style="opacity:1;stroke-width:0;fill:orange;fill-opacity:1" transform="translate(115.36 145.81)"/><path d="M3 0a3 3 0 1 1-3-3 3 3 0 0 1 3 3" class="point" style="opacity:1;stroke-width:0;fill:orange;fill-opacity:1" transform="translate(115.36 111.39)"/></g></g><g class="trace violins" style="opacity:1"><path d="m323.1 437 .09-3.23c.04-1.08.07-2.16.12-3.24.04-1.08.1-2.15.15-3.23s.11-2.16.15-3.24.08-2.15.11-3.23.05-2.16.05-3.24-.02-2.15-.04-3.23c-.03-1.08-.07-2.15-.11-3.23s-.09-2.16-.14-3.24c-.04-1.08-.09-2.15-.13-3.23a175 175 0 0 1-.12-6.47c0-1.08.02-2.16.05-3.24.02-1.08.06-2.15.1-3.23s.1-2.16.15-3.24l.15-3.23c.05-1.08.1-2.15.13-3.23.04-1.08.06-2.16.08-3.24s.03-2.15.04-3.23.02-2.16.02-3.24v-9.7c0-1.08-.01-2.15-.01-3.23-.01-1.08-.02-2.16-.02-3.24s0-2.15.03-3.23.07-2.16.13-3.24.14-2.15.25-3.23.25-2.16.39-3.24a180 180 0 0 1 1.02-6.47c.18-1.08.37-2.15.57-3.23.21-1.08.41-2.16.66-3.23.25-1.08.52-2.17.84-3.24.32-1.08.67-2.16 1.07-3.23.4-1.09.85-2.17 1.32-3.24.47-1.08.99-2.15 1.49-3.23s1.03-2.16 1.53-3.24.99-2.15 1.46-3.23c.47-1.07.92-2.15 1.38-3.23s.89-2.17 1.37-3.24c.48-1.08.96-2.16 1.51-3.23.56-1.09 1.15-2.18 1.82-3.24.69-1.09 1.44-2.17 2.26-3.23.85-1.1 1.78-2.18 2.76-3.24 1.02-1.1 2.12-2.17 3.24-3.23 1.16-1.09 2.38-2.17 3.62-3.24 1.27-1.09 2.6-2.16 3.92-3.23 1.34-1.08 2.71-2.15 4.07-3.23s2.75-2.16 4.1-3.24c1.34-1.07 2.67-2.14 3.97-3.23 1.27-1.07 2.53-2.15 3.74-3.24 1.18-1.07 2.33-2.14 3.45-3.23 1.1-1.07 2.15-2.16 3.2-3.24 1.04-1.07 2.05-2.16 3.08-3.23 1.04-1.08 2.06-2.16 3.13-3.23 1.09-1.09 2.2-2.17 3.35-3.24 1.17-1.09 2.39-2.16 3.62-3.23 1.26-1.09 2.57-2.16 3.85-3.24s2.61-2.13 3.82-3.23c1.17-1.06 2.37-2.11 3.32-3.24.88-1.04 1.79-2.1 2.25-3.23.42-1.03.72-2.19.55-3.24-.18-1.11-.85-2.24-1.69-3.23-1.01-1.2-2.61-2.23-4.24-3.23-1.94-1.19-4.32-2.22-6.74-3.24-2.71-1.15-5.77-2.18-8.81-3.23-3.23-1.11-6.69-2.17-10.06-3.24-3.41-1.08-6.93-2.13-10.29-3.23-3.24-1.06-6.49-2.12-9.51-3.24-2.8-1.04-5.54-2.09-8.01-3.23-2.22-1.03-4.33-2.08-6.19-3.23-1.66-1.02-3.18-2.1-4.5-3.24a26.6 26.6 0 0 1-3.16-3.23c-.87-1.05-1.61-2.14-2.29-3.24-.66-1.06-1.21-2.14-1.74-3.23a42 42 0 0 1-1.39-3.24c-.41-1.07-.79-2.15-1.12-3.23-.33-1.07-.61-2.16-.86-3.24-.25-1.07-.45-2.15-.63-3.23-.18-1.07-.32-2.15-.46-3.23-.13-1.08-.24-2.16-.35-3.24-.1-1.08-.2-2.15-.28-3.23-.09-1.08-.16-2.16-.23-3.24s-.13-2.15-.18-3.23-.1-2.16-.14-3.24-.07-2.15-.09-3.23-.04-2.15-.05-3.23l-.03-3.24c-.01-1.08-.01-2.15-.01-3.23s-.01-2.16-.01-3.24V74.75c0-1.08.01-2.15.01-3.23s0-2.16.01-3.24l.03-3.23c.02-1.08.03-2.16.06-3.24.02-1.08.06-2.15.09-3.23.04-1.08.07-2.16.12-3.24.04-1.08.1-2.15.15-3.23s.11-2.16.15-3.24.08-2.15.11-3.23c.02-1.08.04-2.15.04-3.23s-.02-2.16-.05-3.24-.07-2.15-.11-3.23-.1-2.16-.15-3.24-.11-2.15-.15-3.23c-.05-1.08-.08-2.16-.12-3.24L323.1 23h-.2l-.09 3.23c-.04 1.08-.07 2.16-.12 3.24-.04 1.08-.1 2.15-.15 3.23s-.11 2.16-.15 3.24-.08 2.15-.11 3.23-.05 2.16-.05 3.24.02 2.15.04 3.23c.03 1.08.07 2.15.11 3.23s.1 2.16.15 3.24.11 2.15.15 3.23c.05 1.08.08 2.16.12 3.24.03 1.08.07 2.15.09 3.23.03 1.08.04 2.16.06 3.24l.03 3.23c.01 1.08.01 2.16.01 3.24s.01 2.15.01 3.23v67.92c0 1.08-.01 2.16-.01 3.24s0 2.15-.01 3.23l-.03 3.24c-.01 1.08-.03 2.15-.05 3.23s-.05 2.15-.09 3.23-.09 2.16-.14 3.24-.11 2.15-.18 3.23-.14 2.16-.23 3.24c-.08 1.08-.18 2.15-.28 3.23-.11 1.08-.22 2.16-.35 3.24-.14 1.08-.28 2.16-.46 3.23-.18 1.08-.38 2.16-.63 3.23-.25 1.08-.53 2.17-.86 3.24-.33 1.08-.71 2.16-1.12 3.23a42 42 0 0 1-1.39 3.24c-.53 1.09-1.08 2.17-1.74 3.23-.68 1.1-1.42 2.19-2.29 3.24a26.6 26.6 0 0 1-3.16 3.23c-1.32 1.14-2.84 2.22-4.5 3.24-1.86 1.15-3.97 2.2-6.19 3.23-2.47 1.14-5.21 2.19-8.01 3.23-3.02 1.12-6.27 2.18-9.51 3.24-3.36 1.1-6.88 2.15-10.29 3.23-3.37 1.07-6.83 2.13-10.06 3.24-3.04 1.05-6.1 2.08-8.81 3.23-2.42 1.02-4.8 2.05-6.74 3.24-1.63 1-3.23 2.03-4.24 3.23-.84.99-1.51 2.12-1.69 3.23-.17 1.05.13 2.21.55 3.24.46 1.13 1.37 2.19 2.25 3.23.95 1.13 2.15 2.18 3.32 3.24 1.21 1.1 2.54 2.15 3.82 3.23s2.59 2.15 3.85 3.24c1.23 1.07 2.45 2.14 3.62 3.23 1.15 1.07 2.26 2.15 3.35 3.24 1.07 1.07 2.09 2.15 3.13 3.23 1.03 1.07 2.04 2.16 3.08 3.23 1.05 1.08 2.1 2.17 3.2 3.24 1.12 1.09 2.27 2.16 3.45 3.23 1.21 1.09 2.47 2.17 3.74 3.24 1.3 1.09 2.63 2.16 3.97 3.23 1.35 1.08 2.74 2.16 4.1 3.24s2.73 2.15 4.07 3.23c1.32 1.07 2.65 2.14 3.92 3.23 1.24 1.07 2.46 2.15 3.62 3.24 1.12 1.06 2.22 2.13 3.24 3.23.98 1.06 1.91 2.14 2.76 3.24.82 1.06 1.57 2.14 2.26 3.23.67 1.06 1.26 2.15 1.82 3.24.55 1.07 1.03 2.15 1.51 3.23.48 1.07.91 2.16 1.37 3.24s.91 2.16 1.38 3.23c.47 1.08.96 2.15 1.46 3.23s1.03 2.16 1.53 3.24 1.02 2.15 1.49 3.23c.47 1.07.92 2.15 1.32 3.24.4 1.07.75 2.15 1.07 3.23.32 1.07.59 2.16.84 3.24.25 1.07.45 2.15.66 3.23.2 1.08.39 2.15.57 3.23a182 182 0 0 1 1.02 6.47c.14 1.08.28 2.16.39 3.24s.19 2.15.25 3.23.1 2.16.13 3.24.03 2.15.03 3.23-.01 2.16-.02 3.24c0 1.08-.01 2.15-.01 3.23v9.7c0 1.08.01 2.16.02 3.24s.02 2.15.04 3.23.04 2.16.08 3.24c.03 1.08.08 2.15.13 3.23l.15 3.23c.05 1.08.11 2.16.15 3.24s.08 2.15.1 3.23c.03 1.08.05 2.16.05 3.24a174 174 0 0 1-.12 6.47c-.04 1.08-.09 2.15-.13 3.23-.05 1.08-.1 2.16-.14 3.24s-.08 2.15-.11 3.23c-.02 1.08-.04 2.15-.04 3.23s.02 2.16.05 3.24.07 2.15.11 3.23.1 2.16.15 3.24.11 2.15.15 3.23c.05 1.08.08 2.16.12 3.24l.09 3.23Z" class="violin" style="vector-effect:none;stroke-width:2px;stroke:#00f;stroke-opacity:1;fill:#00f;fill-opacity:.5"/><path d="M302.24 244.2h41.52m-41.52 23.19h41.52v-38.77h-41.52Zm20.76 0v51.38m0-90.15V175.3" class="box" style="vector-effect:non-scaling-stroke;stroke-width:2px;stroke:#00f;stroke-opacity:1;fill:#00f;fill-opacity:.5"/><g class="points"><path d="M3 0a3 3 0 1 1-3-3 3 3 0 0 1 3 3" class="point" style="opacity:1;stroke-width:0;fill:#00f;fill-opacity:1" transform="translate(323 417.52)"/><path d="M3 0a3 3 0 1 1-3-3 3 3 0 0 1 3 3" class="point" style="opacity:1;stroke-width:0;fill:#00f;fill-opacity:1" transform="translate(323 379.6)"/><path d="M3 0a3 3 0 1 1-3-3 3 3 0 0 1 3 3" class="point" style="opacity:1;stroke-width:0;fill:#00f;fill-opacity:1" transform="translate(323 360.42)"/><path d="M3 0a3 3 0 1 1-3-3 3 3 0 0 1 3 3" class="point" style="opacity:1;stroke-width:0;fill:#00f;fill-opacity:1" transform="translate(323 336.33)"/><path d="M3 0a3 3 0 1 1-3-3 3 3 0 0 1 3 3" class="point" style="opacity:1;stroke-width:0;fill:#00f;fill-opacity:1" transform="translate(323 334.09)"/><path d="M3 0a3 3 0 1 1-3-3 3 3 0 0 1 3 3" class="point" style="opacity:1;stroke-width:0;fill:#00f;fill-opacity:1" transform="translate(323 331.16)"/><path d="M3 0a3 3 0 1 1-3-3 3 3 0 0 1 3 3" class="point" style="opacity:1;stroke-width:0;fill:#00f;fill-opacity:1" transform="translate(323 42.48)"/></g></g><g class="trace violins" style="opacity:1"><path d="M530.75 299.61q.06-.77.1-1.16c.04-.39.09-.78.14-1.17s.12-.77.18-1.16.13-.77.2-1.16.15-.77.21-1.16.12-.78.17-1.17.08-.77.11-1.16c.02-.39.04-.77.04-1.16s-.02-.77-.04-1.16-.05-.78-.1-1.17c-.04-.39-.11-.77-.17-1.16s-.14-.77-.21-1.16-.14-.77-.2-1.16-.13-.78-.18-1.17-.09-.77-.12-1.16-.06-.77-.07-1.16-.01-.77 0-1.16.04-.78.07-1.17.08-.77.13-1.16.12-.77.19-1.16l.21-1.16c.07-.39.15-.78.22-1.17s.13-.77.18-1.16.1-.77.14-1.16.06-.77.08-1.16.02-.78.04-1.17.03-.77.07-1.16.08-.78.15-1.16a9.4 9.4 0 0 1 .77-2.33c.18-.39.4-.77.61-1.16s.44-.77.63-1.16c.19-.38.38-.77.52-1.16.14-.38.26-.78.34-1.17.08-.38.12-.77.16-1.16s.05-.77.09-1.16.07-.77.14-1.16.17-.78.29-1.17.27-.78.42-1.16c.15-.39.33-.77.48-1.16s.3-.78.43-1.17c.12-.38.23-.77.32-1.16.09-.38.15-.77.21-1.16s.1-.77.17-1.16.13-.78.23-1.17c.11-.39.22-.78.4-1.16.19-.4.42-.79.7-1.16.31-.4.68-.79 1.1-1.16.47-.41 1.01-.8 1.59-1.17.64-.41 1.37-.79 2.11-1.16.8-.4 1.68-.78 2.55-1.16.91-.4 1.88-.77 2.82-1.16.95-.39 1.92-.78 2.85-1.17.91-.38 1.81-.76 2.68-1.16.83-.38 1.63-.77 2.41-1.16.75-.38 1.47-.77 2.19-1.16s1.4-.79 2.14-1.17c.76-.4 1.53-.79 2.36-1.16.91-.4 1.87-.79 2.9-1.16 1.15-.41 2.39-.79 3.7-1.16 1.46-.41 3.04-.8 4.68-1.17 1.79-.41 3.7-.78 5.63-1.16 2.05-.4 4.21-.78 6.34-1.16 2.17-.39 4.41-.77 6.57-1.16 2.1-.38 4.22-.77 6.2-1.17 1.83-.37 3.65-.75 5.28-1.16 1.44-.36 2.83-.73 4.02-1.16 1-.36 1.95-.72 2.69-1.16.59-.35 1.19-.73 1.46-1.17.21-.35.34-.8.23-1.16-.13-.43-.66-.82-1.19-1.16-.74-.47-1.84-.81-2.98-1.16-1.45-.45-3.24-.81-5.08-1.17-2.16-.43-4.62-.79-7.1-1.16-2.72-.41-5.66-.78-8.56-1.16-3-.39-6.12-.77-9.14-1.16-2.98-.39-5.98-.77-8.86-1.17-2.74-.38-5.43-.76-8-1.16-2.39-.37-4.71-.75-6.9-1.16-2-.37-3.93-.75-5.74-1.16-1.63-.37-3.19-.76-4.63-1.17-1.27-.37-2.48-.74-3.56-1.16-.94-.36-1.81-.74-2.57-1.16-.66-.36-1.25-.74-1.76-1.16-.45-.37-.82-.76-1.15-1.17-.3-.37-.54-.77-.76-1.16-.21-.38-.39-.77-.56-1.16-.17-.38-.3-.77-.45-1.16s-.29-.78-.43-1.17-.28-.77-.42-1.16-.29-.77-.43-1.16-.27-.77-.4-1.16-.26-.78-.37-1.17-.21-.77-.3-1.16-.16-.77-.23-1.16c-.06-.39-.11-.77-.16-1.16q-.075-.585-.12-1.17a45 45 0 0 1-.07-1.16c-.03-.39-.05-.77-.08-1.16s-.05-.78-.09-1.17-.08-.77-.13-1.16-.11-.77-.17-1.16-.11-.77-.17-1.16-.12-.78-.17-1.17-.09-.77-.13-1.16-.07-.77-.09-1.16-.04-.77-.05-1.16l-.03-1.17c-.01-.39-.01-.77-.01-1.16s0-.77.01-1.16.01-.77.03-1.16.04-.78.07-1.17.07-.77.12-1.16.12-.77.2-1.16.17-.77.27-1.16.21-.78.31-1.17.21-.77.29-1.16.16-.77.2-1.16.05-.77.04-1.16-.05-.78-.11-1.17-.16-.77-.25-1.16-.21-.77-.31-1.16-.21-.77-.3-1.16q-.135-.585-.24-1.17c-.07-.39-.12-.77-.16-1.16s-.07-.77-.1-1.16c-.02-.39-.04-.77-.05-1.16s-.01-.78-.02-1.17c0-.39-.01-.77-.01-1.16s-.01-.77-.01-1.16v-32.55c0-.39.01-.78.01-1.17s.01-.77.01-1.16c.01-.39.01-.77.02-1.16a45 45 0 0 1 .11-2.33c.03-.39.07-.77.11-1.16s.1-.77.15-1.16l.15-1.16c.05-.39.1-.78.14-1.17s.07-.77.08-1.16a22 22 0 0 0-.06-2.32c-.03-.39-.07-.78-.11-1.17-.03-.39-.07-.77-.1-1.16-.02-.39-.05-.77-.05-1.16s0-.77.02-1.16.06-.78.09-1.17.07-.77.1-1.16.07-.77.09-1.16.03-.77.03-1.16-.02-.78-.05-1.17-.08-.77-.12-1.16l-.15-1.16-.15-1.16c-.05-.39-.09-.78-.13-1.17-.03-.39-.06-.77-.08-1.16s-.05-.77-.06-1.16-.02-.77-.02-1.16c-.01-.39-.01-.78-.01-1.17s0-.77.01-1.16l.03-1.16c.01-.39.03-.77.05-1.16q.03-.585.09-1.17c.04-.39.08-.77.13-1.16l.15-1.16c.05-.39.12-.77.16-1.16.05-.39.08-.78.11-1.17.02-.39.04-.77.04-1.16s-.02-.77-.05-1.16-.07-.77-.11-1.16-.1-.78-.15-1.17-.11-.77-.16-1.16-.08-.77-.12-1.16l-.09-1.16h-.21q-.05.77-.09 1.16c-.04.39-.08.77-.13 1.16l-.15 1.16-.15 1.17c-.04.39-.09.77-.12 1.16s-.04.77-.04 1.16.02.77.04 1.16c.03.39.07.78.11 1.17s.1.77.15 1.16l.15 1.16c.05.39.09.77.13 1.16s.06.78.09 1.17l.06 1.16c.01.39.03.77.03 1.16v1.16c0 .39.01.78 0 1.17l-.03 1.16c-.01.39-.03.77-.05 1.16s-.06.77-.09 1.16c-.04.39-.07.78-.12 1.17-.04.39-.1.77-.15 1.16s-.11.77-.16 1.16c-.04.39-.08.77-.11 1.16s-.06.78-.06 1.17.01.77.03 1.16.06.77.09 1.16.08.77.11 1.16.06.78.08 1.17.03.77.03 1.16-.03.77-.05 1.16c-.03.39-.07.77-.1 1.16-.04.39-.08.78-.11 1.17s-.06.77-.07 1.16 0 .77.01 1.16.05.77.08 1.16c.04.39.08.78.13 1.17s.11.77.16 1.16.1.77.14 1.16.08.77.11 1.16.05.78.07 1.17.04.77.05 1.16.01.77.02 1.16c0 .39.01.77.01 1.16v34.88c0 .39 0 .77-.01 1.16l-.03 1.17c-.01.39-.03.77-.05 1.16s-.05.77-.09 1.16-.1.77-.17 1.16q-.105.585-.24 1.17c-.09.39-.19.77-.29 1.16s-.22.77-.31 1.16-.19.77-.25 1.16-.11.78-.12 1.17.01.77.05 1.16.12.77.2 1.16.19.77.29 1.16.21.78.31 1.17.19.77.27 1.16.14.77.19 1.16.1.77.13 1.16.05.78.07 1.17.02.77.03 1.16.01.77.01 1.16 0 .77-.01 1.16l-.03 1.17c-.01.39-.03.77-.05 1.16a45 45 0 0 1-.39 3.49l-.18 1.16a46 46 0 0 0-.46 4.65c-.03.39-.05.77-.08 1.16s-.06.78-.11 1.17a23 23 0 0 1-.4 2.32 26 26 0 0 1-.66 2.33c-.13.39-.27.77-.41 1.16s-.28.77-.42 1.16-.29.77-.43 1.16-.27.78-.42 1.17-.29.78-.46 1.16c-.17.39-.34.78-.55 1.16a7.9 7.9 0 0 1-1.92 2.33c-.5.42-1.09.8-1.75 1.16-.76.42-1.64.8-2.58 1.16-1.08.42-2.28.79-3.55 1.16-1.43.42-3 .8-4.63 1.17-1.81.41-3.74.79-5.75 1.16-2.19.41-4.5.79-6.89 1.16-2.57.4-5.27.78-8.01 1.16-2.88.4-5.88.78-8.86 1.17-3.02.39-6.14.77-9.14 1.16-2.9.38-5.84.75-8.56 1.16-2.48.37-4.93.73-7.09 1.16-1.84.36-3.62.72-5.08 1.17-1.14.35-2.25.69-2.99 1.16-.53.34-1.05.74-1.18 1.16-.11.36.02.81.23 1.16.27.44.86.82 1.45 1.17.74.44 1.7.8 2.7 1.16 1.2.43 2.58.8 4.02 1.16 1.63.41 3.45.79 5.28 1.16 1.98.4 4.1.79 6.2 1.17 2.16.39 4.4.77 6.57 1.16 2.13.38 4.29.76 6.34 1.16 1.93.38 3.84.75 5.63 1.16 1.64.37 3.22.76 4.68 1.17 1.31.37 2.55.75 3.7 1.16 1.03.37 1.98.76 2.89 1.16.84.37 1.6.76 2.37 1.16.74.38 1.42.78 2.14 1.17s1.43.78 2.18 1.16c.78.4 1.59.78 2.42 1.16.87.4 1.77.78 2.68 1.16.93.39 1.9.78 2.85 1.17.94.39 1.9.77 2.81 1.16.87.38 1.75.76 2.55 1.16.74.37 1.47.75 2.11 1.16.58.37 1.13.76 1.6 1.17.42.37.79.76 1.1 1.16.28.37.5.76.69 1.16.18.38.3.77.41 1.16s.16.78.23 1.17c.06.39.1.77.16 1.16s.12.78.21 1.16c.09.39.2.78.32 1.16.13.39.28.78.43 1.17s.33.77.48 1.16.31.77.43 1.16.21.78.28 1.17.11.77.15 1.16.04.77.08 1.16.09.78.17 1.16c.08.39.19.79.33 1.17.14.39.34.78.53 1.16.19.39.42.77.63 1.16.2.39.42.77.6 1.16s.34.78.47 1.17c.13.38.23.77.31 1.16.08.38.11.77.15 1.16.03.39.04.77.06 1.16s.03.78.05 1.17.05.77.08 1.16c.04.39.08.77.13 1.16s.12.77.19 1.16l.21 1.17c.07.39.15.77.22 1.16s.13.77.18 1.16.1.77.13 1.16.06.78.07 1.17a22 22 0 0 1-.06 2.32c-.03.39-.08.77-.13 1.16s-.11.78-.17 1.17-.14.77-.21 1.16-.14.77-.2 1.16-.12.77-.17 1.16-.08.78-.11 1.17c-.02.39-.04.77-.04 1.16s.01.77.04 1.16.07.77.12 1.16.11.78.17 1.17.13.77.2 1.16l.21 1.16c.06.39.13.77.18 1.16s.1.78.14 1.17q.04.39.09 1.16Z" class="violin" style="vector-effect:none;stroke-width:2px;stroke:green;stroke-opacity:1;fill:green;fill-opacity:.5"/><path d="M509.88 220.82h41.53m-41.53 7.85h41.53v-13.96h-41.53Zm20.76 0v20.65m0-34.61v-20.16" class="box" style="vector-effect:non-scaling-stroke;stroke-width:2px;stroke:green;stroke-opacity:1;fill:green;fill-opacity:.5"/><g class="points"><path d="M3 0a3 3 0 1 1-3-3 3 3 0 0 1 3 3" class="point" style="opacity:1;stroke-width:0;fill:green;fill-opacity:1" transform="translate(530.64 292.6)"/><path d="M3 0a3 3 0 1 1-3-3 3 3 0 0 1 3 3" class="point" style="opacity:1;stroke-width:0;fill:green;fill-opacity:1" transform="translate(530.64 287.97)"/><path d="M3 0a3 3 0 1 1-3-3 3 3 0 0 1 3 3" class="point" style="opacity:1;stroke-width:0;fill:green;fill-opacity:1" transform="translate(530.64 272.91)"/><path d="M3 0a3 3 0 1 1-3-3 3 3 0 0 1 3 3" class="point" style="opacity:1;stroke-width:0;fill:green;fill-opacity:1" transform="translate(530.64 268.63)"/><path d="M3 0a3 3 0 1 1-3-3 3 3 0 0 1 3 3" class="point" style="opacity:1;stroke-width:0;fill:green;fill-opacity:1" transform="translate(530.64 262.17)"/><path d="M3 0a3 3 0 1 1-3-3 3 3 0 0 1 3 3" class="point" style="opacity:1;stroke-width:0;fill:green;fill-opacity:1" transform="translate(530.64 260.55)"/><path d="M3 0a3 3 0 1 1-3-3 3 3 0 0 1 3 3" class="point" style="opacity:1;stroke-width:0;fill:green;fill-opacity:1" transform="translate(530.64 260.29)"/><path d="M3 0a3 3 0 1 1-3-3 3 3 0 0 1 3 3" class="point" style="opacity:1;stroke-width:0;fill:green;fill-opacity:1" transform="translate(530.64 259.97)"/><path d="M3 0a3 3 0 1 1-3-3 3 3 0 0 1 3 3" class="point" style="opacity:1;stroke-width:0;fill:green;fill-opacity:1" transform="translate(530.64 259.63)"/><path d="M3 0a3 3 0 1 1-3-3 3 3 0 0 1 3 3" class="point" style="opacity:1;stroke-width:0;fill:green;fill-opacity:1" transform="translate(530.64 255.49)"/><path d="M3 0a3 3 0 1 1-3-3 3 3 0 0 1 3 3" class="point" style="opacity:1;stroke-width:0;fill:green;fill-opacity:1" transform="translate(530.64 253.31)"/><path d="M3 0a3 3 0 1 1-3-3 3 3 0 0 1 3 3" class="point" style="opacity:1;stroke-width:0;fill:green;fill-opacity:1" transform="translate(530.64 252.74)"/><path d="M3 0a3 3 0 1 1-3-3 3 3 0 0 1 3 3" class="point" style="opacity:1;stroke-width:0;fill:green;fill-opacity:1" transform="translate(530.64 252.54)"/><path d="M3 0a3 3 0 1 1-3-3 3 3 0 0 1 3 3" class="point" style="opacity:1;stroke-width:0;fill:green;fill-opacity:1" transform="translate(530.64 251.86)"/><path d="M3 0a3 3 0 1 1-3-3 3 3 0 0 1 3 3" class="point" style="opacity:1;stroke-width:0;fill:green;fill-opacity:1" transform="translate(530.64 250.66)"/><path d="M3 0a3 3 0 1 1-3-3 3 3 0 0 1 3 3" class="point" style="opacity:1;stroke-width:0;fill:green;fill-opacity:1" transform="translate(530.64 189.43)"/><path d="M3 0a3 3 0 1 1-3-3 3 3 0 0 1 3 3" class="point" style="opacity:1;stroke-width:0;fill:green;fill-opacity:1" transform="translate(530.64 183.38)"/><path d="M3 0a3 3 0 1 1-3-3 3 3 0 0 1 3 3" class="point" style="opacity:1;stroke-width:0;fill:green;fill-opacity:1" transform="translate(530.64 161.59)"/><path d="M3 0a3 3 0 1 1-3-3 3 3 0 0 1 3 3" class="point" style="opacity:1;stroke-width:0;fill:green;fill-opacity:1" transform="translate(530.64 161.44)"/><path d="M3 0a3 3 0 1 1-3-3 3 3 0 0 1 3 3" class="point" style="opacity:1;stroke-width:0;fill:green;fill-opacity:1" transform="translate(530.64 103.76)"/><path d="M3 0a3 3 0 1 1-3-3 3 3 0 0 1 3 3" class="point" style="opacity:1;stroke-width:0;fill:green;fill-opacity:1" transform="translate(530.64 92.75)"/><path d="M3 0a3 3 0 1 1-3-3 3 3 0 0 1 3 3" class="point" style="opacity:1;stroke-width:0;fill:green;fill-opacity:1" transform="translate(530.64 71.78)"/></g></g></g></g><path d="M47 466.5h648M47 5.5h648" class="xlines-above crisp" style="fill:none;stroke-width:1px;stroke:#000;stroke-opacity:1"/><path d="M47.5 6v460m647-460v460" class="ylines-above crisp" style="fill:none;stroke-width:1px;stroke:#000;stroke-opacity:1"/><g class="xaxislayer-above"><path d="M0 467v5" class="xtick ticks crisp" style="stroke:#444;stroke-opacity:1;stroke-width:1px" transform="translate(163.36)"/><path d="M0 467v5" class="xtick ticks crisp" style="stroke:#444;stroke-opacity:1;stroke-width:1px" transform="translate(371)"/><path d="M0 467v5" class="xtick ticks crisp" style="stroke:#444;stroke-opacity:1;stroke-width:1px" transform="translate(578.64)"/><text y="491.2" class="xtick" style="font-family:&quot;Open Sans&quot;,verdana,arial,sans-serif;font-size:16px;fill:#000;fill-opacity:1;white-space:pre;opacity:1" text-anchor="middle" transform="translate(163.36)">CHGNet</text><text y="491.2" class="xtick" style="font-family:&quot;Open Sans&quot;,verdana,arial,sans-serif;font-size:16px;fill:#000;fill-opacity:1;white-space:pre;opacity:1" text-anchor="middle" transform="translate(371)">M3GNet</text><text y="491.2" class="xtick" style="font-family:&quot;Open Sans&quot;,verdana,arial,sans-serif;font-size:16px;fill:#000;fill-opacity:1;white-space:pre;opacity:1" text-anchor="middle" transform="translate(578.64)">MACE</text></g><g class="yaxislayer-above"><path d="M47 0h-5" class="ytick ticks crisp" style="stroke:#444;stroke-opacity:1;stroke-width:1px" transform="translate(0 420.02)"/><path d="M47 0h-5" class="ytick ticks crisp" style="stroke:#444;stroke-opacity:1;stroke-width:1px" transform="translate(0 368.22)"/><path d="M47 0h-5" class="ytick ticks crisp" style="stroke:#444;stroke-opacity:1;stroke-width:1px" transform="translate(0 316.42)"/><path d="M47 0h-5" class="ytick ticks crisp" style="stroke:#444;stroke-opacity:1;stroke-width:1px" transform="translate(0 264.61)"/><path d="M47 0h-5" class="ytick ticks crisp" style="stroke:#444;stroke-opacity:1;stroke-width:1px" transform="translate(0 212.81)"/><path d="M47 0h-5" class="ytick ticks crisp" style="stroke:#444;stroke-opacity:1;stroke-width:1px" transform="translate(0 161.01)"/><path d="M47 0h-5" class="ytick ticks crisp" style="stroke:#444;stroke-opacity:1;stroke-width:1px" transform="translate(0 109.2)"/><path d="M47 0h-5" class="ytick ticks crisp" style="stroke:#444;stroke-opacity:1;stroke-width:1px" transform="translate(0 57.4)"/><text x="38.8" y="5.6" class="ytick" style="font-family:&quot;Open Sans&quot;,verdana,arial,sans-serif;font-size:16px;fill:#000;fill-opacity:1;white-space:pre;opacity:1" text-anchor="end" transform="translate(0 420.02)">−20</text><text x="38.8" y="5.6" class="ytick" style="font-family:&quot;Open Sans&quot;,verdana,arial,sans-serif;font-size:16px;fill:#000;fill-opacity:1;white-space:pre;opacity:1" text-anchor="end" transform="translate(0 368.22)">−15</text><text x="38.8" y="5.6" class="ytick" style="font-family:&quot;Open Sans&quot;,verdana,arial,sans-serif;font-size:16px;fill:#000;fill-opacity:1;white-space:pre;opacity:1" text-anchor="end" transform="translate(0 316.42)">−10</text><text x="38.8" y="5.6" class="ytick" style="font-family:&quot;Open Sans&quot;,verdana,arial,sans-serif;font-size:16px;fill:#000;fill-opacity:1;white-space:pre;opacity:1" text-anchor="end" transform="translate(0 264.61)">−5</text><text x="38.8" y="5.6" class="ytick" style="font-family:&quot;Open Sans&quot;,verdana,arial,sans-serif;font-size:16px;fill:#000;fill-opacity:1;white-space:pre;opacity:1" text-anchor="end" transform="translate(0 212.81)">0</text><text x="38.8" y="5.6" class="ytick" style="font-family:&quot;Open Sans&quot;,verdana,arial,sans-serif;font-size:16px;fill:#000;fill-opacity:1;white-space:pre;opacity:1" text-anchor="end" transform="translate(0 161.01)">5</text><text x="38.8" y="5.6" class="ytick" style="font-family:&quot;Open Sans&quot;,verdana,arial,sans-serif;font-size:16px;fill:#000;fill-opacity:1;white-space:pre;opacity:1" text-anchor="end" transform="translate(0 109.2)">10</text><text x="38.8" y="5.6" class="ytick" style="font-family:&quot;Open Sans&quot;,verdana,arial,sans-serif;font-size:16px;fill:#000;fill-opacity:1;white-space:pre;opacity:1" text-anchor="end" transform="translate(0 57.4)">15</text></g></g></g><g class="infolayer"><g class="annotation" data-index="0" style="opacity:1"><g class="annotation-text-g"><g class="cursor-pointer"><path fill="none" d="M.5.5h31v20H.5z" class="bg" style="stroke-width:1px;stroke:#000;stroke-opacity:0;fill:#000;fill-opacity:0" transform="translate(179 191)"/><text x="15.891" y="16" class="annotation-text" style="font-family:&quot;Open Sans&quot;,verdana,arial,sans-serif;font-size:14px;fill:orange;fill-opacity:1;white-space:pre" text-anchor="middle" transform="translate(179 191)"><tspan style="font-weight:700">6%</tspan></text></g></g></g><g class="annotation" data-index="1" style="opacity:1"><g class="annotation-text-g"><g class="cursor-pointer"><path fill="none" d="M.5.5h41v20H.5z" class="bg" style="stroke-width:1px;stroke:#000;stroke-opacity:0;fill:#000;fill-opacity:0" transform="translate(174 197)"/><text x="20.859" y="16" class="annotation-text" style="font-family:&quot;Open Sans&quot;,verdana,arial,sans-serif;font-size:14px;fill:orange;fill-opacity:1;white-space:pre" text-anchor="middle" transform="translate(174 197)"><tspan style="font-weight:700">94%</tspan></text></g></g></g><g class="annotation" data-index="2" style="opacity:1"><g class="annotation-text-g"><g class="cursor-pointer"><path fill="none" d="M.5.5h31v20H.5z" class="bg" style="stroke-width:1px;stroke:#000;stroke-opacity:0;fill:#000;fill-opacity:0" transform="translate(386 191)"/><text x="15.891" y="16" class="annotation-text" style="font-family:&quot;Open Sans&quot;,verdana,arial,sans-serif;font-size:14px;fill:#00f;fill-opacity:1;white-space:pre" text-anchor="middle" transform="translate(386 191)"><tspan style="font-weight:700">2%</tspan></text></g></g></g><g class="annotation" data-index="3" style="opacity:1"><g class="annotation-text-g"><g class="cursor-pointer"><path fill="none" d="M.5.5h41v20H.5z" class="bg" style="stroke-width:1px;stroke:#000;stroke-opacity:0;fill:#000;fill-opacity:0" transform="translate(381 197)"/><text x="20.859" y="16" class="annotation-text" style="font-family:&quot;Open Sans&quot;,verdana,arial,sans-serif;font-size:14px;fill:#00f;fill-opacity:1;white-space:pre" text-anchor="middle" transform="translate(381 197)"><tspan style="font-weight:700">98%</tspan></text></g></g></g><g class="annotation" data-index="4" style="opacity:1"><g class="annotation-text-g"><g class="cursor-pointer"><path fill="none" d="M.5.5h31v20H.5z" class="bg" style="stroke-width:1px;stroke:#000;stroke-opacity:0;fill:#000;fill-opacity:0" transform="translate(594 191)"/><text x="15.891" y="16" class="annotation-text" style="font-family:&quot;Open Sans&quot;,verdana,arial,sans-serif;font-size:14px;fill:green;fill-opacity:1;white-space:pre" text-anchor="middle" transform="translate(594 191)"><tspan style="font-weight:700">3%</tspan></text></g></g></g><g class="annotation" data-index="5" style="opacity:1"><g class="annotation-text-g"><g class="cursor-pointer"><path fill="none" d="M.5.5h41v20H.5z" class="bg" style="stroke-width:1px;stroke:#000;stroke-opacity:0;fill:#000;fill-opacity:0" transform="translate(589 197)"/><text x="20.859" y="16" class="annotation-text" style="font-family:&quot;Open Sans&quot;,verdana,arial,sans-serif;font-size:14px;fill:green;fill-opacity:1;white-space:pre" text-anchor="middle" transform="translate(589 197)"><tspan style="font-weight:700">97%</tspan></text></g></g></g><g class="annotation" data-index="6" style="opacity:1"><g class="annotation-text-g"><g class="cursor-pointer"><path fill="none" d="M.5.5h157v43H.5z" class="bg" style="stroke-width:1px;stroke:#000;stroke-opacity:0;fill:#000;fill-opacity:0" transform="translate(292 6)"/><text x="79.047" y="18" class="annotation-text" style="font-family:&quot;Open Sans&quot;,verdana,arial,sans-serif;font-size:16px;fill:#000;fill-opacity:1;white-space:pre" text-anchor="middle" transform="translate(292 6)"><tspan x="79.047" y="18" class="line" dy="0em">hardening</tspan><tspan x="79.047" y="18" class="line" dy="1.3em">(overstiff phonons)</tspan></text></g></g></g><g class="annotation" data-index="7" style="opacity:1"><g class="annotation-text-g"><g class="cursor-pointer"><path fill="none" d="M.5.5h168v43H.5z" class="bg" style="stroke-width:1px;stroke:#000;stroke-opacity:0;fill:#000;fill-opacity:0" transform="translate(287 422)"/><text x="84.563" y="18" class="annotation-text" style="font-family:&quot;Open Sans&quot;,verdana,arial,sans-serif;font-size:16px;fill:#000;fill-opacity:1;white-space:pre" text-anchor="middle" transform="translate(287 422)"><tspan x="84.563" y="18" class="line" dy="0em">softening</tspan><tspan x="84.563" y="18" class="line" dy="1.3em">(understiff phonons)</tspan></text></g></g></g></g></svg>