<svg xmlns="http://www.w3.org/2000/svg" xmlns:xlink="http://www.w3.org/1999/xlink" width="700" height="500" class="main-svg"><path d="M0 0h700v500H0z" style="fill:#fff;fill-opacity:1"/><defs><clipPath id="c" class="plotclip"><path d="M0 0h502.072v403H0z"/></clipPath><clipPath id="d" class="plotclip"><path d="M0 0h125.518v403H0z"/></clipPath><clipPath id="e" class="axesclip"><path d="M48 0h502.072v500H48z"/></clipPath><clipPath id="a" class="axesclip"><path d="M0 40h700v403H0z"/></clipPath><clipPath id="b" class="axesclip"><path d="M0 40h700v403H0z"/></clipPath></defs><g class="layer-below"><g class="shapelayer"><g class="shape-group" clip-path="url(#a)" data-index="5"><path fill-rule="evenodd" d="M48 443h502.072z" data-index="5" style="opacity:.07;stroke:#2a3f5f;stroke-opacity:1;fill:gray;fill-opacity:1;stroke-width:2px"/></g><g class="shape-group" clip-path="url(#b)" data-index="6"><path fill-rule="evenodd" d="M569.482 443H695z" data-index="6" style="opacity:.07;stroke:#2a3f5f;stroke-opacity:1;fill:gray;fill-opacity:1;stroke-width:2px"/></g></g></g><g class="cartesianlayer"><g class="subplot xy"><g class="gridlayer"><g class="x"><path d="M0 40v403" class="xgrid crisp" style="stroke:#d3d3d3;stroke-opacity:1;stroke-width:1px" transform="translate(159.89)"/><path d="M0 40v403" class="xgrid crisp" style="stroke:#d3d3d3;stroke-opacity:1;stroke-width:1px" transform="translate(199.44)"/><path d="M0 40v403" class="xgrid crisp" style="stroke:#d3d3d3;stroke-opacity:1;stroke-width:1px" transform="translate(318.12)"/><path d="M0 40v403" class="xgrid crisp" style="stroke:#d3d3d3;stroke-opacity:1;stroke-width:1px" transform="translate(415.01)"/><path d="M0 40v403" class="xgrid crisp" style="stroke:#d3d3d3;stroke-opacity:1;stroke-width:1px" transform="translate(494.13)"/></g><g class="y"><path d="M48 0h502.072" class="ygrid crisp" style="stroke:#d3d3d3;stroke-opacity:1;stroke-width:1px" transform="translate(0 367.87)"/><path d="M48 0h502.072" class="ygrid crisp" style="stroke:#d3d3d3;stroke-opacity:1;stroke-width:1px" transform="translate(0 292.73)"/><path d="M48 0h502.072" class="ygrid crisp" style="stroke:#d3d3d3;stroke-opacity:1;stroke-width:1px" transform="translate(0 217.6)"/><path d="M48 0h502.072" class="ygrid crisp" style="stroke:#d3d3d3;stroke-opacity:1;stroke-width:1px" transform="translate(0 142.47)"/><path d="M48 0h502.072" class="ygrid crisp" style="stroke:#d3d3d3;stroke-opacity:1;stroke-width:1px" transform="translate(0 67.34)"/></g></g><g class="plot" clip-path="url(#c)" transform="translate(48 40)"><g class="scatterlayer mlayer"><g class="trace scatter trace707641" style="stroke-miterlimit:2;opacity:1"><g class="lines"><path d="m0 403.15 11.19-16.66 1.12-1.63 21.26-29.75 1.11-1.47 14.55-17.86 1.12-1.27 12.31-12.75 1.12-1.04 11.18-9.28 1.12-.81 10.07-6.22 1.12-.57 8.95-3.68 1.12-.35 8.95-1.86 1.12-.11 4.48-.21" class="js-line" style="vector-effect:none;fill:none;stroke:#636efa;stroke-opacity:1;stroke-width:1.5px;opacity:1"/></g></g><g class="trace scatter traceafaf8d" style="stroke-miterlimit:2;opacity:1"><g class="lines"><path d="m0 403.15 11.19-16.66 1.12-1.63 21.26-29.75 1.11-1.47 14.55-17.86 1.12-1.27 12.31-12.75 1.12-1.04 11.18-9.28 1.12-.81 10.07-6.22 1.12-.57 8.95-3.68 1.12-.35 8.95-1.86 1.12-.11 4.48-.21" class="js-line" style="vector-effect:none;fill:none;stroke:#636efa;stroke-opacity:1;stroke-width:1.5px;opacity:1"/></g></g><g class="trace scatter trace9ecb83" style="stroke-miterlimit:2;opacity:1"><g class="lines"><path d="m0 403.15 16.78-71.52 1.12-4.61 14.55-56.62 1.12-4.06 11.18-37.7 1.12-3.46 10.07-28.4 1.12-2.84 8.95-20.1 1.12-2.14 5.6-8.69 1.11-1.01 2.24-.38 1.12.88 2.24 3.74 1.12 2.54 6.71 18.7 1.12 3.33 10.07 28.08 1.12 2.62 4.47 8.69 1.12 1.66 3.36 3.54 1.12.67 2.24.54" class="js-line" style="vector-effect:none;fill:none;stroke:#636efa;stroke-opacity:1;stroke-width:1.5px;opacity:1"/></g></g><g class="trace scatter trace7f7839" style="stroke-miterlimit:2;opacity:1"><g class="lines"><path d="m0 154.17 16.78-.82 1.12-.11 19.02-2.76 1.12-.2 35.8-7.09 1.12.7 2.24 1.47 1.12-.14 3.36-2.39 1.12-1.07 11.18-1.43 1.12-.11 16.79-.78" class="js-line" style="vector-effect:none;fill:none;stroke:#636efa;stroke-opacity:1;stroke-width:1.5px;opacity:1"/></g></g><g class="trace scatter trace21924c" style="stroke-miterlimit:2;opacity:1"><g class="lines"><path d="m0 154.17 16.78-.82 1.12-.11 19.02-2.76 1.12-.2 53.71-9.72 1.12-.12 16.78-.99 1.12-.01h1.12" class="js-line" style="vector-effect:none;fill:none;stroke:#636efa;stroke-opacity:1;stroke-width:1.5px;opacity:1"/></g></g><g class="trace scatter trace2b593a" style="stroke-miterlimit:2;opacity:1"><g class="lines"><path d="m0 154.17 4.48-.92 1.11-.51 4.48-3.06 1.12-1 6.71-7.51 1.12-1.44 16.78-21.22 1.12-1.07 5.6-4.01 1.12-.51 4.47-.91 1.12.06 4.48 1.5 1.11.69 4.48 4.03 1.12 1.33 5.59 8.36 1.12 1.98 6.71 12.39 1.12.64 7.84-1.28 1.11-1.06 10.07-8.96 1.12-.78 6.72-3.66 1.12-.43 5.59-1.4 1.12-.13 2.24-.1" class="js-line" style="vector-effect:none;fill:none;stroke:#636efa;stroke-opacity:1;stroke-width:1.5px;opacity:1"/></g></g><g class="trace scatter traced8f4eb" style="stroke-miterlimit:2;opacity:1"><g class="lines"><path d="m111.89 297.63 9.49-.75.4-.07 8.3-1.99.4-.13 8.7-3.66.4-.21 8.3-5.49.4-.31 3.16-2.76" class="js-line" style="vector-effect:none;fill:none;stroke:#636efa;stroke-opacity:1;stroke-width:1.5px;opacity:1"/></g></g><g class="trace scatter tracedecdcd" style="stroke-miterlimit:2;opacity:1"><g class="lines"><path d="m111.89 297.63 3.16-.77.4-.2 3.56-2.85.39-.42 4.35-5.95.4-.65 6.33-12.28.39-.87 8.71-20.94.39-1.01 2.38-6.12.39.23.4.23 8.3 5.51" class="js-line" style="vector-effect:none;fill:none;stroke:#636efa;stroke-opacity:1;stroke-width:1.5px;opacity:1"/></g></g><g class="trace scatter trace592c55" style="stroke-miterlimit:2;opacity:1"><g class="lines"><path d="m111.89 236.61 8.7.75.39.07 8.71 2.28.39.14 8.71 3.78.39.2 3.17 1.74.39-1.02 8.7-22.71" class="js-line" style="vector-effect:none;fill:none;stroke:#636efa;stroke-opacity:1;stroke-width:1.5px;opacity:1"/></g></g><g class="trace scatter trace050fd6" style="stroke-miterlimit:2;opacity:1"><g class="lines"><path d="m111.89 139.44 7.51.75.4.09 7.12 2.18.39.17 7.12 3.61.4.24 7.52 5.32.39.33 7.91 7.24.4.4.39.41" class="js-line" style="vector-effect:none;fill:none;stroke:#636efa;stroke-opacity:1;stroke-width:1.5px;opacity:1"/></g></g><g class="trace scatter trace2c4cb2" style="stroke-miterlimit:2;opacity:1"><g class="lines"><path d="m111.89 139.44 35.6.4.39.05 3.56.55" class="js-line" style="vector-effect:none;fill:none;stroke:#636efa;stroke-opacity:1;stroke-width:1.5px;opacity:1"/></g></g><g class="trace scatter trace9dc785" style="stroke-miterlimit:2;opacity:1"><g class="lines"><path d="m111.89 125.19 16.61.75.4.03 19.38 2.71.39.07 2.77.53" class="js-line" style="vector-effect:none;fill:none;stroke:#636efa;stroke-opacity:1;stroke-width:1.5px;opacity:1"/></g></g><g class="trace scatter trace975944" style="stroke-miterlimit:2;opacity:1"><g class="lines"><path d="m151.44 282.26 7.12-7.71 1.19-1.5 5.93-8.45 1.19.05 13.06 13.62 1.18 1.34 15.43 18.63 1.19 1.52 21.36 28.82 1.18 1.67 29.67 42.92 1.19 1.75 18.99 28.23" class="js-line" style="vector-effect:none;fill:none;stroke:#636efa;stroke-opacity:1;stroke-width:1.5px;opacity:1"/></g></g><g class="trace scatter trace59ad1f" style="stroke-miterlimit:2;opacity:1"><g class="lines"><path d="m151.44 251.54 10.68 8.7 1.19 1.07 2.37 2.21 1.19-.79 8.31-14.66 1.19-2.27 10.68-19.87 1.18-1.35 2.38-.64 1.18.78 3.56 4.79 1.19 1.99 8.31 15.81 1.18 2.41 14.24 30.67 1.19 2.67 18.99 44.86 1.19 2.91 28.48 72.32" class="js-line" style="vector-effect:none;fill:none;stroke:#636efa;stroke-opacity:1;stroke-width:1.5px;opacity:1"/></g></g><g class="trace scatter trace122579" style="stroke-miterlimit:2;opacity:1"><g class="lines"><path d="m151.44 221.84 14.24-34.89 1.19-2.6 1.19-2.52 1.18.35 17.81 25.95 1.18.89 2.38-.21 1.18-1.17 3.56-5.73 1.19-2.22 4.75-8.07 1.18 2.22 8.31 17.33 1.19 2.72L222.65 241l1.18 3.29 10.69 31.89 1.18 3.78 13.06 44.17 1.18 4.21 20.18 74.81" class="js-line" style="vector-effect:none;fill:none;stroke:#636efa;stroke-opacity:1;stroke-width:1.5px;opacity:1"/></g></g><g class="trace scatter tracec43323" style="stroke-miterlimit:2;opacity:1"><g class="lines"><path d="m151.44 160.18 9.5 10.86 1.18 1.51 5.94 7.95 1.18-1.1 4.75-8.32 1.19-1.56 3.56-2.77 1.19-.22 2.37.51 1.19.63 4.74 4.25 1.19 1.37 5.93 8.23 1.19 1.88 4.75 7.17 1.18-2.25 9.5-16.33 1.18-1.77 7.12-9.01 1.19-1.22 5.93-4.93 1.19-.75 5.94-2.64 1.18-.33 2.38-.11 1.18.2 16.62 2.14 1.18.09 13.06.51" class="js-line" style="vector-effect:none;fill:none;stroke:#636efa;stroke-opacity:1;stroke-width:1.5px;opacity:1"/></g></g><g class="trace scatter trace9d0e2c" style="stroke-miterlimit:2;opacity:1"><g class="lines"><path d="m151.44 140.44 9.5 2.43 1.18.4 11.87 3.79 1.19-.01 3.56-1.38 1.19-.96 5.93-6.81 1.19.34 40.34 10.85 1.19.26 9.5 1.54 1.18-.15 7.12.12 1.19.14 22.55 3.17" class="js-line" style="vector-effect:none;fill:none;stroke:#636efa;stroke-opacity:1;stroke-width:1.5px;opacity:1"/></g></g><g class="trace scatter trace1f96eb" style="stroke-miterlimit:2;opacity:1"><g class="lines"><path d="m151.44 129.28 21.37 5.01 1.18.32 11.87 2.8 1.19-1.67 9.49-12.53 1.19-1.33 5.93-5.56 1.19-.87 4.74-2.63 1.19-.43 4.75-.82 1.18.02 4.75 1.02 1.19.47 5.93 3.62 1.19.96 7.12 7.02 1.19 1.34 18.98 21.86 1.19 1.03 5.93 3.89 1.19.49 4.75.88" class="js-line" style="vector-effect:none;fill:none;stroke:#636efa;stroke-opacity:1;stroke-width:1.5px;opacity:1"/></g></g><g class="trace scatter trace341f27" style="stroke-miterlimit:2;opacity:1"><g class="lines"><path d="m270.12 403.15 13.56-30.77.97-2.17 23.26-50.01.97-1.98 16.47-32.16.97-1.8 16.47-28.81.97-1.6 14.53-22.27.97-1.31 4.85-5.44.97-.68 1.93-.58" class="js-line" style="vector-effect:none;fill:none;stroke:#636efa;stroke-opacity:1;stroke-width:1.5px;opacity:1"/></g></g><g class="trace scatter tracea7d223" style="stroke-miterlimit:2;opacity:1"><g class="lines"><path d="m270.12 403.15 13.56-30.77.97-2.17 23.26-50.01.97-1.98 16.47-32.16.97-1.8 16.47-28.81.97-1.6 14.53-22.27.97-1.31 4.85-5.44.97-.68 1.93-.58" class="js-line" style="vector-effect:none;fill:none;stroke:#636efa;stroke-opacity:1;stroke-width:1.5px;opacity:1"/></g></g><g class="trace scatter trace0e0fd8" style="stroke-miterlimit:2;opacity:1"><g class="lines"><path d="m270.12 403.15 16.47-58.44.97-3.37 19.38-64.62.97-3.06 15.5-46.17.97-2.69 12.6-32.62.96-2.32 3.88-8.95.97-.28 21.32 27.15.97.65 1.93.56" class="js-line" style="vector-effect:none;fill:none;stroke:#636efa;stroke-opacity:1;stroke-width:1.5px;opacity:1"/></g></g><g class="trace scatter tracebe6fab" style="stroke-miterlimit:2;opacity:1"><g class="lines"><path d="m270.12 154.17 10.66-.79.96-.13 18.41-2.06.97.03 6.79.89.97.24 6.78 2.62.97.5 6.78 4.51.97.77 7.75 7.29.97 1.04 9.69 11.55.97 1.25 20.35 25.9.97.65 1.93.56" class="js-line" style="vector-effect:none;fill:none;stroke:#636efa;stroke-opacity:1;stroke-width:1.5px;opacity:1"/></g></g><g class="trace scatter tracec76666" style="stroke-miterlimit:2;opacity:1"><g class="lines"><path d="m270.12 154.17 10.66-.79.96-.13 18.41-2.06.97.03 6.79.89.97.24 6.78 2.62.97.5 6.78 4.51.97.77 7.75 7.29.97 1.04 8.72 10.32.97-.65 9.69-19.71.97-1.76 6.78-10.78.97-1.23 3.88-3.52.96-.38.97-.13" class="js-line" style="vector-effect:none;fill:none;stroke:#636efa;stroke-opacity:1;stroke-width:1.5px;opacity:1"/></g></g><g class="trace scatter trace997296" style="stroke-miterlimit:2;opacity:1"><g class="lines"><path d="m270.12 154.17 4.84-.86.97-.38 4.85-2.81.96-.74 6.79-6.46.97-1.07 14.53-17.59.97-1.14 8.72-9.05.97-.84 6.78-4.78.97-.51 5.81-2.12.97-.2 5.82-.21.97.12 5.81 1.62.97.42 6.78 3.94.97.7 15.5 11.66.97.1" class="js-line" style="vector-effect:none;fill:none;stroke:#636efa;stroke-opacity:1;stroke-width:1.5px;opacity:1"/></g></g><g class="trace scatter traceb8a00d" style="stroke-miterlimit:2;opacity:1"><g class="lines"><path d="m367.01 223.57 3.17.67.79.35 5.54 3.67.79.62 26.11 20.68.79.52 11.07 6.2.8.36 9.49 3.71.79.25 9.49 2.28.8.13 9.49.75" class="js-line" style="vector-effect:none;fill:none;stroke:#636efa;stroke-opacity:1;stroke-width:1.5px;opacity:1"/></g></g><g class="trace scatter tracea27aa2" style="stroke-miterlimit:2;opacity:1"><g class="lines"><path d="m367.01 223.57 3.96.89.79.36 5.54 3.48.79.58 30.85 23.06.8.48 11.07 5.75.79.34 10.29 3.45.79.2 9.49 1.46.79.05 3.17.09" class="js-line" style="vector-effect:none;fill:none;stroke:#636efa;stroke-opacity:1;stroke-width:1.5px;opacity:1"/></g></g><g class="trace scatter traceb1aa4d" style="stroke-miterlimit:2;opacity:1"><g class="lines"><path d="m367.01 208.99 3.96-.89.79-.37 6.33-4.13.79-.6 13.45-9.89.79-.41 6.33-2.31.79-.16 5.54-.27.79.07 7.12 1.65.79.27 23.74 8.32.79.15 7.12.61" class="js-line" style="vector-effect:none;fill:none;stroke:#636efa;stroke-opacity:1;stroke-width:1.5px;opacity:1"/></g></g><g class="trace scatter trace886cc6" style="stroke-miterlimit:2;opacity:1"><g class="lines"><path d="m367.01 208.99 3.17-.66.79-.34 5.54-3.58.79-.6 22.15-16.32.79-.47 7.91-3.82.79-.28 7.13-1.6.79-.09 8.7.04.79.07 19.78 1.63" class="js-line" style="vector-effect:none;fill:none;stroke:#636efa;stroke-opacity:1;stroke-width:1.5px;opacity:1"/></g></g><g class="trace scatter trace04298c" style="stroke-miterlimit:2;opacity:1"><g class="lines"><path d="m367.01 141.24 9.5.66.79.11 20.57 2.66.79-.02 7.12-1.01.79-.19 9.5-3.28.79-.32 16.61-5.97.79-.19 8.7-1.36.8-.05 2.37-.06" class="js-line" style="vector-effect:none;fill:none;stroke:#636efa;stroke-opacity:1;stroke-width:1.5px;opacity:1"/></g></g><g class="trace scatter trace656cd1" style="stroke-miterlimit:2;opacity:1"><g class="lines"><path d="m367.01 123.97 9.5.74.79.13 11.87 2.84.79.24 19.78 5.36.79.12 8.7.57.79-.02 14.24-1.11.79-.07 11.08-.55" class="js-line" style="vector-effect:none;fill:none;stroke:#636efa;stroke-opacity:1;stroke-width:1.5px;opacity:1"/></g></g><g class="trace scatter trace1c6581" style="stroke-miterlimit:2;opacity:1"><g class="lines"><path d="m446.13 263.76 29.65 24.09.56.38 9.51 5.47.56.25 7.83 2.74.56.13 7.27.81" class="js-line" style="vector-effect:none;fill:none;stroke:#636efa;stroke-opacity:1;stroke-width:1.5px;opacity:1"/></g></g><g class="trace scatter trace7e397d" style="stroke-miterlimit:2;opacity:1"><g class="lines"><path d="m446.13 263.76 15.1-11.76.56-.39 7.84-5.04.55.12 13.99 31.2.56 1.09 6.71 11.13.56.73 4.48 4.63.56.41 3.91 1.66.56.07.56.02" class="js-line" style="vector-effect:none;fill:none;stroke:#636efa;stroke-opacity:1;stroke-width:1.5px;opacity:1"/></g></g><g class="trace scatter trace1316ea" style="stroke-miterlimit:2;opacity:1"><g class="lines"><path d="m446.13 201.03 1.68.61.56.45 2.79 3.58.56.9 5.6 10.75.56 1.19 12.3 27.73.56-.32 10.07-4.94.56-.22 8.95-2.8.56-.12 8.95-1.18.56-.02 1.68-.03" class="js-line" style="vector-effect:none;fill:none;stroke:#636efa;stroke-opacity:1;stroke-width:1.5px;opacity:1"/></g></g><g class="trace scatter trace37397e" style="stroke-miterlimit:2;opacity:1"><g class="lines"><path d="m446.13 182.97 2.24-.89.56-.46 3.91-4.62.56-.76 14.55-18.67.56-.61 8.39-7.79.56-.43 7.27-4.74.56-.29 7.27-2.91.56-.16 7.27-1.16.56-.02 1.12-.02" class="js-line" style="vector-effect:none;fill:none;stroke:#636efa;stroke-opacity:1;stroke-width:1.5px;opacity:1"/></g></g><g class="trace scatter traceac928d" style="stroke-miterlimit:2;opacity:1"><g class="lines"><path d="m446.13 132.22 33.01 5.76.55.06 16.23 1.29.56.02 5.59.09" class="js-line" style="vector-effect:none;fill:none;stroke:#636efa;stroke-opacity:1;stroke-width:1.5px;opacity:1"/></g></g><g class="trace scatter trace170d1c" style="stroke-miterlimit:2;opacity:1"><g class="lines"><path d="m446.13 132.22 31.33-5.43.56-.07 16.78-1.39.56-.02 6.71-.12" class="js-line" style="vector-effect:none;fill:none;stroke:#636efa;stroke-opacity:1;stroke-width:1.5px;opacity:1"/></g></g><g class="trace scatter trace57b74a" style="stroke-miterlimit:2;opacity:1"><g class="lines"><path d="m0 403 25.73-56.34 1.12-2.29 13.43-25.75 1.12-1.99 12.31-19.95 1.11-1.64 10.07-13.29 1.12-1.31 10.07-10.37 1.12-.99 8.95-6.75 1.12-.69 7.83-4 1.12-.45 7.83-2.25 1.12-.2 6.72-.55" class="js-line" style="vector-effect:none;fill:none;stroke:#ef553b;stroke-opacity:1;stroke-dasharray:3px,3px;stroke-width:1.5px;opacity:1"/></g></g><g class="trace scatter trace651fc5" style="stroke-miterlimit:2;opacity:1"><g class="lines"><path d="m0 403 25.73-56.34 1.12-2.29 13.43-25.75 1.12-1.99 12.31-19.95 1.11-1.64 10.07-13.29 1.12-1.31 10.07-10.37 1.12-.99 8.95-6.75 1.12-.69 7.83-4 1.12-.45 7.83-2.25 1.12-.2 6.72-.55" class="js-line" style="vector-effect:none;fill:none;stroke:#ef553b;stroke-opacity:1;stroke-dasharray:3px,3px;stroke-width:1.5px;opacity:1"/></g></g><g class="trace scatter trace88aa4c" style="stroke-miterlimit:2;opacity:1"><g class="lines"><path d="m0 403 24.61-123.66 1.12-5.26 13.43-59.06 1.12-4.54 11.19-41.7 1.12-3.78 8.95-27.55 1.12-3.1 7.83-19.41 1.12-2.43 5.59-10.11 1.12-1.24 1.12-.57 1.12.47 2.24 4.14 1.11 3.02 16.79 49.08 1.12 2.38 4.47 7.33 1.12 1.22 3.36 2.07 1.12.14" class="js-line" style="vector-effect:none;fill:none;stroke:#ef553b;stroke-opacity:1;stroke-dasharray:3px,3px;stroke-width:1.5px;opacity:1"/></g></g><g class="trace scatter trace31d0da" style="stroke-miterlimit:2;opacity:1"><g class="lines"><path d="m0 96.21 14.55-.77 1.11-.12 20.14-3.08 1.12-.2 26.86-4.34 1.11-.14 13.43-1.26 1.12.57 2.24 1.28 1.12-.63 2.23-1.6 1.12-.06 25.74-.48" class="js-line" style="vector-effect:none;fill:none;stroke:#ef553b;stroke-opacity:1;stroke-dasharray:3px,3px;stroke-width:1.5px;opacity:1"/></g></g><g class="trace scatter tracee54303" style="stroke-miterlimit:2;opacity:1"><g class="lines"><path d="m0 96.21 14.55-.77 1.11-.12 20.14-3.08 1.12-.2 26.86-4.34 1.11-.14 20.14-1.64 1.12-.06 25.74-.48" class="js-line" style="vector-effect:none;fill:none;stroke:#ef553b;stroke-opacity:1;stroke-dasharray:3px,3px;stroke-width:1.5px;opacity:1"/></g></g><g class="trace scatter traced4f036" style="stroke-miterlimit:2;opacity:1"><g class="lines"><path d="m0 96.21 3.36-.67 1.12-.51 4.47-3.43 1.12-1.18 5.59-7.44 1.12-1.75 11.19-19.41 1.12-1.92 7.83-11.88 1.12-1.38 4.48-4.44 1.12-.81 4.47-1.93 1.12-.13 3.36.49 1.12.46 3.35 2.32 1.12 1.08 4.48 5.84 1.12 1.83 5.59 11.21 1.12 2.62 8.95 21.05 1.12-.07 4.47-.89 1.12-1.29 8.95-9.31 1.12-.92 6.72-4.2 1.11-.48 5.6-1.43 1.12-.09 1.12-.04" class="js-line" style="vector-effect:none;fill:none;stroke:#ef553b;stroke-opacity:1;stroke-dasharray:3px,3px;stroke-width:1.5px;opacity:1"/></g></g><g class="trace scatter traced2d796" style="stroke-miterlimit:2;opacity:1"><g class="lines"><path d="m111.89 254.19 6.33-.7.39-.09 7.12-2.53.4-.19 7.91-4.87.39-.3 7.52-6.56.4-.4 8.7-9.98.39-.51" class="js-line" style="vector-effect:none;fill:none;stroke:#ef553b;stroke-opacity:1;stroke-dasharray:3px,3px;stroke-width:1.5px;opacity:1"/></g></g><g class="trace scatter tracebe4660" style="stroke-miterlimit:2;opacity:1"><g class="lines"><path d="m111.89 254.19 2.77-.77.39-.24 2.77-2.49.4-.47 3.95-6.24.4-.77 5.14-11.89.39-1.05 6.73-19.94.4-1.27 8.3-28.11.4.2.39.27 7.12 5.45" class="js-line" style="vector-effect:none;fill:none;stroke:#ef553b;stroke-opacity:1;stroke-dasharray:3px,3px;stroke-width:1.5px;opacity:1"/></g></g><g class="trace scatter trace45ef7e" style="stroke-miterlimit:2;opacity:1"><g class="lines"><path d="m111.89 170.44 8.3.71.4.07 8.31 2.2.39.14 9.1 4.17.4.22 4.74 2.93.4-1.31 7.51-26.16" class="js-line" style="vector-effect:none;fill:none;stroke:#ef553b;stroke-opacity:1;stroke-dasharray:3px,3px;stroke-width:1.5px;opacity:1"/></g></g><g class="trace scatter trace529b3a" style="stroke-miterlimit:2;opacity:1"><g class="lines"><path d="m111.89 85.38 10.28.97.4.07 8.7 2.5.4.15 8.7 4.33.39.24 7.91 5.81.4.34 2.37 2.14" class="js-line" style="vector-effect:none;fill:none;stroke:#ef553b;stroke-opacity:1;stroke-dasharray:3px,3px;stroke-width:1.5px;opacity:1"/></g></g><g class="trace scatter tracef754d0" style="stroke-miterlimit:2;opacity:1"><g class="lines"><path d="m111.89 85.38 9.09-.71.4-.06 11.47-2.45.4-.1 15.03-2.77.39-.03 2.77-.06" class="js-line" style="vector-effect:none;fill:none;stroke:#ef553b;stroke-opacity:1;stroke-dasharray:3px,3px;stroke-width:1.5px;opacity:1"/></g></g><g class="trace scatter trace8bd574" style="stroke-miterlimit:2;opacity:1"><g class="lines"><path d="m111.89 67.51 20.96.74.4.03 18.19 2.01" class="js-line" style="vector-effect:none;fill:none;stroke:#ef553b;stroke-opacity:1;stroke-dasharray:3px,3px;stroke-width:1.5px;opacity:1"/></g></g><g class="trace scatter trace2b4a65" style="stroke-miterlimit:2;opacity:1"><g class="lines"><path d="m151.44 228.06 8.31-11.96 1.19-1.88 5.93-10 1.19-.19 10.68 14.24 1.19 1.73 11.86 18.82 1.19 2.03 13.05 23.77 1.19 2.28 17.8 36.18 1.19 2.52 29.67 65.29 1.18 2.67L270.12 403" class="js-line" style="vector-effect:none;fill:none;stroke:#ef553b;stroke-opacity:1;stroke-dasharray:3px,3px;stroke-width:1.5px;opacity:1"/></g></g><g class="trace scatter tracea4a062" style="stroke-miterlimit:2;opacity:1"><g class="lines"><path d="m151.44 186.87 9.5 9.05 1.18 1.27 4.75 5.41 1.19-.48 13.05-22.25 1.19-1.44 2.37-1.98 1.19-.41 2.37.5 1.19.91 3.56 4.75 1.19 2.09 5.93 12.52 1.19 2.79 11.86 30.66 1.19 3.27 16.61 47.91 1.19 3.55 23.74 73 1.18 3.73L270.12 403" class="js-line" style="vector-effect:none;fill:none;stroke:#ef553b;stroke-opacity:1;stroke-dasharray:3px,3px;stroke-width:1.5px;opacity:1"/></g></g><g class="trace scatter trace51f608" style="stroke-miterlimit:2;opacity:1"><g class="lines"><path d="m151.44 153.41 11.87-38.1 1.19 1.57 18.99 26 1.18.72 2.38.33 1.18-.44 2.38-1.95 1.18-1.41 5.94-9.17 1.18-.13 8.31 21 1.19 3.3 9.49 28.98 1.19 3.94 11.86 42.81 1.19 4.6 13.06 53.91 1.18 5.15 18.99 86.3 1.19 5.54 3.56 16.64" class="js-line" style="vector-effect:none;fill:none;stroke:#ef553b;stroke-opacity:1;stroke-dasharray:3px,3px;stroke-width:1.5px;opacity:1"/></g></g><g class="trace scatter trace649ae9" style="stroke-miterlimit:2;opacity:1"><g class="lines"><path d="m151.44 101.93 8.31 8.9 1.19 1.45 2.37 2.24 1.19-3.55 5.93-15.31 1.19-1.83 2.37-1.1 1.19.43 3.56 2.99 1.19 1.32 5.93 8.11 1.19 1.89 7.12 13.06 1.18 2.46 3.56 5.94 1.19-2.03 10.68-17.04 1.19-1.64 7.12-8.32 1.18-1.12 5.94-4.43 1.18-.65 5.94-2.18 1.19.24 15.42 2.95 1.19.17 14.24 1.24 1.19.04 3.56.05" class="js-line" style="vector-effect:none;fill:none;stroke:#ef553b;stroke-opacity:1;stroke-dasharray:3px,3px;stroke-width:1.5px;opacity:1"/></g></g><g class="trace scatter trace96912f" style="stroke-miterlimit:2;opacity:1"><g class="lines"><path d="m151.44 79.2 7.12.82 1.19.29 10.68 3.22 1.19-.5 2.37-3.13 1.19-2.33 1.19-2.26 1.18.3 22.55 6.41 1.19.36 32.04 9.1 1.19-.19 5.93-.29 1.19.09 8.3 1.53 1.19.3 15.43 3.14 1.18.08 2.38.07" class="js-line" style="vector-effect:none;fill:none;stroke:#ef553b;stroke-opacity:1;stroke-dasharray:3px,3px;stroke-width:1.5px;opacity:1"/></g></g><g class="trace scatter trace763471" style="stroke-miterlimit:2;opacity:1"><g class="lines"><path d="m151.44 70.29 18.99 3.59 1.19.28 4.75.87 1.18-2.61 9.5-19.44 1.18-2.08 7.12-10.44 1.19-1.39 5.93-5.28 1.19-.72 4.75-1.75 1.18-.15 4.75.54 1.19.41 4.74 2.75 1.19.95 5.93 6.18 1.19 1.5 7.12 10.44 1.19 1.93 18.99 30.58 1.18 1.47 5.94 5.72 1.18.78 4.75 1.72 1.19.07" class="js-line" style="vector-effect:none;fill:none;stroke:#ef553b;stroke-opacity:1;stroke-dasharray:3px,3px;stroke-width:1.5px;opacity:1"/></g></g><g class="trace scatter trace4e82c4" style="stroke-miterlimit:2;opacity:1"><g class="lines"><path d="m270.12 403 32.94-93.22.97-2.62 20.35-52.48.97-2.37 16.47-38.02.97-2.09 11.63-22.99.97-1.68 5.81-8.56.97-1.06 2.91-2.18.96-.33.97-.12" class="js-line" style="vector-effect:none;fill:none;stroke:#ef553b;stroke-opacity:1;stroke-dasharray:3px,3px;stroke-width:1.5px;opacity:1"/></g></g><g class="trace scatter tracecd4b76" style="stroke-miterlimit:2;opacity:1"><g class="lines"><path d="m270.12 403 32.94-93.22.97-2.62 20.35-52.48.97-2.37 16.47-38.02.97-2.09 11.63-22.99.97-1.68 5.81-8.56.97-1.06 2.91-2.18.96-.33.97-.12" class="js-line" style="vector-effect:none;fill:none;stroke:#ef553b;stroke-opacity:1;stroke-dasharray:3px,3px;stroke-width:1.5px;opacity:1"/></g></g><g class="trace scatter tracebf2427" style="stroke-miterlimit:2;opacity:1"><g class="lines"><path d="m270.12 403 32.94-144.7.97-4.05 16.47-65.38.97-3.61 12.6-43.81.97-3.09 6.78-20.38.97-1.19 19.38 24.56.97.76 2.9 1.38.97.1" class="js-line" style="vector-effect:none;fill:none;stroke:#ef553b;stroke-opacity:1;stroke-dasharray:3px,3px;stroke-width:1.5px;opacity:1"/></g></g><g class="trace scatter trace56c2ef" style="stroke-miterlimit:2;opacity:1"><g class="lines"><path d="m270.12 96.21 9.69-.81.97-.15 23.25-3.71.97.01 6.78.87.97.24 6.78 2.67.97.52 6.79 4.61.96.8 7.76 7.51.97 1.07 10.65 13.27.97 1.31 12.6 16.04.97.89 3.87 2.14.97.1" class="js-line" style="vector-effect:none;fill:none;stroke:#ef553b;stroke-opacity:1;stroke-dasharray:3px,3px;stroke-width:1.5px;opacity:1"/></g></g><g class="trace scatter trace78e931" style="stroke-miterlimit:2;opacity:1"><g class="lines"><path d="m270.12 96.21 9.69-.81.97-.15 23.25-3.71.97.01 6.78.87.97.24 6.78 2.67.97.52 6.79 4.61.96.8 7.76 7.51.97 1.07 4.84 5.73.97-.29 7.75-19.48.97-2.12 5.81-10.87.97-1.44 3.88-4.5.97-.76 2.9-1.29.97-.09" class="js-line" style="vector-effect:none;fill:none;stroke:#ef553b;stroke-opacity:1;stroke-dasharray:3px,3px;stroke-width:1.5px;opacity:1"/></g></g><g class="trace scatter tracea90470" style="stroke-miterlimit:2;opacity:1"><g class="lines"><path d="m270.12 96.21 3.87-.73.97-.41 3.88-2.49.97-.83 4.84-5.24.97-1.24 7.75-11.72.97-1.62 21.32-35.21.97-1.3 6.78-7.83.97-.92 5.81-4.4.97-.55 5.82-2.14.96-.17 4.85-.12.97.12 5.81 1.56.97.39 14.54 5.9.96.1.97.04" class="js-line" style="vector-effect:none;fill:none;stroke:#ef553b;stroke-opacity:1;stroke-dasharray:3px,3px;stroke-width:1.5px;opacity:1"/></g></g><g class="trace scatter trace1f2818" style="stroke-miterlimit:2;opacity:1"><g class="lines"><path d="m367.01 175.28 4.75.73.79.25 6.33 2.98.79.46 28.48 16.94.79.34 9.5 3.22.79.2 10.28 1.75.8.08 15.03.61h.79" class="js-line" style="vector-effect:none;fill:none;stroke:#ef553b;stroke-opacity:1;stroke-dasharray:3px,3px;stroke-width:1.5px;opacity:1"/></g></g><g class="trace scatter trace2269d6" style="stroke-miterlimit:2;opacity:1"><g class="lines"><path d="m367.01 175.28 6.33.76.79.2 7.92 2.82.79.34 17.4 8.74.79.41 18.2 8.38.79.31 11.87 3.8.79.18 9.49 1.47.79.05 3.17.1" class="js-line" style="vector-effect:none;fill:none;stroke:#ef553b;stroke-opacity:1;stroke-dasharray:3px,3px;stroke-width:1.5px;opacity:1"/></g></g><g class="trace scatter trace0b4385" style="stroke-miterlimit:2;opacity:1"><g class="lines"><path d="m367.01 143.59 5.54-.82.79-.24 6.33-2.89.79-.46 10.29-7.12.79-.6 13.45-9.15.79-.41 7.12-2.7.79-.18 3.96.01.79.24 5.54 2.45.79.45 15.03 8.06.79.25 5.54.81" class="js-line" style="vector-effect:none;fill:none;stroke:#ef553b;stroke-opacity:1;stroke-dasharray:3px,3px;stroke-width:1.5px;opacity:1"/></g></g><g class="trace scatter trace8d28b2" style="stroke-miterlimit:2;opacity:1"><g class="lines"><path d="m367.01 143.59 4.75-.84.79-.3 5.54-2.99.79-.54 10.29-8.02.79-.64 11.07-8.03.79-.46 6.33-2.7.79-.2 5.54-.42.79.09 5.54-.12.79.03 10.29 1.22.79.12 13.45 1.16" class="js-line" style="vector-effect:none;fill:none;stroke:#ef553b;stroke-opacity:1;stroke-dasharray:3px,3px;stroke-width:1.5px;opacity:1"/></g></g><g class="trace scatter tracee00558" style="stroke-miterlimit:2;opacity:1"><g class="lines"><path d="m367.01 74.73 11.87.85.79.12 14.24 2.88.79.18 11.87 2.03.79.06 7.91-.38.8-.13 9.49-2.38.79-.23 12.66-3.14.79-.11 6.33-.45" class="js-line" style="vector-effect:none;fill:none;stroke:#ef553b;stroke-opacity:1;stroke-dasharray:3px,3px;stroke-width:1.5px;opacity:1"/></g></g><g class="trace scatter tracef15a50" style="stroke-miterlimit:2;opacity:1"><g class="lines"><path d="m367.01 27.4 5.54.78.79.24 5.54 2.53.79.48 6.33 4.81.79.71 8.7 9.1.8.91 16.61 18.45.79.69 6.33 4.34.79.4 6.33 2.13.79.16 8.71.81.79.03 8.7.06" class="js-line" style="vector-effect:none;fill:none;stroke:#ef553b;stroke-opacity:1;stroke-dasharray:3px,3px;stroke-width:1.5px;opacity:1"/></g></g><g class="trace scatter trace6747a7" style="stroke-miterlimit:2;opacity:1"><g class="lines"><path d="m446.13 202.84 15.66 18.72.56.69 15.67 18.2.56.57 7.83 6.99.56.41 6.15 3.69.56.25 5.59 1.62.56.08 2.24.13" class="js-line" style="vector-effect:none;fill:none;stroke:#ef553b;stroke-opacity:1;stroke-dasharray:3px,3px;stroke-width:1.5px;opacity:1"/></g></g><g class="trace scatter trace61d825" style="stroke-miterlimit:2;opacity:1"><g class="lines"><path d="m446.13 202.84 11.19-11.52.56-.52 10.07-8.24.56.9 17.34 49.02.56 1.33 5.59 11.45.56.93 4.48 5.69.56.48 3.35 1.71.56.09.56.03" class="js-line" style="vector-effect:none;fill:none;stroke:#ef553b;stroke-opacity:1;stroke-dasharray:3px,3px;stroke-width:1.5px;opacity:1"/></g></g><g class="trace scatter tracecbdcd4" style="stroke-miterlimit:2;opacity:1"><g class="lines"><path d="m446.13 131.29 1.68 1.07.56.73 3.35 6.2.56 1.2 7.28 17.76.55 1.49 8.4 22.42.56-.39 8.95-5.34.56-.28 8.95-3.53.56-.17 8.39-1.69.56-.06 5.03-.26" class="js-line" style="vector-effect:none;fill:none;stroke:#ef553b;stroke-opacity:1;stroke-dasharray:3px,3px;stroke-width:1.5px;opacity:1"/></g></g><g class="trace scatter trace212f42" style="stroke-miterlimit:2;opacity:1"><g class="lines"><path d="m446.13 120.95 1.68-.9.56-.61 5.59-7.98.56-.8 7.83-9.74.56-.59 6.72-5.9.55-.4 7.28-4.18.56-.24 7.83-2.56.56-.12 9.51-1.33.56-.04 5.59-.18" class="js-line" style="vector-effect:none;fill:none;stroke:#ef553b;stroke-opacity:1;stroke-dasharray:3px,3px;stroke-width:1.5px;opacity:1"/></g></g><g class="trace scatter traceb8fb30" style="stroke-miterlimit:2;opacity:1"><g class="lines"><path d="m446.13 74.03 42.52 10.4.56.07 11.18.87.56.01h1.12" class="js-line" style="vector-effect:none;fill:none;stroke:#ef553b;stroke-opacity:1;stroke-dasharray:3px,3px;stroke-width:1.5px;opacity:1"/></g></g><g class="trace scatter tracefd117d" style="stroke-miterlimit:2;opacity:1"><g class="lines"><path d="m446.13 74.03 17.9-3.73.56-.09 16.78-1.95.56-.04 20.14-.71" class="js-line" style="vector-effect:none;fill:none;stroke:#ef553b;stroke-opacity:1;stroke-dasharray:3px,3px;stroke-width:1.5px;opacity:1"/></g></g></g></g><path d="M47 443.5h504.072M47 39.5h504.072" class="xlines-above crisp" style="fill:none;stroke-width:1px;stroke:#000;stroke-opacity:1"/><path d="M47.5 40v403M550.572 40v403" class="ylines-above crisp" style="fill:none;stroke-width:1px;stroke:#000;stroke-opacity:1"/><g class="xaxislayer-above"><path d="M0 444v5" class="xtick ticks crisp" style="stroke:#444;stroke-opacity:1;stroke-width:1px" transform="translate(48)"/><path d="M0 444v5" class="xtick ticks crisp" style="stroke:#444;stroke-opacity:1;stroke-width:1px" transform="translate(159.89)"/><path d="M0 444v5" class="xtick ticks crisp" style="stroke:#444;stroke-opacity:1;stroke-width:1px" transform="translate(199.44)"/><path d="M0 444v5" class="xtick ticks crisp" style="stroke:#444;stroke-opacity:1;stroke-width:1px" transform="translate(318.12)"/><path d="M0 444v5" class="xtick ticks crisp" style="stroke:#444;stroke-opacity:1;stroke-width:1px" transform="translate(415.01)"/><path d="M0 444v5" class="xtick ticks crisp" style="stroke:#444;stroke-opacity:1;stroke-width:1px" transform="translate(494.13)"/><path d="M0 444v5" class="xtick ticks crisp" style="stroke:#444;stroke-opacity:1;stroke-width:1px" transform="translate(550.07)"/><text y="468.2" class="xtick" style="font-family:&quot;Open Sans&quot;,verdana,arial,sans-serif;font-size:16px;fill:#000;fill-opacity:1;white-space:pre;opacity:1" text-anchor="middle" transform="translate(48)">Γ</text><text y="468.2" class="xtick" style="font-family:&quot;Open Sans&quot;,verdana,arial,sans-serif;font-size:16px;fill:#000;fill-opacity:1;white-space:pre;opacity:1" text-anchor="middle" transform="translate(159.89)">X</text><text y="468.2" class="xtick" style="font-family:&quot;Open Sans&quot;,verdana,arial,sans-serif;font-size:16px;fill:#000;fill-opacity:1;white-space:pre;opacity:1" text-anchor="middle" transform="translate(199.44)">U|K</text><text y="468.2" class="xtick" style="font-family:&quot;Open Sans&quot;,verdana,arial,sans-serif;font-size:16px;fill:#000;fill-opacity:1;white-space:pre;opacity:1" text-anchor="middle" transform="translate(318.12)">Γ</text><text y="468.2" class="xtick" style="font-family:&quot;Open Sans&quot;,verdana,arial,sans-serif;font-size:16px;fill:#000;fill-opacity:1;white-space:pre;opacity:1" text-anchor="middle" transform="translate(415.01)">L</text><text y="468.2" class="xtick" style="font-family:&quot;Open Sans&quot;,verdana,arial,sans-serif;font-size:16px;fill:#000;fill-opacity:1;white-space:pre;opacity:1" text-anchor="middle" transform="translate(494.13)">W</text><text y="468.2" class="xtick" style="font-family:&quot;Open Sans&quot;,verdana,arial,sans-serif;font-size:16px;fill:#000;fill-opacity:1;white-space:pre;opacity:1" text-anchor="middle" transform="translate(550.07)">X</text></g><g class="yaxislayer-above"><path d="M47 0h-5" class="ytick ticks crisp" style="stroke:#444;stroke-opacity:1;stroke-width:1px" transform="translate(0 443)"/><path d="M47 0h-5" class="ytick ticks crisp" style="stroke:#444;stroke-opacity:1;stroke-width:1px" transform="translate(0 367.87)"/><path d="M47 0h-5" class="ytick ticks crisp" style="stroke:#444;stroke-opacity:1;stroke-width:1px" transform="translate(0 292.73)"/><path d="M47 0h-5" class="ytick ticks crisp" style="stroke:#444;stroke-opacity:1;stroke-width:1px" transform="translate(0 217.6)"/><path d="M47 0h-5" class="ytick ticks crisp" style="stroke:#444;stroke-opacity:1;stroke-width:1px" transform="translate(0 142.47)"/><path d="M47 0h-5" class="ytick ticks crisp" style="stroke:#444;stroke-opacity:1;stroke-width:1px" transform="translate(0 67.34)"/><text x="38.8" y="5.6" class="ytick" style="font-family:&quot;Open Sans&quot;,verdana,arial,sans-serif;font-size:16px;fill:#000;fill-opacity:1;white-space:pre;opacity:1" text-anchor="end" transform="translate(0 443)">0</text><text x="38.8" y="5.6" class="ytick" style="font-family:&quot;Open Sans&quot;,verdana,arial,sans-serif;font-size:16px;fill:#000;fill-opacity:1;white-space:pre;opacity:1" text-anchor="end" transform="translate(0 367.87)">1</text><text x="38.8" y="5.6" class="ytick" style="font-family:&quot;Open Sans&quot;,verdana,arial,sans-serif;font-size:16px;fill:#000;fill-opacity:1;white-space:pre;opacity:1" text-anchor="end" transform="translate(0 292.73)">2</text><text x="38.8" y="5.6" class="ytick" style="font-family:&quot;Open Sans&quot;,verdana,arial,sans-serif;font-size:16px;fill:#000;fill-opacity:1;white-space:pre;opacity:1" text-anchor="end" transform="translate(0 217.6)">3</text><text x="38.8" y="5.6" class="ytick" style="font-family:&quot;Open Sans&quot;,verdana,arial,sans-serif;font-size:16px;fill:#000;fill-opacity:1;white-space:pre;opacity:1" text-anchor="end" transform="translate(0 142.47)">4</text><text x="38.8" y="5.6" class="ytick" style="font-family:&quot;Open Sans&quot;,verdana,arial,sans-serif;font-size:16px;fill:#000;fill-opacity:1;white-space:pre;opacity:1" text-anchor="end" transform="translate(0 67.34)">5</text></g></g><g class="subplot x2y2"><g class="gridlayer"><g class="x2"><path d="M0 40v403" class="x2grid crisp" style="stroke:#d3d3d3;stroke-opacity:1;stroke-width:1px" transform="translate(594.722)"/><path d="M0 40v403" class="x2grid crisp" style="stroke:#d3d3d3;stroke-opacity:1;stroke-width:1px" transform="translate(619.952)"/><path d="M0 40v403" class="x2grid crisp" style="stroke:#d3d3d3;stroke-opacity:1;stroke-width:1px" transform="translate(645.192)"/><path d="M0 40v403" class="x2grid crisp" style="stroke:#d3d3d3;stroke-opacity:1;stroke-width:1px" transform="translate(670.422)"/></g><g class="y2"><path d="M569.482 0H695" class="y2grid crisp" style="stroke:#d3d3d3;stroke-opacity:1;stroke-width:1px" transform="translate(0 367.87)"/><path d="M569.482 0H695" class="y2grid crisp" style="stroke:#d3d3d3;stroke-opacity:1;stroke-width:1px" transform="translate(0 292.73)"/><path d="M569.482 0H695" class="y2grid crisp" style="stroke:#d3d3d3;stroke-opacity:1;stroke-width:1px" transform="translate(0 217.6)"/><path d="M569.482 0H695" class="y2grid crisp" style="stroke:#d3d3d3;stroke-opacity:1;stroke-width:1px" transform="translate(0 142.47)"/><path d="M569.482 0H695" class="y2grid crisp" style="stroke:#d3d3d3;stroke-opacity:1;stroke-width:1px" transform="translate(0 67.34)"/></g></g><g class="plot" clip-path="url(#d)" transform="translate(569.482 40)"><g class="scatterlayer mlayer"><g class="trace scatter tracef9ebb5" style="stroke-miterlimit:2;opacity:1"><g class="lines"><path d="m0 432.93.6-57.17.28-1.79-.09-5.36.09-1.79 1.93-21.44.25-1.78 2.96-19.66.48-1.78 4.56-14.3.84-1.78 3.12-5.36 1.45-1.79 3.89-1.79.81-1.78.49-3.58.29-1.78-.47-5.36.47-1.79.09-3.57-.35-1.79.84-5.36 1.11-1.78 3.38-3.58-4.15-1.78-5.32-3.58-.29-1.78 6.7-3.58-2.4-1.78-.08-1.79 2.05-1.79-.48-1.78 4.54-1.79-2.93-1.79-.06-1.78-2.11-1.79 1.57-1.79 3.59-1.78-4.86-1.79-.6-1.79.2-1.78 2.77-1.79 5.46-1.79-1.14-1.78-16.96-1.79-5.27-1.79.47-1.78 1.8-3.58 1.71-1.78 5.25-7.15 2.76-1.79 6.52-1.78 12.49-1.79-.12-1.79-9.4-1.78-.33-3.58-1.65-1.78-1.79-1.79-4.6-1.79-6.6-1.78-.88-1.79-.53-1.79-1.9-1.78.73-1.79 4.85-1.79 18.09-3.57 1.13-1.79-3.27-5.36.87-1.78-3.5-1.79-1.82-1.79 4.71-7.14 2.61-1.79 5.96-1.78 21.92-1.79 3.78-1.79-10.63-1.78 4.21-1.79 7.15-1.79-12.4-1.78-5.72-1.79-8.35-3.57-12.07-1.79 20.07-1.79 76.75-1.78-65.53-1.79-15.29-1.79-21.61-3.57-3.36-1.79-.8-3.57-.16-1.79.56-1.78 2.81-1.79 9.74-1.79-7.96-1.78-15.13-3.58-7.8-1.78-.99-1.79V75.6" class="js-line" style="vector-effect:none;fill:none;stroke:#636efa;stroke-opacity:1;stroke-width:1.5px;opacity:1"/></g></g><g class="trace scatter trace491c01" style="stroke-miterlimit:2;opacity:1"><g class="lines"><path d="m0 441.28.73-91.87.08-2.3 2.55-43.64.21-2.3 2.74-22.97.38-2.29L9 264.42l.78-2.3 2.76-6.89 2.11-2.29 1.9-13.78.02-2.3.53-6.89.4-2.3 1.37-13.78 1.71-2.3 2.83-2.29 1.51-2.3-11.57-4.59-1.3-2.3 9.45-4.6 1.97-2.29-3.25-2.3 3.79-2.3 3.65-2.29 1.01-2.3 1.35-2.3-2.64-2.29 1.65-2.3-11.72-2.3-10.41-4.59-.4-2.3-.17-4.59.24-2.3 2.08-9.19 2.48-2.29 3.89-2.3 2.07-2.3 6.27-2.29 10.93-2.3 2.15-2.3-3.13-2.29-.24-2.3-6.8-2.3-12.6-6.89-2.05-2.3-.43-2.29 2.33-2.3 11.67-2.3 6.03-2.29 2.36-2.3-4.03-2.3.08-2.29.91-2.3 2.73-2.3 4.57-2.29 3.23-2.3 14.21-2.3 41.29-2.3-32.6-2.29-3.47-2.3-14.09-2.3 9.36-2.29 17.43-2.3-23-2.3-34.05-2.29 15.61-2.3L61 71.48l-29.69-2.29-16.58-2.3L11.98 60l-.17-2.3.71-6.89.41-2.3 1.46-4.59 1.53-2.3 3.87-2.29.78-2.3-1.76-2.3 4.5-2.29-9.34-2.3-2-2.3-6.51-4.59-2.98-2.3L0 18.65V-18.1" class="js-line" style="vector-effect:none;fill:none;stroke:#ef553b;stroke-opacity:1;stroke-dasharray:3px,3px;stroke-width:1.5px;opacity:1"/></g></g></g></g><path d="M568.482 443.5H696m-127.518-404H696" class="xlines-above crisp" style="fill:none;stroke-width:1px;stroke:#000;stroke-opacity:1"/><path d="M568.982 40v403M695.5 40v403" class="ylines-above crisp" style="fill:none;stroke-width:1px;stroke:#000;stroke-opacity:1"/><g class="xaxislayer-above"><path d="M0 444v5" class="x2tick ticks crisp" style="stroke:#444;stroke-opacity:1;stroke-width:1px" transform="translate(569.482)"/><path d="M0 444v5" class="x2tick ticks crisp" style="stroke:#444;stroke-opacity:1;stroke-width:1px" transform="translate(594.722)"/><path d="M0 444v5" class="x2tick ticks crisp" style="stroke:#444;stroke-opacity:1;stroke-width:1px" transform="translate(619.952)"/><path d="M0 444v5" class="x2tick ticks crisp" style="stroke:#444;stroke-opacity:1;stroke-width:1px" transform="translate(645.192)"/><path d="M0 444v5" class="x2tick ticks crisp" style="stroke:#444;stroke-opacity:1;stroke-width:1px" transform="translate(670.422)"/><text y="468.2" class="x2tick" style="font-family:&quot;Open Sans&quot;,verdana,arial,sans-serif;font-size:16px;fill:#000;fill-opacity:1;white-space:pre;opacity:1" text-anchor="middle" transform="translate(569.482)">0</text><text y="468.2" class="x2tick" style="font-family:&quot;Open Sans&quot;,verdana,arial,sans-serif;font-size:16px;fill:#000;fill-opacity:1;white-space:pre;opacity:1" text-anchor="middle" transform="translate(594.722)">2</text><text y="468.2" class="x2tick" style="font-family:&quot;Open Sans&quot;,verdana,arial,sans-serif;font-size:16px;fill:#000;fill-opacity:1;white-space:pre;opacity:1" text-anchor="middle" transform="translate(619.952)">4</text><text y="468.2" class="x2tick" style="font-family:&quot;Open Sans&quot;,verdana,arial,sans-serif;font-size:16px;fill:#000;fill-opacity:1;white-space:pre;opacity:1" text-anchor="middle" transform="translate(645.192)">6</text><text y="468.2" class="x2tick" style="font-family:&quot;Open Sans&quot;,verdana,arial,sans-serif;font-size:16px;fill:#000;fill-opacity:1;white-space:pre;opacity:1" text-anchor="middle" transform="translate(670.422)">8</text></g><g class="yaxislayer-above"><path d="M568.482 0h-5" class="y2tick ticks crisp" style="stroke:#444;stroke-opacity:1;stroke-width:1px" transform="translate(0 443)"/><path d="M568.482 0h-5" class="y2tick ticks crisp" style="stroke:#444;stroke-opacity:1;stroke-width:1px" transform="translate(0 367.87)"/><path d="M568.482 0h-5" class="y2tick ticks crisp" style="stroke:#444;stroke-opacity:1;stroke-width:1px" transform="translate(0 292.73)"/><path d="M568.482 0h-5" class="y2tick ticks crisp" style="stroke:#444;stroke-opacity:1;stroke-width:1px" transform="translate(0 217.6)"/><path d="M568.482 0h-5" class="y2tick ticks crisp" style="stroke:#444;stroke-opacity:1;stroke-width:1px" transform="translate(0 142.47)"/><path d="M568.482 0h-5" class="y2tick ticks crisp" style="stroke:#444;stroke-opacity:1;stroke-width:1px" transform="translate(0 67.34)"/></g></g></g><defs><clipPath id="f"><path d="M0 0h242v34H0z"/></clipPath></defs><g class="layer-above"><g class="shapelayer"><g class="shape-group" clip-path="url(#e)" data-index="0"><path fill="none" d="M415.01 443V40" data-index="0" style="opacity:1;stroke:#000;stroke-opacity:1;fill:#000;fill-opacity:0;stroke-width:1px"/></g><g class="shape-group" clip-path="url(#e)" data-index="1"><path fill="none" d="M494.13 443V40" data-index="1" style="opacity:1;stroke:#000;stroke-opacity:1;fill:#000;fill-opacity:0;stroke-width:1px"/></g><g class="shape-group" clip-path="url(#e)" data-index="2"><path fill="none" d="M159.89 443V40" data-index="2" style="opacity:1;stroke:#000;stroke-opacity:1;fill:#000;fill-opacity:0;stroke-width:1px"/></g><g class="shape-group" clip-path="url(#e)" data-index="3"><path fill="none" d="M318.12 443V40" data-index="3" style="opacity:1;stroke:#000;stroke-opacity:1;fill:#000;fill-opacity:0;stroke-width:1px"/></g><g class="shape-group" clip-path="url(#e)" data-index="4"><path fill="none" d="M199.44 443V40" data-index="4" style="opacity:1;stroke:#000;stroke-opacity:1;fill:#000;fill-opacity:0;stroke-width:1px"/></g></g></g><g class="infolayer"><g class="legend" pointer-events="all"><path d="M0 0h242v34H0z" class="bg" shape-rendering="crispEdges" style="stroke:#444;stroke-opacity:1;fill:#fff;fill-opacity:.6;stroke-width:0" transform="translate(453 11.79)"/><g class="scrollbox" clip-path="url(#f)" transform="translate(453 11.79)"><g class="groups"><g class="traces" style="opacity:1"><text x="40" y="6.24" class="legendtext" style="font-family:&quot;Open Sans&quot;,verdana,arial,sans-serif;font-size:16px;fill:#000;fill-opacity:1;white-space:pre" transform="translate(0 16.9)">CHGNet v0.3.0</text><g class="layers" style="opacity:1"><g class="legendlines"><path d="M5 0h30" class="js-line" style="fill:none;stroke:#636efa;stroke-opacity:1;stroke-width:1.5px" transform="translate(0 16.9)"/></g></g><path fill="none" d="M0-11.9h163.156v23.8H0z" class="legendtoggle" style="fill:#000;fill-opacity:0" transform="translate(0 16.9)"/></g></g><g class="groups"><g class="traces" style="opacity:1"><text x="40" y="6.24" class="legendtext" style="font-family:&quot;Open Sans&quot;,verdana,arial,sans-serif;font-size:16px;fill:#000;fill-opacity:1;white-space:pre" transform="translate(165.656 16.9)">PBE</text><g class="layers" style="opacity:1"><g class="legendlines"><path d="M5 0h30" class="js-line" style="fill:none;stroke:#ef553b;stroke-opacity:1;stroke-dasharray:3px,3px;stroke-width:1.5px" transform="translate(165.656 16.9)"/></g></g><path fill="none" d="M0-11.9h73.234v23.8H0z" class="legendtoggle" style="fill:#000;fill-opacity:0" transform="translate(165.656 16.9)"/></g></g></g></g><g class="g-gtitle"><text x="350" y="15" class="gtitle" dy=".7em" style="font-family:&quot;Open Sans&quot;,verdana,arial,sans-serif;font-size:22px;fill:#000;opacity:1;font-weight:400;white-space:pre;pointer-events:all" text-anchor="middle">Sr​<tspan dy=".3em" style="font-size:70%">4</tspan><tspan dy="-.21em">​</tspan>Se​<tspan dy=".3em" style="font-size:70%">4</tspan><tspan dy="-.21em">​</tspan>  <a xlink:href="https://legacy.materialsproject.org/materials/mp-2758" xlink:show="new" style="cursor:pointer" target="_blank">mp-2758</a></text></g><g class="g-xtitle"><text x="299.036" y="499.503" class="xtitle" style="font-family:&quot;Open Sans&quot;,verdana,arial,sans-serif;font-size:19px;fill:#000;opacity:1;font-weight:400;white-space:pre" text-anchor="middle" transform="translate(0 -3.503)">Wave Vector</text></g><g class="g-x2title"><text x="632.241" y="499.503" class="x2title" style="font-family:&quot;Open Sans&quot;,verdana,arial,sans-serif;font-size:19px;fill:#000;opacity:1;font-weight:400;white-space:pre" text-anchor="middle" transform="translate(0 -3.503)">DOS</text></g><g class="g-ytitle"><text x=".825" y="241.5" class="ytitle" style="font-family:&quot;Open Sans&quot;,verdana,arial,sans-serif;font-size:19px;fill:#000;opacity:1;font-weight:400;white-space:pre" text-anchor="middle" transform="rotate(-90 9.912 232.413)">Frequency (THz)</text></g></g></svg>