<svg xmlns="http://www.w3.org/2000/svg" xmlns:xlink="http://www.w3.org/1999/xlink" width="525.12" height="375.12"><defs><path id="B" d="M6.813-7.687H2.327V0H1.172v-8.719h5.64Zm0 0"/><path id="C" d="M7.828-8.719 4.812-4.406 7.829 0H6.484L4.11-3.594 1.672 0H.406l3.032-4.36-2.97-4.359h1.345l2.343 3.531 2.407-3.53Zm0 0"/><path id="D" d="M7.734-3.5c0 .625-.07 1.18-.203 1.656q-.205.704-.687 1.172-.438.44-1.047.656A4.5 4.5 0 0 1 4.39.188q-.83-.001-1.438-.22a2.6 2.6 0 0 1-1.015-.64 2.66 2.66 0 0 1-.688-1.156q-.204-.687-.203-1.672v-5.219h1.156v5.266q0 .72.094 1.125.094.41.328.75.264.377.703.578.436.188 1.063.188.622 0 1.062-.188.435-.201.703-.578.235-.342.328-.766.094-.433.094-1.078v-5.297h1.156Zm0 0"/><path id="E" d="M3.234 2.297H2.22V-9.125h1.015Zm0 0"/><path id="F" d="M8.188 0h-1.5L3.234-3.89l-.875.937V0H1.203v-8.719H2.36v4.547l4.235-4.547H8L4.11-4.625Zm0 0"/><path id="G" d="M6.688 0H1.172v-8.719h1.156v7.688h4.36Zm0 0"/><path id="H" d="M11.328-8.719 9.063 0H7.75L5.922-7.25 4.125 0H2.844L.547-8.719h1.187l1.829 7.25 1.812-7.25h1.172l1.828 7.313 1.813-7.313Zm0 0"/><path id="I" d="M6.844-4.36q0 2.345-.735 3.454Q5.373.189 3.83.188 2.246.19 1.515-.923.795-2.047.795-4.36q-.002-2.326.735-3.438.733-1.108 2.297-1.11c1.04 0 1.8.384 2.281 1.141q.734 1.126.735 3.407M5.297-1.702q.199-.48.281-1.125.077-.64.078-1.531 0-.891-.078-1.547a4.2 4.2 0 0 0-.281-1.125 1.5 1.5 0 0 0-.563-.672q-.362-.234-.906-.234-.563 0-.922.234-.364.22-.562.687-.205.438-.281 1.141-.064.69-.063 1.516 0 .925.063 1.547.059.611.265 1.093.2.458.547.703.357.235.953.235.544 0 .906-.235c.239-.156.426-.382.563-.687m0 0"/><path id="J" d="M6.36 0H1.624v-.89h1.828v-5.844H1.625v-.797q.375 0 .797-.063.42-.058.64-.187a1.2 1.2 0 0 0 .422-.36q.153-.234.172-.609h.922v7.86H6.36Zm0 0"/><path id="K" d="M6.844 0H.938v-1.219q.623-.528 1.234-1.062.622-.53 1.156-1.047 1.123-1.09 1.531-1.735.422-.639.422-1.39c0-.445-.152-.797-.453-1.047q-.439-.388-1.234-.39-.55 0-1.172.187a4.8 4.8 0 0 0-1.203.578h-.063v-1.234a6.3 6.3 0 0 1 1.11-.375 5.7 5.7 0 0 1 1.343-.172q1.342 0 2.11.656.763.644.765 1.75-.001.504-.125.938-.128.42-.375.796-.236.376-.546.735-.3.344-.735.765-.628.612-1.297 1.188-.675.58-1.25 1.078h4.688Zm0 0"/><path id="L" d="M6.078-4.203q.282.253.469.64.187.375.187.985-.001.597-.218 1.094a2.6 2.6 0 0 1-.61.859q-.438.41-1.047.61a4 4 0 0 1-1.296.203Q2.843.188 2.14 0A6.6 6.6 0 0 1 .984-.375v-1.219h.079q.498.33 1.171.547c.446.149.883.219 1.313.219q.356.001.765-.125c.282-.082.508-.203.688-.36a1.7 1.7 0 0 0 .39-.578q.141-.311.141-.78-.002-.468-.156-.767a1.2 1.2 0 0 0-.406-.5 1.7 1.7 0 0 0-.64-.234 4 4 0 0 0-.813-.078H3v-.969h.406q.89 0 1.422-.375.53-.374.531-1.093 0-.313-.14-.547a1.1 1.1 0 0 0-.375-.391 1.5 1.5 0 0 0-.547-.203 3 3 0 0 0-.64-.063q-.566.002-1.188.204a4.2 4.2 0 0 0-1.172.562h-.063v-1.234q.404-.2 1.094-.375a5.8 5.8 0 0 1 1.36-.172q.638.001 1.124.125.482.112.875.36.421.281.641.687.218.392.219.937 0 .72-.516 1.266a2.3 2.3 0 0 1-1.203.672v.093q.28.05.64.204.358.14.61.359m0 0"/><path id="M" d="M7.047-2.453H5.75V0H4.625v-2.453H.453v-1.344l4.219-4.922H5.75v5.328h1.297Zm-2.422-.938v-3.937L1.25-3.391Zm0 0"/><path id="N" d="M6.781-2.766q0 .61-.234 1.172a2.7 2.7 0 0 1-.594.922 3 3 0 0 1-1.016.64 3.8 3.8 0 0 1-1.343.22c-.48 0-.946-.055-1.39-.157a6 6 0 0 1-1.11-.36v-1.233h.078q.48.298 1.125.515c.437.149.86.219 1.265.219q.422.001.813-.11.388-.123.688-.421a1.5 1.5 0 0 0 .39-.594q.14-.359.14-.828-.002-.452-.155-.75a1.3 1.3 0 0 0-.438-.5 1.7 1.7 0 0 0-.734-.313 4.7 4.7 0 0 0-.985-.093c-.344 0-.68.027-1 .078a24 24 0 0 0-.812.125V-8.72h5.25v1.016h-4.11v2.328q.247-.03.5-.031.263-.014.47-.016.701.001 1.233.125.528.111.985.422.467.313.719.828.264.503.265 1.281m0 0"/><path id="Q" d="M6.984-2.828q-.001 1.33-.875 2.172-.879.844-2.156.844Q3.31.186 2.781-.016a2.5 2.5 0 0 1-.922-.593c-.343-.32-.609-.75-.796-1.282C.883-2.43.797-3.078.797-3.828Q.796-5 1.047-5.891q.246-.89.797-1.593a3.54 3.54 0 0 1 1.328-1.032q.81-.375 1.906-.375.342.001.578.032.235.034.469.109v1.11h-.047a3.4 3.4 0 0 0-.5-.157 3 3 0 0 0-.672-.078q-1.265.001-2.015.781-.751.784-.875 2.125.499-.293.968-.453c.32-.101.692-.156 1.11-.156q.545.002.968.11.436.094.875.406.514.361.782.906.264.55.265 1.328m-1.187.047q-.001-.544-.172-.906a1.54 1.54 0 0 0-.531-.626 1.36 1.36 0 0 0-.594-.234 4 4 0 0 0-.687-.062q-.502.001-.922.125a4 4 0 0 0-.875.359q-.019.128-.032.25v.297q0 .924.188 1.469.201.533.531.843.263.252.578.375.312.111.688.11.842 0 1.328-.516c.332-.344.5-.836.5-1.484m0 0"/><path id="R" d="M6.922-2.437q0 1.14-.89 1.89-.879.75-2.22.75c-.949 0-1.703-.242-2.265-.734C.992-1.02.719-1.645.719-2.406q0-.733.422-1.313.42-.591 1.187-.937v-.032q-.705-.374-1.047-.812-.327-.45-.328-1.125 0-.984.797-1.64.81-.657 2.063-.657 1.31.002 2.093.625.781.628.782 1.594 0 .597-.375 1.172-.375.563-1.079.89v.032q.81.344 1.25.859.437.516.438 1.313m-1.39-4.25c0-.415-.165-.75-.485-1q-.485-.375-1.234-.375-.739 0-1.22.359-.468.346-.468.937 0 .424.234.735c.164.21.407.39.72.547a9 9 0 0 0 1.421.562q.574-.386.797-.797.234-.42.234-.968m.171 4.359q0-.529-.234-.86-.236-.327-.922-.656a8 8 0 0 0-.61-.234q-.328-.106-.874-.313-.534.283-.844.782A2 2 0 0 0 1.906-2.5q-.001.797.532 1.313.546.515 1.39.515.856.001 1.36-.437.515-.435.515-1.22m0 0"/><path id="S" d="M6.875-6.094q-.002.58-.203 1.078a2.6 2.6 0 0 1-.563.86 3 3 0 0 1-1.062.687c-.406.149-.922.219-1.547.219H2.328V0H1.172v-8.719h2.375q.778.001 1.328.125.546.127.969.406.48.346.75.844c.187.336.281.75.281 1.25m-1.203.032c0-.301-.055-.563-.156-.782a1.4 1.4 0 0 0-.485-.547 1.9 1.9 0 0 0-.64-.265 4.5 4.5 0 0 0-.907-.078H2.328v3.484h.985q.701.001 1.14-.125.436-.121.719-.39a1.7 1.7 0 0 0 .375-.594q.124-.311.125-.703m0 0"/><path id="T" d="M7.75-2.687c0 .437-.086.824-.25 1.156a2.1 2.1 0 0 1-.656.812q-.487.393-1.078.563Q5.168 0 4.266 0H1.172v-8.719H3.75q.968.002 1.438.078.467.064.906.282.48.252.703.656.218.393.219.937 0 .628-.328 1.063-.317.423-.844.687v.047q.888.189 1.39.782.516.597.516 1.5M5.797-6.61c0-.22-.04-.395-.11-.532A.8.8 0 0 0 5.36-7.5a1.7 1.7 0 0 0-.671-.187 8 8 0 0 0-.97-.047h-1.39v2.515h1.5q.544 0 .86-.047.327-.058.609-.234a.9.9 0 0 0 .39-.453c.07-.188.11-.406.11-.656m.75 3.968c0-.351-.055-.629-.156-.828q-.158-.31-.578-.531a1.8 1.8 0 0 0-.688-.187 8 8 0 0 0-.969-.047H2.328v3.25h1.547q.749.002 1.234-.079.498-.092.797-.296.328-.235.485-.516c.101-.195.156-.453.156-.766m0 0"/><path id="U" d="M6.922 0h-5.75v-8.719h5.75v1.031H2.328v2.391h4.594v1.031H2.328v3.235h4.594Zm0 0"/><path id="V" d="M8.938 0H7.78v-7.516l-2.42 5.11h-.687L2.25-7.516V0H1.172v-8.719H2.75l2.328 4.844 2.25-4.844h1.61Zm0 0"/><path id="W" d="M8.047 0H6.812l-.859-2.437H2.187L1.329 0H.156l3.172-8.719h1.547ZM5.609-3.422 4.08-7.719 2.53-3.422Zm0 0"/><path id="X" d="M7.906-.64q-.314.14-.578.265c-.18.086-.406.172-.687.266a8 8 0 0 1-.782.187q-.409.077-.906.078Q3.997.155 3.22-.109a3.4 3.4 0 0 1-1.344-.828Q1.312-1.5.985-2.36c-.212-.57-.313-1.239-.313-2q0-1.08.297-1.922.31-.843.89-1.438a3.8 3.8 0 0 1 1.344-.86 4.7 4.7 0 0 1 1.75-.312q.704.001 1.406.172.705.175 1.547.61v1.375h-.078q-.72-.609-1.437-.875a4 4 0 0 0-1.516-.282c-.437 0-.836.075-1.187.22a2.55 2.55 0 0 0-.954.655q-.408.44-.64 1.11c-.149.449-.219.965-.219 1.547q-.001.925.25 1.593.247.657.64 1.079c.282.28.602.496.97.64q.546.204 1.156.203.824 0 1.562-.281A4.6 4.6 0 0 0 7.828-2h.078Zm0 0"/><path id="Y" d="M4.547-3.281H.89v-1.063h3.656Zm0 0"/><path id="Z" d="M10.328-3.422q0 .705-.328 1.39-.33.676-.906 1.157a5.1 5.1 0 0 1-1.516.813c-.562.183-1.25.28-2.062.28-.868 0-1.641-.077-2.328-.234a12.7 12.7 0 0 1-2.11-.718v-2h.11q.92.75 2.109 1.172 1.185.408 2.234.406 1.482.002 2.313-.547.826-.562.828-1.5c0-.531-.133-.922-.39-1.172-.262-.25-.657-.445-1.188-.594a12 12 0 0 0-1.313-.25q-.702-.105-1.5-.281-1.595-.328-2.36-1.14-.765-.828-.765-2.141c0-1 .422-1.82 1.266-2.469q1.277-.968 3.234-.969c.844 0 1.614.086 2.313.25q1.06.236 1.875.594v1.89h-.11q-.689-.592-1.812-.968a6.9 6.9 0 0 0-2.281-.39q-1.283 0-2.063.546-.766.534-.765 1.36 0 .752.374 1.187c.258.281.72.496 1.376.64q.514.112 1.468.282.951.158 1.61.328 1.324.364 2 1.078.686.705.687 2m0 0"/><path id="aa" d="M7.11-7.344h-.08a6 6 0 0 0-.672-.11 5 5 0 0 0-.75-.046q-.689 0-1.343.313-.657.316-1.266.796V0H1.484v-9H3v1.328q.903-.715 1.594-1.016A3.4 3.4 0 0 1 6-9q.387.001.563.031c.125.012.304.031.546.063Zm0 0"/><path id="ad" d="M9.031-4.344h-6.64q-.001.833.25 1.453.247.612.687 1 .42.394 1 .594a4 4 0 0 0 1.266.188q.918.002 1.843-.36c.625-.25 1.067-.492 1.329-.734h.078v1.656Q8.077-.218 7.28 0a7 7 0 0 1-1.67.203C4.117.203 2.953-.195 2.11-1 1.273-1.812.86-2.96.86-4.453q-.002-2.202 1.204-3.5 1.2-1.297 3.169-1.297 1.812 0 2.797 1.063.998 1.064 1 3.015ZM7.547-5.5q-.002-1.186-.594-1.844Q6.358-8 5.141-8q-1.207.002-1.938.719-.72.72-.812 1.781Zm0 0"/><path id="ae" d="M14.625 0h-1.516v-5.125q-.002-.575-.062-1.11-.048-.546-.219-.874a1.15 1.15 0 0 0-.531-.516q-.345-.187-1-.187-.627 0-1.266.328-.643.314-1.281.812.03.176.047.422.014.251.015.484V0H7.298v-5.125c0-.395-.024-.77-.063-1.125-.03-.363-.101-.648-.203-.86a1.23 1.23 0 0 0-.547-.515q-.345-.187-.984-.187-.628 0-1.25.312-.628.314-1.25.781V0H1.484v-9H3v1a6.7 6.7 0 0 1 1.422-.922 3.5 3.5 0 0 1 1.5-.328c.613 0 1.133.133 1.562.39q.638.394.954 1.063.92-.763 1.671-1.11a3.95 3.95 0 0 1 1.625-.343c.989 0 1.72.305 2.188.906q.703.893.703 2.5Zm0 0"/><path id="af" d="M9.406-4.61a6.1 6.1 0 0 1-.312 2q-.317.91-.89 1.532a3.7 3.7 0 0 1-1.25.937q-.72.312-1.516.313A4.8 4.8 0 0 1 3-.453l-.001 3.766H1.484V-9H3v.938q.61-.5 1.36-.844a3.85 3.85 0 0 1 1.609-.344q1.623.002 2.531 1.234.905 1.22.906 3.407m-1.562.048q0-1.641-.563-2.438-.55-.811-1.703-.812-.645 0-1.312.28-.657.282-1.266.75v5.095c.438.199.805.335 1.11.406.312.062.663.093 1.062.093q1.249 0 1.953-.843.717-.855.719-2.531m0 0"/><path id="ag" d="M6.266-4.516H1.234v-1.468h5.032Zm0 0"/><path id="ah" d="M9.422 0H1.297v-1.687q.843-.717 1.687-1.438.856-.732 1.594-1.453 1.546-1.499 2.11-2.375a3.45 3.45 0 0 0 .578-1.906q-.002-.937-.625-1.47c-.407-.35-.977-.53-1.703-.53q-.74.001-1.594.265a6.3 6.3 0 0 0-1.672.781h-.078V-11.5q.575-.281 1.531-.516a7.7 7.7 0 0 1 1.844-.234q1.84 0 2.89.89 1.046.892 1.047 2.422 0 .675-.172 1.266-.176.598-.515 1.125a7.6 7.6 0 0 1-.735.984 21 21 0 0 1-1.014 1.08 48 48 0 0 1-1.797 1.64c-.607.53-1.173 1.023-1.704 1.468h6.453Zm0 0"/><path id="ai" d="M9.453-10.203 4.016 0h-1.72l5.782-10.594H1.234V-12h8.22Zm0 0"/><path id="aj" d="M9.328-3.812c0 .562-.105 1.101-.312 1.609q-.317.767-.844 1.281a4.1 4.1 0 0 1-1.375.875C6.266.148 5.645.25 4.937.25c-.656 0-1.289-.07-1.89-.203a7.4 7.4 0 0 1-1.547-.5v-1.703h.125c.438.281.945.523 1.531.719q.89.297 1.75.296.575.001 1.11-.156a2.4 2.4 0 0 0 .953-.578q.356-.341.531-.828.188-.481.188-1.11-.001-.623-.22-1.046a1.64 1.64 0 0 0-.593-.688q-.408-.31-1.016-.437a6.7 6.7 0 0 0-1.343-.125q-.704.002-1.36.109c-.437.063-.82.125-1.14.188V-12h7.218v1.406H3.578v3.203q.34-.03.703-.046c.25-.008.461-.016.64-.016q.967 0 1.704.172a3.9 3.9 0 0 1 1.344.562 3.2 3.2 0 0 1 1 1.157q.358.704.36 1.75m0 0"/><path id="ak" d="M9.5-3.344Q9.5-1.78 8.281-.75 7.077.281 5.25.281q-1.956.001-3.11-1Q.983-1.732.985-3.312q0-.998.579-1.813.574-.812 1.64-1.281v-.047q-.97-.516-1.437-1.125c-.305-.406-.453-.914-.453-1.531q-.002-1.36 1.109-2.25c.738-.602 1.68-.907 2.828-.907 1.195 0 2.148.29 2.86.86q1.078.862 1.078 2.187 0 .813-.516 1.61c-.336.523-.828.93-1.485 1.218v.047c.75.324 1.32.727 1.72 1.203q.592.706.593 1.797m-1.906-5.86c0-.57-.227-1.03-.672-1.374q-.657-.516-1.688-.516c-.68 0-1.234.164-1.671.485-.43.324-.641.761-.641 1.312q0 .58.328 1 .329.422.984.75.296.157.86.39.561.235 1.093.376.797-.53 1.094-1.094.312-.576.313-1.328m.25 6.017q0-.75-.328-1.188-.33-.45-1.266-.906a13 13 0 0 0-.844-.328q-.438-.153-1.187-.422a3.06 3.06 0 0 0-1.172 1.078 2.7 2.7 0 0 0-.438 1.516q0 1.096.75 1.812.748.703 1.907.703 1.17 0 1.875-.61.703-.607.703-1.655m0 0"/><path id="ac" d="M6.781-2.36h-1.25V0H4.453v-2.36H.437v-1.296L4.5-8.391h1.031v5.125h1.25Zm-2.328-.906v-3.78l-3.25 3.78Zm0 0"/><path id="al" d="M13.453-10.36 10.75 0H9.203L7.031-8.594 4.906 0H3.375L.641-10.36h1.406l2.187 8.61 2.141-8.61h1.39l2.173 8.704 2.156-8.703Zm0 0"/><path id="am" d="M7.328 0H6.031v-.828l-.468.344q-.299.204-.579.328a4 4 0 0 1-.75.265c-.28.07-.617.11-1 .11Q2.185.22 1.454-.47C.96-.937.718-1.53.718-2.25c0-.594.125-1.07.375-1.437q.389-.545 1.094-.86.702-.31 1.703-.422.997-.106 2.14-.172v-.203q-.002-.435-.156-.718a1.2 1.2 0 0 0-.453-.47 2.2 2.2 0 0 0-.672-.218 5.5 5.5 0 0 0-.812-.062q-.517 0-1.157.14c-.418.094-.851.227-1.297.39h-.078v-1.327c.258-.063.63-.133 1.11-.22q.73-.123 1.422-.124.826 0 1.437.14.608.127 1.047.454.45.313.672.828c.156.336.234.75.234 1.25ZM6.031-1.906v-2.172a40 40 0 0 0-1.422.11c-.53.042-.96.109-1.28.202q-.565.16-.907.5-.344.33-.344.922 0 .676.39 1.016Q2.873-1 3.704-1c.457 0 .875-.086 1.25-.266a6 6 0 0 0 1.078-.64m0 0"/><path id="an" d="M8.016-7.766 4.859 0H3.547L.422-7.766h1.422L4.25-1.594l2.39-6.172Zm0 0"/><path id="ao" d="M7.797-3.75H2.063c0 .48.07.898.218 1.25q.218.534.594.875.356.33.86.5.496.174 1.093.172.797.002 1.594-.313.81-.326 1.156-.64h.063V-.47Q6.984-.187 6.28 0q-.688.188-1.437.188-1.94 0-3.032-1.047Q.736-1.904.734-3.844q0-1.903 1.032-3.015 1.043-1.125 2.75-1.125 1.576 0 2.422.922.857.909.859 2.609Zm-1.281-1q0-1.031-.516-1.594-.516-.562-1.547-.562-1.065.001-1.687.625-.61.61-.703 1.531Zm0 0"/><path id="aq" d="M9.563-10.36 5.797 0H3.953L.188-10.36h1.468l3.25 9.11 3.25-9.11Zm0 0"/><path id="ar" d="M7.031-.484Q6.374-.17 5.781 0a4.4 4.4 0 0 1-1.234.172A5 5 0 0 1 3-.062a3.06 3.06 0 0 1-1.203-.766A3.3 3.3 0 0 1 1-2.094C.82-2.602.734-3.195.734-3.875q0-1.906 1.047-2.984 1.043-1.092 2.766-1.094.668 0 1.312.187.64.189 1.172.454v1.453H6.97a5.5 5.5 0 0 0-1.25-.703 3.4 3.4 0 0 0-1.235-.25q-1.112 0-1.75.75c-.43.492-.64 1.218-.64 2.187q-.001 1.408.625 2.172.622.75 1.765.75.404.001.813-.11.406-.105.734-.28a6 6 0 0 0 .532-.298l.406-.28h.062Zm0 0"/><path id="as" d="M5.328-.062a9 9 0 0 1-.812.156q-.439.06-.766.062c-.805 0-1.414-.21-1.828-.64q-.61-.64-.61-2.063v-4.125H.439v-1.094h.875V-10h1.312v2.234h2.703v1.094H2.625v3.547c0 .406.004.727.016.953q.029.346.203.64a.9.9 0 0 0 .422.407c.175.086.445.125.812.125q.328 0 .672-.094a5 5 0 0 0 .5-.156h.078Zm0 0"/><path id="at" d="M7.906-3.875q-.001 1.893-.968 3C6.289-.145 5.422.219 4.328.219q-1.657 0-2.625-1.094-.97-1.107-.969-3c0-1.27.32-2.27.97-3q.966-1.109 2.624-1.11c1.094 0 1.961.372 2.61 1.11q.967 1.095.968 3m-1.343 0q-.002-1.512-.594-2.25-.599-.733-1.64-.734-1.067.001-1.657.734-.58.738-.578 2.25-.001 1.455.578 2.219.59.75 1.656.75 1.043 0 1.64-.75.594-.75.595-2.219m0 0"/><path id="au" d="M6.14-6.344h-.077a4 4 0 0 0-.563-.11 6 6 0 0 0-.656-.03 2.55 2.55 0 0 0-1.157.28c-.374.18-.742.407-1.093.688V0H1.28v-7.766h1.313v1.141q.778-.622 1.375-.875.59-.265 1.219-.266c.226 0 .39.008.484.016q.152.016.469.063Zm0 0"/><path id="av" d="M10.14-5.172q-.002 1.426-.624 2.563Q8.905-1.467 7.89-.83a5.1 5.1 0 0 1-1.578.642Q5.433 0 4.015 0H1.39v-10.36h2.593q1.514.001 2.407.22.889.22 1.515.593a4.65 4.65 0 0 1 1.64 1.766q.594 1.096.595 2.61m-1.437-.016q0-1.216-.422-2.046a3.1 3.1 0 0 0-1.265-1.328 4.3 4.3 0 0 0-1.297-.47 8.4 8.4 0 0 0-1.657-.14H2.766v7.985h1.297q.996 0 1.734-.141.75-.14 1.36-.547.78-.481 1.156-1.297c.257-.539.39-1.21.39-2.015m0 0"/><path id="aw" d="M9.11-9.172a4.65 4.65 0 0 1 .968 1.719q.342 1.003.344 2.281-.002 1.283-.344 2.297-.346 1.003-.969 1.672Q8.466-.5 7.594-.141q-.86.36-1.985.36a5.3 5.3 0 0 1-1.984-.36 4.35 4.35 0 0 1-1.531-1.062q-.628-.686-.969-1.688-.328-.997-.328-2.28 0-1.267.328-2.266a4.9 4.9 0 0 1 .984-1.735q.609-.685 1.516-1.047a5.4 5.4 0 0 1 1.984-.36q1.11 0 2 .376a4.1 4.1 0 0 1 1.5 1.031m-.126 4q-.002-2.015-.906-3.11Q7.186-9.39 5.61-9.39q-1.581 0-2.484 1.11-.89 1.094-.89 3.11c0 1.355.304 2.398.921 3.124Q4.076-.969 5.61-.969q1.547 0 2.454-1.078.92-1.09.921-3.125m0 0"/><path id="ax" d="M8.922-2.953q0 .597-.281 1.187-.281.597-.797 1-.549.458-1.297.704c-.492.164-1.086.25-1.781.25Q3.64.186 2.75-.016 1.858-.23.938-.64v-1.718h.093q.78.643 1.813 1 1.03.36 1.936.358 1.28.001 1.985-.484c.476-.32.718-.75.718-1.282q-.002-.686-.343-1.015-.33-.327-1.016-.5a11 11 0 0 0-1.14-.235q-.598-.093-1.282-.234-1.378-.281-2.047-.984Q1-6.451 1-7.578q-.001-1.31 1.094-2.14 1.09-.828 2.797-.829a8.6 8.6 0 0 1 2 .219c.601.137 1.14.305 1.609.5v1.625h-.094q-.596-.5-1.562-.828a6 6 0 0 0-1.969-.328q-1.113 0-1.781.468-.673.458-.672 1.172 0 .657.328 1.032c.227.242.625.421 1.188.546q.45.094 1.265.235c.55.093 1.016.195 1.39.297q1.155.299 1.735.922.593.609.594 1.734m0 0"/><path id="ay" d="M-9.14-8.016v5.25h2.921v-4.5h1.235v4.5H0v1.375h-10.36v-6.625Zm0 0"/><path id="az" d="M-6.344-6.14v.077q-.075.282-.11.563-.03.282-.03.656 0 .596.28 1.157c.18.374.407.742.688 1.093H0v1.313h-7.766v-1.313h1.141q-.622-.778-.875-1.375a3 3 0 0 1-.266-1.219c0-.226.008-.39.016-.484q.016-.152.063-.469Zm0 0"/><path id="aA" d="M-3.75-7.797v5.735c.48 0 .898-.07 1.25-.22q.534-.217.875-.593.33-.356.5-.86.174-.496.172-1.093.002-.797-.313-1.594-.326-.81-.64-1.156v-.063H-.47q.282.657.469 1.36.188.688.188 1.437 0 1.94-1.047 3.032Q-1.904-.734-3.844-.734q-1.903 0-3.015-1.032-1.125-1.043-1.125-2.75 0-1.576.922-2.421c.605-.57 1.476-.86 2.609-.86Zm-1 1.281q-1.031 0-1.594.516-.562.516-.562 1.547.001 1.065.625 1.687.61.61 1.531.704Zm0 0"/><path id="aB" d="M2.86-7.594v1.313H-.876q.517.61.781 1.203c.164.398.25.828.25 1.297 0 .918-.351 1.652-1.062 2.203-.719.555-1.703.828-2.953.828q-.997 0-1.766-.281a4 4 0 0 1-1.297-.766 3.2 3.2 0 0 1-.781-1.078 3.15 3.15 0 0 1-.281-1.312q0-.623.14-1.11.141-.48.407-.984l-.329-.078v-1.235ZM-1.97-6.28h-4.406a5.7 5.7 0 0 0-.328.968c-.07.274-.11.57-.11.891 0 .762.258 1.34.766 1.734.512.399 1.219.594 2.125.594q1.36 0 2.094-.469c.492-.32.734-.828.734-1.515a2.8 2.8 0 0 0-.25-1.14A5 5 0 0 0-1.97-6.28m0 0"/><path id="aC" d="M0-7.734v1.312h-.86q.516.657.798 1.266c.183.406.28.855.28 1.343q0 1.22-.75 1.907-.75.673-2.202.672h-5.032v-1.313h4.422q.596 0 1.016-.047a1.9 1.9 0 0 0 .719-.234q.297-.186.437-.485.14-.312.14-.874c0-.344-.085-.711-.265-1.11a5 5 0 0 0-.672-1.125h-5.797v-1.312Zm0 0"/><path id="aD" d="M0-7.781v1.297h-4.422q-.546.002-1.016.062c-.312.043-.554.121-.734.234a1.07 1.07 0 0 0-.422.5c-.101.22-.156.508-.156.86q.001.533.266 1.125c.18.387.406.758.687 1.11H0v1.312h-7.766v-1.313h.86a5 5 0 0 1-.797-1.265 3.4 3.4 0 0 1-.281-1.344q.002-1.265.765-1.922c.5-.437 1.227-.656 2.172-.656Zm0 0"/><path id="aE" d="M-.484-7.031q.314.657.484 1.25.17.579.172 1.234A5 5 0 0 1-.062-3a3.06 3.06 0 0 1-.766 1.203A3.3 3.3 0 0 1-2.094-1c-.508.18-1.101.266-1.781.266q-1.906 0-2.984-1.047-1.092-1.043-1.094-2.766 0-.668.187-1.312.189-.64.454-1.172h1.453v.062a5.5 5.5 0 0 0-.703 1.25q-.249.626-.25 1.235 0 1.112.75 1.75c.492.43 1.218.64 2.187.64q1.408.001 2.172-.625.75-.622.75-1.765.001-.404-.11-.813a3.3 3.3 0 0 0-.28-.734 6 6 0 0 0-.298-.532l-.28-.406v-.062Zm0 0"/><path id="aF" d="M-7.766-8.016 2.86-3.469v1.39L-.375-3.515l-7.39 3.094v-1.422l5.75-2.39-5.75-2.407Zm0 0"/><path id="aH" d="M2.86-5.453v1.594A10.9 10.9 0 0 1-.22-1.937q-1.669.672-3.765.671-2.091.001-3.766-.671a10.9 10.9 0 0 1-3.078-1.922v-1.594h.078a8.7 8.7 0 0 0 1.172 1.078 8.6 8.6 0 0 0 1.547.953 9.4 9.4 0 0 0 1.875.688c.687.168 1.414.25 2.172.25q1.19.001 2.187-.25a9.4 9.4 0 0 0 1.875-.688 9 9 0 0 0 1.547-.953q.686-.527 1.172-1.078Zm0 0"/><path id="aI" d="M-9.14-8.781v3.703H0v1.375h-9.14V0h-1.22v-8.781Zm0 0"/><path id="aJ" d="M0-9.312v1.374h-5.078v5.172H0v1.375h-10.36v-1.375h4.063v-5.171h-4.062v-1.375Zm0 0"/><path id="aK" d="M0-6.922V-.64h-.969l-5.718-4.53v4.42h-1.079v-6.062h.922l5.735 4.562v-4.672Zm0 0"/><path id="aL" d="M-3.984-5.219q2.096 0 3.765.688 1.671.69 3.078 1.922v1.593h-.062a9 9 0 0 0-1.172-1.078 8.2 8.2 0 0 0-1.547-.953 10 10 0 0 0-1.875-.687 9 9 0 0 0-2.187-.25c-.758 0-1.485.09-2.172.265a9 9 0 0 0-1.875.672q-.891.439-1.547.953a7.8 7.8 0 0 0-1.172 1.078h-.078v-1.593q1.407-1.23 3.078-1.922 1.675-.687 3.766-.688m0 0"/><clipPath id="a"><path d="M36 217h88v115.25H36Zm0 0"/></clipPath><clipPath id="b"><path d="M36 102h88v230.25H36Zm0 0"/></clipPath><clipPath id="c"><path d="M36 90h88v16H36Zm0 0"/></clipPath><clipPath id="d"><path d="M36 56h88v50H36Zm0 0"/></clipPath><clipPath id="e"><path d="M146 179h96v153.25h-96Zm0 0"/></clipPath><clipPath id="f"><path d="M146 158h96v174.25h-96Zm0 0"/></clipPath><clipPath id="g"><path d="M146 113h96v219.25h-96Zm0 0"/></clipPath><clipPath id="h"><path d="M235 158h80v174.25h-80Zm0 0"/></clipPath><clipPath id="i"><path d="M235 114h80v218.25h-80Zm0 0"/></clipPath><clipPath id="j"><path d="M367 178h45.555v46H367Zm0 0"/></clipPath><clipPath id="k"><path d="M367 163h45.555v61H367Zm0 0"/></clipPath><clipPath id="l"><path d="M367 125h45.555v45H367Zm0 0"/></clipPath><clipPath id="m"><path d="M367 90h45.555v34H367Zm0 0"/></clipPath><clipPath id="n"><path d="M367 82h45.555v16H367Zm0 0"/></clipPath><clipPath id="o"><path d="M367 77h45.555v12H367Zm0 0"/></clipPath><clipPath id="p"><path d="M36 228h83v104.25H36Zm0 0"/></clipPath><clipPath id="q"><path d="M36 138h84v194.25H36Zm0 0"/></clipPath><clipPath id="r"><path d="M36 113h84v7H36Zm0 0"/></clipPath><clipPath id="s"><path d="M36 86h84v34H36Zm0 0"/></clipPath><clipPath id="t"><path d="M149 193h91v139.25h-91Zm0 0"/></clipPath><clipPath id="u"><path d="M149 176h91v156.25h-91Zm0 0"/></clipPath><clipPath id="v"><path d="M149 133h91v199.25h-91Zm0 0"/></clipPath><clipPath id="w"><path d="M238 175h72v157.25h-72Zm0 0"/></clipPath><clipPath id="x"><path d="M238 130h74v202.25h-74Zm0 0"/></clipPath><clipPath id="y"><path d="M370 194h42.555v36H370Zm0 0"/></clipPath><clipPath id="z"><path d="M370 104h42.555v11H370Zm0 0"/></clipPath><clipPath id="A"><path d="M370 95h42.555v11H370Zm0 0"/></clipPath><clipPath id="O"><path d="M427.11 30H517v302.25h-89.89Zm0 0"/></clipPath><clipPath id="P"><path d="M427.11 50H521v282.25h-93.89Zm0 0"/></clipPath></defs><path fill="#FFF" d="M0 0h525v375H0Zm0 0"/><path fill="#FFF" d="M36 30h376.555v302.25H36Zm391.113 0h94.137v302.25h-94.137Zm0 0"/><path fill="none" stroke="#D3D3D3" stroke-width=".75" d="M119.91 30v302.25M149.578 30v302.25M238.582 30v302.25M311.25 30v302.25M370.582 30v302.25M36 275.902h376.555M36 219.547h376.555M36 163.2h376.555M36 106.852h376.555M36 50.504h376.555"/><g fill="none" stroke="#636EFA" stroke-miterlimit="2" stroke-width="1.125" clip-path="url(#a)"><path d="m36 332.25 17.602-38.781.886-1.75 10.875-21.246.84-1.508 8.375-13.934.836-1.277 10.102-13.426.832-.957 6.718-6.82.832-.742 5.883-4.508.832-.547 5.887-3.172.832-.36 5.887-1.843.832-.176 5.883-.562"/><path d="m36 332.25 17.602-38.781.886-1.75 10.875-21.246.84-1.508 8.375-13.934.836-1.277 10.102-13.426.832-.957 6.718-6.82.832-.742 5.883-4.508.832-.547 5.887-3.172.832-.36 5.887-1.843.832-.176 5.883-.562"/></g><g clip-path="url(#b)"><path fill="none" stroke="#636EFA" stroke-miterlimit="2" stroke-width="1.125" d="m36 332.25 16.762-84.758.84-4.012 14.265-62.28.887-3.262 7.543-26.961.832-2.73 6.723-19.75.832-2.204 5.886-13.652.832-1.649 3.332-5.12.832-.438.832.363.832 1.226 2.551 6.61.832 2.578 9.215 27.766.836 2.062 3.387 6.82.836 1.29 2.496 2.75.832.519 1.719.41"/></g><g fill="none" stroke="#636EFA" stroke-miterlimit="2" stroke-width="1.125" clip-path="url(#c)"><path d="m36 102.156 11.766-.668.836-.09 16.761-2.675.84-.149 20.145-3.097.832-.09 7.554-.66.832.425 1.664.97.883-.481 1.668-1.2.832-.039 16.77-.359.832-.008h1.719"/><path d="m36 102.156 11.766-.668.836-.09 16.761-2.675.84-.149 20.145-3.097.832-.09 16.77-1.121.831-.02 15.153-.21"/></g><g clip-path="url(#d)"><path fill="none" stroke="#636EFA" stroke-miterlimit="2" stroke-width="1.125" d="m36 102.156 2.496-.5.832-.383 2.55-1.785.84-.789 4.216-5.21.832-1.262 6.722-11.415.832-1.492 6.711-11.03.832-1.173 4.172-4.762.832-.707 3.383-1.851.832-.203 2.496.039.836.23 2.555 1.39.832.696 3.332 3.922.832 1.27 3.383 6.125.832 1.785 5.886 14.5.832 2.113 1.668 3.008.832-.05 3.383-.669.832-.96 6.719-6.99.832-.69 4.215-2.739.84-.41 4.164-1.312.832-.122 1.719-.097"/></g><path fill="none" stroke="#636EFA" stroke-miterlimit="2" stroke-width="1.125" d="m119.934 220.64 5.308-.656.317-.086 4.425-1.609.313-.144 4.426-2.536.308-.203 4.739-3.695.316-.262 5.047-5.043.316-.328 4.11-5.039"/><path fill="none" stroke="#636EFA" stroke-miterlimit="2" stroke-width="1.125" d="m119.934 220.64 2.03-.574.317-.175 2.39-2.227.263-.383 2.707-4.304.257-.563 2.97-6.637.316-.75 4.476-12.613.254-.918 5.363-17.578.317-1.02 2.031-7.187.316.152.305.203 5.313 4.086m-29.625-12.324 6.195.535.312.051 5.934 1.547.316.113 6.817 3.059.262.164 3.855 2.371.316-.992 5.618-19.617m-29.625-51.024 6.507.516.317.054 6.816 1.754.262.106 6.25 2.879.305.18 7.09 5.07.308.258 1.77 1.601m-29.625-12.418 6.824-.531.254-.047 8.02-1.687.312-.075 11.558-2.21.317-.016 2.34-.078m-29.625-8.758 15.726.555.254.023 13.645 1.508"/><g clip-path="url(#e)"><path fill="none" stroke="#636EFA" stroke-miterlimit="2" stroke-width="1.125" d="m149.559 201.04 7.132-10.384.883-1.437 3.594-6.063.883-.133 7.972 10.68.938 1.297 9.789 15.637.887 1.539 10.672 19.722.882 1.75 13.329 27.45.886 1.898 8.903 19.371.882 1.965 10.735 23.836.883 2.004 9.789 22.078"/></g><g clip-path="url(#f)"><path fill="none" stroke="#636EFA" stroke-miterlimit="2" stroke-width="1.125" d="m149.559 170.152 7.132 6.79.883.956 3.594 4.051.883-.351 9.797-16.696.886-1.074 1.77-1.492.883-.305 1.77.375.886.672 2.707 3.57.887 1.57 4.422 9.391.886 2.09 8.903 22.996.886 2.453 13.38 38.594.882 2.664 23.125 71.742.883 2.82 3.594 11.282"/></g><g clip-path="url(#g)"><path fill="none" stroke="#636EFA" stroke-miterlimit="2" stroke-width="1.125" d="m149.559 145.059 8.015-26.438.887-2.144 8.91 12.824.883 1.32 4.48 5.766.883.773 1.77.817.886-.028 1.77-.945.883-.848 2.71-3.578.884-1.402 1.77-2.957.886-.098 6.246 15.75.887 2.477 7.132 21.742.883 2.95 8.903 32.105.886 3.449 10.672 44.297.887 3.898 13.332 60.824.887 4.157 2.707 12.48"/></g><path fill="none" stroke="#636EFA" stroke-miterlimit="2" stroke-width="1.125" d="m149.559 106.453 6.246 6.668.886 1.09 1.77 1.68.883-2.664 4.484-11.48.887-1.376 1.77-.824.886.324 2.652 2.242.938.989 4.426 6.082.886 1.418 5.364 9.796.883 1.844 2.656 4.457.883-1.523 8.02-12.781.882-1.23 5.363-6.24.887-.84 4.426-3.323.883-.496 4.476-1.625.887.18 12.449 2.34.887.12 10.672.84.882.02 1.825.015"/><path fill="none" stroke="#636EFA" stroke-miterlimit="2" stroke-width="1.125" d="m149.559 89.39 5.363.618.883.226 8.023 2.414.887-.375 1.77-2.355.886-1.742.883-1.692.887.223 17.804 5.078.883.27 23.168 6.562.887-.148 4.426-.219.882.066 6.258 1.149.883.226 10.672 2.27.887.086 2.707.11"/><path fill="none" stroke="#636EFA" stroke-miterlimit="2" stroke-width="1.125" d="m149.559 82.719 14.27 2.691.886.211 3.539.652.887-1.957 7.132-14.582.883-1.55 4.48-6.73.884-1.11 4.425-4.371.883-.63 3.594-1.652.887-.203 3.539.063.886.23 3.59 1.735.887.636 3.539 3.293.887.996 5.36 7.223.886 1.383 16.926 26.894.886 1.028 3.54 3.261.886.586 3.59 1.29.887.05"/><g fill="none" stroke="#636EFA" stroke-miterlimit="2" stroke-width="1.125" clip-path="url(#h)"><path d="m238.598 332.25 24.675-69.914.735-1.965 15.254-39.36.726-1.777 12.34-28.523.727-1.563 8.754-17.25.726-1.25 4.371-6.421.73-.793 2.137-1.637.727-.254.727-.082"/><path d="m238.598 332.25 24.675-69.914.735-1.965 15.254-39.36.726-1.777 12.34-28.523.727-1.563 8.754-17.25.726-1.25 4.371-6.421.73-.793 2.137-1.637.727-.254.727-.082"/></g><g clip-path="url(#i)"><path fill="none" stroke="#636EFA" stroke-miterlimit="2" stroke-width="1.125" d="m238.598 332.25 24.675-108.531.735-3.031 12.336-49.043.73-2.7 8.742-30.496.735-2.355 5.777-17.61.727-.89 14.582 18.41.734.586 2.129 1.027.727.074"/></g><path fill="none" stroke="#636EFA" stroke-miterlimit="2" stroke-width="1.125" d="m238.598 102.156 7.238-.605.726-.121 17.446-2.774.726.008 5.102.652.726.188 4.38 1.625.675.367 5.102 3.277.726.57 5.836 5.454.727.781 6.508 7.875.73.953 12.39 15.598.735.586 2.129 1.027.727.074"/><path fill="none" stroke="#636EFA" stroke-miterlimit="2" stroke-width="1.125" d="m238.598 102.156 7.238-.605.726-.121 17.446-2.774.726.008 5.102.652.726.188 4.38 1.625.675.367 5.102 3.277.726.57 5.836 5.454.727.781 4.32 5.098.727-.215 6.562-16.2.727-1.53 4.383-7.704.726-.996 2.918-2.949.676-.45 2.18-.585"/><path fill="none" stroke="#636EFA" stroke-miterlimit="2" stroke-width="1.125" d="m238.598 102.156 2.918-.547.675-.308 3.645-2.489.726-.675 4.372-5.168.73-1.02 5.832-9.238.73-1.254 8.692-15.082.734-1.184 6.555-9.57.734-.918 4.32-4.691.727-.66 4.375-3.063.727-.367 4.37-1.371.74-.09 4.316.215.73.16 5.098 1.812.734.332 7.969 3.329.726.129 1.454.113m0 110.909 3.593.548.578.187 4.16 1.899.57.328 7.712 4.937.62.395 9.481 5.73.625.309 6.508 2.879.57.203 7.711 2.063.622.105 8.28.89.622.032 7.71.164"/><path fill="none" stroke="#636EFA" stroke-miterlimit="2" stroke-width="1.125" d="m311.227 161.46 4.793.571.57.14 6.512 2.388.628.261 28.477 13.559.57.219 8.332 2.453.579.125 6.503.879.63.039 1.769.035m-59.363-44.438 4.171-.613.622-.18 4.742-2.168.566-.343 8.336-5.793.57-.442 8.332-5.754.57-.335 4.739-2.145.629-.195 3.543-.72.566.118 4.164 1.555.578.3 13.696 7.04.57.136 2.969.317"/><path fill="none" stroke="#636EFA" stroke-miterlimit="2" stroke-width="1.125" d="m311.227 137.691 3.593-.629.578-.218 4.16-2.25.57-.403 5.372-4.082.57-.488 11.293-8.293.578-.324 5.364-1.98.57-.098 4.738-.012.625-.055 5.938.227.57.074 14.844 1.55m-59.363-34.663 8.902.637.633.09 11.87 2.43.571.136 8.332 1.297.57.023 5.942-.406.566-.106 7.703-2.03.633-.173 7.7-1.906.578-.09 5.363-.426"/><path fill="none" stroke="#636EFA" stroke-miterlimit="2" stroke-width="1.125" d="m311.227 50.55 4.171.587.622.18 4.742 2.257.566.38 5.363 4.312.579.57 8.324 9.176.578.703 7.703 8.672.629.574 4.734 3.84.578.363 4.16 1.926.57.18 5.364.984.578.05 10.102.22"/><g clip-path="url(#j)"><path fill="none" stroke="#636EFA" stroke-miterlimit="2" stroke-width="1.125" d="m370.59 182.129 12.18 14.559.421.515 10.461 12.266.422.433 5.88 5.453.417.329 4.637 2.988.414.207 4.582 1.539.418.066 2.129.157"/></g><g clip-path="url(#k)"><path fill="none" stroke="#636EFA" stroke-miterlimit="2" stroke-width="1.125" d="m370.59 182.129 8.379-8.64.418-.387 7.133-5.883.421-.305.832 1.918.41 1.238 12.188 34.29.414 1 4.223 8.585.414.696 3.328 4.27.422.359 2.547 1.28.422.071.41.02"/></g><g clip-path="url(#l)"><path fill="none" stroke="#636EFA" stroke-miterlimit="2" stroke-width="1.125" d="m370.59 128.469 1.246.8.418.547 2.973 5.551.41.93 5.414 13.508.422 1.125 5.879 15.691.421-.3 6.711-3.997.422-.21 6.297-2.52.414-.137 6.719-1.387.414-.047 3.8-.195"/></g><g clip-path="url(#m)"><path fill="none" stroke="#636EFA" stroke-miterlimit="2" stroke-width="1.125" d="m370.59 120.71 1.246-.679.418-.453 5.469-7.754.414-.57 5.465-6.426.421-.422 4.993-4.183.472-.278 4.996-2.738.422-.18 5.465-1.738.414-.098 7.133-.992.418-.027 4.215-.137"/></g><g clip-path="url(#n)"><path fill="none" stroke="#636EFA" stroke-miterlimit="2" stroke-width="1.125" d="m370.59 85.523 31.45 7.739.41.054 8.859.711.41.008h.832"/></g><g clip-path="url(#o)"><path fill="none" stroke="#636EFA" stroke-miterlimit="2" stroke-width="1.125" d="m370.59 85.523 12.601-2.656.41-.074 13.434-1.598.418-.03 14.688-.532h.41"/></g><g fill="#EF553B" clip-path="url(#p)"><path d="m35.496 332.012.988-2.024 1.008.496-.988 2.02Zm1.977-4.043.988-2.024 1.008.496-.989 2.02Zm1.976-4.043.985-2.024 1.011.496-.988 2.02Zm1.973-4.043.988-2.024 1.012.496-.988 2.02Zm1.976-4.043.989-2.024 1.011.497-.988 2.019Zm1.977-4.043.988-2.02 1.012.493-.988 2.02Zm1.977-4.043.988-2.024 1.012.497-.989 2.02Zm1.976-4.043.988-2.02 1.012.493-.988 2.023Zm1.977-4.043.988-2.02 1.012.493-.989 2.02Zm2.004-4.055.683-1.254.399-.722.988.543-.399.718-.683 1.254Zm2.164-3.949 1.082-1.973.988.543-1.082 1.973Zm2.164-3.945 1.082-1.973.988.54-1.082 1.972Zm2.164-3.946 1.082-1.972.988.543-1.082 1.972Zm2.164-3.945 1.082-1.973.988.54-1.082 1.972Zm2.18-3.957.738-1.254.441-.687.946.605-.434.68-.473-.3.485.284-.735 1.242Zm2.39-3.836 1.211-1.894.945.601-1.21 1.899Zm2.422-3.793 1.211-1.894.95.605-1.212 1.895Zm2.422-3.793 1.21-1.894.95.605-1.21 1.895Zm2.465-3.789.281-.402 1.086-1.418.894.687-1.078 1.403-.449-.344.465.324-.273.39Zm2.738-3.605 1.371-1.782.895.684-1.371 1.785Zm2.742-3.567 1.371-1.785.89.684-1.37 1.785Zm2.785-3.57.442-.52 1.136-1.14.797.793-1.12 1.125-.4-.395.43.364-.43.503Zm3.168-3.254 1.59-1.594.797.793-1.59 1.594Zm3.176-3.187 1.59-1.594.797.793-1.59 1.594Zm3.18-3.188.219-.223.867-.742.719-.52.66.915-.7.504-.332-.457.368.43-.832.71-.368-.426.399.395-.203.207Zm3.629-2.8 1.824-1.321.656.914-1.82 1.316Zm3.644-2.637.563-.407.875-.535.566-.277.492 1.015-.543.262-.246-.504.293.48-.832.509-.293-.48.328.456-.543.39Zm4.028-2.2 2.023-.984.492 1.012-2.023.984Zm4.05-1.964.13-.063.882-.328 1.23-.324.29 1.086-1.207.32-.145-.543.195.527-.832.309-.195-.531.246.507-.105.051Zm4.418-1.293 2.176-.575.285 1.086-2.175.578Zm4.5-.903 2.243-.172.085 1.121-2.246.172Zm0 0"/><path d="m35.496 332.012.988-2.024 1.008.496-.988 2.02Zm1.977-4.043.988-2.024 1.008.496-.989 2.02Zm1.976-4.043.985-2.024 1.011.496-.988 2.02Zm1.973-4.043.988-2.024 1.012.496-.988 2.02Zm1.976-4.043.989-2.024 1.011.497-.988 2.019Zm1.977-4.043.988-2.02 1.012.493-.988 2.02Zm1.977-4.043.988-2.024 1.012.497-.989 2.02Zm1.976-4.043.988-2.02 1.012.493-.988 2.023Zm1.977-4.043.988-2.02 1.012.493-.989 2.02Zm2.004-4.055.683-1.254.399-.722.988.543-.399.718-.683 1.254Zm2.164-3.949 1.082-1.973.988.543-1.082 1.973Zm2.164-3.945 1.082-1.973.988.54-1.082 1.972Zm2.164-3.946 1.082-1.972.988.543-1.082 1.972Zm2.164-3.945 1.082-1.973.988.54-1.082 1.972Zm2.18-3.957.738-1.254.441-.687.946.605-.434.68-.473-.3.485.284-.735 1.242Zm2.39-3.836 1.211-1.894.945.601-1.21 1.899Zm2.422-3.793 1.211-1.894.95.605-1.212 1.895Zm2.422-3.793 1.21-1.894.95.605-1.21 1.895Zm2.465-3.789.281-.402 1.086-1.418.894.687-1.078 1.403-.449-.344.465.324-.273.39Zm2.738-3.605 1.371-1.782.895.684-1.371 1.785Zm2.742-3.567 1.371-1.785.89.684-1.37 1.785Zm2.785-3.57.442-.52 1.136-1.14.797.793-1.12 1.125-.4-.395.43.364-.43.503Zm3.168-3.254 1.59-1.594.797.793-1.59 1.594Zm3.176-3.187 1.59-1.594.797.793-1.59 1.594Zm3.18-3.188.219-.223.867-.742.719-.52.66.915-.7.504-.332-.457.368.43-.832.71-.368-.426.399.395-.203.207Zm3.629-2.8 1.824-1.321.656.914-1.82 1.316Zm3.644-2.637.563-.407.875-.535.566-.277.492 1.015-.543.262-.246-.504.293.48-.832.509-.293-.48.328.456-.543.39Zm4.028-2.2 2.023-.984.492 1.012-2.023.984Zm4.05-1.964.13-.063.882-.328 1.23-.324.29 1.086-1.207.32-.145-.543.195.527-.832.309-.195-.531.246.507-.105.051Zm4.418-1.293 2.176-.575.285 1.086-2.175.578Zm4.5-.903 2.243-.172.085 1.121-2.246.172Zm0 0"/></g><g clip-path="url(#q)"><path fill="#EF553B" d="m35.45 332.148.44-2.207 1.102.22-.441 2.206Zm.882-4.414.441-2.207 1.102.223-.441 2.203Zm.879-4.414.441-2.203 1.106.219-.442 2.207Zm.883-4.41.441-2.207 1.106.219-.442 2.207Zm.883-4.414.441-2.207 1.102.223-.442 2.207Zm.882-4.414.442-2.203 1.101.219-.441 2.207Zm.883-4.41.442-2.207 1.101.219-.441 2.207Zm.883-4.414.438-2.207 1.105.222-.441 2.207Zm.879-4.414.441-2.203 1.106.218-.442 2.207Zm.883-4.41.441-2.207 1.102.218-.438 2.207Zm.883-4.414.44-2.207 1.102.222-.44 2.207Zm.882-4.415.442-2.203 1.101.22-.441 2.206Zm.883-4.41.442-2.207 1.101.223-.441 2.203Zm.88-4.414.44-2.207 1.106.223-.441 2.207Zm.882-4.41.441-2.207 1.106.219-.442 2.207Zm.883-4.414.441-2.207 1.102.223-.442 2.203Zm.883-4.414.44-2.203 1.102.219-.44 2.207Zm.882-4.41.102-.512.36-1.7 1.1.235-.359 1.688-.101.508Zm.93-4.41.004-.024.5-2.18 1.094.25-.493 2.165-.003.023Zm1.004-4.395.5-2.195 1.098.25-.5 2.195Zm1-4.39.5-2.192 1.098.25-.5 2.195Zm1.004-4.387.5-2.192 1.094.25-.5 2.196Zm1-4.387.5-2.191 1.097.25-.5 2.191Zm1-4.387.5-2.191 1.097.25-.5 2.191Zm1.004-4.386.5-2.196 1.097.25-.504 2.196Zm1-4.387.5-2.195 1.097.25-.5 2.195Zm1-4.387.379-1.66.132-.543 1.094.27-.129.523-.379 1.66Zm1.05-4.387.165-.671.425-1.516 1.082.3-.422 1.509-.539-.153.547.137-.164.664Zm1.192-4.355.605-2.168 1.082.3-.605 2.169Zm1.207-4.336.605-2.168 1.082.3-.605 2.169Zm1.207-4.336.605-2.168 1.082.305-.605 2.164Zm1.207-4.336.605-2.168 1.082.305-.605 2.168Zm1.207-4.332.606-2.168 1.082.301-.606 2.168Zm1.207-4.336.606-2.168 1.082.301-.602 2.168Zm1.207-4.336.606-2.168 1.082.301-.602 2.168Zm1.238-4.347.606-1.926.086-.235 1.058.375-.078.227-.531-.191.535.172-.605 1.917Zm1.446-4.282.757-2.117 1.06.375-.755 2.121Zm1.511-4.238.758-2.117 1.059.375-.754 2.121Zm1.512-4.238.758-2.117 1.059.375-.754 2.12Zm1.512-4.238.515-1.438.282-.695 1.043.43-.278.68-.523-.216.531.192-.508 1.425Zm1.7-4.227.964-2.031 1.016.48-.965 2.035Zm1.929-4.063.96-2.035 1.02.48-.965 2.036Zm1.926-4.066.824-1.742.203-.328.957.59-.184.3-.48-.293.508.239-.813 1.715Zm2.289-3.98 1.324-1.825.91.664-1.324 1.82Zm2.644-3.645.172-.238.906-.914.742-.473.606.95-.688.437-.304-.473.398.395-.832.84-.398-.395.457.328-.149.203Zm3.883-2.89.91-.239 1.524.227-.168 1.113-1.407-.21.082-.556.141.543-.797.207Zm4.8.91 1.618 1.562-.781.813-1.618-1.567Zm3.173 3.28.144.177 1.074 1.808-.968.574-1.051-1.77.48-.288-.437.351-.117-.144Zm2.37 3.919 1.15 1.93-.966.578-1.152-1.934Zm2.286 3.91.527 1.008.528.965-.985.539-.539-.985-.527-1.007Zm2.137 3.945 1.082 1.977-.989.539-1.082-1.973Zm2.164 3.95 1.078 1.972-.985.54-1.082-1.973Zm2.16 3.945 1.082 1.972-.988.543-1.082-1.976Zm2.16 3.945.277.504-.492.27.453-.332.883 1.199-.453.332.422-.375.12.14-.835.75-.14-.16-.926-1.25-.293-.535Zm2.71 3.414 1.505 1.676-.84.75-1.5-1.676Zm3.169 2.738 1.676.711-.22.52.044-.563.43.036-.086 1.12-.52-.042-1.762-.742Zm0 0"/></g><g fill="#EF553B" clip-path="url(#r)"><path d="m35.98 118.531 2.247-.086.043 1.125-2.25.082Zm4.497-.168 2.246-.086.043 1.125-2.246.086Zm4.496-.168 2.25-.082.039 1.121-2.246.086Zm4.496-.168 1.61-.058.019.562-.047-.562.64-.051.09 1.121-.652.05-1.617.063Zm4.453-.324 2.242-.215.106 1.117-2.239.22Zm4.48-.433 2.239-.22.109 1.122-2.238.219Zm4.48-.434 2.24-.219.108 1.121-2.242.219Zm4.477-.434 2.239-.218.109 1.12-2.238.216Zm4.48-.433 1.852-.18.387-.039.11 1.117-.387.04-1.852.179Zm4.49-.414 2.241-.184.094 1.121-2.242.184Zm4.484-.371 2.242-.188.093 1.121-2.242.188Zm4.484-.371 2.242-.188.094 1.121-2.242.188Zm4.484-.372 2.242-.187.094 1.121-2.242.188Zm4.485-.375 1.254-.101.851-.055.168-.004.035 1.125-.16.004-.016-.562.036.562-.82.05-1.255.106Zm4.523-.226 2.25-.063.031 1.121-2.25.067Zm4.5-.13 2.246-.065.035 1.125-2.25.066Zm4.496-.128 2.25-.066.031 1.125-2.25.066Zm4.5-.133 2.25-.062.031 1.125-2.25.062Zm4.496-.129 1.426-.039h.84v1.125h-.832v-.562l.015.562-1.414.04Zm0 0"/><path d="m35.98 118.531 2.247-.086.043 1.125-2.25.082Zm4.497-.168 2.246-.086.043 1.125-2.246.086Zm4.496-.168 2.25-.082.039 1.121-2.246.086Zm4.496-.168 1.61-.058.019.562-.047-.562.64-.051.09 1.121-.652.05-1.617.063Zm4.453-.324 2.242-.215.106 1.117-2.239.22Zm4.48-.433 2.239-.22.109 1.122-2.238.219Zm4.48-.434 2.24-.219.108 1.121-2.242.219Zm4.477-.434 2.239-.218.109 1.12-2.238.216Zm4.48-.433 1.852-.18.387-.039.11 1.117-.387.04-1.852.179Zm4.49-.414 2.241-.184.094 1.121-2.242.184Zm4.484-.371 2.242-.188.093 1.121-2.242.188Zm4.484-.371 2.242-.188.094 1.121-2.242.188Zm4.484-.372 2.242-.187.094 1.121-2.242.188Zm4.485-.375 1.254-.101.851-.055.168-.004.035 1.125-.16.004-.016-.562.036.562-.82.05-1.255.106Zm4.523-.226 2.25-.063.031 1.121-2.25.067Zm4.5-.13 2.246-.065.035 1.125-2.25.066Zm4.496-.128 2.25-.066.031 1.125-2.25.066Zm4.5-.133 2.25-.062.031 1.125-2.25.062Zm4.496-.129 1.426-.039h.84v1.125h-.832v-.562l.015.562-1.414.04Zm0 0"/></g><g clip-path="url(#s)"><path fill="#EF553B" d="m35.898 118.54 2.211-.415.207 1.105-2.214.415Zm4.157-.978 1.91-1.19.594.952-1.907 1.192Zm3.699-2.417.273-.227.36.434-.407-.395 1.32-1.36.81.786-1.344 1.383-.293.242Zm3.117-3.16 1.566-1.614.81.781-1.571 1.618Zm3.02-3.274 1.433-1.734.867.718-1.433 1.735Zm2.867-3.465 1.433-1.734.868.715-1.434 1.734Zm2.867-3.469 1.434-1.734.867.715-1.434 1.734Zm2.867-3.468 1.434-1.735.867.719-1.434 1.734Zm2.867-3.47 1.434-1.734.867.72-1.433 1.734Zm2.946-3.503.71-.64 1.133-.774.633.93-1.101.753-.317-.464.375.418-.68.613Zm3.703-2.68 1.3-.886.7-.325.469 1.024-.657.3-.234-.507.316.465-1.261.859Zm4.273-1.816 1.39-.34.954-.027.102.02-.204 1.105-.046-.008.101-.55.016.562-.832.02-.016-.563.137.546-1.332.329Zm4.66.062 1.188.223.93.379.21.129-.593.957-.172-.11.297-.476-.211.523-.832-.34.21-.519-.1.55-1.134-.206Zm4.239 1.922 1.91 1.192-.598.953-1.91-1.192Zm3.746 2.61 1.738 1.433-.719.867-1.734-1.433Zm3.472 2.863 1.735 1.433-.715.868-1.734-1.434Zm3.47 2.863 1.558 1.285-.36.434.258-.5.207.105-.515 1-.258-.132-1.606-1.32Zm3.671 2.02 1.84.507-.149.543.028-.562.34.016-.055 1.125-.402-.02-1.903-.527Zm4.195.324 2.235-.281.14 1.117-2.234.281Zm4.371-.762 2.196-.504.25 1.098-2.192.504Zm4.387-1.008 2.195-.504.25 1.098-2.19.504Zm4.387-1.007 2.191-.504.254 1.097-2.195.504Zm4.523-.758 2.25-.098.051 1.121-2.25.102Zm0 0"/></g><path fill="#EF553B" d="m119.867 228.191 2.235-.261.132 1.117-2.238.262Zm4.418-.52.27-.054.117.547-.2-.523 1.84-.707.403 1.05-1.883.723-.312.066Zm4.13-1.546 1.366-.523.203.523-.254-.504.317-.156.25.504-.309-.473.364-.234.613.941-.387.254-.367.184-1.395.535Zm3.823-2.094 1.883-1.23.613.941-1.882 1.23Zm3.582-2.52 1.618-1.566.78.809-1.616 1.566Zm3.235-3.132 1.613-1.563.785.805-1.617 1.566Zm3.23-3.129 1.57-1.523.391.406-.441-.344.039-.05.886.69-.062.079-1.598 1.55Zm2.977-3.273 1.418-1.747.875.708-1.418 1.75Zm2.836-3.493 1.023-1.261.871.71-1.02 1.258Zm0 0"/><path fill="#EF553B" d="m119.79 228.207 2.175-.578.285 1.09-2.172.574Zm3.75-1.789 1.03-.871.364.43-.41-.387.308-.328.41.383-.457-.329.258-.363.918.656-.281.391-.356.383-1.058.894Zm2.812-3.293 1.09-1.527.456.328-.476-.305.203-.316.95.605-.212.328-1.097 1.54Zm2.308-3.762 1.043-1.996.996.524-1.043 1.992Zm2.074-3.972.25-.512.504.242-.523-.203.61-1.566 1.046.406-.613 1.59-.258.53Zm1.653-4.137.812-2.098 1.051.406-.816 2.098Zm1.625-4.195.812-2.098 1.051.406-.812 2.098Zm1.625-4.196.816-2.097 1.047.406-.812 2.098Zm1.629-4.199.812-2.098 1.047.41-.812 2.098Zm1.625-4.195.672-1.727.128-.363 1.059.387-.14.382-.669 1.73Zm1.55-4.203.75-2.121 1.063.375-.75 2.12Zm1.5-4.243.75-2.125 1.059.375-.75 2.122Zm1.496-4.246.524-1.476.867.594.906.617-.636.93-.907-.622-.261-.18.316-.464.531.187-.277.79Zm4.153 1.004 1.855 1.27-.632.93-1.86-1.27Zm-27.61-9.437 2.243.183-.094 1.121-2.242-.187Zm4.485.367 2.242.187-.094 1.122-2.242-.188Zm4.52.719 2.183.547-.273 1.093-2.184-.547Zm4.363 1.093.394.098.305.113 1.48.633-.441 1.035-1.469-.629.219-.515-.195.527-.262-.097.195-.528-.137.547-.359-.09Zm4.246 1.73 2.07.888-.441 1.03-2.07-.882Zm4.136 1.813 2.043.942-.472 1.023-2.043-.945Zm2.43.2.73-2.13 1.063.368-.73 2.129Zm1.461-4.258.73-2.125 1.063.363-.73 2.129Zm1.461-4.254.73-2.129 1.067.367-.73 2.13Zm1.461-4.258.484-1.402 1.063.367-.48 1.402Zm-28.57-53.215 2.242.153-.074 1.12-2.246-.152Zm4.488.305 2.242.152-.074 1.121-2.246-.152Zm4.555.39 2.203.45-.223 1.101-2.207-.449Zm4.41.899 1.73.355.352.09.183.063-.37 1.062-.16-.054.183-.532-.14.547-.317-.086.144-.543-.113.551-1.719-.351Zm4.39 1.246 2.125.738-.367 1.063-2.129-.738Zm4.282 1.488.3.125 1.758.883-.508 1.004-1.738-.875.254-.5-.219.52-.277-.118Zm4.066 2.02 2.012 1.008-.504 1.004-2.012-1.008Zm0 0"/><path fill="#EF553B" d="m119.887 113.281 2.246-.176.086 1.122-2.242.175Zm4.488-.351 2.242-.176.09 1.121-2.246.176Zm4.375-.578 2.203-.477.234 1.102-2.199.472Zm4.402-.95 1.758-.382.121.55-.144-.543.316-.086.117-.027.285 1.086-.117.031-.328.086-1.773.383Zm4.348-1.058 2.176-.57.285 1.085-2.176.57Zm4.352-1.14 2.175-.571.286 1.09-2.176.57Zm4.351-1.141 2.18-.57.285 1.089-2.18.57ZM119.965 95.86l2.246.128-.063 1.121-2.25-.129Zm4.492.253 2.246.13-.062 1.124-2.246-.129Zm4.492.258.512.027.34.043 1.437.243-.187 1.109-1.426-.242.094-.555-.067.559-.308-.035.07-.56-.035.563-.492-.03Zm4.508.692 2.219.378-.192 1.11-2.214-.38Zm4.438.753 1.968.336.258.051-.21 1.106-.235-.047-1.973-.336Zm4.44.942 2.18.55-.273 1.09-2.183-.55Zm4.364 1.101 2.18.551-.274 1.09-2.18-.55Zm0 0"/><g clip-path="url(#t)"><path fill="#EF553B" d="m149.098 207.254 1.3-1.836.918.648-1.3 1.836Zm2.601-3.672 1.301-1.836.918.649-1.3 1.835Zm2.602-3.672 1.3-1.836.919.649-1.301 1.836Zm2.601-3.672 1.301-1.836.918.649-1.3 1.836Zm3.641-2.32.062.043 1.536 1.719-.84.75-1.488-1.668.417-.375-.324.457-.011-.004Zm3.098 3.437 1.5 1.68-.84.746-1.5-1.676Zm3 3.356.273.305.899 1.101.28.375-.902.672-.273-.363.453-.34-.437.36-.883-1.083.433-.355-.418.375-.265-.297Zm2.8 3.582 1.348 1.8-.902.673-1.348-1.801Zm2.696 3.602 1.347 1.8-.902.676-1.348-1.8Zm2.695 3.605 1.348 1.8-.903.677-1.347-1.805Zm2.66 3.656.137.196 1.09 1.71-.95.606-1.085-1.703.472-.3-.465.315-.129-.19Zm2.438 3.805 1.207 1.898-.946.606-1.21-1.899Zm2.418 3.793 1.21 1.898-.949.606-1.21-1.899Zm2.422 3.793 1.207 1.898-.946.606-1.21-1.899Zm2.417 3.797.239.367.887 1.5.05.086-.98.555-.035-.063-.887-1.496.484-.285-.472.3-.235-.359Zm2.282 3.914 1.105 1.957-.98.555-1.106-1.961Zm2.21 3.918 1.11 1.957-.98.554-1.106-1.957Zm2.216 3.918 1.105 1.96-.98.551-1.106-1.957Zm2.21 3.918 1.11 1.96-.98.551-1.106-1.957Zm2.215 3.918 1.106 1.96-.98.551-1.106-1.957Zm2.192 3.945.308.582.727 1.426-1 .512-.719-1.407-.308-.582Zm2.058 4.016 1.02 2.004-1.004.511-1.02-2.008Zm2.04 4.007 1.023 2.004-1.004.512-1.02-2.004Zm2.042 4.012 1.024 2.004-1.004.512-1.02-2.008Zm2.043 4.008 1.024 2.004-1.004.512-1.02-2.004Zm2.043 4.012 1.02 2.004-1 .511-1.024-2.007Zm2.043 4.007 1.02 2.008-1 .508-1.024-2.004Zm2.043 4.012 1.02 2.004-1 .512-1.024-2.004Zm2.043 4.02.832 1.695.156.328-1.011.488-.156-.324-.829-1.695Zm1.973 4.047.984 2.023-1.012.488-.984-2.023Zm1.969 4.046.98 2.024-1.012.492-.98-2.023Zm1.964 4.047.985 2.024-1.012.492-.984-2.023Zm1.97 4.047.984 2.024-1.012.492-.985-2.024Zm1.968 4.047.781 1.613.203.399-1.004.508-.21-.414-.786-1.614Zm1.992 4.04.969 2.027-1.012.484-.972-2.027Zm1.942 4.058.968 2.031-1.015.484-.97-2.03Zm1.937 4.062.973 2.028-1.016.484-.973-2.027Zm1.941 4.059.97 2.031-1.016.485-.97-2.032Zm1.938 4.062.973 2.028-1.016.484-.973-2.027Zm1.941 4.059.703 1.473-1.015.484-.703-1.473Zm0 0"/></g><g clip-path="url(#u)"><path fill="#EF553B" d="m149.922 184.379 1.715 1.453-.727.86-1.715-1.454Zm3.433 2.91 1.715 1.453-.726.86-1.719-1.457Zm3.43 2.906.281.239.899.859.484.488-.793.793-.469-.469-.886-.847.39-.406-.363.43-.27-.227Zm2.418 2.586.606-.687.421.37-.449-.339.805-1.062.898.68-.82 1.077-.617.703Zm2.746-3.508 1.36-1.793.894.68-1.36 1.793Zm2.719-3.585 1.363-1.793.895.68-1.36 1.792Zm2.723-3.586 1.324-1.743.094-.097.796.793-.066.07-.398-.398.445.34-1.3 1.714Zm3.203-3.352 1.844-1.293.644.922-1.844 1.293Zm4.164-2.316 2.25-.024.012 1.125-2.25.024Zm4.574 1.011 1.773 1.172.168.164-.789.801-.129-.125.395-.402-.309.468-1.73-1.136Zm3.473 3.075 1.379 1.78-.891.692-1.375-1.781Zm2.754 3.562.078.102.906 1.414.254.464-.984.543-.247-.445.493-.273-.473.304-.883-1.379.473-.304-.446.344-.062-.082Zm2.324 3.95 1.086 1.972-.985.543-1.086-1.973Zm2.172 3.94 1.086 1.973-.985.543-1.086-1.972Zm2.156 3.985.605 1.258.356.797-1.031.457-.348-.79.516-.226-.508.246-.606-1.25Zm1.867 4.113.91 2.059-1.027.457-.91-2.059Zm1.82 4.118.91 2.058-1.03.453-.907-2.058Zm1.82 4.117.91 2.054-1.03.457-.91-2.058Zm1.817 4.113.422.953.461 1.137-1.043.422-.457-1.125.523-.211-.515.226-.418-.945Zm1.707 4.2.79 2.105-1.052.394-.792-2.105Zm1.582 4.21.79 2.11-1.052.394-.792-2.105Zm1.582 4.215.79 2.105-1.055.395-.79-2.106Zm1.582 4.21.79 2.11-1.055.395-.79-2.106Zm1.582 4.216.79 2.105-1.055.395-.79-2.106Zm1.578 4.215.793 2.105-1.054.395-.79-2.106Zm1.582 4.226.743 2.121-1.063.371-.742-2.125Zm1.454 4.27.703 2.136-1.067.352-.707-2.137Zm1.41 4.273.703 2.137-1.067.351-.707-2.136Zm1.41 4.274.703 2.136-1.066.352-.707-2.137Zm1.41 4.273.703 2.133-1.066.355-.707-2.136Zm1.41 4.27.703 2.136-1.066.356-.707-2.137Zm1.41 4.273.703 2.137-1.066.355-.707-2.137Zm1.41 4.273.704 2.137-1.067.356-.707-2.137Zm1.41 4.274.704 2.137-1.067.355-.707-2.137Zm1.395 4.289.535 1.715.133.437-1.078.328-.129-.43-.535-1.714Zm1.32 4.308.653 2.153-1.078.324-.653-2.152Zm1.305 4.305.653 2.153-1.079.328-.652-2.153Zm1.305 4.305.652 2.156-1.074.324-.652-2.152Zm1.305 4.308.652 2.153-1.074.328-.653-2.156Zm1.304 4.31.653 2.151-1.075.325-.652-2.153Zm1.305 4.304.652 2.152-1.074.328-.652-2.152Zm1.309 4.308.652 2.153-1.078.324-.653-2.152Zm1.304 4.305.653 2.152-1.079.329-.652-2.153Zm1.305 4.305.652 2.156-1.078.324-.652-2.152Zm1.305 4.308.652 2.153-1.078.328-.653-2.156Zm1.304 4.309.653 2.152-1.078.324-.653-2.152Zm1.305 4.305.012.035-1.078.328-.012-.035Zm0 0"/></g><g clip-path="url(#v)"><path fill="#EF553B" d="m149.031 165.078.793-2.105 1.055.398-.793 2.106Zm1.586-4.21.793-2.106 1.055.398-.793 2.106Zm1.586-4.212.793-2.105 1.055.398-.793 2.106Zm1.59-4.21.793-2.106 1.05.398-.792 2.106Zm1.586-4.212.789-2.097.012-.028 1.035.438-.008.02-.516-.22.524.2-.785 2.086Zm1.7-4.23 1.023-2.004 1 .508-1.02 2.008Zm2.046-4.008 1.02-2.008 1.003.512-1.023 2.004Zm2.043-4.012.398-.78.786-1.2.941.617-.77 1.176-.472-.309.504.254-.387.754Zm3.531-2.898.38.324-.364.426.332-.453 1.414 1.039-.668.906-1.426-1.05-.394-.333Zm3.574 2.672 1.813 1.332-.668.906-1.813-1.332Zm3.61 2.52.222.117-.257.496.144-.543 1.934.511-.29 1.09-1.991-.527-.278-.145Zm4.078.976.297-.008.015.563-.148-.543 1.883-.512.297 1.086-1.95.527-.367.012Zm4.344-1.156.757.039 1.055 1.586.094.172-.98.55-.086-.152.492-.277-.469.312-.887-1.336.469-.308-.027.562-.477-.027Zm3.004 3.757 1.101 1.965-.98.547-1.102-1.96Zm2.203 3.926 1.097 1.961-.98.551-1.098-1.961Zm2.187 3.965.64 1.309.329.75-1.031.453-.325-.742.516-.227-.504.25-.637-1.293Zm1.867 4.121.903 2.063-1.031.453-.903-2.063Zm1.801 4.125.899 2.067-1.032.449-.898-2.063Zm1.797 4.13.899 2.062-1.032.449-.898-2.063Zm1.774 4.155.55 1.422.25.703-1.062.371-.242-.691.527-.187-.524.203-.55-1.41Zm1.55 4.246.746 2.122-1.058.375-.75-2.122Zm1.496 4.243.75 2.12-1.062.376-.75-2.121Zm1.496 4.242.75 2.12-1.058.376-.75-2.121Zm1.5 4.246.75 2.121-1.062.371-.75-2.117Zm1.497 4.242.152.426.55 1.726-1.07.344-.55-1.722.535-.168-.528.187-.148-.418Zm1.37 4.316.641 2.157-1.078.32-.64-2.156Zm1.278 4.313.64 2.16-1.077.317-.641-2.157Zm1.281 4.316.64 2.157-1.077.32-.64-2.156Zm1.278 4.313.64 2.156-1.078.32-.64-2.156Zm1.28 4.316.641 2.157-1.078.32-.64-2.156Zm1.282 4.313.64 2.156-1.081.32-.637-2.156Zm1.277 4.312.012.043.59 2.14-1.086.298-.582-2.117-.012-.043Zm1.18 4.368.559 2.18-1.09.277-.559-2.176Zm1.121 4.355.559 2.18-1.09.28-.559-2.179Zm1.121 4.36.559 2.179-1.09.281-.559-2.18Zm1.121 4.359.559 2.18-1.09.277-.558-2.176Zm1.118 4.36.562 2.179-1.09.277-.562-2.18Zm1.12 4.355.563 2.18-1.09.28-.562-2.18Zm1.122 4.359.558 2.18-1.086.28-.562-2.179Zm1.12 4.36.56 2.179-1.09.277-.559-2.175Zm1.122 4.355.547 2.133.012.054-1.09.266-.012-.04-.547-2.132Zm1.094 4.375.347 1.426.176.77-1.094.25-.175-.755-.348-1.426Zm1.031 4.387.508 2.19-1.098.255-.508-2.192Zm1.012 4.382.507 2.192-1.097.254-.504-2.192Zm1.015 4.387.504 2.191-1.094.254-.507-2.191Zm1.012 4.383.508 2.191-1.098.254-.508-2.191Zm1.012 4.387.508 2.191-1.094.254-.508-2.195Zm1.015 4.382.504 2.192-1.093.254-.508-2.192Zm1.012 4.383.508 2.195-1.098.254-.504-2.195Zm1.012 4.387.508 2.191-1.094.254-.508-2.191Zm1.015 4.383.504 2.191-1.093.254-.508-2.191Zm1.012 4.386.508 2.192-1.098.254-.504-2.192Zm1.012 4.383.508 2.192-1.094.254-.508-2.192Zm1.016 4.387.507 2.191-1.097.254-.508-2.195Zm1.011 4.383.508 2.191-1.098.254-.507-2.191Zm1.016 4.383.504 2.195-1.094.254-.508-2.195Zm1.012 4.386.507 2.192-1.097.254-.508-2.192Zm1.011 4.383.157.676-1.094.254-.156-.676Zm0 0"/></g><path fill="#EF553B" d="m149.883 121.664 1.836 1.293-.645.922-1.84-1.297Zm3.676 2.59 1.84 1.297-.649.918-1.836-1.293Zm3.695 2.625.672.535 1.086.883-.711.871-1.074-.875-.672-.535Zm3.5 2.84 1.746 1.418-.71.87-1.743-1.417Zm2.703 2.797.871-1.004.828-.625.68.898-.781.59-.34-.45.426.368-.836.96Zm3.496-2.985.149-.11 1.058-.378 1.313.012-.012 1.125-1.211-.008.004-.563.187.528-.882.316-.188-.531.34.45-.082.058Zm4.906-.191.227.078 1.824 1.105-.586.961-1.77-1.074.294-.48-.18.53-.172-.054Zm3.98 2.62 1.505 1.673-.836.754-1.504-1.672Zm3.013 3.345.503.562.95 1.2-.883.695-.934-1.184.438-.348-.418.375-.492-.546Zm2.445 1.742 1.691-1.488.742.847-1.69 1.485Zm3.383-2.973 1.687-1.484.742.844-1.687 1.488Zm3.324-3.02 1.672-1.503.754.836-1.672 1.508Zm3.344-3.007 1.672-1.508.753.836-1.671 1.504Zm3.343-3.012 1.684-1.515.027-.024.676.899-.008.007-.336-.449.375.418-1.664 1.5Zm3.614-2.832 1.914-1.18.59.957-1.918 1.18Zm3.832-2.36.574-.355.941-.445.625-.211.36 1.066-.594.2-.18-.532.242.508-.882.418-.243-.508.293.48-.546.337Zm4.273-1.726 2.137-.715.355 1.067-2.132.715Zm4.5-1.129 2.246-.07.035 1.125-2.246.07Zm4.55.11 2.243.187-.094 1.121-2.242-.187Zm4.485.375 2.243.187-.094 1.121-2.242-.187Zm4.485.375 2.242.187-.094 1.121-2.242-.187Zm4.484.375 1.715.144-.05.559.026-.559.528.02-.047 1.125-.543-.024-1.723-.144Zm4.457.215 2.25.039-.023 1.125-2.246-.04Zm4.496.078.738.015-.02 1.125-.737-.015Zm0 0"/><path fill="#EF553B" d="m149.45 107.215 2.21-.43.215 1.106-2.21.43Zm4.417-.86 2.207-.43.215 1.106-2.207.43Zm4.418-.859 2.207-.43.215 1.106-2.207.43Zm4.418-.86.266-.05 1.027.32 1.129.328-.316 1.079-1.145-.333-.894-.277.167-.539.106.555-.125.023Zm4.582 1.223 2.16.63-.312 1.081-2.16-.629Zm4.32 1.258 2.16.63-.312 1.077-2.16-.629Zm4.32 1.254 2.165.629-.317 1.082-2.16-.629Zm4.325 1.258 2.16.629-.316 1.078-2.16-.625Zm4.32 1.254 2.16.629-.312 1.082-2.16-.63Zm4.29 1.215 2.199.465-.23 1.101-2.204-.465Zm4.402.93 2.203.464-.235 1.102-2.199-.465Zm4.402.929 2.203.465-.234 1.101-2.2-.464Zm4.402.93 2.204.465-.23 1.097-2.204-.465Zm4.407.93.164.03-.117.551.093-.55.887.148-.094.555.043-.563 1.18.09-.086 1.125-1.207-.094-.922-.156-.176-.039Zm4.398.437 2.242.172-.086 1.12-2.242-.171Zm4.434.262.132-.004 2.165.16-.082 1.121-2.137-.156.039-.563.016.563-.106.004Zm4.543.324 2.242.164-.082 1.121-2.242-.164Zm4.511.375.043.008-.07.558.055-.562 2.195.215-.11 1.12-2.202-.214-.051-.008Zm4.461.437 2.243.22-.11 1.12-2.242-.219Zm4.48.438 2.24.219-.11 1.12-2.239-.218Zm4.43.433.872.008-.008 1.125-.875-.008Zm0 0"/><path fill="#EF553B" d="m149.71 100.617 2.165.61-.305 1.085-2.164-.609Zm4.333 1.223 2.164.61-.305 1.081-2.164-.61Zm4.328 1.219 2.168.609-.305 1.082-2.164-.61Zm3.895.882.422-.21.25.503-.329-.457 1.453-1.035.653.918-1.488 1.059-.457.23Zm3.629-2.504.265-.187.324.457-.382-.41.886-.824.383.41-.426-.367.47-.543.847.738-.485.562-.937.872-.293.21Zm2.992-3.164 1.472-1.699.852.739-1.477 1.699Zm2.949-3.398 1.355-1.57.426.37-.437-.355.11-.136.874.707-.117.144-1.363 1.574Zm2.934-3.426 1.515-1.668.832.758-1.515 1.664Zm3.027-3.332 1.512-1.664.832.754-1.512 1.668Zm3.113-3.32.371-.336 1.473-1.055.656.914-1.45 1.035-.323-.457.375.418-.348.317Zm3.676-2.703 1.18-.848.785-.398.512 1-.747.382-.257-.503.328.457-1.149.824Zm4.187-1.98 1.641-.52.621-.082.149 1.113-.57.078-.075-.558.168.535-1.594.504Zm4.614-.54 1.66.094.672.164-.27 1.094-.62-.153.132-.546-.031.562-1.61-.094Zm4.5 1.117 1.808.758.32.192-.581.964-.286-.171.293-.48-.218.519-1.77-.743Zm4.004 2.313 1.761 1.394-.695.883-1.766-1.394Zm3.543 2.855.609.586.96 1.09-.843.742-.945-1.07.422-.371-.39.402-.595-.57Zm3.058 3.364 1.488 1.687-.843.742-1.489-1.687Zm2.977 3.37.847.962.618.793-.887.691-.61-.777.446-.348-.422.375-.836-.95Zm2.86 3.509 1.405 1.757-.879.704-1.406-1.758Zm2.808 3.515 1.406 1.758-.879.703-1.406-1.758Zm2.808 3.52 1.407 1.758-.88.699-1.406-1.758Zm2.809 3.515 1.406 1.758-.879.703-1.406-1.761Zm2.809 3.516 1.406 1.758-.88.703-1.405-1.758Zm2.89 3.262 1.77 1.386-.692.883-1.773-1.386Zm3.543 2.773.7.547-.344.445.277-.488.883.5-.278.492.188-.531.32.11-.37 1.062-.372-.13-.965-.546-.734-.574Zm3.871 1.82 1.094.38-.188.53.075-.554.937.117-.074.559.027-.563.145.008-.047 1.125-.172-.008-1.02-.133-1.148-.402Zm0 0"/><g fill="#EF553B" clip-path="url(#w)"><path d="m238.066 332.074.727-2.129 1.062.364-.726 2.128Zm1.454-4.258.726-2.128 1.066.363-.726 2.129Zm1.453-4.257.73-2.13 1.063.364-.727 2.129Zm1.457-4.258.726-2.13 1.063.364-.727 2.13Zm1.453-4.258.726-2.129 1.067.363-.727 2.13Zm1.453-4.258.73-2.133 1.063.368-.727 2.128Zm1.457-4.262.727-2.128 1.062.363-.727 2.133Zm1.453-4.257.727-2.13 1.066.364-.726 2.129Zm1.457-4.258.727-2.13 1.062.364-.726 2.13Zm1.453-4.258.727-2.129 1.062.363-.726 2.13Zm1.453-4.258.727-2.129 1.066.364-.726 2.128Zm1.457-4.258.727-2.132 1.062.367-.726 2.129Zm1.454-4.261.726-2.13 1.067.364-.727 2.129Zm1.457-4.266.718-2 .047-.121 1.055.39-.043.114-.719 2Zm1.539-4.23.78-2.114 1.056.39-.778 2.11Zm1.558-4.227.778-2.11 1.054.391-.777 2.11Zm1.555-4.223.777-2.109 1.055.387-.777 2.113Zm1.555-4.218.777-2.114 1.055.39-.778 2.11Zm1.574-4.223.18-.473.664-1.629 1.039.422-.653 1.61-.18.468Zm1.687-4.188.848-2.082 1.043.422-.848 2.086Zm1.696-4.168.847-2.082 1.043.422-.847 2.086Zm1.699-4.167.844-2.083 1.043.422-.848 2.086Zm1.691-4.168.848-2.086 1.043.425-.848 2.082Zm1.696-4.168.847-2.086 1.043.425-.847 2.086Zm1.695-4.168.848-2.086 1.043.425-.848 2.082Zm1.765-4.172.965-2.035 1.016.48-.961 2.035Zm1.926-4.07.961-2.032 1.02.48-.965 2.032Zm1.926-4.067.961-2.035 1.02.484-.965 2.031Zm1.926-4.066.96-2.036 1.016.48-.96 2.036Zm1.926-4.067.96-2.035 1.016.48-.96 2.036Zm1.949-4.078.445-.867.637-1.129.98.55-.632 1.122-.489-.274.5.254-.441.86Zm2.183-3.957 1.102-1.96.98.55-1.101 1.96Zm2.204-3.922 1.105-1.96.98.55-1.105 1.96Zm2.207-3.922 1.101-1.965.98.555-1.1 1.961Zm2.257-3.93.317-.492 1.004-1.37.906.66-.992 1.359-.453-.332.472.3-.304.481Zm2.649-3.68 1.328-1.815.906.664-1.328 1.816Zm2.656-3.632.871-1.195.543-.617.844.746-.524.593-.421-.37.453.331-.86 1.176Zm3.098-3.394 1.668-1.512.754.832-1.664 1.512Zm3.683-2.848 2.067-.887.445 1.035-2.07.887Zm0 0"/><path d="m238.066 332.074.727-2.129 1.062.364-.726 2.128Zm1.454-4.258.726-2.128 1.066.363-.726 2.129Zm1.453-4.257.73-2.13 1.063.364-.727 2.129Zm1.457-4.258.726-2.13 1.063.364-.727 2.13Zm1.453-4.258.726-2.129 1.067.363-.727 2.13Zm1.453-4.258.73-2.133 1.063.368-.727 2.128Zm1.457-4.262.727-2.128 1.062.363-.727 2.133Zm1.453-4.257.727-2.13 1.066.364-.726 2.129Zm1.457-4.258.727-2.13 1.062.364-.726 2.13Zm1.453-4.258.727-2.129 1.062.363-.726 2.13Zm1.453-4.258.727-2.129 1.066.364-.726 2.128Zm1.457-4.258.727-2.132 1.062.367-.726 2.129Zm1.454-4.261.726-2.13 1.067.364-.727 2.129Zm1.457-4.266.718-2 .047-.121 1.055.39-.043.114-.719 2Zm1.539-4.23.78-2.114 1.056.39-.778 2.11Zm1.558-4.227.778-2.11 1.054.391-.777 2.11Zm1.555-4.223.777-2.109 1.055.387-.777 2.113Zm1.555-4.218.777-2.114 1.055.39-.778 2.11Zm1.574-4.223.18-.473.664-1.629 1.039.422-.653 1.61-.18.468Zm1.687-4.188.848-2.082 1.043.422-.848 2.086Zm1.696-4.168.847-2.082 1.043.422-.847 2.086Zm1.699-4.167.844-2.083 1.043.422-.848 2.086Zm1.691-4.168.848-2.086 1.043.425-.848 2.082Zm1.696-4.168.847-2.086 1.043.425-.847 2.086Zm1.695-4.168.848-2.086 1.043.425-.848 2.082Zm1.765-4.172.965-2.035 1.016.48-.961 2.035Zm1.926-4.07.961-2.032 1.02.48-.965 2.032Zm1.926-4.067.961-2.035 1.02.484-.965 2.031Zm1.926-4.066.96-2.036 1.016.48-.96 2.036Zm1.926-4.067.96-2.035 1.016.48-.96 2.036Zm1.949-4.078.445-.867.637-1.129.98.55-.632 1.122-.489-.274.5.254-.441.86Zm2.183-3.957 1.102-1.96.98.55-1.101 1.96Zm2.204-3.922 1.105-1.96.98.55-1.105 1.96Zm2.207-3.922 1.101-1.965.98.555-1.1 1.961Zm2.257-3.93.317-.492 1.004-1.37.906.66-.992 1.359-.453-.332.472.3-.304.481Zm2.649-3.68 1.328-1.815.906.664-1.328 1.816Zm2.656-3.632.871-1.195.543-.617.844.746-.524.593-.421-.37.453.331-.86 1.176Zm3.098-3.394 1.668-1.512.754.832-1.664 1.512Zm3.683-2.848 2.067-.887.445 1.035-2.07.887Zm0 0"/></g><g clip-path="url(#x)"><path fill="#EF553B" d="m238.05 332.125.54-2.187 1.09.269-.535 2.184Zm1.075-4.371.54-2.188 1.093.27-.54 2.187Zm1.078-4.371.535-2.184 1.094.27-.539 2.183Zm1.074-4.367.536-2.188 1.093.27-.535 2.187Zm1.075-4.371.539-2.184 1.09.266-.536 2.187Zm1.074-4.372.539-2.183 1.094.27-.54 2.183Zm1.078-4.367.535-2.187 1.094.27-.54 2.187Zm1.074-4.37.54-2.184 1.089.27-.539 2.183Zm1.074-4.372.54-2.184 1.09.27-.536 2.184Zm1.075-4.367.539-2.184 1.093.266-.539 2.187Zm1.078-4.371.535-2.184 1.094.27-.54 2.183Zm1.074-4.371.535-2.184 1.094.27-.535 2.183Zm1.074-4.368.54-2.183 1.089.266-.535 2.187Zm1.074-4.37.54-2.184 1.093.27-.539 2.183Zm1.078-4.368.536-2.187 1.093.27-.539 2.183Zm1.075-4.37.535-2.184 1.094.27-.536 2.183Zm1.074-4.372.539-2.184 1.09.27-.535 2.184Zm1.074-4.367.54-2.188 1.093.27-.54 2.183Zm1.078-4.371.535-2.184 1.094.27-.539 2.183Zm1.074-4.367.54-2.188 1.09.27-.54 2.183Zm1.075-4.372.261-1.062.293-1.129 1.09.285-.289 1.113-.262 1.063Zm1.132-4.37.594-2.169 1.086.297-.597 2.168Zm1.192-4.34.594-2.168 1.086.296-.598 2.168Zm1.191-4.34.594-2.168 1.086.297-.594 2.168Zm1.192-4.34.593-2.168 1.086.297-.593 2.168Zm1.191-4.34.598-2.168 1.082.297-.594 2.172Zm1.192-4.336.597-2.172 1.082.297-.594 2.172Zm1.19-4.34.599-2.172 1.082.297-.594 2.172Zm1.192-4.34.598-2.172 1.082.301-.594 2.168Zm1.192-4.34.597-2.171 1.086.3-.597 2.168Zm1.191-4.34.598-2.167 1.086.297-.598 2.168Zm1.215-4.34.316-1.077.332-1.086 1.079.332-.332 1.066-.313 1.078Zm1.316-4.316.66-2.148 1.079.332-.664 2.148Zm1.329-4.296.664-2.153 1.074.332-.664 2.153Zm1.324-4.301.668-2.149 1.074.332-.664 2.149Zm1.328-4.301.668-2.148 1.074.332-.664 2.148Zm1.332-4.297.664-2.152 1.074.332-.664 2.152Zm1.328-4.3.664-2.15 1.074.333-.664 2.148Zm1.328-4.301.664-2.149 1.074.332-.664 2.149Zm1.34-4.309.582-1.738.145-.403 1.058.38-.144.394-.528-.188.535.176-.582 1.734Zm1.484-4.262.762-2.117 1.059.379-.762 2.121Zm1.52-4.234.762-2.117 1.058.379-.762 2.117Zm1.52-4.234.761-2.118 1.059.38-.762 2.116Zm1.519-4.239.762-2.117 1.058.383-.761 2.117Zm1.52-4.234.757-2.117 1.063.379-.762 2.117Zm1.519-4.235.195-.55.63-1.567 1.042.418-.62 1.559-.524-.211.53.191-.194.54Zm1.867-4.175 1.047-1.989.996.524-1.047 1.992Zm3.508-1.575 1.852 1.282-.641.925-1.852-1.285Zm3.7 2.563 1.847 1.281-.637.926-1.851-1.281Zm3.698 2.562.668.465-.32.461.25-.504.727.36-.25.504.172-.536.593.192-.34 1.07-.636-.203-.805-.394-.7-.489Zm3.985 1.622.851.27-.168.534.059-.558.727.074-.059.562.023-.562.625.023-.046 1.125-.641-.027-.805-.082-.906-.29Zm0 0"/></g><path fill="#EF553B" d="m238.566 118.531 2.246-.125.063 1.121-2.246.125Zm4.493-.25 2.246-.125.062 1.121-2.246.125Zm4.492-.25.433-.027.032.562-.063-.558.746-.082 1.086-.082.082 1.125-1.074.078-.04-.563.063.559-.75.086-.453.023Zm4.476-.351 2.246-.164.082 1.12-2.246.165Zm4.489-.328 2.242-.168.086 1.125-2.246.164Zm4.488-.332 2.242-.165.086 1.122-2.246.164Zm4.488-.329.692-.05.789.039.879.129-.16 1.113-.856-.125.082-.559-.031.563-.727-.035.031-.563.04.559-.657.05Zm4.586.438 2.227.324-.16 1.113-2.227-.324Zm4.54.793 2.112.77-.382 1.058-2.114-.77Zm4.23 1.543 2.086.758.074.035-.48 1.015-.051-.023.242-.508-.196.528-2.062-.75Zm4.175 1.883 1.95 1.125-.563.976-1.95-1.125Zm3.899 2.25 1.383.8.574.383-.625.934-.559-.371.313-.469-.281.488-1.368-.789Zm3.812 2.476 1.844 1.29-.644.921-1.844-1.289Zm3.688 2.582 1.84 1.29-.645.921-1.844-1.289Zm3.683 2.578 1.844 1.293-.644.922-1.844-1.293Zm3.688 2.582 1.844 1.29-.645.921-1.844-1.289Zm3.687 2.582 1.75 1.223-.324.461.203-.523.106.039-.402 1.05-.172-.066-1.805-1.266Zm3.817 1.692 2.031.37-.2 1.106-2.034-.37Zm0 0"/><path fill="#EF553B" d="m238.566 118.531 2.246-.125.063 1.121-2.246.125Zm4.493-.25 2.246-.125.062 1.121-2.246.125Zm4.492-.25.433-.027.032.562-.063-.558.746-.082 1.086-.082.082 1.125-1.074.078-.04-.563.063.559-.75.086-.453.023Zm4.476-.351 2.246-.164.082 1.12-2.246.165Zm4.489-.328 2.242-.168.086 1.125-2.246.164Zm4.488-.332 2.242-.165.086 1.122-2.246.164Zm4.488-.329.692-.05.789.039.879.129-.16 1.113-.856-.125.082-.559-.031.563-.727-.035.031-.563.04.559-.657.05Zm4.586.438 2.227.324-.16 1.113-2.227-.324Zm4.54.793 2.112.77-.382 1.058-2.114-.77Zm4.23 1.543 2.086.758.074.035-.48 1.015-.051-.023.242-.508-.196.528-2.062-.75Zm4.175 1.883 1.95 1.125-.563.976-1.95-1.125Zm3.899 2.25 1.383.8.574.383-.625.934-.559-.371.313-.469-.281.488-1.368-.789Zm3.789 2.535 1.805 1.344-.672.902-1.805-1.344Zm3.613 2.687 1.258.938-.336.449-.371-.422.512-.45.742.849-.856.746-1.62-1.207Zm1.969-1.27.95-2.038 1.023.476-.954 2.04Zm1.902-4.077.95-2.04 1.02.477-.95 2.04Zm1.903-4.078.949-2.04 1.02.477-.95 2.04Zm1.902-4.079.031-.07.746-1.375.371-.574.946.61-.36.554-.472-.305.496.27-.73 1.344-.493-.27.512.238-.027.055Zm2.371-3.91 1.223-1.89.941.613-1.219 1.89Zm2.563-3.785.304-.355 1.45-1.192.714.867-1.41 1.164-.355-.433.425.363-.273.32Zm4.027-2.61.2-.023.136 1.117-.2.024Zm0 0"/><path fill="#EF553B" d="m238.5 118.54 2.215-.392.195 1.11-2.215.39Zm4.207-.876 1.957-1.11.555.977-1.957 1.114Zm3.824-2.223.422-.316.336.45-.383-.41 1.262-1.177.77.825-1.286 1.195-.445.332Zm3.285-2.984 1.461-1.36.387.415-.418-.383.172-.188.832.762-.187.203-1.477 1.375Zm3.04-3.203 1.421-1.742.871.71-1.421 1.743Zm2.843-3.488 1.422-1.743.871.711-1.422 1.743Zm2.77-3.532 1.39-1.77.883.696-1.39 1.77Zm2.785-3.535 1.39-1.77.883.7-1.39 1.766Zm2.785-3.535 1.39-1.766.884.696-1.391 1.765Zm2.781-3.535 1.395-1.766.883.696-1.391 1.765Zm2.79-3.535 1.39-1.766.883.695-1.39 1.77Zm2.827-3.567.649-.683 1.008-.899.75.836-.989.887-.375-.422.407.39-.637.669Zm3.333-3.082 1.68-1.504.75.84-1.68 1.5Zm3.574-2.922 1.976-1.078.54.989-1.977 1.074Zm3.953-2.156.105-.058.805-.29 1.402-.304.239 1.101-1.368.293-.117-.55.192.53-.727.263-.191-.528.265.492-.066.04Zm4.512-1.129.12-.023.825-.05 1.48.183-.14 1.117-1.43-.18.07-.558.036.562-.727.043-.035-.559.117.551-.078.016Zm4.656.387.707.09.816.242.782.363-.473 1.02-.742-.344.234-.512-.16.54-.734-.215.16-.543-.07.558-.66-.082Zm4.348 1.64 1.617.747.453.277-.586.961-.426-.258.293-.48-.238.508-1.586-.735Zm3.933 2.376 1.8 1.347-.671.903-1.8-1.352Zm3.606 2.695 1.437 1.078.363.277-.683.895-.352-.27-1.441-1.078Zm3.656 2.496 1.945 1.129-.566.973-1.946-1.13Zm3.282 90.746 2.237.254-.129 1.117-2.234-.254Zm4.472.508.925.105.633.149.746.25-.359 1.066-.719-.242.18-.535-.129.547-.578-.133.129-.547-.063.559-.89-.102Zm4.437 1.223 2.133.718-.36 1.067-2.132-.719Zm4.293 1.582 2.008 1.011-.504 1.004-2.012-1.011Zm4.02 2.023 2.008 1.012-.504 1.004-2.012-1.012Zm4.02 2.024 2.007 1.011-.504 1.004-2.012-1.012Zm4.019 2.023 1.074.539.582.313-.266.496.23-.516.364.16-.453 1.031-.387-.172-.593-.316.261-.496-.25.504-1.07-.54Zm4.043 1.906 2.058.91-.457 1.028-2.058-.91Zm4.117 1.82 2.055.91-.454 1.028-2.058-.91Zm4.113 1.82 2.055.911-.453 1.031-2.059-.91Zm4.11 1.54 2.183.535-.265 1.094-2.188-.54Zm4.37 1.07 2.184.54-.265 1.09-2.188-.536Zm4.337 1.035.14.024-.094.554.043-.562 2.102.164-.086 1.121-2.125-.164-.168-.027Zm4.433.352 2.242.168-.086 1.125-2.242-.172Zm4.453.309h.07l-.015 1.125h-.07Zm0 0"/><path fill="#EF553B" d="m311.27 175.578 2.242.164-.082 1.121-2.243-.164Zm4.488.328 2.242.164-.082 1.125-2.242-.168Zm4.539.594 2.187.523-.257 1.094-2.192-.523Zm4.379 1.043 2.168.52.062.019-.347 1.07-.04-.011.172-.536-.128.547-2.149-.511Zm4.367 1.36 2.086.843-.422 1.043-2.086-.844Zm4.172 1.687 2.086.844-.422 1.043-2.086-.844Zm4.172 1.754 2.039.949-.473 1.02-2.043-.95Zm4.078 1.902 2.039.953-.477 1.02-2.039-.953Zm4.078 1.902 2.039.954-.477 1.02-2.039-.954Zm4.078 1.907 2.04.949-.477 1.02-2.04-.95Zm4.078 1.902 2.04.953-.477 1.02-2.04-.953Zm4.078 1.902 2.04.953-.477 1.02-2.04-.953Zm4.036 1.633 2.203.457-.23 1.102-2.204-.457Zm4.402.918.95.195-.114.551.066-.558.57.07-.066.559.027-.563.707.035-.058 1.125-.723-.039-.613-.07-.973-.203Zm4.387.403h.015l-.055 1.125h-.015Zm-59.426-56.36 2.242-.2.102 1.118-2.243.203Zm4.484-.402 2.238-.2.102 1.122-2.242.199Zm4.34-.653 2.172-.585.293 1.085-2.172.586Zm4.344-1.171 1.578-.426.148.543-.175-.535.585-.192.348 1.07-.598.196-1.593.43Zm4.476-.903 2.235-.262.132 1.118-2.234.261Zm4.625-.05 2.215.386-.191 1.11-2.215-.387Zm4.47 1.206 2.01 1.004-.503 1.008-2.012-1.008Zm4.073 2.16 1.758 1.407-.703.879-1.758-1.406Zm3.516 2.813 1.754 1.406-.703.88-1.754-1.407Zm3.48 2.86 1.739 1.43-.715.866-1.735-1.43Zm3.477 2.859 1.738 1.43-.715.867-1.738-1.43Zm3.476 2.855 1.739 1.43-.715.871-1.738-1.43Zm3.473 2.86 1.434 1.18-.356.433.29-.48.34.203-.583.96-.375-.222-1.465-1.203Zm3.676 2.3 2.031.961-.48 1.02-2.035-.965Zm3.984 1.637 2.227.32-.16 1.114-2.227-.32Zm0 0"/><path fill="#EF553B" d="m311.172 138.453 2.238-.23.113 1.12-2.238.227Zm4.476-.457 1.461-.152.059.562-.102-.554.625-.114.098.555-.144-.543.14-.04.293 1.087-.164.043-.668.12-1.484.153Zm4.309-.871 2.172-.586.293 1.086-2.172.586Zm4.344-1.172 2.172-.586.293 1.086-2.172.586Zm4.344-1.176.25-.066.144.543-.191-.527.625-.227.191.531-.21-.523 1.233-.496.422 1.043-1.246.5-.652.238-.274.07Zm4.132-1.605 2.09-.836.418 1.043-2.09.84Zm4.176-1.676 2.09-.836.418 1.043-2.09.84Zm4.176-1.676 2.09-.836.418 1.043-2.09.84Zm4.176-1.675 2.09-.836.418 1.043-2.09.835Zm4.175-1.676.73-.293.677-.172.867-.156.2 1.109-.849.152-.097-.554.137.547-.622.156-.136-.547.207.523-.692.278Zm4.489-1.02 2.215-.394.199 1.105-2.215.399Zm4.523-.699 2.246-.074.04 1.12-2.25.079Zm4.496-.152 2.25-.078.04 1.125-2.25.078Zm4.496-.153.118-.004.582-.007h1.57v1.125h-1.555l-.558.007-.118.004Zm-56.203-19.457 2.239.211-.106 1.121-2.238-.21Zm4.48.422 1.485.145.672.129.168.046-.305 1.082-.144-.039.152-.543-.105.551-.622-.12.106-.552-.055.563-1.457-.14Zm4.493.93 2.164.605-.305 1.086-2.164-.61Zm4.332 1.215 1.082.304.586.2-.184.535.137-.547.523.133-.277 1.09-.543-.137-.594-.203.184-.532-.152.54-1.067-.297Zm4.324 1.172 2.184.546-.274 1.09-2.183-.547Zm4.367 1.093 1.832.461-.136.547.062-.558.356.039-.121 1.117-.395-.043-1.875-.469Zm4.282.45 2.25-.067.035 1.125-2.25.067Zm4.367-.293 2.187-.524.262 1.094-2.187.523Zm4.375-1.047 2.187-.524.262 1.094-2.187.523Zm4.379-1.075 2.199-.48.242 1.098-2.2.48Zm4.398-.96 2.2-.48.238 1.097-2.2.48Zm4.395-.961 2.199-.48.242 1.097-2.2.48Zm4.398-.961.117-.028.614-.07 1.597-.09.063 1.121-1.578.09-.036-.562.067.558-.57.07-.067-.558.121.547-.09.02Zm4.574-.317 2.114-.12.062 1.124-2.113.117Zm0 0"/><path fill="#EF553B" d="m311.277 86.168 2.243.195-.098 1.121-2.242-.195Zm4.48.39 2.11.184.184.035-.203 1.106-.16-.031.101-.551-.047.558-2.078-.18Zm4.52.782 2.172.586-.293 1.086-2.172-.586Zm4.344 1.172.41.11.672.222 1.102.484-.453 1.031-1.079-.472.227-.516-.18.531-.629-.207.18-.535-.148.543-.395-.105Zm4.242 1.718 2.063.907-.453 1.031-2.059-.906Zm4.121 1.81 1.024.448.64.309.407.203-.508 1.004-.399-.203.254-.5-.242.508-.629-.301.242-.508-.226.516-1.016-.446Zm4.079 1.972 2.007 1.015-.507 1.004-2.008-1.011Zm4.015 2.031 2.008 1.016-.508 1.004-2.008-1.016Zm4.016 2.031 2.008 1.016-.508 1.004-2.008-1.016Zm4.015 2.028 2.008 1.015-.508 1.004-2.007-1.016Zm4.043 1.691 2.16.629L355 103.5l-2.164-.625Zm4.32 1.254 1.973.574-.156.54.094-.556.191.032-.187 1.11-.223-.036-2.004-.582Zm4.301.848 2.239.234-.117 1.121-2.239-.234Zm4.477.472.86.09-.06.559.028-.563.57.031-.027.563.008-.563.816.012-.02 1.125-.823-.012-.598-.035-.871-.09Zm0 0"/><g clip-path="url(#y)"><path fill="#EF553B" d="m370.996 194.988 1.555 1.625-.813.778-1.554-1.63Zm3.11 3.254 1.554 1.625-.816.778-1.555-1.625Zm3.105 3.254 1.555 1.625-.813.777-1.555-1.625Zm3.11 3.254 1.554 1.625-.812.777-1.555-1.625Zm3.097 3.25 1.582 1.598-.797.793-1.586-1.598Zm3.168 3.195 1.582 1.598-.797.793-1.586-1.598Zm3.168 3.196 1.586 1.597-.8.793-1.583-1.597Zm3.168 3.195 1.586 1.598-.801.793-1.582-1.598Zm3.242 2.996 1.793 1.363-.684.895-1.789-1.363Zm3.582 2.723 1.379 1.05-.34.45.305-.473.418.27-.305.472.254-.504.012.008-.5 1.008-.043-.02-.465-.3-1.395-1.063Zm3.738 2.277 2.016 1.004-.504 1.004-2.012-1Zm3.98 1.75 2.196.492-.25 1.098-2.195-.492Zm4.306.828.804.028-.043 1.125-.8-.028Zm0 0"/></g><path fill="#EF553B" d="m370.21 194.96 1.657-1.523.762.829-1.656 1.523Zm3.313-3.046 1.657-1.523.761.828-1.66 1.523Zm3.313-3.043.93-.855.441-.371.375-.282.672.903-.363.27-.336-.45.363.43-.422.351-.36-.43.38.415-.918.847Zm3.55-2.851 1.801-1.344.676.902-1.804 1.344Zm3.606-2.692 1.785-1.332.051-.031.61.945-.032.024-.304-.473.336.45-1.774 1.32Zm3.98.035.883 2.07-1.035.442-.882-2.074Zm1.762 4.14.88 2.071-1.036.442-.879-2.07Zm1.758 4.142.883 2.07-1.035.441-.883-2.07Zm1.762 4.144.879 2.07-1.035.438-.88-2.07Zm1.762 4.14.879 2.071-1.036.441-.882-2.07Zm1.757 4.141.88 2.07-1.036.442-.879-2.07Zm1.762 4.14.88 2.071-1.036.442-.883-2.07Zm1.758 4.145.879 2.07-1.035.438-.88-2.07Zm1.762 4.141.5 1.184-.516.218.496-.257.414.793-.5.257.473-.304.039.058-.945.614-.051-.082-.438-.84-.511-1.203Zm2.136 3.832 1.23 1.883-.94.613-1.231-1.883Zm2.461 3.766.493.75-.473.304.426-.363.414.477-.426.367.36-.43.554.461-.723.863-.59-.492-.464-.543-.512-.781Zm3.075 3.011.636.532-.36.43.25-.505.419.211-.25.504.121-.55.93.207-.243 1.097-.996-.219-.543-.269-.687-.574Zm-38.997-69.753 2.153.558.152.09-.558.977-.09-.051.281-.488-.14.542-2.079-.539Zm4.137 2.132 1.172 1.024.469.554.066.098-.937.621-.047-.07.469-.313-.43.368-.422-.496.43-.364-.367.422-1.145-.996Zm2.953 3.547 1.243 1.875-.938.625-1.242-1.875Zm2.457 3.82.02.04.992 2-1.008.5-.984-1.989.504-.25-.492.274-.016-.028Zm2.008 4.06 1 2.015-1.008.5-1-2.02Zm1.996 4.03.664 1.34.317.711-1.028.457-.312-.699.512-.23-.504.25-.657-1.329Zm1.926 4.082.953 2.04-1.02.476-.952-2.039Zm1.832 1.633 1.984-1.058.528.992-1.985 1.058Zm3.969-2.117 1.984-1.059.531.993-1.984 1.058Zm4.164-1.898 2.125-.739.371 1.063-2.129.738Zm4.25-1.477 1.031-.36.465-.124.758-.13.191 1.11-.734.125-.094-.555.145.543-.422.114-.145-.543.184.531-1.008.352Zm4.473-.996 2.214-.383.192 1.11-2.215.382Zm4.515-.703 2.25-.09.043 1.125-2.25.09Zm-38.906-49.027 2.223-.344.171 1.113-2.222.344Zm4.187-1.004 2.036-.957.48 1.02-2.039.956Zm4.047-1.903.383-.203 1.629-.828.508 1.004-1.606.812-.382.207Zm4.016-2.05 2.008-1.02.508 1.004-2.004 1.02Zm4.012-2.04.77-.39.456-.192.942-.293.336 1.07-.915.29-.171-.535.218.52-.414.171-.215-.52.254.5-.75.383Zm4.312-1.55 2.149-.676.336 1.074-2.145.676Zm4.414-1.235 2.227-.328.164 1.113-2.227.329Zm4.453-.652 2.227-.328.164 1.113-2.227.328Zm4.535-.45 2.247-.077.039 1.125-2.246.078Zm4.497-.152 2.25-.078.035 1.125-2.246.078Zm0 0"/><g clip-path="url(#z)"><path fill="#EF553B" d="m370.75 104.559 2.156.64-.32 1.078-2.156-.64Zm4.313 1.28 2.156.645-.32 1.079-2.157-.641Zm4.316 1.286 2.156.64-.32 1.079-2.16-.64Zm4.312 1.281 2.157.645-.32 1.078-2.157-.645Zm4.313 1.285 2.058.614-.16.539.137-.547.098.023-.274 1.094-.11-.027-2.07-.617Zm4.308 1.075 2.208.437-.22 1.106-2.206-.438Zm4.415.875 2.207.437-.22 1.102-2.206-.434Zm4.359.812 2.242.176-.086 1.121-2.246-.176Zm4.484.348 2.243.176-.086 1.12-2.243-.175Zm4.489.347 1.703.133-.043.563v-.563h.539v1.125h-.559l-1.73-.136Zm0 0"/></g><g clip-path="url(#A)"><path fill="#EF553B" d="m370.43 104.559 2.156-.641.32 1.078-2.156.64Zm4.312-1.286 2.156-.64.32 1.078-2.156.64Zm4.313-1.28 2.156-.645.324 1.078-2.16.644Zm4.312-1.286 2.16-.64.32 1.078-2.156.64Zm4.317-1.285 1.66-.492.441-.106.113-.023.22 1.105-.106.02-.11-.551.13.547-.41.098-.134-.547.164.539-1.648.492Zm4.421-1.055 2.207-.433.22 1.101-2.208.438Zm4.415-.87 2.21-.434.215 1.105-2.207.434Zm4.484-.829 2.242-.188.094 1.122-2.238.187Zm4.484-.375 2.242-.188.094 1.122-2.238.187Zm4.485-.379.422-.035.43-.008 1.44-.012.008 1.125-1.43.012-.41.008-.011-.563.047.563-.399.031Zm0 0"/></g><path fill="none" stroke="#000" stroke-width=".75" d="M35.25 332.625h378.055m-378.055-303h378.055M35.625 30v302.25M412.93 30v302.25"/><path fill="none" stroke="#444" stroke-width=".75" d="M36 333v3.75m83.91-3.75v3.75m29.668-3.75v3.75m89.004-3.75v3.75M311.25 333v3.75m59.332-3.75v3.75M412.54 333v3.75"/><use xlink:href="#B" x="32.602" y="351.15" fill="#2A3F5F"/><use xlink:href="#C" x="115.8" y="351.15" fill="#2A3F5F"/><g fill="#2A3F5F"><use xlink:href="#D" x="138.307" y="351.15"/><use xlink:href="#E" x="147.09" y="351.15"/><use xlink:href="#F" x="152.539" y="351.15"/></g><use xlink:href="#B" x="235.184" y="351.15" fill="#2A3F5F"/><use xlink:href="#G" x="307.911" y="351.15" fill="#2A3F5F"/><use xlink:href="#H" x="364.649" y="351.15" fill="#2A3F5F"/><use xlink:href="#C" x="408.428" y="351.15" fill="#2A3F5F"/><path fill="none" stroke="#444" stroke-width=".75" d="M35.25 332.25H31.5m3.75-56.348H31.5m3.75-56.355H31.5m3.75-56.347H31.5m3.75-56.348H31.5m3.75-56.348H31.5"/><use xlink:href="#I" x="21.471" y="336.449" fill="#2A3F5F"/><use xlink:href="#J" x="21.471" y="280.102" fill="#2A3F5F"/><use xlink:href="#K" x="21.471" y="223.747" fill="#2A3F5F"/><use xlink:href="#L" x="21.471" y="167.4" fill="#2A3F5F"/><use xlink:href="#M" x="21.471" y="111.053" fill="#2A3F5F"/><use xlink:href="#N" x="21.471" y="54.705" fill="#2A3F5F"/><path fill="none" stroke="#D3D3D3" stroke-width=".75" d="M449.55 30v302.25M471.992 30v302.25M494.43 30v302.25M516.871 30v302.25m-89.758-56.348h94.137m-94.137-56.355h94.137M427.113 163.2h94.137m-94.137-56.348h94.137m-94.137-56.348h94.137"/><g clip-path="url(#O)"><path fill="none" stroke="#636EFA" stroke-miterlimit="2" stroke-width="1.125" d="m427.11 360.96.542-65.46.051-1.727 1.465-25.836.133-1.726 1.754-17.227.187-1.718 1.817-10.332.332-1.727 1.73-6.89.684-1.72 2.46-5.167 1.868-1.727 1.695-10.332.012-1.726.473-5.168.359-1.723 1.219-10.336 1.52-1.727 2.51-1.722 1.345-1.719-6.22-1.727-4.062-1.722-1.164-1.727 4.524-1.715 3.886-1.726 1.747-1.727-2.887-1.715 3.375-1.726 3.246-1.719.894-1.723 1.2-1.726-2.348-1.719 1.461-1.723-10.418-1.718-9.254-3.45-.36-1.718-.152-3.45.22-1.722 1.148-5.168.695-1.719 2.215-1.726 3.457-1.723 1.836-1.727 5.574-1.718 9.726-1.723 1.915-1.727-2.79-1.714-.21-1.727-6.047-1.727-3.946-1.722-7.257-3.442-1.825-1.726-.382-1.719 2.07-1.723 10.375-1.726 5.367-1.727 2.094-1.715-3.586-1.726.074-1.723.813-1.719 2.43-1.726 4.066-1.723 2.863-1.726 12.644-1.72 36.711-1.722-28.992-1.718-3.074-1.723-12.535-1.727 8.32-1.718 15.5-1.723-20.453-1.727-30.277-1.718 13.882-1.723 26.004-1.719-26.406-1.726-14.746-1.723-1.848-3.441-.59-1.727-.09-3.441.301-1.727 1.153-5.168.773-1.723 1.36-1.726 3.441-1.719.688-1.723-1.56-1.726 4.005-1.719-8.3-1.723-1.786-1.726-3.324-1.723-7.32-5.168V16.426"/></g><g clip-path="url(#P)"><path fill="#EF553B" d="m426.547 357.887.023-2.25 1.125.011-.023 2.25Zm.043-4.5.02-2.25 1.124.011-.02 2.25Zm.043-4.5.02-2.25 1.124.011-.02 2.25Zm.039-4.5.02-2.25 1.124.011-.02 2.25Zm.043-4.5.02-2.25 1.124.011-.02 2.25Zm.039-4.5.02-2.246 1.124.007-.02 2.25Zm.043-4.496.02-2.25 1.124.007-.02 2.25Zm.039-4.5.02-2.25 1.124.007-.02 2.25Zm.043-4.5.02-2.25 1.124.007-.02 2.25Zm.039-4.5.023-2.25 1.125.007-.023 2.25Zm.043-4.5.02-2.25 1.124.007-.02 2.25Zm.039-4.5.023-2.25 1.125.007-.023 2.25Zm.043-4.5.02-2.25 1.125.007-.02 2.25Zm.039-4.5.023-2.25 1.125.007-.023 2.25Zm.078-4.516.004-.078.137-2.184 1.125.075-.137 2.171-.562-.035.562.02-.004.07Zm.285-4.504.14-2.246 1.126.07-.145 2.246Zm.285-4.492.141-2.246 1.125.07-.144 2.246Zm.286-4.492.14-2.246 1.125.074-.144 2.242Zm.285-4.492.14-2.243 1.122.07-.141 2.247Zm.281-4.489.047-.699.156-1.547.004-.02 1.117.122v.011l-.156 1.54-.562-.06.562.036-.043.688Zm.453-4.504.246-2.238 1.117.125-.246 2.234Zm.492-4.472.246-2.239 1.118.125-.246 2.235Zm.493-4.473.246-2.238 1.117.125-.246 2.234Zm.578-4.5.398-2.215 1.11.2-.399 2.214Zm.8-4.43.399-2.214 1.105.199-.398 2.215Zm.797-4.43.02-.1.324-1.56.149-.574 1.09.278-.145.562-.543-.137.55.114-.324 1.539-.55-.117.554.101-.02.094Zm1.04-4.413.55-2.184 1.094.277-.55 2.18Zm1.1-4.364.169-.656.808-1.508.993.531-.778 1.45-.496-.266.547.137-.148.586Zm1.99-4.16 1.01-2.008 1.005.508-1.012 2.008Zm2.566-3.863.566-.527.383.414-.434-.36.942-1.137.867.72-.965 1.163-.594.551Zm1.832-3.574.828-2.09 1.047.414-.832 2.094Zm1.004-4.024-.016-.226.344-2.13 1.11.18-.333 2.063-.555-.09.559-.043.012.16Zm.687-4.578.36-2.219 1.109.18-.36 2.219Zm.719-4.441.082-.528.367-1.554.031-.149 1.098.246-.035.157-.36 1.539-.546-.13.554.09-.082.508Zm.98-4.426.496-2.195 1.098.25-.496 2.195Zm.992-4.39.5-2.192 1.098.246-.5 2.195Zm2.172-4.094.254-.23.38.413-.403-.394 1.344-1.356.796.793-1.351 1.363-.262.243Zm.118-1.739-1.93-.965.957-1.16.867.715-.508.617-.433-.36.254-.503 1.296.648Zm-.954-2.906-1.101-.879.348-.441-.317.465-.695-.477.637-.926.71.485 1.118.894Zm-2.836-3.512 2.114-.765.383 1.058-2.114.766Zm4.258-1.523 2.14-.684.345 1.074-2.145.68Zm4.285-1.367.239-.075.172.536-.301.476-1.692-1.062.598-.953 1.695 1.062-.129 1.016-.238.074Zm-.98-2.106 2.086-.84.422 1.043-2.09.84Zm3.504-2.187.226-.254 1.473-1.313.75.84-1.45 1.29-.374-.419.422.371-.207.235Zm3.383-3.063.324-.289.375.418-.277.492-1.579-.89.551-.98 2.266 1.277-.914.812Zm-1.407-2.297 2.059-.906.453 1.031-2.058.907Zm1.286-1.285-.547-.476.37-.422-.038.558-1.52-.097.074-1.125 1.711.113.688.601Zm-3.98-.586-2.243-.148.07-1.121 2.246.148Zm-4.49-.293-2.245-.148.074-1.125 2.246.148Zm-4.491-.297-2.243-.144.07-1.125 2.247.148Zm-4.489-.293-2.246-.148.075-1.121 2.246.148Zm-4.492-.293-2.254-.148.02-1.066 1.125.023-.008.527-.562-.011.035-.563 1.718.113Zm-2.418-3.335-.34-1.934.043-.441 1.121.113-.039.367-.558-.059.554-.097.325 1.855Zm.121-4.672.59-2.172 1.086.293-.59 2.172Zm1.293-4.38.356-.863.812-1.183.926.637-.777 1.132-.465-.32.523.215-.332.809Zm2.442-3.902 1.14-1.668.23-.234.802.793-.196.195-.398-.394.46.32-1.113 1.625Zm2.687-3.382.766-2.118 1.058.383-.765 2.113Zm2.106-4.13.273-.331 1.39-1.286.762.829-1.359 1.257-.383-.414.434.36-.254.304Zm3.73-2.82 1.469-.746.758-.136.195 1.109-.676.121-.097-.555.253.5-1.39.711Zm4.442-1.273 2.214-.395.196 1.11-2.215.39Zm4.43-.79 1.34-.234.1.551-.202.528-.833-.32.407-1.052.828.32-.102 1.079-1.34.238Zm-1.692-.288-1.055-.406-1.043-.375.383-1.06 1.066.384 1.055.41ZM448.922 145l-1.649-.594.704-1.562 1.023.46-.45 1.008-.515-.23.192-.527 1.078.39Zm-1.758-3.27-.473-.492-.035-1.86.114-.331 1.062.375-.082.234-.531-.187.562-.012.031 1.54-.562.01.406-.39.32.336Zm-.332-3.332-2.234-.238.117-1.12 2.238.241Zm-4.473-.48-2.238-.238.121-1.121 2.238.242Zm-4.472-.48-2.239-.239.122-1.12 2.234.241Zm-4.477-.477-.27-.031-1.812-1.418.695-.883 1.684 1.316-.348.442.059-.559.113.012Zm-.457-3.32 2.098-.813.41 1.047-2.098.816Zm4.297-1.477 2.156-.637.32 1.078-2.156.637Zm4.418-1.144 2.219-.364.183 1.11-2.218.367Zm4.441-.727 2.22-.363.183 1.11-2.219.362Zm4.47-.7 2.233-.265.133 1.117-2.234.266Zm4.468-.53 2.234-.266.133 1.117-2.234.266Zm4.469-.528 2.234-.265.133 1.117-2.235.265Zm3.359-1.129.223-.48.507.238-.414.379-1.164-1.266.825-.761 1.421 1.543-.378.82Zm1.074-2.652 2.215-.375.191 1.105-2.218.38Zm4.434-.754 2.219-.379.187 1.11-2.215.378Zm1.031.227-2.184-.536.266-1.093 2.184.535Zm-4.371-1.07-.25-.06-.094-1.062 1.82-.808.458 1.027-1.82.808-.231-.511.133-.547.25.062Zm3.586-2.829 2.121-.75.375 1.063-2.121.75Zm4.43-1.426 2.25-.07.035 1.121-2.25.074Zm4.5-.144 2.25-.07.035 1.124-2.25.07Zm4.496-.14 2.25-.071.035 1.125-2.25.07Zm4.5-.145 2.246-.07.035 1.124-2.246.07Zm4.496-.141 2.25-.07.035 1.125-2.25.07Zm4.496-.144 2.25-.07.035 1.124-2.246.07Zm4.5-.141 2.25-.07.035 1.125-2.25.07Zm4.496-.145 2.25-.07.035 1.125-2.246.07Zm4.5-.14 2.25-.07.035 1.124-2.25.07Zm4.496-.145 2.25-.07.035 1.125-2.25.07Zm4.5-.14 2.246-.07.035 1.124-2.246.07Zm1.863.902-2.238-.203.102-1.121 2.238.203Zm-4.48-.41-2.242-.203.101-1.121 2.242.203Zm-4.48-.41-2.243-.204.102-1.12 2.242.203Zm-4.485-.41-2.086-.192-.183-.023.164-1.114.168.024-.082.554.05-.558 2.075.191Zm-4.496-.544-2.223-.324.16-1.113 2.227.324Zm-4.45-.652-2.226-.324.164-1.113 2.223.324Zm-4.437-.621-2.234-.242.12-1.117 2.235.242Zm-4.472-.484-2.239-.243.121-1.12 2.239.242Zm-4.473-.489-2.238-.242.12-1.117 2.239.242Zm-4.73-1.43.972-1.46.469.312-.52-.215.192-.457 1.039.43-.211.508-1.004 1.508Zm.902-3-.887-.808.379-.418-.043.563-1.047-.079.086-1.124 1.238.097 1.032.938Zm-3.84-.917-2.242-.172.086-1.121 2.242.172Zm-4.488-.344-2.243-.172.086-1.121 2.247.172Zm-4.485-.344-2.242-.172.086-1.12 2.242.171ZM463 107.98l-2.242-.175.086-1.121 2.242.171Zm-4.473-.312-2.246-.11.055-1.124 2.246.113Zm-4.496-.219-2.246-.113.055-1.121 2.25.11Zm-4.492-.222-2.246-.11.055-1.125 2.246.11Zm-4.496-.22-2.246-.112.055-1.122 2.246.11Zm-4.492-.222-2.25-.11.054-1.124 2.25.11Zm-4.496-.219-2.246-.113.054-1.125 2.246.113Zm-4.496-.222-2.247-.11.055-1.125 2.25.11Zm-1.72-1.45 2.231-.285.14 1.114-2.23.285Zm4.462-.57 2.234-.285.14 1.117-2.23.285Zm4.465-.57 2.23-.285.145 1.117-2.23.285Zm4.464-.57 2.23-.286.145 1.118-2.234.285Zm4.465-.57 2.23-.286.141 1.117-2.23.285Zm4.461-.571 2.235-.281.14 1.113-2.23.285Zm4.465-.566 2.23-.286.145 1.114-2.234.285Zm4.465-.57 2.23-.286.145 1.117-2.234.282Zm4.496-.528 2.242-.176.086 1.121-2.242.176Zm4.484-.352 2.243-.175.09 1.12-2.243.176Zm4.489-.351 2.242-.176.086 1.121-2.242.176Zm4.484-.356 2.242-.175.09 1.12-2.242.18Zm4.488-.351.735-.059.043.563-.032.562-1.507-.094.066-1.12 1.508.09.012 1.124-.739.055Zm-3.007.836-2.247-.137.067-1.121 2.246.137Zm-4.493-.274-2.246-.136.067-1.122 2.246.137Zm-4.492-.273-2.246-.137.066-1.121 2.247.137Zm-4.492-.274-2.246-.136.07-1.121 2.242.136Zm-4.492-.273-2.246-.137.07-1.12 2.246.136Zm-4.52-.332-2.234-.274.137-1.117 2.234.274Zm-4.469-.547-2.23-.27.133-1.117 2.234.27Zm-4.464-.543-2.235-.273.137-1.118 2.234.274Zm-4.141-1.984-.172-.239-.191-1.789.172-.64 1.086.293-.145.539-.543-.145.559-.062.164 1.539-.559.058.457-.328.086.121Zm.398-4.84.133-.496 1.36-1.48.828.761-1.266 1.379-.414-.383.543.149-.098.363Zm3.082-3.598 1.583-1.601.796.789-1.578 1.601Zm-.14-1.965-.809-.527.2-2.035.144-.195.898.683-.05.067-.45-.344.563.054-.152 1.54-.559-.055.305-.473.523.34Zm.613-3.402-2.219-.387.196-1.11 2.215.388Zm-4.433-.777-2.215-.387.191-1.11 2.219.387ZM440 79.887l-2.168-.606.305-1.086 2.168.61Zm-4.332-1.211-.691-.196.152-.539-.121.547-1.5-.332.246-1.097 1.512.336.703.195Zm-4.356-1.008-2.195-.492.246-1.098 2.196.488Zm-4.253-1.918-.512-.703V73.3h1.125v1.562h-.563l.457-.328.403.555Zm-.512-4.7V68.8h1.125v2.25Zm0-4.5V64.3h1.125v2.25Zm0-4.5V59.8h1.125v2.25Zm0-4.5V55.3h1.125v2.25Zm0-4.5V50.8h1.125v2.25Zm0 0"/></g><path fill="none" stroke="#000" stroke-width=".75" d="M426.363 332.625H522m-95.637-303H522M426.738 30v302.25M521.625 30v302.25"/><path fill="none" stroke="#444" stroke-width=".75" d="M427.11 333v3.75m22.44-3.75v3.75m22.442-3.75v3.75M494.43 333v3.75m22.441-3.75v3.75"/><use xlink:href="#I" x="423.297" y="351.15" fill="#2A3F5F"/><use xlink:href="#K" x="445.737" y="351.15" fill="#2A3F5F"/><use xlink:href="#M" x="468.177" y="351.15" fill="#2A3F5F"/><use xlink:href="#Q" x="490.617" y="351.15" fill="#2A3F5F"/><use xlink:href="#R" x="513.057" y="351.15" fill="#2A3F5F"/><path fill="none" stroke="#444" stroke-width=".75" d="M426.363 332.25h-3.75m3.75-56.348h-3.75m3.75-56.355h-3.75m3.75-56.347h-3.75m3.75-56.348h-3.75m3.75-56.348h-3.75"/><path fill="none" stroke="#000" stroke-width=".75" d="M119.91 332.25V30m191.34 302.25V30M149.578 332.25V30m221.004 302.25V30m-132 302.25V30"/><path fill="#FFF" fill-opacity=".6" d="M365.25 5.82h156v25.5h-156Zm0 0"/><g fill="#2A3F5F"><use xlink:href="#S" x="395.251" y="23.175"/><use xlink:href="#T" x="402.488" y="23.175"/><use xlink:href="#U" x="410.714" y="23.175"/></g><path fill="none" stroke="#636EFA" stroke-width="1.125" d="M369 18.496h22.5"/><g fill="#2A3F5F"><use xlink:href="#V" x="452.05" y="23.175"/><use xlink:href="#W" x="462.163" y="23.175"/><use xlink:href="#X" x="470.366" y="23.175"/><use xlink:href="#U" x="478.745" y="23.175"/><use xlink:href="#Y" x="486.333" y="23.175"/><use xlink:href="#V" x="491.782" y="23.175"/><use xlink:href="#S" x="501.895" y="23.175"/><use xlink:href="#I" x="509.132" y="23.175"/></g><path fill="#EF553B" d="M425.8 17.934h2.25v1.125h-2.25m4.5-1.125h2.25v1.125h-2.25m4.5-1.125h2.25v1.125h-2.25m4.5-1.125h2.25v1.125h-2.25m4.5-1.125h2.25v1.125h-2.25"/><g fill="#2A3F5F"><use xlink:href="#Z" x="191.752" y="22.8"/><use xlink:href="#aa" x="203.031" y="22.8"/><use xlink:href="#ab" x="210.073" y="22.8"/></g><use xlink:href="#ac" x="210.072" y="26.265" fill="#2A3F5F"/><use xlink:href="#ab" x="217.415" y="22.8" fill="#2A3F5F"/><g fill="#2A3F5F"><use xlink:href="#Z" x="217.415" y="22.8"/><use xlink:href="#ad" x="228.695" y="22.8"/><use xlink:href="#ab" x="238.524" y="22.8"/></g><use xlink:href="#ac" x="238.523" y="26.265" fill="#2A3F5F"/><use xlink:href="#ab" x="245.867" y="22.8" fill="#2A3F5F"/><g fill="#2A3F5F"><use xlink:href="#ab" x="245.867" y="22.8"/><use xlink:href="#ab" x="251.667" y="22.8"/></g><g fill="#2A3F5F"><use xlink:href="#ae" x="257.467" y="22.8"/><use xlink:href="#af" x="273.516" y="22.8"/><use xlink:href="#ag" x="283.797" y="22.8"/><use xlink:href="#ah" x="291.289" y="22.8"/><use xlink:href="#ai" x="301.779" y="22.8"/><use xlink:href="#aj" x="312.269" y="22.8"/><use xlink:href="#ak" x="322.759" y="22.8"/></g><g fill="#2A3F5F"><use xlink:href="#al" x="178.988" y="372"/><use xlink:href="#am" x="193.077" y="372"/><use xlink:href="#an" x="201.636" y="372"/><use xlink:href="#ao" x="210.069" y="372"/><use xlink:href="#ap" x="218.558" y="372"/><use xlink:href="#aq" x="223.567" y="372"/><use xlink:href="#ao" x="233.309" y="372"/><use xlink:href="#ar" x="241.797" y="372"/><use xlink:href="#as" x="249.222" y="372"/><use xlink:href="#at" x="254.837" y="372"/><use xlink:href="#au" x="263.486" y="372"/></g><g fill="#2A3F5F"><use xlink:href="#av" x="458.212" y="372"/><use xlink:href="#aw" x="469.192" y="372"/><use xlink:href="#ax" x="480.409" y="372"/></g><g fill="#2A3F5F"><use xlink:href="#ay" x="14.25" y="240.599"/><use xlink:href="#az" x="14.25" y="232.409"/><use xlink:href="#aA" x="14.25" y="226.328"/><use xlink:href="#aB" x="14.25" y="217.839"/><use xlink:href="#aC" x="14.25" y="208.961"/><use xlink:href="#aA" x="14.25" y="199.943"/><use xlink:href="#aD" x="14.25" y="191.454"/><use xlink:href="#aE" x="14.25" y="182.437"/><use xlink:href="#aF" x="14.25" y="175.012"/><use xlink:href="#aG" x="14.25" y="166.579"/><use xlink:href="#aH" x="14.25" y="161.57"/><use xlink:href="#aI" x="14.25" y="155.099"/><use xlink:href="#aJ" x="14.25" y="146.318"/><use xlink:href="#aK" x="14.25" y="135.609"/><use xlink:href="#aL" x="14.25" y="128.122"/></g></svg>