<svg xmlns="http://www.w3.org/2000/svg" width="500" height="350" class="main-svg"><path d="M0 0h500v350H0z" style="fill:#fff;fill-opacity:1"/><defs><clipPath id="b" class="plotclip"><path d="M0 0h425v305H0z"/></clipPath><clipPath id="a" class="axesclip"><path d="M0 11h500v305H0z"/></clipPath></defs><g class="layer-below"><g class="shapelayer"><g class="shape-group" clip-path="url(#a)" data-index="1"><path fill-rule="evenodd" d="M69 163.5h425v-42.36H69Z" data-index="1" style="opacity:.1;stroke:#2a3f5f;stroke-opacity:1;fill:green;fill-opacity:1;stroke-width:2px"/></g></g></g><g class="cartesianlayer"><g class="subplot xy"><g class="gridlayer"><g class="x"><path d="M0 11v305" class="xgrid crisp" style="stroke:#d3d3d3;stroke-opacity:1;stroke-width:1px" transform="translate(92.44)"/><path d="M0 11v305" class="xgrid crisp" style="stroke:#d3d3d3;stroke-opacity:1;stroke-width:1px" transform="translate(235.95)"/><path d="M0 11v305" class="xgrid crisp" style="stroke:#d3d3d3;stroke-opacity:1;stroke-width:1px" transform="translate(379.47)"/></g><g class="y"><path d="M69 0h425" class="ygrid crisp" style="stroke:#d3d3d3;stroke-opacity:1;stroke-width:1px" transform="translate(0 311.76)"/><path d="M69 0h425" class="ygrid crisp" style="stroke:#d3d3d3;stroke-opacity:1;stroke-width:1px" transform="translate(0 269.4)"/><path d="M69 0h425" class="ygrid crisp" style="stroke:#d3d3d3;stroke-opacity:1;stroke-width:1px" transform="translate(0 227.04)"/><path d="M69 0h425" class="ygrid crisp" style="stroke:#d3d3d3;stroke-opacity:1;stroke-width:1px" transform="translate(0 184.68)"/><path d="M69 0h425" class="ygrid crisp" style="stroke:#d3d3d3;stroke-opacity:1;stroke-width:1px" transform="translate(0 142.32)"/><path d="M69 0h425" class="ygrid crisp" style="stroke:#d3d3d3;stroke-opacity:1;stroke-width:1px" transform="translate(0 99.96)"/><path d="M69 0h425" class="ygrid crisp" style="stroke:#d3d3d3;stroke-opacity:1;stroke-width:1px" transform="translate(0 57.6)"/><path d="M69 0h425" class="ygrid crisp" style="stroke:#d3d3d3;stroke-opacity:1;stroke-width:1px" transform="translate(0 15.24)"/></g></g><g class="plot" clip-path="url(#b)" transform="translate(69 11)"><g class="violinlayer mlayer"><g class="trace violins" style="opacity:1"><path d="M23.44 344.36h.11q.05-1.87.09-2.81c.04-.94.08-1.87.13-2.81s.11-1.87.16-2.81.11-1.87.16-2.81q.075-1.41.12-2.82c.03-.94.04-1.87.04-2.81s-.01-1.87-.04-2.81-.07-1.87-.12-2.81-.11-1.87-.16-2.81-.11-1.87-.16-2.81-.09-1.87-.13-2.81-.06-1.87-.09-2.81l-.06-2.81-.03-2.81c-.01-.94-.02-1.87-.02-2.81v-36.54c0-.94.01-1.87.02-2.81s.01-1.88.03-2.82.04-1.87.07-2.81.07-1.87.12-2.81.12-1.87.2-2.81.18-1.87.3-2.81.25-1.88.41-2.81c.16-.94.34-1.88.54-2.81.2-.94.42-1.88.65-2.81.23-.94.48-1.88.74-2.81.26-.94.54-1.87.82-2.81s.58-1.87.88-2.81.62-1.87.94-2.81.65-1.88.97-2.82.65-1.87.97-2.81.64-1.87.96-2.81.63-1.88.96-2.81c.33-.94.65-1.88 1.04-2.81.4-.95.81-1.89 1.32-2.81.53-.96 1.13-1.9 1.82-2.81.73-.96 1.58-1.9 2.48-2.81.94-.96 2-1.89 3.06-2.81 1.09-.95 2.26-1.87 3.37-2.81 1.1-.93 2.24-1.85 3.28-2.81 1-.92 1.96-1.85 2.84-2.81.84-.92 1.6-1.87 2.33-2.82.71-.93 1.34-1.87 2.02-2.81s1.32-1.89 2.04-2.81c.74-.95 1.52-1.89 2.36-2.81.87-.95 1.81-1.89 2.77-2.81.99-.95 2.03-1.88 3.07-2.81 1.05-.94 2.14-1.87 3.21-2.81 1.08-.94 2.15-1.88 3.25-2.81 1.11-.94 2.21-1.89 3.39-2.81 1.22-.96 2.48-1.9 3.83-2.81 1.44-.97 2.97-1.9 4.59-2.81 1.74-.97 3.62-1.9 5.55-2.81 2.04-.97 4.22-1.89 6.37-2.82 2.19-.95 4.49-1.86 6.66-2.81 2.09-.92 4.25-1.82 6.12-2.81 1.68-.89 3.42-1.76 4.63-2.81.99-.86 2.06-1.81 2.3-2.81.21-.89-.07-1.96-.61-2.81-.69-1.08-2.23-1.95-3.71-2.81-1.84-1.06-4.22-1.93-6.62-2.81-2.74-1.01-5.85-1.9-8.96-2.81-3.34-.97-6.91-1.88-10.43-2.81-3.59-.95-7.3-1.86-10.88-2.81-3.5-.93-7.03-1.84-10.38-2.81-3.17-.91-6.29-1.84-9.2-2.82-2.68-.9-5.27-1.82-7.66-2.81-2.17-.9-4.23-1.82-6.11-2.81-1.7-.89-3.29-1.82-4.72-2.81-1.3-.9-2.49-1.83-3.55-2.81-.98-.9-1.85-1.84-2.61-2.81a22.4 22.4 0 0 1-1.86-2.81c-.52-.92-.94-1.86-1.32-2.81-.37-.93-.67-1.87-.95-2.81-.28-.93-.51-1.87-.74-2.81-.23-.93-.43-1.87-.63-2.81s-.38-1.87-.56-2.81-.35-1.88-.5-2.82-.3-1.87-.42-2.81a67 67 0 0 1-.46-5.62c-.04-.94-.05-1.87-.05-2.81s.02-1.87.05-2.81.08-1.87.12-2.81.1-1.87.14-2.81.08-1.87.11-2.81c.02-.94.04-1.87.04-2.81s-.01-1.87-.04-2.81-.07-1.87-.12-2.81-.11-1.87-.16-2.81-.11-1.88-.16-2.82-.09-1.87-.13-2.81q-.04-.94-.09-2.81h-.11" class="violin" style="vector-effect:none;stroke-width:2px;stroke:orange;stroke-opacity:1;fill:orange;fill-opacity:.5"/><path d="M25.44 153.81H37.1m-11.66 21.26H37.1v-33.59H25.44Zm0 0v49.69m0-83.28V96.85" class="box" style="vector-effect:non-scaling-stroke;stroke-width:2px;stroke:orange;stroke-opacity:1;fill:orange;fill-opacity:.5"/></g><g class="trace violins" style="opacity:1"><path d="M166.95 317.08h.13q.07-1.96.11-2.94c.05-.98.1-1.97.16-2.95s.13-1.96.19-2.94.13-1.96.19-2.94c.05-.98.11-1.96.14-2.94s.06-1.97.06-2.95-.02-1.96-.05-2.94-.09-1.96-.14-2.94-.12-1.96-.18-2.94-.13-1.97-.19-2.95-.11-1.96-.16-2.94q-.075-1.47-.12-2.94c-.03-.98-.04-1.96-.06-2.94-.01-.98-.03-1.96-.03-2.94s0-1.97.01-2.95.02-1.96.05-2.94.07-1.96.13-2.94.13-1.96.23-2.94.21-1.97.37-2.95q.24-1.47.57-2.94.345-1.47.78-2.94.45-1.47.99-2.94c.36-.99.75-1.97 1.16-2.95s.85-1.96 1.29-2.94q.675-1.47 1.38-2.94c.48-.98.96-1.97 1.48-2.94.53-.99 1.07-1.98 1.66-2.95.6-.99 1.23-1.98 1.92-2.94.72-1 1.49-1.98 2.33-2.94.88-1 1.84-1.98 2.87-2.94 1.09-1.01 2.27-1.99 3.52-2.95 1.32-1.01 2.75-1.98 4.21-2.94 1.53-1 3.15-1.97 4.77-2.94 1.66-.99 3.39-1.96 5.08-2.94s3.4-1.96 5.05-2.95q2.43-1.455 4.77-2.94c1.52-.97 3-1.96 4.48-2.94s2.91-1.97 4.4-2.94c1.52-.99 3.05-1.98 4.65-2.94 1.66-1 3.37-1.98 5.12-2.95 1.81-1 3.7-1.97 5.58-2.94 1.9-.99 3.86-1.95 5.74-2.94 1.85-.97 3.71-1.93 5.45-2.94 1.65-.96 3.27-1.92 4.72-2.95 1.34-.94 2.62-1.91 3.7-2.94.99-.94 1.88-1.92 2.59-2.94.65-.94 1.19-1.93 1.55-2.94.35-.96.55-1.96.63-2.95.08-.98.02-1.97-.15-2.94-.17-.99-.47-1.98-.87-2.94-.42-1-.96-1.99-1.61-2.94a21 21 0 0 0-2.45-2.95c-1.02-1.03-2.19-2-3.47-2.94-1.4-1.03-2.98-2-4.64-2.94-1.81-1.03-3.81-1.99-5.85-2.94-2.19-1.02-4.53-1.99-6.89-2.95-2.46-1-5.02-1.97-7.57-2.94-2.59-.99-5.23-1.96-7.83-2.94-2.58-.98-5.17-1.95-7.7-2.94-2.47-.97-4.91-1.95-7.28-2.95-2.28-.96-4.53-1.94-6.68-2.94-2.06-.96-4.07-1.93-5.97-2.94-1.8-.95-3.53-1.93-5.16-2.94-1.53-.95-2.99-1.92-4.33-2.94-1.26-.95-2.44-1.93-3.51-2.95-1-.95-1.93-1.93-2.73-2.94-.76-.95-1.42-1.94-1.99-2.94q-.81-1.44-1.35-2.94c-.35-.97-.61-1.96-.82-2.95-.21-.97-.33-1.96-.44-2.94s-.17-1.96-.24-2.94-.12-1.96-.19-2.94-.14-1.97-.23-2.95c-.08-.98-.18-1.96-.28-2.94s-.22-1.96-.33-2.94-.22-1.96-.32-2.94-.2-1.97-.29-2.95a291 291 0 0 1-.47-5.88c-.08-.98-.15-1.96-.23-2.94s-.16-1.97-.25-2.95c-.08-.98-.17-1.96-.26-2.94s-.18-1.96-.26-2.94-.15-1.96-.22-2.94c-.06-.98-.12-1.96-.17-2.94q-.05-.98-.11-2.95h-.14" class="violin" style="vector-effect:none;stroke-width:2px;stroke:#00f;stroke-opacity:1;fill:#00f;fill-opacity:.5"/><path d="M168.95 177.12h11.66m-11.66 17.69h11.66v-35.39h-11.66Zm0 0v48.56m0-83.95V108.2" class="box" style="vector-effect:non-scaling-stroke;stroke-width:2px;stroke:#00f;stroke-opacity:1;fill:#00f;fill-opacity:.5"/></g><g class="trace violins" style="opacity:1"><path d="M310.47 343.83h.1l.09-1.99.12-1.99.15-1.99c.05-.66.11-1.33.15-1.99s.08-1.33.11-1.99c.02-.66.04-1.33.04-1.99s-.02-1.33-.04-1.99a133 133 0 0 0-.25-3.98l-.15-1.99c-.05-.66-.09-1.33-.13-1.99s-.07-1.33-.09-1.99-.04-1.33-.05-1.99l-.03-1.99c-.01-.66-.02-1.33-.02-1.99v-47.77c0-.66 0-1.33.01-1.99l.03-1.99c.01-.66.02-1.33.04-1.99s.05-1.33.08-1.99.08-1.33.12-1.99.09-1.33.14-1.99l.15-1.99c.05-.67.1-1.33.13-2 .03-.66.05-1.33.06-1.99s0-1.33-.02-1.99-.06-1.33-.1-1.99-.09-1.33-.14-1.99l-.15-1.99c-.05-.66-.09-1.33-.13-1.99-.03-.66-.06-1.33-.08-1.99s-.04-1.33-.04-1.99 0-1.33.01-1.99.04-1.33.07-1.99.07-1.33.11-1.99c.05-.66.1-1.33.16-1.99s.13-1.33.2-1.99.15-1.33.22-1.99c.08-.66.15-1.33.23-1.99l.24-1.99c.08-.66.16-1.33.26-1.99s.2-1.33.32-1.99.25-1.33.4-1.99.31-1.33.48-1.99c.18-.67.37-1.33.57-1.99.21-.67.43-1.33.66-1.99.24-.67.49-1.33.75-1.99.26-.67.53-1.33.81-1.99s.57-1.33.85-1.99c.28-.67.57-1.33.84-2 .27-.66.53-1.33.8-1.99.26-.66.51-1.33.79-1.99.28-.67.55-1.33.87-1.99.33-.67.67-1.34 1.08-1.99.43-.68.91-1.35 1.46-1.99.59-.69 1.27-1.35 2-1.99.78-.69 1.66-1.34 2.56-1.99.96-.68 2.01-1.33 3.05-1.99 1.07-.67 2.19-1.32 3.27-1.99 1.07-.66 2.17-1.31 3.18-1.99.96-.65 1.91-1.3 2.76-1.99.79-.64 1.54-1.3 2.18-1.99.6-.64 1.11-1.31 1.57-1.99.44-.65.79-1.32 1.16-1.99.36-.66.65-1.34 1.03-1.99.39-.67.77-1.35 1.27-1.99.53-.69 1.14-1.36 1.84-1.99.77-.7 1.65-1.36 2.61-1.99 1.06-.7 2.24-1.35 3.48-1.99a67 67 0 0 1 4.32-1.99c1.63-.69 3.35-1.35 5.13-1.99 1.89-.69 3.88-1.34 5.91-1.99 2.15-.68 4.39-1.34 6.66-1.99 2.35-.68 4.81-1.33 7.22-1.99 2.42-.66 4.92-1.31 7.27-1.99 2.22-.65 4.52-1.26 6.46-1.99 1.67-.62 3.49-1.18 4.54-2 .75-.58 1.58-1.35 1.53-1.99-.06-.69-1.18-1.41-2.16-1.99-1.42-.84-3.71-1.38-5.9-1.99-2.67-.74-5.86-1.36-9.02-1.99-3.48-.7-7.28-1.34-11-1.99-3.83-.67-7.81-1.32-11.66-1.99-3.77-.66-7.58-1.31-11.19-1.99-3.41-.65-6.77-1.3-9.92-1.99-2.89-.64-5.69-1.29-8.29-1.99-2.34-.63-4.57-1.28-6.62-1.99-1.83-.63-3.54-1.28-5.11-1.99-1.39-.63-2.69-1.28-3.85-1.99-1.03-.63-1.98-1.29-2.81-1.99-.75-.63-1.42-1.3-1.98-1.99-.52-.64-.95-1.31-1.3-1.99-.34-.65-.59-1.32-.79-1.99-.2-.66-.32-1.32-.43-1.99-.11-.66-.16-1.33-.22-1.99s-.08-1.33-.12-1.99-.07-1.33-.11-1.99c-.03-.66-.07-1.33-.1-1.99s-.07-1.33-.09-1.99a66 66 0 0 1 0-3.98c.02-.66.06-1.33.09-1.99.03-.67.07-1.33.1-2 .03-.66.07-1.33.09-1.99a132 132 0 0 0 .07-3.98v-3.98c0-.66-.01-1.33-.02-1.99s-.03-1.33-.06-1.99-.06-1.33-.1-1.99-.1-1.33-.15-1.99-.11-1.33-.16-1.99-.11-1.33-.16-1.99-.08-1.33-.12-1.99l-.09-1.99h-.1" class="violin" style="vector-effect:none;stroke-width:2px;stroke:green;stroke-opacity:1;fill:green;fill-opacity:.5"/><path d="M312.47 147.96h11.66m-11.66 16.25h11.66v-23.86h-11.66Zm0 0v35.69m0-59.55v-33.02" class="box" style="vector-effect:non-scaling-stroke;stroke-width:2px;stroke:green;stroke-opacity:1;fill:green;fill-opacity:.5"/></g></g></g><path d="M68 316.5h427M68 10.5h427" class="xlines-above crisp" style="fill:none;stroke-width:1px;stroke:#000;stroke-opacity:1"/><path d="M68.5 11v305m426-305v305" class="ylines-above crisp" style="fill:none;stroke-width:1px;stroke:#000;stroke-opacity:1"/><g class="xaxislayer-above"><path d="M0 317v5" class="xtick ticks crisp" style="stroke:#444;stroke-opacity:1;stroke-width:1px" transform="translate(92.44)"/><path d="M0 317v5" class="xtick ticks crisp" style="stroke:#444;stroke-opacity:1;stroke-width:1px" transform="translate(235.95)"/><path d="M0 317v5" class="xtick ticks crisp" style="stroke:#444;stroke-opacity:1;stroke-width:1px" transform="translate(379.47)"/><text y="341.2" class="xtick" style="font-family:&quot;Open Sans&quot;,verdana,arial,sans-serif;font-size:16px;fill:#000;fill-opacity:1;white-space:pre;opacity:1" text-anchor="middle" transform="translate(92.44)">CHGNet</text><text y="341.2" class="xtick" style="font-family:&quot;Open Sans&quot;,verdana,arial,sans-serif;font-size:16px;fill:#000;fill-opacity:1;white-space:pre;opacity:1" text-anchor="middle" transform="translate(235.95)">M3GNet</text><text y="341.2" class="xtick" style="font-family:&quot;Open Sans&quot;,verdana,arial,sans-serif;font-size:16px;fill:#000;fill-opacity:1;white-space:pre;opacity:1" text-anchor="middle" transform="translate(379.47)">MACE</text></g><g class="yaxislayer-above"><path d="M68 0h-5" class="ytick ticks crisp" style="stroke:#444;stroke-opacity:1;stroke-width:1px" transform="translate(0 311.76)"/><path d="M68 0h-5" class="ytick ticks crisp" style="stroke:#444;stroke-opacity:1;stroke-width:1px" transform="translate(0 269.4)"/><path d="M68 0h-5" class="ytick ticks crisp" style="stroke:#444;stroke-opacity:1;stroke-width:1px" transform="translate(0 227.04)"/><path d="M68 0h-5" class="ytick ticks crisp" style="stroke:#444;stroke-opacity:1;stroke-width:1px" transform="translate(0 184.68)"/><path d="M68 0h-5" class="ytick ticks crisp" style="stroke:#444;stroke-opacity:1;stroke-width:1px" transform="translate(0 142.32)"/><path d="M68 0h-5" class="ytick ticks crisp" style="stroke:#444;stroke-opacity:1;stroke-width:1px" transform="translate(0 99.96)"/><path d="M68 0h-5" class="ytick ticks crisp" style="stroke:#444;stroke-opacity:1;stroke-width:1px" transform="translate(0 57.6)"/><path d="M68 0h-5" class="ytick ticks crisp" style="stroke:#444;stroke-opacity:1;stroke-width:1px" transform="translate(0 15.24)"/><text x="59.8" y="5.6" class="ytick" style="font-family:&quot;Open Sans&quot;,verdana,arial,sans-serif;font-size:16px;fill:#000;fill-opacity:1;white-space:pre;opacity:1" text-anchor="end" transform="translate(0 311.76)">0.2</text><text x="59.8" y="5.6" class="ytick" style="font-family:&quot;Open Sans&quot;,verdana,arial,sans-serif;font-size:16px;fill:#000;fill-opacity:1;white-space:pre;opacity:1" text-anchor="end" transform="translate(0 269.4)">0.4</text><text x="59.8" y="5.6" class="ytick" style="font-family:&quot;Open Sans&quot;,verdana,arial,sans-serif;font-size:16px;fill:#000;fill-opacity:1;white-space:pre;opacity:1" text-anchor="end" transform="translate(0 227.04)">0.6</text><text x="59.8" y="5.6" class="ytick" style="font-family:&quot;Open Sans&quot;,verdana,arial,sans-serif;font-size:16px;fill:#000;fill-opacity:1;white-space:pre;opacity:1" text-anchor="end" transform="translate(0 184.68)">0.8</text><text x="59.8" y="5.6" class="ytick" style="font-family:&quot;Open Sans&quot;,verdana,arial,sans-serif;font-size:16px;fill:#000;fill-opacity:1;white-space:pre;opacity:1" text-anchor="end" transform="translate(0 142.32)">1</text><text x="59.8" y="5.6" class="ytick" style="font-family:&quot;Open Sans&quot;,verdana,arial,sans-serif;font-size:16px;fill:#000;fill-opacity:1;white-space:pre;opacity:1" text-anchor="end" transform="translate(0 99.96)">1.2</text><text x="59.8" y="5.6" class="ytick" style="font-family:&quot;Open Sans&quot;,verdana,arial,sans-serif;font-size:16px;fill:#000;fill-opacity:1;white-space:pre;opacity:1" text-anchor="end" transform="translate(0 57.6)">1.4</text><text x="59.8" y="5.6" class="ytick" style="font-family:&quot;Open Sans&quot;,verdana,arial,sans-serif;font-size:16px;fill:#000;fill-opacity:1;white-space:pre;opacity:1" text-anchor="end" transform="translate(0 15.24)">1.6</text></g></g></g><g class="layer-above"><g class="shapelayer"><g class="shape-group" clip-path="url(#a)" data-index="0"><path fill="none" d="M69 142.32h425" data-index="0" style="opacity:1;stroke:#2a3f5f;stroke-opacity:1;fill:#000;fill-opacity:0;stroke-dasharray:3px,3px;stroke-width:2px"/></g></g></g><g class="infolayer"><g class="g-ytitle"><text x="5.825" y="163.5" class="ytitle" style="font-family:&quot;Open Sans&quot;,verdana,arial,sans-serif;font-size:19px;fill:#000;opacity:1;font-weight:400;white-space:pre" text-anchor="middle" transform="rotate(-90 12.412 156.913)">(ML / DFT) Ω​<tspan dy=".3em" style="font-size:70%">max</tspan><tspan dy="-.21em">​</tspan></text></g><g class="annotation" data-index="0" style="opacity:1"><g class="annotation-text-g"><g class="cursor-pointer"><path fill="none" d="M.5.5h71v43H.5z" class="bg" style="stroke-width:1px;stroke:#000;stroke-opacity:0;fill:#000;fill-opacity:0" transform="translate(422 174)"/><text x="36.063" y="18" class="annotation-text" style="font-family:&quot;Open Sans&quot;,verdana,arial,sans-serif;font-size:16px;fill:#000;fill-opacity:1;white-space:pre" text-anchor="middle" transform="translate(422 174)"><tspan x="36.063" y="18" class="line" dy="0em">phonons</tspan><tspan x="36.063" y="18" class="line" dy="1.3em">too soft</tspan></text></g></g></g><g class="annotation" data-index="1" style="opacity:1"><g class="annotation-text-g"><g class="cursor-pointer"><path fill="none" d="M.5.5h71v43H.5z" class="bg" style="stroke-width:1px;stroke:#000;stroke-opacity:0;fill:#000;fill-opacity:0" transform="translate(422 67)"/><text x="36.063" y="18" class="annotation-text" style="font-family:&quot;Open Sans&quot;,verdana,arial,sans-serif;font-size:16px;fill:#000;fill-opacity:1;white-space:pre" text-anchor="middle" transform="translate(422 67)"><tspan x="36.063" y="18" class="line" dy="0em">phonons</tspan><tspan x="36.063" y="18" class="line" dy="1.3em">too stiff</tspan></text></g></g></g><g class="annotation" data-index="2" style="opacity:1"><g class="annotation-text-g"><g class="cursor-pointer"><path fill="none" d="M.5.5h22v21H.5z" class="bg" style="stroke-width:1px;stroke:#000;stroke-opacity:0;fill:#000;fill-opacity:0" transform="rotate(-90 132 62.5)"/><text x="11.547" y="17" class="annotation-text" style="font-family:&quot;Open Sans&quot;,verdana,arial,sans-serif;font-size:15px;fill:orange;fill-opacity:1;white-space:pre" text-anchor="middle" transform="rotate(-90 132 62.5)">52</text></g></g></g><g class="annotation" data-index="3" style="opacity:1"><g class="annotation-text-g"><g class="cursor-pointer"><path fill="none" d="M.5.5h13v21H.5z" class="bg" style="stroke-width:1px;stroke:#000;stroke-opacity:0;fill:#000;fill-opacity:0" transform="rotate(-90 88.5 19.64)"/><text x="6.781" y="17" class="annotation-text" style="font-family:&quot;Open Sans&quot;,verdana,arial,sans-serif;font-size:15px;fill:orange;fill-opacity:1;white-space:pre" text-anchor="middle" transform="rotate(-90 88.5 19.64)">1</text></g></g></g><g class="annotation" data-index="4" style="opacity:1"><g class="annotation-text-g"><g class="cursor-pointer"><path fill="none" d="M.5.5h22v21H.5z" class="bg" style="stroke-width:1px;stroke:#000;stroke-opacity:0;fill:#000;fill-opacity:0" transform="rotate(-90 111 42.32)"/><text x="11.547" y="17" class="annotation-text" style="font-family:&quot;Open Sans&quot;,verdana,arial,sans-serif;font-size:15px;fill:orange;fill-opacity:1;white-space:pre" text-anchor="middle" transform="rotate(-90 111 42.32)">47</text></g></g></g><g class="annotation" data-index="5" style="opacity:1"><g class="annotation-text-g"><g class="cursor-pointer"><path fill="none" d="M.5.5h22v21H.5z" class="bg" style="stroke-width:1px;stroke:#000;stroke-opacity:0;fill:#000;fill-opacity:0" transform="rotate(-90 204.02 -9)"/><text x="11.547" y="17" class="annotation-text" style="font-family:&quot;Open Sans&quot;,verdana,arial,sans-serif;font-size:15px;fill:#00f;fill-opacity:1;white-space:pre" text-anchor="middle" transform="rotate(-90 204.02 -9)">84</text></g></g></g><g class="annotation" data-index="6" style="opacity:1"><g class="annotation-text-g"><g class="cursor-pointer"><path fill="none" d="M.5.5h13v21H.5z" class="bg" style="stroke-width:1px;stroke:#000;stroke-opacity:0;fill:#000;fill-opacity:0" transform="rotate(-90 160.02 -52.36)"/><text x="6.781" y="17" class="annotation-text" style="font-family:&quot;Open Sans&quot;,verdana,arial,sans-serif;font-size:15px;fill:#00f;fill-opacity:1;white-space:pre" text-anchor="middle" transform="rotate(-90 160.02 -52.36)">2</text></g></g></g><g class="annotation" data-index="7" style="opacity:1"><g class="annotation-text-g"><g class="cursor-pointer"><path fill="none" d="M.5.5h22v21H.5z" class="bg" style="stroke-width:1px;stroke:#000;stroke-opacity:0;fill:#000;fill-opacity:0" transform="rotate(-90 183.02 -29.18)"/><text x="11.547" y="17" class="annotation-text" style="font-family:&quot;Open Sans&quot;,verdana,arial,sans-serif;font-size:15px;fill:#00f;fill-opacity:1;white-space:pre" text-anchor="middle" transform="rotate(-90 183.02 -29.18)">14</text></g></g></g><g class="annotation" data-index="8" style="opacity:1"><g class="annotation-text-g"><g class="cursor-pointer"><path fill="none" d="M.5.5h22v21H.5z" class="bg" style="stroke-width:1px;stroke:#000;stroke-opacity:0;fill:#000;fill-opacity:0" transform="rotate(-90 275.53 -81)"/><text x="11.547" y="17" class="annotation-text" style="font-family:&quot;Open Sans&quot;,verdana,arial,sans-serif;font-size:15px;fill:green;fill-opacity:1;white-space:pre" text-anchor="middle" transform="rotate(-90 275.53 -81)">41</text></g></g></g><g class="annotation" data-index="9" style="opacity:1"><g class="annotation-text-g"><g class="cursor-pointer"><path fill="none" d="M.5.5h13v21H.5z" class="bg" style="stroke-width:1px;stroke:#000;stroke-opacity:0;fill:#000;fill-opacity:0" transform="rotate(-90 232.03 -123.86)"/><text x="6.781" y="17" class="annotation-text" style="font-family:&quot;Open Sans&quot;,verdana,arial,sans-serif;font-size:15px;fill:green;fill-opacity:1;white-space:pre" text-anchor="middle" transform="rotate(-90 232.03 -123.86)">1</text></g></g></g><g class="annotation" data-index="10" style="opacity:1"><g class="annotation-text-g"><g class="cursor-pointer"><path fill="none" d="M.5.5h22v21H.5z" class="bg" style="stroke-width:1px;stroke:#000;stroke-opacity:0;fill:#000;fill-opacity:0" transform="rotate(-90 254.53 -101.18)"/><text x="11.547" y="17" class="annotation-text" style="font-family:&quot;Open Sans&quot;,verdana,arial,sans-serif;font-size:15px;fill:green;fill-opacity:1;white-space:pre" text-anchor="middle" transform="rotate(-90 254.53 -101.18)">58</text></g></g></g></g></svg>