<svg xmlns="http://www.w3.org/2000/svg" width="700" height="500" class="main-svg"><path d="M0 0h700v500H0z" style="fill:#fff;fill-opacity:1"/><defs><clipPath id="b" class="plotclip"><path d="M0 0h618v460H0z"/></clipPath><clipPath id="a" class="axesclip"><path d="M0 6h700v460H0z"/></clipPath></defs><g class="layer-below"><g class="shapelayer"><g class="shape-group" clip-path="url(#a)" data-index="1"><path fill-rule="evenodd" d="M76 228.35h618v-31.08H76Z" data-index="1" style="opacity:.1;stroke:#2a3f5f;stroke-opacity:1;fill:green;fill-opacity:1;stroke-width:2px"/></g></g></g><g class="cartesianlayer"><g class="subplot xy"><g class="gridlayer"><g class="x"><path d="M0 6v460" class="xgrid crisp" style="stroke:#d3d3d3;stroke-opacity:1;stroke-width:1px" transform="translate(119.97)"/><path d="M0 6v460" class="xgrid crisp" style="stroke:#d3d3d3;stroke-opacity:1;stroke-width:1px" transform="translate(317.48)"/><path d="M0 6v460" class="xgrid crisp" style="stroke:#d3d3d3;stroke-opacity:1;stroke-width:1px" transform="translate(514.98)"/></g><g class="y"><path d="M76 0h618" class="ygrid crisp" style="stroke:#d3d3d3;stroke-opacity:1;stroke-width:1px" transform="translate(0 420.02)"/><path d="M76 0h618" class="ygrid crisp" style="stroke:#d3d3d3;stroke-opacity:1;stroke-width:1px" transform="translate(0 368.22)"/><path d="M76 0h618" class="ygrid crisp" style="stroke:#d3d3d3;stroke-opacity:1;stroke-width:1px" transform="translate(0 316.42)"/><path d="M76 0h618" class="ygrid crisp" style="stroke:#d3d3d3;stroke-opacity:1;stroke-width:1px" transform="translate(0 264.61)"/><path d="M76 0h618" class="ygrid crisp" style="stroke:#d3d3d3;stroke-opacity:1;stroke-width:1px" transform="translate(0 161.01)"/><path d="M76 0h618" class="ygrid crisp" style="stroke:#d3d3d3;stroke-opacity:1;stroke-width:1px" transform="translate(0 109.2)"/><path d="M76 0h618" class="ygrid crisp" style="stroke:#d3d3d3;stroke-opacity:1;stroke-width:1px" transform="translate(0 57.4)"/></g></g><g class="zerolinelayer"><path d="M76 0h618" class="yzl zl crisp" style="stroke:#ebf0f8;stroke-opacity:1;stroke-width:2px" transform="translate(0 212.81)"/></g><g class="plot" clip-path="url(#b)" transform="translate(76 6)"><g class="violinlayer mlayer"><g class="trace violins" style="opacity:1"><path d="M43.97 399.92h.19q.1-1.03.16-1.55c.07-.52.15-1.04.23-1.56s.18-1.03.27-1.55.19-1.03.27-1.55.16-1.03.21-1.55.07-1.03.07-1.55-.02-1.03-.07-1.55-.13-1.03-.21-1.55-.18-1.03-.27-1.55-.19-1.04-.27-1.56-.17-1.03-.23-1.55-.11-1.03-.15-1.55-.07-1.03-.1-1.55c-.02-.52-.04-1.03-.05-1.55l-.03-1.55c-.01-.52-.01-1.03-.01-1.55v-37.23c0-.52.01-1.03.02-1.55a81 81 0 0 1 .11-3.11c.03-.52.07-1.03.13-1.55s.13-1.03.21-1.55.18-1.03.28-1.55.22-1.03.34-1.55.25-1.03.37-1.55.23-1.03.33-1.55c.09-.52.18-1.04.24-1.56s.12-1.03.14-1.55a20 20 0 0 0-.1-3.1c-.06-.52-.14-1.03-.23-1.55s-.2-1.03-.31-1.55-.24-1.03-.36-1.55-.25-1.03-.36-1.55-.2-1.04-.29-1.56c-.08-.52-.16-1.03-.22-1.55s-.1-1.03-.14-1.55c-.03-.52-.06-1.03-.07-1.55s-.01-1.03 0-1.55.03-1.03.07-1.55.09-1.04.18-1.55c.09-.52.2-1.04.34-1.55.15-.52.32-1.05.53-1.56.21-.52.46-1.04.72-1.55.26-.52.57-1.03.85-1.55s.57-1.03.81-1.55c.23-.51.46-1.03.61-1.55.14-.51.24-1.03.28-1.55.04-.51.02-1.03-.02-1.55s-.14-1.03-.2-1.55-.15-1.03-.17-1.55-.02-1.04.03-1.56.15-1.04.26-1.55c.12-.52.28-1.03.43-1.55s.33-1.03.49-1.55.33-1.03.49-1.55c.17-.52.31-1.04.5-1.55.19-.52.38-1.04.63-1.55.26-.53.54-1.05.89-1.55.37-.53.8-1.05 1.26-1.56.49-.53 1.05-1.04 1.61-1.55.58-.53 1.23-1.03 1.84-1.55s1.25-1.02 1.82-1.55c.54-.5 1.08-1.01 1.51-1.55.4-.5.76-1.01 1.01-1.55.23-.5.38-1.03.47-1.55.09-.51.06-1.03.06-1.55s-.08-1.04-.08-1.56 0-1.04.08-1.55c.08-.52.21-1.05.42-1.55.22-.53.53-1.05.9-1.55.4-.54.89-1.05 1.42-1.55.58-.54 1.24-1.06 1.96-1.55.79-.54 1.66-1.06 2.59-1.55 1.03-.54 2.14-1.06 3.33-1.55 1.32-.55 2.75-1.07 4.26-1.56 1.67-.55 3.47-1.05 5.34-1.55 2.04-.54 4.22-1.05 6.45-1.55a392 392 0 0 1 7.38-1.55c2.6-.53 5.28-1.04 7.94-1.55 2.68-.52 5.41-1.03 8.09-1.55 2.66-.51 5.31-1.03 7.95-1.55 2.62-.51 5.21-1.03 7.83-1.55 2.65-.52 5.28-1.05 7.99-1.56 2.8-.53 5.63-1.04 8.54-1.55 3.03-.53 6.15-1.04 9.29-1.55 3.23-.52 6.57-1.03 9.83-1.55 3.24-.51 6.54-1.02 9.67-1.55 2.95-.5 5.93-1 8.59-1.55 2.34-.49 4.69-.95 6.56-1.55 1.46-.47 3.13-.85 3.81-1.55.43-.45.76-1.1.59-1.56-.24-.64-1.72-1.1-2.93-1.55-1.72-.65-4.13-1.08-6.57-1.55-3-.58-6.52-1.06-10.12-1.55-4.1-.55-8.62-1.05-13.19-1.55-4.93-.54-10.17-1.04-15.37-1.55-5.35-.52-10.89-1.03-16.27-1.55-5.31-.51-10.68-1.02-15.8-1.55-4.86-.51-9.66-1.02-14.18-1.56-4.14-.5-8.16-1-11.9-1.55-3.34-.49-6.53-1-9.47-1.55-2.59-.49-5.03-.99-7.27-1.55-1.96-.49-3.8-.99-5.46-1.55-1.44-.48-2.79-.99-3.96-1.55-1-.48-1.94-.98-2.69-1.55-.63-.48-1.2-.99-1.59-1.55-.34-.49-.56-1.03-.69-1.56-.12-.51-.1-1.03-.09-1.55s.11-1.03.14-1.55.08-1.04.03-1.55c-.05-.52-.15-1.04-.31-1.55-.17-.53-.42-1.04-.69-1.55-.28-.53-.64-1.04-.99-1.55-.35-.52-.75-1.03-1.1-1.55s-.71-1.03-1.02-1.56c-.3-.51-.59-1.03-.83-1.55-.23-.51-.42-1.03-.58-1.55-.16-.51-.27-1.03-.38-1.55-.1-.51-.18-1.03-.25-1.55s-.12-1.03-.18-1.55-.12-1.03-.19-1.55-.15-1.03-.24-1.55-.2-1.04-.32-1.56-.25-1.03-.39-1.55-.29-1.03-.43-1.55c-.13-.52-.27-1.03-.38-1.55-.1-.51-.2-1.03-.25-1.55s-.06-1.03-.06-1.55.05-1.03.09-1.55.11-1.03.16-1.55.11-1.04.13-1.56.04-1.03.02-1.55-.06-1.03-.12-1.55-.14-1.03-.22-1.55-.17-1.03-.25-1.55c-.07-.52-.15-1.03-.2-1.55s-.1-1.03-.12-1.55-.02-1.03-.03-1.55-.01-1.03-.03-1.55-.03-1.04-.07-1.56-.1-1.03-.17-1.55-.17-1.03-.26-1.55-.19-1.03-.28-1.55-.2-1.03-.28-1.55a41 41 0 0 1-.45-4.65c-.02-.52-.03-1.04-.04-1.56s-.01-1.03-.02-1.55c0-.52-.01-1.03-.01-1.55v-3.1c0-.52 0-1.03.01-1.55l.03-1.55c.01-.52.03-1.03.05-1.55.03-.52.06-1.04.1-1.56s.09-1.03.15-1.55.15-1.03.23-1.55.18-1.03.27-1.55.19-1.03.27-1.55.16-1.03.21-1.55.07-1.03.07-1.55-.02-1.03-.07-1.55-.13-1.04-.21-1.56-.18-1.03-.27-1.55-.19-1.03-.27-1.55-.16-1.03-.23-1.55q-.06-.52-.16-1.55h-.19" class="violin" style="vector-effect:none;stroke-width:2px;stroke:orange;stroke-opacity:1;fill:orange;fill-opacity:.5"/><path d="M45.97 224.65h18.52m-18.52 10.6h18.52v-18.54H45.97Zm0 0v27.06m0-45.6v-25.24" class="box" style="vector-effect:non-scaling-stroke;stroke-width:2px;stroke:orange;stroke-opacity:1;fill:orange;fill-opacity:.5"/></g><g class="trace violins" style="opacity:1"><path d="M241.48 437h.18q.1-2.15.16-3.23c.06-1.08.14-2.16.22-3.24s.17-2.15.26-3.23.19-2.16.27-3.24.16-2.15.2-3.23c.05-1.08.07-2.16.07-3.24s-.02-2.15-.06-3.23-.13-2.15-.2-3.23c-.08-1.08-.17-2.16-.25-3.24s-.17-2.15-.23-3.23c-.07-1.08-.13-2.16-.16-3.24s-.05-2.15-.05-3.23.04-2.16.08-3.24.11-2.15.18-3.23c.08-1.08.18-2.16.27-3.24s.19-2.15.27-3.23.17-2.15.23-3.23q.09-1.62.15-3.24c.04-1.08.05-2.15.07-3.23s.01-2.16.02-3.24c0-1.08.01-2.15.01-3.23v-6.47c0-1.08-.02-2.15-.03-3.23s-.03-2.16-.02-3.24.01-2.15.06-3.23.11-2.16.22-3.24.26-2.16.45-3.23c.19-1.08.43-2.16.69-3.24s.56-2.15.86-3.23.62-2.16.95-3.24.66-2.16 1.03-3.23c.37-1.08.74-2.16 1.18-3.23.45-1.09.93-2.18 1.49-3.24a37 37 0 0 1 1.91-3.23c.72-1.1 1.53-2.17 2.36-3.24.84-1.09 1.76-2.16 2.65-3.23.9-1.08 1.84-2.16 2.73-3.24.89-1.07 1.76-2.15 2.61-3.23.84-1.07 1.64-2.15 2.46-3.23s1.59-2.17 2.44-3.24c.86-1.09 1.72-2.17 2.69-3.23 1.01-1.1 2.08-2.19 3.25-3.24a54 54 0 0 1 4.04-3.23c1.54-1.12 3.2-2.19 4.92-3.24 1.83-1.11 3.77-2.18 5.76-3.23 2.08-1.1 4.26-2.18 6.47-3.24 2.27-1.1 4.63-2.16 6.98-3.23 2.39-1.09 4.84-2.15 7.27-3.23s4.89-2.15 7.3-3.24c2.38-1.07 4.77-2.14 7.09-3.23 2.26-1.07 4.49-2.14 6.66-3.24 2.1-1.06 4.15-2.14 6.16-3.23 1.95-1.06 3.83-2.15 5.71-3.24 1.85-1.07 3.66-2.16 5.5-3.23 1.85-1.08 3.68-2.17 5.58-3.23 1.95-1.09 3.92-2.18 5.96-3.24 2.1-1.1 4.27-2.16 6.47-3.23 2.25-1.09 4.59-2.16 6.87-3.24 2.27-1.08 4.62-2.12 6.79-3.23 2.06-1.05 4.2-2.08 5.94-3.24 1.52-1.01 3.19-2.01 4.01-3.23.66-.99 1.21-2.22.97-3.24-.27-1.16-1.66-2.27-3.02-3.23-1.86-1.3-4.7-2.24-7.55-3.23-3.51-1.22-7.73-2.22-12.02-3.24-4.87-1.16-10.29-2.18-15.71-3.23-5.78-1.12-11.93-2.17-17.94-3.24-6.08-1.08-12.36-2.13-18.35-3.23-5.77-1.06-11.56-2.11-16.96-3.24-4.97-1.04-9.84-2.08-14.28-3.23-3.94-1.02-7.69-2.06-11.05-3.23-2.91-1.01-5.62-2.07-8.02-3.24-2.09-1.01-3.96-2.08-5.65-3.23-1.51-1.02-2.84-2.12-4.07-3.24a38 38 0 0 1-3.11-3.23 37 37 0 0 1-2.49-3.24c-.73-1.06-1.39-2.14-1.98-3.23-.58-1.06-1.08-2.15-1.53-3.24-.44-1.07-.8-2.15-1.13-3.23-.32-1.07-.58-2.15-.82-3.23s-.43-2.16-.62-3.24-.35-2.15-.5-3.23-.29-2.16-.41-3.24-.24-2.15-.33-3.23c-.1-1.08-.17-2.16-.24-3.24s-.12-2.15-.16-3.23-.08-2.15-.1-3.23c-.03-1.08-.04-2.16-.05-3.24s-.02-2.15-.02-3.23c-.01-1.08-.01-2.16-.01-3.24V74.75c0-1.08 0-2.15.01-3.23l.03-3.24c.01-1.08.03-2.15.05-3.23.03-1.08.06-2.16.1-3.24s.09-2.15.15-3.23.15-2.16.23-3.24.17-2.15.26-3.23.19-2.16.27-3.24a87 87 0 0 0 .26-6.46c0-1.08-.02-2.16-.07-3.24-.04-1.08-.12-2.15-.2-3.23s-.18-2.16-.27-3.24-.18-2.15-.26-3.23-.16-2.16-.22-3.24q-.06-1.08-.16-3.23h-.18" class="violin" style="vector-effect:none;stroke-width:2px;stroke:#00f;stroke-opacity:1;fill:#00f;fill-opacity:.5"/><path d="M243.48 244.2h18.51m-18.51 23.19h18.51v-38.77h-18.51Zm0 0v51.38m0-90.15V175.3" class="box" style="vector-effect:non-scaling-stroke;stroke-width:2px;stroke:#00f;stroke-opacity:1;fill:#00f;fill-opacity:.5"/></g><g class="trace violins" style="opacity:1"><path d="M438.98 299.61h.19q.1-.77.17-1.16c.07-.39.16-.78.25-1.17.1-.39.21-.77.32-1.16.12-.39.25-.77.37-1.16s.25-.77.36-1.16.22-.78.31-1.17c.08-.39.15-.77.2-1.16.04-.39.07-.77.07-1.16s-.03-.77-.07-1.16-.11-.78-.19-1.17-.19-.77-.3-1.16-.24-.77-.36-1.16-.26-.77-.37-1.16-.22-.78-.31-1.17-.17-.77-.23-1.16-.1-.77-.12-1.16-.01-.77.01-1.16q.03-.585.12-1.17c.06-.39.15-.77.24-1.16s.2-.77.32-1.16.26-.77.39-1.16.26-.78.38-1.17.24-.77.34-1.16c.09-.38.17-.77.23-1.16s.1-.77.14-1.16.05-.78.08-1.17.06-.78.12-1.16c.07-.39.14-.78.27-1.16.14-.39.32-.78.54-1.16.23-.4.53-.79.84-1.17.33-.4.71-.77 1.08-1.16s.77-.77 1.12-1.16c.34-.38.68-.76.94-1.16q.375-.57.6-1.17c.14-.38.21-.77.29-1.16.07-.38.09-.77.16-1.16s.13-.78.25-1.16q.195-.6.51-1.17c.21-.4.49-.78.76-1.16.27-.39.58-.77.85-1.16s.54-.77.77-1.17c.22-.38.41-.77.57-1.16.15-.38.26-.77.37-1.16s.18-.77.3-1.16.23-.79.41-1.17c.19-.4.42-.79.72-1.16.34-.41.76-.8 1.25-1.16.56-.42 1.23-.8 1.96-1.16.85-.42 1.82-.8 2.84-1.17 1.16-.42 2.44-.79 3.76-1.16 1.44-.41 2.99-.78 4.55-1.16 1.63-.4 3.34-.77 5.02-1.16 1.69-.39 3.41-.78 5.08-1.17 1.62-.38 3.23-.76 4.78-1.16 1.48-.38 2.91-.76 4.31-1.16 1.34-.38 2.61-.77 3.9-1.16 1.28-.39 2.51-.79 3.82-1.17 1.37-.4 2.73-.79 4.21-1.16 1.63-.41 3.33-.79 5.16-1.16 2.06-.41 4.28-.79 6.61-1.16 2.62-.41 5.43-.8 8.34-1.17 3.19-.41 6.59-.78 10.04-1.16 3.66-.4 7.51-.78 11.31-1.16 3.87-.39 7.87-.77 11.72-1.16 3.74-.38 7.52-.77 11.05-1.17 3.26-.37 6.49-.74 9.41-1.16 2.56-.36 5.03-.73 7.17-1.16 1.77-.36 3.47-.7 4.81-1.16 1.02-.35 2.13-.66 2.6-1.17.31-.33.54-.82.41-1.16-.18-.48-1.22-.82-2.12-1.16-1.35-.5-3.3-.81-5.32-1.16-2.61-.45-5.78-.81-9.06-1.17-3.86-.43-8.24-.79-12.66-1.16-4.85-.41-10.09-.78-15.26-1.16-5.34-.39-10.91-.77-16.3-1.16-5.31-.39-10.67-.77-15.8-1.17-4.88-.38-9.7-.76-14.28-1.16-4.25-.37-8.38-.75-12.29-1.16-3.57-.37-7.02-.75-10.25-1.16-2.9-.37-5.69-.75-8.26-1.17-2.26-.37-4.4-.74-6.34-1.16-1.66-.36-3.22-.73-4.59-1.16-1.15-.36-2.21-.73-3.13-1.16-.77-.36-1.45-.75-2.05-1.17-.52-.36-.97-.76-1.37-1.16-.37-.37-.68-.77-.98-1.16-.29-.38-.55-.77-.81-1.16s-.52-.78-.77-1.17-.5-.77-.75-1.16-.51-.77-.76-1.16-.49-.77-.72-1.16-.45-.78-.65-1.17c-.2-.38-.38-.77-.54-1.16a12 12 0 0 1-.41-1.16c-.12-.38-.21-.77-.29-1.16s-.14-.78-.2-1.17-.09-.77-.14-1.16c-.04-.39-.08-.77-.13-1.16s-.1-.78-.17-1.17-.15-.77-.24-1.16-.19-.77-.29-1.16-.22-.77-.32-1.16-.2-.78-.29-1.17-.16-.77-.23-1.16c-.06-.39-.12-.77-.16-1.16s-.08-.77-.1-1.16c-.03-.39-.04-.78-.05-1.17s-.01-.77-.01-1.16 0-.77.01-1.16.03-.77.06-1.16.06-.78.12-1.17.13-.78.22-1.16c.1-.39.21-.78.35-1.16.14-.39.31-.77.48-1.16s.37-.78.55-1.17.37-.77.52-1.16c.14-.38.28-.77.35-1.16.07-.38.11-.77.09-1.16s-.1-.79-.21-1.17c-.11-.39-.28-.78-.44-1.16-.17-.39-.37-.77-.55-1.16s-.37-.77-.53-1.16-.31-.78-.43-1.17c-.12-.38-.21-.77-.29-1.16-.08-.38-.13-.77-.18-1.16-.04-.39-.07-.77-.09-1.16s-.03-.78-.04-1.17-.02-.77-.02-1.16v-33.71c0-.39.01-.78.01-1.17s0-.77.01-1.16.02-.77.04-1.16.05-.77.08-1.16q.045-.585.12-1.17c.05-.39.12-.77.2-1.16s.17-.77.26-1.16.19-.77.28-1.16.18-.78.24-1.17.12-.77.14-1.16.03-.77.01-1.16-.07-.77-.12-1.16-.14-.78-.2-1.17-.13-.77-.17-1.16-.08-.77-.09-1.16.01-.77.04-1.16.09-.78.15-1.17.13-.77.19-1.16.13-.77.16-1.16.06-.77.05-1.16q-.015-.585-.09-1.17c-.05-.39-.13-.77-.21-1.16s-.18-.77-.27-1.16-.19-.77-.27-1.16-.16-.78-.22-1.17-.12-.77-.16-1.16-.07-.77-.09-1.16-.04-.77-.05-1.16-.01-.78-.01-1.17 0-.77.01-1.16.03-.77.05-1.16c.03-.39.06-.77.1-1.16s.1-.78.16-1.17c.07-.39.15-.77.23-1.16s.18-.77.27-1.16.19-.77.27-1.16.15-.78.2-1.17c.04-.39.07-.77.07-1.16s-.03-.77-.08-1.16-.12-.77-.2-1.16-.18-.78-.27-1.17-.19-.77-.27-1.16-.16-.77-.23-1.16q-.06-.39-.16-1.16h-.18" class="violin" style="vector-effect:none;stroke-width:2px;stroke:green;stroke-opacity:1;fill:green;fill-opacity:.5"/><path d="M440.98 220.82h18.51m-18.51 7.85h18.51v-13.96h-18.51Zm0 0v20.65m0-34.61v-20.16" class="box" style="vector-effect:non-scaling-stroke;stroke-width:2px;stroke:green;stroke-opacity:1;fill:green;fill-opacity:.5"/></g></g></g><path d="M75 466.5h620M75 5.5h620" class="xlines-above crisp" style="fill:none;stroke-width:1px;stroke:#000;stroke-opacity:1"/><path d="M75.5 6v460m619-460v460" class="ylines-above crisp" style="fill:none;stroke-width:1px;stroke:#000;stroke-opacity:1"/><g class="xaxislayer-above"><path d="M0 467v5" class="xtick ticks crisp" style="stroke:#444;stroke-opacity:1;stroke-width:1px" transform="translate(119.97)"/><path d="M0 467v5" class="xtick ticks crisp" style="stroke:#444;stroke-opacity:1;stroke-width:1px" transform="translate(317.48)"/><path d="M0 467v5" class="xtick ticks crisp" style="stroke:#444;stroke-opacity:1;stroke-width:1px" transform="translate(514.98)"/><text y="491.2" class="xtick" style="font-family:&quot;Open Sans&quot;,verdana,arial,sans-serif;font-size:16px;fill:#000;fill-opacity:1;white-space:pre;opacity:1" text-anchor="middle" transform="translate(119.97)">CHGNet</text><text y="491.2" class="xtick" style="font-family:&quot;Open Sans&quot;,verdana,arial,sans-serif;font-size:16px;fill:#000;fill-opacity:1;white-space:pre;opacity:1" text-anchor="middle" transform="translate(317.48)">M3GNet</text><text y="491.2" class="xtick" style="font-family:&quot;Open Sans&quot;,verdana,arial,sans-serif;font-size:16px;fill:#000;fill-opacity:1;white-space:pre;opacity:1" text-anchor="middle" transform="translate(514.98)">MACE</text></g><g class="yaxislayer-above"><path d="M75 0h-5" class="ytick ticks crisp" style="stroke:#444;stroke-opacity:1;stroke-width:1px" transform="translate(0 420.02)"/><path d="M75 0h-5" class="ytick ticks crisp" style="stroke:#444;stroke-opacity:1;stroke-width:1px" transform="translate(0 368.22)"/><path d="M75 0h-5" class="ytick ticks crisp" style="stroke:#444;stroke-opacity:1;stroke-width:1px" transform="translate(0 316.42)"/><path d="M75 0h-5" class="ytick ticks crisp" style="stroke:#444;stroke-opacity:1;stroke-width:1px" transform="translate(0 264.61)"/><path d="M75 0h-5" class="ytick ticks crisp" style="stroke:#444;stroke-opacity:1;stroke-width:1px" transform="translate(0 212.81)"/><path d="M75 0h-5" class="ytick ticks crisp" style="stroke:#444;stroke-opacity:1;stroke-width:1px" transform="translate(0 161.01)"/><path d="M75 0h-5" class="ytick ticks crisp" style="stroke:#444;stroke-opacity:1;stroke-width:1px" transform="translate(0 109.2)"/><path d="M75 0h-5" class="ytick ticks crisp" style="stroke:#444;stroke-opacity:1;stroke-width:1px" transform="translate(0 57.4)"/><text x="66.8" y="5.6" class="ytick" style="font-family:&quot;Open Sans&quot;,verdana,arial,sans-serif;font-size:16px;fill:#000;fill-opacity:1;white-space:pre;opacity:1" text-anchor="end" transform="translate(0 420.02)">−20</text><text x="66.8" y="5.6" class="ytick" style="font-family:&quot;Open Sans&quot;,verdana,arial,sans-serif;font-size:16px;fill:#000;fill-opacity:1;white-space:pre;opacity:1" text-anchor="end" transform="translate(0 368.22)">−15</text><text x="66.8" y="5.6" class="ytick" style="font-family:&quot;Open Sans&quot;,verdana,arial,sans-serif;font-size:16px;fill:#000;fill-opacity:1;white-space:pre;opacity:1" text-anchor="end" transform="translate(0 316.42)">−10</text><text x="66.8" y="5.6" class="ytick" style="font-family:&quot;Open Sans&quot;,verdana,arial,sans-serif;font-size:16px;fill:#000;fill-opacity:1;white-space:pre;opacity:1" text-anchor="end" transform="translate(0 264.61)">−5</text><text x="66.8" y="5.6" class="ytick" style="font-family:&quot;Open Sans&quot;,verdana,arial,sans-serif;font-size:16px;fill:#000;fill-opacity:1;white-space:pre;opacity:1" text-anchor="end" transform="translate(0 212.81)">0</text><text x="66.8" y="5.6" class="ytick" style="font-family:&quot;Open Sans&quot;,verdana,arial,sans-serif;font-size:16px;fill:#000;fill-opacity:1;white-space:pre;opacity:1" text-anchor="end" transform="translate(0 161.01)">5</text><text x="66.8" y="5.6" class="ytick" style="font-family:&quot;Open Sans&quot;,verdana,arial,sans-serif;font-size:16px;fill:#000;fill-opacity:1;white-space:pre;opacity:1" text-anchor="end" transform="translate(0 109.2)">10</text><text x="66.8" y="5.6" class="ytick" style="font-family:&quot;Open Sans&quot;,verdana,arial,sans-serif;font-size:16px;fill:#000;fill-opacity:1;white-space:pre;opacity:1" text-anchor="end" transform="translate(0 57.4)">15</text></g></g></g><g class="layer-above"><g class="shapelayer"><g class="shape-group" clip-path="url(#a)" data-index="0"><path fill="none" d="M76 212.81h618" data-index="0" style="opacity:1;stroke:#2a3f5f;stroke-opacity:1;fill:#000;fill-opacity:0;stroke-dasharray:3px,3px;stroke-width:2px"/></g></g></g><g class="infolayer"><g class="g-ytitle"><text x="5.559" y="236" class="ytitle" style="font-family:&quot;Open Sans&quot;,verdana,arial,sans-serif;font-size:19px;fill:#000;opacity:1;font-weight:400;white-space:pre" text-anchor="middle" transform="rotate(-90 12.28 229.28)">Ω​<tspan dy=".3em" style="font-size:70%">max</tspan><tspan dy="-.21em">​</tspan> (THz)</text></g><g class="annotation" data-index="0" style="opacity:1"><g class="annotation-text-g"><g class="cursor-pointer"><path fill="none" d="M.5.5h138v23H.5z" class="bg" style="stroke-width:1px;stroke:#000;stroke-opacity:0;fill:#000;fill-opacity:0" transform="translate(555 231)"/><text x="69.531" y="18" class="annotation-text" style="font-family:&quot;Open Sans&quot;,verdana,arial,sans-serif;font-size:16px;fill:#000;fill-opacity:1;white-space:pre" text-anchor="middle" transform="translate(555 231)">phonons too soft</text></g></g></g><g class="annotation" data-index="1" style="opacity:1"><g class="annotation-text-g"><g class="cursor-pointer"><path fill="none" d="M.5.5h139v23H.5z" class="bg" style="stroke-width:1px;stroke:#000;stroke-opacity:0;fill:#000;fill-opacity:0" transform="translate(554 170)"/><text x="69.688" y="18" class="annotation-text" style="font-family:&quot;Open Sans&quot;,verdana,arial,sans-serif;font-size:16px;fill:#000;fill-opacity:1;white-space:pre" text-anchor="middle" transform="translate(554 170)">phonons too stiff</text></g></g></g><g class="annotation" data-index="2" style="opacity:1"><g class="annotation-text-g"><g class="cursor-pointer"><path fill="none" d="M.5.5h41v20H.5z" class="bg" style="stroke-width:1px;stroke:#000;stroke-opacity:0;fill:#000;fill-opacity:0" transform="translate(76 233)"/><text x="20.859" y="16" class="annotation-text" style="font-family:&quot;Open Sans&quot;,verdana,arial,sans-serif;font-size:14px;fill:orange;fill-opacity:1;white-space:pre" text-anchor="middle" transform="translate(76 233)"><tspan style="font-weight:700">92%</tspan></text></g></g></g><g class="annotation" data-index="3" style="opacity:1"><g class="annotation-text-g"><g class="cursor-pointer"><path fill="none" d="M.5.5h31v20H.5z" class="bg" style="stroke-width:1px;stroke:#000;stroke-opacity:0;fill:#000;fill-opacity:0" transform="translate(86 172)"/><text x="15.891" y="16" class="annotation-text" style="font-family:&quot;Open Sans&quot;,verdana,arial,sans-serif;font-size:14px;fill:orange;fill-opacity:1;white-space:pre" text-anchor="middle" transform="translate(86 172)"><tspan style="font-weight:700">8%</tspan></text></g></g></g><g class="annotation" data-index="4" style="opacity:1"><g class="annotation-text-g"><g class="cursor-pointer"><path fill="none" d="M.5.5h41v20H.5z" class="bg" style="stroke-width:1px;stroke:#000;stroke-opacity:0;fill:#000;fill-opacity:0" transform="translate(274 233)"/><text x="20.859" y="16" class="annotation-text" style="font-family:&quot;Open Sans&quot;,verdana,arial,sans-serif;font-size:14px;fill:#00f;fill-opacity:1;white-space:pre" text-anchor="middle" transform="translate(274 233)"><tspan style="font-weight:700">97%</tspan></text></g></g></g><g class="annotation" data-index="5" style="opacity:1"><g class="annotation-text-g"><g class="cursor-pointer"><path fill="none" d="M.5.5h31v20H.5z" class="bg" style="stroke-width:1px;stroke:#000;stroke-opacity:0;fill:#000;fill-opacity:0" transform="translate(284 172)"/><text x="15.891" y="16" class="annotation-text" style="font-family:&quot;Open Sans&quot;,verdana,arial,sans-serif;font-size:14px;fill:#00f;fill-opacity:1;white-space:pre" text-anchor="middle" transform="translate(284 172)"><tspan style="font-weight:700">3%</tspan></text></g></g></g><g class="annotation" data-index="6" style="opacity:1"><g class="annotation-text-g"><g class="cursor-pointer"><path fill="none" d="M.5.5h41v20H.5z" class="bg" style="stroke-width:1px;stroke:#000;stroke-opacity:0;fill:#000;fill-opacity:0" transform="translate(471 233)"/><text x="20.859" y="16" class="annotation-text" style="font-family:&quot;Open Sans&quot;,verdana,arial,sans-serif;font-size:14px;fill:green;fill-opacity:1;white-space:pre" text-anchor="middle" transform="translate(471 233)"><tspan style="font-weight:700">95%</tspan></text></g></g></g><g class="annotation" data-index="7" style="opacity:1"><g class="annotation-text-g"><g class="cursor-pointer"><path fill="none" d="M.5.5h31v20H.5z" class="bg" style="stroke-width:1px;stroke:#000;stroke-opacity:0;fill:#000;fill-opacity:0" transform="translate(481 172)"/><text x="15.891" y="16" class="annotation-text" style="font-family:&quot;Open Sans&quot;,verdana,arial,sans-serif;font-size:14px;fill:green;fill-opacity:1;white-space:pre" text-anchor="middle" transform="translate(481 172)"><tspan style="font-weight:700">5%</tspan></text></g></g></g></g></svg>