<svg xmlns="http://www.w3.org/2000/svg" width="500" height="350" class="main-svg"><path d="M0 0h500v350H0z" style="fill:#fff;fill-opacity:1"/><defs><clipPath id="b" class="plotclip"><path d="M0 0h428v310H0z"/></clipPath><clipPath id="a" class="axesclip"><path d="M0 6h500v310H0z"/></clipPath></defs><g class="layer-below"><g class="shapelayer"><g class="shape-group" clip-path="url(#a)" data-index="1"><path fill-rule="evenodd" d="M66 157.01h428v-23.27H66Z" data-index="1" style="opacity:.1;stroke:#2a3f5f;stroke-opacity:1;fill:green;fill-opacity:1;stroke-width:2px"/></g></g></g><g class="cartesianlayer"><g class="subplot xy"><g class="gridlayer"><g class="x"><path d="M0 6v310" class="xgrid crisp" style="stroke:#d3d3d3;stroke-opacity:1;stroke-width:1px" transform="translate(89.45)"/><path d="M0 6v310" class="xgrid crisp" style="stroke:#d3d3d3;stroke-opacity:1;stroke-width:1px" transform="translate(234.03)"/><path d="M0 6v310" class="xgrid crisp" style="stroke:#d3d3d3;stroke-opacity:1;stroke-width:1px" transform="translate(378.62)"/></g><g class="y"><path d="M66 0h428" class="ygrid crisp" style="stroke:#d3d3d3;stroke-opacity:1;stroke-width:1px" transform="translate(0 300.53)"/><path d="M66 0h428" class="ygrid crisp" style="stroke:#d3d3d3;stroke-opacity:1;stroke-width:1px" transform="translate(0 261.74)"/><path d="M66 0h428" class="ygrid crisp" style="stroke:#d3d3d3;stroke-opacity:1;stroke-width:1px" transform="translate(0 222.95)"/><path d="M66 0h428" class="ygrid crisp" style="stroke:#d3d3d3;stroke-opacity:1;stroke-width:1px" transform="translate(0 184.16)"/><path d="M66 0h428" class="ygrid crisp" style="stroke:#d3d3d3;stroke-opacity:1;stroke-width:1px" transform="translate(0 106.58)"/><path d="M66 0h428" class="ygrid crisp" style="stroke:#d3d3d3;stroke-opacity:1;stroke-width:1px" transform="translate(0 67.79)"/><path d="M66 0h428" class="ygrid crisp" style="stroke:#d3d3d3;stroke-opacity:1;stroke-width:1px" transform="translate(0 29)"/></g></g><g class="zerolinelayer"><path d="M66 0h428" class="yzl zl crisp" style="stroke:#ebf0f8;stroke-opacity:1;stroke-width:2px" transform="translate(0 145.37)"/></g><g class="plot" clip-path="url(#b)" transform="translate(66 6)"><g class="violinlayer mlayer"><g class="trace violins" style="opacity:1"><path d="M23.45 283.97h.12q.06-.77.1-1.16c.04-.39.09-.77.14-1.16s.11-.78.17-1.17.12-.77.17-1.16.1-.77.13-1.16.05-.77.05-1.16-.02-.77-.05-1.16-.07-.77-.12-1.16-.12-.78-.18-1.17-.12-.77-.17-1.16-.1-.77-.14-1.16a45 45 0 0 1-.17-2.32c-.02-.39-.02-.77-.03-1.16s-.01-.77-.01-1.16-.01-.78-.01-1.17v-27.87c0-.39 0-.78.01-1.17 0-.39.01-.77.02-1.16s.03-.77.05-1.16.05-.77.08-1.16c.04-.39.08-.77.13-1.16s.11-.77.18-1.16.15-.77.22-1.16c.08-.39.16-.78.23-1.17s.15-.77.21-1.16.12-.77.16-1.16.08-.77.09-1.16.01-.77 0-1.16-.04-.77-.07-1.16c-.04-.39-.08-.78-.14-1.17s-.13-.77-.2-1.16-.15-.77-.23-1.16c-.07-.39-.15-.77-.22-1.16s-.13-.77-.19-1.16c-.05-.39-.1-.77-.14-1.16s-.07-.77-.09-1.16-.03-.78-.04-1.17-.02-.77-.01-1.16a23 23 0 0 1 .16-2.32c.06-.39.13-.78.22-1.16.09-.39.2-.78.33-1.16.13-.39.3-.78.47-1.17s.35-.77.53-1.16c.17-.39.37-.77.52-1.16.15-.38.29-.77.38-1.16.09-.38.15-.77.18-1.16s.01-.77-.01-1.16-.09-.77-.13-1.16-.09-.78-.1-1.17-.02-.77.01-1.16.1-.77.17-1.16.17-.77.27-1.16.21-.77.31-1.16.21-.77.31-1.16c.11-.39.2-.78.32-1.17s.24-.78.4-1.16c.16-.39.35-.78.57-1.16.23-.39.5-.78.79-1.16.31-.4.67-.78 1.03-1.16.37-.39.77-.77 1.16-1.16s.8-.77 1.16-1.17c.34-.38.69-.76.96-1.16.26-.38.48-.76.64-1.16.15-.38.24-.77.29-1.16.05-.38.04-.77.04-1.16s-.05-.77-.05-1.16 0-.77.05-1.16.13-.79.27-1.17c.14-.4.34-.78.57-1.16.25-.4.56-.79.9-1.16.37-.4.79-.79 1.25-1.16.5-.4 1.05-.79 1.64-1.16.65-.41 1.35-.79 2.11-1.16q1.26-.615 2.7-1.17c1.06-.41 2.2-.79 3.39-1.16 1.3-.4 2.68-.78 4.1-1.16 1.51-.4 3.09-.78 4.68-1.16 1.64-.39 3.34-.78 5.03-1.16 1.7-.39 3.43-.77 5.13-1.16 1.69-.39 3.37-.77 5.05-1.16 1.66-.39 3.3-.78 4.97-1.17 1.68-.39 3.35-.78 5.07-1.16 1.78-.39 3.57-.78 5.42-1.16 1.92-.39 3.9-.78 5.89-1.16 2.05-.39 4.16-.77 6.23-1.16 2.05-.39 4.16-.76 6.14-1.16 1.87-.38 3.76-.75 5.45-1.17 1.49-.37 2.98-.71 4.17-1.16.93-.35 1.99-.66 2.42-1.16.29-.34.5-.82.37-1.16-.17-.46-1.09-.82-1.86-1.16-1.09-.48-2.62-.81-4.17-1.16-1.9-.44-4.13-.79-6.42-1.16-2.6-.42-5.47-.8-8.37-1.17-3.12-.4-6.45-.78-9.75-1.16-3.39-.39-6.91-.77-10.33-1.16-3.37-.38-6.77-.76-10.02-1.16-3.08-.38-6.13-.76-9-1.16-2.63-.37-5.18-.75-7.55-1.16-2.12-.37-4.14-.75-6.01-1.17-1.64-.37-3.19-.74-4.61-1.16-1.24-.36-2.41-.74-3.46-1.16-.91-.36-1.77-.74-2.51-1.16-.64-.36-1.24-.74-1.71-1.16-.41-.36-.76-.75-1.01-1.16-.22-.37-.36-.77-.44-1.16-.08-.38-.07-.78-.06-1.17s.08-.77.1-1.16.04-.77.01-1.16-.09-.78-.19-1.16c-.11-.39-.27-.78-.44-1.16-.18-.39-.41-.77-.63-1.16s-.47-.78-.7-1.17c-.22-.39-.45-.77-.65-1.16-.19-.38-.37-.77-.52-1.16-.15-.38-.27-.77-.37-1.16-.1-.38-.17-.77-.24-1.16s-.12-.77-.16-1.16c-.05-.39-.07-.78-.11-1.17s-.07-.77-.12-1.16-.1-.77-.16-1.16-.13-.77-.2-1.16c-.08-.39-.16-.77-.25-1.16l-.27-1.16c-.08-.39-.17-.77-.24-1.16s-.13-.78-.16-1.17-.04-.77-.04-1.16.03-.77.06-1.16.07-.77.1-1.16.06-.77.08-1.16.03-.77.02-1.16-.04-.78-.08-1.17-.09-.77-.14-1.16-.11-.77-.16-1.16-.1-.77-.13-1.16-.06-.77-.07-1.16-.01-.77-.02-1.16-.01-.77-.02-1.16-.02-.78-.05-1.17c-.02-.39-.06-.77-.1-1.16s-.1-.77-.16-1.16-.13-.77-.19-1.16-.12-.77-.17-1.16-.1-.77-.14-1.16q-.06-.585-.09-1.17c-.02-.39-.04-.77-.05-1.16l-.03-1.16c-.01-.39-.02-.77-.02-1.16v-3.48c0-.39.01-.78.01-1.17s0-.77.01-1.16.01-.77.03-1.16a45 45 0 0 1 .17-2.32c.04-.39.09-.77.14-1.16s.11-.78.17-1.17.13-.77.18-1.16.09-.77.12-1.16.05-.77.05-1.16-.02-.77-.05-1.16-.08-.77-.13-1.16-.11-.78-.17-1.17-.12-.77-.17-1.16-.1-.77-.14-1.16q-.04-.39-.1-1.16h-.12" class="violin" style="vector-effect:none;stroke-width:2px;stroke:orange;stroke-opacity:1;fill:orange;fill-opacity:.5"/><path d="M25.45 152.73h11.74m-11.74 7.94h11.74v-13.89H25.45Zm0 0v20.26m0-34.15v-18.9" class="box" style="vector-effect:non-scaling-stroke;stroke-width:2px;stroke:orange;stroke-opacity:1;fill:orange;fill-opacity:.5"/></g><g class="trace violins" style="opacity:1"><path d="M168.03 311.74h.12q.06-1.62.1-2.43c.04-.81.09-1.61.14-2.42s.11-1.61.17-2.42.12-1.61.17-2.42.09-1.61.12-2.42a65 65 0 0 0 .01-4.85c-.03-.81-.07-1.61-.12-2.42s-.11-1.61-.16-2.42-.11-1.61-.15-2.42-.09-1.61-.11-2.42q-.03-1.215-.03-2.43c0-.81.02-1.61.05-2.42s.07-1.61.12-2.42.11-1.61.17-2.42.12-1.61.17-2.42.11-1.62.15-2.43.07-1.61.09-2.42.04-1.61.05-2.42.01-1.61.01-2.42.01-1.61.01-2.42v-4.85c0-.81-.01-1.61-.02-2.42 0-.81-.01-1.61-.01-2.42s0-1.61.03-2.42.07-1.61.14-2.42.17-1.62.29-2.43.28-1.61.44-2.42.35-1.61.54-2.42.4-1.61.61-2.42.42-1.61.65-2.42.47-1.63.75-2.43a27.4 27.4 0 0 1 2.16-4.84c.46-.82.97-1.62 1.49-2.42.53-.81 1.11-1.62 1.68-2.42.57-.81 1.16-1.61 1.73-2.42.56-.81 1.12-1.62 1.66-2.43.53-.8 1.04-1.61 1.56-2.42s1.01-1.62 1.55-2.42c.55-.81 1.09-1.63 1.71-2.42.64-.82 1.31-1.63 2.06-2.42.79-.83 1.64-1.64 2.56-2.43.97-.83 2.02-1.63 3.12-2.42 1.16-.83 2.39-1.63 3.66-2.42 1.32-.82 2.7-1.62 4.1-2.42 1.44-.82 2.93-1.62 4.43-2.42 1.52-.82 3.08-1.62 4.62-2.43s3.1-1.61 4.63-2.42c1.51-.8 3.03-1.6 4.5-2.42 1.43-.8 2.85-1.6 4.22-2.42 1.34-.8 2.64-1.6 3.91-2.42 1.24-.8 2.43-1.61 3.62-2.42 1.18-.8 2.32-1.62 3.49-2.43s2.33-1.62 3.54-2.42c1.23-.82 2.49-1.63 3.78-2.42 1.33-.82 2.72-1.62 4.11-2.42 1.42-.82 2.9-1.61 4.35-2.42 1.44-.81 2.94-1.6 4.32-2.43 1.31-.79 2.66-1.56 3.76-2.42.97-.76 2.03-1.53 2.55-2.42.44-.75.77-1.65.61-2.42-.18-.85-1.03-1.7-1.91-2.42-1.17-.95-2.97-1.69-4.79-2.43-2.22-.91-4.9-1.66-7.63-2.42-3.09-.86-6.52-1.64-9.96-2.42-3.66-.83-7.57-1.62-11.39-2.42-3.86-.81-7.84-1.6-11.64-2.42-3.66-.79-7.34-1.58-10.76-2.42-3.16-.78-6.25-1.57-9.06-2.43-2.5-.77-4.88-1.55-7.01-2.42-1.86-.76-3.57-1.55-5.09-2.42-1.33-.76-2.52-1.57-3.59-2.42-.97-.77-1.8-1.59-2.58-2.42-.73-.79-1.37-1.61-1.97-2.43-.58-.79-1.1-1.6-1.58-2.42-.47-.8-.89-1.6-1.26-2.42-.37-.8-.69-1.61-.97-2.42-.28-.8-.51-1.61-.72-2.42s-.37-1.62-.52-2.43-.27-1.61-.39-2.42a100 100 0 0 1-.58-4.84 99 99 0 0 1-.36-4.84c-.04-.81-.07-1.62-.1-2.43s-.04-1.61-.06-2.42l-.03-2.42c-.01-.81-.02-1.61-.02-2.42v-2.42c0-.81-.01-1.62-.01-2.43V42.91c0-.81.01-1.61.01-2.42v-2.43c0-.81.01-1.61.02-2.42l.03-2.42c.02-.81.03-1.61.06-2.42s.06-1.61.1-2.42.09-1.61.14-2.42.11-1.62.17-2.43.12-1.61.17-2.42.1-1.61.13-2.42a65 65 0 0 0-.01-4.84q-.045-1.215-.12-2.43c-.05-.81-.11-1.61-.17-2.42s-.12-1.61-.17-2.42-.1-1.61-.14-2.42q-.04-.81-.1-2.42h-.12" class="violin" style="vector-effect:none;stroke-width:2px;stroke:#00f;stroke-opacity:1;fill:#00f;fill-opacity:.5"/><path d="M170.03 167.37h11.75m-11.75 17.36h11.75v-29.02h-11.75Zm0 0v38.48m0-67.5v-39.93" class="box" style="vector-effect:non-scaling-stroke;stroke-width:2px;stroke:#00f;stroke-opacity:1;fill:#00f;fill-opacity:.5"/></g><g class="trace violins" style="opacity:1"><path d="M312.62 208.86h.12q.07-.58.11-.87c.05-.29.1-.58.16-.87s.13-.58.2-.87.16-.58.24-.87.16-.58.23-.87.14-.58.19-.87.1-.58.13-.87.04-.58.04-.87-.01-.59-.04-.88q-.045-.435-.12-.87c-.05-.29-.12-.58-.19-.87s-.15-.58-.23-.87-.16-.58-.23-.87-.14-.58-.2-.87q-.09-.435-.15-.87c-.04-.29-.06-.58-.07-.87q-.015-.435 0-.87c.01-.29.04-.58.08-.87q.06-.435.15-.87c.06-.29.14-.58.21-.87l.24-.87c.08-.29.17-.58.25-.87.07-.29.14-.58.2-.87q.09-.435.15-.87c.04-.29.06-.58.09-.87l.06-.87c.02-.29.03-.58.07-.87s.09-.58.17-.87c.09-.3.2-.59.34-.88.15-.3.34-.59.54-.87.21-.3.45-.58.68-.87s.49-.58.71-.87c.21-.29.43-.57.6-.87.16-.28.29-.58.38-.87s.13-.58.18-.87.06-.58.1-.87c.05-.29.09-.58.17-.87s.19-.58.32-.87c.13-.3.31-.58.48-.87s.37-.58.54-.87.35-.58.49-.87a8 8 0 0 0 .36-.87c.1-.29.17-.58.24-.87s.12-.58.19-.87c.08-.29.15-.59.26-.87.12-.3.26-.59.45-.87.21-.3.48-.6.79-.87.35-.31.78-.6 1.25-.87.53-.31 1.15-.6 1.8-.88.73-.31 1.55-.59 2.39-.87.91-.3 1.89-.59 2.88-.87 1.03-.3 2.12-.58 3.19-.87s2.16-.58 3.22-.87c1.03-.29 2.06-.57 3.04-.87.94-.28 1.84-.57 2.73-.87.85-.28 1.65-.58 2.47-.87.81-.29 1.59-.59 2.42-.87.87-.3 1.74-.59 2.68-.87 1.03-.3 2.11-.6 3.27-.87 1.31-.31 2.71-.59 4.19-.87 1.66-.31 3.44-.59 5.29-.87 2.03-.3 4.19-.59 6.38-.87 2.32-.3 4.76-.58 7.17-.87 2.45-.29 4.99-.58 7.43-.87 2.37-.29 4.78-.57 7.02-.87 2.07-.28 4.12-.56 5.97-.87 1.62-.27 3.19-.54 4.55-.87 1.12-.27 2.2-.54 3.05-.88.65-.26 1.35-.51 1.65-.87.21-.25.36-.61.26-.87-.13-.34-.77-.62-1.34-.87-.85-.37-2.1-.61-3.38-.87-1.66-.34-3.67-.6-5.75-.87-2.45-.32-5.23-.59-8.03-.87-3.07-.3-6.4-.58-9.68-.87-3.39-.29-6.92-.58-10.34-.87-3.37-.29-6.77-.57-10.03-.87-3.1-.28-6.15-.57-9.06-.87-2.7-.28-5.32-.57-7.8-.87-2.27-.28-4.45-.56-6.5-.87-1.84-.28-3.61-.56-5.24-.87-1.43-.27-2.79-.55-4.02-.87-1.05-.27-2.04-.55-2.91-.87-.74-.27-1.41-.55-1.99-.87-.49-.27-.92-.56-1.3-.87-.33-.27-.62-.57-.87-.87-.24-.28-.43-.58-.62-.87s-.35-.59-.52-.88-.32-.58-.48-.87-.33-.58-.49-.87l-.48-.87c-.15-.29-.31-.58-.45-.87s-.28-.58-.41-.87c-.12-.29-.24-.58-.34-.87q-.15-.435-.27-.87-.105-.435-.18-.87c-.05-.29-.09-.58-.13-.87s-.06-.58-.09-.87-.05-.58-.08-.87-.07-.58-.11-.87-.1-.58-.15-.87l-.18-.87c-.06-.29-.13-.58-.2-.87-.06-.29-.13-.58-.19-.87q-.09-.435-.15-.87c-.04-.29-.07-.58-.1-.87q-.045-.435-.06-.87c-.02-.29-.02-.59-.03-.88s-.01-.58-.01-.87 0-.58.01-.87.01-.58.03-.87.04-.58.08-.87.08-.58.14-.87.13-.58.22-.87.2-.58.31-.87.24-.58.35-.87.24-.58.33-.87.17-.58.22-.87q.075-.435.06-.87a4.4 4.4 0 0 0-.14-.87c-.07-.29-.18-.58-.28-.87-.11-.29-.24-.58-.35-.87s-.23-.58-.33-.87q-.15-.435-.27-.87c-.08-.29-.14-.58-.19-.87s-.08-.58-.11-.87q-.045-.435-.06-.87c-.01-.29-.01-.59-.02-.88s-.02-.58-.02-.87V71.32c0-.29.01-.58.01-.87s.01-.58.01-.87c.01-.29.01-.58.02-.87a25 25 0 0 1 .13-1.74q.045-.435.12-.87c.05-.29.11-.58.17-.87s.11-.58.17-.87c.05-.29.12-.58.16-.87s.08-.59.09-.88q.015-.435 0-.87c-.01-.29-.04-.58-.07-.87s-.09-.58-.13-.87-.08-.58-.11-.87-.05-.58-.05-.87 0-.58.02-.87.06-.58.1-.87l.12-.87c.04-.29.08-.58.1-.87q.03-.435.03-.87c0-.29-.03-.58-.06-.87s-.08-.58-.13-.87-.11-.58-.17-.87-.12-.58-.17-.87-.11-.58-.15-.87-.06-.58-.09-.87l-.06-.87-.03-.87c-.01-.29-.01-.58-.01-.87s0-.59.01-.88l.03-.87c.02-.29.03-.58.06-.87s.07-.58.11-.87.09-.58.14-.87.11-.58.17-.87.12-.58.17-.87.1-.58.13-.87a8.4 8.4 0 0 0-.01-1.74q-.045-.435-.12-.87c-.05-.29-.12-.58-.18-.87s-.12-.58-.17-.87-.1-.58-.14-.87q-.04-.29-.1-.87h-.12" class="violin" style="vector-effect:none;stroke-width:2px;stroke:green;stroke-opacity:1;fill:green;fill-opacity:.5"/><path d="M314.62 149.86h11.75m-11.75 5.88h11.75v-10.45h-11.75Zm0 0v15.47m0-25.92v-15.1" class="box" style="vector-effect:non-scaling-stroke;stroke-width:2px;stroke:green;stroke-opacity:1;fill:green;fill-opacity:.5"/></g></g></g><path d="M65 316.5h430M65 5.5h430" class="xlines-above crisp" style="fill:none;stroke-width:1px;stroke:#000;stroke-opacity:1"/><path d="M65.5 6v310m429-310v310" class="ylines-above crisp" style="fill:none;stroke-width:1px;stroke:#000;stroke-opacity:1"/><g class="xaxislayer-above"><path d="M0 317v5" class="xtick ticks crisp" style="stroke:#444;stroke-opacity:1;stroke-width:1px" transform="translate(89.45)"/><path d="M0 317v5" class="xtick ticks crisp" style="stroke:#444;stroke-opacity:1;stroke-width:1px" transform="translate(234.03)"/><path d="M0 317v5" class="xtick ticks crisp" style="stroke:#444;stroke-opacity:1;stroke-width:1px" transform="translate(378.62)"/><text y="341.2" class="xtick" style="font-family:&quot;Open Sans&quot;,verdana,arial,sans-serif;font-size:16px;fill:#000;fill-opacity:1;white-space:pre;opacity:1" text-anchor="middle" transform="translate(89.45)">CHGNet</text><text y="341.2" class="xtick" style="font-family:&quot;Open Sans&quot;,verdana,arial,sans-serif;font-size:16px;fill:#000;fill-opacity:1;white-space:pre;opacity:1" text-anchor="middle" transform="translate(234.03)">M3GNet</text><text y="341.2" class="xtick" style="font-family:&quot;Open Sans&quot;,verdana,arial,sans-serif;font-size:16px;fill:#000;fill-opacity:1;white-space:pre;opacity:1" text-anchor="middle" transform="translate(378.62)">MACE</text></g><g class="yaxislayer-above"><path d="M65 0h-5" class="ytick ticks crisp" style="stroke:#444;stroke-opacity:1;stroke-width:1px" transform="translate(0 300.53)"/><path d="M65 0h-5" class="ytick ticks crisp" style="stroke:#444;stroke-opacity:1;stroke-width:1px" transform="translate(0 261.74)"/><path d="M65 0h-5" class="ytick ticks crisp" style="stroke:#444;stroke-opacity:1;stroke-width:1px" transform="translate(0 222.95)"/><path d="M65 0h-5" class="ytick ticks crisp" style="stroke:#444;stroke-opacity:1;stroke-width:1px" transform="translate(0 184.16)"/><path d="M65 0h-5" class="ytick ticks crisp" style="stroke:#444;stroke-opacity:1;stroke-width:1px" transform="translate(0 145.37)"/><path d="M65 0h-5" class="ytick ticks crisp" style="stroke:#444;stroke-opacity:1;stroke-width:1px" transform="translate(0 106.58)"/><path d="M65 0h-5" class="ytick ticks crisp" style="stroke:#444;stroke-opacity:1;stroke-width:1px" transform="translate(0 67.79)"/><path d="M65 0h-5" class="ytick ticks crisp" style="stroke:#444;stroke-opacity:1;stroke-width:1px" transform="translate(0 29)"/><text x="56.8" y="5.6" class="ytick" style="font-family:&quot;Open Sans&quot;,verdana,arial,sans-serif;font-size:16px;fill:#000;fill-opacity:1;white-space:pre;opacity:1" text-anchor="end" transform="translate(0 300.53)">−20</text><text x="56.8" y="5.6" class="ytick" style="font-family:&quot;Open Sans&quot;,verdana,arial,sans-serif;font-size:16px;fill:#000;fill-opacity:1;white-space:pre;opacity:1" text-anchor="end" transform="translate(0 261.74)">−15</text><text x="56.8" y="5.6" class="ytick" style="font-family:&quot;Open Sans&quot;,verdana,arial,sans-serif;font-size:16px;fill:#000;fill-opacity:1;white-space:pre;opacity:1" text-anchor="end" transform="translate(0 222.95)">−10</text><text x="56.8" y="5.6" class="ytick" style="font-family:&quot;Open Sans&quot;,verdana,arial,sans-serif;font-size:16px;fill:#000;fill-opacity:1;white-space:pre;opacity:1" text-anchor="end" transform="translate(0 184.16)">−5</text><text x="56.8" y="5.6" class="ytick" style="font-family:&quot;Open Sans&quot;,verdana,arial,sans-serif;font-size:16px;fill:#000;fill-opacity:1;white-space:pre;opacity:1" text-anchor="end" transform="translate(0 145.37)">0</text><text x="56.8" y="5.6" class="ytick" style="font-family:&quot;Open Sans&quot;,verdana,arial,sans-serif;font-size:16px;fill:#000;fill-opacity:1;white-space:pre;opacity:1" text-anchor="end" transform="translate(0 106.58)">5</text><text x="56.8" y="5.6" class="ytick" style="font-family:&quot;Open Sans&quot;,verdana,arial,sans-serif;font-size:16px;fill:#000;fill-opacity:1;white-space:pre;opacity:1" text-anchor="end" transform="translate(0 67.79)">10</text><text x="56.8" y="5.6" class="ytick" style="font-family:&quot;Open Sans&quot;,verdana,arial,sans-serif;font-size:16px;fill:#000;fill-opacity:1;white-space:pre;opacity:1" text-anchor="end" transform="translate(0 29)">15</text></g></g></g><g class="layer-above"><g class="shapelayer"><g class="shape-group" clip-path="url(#a)" data-index="0"><path fill="none" d="M66 145.37h428" data-index="0" style="opacity:1;stroke:#2a3f5f;stroke-opacity:1;fill:#000;fill-opacity:0;stroke-dasharray:3px,3px;stroke-width:2px"/></g></g></g><g class="infolayer"><g class="g-ytitle"><text x="5.559" y="161" class="ytitle" style="font-family:&quot;Open Sans&quot;,verdana,arial,sans-serif;font-size:19px;fill:#000;opacity:1;font-weight:400;white-space:pre" text-anchor="middle" transform="rotate(-90 12.28 154.28)">(ML - DFT) Ω​<tspan dy=".3em" style="font-size:70%">max</tspan><tspan dy="-.21em">​</tspan> (THz)</text></g><g class="annotation" data-index="0" style="opacity:1"><g class="annotation-text-g"><g class="cursor-pointer"><path fill="none" d="M.5.5h71v43H.5z" class="bg" style="stroke-width:1px;stroke:#000;stroke-opacity:0;fill:#000;fill-opacity:0" transform="translate(422 167)"/><text x="36.063" y="18" class="annotation-text" style="font-family:&quot;Open Sans&quot;,verdana,arial,sans-serif;font-size:16px;fill:#000;fill-opacity:1;white-space:pre" text-anchor="middle" transform="translate(422 167)"><tspan x="36.063" y="18" class="line" dy="0em">phonons</tspan><tspan x="36.063" y="18" class="line" dy="1.3em">too soft</tspan></text></g></g></g><g class="annotation" data-index="1" style="opacity:1"><g class="annotation-text-g"><g class="cursor-pointer"><path fill="none" d="M.5.5h71v43H.5z" class="bg" style="stroke-width:1px;stroke:#000;stroke-opacity:0;fill:#000;fill-opacity:0" transform="translate(422 80)"/><text x="36.063" y="18" class="annotation-text" style="font-family:&quot;Open Sans&quot;,verdana,arial,sans-serif;font-size:16px;fill:#000;fill-opacity:1;white-space:pre" text-anchor="middle" transform="translate(422 80)"><tspan x="36.063" y="18" class="line" dy="0em">phonons</tspan><tspan x="36.063" y="18" class="line" dy="1.3em">too stiff</tspan></text></g></g></g><g class="annotation" data-index="2" style="opacity:1"><g class="annotation-text-g"><g class="cursor-pointer"><path fill="none" d="M.5.5h22v21H.5z" class="bg" style="stroke-width:1px;stroke:#000;stroke-opacity:0;fill:#000;fill-opacity:0" transform="rotate(-90 127 61.01)"/><text x="11.547" y="17" class="annotation-text" style="font-family:&quot;Open Sans&quot;,verdana,arial,sans-serif;font-size:15px;fill:orange;fill-opacity:1;white-space:pre" text-anchor="middle" transform="rotate(-90 127 61.01)">58</text></g></g></g><g class="annotation" data-index="3" style="opacity:1"><g class="annotation-text-g"><g class="cursor-pointer"><path fill="none" d="M.5.5h13v21H.5z" class="bg" style="stroke-width:1px;stroke:#000;stroke-opacity:0;fill:#000;fill-opacity:0" transform="rotate(-90 93.5 27.24)"/><text x="6.781" y="17" class="annotation-text" style="font-family:&quot;Open Sans&quot;,verdana,arial,sans-serif;font-size:15px;fill:orange;fill-opacity:1;white-space:pre" text-anchor="middle" transform="rotate(-90 93.5 27.24)">4</text></g></g></g><g class="annotation" data-index="4" style="opacity:1"><g class="annotation-text-g"><g class="cursor-pointer"><path fill="none" d="M.5.5h22v21H.5z" class="bg" style="stroke-width:1px;stroke:#000;stroke-opacity:0;fill:#000;fill-opacity:0" transform="rotate(-90 111 45.37)"/><text x="11.547" y="17" class="annotation-text" style="font-family:&quot;Open Sans&quot;,verdana,arial,sans-serif;font-size:15px;fill:orange;fill-opacity:1;white-space:pre" text-anchor="middle" transform="rotate(-90 111 45.37)">39</text></g></g></g><g class="annotation" data-index="5" style="opacity:1"><g class="annotation-text-g"><g class="cursor-pointer"><path fill="none" d="M.5.5h22v21H.5z" class="bg" style="stroke-width:1px;stroke:#000;stroke-opacity:0;fill:#000;fill-opacity:0" transform="rotate(-90 199.59 -10.99)"/><text x="11.547" y="17" class="annotation-text" style="font-family:&quot;Open Sans&quot;,verdana,arial,sans-serif;font-size:15px;fill:#00f;fill-opacity:1;white-space:pre" text-anchor="middle" transform="rotate(-90 199.59 -10.99)">86</text></g></g></g><g class="annotation" data-index="6" style="opacity:1"><g class="annotation-text-g"><g class="cursor-pointer"><path fill="none" d="M.5.5h13v21H.5z" class="bg" style="stroke-width:1px;stroke:#000;stroke-opacity:0;fill:#000;fill-opacity:0" transform="rotate(-90 165.59 -45.26)"/><text x="6.781" y="17" class="annotation-text" style="font-family:&quot;Open Sans&quot;,verdana,arial,sans-serif;font-size:15px;fill:#00f;fill-opacity:1;white-space:pre" text-anchor="middle" transform="rotate(-90 165.59 -45.26)">1</text></g></g></g><g class="annotation" data-index="7" style="opacity:1"><g class="annotation-text-g"><g class="cursor-pointer"><path fill="none" d="M.5.5h22v21H.5z" class="bg" style="stroke-width:1px;stroke:#000;stroke-opacity:0;fill:#000;fill-opacity:0" transform="rotate(-90 183.59 -26.63)"/><text x="11.547" y="17" class="annotation-text" style="font-family:&quot;Open Sans&quot;,verdana,arial,sans-serif;font-size:15px;fill:#00f;fill-opacity:1;white-space:pre" text-anchor="middle" transform="rotate(-90 183.59 -26.63)">13</text></g></g></g><g class="annotation" data-index="8" style="opacity:1"><g class="annotation-text-g"><g class="cursor-pointer"><path fill="none" d="M.5.5h22v21H.5z" class="bg" style="stroke-width:1px;stroke:#000;stroke-opacity:0;fill:#000;fill-opacity:0" transform="rotate(-90 271.67 -83.49)"/><text x="11.547" y="17" class="annotation-text" style="font-family:&quot;Open Sans&quot;,verdana,arial,sans-serif;font-size:15px;fill:green;fill-opacity:1;white-space:pre" text-anchor="middle" transform="rotate(-90 271.67 -83.49)">45</text></g></g></g><g class="annotation" data-index="9" style="opacity:1"><g class="annotation-text-g"><g class="cursor-pointer"><path fill="none" d="M.5.5h13v21H.5z" class="bg" style="stroke-width:1px;stroke:#000;stroke-opacity:0;fill:#000;fill-opacity:0" transform="rotate(-90 238.17 -117.26)"/><text x="6.781" y="17" class="annotation-text" style="font-family:&quot;Open Sans&quot;,verdana,arial,sans-serif;font-size:15px;fill:green;fill-opacity:1;white-space:pre" text-anchor="middle" transform="rotate(-90 238.17 -117.26)">2</text></g></g></g><g class="annotation" data-index="10" style="opacity:1"><g class="annotation-text-g"><g class="cursor-pointer"><path fill="none" d="M.5.5h22v21H.5z" class="bg" style="stroke-width:1px;stroke:#000;stroke-opacity:0;fill:#000;fill-opacity:0" transform="rotate(-90 255.67 -99.13)"/><text x="11.547" y="17" class="annotation-text" style="font-family:&quot;Open Sans&quot;,verdana,arial,sans-serif;font-size:15px;fill:green;fill-opacity:1;white-space:pre" text-anchor="middle" transform="rotate(-90 255.67 -99.13)">53</text></g></g></g></g></svg>