<svg xmlns="http://www.w3.org/2000/svg" width="500" height="350" class="main-svg"><path d="M0 0h500v350H0z" style="fill:#fff;fill-opacity:1"/><defs><clipPath id="b" class="plotclip"><path d="M0 0h438v310H0z"/></clipPath><clipPath id="a" class="axesclip"><path d="M0 6h500v310H0z"/></clipPath></defs><g class="layer-below"><g class="shapelayer"><g class="shape-group" clip-path="url(#a)" data-index="1"><path fill-rule="evenodd" d="M56 178.22h438v-34.44H56Z" data-index="1" style="opacity:.1;stroke:#2a3f5f;stroke-opacity:1;fill:green;fill-opacity:1;stroke-width:2px"/></g></g></g><g class="cartesianlayer"><g class="subplot xy"><g class="gridlayer"><g class="x"><path d="M0 6v310" class="xgrid crisp" style="stroke:#d3d3d3;stroke-opacity:1;stroke-width:1px" transform="translate(79.48)"/><path d="M0 6v310" class="xgrid crisp" style="stroke:#d3d3d3;stroke-opacity:1;stroke-width:1px" transform="translate(227.64)"/><path d="M0 6v310" class="xgrid crisp" style="stroke:#d3d3d3;stroke-opacity:1;stroke-width:1px" transform="translate(375.8)"/></g><g class="y"><path d="M56 0h438" class="ygrid crisp" style="stroke:#d3d3d3;stroke-opacity:1;stroke-width:1px" transform="translate(0 298.78)"/><path d="M56 0h438" class="ygrid crisp" style="stroke:#d3d3d3;stroke-opacity:1;stroke-width:1px" transform="translate(0 229.89)"/><path d="M56 0h438" class="ygrid crisp" style="stroke:#d3d3d3;stroke-opacity:1;stroke-width:1px" transform="translate(0 92.11)"/><path d="M56 0h438" class="ygrid crisp" style="stroke:#d3d3d3;stroke-opacity:1;stroke-width:1px" transform="translate(0 23.22)"/></g></g><g class="zerolinelayer"><path d="M56 0h438" class="yzl zl crisp" style="stroke:#ebf0f8;stroke-opacity:1;stroke-width:2px" transform="translate(0 161)"/></g><g class="plot" clip-path="url(#b)" transform="translate(56 6)"><g class="violinlayer mlayer"><g class="trace violins" style="opacity:1"><path d="M23.48 364.71h.11q.06-1.01.1-1.51c.04-.5.08-1.01.13-1.51s.11-1.01.16-1.51.11-1.01.16-1.51.09-1.01.12-1.51.05-1.01.05-1.51-.02-1.01-.05-1.51c-.03-.51-.07-1.01-.12-1.52-.05-.5-.11-1.01-.16-1.51s-.11-1.01-.16-1.51-.09-1.01-.13-1.51-.07-1.01-.1-1.51c-.02-.5-.04-1.01-.05-1.51l-.03-1.51c-.01-.5-.01-1.01-.02-1.51 0-.5-.01-1.01-.01-1.51v-22.66c0-.5.01-1.01.01-1.51s0-1.01.01-1.51l.03-1.51a76 76 0 0 1 .13-3.02c.04-.5.08-1.01.13-1.51l.15-1.51c.05-.5.12-1.01.17-1.51a38 38 0 0 0 .2-3.02c.01-.51.01-1.01-.01-1.52-.02-.5-.05-1.01-.08-1.51s-.07-1.01-.1-1.51-.05-1.01-.06-1.51-.01-1.01.02-1.51.09-1.01.15-1.51c.07-.5.15-1.01.24-1.51s.19-1.01.28-1.51c.08-.5.17-1.01.23-1.51s.11-1.01.12-1.51-.01-1.01-.05-1.51-.11-1.01-.19-1.51-.2-1.01-.3-1.51-.22-1.01-.32-1.51a40 40 0 0 1-.48-3.02c-.06-.5-.1-1.01-.14-1.51-.03-.5-.05-1.01-.07-1.51-.02-.51-.03-1.01-.04-1.52-.01-.5-.01-1.01-.02-1.51 0-.5-.01-1.01-.01-1.51v-15.1c0-.5.01-1.01.01-1.51s0-1.01.01-1.51l.03-1.51c.01-.5.03-1.01.05-1.51.02-.51.05-1.01.09-1.52.03-.5.07-1.01.12-1.51s.11-1.01.16-1.51.11-1.01.16-1.51a38 38 0 0 0 .2-3.02c.01-.5-.01-1.01-.03-1.51s-.06-1.01-.1-1.51-.1-1.01-.15-1.51-.09-1.01-.13-1.51-.07-1.01-.09-1.51-.03-1.01-.02-1.51.03-1.01.06-1.51.08-1.01.12-1.51l.15-1.51c.05-.5.1-1.01.14-1.51s.07-1.01.09-1.51c.02-.51.02-1.01.03-1.52.01-.5.01-1.01.01-1.51.01-.5 0-1.01.02-1.51s.06-1.01.11-1.51c.06-.5.13-1.01.22-1.51.1-.51.22-1.01.35-1.51s.28-1.01.43-1.51.32-1.01.48-1.51.32-1.01.47-1.51.31-1.01.45-1.51.28-1.01.41-1.51.25-1.01.37-1.51.22-1.01.33-1.51.21-1.01.32-1.51.21-1.01.33-1.51.24-1.01.39-1.51c.15-.51.32-1.01.52-1.51.2-.51.43-1.02.69-1.52.27-.51.58-1.01.9-1.51.33-.51.7-1.01 1.07-1.51.38-.51.78-1.01 1.18-1.51.4-.51.82-1.01 1.23-1.51l1.24-1.51 1.24-1.51c.42-.5.83-1.01 1.25-1.51.43-.51.86-1.01 1.3-1.51s.88-1.01 1.32-1.51.89-1.01 1.34-1.51.89-1.01 1.35-1.51c.47-.51.93-1.02 1.43-1.51.52-.51 1.05-1.02 1.65-1.51.65-.52 1.34-1.03 2.11-1.51.86-.53 1.81-1.03 2.85-1.51 1.18-.54 2.49-1.03 3.88-1.51 1.57-.54 3.28-1.03 5.08-1.51 2-.53 4.16-1.03 6.39-1.52 2.43-.53 5.01-1.02 7.65-1.51 2.81-.52 5.75-1.02 8.71-1.51 3.07-.51 6.26-1.01 9.39-1.51s6.36-.99 9.41-1.51c2.9-.49 5.86-.97 8.47-1.51 2.26-.47 4.64-.88 6.28-1.51 1.15-.44 2.72-.96 2.78-1.51.05-.47-.88-1.08-1.7-1.51-1.4-.73-4.03-1.05-6.44-1.51-3.04-.58-6.74-1.03-10.38-1.51-4.01-.53-8.42-1.01-12.67-1.51-4.29-.51-8.76-.99-12.93-1.51-3.92-.49-7.84-.97-11.39-1.51-3.13-.48-6.17-.95-8.81-1.51-2.2-.46-4.26-.93-5.99-1.51-1.37-.46-2.61-.93-3.6-1.51-.79-.46-1.44-.97-1.97-1.52-.45-.47-.76-1-1.07-1.51-.3-.49-.5-1.01-.77-1.51-.28-.51-.54-1.02-.87-1.51-.34-.51-.72-1.02-1.13-1.51-.43-.51-.92-1.01-1.4-1.51-.49-.51-1.03-1-1.53-1.51-.5-.5-1.03-1-1.49-1.51-.45-.49-.89-.99-1.25-1.51-.34-.49-.65-.99-.87-1.51-.21-.49-.36-1-.45-1.51-.09-.5-.09-1.01-.09-1.51s.06-1.01.09-1.51.08-1.01.07-1.51-.04-1.01-.15-1.51c-.11-.51-.28-1.02-.5-1.51-.23-.51-.54-1.01-.85-1.51-.32-.51-.7-1.01-1.05-1.52-.35-.5-.73-1-1.06-1.51-.32-.5-.64-1-.89-1.51-.24-.49-.45-1-.61-1.51-.16-.5-.26-1-.35-1.51-.08-.5-.12-1.01-.16-1.51s-.05-1.01-.08-1.51-.04-1.01-.08-1.51-.09-1.01-.16-1.51c-.08-.5-.17-1.01-.29-1.51-.12-.51-.27-1.01-.43-1.51-.16-.51-.35-1.01-.53-1.51s-.38-1.01-.55-1.51-.35-1-.49-1.51a15.6 15.6 0 0 1-.51-3.02c-.04-.5-.04-1.01-.05-1.51-.01-.51.01-1.01.01-1.52 0-.5-.01-1.01-.02-1.51s-.03-1.01-.06-1.51-.08-1.01-.13-1.51L24 86.76c-.05-.5-.1-1.01-.13-1.51s-.07-1.01-.07-1.51.01-1.01.05-1.51.1-1.01.2-1.51c.1-.51.23-1.01.38-1.51.15-.51.34-1.01.54-1.51.2-.51.44-1.01.65-1.51s.44-1 .63-1.51c.18-.5.36-1 .48-1.51.11-.5.19-1.01.21-1.51s-.01-1.01-.06-1.51c-.05-.51-.17-1.01-.27-1.51s-.23-1.01-.34-1.51c-.11-.51-.21-1.01-.3-1.52a26 26 0 0 1-.35-3.02c-.03-.5-.05-1.01-.07-1.51a76 76 0 0 1-.07-3.02c0-.5.01-1.01.01-1.51s0-1.01-.01-1.51a25 25 0 0 0-.23-3.02c-.07-.5-.16-1.01-.26-1.51s-.22-1.01-.33-1.51-.24-1.01-.35-1.51-.21-1.01-.3-1.51-.16-1.01-.22-1.51a39 39 0 0 1-.24-3.02c-.02-.51-.03-1.01-.04-1.52-.01-.5-.02-1.01-.02-1.51v-1.51c0-.5-.01-1.01-.01-1.51V6.7c0-.5.01-1.01.01-1.51s0-1.01.01-1.51l.03-1.51a76 76 0 0 1 .13-3.02c.04-.5.08-1.01.13-1.51s.11-1.01.16-1.51.11-1.01.16-1.51.1-1.01.13-1.51.05-1.01.06-1.51 0-1.01-.02-1.51c-.02-.51-.07-1.01-.11-1.52-.04-.5-.1-1.01-.15-1.51s-.11-1.01-.16-1.51-.09-1.01-.12-1.51-.06-1.01-.07-1.51-.01-1.01 0-1.51.04-1.01.07-1.51.08-1.01.12-1.51l.15-1.51c.05-.5.11-1.01.16-1.51.04-.5.09-1.01.11-1.51s.03-1.01.03-1.51-.03-1.01-.06-1.51-.08-1.01-.13-1.51l-.15-1.51c-.05-.5-.1-1.01-.14-1.51s-.07-1.01-.08-1.51-.02-1.01-.01-1.51c.01-.51.04-1.01.07-1.52.03-.5.08-1.01.13-1.51l.15-1.51c.05-.5.09-1.01.13-1.51.03-.5.07-1.01.08-1.51s.01-1.01-.01-1.51-.05-1.01-.09-1.51-.1-1.01-.15-1.51-.12-1.01-.17-1.51a77 77 0 0 1-.33-4.53c-.02-.5-.03-1.01-.04-1.51s-.01-1.01-.01-1.51-.01-1.01-.01-1.51-.01-1.01-.01-1.51v-21.15c0-.5.01-1.01.01-1.51.01-.5.01-1.01.02-1.51l.03-1.51c.01-.5.03-1.01.05-1.51.03-.51.06-1.01.1-1.52.04-.5.08-1.01.13-1.51s.11-1.01.16-1.51.11-1.01.16-1.51.09-1.01.12-1.51.05-1.01.05-1.51-.02-1.01-.05-1.51-.07-1.01-.12-1.51-.11-1.01-.16-1.51-.11-1.01-.16-1.51-.09-1.01-.13-1.51q-.04-.5-.1-1.51h-.11" class="violin" style="vector-effect:none;stroke-width:2px;stroke:orange;stroke-opacity:1;fill:orange;fill-opacity:.5"/><path d="M25.48 159.31h12.04m-12.04 8.21h12.04v-13.96H25.48Zm0 0v20.74m0-34.7v-19.35" class="box" style="vector-effect:non-scaling-stroke;stroke-width:2px;stroke:orange;stroke-opacity:1;fill:orange;fill-opacity:.5"/></g><g class="trace violins" style="opacity:1"><path d="M171.64 491.69h.1q.05-1.21.08-1.82c.03-.61.07-1.22.11-1.83s.09-1.21.14-1.82.1-1.22.14-1.83.08-1.21.11-1.82c.02-.61.04-1.21.04-1.82s-.01-1.22-.04-1.83c-.02-.61-.07-1.21-.11-1.82s-.09-1.22-.14-1.83-.1-1.21-.14-1.82-.08-1.21-.11-1.82-.06-1.22-.08-1.83-.04-1.21-.05-1.82l-.03-1.83c-.01-.61-.01-1.21-.01-1.82s-.01-1.22-.01-1.83v-27.36c0-.61.01-1.21.01-1.82.01-.61.01-1.22.02-1.83l.03-1.82c.01-.61.03-1.21.05-1.82.03-.61.06-1.22.1-1.83l.12-1.82c.04-.61.09-1.22.14-1.83s.1-1.21.14-1.82.06-1.21.08-1.82.03-1.22.02-1.83-.02-1.21-.05-1.82-.08-1.22-.12-1.83-.09-1.21-.14-1.82-.1-1.21-.14-1.82-.08-1.22-.11-1.83a111 111 0 0 1-.11-3.65c-.01-.61-.01-1.21-.02-1.82 0-.61-.01-1.21-.01-1.82s-.01-1.22-.01-1.83v-43.78c0-.61.01-1.21.01-1.82s0-1.22.01-1.83.03-1.21.04-1.82c.02-.61.03-1.21.05-1.82q.03-.915.09-1.83c.03-.61.08-1.21.12-1.82l.15-1.83c.05-.61.09-1.21.13-1.82s.07-1.21.09-1.82.03-1.22.02-1.83-.02-1.21-.05-1.82-.07-1.22-.11-1.83-.1-1.21-.14-1.82c-.05-.61-.09-1.22-.13-1.83s-.07-1.21-.09-1.82-.04-1.21-.04-1.82q0-.915.03-1.83c.02-.61.04-1.21.07-1.82s.08-1.22.12-1.83.09-1.21.14-1.82c.04-.61.1-1.21.13-1.82s.06-1.22.07-1.83 0-1.21-.01-1.82-.04-1.22-.07-1.83-.09-1.21-.13-1.82c-.05-.61-.1-1.21-.14-1.82-.05-.61-.09-1.22-.13-1.83s-.07-1.21-.1-1.82-.04-1.22-.06-1.83-.03-1.21-.04-1.82-.02-1.21-.02-1.82v-1.83c0-.61 0-1.21.01-1.82l.03-1.83c.01-.61.03-1.21.05-1.82s.05-1.22.08-1.83.08-1.21.12-1.82.09-1.21.14-1.82.1-1.22.14-1.83.08-1.21.1-1.82.04-1.22.04-1.83-.03-1.21-.05-1.82c-.03-.61-.06-1.21-.1-1.82s-.09-1.22-.14-1.83-.1-1.21-.14-1.82-.08-1.22-.11-1.83-.06-1.21-.08-1.82-.03-1.21-.04-1.82-.01-1.22-.01-1.83.01-1.21.02-1.82.04-1.22.07-1.83.07-1.21.12-1.82.12-1.22.19-1.83.15-1.21.23-1.82c.09-.61.19-1.21.28-1.82s.17-1.22.25-1.83c.07-.61.15-1.21.2-1.82q.075-.915.12-1.83c.03-.61.03-1.21.04-1.82s.01-1.21.03-1.82.02-1.22.07-1.83c.04-.61.11-1.21.2-1.82s.2-1.22.34-1.83.31-1.21.48-1.82.37-1.21.55-1.82.36-1.22.51-1.83c.14-.6.29-1.21.36-1.82s.11-1.22.09-1.83-.1-1.22-.22-1.82c-.12-.61-.3-1.22-.49-1.83s-.43-1.21-.64-1.82-.44-1.21-.63-1.82c-.18-.61-.36-1.22-.48-1.83-.12-.6-.21-1.21-.25-1.82s-.04-1.22-.02-1.83.09-1.21.15-1.82a57 57 0 0 1 .54-3.65c.11-.61.22-1.21.34-1.82s.25-1.22.4-1.83.31-1.21.48-1.82.36-1.21.53-1.82.35-1.22.51-1.83.31-1.21.43-1.82.21-1.22.3-1.83c.08-.61.14-1.21.21-1.82s.12-1.21.22-1.82.2-1.23.37-1.83c.17-.61.38-1.22.65-1.82.28-.62.62-1.23 1-1.83.39-.62.85-1.22 1.33-1.82.5-.62 1.05-1.23 1.62-1.83.58-.62 1.19-1.22 1.82-1.82a66 66 0 0 1 4.19-3.65c.77-.62 1.57-1.22 2.38-1.82q1.26-.93 2.58-1.83c.9-.61 1.82-1.22 2.75-1.82.94-.61 1.9-1.22 2.87-1.82.99-.61 1.99-1.23 3.03-1.83 1.09-.62 2.18-1.24 3.37-1.82 1.3-.64 2.66-1.26 4.16-1.83 1.7-.65 3.55-1.25 5.56-1.82 2.31-.66 4.86-1.24 7.53-1.82 3.01-.65 6.32-1.24 9.66-1.83 3.58-.63 7.45-1.21 11.17-1.82s7.64-1.19 11.14-1.83c3.15-.58 6.47-1.09 8.93-1.82 1.82-.54 4.31-1.02 4.61-1.83.19-.52-.33-1.31-.96-1.82-1.13-.92-3.99-1.27-6.4-1.82-3.03-.7-6.79-1.25-10.41-1.83-3.94-.64-8.25-1.21-12.37-1.82-4.13-.61-8.37-1.2-12.38-1.83-3.81-.59-7.59-1.18-11.12-1.82-3.23-.58-6.36-1.17-9.25-1.82-2.58-.58-5.03-1.18-7.27-1.83-1.95-.57-3.8-1.16-5.43-1.82-1.41-.57-2.72-1.17-3.83-1.83-.95-.57-1.8-1.17-2.5-1.82-.62-.57-1.12-1.19-1.55-1.82-.4-.59-.67-1.22-.97-1.83-.29-.6-.51-1.21-.79-1.82s-.55-1.23-.87-1.83c-.33-.61-.69-1.22-1.07-1.82-.39-.61-.83-1.21-1.25-1.82s-.87-1.22-1.29-1.83c-.41-.6-.83-1.2-1.19-1.82-.35-.6-.69-1.21-.97-1.83-.27-.6-.51-1.21-.69-1.82-.18-.6-.3-1.22-.4-1.83-.09-.6-.15-1.21-.17-1.82s0-1.21.03-1.82.09-1.22.15-1.83.15-1.21.22-1.82.15-1.22.21-1.83.11-1.21.13-1.82.01-1.21-.03-1.82-.13-1.22-.24-1.83-.27-1.22-.44-1.82c-.17-.61-.38-1.22-.57-1.83s-.41-1.21-.59-1.82c-.18-.6-.36-1.21-.5-1.82s-.26-1.22-.34-1.83-.12-1.21-.14-1.82-.01-1.22.02-1.83.09-1.21.13-1.82.1-1.22.13-1.83.06-1.21.06-1.82-.01-1.21-.04-1.82-.09-1.22-.15-1.83-.14-1.21-.2-1.82-.12-1.22-.17-1.83c-.04-.61-.09-1.21-.1-1.82s-.01-1.21.01-1.82.06-1.22.1-1.83.11-1.21.16-1.82.11-1.22.15-1.83.08-1.21.1-1.82.03-1.21.02-1.82-.05-1.22-.09-1.83-.1-1.21-.15-1.82l-.18-1.83c-.05-.61-.11-1.21-.15-1.82q-.06-.915-.09-1.83c-.02-.61-.01-1.21-.01-1.82s.02-1.21.04-1.82l.06-1.83c.01-.61.03-1.21.03-1.82s-.02-1.22-.04-1.83-.05-1.21-.09-1.82-.09-1.21-.14-1.82-.09-1.22-.14-1.83c-.04-.61-.09-1.21-.13-1.82q-.06-.915-.09-1.83c-.02-.61-.03-1.21-.05-1.82-.01-.61-.03-1.21-.04-1.82s-.01-1.22-.01-1.83-.01-1.21-.01-1.82V17.42c0-.61.01-1.21.01-1.82s0-1.22.01-1.83.01-1.21.03-1.82.04-1.21.07-1.82a56 56 0 0 1 .28-3.65c.07-.61.14-1.22.23-1.83.08-.61.19-1.21.28-1.82s.18-1.21.25-1.82.14-1.22.18-1.83.06-1.21.05-1.82q-.015-.915-.09-1.83c-.05-.61-.12-1.21-.2-1.82s-.18-1.21-.27-1.82-.18-1.22-.26-1.83-.16-1.21-.22-1.82-.12-1.22-.16-1.83-.07-1.21-.09-1.82-.04-1.22-.05-1.83-.02-1.21-.02-1.82 0-1.21.01-1.82.01-1.22.03-1.83c.01-.61.04-1.21.06-1.82.03-.61.05-1.22.09-1.83s.08-1.21.13-1.82l.15-1.82c.05-.61.1-1.22.13-1.83s.06-1.21.07-1.82.02-1.22.01-1.83-.04-1.21-.07-1.82-.09-1.21-.13-1.82c-.05-.61-.09-1.22-.14-1.83-.04-.61-.09-1.21-.13-1.82s-.07-1.22-.1-1.83-.05-1.21-.07-1.82-.02-1.22-.03-1.83-.02-1.21-.02-1.82.01-1.21.01-1.82c.01-.61.01-1.22.02-1.83s.03-1.21.05-1.82.05-1.22.08-1.83.07-1.21.11-1.82.09-1.21.14-1.82.1-1.22.14-1.83.09-1.21.11-1.82c.03-.61.04-1.22.04-1.83s-.02-1.21-.04-1.82c-.03-.61-.07-1.21-.11-1.82s-.09-1.22-.14-1.83-.1-1.21-.14-1.82-.08-1.22-.11-1.83q-.03-.61-.08-1.82h-.1" class="violin" style="vector-effect:none;stroke-width:2px;stroke:#00f;stroke-opacity:1;fill:#00f;fill-opacity:.5"/><path d="M173.64 155.4h12.04m-12.04 12.91h12.04v-18.37h-12.04Zm0 0v27.48m0-45.85v-26.87" class="box" style="vector-effect:non-scaling-stroke;stroke-width:2px;stroke:#00f;stroke-opacity:1;fill:#00f;fill-opacity:.5"/></g><g class="trace violins" style="opacity:1"><path d="M319.8 391.21h.08q.03-1.13.06-1.7c.03-.57.06-1.14.1-1.71.03-.57.07-1.13.11-1.7s.09-1.14.12-1.71.06-1.13.08-1.7.04-1.13.04-1.7-.02-1.14-.04-1.71-.05-1.13-.08-1.7-.08-1.14-.12-1.71-.07-1.13-.11-1.7c-.03-.57-.07-1.13-.1-1.7s-.04-1.14-.06-1.71-.03-1.13-.04-1.7l-.03-1.71c-.01-.57-.01-1.13-.01-1.7V258.3c0-.57.01-1.14.01-1.71s.01-1.13.01-1.7c.01-.57.01-1.13.02-1.7s.03-1.14.05-1.71.04-1.13.07-1.7.06-1.14.1-1.71l.12-1.7c.04-.57.08-1.13.11-1.7s.05-1.14.07-1.71.03-1.13.03-1.7-.03-1.14-.05-1.71-.06-1.13-.09-1.7-.08-1.13-.11-1.7l-.09-1.71c-.02-.57-.05-1.13-.06-1.7q-.015-.855 0-1.71c.01-.57.03-1.13.07-1.7s.09-1.13.15-1.7.14-1.14.23-1.71.2-1.13.31-1.7.24-1.14.37-1.71.27-1.13.39-1.7.25-1.13.35-1.7.2-1.14.26-1.71.11-1.13.12-1.7a19.5 19.5 0 0 0-.27-3.41c-.09-.57-.2-1.13-.31-1.7s-.23-1.14-.33-1.71-.21-1.13-.29-1.7q-.12-.855-.21-1.71a49 49 0 0 1-.22-3.4c-.03-.57-.05-1.14-.07-1.71s-.04-1.13-.05-1.7-.03-1.14-.03-1.71 0-1.13.01-1.7.04-1.13.08-1.7.09-1.14.16-1.71.14-1.13.25-1.7.23-1.14.39-1.71.34-1.14.56-1.7c.23-.57.5-1.14.81-1.7.32-.58.69-1.15 1.09-1.71.41-.58.88-1.14 1.35-1.7.48-.57.99-1.14 1.49-1.71.49-.57 1.01-1.13 1.48-1.7.46-.56.92-1.12 1.33-1.7.4-.56.76-1.14 1.11-1.71.35-.56.65-1.14 1-1.7.36-.57.69-1.16 1.14-1.71.49-.59 1.03-1.17 1.71-1.7.8-.62 1.77-1.18 2.88-1.7 1.38-.64 3.03-1.19 4.84-1.71 2.24-.64 4.85-1.17 7.64-1.7 3.32-.63 7.09-1.17 10.98-1.71 4.39-.61 9.24-1.15 14.04-1.7 5.04-.58 10.46-1.12 15.5-1.7 4.82-.56 9.89-1.07 14.11-1.71 3.46-.52 7.4-.82 9.41-1.7 1.1-.48 2.36-1.21 2.28-1.71-.12-.7-3.17-1.2-5.28-1.7-3-.71-7.2-1.16-11.11-1.7-4.35-.6-9.25-1.14-13.82-1.71-4.5-.56-9.18-1.1-13.41-1.7-3.83-.54-7.59-1.09-10.9-1.71-2.8-.53-5.43-1.06-7.69-1.7-1.83-.52-3.48-1.06-4.9-1.7a20.3 20.3 0 0 1-3.05-1.71c-.81-.54-1.48-1.12-2.17-1.7-.67-.56-1.27-1.15-1.93-1.71a70 70 0 0 0-2.03-1.7c-.72-.57-1.47-1.14-2.22-1.7-.77-.57-1.56-1.14-2.34-1.71s-1.57-1.13-2.34-1.7c-.75-.56-1.51-1.13-2.22-1.71a38 38 0 0 1-1.99-1.7c-.59-.55-1.17-1.11-1.67-1.7-.47-.55-.91-1.12-1.26-1.71-.33-.55-.61-1.12-.8-1.7a7.3 7.3 0 0 1-.33-1.71c-.04-.57.02-1.14.1-1.7.08-.57.24-1.14.4-1.7.16-.57.37-1.14.55-1.71s.37-1.13.51-1.7.26-1.14.32-1.71.09-1.14.05-1.7c-.04-.57-.14-1.14-.28-1.7-.14-.57-.34-1.15-.57-1.71-.23-.57-.51-1.14-.8-1.7-.29-.57-.62-1.14-.93-1.71s-.64-1.13-.95-1.7c-.3-.56-.61-1.13-.88-1.7-.27-.56-.52-1.14-.74-1.71-.21-.56-.4-1.13-.56-1.7q-.24-.855-.39-1.71c-.1-.56-.17-1.13-.21-1.7s-.05-1.13-.05-1.7.03-1.14.08-1.71.12-1.13.2-1.7.18-1.14.27-1.71.19-1.13.28-1.7.18-1.13.25-1.7.13-1.14.16-1.71.04-1.13.04-1.7-.03-1.14-.06-1.71-.08-1.13-.12-1.7-.08-1.13-.11-1.7q-.045-.855-.06-1.71c-.01-.57-.01-1.13-.02-1.7s-.01-1.14-.02-1.71-.02-1.13-.05-1.7-.08-1.13-.13-1.7c-.06-.57-.13-1.14-.2-1.71s-.16-1.13-.23-1.7c-.08-.57-.15-1.14-.22-1.71s-.13-1.13-.18-1.7-.1-1.13-.13-1.7c-.04-.57-.06-1.14-.08-1.71s-.04-1.13-.05-1.7-.01-1.14-.02-1.71c0-.57-.01-1.13-.01-1.7V7.81c0-.57.01-1.13.01-1.7s0-1.14.01-1.71l.03-1.7c.01-.57.03-1.13.05-1.7s.04-1.14.07-1.71.07-1.13.11-1.7.07-1.14.11-1.71.08-1.13.11-1.7.06-1.13.07-1.7.02-1.14.01-1.71-.03-1.13-.05-1.7c-.03-.57-.06-1.14-.1-1.71l-.12-1.7c-.04-.57-.08-1.13-.11-1.7s-.06-1.14-.08-1.71-.05-1.13-.06-1.7c-.02-.57-.02-1.14-.03-1.71s-.01-1.13-.02-1.7c0-.57-.01-1.13-.01-1.7v-25.56c0-.57.01-1.14.01-1.71s0-1.13.01-1.7l.03-1.71c.01-.57.03-1.13.05-1.7s.05-1.13.08-1.7.06-1.14.1-1.71l.12-1.7c.04-.57.08-1.14.11-1.71s.05-1.13.06-1.7.02-1.13.01-1.7-.02-1.14-.05-1.71c-.02-.57-.06-1.13-.1-1.7l-.12-1.71c-.04-.57-.08-1.13-.11-1.7s-.07-1.13-.09-1.7-.04-1.14-.05-1.71l-.03-1.7c-.01-.57-.01-1.14-.02-1.71 0-.57-.01-1.13-.01-1.7v-32.38c0-.57 0-1.13.01-1.7l.03-1.7c.01-.57.02-1.14.04-1.71s.03-1.13.06-1.7.06-1.14.1-1.71c.03-.57.07-1.13.11-1.7s.09-1.13.12-1.7.06-1.14.08-1.71.04-1.13.04-1.7-.02-1.14-.04-1.71-.05-1.13-.08-1.7-.08-1.13-.12-1.7-.07-1.14-.11-1.71c-.03-.57-.07-1.13-.1-1.7q-.03-.57-.06-1.71h-.08" class="violin" style="vector-effect:none;stroke-width:2px;stroke:green;stroke-opacity:1;fill:green;fill-opacity:.5"/><path d="M321.8 154.54h12.04m-12.04 1h12.04v-10.91H321.8Zm0 0v16.13m0-27.04v-16.32" class="box" style="vector-effect:non-scaling-stroke;stroke-width:2px;stroke:green;stroke-opacity:1;fill:green;fill-opacity:.5"/></g></g></g><path d="M55 316.5h440M55 5.5h440" class="xlines-above crisp" style="fill:none;stroke-width:1px;stroke:#000;stroke-opacity:1"/><path d="M55.5 6v310m439-310v310" class="ylines-above crisp" style="fill:none;stroke-width:1px;stroke:#000;stroke-opacity:1"/><g class="xaxislayer-above"><path d="M0 317v5" class="xtick ticks crisp" style="stroke:#444;stroke-opacity:1;stroke-width:1px" transform="translate(79.48)"/><path d="M0 317v5" class="xtick ticks crisp" style="stroke:#444;stroke-opacity:1;stroke-width:1px" transform="translate(227.64)"/><path d="M0 317v5" class="xtick ticks crisp" style="stroke:#444;stroke-opacity:1;stroke-width:1px" transform="translate(375.8)"/><text y="341.2" class="xtick" style="font-family:&quot;Open Sans&quot;,verdana,arial,sans-serif;font-size:16px;fill:#000;fill-opacity:1;white-space:pre;opacity:1" text-anchor="middle" transform="translate(79.48)">CHGNet</text><text y="341.2" class="xtick" style="font-family:&quot;Open Sans&quot;,verdana,arial,sans-serif;font-size:16px;fill:#000;fill-opacity:1;white-space:pre;opacity:1" text-anchor="middle" transform="translate(227.64)">M3GNet</text><text y="341.2" class="xtick" style="font-family:&quot;Open Sans&quot;,verdana,arial,sans-serif;font-size:16px;fill:#000;fill-opacity:1;white-space:pre;opacity:1" text-anchor="middle" transform="translate(375.8)">MACE</text></g><g class="yaxislayer-above"><path d="M55 0h-5" class="ytick ticks crisp" style="stroke:#444;stroke-opacity:1;stroke-width:1px" transform="translate(0 298.78)"/><path d="M55 0h-5" class="ytick ticks crisp" style="stroke:#444;stroke-opacity:1;stroke-width:1px" transform="translate(0 229.89)"/><path d="M55 0h-5" class="ytick ticks crisp" style="stroke:#444;stroke-opacity:1;stroke-width:1px" transform="translate(0 161)"/><path d="M55 0h-5" class="ytick ticks crisp" style="stroke:#444;stroke-opacity:1;stroke-width:1px" transform="translate(0 92.11)"/><path d="M55 0h-5" class="ytick ticks crisp" style="stroke:#444;stroke-opacity:1;stroke-width:1px" transform="translate(0 23.22)"/><text x="46.8" y="5.6" class="ytick" style="font-family:&quot;Open Sans&quot;,verdana,arial,sans-serif;font-size:16px;fill:#000;fill-opacity:1;white-space:pre;opacity:1" text-anchor="end" transform="translate(0 298.78)">−4</text><text x="46.8" y="5.6" class="ytick" style="font-family:&quot;Open Sans&quot;,verdana,arial,sans-serif;font-size:16px;fill:#000;fill-opacity:1;white-space:pre;opacity:1" text-anchor="end" transform="translate(0 229.89)">−2</text><text x="46.8" y="5.6" class="ytick" style="font-family:&quot;Open Sans&quot;,verdana,arial,sans-serif;font-size:16px;fill:#000;fill-opacity:1;white-space:pre;opacity:1" text-anchor="end" transform="translate(0 161)">0</text><text x="46.8" y="5.6" class="ytick" style="font-family:&quot;Open Sans&quot;,verdana,arial,sans-serif;font-size:16px;fill:#000;fill-opacity:1;white-space:pre;opacity:1" text-anchor="end" transform="translate(0 92.11)">2</text><text x="46.8" y="5.6" class="ytick" style="font-family:&quot;Open Sans&quot;,verdana,arial,sans-serif;font-size:16px;fill:#000;fill-opacity:1;white-space:pre;opacity:1" text-anchor="end" transform="translate(0 23.22)">4</text></g></g></g><g class="layer-above"><g class="shapelayer"><g class="shape-group" clip-path="url(#a)" data-index="0"><path fill="none" d="M56 161h438" data-index="0" style="opacity:1;stroke:#2a3f5f;stroke-opacity:1;fill:#000;fill-opacity:0;stroke-dasharray:3px,3px;stroke-width:2px"/></g></g></g><g class="infolayer"><g class="g-ytitle"><text x="5.731" y="161" class="ytitle" style="font-family:&quot;Open Sans&quot;,verdana,arial,sans-serif;font-size:19px;fill:#000;opacity:1;font-weight:400;white-space:pre" text-anchor="middle" transform="rotate(-90 12.366 154.366)">(ML - DFT) Ω​<tspan dy=".3em" style="font-size:70%">min</tspan><tspan dy="-.21em">​</tspan> (THz)</text></g><g class="annotation" data-index="0" style="opacity:1"><g class="annotation-text-g"><g class="cursor-pointer"><path fill="none" d="M.5.5h71v43H.5z" class="bg" style="stroke-width:1px;stroke:#000;stroke-opacity:0;fill:#000;fill-opacity:0" transform="translate(422 188)"/><text x="36.063" y="18" class="annotation-text" style="font-family:&quot;Open Sans&quot;,verdana,arial,sans-serif;font-size:16px;fill:#000;fill-opacity:1;white-space:pre" text-anchor="middle" transform="translate(422 188)"><tspan x="36.063" y="18" class="line" dy="0em">phonons</tspan><tspan x="36.063" y="18" class="line" dy="1.3em">too soft</tspan></text></g></g></g><g class="annotation" data-index="1" style="opacity:1"><g class="annotation-text-g"><g class="cursor-pointer"><path fill="none" d="M.5.5h71v43H.5z" class="bg" style="stroke-width:1px;stroke:#000;stroke-opacity:0;fill:#000;fill-opacity:0" transform="translate(422 90)"/><text x="36.063" y="18" class="annotation-text" style="font-family:&quot;Open Sans&quot;,verdana,arial,sans-serif;font-size:16px;fill:#000;fill-opacity:1;white-space:pre" text-anchor="middle" transform="translate(422 90)"><tspan x="36.063" y="18" class="line" dy="0em">phonons</tspan><tspan x="36.063" y="18" class="line" dy="1.3em">too stiff</tspan></text></g></g></g><g class="annotation" data-index="2" style="opacity:1"><g class="annotation-text-g"><g class="cursor-pointer"><path fill="none" d="M.5.5h22v21H.5z" class="bg" style="stroke-width:1px;stroke:#000;stroke-opacity:0;fill:#000;fill-opacity:0" transform="rotate(-90 132.5 76.72)"/><text x="11.547" y="17" class="annotation-text" style="font-family:&quot;Open Sans&quot;,verdana,arial,sans-serif;font-size:15px;fill:orange;fill-opacity:1;white-space:pre" text-anchor="middle" transform="rotate(-90 132.5 76.72)">19</text></g></g></g><g class="annotation" data-index="3" style="opacity:1"><g class="annotation-text-g"><g class="cursor-pointer"><path fill="none" d="M.5.5h22v21H.5z" class="bg" style="stroke-width:1px;stroke:#000;stroke-opacity:0;fill:#000;fill-opacity:0" transform="rotate(-90 95.5 39.28)"/><text x="11.547" y="17" class="annotation-text" style="font-family:&quot;Open Sans&quot;,verdana,arial,sans-serif;font-size:15px;fill:orange;fill-opacity:1;white-space:pre" text-anchor="middle" transform="rotate(-90 95.5 39.28)">14</text></g></g></g><g class="annotation" data-index="4" style="opacity:1"><g class="annotation-text-g"><g class="cursor-pointer"><path fill="none" d="M.5.5h22v21H.5z" class="bg" style="stroke-width:1px;stroke:#000;stroke-opacity:0;fill:#000;fill-opacity:0" transform="rotate(-90 114 58)"/><text x="11.547" y="17" class="annotation-text" style="font-family:&quot;Open Sans&quot;,verdana,arial,sans-serif;font-size:15px;fill:orange;fill-opacity:1;white-space:pre" text-anchor="middle" transform="rotate(-90 114 58)">67</text></g></g></g><g class="annotation" data-index="5" style="opacity:1"><g class="annotation-text-g"><g class="cursor-pointer"><path fill="none" d="M.5.5h22v21H.5z" class="bg" style="stroke-width:1px;stroke:#000;stroke-opacity:0;fill:#000;fill-opacity:0" transform="rotate(-90 206.66 2.72)"/><text x="11.547" y="17" class="annotation-text" style="font-family:&quot;Open Sans&quot;,verdana,arial,sans-serif;font-size:15px;fill:#00f;fill-opacity:1;white-space:pre" text-anchor="middle" transform="rotate(-90 206.66 2.72)">18</text></g></g></g><g class="annotation" data-index="6" style="opacity:1"><g class="annotation-text-g"><g class="cursor-pointer"><path fill="none" d="M.5.5h22v21H.5z" class="bg" style="stroke-width:1px;stroke:#000;stroke-opacity:0;fill:#000;fill-opacity:0" transform="rotate(-90 169.66 -34.72)"/><text x="11.547" y="17" class="annotation-text" style="font-family:&quot;Open Sans&quot;,verdana,arial,sans-serif;font-size:15px;fill:#00f;fill-opacity:1;white-space:pre" text-anchor="middle" transform="rotate(-90 169.66 -34.72)">11</text></g></g></g><g class="annotation" data-index="7" style="opacity:1"><g class="annotation-text-g"><g class="cursor-pointer"><path fill="none" d="M.5.5h22v21H.5z" class="bg" style="stroke-width:1px;stroke:#000;stroke-opacity:0;fill:#000;fill-opacity:0" transform="rotate(-90 188.16 -16)"/><text x="11.547" y="17" class="annotation-text" style="font-family:&quot;Open Sans&quot;,verdana,arial,sans-serif;font-size:15px;fill:#00f;fill-opacity:1;white-space:pre" text-anchor="middle" transform="rotate(-90 188.16 -16)">70</text></g></g></g><g class="annotation" data-index="8" style="opacity:1"><g class="annotation-text-g"><g class="cursor-pointer"><path fill="none" d="M.5.5h13v21H.5z" class="bg" style="stroke-width:1px;stroke:#000;stroke-opacity:0;fill:#000;fill-opacity:0" transform="rotate(-90 278.82 -73.28)"/><text x="6.781" y="17" class="annotation-text" style="font-family:&quot;Open Sans&quot;,verdana,arial,sans-serif;font-size:15px;fill:green;fill-opacity:1;white-space:pre" text-anchor="middle" transform="rotate(-90 278.82 -73.28)">8</text></g></g></g><g class="annotation" data-index="9" style="opacity:1"><g class="annotation-text-g"><g class="cursor-pointer"><path fill="none" d="M.5.5h22v21H.5z" class="bg" style="stroke-width:1px;stroke:#000;stroke-opacity:0;fill:#000;fill-opacity:0" transform="rotate(-90 243.82 -108.72)"/><text x="11.547" y="17" class="annotation-text" style="font-family:&quot;Open Sans&quot;,verdana,arial,sans-serif;font-size:15px;fill:green;fill-opacity:1;white-space:pre" text-anchor="middle" transform="rotate(-90 243.82 -108.72)">17</text></g></g></g><g class="annotation" data-index="10" style="opacity:1"><g class="annotation-text-g"><g class="cursor-pointer"><path fill="none" d="M.5.5h22v21H.5z" class="bg" style="stroke-width:1px;stroke:#000;stroke-opacity:0;fill:#000;fill-opacity:0" transform="rotate(-90 262.32 -90)"/><text x="11.547" y="17" class="annotation-text" style="font-family:&quot;Open Sans&quot;,verdana,arial,sans-serif;font-size:15px;fill:green;fill-opacity:1;white-space:pre" text-anchor="middle" transform="rotate(-90 262.32 -90)">75</text></g></g></g></g></svg>